<svg width="21" height="24" viewBox="0 0 21 24" fill="none" xmlns="http://www.w3.org/2000/svg">
<g clip-path="url(#clip0_2500_49)">
<mask id="mask0_2500_49" style="mask-type:luminance" maskUnits="userSpaceOnUse" x="15" y="0" width="6" height="18">
<path d="M15.9258 4.34389L16.7153 4.64253V0.40724C16.7153 0.190045 16.9058 0 17.1236 0H20.2815C20.5265 0 20.6898 0.190045 20.6898 0.40724V17.2941H16.7153V6.89593H18.1581L17.0419 5.61991L16.7153 5.23982L15.9258 4.34389Z" fill="white"/>
</mask>
<g mask="url(#mask0_2500_49)">
<path d="M20.6898 0H15.9258V17.2941H20.6898V0Z" fill="#FFF3F7"/>
</g>
<mask id="mask1_2500_49" style="mask-type:luminance" maskUnits="userSpaceOnUse" x="10" y="3" width="6" height="15">
<path d="M10.3447 7.46577L11.1342 8.3617L11.4609 8.74179L12.577 10.0178H11.1342V15.8549C11.7603 15.8278 12.3592 15.9364 12.9582 16.2622C13.2576 16.425 13.5298 16.6422 13.8021 16.8594C13.9654 16.9952 14.156 17.1581 14.3465 17.2395C14.4827 17.2938 14.5916 17.321 14.7277 17.2938C14.7549 17.2938 14.7549 17.2938 14.7821 17.2938H15.1088V6.89563H13.666L14.7821 5.61962L15.1088 5.23952L15.8983 4.3436L15.1088 4.64224V3.50197C15.1088 3.28477 14.9182 3.09473 14.7004 3.09473H11.5425C11.3248 3.09473 11.1342 3.28477 11.1342 3.50197V7.73726L10.3447 7.46577Z" fill="white"/>
</mask>
<g mask="url(#mask1_2500_49)">
<path d="M15.9255 3.09473H10.3447V17.2938H15.9255V3.09473Z" fill="#FFF3F7"/>
</g>
<mask id="mask2_2500_49" style="mask-type:luminance" maskUnits="userSpaceOnUse" x="4" y="6" width="7" height="12">
<path d="M4.76416 10.5607L5.55363 10.8593V6.62404C5.55363 6.40684 5.7442 6.2168 5.96198 6.2168H9.11988C9.33766 6.2168 9.52823 6.40684 9.52823 6.62404V7.76431L10.3177 7.46567L9.52823 8.36159L9.20155 8.74168L8.0854 10.0177H9.52823V16.1263C9.25599 16.1806 9.06543 16.1806 8.68431 16.1806C8.24873 16.1806 7.64982 16.0992 7.37759 16.5335C7.21425 16.7779 7.24148 17.0494 7.35037 17.2937H5.55363V13.1127H6.99647L5.88031 11.8367L5.55363 11.4566L4.76416 10.5607Z" fill="white"/>
</mask>
<g mask="url(#mask2_2500_49)">
<path d="M10.3449 6.2168H4.76416V17.2937H10.3449V6.2168Z" fill="#FFF3F7"/>
</g>
<mask id="mask3_2500_49" style="mask-type:luminance" maskUnits="userSpaceOnUse" x="0" y="9" width="5" height="9">
<path d="M3.97459 11.4573L4.76407 10.5614L3.97459 10.86V9.71974C3.97459 9.50255 3.78403 9.3125 3.56624 9.3125H0.408349C0.190563 9.3125 0 9.50255 0 9.71974V17.2944H3.97459V13.1134H2.53176L3.64791 11.8374L3.97459 11.4573Z" fill="white"/>
</mask>
<g mask="url(#mask3_2500_49)">
<path d="M4.76407 9.3125H0V17.2944H4.76407V9.3125Z" fill="#FFF3F7"/>
</g>
<path d="M5.49885 21.6654C5.52608 21.5568 5.5533 21.4754 5.60775 21.394C5.74386 21.0682 6.15221 20.1994 6.50611 20.0365C6.83279 19.9007 7.45893 20.2808 7.40448 20.7424C7.78561 20.4166 8.57508 20.6609 8.54786 21.2854C8.98343 20.9596 9.44622 21.1496 9.69123 21.8012C10.2901 21.3125 10.5624 21.8555 10.4263 22.4256C10.3446 22.7514 10.2357 23.1315 10.154 23.3759L10.0451 23.6745C9.63679 24.7333 5.30829 22.8872 5.49885 21.6654ZM20.6894 17.8374C16.9054 17.8374 19.1377 17.8374 15.3537 17.8374H14.782C13.2847 17.9731 13.1486 15.7197 9.96347 16.5885C9.419 16.7243 9.25566 16.7514 8.68397 16.7243C7.86728 16.6971 7.56782 16.67 8.16673 17.4844C8.33007 17.6745 8.54786 17.946 9.03788 18.0546C9.63679 18.1903 10.6985 17.7288 11.978 17.9188C12.3047 18.0817 12.6041 18.2989 12.9308 18.5433C13.3664 18.8962 13.7747 19.3035 14.1831 19.6835C14.4281 19.9279 15.1359 20.5795 15.3537 20.9867C15.3809 21.041 15.4081 21.0953 15.4081 21.1225V21.1496V21.1768C15.4081 21.2854 15.4081 21.4211 15.3809 21.5297C18.7021 21.5297 16.007 21.5297 19.3283 21.5297C20.0633 21.5297 20.6622 20.9324 20.6622 20.1994V17.8374H20.6894ZM-0.000241011 17.8374C3.62045 17.8374 1.19758 17.8374 4.81827 17.8374H8.00339H8.03062C8.11229 17.9188 8.19396 18.0003 8.27563 18.0817C8.49341 18.2446 8.7112 18.3532 8.98343 18.4075C9.39178 18.489 9.96347 18.3804 10.3718 18.3261C10.8891 18.2446 11.3791 18.2175 11.8963 18.2718C12.1685 18.4075 12.4408 18.5976 12.713 18.8419C12.7675 18.8691 12.7947 18.9234 12.8491 18.9505C13.0397 19.1134 13.3664 19.412 13.6931 19.7107C13.7747 19.7921 13.8564 19.8736 13.9381 19.955C13.9925 20.0093 14.0742 20.0908 14.1286 20.1451C14.4281 20.4437 14.7275 20.7424 14.8909 20.9596C14.9453 21.041 14.9998 21.0953 15.027 21.1768L15.0542 21.2039C15.0542 21.2311 15.0814 21.2311 15.0814 21.2582C15.0814 21.3397 15.0814 21.4211 15.0542 21.5025V21.5568C14.9453 21.8826 14.6186 22.0998 14.2103 22.0727C14.3464 22.5885 13.8564 22.8872 13.2575 22.8057C13.4208 23.2401 12.9308 23.6745 12.468 23.4845C12.5497 24.0546 11.8963 24.1089 11.3519 23.9188C11.0252 23.8645 10.6985 23.7831 10.4263 23.7016L10.4807 23.5659C10.5896 23.2401 10.6713 22.9143 10.7529 22.5885C10.8618 22.2084 10.8074 21.6654 10.4263 21.4482C10.2357 21.3397 10.0179 21.3397 9.82735 21.4211C9.66401 21.1496 9.419 20.9324 9.0651 20.8781C8.95621 20.851 8.84731 20.8781 8.76564 20.9053C8.62953 20.6609 8.41174 20.4709 8.11229 20.3894C7.94895 20.3351 7.78561 20.3351 7.62227 20.3623C7.56782 20.2265 7.45893 20.1179 7.35004 20.0365C7.0778 19.7921 6.64223 19.6564 6.28833 19.8464C5.93443 20.0365 5.5533 20.6881 5.38996 21.0139C5.36274 21.041 5.36274 21.0682 5.33552 21.0953C5.30829 21.1768 5.28107 21.2582 5.22662 21.3397C5.1994 21.4482 5.14495 21.5297 5.11773 21.6383C1.82372 21.6383 4.57326 21.6383 1.27925 21.6383C0.544224 21.6383 -0.0546875 21.041 -0.0546875 20.308V17.8374H-0.000241011Z" fill="white"/>
</g>
<defs>
<clipPath id="clip0_2500_49">
<rect width="20.6897" height="24" fill="white"/>
</clipPath>
</defs>
</svg>
