<svg width="36" height="48" viewBox="0 0 36 48" fill="none" xmlns="http://www.w3.org/2000/svg">
<path fill-rule="evenodd" clip-rule="evenodd" d="M7.03189 42.3639C11.1209 42.9853 15.2841 43.0165 19.4072 42.7909C21.0389 42.6687 22.6756 42.6467 24.3061 42.8029C25.2695 42.8746 29.4936 43.1976 29.8387 42.3344C29.6215 37.7377 29.1816 33.102 27.832 28.6812C27.2769 27.1114 26.8002 25.8086 25.717 24.5096C25.3756 24.1549 24.6393 23.4111 24.2174 23.1685C23.8519 22.9584 23.6992 23.0333 23.4893 22.6784C23.2807 22.2863 23.1269 21.6315 22.8308 21.3548C22.5293 21.0731 22.0824 21.1739 21.5286 21.2646C21.6304 19.8891 20.9957 19.5388 20.1213 19.2772C18.5844 18.6904 17.0665 18.9852 16.6797 20.8569C15.9624 20.8569 15.5595 21.1656 15.124 21.4623C14.9459 21.5836 15.0698 21.8926 14.8571 21.9879C14.4636 22.1281 13.7683 22.0938 13.3895 22.2662C11.6667 23.0506 10.1322 24.188 9.1245 25.8491C6.86534 29.3956 5.31348 36.8663 5.58202 41.0697C5.46436 41.2543 5.62706 41.5189 5.66842 41.7174C5.72062 41.8901 5.88967 42.0049 6.06609 41.9853C6.31228 42.2502 6.69308 42.3091 7.03189 42.3639Z" fill="#D08B5B"/>
<path fill-rule="evenodd" clip-rule="evenodd" d="M15.5389 21.138C15.7909 20.8751 16.1859 20.7181 16.5601 20.7269L16.5776 20.7275L16.7046 20.7331L16.6197 21.1497L16.6154 21.1694L16.5981 21.2417L16.5751 21.3364L16.5669 21.3712L16.5582 21.4097C16.5569 21.416 16.5555 21.4222 16.5542 21.4283L16.5505 21.4465L16.5143 21.6235L16.521 21.6392L16.5191 21.6794C16.5135 21.8248 16.5448 21.9047 16.6137 21.9303L16.6193 21.9322L16.6586 21.9449L16.6907 22.0146C16.7646 22.1739 16.8335 22.3132 16.9043 22.4443C17.1106 22.8267 17.3569 23.209 17.6407 23.5931C17.9104 23.9582 18.1914 24.3066 18.4835 24.6374C18.6149 24.7862 18.7536 24.9356 18.9013 25.0876L19.0284 25.2179L19.0689 25.2588L19.0961 25.2859L19.13 25.3192L19.1789 25.3658L19.2143 25.4007L19.2258 25.4116C19.2402 25.425 19.2514 25.4341 19.2615 25.4406L19.2652 25.4429L19.2764 25.4495L19.8657 26.0696L20.0739 26.1841L20.1727 26.2389L20.1928 26.199L20.1968 26.1862L20.4159 25.705L20.5496 25.4102C20.8241 24.8039 21.0377 24.3215 21.2331 23.8622L21.2574 23.8049L21.3294 23.634L21.3675 23.5428C21.5421 23.1243 21.6711 22.8013 21.7865 22.4875L21.8029 22.4427L21.8272 22.3757L21.8633 22.2746L21.8699 22.2573C21.9012 22.177 21.8242 21.8852 21.7483 21.7253L21.7441 21.7164L21.7243 21.6768L21.703 21.635C21.6528 21.5371 21.6165 21.4284 21.586 21.2969C21.581 21.2756 21.5764 21.2541 21.572 21.2325L21.5656 21.1999L21.5616 21.1785L21.556 21.1486L21.5479 21.1057L21.7177 21.0773L21.8108 21.0621L21.8514 21.0558C21.904 21.0476 21.9509 21.041 21.9949 21.0354L22.0113 21.0333L22.0409 21.0298L22.0419 21.0357L22.1025 21.0416L22.1474 21.0463C22.3689 21.0697 22.5398 21.0955 22.6611 21.1242L22.6731 21.127L22.6947 21.1325L22.7046 21.1351C22.815 21.1648 22.9 21.229 22.9673 21.3237C23.0134 21.3887 23.0434 21.4509 23.0908 21.5688L23.1078 21.6114L23.1642 21.7509C23.1708 21.7679 23.181 21.795 23.1948 21.8323L23.2427 21.9627L23.4827 22.6257L23.7283 22.7549C23.8424 22.8147 23.9259 22.8578 23.9672 22.8781L23.9818 22.8853L23.9922 22.89L24.0769 22.9236L24.0678 22.95L24.078 22.9559C25.089 23.5377 25.8687 24.4327 26.4757 25.6209L26.4941 25.657L26.5129 25.6944C26.9966 26.6623 27.3432 27.7424 27.6817 29.1844L27.7026 29.274L27.7191 29.3453L27.8073 29.7302C28.1388 31.1831 28.3666 32.2665 28.5552 33.3296L28.5674 33.3989L28.5988 33.5795C28.8356 34.9555 29.0338 36.3191 29.1924 37.6692L29.2188 37.8965C29.2849 38.4766 29.3447 39.0763 29.4096 39.7965L29.4183 39.8932L29.4469 40.2167C29.4773 40.5652 29.5051 40.9131 29.5302 41.2602L29.5426 41.4337L29.568 41.8109L29.5829 42.0259L29.5847 42.055L29.5907 42.167L29.5924 42.1933C29.5947 42.227 29.5973 42.2554 29.6005 42.2816L29.6031 42.301L29.606 42.3198C29.6143 42.3711 29.6309 42.4171 29.6583 42.4685L29.6653 42.4814L29.7123 42.5655L29.6271 42.6103C29.183 42.8444 28.3087 42.9473 27.1092 42.9527L27.0728 42.9528H26.9978C26.4149 42.9525 25.7972 42.93 25.1527 42.8916L25.0069 42.8827L24.8853 42.8749C24.8328 42.8715 24.7818 42.8681 24.7289 42.8644L24.6478 42.8587L24.3089 42.8339C22.7844 42.6878 21.1857 42.6902 19.4241 42.8222C14.8314 43.0735 10.8673 42.9674 7.14144 42.4111L7.02861 42.3941L6.94546 42.3806L6.89587 42.3723C6.50066 42.3048 6.25251 42.2183 6.05887 42.0367L6.04873 42.0271L6.04028 42.0188L6.03662 42.0189C5.84165 42.018 5.66316 41.8904 5.59694 41.7023L5.5935 41.6922L5.58913 41.6781L5.58611 41.6641C5.58303 41.6506 5.57917 41.636 5.57449 41.6201L5.57082 41.6078L5.54004 41.5069L5.64373 41.488C5.65267 41.4863 5.66196 41.4801 5.67097 41.467L5.67961 41.4547L5.69456 41.4339L5.73068 41.3844C5.76915 41.3304 5.78808 41.2966 5.79746 41.2625C5.80576 41.2324 5.80887 41.1938 5.80797 41.14L5.80727 41.1138L5.80319 41.0186C5.80292 41.011 5.80274 41.0043 5.80262 40.9979L5.80249 40.9883L5.80242 40.8543L5.80276 40.7071C5.80299 40.6428 5.80336 40.5802 5.80385 40.5186L5.80469 40.4271L5.80552 40.3534C5.81051 39.9455 5.82248 39.5379 5.84142 39.1311C5.87845 38.3366 5.94196 37.5434 6.03181 36.7531C6.21733 35.1216 6.5015 33.5393 6.88807 32.0102L6.9269 31.8575C7.34487 30.2233 7.74787 28.9635 8.26008 27.7984C8.91155 26.3167 9.70588 25.0972 10.706 24.1222C11.2559 23.5862 11.8649 23.1337 12.512 22.7867C12.8096 22.6271 13.126 22.4855 13.4652 22.3581L13.5138 22.34L13.5923 22.3113L13.6525 22.2891L13.8464 22.2166C13.8872 22.2013 13.9316 22.1842 13.9841 22.1635L14.0165 22.1507L14.3639 22.0121L14.4216 21.9894L14.4857 21.9644L14.5329 21.9463C14.6099 21.9169 14.6797 21.8913 14.7445 21.8686L14.7828 21.8554L14.8176 21.8437L14.9658 21.7924L14.9629 21.9273C14.961 22.017 14.9841 22.0848 15.0354 22.1335L15.0371 22.135L15.0389 22.1365L15.0405 22.1375L15.0495 22.1373L15.0845 22.1371C15.0881 22.1351 15.0915 22.1328 15.0947 22.1301C15.1445 22.0877 15.1677 22.0309 15.1902 21.9007L15.1962 21.8644L15.2066 21.7965L15.2107 21.7708C15.2257 21.6804 15.2388 21.6305 15.2642 21.5734C15.3009 21.4909 15.3494 21.4105 15.4065 21.3366L15.4198 21.3197L15.4732 21.2555L15.4814 21.2454C15.5001 21.2214 15.5096 21.2045 15.5137 21.189L15.5146 21.1848L15.5199 21.1579L15.5389 21.138Z" fill="#FFCF77"/>
<path fill-rule="evenodd" clip-rule="evenodd" d="M23.9564 23.0646C23.9313 23.0506 23.9534 23.0147 23.9786 23.0265C25.1913 23.5957 26.1216 24.5941 26.7762 25.7478C27.454 26.9424 27.8403 28.2986 28.1734 29.6243L28.1854 29.6722C28.5405 31.0902 28.8425 32.523 29.1144 33.9592C29.3897 35.4136 29.6107 36.8771 29.7885 38.3466C29.8764 39.0732 29.9548 39.801 30.016 40.5304C30.0465 40.8948 30.0743 41.2596 30.0992 41.6245C30.1092 41.7704 30.1186 41.9163 30.1266 42.0624L30.1324 42.172C30.1374 42.2714 30.1492 42.371 30.1246 42.469C30.1035 42.5535 30.0587 42.6301 30.0194 42.7076C29.9416 42.861 29.7283 42.8357 29.6444 42.7076L29.6201 42.6703C29.5645 42.5844 29.5183 42.5045 29.5008 42.3975C29.484 42.2939 29.4833 42.1853 29.4758 42.0807C29.4618 41.8881 29.45 41.6954 29.4364 41.5028C29.4081 41.0974 29.3762 40.6922 29.3409 40.2874C29.271 39.4881 29.1961 38.6896 29.1041 37.8926C28.9407 36.476 28.7356 35.0633 28.4938 33.658C28.2576 32.2853 27.9589 30.9265 27.6474 29.5693L27.6151 29.429C27.0696 27.0595 26.2288 24.3308 23.9564 23.0646ZM11.0397 32.3428C11.0486 32.3191 11.087 32.3136 11.0935 32.3428C11.1752 32.7107 11.1833 33.0897 11.1957 33.4664C11.2081 33.838 11.2075 34.2113 11.2021 34.5831C11.1822 35.9496 11.1447 37.3149 11.1122 38.6812C11.096 39.3647 11.0808 40.0482 11.0691 40.7317C11.0647 40.9881 11.061 41.2444 11.0579 41.5008L11.0542 41.8389C11.0523 41.9884 11.0484 42.1361 11.0301 42.2854C11.0181 42.3836 10.9925 42.4773 10.9383 42.5615C10.8998 42.6213 10.845 42.6516 10.7916 42.6922L10.7816 42.7C10.7134 42.7539 10.6416 42.7542 10.5741 42.7L10.5545 42.6845C10.49 42.634 10.4343 42.5946 10.3931 42.5148C10.3358 42.4039 10.3266 42.2834 10.3169 42.1611C10.3021 41.9758 10.3119 41.7877 10.3138 41.6018C10.3177 41.2289 10.3228 40.856 10.3294 40.4831C10.3534 39.1157 10.4008 37.7481 10.4873 36.3831C10.528 35.7402 10.5833 35.0952 10.6574 34.4549L10.6715 34.3349C10.694 34.1465 10.7145 33.9547 10.7376 33.7623C10.3927 33.5197 10.0896 33.2253 9.83118 32.8914C9.81215 32.8668 9.84348 32.8323 9.86645 32.8561C10.1306 33.1297 10.4334 33.3478 10.7686 33.5192C10.8235 33.1165 10.8991 32.716 11.0397 32.3428ZM16.8004 20.1538C16.8051 20.1501 16.8125 20.1485 16.817 20.1538C16.8911 20.2402 16.8761 20.3724 16.8785 20.4819L16.8787 20.4921C16.8841 20.6523 16.8851 20.8119 16.8845 20.9722L16.8829 21.4823C16.8826 21.5524 16.877 21.6254 16.8806 21.696L16.8824 21.7233C16.9214 21.7632 16.9395 21.8208 16.9263 21.8787C16.9239 21.953 16.8851 22.0149 16.8284 22.0539L16.9498 22.2261L17.0713 22.3982C17.3216 22.7535 17.5747 23.1055 17.8385 23.451C18.1075 23.8032 18.3945 24.1421 18.6947 24.468C18.8414 24.6273 18.9906 24.7843 19.1433 24.9378C19.2054 25.0002 19.2689 25.0611 19.3318 25.1226L19.3944 25.1844C19.4314 25.2214 19.4779 25.258 19.5024 25.3049C19.5168 25.3325 19.5201 25.4006 19.5253 25.4119C19.5716 25.5138 19.4926 25.6762 19.3612 25.6254L19.3672 25.6214C19.3911 25.6048 19.3758 25.6045 19.3212 25.6207C19.2868 25.6206 19.2545 25.6126 19.2243 25.597L19.2154 25.592C19.1729 25.5704 19.135 25.5286 19.1005 25.4952L19.0919 25.4871C19.013 25.4131 18.9378 25.3347 18.8622 25.2574C18.7043 25.0961 18.5501 24.9313 18.4007 24.7622C18.1027 24.4247 17.8203 24.0736 17.5528 23.7115C17.2803 23.3428 17.027 22.9551 16.8092 22.5515C16.7265 22.3983 16.6508 22.2422 16.5781 22.0843C16.4367 22.0389 16.4039 21.8884 16.4137 21.7189C16.3616 21.5974 16.3145 21.4733 16.2868 21.3466C16.283 21.3292 16.3053 21.3128 16.3186 21.328C16.3639 21.3794 16.4057 21.4341 16.446 21.4903C16.4703 21.3715 16.501 21.2621 16.5155 21.1924L16.5782 20.8846C16.2249 20.8662 15.8378 21.0114 15.5943 21.2656C15.5812 21.3318 15.5303 21.3792 15.4806 21.441C15.4239 21.5118 15.3744 21.5911 15.3375 21.6741C15.2557 21.8581 15.3019 22.1292 15.143 22.2642C15.1265 22.2783 15.108 22.2881 15.0889 22.2941C15.1643 22.6638 15.13 23.0712 15.1284 23.4463L15.1283 23.4793C15.1287 23.8991 15.1147 24.3192 15.0985 24.7387L15.082 25.1538C15.0606 25.7074 15.0467 26.2613 15.1005 26.8119C15.3461 26.5944 15.6 26.3867 15.8626 26.189C16.0353 26.0589 16.2114 25.9334 16.3908 25.8127L16.5365 25.7153C16.7111 25.5981 16.89 25.4776 17.0812 25.3937C17.3313 25.284 17.5691 25.3217 17.8105 25.4342C18.0509 25.5463 18.2842 25.6764 18.5201 25.7979C18.7599 25.9214 19.0003 26.0438 19.2405 26.1666C19.3996 26.2479 19.6328 26.3214 19.7495 26.4711C19.757 26.438 19.7657 26.4049 19.7758 26.372C19.7642 26.3218 19.7687 26.2676 19.7968 26.2159C20.189 25.495 20.5519 24.7569 20.9122 24.0198C21.0945 23.6467 21.2679 23.2692 21.4507 22.8963L21.6283 22.5332C21.658 22.4727 21.6877 22.4123 21.7177 22.3519C21.7625 22.2615 21.8092 22.172 21.8545 22.0819C21.8736 22.0438 21.8976 22.006 21.9163 21.9675L21.9251 21.9483C21.9256 21.9473 21.9686 21.8119 21.9353 21.8248L21.9325 21.8262C21.9155 21.8358 21.9019 21.8144 21.9129 21.8008C21.9599 21.7426 22.0254 21.7942 22.0522 21.848C22.1261 21.9961 21.9907 22.2286 21.9386 22.3705L21.9358 22.3784C21.7741 22.8361 21.5911 23.2853 21.4035 23.7329C21.0439 24.591 20.6576 25.436 20.2722 26.2824L20.2676 26.297C20.3498 26.234 20.4376 26.1767 20.5127 26.1211C20.7023 25.9806 20.8974 25.847 21.0922 25.7139C21.4495 25.4697 21.8164 25.2416 22.1894 25.0226L22.2641 24.9789C22.4504 24.8703 22.635 24.7822 22.8561 24.8148C23.0616 24.8451 23.2526 24.9555 23.4382 25.0452L23.4574 25.0544L24.031 25.3272C23.9697 25.0826 23.9033 24.8392 23.834 24.5967C23.6989 24.1237 23.5503 23.6546 23.3891 23.1898C23.2386 22.7555 23.0758 22.3259 22.9037 21.8997L22.8518 21.7718C22.7816 21.5964 22.7119 21.405 22.5113 21.351C22.3108 21.297 22.0808 21.3771 21.8976 21.2628C21.881 21.2524 21.883 21.2249 21.9032 21.2198L22.0163 21.1913C22.2285 21.1385 22.4774 21.0854 22.6781 21.1367C22.8966 21.1927 23.0773 21.3761 23.1833 21.5668C23.3011 21.7789 23.3842 22.0162 23.4736 22.2424L23.4878 22.278C23.5904 22.5339 23.6891 22.7914 23.7836 23.0505C23.9724 23.5684 24.1444 24.0925 24.3 24.6213C24.375 24.8762 24.4461 25.1323 24.5145 25.389C24.5342 25.4629 24.5666 25.5524 24.5932 25.6457C24.6237 25.6755 24.6525 25.7087 24.6796 25.7465C24.7245 25.8093 24.6923 25.883 24.6365 25.9206C24.6343 25.9848 24.62 26.0453 24.5859 26.0971C24.4527 26.2993 24.1006 26.2472 24.115 25.9753C24.1171 25.9337 24.1333 25.894 24.1579 25.8604L24.1572 25.855L24.1544 25.845C24.0933 25.8157 24.0319 25.783 23.9672 25.7511L23.3652 25.4535C23.1909 25.3673 22.9977 25.2342 22.8038 25.2013C22.6231 25.1707 22.4324 25.3054 22.2771 25.3867L22.267 25.3919C21.8916 25.5844 21.5189 25.7833 21.1478 25.9838C20.9666 26.0817 20.7877 26.1837 20.6072 26.2828C20.4563 26.3656 20.2934 26.4845 20.1238 26.5313C20.0513 26.5876 19.9652 26.5801 19.8961 26.5375C19.9277 26.7333 19.9257 26.9343 19.9355 27.1346C19.9485 27.4022 19.9505 27.6707 19.9548 27.9387L19.9565 28.0392C19.9679 28.6318 19.974 29.2246 19.9763 29.8173C19.9843 31.9279 19.961 34.0392 19.9555 36.1498C19.9528 37.2102 19.9318 38.2716 19.9042 39.3316C19.8926 39.7808 19.8682 40.2294 19.8418 40.6779L19.8273 40.9226C19.7966 41.4387 19.7785 41.9606 19.6829 42.4698C19.6705 42.5362 19.5581 42.5379 19.5471 42.4698C19.4592 41.9242 19.4543 41.3666 19.4374 40.8145L19.4338 40.7042C19.4135 40.1115 19.4039 39.5191 19.4059 38.9261C19.4134 36.8146 19.4683 34.7045 19.5132 32.5936C19.5358 31.5331 19.5509 30.472 19.586 29.4118C19.6035 28.8813 19.6234 28.3511 19.6469 27.8208C19.6574 27.5841 19.6675 27.3475 19.6833 27.1111L19.6904 27.0098C19.6952 26.9437 19.6992 26.8784 19.704 26.8137C19.4904 26.8918 19.2951 26.7473 19.103 26.6484C18.8816 26.5345 18.6603 26.4204 18.4388 26.3067L18.2171 26.1931L17.7734 25.9667C17.5737 25.8647 17.4198 25.7632 17.2068 25.8828C16.4392 26.3136 15.7339 26.8868 15.0947 27.4882C14.9721 27.6036 14.7131 27.5726 14.6821 27.3793C14.5495 26.5534 14.6301 25.7156 14.6978 24.8873L14.7228 24.5797C14.753 24.2124 14.786 23.8451 14.8299 23.4793C14.8495 23.3156 14.8691 23.1521 14.8907 22.9888L14.9073 22.8663C14.9344 22.6727 14.952 22.4803 15.0097 22.2946C14.9915 22.2887 14.974 22.2791 14.9584 22.2642C14.785 22.0997 14.8686 21.8143 14.9477 21.6186C15.0258 21.4254 15.1449 21.2568 15.294 21.1117C15.3265 21.08 15.3724 21.0597 15.4185 21.0586C15.7801 20.8189 16.1767 20.6993 16.5896 20.8301C16.6012 20.7747 16.613 20.7193 16.6255 20.6641L16.6381 20.6089C16.6703 20.4718 16.6822 20.2454 16.8004 20.1538ZM20.5063 41.7966C20.6185 41.7657 20.7414 41.7983 20.8236 41.8805C20.9058 41.9628 20.9384 42.0857 20.9074 42.1979C20.892 42.2532 20.864 42.3011 20.8236 42.3419C20.7858 42.3794 20.7418 42.4062 20.6914 42.4222L20.6797 42.4258L20.6614 42.4334C20.6051 42.4485 20.5488 42.4485 20.4926 42.4334C20.4389 42.4183 20.3922 42.3911 20.3526 42.3518C20.3132 42.3121 20.286 42.2654 20.2709 42.2116C20.2558 42.1554 20.2558 42.0991 20.2709 42.0428L20.2786 42.0245C20.2941 41.9692 20.322 41.9212 20.3624 41.8805C20.4031 41.8401 20.4511 41.8121 20.5063 41.7966ZM27.1689 30.6111C27.1873 30.5899 27.2172 30.617 27.2058 30.6395C27.031 30.9823 26.8362 31.3226 26.6447 31.6567C26.6601 31.7493 26.6753 31.8411 26.6928 31.9306C26.7674 32.3122 26.8587 32.6868 26.9183 33.072C27.1324 34.4566 27.2435 35.8562 27.3389 37.2531C27.4345 38.6551 27.4468 40.0577 27.4611 41.4625C27.4624 41.5842 27.3688 41.7257 27.2433 41.7487C27.1859 41.7592 27.1429 41.7571 27.0856 41.7487C26.9551 41.7294 26.8734 41.5798 26.8678 41.4625C26.8304 40.6774 26.78 39.8933 26.7217 39.1094C26.6183 37.7197 26.5551 36.3264 26.4715 34.9352L26.4421 34.449C26.4105 33.9221 26.3817 33.3949 26.3723 32.8673C26.366 32.5178 26.3847 32.1683 26.3732 31.8191C26.3626 31.4968 26.3299 31.1463 26.401 30.8296C26.4036 30.8177 26.4223 30.8147 26.4278 30.8261C26.5016 30.9816 26.5484 31.1507 26.5845 31.3233C26.7748 31.0825 26.9687 30.8411 27.1689 30.6111ZM14.6995 22.0961C14.7263 22.0941 14.7252 22.1343 14.6995 22.1373C14.326 22.1806 13.9651 22.3327 13.6123 22.462L13.5821 22.473C13.2257 22.6024 12.8783 22.7528 12.5439 22.9321C11.8902 23.2826 11.2899 23.7346 10.7591 24.2521C8.64 26.3177 7.67428 29.2965 6.96664 32.0958C6.57346 33.651 6.29387 35.2326 6.11265 36.8263C6.02304 37.6144 5.95969 38.4056 5.92276 39.198C5.90385 39.6041 5.89193 40.0106 5.88695 40.4171C5.88439 40.6253 5.88363 40.8336 5.88388 41.0418C5.88401 41.1372 5.90104 41.2574 5.87553 41.35C5.85187 41.4359 5.78514 41.5114 5.73578 41.583C5.67728 41.6678 5.57215 41.6633 5.51284 41.583L5.49096 41.5537C5.42771 41.4698 5.36582 41.3895 5.35678 41.2798C5.34711 41.1622 5.35393 41.041 5.35349 40.9228C5.35249 40.6848 5.35543 40.4468 5.36019 40.2089C5.36936 39.7528 5.38733 39.2969 5.41403 38.8415C5.46823 37.9174 5.55747 36.9951 5.68523 36.0782C5.91234 34.4485 6.25274 32.8343 6.69863 31.2504C7.11928 29.7563 7.61762 28.2666 8.32755 26.8826C8.9867 25.5976 9.85143 24.4021 10.9925 23.5041C11.5231 23.0864 12.1007 22.7384 12.7234 22.4763C13.0375 22.3441 13.3674 22.2361 13.7028 22.1746C14.0345 22.1138 14.3648 22.1223 14.6995 22.0961ZM20.5706 39.1556C20.6299 39.1552 20.696 39.1682 20.7468 39.201L20.8147 39.2535C20.8331 39.2772 20.8514 39.3009 20.8697 39.3247C20.9121 39.38 20.9178 39.4696 20.9089 39.5356C20.9069 39.5797 20.8938 39.6206 20.8697 39.6586L20.818 39.7256C20.7683 39.7661 20.7268 39.795 20.6666 39.8146C20.6352 39.8247 20.6049 39.8269 20.5747 39.8253L20.5646 39.8247L20.5706 39.8255L20.5601 39.8243C20.5502 39.8234 20.5404 39.8224 20.5305 39.821C20.5238 39.8202 20.517 39.8197 20.5103 39.8187C20.5038 39.8182 20.4975 39.818 20.491 39.8186C20.4145 39.8258 20.3376 39.7824 20.2833 39.7325C20.2344 39.6876 20.1905 39.5923 20.1973 39.5248L20.2002 39.4965C20.2053 39.4489 20.2096 39.4302 20.2297 39.3824C20.2493 39.3358 20.2767 39.2948 20.314 39.2601C20.3854 39.1937 20.4727 39.1563 20.5706 39.1556ZM20.3339 35.6712C20.4354 35.5605 20.6098 35.5524 20.7357 35.6194C20.7663 35.6357 20.7945 35.6619 20.8216 35.6838C20.8897 35.7389 20.9165 35.8383 20.9202 35.922C20.9239 36.0049 20.8803 36.1032 20.8216 36.1604L20.8073 36.1742C20.7722 36.2083 20.722 36.238 20.6729 36.247C20.5937 36.2616 20.5273 36.2611 20.4535 36.23C20.3902 36.2033 20.3356 36.1603 20.2985 36.102L20.2925 36.0921C20.2899 36.0881 20.2875 36.0839 20.2853 36.0796L20.282 36.0732C20.2114 35.9375 20.2304 35.7839 20.3339 35.6712ZM20.3864 32.1685C20.4322 32.1541 20.478 32.1521 20.5238 32.1623C20.5549 32.1624 20.5838 32.1703 20.6107 32.1858C20.6399 32.194 20.6652 32.2088 20.6867 32.2302C20.7125 32.2454 20.7332 32.266 20.7485 32.2919C20.7789 32.3252 20.7995 32.3643 20.8101 32.4091L20.8224 32.5007L20.8101 32.5923L20.7754 32.6746C20.7658 32.6871 20.7562 32.6995 20.7465 32.7119C20.7312 32.7379 20.7105 32.7586 20.6846 32.7739C20.6677 32.7907 20.6484 32.8033 20.6268 32.812C20.5501 32.867 20.4479 32.8849 20.3571 32.8599C20.3031 32.8448 20.2562 32.8174 20.2165 32.7779C20.1771 32.7382 20.1497 32.6913 20.1346 32.6374L20.1284 32.5943C20.1204 32.5365 20.1191 32.5045 20.1355 32.431C20.1427 32.3987 20.1635 32.3531 20.1744 32.3339C20.2209 32.252 20.297 32.1959 20.3864 32.1685ZM24.3624 29.6485C24.4939 29.6476 24.6254 29.6478 24.7569 29.6493L24.8554 29.6506C25.0205 29.6532 25.162 29.6361 25.2918 29.7507C25.386 29.8339 25.3445 29.9734 25.255 30.0361C25.1195 30.131 24.9496 30.0832 24.7938 30.0728C24.6296 30.0618 24.4652 30.0526 24.3008 30.0452C23.9824 30.031 23.6638 30.0219 23.3451 30.0205C23.0271 30.0191 22.7086 30.0222 22.3906 30.0273C22.067 30.0325 21.7301 30.0627 21.4084 30.0292C21.3642 30.0246 21.3542 29.9664 21.3979 29.9513C21.701 29.8464 22.0421 29.8124 22.3599 29.7723C22.6876 29.7309 23.0153 29.7016 23.3451 29.6825C23.6839 29.6631 24.0231 29.6509 24.3624 29.6485ZM20.3858 28.6179L20.3967 28.6181C20.4546 28.6183 20.5087 28.6319 20.5592 28.659L20.57 28.665L20.6395 28.7187C20.682 28.7616 20.7115 28.8121 20.7277 28.8702L20.74 28.9615C20.7418 29.0088 20.7319 29.0529 20.7105 29.0939C20.6966 29.1364 20.6729 29.1733 20.6395 29.2044C20.6084 29.2379 20.5715 29.2615 20.529 29.2754C20.4912 29.2952 20.4507 29.3052 20.4075 29.3052L20.3967 29.305C20.3348 29.3048 20.277 29.2892 20.2235 29.2581L20.1539 29.2044C20.1114 29.1615 20.0819 29.111 20.0657 29.0528L20.0534 28.9615C20.0516 28.9143 20.0614 28.8701 20.083 28.8292C20.0968 28.7866 20.1205 28.7498 20.1539 28.7187C20.185 28.6852 20.2219 28.6615 20.2645 28.6477C20.3022 28.6278 20.3427 28.6179 20.3858 28.6179ZM21.4036 20.5499C21.4776 20.4428 21.6117 20.5381 21.5925 20.6243C21.5975 20.8663 21.6099 21.1011 21.665 21.3382C21.6902 21.4467 21.7232 21.5554 21.7741 21.6548L21.7955 21.6966C21.8614 21.8269 21.9126 21.9498 21.8238 22.0927C21.782 22.1601 21.7063 22.2107 21.6244 22.2071C21.2608 22.1914 21.2109 21.6852 21.1888 21.4026C21.166 21.1116 21.2368 20.7918 21.4036 20.5499Z" fill="black"/>
<path fill-rule="evenodd" clip-rule="evenodd" d="M13.7663 8.84178C13.9283 8.66753 14.1355 8.53771 14.362 8.49623C14.1549 8.5999 13.9526 8.70795 13.7663 8.84178ZM13.4491 10.3442C13.4204 10.2114 13.4012 10.0773 13.3951 9.9433C13.4313 9.99847 13.4892 10.0353 13.5541 10.0544C13.5121 10.1485 13.4765 10.2455 13.4491 10.3442ZM24.2875 12.4262C24.1006 11.646 23.2283 10.1454 23.0221 9.85653C22.7982 9.14135 24.0193 8.5678 23.3552 8.00856C23.0546 7.75622 22.6572 7.66692 22.2845 7.57743C19.7037 6.95609 16.9309 7.26946 14.5374 8.41203C14.1733 8.33523 13.794 8.48533 13.5292 8.74897C12.2853 10.0023 13.9805 12.2636 14.3512 13.6766C14.9871 15.2521 13.6771 15.5171 13.8176 16.8501C13.9267 17.5388 14.6225 17.7208 15.2096 17.8249C15.3038 17.8469 15.4296 17.8502 15.4599 17.95C15.5551 18.5321 15.8812 19.0868 16.319 19.4633C16.2807 19.577 16.31 19.7151 16.445 19.815C17.6683 20.7263 19.2108 21.1824 20.7366 21.1004C22.5549 21.0027 23.4953 19.9579 23.7222 19.6889C24.9768 17.9904 24.8269 15.7493 24.5709 13.7251C24.3926 12.3149 24.6187 13.8083 24.2875 12.4262Z" fill="#D08B5B"/>
<path fill-rule="evenodd" clip-rule="evenodd" d="M18.6811 5.93446C18.7383 5.75536 18.9 5.64765 19.0853 5.66988C19.2492 5.6893 19.4248 5.85243 19.4048 6.03247C19.401 6.06722 19.396 6.09978 19.3901 6.13047L19.3909 6.13074L19.3917 6.13078L19.3876 6.14268C19.3754 6.19998 19.3585 6.25133 19.3336 6.29986C19.3017 6.39286 19.2711 6.48616 19.2408 6.57978C19.2845 6.57791 19.3292 6.58041 19.3745 6.58886C19.4213 6.46863 19.4685 6.34871 19.5153 6.22816C19.5656 6.09947 19.6009 5.93415 19.7002 5.83458C19.8273 5.70746 20.0479 5.68115 20.2028 5.77196C20.3664 5.86777 20.4248 6.0381 20.3892 6.22065C20.3711 6.31376 20.3091 6.37856 20.2323 6.41927L20.224 6.42354L20.165 6.56382C20.1831 6.55599 20.2018 6.54879 20.2221 6.54284C20.254 6.53344 20.2852 6.52749 20.3158 6.52499C20.4002 6.37188 20.4929 6.22315 20.5888 6.07724C20.6991 5.90941 20.9146 5.83802 21.0954 5.94417C21.2572 6.03904 21.344 6.28828 21.2281 6.45204C21.1401 6.57634 21.0567 6.70315 20.9745 6.83121C20.9886 6.83372 21.0026 6.83685 21.0161 6.84092C21.0223 6.83247 21.0289 6.82401 21.0357 6.81556C21.1254 6.70409 21.2297 6.62049 21.3368 6.52781C21.4371 6.44076 21.4833 6.30393 21.6151 6.23787C21.781 6.15489 21.9809 6.19466 22.0796 6.35998C22.2913 6.71411 21.9359 6.97274 21.7085 7.18722C21.9062 7.06354 22.112 6.95051 22.3232 6.85282C22.4419 6.79802 22.5624 6.74511 22.6848 6.69939C22.8663 6.63176 23.0131 6.6534 23.1621 6.77924C23.2286 6.8356 23.2617 6.95868 23.2311 7.04068C23.1718 7.19787 23.0781 7.29337 22.9138 7.33877C22.7982 7.3707 22.6798 7.39231 22.5643 7.42581C22.3706 7.48155 22.1826 7.54949 22.0002 7.63434C22.0133 7.64249 22.0258 7.65125 22.0374 7.66127C22.1736 7.61712 22.3122 7.57892 22.4515 7.54636C22.6826 7.49205 22.9177 7.45536 23.1539 7.43241L23.2323 7.42509C23.5155 7.39785 23.856 7.34758 24.0297 7.61931C24.0869 7.70886 24.0931 7.85665 24.0297 7.94526C23.9085 8.1156 23.788 8.14941 23.5875 8.15254C23.7849 8.17352 23.9819 8.19951 24.1781 8.22988C24.3133 8.25055 24.4485 8.27397 24.5831 8.29996L24.6503 8.31317C24.8143 8.34605 24.9973 8.36515 25.1382 8.46033C25.4455 8.66824 25.3012 9.07309 24.9608 9.1163C24.7962 9.13697 24.6135 9.06714 24.452 9.03458C24.2952 9.00295 24.1378 8.97509 23.9798 8.95067C23.8979 8.93783 23.8161 8.92656 23.734 8.91622C23.9011 8.94033 24.0669 8.97446 24.2284 9.02268L24.2732 9.03625C24.5854 9.13163 25.0068 9.28353 25.1041 9.61791C25.1632 9.82112 25.0017 9.99834 24.8062 10.0102C24.6244 10.0212 24.4729 9.91254 24.3186 9.83239C24.2062 9.77415 24.0919 9.73063 23.9707 9.69337C23.8455 9.65485 23.7177 9.62292 23.589 9.59693C23.6978 9.65699 23.8037 9.723 23.9054 9.79685L23.9521 9.83146C24.2223 10.0333 24.6343 10.3458 24.5391 10.7241C24.5092 10.8434 24.3764 10.9574 24.249 10.9452C23.9173 10.9142 23.7343 10.5601 23.4841 10.3703C23.4188 10.3208 23.3473 10.272 23.2723 10.2244C23.6515 10.6778 23.9532 11.2019 24.1828 11.7433C24.6873 12.9343 24.8421 14.0373 24.8458 15.3179L24.8458 15.3576C24.8465 16.0639 24.8305 16.7832 24.7618 17.4864C24.6981 18.1361 24.5813 18.7774 24.2874 19.3657C23.7949 20.3523 22.8351 21.1207 21.7766 21.4131C20.5988 21.7388 19.2823 21.4842 18.3176 20.7327C18.0714 20.5411 18.3978 20.125 18.6492 20.3019C19.6534 21.008 20.952 21.2315 22.1045 20.7537C23.0187 20.3749 23.7549 19.5598 24.0669 18.6214C24.2655 18.0244 24.3233 17.3879 24.3942 16.7657L24.3989 16.7243C24.4739 16.0736 24.5173 15.4186 24.5167 14.7636C24.5157 13.5471 24.3414 12.5458 23.8077 11.4424C23.5566 10.9226 23.2308 10.442 22.8416 10.0203C22.7236 10.0444 22.598 10.0105 22.4787 9.99771C22.4178 9.99113 22.3569 9.98487 22.296 9.97924C22.3582 10.0196 22.4192 10.0615 22.4792 10.1044L22.5579 10.1613C22.804 10.338 23.1164 10.5393 23.0531 10.881C23.0359 10.9734 22.9441 11.0582 22.8551 11.0792C22.5324 11.1562 22.3107 10.8419 22.0927 10.6552C21.9031 10.4931 21.7048 10.3478 21.5027 10.2022C21.4568 10.1693 21.4105 10.1364 21.364 10.1039C21.4077 10.155 21.4503 10.2069 21.4917 10.2592L21.5531 10.3372C21.7387 10.57 22.0062 10.8726 21.8409 11.1744C21.7941 11.2595 21.6941 11.3162 21.5973 11.3143C21.2644 11.3075 21.1319 10.9286 20.9758 10.6894C20.8415 10.4843 20.6956 10.2911 20.5448 10.0979C20.5032 10.045 20.4614 9.99207 20.4189 9.93916C19.7196 9.97548 19.0228 10.0682 18.3382 10.2163C17.8678 10.318 17.4052 10.4499 16.9461 10.5942L16.908 10.6064C16.6595 10.6866 16.4035 10.7892 16.2243 10.9652C16.1988 11.0865 16.2184 11.2144 16.2428 11.3355L16.2619 11.4282C16.3405 11.8159 16.394 12.1963 16.3539 12.5943C16.3124 13.0048 16.189 13.374 16.0385 13.7554C15.9673 13.9351 15.8936 13.9025 15.8683 14.0954C15.8489 14.2423 15.8609 14.394 15.8741 14.5421L15.8852 14.6677C15.9129 14.9967 15.9269 15.3554 15.7118 15.6268C15.6784 15.6685 15.6069 15.6519 15.5831 15.6102C15.5737 15.5936 15.5637 15.5777 15.5528 15.5623C15.4491 15.4117 15.2901 15.3259 15.1084 15.2927C15.0853 15.2887 15.0943 15.2577 15.1137 15.2552C15.2673 15.237 15.4129 15.2755 15.5366 15.355C15.4779 15.1517 15.0239 15.2506 14.8746 15.2901L14.8694 15.2915C14.6833 15.3416 14.5071 15.423 14.3519 15.5382C14.0396 15.7699 13.8591 16.1313 13.8681 16.5204C13.8772 16.9031 14.0743 17.2566 14.4128 17.4397C14.5762 17.528 14.762 17.5706 14.9469 17.5687C15.1399 17.5669 15.3117 17.482 15.505 17.4939C15.6168 17.5008 15.7024 17.621 15.6378 17.7259C15.5947 17.7961 15.5385 17.8512 15.4735 17.8934C15.6318 18.2595 15.8339 18.6086 16.0669 18.9308C16.1959 19.1096 16.3421 19.2746 16.5029 19.4252C16.6285 19.5429 16.9005 19.6791 16.8852 19.8754C16.8799 19.9462 16.8434 19.9894 16.779 20.0157C16.579 20.0977 16.3358 19.8154 16.202 19.6793L16.1912 19.6685C16.0244 19.5019 15.8723 19.3178 15.7399 19.1224C15.505 18.7755 15.3592 18.3844 15.2989 17.9736C14.9781 18.0704 14.5534 17.9796 14.2916 17.8609C13.469 17.4883 13.2 16.3777 13.7001 15.6381C13.7969 15.495 13.9181 15.3726 14.0561 15.2736C14.0258 15.257 13.9974 15.2358 13.9721 15.2088C13.8322 15.0598 13.7332 14.8653 13.635 14.6861L13.6233 14.6646C13.5361 14.5068 13.4538 14.3465 13.3768 14.1838L13.3481 14.1226C13.176 13.7516 13.0251 13.5894 12.9024 13.1993C12.7843 12.8229 12.6913 12.4394 12.631 12.0492L12.615 11.946C12.5801 11.7196 12.5471 11.4775 12.5726 11.2477C12.3974 11.305 12.2212 11.3403 12.0479 11.2542C11.9336 11.1976 11.8705 11.0322 11.9095 10.9136C11.9379 10.8262 11.9854 10.7576 12.0457 10.7038C12.0098 10.6856 11.976 10.6624 11.9464 10.6368L11.9204 10.6143C11.8155 10.5228 11.808 10.349 11.8717 10.2344C11.878 10.2235 11.8842 10.2122 11.8901 10.2012C11.9507 10.0926 12.076 10.0215 12.1997 10.0234C12.2196 10.0237 12.2396 10.0237 12.2599 10.0234C12.2022 10.0105 12.1456 9.99082 12.0919 9.95763C11.8495 9.80828 11.8801 9.40342 12.1734 9.33204C12.2965 9.30229 12.4323 9.3145 12.5679 9.34644C12.5629 9.34362 12.5579 9.3408 12.5529 9.33767C12.4505 9.27474 12.3646 9.15168 12.3742 9.0255C12.3849 8.88585 12.4298 8.78628 12.5529 8.71301C12.6597 8.64977 12.8109 8.64382 12.9171 8.71301C13.0092 8.77344 13.0995 8.84014 13.1863 8.91184C13.0992 8.80444 13.0236 8.68765 12.993 8.56366C12.9552 8.4093 13.0183 8.24115 13.1569 8.15975C13.2675 8.09493 13.3843 8.10213 13.4886 8.15223C13.483 8.07113 13.5027 7.98847 13.5564 7.91521C13.6664 7.76494 13.8662 7.67849 14.0402 7.78808C14.063 7.80249 14.0936 7.82722 14.1233 7.85759C14.0655 7.67317 14.1177 7.47967 14.3147 7.39638C14.435 7.34534 14.5977 7.37102 14.702 7.459C14.6358 7.09986 15.1646 6.83591 15.3701 7.20695C15.4167 7.291 15.4629 7.37951 15.5042 7.47005L15.5194 7.50409L15.521 7.50346L15.5105 7.47857L15.4997 7.45368C15.4426 7.32061 15.3698 7.18221 15.3498 7.03787C15.3204 6.82432 15.4154 6.62174 15.6471 6.59043C15.7668 6.57415 15.8998 6.62863 15.9801 6.72385C15.9367 6.39254 16.3058 6.15176 16.5716 6.39912C16.6975 6.51622 16.7647 6.68749 16.8446 6.83779C16.8899 6.92264 16.9361 7.00718 16.9814 7.09235C16.993 7.07857 17.0055 7.06479 17.0186 7.05133C16.9514 6.84969 16.8993 6.64303 16.8552 6.43513C16.8134 6.23912 16.9111 6.0356 17.1129 5.98021C17.2962 5.92945 17.5258 6.04283 17.5667 6.23852C17.5954 6.37626 17.6295 6.5125 17.667 6.64804C17.6926 6.64178 17.7179 6.6374 17.7429 6.63427C17.7449 6.6088 17.7473 6.58319 17.7499 6.55773L17.7598 6.46715C17.7816 6.2602 17.8036 6.02396 17.9115 5.84804C18.0955 5.54746 18.5671 5.67207 18.5721 6.02746C18.5749 6.21125 18.5003 6.39348 18.4743 6.5754C18.4631 6.65462 18.4565 6.73477 18.4528 6.81493C18.5031 6.54879 18.5721 6.28609 18.6521 6.02746C18.6614 5.99646 18.6714 5.96546 18.6811 5.93446ZM14.6121 16.1976C15.0259 16.1335 15.4041 16.3648 15.6493 16.6889C15.694 16.7481 15.6646 16.8317 15.6243 16.8815C15.5953 16.9181 15.5563 16.9225 15.5122 16.9281C15.4616 16.9347 15.3976 16.8937 15.3754 16.8495C15.2177 16.5339 14.9363 16.3345 14.6121 16.2117C14.6061 16.2095 14.6043 16.1989 14.6121 16.1976ZM15.1858 10.5427L15.1983 10.5292C15.282 10.4421 15.1497 10.3091 15.0658 10.3964C14.9774 10.4883 14.9187 10.5999 14.8622 10.713C14.8084 10.8208 14.97 10.916 15.024 10.8078L15.0487 10.7586C15.0873 10.6821 15.1284 10.6065 15.1858 10.5427ZM14.0236 10.364C14.1422 10.3439 14.0919 10.1629 13.9737 10.1829C13.8206 10.2087 13.6681 10.2381 13.515 10.264C13.3963 10.2841 13.4467 10.4651 13.5648 10.4452C13.7179 10.4193 13.8705 10.3899 14.0236 10.364ZM21.0937 9.12779C20.979 9.08944 20.9298 9.27082 21.0439 9.30896C21.2014 9.36166 21.3577 9.41567 21.5072 9.48884C21.6152 9.54169 21.7103 9.37972 21.6018 9.32662C21.4377 9.24631 21.2667 9.18566 21.0937 9.12779ZM13.9966 8.88432C13.8846 8.83942 13.836 9.02105 13.9468 9.06548L14.3515 9.22777C14.4635 9.27267 14.5121 9.09106 14.4014 9.04663L13.9966 8.88432ZM22.5071 8.44322L22.4923 8.43387C22.3908 8.36793 22.2968 8.5305 22.3977 8.5961C22.457 8.63459 22.529 8.66069 22.5833 8.70654L22.5946 8.71668C22.6823 8.79965 22.8151 8.66708 22.7272 8.58382C22.6629 8.52297 22.5815 8.48909 22.5071 8.44322Z" fill="black"/>
<path fill-rule="evenodd" clip-rule="evenodd" d="M22.1299 18.9635C21.9299 18.9651 21.705 18.89 21.5546 18.8312L21.5154 18.8157C21.3852 18.7635 21.2515 18.7037 21.1518 18.6032C21.1199 18.5705 21.086 18.5336 21.0688 18.4947C21.0587 18.472 21.0545 18.4484 21.0642 18.425C21.1003 18.4215 21.1344 18.4168 21.1668 18.4109C21.1822 18.4081 21.197 18.4052 21.2083 18.4051C21.25 18.4049 21.2913 18.4102 21.3325 18.4154C21.3385 18.4161 21.3444 18.4169 21.3504 18.4176C21.3825 18.4216 21.4145 18.4259 21.4463 18.4302C21.5391 18.4426 21.6314 18.455 21.7255 18.4595C21.7934 18.4628 21.8646 18.4589 21.9365 18.455C22.1229 18.4449 22.3156 18.431 22.4592 18.5616C22.4969 18.5958 22.5126 18.6389 22.5126 18.6828C22.5126 18.7362 22.4901 18.7905 22.4559 18.8331C22.3784 18.9295 22.2591 18.9624 22.1299 18.9635ZM23.2208 17.2815C23.1337 17.4121 22.9887 17.4961 22.7901 17.487C22.3952 17.4689 21.9239 17.3199 21.5932 17.1043C21.507 17.0482 21.4512 16.9585 21.4412 16.8624L21.4234 16.6914L21.3271 16.8338C21.317 16.8486 21.3069 16.8634 21.2968 16.8782C21.2689 16.919 21.241 16.9598 21.2148 17.0015C21.1139 17.1619 21.0214 17.3239 20.9374 17.4938C20.8779 17.6141 20.8344 17.7486 20.7908 17.8843C20.7173 18.1135 20.6462 18.3389 20.4889 18.5C20.4651 18.5244 20.4286 18.5331 20.3951 18.5288C20.3656 18.525 20.3367 18.5105 20.3226 18.4817C20.1347 18.0995 20.3874 17.6388 20.5924 17.3186L20.6141 17.2852C20.8042 16.9958 21.1146 16.6128 21.4702 16.5608L21.5109 16.6257L21.5701 16.5862C21.6669 16.5216 21.7946 16.5246 21.9065 16.5752L22.0184 16.6257C22.2266 16.7192 22.432 16.8054 22.6573 16.8527C22.6737 16.8561 22.6901 16.8593 22.7065 16.8623C22.722 16.8651 22.7375 16.8678 22.7532 16.8702C22.7498 16.8548 22.7462 16.8395 22.7426 16.8243C22.7388 16.8082 22.7349 16.792 22.7308 16.7759C22.7265 16.7592 22.722 16.7427 22.7175 16.7262C22.6994 16.6604 22.679 16.5953 22.6548 16.5315C22.5639 16.2917 22.4186 16.0674 22.2773 15.8534L22.2607 15.8283C22.2404 15.7976 22.2182 15.7656 22.1953 15.7326C22.0851 15.5738 21.9629 15.4015 21.9542 15.2286C22.1005 15.2378 22.2229 15.3287 22.3306 15.4078C22.4785 15.5164 22.6156 15.6405 22.7399 15.7754C22.981 16.0371 23.1974 16.3716 23.2923 16.7173C23.3467 16.9153 23.3228 17.1284 23.2208 17.2815ZM19.3627 15.3089L19.3627 15.3018C19.3631 15.1021 19.4794 14.6463 19.7667 14.6463C19.9462 14.6463 20.0552 14.9565 20.074 15.2763L20.0747 15.2894C20.083 15.4882 20.0285 15.9229 19.7667 15.9229C19.5021 15.9229 19.3654 15.5112 19.3627 15.3089ZM23.5929 15.2462L23.593 15.2392C23.5925 15.0395 23.4763 14.5836 23.189 14.5836C23.0139 14.5836 22.906 14.8786 22.8832 15.1898L22.8816 15.2137C22.8703 15.4059 22.9213 15.8602 23.189 15.8602C23.4535 15.8602 23.5902 15.4486 23.5929 15.2462ZM20.3304 13.9576C20.2923 13.9621 20.2544 13.9679 20.2166 13.9739C20.1061 13.9915 19.9962 14.0127 19.887 14.0373C19.6798 14.0841 19.4741 14.1432 19.2725 14.21C19.0837 14.2726 18.8979 14.3432 18.7122 14.4139C18.7023 14.4176 18.6923 14.4214 18.6824 14.4252C18.6168 14.4501 18.5515 14.4781 18.4859 14.5061C18.3861 14.5488 18.2859 14.5918 18.1836 14.6242C18.4531 14.2514 18.8684 13.9751 19.268 13.7775C19.496 13.6647 19.7379 13.5738 19.9812 13.4993L20.1167 13.4585C20.3162 13.3996 20.5343 13.3452 20.7218 13.4627C20.7959 13.5091 20.8432 13.5813 20.8581 13.6593C20.8727 13.7359 20.856 13.8179 20.8032 13.8864C20.7572 13.9461 20.6998 13.98 20.6388 13.9917C20.5714 14.0045 20.5 13.9904 20.435 13.9557C20.3829 13.9518 20.3676 13.9532 20.3522 13.9549L20.3304 13.9576ZM23.3319 13.9955C23.1983 13.9665 23.0661 13.9548 22.9291 13.959C22.8672 13.9609 22.8072 13.9704 22.7474 13.9801C22.6546 13.995 22.5621 14.0105 22.4621 13.9923C22.4099 13.9829 22.3655 13.9523 22.3311 13.9125C22.291 13.8659 22.2644 13.8063 22.2559 13.7497C22.2471 13.6912 22.2559 13.64 22.2775 13.5949C22.3031 13.5415 22.3461 13.4965 22.3982 13.4571C22.5556 13.3379 22.8258 13.3665 23.0117 13.3907C23.1953 13.4145 23.3779 13.4715 23.5403 13.562C23.7004 13.6513 23.8396 13.7716 23.9483 13.9186C24.0399 14.0426 24.083 14.1852 24.1275 14.3305C23.918 14.1546 23.5973 14.0532 23.3319 13.9955Z" fill="black"/>
<path fill-rule="evenodd" clip-rule="evenodd" d="M22.9296 18.2818C23.0153 18.3698 23.0976 18.464 23.1752 18.5614C23.1968 18.7161 23.2019 18.8726 23.1821 19.0342C23.1533 19.2684 23.0895 19.4973 23.0031 19.7171C22.9521 19.7099 22.9017 19.6955 22.8526 19.6729C22.6967 19.6012 22.6097 19.4569 22.5042 19.3295C22.2942 19.0762 21.9111 18.9265 21.6432 19.1892C21.5267 19.3035 21.4522 19.4616 21.3483 19.5872C21.2341 19.7252 21.1058 19.8564 20.9718 19.9754C20.9552 19.9904 20.938 20.0067 20.9202 20.0227C20.8457 19.9375 20.7724 19.8517 20.7008 19.7647C20.4876 19.5054 20.3036 19.2183 20.2069 18.8946C20.1762 18.7919 20.1571 18.6848 20.1496 18.5767C20.2444 18.459 20.3527 18.3519 20.4757 18.2633C20.8466 17.9956 21.2738 17.9521 21.7183 17.9289C22.1781 17.9051 22.5922 17.9364 22.9296 18.2818ZM24.0513 19.5239C24.0335 19.3448 24.0059 19.1585 23.9652 18.9725C23.8166 18.2824 23.4945 17.5945 22.8488 17.2792C22.5433 17.1299 22.1962 17.0773 21.867 17.1493C21.2892 16.9329 20.6476 17.1537 20.1928 17.5494C19.6563 18.0163 19.4087 18.749 19.3255 19.4353C19.2676 19.9128 19.2458 20.5508 19.3812 20.8972C19.5166 21.2437 20.3773 22.1701 21.6059 22.1766C23.3558 22.1858 23.7812 21.0052 23.8328 20.9019C24.0485 20.4723 24.0986 19.998 24.0513 19.5239Z" fill="black"/>
<path fill-rule="evenodd" clip-rule="evenodd" d="M24.7035 16.1278C24.4162 16.4869 23.2914 16.8855 22.6928 16.4528C22.0941 16.0201 21.8576 15.7185 21.7775 15.1778C21.769 15.1202 21.6648 15.0818 21.6208 15.1228C21.3741 15.352 21.2144 15.6439 21.0562 15.9366C20.8778 16.2666 20.7021 16.5988 20.3778 16.8222C19.8035 17.1302 18.7646 17.174 18.4577 17.0382C17.8697 16.778 17.4046 16.2214 17.2988 15.4556C17.2988 15.4556 17.1912 15.1159 17.097 15.0444C17.0076 14.9766 16.5146 14.9163 16.4606 14.9062C15.4872 14.7255 14.2562 14.6104 13.3892 15.246C13.2719 15.317 12.8702 15.5835 12.8643 15.518C12.8601 15.2613 13.1509 14.6802 13.8123 14.4037C14.6302 14.0618 15.846 14.0418 16.5504 14.1173C16.5858 14.1211 16.7065 14.0914 16.7151 14.0877C17.7822 13.6255 19.01 13.7482 20.1518 13.9425C20.3154 13.9743 21.7801 14.3371 22.3627 14.1173C23.3259 13.7239 24.3529 13.4389 25.3932 13.551C25.4019 13.5519 25.5332 14.3493 25.4309 14.4037C25.3495 14.447 25.2109 14.5579 25.1617 14.6186C25.1177 14.6729 25.09 14.7404 25.0925 14.8338C25.1123 15.3746 24.958 15.8096 24.7035 16.1278ZM20.743 15.6453C20.8651 15.4686 20.9037 15.0715 20.8525 14.7818C20.8266 14.6352 20.7763 14.5184 20.7133 14.4603C20.6713 14.4217 20.6235 14.4035 20.5713 14.4062C20.5427 14.4077 20.5117 14.4158 20.4789 14.4335C20.0346 14.1931 19.4965 14.1066 18.9863 14.1315C18.5802 14.1314 18.2905 14.2273 18.094 14.3765C17.8576 14.5562 17.7511 14.8143 17.7449 15.0944C17.7376 15.4266 17.874 15.7901 18.0979 16.0777C18.3121 16.353 18.6051 16.5571 18.923 16.6042C19.2839 16.6759 19.6517 16.6065 19.9715 16.4369C20.2994 16.263 20.5764 15.9836 20.743 15.6453ZM24.3041 15.8328C24.51 15.5894 24.6468 15.2728 24.6677 14.9592C24.6866 14.6737 24.6102 14.391 24.399 14.1573C24.2074 13.9929 23.869 13.9901 23.513 14.0817C23.0527 14.2001 22.5764 14.4648 22.4177 14.6357C22.3803 14.6553 22.3456 14.6895 22.3153 14.7627L22.3151 14.7889C22.267 15.0107 22.2956 15.2359 22.3787 15.4436C22.4691 15.6693 22.6241 15.8741 22.8131 16.0304C23.0642 16.2373 23.3262 16.3006 23.5716 16.2672C23.8494 16.2294 24.1078 16.0648 24.3041 15.8328Z" fill="white"/>
<path fill-rule="evenodd" clip-rule="evenodd" d="M22.3288 14.0295C23.3042 13.6311 24.3469 13.3439 25.4025 13.4577C25.4898 13.4245 25.5981 13.4525 25.6368 13.576C26.0128 14.7218 25.1744 14.4032 25.1856 14.8315C25.2735 17.2332 22.0468 17.6433 21.6839 15.1917L21.6773 15.1957C21.1553 15.683 21.0453 16.4759 20.4304 16.8997C19.1899 17.8073 17.4315 17.0882 17.2056 15.4725L17.2007 15.4507C17.1249 15.121 17.0342 15.0392 16.6603 15.0408L16.6013 15.0291C15.6298 14.8376 14.3361 14.6655 13.4413 15.324C13.2467 15.4373 13.2376 15.7283 13.0731 15.8548C12.893 15.8898 12.782 15.673 12.7698 15.523C12.7412 14.0275 15.4163 13.9199 16.6144 14.0483C16.6373 14.0246 16.6861 14.0275 16.7026 14.057C17.7861 13.5877 19.0068 13.6527 20.1669 13.85C20.8856 13.9892 21.5954 14.3062 22.3288 14.0295ZM25.3054 13.7338C24.7201 13.7046 24.1786 13.7366 23.6041 13.8773C23.3013 13.9504 23.069 14.0428 22.7791 14.1539C20.9714 14.9552 20.7629 13.531 16.7107 14.0892C16.7631 14.3139 16.7727 14.5363 16.7755 14.7473C17.6029 14.714 17.4081 15.5043 17.7181 16.0594L17.7277 16.0762C18.1794 16.8861 19.2455 17.2639 20.1054 16.7267C20.8228 16.3084 20.8928 15.2474 21.6071 14.8263C22.2263 14.802 21.979 15.638 22.316 15.9816C22.7903 16.6147 23.7984 16.7033 24.3932 16.1077C24.6722 15.8212 24.8205 15.4573 24.8287 15.0664C24.8442 14.8167 24.8014 14.5629 24.9902 14.3873C25.1225 14.2528 25.3575 14.2977 25.3845 14.0944C25.4017 13.9743 25.3517 13.8439 25.3054 13.7338ZM18.9442 14.0612C19.5256 14.0325 20.1408 14.1335 20.6401 14.4188C21.0096 14.1246 21.1002 15.2938 20.8549 15.632C20.5015 16.3554 19.6787 16.831 18.8865 16.673C17.6506 16.4939 16.7896 14.059 18.9442 14.0612ZM20.6046 14.4972L20.573 14.4926C20.0374 14.4108 18.579 14.0321 18.0165 14.6299C17.4706 15.6215 18.8555 17.287 20.2967 15.9604C20.6978 15.5519 20.8532 15.0565 20.6046 14.4972ZM22.3019 14.6239C22.5793 14.2954 23.9929 13.6299 24.4856 14.057C25.3849 15.0652 23.9587 17.1046 22.7642 16.111C22.3663 15.7789 22.1046 15.2497 22.2191 14.7373L22.2193 14.7158C22.2195 14.7081 22.221 14.7098 22.2293 14.7001C22.2441 14.6614 22.2706 14.6367 22.3019 14.6239ZM24.4731 15.235C24.7764 13.5894 23.5088 14.215 22.4678 14.6543C22.5236 14.7053 22.5234 14.7751 22.5073 14.8324C22.3975 16.0534 23.881 16.7453 24.4731 15.235ZM16.5934 14.1282C16.1591 14.2753 13.2871 14.0123 13.0218 15.3591C13.3019 14.9052 13.8819 14.725 14.4033 14.6273C15.1126 14.4943 15.818 14.5713 16.5173 14.7112L16.5317 14.5664C16.5473 14.4129 16.5636 14.2692 16.5934 14.1282Z" fill="black"/>
</svg>
