<svg width="36" height="48" viewBox="0 0 36 48" fill="none" xmlns="http://www.w3.org/2000/svg">
<path fill-rule="evenodd" clip-rule="evenodd" d="M7.62953 42.2057C9.54603 42.2594 11.3564 42.3186 13.2692 42.2057C16.3301 42.0163 25.3129 42.3578 27.2874 42.2057C27.4364 42.1943 27.9488 42.3578 27.9595 42.2057C28.0463 41.1472 28.1025 30.4376 27.8447 29.7007C27.5868 28.9638 26.3139 25.4215 24.6921 23.7697C24.2398 23.3235 23.5516 23.1506 23.1715 22.6349C22.8437 22.0726 22.8692 21.7425 22.5455 21.4467C22.405 21.3183 22.0737 21.2662 21.8275 21.088C21.58 20.842 21.8144 20.3003 21.7128 19.9576C21.5034 19.102 20.732 18.5531 19.8888 18.4237C18.7169 18.1432 17.4797 18.4084 16.9184 19.3293C16.7095 19.6721 16.8207 20.0888 16.5637 20.638C16.582 21.0531 16.0976 21.1534 15.8081 21.3179L15.233 21.8992C13.4615 22.8964 11.3775 23.4348 9.82534 24.7745C8.50565 26.1138 7.19304 27.6617 6.6075 29.4737C6.48628 29.9675 6.44671 30.4778 6.39648 30.9823C6.25307 32.4567 5.85372 33.8877 5.51006 35.3238C5.1182 37.1333 4.75292 39.0541 5.28106 40.8806C5.43333 41.2672 7.2829 42.1877 7.62953 42.2057Z" fill="#D08B5B"/>
<path fill-rule="evenodd" clip-rule="evenodd" d="M16.556 20.6338L16.7057 20.6498V21.8026L18.6629 23.8393L19.0205 24.2484C18.8073 25.009 19.022 25.3893 19.6647 25.3893C20.6286 25.3893 19.8834 25.1091 20.0646 24.7298L20.0723 24.7143C20.2037 24.4546 20.6534 23.9039 21.4213 23.0622L22.3022 21.5892V21.3202L22.332 21.3324C22.4152 21.3671 22.4869 21.4024 22.5357 21.447C22.8594 21.7429 22.8339 22.0729 23.1617 22.6352C23.5419 23.1509 24.2301 23.3238 24.6823 23.77C26.3042 25.4218 27.577 28.9642 27.8349 29.7011C28.0928 30.438 28.0365 41.1475 27.9497 42.2061C27.939 42.3581 27.4266 42.1946 27.2776 42.2061C25.3031 42.3581 16.3204 42.0167 13.2595 42.2061C11.3467 42.3189 9.53626 42.2597 7.61977 42.2061C7.27313 42.188 5.42356 41.2676 5.27129 40.881C4.74316 39.0544 5.10844 37.1336 5.5003 35.3242L5.53427 35.1829C5.86418 33.8177 6.2352 32.4556 6.37946 31.0551L6.38671 30.9826C6.43695 30.4781 6.47651 29.9678 6.59773 29.474C7.18327 27.6621 8.49588 26.1141 9.81557 24.7748C11.3523 23.4486 13.4101 22.9076 15.17 21.9294L15.2233 21.8996L15.7983 21.3182L15.8159 21.3084C16.107 21.1496 16.5719 21.0451 16.5539 20.6384L16.556 20.6338Z" fill="#FDEA6B"/>
<path fill-rule="evenodd" clip-rule="evenodd" d="M16.8164 19.4768C16.8318 19.4267 16.8978 19.4408 16.9028 19.4884C16.9526 19.9606 16.89 20.454 16.8299 20.9231C16.8011 21.1494 16.7845 21.3849 16.7407 21.6081C16.735 21.6319 16.7297 21.656 16.7247 21.6799C16.7391 21.7055 16.7817 21.7343 16.802 21.754L16.8904 21.84L17.0674 22.0114C17.4139 22.3471 17.7604 22.683 18.1069 23.0187L18.6155 23.5119C18.7898 23.6809 18.988 23.8428 19.141 24.0313C19.224 24.1337 19.2427 24.2592 19.161 24.3688C19.1206 24.423 19.0481 24.4624 18.9745 24.4706C19.0033 24.5107 19.0255 24.5561 19.0396 24.6065C19.0684 24.7092 18.9645 24.8354 18.854 24.7925C18.7285 24.7442 18.6249 24.6578 18.4972 24.6165C18.3682 24.5745 18.228 24.5664 18.0944 24.5889C18.033 24.5993 17.9729 24.6146 17.9144 24.6341C18.5407 24.9224 19.2183 25.0881 19.9094 25.1118C20.0502 25.1166 20.1908 25.1147 20.3307 25.1053C20.5661 25.0899 20.7998 25.0543 21.0296 24.9966C21.2102 24.9512 21.3889 24.8942 21.5623 24.8253C21.6474 24.7915 21.7316 24.7543 21.813 24.712L21.8201 24.7078C21.8385 24.6963 22.1786 24.5034 22.1845 24.4744C22.1905 24.4454 22.1905 24.4353 22.1794 24.41C22.1683 24.3848 22.1376 24.3674 22.1376 24.3674C22.0326 24.3225 21.9237 24.2807 21.8089 24.2799C21.5447 24.2783 21.2565 24.4737 21.038 24.6068C20.798 24.753 20.5773 24.924 20.3463 25.0824C20.341 25.0862 20.3351 25.0878 20.3294 25.0878C20.305 25.0878 20.2825 25.0577 20.2981 25.0342C20.4637 24.7903 20.6871 24.5873 20.9208 24.41L21.015 24.3394C21.2291 24.1797 21.4795 24.0028 21.7398 23.9643C22.0587 23.9173 22.3917 24.1162 22.6762 24.2326L23.1801 24.439C23.2699 24.4756 23.3676 24.5069 23.458 24.5486L23.2469 23.8876C23.1414 23.5571 23.0361 23.2265 22.9319 22.8957L22.9117 22.8309C22.8079 22.495 22.7126 22.1457 22.5397 21.8389C22.4984 21.7653 22.4512 21.6961 22.4045 21.6263C22.356 21.554 22.3379 21.4741 22.2769 21.4096C22.156 21.2815 21.9829 21.2064 21.8177 21.1573C21.7773 21.1454 21.7892 21.0921 21.8271 21.0881C21.9967 21.0702 22.1584 21.1098 22.3116 21.1813L22.3753 21.2117C22.5203 21.2803 22.6616 21.3441 22.7692 21.4672C23.0145 21.7484 23.1419 22.1024 23.259 22.4518L23.2903 22.5456C23.3341 22.5312 23.6318 22.622 23.669 22.6436C24.7848 23.1155 25.6443 23.994 26.2728 25.0235C26.9614 26.1517 27.3363 27.4408 27.6458 28.7164C27.7414 29.1101 27.8327 29.505 27.9205 29.9008C27.5295 30.0513 27.1139 30.13 26.7478 30.3421C26.6084 30.4228 26.7344 30.6394 26.8742 30.5584C27.217 30.3598 27.6076 30.2864 27.9745 30.147C28.1735 31.0632 28.3505 31.9845 28.4987 32.9096C28.9542 35.7489 29.2418 38.6345 29.2236 41.5126C29.2233 41.5762 29.2046 41.6473 29.1698 41.7083C29.1902 41.6983 29.2061 41.6864 29.2152 41.672C29.3307 41.4907 29.6202 41.6589 29.5041 41.8411L29.4871 41.8675C29.4 42.0019 29.3186 42.1046 29.1654 42.1805C29.0111 42.2569 28.844 42.2698 28.6737 42.2741C28.095 42.2894 27.5159 42.2993 26.9366 42.3065C26.8571 41.6866 26.8248 41.0607 26.7154 40.4445C26.6872 40.286 26.4459 40.3532 26.4739 40.5111C26.5796 41.1062 26.6135 41.7103 26.6872 42.3095C25.4488 42.3228 24.2096 42.323 22.972 42.3264C21.2949 42.3314 19.6179 42.3279 17.9408 42.3269L17.2221 42.3267C15.2847 42.3267 13.3472 42.3204 11.4099 42.3076L10.9491 42.3044C10.7658 41.2235 10.6411 40.1333 10.6388 39.0349C10.6384 38.8738 10.388 38.8735 10.3884 39.0349C10.3907 40.1321 10.5141 41.2224 10.6957 42.3029C10.237 42.3009 9.77845 42.3026 9.31971 42.3189L9.08622 42.3272C8.61905 42.3432 8.15094 42.3531 7.68465 42.3158C7.16697 42.2741 6.64337 42.179 6.17921 41.935C5.97016 41.825 5.78609 41.6843 5.62878 41.5189C5.78869 41.4258 5.95088 41.3366 6.10578 41.2352C6.24008 41.1473 6.11479 40.9303 5.97939 41.0189C5.81248 41.1282 5.63702 41.2233 5.46515 41.3244C5.34071 41.1583 5.23858 40.9739 5.16102 40.775C5.03864 40.4609 4.99138 40.123 4.95038 39.7905C4.9019 39.3988 4.88184 39.004 4.88184 38.6095C4.88184 37.7797 4.96916 36.9525 5.09094 36.1328C5.2074 35.3475 5.36135 34.5685 5.52407 33.792L5.54631 33.6861C5.70687 32.9227 5.85993 32.1572 6.04396 31.3991C6.21414 30.6982 6.41079 30.0005 6.64515 29.3163C6.85376 29.4453 7.07207 29.5582 7.27742 29.6926C7.41267 29.7812 7.53827 29.5644 7.40381 29.4764C7.18472 29.3329 6.95104 29.2137 6.72994 29.0736C6.99201 28.341 7.29961 27.6254 7.66841 26.9401C8.40703 25.5678 9.40237 24.34 10.6772 23.4339C11.3153 22.9805 12.0155 22.6095 12.7507 22.3395C13.5003 22.064 14.2771 21.9131 15.0715 21.8511C15.0942 21.8493 15.1069 21.8703 15.106 21.8897L15.1057 21.8934L15.137 21.8984C15.1485 21.8198 15.1723 21.7437 15.2177 21.6739C15.321 21.5148 15.5169 21.4128 15.6734 21.3151L15.7105 21.292C15.8967 21.1765 16.0932 21.0628 16.3097 21.0223C16.3172 21.021 16.3219 21.0289 16.3169 21.0348C16.1741 21.1986 15.9915 21.3238 15.8241 21.4623L15.7857 21.4944C15.647 21.6086 15.4535 21.7382 15.4483 21.9291C15.4424 22.1539 15.4884 22.3878 15.505 22.612C15.5216 22.8355 15.5332 23.0588 15.5391 23.283C15.5607 24.0861 15.5348 24.8896 15.4637 25.6896L15.7779 25.4791C16.2669 25.1516 16.7575 24.8251 17.2584 24.5185C17.5614 24.3328 17.9019 24.1741 18.2649 24.1813C18.3667 24.1831 18.4815 24.1979 18.5917 24.2292C18.4731 24.1168 18.3595 23.9972 18.2434 23.8842C18.0521 23.6978 17.8609 23.5116 17.6697 23.3256L17.1183 22.7883L16.5667 22.2509C16.3958 22.084 16.1954 21.9303 16.2136 21.6673C16.2283 21.4575 16.335 21.2487 16.408 21.0464C16.4183 21.0173 16.4277 20.9885 16.4365 20.96C16.5836 20.4709 16.6671 19.964 16.8164 19.4768ZM23.9429 40.4613C23.8288 40.3472 23.6518 40.5243 23.7659 40.6384L23.8262 40.6986C23.927 40.7991 24.0269 40.9028 24.0966 41.0272L24.1069 41.046C24.182 41.1886 24.3982 41.0622 24.3231 40.9195C24.2301 40.7432 24.0823 40.6009 23.9429 40.4613ZM19.0561 40.4291C18.693 40.3598 18.3431 40.3598 17.98 40.4291C17.8219 40.4593 17.8888 40.7008 18.0466 40.6707C18.3641 40.61 18.672 40.61 18.9896 40.6707C19.147 40.7008 19.2145 40.4594 19.0561 40.4291ZM14.1525 37.9042C13.9962 37.8646 13.9296 38.1061 14.0859 38.1457L14.1629 38.1651C14.4246 38.2298 14.6739 38.278 14.9457 38.2179C15.1009 38.1836 15.0382 37.9479 14.8853 37.9751L14.8791 37.9763C14.6276 38.0319 14.3959 37.9659 14.1525 37.9042ZM22.8612 36.2772C22.7456 36.1647 22.5684 36.3417 22.6842 36.4543C22.8287 36.5949 22.999 36.7017 23.2054 36.7074C23.3642 36.7118 23.3664 36.4688 23.2125 36.4573L23.2054 36.4569C23.0671 36.4531 22.9569 36.3702 22.8612 36.2772ZM8.12493 35.6082C8.2691 35.5361 8.14243 35.32 7.99858 35.3919L7.13323 35.8247C6.98907 35.8968 7.11573 36.113 7.25958 36.041L8.12493 35.6082ZM25.2245 35.6634C25.0633 35.6588 25.0635 35.9093 25.2245 35.9139C25.376 35.9181 25.5312 35.9755 25.6661 36.041C25.8105 36.1112 25.9376 35.8952 25.7925 35.8247C25.6161 35.7391 25.4225 35.6689 25.2245 35.6634ZM17.139 34.454C17.2715 34.3639 17.1464 34.1467 17.0126 34.2377C16.8301 34.3617 16.6647 34.5083 16.4851 34.6361L16.4357 34.6705C16.3032 34.7606 16.4283 34.9777 16.5621 34.8868C16.7612 34.7514 16.9399 34.5893 17.139 34.454ZM26.4504 32.6334C26.2893 32.6334 26.2891 32.8839 26.4504 32.8839L26.481 32.8838C26.614 32.8831 26.7542 32.8794 26.8778 32.9326L26.892 32.939C27.037 33.0073 27.1642 32.7914 27.0184 32.7227C26.8371 32.6373 26.6475 32.6335 26.4504 32.6334ZM12.545 32.4545L12.566 32.4466C12.7165 32.3925 12.6516 32.1504 12.4994 32.2051C12.2701 32.2875 12.0916 32.4433 11.8927 32.5784C11.7601 32.6685 11.8852 32.8856 12.019 32.7947C12.1905 32.6782 12.35 32.5308 12.545 32.4545ZM21.9368 31.8028L21.9705 31.7847C22.1139 31.7109 21.9873 31.4947 21.8442 31.5684C21.7305 31.6269 21.6288 31.7048 21.5174 31.7668L21.4836 31.7849C21.3403 31.8586 21.4668 32.0748 21.61 32.0012C21.7236 31.9426 21.8253 31.8648 21.9368 31.8028ZM18.1276 29.3766L18.1018 29.3517C17.9866 29.2388 17.8094 29.4158 17.9247 29.5288C18.2129 29.8109 18.5535 30.0251 18.8972 30.2322L18.9597 30.2698C19.0982 30.3529 19.2242 30.1364 19.0861 30.0535L18.9943 29.9983C18.6888 29.814 18.3868 29.6237 18.1276 29.3766ZM11.1986 29.1427C11.2957 29.0166 11.0845 28.8932 10.9858 29.012L10.9824 29.0163C10.8813 29.1476 10.7614 29.2664 10.636 29.3748L10.6125 29.395C10.5379 29.4585 10.4021 29.5946 10.2972 29.6035C10.1379 29.6171 10.1364 29.8677 10.2972 29.854C10.4594 29.8402 10.599 29.726 10.7215 29.6282C10.8999 29.4858 11.0594 29.3235 11.1986 29.1427ZM24.5198 28.2302C24.6361 28.1209 24.4643 27.9469 24.3469 28.0494L24.3428 28.0531C24.1253 28.2575 23.8126 28.3123 23.5327 28.3816C23.3763 28.4204 23.4426 28.662 23.5992 28.6232L23.7268 28.5917C24.0128 28.5203 24.2998 28.4371 24.5198 28.2302ZM19.5609 26.6502C19.4047 26.6105 19.338 26.8521 19.4944 26.8918C19.76 26.9593 20.0115 27.0466 20.2577 27.1677C20.4018 27.2386 20.5288 27.0227 20.3841 26.9514C20.1192 26.8211 19.8469 26.723 19.5609 26.6502ZM22.1188 21.3699C22.115 21.3586 22.1269 21.3458 22.1385 21.3498C22.4195 21.4546 22.2701 21.8228 22.1828 22.0432L22.167 22.0834C22.0302 22.4366 21.839 22.7804 21.6305 23.0967C21.4124 23.4276 21.1701 23.7445 20.9078 24.042C20.7941 24.1711 20.676 24.2965 20.5541 24.4182L20.5081 24.4637C20.3848 24.5849 20.2258 24.7978 20.0346 24.7743C19.8286 24.7496 19.7138 24.5295 19.864 24.3623C19.9701 24.2439 20.1172 24.1496 20.2358 24.042C20.3535 23.9355 20.4675 23.8256 20.5785 23.7126C20.8058 23.4806 21.0211 23.2354 21.218 22.9771C21.4084 22.7273 21.5906 22.4706 21.7563 22.2037L21.7892 22.1501C21.9153 21.9425 22.2064 21.6373 22.1188 21.3699ZM12.1632 23.9937C12.0298 23.9024 11.9045 24.1194 12.0369 24.21C12.2803 24.3764 12.4945 24.578 12.758 24.7149C12.8991 24.7883 13.0245 24.5781 12.8894 24.5014L12.8844 24.4987C12.6211 24.3618 12.4066 24.16 12.1632 23.9937Z" fill="black"/>
<path fill-rule="evenodd" clip-rule="evenodd" d="M20.6204 21.5878C19.9271 21.5919 19.338 21.3947 18.8884 21.0685C18.3274 20.8679 17.6507 20.5586 17.2397 20.2339C17.0794 20.2749 16.8875 20.1041 16.7648 20.014C16.002 19.4429 15.4032 18.607 15.2257 17.7697C14.9518 18.1163 14.562 18.1307 14.1887 17.9585C13.406 17.5135 13.4352 16.5765 13.717 15.8764C13.1246 14.5439 12.7141 11.0262 13.6183 9.60655C13.8033 9.39413 14.0748 9.26707 14.2702 9.04924C14.4441 8.85899 14.6095 8.66439 14.8118 8.51385C15.4292 8.0428 16.4925 7.792 17.1582 7.67405C19.9374 7.07169 22.0727 8.15437 24.5901 9.06762C24.4453 9.43083 24.2448 9.76207 24.0151 10.0709C24.6401 10.3048 24.3531 10.8306 23.8682 11.0971L23.5795 10.9565C24.0295 12.5705 25.0651 16.584 24.6183 17.8728C24.2619 19.8837 22.6982 21.6024 20.6204 21.5878Z" fill="#D08B5B"/>
<path fill-rule="evenodd" clip-rule="evenodd" d="M21.0214 21.7607C20.1213 21.8533 19.0519 21.64 18.4518 20.907C18.4339 20.885 18.426 20.8602 18.4256 20.8362C18.425 20.8095 18.434 20.7837 18.4494 20.7637C18.4656 20.7426 18.4887 20.7279 18.5152 20.7232C18.5375 20.7191 18.5629 20.7217 18.5891 20.7365L18.6443 20.7673C19.0541 20.9942 19.4797 21.1877 19.9441 21.2705C20.4223 21.3558 20.9093 21.3462 21.3832 21.238C22.2465 21.0408 22.9452 20.5377 23.4594 19.8745C24.0333 19.1343 24.3779 18.1947 24.4658 17.2551C24.5722 16.1163 24.3253 14.9845 24.0698 13.8819C23.8014 12.7234 23.508 11.5707 23.1672 10.4315C23.1569 10.3972 23.1541 10.3651 23.1571 10.3355C23.0566 10.296 22.9496 10.307 22.8431 10.343C22.6485 10.4089 22.4547 10.5574 22.293 10.68C22.2345 10.7244 22.18 10.7657 22.1311 10.7992C21.9306 10.9367 21.7115 11.0357 21.4665 11.0512C21.2116 11.0674 20.9618 10.988 20.7304 10.8886C20.6128 10.8381 20.4971 10.7858 20.3819 10.7336C20.0538 10.5851 19.7295 10.4381 19.3752 10.3425C18.9005 10.2144 18.4103 10.1513 17.9186 10.1558C17.0411 10.1639 16.1609 10.3903 15.6231 11.1343C15.4053 11.4357 15.2632 11.7821 15.374 12.1541C15.4342 12.3564 15.548 12.5401 15.6721 12.7091L15.7147 12.7666C15.7828 12.8593 15.8419 12.9517 15.8597 13.05C15.8747 13.1324 15.863 13.2196 15.8043 13.3151C15.7674 13.3752 15.7204 13.4291 15.6731 13.4829C15.6391 13.5217 15.6049 13.5603 15.5755 13.602C15.5162 13.686 15.4637 13.7765 15.4225 13.8708C15.3419 14.0555 15.3077 14.2542 15.3006 14.4546C15.2919 14.6964 15.3258 14.9328 15.3594 15.1697C15.3833 15.3376 15.4071 15.5057 15.4167 15.6758C15.4184 15.7055 15.4093 15.7276 15.3966 15.744C15.3811 15.7641 15.3585 15.7767 15.3327 15.7802C15.3249 15.7812 15.3168 15.7814 15.3086 15.7807C15.3126 15.797 15.3162 15.8135 15.3192 15.83C15.3029 15.809 15.2856 15.7886 15.2673 15.7689C15.2661 15.7683 15.265 15.7677 15.2638 15.7671C15.245 15.7567 15.229 15.7409 15.2189 15.7205C15.193 15.6964 15.1656 15.6735 15.1368 15.652C14.9871 15.54 14.8123 15.4736 14.6369 15.4714C14.4678 15.4692 14.2983 15.527 14.168 15.6489C13.9089 15.8911 13.8331 16.2866 13.8304 16.6262C13.8276 16.9728 13.9076 17.3888 14.2091 17.604C14.33 17.6903 14.4777 17.7422 14.6265 17.7437C14.7498 17.7449 14.8678 17.7012 14.984 17.6595C15.0199 17.6466 15.0555 17.6339 15.0911 17.6222C15.1315 17.6091 15.1684 17.6099 15.2005 17.6195C15.2367 17.6304 15.2674 17.6528 15.2903 17.6828C15.3132 17.7126 15.3282 17.7499 15.3328 17.789C15.3373 17.8268 15.3321 17.8661 15.3161 17.9016C15.3121 17.9105 15.3079 17.9191 15.3035 17.9276L15.3698 18.0369C15.6237 18.4543 15.882 18.8641 16.2207 19.2229C16.4152 19.4288 16.6213 19.6232 16.8473 19.7933L16.8799 19.8175C16.8995 19.8319 16.9211 19.8496 16.9442 19.8685C17.0101 19.9226 17.0891 19.9951 17.1629 19.998C17.1848 19.9988 17.2039 19.9961 17.2213 19.9938C17.2633 19.9883 17.2986 19.9867 17.3332 20.0008C17.3611 20.0122 17.39 20.0335 17.4197 20.0774C17.4398 20.1072 17.4501 20.1445 17.4501 20.1823C17.4501 20.2203 17.4396 20.2584 17.4211 20.2884C17.3827 20.3507 17.3362 20.3892 17.2858 20.4111C17.2296 20.4355 17.1675 20.4392 17.1029 20.4271C16.9439 20.3974 16.7678 20.2653 16.6557 20.1791L16.6341 20.1625C16.3858 19.9726 16.1505 19.7626 15.9437 19.5277C15.5914 19.1276 15.2751 18.6562 15.1126 18.1411C14.9981 18.2165 14.8566 18.2523 14.7086 18.258C14.4931 18.2662 14.2649 18.2106 14.0968 18.1307C13.7264 17.9545 13.5013 17.6214 13.3959 17.2383C13.2734 16.7935 13.3132 16.282 13.4683 15.8824C13.4727 15.8707 13.4774 15.8592 13.4823 15.8474C13.005 14.6351 12.8582 13.289 12.8991 11.9953C12.9182 11.3897 12.9593 10.7544 13.1019 10.1638C13.1657 9.89905 13.2767 9.64696 13.4539 9.43856C13.5549 9.31972 13.6789 9.2272 13.8034 9.13494C13.9113 9.05503 14.0195 8.97529 14.1106 8.87552L14.1537 8.82814C14.1631 8.81784 14.1724 8.80755 14.1817 8.79727C14.339 8.62344 14.4921 8.45477 14.6831 8.31221C14.9045 8.14692 15.1488 8.01754 15.4027 7.91009C15.9496 7.6787 16.5382 7.53996 17.1205 7.43262C18.3803 7.20044 19.6736 7.18898 20.9179 7.51534C21.4965 7.66706 22.058 7.87473 22.6185 8.08216C22.6705 8.10142 22.7226 8.12067 22.7746 8.13988C23.2102 8.30067 23.646 8.46077 24.0819 8.62087C24.2844 8.69528 24.487 8.76969 24.6895 8.84417C24.7334 8.86033 24.7765 8.89516 24.801 8.93842C24.8249 8.98063 24.832 9.02985 24.8127 9.07887C24.6884 9.39452 24.5316 9.69067 24.3408 9.96722C24.4071 10.0124 24.4635 10.0726 24.5062 10.143C24.5602 10.232 24.5922 10.3374 24.5944 10.4493C24.6017 10.8238 24.2617 11.0777 23.9796 11.2613C23.9533 11.2784 23.9273 11.2885 23.9022 11.2932C24.1755 12.3407 24.4371 13.3919 24.6594 14.4513L24.6747 14.5248C24.9037 15.6336 25.0514 16.7651 24.8348 17.8886C24.6484 18.8561 24.2151 19.7898 23.5382 20.5105C22.8748 21.2169 21.9846 21.6616 21.0214 21.7607ZM15.0943 15.3823C14.9765 15.0073 14.914 14.5993 14.9591 14.2192C14.9875 13.9803 15.0592 13.7503 15.1758 13.5397C15.2426 13.4191 15.3241 13.3074 15.413 13.2023L15.4436 13.1669C15.4592 13.1489 15.4746 13.1323 15.4794 13.1115C15.4822 13.0995 15.4793 13.0862 15.472 13.0705C15.4558 13.0355 15.4256 13.0018 15.3974 12.9689C15.3795 12.948 15.3619 12.9275 15.3472 12.9076C15.0889 12.557 14.8963 12.1397 14.9589 11.6951C15.02 11.2614 15.3035 10.8572 15.6053 10.5525C16.27 9.8816 17.3005 9.72744 18.2032 9.76444C18.7287 9.78596 19.2533 9.87881 19.7537 10.041C20.0005 10.121 20.2418 10.2184 20.4762 10.3301L20.5281 10.355C20.5562 10.3687 20.5841 10.3824 20.6122 10.3962C20.7954 10.4863 20.9794 10.5773 21.1784 10.6263C21.5669 10.7219 21.8305 10.5205 22.1075 10.3173C22.2024 10.2477 22.2988 10.1771 22.4013 10.1151L22.4223 10.1026C22.6072 9.99522 22.8283 9.92294 23.0406 9.92618C23.2251 9.92899 23.4031 9.98804 23.548 10.1276C23.5777 10.1563 23.5948 10.1875 23.6029 10.2187C23.6189 10.2412 23.6318 10.2681 23.6403 10.2998C23.6922 10.4951 23.7439 10.6904 23.7954 10.8859L23.8375 10.8587C23.9622 10.7775 24.0978 10.6846 24.1591 10.5488C24.1826 10.4964 24.1793 10.4093 24.1496 10.3452C24.1392 10.3229 24.1255 10.303 24.1065 10.2905C24.0927 10.2815 24.0761 10.2773 24.0567 10.2788C24.0097 10.2849 23.9666 10.278 23.93 10.2625C23.8877 10.2446 23.8541 10.2152 23.8322 10.1797C23.8099 10.1434 23.7997 10.1007 23.8051 10.0564C23.8098 10.0184 23.8262 9.9786 23.8585 9.94125C24.0713 9.69534 24.2506 9.42408 24.3868 9.12964L23.4858 8.79547C23.1646 8.67638 22.8433 8.55745 22.5218 8.43897L22.3458 8.37414C21.7613 8.15922 21.1735 7.94918 20.5656 7.8108C19.3576 7.53583 18.0979 7.60046 16.8932 7.85929L16.8204 7.87506C16.3149 7.98556 15.8026 8.11926 15.3386 8.35167C15.1109 8.46573 14.8944 8.60444 14.7085 8.77969C14.6264 8.85708 14.5521 8.94181 14.4779 9.02643C14.3738 9.14501 14.2696 9.26328 14.1459 9.36317L14.0311 9.45537C13.8602 9.59338 13.7061 9.72785 13.6097 9.9419C13.5089 10.1657 13.4608 10.4129 13.4215 10.6537C13.3225 11.2605 13.2834 11.877 13.2872 12.4916C13.2935 13.5235 13.4498 14.5345 13.6474 15.5419C13.8059 15.3144 14.0286 15.1381 14.3144 15.1005C14.5007 15.076 14.6854 15.1109 14.8456 15.1934C14.9382 15.2412 15.0226 15.3049 15.0943 15.3823ZM14.7949 16.6077C14.5862 16.5266 14.3671 16.5001 14.1463 16.5388C14.1232 16.5429 14.1011 16.538 14.0825 16.5272C14.0637 16.5163 14.0489 16.499 14.0409 16.4798C14.0316 16.4577 14.0311 16.4338 14.0393 16.4125C14.0464 16.3941 14.06 16.3762 14.085 16.3642C14.324 16.2499 14.5898 16.1994 14.8535 16.2353L14.8796 16.239C15.0145 16.2591 15.2041 16.3013 15.3463 16.3843C15.458 16.4496 15.5398 16.5395 15.5601 16.657C15.5707 16.7183 15.5556 16.7822 15.5204 16.8285C15.4863 16.8733 15.4343 16.9032 15.3669 16.9013C15.2481 16.8979 15.1778 16.8475 15.0931 16.7824C15.0829 16.7744 15.0723 16.7663 15.0614 16.7581C14.9796 16.6968 14.8903 16.6447 14.7949 16.6077Z" fill="black"/>
<path fill-rule="evenodd" clip-rule="evenodd" d="M21.2085 19.0034C20.9981 18.9175 20.8103 18.7743 20.6731 18.5913C20.6254 18.5277 20.613 18.4606 20.623 18.3991C20.6343 18.33 20.6751 18.2674 20.7308 18.2254C20.7867 18.1833 20.8566 18.1625 20.9242 18.1731C20.9829 18.1823 21.0414 18.2145 21.0876 18.2812L21.0973 18.2946C21.1789 18.405 21.2852 18.4956 21.4064 18.554C21.5232 18.6103 21.6538 18.6366 21.7889 18.6213C22.0463 18.5922 22.2237 18.4529 22.4123 18.2638C22.4357 18.24 22.459 18.2153 22.4825 18.1903C22.4974 18.1676 22.518 18.153 22.5408 18.1454C22.5662 18.1369 22.595 18.1374 22.6213 18.1466C22.6466 18.1554 22.6693 18.1722 22.6845 18.1946C22.699 18.2158 22.7072 18.242 22.7045 18.2722C22.6873 18.4682 22.5849 18.6431 22.4394 18.7804C22.2778 18.933 22.0636 19.0385 21.862 19.0755C21.6398 19.1163 21.4134 19.087 21.2085 19.0034ZM21.9668 15.98C22.2031 16.1237 22.5632 16.4588 22.309 16.8151C22.0097 17.1293 21.5788 16.7691 21.3664 16.6062C21.1695 16.4799 20.9483 16.8047 21.131 16.9521C22.6654 18.0885 23.2881 16.0176 22.0863 15.811C21.954 15.7883 21.9048 15.9355 21.9668 15.98ZM19.2171 14.658C19.2432 14.3338 19.7369 14.2601 19.786 14.581C19.83 14.8684 19.7782 15.1325 19.6488 15.3913C19.5251 15.6385 19.2143 15.5232 19.1908 15.298C19.1593 14.9963 19.2009 14.8597 19.2171 14.658ZM22.975 14.5145C23.0438 14.4243 23.1432 14.3627 23.2622 14.3975C23.6342 14.5063 23.5246 15.0346 23.3939 15.2917C23.323 15.4314 23.0935 15.4668 22.9898 15.3438C22.8208 15.1433 22.7399 14.7429 22.9547 14.5454C22.9605 14.5352 22.967 14.5249 22.975 14.5145ZM19.6435 13.2391L19.7023 13.2288C19.8841 13.1974 20.1101 13.1672 20.2387 13.3134C20.3069 13.3909 20.3304 13.535 20.2387 13.6092C20.0774 13.7398 19.8992 13.6892 19.7059 13.7002C19.5467 13.7094 19.3936 13.7357 19.2402 13.7796C18.9037 13.8758 18.6295 14.0515 18.3421 14.2443C18.3044 14.2696 18.2659 14.2214 18.2839 14.1861C18.4498 13.861 18.7713 13.5939 19.0934 13.4312C19.2653 13.3443 19.4534 13.2722 19.6435 13.2391ZM22.6359 13.0935L22.6809 13.1027C23.1703 13.2051 23.8062 13.4095 24.0379 13.8904C24.0468 13.9584 24.0374 13.973 24.0298 13.9825L24.0273 13.9857C24.0211 13.9938 24.0161 14.005 23.9866 14.0143C23.9784 14.0123 23.9702 14.0103 23.9618 14.0081C23.8556 13.9802 23.7715 13.9419 23.6902 13.902L23.6019 13.8586C23.4996 13.8083 23.3963 13.76 23.2869 13.7242C23.0533 13.648 22.8131 13.5943 22.5691 13.5657C22.5162 13.5595 22.4653 13.5416 22.4252 13.511C22.387 13.482 22.3579 13.4418 22.3446 13.3883C22.3274 13.3192 22.3324 13.2668 22.3695 13.2044C22.3973 13.1575 22.4373 13.1251 22.4831 13.1064C22.5298 13.0874 22.583 13.0829 22.6359 13.0935Z" fill="black"/>
<path fill-rule="evenodd" clip-rule="evenodd" d="M15.1314 15.71C15.3526 15.71 15.4432 16.2252 15.4432 16.2252C16.0058 17.1957 16.5474 18.1635 17.5137 18.8312C18.5863 19.2612 19.6414 19.9936 20.8636 20.0739C21.4146 20.016 21.5762 19.5115 22.2567 19.689C22.6909 19.7945 23.1784 20.0026 23.5797 19.702C23.919 19.4802 24.1577 19.1441 24.4504 18.8723C24.4653 18.8233 24.5625 19.3407 24.5331 19.5156L24.5104 19.6149C24.3292 20.4156 24.146 21.3578 23.3351 21.798C23.0881 21.9282 22.7416 22.0538 22.4674 21.9804C21.019 22.2115 19.4479 22.0424 18.1789 21.3196C17.7322 21.2035 17.3999 20.8471 17.0481 20.5779C16.1876 19.8239 15.2015 18.8688 15.1097 17.7235C15.0178 16.5781 15.0587 15.71 15.1314 15.71ZM19.5078 17.9716C20.0008 17.1796 20.9802 17.3082 21.7424 17.669C22.1634 17.3831 22.7189 17.4357 23.1757 17.6372L23.1756 17.6374C23.5964 17.8677 23.9151 18.2459 24.208 18.6075C24.2793 18.7036 24.3076 18.8327 24.2074 18.8801C23.7352 19.2694 22.7541 19.0409 22.3089 18.7514C21.9877 18.7255 22.0581 18.2693 21.6874 18.5886C21.44 18.8213 21.1292 18.9655 20.7916 19.051C20.0368 19.3103 19.3418 19.2672 18.6844 18.8631C18.5999 18.8549 18.2535 18.6589 18.3765 18.5891C18.5104 18.6253 19.2521 18.1994 19.5078 17.9716Z" fill="#E8E1E1"/>
<path fill-rule="evenodd" clip-rule="evenodd" d="M15.0159 16.5614C15.0209 16.5198 15.0856 16.5177 15.087 16.5614C15.117 17.4778 15.4152 18.4824 15.9197 19.267C17.1321 21.2473 19.6066 22.2394 21.9883 21.8985C23.7288 21.8749 23.9147 20.8883 24.3473 19.5107C24.5719 19.3262 24.6822 19.3923 24.6125 19.6085C24.0762 21.2709 23.8925 22.2244 21.7707 22.2063C18.3636 22.6928 14.6687 19.906 15.0159 16.5614ZM19.8293 17.3004C20.3852 17.0521 21.0466 17.0871 21.5109 17.4304L21.5437 17.4379C21.625 17.4561 21.703 17.4699 21.7944 17.4606C23.023 16.8136 23.8433 17.942 24.4732 18.7869C24.5207 18.7885 24.5594 18.8258 24.5466 18.8695L24.5667 18.8911C24.4874 19.104 24.344 19.3095 24.148 19.4386C23.5052 20.2949 23.0252 20.0272 22.1877 19.6747C21.3265 19.5457 21.2917 20.5612 20.0903 20.096L20.045 20.0812C19.6498 19.9506 19.1961 19.7526 18.9087 19.4663C18.8994 19.457 18.9085 19.4389 18.9229 19.4436C19.5896 19.6446 20.4467 20.3011 21.1253 19.8588C21.2968 19.7437 21.4509 19.6039 21.6427 19.5172C22.7374 19.1507 23.1222 20.5979 24.0801 19.0954C23.3001 19.2314 22.4209 19.0962 21.8378 18.5649C20.9662 19.6151 19.2698 19.4468 18.1911 18.7945C18.0436 18.8158 17.8253 18.6698 17.9612 18.5308C18.1098 18.4127 18.3449 18.459 18.5276 18.3949C19.1107 18.1874 19.2484 17.5259 19.8293 17.3004ZM21.778 17.7395C21.1619 17.3011 20.2406 17.2273 19.6509 17.7444C19.2827 18.1144 19.0439 18.6453 18.4503 18.7432C19.4697 19.3302 20.9344 19.34 21.7194 18.406C21.744 18.3253 21.8718 18.3601 21.8872 18.4303C22.4492 18.8226 23.1681 19.0311 23.8682 18.9108C23.981 18.8923 24.0924 18.8659 24.2011 18.832L24.0978 18.69C23.5484 17.938 22.8416 17.0623 21.7938 17.6808C21.7701 17.6928 21.7601 17.6621 21.7571 17.6464L21.7442 17.6558C21.7535 17.6752 21.8307 17.7392 21.778 17.7395ZM24.3008 19.0453C24.3059 19.0499 24.3102 19.0549 24.3138 19.0602C24.331 19.0512 24.3489 19.0421 24.3673 19.0333L24.3623 19.0297C24.3426 19.0353 24.322 19.0405 24.3008 19.0453ZM15.0952 15.4243L15.095 15.3943C15.095 15.0918 15.1763 15.4731 15.2127 15.5482C15.3696 15.8307 15.5007 16.1102 15.6669 16.3856C16.3332 17.5848 16.4364 18.1046 17.779 18.7877C17.8787 18.8731 17.7739 19.0265 17.65 18.995C17.4647 18.9478 17.2899 18.8297 17.1285 18.7344C16.2142 18.2627 15.8732 17.3005 15.463 16.463C15.3426 16.1309 15.0647 15.7766 15.0952 15.4243Z" fill="black"/>
<path fill-rule="evenodd" clip-rule="evenodd" d="M25.2924 15.1635C24.994 17.1827 22.911 17.406 22.5409 15.4014C22.6003 15.3754 22.643 15.3241 22.6341 15.2247C22.632 14.7879 22.7675 14.3261 23.1614 14.0832C23.5685 13.8325 24.0449 13.8077 24.516 13.814C25.415 13.7926 25.3961 14.5443 25.2924 15.1635ZM22.2147 14.2853C21.9326 14.2734 21.5757 14.2833 21.3229 14.4553C21.2535 14.2681 21.0729 14.0683 20.8905 13.9614C21.5685 13.9812 22.2664 13.9145 22.9495 13.8627C22.786 13.9742 22.6339 14.1417 22.535 14.3353C22.4433 14.2864 22.3119 14.291 22.2147 14.2853ZM20.9712 15.3775C20.1889 18.0714 18.2361 16.8973 18.0232 16.552C17.6392 15.9807 17.567 14.5919 17.9014 14.2206C18.3803 13.8848 19.0581 13.9713 19.6237 13.963C20.6629 13.9771 21.4009 14.288 20.9712 15.3775ZM26.2162 14.1385C26.0036 14.1107 25.7765 14.1051 25.5788 14.1987C25.518 13.94 25.327 13.7237 25.1113 13.6285C25.0852 13.5958 25.0891 13.5782 24.9999 13.5831C24.4524 13.4185 23.8396 13.5056 23.3134 13.6744C22.4824 13.7444 21.6105 13.7996 20.7725 13.8961C19.9874 13.5434 17.6183 13.4917 17.4711 14.361C17.2859 14.3333 16.9705 14.1875 16.8149 14.3853C15.6734 14.1917 14.4939 14.4607 13.3474 14.5805C13.0589 14.6337 12.9102 15.2066 13.2378 15.1988C13.4219 15.1488 13.2321 14.8421 13.4801 14.819C14.5862 14.6981 15.6682 14.5267 16.7856 14.5066C16.7468 14.6996 17.5247 14.7122 17.5362 14.5995C17.5379 14.6003 17.5396 14.6009 17.5413 14.6016C17.3491 15.3183 17.5226 16.3498 17.87 16.7942C18.3568 17.3762 19.5789 17.5431 20.1207 17.1687C20.8197 16.8231 21.5469 15.0884 21.3426 14.5121C21.7133 14.3946 22.0798 14.4298 22.4645 14.4897C22.3765 14.7386 22.2244 15.3513 22.4432 15.4044C22.403 16.6209 23.5096 17.3799 24.5298 16.8809C25.4128 16.4662 25.7216 15.1537 25.6135 14.3571C25.7235 14.5696 26.6464 14.3382 26.2162 14.1385Z" fill="black"/>
</svg>
