<svg width="36" height="48" viewBox="0 0 36 48" fill="none" xmlns="http://www.w3.org/2000/svg">
<path fill-rule="evenodd" clip-rule="evenodd" d="M16.6967 20.748L16.3138 21.6951L16.5247 24.6969L16.6817 24.7214C18.3398 24.9785 19.4665 25.1084 20.0618 25.111L20.0802 25.111C20.6797 25.111 21.398 24.9771 22.2353 24.7092L22.2734 24.6969L22.37 22.4492H22.1421L21.7298 21.4822L21.7302 21.4819C21.7347 21.4897 21.7395 21.4972 21.7444 21.5045C21.9163 21.7588 22.0159 21.5534 22.4197 21.6434C22.9033 21.7511 23.1179 22.2399 23.5436 22.6053C23.7412 22.7749 24.156 22.8549 24.3545 22.9715L24.5631 23.094C25.2164 23.4796 25.9674 23.9479 26.3617 24.558C26.8239 25.2732 27.1426 25.9519 27.4368 26.7475C28.0709 28.4624 28.5111 30.2123 28.8257 32.012C29.1445 33.836 29.336 35.6826 29.4824 37.5277C29.5501 38.3828 29.6076 39.2386 29.6553 40.095L29.6671 40.3091C29.6921 40.7751 29.6703 41.231 29.2468 41.518C28.9434 41.7235 28.5407 41.7548 28.1847 41.7759L28.1653 41.7771C25.5333 41.9315 22.9012 42.0848 20.2691 42.2384L16.3211 42.4693C15.6641 42.5078 15.0072 42.546 14.3503 42.584L12.7467 42.6767C11.991 42.7197 11.2343 42.7569 10.4775 42.7525C9.52543 42.747 8.57735 42.6766 7.63401 42.5497L7.55079 42.5383C6.9573 42.4564 6.09676 42.2489 5.99016 41.5369C5.97486 41.4347 6.06481 41.3708 6.14033 41.3855C6.11548 41.2696 6.10005 41.1535 6.08531 41.0527C6.02205 40.6219 5.98234 40.1883 5.96271 39.7533C5.92334 38.8829 5.95651 38.0085 6.04349 37.1419C6.18739 35.7082 6.3891 34.277 6.59753 32.8509L6.64393 32.534C6.86562 31.023 7.12957 29.5145 7.54259 28.0427C7.92412 26.683 8.51933 25.2686 9.33832 24.4088C10.1573 23.5491 11.325 22.8021 12.5249 22.3446C12.6288 22.3049 14.6932 21.8527 14.8323 21.9186L14.8573 21.899C15.2689 21.5739 15.8561 21.0029 16.4606 21.1827L16.462 21.1805C16.4763 21.1542 16.5321 20.9788 16.6092 20.7481L16.6967 20.748Z" fill="#8FA7DF"/>
<path fill-rule="evenodd" clip-rule="evenodd" d="M17.133 19.4875C17.633 18.8533 18.1601 18.6517 18.939 18.699C19.4671 18.6801 19.9939 18.8172 20.4411 19.1202C20.8509 19.3344 21.2143 19.6292 21.4736 20.0088C21.6955 20.3333 21.5269 21.1352 21.7295 21.4821C21.7276 21.5199 21.7266 21.5543 21.7266 21.5854C21.7266 21.8856 21.9354 22.2207 22.3532 22.5905L22.3698 22.6052V24.7869C21.6675 25.0029 20.798 25.1109 19.7613 25.1109C18.74 25.1109 17.6778 24.9394 16.5746 24.5963L16.5245 24.5806L16.3135 22.2095L16.5245 21.5533L16.5244 21.0037L16.606 20.7579C16.7503 20.3257 16.9713 19.6926 17.133 19.4875Z" fill="#D08B5B"/>
<path fill-rule="evenodd" clip-rule="evenodd" d="M16.5254 24.5811C16.5254 24.5811 18.3797 25.1212 19.6456 25.1212C20.9114 25.1212 22.2741 24.5811 22.2741 24.5811L22.053 42.363L18.4951 42.4065L16.5254 24.5811Z" fill="#9FD8E5"/>
<path fill-rule="evenodd" clip-rule="evenodd" d="M10.4209 32.3452C10.4072 32.3195 10.439 32.2964 10.4601 32.3149C10.9394 32.7357 11.1903 33.4114 11.2429 34.036C11.2987 34.6983 11.2197 35.3841 11.1894 36.0461C11.1558 36.7835 11.1256 37.5213 11.0846 38.2584C11.0429 39.0062 10.9981 39.7538 10.9596 40.5018L10.873 42.1844C10.8638 42.3637 10.8838 42.5842 10.815 42.7516C10.7084 43.011 10.3917 42.9708 10.3252 42.754L10.3231 42.7469L10.317 42.7516C10.2583 42.5562 10.3023 42.3241 10.3122 42.122L10.4029 40.2837C10.4669 38.9842 10.5241 37.6848 10.5929 36.3856L10.6163 35.9526C10.6484 35.3696 10.6731 34.7882 10.6929 34.2054L10.6993 34.0111C10.7182 33.4259 10.7032 32.8735 10.4209 32.3452ZM22.0394 21.558C22.3064 21.5327 22.508 21.6212 22.7504 21.7145C22.856 21.7552 22.956 21.8021 23.0574 21.8507C23.1842 21.9115 23.2658 22.0191 23.3439 22.1328L23.3856 22.1941C23.7108 22.6708 23.9296 23.2207 24.1765 23.7397C24.4652 24.3468 24.7569 24.9526 25.0395 25.5626L25.179 25.8631C25.2487 26.0134 25.3182 26.1637 25.3867 26.3145L25.505 26.5771C25.6238 26.8433 25.7304 27.1249 25.561 27.3996C25.4035 27.655 25.1242 27.8527 24.9031 28.0501C24.7186 28.2149 24.5341 28.3796 24.3495 28.5443C24.731 28.9265 24.9871 29.4077 25.1377 29.9238C25.3516 29.8346 25.6126 29.8175 25.8338 29.779C26.1434 29.725 26.1813 30.1938 25.8891 30.1881C25.6734 30.1839 25.4202 30.2059 25.1989 30.1605C25.2373 30.33 25.2652 30.5022 25.283 30.6748C25.376 31.5795 25.1728 32.4895 24.9608 33.3649L24.9433 33.4368C24.7131 34.3843 24.4949 35.3342 24.2996 36.2895C24.1039 37.2469 23.9278 38.2083 23.7715 39.1729C23.6125 40.1548 23.4999 41.142 23.379 42.129C23.3606 42.2784 23.2667 42.4064 23.1017 42.4064C22.9642 42.4064 22.8071 42.2781 22.8244 42.129C22.9492 41.0542 23.1262 39.985 23.3021 38.9175C23.605 37.0791 23.9863 35.2567 24.4249 33.4463L24.5015 33.131C24.6988 32.3134 24.8778 31.4708 24.7789 30.6274C24.6982 29.9406 24.4112 29.2083 23.8439 28.7818L23.8266 28.7689C23.6941 28.6717 23.6431 28.4858 23.7736 28.3577C23.8567 28.2763 23.9398 28.1949 24.023 28.1135L24.5224 27.6258L24.6231 27.5273C24.7071 27.4453 24.7914 27.3638 24.8783 27.2848C24.9309 27.237 25.0734 27.1459 25.0839 27.0673C25.0906 27.016 25.0299 26.9259 25.0053 26.8786L24.8926 26.651C24.8286 26.5212 24.7666 26.3905 24.7041 26.26C24.5745 25.9896 24.4432 25.72 24.3165 25.4482L23.5552 23.8166C23.3405 23.3562 23.1492 22.8702 22.8684 22.4447L22.8131 22.3617C22.7669 22.2919 22.7261 22.2246 22.6969 22.1392C22.6688 22.057 22.6335 21.9668 22.5816 21.8966C22.4601 21.732 22.2276 21.6387 22.0332 21.6042C22.0051 21.5992 22.0153 21.5603 22.0394 21.558ZM16.1848 21.1295C16.2017 21.1295 16.2043 21.1536 16.1887 21.1583C15.9541 21.2289 15.7299 21.3428 15.547 21.5071C15.4595 21.5858 15.3714 21.6751 15.3173 21.7809C15.2967 21.8215 15.2852 21.8643 15.2768 21.9087L15.2742 21.9235C15.2602 22.0037 15.2403 22.0483 15.1995 22.1125L15.1926 22.1234C14.9601 22.4825 14.7972 22.8814 14.6482 23.2808L14.3239 24.1516L13.9997 25.0225C13.8952 25.3031 13.7907 25.5837 13.6863 25.8643C13.6286 26.0193 13.5692 26.1735 13.5099 26.3278C13.4842 26.3947 13.4566 26.461 13.4332 26.5287C13.4299 26.5379 13.4197 26.5936 13.412 26.6072L13.4146 26.6118C13.48 26.7218 13.6543 26.8137 13.7532 26.8937L14.0935 27.1689C14.3362 27.3652 14.5851 27.556 14.8204 27.761C14.9683 27.8898 14.8763 28.1204 14.7114 28.1741C14.4351 28.2642 14.1644 28.3719 13.8922 28.4738C13.7823 28.515 13.6678 28.5508 13.5592 28.5962L13.493 28.6248C13.4672 28.6364 13.4796 28.6363 13.4806 28.684C13.4817 28.734 13.4958 28.7861 13.504 28.8353C13.5957 29.3898 13.6928 29.9434 13.7954 30.496C14.1582 32.4502 14.5917 34.39 15.086 36.315C15.3357 37.2871 15.6035 38.2545 15.8587 39.2251C16.1133 40.1932 16.4482 41.1474 16.768 42.0956C16.8583 42.3629 16.4344 42.4781 16.3464 42.2118C15.9778 41.0967 15.6407 39.9719 15.2925 38.8504C14.6738 36.8578 14.1863 34.8219 13.7551 32.781C13.5414 31.7696 13.346 30.7542 13.1689 29.7356C13.1354 29.5428 13.1025 29.3499 13.0703 29.1568L13.0234 28.8729C12.9913 28.6704 12.9729 28.4596 13.1302 28.2994C13.2838 28.1431 13.5474 28.0877 13.7495 28.0144L13.7641 28.009C13.8927 27.961 14.0222 27.9147 14.1512 27.867C13.9612 27.7174 13.7735 27.5644 13.5839 27.4148C13.431 27.2941 13.2757 27.1759 13.1249 27.0525C13.0006 26.9506 12.8993 26.8199 12.8863 26.6543C12.8731 26.4851 12.9456 26.3281 13.0041 26.1729L13.0097 26.1579C13.0671 26.0029 13.1246 25.848 13.1837 25.6937L13.5489 24.7381C13.781 24.1309 14.0034 23.5188 14.2475 22.9163C14.3441 22.6778 14.4493 22.4431 14.5737 22.2178C14.6337 22.1091 14.698 22.0027 14.7679 21.9002C14.8462 21.7851 14.9173 21.729 15.0386 21.6656C15.2327 21.5641 15.3849 21.3939 15.5798 21.2893C15.771 21.1866 15.9677 21.1318 16.1848 21.1295ZM16.8147 20.0461C16.8221 20.0334 16.8418 20.0391 16.842 20.0536C16.8471 20.3553 16.7754 20.6637 16.7313 20.9621C16.687 21.2616 16.6728 21.5777 16.6088 21.8739C16.6074 21.8877 16.6048 21.9013 16.601 21.9147L16.5979 21.9248C16.5709 22.0078 16.5006 22.0782 16.4143 22.1002C16.4414 22.2506 16.467 22.4013 16.4885 22.5528C16.5254 22.8131 16.5591 23.0739 16.5923 23.3347L16.6319 23.6478C16.6694 23.9428 16.7058 24.2379 16.7419 24.5331C16.8335 24.5714 16.927 24.603 17.0227 24.6304C17.2432 24.6936 17.4691 24.7192 17.6966 24.7416C18.16 24.787 18.6269 24.8081 19.092 24.8339L19.1916 24.8395C19.7144 24.8695 20.2401 24.8748 20.7616 24.8212C21.0202 24.7945 21.2767 24.7499 21.5289 24.6866C21.657 24.6545 21.7816 24.6064 21.9095 24.575C21.9519 24.5646 21.9898 24.5405 22.0323 24.5148C22.0512 24.491 22.0776 24.4729 22.1121 24.4659L22.1215 24.4643L22.1307 24.463L22.1339 24.4615L22.1337 24.4625C22.1598 24.459 22.1847 24.459 22.2081 24.4622C22.2175 24.2321 22.2276 24.0019 22.2402 23.7719C22.2743 23.1539 22.3682 22.5093 22.2428 21.8967C22.2386 21.8761 22.2666 21.8688 22.2739 21.8881C22.52 22.5366 22.4923 23.2457 22.5047 23.9282C22.5168 24.5957 22.5095 25.2636 22.5062 25.9312C22.554 25.9516 22.5966 25.9792 22.6304 26.0179C22.6978 26.0952 22.7172 26.2297 22.6304 26.3043C22.5919 26.3374 22.5493 26.3604 22.5041 26.3763C22.5017 26.9563 22.4976 27.5363 22.4918 28.1163C22.602 28.2015 22.6123 28.4038 22.4876 28.4879C22.4668 30.3662 22.4327 32.2446 22.4044 34.1226L22.3452 38.0627C22.3373 38.5877 22.3242 39.1126 22.3195 39.6375L22.3232 39.639L22.3363 39.6451C22.3584 39.6554 22.3913 39.6722 22.3981 39.6894C22.3999 39.6939 22.4004 39.697 22.4001 39.6993C22.4363 39.7043 22.4722 39.7214 22.5032 39.7509C22.5797 39.8236 22.5642 39.9333 22.5032 40.0074L22.4869 40.0273C22.4488 40.0734 22.3766 40.0912 22.3177 40.0818C22.3183 40.4094 22.3204 40.7371 22.3193 41.0647C22.319 41.1648 22.3175 41.2649 22.3158 41.3649L22.3116 41.6049C22.3089 41.7418 22.2968 41.9158 22.1566 41.9773C21.9984 42.0467 21.8566 41.9898 21.7926 41.8292C21.7752 41.7856 21.779 41.7451 21.7853 41.7021C21.7833 41.6374 21.7732 41.5625 21.7745 41.5025L21.7797 41.2523C21.7805 41.2138 21.7821 41.1752 21.7832 41.1366L21.7786 41.1371C21.2166 41.1644 20.6507 41.1511 20.0879 41.1508L19.8375 41.1511C19.6286 41.1513 19.4193 41.1502 19.2108 41.1422L19.1326 41.1389C18.9764 41.1315 18.8122 41.1292 18.6503 41.1152C18.6709 41.2815 18.6902 41.4478 18.7074 41.6143C18.7237 41.7722 18.5608 41.9064 18.4155 41.9064C18.2429 41.9064 18.1442 41.7707 18.1235 41.6143C18.026 40.8768 17.9861 40.1323 17.8929 39.3943C17.8094 38.7332 17.7371 38.0707 17.6635 37.4084L17.6389 37.1876C17.3697 34.7774 17.1084 32.3663 16.8584 29.954L16.742 28.8263C16.6245 27.6897 16.5062 26.5531 16.4065 25.4148C16.3495 24.764 16.297 24.1131 16.2475 23.4617C16.2112 22.9832 16.1884 22.5073 16.1736 22.0297C16.1151 21.9695 16.0858 21.8815 16.1117 21.7907C16.1268 21.7378 16.1445 21.6851 16.1631 21.6325C16.1619 21.5808 16.1607 21.5291 16.1597 21.4773C16.1587 21.4284 16.2084 21.4032 16.2482 21.4113C16.3205 21.2362 16.4001 21.0625 16.4666 20.8891C16.5741 20.6084 16.6628 20.3059 16.8147 20.0461ZM10.8086 23.0802C11.9328 22.3754 13.271 21.8682 14.6113 21.9228C14.6418 21.9241 14.6504 21.9706 14.6188 21.9776C13.9038 22.1373 13.1811 22.3318 12.5042 22.6149C11.8254 22.8988 11.18 23.2811 10.6051 23.7406C9.54443 24.5882 8.72002 25.6908 8.17717 26.9336C7.8592 27.6616 7.63632 28.4303 7.44171 29.1992C7.23576 30.0129 7.06603 30.8354 6.9249 31.6629C6.64615 33.2974 6.48387 34.9499 6.39751 36.6052C6.30966 38.289 6.34587 39.9741 6.28321 41.6582C6.27238 41.95 5.85548 41.9443 5.83429 41.6582C5.69232 39.7435 5.77097 37.7982 5.90227 35.8848C6.02033 34.1648 6.2265 32.4483 6.55848 30.756L6.5874 30.6093C6.89776 29.0435 7.2721 27.4398 8.0224 26.0219C8.66296 24.8113 9.65188 23.8055 10.8086 23.0802ZM26.4201 30.5635C26.426 30.5467 26.4482 30.5469 26.4541 30.5635C26.5822 30.9224 26.5868 31.3274 26.6209 31.7057L26.6236 31.7347C26.6563 32.0798 26.6809 32.4253 26.7037 32.7711L26.7122 32.9007C26.804 34.3113 26.9188 35.7203 27.0917 37.1234C27.264 38.5213 27.497 39.9094 27.7489 41.2948C27.777 41.449 27.7087 41.6061 27.547 41.6506C27.4044 41.6897 27.2215 41.6019 27.1913 41.4486C27.0349 40.6534 26.9084 39.8572 26.7956 39.0551C26.597 37.6427 26.4488 36.2239 26.3535 34.8008C26.3056 34.086 26.2762 33.3716 26.2645 32.6553C26.2591 32.323 26.2677 31.9899 26.2854 31.6579L26.2896 31.5813C26.3092 31.242 26.3072 30.8871 26.4201 30.5635ZM14.2722 39.548C14.2872 39.5399 14.3058 39.5566 14.2963 39.5721C14.0786 39.926 13.7841 40.2312 13.4995 40.532C13.2019 40.8464 12.9117 41.1702 12.6082 41.4785C12.3888 41.7011 12.036 41.342 12.2675 41.1376C12.593 40.8505 12.9331 40.5776 13.2644 40.2968L13.4093 40.1739C13.6809 39.9444 13.9606 39.7169 14.2722 39.548ZM24.6115 39.3708C24.5953 39.3398 24.6324 39.3147 24.6576 39.3352C24.8332 39.478 24.9906 39.6484 25.1601 39.7992C25.328 39.9485 25.5022 40.0878 25.6812 40.2236C25.8608 40.36 26.0444 40.4909 26.233 40.6148C26.3894 40.7176 26.5506 40.7999 26.7144 40.8852C26.7902 40.895 26.8604 40.9322 26.9167 41.0028C27.0055 41.1145 27.015 41.325 26.8917 41.422L26.8696 41.4393C26.7257 41.5525 26.5549 41.5662 26.4133 41.4393C26.2551 41.2977 26.1056 41.1418 25.9538 40.992L25.9081 40.9473C25.7449 40.7887 25.5857 40.6248 25.4356 40.4537L25.2997 40.299C25.0476 40.0114 24.7852 39.7015 24.6115 39.3708ZM23.8027 22.7904C23.7735 22.7711 23.7915 22.719 23.8275 22.7314L23.8937 22.7543C24.17 22.8503 24.4544 22.9569 24.7052 23.1047C24.9748 23.2636 25.2237 23.453 25.4615 23.656C25.9538 24.0764 26.3725 24.5933 26.7284 25.1321C27.4426 26.2132 27.8842 27.4514 28.2407 28.6903C28.6209 30.0112 28.9136 31.3606 29.1526 32.7138C29.3955 34.089 29.5828 35.4767 29.706 36.8678C29.7666 37.5531 29.8074 38.2387 29.8278 38.9264C29.8384 39.2801 29.838 39.6337 29.8351 39.9875C29.8343 40.0785 29.8349 40.1695 29.836 40.2605L29.8394 40.5334C29.8413 40.7059 29.8619 40.8873 29.8209 41.0558C29.755 41.3272 29.3064 41.2766 29.3212 40.9992C29.3077 40.907 29.3071 40.8116 29.3106 40.716C29.3085 40.7037 29.3062 40.6912 29.3036 40.6783C29.2963 40.6417 29.3025 40.6077 29.3169 40.5786C29.3192 40.5327 29.3213 40.4872 29.3221 40.4424C29.325 40.2602 29.3248 40.0787 29.3198 39.8966C29.3092 39.5125 29.2939 39.1284 29.2785 38.7446C29.2477 37.9774 29.2048 37.21 29.1426 36.4447C28.9263 33.7811 28.4697 31.1023 27.7026 28.5397C27.3463 27.3497 26.8551 26.1815 26.1507 25.1532C25.8381 24.6966 25.4853 24.275 25.0942 23.8836C24.7007 23.4898 24.267 23.098 23.8027 22.7904ZM18.4948 39.9615L18.5479 40.3461C18.5745 40.5385 18.6008 40.7309 18.6258 40.9234C18.7955 40.9002 18.9691 40.8905 19.1326 40.876C19.4188 40.8506 19.707 40.8383 19.9941 40.8265C20.5877 40.802 21.1843 40.7595 21.7786 40.7625C21.7847 40.7625 21.7904 40.7629 21.7962 40.7634L21.8257 40.0044L21.4082 40.0038C21.0544 40.0032 20.7007 40.0002 20.347 39.9972C20.0284 39.9944 19.7097 39.994 19.3912 39.9874L19.2547 39.9841C19.0131 39.9776 18.7464 39.991 18.4948 39.9615ZM21.8607 38.8599C21.8437 38.8619 21.8263 38.8635 21.8079 38.8643C21.7252 38.8678 21.6419 38.8654 21.5591 38.8661C21.3829 38.8676 21.2067 38.8688 21.0305 38.8688C20.678 38.8687 20.3257 38.8709 19.9733 38.8751C19.6105 38.8795 19.248 38.8858 18.8852 38.8865C18.7095 38.8868 18.5343 38.8822 18.3585 38.8773C18.387 39.1271 18.4167 39.3767 18.4495 39.6257C18.7223 39.5888 19.0158 39.6074 19.2825 39.6049L19.3171 39.6044C19.6811 39.5982 20.0454 39.6028 20.4094 39.6032C20.784 39.6037 21.1585 39.6049 21.533 39.6079L21.8407 39.6105L21.8413 39.595C21.8503 39.3502 21.8561 39.1051 21.8607 38.8599ZM18.2232 37.6648C18.2573 37.9597 18.2893 38.255 18.322 38.5503C18.3436 38.547 18.3656 38.5441 18.388 38.5417C18.564 38.5233 18.7397 38.5075 18.9163 38.4966C19.2685 38.4748 19.6206 38.4632 19.9733 38.4538C20.336 38.444 20.6987 38.4366 21.0616 38.4315C21.2378 38.429 21.4139 38.4292 21.5902 38.4305C21.6729 38.431 21.7565 38.4284 21.839 38.434C21.8488 38.4346 21.8582 38.4356 21.8676 38.4367L21.8738 37.9934C21.8748 37.9195 21.8759 37.8457 21.8771 37.7718C21.6047 37.7886 21.3277 37.7822 21.0555 37.7823L20.9928 37.7824C20.6507 37.784 20.3085 37.7793 19.9665 37.7722C19.6137 37.7648 19.2616 37.7533 18.9093 37.7307C18.7667 37.7216 18.625 37.7094 18.4831 37.6938L18.4121 37.6857C18.3503 37.6784 18.2867 37.6725 18.2232 37.6648ZM21.9052 36.4138C21.2491 36.4659 20.5965 36.4877 19.9386 36.4942L19.8399 36.495C19.2586 36.4994 18.6724 36.5234 18.0897 36.508C18.1246 36.8102 18.1593 37.1124 18.1943 37.4145C18.2778 37.4106 18.3616 37.4106 18.4432 37.4076C18.6091 37.4017 18.7744 37.4002 18.9405 37.3998C19.2825 37.399 19.6245 37.402 19.9665 37.4013C20.319 37.4005 20.6714 37.3946 21.0238 37.3879C21.3096 37.3826 21.5983 37.3611 21.8848 37.3619L21.9052 36.4138ZM21.933 35.1246C21.857 35.1499 21.7672 35.1515 21.6688 35.156L21.4148 35.1687C21.2971 35.1744 21.1794 35.1799 21.0616 35.1842C20.669 35.1985 20.2765 35.212 19.8839 35.2245C19.4816 35.2372 19.0774 35.2447 18.6751 35.232C18.478 35.2258 18.2826 35.2154 18.0861 35.199C18.0375 35.1949 17.988 35.1923 17.9384 35.1887C17.9841 35.5891 18.03 35.9894 18.0761 36.3897C18.656 36.3185 19.2404 36.2742 19.8196 36.2006L20.3434 36.1337C20.8669 36.0668 21.3899 36.0013 21.9153 35.946L21.933 35.1246ZM21.961 33.8212C21.8494 33.8487 21.7223 33.8473 21.6151 33.8541L21.5953 33.8555C21.3923 33.8709 21.1888 33.8786 20.9854 33.8836C20.5866 33.8934 20.1876 33.8984 19.7888 33.9008L19.5489 33.9023C19.2291 33.9042 18.9096 33.905 18.5897 33.8975C18.3846 33.8927 18.1799 33.8827 17.9749 33.8724C17.9134 33.8693 17.8507 33.8673 17.7877 33.8641C17.8305 34.2432 17.8738 34.6221 17.917 35.0011C17.9844 34.9904 18.052 34.9823 18.1165 34.9714C18.2818 34.9435 18.4467 34.9212 18.6131 34.9012C18.9735 34.858 19.3359 34.8269 19.698 34.8007C20.0698 34.7737 20.4418 34.7509 20.8137 34.7248L21.077 34.7063C21.1648 34.7002 21.2526 34.6943 21.3404 34.6889C21.4904 34.6797 21.6647 34.6901 21.8135 34.6574C21.8538 34.6406 21.8985 34.6368 21.9433 34.6464L21.961 33.8212ZM21.9947 32.2955C21.9561 32.3445 21.8985 32.3702 21.8298 32.3791C21.4717 32.4256 21.1045 32.433 20.7434 32.4549L20.6798 32.4589C20.307 32.4835 19.9339 32.5028 19.5609 32.5226C19.1776 32.543 18.7944 32.5596 18.4108 32.5729C18.248 32.5786 18.0844 32.5793 17.9213 32.5772L17.8514 32.5761C17.7844 32.575 17.7143 32.5752 17.644 32.5729C17.6829 32.9273 17.7222 33.2817 17.762 33.6361C17.8337 33.6283 17.9053 33.6223 17.9749 33.615C18.1797 33.5933 18.3844 33.5719 18.5897 33.5557C18.9788 33.525 19.3682 33.5066 19.758 33.4873C20.1569 33.4675 20.556 33.4544 20.9549 33.4357C21.1483 33.4267 21.3416 33.4154 21.5344 33.3977C21.6696 33.3852 21.8301 33.3392 21.9711 33.3561C21.9788 33.0025 21.9868 32.649 21.9947 32.2955ZM22.0262 30.9287C22.0201 30.9382 22.0129 30.9473 22.0043 30.9559C21.8466 31.1116 21.6524 31.0996 21.4435 31.116L21.4307 31.117C21.226 31.1342 21.0211 31.1506 20.8162 31.1654C20.4065 31.195 19.996 31.2157 19.5858 31.2341C19.1659 31.253 18.7433 31.266 18.3231 31.2574C18.0539 31.2519 17.772 31.2529 17.4975 31.2266C17.5397 31.617 17.5821 32.0073 17.6248 32.3976C17.702 32.383 17.7797 32.3719 17.8533 32.3603C18.0387 32.3311 18.2243 32.3018 18.4108 32.2803C18.7836 32.2374 19.1564 32.1972 19.5298 32.161C19.8491 32.13 20.1684 32.0986 20.488 32.0703L20.6798 32.0537C21.0611 32.0216 21.4472 31.9687 21.8298 31.9609C21.8928 31.9596 21.9641 31.9939 22.0002 32.0481C22.0087 31.6749 22.0174 31.3018 22.0262 30.9287ZM22.0527 29.8223C21.9553 29.8341 21.8504 29.8274 21.7605 29.8303C21.5333 29.8378 21.3061 29.8447 21.0789 29.8514L19.7155 29.8916C19.2513 29.9053 18.7854 29.9156 18.3211 29.909C18.1168 29.9061 17.9116 29.9058 17.7074 29.8947L17.6394 29.8906C17.5553 29.8849 17.4522 29.8842 17.3515 29.8739L17.4704 30.9757C17.7436 30.9362 18.0251 30.9214 18.296 30.8983L18.3539 30.8932C18.7534 30.8568 19.1548 30.8327 19.555 30.8056C19.9655 30.7778 20.3755 30.744 20.7855 30.7095C20.9904 30.6922 21.1953 30.6751 21.4 30.6562L21.4253 30.6537C21.6187 30.6335 21.8006 30.5905 21.9719 30.7046C21.997 30.7213 22.0166 30.7436 22.03 30.7685C22.0375 30.4531 22.0448 30.1377 22.0527 29.8223ZM22.0844 28.5365C21.2541 28.5699 20.4237 28.5953 19.5927 28.6065C19.125 28.6127 18.6578 28.6083 18.1902 28.5985C17.9874 28.5943 17.7829 28.5846 17.5803 28.569L17.5044 28.5629C17.408 28.5548 17.3068 28.5489 17.206 28.5392C17.2477 28.918 17.289 29.2969 17.33 29.6758C17.4291 29.6574 17.5328 29.6489 17.6196 29.6378L17.6394 29.6351C17.8552 29.6054 18.0731 29.5881 18.2901 29.569C18.7125 29.5318 19.137 29.5078 19.5605 29.4874C19.9942 29.4665 20.4282 29.4488 20.8619 29.4296L21.2957 29.4101C21.368 29.4069 21.4403 29.4038 21.5126 29.4007C21.616 29.3964 21.7192 29.3922 21.8225 29.3879C21.8735 29.3858 21.9264 29.3789 21.9775 29.3815L21.992 29.3796C21.9987 29.3787 22.0046 29.378 22.01 29.3775C22.0239 29.3669 22.0388 29.3581 22.0546 29.3515L22.0642 29.3477L22.0844 28.5365ZM17.0699 27.318C17.1084 27.659 17.1466 28.0001 17.1842 28.3412C17.3026 28.3277 17.4225 28.3202 17.5355 28.3101C17.7636 28.2896 17.9926 28.2717 18.2213 28.2612L18.6784 28.2399C18.9831 28.2259 19.2878 28.2122 19.5927 28.2011C20.4272 28.1706 21.2616 28.1357 22.0956 28.0931C22.1015 27.8617 22.1076 27.6304 22.1138 27.399C22.0738 27.4419 22.0159 27.4701 21.9399 27.47C21.0644 27.4676 20.1881 27.4727 19.3127 27.4583C18.8744 27.451 18.4367 27.4404 17.999 27.4179C17.7848 27.407 17.5695 27.3845 17.3569 27.3551C17.2663 27.3425 17.1671 27.3336 17.0699 27.318ZM16.9298 26.1028C16.9709 26.4522 17.0113 26.8016 17.051 27.1511C17.1597 27.1317 17.2721 27.1213 17.3735 27.1075C17.5915 27.0779 17.8108 27.0543 18.0303 27.0419C18.4575 27.0177 18.8849 27.0055 19.3127 26.9964C20.1881 26.9778 21.0643 26.978 21.9399 26.971C22.0222 26.9704 22.0832 27.0029 22.1233 27.0515C22.1294 26.8334 22.1358 26.6153 22.1424 26.3971C22.0579 26.3882 21.974 26.3755 21.8964 26.3701C21.658 26.3534 21.4194 26.3382 21.1807 26.3245C20.6827 26.2959 20.1842 26.2715 19.6858 26.2498C19.1873 26.2282 18.6887 26.207 18.19 26.1885L17.972 26.1805C17.6252 26.1676 17.2725 26.1513 16.9298 26.1028ZM16.7729 24.7872C16.8158 25.141 16.858 25.4949 16.9001 25.8488L16.9129 25.9583C17.3299 25.8772 17.7695 25.8535 18.19 25.8356C18.6888 25.8143 19.1867 25.8034 19.6858 25.8049C20.1845 25.8065 20.6825 25.8183 21.1807 25.8389C21.4297 25.8491 21.6787 25.861 21.9275 25.8746C21.9959 25.8782 22.0761 25.8763 22.1587 25.8775C22.1605 25.8219 22.162 25.7662 22.1639 25.7107C22.1715 25.4854 22.1789 25.2602 22.1867 25.0349C22.0184 25.1214 21.7995 25.1563 21.6304 25.1932L21.6111 25.1974C21.3318 25.2602 21.0467 25.3008 20.7616 25.3257C20.2018 25.3745 19.6361 25.3563 19.0769 25.309L18.9789 25.3006C18.4878 25.258 17.9786 25.204 17.5025 25.0824C17.2757 25.0245 17.0412 24.9435 16.838 24.826C16.8169 24.8138 16.7951 24.8009 16.7729 24.7872ZM21.5018 20.5829C21.5067 20.5638 21.5353 20.5594 21.5447 20.5773C21.6109 20.703 21.6355 20.8538 21.6814 20.9885C21.7308 21.1333 21.7769 21.2791 21.8314 21.4222C21.9453 21.721 22.0797 22.0082 22.2399 22.285C22.3985 22.5591 21.9543 22.7547 21.8376 22.4547C21.717 22.145 21.618 21.8248 21.558 21.4976C21.5288 21.3379 21.5027 21.1761 21.4942 21.0138C21.4869 20.8745 21.4674 20.7188 21.5018 20.5829Z" fill="black"/>
<path fill-rule="evenodd" clip-rule="evenodd" d="M25.0866 10.1402C25.0761 9.76577 24.5328 9.61031 24.3759 9.98113C24.3661 9.99105 24.3556 10.0006 24.3456 10.0092C24.3948 9.96691 24.292 10.0368 24.2753 10.0454C24.261 10.0528 24.2464 10.0595 24.2318 10.0664C24.1309 9.11785 23.7882 8.09529 22.9027 7.61917C21.6676 7.01875 20.2405 6.90155 18.8855 6.9612C18.1991 7.00203 17.4065 7.11205 16.7966 6.76394C16.6066 6.65547 16.4543 6.48474 16.2396 6.4177C15.5617 6.23387 15.2543 6.93167 15.3466 7.50551C15.0575 7.5078 14.7707 7.66827 14.6459 7.93247C14.5726 8.08884 14.5739 8.25757 14.5107 8.4145C14.3168 8.81247 14.0395 9.09853 14.1963 9.58103C13.9205 9.89568 14.0777 10.372 14.3003 10.6733C14.4102 10.8299 14.5411 10.9804 14.6216 11.1557C14.6998 11.3237 14.5818 11.5228 14.5161 11.682C14.0308 12.8358 14.0585 14.1064 14.3197 15.3099C13.7956 15.5379 13.6383 16.2505 13.9801 16.6992C14.0977 16.8578 14.2411 16.9167 14.4038 17.0143C14.6097 17.1279 14.4415 17.5829 14.5075 17.8027C14.597 18.3391 15.0843 18.6695 15.566 18.3211C15.8717 18.2747 16.1183 19.1664 16.3403 19.3903C16.4771 19.5706 16.629 19.7325 16.7941 19.882C17.286 21.1509 19.8066 21.7943 21.0529 21.7209C22.358 21.5839 23.2384 20.4728 23.9715 19.4867C24.3479 18.9612 24.5928 18.3731 24.6818 17.7317C24.7713 17.0871 24.7321 16.4413 24.6717 15.7959C24.5446 14.4246 24.3443 12.449 24.2149 11.0629C24.6825 11.0243 25.1007 10.6251 25.0866 10.1402Z" fill="#D08B5B"/>
<path fill-rule="evenodd" clip-rule="evenodd" d="M15.7638 6.59967C15.8547 6.50984 16.0035 6.60201 16.1019 6.67419L16.1237 6.6904L16.1861 6.73794C16.3275 6.84725 16.4599 6.96605 16.6126 7.0606C16.7794 7.16386 16.9605 7.24596 17.1444 7.31328C17.5011 7.44382 17.8848 7.5024 18.2629 7.5209C19.8101 7.59661 21.6108 6.78168 23.015 7.75483C23.3479 7.9855 23.5776 8.32278 23.6961 8.70854C23.8298 9.14354 23.784 9.59405 23.8934 10.0306C23.9408 10.22 24.2679 10.2463 24.3044 10.0381L24.3068 10.022L24.3354 10.004L24.3467 9.99721C24.3584 9.99051 24.3637 9.98859 24.3536 9.99802L24.3514 10L24.3558 9.99616C24.3592 9.99311 24.3626 9.98998 24.366 9.98678L24.376 9.977C24.4457 9.81229 24.5916 9.75141 24.7332 9.76743L24.7292 9.77723L24.6871 9.88614L24.6736 9.92032C24.6241 10.0451 24.5695 10.1632 24.4752 10.2701C24.3417 10.4213 24.1757 10.5446 23.9887 10.6205C23.9503 10.6361 23.9561 10.6884 23.9985 10.6926C24.4162 10.7343 24.8867 10.4799 25.0832 10.0943C25.0851 10.1079 25.0863 10.1218 25.0867 10.1361C25.088 10.183 25.0854 10.2292 25.079 10.2743C25.0557 10.283 25.0332 10.2958 25.0123 10.3132C24.8766 10.4263 24.81 10.611 24.6825 10.737C24.5488 10.8692 24.3847 10.9917 24.2066 11.0531C24.2038 11.054 24.2014 11.0554 24.1994 11.057C24.186 11.0059 24.1717 10.9551 24.1555 10.9051C24.1491 10.8854 24.123 10.8903 24.121 10.9098C24.1174 10.9445 23.6274 10.595 23.25 10.6515C22.5405 10.7576 22.3767 11.1729 21.3573 11.1115C20.8598 11.0816 19.8091 10.6144 18.8899 10.5793C18.056 10.5474 16.5658 11.0245 16.1726 11.2994C15.9682 11.4423 16.5454 11.9143 16.4409 12.1288C16.1443 12.7375 16.2645 13.5426 15.9544 14.0239L15.9424 14.042C15.7438 14.3346 15.8678 15.1129 15.7905 15.3529C15.6508 15.7861 15.4196 15.5963 15.4545 15.6544C15.4656 15.6728 15.4951 15.6609 15.4893 15.6397C15.394 15.2922 15.1331 15.0298 14.8014 14.934C14.8158 14.8517 14.7896 14.7482 14.7385 14.6807L14.7176 14.5829L14.6983 14.4914C14.6539 14.2778 14.6141 14.0645 14.5927 13.8452C14.5606 13.5162 14.5595 13.1848 14.5806 12.855C14.6082 12.4217 14.6973 12.0043 14.7952 11.5871L14.8057 11.5424L14.8827 11.218C15.0751 11.2729 15.2724 11.3075 15.4643 11.3247C15.6877 11.3447 15.9088 11.3429 16.1283 11.3252C16.3228 11.8548 16.3154 12.4579 16.075 12.9752C15.7938 13.5802 15.1047 14.1582 15.2938 14.892C15.3763 15.2119 15.8589 15.1466 15.8704 14.8236L15.8706 14.8137C15.8724 14.4946 15.9806 14.2318 16.1236 13.9575L16.1433 13.92L16.1759 13.8588C16.3471 13.538 16.492 13.2214 16.5402 12.8564C16.6101 12.3261 16.5005 11.7786 16.2385 11.315C17.1716 11.2174 18.0747 10.8471 18.9858 10.6481L19.0276 10.6392L19.0695 10.6305C19.7426 10.4945 20.4844 10.4784 21.0946 10.8336C21.1062 10.8404 21.1155 10.8234 21.1049 10.8159C20.2193 10.1755 19.0723 10.2664 18.0568 10.4921L17.9983 10.5052L17.9408 10.5184C17.0015 10.7359 16.0174 11.0554 15.0572 10.7739C14.8076 10.7008 14.5654 10.5807 14.37 10.4067L14.3537 10.392C14.2711 10.3173 14.1768 10.2205 14.1609 10.107C14.1553 10.0671 14.157 10.0397 14.1805 10.0081C14.205 9.97514 14.2478 9.97529 14.2232 9.96339C14.5108 10.1024 14.7573 9.70305 14.4872 9.53005L14.4681 9.51825C14.1225 9.29874 14.2952 8.79919 14.6917 8.80152L14.7119 8.80189C14.9365 8.80256 15.0053 8.53667 14.8845 8.38104L14.8729 8.36651C14.6495 8.07797 15.0256 7.72992 15.3183 7.89304L15.3343 7.90227C15.4733 7.9793 15.6193 7.89354 15.6719 7.75752C15.7847 7.46566 15.727 7.16432 15.7203 6.86225L15.7199 6.84255L15.7195 6.80969L15.7194 6.78374L15.7196 6.76654C15.7211 6.70287 15.7293 6.63381 15.7638 6.59967ZM24.21 11.0986L24.2128 11.0992L24.2188 11.0995L24.2243 11.1582L24.2173 11.1284L24.21 11.0986ZM14.6152 11.1376L14.6084 11.1238L14.6303 11.1326L14.6197 11.1474L14.6152 11.1376ZM20.7416 9.45808C20.7184 9.45144 20.7016 9.48773 20.7247 9.49831C21.2992 9.76177 21.735 10.1822 22.0751 10.7091C22.1074 10.7589 22.156 10.7736 22.212 10.7648C22.2394 10.7606 22.2549 10.7472 22.2695 10.7289L22.2732 10.7242L22.2844 10.7091C22.3086 10.6757 22.3054 10.6202 22.2844 10.5864C21.9391 10.0337 21.3613 9.63549 20.7416 9.45808ZM22.1092 9.28552C22.0839 9.28561 22.0705 9.32437 22.0898 9.34084C22.2548 9.48162 22.4159 9.63764 22.533 9.82181C22.5899 9.9112 22.6375 10.0065 22.6719 10.1069C22.7094 10.2164 22.7216 10.33 22.7751 10.4335C22.8649 10.6071 23.1054 10.5102 23.1175 10.3405C23.1358 10.0847 22.9226 9.79701 22.7537 9.62267C22.5823 9.44575 22.3721 9.32372 22.1295 9.28808L22.1126 9.28573L22.1092 9.28552ZM15.7765 9.08524C15.706 9.06739 15.6484 9.1575 15.7038 9.21036C16.008 9.50082 16.419 9.63555 16.8283 9.69438L16.8491 9.69731C17.2323 9.74997 17.7896 9.77984 18.0785 9.46739C18.1397 9.40123 18.1206 9.27442 18.0224 9.25397C17.8879 9.22596 17.7498 9.23628 17.6134 9.25313L17.5745 9.2581L17.4778 9.27098C17.2867 9.29599 17.0949 9.31124 16.902 9.30557C16.5158 9.29418 16.1479 9.17952 15.7765 9.08524ZM22.4694 8.16099C22.4289 8.1453 22.3861 8.2011 22.4115 8.23645C22.5281 8.39845 22.6677 8.54013 22.7871 8.69966C22.9068 8.85969 23.0068 9.02787 23.1485 9.17024C23.2245 9.24664 23.354 9.16892 23.3271 9.066C23.2254 8.6764 22.8385 8.30402 22.4694 8.16099ZM16.4059 8.33683C16.3634 8.32174 16.3336 8.38079 16.3632 8.41044C16.7554 8.80296 17.4609 9.00855 17.9804 8.78182C18.0973 8.73079 18.0257 8.56678 17.9205 8.5603C17.6606 8.54423 17.3995 8.57436 17.1409 8.53472C16.8884 8.49598 16.6463 8.42215 16.4059 8.33683ZM17.0652 7.81069C17.009 7.78724 16.9855 7.87128 17.0268 7.9019C17.2487 8.06634 17.521 8.13764 17.7925 8.07843C17.881 8.05914 17.8619 7.91621 17.7712 7.91987C17.5255 7.9297 17.2941 7.90622 17.0652 7.81069ZM18.8856 6.95707C19.2218 6.94227 19.5624 6.93836 19.9035 6.95001L19.7521 6.97015L19.6512 6.98335C19.2644 7.03337 18.8769 7.07568 18.4864 7.07397C18.2224 7.07281 17.9588 7.05148 17.701 6.99932C18.0958 7.02319 18.5069 6.9796 18.8856 6.95707Z" fill="#ECDCBF"/>
<path fill-rule="evenodd" clip-rule="evenodd" d="M14.8921 9.31565C14.8917 9.31759 14.8924 9.31906 14.8928 9.32113C14.8929 9.32053 14.893 9.32022 14.8931 9.3195C14.8928 9.31794 14.8925 9.3169 14.8921 9.31565Z" fill="#4F66AF"/>
<path fill-rule="evenodd" clip-rule="evenodd" d="M14.892 9.33553C14.8903 9.33371 14.8879 9.33237 14.8854 9.33055C14.8854 9.33061 14.8853 9.33067 14.8853 9.33074C14.8876 9.33224 14.8898 9.33396 14.892 9.33553Z" fill="#4F66AF"/>
<path fill-rule="evenodd" clip-rule="evenodd" d="M25.0119 10.3169C25.1655 10.189 25.4075 10.3068 25.3555 10.5174C25.2988 10.7468 25.0536 10.9035 24.8511 10.9978C24.6428 11.0948 24.4398 11.1135 24.2124 11.1029L24.2096 11.1022C24.2727 11.356 24.3085 11.6197 24.3568 11.8749C24.4181 12.1988 24.4784 12.5227 24.5378 12.8469C24.5952 13.1602 24.6678 13.4739 24.7119 13.7887C24.7564 14.1066 24.7992 14.4246 24.8429 14.7426C24.9159 15.2736 24.9748 15.807 25.0369 16.3396L25.0665 16.5916C25.1287 17.1252 25.1788 17.6593 25.0609 18.1903C24.9504 18.6879 24.7015 19.152 24.4129 19.5674C24.1302 19.9741 23.8144 20.3652 23.4677 20.719C22.7991 21.4013 21.9745 21.9478 21.0077 22.0491C20.5914 22.0928 20.1468 22.0442 19.7554 21.8925L19.7294 21.8823C19.3332 21.7255 18.848 21.457 18.7449 21.0164C18.6816 20.7461 18.9594 20.5351 19.203 20.6634C19.3159 20.7228 19.4007 20.7907 19.4934 20.8759L19.5098 20.8911C19.5855 20.9616 19.6147 20.9832 19.702 21.0384C19.8812 21.1514 20.0155 21.2049 20.219 21.2562C20.5943 21.3508 20.9992 21.3359 21.3801 21.224C22.1889 20.9864 22.8163 20.3664 23.3538 19.7448C23.6456 19.4072 23.9226 19.0531 24.1363 18.6597C24.3604 18.2469 24.4639 17.8135 24.4577 17.3439C24.4506 16.8139 24.3776 16.2819 24.3296 15.7545C24.2808 15.2168 24.2356 14.6793 24.1958 14.1408C24.1586 13.6359 24.155 13.1286 24.1419 12.6221L24.1394 12.5271C24.1317 12.2582 24.1264 11.9892 24.1203 11.7203C24.1143 11.4521 24.0931 11.1805 24.1207 10.9134C24.1226 10.894 24.1488 10.8891 24.1552 10.9087C24.1714 10.9588 24.1856 11.0096 24.199 11.0607C24.2011 11.0591 24.2034 11.0577 24.2062 11.0568C24.3844 10.9954 24.5484 10.8729 24.6821 10.7407C24.8097 10.6146 24.8763 10.4299 25.0119 10.3169ZM15.2649 6.55967C15.3768 6.0989 15.8804 5.99598 16.2528 6.21788C16.4319 6.32459 16.5753 6.47848 16.7426 6.60078C16.909 6.7224 17.0928 6.82006 17.2868 6.88903C17.6722 7.02605 18.0787 7.07587 18.486 7.07765C19.4773 7.08201 20.4484 6.80271 21.4412 6.83386C22.2094 6.85797 23.0248 7.08557 23.582 7.64229C23.8822 7.94219 24.0756 8.32775 24.1794 8.73708C24.2279 8.92839 24.264 9.12434 24.2925 9.31983L24.2995 9.36869C24.3154 9.48294 24.3411 9.6039 24.3434 9.71937C24.3456 9.82308 24.3194 9.9316 24.3052 10.0342C24.2753 10.2506 23.9411 10.226 23.893 10.0342C23.7836 9.59773 23.8294 9.14723 23.6958 8.71222C23.5772 8.32647 23.3475 7.98918 23.0147 7.75851C21.6105 6.78536 19.8097 7.6003 18.2626 7.52459C17.8844 7.50608 17.5007 7.4475 17.1441 7.31696C16.9601 7.24964 16.779 7.16755 16.6123 7.06428C16.4595 6.96973 16.3271 6.85094 16.1857 6.74162L16.1233 6.69408C16.0264 6.62095 15.8613 6.50662 15.7635 6.60335C15.7209 6.64546 15.7183 6.74067 15.7191 6.81337L15.7196 6.84623C15.724 7.1549 15.7868 7.463 15.6716 7.76121C15.619 7.89723 15.4729 7.98298 15.334 7.90596L15.3268 7.90182C15.0329 7.72656 14.6468 8.07873 14.8726 8.37019L14.8796 8.37901C15.0066 8.53375 14.9389 8.80626 14.7116 8.80557L14.7034 8.80543C14.2984 8.79276 14.1187 9.30021 14.4678 9.52193L14.4785 9.52856C14.762 9.69862 14.5134 10.1074 14.2229 9.96708C14.2475 9.97898 14.2047 9.97882 14.1802 10.0118C14.1567 10.0434 14.1549 10.0707 14.1605 10.1107C14.1775 10.2318 14.2837 10.3338 14.3697 10.4103C14.5651 10.5843 14.8073 10.7045 15.0569 10.7776C16.0566 11.0706 17.0823 10.7122 18.0564 10.4958C19.0719 10.2701 20.2189 10.1792 21.1046 10.8196C21.1151 10.8271 21.1059 10.8441 21.0942 10.8373C20.4587 10.4673 19.6802 10.5001 18.9854 10.6518C18.0744 10.8508 17.1713 11.2211 16.2382 11.3187C16.5001 11.7822 16.6098 12.3298 16.5398 12.86C16.4916 13.2251 16.3467 13.5417 16.1756 13.8625L16.1429 13.9237C15.9903 14.2117 15.8721 14.4838 15.8702 14.8174C15.8684 15.1489 15.3768 15.2188 15.2935 14.8957C15.1043 14.1619 15.7935 13.5839 16.0747 12.9788C16.315 12.4616 16.3224 11.8585 16.1279 11.3289C15.9085 11.3466 15.6873 11.3484 15.464 11.3284C15.2721 11.3112 15.0747 11.2766 14.8823 11.2217L14.8053 11.5461C14.7034 11.9782 14.6089 12.4099 14.5803 12.8587C14.5592 13.1885 14.5603 13.5199 14.5924 13.8488C14.6201 14.133 14.6786 14.407 14.7382 14.6844C14.7893 14.7519 14.8154 14.8553 14.801 14.9377C15.1327 15.0335 15.3936 15.2959 15.4889 15.6434C15.4948 15.6645 15.4652 15.6764 15.4541 15.6581C15.228 15.2819 14.6456 15.1435 14.2772 15.392C13.9254 15.6293 13.7867 16.1084 13.9858 16.4876C14.0905 16.687 14.2458 16.8271 14.4461 16.9236L14.4864 16.9426C14.5913 16.9924 14.6876 17.0466 14.7551 17.1466C14.8427 17.2763 14.8456 17.4134 14.8373 17.5616L14.8338 17.6216C14.8282 17.721 14.827 17.8232 14.8565 17.9188L14.8632 17.94C14.871 17.9639 14.8792 17.9849 14.8934 18.0077C14.8976 18.0144 14.9375 18.0536 14.9505 18.0678L14.9669 18.0728L14.9852 18.0735C15.0055 18.0738 15.0321 18.065 15.0234 18.0711L15.0258 18.0697C15.0335 18.0649 15.0406 18.0598 15.0465 18.0553L15.0579 18.0465C15.0844 18.008 15.1176 17.9763 15.1584 17.9521L15.1973 17.9347C15.2985 17.8276 15.4718 17.8839 15.5443 17.9906C15.5965 18.0673 15.6246 18.1453 15.6269 18.2222C15.6351 18.2091 15.6532 18.2019 15.6647 18.2166L15.7335 18.3044C15.9966 18.6414 16.2551 18.9805 16.5541 19.2877C16.7188 19.457 16.8959 19.616 17.0811 19.7626C17.2392 19.8876 17.5391 20.008 17.5437 20.2359C17.5451 20.3098 17.4927 20.3622 17.4287 20.3873C17.2201 20.469 16.9623 20.1911 16.8117 20.0559L16.7993 20.045C16.6149 19.8831 16.4467 19.7054 16.2914 19.5153C15.9898 19.1461 15.7376 18.7212 15.6264 18.2538C15.6212 18.3353 15.5863 18.4153 15.5183 18.4907C15.4278 18.5911 15.304 18.6615 15.1717 18.6905C14.872 18.7561 14.5794 18.648 14.4011 18.3977C14.2504 18.186 14.206 17.9066 14.2255 17.6509L14.2279 17.6202C14.2306 17.5792 14.2341 17.504 14.2447 17.472L14.1503 17.42C14.0346 17.3583 13.9274 17.2774 13.8312 17.1885C13.4444 16.831 13.2504 16.2501 13.4272 15.7418C13.5378 15.4238 13.7702 15.1471 14.0678 15.0033C14.018 14.888 14.0014 14.7512 13.9826 14.6301L13.9795 14.6101C13.9477 14.4114 13.921 14.2103 13.9109 14.0093C13.8919 13.6338 13.915 13.2549 13.9738 12.8838C14.0694 12.2811 14.2672 11.6419 14.6299 11.1363C14.3532 11.0262 14.0985 10.8667 13.902 10.6453C13.6965 10.4139 13.5656 10.0826 13.7244 9.78876C13.7649 9.71386 13.8177 9.6509 13.8783 9.60089C13.7732 9.40188 13.7392 9.16667 13.804 8.94186C13.8815 8.67308 14.092 8.46345 14.3463 8.36557C14.2845 8.11092 14.335 7.83701 14.5237 7.62478C14.7108 7.41425 15.0015 7.33757 15.2704 7.38569C15.285 7.11485 15.2 6.82679 15.2649 6.55967ZM14.5104 16.0689C14.7571 15.9479 15.0493 15.9671 15.2957 16.0818L15.3124 16.0897C15.5813 16.2204 15.9375 16.5259 15.852 16.8508C15.802 17.0408 15.5914 17.1057 15.4281 17.0237C15.2917 16.9551 15.2606 16.8326 15.1922 16.7095C15.1438 16.6225 15.084 16.5544 15.0138 16.4845C14.8657 16.337 14.6994 16.2275 14.5104 16.1398C14.4832 16.1272 14.4841 16.0818 14.5104 16.0689ZM20.7244 9.502C20.7013 9.49141 20.718 9.45512 20.7413 9.46176C21.361 9.63917 21.9388 10.0374 22.284 10.5901C22.3051 10.6238 22.3083 10.6794 22.284 10.7127L22.2728 10.7279C22.257 10.7486 22.2414 10.7639 22.2116 10.7685C22.1556 10.7772 22.107 10.7626 22.0748 10.7127C21.7347 10.1859 21.2989 9.76545 20.7244 9.502ZM24.8729 9.60632C24.9254 9.51718 25.0646 9.53512 25.0923 9.63506L25.0963 9.64376C25.1113 9.67783 25.1045 9.68481 25.0766 9.66553C25.1456 9.72258 25.1769 9.80756 25.1558 9.89892C25.0417 10.3924 24.4842 10.7448 23.9981 10.6963C23.9557 10.692 23.95 10.6398 23.9884 10.6242C24.1754 10.5483 24.3414 10.425 24.4748 10.2737C24.6045 10.1267 24.6591 9.95848 24.7289 9.78091C24.755 9.71425 24.7958 9.66625 24.8531 9.64004C24.8607 9.62952 24.8674 9.61831 24.8729 9.60632ZM22.1089 9.2892L22.1122 9.28942C22.362 9.32176 22.578 9.44531 22.7534 9.62636C22.9223 9.8007 23.1354 10.0884 23.1172 10.3442C23.1051 10.5138 22.8645 10.6108 22.7748 10.4372C22.7212 10.3336 22.7091 10.2201 22.6715 10.1106C22.6371 10.0102 22.5896 9.91489 22.5327 9.8255C22.4155 9.64132 22.2544 9.4853 22.0895 9.34452C22.0701 9.32805 22.0836 9.28929 22.1089 9.2892ZM15.7035 9.21404C15.6481 9.16119 15.7057 9.07107 15.7761 9.08892C16.1476 9.1832 16.5154 9.29786 16.9016 9.30926C17.0945 9.31493 17.2863 9.29968 17.4774 9.27466L17.5741 9.26178C17.7232 9.24228 17.8747 9.22697 18.022 9.25766C18.1202 9.2781 18.1394 9.40491 18.0782 9.47107C17.7893 9.78353 17.2319 9.75366 16.8487 9.70099C16.4326 9.64376 16.0128 9.50943 15.7035 9.21404ZM22.4112 8.24013C22.3858 8.20478 22.4286 8.14898 22.469 8.16467C22.8382 8.3077 23.2251 8.68008 23.3268 9.06969C23.3536 9.17261 23.2242 9.25032 23.1481 9.17392C23.0065 9.03155 22.9065 8.86338 22.7867 8.70335C22.6674 8.54382 22.5277 8.40213 22.4112 8.24013ZM16.3629 8.41413C16.3333 8.38447 16.3631 8.32542 16.4056 8.34051C16.6459 8.42584 16.8881 8.49967 17.1406 8.5384C17.3992 8.57804 17.6602 8.54792 17.9202 8.56398C18.0253 8.57046 18.0969 8.73447 17.98 8.78551C17.4606 9.01223 16.755 8.80664 16.3629 8.41413ZM17.0265 7.90558C16.9852 7.87496 17.0087 7.79092 17.0648 7.81437C17.2937 7.9099 17.5252 7.93339 17.7708 7.92356C17.8615 7.91989 17.8806 8.06283 17.7922 8.08211C17.5207 8.14132 17.2483 8.07003 17.0265 7.90558Z" fill="black"/>
<path fill-rule="evenodd" clip-rule="evenodd" d="M21.2085 19.0034C20.9981 18.9175 20.8103 18.7743 20.6731 18.5913C20.6254 18.5277 20.613 18.4606 20.623 18.3991C20.6343 18.33 20.6751 18.2674 20.7308 18.2254C20.7867 18.1833 20.8566 18.1625 20.9242 18.1731C20.9829 18.1823 21.0414 18.2145 21.0876 18.2812L21.0973 18.2946C21.1789 18.405 21.2852 18.4956 21.4064 18.554C21.5232 18.6103 21.6538 18.6366 21.7889 18.6213C22.0463 18.5922 22.2237 18.4529 22.4123 18.2638C22.4357 18.24 22.459 18.2153 22.4825 18.1903C22.4974 18.1676 22.518 18.153 22.5408 18.1454C22.5662 18.1369 22.595 18.1374 22.6213 18.1466C22.6466 18.1554 22.6693 18.1722 22.6845 18.1946C22.699 18.2158 22.7072 18.242 22.7045 18.2722C22.6873 18.4682 22.5849 18.6431 22.4394 18.7804C22.2778 18.933 22.0636 19.0385 21.862 19.0755C21.6398 19.1163 21.4134 19.087 21.2085 19.0034ZM21.9668 15.98C22.2031 16.1237 22.5632 16.4588 22.309 16.8151C22.0097 17.1293 21.5788 16.7691 21.3664 16.6062C21.1695 16.4799 20.9483 16.8047 21.131 16.9521C22.6654 18.0885 23.2881 16.0176 22.0863 15.811C21.954 15.7883 21.9048 15.9355 21.9668 15.98ZM19.2171 14.658C19.2432 14.3338 19.7369 14.2601 19.786 14.581C19.83 14.8684 19.7782 15.1325 19.6488 15.3913C19.5251 15.6385 19.2143 15.5232 19.1908 15.298C19.1593 14.9963 19.2009 14.8597 19.2171 14.658ZM22.975 14.5145C23.0438 14.4243 23.1432 14.3627 23.2622 14.3975C23.6342 14.5063 23.5246 15.0346 23.3939 15.2917C23.323 15.4314 23.0935 15.4668 22.9898 15.3438C22.8208 15.1433 22.7399 14.7429 22.9547 14.5454C22.9605 14.5352 22.967 14.5249 22.975 14.5145ZM19.6435 13.2391L19.7023 13.2288C19.8841 13.1974 20.1101 13.1672 20.2387 13.3134C20.3069 13.3909 20.3304 13.535 20.2387 13.6092C20.0774 13.7398 19.8992 13.6892 19.7059 13.7002C19.5467 13.7094 19.3936 13.7357 19.2402 13.7796C18.9037 13.8758 18.6295 14.0515 18.3421 14.2443C18.3044 14.2696 18.2659 14.2214 18.2839 14.1861C18.4498 13.861 18.7713 13.5939 19.0934 13.4312C19.2653 13.3443 19.4534 13.2722 19.6435 13.2391ZM22.6359 13.0935L22.6809 13.1027C23.1703 13.2051 23.8062 13.4095 24.0379 13.8904C24.0468 13.9584 24.0374 13.973 24.0298 13.9825L24.0273 13.9857C24.0211 13.9938 24.0161 14.005 23.9866 14.0143C23.9784 14.0123 23.9702 14.0103 23.9618 14.0081C23.8556 13.9802 23.7715 13.9419 23.6902 13.902L23.6019 13.8586C23.4996 13.8083 23.3963 13.76 23.2869 13.7242C23.0533 13.648 22.8131 13.5943 22.5691 13.5657C22.5162 13.5595 22.4653 13.5416 22.4252 13.511C22.387 13.482 22.3579 13.4418 22.3446 13.3883C22.3274 13.3192 22.3324 13.2668 22.3695 13.2044C22.3973 13.1575 22.4373 13.1251 22.4831 13.1064C22.5298 13.0874 22.583 13.0829 22.6359 13.0935Z" fill="black"/>
<path fill-rule="evenodd" clip-rule="evenodd" d="M23.6123 11.3148C23.7932 11.2528 23.9375 11.441 23.9027 11.6051C23.8617 11.7983 23.6602 11.9533 23.5265 12.0895C23.3863 12.2329 23.2433 12.3735 23.0949 12.5087C22.8117 12.7674 22.5181 13.011 22.2085 13.238L22.1139 13.3074C21.8301 13.5151 21.5472 13.7179 21.2433 13.8977C21.0786 13.9948 20.9124 14.0887 20.744 14.1792C20.684 14.2114 20.6107 14.2612 20.5353 14.2982C20.811 14.5111 21.0232 14.8361 21.0692 15.1389C21.1832 15.891 20.6987 16.588 20.0151 16.8651C19.6742 17.0031 19.2949 17.0432 18.9306 17.0016C18.56 16.9593 18.1844 16.8497 17.9437 16.546C17.73 16.2764 17.653 15.9323 17.6376 15.5945C17.6304 15.4341 17.632 15.2763 17.6658 15.1345C17.5184 15.1358 17.371 15.1351 17.2248 15.1367C16.8636 15.1401 16.5018 15.1417 16.1403 15.1317C15.7675 15.121 15.3966 15.1044 15.0251 15.0713C14.862 15.0565 14.6999 15.0324 14.5378 15.0093C14.3804 14.987 14.2066 14.9786 14.0595 14.9141C14.0495 14.91 14.0537 14.8956 14.0624 14.8927C14.2192 14.8421 14.3973 14.8511 14.5606 14.8411L14.7199 14.8314C14.8525 14.8235 14.985 14.8162 15.1181 14.812C15.4253 14.8019 15.7324 14.7994 16.0396 14.7941L16.1713 14.7916C16.5328 14.7844 16.8943 14.7804 17.2558 14.7688C17.4057 14.7641 17.5559 14.7553 17.7065 14.7472C17.724 14.7074 17.7497 14.6711 17.7744 14.6357C17.8483 14.5299 17.9422 14.4366 18.0395 14.352C18.2389 14.1779 18.4633 14.0486 18.7137 13.9619C18.9618 13.8762 19.3247 13.8337 19.5872 13.8393C19.8497 13.8448 20.2238 13.8818 20.344 14.0965C20.3566 14.1188 20.5854 14.0759 20.6533 14.0239C20.812 13.9027 20.9678 13.7781 21.1209 13.6503C21.4051 13.4127 21.6974 13.1788 21.9666 12.9246C22.2442 12.6622 22.5196 12.3954 22.7838 12.1199C22.9165 11.9818 23.0489 11.8434 23.1775 11.7019C23.309 11.5575 23.422 11.3797 23.6123 11.3148Z" fill="black"/>
</svg>
