<svg width="36" height="48" viewBox="0 0 36 48" fill="none" xmlns="http://www.w3.org/2000/svg">
<path fill-rule="evenodd" clip-rule="evenodd" d="M28.8345 37.3236C28.7083 36.6108 28.5926 35.8961 28.4875 35.1799C28.4376 34.8399 28.389 34.4996 28.3452 34.1587C28.3146 33.9198 28.2679 33.6467 28.4304 33.4698C28.6589 33.2208 28.8666 33.0077 28.8945 32.651C28.9209 32.3155 28.8074 31.9497 28.7365 31.6239C28.5878 30.9409 28.4026 30.2662 28.198 29.598C27.9902 28.9191 27.7622 28.2465 27.531 27.5753C27.3149 26.9477 27.1071 26.3144 26.8256 25.7123C26.2913 24.5696 25.3874 23.7233 24.2702 23.1583C23.9924 23.0177 23.4257 22.5161 23.1354 22.4038C22.8686 22.3005 22.8695 22.6021 22.6069 22.4885C22.397 22.3977 22.2015 22.2766 22.0839 22.0738C21.9563 21.8536 21.6362 21.5456 21.5875 21.2893C21.4842 20.746 21.5961 20.2836 21.2084 19.8747C20.8643 19.5116 20.4018 19.2628 19.9233 19.1293C18.8705 18.8355 17.4665 19.0409 16.8313 20.0195C16.5279 20.4869 16.4219 21.0518 16.0126 21.4332C15.6551 21.7662 15.7351 21.9939 15.2721 22.1656C15.2459 22.1753 14.5352 22.0228 14.509 22.0325C14.0025 21.9241 13.5184 22.2276 13.0537 22.4038C12.361 22.6663 11.7015 23.008 11.0818 23.4141C9.83242 24.2331 8.76231 25.2965 7.88009 26.4999C6.99057 27.7132 6.3004 29.0731 5.80898 30.4945C5.68963 30.8397 5.58244 31.1891 5.48788 31.542C5.43495 31.7394 5.3784 31.9443 5.44284 32.1464C5.49555 32.3118 5.61279 32.435 5.75048 32.5342C5.93711 32.6688 6.31148 32.7562 6.30419 33.0268C6.29862 33.2325 6.22885 33.449 6.1948 33.6523C6.15427 33.8944 6.12096 34.138 6.08766 34.3811C5.93618 35.488 5.81827 36.6011 5.76613 37.7173C5.7148 38.8164 5.6722 39.9379 5.74841 41.0367C5.75345 41.1092 5.77505 41.1757 5.80988 41.2319C5.77736 41.2443 5.77486 41.305 5.81533 41.3136C5.84369 41.3196 5.87198 41.3256 5.90034 41.3316C5.95924 41.3762 6.0327 41.4035 6.11724 41.4062C6.17455 41.408 6.23182 41.4106 6.28907 41.4135C6.89317 41.5398 7.49718 41.6592 8.10916 41.7495C8.85308 41.8594 9.59918 41.9489 10.3476 42.0217C11.8855 42.1713 13.4112 42.1217 14.9511 42.041C16.4887 41.9605 18.0253 41.9417 19.5644 41.9818C21.1049 42.0219 22.6448 42.0889 24.1856 42.1163C25.907 42.1469 27.6258 42.0999 29.3422 41.963C29.5776 41.9443 29.7232 41.757 29.6767 41.5231C29.3986 40.1222 29.0835 38.7306 28.8345 37.3236Z" fill="#D08B5B"/>
<path fill-rule="evenodd" clip-rule="evenodd" d="M13.0537 22.4038L13.0874 22.3909C13.5417 22.2133 14.0147 21.9268 14.509 22.0326C14.5264 22.0261 14.8481 22.0917 15.0684 22.1333L14.8593 22.3516L14.4902 22.4226C15.7633 24.5245 17.2689 25.5754 19.0071 25.5754C20.7454 25.5754 22.0643 24.5245 22.9641 22.4226L23.0869 22.3886C23.102 22.3922 23.1182 22.3971 23.1354 22.4038C23.4257 22.5161 23.9924 23.0178 24.2702 23.1583C25.3873 23.7234 26.2913 24.5696 26.8256 25.7123C27.0977 26.2944 27.301 26.9055 27.5095 27.5125L27.531 27.5753C27.7622 28.2466 27.9902 28.9191 28.198 29.598C28.3937 30.2372 28.5716 30.8823 28.7169 31.5349L28.7365 31.624C28.8074 31.9497 28.9209 32.3155 28.8945 32.6511C28.8846 32.7782 28.8518 32.887 28.8034 32.9857L26.2855 33.8921L27.4851 42.0766C26.3863 42.1238 25.2865 42.1359 24.1856 42.1164C22.6448 42.0889 21.1049 42.0219 19.5644 41.9818C18.0719 41.943 16.5818 41.9595 15.0909 42.0339L14.7123 42.0533C13.2534 42.1263 11.8059 42.1636 10.3476 42.0217L10.2482 42.012L10.2482 40.8148L10.7605 34.1483L8.1644 33.6594L5.61599 32.4212C5.53899 32.3442 5.4772 32.2543 5.44284 32.1465C5.38315 31.9592 5.42726 31.7697 5.47615 31.5859L5.48788 31.542C5.58244 31.1892 5.68963 30.8397 5.80898 30.4945C6.3004 29.0732 6.99057 27.7132 7.88009 26.5C8.76231 25.2966 9.83242 24.2331 11.0818 23.4142C11.7015 23.0081 12.361 22.6663 13.0537 22.4038Z" fill="#EC7495"/>
<path fill-rule="evenodd" clip-rule="evenodd" d="M14.029 21.9984C14.1882 21.9915 14.3505 22.0172 14.5093 22.0329C14.5231 22.0342 14.5284 22.0556 14.5128 22.0588C14.2286 22.1182 13.9475 22.1995 13.6683 22.282L13.5488 22.3174C13.234 22.4105 12.9285 22.5066 12.6238 22.6309C12.0164 22.8785 11.4396 23.2127 10.9088 23.5967C8.86459 25.0752 7.38509 27.3138 6.45144 29.6314C6.19789 30.2609 5.98305 30.9059 5.80903 31.5619C5.76671 31.7215 5.7269 31.8817 5.68916 32.0424C5.67808 32.0895 5.62978 32.2102 5.65626 32.2584C5.67967 32.301 5.77069 32.3274 5.81297 32.3495L5.95573 32.4236C6.23419 32.5672 6.69804 32.8032 6.74455 32.8262L6.8171 32.8619C8.00366 33.4438 9.27149 33.9373 10.6067 33.9714L10.6172 33.8574C10.6767 33.2267 10.7549 32.5927 10.9254 31.9815C10.9345 31.9486 10.9763 31.9597 10.9801 31.9889C11.0751 32.7125 11.0448 33.4418 11.0116 34.1688C10.9529 35.4564 10.875 36.7432 10.8057 38.0303C10.7711 38.6741 10.7262 39.3175 10.6858 39.9611C10.6452 40.6058 10.6321 41.2661 10.5396 41.9056C10.519 42.0481 10.3521 42.1257 10.2257 42.1106C10.0858 42.094 9.97826 41.9708 9.97761 41.8295C9.97591 41.457 10.0227 41.0801 10.0487 40.7085C10.0734 40.3554 10.0999 40.0025 10.1271 39.6496C10.2264 38.3618 10.3406 37.0754 10.4462 35.7881C10.4836 35.3315 10.5241 34.8754 10.5657 34.4192C9.15122 34.3736 7.82975 33.8495 6.56909 33.2371C6.55085 33.6516 6.50678 34.0653 6.46412 34.478C6.34502 35.6298 6.24002 36.7812 6.16142 37.9366C6.12174 38.5201 6.09285 39.1044 6.06768 39.6887C6.05532 39.9759 6.04524 40.2632 6.03751 40.5505C6.03492 40.6463 6.03259 40.7421 6.03052 40.8379L6.02622 41.0573C6.0227 41.1963 6.00857 41.3251 5.89163 41.4264C5.77285 41.5291 5.61241 41.5346 5.49485 41.4264C5.33748 41.2814 5.36531 41.0839 5.36997 40.8892C5.37385 40.725 5.37851 40.5608 5.38393 40.3966C5.39479 40.0682 5.40865 39.74 5.42552 39.4119C5.48456 38.2647 5.60251 37.1222 5.75666 35.9843L5.81683 35.545C5.9292 34.7284 6.05257 33.8932 6.30377 33.1066C6.20596 33.0579 6.10844 33.0089 6.01128 32.9597C5.83895 32.8724 5.66077 32.7905 5.49326 32.6942C5.36036 32.6177 5.24574 32.5129 5.20875 32.3582C5.16749 32.1858 5.23058 31.9973 5.27249 31.8292L5.27613 31.8144C5.31723 31.6451 5.36149 31.4765 5.40818 31.3086C5.59754 30.628 5.83169 29.9606 6.10571 29.3094C6.65438 28.0059 7.36258 26.7675 8.22765 25.6478C9.00634 24.6399 9.92621 23.7258 11.0043 23.0403C11.5314 22.7052 12.0931 22.43 12.6871 22.2354C12.9648 22.1445 13.2669 22.0654 13.5576 22.0328C13.7144 22.0153 13.8714 22.0052 14.029 21.9984ZM16.8494 19.9328C17.0386 19.7296 17.4144 19.9399 17.3236 20.209C17.11 20.842 16.7697 21.4195 16.2388 21.8355C15.7397 22.2266 15.1445 22.4805 14.5036 22.4263C14.4987 22.4259 14.4944 22.4247 14.4906 22.4229L14.5458 22.4978C14.9795 23.0846 15.4369 23.6633 15.9883 24.143C17.1117 25.1202 18.6413 25.6473 20.1183 25.2723C21.2803 24.9774 22.3041 24.0581 22.6052 22.8866C22.5621 22.9059 22.5108 22.9125 22.4545 22.9003C22.2136 22.848 21.9751 22.5945 21.8197 22.4128C21.6516 22.2162 21.5203 22.0039 21.4241 21.7639C21.248 21.3247 21.1916 20.7593 21.432 20.3339C21.4617 20.2814 21.5301 20.3108 21.5359 20.362L21.5451 20.4419C21.5914 20.8406 21.6492 21.2263 21.8371 21.5897C21.929 21.7676 22.0393 21.9412 22.1735 22.0901C22.2453 22.1698 22.3231 22.246 22.4071 22.3128C22.489 22.3779 22.5881 22.425 22.6615 22.4996L22.675 22.514L22.6754 22.5114C22.6939 22.3536 22.8046 22.284 22.9128 22.2884C23.0176 22.2926 23.1407 22.3387 23.1883 22.3608L23.1928 22.363C23.9237 22.714 24.5969 23.1714 25.2304 23.679C26.5404 24.7287 27.522 26.1009 27.9976 27.7168C28.231 28.5099 28.3649 29.3271 28.5063 30.1405L28.5934 30.6388C28.7253 31.3897 28.8727 32.1554 29.1706 32.8539C29.2477 33.0346 29.1883 33.204 28.9993 33.2751C28.7634 33.3638 28.5266 33.4497 28.2894 33.5346C28.4059 34.0344 28.4769 34.5515 28.5642 35.0538C28.7496 36.1215 28.9769 37.1824 29.1718 38.2486C29.2714 38.7938 29.3613 39.3408 29.4608 39.8861C29.5087 40.1486 29.5588 40.4109 29.6074 40.6733C29.6336 40.8148 29.6573 40.9568 29.6824 41.0985L29.6867 41.122C29.701 41.1968 29.719 41.2741 29.6985 41.3489C29.675 41.4343 29.6085 41.4945 29.549 41.5557C29.5001 41.6061 29.4294 41.6064 29.3695 41.5789L29.3497 41.5698C29.2427 41.5197 29.1588 41.4697 29.1208 41.3489C29.0968 41.2724 29.0881 41.1863 29.0724 41.1075C29.0423 40.9564 29.0137 40.8051 28.9867 40.6534C28.9328 40.3499 28.8801 40.0462 28.8286 39.7422L28.7805 39.4576C28.6156 38.4767 28.4589 37.4897 28.3798 36.4984C28.3446 36.0586 28.3074 35.6192 28.2698 35.1798L28.2416 34.8501C28.2059 34.4329 28.1623 34.0051 28.1562 33.5823L28.0143 33.6326L27.3223 33.8774C27.1507 33.938 26.9322 34.0623 26.7476 34.0397C26.6572 34.0286 26.5883 34.0002 26.5351 33.9484C26.5988 34.8481 26.685 35.7462 26.8 36.6397C26.9046 37.4528 27.0206 38.2647 27.1575 39.0729C27.2254 39.4731 27.2951 39.873 27.3708 40.2718C27.4086 40.4712 27.4477 40.6703 27.4879 40.8693C27.508 40.9685 27.5319 41.0679 27.5475 41.168C27.5654 41.2826 27.5339 41.3531 27.4699 41.4473C27.4173 41.5248 27.3122 41.5645 27.2269 41.5111C27.1141 41.4402 27.0552 41.3789 27.022 41.2498C26.9918 41.1326 26.9735 41.0103 26.9501 40.8916C26.907 40.6725 26.8654 40.4531 26.8252 40.2334C26.7411 39.774 26.6635 39.3135 26.5943 38.8516C26.3503 37.2244 26.1955 35.5835 26.1173 33.9401C26.0788 33.1292 26.0668 32.3176 26.0737 31.5059C26.0772 31.0898 26.0908 30.6726 26.1202 30.2576C26.15 29.8374 26.212 29.4257 26.2673 29.0097C26.2692 28.995 26.2899 28.9942 26.2908 29.0097C26.317 29.4761 26.358 29.9421 26.3782 30.4098C26.3974 30.8561 26.4058 31.303 26.4211 31.7495C26.4411 32.3363 26.469 32.9235 26.5058 33.5102C26.5725 33.4373 26.673 33.3952 26.7736 33.4116C26.9193 33.381 27.0762 33.3045 27.2152 33.2581L27.7389 33.0831C28.0142 32.9911 28.2896 32.8997 28.5659 32.8111C28.3188 31.9797 28.1496 31.1359 28.0051 30.2798L27.9407 29.8948C27.8131 29.1369 27.6756 28.3787 27.4445 27.6448C27.2016 26.8732 26.8381 26.1559 26.3559 25.5063C25.8805 24.8661 25.3022 24.3023 24.7068 23.775C24.197 23.3237 23.6517 22.9161 23.1318 22.4771C23.1372 22.5062 23.1384 22.5383 23.1336 22.5734C23.023 23.3828 22.601 24.1366 22.0128 24.6972C20.8311 25.8235 19.0819 26.0572 17.5695 25.529C16.1065 25.0182 14.813 23.8082 14.356 22.311C14.3481 22.2854 14.3824 22.2752 14.3962 22.2941C14.4216 22.3288 14.447 22.3636 14.4726 22.3983C14.4708 22.3845 14.478 22.3695 14.495 22.3629C15.0282 22.1569 15.5518 21.8648 15.9515 21.4516C16.1463 21.2502 16.3163 21.022 16.4506 20.7759C16.5148 20.658 16.5726 20.5359 16.6187 20.4098L16.6304 20.3771C16.6862 20.2191 16.7329 20.058 16.8494 19.9328Z" fill="black"/>
<path fill-rule="evenodd" clip-rule="evenodd" d="M13.7663 8.84178C13.9283 8.66753 14.1355 8.53771 14.362 8.49623C14.1549 8.5999 13.9526 8.70795 13.7663 8.84178ZM13.4491 10.3442C13.4204 10.2114 13.4012 10.0773 13.3951 9.9433C13.4313 9.99847 13.4892 10.0353 13.5541 10.0544C13.5121 10.1485 13.4765 10.2455 13.4491 10.3442ZM24.2875 12.4262C24.1006 11.646 23.2283 10.1454 23.0221 9.85653C22.7982 9.14135 24.0193 8.5678 23.3552 8.00856C23.0546 7.75622 22.6572 7.66692 22.2845 7.57743C19.7037 6.95609 16.9309 7.26946 14.5374 8.41203C14.1733 8.33523 13.794 8.48533 13.5292 8.74897C12.2853 10.0023 13.9805 12.2636 14.3512 13.6766C14.9871 15.2521 13.6771 15.5171 13.8176 16.8501C13.9267 17.5388 14.6225 17.7208 15.2096 17.8249C15.3038 17.8469 15.4296 17.8502 15.4599 17.95C15.5551 18.5321 15.8812 19.0868 16.319 19.4633C16.2807 19.577 16.31 19.7151 16.445 19.815C17.6683 20.7263 19.2108 21.1824 20.7366 21.1004C22.5549 21.0027 23.4953 19.9579 23.7222 19.6889C24.9768 17.9904 24.8269 15.7493 24.5709 13.7251C24.3926 12.3149 24.6187 13.8083 24.2875 12.4262Z" fill="#D08B5B"/>
<path fill-rule="evenodd" clip-rule="evenodd" d="M18.6811 5.93446C18.7383 5.75536 18.9 5.64765 19.0853 5.66988C19.2492 5.6893 19.4248 5.85243 19.4048 6.03247C19.401 6.06722 19.396 6.09978 19.3901 6.13047L19.3909 6.13074L19.3917 6.13078L19.3876 6.14268C19.3754 6.19998 19.3585 6.25133 19.3336 6.29986C19.3017 6.39286 19.2711 6.48616 19.2408 6.57978C19.2845 6.57791 19.3292 6.58041 19.3745 6.58886C19.4213 6.46863 19.4685 6.34871 19.5153 6.22816C19.5656 6.09947 19.6009 5.93415 19.7002 5.83458C19.8273 5.70746 20.0479 5.68115 20.2028 5.77196C20.3664 5.86777 20.4248 6.0381 20.3892 6.22065C20.3711 6.31376 20.3091 6.37856 20.2323 6.41927L20.224 6.42354L20.165 6.56382C20.1831 6.55599 20.2018 6.54879 20.2221 6.54284C20.254 6.53344 20.2852 6.52749 20.3158 6.52499C20.4002 6.37188 20.4929 6.22315 20.5888 6.07724C20.6991 5.90941 20.9146 5.83802 21.0954 5.94417C21.2572 6.03904 21.344 6.28828 21.2281 6.45204C21.1401 6.57634 21.0567 6.70315 20.9745 6.83121C20.9886 6.83372 21.0026 6.83685 21.0161 6.84092C21.0223 6.83247 21.0289 6.82401 21.0357 6.81556C21.1254 6.70409 21.2297 6.62049 21.3368 6.52781C21.4371 6.44076 21.4833 6.30393 21.6151 6.23787C21.781 6.15489 21.9809 6.19466 22.0796 6.35998C22.2913 6.71411 21.9359 6.97274 21.7085 7.18722C21.9062 7.06354 22.112 6.95051 22.3232 6.85282C22.4419 6.79802 22.5624 6.74511 22.6848 6.69939C22.8663 6.63176 23.0131 6.6534 23.1621 6.77924C23.2286 6.8356 23.2617 6.95868 23.2311 7.04068C23.1718 7.19787 23.0781 7.29337 22.9138 7.33877C22.7982 7.3707 22.6798 7.39231 22.5643 7.42581C22.3706 7.48155 22.1826 7.54949 22.0002 7.63434C22.0133 7.64249 22.0258 7.65125 22.0374 7.66127C22.1736 7.61712 22.3122 7.57892 22.4515 7.54636C22.6826 7.49205 22.9177 7.45536 23.1539 7.43241L23.2323 7.42509C23.5155 7.39785 23.856 7.34758 24.0297 7.61931C24.0869 7.70886 24.0931 7.85665 24.0297 7.94526C23.9085 8.1156 23.788 8.14941 23.5875 8.15254C23.7849 8.17352 23.9819 8.19951 24.1781 8.22988C24.3133 8.25055 24.4485 8.27397 24.5831 8.29996L24.6503 8.31317C24.8143 8.34605 24.9973 8.36515 25.1382 8.46033C25.4455 8.66824 25.3012 9.07309 24.9608 9.1163C24.7962 9.13697 24.6135 9.06714 24.452 9.03458C24.2952 9.00295 24.1378 8.97509 23.9798 8.95067C23.8979 8.93783 23.8161 8.92656 23.734 8.91622C23.9011 8.94033 24.0669 8.97446 24.2284 9.02268L24.2732 9.03625C24.5854 9.13163 25.0068 9.28353 25.1041 9.61791C25.1632 9.82112 25.0017 9.99834 24.8062 10.0102C24.6244 10.0212 24.4729 9.91254 24.3186 9.83239C24.2062 9.77415 24.0919 9.73063 23.9707 9.69337C23.8455 9.65485 23.7177 9.62292 23.589 9.59693C23.6978 9.65699 23.8037 9.723 23.9054 9.79685L23.9521 9.83146C24.2223 10.0333 24.6343 10.3458 24.5391 10.7241C24.5092 10.8434 24.3764 10.9574 24.249 10.9452C23.9173 10.9142 23.7343 10.5601 23.4841 10.3703C23.4188 10.3208 23.3473 10.272 23.2723 10.2244C23.6515 10.6778 23.9532 11.2019 24.1828 11.7433C24.6873 12.9343 24.8421 14.0373 24.8458 15.3179L24.8458 15.3576C24.8465 16.0639 24.8305 16.7832 24.7618 17.4864C24.6981 18.1361 24.5813 18.7774 24.2874 19.3657C23.7949 20.3523 22.8351 21.1207 21.7766 21.4131C20.5988 21.7388 19.2823 21.4842 18.3176 20.7327C18.0714 20.5411 18.3978 20.125 18.6492 20.3019C19.6534 21.008 20.952 21.2315 22.1045 20.7537C23.0187 20.3749 23.7549 19.5598 24.0669 18.6214C24.2655 18.0244 24.3233 17.3879 24.3942 16.7657L24.3989 16.7243C24.4739 16.0736 24.5173 15.4186 24.5167 14.7636C24.5157 13.5471 24.3414 12.5458 23.8077 11.4424C23.5566 10.9226 23.2308 10.442 22.8416 10.0203C22.7236 10.0444 22.598 10.0105 22.4787 9.99771C22.4178 9.99113 22.3569 9.98487 22.296 9.97924C22.3582 10.0196 22.4192 10.0615 22.4792 10.1044L22.5579 10.1613C22.804 10.338 23.1164 10.5393 23.0531 10.881C23.0359 10.9734 22.9441 11.0582 22.8551 11.0792C22.5324 11.1562 22.3107 10.8419 22.0927 10.6552C21.9031 10.4931 21.7048 10.3478 21.5027 10.2022C21.4568 10.1693 21.4105 10.1364 21.364 10.1039C21.4077 10.155 21.4503 10.2069 21.4917 10.2592L21.5531 10.3372C21.7387 10.57 22.0062 10.8726 21.8409 11.1744C21.7941 11.2595 21.6941 11.3162 21.5973 11.3143C21.2644 11.3075 21.1319 10.9286 20.9758 10.6894C20.8415 10.4843 20.6956 10.2911 20.5448 10.0979C20.5032 10.045 20.4614 9.99207 20.4189 9.93916C19.7196 9.97548 19.0228 10.0682 18.3382 10.2163C17.8678 10.318 17.4052 10.4499 16.9461 10.5942L16.908 10.6064C16.6595 10.6866 16.4035 10.7892 16.2243 10.9652C16.1988 11.0865 16.2184 11.2144 16.2428 11.3355L16.2619 11.4282C16.3405 11.8159 16.394 12.1963 16.3539 12.5943C16.3124 13.0048 16.189 13.374 16.0385 13.7554C15.9673 13.9351 15.8936 13.9025 15.8683 14.0954C15.8489 14.2423 15.8609 14.394 15.8741 14.5421L15.8852 14.6677C15.9129 14.9967 15.9269 15.3554 15.7118 15.6268C15.6784 15.6685 15.6069 15.6519 15.5831 15.6102C15.5737 15.5936 15.5637 15.5777 15.5528 15.5623C15.4491 15.4117 15.2901 15.3259 15.1084 15.2927C15.0853 15.2887 15.0943 15.2577 15.1137 15.2552C15.2673 15.237 15.4129 15.2755 15.5366 15.355C15.4779 15.1517 15.0239 15.2506 14.8746 15.2901L14.8694 15.2915C14.6833 15.3416 14.5071 15.423 14.3519 15.5382C14.0396 15.7699 13.8591 16.1313 13.8681 16.5204C13.8772 16.9031 14.0743 17.2566 14.4128 17.4397C14.5762 17.528 14.762 17.5706 14.9469 17.5687C15.1399 17.5669 15.3117 17.482 15.505 17.4939C15.6168 17.5008 15.7024 17.621 15.6378 17.7259C15.5947 17.7961 15.5385 17.8512 15.4735 17.8934C15.6318 18.2595 15.8339 18.6086 16.0669 18.9308C16.1959 19.1096 16.3421 19.2746 16.5029 19.4252C16.6285 19.5429 16.9005 19.6791 16.8852 19.8754C16.8799 19.9462 16.8434 19.9894 16.779 20.0157C16.579 20.0977 16.3358 19.8154 16.202 19.6793L16.1912 19.6685C16.0244 19.5019 15.8723 19.3178 15.7399 19.1224C15.505 18.7755 15.3592 18.3844 15.2989 17.9736C14.9781 18.0704 14.5534 17.9796 14.2916 17.8609C13.469 17.4883 13.2 16.3777 13.7001 15.6381C13.7969 15.495 13.9181 15.3726 14.0561 15.2736C14.0258 15.257 13.9974 15.2358 13.9721 15.2088C13.8322 15.0598 13.7332 14.8653 13.635 14.6861L13.6233 14.6646C13.5361 14.5068 13.4538 14.3465 13.3768 14.1838L13.3481 14.1226C13.176 13.7516 13.0251 13.5894 12.9024 13.1993C12.7843 12.8229 12.6913 12.4394 12.631 12.0492L12.615 11.946C12.5801 11.7196 12.5471 11.4775 12.5726 11.2477C12.3974 11.305 12.2212 11.3403 12.0479 11.2542C11.9336 11.1976 11.8705 11.0322 11.9095 10.9136C11.9379 10.8262 11.9854 10.7576 12.0457 10.7038C12.0098 10.6856 11.976 10.6624 11.9464 10.6368L11.9204 10.6143C11.8155 10.5228 11.808 10.349 11.8717 10.2344C11.878 10.2235 11.8842 10.2122 11.8901 10.2012C11.9507 10.0926 12.076 10.0215 12.1997 10.0234C12.2196 10.0237 12.2396 10.0237 12.2599 10.0234C12.2022 10.0105 12.1456 9.99082 12.0919 9.95763C11.8495 9.80828 11.8801 9.40342 12.1734 9.33204C12.2965 9.30229 12.4323 9.3145 12.5679 9.34644C12.5629 9.34362 12.5579 9.3408 12.5529 9.33767C12.4505 9.27474 12.3646 9.15168 12.3742 9.0255C12.3849 8.88585 12.4298 8.78628 12.5529 8.71301C12.6597 8.64977 12.8109 8.64382 12.9171 8.71301C13.0092 8.77344 13.0995 8.84014 13.1863 8.91184C13.0992 8.80444 13.0236 8.68765 12.993 8.56366C12.9552 8.4093 13.0183 8.24115 13.1569 8.15975C13.2675 8.09493 13.3843 8.10213 13.4886 8.15223C13.483 8.07113 13.5027 7.98847 13.5564 7.91521C13.6664 7.76494 13.8662 7.67849 14.0402 7.78808C14.063 7.80249 14.0936 7.82722 14.1233 7.85759C14.0655 7.67317 14.1177 7.47967 14.3147 7.39638C14.435 7.34534 14.5977 7.37102 14.702 7.459C14.6358 7.09986 15.1646 6.83591 15.3701 7.20695C15.4167 7.291 15.4629 7.37951 15.5042 7.47005L15.5194 7.50409L15.521 7.50346L15.5105 7.47857L15.4997 7.45368C15.4426 7.32061 15.3698 7.18221 15.3498 7.03787C15.3204 6.82432 15.4154 6.62174 15.6471 6.59043C15.7668 6.57415 15.8998 6.62863 15.9801 6.72385C15.9367 6.39254 16.3058 6.15176 16.5716 6.39912C16.6975 6.51622 16.7647 6.68749 16.8446 6.83779C16.8899 6.92264 16.9361 7.00718 16.9814 7.09235C16.993 7.07857 17.0055 7.06479 17.0186 7.05133C16.9514 6.84969 16.8993 6.64303 16.8552 6.43513C16.8134 6.23912 16.9111 6.0356 17.1129 5.98021C17.2962 5.92945 17.5258 6.04283 17.5667 6.23852C17.5954 6.37626 17.6295 6.5125 17.667 6.64804C17.6926 6.64178 17.7179 6.6374 17.7429 6.63427C17.7449 6.6088 17.7473 6.58319 17.7499 6.55773L17.7598 6.46715C17.7816 6.2602 17.8036 6.02396 17.9115 5.84804C18.0955 5.54746 18.5671 5.67207 18.5721 6.02746C18.5749 6.21125 18.5003 6.39348 18.4743 6.5754C18.4631 6.65462 18.4565 6.73477 18.4528 6.81493C18.5031 6.54879 18.5721 6.28609 18.6521 6.02746C18.6614 5.99646 18.6714 5.96546 18.6811 5.93446ZM14.6121 16.1976C15.0259 16.1335 15.4041 16.3648 15.6493 16.6889C15.694 16.7481 15.6646 16.8317 15.6243 16.8815C15.5953 16.9181 15.5563 16.9225 15.5122 16.9281C15.4616 16.9347 15.3976 16.8937 15.3754 16.8495C15.2177 16.5339 14.9363 16.3345 14.6121 16.2117C14.6061 16.2095 14.6043 16.1989 14.6121 16.1976ZM15.1858 10.5427L15.1983 10.5292C15.282 10.4421 15.1497 10.3091 15.0658 10.3964C14.9774 10.4883 14.9187 10.5999 14.8622 10.713C14.8084 10.8208 14.97 10.916 15.024 10.8078L15.0487 10.7586C15.0873 10.6821 15.1284 10.6065 15.1858 10.5427ZM14.0236 10.364C14.1422 10.3439 14.0919 10.1629 13.9737 10.1829C13.8206 10.2087 13.6681 10.2381 13.515 10.264C13.3963 10.2841 13.4467 10.4651 13.5648 10.4452C13.7179 10.4193 13.8705 10.3899 14.0236 10.364ZM21.0937 9.12779C20.979 9.08944 20.9298 9.27082 21.0439 9.30896C21.2014 9.36166 21.3577 9.41567 21.5072 9.48884C21.6152 9.54169 21.7103 9.37972 21.6018 9.32662C21.4377 9.24631 21.2667 9.18566 21.0937 9.12779ZM13.9966 8.88432C13.8846 8.83942 13.836 9.02105 13.9468 9.06548L14.3515 9.22777C14.4635 9.27267 14.5121 9.09106 14.4014 9.04663L13.9966 8.88432ZM22.5071 8.44322L22.4923 8.43387C22.3908 8.36793 22.2968 8.5305 22.3977 8.5961C22.457 8.63459 22.529 8.66069 22.5833 8.70654L22.5946 8.71668C22.6823 8.79965 22.8151 8.66708 22.7272 8.58382C22.6629 8.52297 22.5815 8.48909 22.5071 8.44322Z" fill="black"/>
<path fill-rule="evenodd" clip-rule="evenodd" d="M19.5568 18.497C19.8072 17.996 22.1042 18.2212 22.1042 18.2212L22.2982 19.8136C22.2982 19.8136 21.1899 20.17 20.5302 20.0953C19.8705 20.0207 19.3063 18.998 19.5568 18.497Z" fill="white"/>
<path fill-rule="evenodd" clip-rule="evenodd" d="M19.7186 19.3336C19.6393 19.1638 21.2814 18.7007 21.7898 19.0172C22.2982 19.3336 22.1393 19.7653 22.1393 19.7653C22.1393 19.7653 20.0008 20.2532 19.7186 19.3336Z" fill="#FF8181"/>
<path fill-rule="evenodd" clip-rule="evenodd" d="M19.4144 18.2013C19.7977 17.7557 20.4432 17.7247 20.978 17.8361C21.3211 17.9076 21.6553 18.0267 22.0038 18.0709C22.1666 18.0915 22.3311 18.0977 22.4951 18.0946C22.6562 18.0917 22.8175 18.0592 22.978 18.0652C23.0026 18.0661 23.012 18.0985 22.9906 18.1117C22.7704 18.247 22.4738 18.2904 22.2137 18.3169C22.2145 18.3361 22.2157 18.3549 22.2183 18.3709C22.2254 18.4133 22.2319 18.4556 22.2371 18.4983C22.2489 18.5948 22.2621 18.691 22.2753 18.7872C22.3013 18.9767 22.3095 19.1722 22.3551 19.3584L22.3631 19.3893C22.3737 19.4285 22.3761 19.4638 22.3726 19.4956L22.3831 19.4908L22.4166 19.4746L22.4385 19.4643C22.5184 19.4272 22.5947 19.4002 22.6887 19.4092C22.7602 19.416 22.8203 19.4648 22.8207 19.5413C22.8225 19.8843 22.3604 19.9946 22.0961 20.0603L22.0186 20.0794C21.6821 20.1614 21.3386 20.2334 20.9926 20.2506C20.4373 20.2782 19.8133 20.125 19.45 19.6744C19.1111 19.254 19.0489 18.6261 19.4144 18.2013ZM21.9362 19.6425C21.8779 19.126 21.2435 19.0976 21.0611 19.4251C20.9801 18.9686 19.7821 19.3857 19.8758 19.4764C20.2308 19.8204 20.7696 19.8514 21.2328 19.7877C21.4687 19.7553 21.7048 19.7026 21.9362 19.6425ZM21.2322 18.2889L21.0727 18.2659L21.0099 18.2573C20.6145 18.2043 20.1698 18.1769 19.8447 18.4305C19.7261 18.5231 19.6593 18.6438 19.6343 18.7735C19.9419 18.7279 20.2506 18.6931 20.5603 18.6641L20.6447 18.6564C20.8385 18.6389 21.0321 18.6205 21.2257 18.6012L21.3632 18.5873L21.5007 18.573C21.5491 18.5679 21.8752 18.5512 21.9365 18.5624C21.9431 18.5073 21.9516 18.388 21.9655 18.3344C21.7338 18.3423 21.5031 18.3251 21.2728 18.2944L21.2322 18.2889ZM21.9663 15.9806C22.2027 16.1243 22.5628 16.4595 22.3085 16.8158C22.0093 17.1299 21.5783 16.7697 21.366 16.6068C21.1691 16.4805 20.9479 16.8053 21.1306 16.9527C22.665 18.0891 23.2876 16.0182 22.0859 15.8116C21.9535 15.7889 21.9044 15.9361 21.9663 15.9806ZM22.3893 16.5861L22.4006 16.5799L22.4045 16.5776C22.4111 16.5733 22.4069 16.5737 22.3918 16.579L22.3805 16.583V16.591C22.3834 16.5893 22.3865 16.5879 22.3893 16.5861ZM19.3623 15.3092L19.3623 15.3021C19.3627 15.1025 19.479 14.6466 19.7663 14.6466C19.9458 14.6466 20.0548 14.9569 20.0737 15.2767L20.0743 15.2897C20.0826 15.4886 20.0281 15.9232 19.7663 15.9232C19.5018 15.9232 19.3651 15.5115 19.3623 15.3092ZM23.5926 15.2466L23.5926 15.2395C23.5922 15.0399 23.4759 14.584 23.1886 14.584C23.0136 14.584 22.9056 14.8789 22.8828 15.1901L22.8812 15.2141C22.8699 15.4062 22.9209 15.8606 23.1886 15.8606C23.4531 15.8606 23.5898 15.4489 23.5926 15.2466ZM19.5263 13.2853C19.7608 13.2496 20.0713 13.3174 20.1806 13.5559C20.2293 13.6622 20.1716 13.7797 20.0488 13.7856C19.7521 13.7998 19.486 13.7337 19.2255 13.9267C19.1134 14.0098 19.0192 14.1249 18.9401 14.2396L18.9102 14.2833L18.8854 14.3193C18.8317 14.3983 18.7808 14.4841 18.7888 14.5794C18.7911 14.6076 18.7623 14.6343 18.7349 14.6332C18.5642 14.6262 18.5458 14.4121 18.5683 14.2835C18.61 14.0448 18.7255 13.8208 18.8855 13.6404C19.0536 13.4509 19.2755 13.3234 19.5263 13.2853ZM22.756 13.5749C22.9177 13.4709 23.1245 13.431 23.3139 13.4463C23.6874 13.4764 24.314 13.794 24.2315 14.2504C24.2061 14.3911 24.0104 14.4654 23.8951 14.3873C23.7711 14.3033 23.7409 14.1729 23.6487 14.0632C23.5751 13.9755 23.4818 13.9121 23.3818 13.8581C23.2834 13.8048 23.1694 13.7725 23.0577 13.7608L23.0391 13.759C22.9718 13.7533 22.6322 13.7548 22.682 13.8816C22.6918 13.9065 22.6549 13.9261 22.6379 13.9073C22.5338 13.7921 22.6517 13.642 22.756 13.5749Z" fill="black"/>
</svg>
