<svg width="39" height="48" viewBox="0 0 39 48" fill="none" xmlns="http://www.w3.org/2000/svg">
<path fill-rule="evenodd" clip-rule="evenodd" d="M36.4238 28.8804C36.7444 28.713 37.0574 28.5311 37.3655 28.3418C37.5825 28.2119 37.3904 27.8849 37.1679 28.0031C37.0541 28.0635 36.9408 28.1246 36.827 28.1846C36.9165 28.1075 36.9995 28.0235 37.0739 27.932L37.0688 27.9269C37.3556 27.6698 36.9872 27.1847 36.661 27.3959C36.3733 27.6045 36.083 27.8174 35.7528 27.9547C35.0689 28.2449 34.3145 28.2929 33.5804 28.3012C33.3118 28.2811 33.0552 28.3276 32.7945 28.3795C32.8967 27.9694 33.1524 27.6597 33.2881 27.2625C33.3882 26.8614 32.8095 26.5883 32.6045 26.9737C32.5541 27.0684 32.5061 27.1642 32.4592 27.2604C32.016 27.6637 31.2758 27.6282 30.8288 28.0612C30.5741 28.2873 30.4495 28.5941 30.4003 28.902C30.3669 29.1111 30.4188 29.3207 30.2925 29.5059C29.6815 30.3703 28.7162 31.7366 28.226 32.688C27.8789 30.4274 26.9521 27.6313 25.9946 25.5642C25.678 24.9032 25.3158 24.2572 24.8403 23.6969C24.8942 23.51 24.704 23.1783 24.583 23.2804C24.2106 22.8253 23.5524 22.7075 23.0231 22.4813C22.3087 22.1757 21.7159 21.5404 21.4245 20.8184C21.0501 19.4435 20.1285 19.2688 18.8503 19.3296C17.627 19.328 16.7219 19.8515 16.455 21.0972C15.9127 22.0427 14.6324 21.8864 13.7113 22.1367C13.0363 22.2909 12.3811 22.5295 11.7585 22.8323C11.0659 22.175 8.58534 24.9334 8.35986 25.6432C8.4926 25.669 8.62452 25.7 8.75526 25.7377C8.87169 25.7714 8.8228 25.9473 8.70537 25.9192C8.55923 25.8841 8.41216 25.8599 8.2644 25.8431C8.25989 25.8572 8.25595 25.8713 8.25301 25.8852C8.23642 25.8841 8.21986 25.8826 8.20327 25.8815C8.24005 25.9007 8.27545 25.9229 8.30994 25.9516C8.39332 26.0208 8.28477 26.1545 8.19617 26.0993C8.11269 26.0368 8.00337 26.0467 7.90324 26.0257C7.89729 26.2317 7.16261 26.0013 7.0485 25.933C6.5413 25.8695 6.01952 25.9376 5.54603 25.6929C4.91601 25.5602 4.28127 25.4134 3.65833 25.2444C3.49341 25.3087 3.33842 25.5389 3.46941 25.7077C3.54308 25.7846 3.44837 25.9101 3.3556 25.8555C3.04446 25.6722 2.80384 25.3863 2.59983 25.0782C2.5038 24.9812 2.33335 25.0021 2.20434 24.9619C2.18709 24.9929 2.17692 25.0274 2.17708 25.0629C1.62981 25.153 2.02021 25.7509 2.29532 25.9372C2.14938 26.0323 2.14384 26.2185 2.15661 26.3739C2.12568 26.4293 2.11535 26.4979 2.14227 26.56C2.24518 26.7972 2.46775 26.997 2.63698 27.1892C2.82384 27.4015 2.99044 27.6149 3.2178 27.787C4.0844 28.4479 5.13019 28.8173 6.20305 28.9618C6.58399 29.0204 7.13194 29.1099 7.36781 29.4322C7.30994 29.8146 7.20368 30.1814 7.10728 30.5543C6.97247 31.0493 6.98164 31.5676 6.97986 32.0722C6.96102 32.0571 6.92484 32.0602 6.91945 32.0891C6.88809 32.2983 6.86477 32.5122 6.73767 32.688C6.62625 33.0148 6.5521 33.3635 6.51044 33.7069C6.34355 35.3349 6.30371 37.011 6.67999 38.6136C6.82518 39.2082 7.06133 39.7733 7.38308 40.2936C7.47902 40.4488 7.63326 40.4942 7.77175 40.4637C8.23529 40.7046 8.81923 40.7819 9.31886 40.7207C11.0222 40.2383 10.4287 41.3999 12.8169 41.0442C16.9392 40.5188 21.1052 41.5512 25.2187 40.9451C25.32 41.7279 26.6463 41.5034 27.107 41.1724C28.4883 40.1451 29.1742 36.8926 29.8674 35.2427C30.344 33.9422 31.1419 31.6388 32.1869 30.7662C32.5002 30.521 32.879 30.392 33.2579 30.2878C34.6723 29.9232 36.092 29.5784 37.5091 29.2239C37.7494 29.1647 37.7062 28.7547 37.4492 28.781C37.1082 28.8159 36.766 28.8475 36.4238 28.8804Z" fill="#D08B5B"/>
<path fill-rule="evenodd" clip-rule="evenodd" d="M4.9389 28.6358C4.84312 28.624 4.74923 28.5898 4.65596 28.5629C4.51355 28.5213 4.37395 28.4727 4.23655 28.4173C3.95298 28.3037 3.67787 28.1693 3.41996 28.0049C3.00337 27.7391 2.6353 27.3984 2.35768 26.9883L2.33862 26.9597C2.18013 26.7181 1.88777 26.1819 2.21558 25.9985C2.0043 25.8219 1.80462 25.5047 1.81588 25.2599C1.83185 24.9136 2.25626 24.9183 2.47567 25.0651C2.61933 25.1612 2.727 25.2959 2.83498 25.4284C2.95454 25.5755 3.08224 25.7158 3.21495 25.8507C3.25016 25.8864 3.28572 25.9214 3.3219 25.9558L3.35829 25.99C3.35266 25.9766 3.34765 25.9628 3.34327 25.9487C3.27003 25.7205 3.35736 25.4233 3.58553 25.3188C3.72516 25.2547 3.87017 25.2938 4.00548 25.3482L4.02621 25.3566C4.20837 25.4321 4.39272 25.4988 4.5824 25.5523C5.35548 25.7706 6.16236 25.8069 6.95454 25.9159C7.2597 25.9581 7.5705 26.0113 7.8741 26.0896C7.9899 25.5977 8.27378 25.1262 8.58176 24.7383C10.0566 22.8824 12.4888 22.2691 14.7138 21.872C14.9167 21.836 15.0847 22.1047 15.2027 22.0411C15.4265 21.9209 15.6234 21.7505 15.7962 21.5655C16.1646 21.1706 16.4259 20.7063 16.7329 20.2664C16.8847 20.0491 17.234 20.2435 17.0932 20.4768L17.0242 20.5908C16.7401 21.0578 16.4255 21.539 16.0181 21.9011C15.8015 22.0934 15.5611 22.2452 15.2863 22.3401C15.0782 22.4118 14.7862 22.4723 14.5583 22.4027L14.531 22.3629C14.54 22.3762 14.5491 22.3895 14.5583 22.4027C15.153 23.2647 15.8991 23.9943 16.6854 24.6828C17.479 25.3774 18.3351 25.9994 19.1964 26.6076L19.2681 26.6582C20.6713 25.6344 21.8566 24.2989 22.6882 22.7732C22.5139 22.7522 22.3414 22.6404 22.1924 22.5571C22.0131 22.4563 21.8444 22.336 21.7129 22.1757C21.4265 21.8266 21.4638 21.3767 21.4121 20.953C21.409 20.9267 21.4437 20.9202 21.4597 20.9333C21.615 21.0623 21.6694 21.2737 21.7342 21.4562C21.8056 21.6569 21.8863 21.8223 22.05 21.9634C22.2024 22.095 22.3883 22.1917 22.5689 22.2778C22.6621 22.322 23.1244 22.4355 23.1771 22.5296C23.9758 22.342 24.7539 22.6661 25.3458 23.2128C25.9176 23.741 26.3373 24.4276 26.7079 25.1055C27.1032 25.8288 27.4272 26.5828 27.7063 27.3577C27.9893 28.1443 28.2062 28.948 28.3254 29.7759C28.4261 30.4739 28.4878 31.1828 28.5278 31.8886L28.5326 31.9768C29.1236 31.049 29.7292 30.131 30.3473 29.2211C30.2068 28.8456 30.3624 28.4624 30.6256 28.1724C30.9173 27.8515 31.3207 27.7025 31.7066 27.529L31.7574 27.506C31.9434 27.4212 32.1288 27.3277 32.2894 27.2005C32.4441 27.0778 32.5577 26.9087 32.7204 26.7957C32.957 26.631 33.3865 26.6661 33.3974 27.0258C33.403 27.2234 33.3182 27.4401 33.2406 27.6176C33.1527 27.8183 33.034 28.0002 32.8932 28.1674C32.8867 28.1752 32.8796 28.1814 32.8723 28.1862L32.8669 28.1897C33.0616 28.2219 33.2578 28.2479 33.4578 28.257C33.8613 28.2755 34.2691 28.2457 34.6641 28.1605C35.0685 28.0735 35.4603 27.932 35.824 27.7347C36.1348 27.5663 36.4228 27.3483 36.7758 27.297C36.8084 27.292 36.8412 27.2888 36.875 27.287C36.9314 27.2838 36.9877 27.3502 36.9655 27.4059C36.9533 27.4366 36.9405 27.467 36.9264 27.4977C36.8043 27.7666 36.6171 28.0276 36.3835 28.2256L36.3655 28.2407C36.4478 28.2122 36.5289 28.1803 36.6087 28.1443C37.0779 27.9329 37.5035 27.6135 38.0065 27.4852C38.0303 27.4789 38.0544 27.4733 38.0785 27.4679C38.234 27.4344 38.3161 27.6035 38.2247 27.7194C38.2099 27.7382 38.1952 27.7566 38.1799 27.7751C37.9555 28.0538 37.7079 28.3124 37.435 28.5447C37.3414 28.6243 37.245 28.7013 37.1467 28.7749C37.1053 28.8061 37.0637 28.8366 37.0216 28.8666L37.0009 28.8813C37.05 28.8466 37.0985 28.8112 37.1467 28.7749C37.4547 28.6816 37.7583 28.571 38.0553 28.4486C38.1733 28.4001 38.265 28.5197 38.2775 28.618C38.3195 28.9474 37.9539 29.1857 37.716 29.3441C37.4775 29.5032 37.2149 29.6241 36.9461 29.7211C36.4292 29.908 35.8862 29.9928 35.3441 30.0689L35.0808 30.1056C34.0387 30.2514 32.9502 30.4257 32.2024 31.2369C31.7833 31.6915 31.4998 32.2563 31.2403 32.8121C30.9811 33.3673 30.7536 33.9372 30.5376 34.5102C30.3138 35.1032 30.1189 35.7071 29.9117 36.3061C29.7214 36.8561 29.4941 37.3991 29.2689 37.9365L29.2334 38.0214C28.7555 39.1636 28.1846 40.2394 27.389 41.1932C27.2578 41.3507 27.0459 41.1271 27.1671 40.9712C27.9993 39.8978 28.5783 38.6313 29.0563 37.3679C29.2738 36.7931 29.4559 36.2044 29.665 35.6264L29.7894 35.283C29.9556 34.8253 30.1231 34.3681 30.2979 33.914C30.5192 33.3394 30.7624 32.7717 31.0406 32.2225L31.0701 32.1647C31.3425 31.6349 31.6662 31.1127 32.1117 30.7118C32.9134 29.9898 33.9804 29.8166 35.0119 29.6794L35.3365 29.6366C35.7726 29.5786 36.2099 29.5146 36.634 29.398C36.8788 29.331 37.1179 29.2452 37.3426 29.1268C37.4322 29.0798 37.5195 29.0282 37.604 28.9718C37.363 29.0426 37.1185 29.1005 36.8697 29.1459C36.748 29.1681 36.6275 29.1848 36.5073 29.1963C36.1977 29.227 35.8907 29.2257 35.5736 29.2092C35.5467 29.2076 35.538 29.1653 35.5668 29.16C35.7876 29.1207 36.0086 29.0716 36.2288 29.0183L36.2948 29.0022C36.296 28.9656 36.3104 28.9267 36.3405 28.8898C36.45 28.7564 36.6581 28.6881 36.8024 28.5939C36.9536 28.4953 37.1001 28.3888 37.2397 28.2748C37.3674 28.1706 37.4901 28.0603 37.6081 27.9451L37.6434 27.9104C37.6317 27.922 37.6199 27.9336 37.6081 27.9451C37.2894 28.0923 36.9874 28.2811 36.6547 28.3976C36.3902 28.4906 36.1129 28.5532 35.8331 28.5754L35.8157 28.5768L35.7984 28.5779C35.5063 28.5989 35.2124 28.5905 34.9248 28.6537C34.8926 28.6609 34.8826 28.6177 34.9114 28.6055C35.1627 28.5009 35.424 28.4605 35.6882 28.4117C35.6938 28.391 35.7082 28.3725 35.7333 28.3606L35.8008 28.3283C36.0021 28.2316 36.1897 28.134 36.357 27.9771C36.5048 27.8383 36.6278 27.6762 36.7201 27.4964C36.3505 27.5775 36.0259 27.8578 35.6898 28.0153C35.3236 28.1872 34.9361 28.3105 34.5379 28.3807L34.4926 28.3885C33.7486 28.5126 32.8539 28.4968 32.1874 28.1098C32.1661 28.0973 32.1815 28.0688 32.2034 28.0722C32.3924 28.1032 32.5796 28.1399 32.7667 28.1724C32.7301 28.1389 32.7138 28.0788 32.7561 28.0306C32.9242 27.8379 33.0571 27.6176 33.1421 27.3766L33.1584 27.3294C33.1975 27.2176 33.2636 27.044 33.1962 26.9432C33.1317 26.847 32.9799 26.8602 32.8891 26.9009C32.7004 26.9861 32.5749 27.1987 32.4159 27.327C32.2425 27.4673 32.0453 27.5713 31.8434 27.6643L31.8008 27.6836C31.4516 27.8408 31.0785 27.973 30.804 28.2504C30.6563 28.3994 30.5292 28.5857 30.4866 28.7946C30.4672 28.8904 30.4672 28.989 30.4929 29.0839C30.5132 29.1581 30.5558 29.2039 30.5314 29.2793C30.4995 29.3767 30.3865 29.4931 30.3282 29.5799C30.2606 29.6801 30.1933 29.7806 30.1261 29.8811C29.9918 30.0821 29.8581 30.2838 29.7245 30.4851C29.4572 30.8884 29.1927 31.2935 28.9304 31.7C28.8451 31.8323 28.76 31.9648 28.6752 32.0974L28.5483 32.2964L28.4812 32.4014L28.3667 32.5813C28.3708 32.598 28.3705 32.6155 28.3652 32.6308C28.3457 32.6864 28.3091 32.7244 28.2637 32.752L28.2556 32.7567C27.5877 33.8128 26.9304 34.8758 26.2666 35.9345C26.2312 36.2576 26.198 36.581 26.1692 36.9045C26.1038 37.6365 26.0591 38.3705 26.0447 39.1054C26.0378 39.4611 26.0663 39.8189 26.0816 40.1743C26.0891 40.3439 26.0994 40.5133 26.1128 40.6827L26.1227 40.8027C26.1359 40.9677 26.1434 41.1315 26.0841 41.2887C26.0315 41.4268 25.8713 41.4578 25.7764 41.3526C24.5392 41.3028 23.301 41.2649 22.0628 41.2414C19.8466 41.1988 17.6293 41.2054 15.4128 41.2483C14.2995 41.2699 13.1858 41.3003 12.0728 41.3378C11.5245 41.356 10.9758 41.3817 10.4272 41.3892C10.1315 41.3932 9.6663 41.2856 9.64245 40.9529L9.64186 40.9427C9.60493 40.9527 9.56675 40.9609 9.52762 40.9668C9.5102 40.9695 9.49348 40.9687 9.47802 40.9651L9.47035 40.9631C9.0297 41.0974 8.4723 40.9057 8.05359 40.794L8.01902 40.7849C7.61933 40.6806 7.29821 40.5316 7.03624 40.2003C6.57771 39.6201 6.42121 38.8411 6.33984 38.1231C6.26347 37.4474 6.25908 36.7592 6.35204 36.0848C6.29727 35.5353 6.35079 34.9682 6.41307 34.4218C6.44374 34.1516 6.47974 33.8817 6.52293 33.6131C6.54703 33.4631 6.57864 33.3147 6.61088 33.1666C6.62375 33.1074 6.63447 33.0437 6.65078 32.9821L6.65814 32.9558C6.60806 32.9624 6.55329 32.9515 6.50039 32.9224C6.37457 32.8532 6.33795 32.7132 6.33576 32.5792C6.32887 32.1753 6.37707 31.7598 6.41964 31.3584C6.46252 30.9576 6.52136 30.5552 6.59836 30.1594L6.61828 30.0574C6.67662 29.7613 6.74338 29.4557 6.86096 29.1775C6.41934 29.1024 5.97896 29.0226 5.55048 28.8866C5.3414 28.8199 5.13546 28.737 4.9389 28.6358ZM27.9893 32.8394C27.9824 32.8409 27.9758 32.8428 27.9692 32.8447C27.7927 32.8942 27.6143 32.9361 27.4365 32.9812C27.1292 33.0586 26.8287 33.145 26.543 33.2793C26.4831 34.0352 26.3944 34.7886 26.31 35.5423L26.2932 35.6931C26.4228 35.4526 26.5555 35.214 26.6941 34.9783C27.1164 34.2596 27.5483 33.5467 27.9893 32.8394ZM6.76581 32.9142C6.76675 33.0041 6.74797 33.0974 6.73795 33.1838C6.72168 33.3241 6.70853 33.465 6.69194 33.6052C6.65814 33.887 6.62935 34.1691 6.60838 34.4522C6.59492 34.6329 6.58615 34.8142 6.57833 34.9955C6.7558 34.332 6.99085 33.6829 7.21433 33.0329C7.17697 33.0289 7.13879 33.0198 7.0994 33.0093L7.03308 32.9915C6.99398 32.9814 6.86714 32.9502 6.76581 32.9142ZM28.5483 32.2964L28.5495 32.3262C28.5542 32.4317 28.491 32.4912 28.4143 32.5065C28.4588 32.4364 28.5035 32.3663 28.5483 32.2964ZM8.24155 27.2954C8.4284 27.312 8.6115 27.3518 8.78615 27.4207L8.803 27.4273C8.93218 27.4771 9.12105 27.5398 9.1633 27.6777C9.1752 27.7169 9.14327 27.7491 9.10665 27.7523C8.96643 27.7635 8.80117 27.6132 8.67128 27.5625C8.52668 27.5061 8.3752 27.4642 8.22183 27.4419C7.87723 27.3915 7.51792 27.4298 7.19366 27.5553C7.17457 27.5628 7.16268 27.5324 7.17989 27.5234C7.50665 27.3455 7.87003 27.2626 8.24155 27.2954ZM4.28193 28.1909C4.26033 28.1718 4.23873 28.1518 4.21745 28.1318C4.04964 27.9729 3.90104 27.7876 3.79101 27.5839L3.76206 27.5288C3.67244 27.3553 3.5624 27.108 3.773 26.9829C3.89882 26.9081 4.05031 26.9269 4.19053 26.9723C4.19961 26.9751 4.20868 26.9783 4.21776 26.9814C4.28036 27.0033 4.34076 27.0296 4.3946 27.0546C4.6284 27.162 4.83466 27.3183 5.05062 27.4561C5.28463 27.6054 5.51568 27.7009 5.78575 27.7568L5.81119 27.7619C6.06471 27.8121 6.33951 27.8443 6.51635 28.0528C6.5608 28.1055 6.52011 28.2041 6.44342 28.1781C5.95454 28.0131 5.43716 27.9767 4.98834 27.7059C4.80242 27.5938 4.62652 27.4651 4.43654 27.359C4.33576 27.3026 4.2317 27.2533 4.12081 27.2194L4.06023 27.2016C4.02475 27.1912 3.98239 27.181 3.95391 27.1912C3.89969 27.21 3.917 27.239 3.93377 27.2896L3.93544 27.2948C4.06721 27.7025 4.4428 28.0437 4.79084 28.2695C4.87065 28.3215 4.95234 28.3691 5.0356 28.4133C5.59915 28.7137 6.22972 28.8536 6.84904 29.0196C6.84904 29.0196 7.20713 29.1196 7.32575 29.1572C7.45783 29.1462 7.60838 29.1929 7.70791 29.2486C7.80462 29.3028 7.88256 29.3754 7.9414 29.4609C7.9414 29.4609 7.99805 29.5082 8.00838 29.5815C8.03811 29.6494 8.05814 29.7226 8.06816 29.7991C8.07379 29.8438 8.06253 29.8783 8.04124 29.9027C8.10526 30.8856 7.83986 31.863 7.54065 32.7972L7.511 32.8893L7.49195 32.9477C7.16926 33.9381 6.79899 34.9213 6.63373 35.9539C6.52325 36.6437 6.52669 37.3576 6.60775 38.0505L6.61347 38.0983C6.69334 38.7534 6.84702 39.4883 7.26346 40.0156C7.47588 40.2847 7.72754 40.4042 8.04929 40.4909L8.06691 40.4956C8.35799 40.5723 8.65846 40.681 8.95861 40.7138C9.23717 40.7442 9.47066 40.6406 9.72137 40.5435L9.72167 40.5432C10.2497 40.0757 10.4894 39.395 10.6666 38.708C11.1257 36.9302 11.0688 35.0847 10.8084 33.2809C10.6725 32.3384 10.4879 31.4041 10.3038 30.4701C10.2118 30.0032 10.1126 29.5373 10.0303 29.0689L9.9814 28.7932C9.95442 28.6401 9.92833 28.4868 9.90603 28.3328C9.87598 28.1258 9.8669 27.9223 9.85658 27.7141C9.60368 27.2948 9.23654 26.9494 8.81119 26.7018C8.50665 26.5242 8.18428 26.4012 7.85157 26.3119C6.90039 26.0555 5.86346 26.0737 4.90634 25.8764C4.5848 25.8102 4.27959 25.7119 3.97454 25.5942L3.93294 25.578C3.79304 25.5235 3.65031 25.4932 3.58083 25.6582C3.53138 25.7756 3.5608 25.8977 3.63498 25.9963C3.81682 26.238 4.18239 26.3501 4.45751 26.4372C4.62308 26.4898 4.7921 26.5314 4.96299 26.5624C5.13388 26.5934 5.3054 26.6013 5.46941 26.6617C5.53263 26.6849 5.54515 26.7854 5.46941 26.8032C5.26158 26.8517 5.0525 26.8101 4.84593 26.7697C4.61901 26.7249 4.39554 26.6614 4.17833 26.5809C4.13826 26.5661 4.0968 26.5505 4.05457 26.534L4.02277 26.5214C4.05563 26.5452 4.0885 26.5687 4.12167 26.5922C4.13044 26.5984 4.12512 26.615 4.11354 26.6109C3.6028 26.4203 3.13809 26.0764 2.77809 25.6695L2.76017 25.6491C2.63341 25.5038 2.34452 25.0642 2.10102 25.1866C1.87236 25.3014 2.26214 25.7441 2.41027 25.925L2.42747 25.9462C2.59586 25.9506 2.75893 26.0555 2.89539 26.14C3.13232 26.2869 3.3799 26.4134 3.63217 26.5317C4.13357 26.7675 4.66597 26.9338 5.16206 27.1814C5.16863 27.1849 5.16362 27.1933 5.15736 27.1924C4.84156 27.142 4.52919 27.0615 4.22403 26.9617L4.21041 26.9574L4.1968 26.9529C4.00619 26.8902 3.81808 26.8195 3.63311 26.744C3.42747 26.6601 3.22653 26.5659 3.03154 26.4591C2.85501 26.3627 2.65908 26.1889 2.45439 26.1632C2.43248 26.1604 2.41307 26.1601 2.39617 26.1617C2.16112 26.1814 2.35549 26.5709 2.42121 26.6874C2.52857 26.8787 2.65815 27.0553 2.80682 27.2165C3.10823 27.544 3.47348 27.8036 3.86879 28.0056C4.00369 28.0744 4.14172 28.1352 4.28193 28.1909Z" fill="black"/>
<path fill-rule="evenodd" clip-rule="evenodd" d="M19.289 7.47363C20.6874 7.47363 22.3651 8.15323 22.5078 8.16682L22.5116 8.16703C22.5867 8.16703 22.8799 8.391 23.3914 8.83895L22.8374 9.92213L22.8822 9.96505C23.0968 10.1712 23.2799 10.3592 23.4245 10.5073C24.6048 11.717 24.817 16.4666 24.5388 18.1229C24.2606 19.7793 23.7454 21.4 21.3468 21.4C18.9481 21.4 16.2796 19.9542 15.8685 19.5039C15.5945 19.2037 15.2866 19.0599 14.945 19.0725C14.931 19.0547 14.9171 19.037 14.9033 19.0193L14.853 19.0122C14.3802 18.9436 14.0415 18.8512 13.8367 18.7351C13.4369 18.5083 12.9974 17.3159 12.9974 17.0533C12.9974 16.7933 12.3411 14.9017 12.3279 14.7015L12.3277 14.696C12.3277 14.5286 11.4704 13.7594 11.4704 13.5151C11.4704 13.2708 11.2975 13.2856 11.4704 12.4248L11.5206 12.1719C11.7045 11.2553 12.0644 9.73763 13.4369 9.07815C14.945 8.35344 17.8766 7.47363 19.289 7.47363Z" fill="#D08B5B"/>
<path fill-rule="evenodd" clip-rule="evenodd" d="M22.8711 9.86522C22.5474 9.87694 22.1964 9.89233 21.8329 9.91255C21.072 9.95489 20.2649 10.0179 19.5428 10.1112C18.8056 10.2064 18.2124 10.3266 17.8488 10.4649C17.6378 10.5452 17.3823 10.7777 17.1195 11.2389C16.8654 11.6848 16.6586 12.2497 16.4965 12.8291C16.3359 13.4032 16.2273 13.9617 16.1588 14.3793C16.1247 14.5872 16.1009 14.7581 16.0857 14.8758C16.0782 14.9347 16.0728 14.9801 16.0693 15.0101L16.0656 15.0433L16.0648 15.0507L16.0647 15.0518L16.0647 15.052L16.0647 15.052L16.0647 15.0521L16.0219 15.4721L15.6411 15.6529C15.6412 15.6529 15.6412 15.6529 15.641 15.653L15.6408 15.6531L15.6405 15.6532L15.6404 15.6533L15.6402 15.6533L15.6383 15.6543L15.6229 15.6618C15.6083 15.6691 15.5853 15.6806 15.5551 15.6962C15.4947 15.7275 15.406 15.7749 15.2987 15.8366C15.0823 15.961 14.7981 16.1389 14.5182 16.3559L14.4886 16.379L14.4887 16.4338C14.4891 16.5295 14.4916 16.66 14.4994 16.8006C14.5074 16.9429 14.5203 17.0853 14.5397 17.208C14.5465 17.251 14.5536 17.2886 14.5608 17.3205C14.623 17.3461 14.7099 17.3727 14.8164 17.3968C14.94 17.4246 15.0632 17.443 15.1578 17.4545C15.2043 17.4601 15.2421 17.4638 15.2671 17.466L15.2942 17.4682L15.2985 17.4685L15.2987 17.4686L15.2989 17.4686L15.2993 17.4686L15.2994 17.4686L15.2997 17.4686L15.8202 17.5019L15.9694 18.0029L16.1642 18.6566L16.2051 18.7941L16.1924 18.9371L16.1226 19.723C16.0061 19.6406 15.9198 19.569 15.8685 19.5129C15.5945 19.2127 15.2866 19.0689 14.945 19.0815L14.9033 19.0284L14.853 19.0212C14.7937 19.0126 14.7365 19.0036 14.6814 18.9943L14.6856 18.9473L14.6708 18.8974C14.6117 18.8867 14.5498 18.8743 14.4867 18.8601C14.304 18.8189 14.0802 18.7556 13.8725 18.6553C13.7865 18.6137 13.676 18.5531 13.5664 18.4662C13.3302 18.1268 13.1185 17.593 13.035 17.275C13.0189 17.1395 13.0085 17.0053 13.0018 16.8841C12.9949 16.7608 12.9914 16.6456 12.9898 16.5485C12.9415 16.4476 12.9111 16.3275 12.9132 16.1869C12.9178 15.8827 13.0856 15.6638 13.1709 15.5631C13.2783 15.4362 13.4227 15.3071 13.5993 15.1703C13.9493 14.899 14.2951 14.6833 14.5511 14.5362C14.5761 14.5218 14.6003 14.508 14.6237 14.4949C14.6384 14.3913 14.6566 14.2707 14.6786 14.1365C14.7528 13.684 14.8721 13.0682 15.052 12.425C15.2304 11.7873 15.4768 11.092 15.8162 10.4964C16.1468 9.91606 16.625 9.32559 17.3154 9.06292C17.8533 8.85828 18.5941 8.72124 19.3507 8.62352C20.1226 8.52385 20.9694 8.45828 21.7496 8.41487C22.1237 8.39406 22.4844 8.37824 22.8166 8.36621C22.9604 8.47774 23.152 8.63833 23.3914 8.84797L22.8711 9.86522ZM14.4894 17.2846C14.4896 17.2845 14.4926 17.2862 14.4974 17.2901C14.4916 17.2866 14.4892 17.2847 14.4894 17.2846Z" fill="#9DDADB"/>
<path fill-rule="evenodd" clip-rule="evenodd" d="M13.2042 9.04419C13.9564 8.24382 18.2266 7.00584 20.387 7.26827L20.4518 7.27668C20.6242 7.2986 20.7941 7.33179 20.9618 7.37687C21.5038 7.50378 22.0637 7.69594 22.5116 8.01691C22.8854 8.27948 24.0649 8.70829 23.7173 9.39519C23.8462 9.64001 23.8943 9.94248 23.8072 10.1836C23.7962 10.2669 23.7706 10.3436 23.7378 10.4231C24.0132 10.8305 24.2312 11.2912 24.4077 11.7294C24.7162 12.8322 24.9081 13.9799 24.9362 15.1051C25.0297 17.2428 24.7959 19.7962 22.9387 21.1786C21.8168 22.0545 20.0594 22.0839 18.7986 20.9979C18.7271 20.913 18.3906 20.6839 18.5029 20.6437C18.5363 20.6791 18.5707 20.7135 18.6056 20.7474C18.604 20.7436 18.6037 20.7399 18.6044 20.7358L18.5715 20.7059C18.5095 20.6484 18.4293 20.5651 18.5207 20.5814C18.5247 20.5861 18.5291 20.5902 18.5335 20.5949C18.5528 20.6065 18.5674 20.6166 18.5788 20.6255L18.5847 20.6302L18.5829 20.6283C18.5302 20.572 18.4986 20.5146 18.5774 20.5513L18.5878 20.5564C18.6228 20.5933 18.6584 20.6287 18.6946 20.6631C18.694 20.6591 18.6946 20.655 18.6968 20.6506L18.6631 20.6179C18.6301 20.5855 18.6351 20.5854 18.6512 20.5592C18.5811 20.4607 18.712 20.5192 18.7212 20.5576C18.803 20.5382 18.8749 20.6923 18.9276 20.711C21.2388 22.4923 24.5928 20.9118 24.5385 15.9482L24.5377 15.8511C24.5218 14.2639 24.3886 12.6326 23.7337 11.1959C23.67 11.0575 23.5988 10.9229 23.5204 10.7926C23.4664 10.6949 23.4086 10.5997 23.3465 10.5071C23.1725 10.493 23.0007 10.461 22.8314 10.4116C22.7733 10.3968 22.7158 10.3806 22.6584 10.3615C21.8189 10.4074 20.998 10.4573 20.1562 10.5046L19.8932 10.5211C19.18 10.567 18.4425 10.6406 17.8669 11.0829C17.3023 11.4855 17.2997 12.2794 16.8163 12.7214C16.127 13.1904 16.122 13.6133 15.9892 14.3045C15.9991 14.8255 16.3594 15.5825 15.6981 15.8018C15.8097 15.9612 15.6542 15.8846 15.6419 15.8287C15.6407 15.829 15.6394 15.8293 15.6385 15.8293C15.7379 16.0146 15.5918 15.8979 15.5789 15.8384C15.571 15.8362 15.5632 15.8306 15.5554 15.8227C15.6556 15.9851 15.4937 15.8714 15.5033 15.8418C15.3097 15.5436 14.9114 15.4973 14.6306 15.5763C14.6272 15.587 14.6147 15.5879 14.6069 15.5823C13.4129 15.8417 13.721 18.3195 14.9445 18.08C14.9969 18.0693 14.9956 18.0945 15.006 18.0969C14.9778 18.0225 15.0575 18.0528 15.0566 18.0684L15.0615 18.0681C15.0653 18.0678 15.0637 18.0674 15.0666 18.0684C15.0393 17.9162 15.1931 18.1367 15.1809 18.1457C15.1856 18.1429 15.1909 18.1413 15.1956 18.1407L15.1903 18.1263C15.1648 18.0581 15.167 18.0864 15.1672 18.0474C15.148 17.9992 15.1466 18.0203 15.1511 17.9888C15.2185 17.9365 15.2384 18.0953 15.2609 18.1069C15.2223 18.053 15.253 18.009 15.2893 18.0383C15.5649 18.6194 15.9209 19.1653 16.3809 19.5954C16.4312 19.6352 16.4821 19.6743 16.5349 19.7113C16.7305 19.8821 17.0307 19.992 17.2139 20.1434C17.2139 20.1459 17.2126 20.149 17.2108 20.1521L17.215 20.1559L17.2192 20.16L17.2829 20.1907C17.3017 20.2066 17.3185 20.2245 17.3335 20.2442C17.3494 20.2627 17.3635 20.283 17.3754 20.3046C17.3813 20.3309 17.3682 20.3419 17.3432 20.3306C17.3322 20.3269 17.3213 20.3225 17.3104 20.3184C17.311 20.3193 17.3113 20.32 17.312 20.3206C17.3155 20.326 17.3398 20.3824 17.3119 20.3732L17.3085 20.3719C17.2932 20.3663 17.2779 20.36 17.2629 20.3541C17.2807 20.3763 17.2969 20.4004 17.3113 20.4208C17.3266 20.4368 17.336 20.4555 17.3398 20.4768C17.3391 20.4887 17.3326 20.4937 17.3207 20.4922C17.3026 20.4862 17.2848 20.48 17.267 20.4734L17.272 20.4831C17.2846 20.5079 17.3025 20.5496 17.2707 20.5357C17.2435 20.5272 17.2173 20.5175 17.1911 20.5069C17.1889 20.5113 17.1845 20.5128 17.1758 20.5088C17.0924 20.479 17.0118 20.4427 16.9347 20.3998C16.8669 20.3503 16.7985 20.3018 16.7304 20.2526C16.6664 20.2141 16.6045 20.1712 16.5455 20.123C16.1505 19.8673 15.8048 19.5424 15.5304 19.1806C15.0717 19.5789 14.1544 19.1983 13.587 18.8865C13.0851 18.6079 12.8878 18.0926 12.8368 17.5371C12.7308 16.7892 12.1211 16.5332 12.1635 14.8922C12.1626 14.8925 12.1616 14.8925 12.1604 14.8925C12.1382 14.8859 12.1167 14.8772 12.0964 14.8659C12.0755 14.8559 12.0558 14.844 12.0373 14.8296L12.0145 14.7979C12.0027 14.7914 11.9921 14.7845 11.984 14.7776L11.9797 14.783C11.9664 14.7992 11.9754 14.7749 11.9761 14.7701L11.9365 14.7161C11.8426 14.5875 11.7396 14.4433 11.6557 14.328L11.653 14.3326C11.6511 14.3362 11.6501 14.3387 11.651 14.3399C11.4513 14.0522 11.2634 13.7047 11.2112 13.3683C11.1496 13.1091 11.1737 12.8421 11.2275 12.6021C11.4579 11.7615 12.2129 9.85944 13.2042 9.04419ZM18.6246 20.6686L18.6121 20.6574L18.6231 20.6712C18.6288 20.6783 18.6347 20.6848 18.6444 20.6913C18.6437 20.6891 18.6437 20.6869 18.644 20.6844C18.6376 20.6795 18.6311 20.6742 18.6246 20.6686ZM20.3774 7.69061C18.9124 7.56433 17.4714 7.8879 16.0733 8.27958L15.9769 8.30736C15.1819 8.53476 14.3414 8.73939 13.6696 9.22611C12.731 9.9468 12.2463 11.0933 11.8234 12.1518C11.4541 12.9383 11.6429 13.8251 12.1994 14.3743C12.2573 13.8286 12.3561 13.2988 12.5103 12.7733C12.5426 12.6912 12.5182 12.6643 12.5876 12.6536C12.6924 14.0698 12.1762 15.1161 13.1978 16.7944C13.6411 17.5863 13.1279 18.1658 14.3797 18.5825L14.4136 18.5955C14.6744 18.6941 14.9592 18.772 15.2146 18.7168L15.1918 18.6795C15.1684 18.6411 15.1613 18.6224 15.1953 18.606C15.1944 18.6041 15.1931 18.6022 15.1918 18.6C15.1644 18.5481 15.1378 18.4955 15.1125 18.4422C15.1022 18.4457 15.0919 18.4482 15.0813 18.451C15.0882 18.4638 15.0891 18.4767 15.0698 18.4811C15.0009 18.5047 14.9303 18.5142 14.8579 18.5098L14.8424 18.5086C14.7606 18.5036 14.7091 18.4887 14.6631 18.4748C14.6478 18.4723 14.6325 18.4698 14.6175 18.4667C14.4693 18.4337 14.3124 18.3499 14.2109 18.2669C13.0534 17.6079 13.173 15.3644 14.5997 15.1524C14.629 13.7399 15.2991 11.3568 16.4113 10.0109C17.4167 8.77279 20.1612 8.23618 22.0707 8.42539C22.0985 8.43463 22.1263 8.44396 22.1542 8.45338C22.4487 8.47962 22.7295 8.61119 23.0243 8.67231C22.8126 8.51328 22.5725 8.40736 22.3252 8.31734C21.8324 8.01515 21.2675 7.85165 20.7217 7.73633C20.6086 7.70846 20.494 7.69312 20.3774 7.69061ZM14.5344 16.2871C14.6111 16.2453 14.6023 16.2856 14.62 16.2739C15.1717 16.2288 15.7667 16.7131 16.0751 17.1168C16.0508 17.1422 15.9849 17.067 15.9733 17.0552C15.9717 17.0567 15.9699 17.058 15.968 17.0586L15.9766 17.0707C16.1016 17.2506 15.8538 17.039 15.8306 16.9953C15.8265 16.9975 15.8224 16.9988 15.8178 16.9979C15.8374 17.0172 15.8974 17.0675 15.9077 17.1034L15.9236 17.1166C16.0736 17.2454 16.0612 17.3423 15.8909 17.1594C15.8949 17.1679 15.8965 17.1757 15.8937 17.182L15.8995 17.1859C15.9833 17.2445 16.0521 17.4081 15.8771 17.2402C15.8953 17.3628 15.7037 17.1258 15.6975 17.1275C15.3659 16.8665 14.8776 16.6127 14.4616 16.5786L14.4473 16.5769C14.371 16.5671 14.3349 16.5444 14.3617 16.4944C14.2677 16.4719 14.2897 16.4255 14.3342 16.427C14.2679 16.3833 14.3276 16.3415 14.3661 16.3579C14.3396 16.2844 14.4457 16.3333 14.4554 16.3231C14.5104 16.238 14.5253 16.309 14.5344 16.2871ZM13.3779 11.736C13.6429 11.6387 14.4257 11.93 14.363 12.3158C14.3257 12.4044 14.2029 12.4552 14.1165 12.4052L14.0038 12.3293C13.8076 12.1976 13.6307 12.0821 13.4201 11.9672C13.3055 11.9102 13.2562 11.7892 13.3779 11.736ZM14.8856 11.1627L14.7833 11.0959C14.231 10.7335 13.4502 10.1844 14.8349 10.7525C14.9927 10.8204 15.2024 10.8605 15.2885 11.0112C15.4238 11.2889 15.0678 11.3075 14.8856 11.1627ZM14.9477 9.53671C14.9034 9.3681 15.4548 9.56595 15.6154 9.61812L15.6398 9.62738C15.796 9.68571 15.975 9.73983 16.0684 9.87493C16.1779 10.0616 15.9564 10.1003 15.8191 10.016C15.5378 9.83166 15.2294 9.69261 14.9477 9.53671ZM16.35 8.75127C16.0396 8.41144 16.8704 8.73699 16.9948 8.82735L16.9984 8.83002C17.0912 8.89555 17.0724 9.0367 16.9852 9.07816C16.737 9.08289 16.5543 8.87548 16.35 8.75127ZM17.7626 8.37894C17.2691 8.02341 17.9192 8.19252 18.1449 8.33185C18.2988 8.4679 18.1403 8.69757 17.7626 8.37894Z" fill="black"/>
<path fill-rule="evenodd" clip-rule="evenodd" d="M22.537 18.6339C22.7348 18.5877 22.8902 18.7553 22.8513 18.9483C22.8101 19.1526 22.5906 19.2226 22.4065 19.2162C22.1977 19.2089 21.9892 19.1658 21.7794 19.1571C21.5639 19.1483 21.3476 19.1466 21.132 19.1524C20.9325 19.1578 20.7278 19.193 20.53 19.1614C20.4529 19.1491 20.4602 19.0474 20.5103 19.0112C20.6592 18.9038 20.8521 18.86 21.0276 18.815C21.2065 18.769 21.3894 18.7338 21.5728 18.7123C21.7589 18.6906 21.9464 18.6797 22.1336 18.6776C22.2189 18.6766 22.3234 18.6956 22.4065 18.6802C22.4488 18.6724 22.4919 18.6444 22.537 18.6339ZM21.9659 15.9804C22.2023 16.1242 22.5624 16.4593 22.3081 16.8156C22.0089 17.1297 21.578 16.7695 21.3656 16.6066C21.1687 16.4804 20.9475 16.8051 21.1302 16.9525C22.6646 18.089 23.2873 16.018 22.0855 15.8115C21.9532 15.7887 21.904 15.936 21.9659 15.9804ZM20.2522 14.9072C20.5683 14.8546 20.6236 15.3055 20.3103 15.337C20.2445 15.3436 20.1791 15.3494 20.1139 15.3551C20.1202 15.3755 20.1245 15.3965 20.1268 15.4181C20.1297 15.4365 20.132 15.456 20.1339 15.4782C20.1439 15.5892 20.0652 15.7045 19.9734 15.7583C19.8779 15.8142 19.7409 15.8216 19.6461 15.7583C19.5972 15.7256 19.5484 15.6888 19.5214 15.6347C19.4853 15.5792 19.4656 15.5149 19.4636 15.449C19.3194 15.4865 19.1727 15.5371 19.0271 15.5639C19.0324 15.5692 19.0377 15.5748 19.0428 15.581C19.0467 15.5857 19.0414 15.5945 19.0357 15.5902L18.9627 15.574C18.9402 15.5769 18.9177 15.5794 18.8953 15.5808L18.8959 15.5788C18.8584 15.5781 18.8277 15.5338 18.8612 15.4984C18.9898 15.3624 19.1905 15.272 19.3735 15.1964L19.5498 15.1241C19.7752 15.0325 20.0131 14.947 20.2522 14.9072ZM22.7955 15.0467C23.0026 15.0231 23.2076 15.0325 23.415 15.0451C23.7641 15.0664 23.6177 15.5756 23.3375 15.458C23.3404 15.4767 23.3412 15.4953 23.339 15.5127C23.328 15.6022 23.2989 15.6779 23.2167 15.726C23.1405 15.7706 23.0438 15.7705 22.9675 15.726C22.8858 15.6783 22.849 15.6112 22.8281 15.5239C22.812 15.4562 22.8185 15.3996 22.8278 15.3326C22.8309 15.3104 22.8406 15.2897 22.854 15.2711C22.8344 15.2662 22.8149 15.2615 22.7953 15.2571C22.6211 15.2175 22.4492 15.2254 22.2755 15.2003C22.257 15.1976 22.254 15.1677 22.2702 15.1601C22.4263 15.0867 22.6247 15.0662 22.7955 15.0467ZM20.2202 13.4739C20.3397 13.4283 20.4898 13.5042 20.5508 13.6085C20.6201 13.727 20.5905 13.8637 20.5051 13.9634C20.374 14.1165 20.1244 14.2108 19.9404 14.2982L19.9256 14.3052C19.7367 14.3964 19.5426 14.4801 19.3459 14.5531C19.1524 14.6249 18.9512 14.6811 18.7506 14.7294C18.6449 14.7549 18.5369 14.7759 18.4288 14.7892C18.3435 14.7996 18.2777 14.7762 18.196 14.7762C18.1841 14.7763 18.1804 14.7604 18.1901 14.7544C18.2664 14.7064 18.323 14.6432 18.4062 14.5988C18.4929 14.5526 18.5798 14.5071 18.6671 14.4621C18.8435 14.3711 19.0134 14.2698 19.1836 14.1679C19.363 14.0605 19.5383 13.9474 19.7088 13.8262C19.8757 13.7077 20.0295 13.5467 20.2202 13.4739ZM22.3497 13.3765C22.499 13.3475 22.6467 13.4182 22.6909 13.5703C22.7333 13.7161 22.689 13.7473 22.8019 13.8516C22.892 13.9347 22.989 14.0089 23.087 14.082L23.2312 14.1892C23.4924 14.3826 23.7558 14.5655 24.0561 14.696C24.0815 14.7071 24.0668 14.7448 24.0428 14.7453C23.5653 14.7545 23.1075 14.6898 22.6766 14.476C22.4753 14.3761 22.273 14.2498 22.1564 14.0504C22.0212 13.8195 22.0252 13.4394 22.3497 13.3765Z" fill="black"/>
</svg>
