<svg width="36" height="48" viewBox="0 0 36 48" fill="none" xmlns="http://www.w3.org/2000/svg">
<path fill-rule="evenodd" clip-rule="evenodd" d="M27.6224 27.1414C27.1879 25.0823 25.6471 23.4845 23.5749 22.6886C23.1766 22.4632 22.7904 21.4961 22.2551 21.319C22.1693 21.2906 22.3047 21.5166 22.2551 21.53C22.0781 21.5782 21.8797 21.5832 21.6842 21.4094C21.3349 21.0988 21.2253 20.1913 21.0129 19.7811C19.8927 17.618 17.0957 18.4643 16.721 20.8557C16.4597 21.026 16.0904 21.1761 15.806 21.3134C15.5131 21.4547 15.2555 21.7971 14.9537 21.9195C14.6844 22.0288 14.2407 21.9514 13.9694 22.0466C12.7214 22.4846 11.6644 23.0372 10.8357 24.1569C10.661 24.393 10.4642 24.6833 10.3053 24.9219C9.48607 25.8653 8.91706 26.9228 8.39299 28.0573C6.92676 31.3872 6.52795 35.0742 6.17014 38.6621C6.17828 39.2898 5.76188 41.0305 6.37775 41.3315C6.34094 41.3697 6.35427 41.4463 6.42257 41.4457C7.98416 41.4299 9.54213 41.5697 11.0795 41.8415C11.8213 41.9727 12.559 42.1525 13.3146 42.1821C14.883 42.1713 16.4458 41.9083 18.0121 42.1571C19.8952 42.1571 22.1836 42.1022 24.2784 42.0217C26.2362 41.9464 28.2046 42.1164 30.1381 41.7834C30.2912 41.7591 30.3659 41.5724 30.3338 41.4386C30.107 40.6117 29.9956 39.7606 29.8683 38.9142C29.8937 38.3713 29.8483 37.8046 29.6476 37.2989C29.1231 33.8855 28.4505 30.4942 27.6224 27.1414Z" fill="#D08B5B"/>
<path fill-rule="evenodd" clip-rule="evenodd" d="M22.2551 21.5426C22.3047 21.5291 22.1693 21.3032 22.2551 21.3316C22.7904 21.5087 23.1766 22.4757 23.5749 22.7011C25.6471 23.4971 27.1879 25.0949 27.6224 27.154C28.4505 30.5068 29.1231 33.898 29.6476 37.3115C29.8483 37.8171 29.8937 38.3839 29.8683 38.9267L29.8883 39.0604C30.0077 39.8626 30.1189 40.6677 30.3338 41.4511C30.3659 41.585 30.2912 41.7717 30.1381 41.7959C28.2265 42.1252 26.281 41.9628 24.3452 42.0318L23.9417 42.0469C21.9406 42.1205 19.7947 42.1697 18.0121 42.1697C16.4458 41.9209 14.883 42.1838 13.3146 42.1947C12.559 42.1651 11.8213 41.9852 11.0795 41.8541C9.54213 41.5823 7.98416 41.4425 6.42257 41.4583C6.35427 41.4589 6.34094 41.3822 6.37775 41.3441C5.76188 41.0431 6.17828 39.3024 6.17014 38.6746L6.20248 38.3515C6.55284 34.8659 6.97075 31.2999 8.39299 28.0698L8.43559 27.978C8.948 26.8782 9.50821 25.8524 10.3053 24.9344L10.354 24.8614C10.5033 24.6384 10.6785 24.382 10.8357 24.1694C11.6644 23.0498 12.7214 22.4971 13.9694 22.0592C14.2407 21.964 14.6844 22.0413 14.9537 21.9321C15.236 21.8176 15.4796 21.5107 15.7496 21.3558L15.7496 22.5112L19.6557 26.3605L21.8711 22.9621L22.0965 21.5703C22.1507 21.5669 22.2038 21.5566 22.2551 21.5426Z" fill="#8FA7DF"/>
<path fill-rule="evenodd" clip-rule="evenodd" d="M26.9909 31.6278C26.9496 31.8285 26.8917 32.0292 26.8147 32.2193C26.7405 32.4028 26.6288 32.5671 26.5518 32.7484C26.5415 32.7729 26.5246 32.7913 26.5042 32.8054L26.5106 32.8547L26.5164 32.904C26.5548 33.2368 26.598 33.5687 26.6354 33.9015L26.6535 34.0679C26.7271 34.7627 26.8432 35.454 26.9333 36.1469C27.0216 36.8255 27.1114 37.504 27.2075 38.1815C27.3067 38.8801 27.4078 39.5777 27.5258 40.2734C27.5756 40.5673 27.6276 40.8609 27.6818 41.1542L27.7236 41.3787C28.1543 41.4824 28.272 42.0829 27.8335 42.3046C27.6344 42.4048 27.3787 42.3807 27.2147 42.2232C27.0442 42.0591 27.0371 41.7632 26.9976 41.5409L26.9595 41.3343C26.6743 39.7812 26.4268 38.2102 26.3111 36.6351C26.2814 36.2284 26.2563 35.8213 26.24 35.4139C26.2246 35.0308 26.232 34.6476 26.226 34.2644L26.2241 34.1599C26.215 33.7513 26.2225 33.3433 26.2332 32.9347C26.2344 32.8849 26.2366 32.8352 26.2391 32.7851C26.2247 32.7682 26.2144 32.7481 26.21 32.7287L26.2044 32.703C26.1903 32.637 26.2062 32.5596 26.257 32.5123C26.2789 32.234 26.3076 31.9559 26.3155 31.6779C26.3161 31.655 26.349 31.6557 26.3509 31.6779C26.3693 31.9146 26.4062 32.152 26.4432 32.389C26.6807 32.198 26.8563 31.883 26.9599 31.6194C26.9674 31.6003 26.9953 31.6071 26.9909 31.6278ZM21.3702 20.5618C21.4097 20.7422 21.4876 20.9041 21.5921 21.0547C21.6419 21.1267 21.6986 21.1937 21.7665 21.2497C21.8247 21.2976 21.8911 21.3289 21.953 21.3706C22.0432 21.3565 22.1374 21.3906 22.2006 21.457L22.1906 21.36C22.1875 21.3286 22.2394 21.3224 22.2454 21.3527C22.5192 22.7342 22.7689 24.1166 22.9851 25.5081L23.0799 26.1226L23.169 26.6995C23.3171 27.6608 23.4602 28.6217 23.5681 29.5901C23.7117 30.8823 23.8325 32.178 23.9208 33.4755C24.0094 34.7821 24.0639 36.0896 24.1027 37.3988C24.1123 37.7288 24.1227 38.0585 24.1327 38.3885L24.1995 37.9939C24.2663 37.5993 24.3317 37.2043 24.3878 36.8079C24.589 35.3892 24.7499 33.9605 24.8285 32.5296C24.9005 31.2201 24.8764 29.8847 24.5434 28.6091C24.4594 28.2881 24.3568 27.9722 24.2329 27.6644C24.1126 27.3651 23.9487 27.0877 23.8194 26.7927C23.6691 26.4496 23.6241 26.1258 23.7014 25.7564C23.769 25.4345 23.8876 25.1317 23.9089 24.8004C23.9487 24.1855 23.7486 23.5899 23.466 23.0517C23.3915 22.9099 23.313 22.7699 23.231 22.6312C22.9828 22.2119 22.7029 21.808 22.4125 21.4207C22.3969 21.4 22.43 21.3772 22.447 21.3941C22.7117 21.6558 23.0012 21.9132 23.2394 22.1991C23.3552 22.3381 23.4682 22.4799 23.5752 22.6255C24.7496 22.8219 25.7587 23.5536 26.4485 24.5199C27.2313 25.6164 27.6272 26.9362 27.9202 28.2358C28.246 29.6803 28.5208 31.1378 28.8135 32.5894C29.1164 34.0914 29.4178 35.5934 29.7227 37.0951C29.8741 37.8405 30.0257 38.5861 30.1768 39.3319C30.2535 39.7095 30.334 40.0862 30.4181 40.4626C30.4613 40.6555 30.5077 40.848 30.5477 41.0415C30.5928 41.2598 30.5508 41.3994 30.4031 41.5597C30.3486 41.6192 30.2626 41.6183 30.195 41.5866L30.1738 41.5767L30.1534 41.5668C30.0697 41.5257 30.0042 41.4831 29.9521 41.3915C29.8948 41.2911 29.8857 41.1796 29.866 41.0678C29.8297 40.8621 29.7937 40.6564 29.7574 40.4504C29.7032 40.1423 29.6442 39.835 29.5842 39.5279L29.2829 37.9929C29.2026 37.5837 29.1222 37.1744 29.0413 36.7654C28.7524 35.3025 28.4632 33.84 28.174 32.3774C27.8964 30.9731 27.6507 29.5591 27.3346 28.1629L27.3166 28.0842L27.2983 28.0057C27.0157 26.8021 26.6208 25.6378 25.9042 24.6179C25.3527 23.8335 24.5869 23.1331 23.6848 22.7786C23.7484 22.8701 23.8094 22.9634 23.8676 23.0586C24.2332 23.656 24.5001 24.3652 24.4375 25.0766C24.4069 25.4241 24.2748 25.7657 24.2873 26.1161C24.2989 26.4273 24.4914 26.7007 24.6244 26.9715C24.9264 27.5852 25.1449 28.2374 25.2858 28.9065C25.5684 30.2501 25.5674 31.6325 25.4701 32.9964C25.3643 34.479 25.1634 35.9613 24.9346 37.4294C24.8172 38.1825 24.661 38.9293 24.5414 39.681C24.4823 40.0517 24.4018 40.4216 24.3314 40.7904L24.2979 40.9666C24.2791 41.0644 24.2596 41.1619 24.2371 41.2583L24.2232 41.3161V41.3264C24.2225 41.3975 24.2031 41.4564 24.1718 41.5034C24.129 41.6408 24.0757 41.7748 24.005 41.9035C23.9687 41.9693 23.9161 42.0062 23.8588 42.0197C23.8012 42.1515 23.6707 42.2529 23.5149 42.2523L21.4651 42.2445C20.2745 42.2398 19.0839 42.2319 17.8932 42.2254C17.5928 42.2238 17.2926 42.2182 16.9925 42.2104C16.7111 42.2025 16.4413 42.1687 16.1631 42.1336C15.8488 42.0942 15.6786 41.8716 15.7255 41.5575C15.7358 41.4883 15.7471 41.4194 15.7577 41.3506C15.6952 41.3712 15.6207 41.3615 15.5703 41.3124L15.523 41.2661C15.4575 41.2013 15.399 41.1377 15.3574 41.0512C15.3146 40.9623 15.2798 40.8684 15.2419 40.7776C15.1602 40.5822 15.0808 40.3862 15.0034 40.1892C14.8485 39.7953 14.6936 39.3999 14.5496 39.0019C14.2645 38.2138 14.0122 37.4138 13.7928 36.6047C13.4016 35.1613 13.1186 33.69 12.9402 32.2055L12.8975 31.8517L12.8851 31.7472C12.8175 31.1718 12.7605 30.5875 12.7875 30.0134C12.8041 29.6539 12.8598 29.2917 12.9941 28.956C13.118 28.6464 13.3092 28.3815 13.4911 28.1047L13.5119 28.0727L13.5328 28.04C13.6918 27.7886 13.8184 27.5258 13.8247 27.2205C13.8311 26.9106 13.7409 26.6091 13.64 26.319L13.6149 26.2475L13.598 26.2002C13.3834 25.6007 13.1391 25.0097 13.2197 24.3574C13.3387 23.3967 13.9208 22.6224 14.6532 22.0253C14.0018 22.1543 13.3571 22.4092 12.7881 22.7323C12.1161 23.1143 11.5111 23.6184 10.9893 24.1873C10.0034 25.2625 9.2995 26.5526 8.72332 27.8846C8.12016 29.2785 7.6729 30.7392 7.33584 32.219C6.99687 33.7072 6.76996 35.2192 6.61499 36.7372C6.53772 37.4927 6.47697 38.2501 6.42661 39.0079C6.40094 39.3961 6.38154 39.785 6.35149 40.1726C6.32144 40.56 6.30795 40.9532 6.21343 41.3302C6.1693 41.5059 5.87165 41.5237 5.83975 41.3302C5.76897 40.8981 5.78875 40.4512 5.80851 40.0136L5.8103 39.9738C5.82974 39.538 5.85509 39.1024 5.8851 38.6669C5.94648 37.7767 6.02845 36.8878 6.1355 36.0017C6.51077 32.8912 7.20282 29.7971 8.56025 26.9578C9.19938 25.6205 10.0197 24.321 11.1609 23.3554C11.7042 22.896 12.3167 22.5294 12.9768 22.2639C13.5671 22.0263 14.1668 21.9138 14.7941 21.9142C15.1086 21.6731 15.4463 21.463 15.7837 21.2835C15.804 21.2726 15.8253 21.2989 15.8085 21.3158C15.7997 21.3243 15.7912 21.333 15.7825 21.3412C15.8207 21.3437 15.8601 21.3615 15.8954 21.3988C16.0194 21.5287 16.1239 21.6912 16.2175 21.86C16.3599 22.0378 16.4957 22.2216 16.6379 22.3976C16.8654 22.6794 17.0982 22.9571 17.334 23.2326C17.7298 23.6957 18.1386 24.15 18.5648 24.586L18.636 24.6585C18.8569 24.8825 19.0808 25.1504 19.3421 25.3277L19.356 25.337C19.4663 25.4088 19.5445 25.4219 19.6385 25.3145C19.7239 25.2169 19.7951 25.1035 19.8682 24.9958L19.8851 24.9711C20.2585 24.4284 20.6047 23.8658 20.918 23.2865C21.0608 23.0229 21.1967 22.7555 21.3255 22.4851L21.364 22.4039C21.4341 22.2548 21.5102 22.1086 21.568 21.9551C21.5815 21.9192 21.5946 21.8832 21.6075 21.8475C21.4103 21.7182 21.2576 21.4382 21.2022 21.2191C21.1446 20.9914 21.1737 20.7578 21.2763 20.5496C21.2957 20.5105 21.3608 20.5202 21.3702 20.5618ZM11.6429 29.8121C11.6156 30.6775 11.5991 31.5439 11.5583 32.4087L11.5443 32.704C11.6078 32.7748 11.645 32.8564 11.6153 32.9686C11.6038 33.0115 11.5696 33.0503 11.527 33.0647L11.5138 33.3392C11.4534 34.5743 11.3826 35.8068 11.2532 37.0387C11.0914 38.5805 10.9042 40.1197 10.7174 41.6587C10.6908 41.8766 10.5393 42.0494 10.3036 42.0175C10.0651 41.9852 9.96839 41.7776 9.99969 41.5613C10.1227 40.7124 10.241 39.8629 10.3446 39.0113L10.4626 38.041C10.6106 36.8281 10.762 35.6154 10.9365 34.4063C11.0094 33.901 11.0851 33.396 11.1612 32.8909L11.1346 32.8564C11.026 32.7153 10.9136 32.5772 10.8025 32.4382C10.5891 32.1701 10.3784 31.9043 10.1828 31.6237C10.1731 31.6096 10.1928 31.589 10.2069 31.5996C10.481 31.8022 10.7405 32.0189 11.0016 32.239L11.2301 32.4325C11.3615 31.5598 11.4917 30.6869 11.6078 29.8121C11.6106 29.7902 11.6435 29.7886 11.6429 29.8121ZM15.5869 21.5297C15.4219 21.6852 15.2532 21.8374 15.087 21.9921L15.0261 22.049L14.9655 22.1062C14.6734 22.3834 14.3935 22.6719 14.1603 23.0032C13.7321 23.6115 13.477 24.3533 13.6551 25.096C13.8028 25.7112 14.1418 26.2689 14.2329 26.8995C14.2785 27.2154 14.2563 27.5329 14.1374 27.8313C14.0159 28.1357 13.8219 28.3965 13.6475 28.6711C13.2688 29.2679 13.2172 29.9229 13.2548 30.6143C13.2942 31.3363 13.3771 32.0586 13.4795 32.7741C13.6867 34.2238 13.999 35.6585 14.4125 37.0634C14.6194 37.767 14.8638 38.4555 15.107 39.1469C15.2281 39.491 15.3693 39.827 15.5148 40.1613C15.5915 40.3373 15.6701 40.5123 15.7499 40.687C15.7205 40.4403 15.7205 40.187 15.7061 39.9419C15.6854 39.5906 15.6591 39.2399 15.635 38.8889C15.5859 38.1765 15.5421 37.4636 15.503 36.7506C15.3643 34.2082 15.2623 31.6635 15.2698 29.117C15.2736 27.8436 15.2995 26.5701 15.3543 25.2979C15.38 24.6988 15.4297 24.1003 15.4746 23.5021L15.4842 23.3739C15.5239 22.8369 15.5715 22.2987 15.6532 21.7664C15.629 21.7118 15.608 21.6565 15.5924 21.5998L15.5869 21.5785L15.5909 21.5791C15.5872 21.5625 15.5859 21.5459 15.5869 21.5297ZM17.0135 19.3416C17.0169 19.3269 17.0378 19.3282 17.0416 19.3416C17.1346 19.6547 17.1017 19.9992 17.0216 20.3142C16.9784 20.4848 16.9171 20.6504 16.8429 20.8101L16.8169 20.866C16.7534 21.002 16.6818 21.1421 16.558 21.2269C16.5064 21.2623 16.4141 21.2644 16.3624 21.2269L16.3361 21.2069C16.3317 21.2035 16.3275 21.2 16.3233 21.1965C16.2751 21.1561 16.2513 21.0669 16.2735 21.008C16.3308 20.8561 16.4607 20.7447 16.5505 20.6094C16.6301 20.4892 16.7005 20.3624 16.759 20.2306C16.8851 19.9453 16.9418 19.6425 17.0135 19.3416Z" fill="black"/>
<path fill-rule="evenodd" clip-rule="evenodd" d="M20.6481 21.5537C20.0016 21.5519 19.4098 21.4257 18.8483 21.1491C18.1704 20.9274 17.4301 20.8066 16.8799 20.3157C16.612 20.3727 16.3374 20.0969 16.1151 19.9328C15.7527 21.2698 13.8662 21.0474 13.0691 20.1833C12.5815 19.7705 12.3853 18.7493 13.2321 18.4791C11.8448 17.5345 11.3437 15.9026 11.439 14.1369C11.5394 11.1749 13.8108 8.09555 16.7303 7.5818C17.3062 7.48023 17.8977 7.49097 18.4712 7.61177C18.7914 7.6814 19.1009 7.81642 19.4437 7.81028C20.7729 7.59965 22.2328 7.62385 23.3307 8.47667C25.0854 9.65363 25.3293 12.0085 25.1243 13.9018L25.1326 13.9196C25.0306 14.6145 24.8611 15.2511 24.5405 15.6701C24.5155 16.2725 24.3067 17.5583 24.2913 18.0667C24.3287 20.4323 22.9885 21.4822 20.6481 21.5537Z" fill="#D08B5B"/>
<path fill-rule="evenodd" clip-rule="evenodd" d="M16.1066 8.02627C17.304 7.62016 18.0596 7.82996 19.177 8.05424L19.2459 8.06798L19.3543 8.08923C20.4756 8.01384 21.4414 7.76711 22.524 8.3055C24.7766 9.25498 25.1935 11.876 25.0384 14.0648L25.0292 14.1055C24.9558 14.4248 24.8526 14.7548 24.6356 15.0086C24.2714 13.2115 23.1006 12.025 21.6608 10.8922L21.6093 10.8298C21.4306 10.6138 21.2356 10.3893 20.9998 10.2369C21.0076 10.167 21.0114 10.097 21.0102 10.028C21.0084 9.93257 20.8726 9.85235 20.8018 9.93528L20.7882 9.95207C20.6958 10.0646 20.2101 10.6054 19.9644 10.8829L19.9337 10.9175L19.8596 11.002L19.7344 11.1523C18.3832 12.7717 16.9579 14.3975 14.9426 15.1747C14.4597 14.8686 13.8739 15.1382 13.5721 15.5695C12.7146 16.5715 13.7087 18.4609 15.0267 17.9484C15.1067 18.6413 15.4526 19.4226 15.9219 19.9453C15.4077 20.6645 14.585 20.7943 13.8154 20.3872C13.0642 20.0507 12.5781 19.3445 13.0392 18.5633C13.0489 18.5576 13.0589 18.5522 13.069 18.5469C13.4226 18.7833 13.8346 18.9383 14.2607 18.9697L14.293 18.9718C14.5591 18.9844 14.5549 18.5643 14.2848 18.5427C12.4984 18.3151 11.7053 16.27 11.7035 14.6661C11.6276 11.8429 13.3833 8.93814 16.1066 8.02627Z" fill="#C93305"/>
<path fill-rule="evenodd" clip-rule="evenodd" d="M12.9264 18.4461C8.72403 14.7237 13.0353 6.34666 18.5031 7.45811C19.0565 7.64388 19.6184 7.70835 20.1915 7.57071C23.0795 7.1186 25.4421 9.57531 25.32 12.4176C25.3404 12.9037 25.3364 13.3903 25.284 13.8745C25.2241 14.5109 25.0604 15.1916 24.6953 15.7206C24.6911 16.076 24.4824 17.409 24.4489 18.0362L24.4425 18.1672C24.4092 18.8117 24.3374 19.4691 24.0548 20.0568C23.1857 21.6356 20.9467 21.9744 19.3414 21.5145L19.2746 21.4925C18.9764 21.3931 18.6384 21.2607 18.449 21.0103C18.3489 20.878 18.5146 20.7091 18.6524 20.7451C18.8297 20.7915 18.9767 20.8998 19.1423 20.9768C20.2221 21.4553 21.4993 21.295 22.5653 20.8481L22.5975 20.8345C24.5067 20.0576 23.9837 17.294 24.235 15.7182C24.2921 13.7172 22.6274 12.3546 21.3731 11.0311L21.3355 10.9892C21.2067 10.8459 21.0706 10.7063 20.8914 10.6757C20.8423 10.825 20.7216 10.952 20.6097 11.0609L20.3566 11.3351C20.1034 11.6091 19.8497 11.8819 19.5923 12.1522C18.3428 13.4247 17.0697 15.1523 15.1437 15.2824C15.2621 15.3898 15.3659 15.5125 15.49 15.6137C15.5424 15.6662 15.489 15.7543 15.4188 15.7363C15.2878 15.7028 15.2041 15.5783 15.1182 15.481C14.0779 15.0432 13.2237 16.6609 14.105 17.3306C14.4319 17.6777 15.3873 17.4136 15.1664 17.8416C15.4075 18.5996 15.7787 19.3621 16.4065 19.8691C16.5908 20.0086 16.8787 20.0793 17.001 20.2847C17.0305 20.3342 17.0155 20.415 16.96 20.4413C16.6933 20.566 16.4068 20.3563 16.202 20.1984C15.1204 22.318 11.1539 19.9762 12.9264 18.4461ZM19.3541 8.08859L19.2458 8.06734C18.0901 7.83814 17.3282 7.61123 16.1064 8.02563C13.3831 8.9375 11.6275 11.8423 11.7034 14.6655C11.7052 16.2693 12.4983 18.3145 14.2847 18.5421C14.5548 18.5636 14.559 18.9838 14.2928 18.9712L14.2847 18.9707C13.8443 18.9431 13.4181 18.783 13.0547 18.5367C12.5672 19.3282 13.0558 20.0464 13.8153 20.3866C14.5849 20.7937 15.4076 20.6639 15.9218 19.9446C15.4525 19.4219 15.1066 18.6407 15.0265 17.9477C13.7085 18.4603 12.7145 16.5708 13.572 15.5688C13.8738 15.1375 14.4596 14.8679 14.9425 15.1741C17.0201 14.3728 18.4707 12.6697 19.8595 11.0014L19.9336 10.9169C20.1768 10.6415 20.7359 10.0196 20.7979 9.93924C20.8676 9.84884 21.0083 9.93022 21.01 10.0273C21.0113 10.0964 21.0074 10.1664 20.9997 10.2362C21.2582 10.4034 21.4678 10.6572 21.6607 10.8916C23.1004 12.0244 24.2713 13.2108 24.6355 15.008C24.8617 14.7433 24.9642 14.3959 25.0382 14.0641C25.1934 11.8754 24.7765 9.25434 22.5239 8.30486C21.4413 7.76646 20.4754 8.0132 19.3541 8.08859ZM14.2458 16.3088C14.152 16.2249 14.7717 16.2147 14.8302 16.2805L14.8435 16.2851C15.0654 16.3633 15.4717 16.6154 15.2722 16.8772C14.9877 17.1459 14.7896 16.348 14.2458 16.3088Z" fill="black"/>
<path fill-rule="evenodd" clip-rule="evenodd" d="M21.2085 19.0034C20.9981 18.9175 20.8103 18.7743 20.6731 18.5913C20.6254 18.5277 20.613 18.4606 20.623 18.3991C20.6343 18.33 20.6751 18.2674 20.7308 18.2254C20.7867 18.1833 20.8566 18.1625 20.9242 18.1731C20.9829 18.1823 21.0414 18.2145 21.0876 18.2812L21.0973 18.2946C21.1789 18.405 21.2852 18.4956 21.4064 18.554C21.5232 18.6103 21.6538 18.6366 21.7889 18.6213C22.0463 18.5922 22.2237 18.4529 22.4123 18.2638C22.4357 18.24 22.459 18.2153 22.4825 18.1903C22.4974 18.1676 22.518 18.153 22.5408 18.1454C22.5662 18.1369 22.595 18.1374 22.6213 18.1466C22.6466 18.1554 22.6693 18.1722 22.6845 18.1946C22.699 18.2158 22.7072 18.242 22.7045 18.2722C22.6873 18.4682 22.5849 18.6431 22.4394 18.7804C22.2778 18.933 22.0636 19.0385 21.862 19.0755C21.6398 19.1163 21.4134 19.087 21.2085 19.0034ZM21.9668 15.98C22.2031 16.1237 22.5632 16.4588 22.309 16.8151C22.0097 17.1293 21.5788 16.7691 21.3664 16.6062C21.1695 16.4799 20.9483 16.8047 21.131 16.9521C22.6654 18.0885 23.2881 16.0176 22.0863 15.811C21.954 15.7883 21.9048 15.9355 21.9668 15.98ZM19.2171 14.658C19.2432 14.3338 19.7369 14.2601 19.786 14.581C19.83 14.8684 19.7782 15.1325 19.6488 15.3913C19.5251 15.6385 19.2143 15.5232 19.1908 15.298C19.1593 14.9963 19.2009 14.8597 19.2171 14.658ZM22.975 14.5145C23.0438 14.4243 23.1432 14.3627 23.2622 14.3975C23.6342 14.5063 23.5246 15.0346 23.3939 15.2917C23.323 15.4314 23.0935 15.4668 22.9898 15.3438C22.8208 15.1433 22.7399 14.7429 22.9547 14.5454C22.9605 14.5352 22.967 14.5249 22.975 14.5145ZM19.6435 13.2391L19.7023 13.2288C19.8841 13.1974 20.1101 13.1672 20.2387 13.3134C20.3069 13.3909 20.3304 13.535 20.2387 13.6092C20.0774 13.7398 19.8992 13.6892 19.7059 13.7002C19.5467 13.7094 19.3936 13.7357 19.2402 13.7796C18.9037 13.8758 18.6295 14.0515 18.3421 14.2443C18.3044 14.2696 18.2659 14.2214 18.2839 14.1861C18.4498 13.861 18.7713 13.5939 19.0934 13.4312C19.2653 13.3443 19.4534 13.2722 19.6435 13.2391ZM22.6359 13.0935L22.6809 13.1027C23.1703 13.2051 23.8062 13.4095 24.0379 13.8904C24.0468 13.9584 24.0374 13.973 24.0298 13.9825L24.0273 13.9857C24.0211 13.9938 24.0161 14.005 23.9866 14.0143C23.9784 14.0123 23.9702 14.0103 23.9618 14.0081C23.8556 13.9802 23.7715 13.9419 23.6902 13.902L23.6019 13.8586C23.4996 13.8083 23.3963 13.76 23.2869 13.7242C23.0533 13.648 22.8131 13.5943 22.5691 13.5657C22.5162 13.5595 22.4653 13.5416 22.4252 13.511C22.387 13.482 22.3579 13.4418 22.3446 13.3883C22.3274 13.3192 22.3324 13.2668 22.3695 13.2044C22.3973 13.1575 22.4373 13.1251 22.4831 13.1064C22.5298 13.0874 22.583 13.0829 22.6359 13.0935Z" fill="black"/>
</svg>
