<svg width="36" height="48" viewBox="0 0 36 48" fill="none" xmlns="http://www.w3.org/2000/svg">
<path fill-rule="evenodd" clip-rule="evenodd" d="M28.0656 32.5744C27.8563 31.9311 28.1055 31.1881 27.9426 30.4946C27.8868 30.2203 27.7807 29.2012 27.6741 28.6053C27.6145 28.272 27.9711 28.1685 28.0259 28.0354C28.4116 26.8403 25.5982 24.0286 25.4265 23.9251C25.1691 23.7763 24.9414 23.6482 24.69 23.4962C23.9564 23.2384 23.0768 22.5214 22.4118 22.9819C21.2597 21.2661 21.7155 19.1522 21.0903 18.9009C20.4651 18.6497 18.6188 18.1419 17.5633 18.7903C16.9306 19.2586 16.9773 20.0648 16.6886 20.7296C16.5191 21.0426 16.4359 21.4959 16.2386 21.7C15.5684 22.3935 14.7327 22.5131 13.7983 22.6308C13.7272 22.6398 13.6523 22.4462 13.5832 22.4701C12.0071 23.015 10.1731 23.174 8.38822 26.2254C8.13614 26.6618 7.4561 27.362 7.68349 27.8663C6.18527 31.3515 4.71108 39.1961 8.82204 41.1524C8.95345 41.2365 9.8449 40.7856 9.99016 40.7898C10.2323 40.7968 9.76835 41.3849 9.99016 41.2801C11.6186 41.4037 20.5791 41.0848 24.0138 41.4037C26.3757 41.386 27.8717 41.8003 28.417 41.386C28.199 40.8589 28.2091 40.2944 28.278 39.7371C28.78 39.3634 28.1595 36.7301 28.212 35.959C28.6819 35.3955 28.3077 33.2822 28.0656 32.5744Z" fill="#D08B5B"/>
<path fill-rule="evenodd" clip-rule="evenodd" d="M13.7057 22.6254L13.6906 22.6352C13.6881 22.6368 13.6857 22.6385 13.6833 22.6403C13.6672 22.6524 13.6697 22.6742 13.6887 22.6815C13.7139 22.6914 13.7404 22.6989 13.7677 22.7047C13.8506 22.825 13.9154 22.9737 13.9606 23.049C14.0905 23.2655 15.2058 24.6266 15.3725 24.8015C15.6433 25.0857 16.9771 26.1543 16.9952 26.1329C17.2097 26.2612 17.432 26.3762 17.6629 26.4744C19.0292 27.0552 20.7818 27.1079 21.9561 26.143C22.0436 26.167 22.8737 24.9712 23.0021 24.5428C23.0647 24.5602 23.1422 24.1011 23.0989 24.1081C23.1367 23.8486 22.682 22.9164 22.6388 22.8718C22.6453 22.8698 22.6518 22.8678 22.6583 22.8659C22.6621 22.8741 22.6708 22.8803 22.6809 22.8777C22.7676 22.8551 22.8555 22.8431 22.9433 22.8449C23.0101 22.8463 23.487 23.0636 23.5055 23.0725C23.5169 23.078 23.5283 23.0834 23.5398 23.089C27.3545 24.9235 27.9424 27.9048 28.0744 27.898C28.0188 27.9684 26.5115 30.1004 26.4305 30.2888C26.4137 29.8814 26.6922 40.7426 26.7117 40.9694C26.7196 41.0629 26.7202 41.2837 26.7334 41.3726C26.6377 41.3778 23.2831 41.1487 17.0451 41.1863C15.0532 41.1983 10.1299 41.415 10.1299 41.415L10.1282 41.4015C10.1141 41.2685 10.1264 41.0106 10.1245 40.8781C10.3135 40.7688 10.4991 40.6527 10.6825 40.5386C11.1001 40.2787 13.6769 37.9176 15.5706 35.805C16.6933 34.5526 18.0938 33.7098 18.1696 33.6279C18.1711 33.6262 18.1718 33.6244 18.1729 33.6226C18.1768 33.6255 18.1817 33.6283 18.188 33.6274C19.0603 33.5027 20.3618 33.7711 21.3199 33.2749C21.7477 33.0534 23.1992 31.5453 23.627 31.1285C23.6398 31.116 23.6491 31.1028 23.6555 31.0893C23.9408 30.9155 25.0524 30.034 25.131 29.9251L25.1545 29.8923C25.2414 29.7693 25.372 29.6395 25.2206 29.5213C25.061 29.3967 24.7551 29.5464 24.5868 29.6181L24.5634 29.6279C24.4814 29.6616 24.4011 29.6982 24.322 29.7371C24.2221 29.4572 23.9786 29.4514 23.7162 29.49C23.5291 29.5176 23.3474 29.5816 23.1651 29.6304C22.9336 29.6922 22.7011 29.7505 22.4677 29.8051C22.0475 29.9035 21.5619 30.0835 21.1368 30.158C21.1256 30.1449 21.11 30.1346 21.0892 30.1294C20.9436 30.0931 20.783 30.1209 20.6337 30.1237C20.5058 30.126 20.3779 30.1263 20.25 30.1245L20.1732 30.1231C19.899 30.1175 19.5312 29.99 19.2571 29.9852L19.2407 29.9752L19.2245 29.9649C19.1537 29.9192 19.077 29.8581 19.0561 29.7812C19.0535 29.7716 19.3338 29.1263 19.3379 28.6041C19.3401 28.3137 19.2405 28.0421 19.2168 27.898C19.1588 27.5464 19.029 27.7728 18.8412 28.1172C18.6534 28.4616 18.403 28.7747 18.2152 29.0252C17.9731 29.3481 17.7357 29.4456 17.6123 29.6328C17.5914 29.6645 17.5709 29.6972 17.5508 29.7308C17.5025 29.6826 17.0956 30.6416 17.1668 30.8263C17.1172 30.8099 15.1166 33.3775 10.7661 35.2248C10.7938 35.0521 11.5485 30.4969 11.3607 29.7454C11.1729 28.9939 8.6894 26.2166 8.43115 26.1549C8.457 26.1128 7.44838 26.8021 9.26371 25.0174C11.079 23.2327 12.2887 22.9304 13.1925 22.5988C13.243 22.5831 13.2934 22.5672 13.3435 22.5511C13.3308 22.5735 13.3595 22.5982 13.3816 22.58C13.5065 22.4767 13.615 22.5252 13.7057 22.6254Z" fill="#9DDADB"/>
<path fill-rule="evenodd" clip-rule="evenodd" d="M27.3164 28.7167C27.091 29.0445 26.884 29.382 26.6969 29.7331C26.6004 29.9142 26.5104 30.0988 26.4294 30.2873C26.4125 29.8798 26.4088 29.4676 26.3612 29.0642C26.3578 29.0351 26.3093 29.0209 26.3042 29.0564C26.2516 29.4222 26.2429 29.7975 26.223 30.1672C26.2002 30.1602 26.1749 30.1562 26.147 30.1562C25.8766 30.1562 25.6102 30.1783 25.3408 30.2002C25.22 30.21 25.0937 30.2174 24.9705 30.2367C25.0697 30.1272 25.162 30.0115 25.2472 29.8908C25.3341 29.7677 25.4335 29.5754 25.282 29.4571C25.1147 29.3265 24.7867 29.4974 24.6248 29.5638C24.5429 29.5974 24.4626 29.634 24.3835 29.6729C24.2836 29.393 23.9775 29.3559 23.715 29.3945C23.5279 29.4221 23.3463 29.4861 23.1639 29.5349C22.9324 29.5968 22.6999 29.655 22.4666 29.7097C22.0464 29.8081 21.6233 29.8941 21.1983 29.9686C21.187 29.9555 21.1715 29.9452 21.1506 29.94C21.0051 29.9036 20.8445 29.9315 20.6952 29.9343C20.5417 29.9371 20.3882 29.9369 20.2347 29.9337C19.9605 29.9281 19.6866 29.9258 19.4124 29.9211C19.3345 29.8738 19.2357 29.806 19.2115 29.7171C19.1813 29.6061 19.2756 29.4831 19.3194 29.3886C19.4876 29.0258 19.5464 28.6197 19.4804 28.2246C19.4686 28.1541 19.4444 28.0771 19.4094 28.0049C19.7098 28.0371 20.0063 28.0589 20.3083 28.0688C20.9113 28.0884 21.5143 28.109 22.1176 28.1135C23.3239 28.1224 24.5302 28.1225 25.7365 28.1137C26.4186 28.1087 27.0991 28.1024 27.7803 28.0676C27.7248 28.138 27.6708 28.2099 27.6181 28.2829C27.6072 28.2797 27.593 28.2855 27.5946 28.299C27.5951 28.3038 27.5957 28.3085 27.5963 28.3132C27.5001 28.4476 27.4075 28.5841 27.3164 28.7167ZM25.975 41.1932C25.6947 41.1842 25.4144 41.1753 25.1341 41.1664C24.5839 41.1489 24.0336 41.1313 23.4834 41.1138C22.3934 41.0791 21.3034 41.0456 20.2132 41.0155C19.1256 40.9855 18.0375 40.9538 16.9496 40.9877C15.8592 41.0218 14.7717 41.1098 13.6833 41.1805C13.0783 41.2197 12.4728 41.2537 11.8667 41.27C11.2894 41.2854 10.7069 41.262 10.1305 41.3032C10.1112 41.1607 10.1254 41.0185 10.1233 40.8765C10.3124 40.7673 10.498 40.6511 10.6814 40.537C11.35 40.121 11.9821 39.6503 12.5783 39.1357C12.6699 39.0566 12.7598 38.9759 12.8487 38.8942C12.7868 39.0296 12.8364 39.204 13.0138 39.2613C13.2302 39.3312 13.4517 39.3064 13.6764 39.3011C13.9046 39.2957 14.1328 39.2906 14.3611 39.2858C14.8071 39.2763 15.2532 39.2678 15.6992 39.2604C16.5707 39.2458 17.4421 39.235 18.3136 39.2279C20.067 39.2137 21.8191 39.2376 23.5722 39.2692C24.0652 39.2782 24.5576 39.2892 25.0506 39.278C25.2972 39.2725 25.5448 39.2707 25.7912 39.2574C25.9886 39.2467 26.1871 39.2188 26.3845 39.1937C26.4094 39.5375 26.4354 39.8813 26.4643 40.2248C26.4835 40.4516 26.5033 40.6784 26.5227 40.9052C26.5307 40.9988 26.5313 41.0943 26.5445 41.1832C26.355 41.1936 26.1667 41.1992 25.975 41.1932ZM26.1678 31.4843C26.1609 31.7475 26.1573 32.0108 26.1554 32.2742C26.1326 32.2612 26.107 32.2516 26.0781 32.2473C25.7715 32.2004 25.4435 32.2359 25.1333 32.2412C24.8335 32.2462 24.5327 32.2445 24.2331 32.2587C23.933 32.2728 23.633 32.2898 23.333 32.3053C23.1922 32.3127 23.0529 32.319 22.9132 32.338C22.8175 32.3511 22.6951 32.3501 22.5929 32.3774C23.0218 31.9618 23.4484 31.5438 23.8762 31.127C23.889 31.1145 23.8983 31.1013 23.9048 31.0878C24.19 30.9139 24.4638 30.7182 24.7118 30.4941C24.9084 30.57 25.1323 30.5796 25.3408 30.5965C25.6103 30.6184 25.8765 30.6405 26.147 30.6405C26.1653 30.6405 26.1824 30.6387 26.1985 30.6355C26.1853 30.9183 26.1752 31.2011 26.1678 31.4843ZM15.0302 36.597C15.6851 36.8062 16.3946 36.8038 17.0759 36.8457C17.8022 36.8904 18.5274 36.9276 19.2545 36.9559C20.7067 37.0123 22.158 37.089 23.61 37.15C24.4394 37.1849 25.2686 37.2233 26.0977 37.2651C26.1565 37.268 26.2126 37.2529 26.2621 37.2253C26.2899 37.7715 26.3225 38.3174 26.3605 38.863C26.3652 38.9312 26.3704 38.9994 26.3753 39.0677C25.9851 39.0187 25.5979 38.9718 25.2048 38.9386C24.7633 38.9013 24.3221 38.8699 23.88 38.8405C23.0186 38.7834 22.1558 38.7069 21.2928 38.679C19.5335 38.6221 17.7704 38.6415 16.0105 38.654C15.5125 38.6576 15.0146 38.6624 14.5166 38.6684C14.2677 38.6714 14.0187 38.6747 13.7698 38.6783C13.5196 38.682 13.2507 38.656 13.0138 38.7433C13.0115 38.7442 13.0096 38.7454 13.0074 38.7462C13.7221 38.0688 14.3624 37.3201 15.0302 36.597ZM17.3323 34.4311C18.4267 34.6305 19.5383 34.6168 20.6477 34.6365C21.7828 34.6568 22.9194 34.6434 24.0547 34.6457C24.6996 34.6471 25.3501 34.6754 25.9927 34.618C26.0686 34.6112 26.1275 34.5824 26.1694 34.5415C26.1812 35.2253 26.2026 35.9087 26.2322 36.5919C26.1905 36.5741 26.145 36.5634 26.0977 36.5606C24.647 36.4752 23.1962 36.3977 21.7437 36.3504C20.2924 36.3031 18.8392 36.247 17.3871 36.2646C16.6785 36.2731 15.9291 36.2278 15.2302 36.3823C15.4958 36.1 15.7671 35.8229 16.0509 35.5575C16.4647 35.1707 16.9062 34.8084 17.3323 34.4311ZM18.1684 33.6263C18.1699 33.6247 18.1706 33.6228 18.1717 33.6211C18.1757 33.624 18.1805 33.626 18.1868 33.6259C19.2113 33.6028 20.3606 33.9261 21.3188 33.4299C21.7466 33.2084 22.1008 32.8583 22.4447 32.5218C22.4449 32.5243 22.4451 32.5268 22.4453 32.5293C22.4475 32.5566 22.4591 32.5895 22.4868 32.6015C22.5998 32.6511 22.7321 32.6544 22.8535 32.6721C22.993 32.6924 23.1301 32.7043 23.2709 32.7128C23.5813 32.7314 23.8916 32.7511 24.2021 32.7687C24.5119 32.7862 24.8231 32.7877 25.1333 32.7954C25.4444 32.8031 25.7702 32.8408 26.0781 32.7964C26.1064 32.7923 26.1315 32.7834 26.1538 32.7711C26.1543 33.1696 26.1579 33.568 26.1617 33.9661C26.1623 34.031 26.1635 34.0959 26.1643 34.1608C26.1227 34.1227 26.0656 34.0961 25.9927 34.0896C25.4218 34.0393 24.8464 34.0617 24.2735 34.0636C23.7109 34.0655 23.1483 34.0674 22.5856 34.0692C21.4496 34.073 20.3144 34.0841 19.1786 34.1058C18.6262 34.1163 18.0762 34.1628 17.532 34.2522C17.7523 34.0513 17.9666 33.8446 18.1684 33.6263ZM9.26691 40.8706C9.05718 40.9348 8.84898 40.9069 8.63884 40.9509C8.62591 40.9536 8.61399 40.9586 8.60306 40.9652C7.97377 40.6963 7.5543 40.1565 7.26723 39.5517C6.96463 38.9142 6.75605 38.2327 6.61633 37.5418C6.32826 36.1176 6.32776 34.6408 6.47687 33.1999C6.62338 31.7843 6.91345 30.3764 7.32741 29.0151C7.61164 28.0803 7.97386 27.1359 8.4768 26.2836C9.05755 26.6729 9.50795 27.2333 9.93223 27.7812C10.4392 28.4358 10.8961 29.1286 11.3051 29.8485C11.2628 29.9718 11.2563 30.1265 11.236 30.2367C11.1969 30.4492 11.1616 30.6644 11.1338 30.8788C11.0745 31.3369 11.0176 31.7954 10.957 32.2534C10.8371 33.159 10.6939 34.0622 10.5358 34.9619C10.523 35.0348 10.5434 35.0964 10.5811 35.1427C10.2674 35.3081 9.95784 35.4808 9.65621 35.6681C8.99308 36.0797 8.37333 36.5592 7.88676 37.1743C7.87411 37.1902 7.89392 37.2116 7.90957 37.1971C8.95302 36.2326 10.2494 35.627 11.5221 35.0286C12.1725 34.7227 12.8198 34.412 13.4438 34.0544C14.0964 33.6806 14.7187 33.258 15.3152 32.8001C15.9964 32.2773 16.6375 31.7057 17.2386 31.0924C17.3094 31.0201 17.2922 30.9296 17.2389 30.8725C17.2569 30.8669 17.2715 30.8512 17.2724 30.8251C17.2868 30.4246 17.407 30.0834 17.6424 29.7593C17.8607 29.4586 18.139 29.2107 18.39 28.9386C18.5016 28.8177 18.6082 28.6917 18.7034 28.5574C18.8014 28.4191 18.8611 28.2664 18.9463 28.1219C19.046 27.953 19.1307 28.0393 19.1769 28.1921C19.2293 28.3654 19.226 28.5683 19.205 28.7464C19.1827 28.9349 19.1253 29.1187 19.0427 29.289C18.9651 29.4491 18.8756 29.6119 18.9279 29.7953C19.0137 30.0967 19.3818 30.2713 19.6606 30.3392C19.9711 30.4147 20.2959 30.4001 20.6103 30.3609C21.004 30.3117 21.3959 30.2398 21.7851 30.1634C22.2358 30.0749 22.6839 29.9727 23.1285 29.8572C23.3375 29.803 23.545 29.7316 23.756 29.6867C23.8312 29.6707 23.9705 29.6466 24.0589 29.6859C22.9223 30.3637 21.6831 30.8153 20.4246 31.2088C20.2682 31.2576 20.3323 31.4938 20.4924 31.4547C21.8444 31.124 23.1165 30.5102 24.3271 29.838C24.3456 29.8276 24.3613 29.8117 24.3729 29.7928C24.4947 29.75 24.6185 29.7127 24.7448 29.682C24.8012 29.6683 25.0915 29.5725 25.1277 29.6093C25.1792 29.6615 25.0012 29.8308 24.9568 29.88C24.6404 30.2306 24.2641 30.5167 23.8568 30.7533C23.4436 30.9932 23.004 31.1845 22.5623 31.365C22.0675 31.5672 21.5445 31.7261 21.0636 31.9585C20.8725 32.0509 21.0066 32.3645 21.2079 32.3009C21.4673 32.2189 21.7193 32.0984 21.9714 31.996C22.1856 31.9091 22.3997 31.8222 22.6127 31.7323C22.7611 31.6696 22.9086 31.6048 23.0546 31.5371C22.8359 31.7431 22.6171 31.949 22.3984 32.1549C22.0197 32.5116 21.6599 32.918 21.1969 33.1681C20.7395 33.4153 20.2177 33.4441 19.7085 33.4387C19.4529 33.436 19.1984 33.4279 18.9428 33.4382C18.6738 33.4491 18.4349 33.4904 18.18 33.5751C18.1753 33.5767 18.1719 33.5795 18.169 33.5827C18.1601 33.5718 18.1449 33.5664 18.1293 33.5756C17.4366 33.9854 16.8051 34.5169 16.1978 35.0422C15.5719 35.5837 14.983 36.1595 14.4218 36.7677C13.8847 37.3498 13.3519 37.9342 12.7674 38.4698C12.1967 38.9927 11.5869 39.4676 10.95 39.9071C10.6031 40.1466 10.2475 40.3772 9.87962 40.5833C9.68303 40.6935 9.48338 40.8044 9.26691 40.8706ZM9.32516 25.1087C9.57323 24.8299 9.84025 24.5715 10.1228 24.3325C10.2474 24.3694 10.3783 24.3797 10.5102 24.3811C10.7114 24.3831 10.913 24.3915 11.1143 24.3894C11.5017 24.3854 11.889 24.3732 12.2766 24.3711C13.0689 24.3668 13.8616 24.3665 14.654 24.3734C14.7578 24.3743 14.8327 24.3299 14.8789 24.2654C15.0393 24.4474 15.2047 24.6251 15.3714 24.8C15.6422 25.0842 15.9309 25.3553 16.2383 25.6024C16.1784 25.6028 16.1186 25.6033 16.0591 25.6029C15.785 25.6011 15.5109 25.5993 15.2369 25.5979C14.6868 25.5948 14.1368 25.5926 13.5868 25.5911C12.4934 25.5882 11.3965 25.5973 10.3044 25.6533C10.0013 25.6689 9.69586 25.6752 9.39383 25.7047C9.23001 25.7208 9.06638 25.7394 8.90272 25.7569C8.86923 25.7605 8.83712 25.7649 8.8056 25.77C8.96588 25.5396 9.13852 25.3183 9.32516 25.1087ZM13.7046 22.6239C13.6972 22.6289 13.6892 22.6334 13.6822 22.6387C13.6661 22.6508 13.6686 22.6727 13.6876 22.68C13.7128 22.6899 13.7393 22.6973 13.7666 22.7032C13.8495 22.8235 13.9142 22.9721 13.9595 23.0475C14.0894 23.264 14.2388 23.4702 14.3908 23.6715C14.4213 23.7119 14.4525 23.7519 14.4837 23.7918C13.7477 23.79 13.0121 23.7938 12.2766 23.8216C11.8893 23.8363 11.5007 23.8486 11.1143 23.8777C10.9554 23.8896 10.7966 23.9097 10.6381 23.9296C11.4626 23.3334 12.3897 22.8782 13.3502 22.5402C13.3489 22.5417 13.3475 22.5428 13.3462 22.5442C13.325 22.5677 13.3566 22.5982 13.3804 22.5785C13.5054 22.4751 13.6138 22.5236 13.7046 22.6239ZM17.4234 29.6312C17.4025 29.663 17.3819 29.6957 17.3619 29.7292C17.3136 29.6811 17.2462 29.6489 17.1593 29.6462C16.1952 29.6161 15.2315 29.5898 14.2668 29.5892C13.791 29.5888 13.311 29.5728 12.8358 29.5964C12.5972 29.6082 12.3587 29.6223 12.1203 29.6358C11.9535 29.6453 11.7764 29.657 11.6136 29.7053C11.2384 29.0487 10.8218 28.4175 10.3669 27.8139C11.399 27.9405 12.4488 27.927 13.4868 27.9622C14.6628 28.0021 15.8394 28.0106 17.0158 28.0385C17.3385 28.0461 17.6612 28.0545 17.9838 28.0636C18.1504 28.0682 18.3169 28.073 18.4834 28.0781C18.5355 28.0796 18.5894 28.0811 18.6433 28.0797C18.6392 28.0881 18.6351 28.0965 18.631 28.1048C18.5402 28.2925 18.4261 28.4651 18.293 28.6254C18.0101 28.9661 17.6684 29.2596 17.4234 29.6312ZM16.1585 31.6538C16.1228 31.5545 16.0358 31.4781 15.8972 31.4844C15.1072 31.5203 14.3157 31.5452 13.5267 31.5972C13.1423 31.6225 12.7563 31.6396 12.3726 31.6732C12.1746 31.6906 11.9771 31.7229 11.78 31.7486C11.6448 31.7662 11.5034 31.7866 11.3738 31.8347C11.3989 31.5571 11.4211 31.2793 11.4403 31.0011C11.4557 30.7776 11.4604 30.5521 11.4592 30.328C11.4586 30.2146 11.4548 30.1005 11.4493 29.9872C11.461 29.9895 11.4726 29.9907 11.4841 29.9893C11.5043 29.9867 11.5232 29.9844 11.5407 29.9797C11.7223 30.0508 11.9279 30.0665 12.1203 30.0802C12.3484 30.0965 12.5766 30.1138 12.8047 30.1301C13.2902 30.1647 13.7802 30.1625 14.2668 30.1783C15.2246 30.2096 16.1825 30.2277 17.1405 30.2534C17.0961 30.4441 17.0945 30.6401 17.1656 30.8248C17.1161 30.8083 17.059 30.816 17.0103 30.8641C16.7344 31.1368 16.4502 31.3998 16.1585 31.6538ZM13.3719 33.6823C13.3524 33.6283 13.3156 33.5788 13.272 33.5452C13.1045 33.416 12.7987 33.4904 12.5976 33.5002C12.3596 33.5119 12.1215 33.5235 11.8835 33.5352C11.8113 33.5387 11.4426 33.5575 11.1718 33.6152C11.2277 33.1925 11.2785 32.7691 11.3239 32.3449C11.3334 32.2558 11.3422 32.1668 11.351 32.0777C11.4785 32.1187 11.6172 32.1338 11.7488 32.14C11.9459 32.1494 12.144 32.1653 12.3414 32.1684C12.7357 32.1746 13.1323 32.1552 13.5267 32.1486C14.2369 32.1368 14.9472 32.1029 15.6571 32.0749C14.9444 32.6536 14.1912 33.1817 13.4056 33.6621C13.3944 33.669 13.3831 33.6755 13.3719 33.6823ZM11.1286 33.9331C11.1886 33.9411 11.2481 33.9437 11.2936 33.9484C11.5221 33.9714 11.747 33.9923 11.9766 33.9957C12.2043 33.999 12.432 34.0023 12.6597 34.0057C12.7081 34.0063 12.7566 34.0071 12.805 34.0078C12.2054 34.3354 11.5874 34.6288 10.9782 34.9378C11.0319 34.6034 11.082 34.2685 11.1286 33.9331ZM17.6617 26.4728C19.0281 27.0537 20.7807 27.1064 21.9549 26.1415C22.0716 26.1734 22.2007 26.184 22.3037 26.1944C22.5352 26.2176 22.7645 26.239 22.9971 26.2463C23.4505 26.2605 23.9043 26.2817 24.3578 26.2873C25.2754 26.2986 26.193 26.3039 27.1105 26.3121C27.1886 26.3128 27.2511 26.289 27.2985 26.2508C27.3914 26.4083 27.4778 26.5699 27.5567 26.7356C27.6718 26.9772 27.7694 27.2269 27.8494 27.4822C27.8323 27.4793 27.8145 27.4772 27.7954 27.4768C26.5895 27.456 25.3827 27.4907 24.1767 27.4957C22.9703 27.5008 21.7641 27.4956 20.5578 27.5042C20.224 27.5066 19.8926 27.5067 19.5596 27.5314C19.3863 27.5443 19.2109 27.55 19.0393 27.5779C19.0201 27.581 19.0006 27.5838 18.9809 27.5866C18.7509 27.4521 18.4653 27.4802 18.2024 27.4752C17.9006 27.4695 17.5987 27.4644 17.2969 27.46C16.7036 27.4512 16.1102 27.4447 15.5168 27.4407C14.3392 27.4326 13.1645 27.4627 11.9876 27.5037C11.4021 27.5241 10.8187 27.5588 10.2407 27.6489C10.2019 27.5987 10.1635 27.5482 10.1242 27.4983C9.71464 26.9791 9.22913 26.3143 8.55521 26.1534C8.58106 26.1112 8.60729 26.0693 8.63392 26.0277C9.10084 26.1509 9.61593 26.1447 10.093 26.1705C10.6429 26.2002 11.1916 26.2207 11.7422 26.2343C12.8365 26.2612 13.9307 26.278 15.0253 26.2947C15.329 26.2993 15.6328 26.3041 15.9366 26.3092C16.1005 26.3119 16.2643 26.3151 16.4282 26.3176C16.5198 26.319 16.6016 26.3188 16.6889 26.2884C16.7696 26.2602 16.8484 26.218 16.9265 26.183C16.9538 26.1708 16.9759 26.1527 16.994 26.1314C17.2085 26.2596 17.4308 26.3747 17.6617 26.4728ZM23.001 24.5413C23.1728 24.589 23.3502 24.5969 23.5319 24.6107C23.7704 24.6287 24.0083 24.6318 24.2474 24.6333C24.6287 24.6357 25.01 24.6331 25.3912 24.6226C25.5549 24.6181 25.6505 24.5085 25.6789 24.3829C25.6829 24.3861 25.6869 24.3892 25.6909 24.3925C26.1548 24.7748 26.5751 25.2121 26.9313 25.6961C26.0735 25.6988 25.2156 25.6994 24.3578 25.7052C23.9043 25.7082 23.4505 25.7269 22.9971 25.7385C22.7747 25.7442 22.5556 25.7627 22.3341 25.7837C22.3297 25.7842 22.3251 25.7845 22.3206 25.7849C22.3441 25.7579 22.3674 25.7304 22.3901 25.7022C22.6549 25.374 22.8726 24.9696 23.001 24.5413ZM28.578 41.7684C28.6537 41.5601 28.6243 41.3367 28.62 41.1176C28.6156 40.8929 28.6132 40.6683 28.6125 40.4435C28.611 40.0041 28.608 39.5647 28.6032 39.1253C28.5934 38.2365 28.5831 37.3469 28.5481 36.4586C28.479 34.7025 28.3459 32.9507 28.1286 31.2064C28.023 30.3583 27.892 29.5123 27.7141 28.6762C27.7166 28.6729 27.719 28.6694 27.7215 28.666C27.8987 28.4293 28.1001 28.2104 28.2741 27.972C28.2895 27.9509 28.296 27.9237 28.2958 27.8963C28.3022 27.8932 28.3086 27.89 28.3151 27.8863C28.4594 27.8041 28.329 27.5799 28.1847 27.6632C28.2014 27.6537 27.9617 27.0383 27.9363 26.9763C27.8451 26.7537 27.7425 26.5361 27.6268 26.3252C27.557 26.198 27.4823 26.0734 27.404 25.9512C27.3904 25.8599 27.3411 25.7752 27.2564 25.73C27.1078 25.517 26.9472 25.3123 26.7761 25.1172C26.0756 24.3188 25.2007 23.6743 24.2448 23.2151C24.1066 23.1488 23.9644 23.0935 23.8227 23.0356C23.6718 22.9739 23.5319 22.8933 23.3833 22.8285C23.1413 22.7231 22.9025 22.7292 22.6649 22.8407C22.6446 22.8503 22.6591 22.8815 22.6798 22.8761C22.8328 22.8362 22.9895 22.8295 23.1428 22.8729C23.2931 22.9153 23.4074 23.0091 23.5386 23.0874C23.7724 23.2269 24.0338 23.3178 24.2735 23.448C24.5904 23.6203 24.9001 23.8095 25.1963 24.0171C24.8894 24.0334 24.5822 24.0451 24.2749 24.0532C24.0467 24.0593 23.8186 24.0604 23.5907 24.0736C23.4285 24.0831 23.2599 24.0804 23.0978 24.1066C23.1369 23.8378 23.1369 23.5666 23.0881 23.3047C23.0881 23.3046 23.088 23.3045 23.088 23.3044C23.0762 23.2414 23.0619 23.1787 23.0443 23.1168C23.0069 22.9851 22.8869 22.9653 22.7997 23.0152C22.7911 23.0088 22.7824 23.0026 22.774 22.9958C22.6696 22.911 22.5757 22.8095 22.494 22.7029C22.3242 22.4814 22.187 22.225 22.0832 21.9665C21.9779 21.7047 21.9034 21.4308 21.8304 21.1587C21.7937 21.0223 21.7541 20.8866 21.7168 20.7503C21.6844 20.6318 21.6608 20.5008 21.6012 20.3929C21.59 20.3726 21.5564 20.3764 21.5511 20.3994C21.5195 20.5347 21.5362 20.689 21.542 20.8269C21.5484 20.98 21.5572 21.1316 21.5776 21.2836C21.6198 21.5988 21.6879 21.9087 21.797 22.208C21.9017 22.4951 22.0397 22.7629 22.2273 23.0048C22.3519 23.1655 22.5289 23.3781 22.7338 23.4648C22.7606 23.7663 22.7576 24.0682 22.6863 24.3668C22.5932 24.7577 22.4148 25.1292 22.1698 25.4474C21.6559 26.1148 20.8609 26.4919 20.0315 26.5696C19.1734 26.65 18.2953 26.458 17.5243 26.0805C16.6666 25.6605 15.9552 25.0126 15.3161 24.3133C14.9478 23.9102 14.5658 23.5136 14.2244 23.0871C14.1639 23.0115 14.067 22.8581 13.9522 22.7198C14.0691 22.7188 14.189 22.7013 14.2925 22.688C14.5066 22.6605 14.7158 22.6179 14.925 22.5647C15.3162 22.4652 15.7286 22.3268 16.0704 22.1077C16.7936 21.6442 17.076 21.0563 17.1724 20.2463C17.2029 19.9903 16.7603 19.9281 16.7191 20.1849C16.6557 20.5797 16.5599 20.7719 16.434 21.1511C16.3128 21.5157 16.1373 21.6515 15.8019 21.8525C15.487 22.0411 15.1291 22.1507 14.7822 22.264C14.5899 22.3267 14.3954 22.384 14.2016 22.4416C14.0781 22.4784 13.9316 22.5104 13.8064 22.5671C13.7411 22.5098 13.673 22.4665 13.6044 22.4501C13.6094 22.4417 13.6029 22.4285 13.5902 22.431C13.5701 22.435 13.55 22.4395 13.5298 22.4436C13.5096 22.4451 13.4894 22.4491 13.4693 22.4563C12.261 22.7181 11.1006 23.2755 10.1166 24.0349C10.067 24.0556 10.019 24.081 9.97336 24.1131C9.94986 24.1296 9.93427 24.1558 9.92979 24.1829C9.78187 24.3037 9.63834 24.4291 9.49965 24.5589C8.38272 25.6039 7.67502 26.9941 7.17959 28.4241C6.69155 29.8328 6.36119 31.31 6.17953 32.7891C5.99433 34.2967 5.97298 35.8356 6.24159 37.3348C6.38582 38.1397 6.61931 38.9307 6.96394 39.6732C7.27342 40.34 7.77718 41.0996 8.56842 41.1808C8.57095 41.1833 8.57333 41.186 8.57618 41.1884C8.88663 41.4441 9.34885 41.2675 9.67342 41.1147C9.72488 41.0905 9.77593 41.065 9.82676 41.0389C9.7999 41.1423 9.78779 41.2506 9.78219 41.352C9.77051 41.5628 10.0676 41.5748 10.1238 41.3998C10.6053 41.4845 11.1026 41.4857 11.5896 41.483C12.1338 41.48 12.6778 41.4612 13.2214 41.4356C14.2999 41.3847 15.3771 41.3069 16.4563 41.2716C18.6416 41.2 20.8328 41.3529 23.0162 41.43C23.6288 41.4516 24.2413 41.4732 24.8538 41.4948C25.4796 41.5169 26.1048 41.5211 26.7256 41.6058C26.9539 41.6369 27.0413 41.4131 26.9769 41.2737C26.993 41.18 26.977 41.0774 26.9682 40.9671C26.9518 40.7609 26.9363 40.5548 26.9218 40.3485C26.8934 39.9463 26.866 39.544 26.8401 39.1417C26.7874 38.3263 26.7421 37.5104 26.6981 36.6946C26.6105 35.0726 26.5434 33.4493 26.494 31.8256C26.482 31.4298 26.4663 31.0339 26.4464 30.6384C26.4701 30.6009 26.4936 30.5634 26.5164 30.5254C26.5923 30.3988 26.6667 30.2714 26.7435 30.1454C26.8977 29.8928 27.0528 29.6418 27.2148 29.3942C27.3548 29.1803 27.4992 28.9698 27.65 28.7635C27.8373 30.3458 28.0038 31.9296 28.0802 33.522C28.1644 35.2759 28.2091 37.0324 28.2334 38.7881C28.2402 39.2786 28.2447 39.7691 28.25 40.2596C28.2527 40.515 28.2554 40.7703 28.2533 41.0257C28.2513 41.27 28.2144 41.5372 28.301 41.7684C28.3515 41.9032 28.5282 41.9056 28.578 41.7684Z" fill="black"/>
<path fill-rule="evenodd" clip-rule="evenodd" d="M23.8812 10.8831C22.9425 9.58785 21.2141 9.21537 19.7153 9.53039C16.785 10.0659 13.9855 12.307 13.4677 15.355C12.6599 17.1989 13.1758 20.1033 15.525 20.3203C15.8594 20.3392 16.1907 20.262 16.5258 20.3037C18.5706 20.6312 20.987 22.0329 22.7971 20.3798C22.8878 20.445 23.0074 20.4765 23.1091 20.4371C23.8795 20.1386 23.9157 19.2751 23.9814 18.5653C24.0663 17.6482 24.1458 16.7305 24.2201 15.8125C24.2466 14.2294 24.8725 12.251 23.8812 10.8831Z" fill="#D08B5B"/>
<path fill-rule="evenodd" clip-rule="evenodd" d="M18.2 7.58236C19.4337 7.5166 21.7068 8.08308 22.7831 8.74722C24.5367 9.82931 24.6727 11.9878 24.6011 12.3611C24.574 12.5035 24.4871 12.6353 24.3513 12.5915C24.4665 13.5721 24.4575 14.1326 24.4768 15.1189L24.4901 15.7774C24.4988 16.2164 24.5062 16.6555 24.5081 17.0947C24.5524 17.0781 24.5961 17.0984 24.6124 17.141C24.6164 17.1514 24.6024 17.157 24.5955 17.151C24.5174 17.0828 24.573 17.2384 24.5999 17.27C24.637 17.3135 24.6989 17.3546 24.7423 17.3918L24.8602 17.4942L24.9781 17.5963C25.1304 17.728 25.2777 17.86 25.4198 18.002L25.4585 18.0409C25.7174 18.3045 26.0419 18.5597 26.2031 18.9007C26.357 19.2263 26.3096 19.5955 26.0538 19.855C25.9607 19.9493 25.852 20.0213 25.7339 20.0758C25.9441 20.4227 25.9748 20.8815 25.7555 21.2384C25.5359 21.5966 25.1137 21.7842 24.707 21.7553C24.6945 21.8064 24.6752 21.8562 24.6495 21.9034C24.4883 22.2005 24.1675 22.2391 23.8634 22.2232L23.8515 22.2225C23.1669 22.183 22.5082 22.0112 21.9085 21.6771C21.7005 21.6912 21.515 21.5199 21.4744 21.332C21.3651 21.328 21.2552 21.3188 21.143 21.306C20.8104 21.2675 20.4693 21.1958 20.1761 21.0264C20.1311 21.0004 20.152 20.9319 20.202 20.9306C20.5593 20.9224 20.9169 20.9472 21.2736 20.9084C21.6009 20.873 21.9498 20.7825 22.2549 20.6595C22.8034 20.4378 23.2737 20.0617 23.5333 19.5407C23.8693 18.8662 23.8387 18.0562 23.8753 17.3236C23.9158 16.5125 23.9656 15.7023 24.0189 14.8921L24.0447 14.5037C24.0965 13.7468 24.1393 13.3418 24.2704 12.5561C23.8753 12.5915 22.234 11.9993 21.7236 11.0306C20.755 13.0914 15.8471 12.248 15.6295 15.4205C15.6276 15.4474 15.5851 15.4399 15.5836 15.4142L15.5795 15.3419C15.5776 15.3062 15.5758 15.271 15.5746 15.2361L15.5736 15.2013L15.4964 15.2022C15.4964 15.2119 15.4827 15.2154 15.4793 15.2051C15.4065 14.9981 15.0598 15.0648 14.9089 15.1139C14.7731 15.1584 14.645 15.2266 14.5301 15.3109C14.2993 15.48 14.1203 15.7076 14.061 15.9922C13.9482 16.5326 14.2915 17.0831 14.7472 17.3439C15.0345 17.5083 15.3493 17.6144 15.6248 17.8008C15.8681 17.9651 16.0949 18.1577 16.2913 18.3766C17.0696 19.2436 17.5275 20.5586 17.1593 21.7031C17.1312 21.7904 17.0568 21.8903 16.9584 21.9044C16.7957 21.9279 16.633 21.9041 16.5418 21.7488C16.5062 21.688 16.4893 21.6188 16.4931 21.5506C16.43 21.7678 16.2254 21.9827 16.0368 22.0635C15.7797 22.1737 15.4902 22.1408 15.2634 21.9986L15.2348 22.0199C14.866 22.292 14.4541 22.54 13.9816 22.4899C13.6393 22.4536 13.3033 22.2789 13.114 22.0033C12.8623 22.1452 12.5933 22.2582 12.316 22.3352L12.2865 22.3433C11.9049 22.4475 11.4182 22.543 11.062 22.3314C10.72 22.1282 10.6063 21.6846 10.6866 21.3141C10.6963 21.27 10.7084 21.2271 10.7234 21.1855C10.4661 21.1992 10.209 21.1745 9.96478 21.0988C9.71523 21.0214 9.47724 20.8727 9.35761 20.6316C9.22269 20.3588 9.25861 20.0489 9.35918 19.7712C9.52003 19.3256 9.77863 18.9292 10.1006 18.5838C10.4103 18.2515 10.7838 17.9695 11.172 17.7344L11.2375 17.6952C11.5869 17.4862 12.0083 17.2414 12.4212 17.2575C12.42 17.2522 12.4191 17.2471 12.4184 17.2418C12.356 16.7806 12.3632 16.3103 12.3485 15.8454C12.335 15.4177 12.3197 14.9899 12.3097 14.5619C12.2935 13.8342 12.2988 13.1035 12.3934 12.3808C12.4775 11.7395 12.6286 11.1142 12.9044 10.5271C13.1939 9.91034 13.63 9.384 14.1684 8.97007C15.2984 8.10118 16.791 7.6575 18.2 7.58236ZM14.3617 16.1293C14.4848 15.8967 14.765 15.8234 15.0108 15.8654C15.3553 15.9243 15.5895 16.2261 15.7906 16.4857C16.0018 16.7578 15.5614 17.0142 15.448 16.7506L15.4212 16.6883C15.3302 16.4793 15.2227 16.2588 15.037 16.1225C14.8396 15.9778 14.561 15.9565 14.3867 16.1488C14.3742 16.1629 14.3533 16.1447 14.3617 16.1293Z" fill="black"/>
<path fill-rule="evenodd" clip-rule="evenodd" d="M19.0992 17.6529C19.441 17.4469 20.7188 17.5979 21.7225 17.6529C22.5195 17.6965 23.0888 17.61 23.271 17.7327C23.6827 18.0099 23.4827 19.3501 22.7734 19.5334C22.064 19.7167 19.4345 19.9727 18.9811 19.5334C18.5278 19.0941 18.4859 18.0223 19.0992 17.6529Z" fill="white"/>
<path fill-rule="evenodd" clip-rule="evenodd" d="M19.5422 17.2987C20.0788 17.2336 20.5988 17.3979 21.1233 17.4807C21.4003 17.5244 21.6776 17.5571 21.9578 17.5692C22.0142 17.5717 22.0706 17.5731 22.127 17.5742C22.1322 17.5246 22.16 17.479 22.2202 17.4516C22.3437 17.3957 22.4424 17.3704 22.578 17.3758C22.702 17.3807 22.8265 17.3935 22.9486 17.4159C23.1705 17.4565 23.3933 17.5489 23.5555 17.7092C23.931 18.0804 23.8739 18.6765 23.5837 19.0808C22.9843 19.9161 21.8902 19.9548 20.9532 19.9439L20.8667 19.9428C20.0135 19.9306 18.7929 20.0579 18.4053 19.0868C18.2627 18.7297 18.2825 18.3158 18.457 17.9733C18.6652 17.5648 19.1034 17.352 19.5422 17.2987ZM22.2073 18.6895L22.1997 18.6898C21.8063 18.705 21.413 18.7156 21.0194 18.7226C21.0312 18.8237 21.0432 18.9249 21.0569 19.0258C21.0677 19.1052 21.0793 19.1845 21.0913 19.2637C21.0964 19.2972 21.1151 19.3493 21.1098 19.3825L21.1079 19.3956C21.1281 19.4048 21.1464 19.4195 21.1601 19.4409C21.1648 19.4483 21.1683 19.4557 21.1717 19.4632C21.4773 19.4656 21.8061 19.4596 22.1176 19.4041L22.1182 19.3973C22.1239 19.3575 22.1404 19.3307 22.1624 19.3123C22.1843 19.1854 22.1823 19.0501 22.1908 18.9241C22.1961 18.8459 22.2018 18.7677 22.2073 18.6895ZM20.7188 18.728C20.4353 18.7328 20.1516 18.7365 19.8682 18.733L19.7395 18.7311C19.7666 18.8769 19.7962 19.0223 19.8208 19.1691C19.8464 19.3221 19.7118 19.4194 19.5953 19.4155C19.6084 19.4176 19.6214 19.4198 19.6345 19.4217C19.9986 19.4732 20.3766 19.4595 20.7461 19.4591C20.7262 19.343 20.7342 19.2121 20.7313 19.1152L20.7307 19.1002C20.725 18.9761 20.7211 18.852 20.7188 18.728ZM18.7929 18.7012C18.8028 18.777 18.8219 18.8513 18.8506 18.9204C18.9716 19.2123 19.249 19.3486 19.5426 19.4059C19.4917 19.3883 19.4512 19.3461 19.441 19.2737C19.4156 19.0936 19.4064 18.9106 19.4057 18.7277C19.2011 18.7258 18.9952 18.7215 18.7929 18.7012ZM23.2743 18.6389C23.1286 18.6732 22.9593 18.6575 22.8164 18.664C22.6825 18.6701 22.5486 18.6754 22.4147 18.6808C22.421 18.7722 22.4271 18.8636 22.4338 18.955C22.4424 19.0731 22.4433 19.198 22.4659 19.3156C22.7353 19.2236 22.9768 19.076 23.1579 18.8401C23.2031 18.7813 23.2435 18.7124 23.2743 18.6389ZM19.4807 17.7777C19.2382 17.8352 19.0087 17.9565 18.8854 18.1785C18.8122 18.3102 18.78 18.4663 18.7862 18.6201C18.9911 18.5963 19.1996 18.5872 19.407 18.5797C19.4077 18.5424 19.4086 18.505 19.4097 18.4678L19.4129 18.3723C19.4186 18.1902 19.4214 17.9615 19.4807 17.7777ZM20.7358 17.7999L20.629 17.7879C20.3325 17.7541 20.0362 17.7187 19.7397 17.739C19.6968 17.742 19.6532 17.7466 19.6095 17.753C19.662 17.9422 19.6576 18.1644 19.6794 18.3517C19.6879 18.4241 19.6986 18.4959 19.7104 18.5675L19.7619 18.5651C20.08 18.5478 20.3985 18.5372 20.7169 18.5246C20.7169 18.4648 20.7172 18.4049 20.7182 18.3451L20.7193 18.2852C20.723 18.1323 20.7131 17.96 20.7358 17.7999ZM22.2246 17.7757C21.9141 17.8258 21.5932 17.8365 21.2881 17.8368C21.1663 17.837 21.0445 17.8295 20.9228 17.8187C20.9307 17.8835 20.9349 17.9491 20.9408 18.0131C20.9528 18.1422 20.9666 18.2712 20.9815 18.4001L20.9948 18.5128C21.3862 18.4951 21.7775 18.4759 22.1688 18.456L22.224 18.4531L22.2395 18.2364C22.25 18.0919 22.2616 17.9474 22.278 17.8036L22.2657 17.7991C22.2513 17.7932 22.2376 17.785 22.2246 17.7757ZM22.3595 17.8294C22.3766 18.0338 22.3861 18.2389 22.3987 18.4436L22.6566 18.4298C22.6996 18.4275 22.7426 18.4251 22.7856 18.4226C22.9527 18.413 23.1675 18.3623 23.3327 18.4096C23.3454 18.2593 23.3024 18.1129 23.1668 18.0119C22.9288 17.8346 22.6257 17.8977 22.3595 17.8294ZM21.4782 16.003C21.8623 15.7829 22.826 15.558 22.8871 16.2495C22.9151 16.5677 22.6787 16.8314 22.4025 16.949L22.3921 16.9534C22.1331 17.0599 21.6741 17.1802 21.45 16.9492C21.2634 16.757 21.5108 16.4123 21.7426 16.5698C21.8618 16.6507 22.1125 16.591 22.2454 16.5525L22.2537 16.5501C22.3972 16.5079 22.5884 16.373 22.5291 16.1963C22.4766 16.04 22.2533 16.0114 22.1134 16.0063C21.9046 15.9989 21.7014 16.0474 21.4945 16.0631C21.4618 16.0656 21.4516 16.0182 21.4782 16.003ZM23.0693 14.891C23.5906 14.8666 23.9149 15.436 23.795 15.9026C23.7743 15.9831 23.6843 16.0621 23.5974 16.0531L23.5755 16.0511C23.5644 16.05 23.5532 16.0486 23.5429 16.0457C23.4604 16.0229 23.3865 15.937 23.3925 15.848L23.3941 15.8221C23.4062 15.6017 23.3824 15.3478 23.1205 15.2944C22.8985 15.2491 22.7745 15.4629 22.7719 15.6598C22.7714 15.6947 22.7321 15.7191 22.7012 15.7003C22.5407 15.6026 22.5129 15.4082 22.5742 15.2408C22.6519 15.0286 22.8464 14.9014 23.0693 14.891ZM19.2007 15.0131C19.58 14.8865 19.9893 15.0888 20.173 15.4244C20.2375 15.443 20.3018 15.4927 20.2929 15.5688C20.2799 15.6783 20.2605 15.7473 20.1846 15.8303C20.0659 15.9601 19.8437 15.8937 19.7944 15.7339L19.7923 15.7267C19.7362 15.52 19.5089 15.3837 19.3018 15.456C19.0598 15.5405 19.0669 15.7961 18.8971 15.9451C18.8772 15.9626 18.8533 15.9653 18.8294 15.9538C18.6491 15.8667 18.6815 15.6044 18.7458 15.4543C18.8301 15.2573 18.9939 15.0821 19.2007 15.0131ZM18.684 13.8607C18.9914 13.5469 19.793 13.2432 20.0033 13.8227C20.0434 13.9331 19.9581 14.0819 19.8432 14.1048C19.6551 14.1422 19.4882 14.0605 19.3014 14.0752C19.1501 14.0871 18.9923 14.1377 18.8714 14.2314C18.5364 14.4911 18.4628 14.9302 18.2294 15.2606C18.218 15.2767 18.1959 15.27 18.1938 15.251C18.1407 14.7699 18.3473 14.2043 18.684 13.8607ZM22.6932 13.5517C22.8972 13.4797 23.1283 13.4858 23.3333 13.5498C23.5399 13.6142 23.7295 13.7366 23.8756 13.8965C23.9419 13.969 24.0033 14.0491 24.0525 14.1344C24.0786 14.1796 24.1061 14.2729 24.1358 14.3285C24.2965 14.4213 24.3652 14.6328 24.2213 14.7833L24.2148 14.7899L24.1956 14.809C24.1182 14.8856 24.0016 14.9188 23.896 14.8882C23.6598 14.8198 23.6311 14.6336 23.5493 14.4361C23.4953 14.3056 23.4027 14.1901 23.2905 14.1053C23.0253 13.9049 22.5905 13.841 22.2712 13.9355C22.2542 13.9405 22.2343 13.9188 22.2464 13.9031C22.3069 13.8247 22.3417 13.7604 22.4227 13.6971C22.505 13.6329 22.5947 13.5866 22.6932 13.5517Z" fill="black"/>
<path fill-rule="evenodd" clip-rule="evenodd" d="M23.6873 13.6514C24.422 13.6514 24.8412 13.8094 24.9948 13.8217L24.9994 13.8221C25.0633 13.8261 25.1207 13.8315 25.1808 13.8548C25.4019 13.94 25.438 14.172 25.3089 14.3182C25.2999 14.6208 25.3396 14.9743 25.2714 15.2779C25.1872 16.5576 24.5856 16.7736 24.2436 16.8524C24.072 16.892 23.8685 16.9077 23.6861 16.866C23.375 16.8544 23.0674 16.7569 22.8043 16.5873C22.4378 16.3508 22.1656 15.9874 22.0773 15.556C22.0354 15.3504 22.0158 15.1364 22.0386 14.9274L22.042 14.8986C21.9229 14.8416 21.7848 14.8309 21.6425 14.8258C21.5746 14.8234 21.5076 14.8212 21.4425 14.8241C21.3789 14.8312 21.316 14.8407 21.2529 14.8536C21.1841 14.8744 21.1191 14.9087 21.059 14.963L21.0549 15.0423C21.0436 15.2404 21.0176 15.439 20.9775 15.6334C20.9183 15.9201 20.8231 16.1939 20.6204 16.3973C20.5518 16.4998 20.4669 16.5913 20.3639 16.6706C19.9895 16.9589 19.4809 17.0648 19.0142 17.0249C18.0665 16.944 17.5188 16.1914 17.3925 15.8698L17.385 15.8503C17.2938 15.6111 17.2211 15.3009 16.933 15.2495L16.8717 15.2385C16.7402 15.2138 16.6189 15.1794 16.5418 15.0511C16.508 14.995 16.4906 14.9324 16.4864 14.8685C16.4414 14.8719 16.3965 14.8752 16.3517 14.8785C15.9946 14.954 13.8529 15.018 13.682 15.018C13.682 15.018 13.3534 15.1564 13.2146 15.0492C13.1185 14.9747 13.0868 14.8753 13.1398 14.7628C13.2196 14.5934 13.5881 14.4915 13.7518 14.4593C13.7518 14.4593 16.3923 14.4812 16.5823 14.4452C16.6999 14.3239 16.9103 14.3405 17.086 14.3213C17.2315 14.2175 17.435 14.148 17.5958 14.1015C17.6286 14.089 17.661 14.077 17.6926 14.0657C17.9873 13.9607 18.2937 13.9051 18.6048 13.8752C18.9255 13.8447 19.2472 13.8585 19.5661 13.9022C19.7005 13.9205 19.8336 13.944 19.9658 13.9749C20.2025 14.0061 20.4378 14.0575 20.6745 14.1185L20.7219 14.1308C20.9712 14.1962 21.2275 14.2528 21.4856 14.2085C21.6957 14.1726 21.8978 14.0917 22.0915 14.0042L22.1167 13.9928C22.5427 13.7982 23.208 13.6514 23.6873 13.6514ZM19.9401 14.3628C19.783 14.3282 19.7158 14.5707 19.8735 14.6054C19.9852 14.6299 20.0798 14.6862 20.1437 14.7817L20.1505 14.7921C20.2363 14.9286 20.4532 14.8026 20.3668 14.6651C20.2696 14.5104 20.1186 14.4021 19.9401 14.3628ZM24.5438 14.2125C24.4884 14.1735 24.4045 14.2025 24.3723 14.2576C24.3369 14.3184 24.3601 14.386 24.412 14.4258L24.4173 14.4297C24.4649 14.4632 24.5113 14.5234 24.5171 14.585L24.5176 14.5928C24.5239 14.7541 24.7745 14.7549 24.7682 14.5928C24.7621 14.4341 24.6703 14.3016 24.5438 14.2125Z" fill="black"/>
</svg>
