<svg width="39" height="48" viewBox="0 0 39 48" fill="none" xmlns="http://www.w3.org/2000/svg">
<path fill-rule="evenodd" clip-rule="evenodd" d="M20.407 19.0902C22.0864 18.9699 24.3889 19.3029 24.8746 21.2185C25.0252 21.9155 25.322 22.2215 25.8207 22.6774C28.9859 26.7302 17.9425 27.4114 17.3748 23.4594C16.1788 23.8951 14.8769 23.9874 13.6802 24.4278C13.0311 24.6677 12.4426 25.0462 11.8786 25.4419C9.57878 27.076 7.31152 28.7567 5.01991 30.4025C5.9067 30.811 7.59271 32.3708 6.9057 33.4189C6.74566 33.623 6.5081 33.7638 6.29796 33.913L6.18715 33.9922C5.94876 34.1631 5.54746 34.4544 5.32554 34.6127L5.28462 34.6425C5.26857 34.6541 5.25047 34.6671 5.23412 34.6788C6.83443 37.0194 8.70733 39.1791 10.7848 41.1073C10.9617 41.2718 10.8893 41.6397 10.6332 41.6825L10.3282 41.7273C9.34336 41.8708 8.33978 41.9999 7.3473 41.922C6.38069 41.8168 5.79822 40.9608 5.13744 40.3408C3.81791 38.9915 2.58958 37.5523 1.47077 36.0319L1.44748 35.9998C1.09927 35.5238 0.637085 35.0373 0.60326 34.4226C0.54157 34.2378 0.703917 33.973 0.859911 33.847L0.913166 33.7701C1.74983 32.5663 2.69673 31.4055 3.88307 30.5337C3.87866 30.4038 3.93869 30.2673 4.05756 30.1812L9.01556 26.5918C10.2948 25.7111 11.4838 24.6761 12.8704 23.9649C14.2883 23.282 15.8883 23.2551 17.3413 22.6852C17.3721 22.2744 18.2354 22.1695 18.2081 22.233C19.119 21.683 19.588 21.0285 19.7326 20.4271C19.8772 19.8256 19.6975 19.2771 20.407 19.0902ZM32.6678 31.9769C34.2008 29.6692 35.6622 32.2225 36.3004 33.7613C37.0545 35.8672 35.4929 38.4578 34.484 40.2732C34.1124 40.7774 33.6237 41.8409 32.9688 41.918C31.3187 41.9112 29.6663 41.795 28.0153 41.7604C26.9492 41.4958 28.4449 39.893 29.4782 40.4785C29.7912 40.5956 29.9476 40.9512 30.2529 41.0653C30.3641 41.089 30.3718 41.0394 30.417 40.9286L30.4234 40.9131C30.5041 40.7214 30.5823 40.5286 30.6617 40.3364C31.334 38.6803 32.0446 37.0389 32.7512 35.3982C32.9022 35.0419 32.6904 34.7484 32.4152 34.5364C32.2045 34.3629 31.2986 33.9393 32.1521 34.1257C31.8235 33.3626 32.2184 32.588 32.6678 31.9769ZM28.8615 28.8179C29.0091 28.7995 29.1987 28.9483 29.2214 29.0924C29.4097 30.2875 29.1999 31.4689 28.9484 32.6379L28.9022 32.8519C28.8094 33.2783 28.7057 33.713 28.4744 34.0867C28.2383 34.4681 27.8812 34.7555 27.4711 34.9303C26.1558 35.4546 24.52 34.9361 23.5524 33.9557C22.9334 33.1075 23.4776 32.0419 23.5814 31.1122C23.4832 30.8617 23.447 30.572 23.3903 30.3137L23.3833 30.2829L23.1627 29.3194C23.1141 29.1068 23.2689 28.816 23.5233 28.8452C25.2971 29.0487 27.0899 29.0396 28.8615 28.8179Z" fill="#D08B5B"/>
<rect x="23.0625" y="28.8691" width="6.22848" height="6.26223" fill="#FDEA6B"/>
<path fill-rule="evenodd" clip-rule="evenodd" d="M35.0558 31.6755C35.0504 31.6518 35.0789 31.6336 35.0974 31.6514C35.4094 31.9523 35.6298 32.3368 35.8717 32.6931C36.1021 33.0325 36.3528 33.3588 36.5246 33.7333C36.6842 34.0815 36.7872 34.4347 36.8179 34.8173C36.8486 35.1971 36.8088 35.5779 36.7418 35.952C36.6101 36.6891 36.3284 37.387 36.0191 38.0649C35.7185 38.7239 35.3788 39.3642 35.02 39.9928L34.8915 40.2172C34.7346 40.4904 34.5761 40.7632 34.4063 41.0279C34.195 41.3573 34.0022 41.6973 33.7237 41.9722C33.5259 42.1679 33.1531 41.9722 33.2432 41.6926C33.2824 41.5708 33.313 41.4562 33.3738 41.3431C33.4198 41.257 33.4717 41.1734 33.5206 41.0886C33.6182 40.9189 33.7149 40.7486 33.8126 40.5789C34.0176 40.2222 34.2335 39.8722 34.4367 39.5143C34.7891 38.8937 35.1218 38.2615 35.416 37.6109L35.4506 37.5341C35.7214 36.9316 35.9779 36.3075 36.0968 35.6558C36.222 34.9692 36.1099 34.322 35.8661 33.6766C35.74 33.3428 35.5982 33.0166 35.4508 32.6916L35.4224 32.6295C35.2801 32.3193 35.1291 32.0107 35.0558 31.6755ZM19.9024 19.7986C19.9052 19.7864 19.9259 19.7854 19.9277 19.7986C20.0154 20.3816 19.8204 20.9984 19.5027 21.4834C19.3293 21.7483 19.1155 21.9875 18.8636 22.1798L18.844 22.1946C18.5866 22.3871 18.2388 22.573 17.9193 22.4482C17.9093 22.4443 17.8999 22.44 17.8911 22.435C17.9271 22.4907 17.9603 22.5493 17.9941 22.6078C18.0946 22.7822 18.1847 22.9629 18.2827 23.1389C18.458 23.4535 18.6667 23.735 18.9306 23.9814C19.9856 24.9666 21.4671 25.2007 22.8584 25.1895L22.9567 25.1886C23.5678 25.1843 24.3671 25.2155 24.8389 24.773C25.0924 24.5354 25.232 24.1975 25.3581 23.8803C25.4821 23.5694 25.5669 23.2484 25.6698 22.9322C25.4548 22.7848 25.2576 22.6047 25.1027 22.3943C24.9412 22.1751 24.8191 21.9284 24.7487 21.665L24.7383 21.6257C24.6839 21.4157 24.6291 21.1379 24.7168 20.9396C24.7268 20.9167 24.7644 20.9183 24.775 20.9396C24.8223 21.0344 24.8313 21.1415 24.8605 21.243C24.8943 21.361 24.9324 21.4784 24.9828 21.5902C25.0802 21.8069 25.2088 22.0129 25.3631 22.1933C25.4905 22.3426 25.6285 22.4798 25.7863 22.595C25.8792 22.4344 26.0949 22.4128 26.2755 22.4657C26.5176 22.5364 26.7563 22.6272 26.9897 22.7232L27.0364 22.7425C27.267 22.8383 27.5277 22.9263 27.7437 23.0568C27.8749 23.1194 28.0007 23.1824 28.119 23.2381C28.7085 23.5152 29.2893 23.8091 29.8674 24.1088L29.9913 24.1731C30.2335 24.2993 30.4736 24.4267 30.6842 24.6027C30.8986 24.7818 31.0652 25.0266 31.2216 25.2561C31.5794 25.7809 31.9165 26.3207 32.2702 26.8483C32.9844 27.9129 33.6986 28.9775 34.417 30.0395C34.5907 30.2966 34.7866 30.5474 34.9425 30.8154C35.0918 31.0716 35.0877 31.3346 35.0586 31.6204L35.0531 31.6729C34.9973 32.1973 34.9014 32.7009 34.6073 33.1506C34.1443 33.8576 33.4151 34.2978 32.6436 34.6009C32.7378 34.6711 32.8263 34.7468 32.9387 34.7951C33.1115 34.869 33.2958 34.9072 33.4827 34.9225C33.6821 34.9385 33.9068 34.8887 34.0683 35.0243C34.1331 35.0784 34.1349 35.2087 34.0683 35.2629C33.913 35.3896 33.7123 35.3533 33.5231 35.3321L33.5118 35.3308C33.3362 35.3114 33.1631 35.2788 32.9982 35.2143C32.9575 35.1983 32.9171 35.1805 32.878 35.1608C32.8792 35.1642 32.8799 35.1683 32.8792 35.1727C32.8511 35.3884 32.79 35.5924 32.7255 35.7985L32.6846 35.9292C32.6013 36.1959 32.5174 36.4621 32.431 36.7282C32.2666 37.2349 32.0876 37.7367 31.9079 38.238L31.7528 38.6705C31.5935 39.1142 31.4321 39.5573 31.2539 39.9937C31.1437 40.2629 31.0329 40.5322 30.9224 40.8012C30.8144 41.0639 30.7246 41.3475 30.5907 41.5977C30.4805 41.8038 30.18 41.6562 30.2282 41.4446C30.2914 41.1669 30.4107 40.8913 30.5018 40.6211C30.5944 40.3468 30.6852 40.0722 30.7794 39.7986C30.9432 39.3232 31.1247 38.8541 31.3071 38.3854L31.4879 37.9209C31.6652 37.4657 31.8446 37.011 32.0364 36.5617L32.0573 36.5124C32.2565 36.0425 32.4622 35.514 32.8241 35.1499C32.8288 35.1448 32.8354 35.1423 32.842 35.1417C32.7531 35.0935 32.6698 35.0349 32.5966 34.9657L32.593 34.9621C32.5641 34.9314 32.4445 34.7803 32.406 34.6899C32.3559 34.7077 32.3058 34.7249 32.2558 34.7418C32.1684 34.7713 32.0961 34.75 32.0451 34.7033L31.9479 34.7635C31.844 34.8269 31.7323 34.8872 31.6176 34.8902C31.473 34.894 31.3594 34.8142 31.2821 34.6964C31.2126 34.5912 31.1713 34.4776 31.0833 34.3833C30.9968 34.2907 30.8967 34.2125 30.7945 34.1379L30.6739 34.0501C30.4528 33.8886 30.2385 33.7255 30.0605 33.5122C29.9709 33.4045 29.8511 33.2768 29.7966 33.1474C29.786 33.1225 29.7794 33.099 29.7781 33.0761C29.7662 33.1569 29.754 33.238 29.7418 33.3187C29.5709 34.4557 29.4329 35.6004 29.3888 36.7501C29.3672 37.3171 29.3575 37.8848 29.3828 38.4522C29.3954 38.7356 29.416 39.0186 29.4445 39.3011C29.4586 39.4426 29.4733 39.5838 29.4905 39.7247L29.4945 39.7573C29.4995 39.8005 29.5027 39.8423 29.499 39.8819C29.6367 39.9498 29.7159 40.1214 29.7709 40.2554C29.8129 40.3575 29.7803 40.4567 29.7127 40.5284C29.7935 40.602 29.8655 40.6884 29.9259 40.7874C29.9381 40.8074 29.9118 40.8231 29.8961 40.8106C29.7969 40.7317 29.6902 40.6668 29.5788 40.6171C29.5202 40.6393 29.4564 40.6452 29.3975 40.629C29.3337 40.6114 29.2786 40.5688 29.2389 40.5147C28.9224 40.4627 28.5935 40.5263 28.3087 40.7245C28.2495 40.7658 28.196 40.8124 28.145 40.8631C28.1362 40.872 28.1271 40.8832 28.118 40.8942L28.1802 40.918C28.2059 40.9278 28.2271 40.9355 28.2351 40.9371C28.2894 40.9481 28.3444 40.954 28.3995 40.9588L28.4821 40.9656C28.7991 40.9919 29.1152 41.0006 29.4101 41.1334C29.472 41.1612 29.4504 41.2567 29.3919 41.2727C29.1766 41.3311 28.963 41.3266 28.7438 41.311L28.6968 41.3075C28.493 41.2918 28.2742 41.2928 28.0755 41.2364C28.1231 41.3666 28.0583 41.5367 27.8595 41.5633C27.2626 41.6428 26.662 41.6053 26.0645 41.5526C25.4611 41.4994 24.858 41.449 24.2529 41.4174C22.2959 41.3144 20.3359 41.3342 18.3772 41.3621L17.2703 41.3782C16.3875 41.3906 15.5046 41.4003 14.6219 41.3936L14.2087 41.3897C14.0341 41.388 13.8594 41.3859 13.6849 41.3808L13.5803 41.3773C13.3725 41.3698 13.0974 41.4011 12.9168 41.278C12.7678 41.1766 12.7346 40.9906 12.8245 40.8407C12.8504 40.7974 12.8861 40.7589 12.9234 40.7213C12.9997 40.0685 13.0426 39.4125 13.0864 38.7569C13.2385 36.4624 13.1497 34.1798 12.7988 31.9085C11.8573 32.1963 10.9303 32.5573 10.027 32.9446C9.53839 33.154 9.05232 33.3713 8.57188 33.5993C8.13338 33.8075 7.69301 34.0677 7.22446 34.203C7.18187 34.2408 7.12232 34.2588 7.0695 34.242L7.06265 34.2396H7.06234C7.01414 34.2509 6.96061 34.244 6.90803 34.2124C6.89739 34.2059 6.88675 34.1994 6.87611 34.1928L6.86014 34.1826C6.6952 34.0787 6.52931 33.9506 6.41257 33.794C6.27079 33.9256 6.11836 34.0461 5.96844 34.1682C5.80568 34.301 5.64356 34.4344 5.48268 34.569C5.41883 34.6225 5.34841 34.6736 5.29207 34.7353L5.28389 34.7443C5.28258 34.7458 5.28132 34.7473 5.28018 34.7487C5.52399 34.9065 5.73745 35.1461 5.92869 35.3543C6.13404 35.5777 6.33229 35.8083 6.52893 36.0398L6.71928 36.2644C8.06533 37.8545 9.42515 39.5022 11.1678 40.6709C11.4432 40.8557 11.1806 41.3056 10.9071 41.1168C10.3894 40.7602 9.89958 40.3641 9.42916 39.9473C8.60474 39.2175 7.86296 38.3987 7.16844 37.5454C6.81695 37.1136 6.47579 36.6713 6.14152 36.226L6.02807 36.075C5.87688 35.8735 5.7265 35.6715 5.58252 35.4648L5.5524 35.4215C5.42611 35.2392 5.29181 35.0344 5.21038 34.8245C5.17908 34.8561 5.14371 34.8827 5.09207 34.9028C5.00381 34.9372 4.89551 34.8649 4.87392 34.7788C4.82133 34.5699 5.00287 34.4456 5.1506 34.3348C5.32994 34.2008 5.51273 34.0715 5.69583 33.9428L5.76123 33.8965C5.9902 33.7341 6.22037 33.5673 6.46985 33.439C6.47736 33.429 6.48644 33.4196 6.49676 33.4114C6.50866 33.402 6.52024 33.393 6.53213 33.3839C6.23417 32.9004 5.90741 32.4358 5.54277 31.9968C5.2686 31.6665 4.97752 31.3511 4.66953 31.0524L4.53118 30.9184C4.3219 30.7162 4.1043 30.5112 3.87204 30.3354L3.79933 30.4179C3.70224 30.5277 3.60418 30.6368 3.50052 30.74C3.29645 30.9429 3.0952 31.1498 2.89489 31.3568C2.56222 31.7011 2.24083 32.056 1.92045 32.4115L1.7603 32.5892C1.42666 32.9596 1.06922 33.3231 0.765935 33.7189L0.750789 33.7389C0.618381 33.9166 0.524126 34.1132 0.585654 34.3389C0.645021 34.5564 0.786169 34.7494 0.907829 34.9372L0.919926 34.956C1.41664 35.73 1.94872 36.4843 2.51867 37.2061C3.66014 38.6517 4.96218 40.0218 6.51586 41.0269C6.73119 41.1663 6.52994 41.5126 6.31429 41.3717C5.40694 40.7783 4.57345 40.0657 3.80662 39.3004C3.10271 38.5981 2.46484 37.8247 1.86703 37.031C1.57564 36.6437 1.29645 36.2482 1.02885 35.844C0.769378 35.4517 0.469222 35.0481 0.281115 34.6153C0.182531 34.3877 0.146217 34.1413 0.226968 33.9014C0.301023 33.681 0.447478 33.498 0.599837 33.3258L0.614136 33.3097C0.96437 32.9161 1.32086 32.5272 1.68049 32.1421C2.04137 31.7557 2.41883 31.3831 2.80412 31.0214C3.10678 30.7368 3.42227 30.486 3.75968 30.2537C3.72932 30.2321 3.69896 30.2114 3.66797 30.1914C3.57376 30.13 3.54997 29.9988 3.6326 29.9155C3.85827 29.6876 4.11836 29.4894 4.36312 29.2818C4.59316 29.0867 4.82321 28.8913 5.05326 28.696C5.52149 28.2989 5.98972 27.9016 6.45795 27.5043C7.29895 26.7907 8.13526 26.0721 8.97345 25.3554C9.32295 25.0566 9.67572 24.7616 10.0276 24.4657L10.6527 23.9394L10.9585 23.6826C11.1151 23.5513 11.2751 23.4215 11.4533 23.3214C11.8724 23.0859 12.3764 22.9839 12.8382 22.8592L12.8689 22.8508C13.3869 22.709 13.9077 22.5756 14.4313 22.4566C14.9556 22.3376 15.4821 22.2293 16.0107 22.1312C16.4858 22.043 16.9722 21.9672 17.4567 21.9559C17.5769 21.9102 17.7277 21.8942 17.8461 21.9431C17.8949 21.9634 17.9459 21.9932 17.9913 22.0308C18.2282 21.9475 18.462 21.9077 18.6833 21.7668C18.9043 21.6262 19.0999 21.4415 19.2645 21.238C19.6047 20.8165 19.7828 20.3187 19.9024 19.7986ZM25.3487 34.0699C25.1609 34.0568 24.9919 34.1344 24.8242 34.2171C24.9187 34.2581 25.0132 34.2988 25.1077 34.3392L25.7368 34.6078C25.9447 34.6964 26.1647 34.7735 26.3622 34.8827C26.3763 34.8905 26.3875 34.9 26.396 34.9109C26.6013 34.7794 26.8185 34.662 27.0267 34.5371C27.0742 34.5086 27.1221 34.4801 27.17 34.4516C26.9221 34.5346 26.668 34.5762 26.3988 34.4982C26.0398 34.3946 25.7281 34.0965 25.3487 34.0699ZM25.8633 33.4399L25.8295 33.417C25.6474 33.292 25.43 33.1313 25.2088 33.2436C25.1046 33.2965 25.0191 33.382 24.9165 33.439C24.8132 33.4966 24.6996 33.5407 24.5844 33.5674C24.3932 33.6115 24.1741 33.6181 23.9684 33.5755L23.9716 33.8535C24.1271 33.9177 24.2817 33.9835 24.4364 34.0499C24.5367 34.0155 24.6334 33.9743 24.7349 33.929L24.8035 33.8983C24.9991 33.8103 25.1966 33.7515 25.4129 33.7793C25.8201 33.8316 26.1277 34.1344 26.5171 34.2352C26.9944 34.3592 27.4251 34.0029 27.8761 33.9149C27.9505 33.9003 28.0271 33.8917 28.1033 33.8903L28.1287 33.8902L28.14 33.8836C28.237 33.8266 28.3822 33.7722 28.4498 33.6763C28.5234 33.5724 28.5296 33.3983 28.5537 33.2762C28.5562 33.2639 28.5587 33.2514 28.5609 33.2392C28.5184 33.2392 28.4752 33.2414 28.4313 33.2495C28.2936 33.2749 28.1641 33.3238 28.0357 33.3783C27.7932 33.4812 27.5559 33.5987 27.3005 33.6672C27.0504 33.7345 26.7891 33.7665 26.5315 33.7292C26.2802 33.6929 26.0714 33.5796 25.8633 33.4399ZM25.9025 32.4623L25.8648 32.438C25.7653 32.3746 25.6512 32.3088 25.5293 32.3321C25.4204 32.3531 25.3268 32.4398 25.232 32.4934C25.0238 32.6108 24.7903 32.675 24.5522 32.6913C24.354 32.7047 24.1484 32.6806 23.9578 32.6218L23.9644 33.2374C24.0342 33.2596 24.1065 33.2755 24.1825 33.2812C24.4135 33.2984 24.6389 33.243 24.8326 33.1155L24.9306 33.0504C25.0983 32.9402 25.2557 32.8527 25.4777 32.8929C25.6974 32.933 25.8817 33.0739 26.0614 33.1966L26.0909 33.2164C26.2972 33.3527 26.5063 33.4406 26.7594 33.4427C27.0326 33.4449 27.3027 33.3688 27.5572 33.2752C27.8098 33.1826 28.0498 33.0714 28.3199 33.0373C28.4026 33.0269 28.5033 33.0238 28.5982 33.0401C28.6107 32.9702 28.6226 32.9008 28.6339 32.8309C28.6583 32.6809 28.6792 32.5313 28.6974 32.3813C28.2182 32.2523 27.7756 32.6697 27.3306 32.7983C27.0724 32.8729 26.7913 32.872 26.5331 32.7999C26.2941 32.7332 26.1063 32.5948 25.9025 32.4623ZM25.9036 31.4257C25.8013 31.4059 25.7002 31.4532 25.6132 31.5018C25.3913 31.6248 25.1997 31.7961 24.9484 31.8609C24.6251 31.9442 24.2714 31.8725 23.9503 31.7363C23.9515 31.9263 23.9531 32.1164 23.9547 32.3065C24.0151 32.3293 24.077 32.3478 24.1403 32.3625C24.365 32.4138 24.6032 32.407 24.8245 32.3421C25.0501 32.276 25.2232 32.0976 25.4495 32.0419C25.6809 31.9847 25.899 32.0959 26.0855 32.2224L26.1416 32.2607C26.3548 32.4054 26.5615 32.5311 26.8282 32.5557C27.1102 32.5817 27.3553 32.4934 27.6072 32.3763L27.6659 32.3491C27.9849 32.2026 28.399 32.0357 28.7174 32.2025C28.7425 31.9658 28.7606 31.7291 28.7728 31.492C28.729 31.4758 28.6836 31.4639 28.6313 31.4636C28.5065 31.463 28.3753 31.5024 28.2589 31.5434C28.0044 31.6333 27.7675 31.7672 27.5155 31.8634C27.2767 31.9548 27.0123 32.0024 26.7575 31.9614C26.5215 31.9235 26.3443 31.8002 26.1813 31.6311L26.1576 31.6061C26.0861 31.53 26.0096 31.4462 25.9036 31.4257ZM26.0905 30.5468C25.9725 30.4845 25.8288 30.4265 25.6924 30.4447C25.5622 30.4619 25.4754 30.5502 25.3952 30.6447L25.3518 30.6964C25.2084 30.8661 25.0672 31.0089 24.8461 31.0787C24.6169 31.1508 24.3741 31.1226 24.1609 31.0171C24.0852 30.9795 24.0148 30.9328 23.944 30.8868L23.9478 31.3862C24.0893 31.4566 24.2332 31.5202 24.3913 31.5587C24.683 31.6298 24.9309 31.5772 25.1803 31.4163L25.2065 31.3992C25.3944 31.2758 25.5871 31.1288 25.8191 31.1151C26.0456 31.1015 26.2156 31.2271 26.3648 31.3808L26.3822 31.3991C26.5703 31.5975 26.7603 31.6943 27.0401 31.6715C27.3114 31.6493 27.5653 31.5295 27.8138 31.4262L27.8364 31.4169C28.0636 31.3236 28.3256 31.2275 28.575 31.2632C28.6348 31.2716 28.7121 31.2901 28.781 31.3223C28.791 31.0887 28.7957 30.8549 28.7966 30.6207C28.6548 30.4976 28.4342 30.4773 28.2567 30.5277C27.9788 30.6066 27.7512 30.8101 27.4858 30.9206C27.2504 31.0186 27.0051 31.0405 26.765 30.9478C26.5171 30.852 26.3227 30.6695 26.0905 30.5468ZM28.781 29.563C28.3656 29.5774 27.9594 29.8476 27.5628 29.9506C27.1198 30.0656 26.7583 29.9088 26.3637 29.7348L26.3127 29.7124C26.1102 29.6234 25.8927 29.5436 25.6683 29.5799C25.4495 29.6156 25.2561 29.7367 25.068 29.8463L25.0319 29.8671C24.6892 30.0623 24.3403 30.1959 23.9403 30.1625C23.9425 30.2881 23.9415 30.4134 23.9418 30.5361C24.0076 30.5737 24.0708 30.6163 24.1309 30.6551L24.1524 30.6688C24.3432 30.7881 24.5398 30.8665 24.7672 30.7929C24.9869 30.7215 25.0902 30.5302 25.2411 30.3727C25.3797 30.228 25.5606 30.1401 25.7634 30.1485C25.9816 30.1572 26.1878 30.2534 26.3681 30.3708C26.5484 30.4882 26.7227 30.64 26.9337 30.6989C27.4069 30.8304 27.8123 30.3298 28.2598 30.2518C28.4476 30.2189 28.6548 30.2606 28.7966 30.3739C28.795 30.104 28.7891 29.8335 28.781 29.563ZM25.206 29.4496C25.1475 29.4518 25.0889 29.4543 25.0304 29.4568C24.8138 29.4662 24.5972 29.4769 24.3806 29.4891C24.2307 29.4972 24.0464 29.5432 23.8993 29.4975C23.8955 29.5126 23.8905 29.527 23.8839 29.5411C23.9062 29.6519 23.9199 29.7665 23.9284 29.8823C24.0642 29.8971 24.2022 29.892 24.3362 29.8642C24.6576 29.7975 24.9187 29.5946 25.206 29.4496ZM28.7747 29.3566C27.9838 29.4111 27.1868 29.3924 26.3946 29.4095L26.2996 29.4117C26.2958 29.4117 26.2921 29.4121 26.2883 29.4121C26.3792 29.4473 26.4693 29.4876 26.5591 29.5287L26.6489 29.5699C26.8611 29.6675 27.077 29.7474 27.3146 29.7302C27.5691 29.7117 27.8088 29.6078 28.0467 29.5238C28.2736 29.4437 28.5349 29.3898 28.7769 29.4249C28.7763 29.402 28.7756 29.3795 28.7747 29.3566Z" fill="black"/>
<path fill-rule="evenodd" clip-rule="evenodd" d="M27.0495 11.0743C26.0196 9.61188 23.4316 9.44714 21.796 9.45641C18.5658 9.42944 17.8895 13.1516 17.7208 15.7598C17.3763 15.8185 17.0412 15.9389 16.8139 16.2104C16.537 16.5409 16.4414 17.1082 16.701 17.4779C16.8733 17.7233 17.1455 17.8054 17.4303 17.819C18.3732 17.7288 18.5666 18.5714 19.031 19.2032C20.2227 20.8172 22.2872 21.3407 24.1807 21.3488C24.8238 21.3659 25.5986 21.4143 26.0105 20.8077C27.3114 18.5471 27.3397 15.549 27.4199 12.9873C27.4309 12.3315 27.4281 11.6372 27.0495 11.0743Z" fill="#D08B5B"/>
<path fill-rule="evenodd" clip-rule="evenodd" d="M29.2726 12.3422C29.2856 12.3669 29.2953 12.3944 29.3006 12.4242C29.3176 12.5189 29.2828 12.5913 29.2371 12.6617C29.2431 12.7107 29.2464 12.7582 29.249 12.8C29.2636 13.0347 29.2099 13.3565 29.0035 13.4523L28.9936 13.4639C28.9777 13.4899 28.9534 13.5123 28.9214 13.5287C28.9135 13.5343 28.9054 13.5395 28.8973 13.5441C28.8952 13.5459 28.893 13.5475 28.8907 13.5491C28.889 13.5503 28.8874 13.5515 28.8858 13.5528C28.8883 13.5502 28.8907 13.5475 28.8931 13.5448C28.8949 13.5428 28.8967 13.5409 28.8985 13.5389C28.7843 13.5846 28.674 13.594 28.5563 13.5801C28.4836 13.6065 28.4106 13.6262 28.3491 13.6414C28.157 13.689 27.9092 13.7271 27.722 13.646C27.6674 13.6224 27.6222 13.5911 27.5881 13.5538C27.591 13.6991 27.5952 13.8443 27.6015 13.9896C27.6143 14.3569 27.6137 14.7239 27.6108 15.0915C27.6077 15.5051 27.5962 15.919 27.574 16.3323C27.5637 16.5399 27.5471 16.7472 27.525 16.9538C27.5062 17.1552 27.4844 17.3562 27.4591 17.5566C27.3994 17.9686 27.301 18.3838 27.1811 18.7821C27.1289 18.9549 27.0718 19.13 27.0068 19.3009C26.9793 19.3795 26.9503 19.4572 26.9187 19.5342C26.7523 19.9378 26.5449 20.3273 26.2647 20.6636C26.1117 20.8471 25.9427 21.0121 25.7541 21.1508C25.6026 21.2691 25.4386 21.3693 25.2584 21.4482C24.8711 21.618 24.4388 21.6562 24.02 21.6499C23.8602 21.6477 23.6909 21.6194 23.5325 21.593L23.5228 21.5913C23.3991 21.571 23.2738 21.5437 23.1499 21.5118C23.0399 21.4861 22.9312 21.4564 22.8241 21.4216C22.6951 21.3875 22.5714 21.3383 22.4537 21.2748L22.245 21.1962C22.1579 21.1633 22.0733 21.1242 21.9911 21.0794L21.7644 20.9733C21.6704 20.9279 21.5788 20.8781 21.4895 20.8233C21.4801 20.8183 21.4695 20.8098 21.4655 20.8004C21.4558 20.7951 21.4461 20.7898 21.4364 20.7845C21.4228 20.7772 21.4093 20.7699 21.3958 20.7622C21.3921 20.7603 21.3949 20.7494 21.3999 20.7387C21.3958 20.7303 21.3964 20.7209 21.4077 20.7124C21.4161 20.7059 21.4295 20.7077 21.4436 20.7121C21.4424 20.7112 21.4414 20.7102 21.4405 20.7093L21.4405 20.7093C21.4355 20.7066 21.4306 20.704 21.4257 20.7013C21.4152 20.6957 21.4047 20.69 21.3943 20.6843C21.3786 20.6758 21.3761 20.6539 21.3908 20.6423C21.3949 20.6392 21.3996 20.6376 21.4042 20.6373L21.4033 20.637C21.4005 20.6351 21.4027 20.6263 21.4067 20.6166C21.3989 20.6066 21.3964 20.5944 21.4102 20.5837C21.429 20.5689 21.4713 20.5932 21.491 20.6045C21.4925 20.6054 21.4939 20.6062 21.4951 20.6069C21.5074 20.6137 21.5198 20.6203 21.5321 20.6269C21.5396 20.6309 21.5471 20.6348 21.5545 20.6388C21.5557 20.636 21.5582 20.6335 21.5623 20.631C21.5332 20.6157 21.5045 20.6 21.4758 20.5844C21.458 20.575 21.4349 20.5552 21.4583 20.5368C21.477 20.5217 21.5254 20.5474 21.5485 20.5606C21.5514 20.5584 21.5545 20.5574 21.5582 20.5568C21.5542 20.5545 21.5501 20.5523 21.5459 20.5501C21.5398 20.5468 21.5336 20.5435 21.5276 20.5399C21.4995 20.5243 21.5186 20.4754 21.5476 20.4917L21.5579 20.4979C21.5778 20.4962 21.6053 20.5116 21.6195 20.5196L21.6216 20.5208C21.7194 20.5825 21.8212 20.6363 21.9268 20.6827C21.998 20.7165 22.0695 20.75 22.1413 20.7826C22.2119 20.8176 22.2847 20.848 22.3594 20.8737C22.5471 20.947 22.7366 21.0152 22.9281 21.0785C23.1964 21.152 23.4741 21.2112 23.7527 21.2344C23.7889 21.2372 23.8251 21.2397 23.8613 21.241C23.901 21.2406 23.9407 21.2404 23.9803 21.2402C24.0199 21.2399 24.0595 21.2397 24.099 21.2394C24.2388 21.2249 24.3785 21.2107 24.518 21.1965L24.5606 21.1921C24.6144 21.1846 24.6668 21.1752 24.7187 21.1643C24.7459 21.1577 24.773 21.1508 24.7999 21.143C24.8046 21.1423 24.8093 21.1415 24.814 21.1407C24.8187 21.1399 24.8233 21.139 24.828 21.1383C24.8939 21.1207 24.9586 21.0998 25.0232 21.0753C25.0638 21.0587 25.1041 21.0412 25.1441 21.0227C25.2762 20.961 25.4061 20.8796 25.5286 20.7863L25.9886 20.3273L26.1288 20.1357C26.31 19.8761 26.4534 19.5868 26.5724 19.2915L26.7616 18.7448C26.7813 18.6791 26.8 18.6133 26.8178 18.5473L26.9256 18.1042C26.9375 18.05 26.949 17.9962 26.9603 17.9423C27.0293 17.607 27.0674 17.2666 27.1002 16.9263C27.1602 16.307 27.1764 15.6857 27.1808 15.0639C27.1836 14.6922 27.1805 14.3206 27.173 13.9492C27.1686 13.7338 27.1655 13.5184 27.1623 13.303C27.1583 13.0744 27.1539 12.8455 27.148 12.6169C27.1477 12.6119 27.1495 12.6075 27.152 12.6038C27.1514 12.5769 27.1511 12.5499 27.1508 12.5227C27.1505 12.5048 27.1573 12.497 27.1673 12.4954C27.1655 12.3323 27.1642 12.1695 27.1639 12.0067C27.1639 11.996 27.1689 11.9891 27.1755 11.9851V11.9437C27.1483 11.8304 27.1114 11.7192 27.0636 11.6134C27.0474 11.5752 27.0293 11.5379 27.0093 11.5016C26.9846 11.4471 26.9525 11.3977 26.9131 11.3523C26.8803 11.2969 26.84 11.2477 26.7932 11.2039L26.7357 11.1625C26.7198 11.1541 26.6963 11.1394 26.6757 11.1224C26.6572 11.111 26.6387 11.0995 26.6202 11.088C26.6017 11.0765 26.5831 11.065 26.5645 11.0536C26.543 11.0423 26.557 11.0141 26.5724 11.0066V11.0057C26.5689 11.0041 26.5652 11.0022 26.5611 10.9988C26.5161 10.9562 26.4693 10.9161 26.4206 10.8785C26.4118 10.882 26.4015 10.8807 26.3937 10.8742C26.365 10.8472 26.3356 10.8212 26.3056 10.7962C26.2385 10.752 26.1682 10.7116 26.0948 10.676C25.9771 10.6202 25.8565 10.5723 25.7328 10.5316C25.7088 10.5237 25.6846 10.5165 25.6605 10.5094L25.6526 10.507C25.638 10.5063 25.6234 10.5056 25.6088 10.5049C25.5854 10.5037 25.562 10.5025 25.5385 10.5015C24.1233 10.4392 22.7043 10.4654 21.2923 10.5796C20.9444 10.6077 20.597 10.6413 20.2501 10.6801C20.1847 10.6874 20.1166 10.6932 20.047 10.699C19.7921 10.7203 19.519 10.7432 19.2985 10.8533C19.2867 10.8592 19.2754 10.8655 19.2643 10.872C19.2833 10.9942 19.329 11.1138 19.3733 11.23C19.3801 11.2477 19.3868 11.2653 19.3934 11.2828C19.4703 11.4874 19.5392 11.696 19.5324 11.9177C19.5276 12.0722 19.4944 12.2208 19.4467 12.366C19.4222 12.5731 19.3579 12.7731 19.2895 12.9696C18.9533 13.9363 18.7702 14.926 18.789 15.9522C18.7895 15.9797 18.7832 16.0036 18.7723 16.0241L18.7729 16.0281C18.7788 16.0716 18.7848 16.1152 18.7918 16.1586C18.8199 16.3315 18.5924 16.4175 18.5139 16.3029C18.5087 16.3081 18.5013 16.3117 18.4946 16.3123C18.4746 16.3142 18.4418 16.2813 18.4324 16.2662C18.4203 16.2437 18.4075 16.2218 18.3937 16.2008C18.3918 16.1999 18.3903 16.1992 18.3887 16.1986L18.414 16.2509C18.4278 16.2785 18.375 16.2919 18.3594 16.2666C18.3453 16.2443 18.3312 16.223 18.3172 16.2027C18.3091 16.2086 18.3 16.2102 18.2941 16.2005C18.2438 16.1172 18.1857 16.0458 18.122 15.9851C18.0217 15.903 17.9121 15.8533 17.7875 15.8241C17.6894 15.81 17.5888 15.8094 17.4917 15.8207C17.3802 15.8338 17.2628 15.8617 17.1619 15.9127C17.0797 15.9694 16.9973 16.0261 16.9148 16.0828C16.8945 16.1041 16.8752 16.1263 16.8571 16.1495C16.7999 16.2237 16.754 16.3029 16.7162 16.3871L16.7115 16.4028C16.6884 16.4735 16.6734 16.5462 16.6668 16.6207C16.6664 16.6678 16.666 16.7149 16.6656 16.7619C16.6652 16.8089 16.6648 16.856 16.6643 16.9031C16.6768 17.0255 16.7081 17.1445 16.7559 17.2576C16.7783 17.3243 16.8136 17.3837 16.8614 17.4363C16.887 17.4808 16.9161 17.5212 16.9486 17.5588C17.0145 17.6026 17.0863 17.6399 17.1628 17.6693C17.1816 17.6743 17.2003 17.6793 17.2194 17.6831C17.3177 17.721 17.4196 17.7413 17.5248 17.7441C17.6579 17.7532 17.7881 17.7416 17.9155 17.7094C17.9942 17.6953 18.0705 17.6724 18.1442 17.6408C18.2147 17.6051 18.2813 17.5622 18.3434 17.5121C18.3503 17.5077 18.3606 17.5102 18.3719 17.5159C18.3742 17.5141 18.3766 17.5124 18.379 17.5107C18.3904 17.5024 18.4017 17.4942 18.4128 17.4852C18.419 17.4808 18.4246 17.4861 18.4274 17.4918L18.4312 17.4889C18.4559 17.472 18.5236 17.525 18.493 17.5563C18.5062 17.5644 18.5193 17.5741 18.5311 17.5841C18.5855 17.5863 18.6951 17.6865 18.6745 17.7022C18.6439 17.7288 18.6117 17.7532 18.5789 17.7764C18.608 17.798 18.6461 17.8315 18.6283 17.845C18.5964 17.8753 18.5617 17.9016 18.5249 17.9242C18.4999 17.9433 18.4743 17.9614 18.4474 17.978C18.4184 17.9952 18.3887 18.01 18.3581 18.0237C18.4115 18.1274 18.4624 18.232 18.5099 18.3384C18.5414 18.4139 18.578 18.4868 18.6202 18.557C18.6739 18.6637 18.7382 18.7639 18.8135 18.8572C18.8747 18.9606 18.9465 19.0554 19.0287 19.1422C19.1302 19.258 19.2392 19.367 19.3551 19.4678C19.4013 19.5007 19.4484 19.5326 19.4975 19.5621C19.6227 19.6566 19.7561 19.7377 19.8976 19.8053C19.9141 19.8144 19.9272 19.8345 19.9079 19.8501C19.9073 19.8504 19.9066 19.8504 19.906 19.8511C19.9522 19.8774 19.9988 19.9034 20.0456 19.929L20.0472 19.9299C20.0661 19.9401 20.1011 19.9591 20.0737 19.9813C20.0556 19.9963 19.9997 19.9694 19.9663 19.9519L19.981 19.96C19.9814 19.9603 19.982 19.9606 19.9827 19.961C19.9965 19.9684 20.0489 19.9966 20.0141 20.0148C19.9956 20.0179 19.9782 20.0148 19.9613 20.0057C19.9438 19.9992 19.9263 19.992 19.9091 19.9844C19.9098 19.9901 19.9066 19.9954 19.8976 19.9998C19.8904 20.001 19.8835 20.001 19.8767 20.0004C19.9148 20.022 19.9529 20.0433 19.9913 20.0643C20.0025 20.0702 20.0556 20.0997 20.0206 20.1178C20.0035 20.1213 19.9869 20.1185 19.971 20.1097C19.9419 20.0987 19.9132 20.0859 19.8854 20.0718L19.8657 20.0608C19.8607 20.0608 19.8557 20.0602 19.8507 20.0593C19.8813 20.0759 19.9123 20.0918 19.9435 20.1075C19.9619 20.1175 19.9928 20.1379 19.9663 20.1585C19.9479 20.1726 19.8982 20.1473 19.8688 20.1307C19.867 20.1329 19.8648 20.1354 19.8617 20.1379C19.8425 20.1524 19.797 20.1261 19.774 20.1128C19.7708 20.1109 19.768 20.1093 19.7658 20.1081C19.6109 20.0248 19.4613 19.9387 19.3173 19.8401C19.2292 19.7834 19.1433 19.7239 19.0593 19.6591C18.8984 19.5345 18.7523 19.3895 18.6183 19.2367C18.5268 19.1322 18.4771 19.0733 18.3884 18.9465C18.246 18.7423 18.1385 18.5294 18.0352 18.3037C18.0336 18.3002 18.0367 18.2915 18.0414 18.2827C18.0202 18.2304 17.9996 18.1775 17.9789 18.1227C17.9252 18.1299 17.8712 18.1349 17.8178 18.138C17.6919 18.1452 17.5698 18.134 17.4514 18.108C17.3081 18.0895 17.1663 18.0488 17.0407 17.9849C16.9654 17.947 16.893 17.9066 16.8243 17.8616C16.7627 17.8287 16.7034 17.7911 16.6465 17.7473C16.4045 17.5619 16.273 17.2742 16.2408 16.9754C16.2162 16.8439 16.2108 16.7087 16.2255 16.5781C16.2361 16.4832 16.2574 16.3893 16.2883 16.2988C16.3455 16.0981 16.452 15.9124 16.6063 15.7718C16.6322 15.7452 16.6594 15.7199 16.6884 15.6961C16.7743 15.6256 16.8717 15.5689 16.9754 15.5276C16.9954 15.5179 17.0157 15.5088 17.036 15.5004L17.0113 15.4434C17.0026 15.4459 16.9723 15.4409 16.9686 15.4302C16.9624 15.4135 16.9565 15.3966 16.9506 15.3797C16.9469 15.369 16.9432 15.3584 16.9395 15.3479C16.9339 15.3513 16.9267 15.3532 16.9189 15.3535V15.3852C16.9192 15.3942 16.902 15.4506 16.8927 15.4212C16.8867 15.4047 16.8812 15.388 16.8756 15.3713C16.8721 15.3607 16.8685 15.35 16.8649 15.3394C16.8571 15.3344 16.8511 15.3285 16.8489 15.3216L16.8489 15.3216C16.848 15.3188 16.8471 15.3159 16.8458 15.3131C16.8455 15.313 16.8451 15.3129 16.8447 15.3128C16.8443 15.3127 16.8439 15.3127 16.8436 15.3125V15.3222C16.8439 15.3282 16.8283 15.3733 16.8255 15.3645C16.7715 15.2154 16.7274 15.0633 16.6931 14.9086C16.6697 14.8234 16.6512 14.7373 16.6372 14.65C16.6219 14.5714 16.6084 14.4925 16.5969 14.4129L16.5941 14.3932L16.5931 14.3888L16.5929 14.3865C16.592 14.3788 16.5912 14.3708 16.59 14.3632C16.5775 14.2733 16.5672 14.1831 16.5594 14.0923C16.5429 13.9057 16.5363 13.7181 16.5382 13.5309C16.5356 13.5319 16.5332 13.5331 16.5308 13.5343C16.5293 13.5351 16.5278 13.5358 16.5263 13.5365C16.4452 13.5712 16.3594 13.5995 16.2722 13.622C16.1221 13.8394 15.8825 13.9866 15.5954 14.002C15.4982 14.0073 15.3962 13.9954 15.3018 13.9679C15.292 13.9702 15.2819 13.972 15.2714 13.9734C15.2221 13.9798 15.1824 13.9692 15.1414 13.9583C15.1183 13.9522 15.0949 13.9459 15.0691 13.9425C15.0597 13.9412 15.0505 13.94 15.0414 13.9389C14.9382 13.9256 14.8502 13.9142 14.7818 13.8526C14.7587 13.8532 14.7367 13.8498 14.7159 13.8435C14.5182 13.891 14.3083 13.7863 14.2388 13.5669C14.1202 13.4973 14.0258 13.394 13.9623 13.2741C13.84 13.1169 13.7422 12.9242 13.6815 12.7217L13.6787 12.716C13.6479 12.6491 13.6333 12.5774 13.632 12.5054C13.5993 12.3005 13.6079 12.0953 13.6701 11.9149C13.6675 11.8171 13.6904 11.7152 13.7324 11.6227C13.7833 11.5106 13.8609 11.3817 13.9616 11.3069C13.9618 11.192 14.0111 11.0655 14.0756 10.9798C14.2044 10.8085 14.3913 10.718 14.5935 10.7049C14.6963 10.4407 15.0079 10.379 15.2766 10.4669C15.3882 10.3526 15.5517 10.298 15.7149 10.3174C15.8529 10.3338 15.9708 10.4 16.0685 10.4912C16.0942 10.4985 16.1198 10.5062 16.1454 10.5142C16.2309 10.4766 16.3307 10.4681 16.4219 10.4917C16.58 10.5325 16.6832 10.6526 16.7545 10.7904C16.7773 10.8061 16.7996 10.8223 16.8213 10.8393C16.8451 10.85 16.8667 10.8643 16.8864 10.8811C16.9149 10.8964 16.9392 10.9215 16.9539 10.9578C16.9942 10.9995 17.0317 11.0435 17.0649 11.0908C17.0897 11.0332 17.1153 10.976 17.1418 10.9193C17.1848 10.9323 17.2369 10.9155 17.2586 10.8578L17.2641 10.8431C17.4026 10.4745 17.6493 9.81835 17.8819 9.51381C17.6068 9.70158 17.2709 9.80056 16.9373 9.7906C16.923 9.79016 16.9086 9.78957 16.8941 9.78878C16.7147 9.81978 16.5325 9.82266 16.3653 9.78903C16.2527 9.74805 16.1429 9.6992 16.0366 9.64394C16.0107 9.63047 15.9851 9.61632 15.9595 9.60204C15.9515 9.59528 15.9439 9.58795 15.9364 9.58063C15.9334 9.57774 15.9304 9.57486 15.9274 9.57201C15.9054 9.57361 15.8824 9.57189 15.8579 9.56538C15.7658 9.54099 15.6807 9.47958 15.6273 9.40068C15.6173 9.386 15.6093 9.37087 15.6022 9.35562C15.5443 9.29883 15.4941 9.23448 15.4572 9.15924C15.4138 9.07126 15.3872 8.97231 15.3844 8.87337C15.3663 8.7763 15.3676 8.67642 15.4013 8.58374C15.4037 8.57743 15.4063 8.57124 15.4089 8.56502C15.4104 8.56137 15.412 8.5577 15.4135 8.554C15.4142 8.55143 15.4149 8.54882 15.4156 8.54619C15.4165 8.5424 15.4175 8.53859 15.4188 8.5349C15.4287 8.50186 15.4412 8.47243 15.4564 8.44456C15.4621 8.41591 15.4713 8.38751 15.4844 8.35987C15.4859 8.3465 15.4877 8.33313 15.4898 8.31982C15.3906 8.13211 15.4257 7.88663 15.5743 7.73405C15.5538 7.63542 15.5747 7.53084 15.6346 7.44333C15.6785 7.37901 15.7397 7.32826 15.8089 7.29303C15.8161 7.28937 15.8352 7.28308 15.8581 7.27584C15.8837 7.25314 15.9107 7.23166 15.9403 7.21275C15.9473 7.02927 16.13 6.92343 16.2882 6.83179C16.2959 6.82737 16.3034 6.82297 16.3109 6.81861C16.3625 6.78862 16.3999 6.74554 16.4373 6.70243C16.4765 6.65717 16.5158 6.61189 16.5715 6.58171C16.669 6.52895 16.7888 6.51682 16.9012 6.50544C16.926 6.50292 16.9505 6.50045 16.9743 6.49757C17.2844 6.46012 17.6145 6.43119 17.9261 6.46504C18.0991 6.48383 18.2424 6.56758 18.3016 6.70479C18.4505 6.72242 18.5831 6.83007 18.6881 6.94078C18.819 7.07896 18.9306 7.22606 18.969 7.40763C18.9946 7.4215 19.0179 7.43847 19.0389 7.45763C19.0381 7.58532 19.0215 7.71323 18.9864 7.83374C18.9967 7.90579 18.9751 7.97458 18.9384 8.03695C18.944 8.09601 18.94 8.15415 18.9277 8.21211C18.9989 8.33876 18.9323 8.53017 18.8325 8.65576L18.8318 8.72658C18.8377 8.72348 18.8435 8.71982 18.8489 8.71522C19.1358 8.47044 19.4278 8.40296 19.7432 8.33008C19.9254 8.288 20.1153 8.24411 20.3166 8.16323C20.8125 8.06726 21.3187 8.00618 21.8267 7.98585C21.8238 7.98543 21.821 7.98505 21.8181 7.98468C21.8142 7.98417 21.8104 7.98367 21.8066 7.98304C21.5506 7.94102 21.3047 7.83547 21.0933 7.68383C21.0373 7.66961 20.9842 7.64428 20.9367 7.60192C20.8906 7.56077 20.8586 7.51331 20.8402 7.46239C20.8319 7.45341 20.8236 7.44436 20.8154 7.43515C20.6567 7.39608 20.5359 7.2584 20.5561 7.07742C20.4556 6.95816 20.4186 6.8109 20.4526 6.65757C20.3965 6.56248 20.3916 6.44259 20.4335 6.34218C20.3452 6.23472 20.3383 6.08217 20.4075 5.96059C20.3444 5.87057 20.3304 5.75127 20.4084 5.64466C20.4452 5.59431 20.4961 5.56256 20.5517 5.54722C20.5673 5.4892 20.5992 5.43531 20.6493 5.3937C20.6751 5.37231 20.7021 5.35644 20.7297 5.3446C20.74 5.2847 20.7738 5.2279 20.8387 5.18322C20.8682 5.16297 20.8984 5.14988 20.9284 5.14261C20.9568 5.07216 21.0063 5.01039 21.076 4.97028C21.1601 4.9219 21.258 4.91548 21.3472 4.94084C21.4636 4.76444 21.7191 4.69605 21.8962 4.8269C22.0437 4.73541 22.2292 4.7547 22.3618 4.86595C22.522 4.77098 22.7211 4.80931 22.8468 4.94172C23.0482 4.83138 23.3141 4.91288 23.4219 5.12195C23.6252 5.09934 23.8167 5.23273 23.8709 5.42579C23.8797 5.43296 23.8885 5.44034 23.8972 5.44771L23.8994 5.44965C24.0212 5.45551 24.1369 5.50335 24.2052 5.61688C24.2393 5.67359 24.255 5.74022 24.2527 5.8055C24.3255 5.84495 24.3843 5.90967 24.4095 5.99356C24.4332 6.07221 24.4242 6.15002 24.3932 6.21781C24.4946 6.32592 24.5214 6.49444 24.4495 6.63024C24.4793 6.68134 24.4947 6.74174 24.4923 6.80452C24.4887 6.89748 24.4457 6.97241 24.3872 7.03637C24.4608 7.16945 24.4321 7.34016 24.3125 7.43346C24.2438 7.67756 24.07 7.83998 23.8037 7.93961C23.6699 7.98964 23.5299 8.02819 23.3873 8.05649C23.9581 8.13349 24.5196 8.26881 25.059 8.47058C25.0884 8.48157 25.1132 8.47728 25.1323 8.46448C25.1374 8.46723 25.1427 8.46989 25.1479 8.47254C25.1546 8.47593 25.1612 8.47932 25.1678 8.48292C25.3165 8.56464 25.462 8.65325 25.6038 8.74812C25.6038 8.73247 25.6041 8.71681 25.6048 8.70084C25.602 8.572 25.6155 8.44509 25.6497 8.32276C25.605 8.26174 25.5716 8.19216 25.5534 8.12046C25.508 7.94155 25.5944 7.68696 25.7494 7.62584C25.8038 7.47473 25.9274 7.36539 26.0788 7.32237C26.0909 7.31151 26.1036 7.30095 26.1179 7.29115C26.1498 7.26917 26.1847 7.25417 26.2205 7.24547C26.2392 7.16359 26.2848 7.08823 26.3603 7.03534C26.467 6.96066 26.5932 6.95255 26.704 6.99329C26.7251 6.98618 26.7464 6.98001 26.768 6.97466C26.9464 6.82243 27.2245 6.83363 27.3815 7.01176C27.4892 6.96239 27.6162 6.96019 27.7265 7.02664C27.8148 7.0798 27.8697 7.16553 27.8912 7.25962C28.0583 7.26476 28.2112 7.37591 28.2594 7.5418C28.4133 7.55927 28.5393 7.68007 28.566 7.83212C28.6643 7.84583 28.755 7.89211 28.8102 7.98413C28.8357 8.02668 28.8495 8.07324 28.8531 8.11987C28.9028 8.14376 28.9473 8.17992 28.981 8.22717C29.0399 8.30996 29.0512 8.40661 29.0296 8.49757C29.0316 8.5017 29.0337 8.50578 29.0358 8.50986C29.0389 8.51576 29.0419 8.52166 29.0447 8.52769C29.0608 8.56189 29.0736 8.59855 29.0851 8.63578C29.1369 8.71064 29.1608 8.80217 29.1561 8.8941C29.1671 8.93299 29.1777 8.97197 29.1865 9.01114C29.2215 9.16488 29.2346 9.32863 29.2106 9.48519C29.1987 9.56096 29.1815 9.63548 29.1572 9.70781C29.1547 9.72159 29.1506 9.73443 29.1459 9.74664C29.1325 9.80362 29.1153 9.85967 29.0935 9.91446C29.041 9.98429 28.986 10.0522 28.9282 10.118C28.8795 10.1913 28.8239 10.2589 28.7612 10.3209C28.7159 10.3657 28.6662 10.4073 28.6134 10.4449C28.5086 10.5291 28.3914 10.5947 28.2663 10.6374C28.244 10.6327 28.2215 10.6291 28.199 10.6255C28.057 10.7039 27.8335 10.7127 27.6968 10.7122C27.5462 10.7116 27.4083 10.6735 27.2936 10.6015L27.3334 10.6811C27.3301 10.6831 27.3266 10.6848 27.3237 10.687C27.2989 10.6458 27.2712 10.6093 27.2386 10.583C27.1941 10.547 27.1223 10.5438 27.0915 10.602L27.0899 10.605C27.0734 10.6361 27.0757 10.6658 27.0883 10.6901L27.102 10.7101C27.1036 10.7119 27.1052 10.7139 27.1069 10.7157L27.1061 10.7158C27.1488 10.7502 27.1907 10.8345 27.2305 10.9164C27.2574 10.9643 27.2831 11.0129 27.3071 11.0623C27.3211 11.083 27.346 11.1012 27.3725 11.1065C27.3673 11.1459 27.3854 11.1867 27.4151 11.207C27.4229 11.1912 27.4324 11.175 27.4447 11.1584C27.5789 10.9756 27.8426 10.8967 28.0412 10.9802C28.0808 10.9735 28.1206 10.968 28.1608 10.9648C28.2919 10.9562 28.4248 10.9665 28.5543 10.9937C28.5945 11.0179 28.6329 11.0451 28.6687 11.0761C28.699 11.1024 28.7271 11.13 28.7533 11.1585C28.7736 11.1737 28.7936 11.1899 28.8132 11.2067C28.8926 11.2495 28.9509 11.3316 28.9999 11.4133C29.0387 11.4684 29.0727 11.5269 29.1021 11.5889C29.2382 11.8225 29.3954 12.1125 29.2726 12.3422ZM18.3512 16.8562C18.4012 16.9141 18.4402 16.9786 18.4684 17.0497C18.4796 17.0725 18.4659 17.0863 18.4427 17.0822C18.4324 17.0807 18.4184 17.0731 18.404 17.0631C18.4051 17.0658 18.4063 17.0683 18.4074 17.0708C18.4086 17.0733 18.4098 17.0758 18.4109 17.0785C18.4231 17.1026 18.4128 17.1198 18.385 17.1107C18.3834 17.1098 18.3818 17.1088 18.3806 17.1079C18.395 17.1336 18.4081 17.1599 18.4193 17.1874C18.4315 17.2118 18.4206 17.2288 18.3931 17.2194C18.3787 17.2112 18.365 17.2018 18.3519 17.1915C18.3535 17.1951 18.3551 17.1986 18.3567 17.2022C18.3611 17.2117 18.3655 17.2211 18.3693 17.2309C18.3818 17.2557 18.3675 17.2685 18.3431 17.2629C18.3222 17.2513 18.3028 17.2375 18.2847 17.2216C18.2829 17.2201 18.2811 17.2185 18.2795 17.217C18.2786 17.2162 18.2778 17.2154 18.2769 17.2147C18.285 17.235 18.2697 17.2475 18.2494 17.2435C18.2207 17.2378 18.1666 17.1893 18.1535 17.1636L18.151 17.1589C18.1357 17.1486 18.1192 17.1342 18.1067 17.1204C18.0967 17.1348 18.0773 17.1455 18.0686 17.1279C18.0423 17.0562 18.0014 16.9949 17.9455 16.9432C17.9137 16.8965 17.8749 16.8568 17.8296 16.8239C17.8053 16.8032 17.78 16.7835 17.7541 16.7647C17.7081 16.7437 17.6604 16.7278 17.6104 16.7171C17.6047 16.7154 17.599 16.714 17.5932 16.7126C17.5888 16.7116 17.5844 16.7105 17.5801 16.7093L17.5765 16.7086C17.5556 16.7048 17.5349 16.701 17.5139 16.698C17.4236 16.6855 17.333 16.6833 17.2425 16.6915C17.2262 16.6921 17.2106 16.6796 17.2037 16.6652C17.1834 16.6661 17.1634 16.667 17.1431 16.6689C17.1097 16.6702 17.1169 16.6229 17.1422 16.6182C17.1741 16.6122 17.2059 16.6079 17.2372 16.6041C17.2365 16.6013 17.2362 16.5981 17.2368 16.5956C17.1797 16.5928 17.1228 16.5941 17.0654 16.6C17.0404 16.6013 17.0701 16.5549 17.0838 16.5524C17.087 16.5518 17.0903 16.5513 17.0936 16.5508C17.0966 16.5504 17.0997 16.5499 17.1028 16.5493C17.1022 16.5484 17.1019 16.5477 17.1016 16.5468H17.1C17.0657 16.5484 17.0423 16.4936 17.0835 16.4861C17.0884 16.4852 17.0933 16.4844 17.0981 16.4836C17.1034 16.4828 17.1086 16.482 17.1138 16.481C17.1119 16.4757 17.1116 16.471 17.1135 16.4666C17.0957 16.4663 17.0782 16.4663 17.0604 16.4663C17.065 16.466 17.0691 16.4561 17.0734 16.4458C17.078 16.4347 17.0828 16.423 17.0888 16.4222L17.1163 16.4184C17.1169 16.4068 17.1344 16.3799 17.1419 16.3783C17.2012 16.3683 17.2593 16.3614 17.3168 16.3592C17.3224 16.3461 17.3305 16.3286 17.3383 16.3286C17.4036 16.3276 17.4664 16.3282 17.5289 16.3348C17.5314 16.3329 17.5339 16.332 17.536 16.3323L17.5657 16.3395C17.6004 16.3445 17.6351 16.3517 17.6704 16.3621C17.7537 16.3868 17.8371 16.4259 17.9093 16.4745C17.9774 16.5202 18.0451 16.5678 18.1045 16.6248C18.1254 16.6426 18.1451 16.662 18.1638 16.6821C18.1941 16.7071 18.2235 16.7328 18.2516 16.7581C18.286 16.7898 18.3194 16.8223 18.3512 16.8562Z" fill="black"/>
<path fill-rule="evenodd" clip-rule="evenodd" d="M24.2085 19.0034C23.9981 18.9175 23.8103 18.7743 23.6731 18.5913C23.6254 18.5277 23.613 18.4606 23.623 18.3991C23.6343 18.33 23.6751 18.2674 23.7308 18.2254C23.7867 18.1833 23.8566 18.1625 23.9242 18.1731C23.9829 18.1823 24.0414 18.2145 24.0876 18.2812L24.0973 18.2946C24.1789 18.405 24.2852 18.4956 24.4064 18.554C24.5232 18.6103 24.6538 18.6366 24.7889 18.6213C25.0463 18.5922 25.2237 18.4529 25.4123 18.2638C25.4357 18.24 25.459 18.2153 25.4825 18.1903C25.4974 18.1676 25.518 18.153 25.5408 18.1454C25.5662 18.1369 25.595 18.1374 25.6213 18.1466C25.6466 18.1554 25.6693 18.1722 25.6845 18.1946C25.699 18.2158 25.7072 18.242 25.7045 18.2722C25.6873 18.4682 25.5849 18.6431 25.4394 18.7804C25.2778 18.933 25.0636 19.0385 24.862 19.0755C24.6398 19.1163 24.4134 19.087 24.2085 19.0034ZM24.9668 15.98C25.2031 16.1237 25.5632 16.4588 25.309 16.8151C25.0097 17.1293 24.5788 16.7691 24.3664 16.6062C24.1695 16.4799 23.9483 16.8047 24.131 16.9521C25.6654 18.0885 26.2881 16.0176 25.0863 15.811C24.954 15.7883 24.9048 15.9355 24.9668 15.98ZM22.2171 14.658C22.2432 14.3338 22.7369 14.2601 22.786 14.581C22.83 14.8684 22.7782 15.1325 22.6488 15.3913C22.5251 15.6385 22.2143 15.5232 22.1908 15.298C22.1593 14.9963 22.2009 14.8597 22.2171 14.658ZM25.975 14.5145C26.0438 14.4243 26.1432 14.3627 26.2622 14.3975C26.6342 14.5063 26.5246 15.0346 26.3939 15.2917C26.323 15.4314 26.0935 15.4668 25.9898 15.3438C25.8208 15.1433 25.7399 14.7429 25.9547 14.5454C25.9605 14.5352 25.967 14.5249 25.975 14.5145ZM22.6435 13.2391L22.7023 13.2288C22.8841 13.1974 23.1101 13.1672 23.2387 13.3134C23.3069 13.3909 23.3304 13.535 23.2387 13.6092C23.0774 13.7398 22.8992 13.6892 22.7059 13.7002C22.5467 13.7094 22.3936 13.7357 22.2402 13.7796C21.9037 13.8758 21.6295 14.0515 21.3421 14.2443C21.3044 14.2696 21.2659 14.2214 21.2839 14.1861C21.4498 13.861 21.7713 13.5939 22.0934 13.4312C22.2653 13.3443 22.4534 13.2722 22.6435 13.2391ZM25.6359 13.0935L25.6809 13.1027C26.1703 13.2051 26.8062 13.4095 27.0379 13.8904C27.0468 13.9584 27.0374 13.973 27.0298 13.9825L27.0273 13.9857C27.0211 13.9938 27.0161 14.005 26.9866 14.0143C26.9784 14.0123 26.9702 14.0103 26.9618 14.0081C26.8556 13.9802 26.7715 13.9419 26.6902 13.902L26.6019 13.8586C26.4996 13.8083 26.3963 13.76 26.2869 13.7242C26.0533 13.648 25.8131 13.5943 25.5691 13.5657C25.5162 13.5595 25.4653 13.5416 25.4252 13.511C25.387 13.482 25.3579 13.4418 25.3446 13.3883C25.3274 13.3192 25.3324 13.2668 25.3695 13.2044C25.3973 13.1575 25.4373 13.1251 25.4831 13.1064C25.5298 13.0874 25.583 13.0829 25.6359 13.0935Z" fill="black"/>
</svg>
