<svg width="36" height="48" viewBox="0 0 36 48" fill="none" xmlns="http://www.w3.org/2000/svg">
<path fill-rule="evenodd" clip-rule="evenodd" d="M28.0656 32.5744C27.8563 31.9311 28.1055 31.1881 27.9426 30.4946C27.8868 30.2203 27.7807 29.2012 27.6741 28.6053C27.6145 28.272 27.9711 28.1685 28.0259 28.0354C28.4116 26.8403 25.5982 24.0286 25.4265 23.9251C25.1691 23.7763 24.9414 23.6482 24.69 23.4962C23.9564 23.2384 23.0768 22.5214 22.4118 22.9819C21.2597 21.2661 21.7155 19.1522 21.0903 18.9009C20.4651 18.6497 18.6188 18.1419 17.5633 18.7903C16.9306 19.2586 16.9773 20.0648 16.6886 20.7296C16.5191 21.0426 16.4359 21.4959 16.2386 21.7C15.5684 22.3935 14.7327 22.5131 13.7983 22.6308C13.7272 22.6398 13.6523 22.4462 13.5832 22.4701C12.0071 23.015 10.1731 23.174 8.38822 26.2254C8.13614 26.6618 7.4561 27.362 7.68349 27.8663C6.18527 31.3515 4.71108 39.1961 8.82204 41.1524C8.95345 41.2365 9.8449 40.7856 9.99016 40.7898C10.2323 40.7968 9.76835 41.3849 9.99016 41.2801C11.6186 41.4037 20.5791 41.0848 24.0138 41.4037C26.3757 41.386 27.8717 41.8003 28.417 41.386C28.199 40.8589 28.2091 40.2944 28.278 39.7371C28.78 39.3634 28.1595 36.7301 28.212 35.959C28.6819 35.3955 28.3077 33.2822 28.0656 32.5744Z" fill="#D08B5B"/>
<path fill-rule="evenodd" clip-rule="evenodd" d="M13.7057 22.6254L13.6906 22.6352C13.6881 22.6368 13.6857 22.6385 13.6833 22.6403C13.6672 22.6524 13.6697 22.6742 13.6887 22.6815C13.7139 22.6914 13.7404 22.6989 13.7677 22.7047C13.8506 22.825 13.9154 22.9737 13.9606 23.049C14.0905 23.2655 15.2058 24.6266 15.3725 24.8015C15.6433 25.0857 16.9771 26.1543 16.9952 26.1329C17.2097 26.2612 17.432 26.3762 17.6629 26.4744C19.0292 27.0552 20.7818 27.1079 21.9561 26.143C22.0436 26.167 22.8737 24.9712 23.0021 24.5428C23.0647 24.5602 23.1422 24.1011 23.0989 24.1081C23.1367 23.8486 22.682 22.9164 22.6388 22.8718C22.6453 22.8698 22.6518 22.8678 22.6583 22.8659C22.6621 22.8741 22.6708 22.8803 22.6809 22.8777C22.7676 22.8551 22.8555 22.8431 22.9433 22.8449C23.0101 22.8463 23.487 23.0636 23.5055 23.0725C23.5169 23.078 23.5283 23.0834 23.5398 23.089C27.3545 24.9235 27.9424 27.9048 28.0744 27.898C28.0188 27.9684 26.5115 30.1004 26.4305 30.2888C26.4137 29.8814 26.6922 40.7426 26.7117 40.9694C26.7196 41.0629 26.7202 41.2837 26.7334 41.3726C26.6377 41.3778 23.2831 41.1487 17.0451 41.1863C15.0532 41.1983 10.1299 41.415 10.1299 41.415L10.1282 41.4015C10.1141 41.2685 10.1264 41.0106 10.1245 40.8781C10.3135 40.7688 10.4991 40.6527 10.6825 40.5386C11.1001 40.2787 13.6769 37.9176 15.5706 35.805C16.6933 34.5526 18.0938 33.7098 18.1696 33.6279C18.1711 33.6262 18.1718 33.6244 18.1729 33.6226C18.1768 33.6255 18.1817 33.6283 18.188 33.6274C19.0603 33.5027 20.3618 33.7711 21.3199 33.2749C21.7477 33.0534 23.1992 31.5453 23.627 31.1285C23.6398 31.116 23.6491 31.1028 23.6555 31.0893C23.9408 30.9155 25.0524 30.034 25.131 29.9251L25.1545 29.8923C25.2414 29.7693 25.372 29.6395 25.2206 29.5213C25.061 29.3967 24.7551 29.5464 24.5868 29.6181L24.5634 29.6279C24.4814 29.6616 24.4011 29.6982 24.322 29.7371C24.2221 29.4572 23.9786 29.4514 23.7162 29.49C23.5291 29.5176 23.3474 29.5816 23.1651 29.6304C22.9336 29.6922 22.7011 29.7505 22.4677 29.8051C22.0475 29.9035 21.5619 30.0835 21.1368 30.158C21.1256 30.1449 21.11 30.1346 21.0892 30.1294C20.9436 30.0931 20.783 30.1209 20.6337 30.1237C20.5058 30.126 20.3779 30.1263 20.25 30.1245L20.1732 30.1231C19.899 30.1175 19.5312 29.99 19.2571 29.9852L19.2407 29.9752L19.2245 29.9649C19.1537 29.9192 19.077 29.8581 19.0561 29.7812C19.0535 29.7716 19.3338 29.1263 19.3379 28.6041C19.3401 28.3137 19.2405 28.0421 19.2168 27.898C19.1588 27.5464 19.029 27.7728 18.8412 28.1172C18.6534 28.4616 18.403 28.7747 18.2152 29.0252C17.9731 29.3481 17.7357 29.4456 17.6123 29.6328C17.5914 29.6645 17.5709 29.6972 17.5508 29.7308C17.5025 29.6826 17.0956 30.6416 17.1668 30.8263C17.1172 30.8099 15.1166 33.3775 10.7661 35.2248C10.7938 35.0521 11.5485 30.4969 11.3607 29.7454C11.1729 28.9939 8.6894 26.2166 8.43115 26.1549C8.457 26.1128 7.44838 26.8021 9.26371 25.0174C11.079 23.2327 12.2887 22.9304 13.1925 22.5988C13.243 22.5831 13.2934 22.5672 13.3435 22.5511C13.3308 22.5735 13.3595 22.5982 13.3816 22.58C13.5065 22.4767 13.615 22.5252 13.7057 22.6254Z" fill="#9DDADB"/>
<path fill-rule="evenodd" clip-rule="evenodd" d="M27.3164 28.7167C27.091 29.0445 26.884 29.382 26.6969 29.7331C26.6004 29.9142 26.5104 30.0988 26.4294 30.2873C26.4125 29.8798 26.4088 29.4676 26.3612 29.0642C26.3578 29.0351 26.3093 29.0209 26.3042 29.0564C26.2516 29.4222 26.2429 29.7975 26.223 30.1672C26.2002 30.1602 26.1749 30.1562 26.147 30.1562C25.8766 30.1562 25.6102 30.1783 25.3408 30.2002C25.22 30.21 25.0937 30.2174 24.9705 30.2367C25.0697 30.1272 25.162 30.0115 25.2472 29.8908C25.3341 29.7677 25.4335 29.5754 25.282 29.4571C25.1147 29.3265 24.7867 29.4974 24.6248 29.5638C24.5429 29.5974 24.4626 29.634 24.3835 29.6729C24.2836 29.393 23.9775 29.3559 23.715 29.3945C23.5279 29.4221 23.3463 29.4861 23.1639 29.5349C22.9324 29.5968 22.6999 29.655 22.4666 29.7097C22.0464 29.8081 21.6233 29.8941 21.1983 29.9686C21.187 29.9555 21.1715 29.9452 21.1506 29.94C21.0051 29.9036 20.8445 29.9315 20.6952 29.9343C20.5417 29.9371 20.3882 29.9369 20.2347 29.9337C19.9605 29.9281 19.6866 29.9258 19.4124 29.9211C19.3345 29.8738 19.2357 29.806 19.2115 29.7171C19.1813 29.6061 19.2756 29.4831 19.3194 29.3886C19.4876 29.0258 19.5464 28.6197 19.4804 28.2246C19.4686 28.1541 19.4444 28.0771 19.4094 28.0049C19.7098 28.0371 20.0063 28.0589 20.3083 28.0688C20.9113 28.0884 21.5143 28.109 22.1176 28.1135C23.3239 28.1224 24.5302 28.1225 25.7365 28.1137C26.4186 28.1087 27.0991 28.1024 27.7803 28.0676C27.7248 28.138 27.6708 28.2099 27.6181 28.2829C27.6072 28.2797 27.593 28.2855 27.5946 28.299C27.5951 28.3038 27.5957 28.3085 27.5963 28.3132C27.5001 28.4476 27.4075 28.5841 27.3164 28.7167ZM25.975 41.1932C25.6947 41.1842 25.4144 41.1753 25.1341 41.1664C24.5839 41.1489 24.0336 41.1313 23.4834 41.1138C22.3934 41.0791 21.3034 41.0456 20.2132 41.0155C19.1256 40.9855 18.0375 40.9538 16.9496 40.9877C15.8592 41.0218 14.7717 41.1098 13.6833 41.1805C13.0783 41.2197 12.4728 41.2537 11.8667 41.27C11.2894 41.2854 10.7069 41.262 10.1305 41.3032C10.1112 41.1607 10.1254 41.0185 10.1233 40.8765C10.3124 40.7673 10.498 40.6511 10.6814 40.537C11.35 40.121 11.9821 39.6503 12.5783 39.1357C12.6699 39.0566 12.7598 38.9759 12.8487 38.8942C12.7868 39.0296 12.8364 39.204 13.0138 39.2613C13.2302 39.3312 13.4517 39.3064 13.6764 39.3011C13.9046 39.2957 14.1328 39.2906 14.3611 39.2858C14.8071 39.2763 15.2532 39.2678 15.6992 39.2604C16.5707 39.2458 17.4421 39.235 18.3136 39.2279C20.067 39.2137 21.8191 39.2376 23.5722 39.2692C24.0652 39.2782 24.5576 39.2892 25.0506 39.278C25.2972 39.2725 25.5448 39.2707 25.7912 39.2574C25.9886 39.2467 26.1871 39.2188 26.3845 39.1937C26.4094 39.5375 26.4354 39.8813 26.4643 40.2248C26.4835 40.4516 26.5033 40.6784 26.5227 40.9052C26.5307 40.9988 26.5313 41.0943 26.5445 41.1832C26.355 41.1936 26.1667 41.1992 25.975 41.1932ZM26.1678 31.4843C26.1609 31.7475 26.1573 32.0108 26.1554 32.2742C26.1326 32.2612 26.107 32.2516 26.0781 32.2473C25.7715 32.2004 25.4435 32.2359 25.1333 32.2412C24.8335 32.2462 24.5327 32.2445 24.2331 32.2587C23.933 32.2728 23.633 32.2898 23.333 32.3053C23.1922 32.3127 23.0529 32.319 22.9132 32.338C22.8175 32.3511 22.6951 32.3501 22.5929 32.3774C23.0218 31.9618 23.4484 31.5438 23.8762 31.127C23.889 31.1145 23.8983 31.1013 23.9048 31.0878C24.19 30.9139 24.4638 30.7182 24.7118 30.4941C24.9084 30.57 25.1323 30.5796 25.3408 30.5965C25.6103 30.6184 25.8765 30.6405 26.147 30.6405C26.1653 30.6405 26.1824 30.6387 26.1985 30.6355C26.1853 30.9183 26.1752 31.2011 26.1678 31.4843ZM15.0302 36.597C15.6851 36.8062 16.3946 36.8038 17.0759 36.8457C17.8022 36.8904 18.5274 36.9276 19.2545 36.9559C20.7067 37.0123 22.158 37.089 23.61 37.15C24.4394 37.1849 25.2686 37.2233 26.0977 37.2651C26.1565 37.268 26.2126 37.2529 26.2621 37.2253C26.2899 37.7715 26.3225 38.3174 26.3605 38.863C26.3652 38.9312 26.3704 38.9994 26.3753 39.0677C25.9851 39.0187 25.5979 38.9718 25.2048 38.9386C24.7633 38.9013 24.3221 38.8699 23.88 38.8405C23.0186 38.7834 22.1558 38.7069 21.2928 38.679C19.5335 38.6221 17.7704 38.6415 16.0105 38.654C15.5125 38.6576 15.0146 38.6624 14.5166 38.6684C14.2677 38.6714 14.0187 38.6747 13.7698 38.6783C13.5196 38.682 13.2507 38.656 13.0138 38.7433C13.0115 38.7442 13.0096 38.7454 13.0074 38.7462C13.7221 38.0688 14.3624 37.3201 15.0302 36.597ZM17.3323 34.4311C18.4267 34.6305 19.5383 34.6168 20.6477 34.6365C21.7828 34.6568 22.9194 34.6434 24.0547 34.6457C24.6996 34.6471 25.3501 34.6754 25.9927 34.618C26.0686 34.6112 26.1275 34.5824 26.1694 34.5415C26.1812 35.2253 26.2026 35.9087 26.2322 36.5919C26.1905 36.5741 26.145 36.5634 26.0977 36.5606C24.647 36.4752 23.1962 36.3977 21.7437 36.3504C20.2924 36.3031 18.8392 36.247 17.3871 36.2646C16.6785 36.2731 15.9291 36.2278 15.2302 36.3823C15.4958 36.1 15.7671 35.8229 16.0509 35.5575C16.4647 35.1707 16.9062 34.8084 17.3323 34.4311ZM18.1684 33.6263C18.1699 33.6247 18.1706 33.6228 18.1717 33.6211C18.1757 33.624 18.1805 33.626 18.1868 33.6259C19.2113 33.6028 20.3606 33.9261 21.3188 33.4299C21.7466 33.2084 22.1008 32.8583 22.4447 32.5218C22.4449 32.5243 22.4451 32.5268 22.4453 32.5293C22.4475 32.5566 22.4591 32.5895 22.4868 32.6015C22.5998 32.6511 22.7321 32.6544 22.8535 32.6721C22.993 32.6924 23.1301 32.7043 23.2709 32.7128C23.5813 32.7314 23.8916 32.7511 24.2021 32.7687C24.5119 32.7862 24.8231 32.7877 25.1333 32.7954C25.4444 32.8031 25.7702 32.8408 26.0781 32.7964C26.1064 32.7923 26.1315 32.7834 26.1538 32.7711C26.1543 33.1696 26.1579 33.568 26.1617 33.9661C26.1623 34.031 26.1635 34.0959 26.1643 34.1608C26.1227 34.1227 26.0656 34.0961 25.9927 34.0896C25.4218 34.0393 24.8464 34.0617 24.2735 34.0636C23.7109 34.0655 23.1483 34.0674 22.5856 34.0692C21.4496 34.073 20.3144 34.0841 19.1786 34.1058C18.6262 34.1163 18.0762 34.1628 17.532 34.2522C17.7523 34.0513 17.9666 33.8446 18.1684 33.6263ZM9.26691 40.8706C9.05718 40.9348 8.84898 40.9069 8.63884 40.9509C8.62591 40.9536 8.61399 40.9586 8.60306 40.9652C7.97377 40.6963 7.5543 40.1565 7.26723 39.5517C6.96463 38.9142 6.75605 38.2327 6.61633 37.5418C6.32826 36.1176 6.32776 34.6408 6.47687 33.1999C6.62338 31.7843 6.91345 30.3764 7.32741 29.0151C7.61164 28.0803 7.97386 27.1359 8.4768 26.2836C9.05755 26.6729 9.50795 27.2333 9.93223 27.7812C10.4392 28.4358 10.8961 29.1286 11.3051 29.8485C11.2628 29.9718 11.2563 30.1265 11.236 30.2367C11.1969 30.4492 11.1616 30.6644 11.1338 30.8788C11.0745 31.3369 11.0176 31.7954 10.957 32.2534C10.8371 33.159 10.6939 34.0622 10.5358 34.9619C10.523 35.0348 10.5434 35.0964 10.5811 35.1427C10.2674 35.3081 9.95784 35.4808 9.65621 35.6681C8.99308 36.0797 8.37333 36.5592 7.88676 37.1743C7.87411 37.1902 7.89392 37.2116 7.90957 37.1971C8.95302 36.2326 10.2494 35.627 11.5221 35.0286C12.1725 34.7227 12.8198 34.412 13.4438 34.0544C14.0964 33.6806 14.7187 33.258 15.3152 32.8001C15.9964 32.2773 16.6375 31.7057 17.2386 31.0924C17.3094 31.0201 17.2922 30.9296 17.2389 30.8725C17.2569 30.8669 17.2715 30.8512 17.2724 30.8251C17.2868 30.4246 17.407 30.0834 17.6424 29.7593C17.8607 29.4586 18.139 29.2107 18.39 28.9386C18.5016 28.8177 18.6082 28.6917 18.7034 28.5574C18.8014 28.4191 18.8611 28.2664 18.9463 28.1219C19.046 27.953 19.1307 28.0393 19.1769 28.1921C19.2293 28.3654 19.226 28.5683 19.205 28.7464C19.1827 28.9349 19.1253 29.1187 19.0427 29.289C18.9651 29.4491 18.8756 29.6119 18.9279 29.7953C19.0137 30.0967 19.3818 30.2713 19.6606 30.3392C19.9711 30.4147 20.2959 30.4001 20.6103 30.3609C21.004 30.3117 21.3959 30.2398 21.7851 30.1634C22.2358 30.0749 22.6839 29.9727 23.1285 29.8572C23.3375 29.803 23.545 29.7316 23.756 29.6867C23.8312 29.6707 23.9705 29.6466 24.0589 29.6859C22.9223 30.3637 21.6831 30.8153 20.4246 31.2088C20.2682 31.2576 20.3323 31.4938 20.4924 31.4547C21.8444 31.124 23.1165 30.5102 24.3271 29.838C24.3456 29.8276 24.3613 29.8117 24.3729 29.7928C24.4947 29.75 24.6185 29.7127 24.7448 29.682C24.8012 29.6683 25.0915 29.5725 25.1277 29.6093C25.1792 29.6615 25.0012 29.8308 24.9568 29.88C24.6404 30.2306 24.2641 30.5167 23.8568 30.7533C23.4436 30.9932 23.004 31.1845 22.5623 31.365C22.0675 31.5672 21.5445 31.7261 21.0636 31.9585C20.8725 32.0509 21.0066 32.3645 21.2079 32.3009C21.4673 32.2189 21.7193 32.0984 21.9714 31.996C22.1856 31.9091 22.3997 31.8222 22.6127 31.7323C22.7611 31.6696 22.9086 31.6048 23.0546 31.5371C22.8359 31.7431 22.6171 31.949 22.3984 32.1549C22.0197 32.5116 21.6599 32.918 21.1969 33.1681C20.7395 33.4153 20.2177 33.4441 19.7085 33.4387C19.4529 33.436 19.1984 33.4279 18.9428 33.4382C18.6738 33.4491 18.4349 33.4904 18.18 33.5751C18.1753 33.5767 18.1719 33.5795 18.169 33.5827C18.1601 33.5718 18.1449 33.5664 18.1293 33.5756C17.4366 33.9854 16.8051 34.5169 16.1978 35.0422C15.5719 35.5837 14.983 36.1595 14.4218 36.7677C13.8847 37.3498 13.3519 37.9342 12.7674 38.4698C12.1967 38.9927 11.5869 39.4676 10.95 39.9071C10.6031 40.1466 10.2475 40.3772 9.87962 40.5833C9.68303 40.6935 9.48338 40.8044 9.26691 40.8706ZM9.32516 25.1087C9.57323 24.8299 9.84025 24.5715 10.1228 24.3325C10.2474 24.3694 10.3783 24.3797 10.5102 24.3811C10.7114 24.3831 10.913 24.3915 11.1143 24.3894C11.5017 24.3854 11.889 24.3732 12.2766 24.3711C13.0689 24.3668 13.8616 24.3665 14.654 24.3734C14.7578 24.3743 14.8327 24.3299 14.8789 24.2654C15.0393 24.4474 15.2047 24.6251 15.3714 24.8C15.6422 25.0842 15.9309 25.3553 16.2383 25.6024C16.1784 25.6028 16.1186 25.6033 16.0591 25.6029C15.785 25.6011 15.5109 25.5993 15.2369 25.5979C14.6868 25.5948 14.1368 25.5926 13.5868 25.5911C12.4934 25.5882 11.3965 25.5973 10.3044 25.6533C10.0013 25.6689 9.69586 25.6752 9.39383 25.7047C9.23001 25.7208 9.06638 25.7394 8.90272 25.7569C8.86923 25.7605 8.83712 25.7649 8.8056 25.77C8.96588 25.5396 9.13852 25.3183 9.32516 25.1087ZM13.7046 22.6239C13.6972 22.6289 13.6892 22.6334 13.6822 22.6387C13.6661 22.6508 13.6686 22.6727 13.6876 22.68C13.7128 22.6899 13.7393 22.6973 13.7666 22.7032C13.8495 22.8235 13.9142 22.9721 13.9595 23.0475C14.0894 23.264 14.2388 23.4702 14.3908 23.6715C14.4213 23.7119 14.4525 23.7519 14.4837 23.7918C13.7477 23.79 13.0121 23.7938 12.2766 23.8216C11.8893 23.8363 11.5007 23.8486 11.1143 23.8777C10.9554 23.8896 10.7966 23.9097 10.6381 23.9296C11.4626 23.3334 12.3897 22.8782 13.3502 22.5402C13.3489 22.5417 13.3475 22.5428 13.3462 22.5442C13.325 22.5677 13.3566 22.5982 13.3804 22.5785C13.5054 22.4751 13.6138 22.5236 13.7046 22.6239ZM17.4234 29.6312C17.4025 29.663 17.3819 29.6957 17.3619 29.7292C17.3136 29.6811 17.2462 29.6489 17.1593 29.6462C16.1952 29.6161 15.2315 29.5898 14.2668 29.5892C13.791 29.5888 13.311 29.5728 12.8358 29.5964C12.5972 29.6082 12.3587 29.6223 12.1203 29.6358C11.9535 29.6453 11.7764 29.657 11.6136 29.7053C11.2384 29.0487 10.8218 28.4175 10.3669 27.8139C11.399 27.9405 12.4488 27.927 13.4868 27.9622C14.6628 28.0021 15.8394 28.0106 17.0158 28.0385C17.3385 28.0461 17.6612 28.0545 17.9838 28.0636C18.1504 28.0682 18.3169 28.073 18.4834 28.0781C18.5355 28.0796 18.5894 28.0811 18.6433 28.0797C18.6392 28.0881 18.6351 28.0965 18.631 28.1048C18.5402 28.2925 18.4261 28.4651 18.293 28.6254C18.0101 28.9661 17.6684 29.2596 17.4234 29.6312ZM16.1585 31.6538C16.1228 31.5545 16.0358 31.4781 15.8972 31.4844C15.1072 31.5203 14.3157 31.5452 13.5267 31.5972C13.1423 31.6225 12.7563 31.6396 12.3726 31.6732C12.1746 31.6906 11.9771 31.7229 11.78 31.7486C11.6448 31.7662 11.5034 31.7866 11.3738 31.8347C11.3989 31.5571 11.4211 31.2793 11.4403 31.0011C11.4557 30.7776 11.4604 30.5521 11.4592 30.328C11.4586 30.2146 11.4548 30.1005 11.4493 29.9872C11.461 29.9895 11.4726 29.9907 11.4841 29.9893C11.5043 29.9867 11.5232 29.9844 11.5407 29.9797C11.7223 30.0508 11.9279 30.0665 12.1203 30.0802C12.3484 30.0965 12.5766 30.1138 12.8047 30.1301C13.2902 30.1647 13.7802 30.1625 14.2668 30.1783C15.2246 30.2096 16.1825 30.2277 17.1405 30.2534C17.0961 30.4441 17.0945 30.6401 17.1656 30.8248C17.1161 30.8083 17.059 30.816 17.0103 30.8641C16.7344 31.1368 16.4502 31.3998 16.1585 31.6538ZM13.3719 33.6823C13.3524 33.6283 13.3156 33.5788 13.272 33.5452C13.1045 33.416 12.7987 33.4904 12.5976 33.5002C12.3596 33.5119 12.1215 33.5235 11.8835 33.5352C11.8113 33.5387 11.4426 33.5575 11.1718 33.6152C11.2277 33.1925 11.2785 32.7691 11.3239 32.3449C11.3334 32.2558 11.3422 32.1668 11.351 32.0777C11.4785 32.1187 11.6172 32.1338 11.7488 32.14C11.9459 32.1494 12.144 32.1653 12.3414 32.1684C12.7357 32.1746 13.1323 32.1552 13.5267 32.1486C14.2369 32.1368 14.9472 32.1029 15.6571 32.0749C14.9444 32.6536 14.1912 33.1817 13.4056 33.6621C13.3944 33.669 13.3831 33.6755 13.3719 33.6823ZM11.1286 33.9331C11.1886 33.9411 11.2481 33.9437 11.2936 33.9484C11.5221 33.9714 11.747 33.9923 11.9766 33.9957C12.2043 33.999 12.432 34.0023 12.6597 34.0057C12.7081 34.0063 12.7566 34.0071 12.805 34.0078C12.2054 34.3354 11.5874 34.6288 10.9782 34.9378C11.0319 34.6034 11.082 34.2685 11.1286 33.9331ZM17.6617 26.4728C19.0281 27.0537 20.7807 27.1064 21.9549 26.1415C22.0716 26.1734 22.2007 26.184 22.3037 26.1944C22.5352 26.2176 22.7645 26.239 22.9971 26.2463C23.4505 26.2605 23.9043 26.2817 24.3578 26.2873C25.2754 26.2986 26.193 26.3039 27.1105 26.3121C27.1886 26.3128 27.2511 26.289 27.2985 26.2508C27.3914 26.4083 27.4778 26.5699 27.5567 26.7356C27.6718 26.9772 27.7694 27.2269 27.8494 27.4822C27.8323 27.4793 27.8145 27.4772 27.7954 27.4768C26.5895 27.456 25.3827 27.4907 24.1767 27.4957C22.9703 27.5008 21.7641 27.4956 20.5578 27.5042C20.224 27.5066 19.8926 27.5067 19.5596 27.5314C19.3863 27.5443 19.2109 27.55 19.0393 27.5779C19.0201 27.581 19.0006 27.5838 18.9809 27.5866C18.7509 27.4521 18.4653 27.4802 18.2024 27.4752C17.9006 27.4695 17.5987 27.4644 17.2969 27.46C16.7036 27.4512 16.1102 27.4447 15.5168 27.4407C14.3392 27.4326 13.1645 27.4627 11.9876 27.5037C11.4021 27.5241 10.8187 27.5588 10.2407 27.6489C10.2019 27.5987 10.1635 27.5482 10.1242 27.4983C9.71464 26.9791 9.22913 26.3143 8.55521 26.1534C8.58106 26.1112 8.60729 26.0693 8.63392 26.0277C9.10084 26.1509 9.61593 26.1447 10.093 26.1705C10.6429 26.2002 11.1916 26.2207 11.7422 26.2343C12.8365 26.2612 13.9307 26.278 15.0253 26.2947C15.329 26.2993 15.6328 26.3041 15.9366 26.3092C16.1005 26.3119 16.2643 26.3151 16.4282 26.3176C16.5198 26.319 16.6016 26.3188 16.6889 26.2884C16.7696 26.2602 16.8484 26.218 16.9265 26.183C16.9538 26.1708 16.9759 26.1527 16.994 26.1314C17.2085 26.2596 17.4308 26.3747 17.6617 26.4728ZM23.001 24.5413C23.1728 24.589 23.3502 24.5969 23.5319 24.6107C23.7704 24.6287 24.0083 24.6318 24.2474 24.6333C24.6287 24.6357 25.01 24.6331 25.3912 24.6226C25.5549 24.6181 25.6505 24.5085 25.6789 24.3829C25.6829 24.3861 25.6869 24.3892 25.6909 24.3925C26.1548 24.7748 26.5751 25.2121 26.9313 25.6961C26.0735 25.6988 25.2156 25.6994 24.3578 25.7052C23.9043 25.7082 23.4505 25.7269 22.9971 25.7385C22.7747 25.7442 22.5556 25.7627 22.3341 25.7837C22.3297 25.7842 22.3251 25.7845 22.3206 25.7849C22.3441 25.7579 22.3674 25.7304 22.3901 25.7022C22.6549 25.374 22.8726 24.9696 23.001 24.5413ZM28.578 41.7684C28.6537 41.5601 28.6243 41.3367 28.62 41.1176C28.6156 40.8929 28.6132 40.6683 28.6125 40.4435C28.611 40.0041 28.608 39.5647 28.6032 39.1253C28.5934 38.2365 28.5831 37.3469 28.5481 36.4586C28.479 34.7025 28.3459 32.9507 28.1286 31.2064C28.023 30.3583 27.892 29.5123 27.7141 28.6762C27.7166 28.6729 27.719 28.6694 27.7215 28.666C27.8987 28.4293 28.1001 28.2104 28.2741 27.972C28.2895 27.9509 28.296 27.9237 28.2958 27.8963C28.3022 27.8932 28.3086 27.89 28.3151 27.8863C28.4594 27.8041 28.329 27.5799 28.1847 27.6632C28.2014 27.6537 27.9617 27.0383 27.9363 26.9763C27.8451 26.7537 27.7425 26.5361 27.6268 26.3252C27.557 26.198 27.4823 26.0734 27.404 25.9512C27.3904 25.8599 27.3411 25.7752 27.2564 25.73C27.1078 25.517 26.9472 25.3123 26.7761 25.1172C26.0756 24.3188 25.2007 23.6743 24.2448 23.2151C24.1066 23.1488 23.9644 23.0935 23.8227 23.0356C23.6718 22.9739 23.5319 22.8933 23.3833 22.8285C23.1413 22.7231 22.9025 22.7292 22.6649 22.8407C22.6446 22.8503 22.6591 22.8815 22.6798 22.8761C22.8328 22.8362 22.9895 22.8295 23.1428 22.8729C23.2931 22.9153 23.4074 23.0091 23.5386 23.0874C23.7724 23.2269 24.0338 23.3178 24.2735 23.448C24.5904 23.6203 24.9001 23.8095 25.1963 24.0171C24.8894 24.0334 24.5822 24.0451 24.2749 24.0532C24.0467 24.0593 23.8186 24.0604 23.5907 24.0736C23.4285 24.0831 23.2599 24.0804 23.0978 24.1066C23.1369 23.8378 23.1369 23.5666 23.0881 23.3047C23.0881 23.3046 23.088 23.3045 23.088 23.3044C23.0762 23.2414 23.0619 23.1787 23.0443 23.1168C23.0069 22.9851 22.8869 22.9653 22.7997 23.0152C22.7911 23.0088 22.7824 23.0026 22.774 22.9958C22.6696 22.911 22.5757 22.8095 22.494 22.7029C22.3242 22.4814 22.187 22.225 22.0832 21.9665C21.9779 21.7047 21.9034 21.4308 21.8304 21.1587C21.7937 21.0223 21.7541 20.8866 21.7168 20.7503C21.6844 20.6318 21.6608 20.5008 21.6012 20.3929C21.59 20.3726 21.5564 20.3764 21.5511 20.3994C21.5195 20.5347 21.5362 20.689 21.542 20.8269C21.5484 20.98 21.5572 21.1316 21.5776 21.2836C21.6198 21.5988 21.6879 21.9087 21.797 22.208C21.9017 22.4951 22.0397 22.7629 22.2273 23.0048C22.3519 23.1655 22.5289 23.3781 22.7338 23.4648C22.7606 23.7663 22.7576 24.0682 22.6863 24.3668C22.5932 24.7577 22.4148 25.1292 22.1698 25.4474C21.6559 26.1148 20.8609 26.4919 20.0315 26.5696C19.1734 26.65 18.2953 26.458 17.5243 26.0805C16.6666 25.6605 15.9552 25.0126 15.3161 24.3133C14.9478 23.9102 14.5658 23.5136 14.2244 23.0871C14.1639 23.0115 14.067 22.8581 13.9522 22.7198C14.0691 22.7188 14.189 22.7013 14.2925 22.688C14.5066 22.6605 14.7158 22.6179 14.925 22.5647C15.3162 22.4652 15.7286 22.3268 16.0704 22.1077C16.7936 21.6442 17.076 21.0563 17.1724 20.2463C17.2029 19.9903 16.7603 19.9281 16.7191 20.1849C16.6557 20.5797 16.5599 20.7719 16.434 21.1511C16.3128 21.5157 16.1373 21.6515 15.8019 21.8525C15.487 22.0411 15.1291 22.1507 14.7822 22.264C14.5899 22.3267 14.3954 22.384 14.2016 22.4416C14.0781 22.4784 13.9316 22.5104 13.8064 22.5671C13.7411 22.5098 13.673 22.4665 13.6044 22.4501C13.6094 22.4417 13.6029 22.4285 13.5902 22.431C13.5701 22.435 13.55 22.4395 13.5298 22.4436C13.5096 22.4451 13.4894 22.4491 13.4693 22.4563C12.261 22.7181 11.1006 23.2755 10.1166 24.0349C10.067 24.0556 10.019 24.081 9.97336 24.1131C9.94986 24.1296 9.93427 24.1558 9.92979 24.1829C9.78187 24.3037 9.63834 24.4291 9.49965 24.5589C8.38272 25.6039 7.67502 26.9941 7.17959 28.4241C6.69155 29.8328 6.36119 31.31 6.17953 32.7891C5.99433 34.2967 5.97298 35.8356 6.24159 37.3348C6.38582 38.1397 6.61931 38.9307 6.96394 39.6732C7.27342 40.34 7.77718 41.0996 8.56842 41.1808C8.57095 41.1833 8.57333 41.186 8.57618 41.1884C8.88663 41.4441 9.34885 41.2675 9.67342 41.1147C9.72488 41.0905 9.77593 41.065 9.82676 41.0389C9.7999 41.1423 9.78779 41.2506 9.78219 41.352C9.77051 41.5628 10.0676 41.5748 10.1238 41.3998C10.6053 41.4845 11.1026 41.4857 11.5896 41.483C12.1338 41.48 12.6778 41.4612 13.2214 41.4356C14.2999 41.3847 15.3771 41.3069 16.4563 41.2716C18.6416 41.2 20.8328 41.3529 23.0162 41.43C23.6288 41.4516 24.2413 41.4732 24.8538 41.4948C25.4796 41.5169 26.1048 41.5211 26.7256 41.6058C26.9539 41.6369 27.0413 41.4131 26.9769 41.2737C26.993 41.18 26.977 41.0774 26.9682 40.9671C26.9518 40.7609 26.9363 40.5548 26.9218 40.3485C26.8934 39.9463 26.866 39.544 26.8401 39.1417C26.7874 38.3263 26.7421 37.5104 26.6981 36.6946C26.6105 35.0726 26.5434 33.4493 26.494 31.8256C26.482 31.4298 26.4663 31.0339 26.4464 30.6384C26.4701 30.6009 26.4936 30.5634 26.5164 30.5254C26.5923 30.3988 26.6667 30.2714 26.7435 30.1454C26.8977 29.8928 27.0528 29.6418 27.2148 29.3942C27.3548 29.1803 27.4992 28.9698 27.65 28.7635C27.8373 30.3458 28.0038 31.9296 28.0802 33.522C28.1644 35.2759 28.2091 37.0324 28.2334 38.7881C28.2402 39.2786 28.2447 39.7691 28.25 40.2596C28.2527 40.515 28.2554 40.7703 28.2533 41.0257C28.2513 41.27 28.2144 41.5372 28.301 41.7684C28.3515 41.9032 28.5282 41.9056 28.578 41.7684Z" fill="black"/>
<path fill-rule="evenodd" clip-rule="evenodd" d="M19.0285 8.35449C20.552 8.35449 23.492 10.1245 23.492 10.1245C23.492 10.1245 24.8725 15.924 24.5943 17.5803C24.3162 19.2367 22.8674 21.2659 20.4687 21.2659C18.0701 21.2659 17.4184 20.4175 16.8415 20.0319C16.2645 19.6463 15.1016 17.8915 15.1016 17.8915C15.1016 17.8915 14.3125 18.1378 14.0809 17.9953C13.752 17.7928 13.792 17.2605 13.688 16.7457C13.6114 16.3663 13.3506 15.994 13.3507 15.7828C13.3507 15.0165 13.8938 15.0713 14.1674 14.8876C13.5679 14.2956 13.7257 12.2424 14.4809 11.1641C15.2362 10.0858 17.5049 8.35449 19.0285 8.35449Z" fill="#D08B5B"/>
<path fill-rule="evenodd" clip-rule="evenodd" d="M21.7689 7.04661C21.9022 7.02522 22.0093 7.21303 21.8682 7.28266C21.2676 7.57927 20.6371 7.80243 20.0256 8.0728C20.3379 8.11037 20.6565 8.16974 20.9643 8.26164C21.3185 8.1157 21.6822 7.99747 22.0567 7.9139L22.1754 7.8875C22.5567 7.80365 22.9859 7.72434 23.3563 7.85284C23.4836 7.89696 23.4758 8.05808 23.3563 8.10477C23.1413 8.18881 22.9037 8.21085 22.6762 8.23721C22.447 8.26374 22.2203 8.29611 21.9945 8.34389C21.83 8.37868 21.6662 8.4191 21.504 8.46503C21.6058 8.51266 21.705 8.56485 21.8007 8.62269C22.3163 8.93436 22.7857 9.29021 23.1784 9.75205C23.5597 10.2003 23.8596 10.7079 24.0638 11.2604C24.1172 11.4051 24.1515 11.5588 24.1736 11.7114C24.1914 11.8337 24.1804 11.9534 24.1834 12.074C24.1898 12.0765 24.1953 12.0814 24.1971 12.0887C24.2701 12.3794 24.2794 12.6952 24.3024 12.9941C24.3263 13.304 24.3509 13.6139 24.3714 13.9242C24.3917 14.2329 24.3885 14.555 24.4462 14.8592C24.4985 15.1355 24.654 15.3809 24.7416 15.6483C25.2669 17.2531 24.7541 19.176 23.4768 20.2843C22.8319 20.8439 22.0278 21.1986 21.1841 21.3155C20.7455 21.3763 20.31 21.3748 19.8719 21.31C19.6639 21.2793 19.4585 21.233 19.2578 21.1703L19.1834 21.1472C19.1001 21.1211 19.0155 21.0929 18.9386 21.0544C18.829 20.9996 18.7815 20.9074 18.743 20.7952C18.7196 20.7271 18.7573 20.6226 18.825 20.593L18.8471 20.5835C18.9631 20.5347 19.0567 20.5137 19.1833 20.5615C19.2853 20.6001 19.3889 20.6343 19.4938 20.6641C19.702 20.7232 19.9154 20.7672 20.1308 20.7884C20.5648 20.8311 21.0038 20.8093 21.4295 20.7137C22.1945 20.5419 22.8951 20.1563 23.4256 19.5748C23.9439 19.0066 24.2686 18.2817 24.3931 17.5249C24.4548 17.1493 24.4599 16.7552 24.4103 16.3779C24.3845 16.1821 24.3407 15.9879 24.2841 15.7989C24.252 15.6922 24.2108 15.5888 24.1773 15.4827C24.147 15.3866 24.1378 15.2839 24.1239 15.1837L24.1206 15.1606C24.0829 14.9057 24.0959 14.6461 24.0962 14.3892C24.0964 14.1309 24.095 13.8725 24.0975 13.6141L24.1 13.322C24.1009 13.2246 24.102 13.1272 24.1037 13.0299C24.0682 13.0355 24.024 13.0093 24.0206 12.9669C24.0081 12.8099 23.9726 12.6574 23.953 12.5013L23.9478 12.4603C23.9293 12.3168 23.9068 12.1761 23.847 12.0434C23.7256 11.7739 23.64 11.4895 23.5249 11.2173C23.2962 10.6767 22.9553 10.1778 22.5333 9.77052C22.0266 9.28163 21.3989 8.93445 20.7261 8.73638C20.7047 8.74536 20.6832 8.75394 20.6619 8.76312C20.2358 8.94741 19.8313 9.18453 19.4473 9.44501C19.2494 9.57927 19.0589 9.72421 18.8771 9.8798C18.7885 9.95554 18.6998 10.0312 18.6133 10.1093C18.5763 10.1427 18.5396 10.1765 18.5034 10.2108C18.4792 10.2336 18.4553 10.2566 18.4315 10.2798C18.3768 10.3184 18.3756 10.3727 18.428 10.4426C18.4466 10.4349 18.4587 10.4657 18.4415 10.4748C18.3378 10.53 18.2562 10.412 18.2783 10.3141C18.2957 10.2367 18.3674 10.1655 18.4178 10.1047L18.4246 10.0965C18.5029 9.99938 18.5833 9.90297 18.6685 9.81173C19.1173 9.3311 19.647 8.9337 20.2213 8.61718C19.9799 8.57381 19.7352 8.54889 19.4905 8.54275C19.3497 8.53927 19.2094 8.54156 19.0698 8.54939C18.8521 8.66799 18.6372 8.79149 18.4264 8.92252C18.2505 9.03189 18.0771 9.14546 17.9067 9.26334C17.8179 9.32475 17.7302 9.38756 17.6428 9.45087C17.5988 9.48284 17.5315 9.52075 17.4961 9.56086L17.4934 9.56416C17.4687 9.59657 17.3972 9.73802 17.4902 9.73411C17.5001 9.7337 17.502 9.74911 17.4925 9.75142C17.4077 9.77209 17.3967 9.68445 17.4112 9.61835C17.4475 9.45351 17.6669 9.32031 17.7903 9.2175L17.7982 9.21084C18.048 8.99814 18.306 8.79509 18.571 8.60183C17.7449 8.72902 16.9588 9.05419 16.2755 9.55357C15.3974 10.1952 14.7374 11.0996 14.2977 12.0889C14.0887 12.559 13.9155 13.06 13.8535 13.5724C13.7979 14.0316 13.8571 14.5353 14.2144 14.8599C14.2339 14.858 14.2533 14.856 14.2728 14.8547L14.3031 14.8528C14.5576 14.8392 15.0884 14.8565 15.0713 15.2077C15.0706 15.2224 15.0484 15.2314 15.0413 15.2159C14.9579 15.0341 14.7141 15.0668 14.5404 15.0955L14.4426 15.1117C14.2396 15.1455 14.0322 15.1889 13.8538 15.2948C13.6827 15.3963 13.5327 15.5586 13.4997 15.7618C13.4671 15.9621 13.5996 16.1132 13.7139 16.2605C13.8434 16.4276 13.9475 16.6004 13.96 16.8173C13.9724 17.0356 13.8657 17.2554 13.8966 17.4713C13.9657 17.9536 14.6657 17.7982 14.9666 17.7241C15.0569 17.7019 15.1812 17.7364 15.2228 17.8286C15.4219 18.2697 15.6927 18.6723 16.0336 19.0158C16.2022 19.1856 16.3847 19.341 16.5819 19.4763C16.7812 19.6132 16.9748 19.7255 17.1115 19.9323C17.1644 20.0125 17.0925 20.102 17.0103 20.109C16.741 20.1318 16.5213 19.9989 16.3088 19.8488C16.0947 19.6976 15.8921 19.529 15.7077 19.3426C15.3783 19.0098 15.1038 18.6243 14.8987 18.2034L14.8705 18.2088C14.4084 18.294 13.8961 18.2935 13.5961 17.87C13.4627 17.6816 13.4478 17.4609 13.4824 17.2389C13.516 17.0226 13.5948 16.82 13.473 16.6181C13.3625 16.4348 13.2051 16.2839 13.1419 16.0736C13.081 15.8703 13.1155 15.6549 13.2065 15.4668C13.3808 15.1071 13.7402 14.9297 14.1165 14.872C13.6634 14.5985 13.5114 14.039 13.5107 13.5276C13.5097 12.8872 13.7355 12.24 13.9915 11.6622C14.4744 10.5722 15.2892 9.61187 16.2835 8.95781C17.2062 8.35087 18.3185 8.0238 19.4236 8.03363C19.7074 7.86308 19.9988 7.70518 20.2954 7.55823L20.3588 7.52708C20.8131 7.30575 21.2662 7.12736 21.7689 7.04661ZM14.0123 15.9138C14.0673 15.7792 14.309 15.7797 14.4232 15.7842L14.4441 15.7852C14.7914 15.8034 15.367 15.9455 15.4381 16.3348C15.45 16.3998 15.4084 16.4856 15.3294 16.4778C15.2151 16.4667 15.1285 16.4458 15.0346 16.3783L14.987 16.3443C14.908 16.2879 14.8293 16.234 14.7427 16.1877C14.6364 16.131 14.5268 16.09 14.4112 16.0572C14.3638 16.0438 14.316 16.0298 14.2684 16.0172C14.2369 16.0088 14.2051 16.0015 14.1732 15.9952C14.1358 15.972 14.1114 15.9864 14.1002 16.0381C14.1149 16.0432 14.1136 16.0688 14.0963 16.067C14.0277 16.0597 13.9855 15.979 14.0123 15.9138ZM15.1157 15.349C15.1157 15.3474 15.1177 15.3471 15.1185 15.348L15.1188 15.349V15.4932C15.1188 15.4949 15.1168 15.4952 15.116 15.4942L15.1157 15.4932V15.349Z" fill="black"/>
<path fill-rule="evenodd" clip-rule="evenodd" d="M21.2085 19.0034C20.9981 18.9175 20.8103 18.7743 20.6731 18.5913C20.6254 18.5277 20.613 18.4606 20.623 18.3991C20.6343 18.33 20.6751 18.2674 20.7308 18.2254C20.7867 18.1833 20.8566 18.1625 20.9242 18.1731C20.9829 18.1823 21.0414 18.2145 21.0876 18.2812L21.0973 18.2946C21.1789 18.405 21.2852 18.4956 21.4064 18.554C21.5232 18.6103 21.6538 18.6366 21.7889 18.6213C22.0463 18.5922 22.2237 18.4529 22.4123 18.2638C22.4357 18.24 22.459 18.2153 22.4825 18.1903C22.4974 18.1676 22.518 18.153 22.5408 18.1454C22.5662 18.1369 22.595 18.1374 22.6213 18.1466C22.6466 18.1554 22.6693 18.1722 22.6845 18.1946C22.699 18.2158 22.7072 18.242 22.7045 18.2722C22.6873 18.4682 22.5849 18.6431 22.4394 18.7804C22.2778 18.933 22.0636 19.0385 21.862 19.0755C21.6398 19.1163 21.4134 19.087 21.2085 19.0034ZM21.9668 15.98C22.2031 16.1237 22.5632 16.4588 22.309 16.8151C22.0097 17.1293 21.5788 16.7691 21.3664 16.6062C21.1695 16.4799 20.9483 16.8047 21.131 16.9521C22.6654 18.0885 23.2881 16.0176 22.0863 15.811C21.954 15.7883 21.9048 15.9355 21.9668 15.98ZM19.2171 14.658C19.2432 14.3338 19.7369 14.2601 19.786 14.581C19.83 14.8684 19.7782 15.1325 19.6488 15.3913C19.5251 15.6385 19.2143 15.5232 19.1908 15.298C19.1593 14.9963 19.2009 14.8597 19.2171 14.658ZM22.975 14.5145C23.0438 14.4243 23.1432 14.3627 23.2622 14.3975C23.6342 14.5063 23.5246 15.0346 23.3939 15.2917C23.323 15.4314 23.0935 15.4668 22.9898 15.3438C22.8208 15.1433 22.7399 14.7429 22.9547 14.5454C22.9605 14.5352 22.967 14.5249 22.975 14.5145ZM19.6435 13.2391L19.7023 13.2288C19.8841 13.1974 20.1101 13.1672 20.2387 13.3134C20.3069 13.3909 20.3304 13.535 20.2387 13.6092C20.0774 13.7398 19.8992 13.6892 19.7059 13.7002C19.5467 13.7094 19.3936 13.7357 19.2402 13.7796C18.9037 13.8758 18.6295 14.0515 18.3421 14.2443C18.3044 14.2696 18.2659 14.2214 18.2839 14.1861C18.4498 13.861 18.7713 13.5939 19.0934 13.4312C19.2653 13.3443 19.4534 13.2722 19.6435 13.2391ZM22.6359 13.0935L22.6809 13.1027C23.1703 13.2051 23.8062 13.4095 24.0379 13.8904C24.0468 13.9584 24.0374 13.973 24.0298 13.9825L24.0273 13.9857C24.0211 13.9938 24.0161 14.005 23.9866 14.0143C23.9784 14.0123 23.9702 14.0103 23.9618 14.0081C23.8556 13.9802 23.7715 13.9419 23.6902 13.902L23.6019 13.8586C23.4996 13.8083 23.3963 13.76 23.2869 13.7242C23.0533 13.648 22.8131 13.5943 22.5691 13.5657C22.5162 13.5595 22.4653 13.5416 22.4252 13.511C22.387 13.482 22.3579 13.4418 22.3446 13.3883C22.3274 13.3192 22.3324 13.2668 22.3695 13.2044C22.3973 13.1575 22.4373 13.1251 22.4831 13.1064C22.5298 13.0874 22.583 13.0829 22.6359 13.0935Z" fill="black"/>
<path fill-rule="evenodd" clip-rule="evenodd" d="M22.0005 17.1999C21.6524 17.043 21.0274 17.1799 20.8005 17.2343C20.2729 17.3609 19.7422 17.6344 19.5782 18.0629C19.3934 18.5458 19.7622 18.6978 19.8164 18.673C20.1816 18.6987 20.6165 18.469 20.9992 18.4098C21.3099 18.3612 21.6376 18.3189 21.9287 18.1537C22.1412 18.2707 22.6212 18.3339 23.0086 18.4361C23.3385 18.5232 23.4815 18.712 23.7873 18.6718C24.1539 18.6237 24.0038 17.8524 23.5953 17.54C23.1481 17.198 22.3919 17.0594 22.0005 17.1999ZM22.6897 20.4977C22.3852 20.572 22.3647 19.9043 22.3306 19.6684C22.304 19.4841 22.1536 19.0088 21.7726 19.0293C21.3915 19.0498 21.2482 19.448 21.2675 19.6957C21.2801 19.8563 21.428 20.6698 20.9558 20.7727C20.6547 20.7717 20.3065 20.7513 19.9899 20.6929C19.6173 20.6085 19.1328 20.313 19.0049 20.895C18.9588 21.1045 20.6 21.7269 21.3283 21.7832C22.0669 21.9329 22.9311 21.7027 23.457 21.1374C23.5766 21.0088 23.9135 20.4751 23.9376 20.3443C23.988 20.0695 23.8712 19.8927 23.5314 19.9896C23.2913 20.1178 22.8855 20.4499 22.6897 20.4977Z" fill="black"/>
</svg>
