<svg width="39" height="48" viewBox="0 0 39 48" fill="none" xmlns="http://www.w3.org/2000/svg">
<path fill-rule="evenodd" clip-rule="evenodd" d="M36.4238 28.8804C36.7444 28.713 37.0574 28.5311 37.3655 28.3418C37.5825 28.2119 37.3904 27.8849 37.1679 28.0031C37.0541 28.0635 36.9408 28.1246 36.827 28.1846C36.9165 28.1075 36.9995 28.0235 37.0739 27.932L37.0688 27.9269C37.3556 27.6698 36.9872 27.1847 36.661 27.3959C36.3733 27.6045 36.083 27.8174 35.7528 27.9547C35.0689 28.2449 34.3145 28.2929 33.5804 28.3012C33.3118 28.2811 33.0552 28.3276 32.7945 28.3795C32.8967 27.9694 33.1524 27.6597 33.2881 27.2625C33.3882 26.8614 32.8095 26.5883 32.6045 26.9737C32.5541 27.0684 32.5061 27.1642 32.4592 27.2604C32.016 27.6637 31.2758 27.6282 30.8288 28.0612C30.5741 28.2873 30.4495 28.5941 30.4003 28.902C30.3669 29.1111 30.4188 29.3207 30.2925 29.5059C29.6815 30.3703 28.7162 31.7366 28.226 32.688C27.8789 30.4274 26.9521 27.6313 25.9946 25.5642C25.678 24.9032 25.3158 24.2572 24.8403 23.6969C24.8942 23.51 24.704 23.1783 24.583 23.2804C24.2106 22.8253 23.5524 22.7075 23.0231 22.4813C22.3087 22.1757 21.7159 21.5404 21.4245 20.8184C21.0501 19.4435 20.1285 19.2688 18.8503 19.3296C17.627 19.328 16.7219 19.8515 16.455 21.0972C15.9127 22.0427 14.6324 21.8864 13.7113 22.1367C13.0363 22.2909 12.3811 22.5295 11.7585 22.8323C11.0659 22.175 8.58534 24.9334 8.35986 25.6432C8.4926 25.669 8.62452 25.7 8.75526 25.7377C8.87169 25.7714 8.8228 25.9473 8.70537 25.9192C8.55923 25.8841 8.41216 25.8599 8.2644 25.8431C8.25989 25.8572 8.25595 25.8713 8.25301 25.8852C8.23642 25.8841 8.21986 25.8826 8.20327 25.8815C8.24005 25.9007 8.27545 25.9229 8.30994 25.9516C8.39332 26.0208 8.28477 26.1545 8.19617 26.0993C8.11269 26.0368 8.00337 26.0467 7.90324 26.0257C7.89729 26.2317 7.16261 26.0013 7.0485 25.933C6.5413 25.8695 6.01952 25.9376 5.54603 25.6929C4.91601 25.5602 4.28127 25.4134 3.65833 25.2444C3.49341 25.3087 3.33842 25.5389 3.46941 25.7077C3.54308 25.7846 3.44837 25.9101 3.3556 25.8555C3.04446 25.6722 2.80384 25.3863 2.59983 25.0782C2.5038 24.9812 2.33335 25.0021 2.20434 24.9619C2.18709 24.9929 2.17692 25.0274 2.17708 25.0629C1.62981 25.153 2.02021 25.7509 2.29532 25.9372C2.14938 26.0323 2.14384 26.2185 2.15661 26.3739C2.12568 26.4293 2.11535 26.4979 2.14227 26.56C2.24518 26.7972 2.46775 26.997 2.63698 27.1892C2.82384 27.4015 2.99044 27.6149 3.2178 27.787C4.0844 28.4479 5.13019 28.8173 6.20305 28.9618C6.58399 29.0204 7.13194 29.1099 7.36781 29.4322C7.30994 29.8146 7.20368 30.1814 7.10728 30.5543C6.97247 31.0493 6.98164 31.5676 6.97986 32.0722C6.96102 32.0571 6.92484 32.0602 6.91945 32.0891C6.88809 32.2983 6.86477 32.5122 6.73767 32.688C6.62625 33.0148 6.5521 33.3635 6.51044 33.7069C6.34355 35.3349 6.30371 37.011 6.67999 38.6136C6.82518 39.2082 7.06133 39.7733 7.38308 40.2936C7.47902 40.4488 7.63326 40.4942 7.77175 40.4637C8.23529 40.7046 8.81923 40.7819 9.31886 40.7207C11.0222 40.2383 10.4287 41.3999 12.8169 41.0442C16.9392 40.5188 21.1052 41.5512 25.2187 40.9451C25.32 41.7279 26.6463 41.5034 27.107 41.1724C28.4883 40.1451 29.1742 36.8926 29.8674 35.2427C30.344 33.9422 31.1419 31.6388 32.1869 30.7662C32.5002 30.521 32.879 30.392 33.2579 30.2878C34.6723 29.9232 36.092 29.5784 37.5091 29.2239C37.7494 29.1647 37.7062 28.7547 37.4492 28.781C37.1082 28.8159 36.766 28.8475 36.4238 28.8804Z" fill="#D08B5B"/>
<path fill-rule="evenodd" clip-rule="evenodd" d="M4.9389 28.6358C4.84312 28.624 4.74923 28.5898 4.65596 28.5629C4.51355 28.5213 4.37395 28.4727 4.23655 28.4173C3.95298 28.3037 3.67787 28.1693 3.41996 28.0049C3.00337 27.7391 2.6353 27.3984 2.35768 26.9883L2.33862 26.9597C2.18013 26.7181 1.88777 26.1819 2.21558 25.9985C2.0043 25.8219 1.80462 25.5047 1.81588 25.2599C1.83185 24.9136 2.25626 24.9183 2.47567 25.0651C2.61933 25.1612 2.727 25.2959 2.83498 25.4284C2.95454 25.5755 3.08224 25.7158 3.21495 25.8507C3.25016 25.8864 3.28572 25.9214 3.3219 25.9558L3.35829 25.99C3.35266 25.9766 3.34765 25.9628 3.34327 25.9487C3.27003 25.7205 3.35736 25.4233 3.58553 25.3188C3.72516 25.2547 3.87017 25.2938 4.00548 25.3482L4.02621 25.3566C4.20837 25.4321 4.39272 25.4988 4.5824 25.5523C5.35548 25.7706 6.16236 25.8069 6.95454 25.9159C7.2597 25.9581 7.5705 26.0113 7.8741 26.0896C7.9899 25.5977 8.27378 25.1262 8.58176 24.7383C10.0566 22.8824 12.4888 22.2691 14.7138 21.872C14.9167 21.836 15.0847 22.1047 15.2027 22.0411C15.4265 21.9209 15.6234 21.7505 15.7962 21.5655C16.1646 21.1706 16.4259 20.7063 16.7329 20.2664C16.8847 20.0491 17.234 20.2435 17.0932 20.4768L17.0242 20.5908C16.7401 21.0578 16.4255 21.539 16.0181 21.9011C15.8015 22.0934 15.5611 22.2452 15.2863 22.3401C15.0782 22.4118 14.7862 22.4723 14.5583 22.4027L14.531 22.3629C14.54 22.3762 14.5491 22.3895 14.5583 22.4027C15.153 23.2647 15.8991 23.9943 16.6854 24.6828C17.479 25.3774 18.3351 25.9994 19.1964 26.6076L19.2681 26.6582C20.6713 25.6344 21.8566 24.2989 22.6882 22.7732C22.5139 22.7522 22.3414 22.6404 22.1924 22.5571C22.0131 22.4563 21.8444 22.336 21.7129 22.1757C21.4265 21.8266 21.4638 21.3767 21.4121 20.953C21.409 20.9267 21.4437 20.9202 21.4597 20.9333C21.615 21.0623 21.6694 21.2737 21.7342 21.4562C21.8056 21.6569 21.8863 21.8223 22.05 21.9634C22.2024 22.095 22.3883 22.1917 22.5689 22.2778C22.6621 22.322 23.1244 22.4355 23.1771 22.5296C23.9758 22.342 24.7539 22.6661 25.3458 23.2128C25.9176 23.741 26.3373 24.4276 26.7079 25.1055C27.1032 25.8288 27.4272 26.5828 27.7063 27.3577C27.9893 28.1443 28.2062 28.948 28.3254 29.7759C28.4261 30.4739 28.4878 31.1828 28.5278 31.8886L28.5326 31.9768C29.1236 31.049 29.7292 30.131 30.3473 29.2211C30.2068 28.8456 30.3624 28.4624 30.6256 28.1724C30.9173 27.8515 31.3207 27.7025 31.7066 27.529L31.7574 27.506C31.9434 27.4212 32.1288 27.3277 32.2894 27.2005C32.4441 27.0778 32.5577 26.9087 32.7204 26.7957C32.957 26.631 33.3865 26.6661 33.3974 27.0258C33.403 27.2234 33.3182 27.4401 33.2406 27.6176C33.1527 27.8183 33.034 28.0002 32.8932 28.1674C32.8867 28.1752 32.8796 28.1814 32.8723 28.1862L32.8669 28.1897C33.0616 28.2219 33.2578 28.2479 33.4578 28.257C33.8613 28.2755 34.2691 28.2457 34.6641 28.1605C35.0685 28.0735 35.4603 27.932 35.824 27.7347C36.1348 27.5663 36.4228 27.3483 36.7758 27.297C36.8084 27.292 36.8412 27.2888 36.875 27.287C36.9314 27.2838 36.9877 27.3502 36.9655 27.4059C36.9533 27.4366 36.9405 27.467 36.9264 27.4977C36.8043 27.7666 36.6171 28.0276 36.3835 28.2256L36.3655 28.2407C36.4478 28.2122 36.5289 28.1803 36.6087 28.1443C37.0779 27.9329 37.5035 27.6135 38.0065 27.4852C38.0303 27.4789 38.0544 27.4733 38.0785 27.4679C38.234 27.4344 38.3161 27.6035 38.2247 27.7194C38.2099 27.7382 38.1952 27.7566 38.1799 27.7751C37.9555 28.0538 37.7079 28.3124 37.435 28.5447C37.3414 28.6243 37.245 28.7013 37.1467 28.7749C37.1053 28.8061 37.0637 28.8366 37.0216 28.8666L37.0009 28.8813C37.05 28.8466 37.0985 28.8112 37.1467 28.7749C37.4547 28.6816 37.7583 28.571 38.0553 28.4486C38.1733 28.4001 38.265 28.5197 38.2775 28.618C38.3195 28.9474 37.9539 29.1857 37.716 29.3441C37.4775 29.5032 37.2149 29.6241 36.9461 29.7211C36.4292 29.908 35.8862 29.9928 35.3441 30.0689L35.0808 30.1056C34.0387 30.2514 32.9502 30.4257 32.2024 31.2369C31.7833 31.6915 31.4998 32.2563 31.2403 32.8121C30.9811 33.3673 30.7536 33.9372 30.5376 34.5102C30.3138 35.1032 30.1189 35.7071 29.9117 36.3061C29.7214 36.8561 29.4941 37.3991 29.2689 37.9365L29.2334 38.0214C28.7555 39.1636 28.1846 40.2394 27.389 41.1932C27.2578 41.3507 27.0459 41.1271 27.1671 40.9712C27.9993 39.8978 28.5783 38.6313 29.0563 37.3679C29.2738 36.7931 29.4559 36.2044 29.665 35.6264L29.7894 35.283C29.9556 34.8253 30.1231 34.3681 30.2979 33.914C30.5192 33.3394 30.7624 32.7717 31.0406 32.2225L31.0701 32.1647C31.3425 31.6349 31.6662 31.1127 32.1117 30.7118C32.9134 29.9898 33.9804 29.8166 35.0119 29.6794L35.3365 29.6366C35.7726 29.5786 36.2099 29.5146 36.634 29.398C36.8788 29.331 37.1179 29.2452 37.3426 29.1268C37.4322 29.0798 37.5195 29.0282 37.604 28.9718C37.363 29.0426 37.1185 29.1005 36.8697 29.1459C36.748 29.1681 36.6275 29.1848 36.5073 29.1963C36.1977 29.227 35.8907 29.2257 35.5736 29.2092C35.5467 29.2076 35.538 29.1653 35.5668 29.16C35.7876 29.1207 36.0086 29.0716 36.2288 29.0183L36.2948 29.0022C36.296 28.9656 36.3104 28.9267 36.3405 28.8898C36.45 28.7564 36.6581 28.6881 36.8024 28.5939C36.9536 28.4953 37.1001 28.3888 37.2397 28.2748C37.3674 28.1706 37.4901 28.0603 37.6081 27.9451L37.6434 27.9104C37.6317 27.922 37.6199 27.9336 37.6081 27.9451C37.2894 28.0923 36.9874 28.2811 36.6547 28.3976C36.3902 28.4906 36.1129 28.5532 35.8331 28.5754L35.8157 28.5768L35.7984 28.5779C35.5063 28.5989 35.2124 28.5905 34.9248 28.6537C34.8926 28.6609 34.8826 28.6177 34.9114 28.6055C35.1627 28.5009 35.424 28.4605 35.6882 28.4117C35.6938 28.391 35.7082 28.3725 35.7333 28.3606L35.8008 28.3283C36.0021 28.2316 36.1897 28.134 36.357 27.9771C36.5048 27.8383 36.6278 27.6762 36.7201 27.4964C36.3505 27.5775 36.0259 27.8578 35.6898 28.0153C35.3236 28.1872 34.9361 28.3105 34.5379 28.3807L34.4926 28.3885C33.7486 28.5126 32.8539 28.4968 32.1874 28.1098C32.1661 28.0973 32.1815 28.0688 32.2034 28.0722C32.3924 28.1032 32.5796 28.1399 32.7667 28.1724C32.7301 28.1389 32.7138 28.0788 32.7561 28.0306C32.9242 27.8379 33.0571 27.6176 33.1421 27.3766L33.1584 27.3294C33.1975 27.2176 33.2636 27.044 33.1962 26.9432C33.1317 26.847 32.9799 26.8602 32.8891 26.9009C32.7004 26.9861 32.5749 27.1987 32.4159 27.327C32.2425 27.4673 32.0453 27.5713 31.8434 27.6643L31.8008 27.6836C31.4516 27.8408 31.0785 27.973 30.804 28.2504C30.6563 28.3994 30.5292 28.5857 30.4866 28.7946C30.4672 28.8904 30.4672 28.989 30.4929 29.0839C30.5132 29.1581 30.5558 29.2039 30.5314 29.2793C30.4995 29.3767 30.3865 29.4931 30.3282 29.5799C30.2606 29.6801 30.1933 29.7806 30.1261 29.8811C29.9918 30.0821 29.8581 30.2838 29.7245 30.4851C29.4572 30.8884 29.1927 31.2935 28.9304 31.7C28.8451 31.8323 28.76 31.9648 28.6752 32.0974L28.5483 32.2964L28.4812 32.4014L28.3667 32.5813C28.3708 32.598 28.3705 32.6155 28.3652 32.6308C28.3457 32.6864 28.3091 32.7244 28.2637 32.752L28.2556 32.7567C27.5877 33.8128 26.9304 34.8758 26.2666 35.9345C26.2312 36.2576 26.198 36.581 26.1692 36.9045C26.1038 37.6365 26.0591 38.3705 26.0447 39.1054C26.0378 39.4611 26.0663 39.8189 26.0816 40.1743C26.0891 40.3439 26.0994 40.5133 26.1128 40.6827L26.1227 40.8027C26.1359 40.9677 26.1434 41.1315 26.0841 41.2887C26.0315 41.4268 25.8713 41.4578 25.7764 41.3526C24.5392 41.3028 23.301 41.2649 22.0628 41.2414C19.8466 41.1988 17.6293 41.2054 15.4128 41.2483C14.2995 41.2699 13.1858 41.3003 12.0728 41.3378C11.5245 41.356 10.9758 41.3817 10.4272 41.3892C10.1315 41.3932 9.6663 41.2856 9.64245 40.9529L9.64186 40.9427C9.60493 40.9527 9.56675 40.9609 9.52762 40.9668C9.5102 40.9695 9.49348 40.9687 9.47802 40.9651L9.47035 40.9631C9.0297 41.0974 8.4723 40.9057 8.05359 40.794L8.01902 40.7849C7.61933 40.6806 7.29821 40.5316 7.03624 40.2003C6.57771 39.6201 6.42121 38.8411 6.33984 38.1231C6.26347 37.4474 6.25908 36.7592 6.35204 36.0848C6.29727 35.5353 6.35079 34.9682 6.41307 34.4218C6.44374 34.1516 6.47974 33.8817 6.52293 33.6131C6.54703 33.4631 6.57864 33.3147 6.61088 33.1666C6.62375 33.1074 6.63447 33.0437 6.65078 32.9821L6.65814 32.9558C6.60806 32.9624 6.55329 32.9515 6.50039 32.9224C6.37457 32.8532 6.33795 32.7132 6.33576 32.5792C6.32887 32.1753 6.37707 31.7598 6.41964 31.3584C6.46252 30.9576 6.52136 30.5552 6.59836 30.1594L6.61828 30.0574C6.67662 29.7613 6.74338 29.4557 6.86096 29.1775C6.41934 29.1024 5.97896 29.0226 5.55048 28.8866C5.3414 28.8199 5.13546 28.737 4.9389 28.6358ZM27.9893 32.8394C27.9824 32.8409 27.9758 32.8428 27.9692 32.8447C27.7927 32.8942 27.6143 32.9361 27.4365 32.9812C27.1292 33.0586 26.8287 33.145 26.543 33.2793C26.4831 34.0352 26.3944 34.7886 26.31 35.5423L26.2932 35.6931C26.4228 35.4526 26.5555 35.214 26.6941 34.9783C27.1164 34.2596 27.5483 33.5467 27.9893 32.8394ZM6.76581 32.9142C6.76675 33.0041 6.74797 33.0974 6.73795 33.1838C6.72168 33.3241 6.70853 33.465 6.69194 33.6052C6.65814 33.887 6.62935 34.1691 6.60838 34.4522C6.59492 34.6329 6.58615 34.8142 6.57833 34.9955C6.7558 34.332 6.99085 33.6829 7.21433 33.0329C7.17697 33.0289 7.13879 33.0198 7.0994 33.0093L7.03308 32.9915C6.99398 32.9814 6.86714 32.9502 6.76581 32.9142ZM28.5483 32.2964L28.5495 32.3262C28.5542 32.4317 28.491 32.4912 28.4143 32.5065C28.4588 32.4364 28.5035 32.3663 28.5483 32.2964ZM8.24155 27.2954C8.4284 27.312 8.6115 27.3518 8.78615 27.4207L8.803 27.4273C8.93218 27.4771 9.12105 27.5398 9.1633 27.6777C9.1752 27.7169 9.14327 27.7491 9.10665 27.7523C8.96643 27.7635 8.80117 27.6132 8.67128 27.5625C8.52668 27.5061 8.3752 27.4642 8.22183 27.4419C7.87723 27.3915 7.51792 27.4298 7.19366 27.5553C7.17457 27.5628 7.16268 27.5324 7.17989 27.5234C7.50665 27.3455 7.87003 27.2626 8.24155 27.2954ZM4.28193 28.1909C4.26033 28.1718 4.23873 28.1518 4.21745 28.1318C4.04964 27.9729 3.90104 27.7876 3.79101 27.5839L3.76206 27.5288C3.67244 27.3553 3.5624 27.108 3.773 26.9829C3.89882 26.9081 4.05031 26.9269 4.19053 26.9723C4.19961 26.9751 4.20868 26.9783 4.21776 26.9814C4.28036 27.0033 4.34076 27.0296 4.3946 27.0546C4.6284 27.162 4.83466 27.3183 5.05062 27.4561C5.28463 27.6054 5.51568 27.7009 5.78575 27.7568L5.81119 27.7619C6.06471 27.8121 6.33951 27.8443 6.51635 28.0528C6.5608 28.1055 6.52011 28.2041 6.44342 28.1781C5.95454 28.0131 5.43716 27.9767 4.98834 27.7059C4.80242 27.5938 4.62652 27.4651 4.43654 27.359C4.33576 27.3026 4.2317 27.2533 4.12081 27.2194L4.06023 27.2016C4.02475 27.1912 3.98239 27.181 3.95391 27.1912C3.89969 27.21 3.917 27.239 3.93377 27.2896L3.93544 27.2948C4.06721 27.7025 4.4428 28.0437 4.79084 28.2695C4.87065 28.3215 4.95234 28.3691 5.0356 28.4133C5.59915 28.7137 6.22972 28.8536 6.84904 29.0196C6.84904 29.0196 7.20713 29.1196 7.32575 29.1572C7.45783 29.1462 7.60838 29.1929 7.70791 29.2486C7.80462 29.3028 7.88256 29.3754 7.9414 29.4609C7.9414 29.4609 7.99805 29.5082 8.00838 29.5815C8.03811 29.6494 8.05814 29.7226 8.06816 29.7991C8.07379 29.8438 8.06253 29.8783 8.04124 29.9027C8.10526 30.8856 7.83986 31.863 7.54065 32.7972L7.511 32.8893L7.49195 32.9477C7.16926 33.9381 6.79899 34.9213 6.63373 35.9539C6.52325 36.6437 6.52669 37.3576 6.60775 38.0505L6.61347 38.0983C6.69334 38.7534 6.84702 39.4883 7.26346 40.0156C7.47588 40.2847 7.72754 40.4042 8.04929 40.4909L8.06691 40.4956C8.35799 40.5723 8.65846 40.681 8.95861 40.7138C9.23717 40.7442 9.47066 40.6406 9.72137 40.5435L9.72167 40.5432C10.2497 40.0757 10.4894 39.395 10.6666 38.708C11.1257 36.9302 11.0688 35.0847 10.8084 33.2809C10.6725 32.3384 10.4879 31.4041 10.3038 30.4701C10.2118 30.0032 10.1126 29.5373 10.0303 29.0689L9.9814 28.7932C9.95442 28.6401 9.92833 28.4868 9.90603 28.3328C9.87598 28.1258 9.8669 27.9223 9.85658 27.7141C9.60368 27.2948 9.23654 26.9494 8.81119 26.7018C8.50665 26.5242 8.18428 26.4012 7.85157 26.3119C6.90039 26.0555 5.86346 26.0737 4.90634 25.8764C4.5848 25.8102 4.27959 25.7119 3.97454 25.5942L3.93294 25.578C3.79304 25.5235 3.65031 25.4932 3.58083 25.6582C3.53138 25.7756 3.5608 25.8977 3.63498 25.9963C3.81682 26.238 4.18239 26.3501 4.45751 26.4372C4.62308 26.4898 4.7921 26.5314 4.96299 26.5624C5.13388 26.5934 5.3054 26.6013 5.46941 26.6617C5.53263 26.6849 5.54515 26.7854 5.46941 26.8032C5.26158 26.8517 5.0525 26.8101 4.84593 26.7697C4.61901 26.7249 4.39554 26.6614 4.17833 26.5809C4.13826 26.5661 4.0968 26.5505 4.05457 26.534L4.02277 26.5214C4.05563 26.5452 4.0885 26.5687 4.12167 26.5922C4.13044 26.5984 4.12512 26.615 4.11354 26.6109C3.6028 26.4203 3.13809 26.0764 2.77809 25.6695L2.76017 25.6491C2.63341 25.5038 2.34452 25.0642 2.10102 25.1866C1.87236 25.3014 2.26214 25.7441 2.41027 25.925L2.42747 25.9462C2.59586 25.9506 2.75893 26.0555 2.89539 26.14C3.13232 26.2869 3.3799 26.4134 3.63217 26.5317C4.13357 26.7675 4.66597 26.9338 5.16206 27.1814C5.16863 27.1849 5.16362 27.1933 5.15736 27.1924C4.84156 27.142 4.52919 27.0615 4.22403 26.9617L4.21041 26.9574L4.1968 26.9529C4.00619 26.8902 3.81808 26.8195 3.63311 26.744C3.42747 26.6601 3.22653 26.5659 3.03154 26.4591C2.85501 26.3627 2.65908 26.1889 2.45439 26.1632C2.43248 26.1604 2.41307 26.1601 2.39617 26.1617C2.16112 26.1814 2.35549 26.5709 2.42121 26.6874C2.52857 26.8787 2.65815 27.0553 2.80682 27.2165C3.10823 27.544 3.47348 27.8036 3.86879 28.0056C4.00369 28.0744 4.14172 28.1352 4.28193 28.1909Z" fill="black"/>
<path fill-rule="evenodd" clip-rule="evenodd" d="M19.2029 7.99219C20.9763 7.99219 23.2655 9.10742 23.4607 10.2496C23.6907 11.5957 24.9226 16.7607 24.6444 18.417C24.3663 20.0734 22.8673 21.2657 20.4686 21.2657C18.07 21.2657 16.2797 19.9544 15.8686 19.5041C15.4575 19.0539 14.6957 17.4463 14.6957 17.4463C14.6957 17.4463 13.4114 17.2751 13.4054 16.2256C13.3993 15.1761 14.2404 14.7942 14.2404 14.7942C14.2404 14.7942 13.9405 10.6524 14.6957 9.57409C15.451 8.49576 17.4295 7.99219 19.2029 7.99219Z" fill="#D08B5B"/>
<path fill-rule="evenodd" clip-rule="evenodd" d="M23.3524 10.0655C23.3511 10.0415 23.3861 10.0386 23.3926 10.0599C23.7753 11.3271 24.0111 12.3146 24.2594 13.6137L24.3327 13.9959C24.5286 15.0152 24.7266 16.0359 24.8937 17.0602L24.9035 17.1213C24.9873 17.6515 25.0356 18.1868 24.9306 18.7181C24.8325 19.2147 24.5645 19.67 24.2166 20.0325C23.5442 20.7333 22.6096 21.171 21.6696 21.3667C21.1942 21.4656 20.7038 21.5038 20.2194 21.4694C19.978 21.4525 19.7369 21.4183 19.5004 21.368L19.4743 21.3624C19.236 21.3108 19.0245 21.2493 18.8979 21.0244C18.8661 20.9678 18.8789 20.8707 18.9457 20.8416C19.0719 20.7871 19.1647 20.7643 19.3024 20.7799C19.4339 20.7949 19.5623 20.8347 19.6922 20.8595C19.9405 20.9067 20.1929 20.9305 20.4455 20.9362C20.9418 20.9471 21.4394 20.8848 21.9138 20.7364C22.7289 20.4812 23.5573 19.9931 24.0336 19.2629C24.5939 18.404 24.3708 17.3615 24.2223 16.4129L24.2178 16.3842C24.0675 15.4146 23.9189 14.445 23.7746 13.4748L23.7131 13.0589C23.5513 11.9602 23.3986 11.1759 23.3524 10.0655ZM15.076 7.37625C15.4828 7.10742 15.9884 7.04136 16.4663 7.04507L16.5261 7.04582C17.138 7.05517 20.2181 7.12866 21.2493 7.15127L21.4947 7.15645C21.8194 7.16259 22.4742 7.169 22.8116 7.17518L22.8311 7.17555C22.9966 7.17868 23.1622 7.17993 23.3277 7.18525L23.352 7.18613C23.476 7.19144 23.5792 7.21004 23.6763 7.29766C23.7257 7.34207 23.7449 7.4098 23.7404 7.47431L23.7397 7.48271L23.9855 7.50431C24.1524 7.5191 24.2406 7.66917 24.1743 7.82103L24.171 7.82838C24.0532 8.08013 23.9633 8.81281 23.9002 9.08365C23.8671 9.22611 23.8405 9.37077 23.8249 9.51637C23.8124 9.631 23.8112 9.74588 23.7475 9.8467C23.6116 10.0618 23.2293 10.0599 23.2225 9.75527C23.2221 9.74557 23.2225 9.73617 23.2234 9.72709C22.2614 9.68482 20.9481 9.68889 19.9874 9.74651C19.09 9.80036 18.1968 9.92247 17.3176 10.1094C17.0949 10.1567 16.8728 10.2083 16.6523 10.2644C16.4715 10.3101 16.2494 10.3373 16.0876 10.4354C15.9065 10.5456 15.9099 10.7431 15.9296 10.9313C15.9507 11.1308 15.9859 11.028 16.0358 11.2098L16.0389 11.2213C16.0904 11.4185 16.1541 11.6136 16.2385 11.799C16.2866 11.9048 16.3641 12.0065 16.3347 12.1283C16.3181 12.1969 16.2641 12.2702 16.2144 12.3181C15.9883 12.5357 15.606 12.397 15.4523 12.6951C15.2915 13.0068 15.2875 13.429 15.2739 13.7739L15.2731 13.7941C15.2631 14.0317 15.2659 14.27 15.2815 14.5071C15.2956 14.7231 15.353 14.937 15.2793 15.1445C15.2256 15.2955 15.0501 15.3096 14.9582 15.1868C14.9477 15.1727 14.938 15.1583 14.929 15.1438L14.9201 15.1292L14.9195 15.1295C14.9283 15.1433 14.9364 15.1574 14.9442 15.1718C14.9526 15.1878 14.9317 15.2053 14.9189 15.1915C14.7028 14.9557 14.387 15.0027 14.1424 15.1677C13.8948 15.3355 13.797 15.6543 13.7842 15.9402C13.7698 16.2573 13.7979 16.629 13.9297 16.9221C13.9853 17.0461 14.0646 17.16 14.1962 17.2073C14.2558 17.2286 14.3127 17.2258 14.3748 17.2308C14.4394 17.2358 14.5172 17.2684 14.58 17.264C14.6616 17.2582 14.7348 17.3515 14.7116 17.4298L14.7099 17.435C14.7087 17.4387 14.7074 17.4425 14.7062 17.4459C14.7093 17.4487 14.7124 17.4522 14.7146 17.4572C14.952 17.9435 15.2774 18.3762 15.6372 18.7776C15.8175 18.9783 16.0173 19.1627 16.2263 19.3334C16.3294 19.4176 16.438 19.5018 16.5527 19.5698C16.5908 19.592 16.6257 19.607 16.6686 19.6193C16.6885 19.6249 16.7113 19.6277 16.7307 19.6343L16.7508 19.6412C16.7522 19.6416 16.7535 19.642 16.7548 19.6424C16.8122 19.649 16.8606 19.6872 16.8797 19.747C16.9293 19.9029 16.8391 20.0407 16.6848 20.0836C16.5176 20.1304 16.3601 20.0482 16.2276 19.9537L16.2188 19.9474C15.9486 19.7523 15.6997 19.5334 15.4842 19.2779C15.0579 18.7735 14.7908 18.1896 14.6672 17.5436C14.6365 17.6097 14.5953 17.6673 14.5238 17.7074C14.4126 17.77 14.2799 17.77 14.158 17.749C13.9129 17.7074 13.7039 17.5574 13.5643 17.3545C13.4194 17.1441 13.3654 16.8886 13.3326 16.6397C13.3001 16.3904 13.2842 16.1402 13.3166 15.8904C13.3632 15.5316 13.5134 15.1768 13.8054 14.9802C13.5868 14.5027 13.5484 13.9672 13.564 13.4444C13.5831 12.8006 13.6939 12.1496 13.7792 11.5118L14.0216 9.6986L14.0315 9.6255C14.09 9.19894 14.1612 8.77011 14.3205 8.36819C14.4776 7.9721 14.7162 7.6139 15.076 7.37625ZM14.0559 15.9542C14.4563 15.7595 14.8889 15.9389 15.1044 16.3168C15.2918 16.6454 14.7347 16.8626 14.6417 16.5239L14.639 16.5135C14.5778 16.257 14.3286 16.0353 14.0684 16.0009C14.0469 15.9978 14.0309 15.9665 14.0559 15.9542Z" fill="black"/>
<path fill-rule="evenodd" clip-rule="evenodd" d="M21.2085 19.0034C20.9981 18.9175 20.8103 18.7743 20.6731 18.5913C20.6254 18.5277 20.613 18.4606 20.623 18.3991C20.6343 18.33 20.6751 18.2674 20.7308 18.2254C20.7867 18.1833 20.8566 18.1625 20.9242 18.1731C20.9829 18.1823 21.0414 18.2145 21.0876 18.2812L21.0973 18.2946C21.1789 18.405 21.2852 18.4956 21.4064 18.554C21.5232 18.6103 21.6538 18.6366 21.7889 18.6213C22.0463 18.5922 22.2237 18.4529 22.4123 18.2638C22.4357 18.24 22.459 18.2153 22.4825 18.1903C22.4974 18.1676 22.518 18.153 22.5408 18.1454C22.5662 18.1369 22.595 18.1374 22.6213 18.1466C22.6466 18.1554 22.6693 18.1722 22.6845 18.1946C22.699 18.2158 22.7072 18.242 22.7045 18.2722C22.6873 18.4682 22.5849 18.6431 22.4394 18.7804C22.2778 18.933 22.0636 19.0385 21.862 19.0755C21.6398 19.1163 21.4134 19.087 21.2085 19.0034ZM21.9668 15.98C22.2031 16.1237 22.5632 16.4588 22.309 16.8151C22.0097 17.1293 21.5788 16.7691 21.3664 16.6062C21.1695 16.4799 20.9483 16.8047 21.131 16.9521C22.6654 18.0885 23.2881 16.0176 22.0863 15.811C21.954 15.7883 21.9048 15.9355 21.9668 15.98ZM19.2171 14.658C19.2432 14.3338 19.7369 14.2601 19.786 14.581C19.83 14.8684 19.7782 15.1325 19.6488 15.3913C19.5251 15.6385 19.2143 15.5232 19.1908 15.298C19.1593 14.9963 19.2009 14.8597 19.2171 14.658ZM22.975 14.5145C23.0438 14.4243 23.1432 14.3627 23.2622 14.3975C23.6342 14.5063 23.5246 15.0346 23.3939 15.2917C23.323 15.4314 23.0935 15.4668 22.9898 15.3438C22.8208 15.1433 22.7399 14.7429 22.9547 14.5454C22.9605 14.5352 22.967 14.5249 22.975 14.5145ZM19.6435 13.2391L19.7023 13.2288C19.8841 13.1974 20.1101 13.1672 20.2387 13.3134C20.3069 13.3909 20.3304 13.535 20.2387 13.6092C20.0774 13.7398 19.8992 13.6892 19.7059 13.7002C19.5467 13.7094 19.3936 13.7357 19.2402 13.7796C18.9037 13.8758 18.6295 14.0515 18.3421 14.2443C18.3044 14.2696 18.2659 14.2214 18.2839 14.1861C18.4498 13.861 18.7713 13.5939 19.0934 13.4312C19.2653 13.3443 19.4534 13.2722 19.6435 13.2391ZM22.6359 13.0935L22.6809 13.1027C23.1703 13.2051 23.8062 13.4095 24.0379 13.8904C24.0468 13.9584 24.0374 13.973 24.0298 13.9825L24.0273 13.9857C24.0211 13.9938 24.0161 14.005 23.9866 14.0143C23.9784 14.0123 23.9702 14.0103 23.9618 14.0081C23.8556 13.9802 23.7715 13.9419 23.6902 13.902L23.6019 13.8586C23.4996 13.8083 23.3963 13.76 23.2869 13.7242C23.0533 13.648 22.8131 13.5943 22.5691 13.5657C22.5162 13.5595 22.4653 13.5416 22.4252 13.511C22.387 13.482 22.3579 13.4418 22.3446 13.3883C22.3274 13.3192 22.3324 13.2668 22.3695 13.2044C22.3973 13.1575 22.4373 13.1251 22.4831 13.1064C22.5298 13.0874 22.583 13.0829 22.6359 13.0935Z" fill="black"/>
</svg>
