<svg width="36" height="48" viewBox="0 0 36 48" fill="none" xmlns="http://www.w3.org/2000/svg">
<path fill-rule="evenodd" clip-rule="evenodd" d="M28.8345 37.3236C28.7083 36.6108 28.5926 35.8961 28.4875 35.1799C28.4376 34.8399 28.389 34.4996 28.3452 34.1587C28.3146 33.9198 28.2679 33.6467 28.4304 33.4698C28.6589 33.2208 28.8666 33.0077 28.8945 32.651C28.9209 32.3155 28.8074 31.9497 28.7365 31.6239C28.5878 30.9409 28.4026 30.2662 28.198 29.598C27.9902 28.9191 27.7622 28.2465 27.531 27.5753C27.3149 26.9477 27.1071 26.3144 26.8256 25.7123C26.2913 24.5696 25.3874 23.7233 24.2702 23.1583C23.9924 23.0177 23.4257 22.5161 23.1354 22.4038C22.8686 22.3005 22.8695 22.6021 22.6069 22.4885C22.397 22.3977 22.2015 22.2766 22.0839 22.0738C21.9563 21.8536 21.6362 21.5456 21.5875 21.2893C21.4842 20.746 21.5961 20.2836 21.2084 19.8747C20.8643 19.5116 20.4018 19.2628 19.9233 19.1293C18.8705 18.8355 17.4665 19.0409 16.8313 20.0195C16.5279 20.4869 16.4219 21.0518 16.0126 21.4332C15.6551 21.7662 15.7351 21.9939 15.2721 22.1656C15.2459 22.1753 14.5352 22.0228 14.509 22.0325C14.0025 21.9241 13.5184 22.2276 13.0537 22.4038C12.361 22.6663 11.7015 23.008 11.0818 23.4141C9.83242 24.2331 8.76231 25.2965 7.88009 26.4999C6.99057 27.7132 6.3004 29.0731 5.80898 30.4945C5.68963 30.8397 5.58244 31.1891 5.48788 31.542C5.43495 31.7394 5.3784 31.9443 5.44284 32.1464C5.49555 32.3118 5.61279 32.435 5.75048 32.5342C5.93711 32.6688 6.31148 32.7562 6.30419 33.0268C6.29862 33.2325 6.22885 33.449 6.1948 33.6523C6.15427 33.8944 6.12096 34.138 6.08766 34.3811C5.93618 35.488 5.81827 36.6011 5.76613 37.7173C5.7148 38.8164 5.6722 39.9379 5.74841 41.0367C5.75345 41.1092 5.77505 41.1757 5.80988 41.2319C5.77736 41.2443 5.77486 41.305 5.81533 41.3136C5.84369 41.3196 5.87198 41.3256 5.90034 41.3316C5.95924 41.3762 6.0327 41.4035 6.11724 41.4062C6.17455 41.408 6.23182 41.4106 6.28907 41.4135C6.89317 41.5398 7.49718 41.6592 8.10916 41.7495C8.85308 41.8594 9.59918 41.9489 10.3476 42.0217C11.8855 42.1713 13.4112 42.1217 14.9511 42.041C16.4887 41.9605 18.0253 41.9417 19.5644 41.9818C21.1049 42.0219 22.6448 42.0889 24.1856 42.1163C25.907 42.1469 27.6258 42.0999 29.3422 41.963C29.5776 41.9443 29.7232 41.757 29.6767 41.5231C29.3986 40.1222 29.0835 38.7306 28.8345 37.3236Z" fill="#D08B5B"/>
<path fill-rule="evenodd" clip-rule="evenodd" d="M13.0537 22.4038L13.0874 22.3909C13.5417 22.2133 14.0147 21.9268 14.509 22.0326C14.5264 22.0261 14.8481 22.0917 15.0684 22.1333L14.8593 22.3516L14.4902 22.4226C15.7633 24.5245 17.2689 25.5754 19.0071 25.5754C20.7454 25.5754 22.0643 24.5245 22.9641 22.4226L23.0869 22.3886C23.102 22.3922 23.1182 22.3971 23.1354 22.4038C23.4257 22.5161 23.9924 23.0178 24.2702 23.1583C25.3873 23.7234 26.2913 24.5696 26.8256 25.7123C27.0977 26.2944 27.301 26.9055 27.5095 27.5125L27.531 27.5753C27.7622 28.2466 27.9902 28.9191 28.198 29.598C28.3937 30.2372 28.5716 30.8823 28.7169 31.5349L28.7365 31.624C28.8074 31.9497 28.9209 32.3155 28.8945 32.6511C28.8846 32.7782 28.8518 32.887 28.8034 32.9857L26.2855 33.8921L27.4851 42.0766C26.3863 42.1238 25.2865 42.1359 24.1856 42.1164C22.6448 42.0889 21.1049 42.0219 19.5644 41.9818C18.0719 41.943 16.5818 41.9595 15.0909 42.0339L14.7123 42.0533C13.2534 42.1263 11.8059 42.1636 10.3476 42.0217L10.2482 42.012L10.2482 40.8148L10.7605 34.1483L8.1644 33.6594L5.61599 32.4212C5.53899 32.3442 5.4772 32.2543 5.44284 32.1465C5.38315 31.9592 5.42726 31.7697 5.47615 31.5859L5.48788 31.542C5.58244 31.1892 5.68963 30.8397 5.80898 30.4945C6.3004 29.0732 6.99057 27.7132 7.88009 26.5C8.76231 25.2966 9.83242 24.2331 11.0818 23.4142C11.7015 23.0081 12.361 22.6663 13.0537 22.4038Z" fill="#EC7495"/>
<path fill-rule="evenodd" clip-rule="evenodd" d="M14.029 21.9984C14.1882 21.9915 14.3505 22.0172 14.5093 22.0329C14.5231 22.0342 14.5284 22.0556 14.5128 22.0588C14.2286 22.1182 13.9475 22.1995 13.6683 22.282L13.5488 22.3174C13.234 22.4105 12.9285 22.5066 12.6238 22.6309C12.0164 22.8785 11.4396 23.2127 10.9088 23.5967C8.86459 25.0752 7.38509 27.3138 6.45144 29.6314C6.19789 30.2609 5.98305 30.9059 5.80903 31.5619C5.76671 31.7215 5.7269 31.8817 5.68916 32.0424C5.67808 32.0895 5.62978 32.2102 5.65626 32.2584C5.67967 32.301 5.77069 32.3274 5.81297 32.3495L5.95573 32.4236C6.23419 32.5672 6.69804 32.8032 6.74455 32.8262L6.8171 32.8619C8.00366 33.4438 9.27149 33.9373 10.6067 33.9714L10.6172 33.8574C10.6767 33.2267 10.7549 32.5927 10.9254 31.9815C10.9345 31.9486 10.9763 31.9597 10.9801 31.9889C11.0751 32.7125 11.0448 33.4418 11.0116 34.1688C10.9529 35.4564 10.875 36.7432 10.8057 38.0303C10.7711 38.6741 10.7262 39.3175 10.6858 39.9611C10.6452 40.6058 10.6321 41.2661 10.5396 41.9056C10.519 42.0481 10.3521 42.1257 10.2257 42.1106C10.0858 42.094 9.97826 41.9708 9.97761 41.8295C9.97591 41.457 10.0227 41.0801 10.0487 40.7085C10.0734 40.3554 10.0999 40.0025 10.1271 39.6496C10.2264 38.3618 10.3406 37.0754 10.4462 35.7881C10.4836 35.3315 10.5241 34.8754 10.5657 34.4192C9.15122 34.3736 7.82975 33.8495 6.56909 33.2371C6.55085 33.6516 6.50678 34.0653 6.46412 34.478C6.34502 35.6298 6.24002 36.7812 6.16142 37.9366C6.12174 38.5201 6.09285 39.1044 6.06768 39.6887C6.05532 39.9759 6.04524 40.2632 6.03751 40.5505C6.03492 40.6463 6.03259 40.7421 6.03052 40.8379L6.02622 41.0573C6.0227 41.1963 6.00857 41.3251 5.89163 41.4264C5.77285 41.5291 5.61241 41.5346 5.49485 41.4264C5.33748 41.2814 5.36531 41.0839 5.36997 40.8892C5.37385 40.725 5.37851 40.5608 5.38393 40.3966C5.39479 40.0682 5.40865 39.74 5.42552 39.4119C5.48456 38.2647 5.60251 37.1222 5.75666 35.9843L5.81683 35.545C5.9292 34.7284 6.05257 33.8932 6.30377 33.1066C6.20596 33.0579 6.10844 33.0089 6.01128 32.9597C5.83895 32.8724 5.66077 32.7905 5.49326 32.6942C5.36036 32.6177 5.24574 32.5129 5.20875 32.3582C5.16749 32.1858 5.23058 31.9973 5.27249 31.8292L5.27613 31.8144C5.31723 31.6451 5.36149 31.4765 5.40818 31.3086C5.59754 30.628 5.83169 29.9606 6.10571 29.3094C6.65438 28.0059 7.36258 26.7675 8.22765 25.6478C9.00634 24.6399 9.92621 23.7258 11.0043 23.0403C11.5314 22.7052 12.0931 22.43 12.6871 22.2354C12.9648 22.1445 13.2669 22.0654 13.5576 22.0328C13.7144 22.0153 13.8714 22.0052 14.029 21.9984ZM16.8494 19.9328C17.0386 19.7296 17.4144 19.9399 17.3236 20.209C17.11 20.842 16.7697 21.4195 16.2388 21.8355C15.7397 22.2266 15.1445 22.4805 14.5036 22.4263C14.4987 22.4259 14.4944 22.4247 14.4906 22.4229L14.5458 22.4978C14.9795 23.0846 15.4369 23.6633 15.9883 24.143C17.1117 25.1202 18.6413 25.6473 20.1183 25.2723C21.2803 24.9774 22.3041 24.0581 22.6052 22.8866C22.5621 22.9059 22.5108 22.9125 22.4545 22.9003C22.2136 22.848 21.9751 22.5945 21.8197 22.4128C21.6516 22.2162 21.5203 22.0039 21.4241 21.7639C21.248 21.3247 21.1916 20.7593 21.432 20.3339C21.4617 20.2814 21.5301 20.3108 21.5359 20.362L21.5451 20.4419C21.5914 20.8406 21.6492 21.2263 21.8371 21.5897C21.929 21.7676 22.0393 21.9412 22.1735 22.0901C22.2453 22.1698 22.3231 22.246 22.4071 22.3128C22.489 22.3779 22.5881 22.425 22.6615 22.4996L22.675 22.514L22.6754 22.5114C22.6939 22.3536 22.8046 22.284 22.9128 22.2884C23.0176 22.2926 23.1407 22.3387 23.1883 22.3608L23.1928 22.363C23.9237 22.714 24.5969 23.1714 25.2304 23.679C26.5404 24.7287 27.522 26.1009 27.9976 27.7168C28.231 28.5099 28.3649 29.3271 28.5063 30.1405L28.5934 30.6388C28.7253 31.3897 28.8727 32.1554 29.1706 32.8539C29.2477 33.0346 29.1883 33.204 28.9993 33.2751C28.7634 33.3638 28.5266 33.4497 28.2894 33.5346C28.4059 34.0344 28.4769 34.5515 28.5642 35.0538C28.7496 36.1215 28.9769 37.1824 29.1718 38.2486C29.2714 38.7938 29.3613 39.3408 29.4608 39.8861C29.5087 40.1486 29.5588 40.4109 29.6074 40.6733C29.6336 40.8148 29.6573 40.9568 29.6824 41.0985L29.6867 41.122C29.701 41.1968 29.719 41.2741 29.6985 41.3489C29.675 41.4343 29.6085 41.4945 29.549 41.5557C29.5001 41.6061 29.4294 41.6064 29.3695 41.5789L29.3497 41.5698C29.2427 41.5197 29.1588 41.4697 29.1208 41.3489C29.0968 41.2724 29.0881 41.1863 29.0724 41.1075C29.0423 40.9564 29.0137 40.8051 28.9867 40.6534C28.9328 40.3499 28.8801 40.0462 28.8286 39.7422L28.7805 39.4576C28.6156 38.4767 28.4589 37.4897 28.3798 36.4984C28.3446 36.0586 28.3074 35.6192 28.2698 35.1798L28.2416 34.8501C28.2059 34.4329 28.1623 34.0051 28.1562 33.5823L28.0143 33.6326L27.3223 33.8774C27.1507 33.938 26.9322 34.0623 26.7476 34.0397C26.6572 34.0286 26.5883 34.0002 26.5351 33.9484C26.5988 34.8481 26.685 35.7462 26.8 36.6397C26.9046 37.4528 27.0206 38.2647 27.1575 39.0729C27.2254 39.4731 27.2951 39.873 27.3708 40.2718C27.4086 40.4712 27.4477 40.6703 27.4879 40.8693C27.508 40.9685 27.5319 41.0679 27.5475 41.168C27.5654 41.2826 27.5339 41.3531 27.4699 41.4473C27.4173 41.5248 27.3122 41.5645 27.2269 41.5111C27.1141 41.4402 27.0552 41.3789 27.022 41.2498C26.9918 41.1326 26.9735 41.0103 26.9501 40.8916C26.907 40.6725 26.8654 40.4531 26.8252 40.2334C26.7411 39.774 26.6635 39.3135 26.5943 38.8516C26.3503 37.2244 26.1955 35.5835 26.1173 33.9401C26.0788 33.1292 26.0668 32.3176 26.0737 31.5059C26.0772 31.0898 26.0908 30.6726 26.1202 30.2576C26.15 29.8374 26.212 29.4257 26.2673 29.0097C26.2692 28.995 26.2899 28.9942 26.2908 29.0097C26.317 29.4761 26.358 29.9421 26.3782 30.4098C26.3974 30.8561 26.4058 31.303 26.4211 31.7495C26.4411 32.3363 26.469 32.9235 26.5058 33.5102C26.5725 33.4373 26.673 33.3952 26.7736 33.4116C26.9193 33.381 27.0762 33.3045 27.2152 33.2581L27.7389 33.0831C28.0142 32.9911 28.2896 32.8997 28.5659 32.8111C28.3188 31.9797 28.1496 31.1359 28.0051 30.2798L27.9407 29.8948C27.8131 29.1369 27.6756 28.3787 27.4445 27.6448C27.2016 26.8732 26.8381 26.1559 26.3559 25.5063C25.8805 24.8661 25.3022 24.3023 24.7068 23.775C24.197 23.3237 23.6517 22.9161 23.1318 22.4771C23.1372 22.5062 23.1384 22.5383 23.1336 22.5734C23.023 23.3828 22.601 24.1366 22.0128 24.6972C20.8311 25.8235 19.0819 26.0572 17.5695 25.529C16.1065 25.0182 14.813 23.8082 14.356 22.311C14.3481 22.2854 14.3824 22.2752 14.3962 22.2941C14.4216 22.3288 14.447 22.3636 14.4726 22.3983C14.4708 22.3845 14.478 22.3695 14.495 22.3629C15.0282 22.1569 15.5518 21.8648 15.9515 21.4516C16.1463 21.2502 16.3163 21.022 16.4506 20.7759C16.5148 20.658 16.5726 20.5359 16.6187 20.4098L16.6304 20.3771C16.6862 20.2191 16.7329 20.058 16.8494 19.9328Z" fill="black"/>
<path fill-rule="evenodd" clip-rule="evenodd" d="M16.454 7.49316L16.7238 7.81478C16.5744 7.9203 16.4334 8.02634 16.3008 8.13288L16.3006 8.13256C16.915 7.7307 17.5954 7.49316 18.3305 7.49316C19.7462 7.49316 22.6219 8.71232 23.272 9.59171C23.5946 10.0281 24.1941 11.3678 24.505 12.8244C24.7549 13.9947 25.1265 17.3009 24.7549 18.5433C24.2793 20.1333 22.7145 21.6028 21.101 21.6028C19.4875 21.6028 16.9825 20.435 15.1996 17.8759C15.1181 17.7589 14.182 17.6233 13.5141 17.184L13.6895 19.1206L13.8227 20.2471L13.7933 20.3272C13.315 21.6241 12.936 22.3006 12.6562 22.3569C12.3708 22.4143 11.7894 21.9452 10.9122 20.9496L10.8001 20.4779C10.5154 19.2748 10.373 18.629 10.373 18.5405L10.3732 18.5244C10.3774 18.3207 10.4474 17.1682 10.4489 16.8581L10.4489 12.2095C11.3923 9.06527 12.2926 7.49316 13.1497 7.49316H16.454Z" fill="#D08B5B"/>
<path fill-rule="evenodd" clip-rule="evenodd" d="M14.2185 6.42242C14.4959 6.31471 14.8172 6.33506 15.0805 6.49726C15.5975 6.47502 16.1116 6.77812 16.3811 7.22054C16.3867 7.22681 16.3927 7.23307 16.398 7.23933L16.4551 7.30607C16.5092 7.3698 16.5662 7.44005 16.6114 7.51258C16.39 7.51765 16.2056 7.60811 16.0769 7.79081C15.985 7.92118 16.1954 8.04505 16.2893 7.92176L16.2926 7.91725C16.3699 7.80756 16.4866 7.76508 16.6165 7.76285C16.6538 7.76223 16.6821 7.74792 16.7021 7.72681C16.71 7.7559 16.7172 7.7853 16.7237 7.81483C17.3778 7.5598 18.0829 7.49226 18.7852 7.55275C18.7544 7.60273 18.7286 7.65627 18.7088 7.71254C18.6864 7.77632 18.7343 7.84955 18.7961 7.86659C18.8629 7.885 18.9233 7.84573 18.9475 7.78504L18.9497 7.7791C18.9767 7.70245 19.0208 7.63667 19.08 7.58566C19.4106 7.63059 19.7388 7.70205 20.059 7.79416C20.4439 7.90497 20.8252 8.04021 21.198 8.19504C21.1349 8.21987 21.0803 8.26183 21.0421 8.33187C20.9659 8.47168 21.1755 8.59691 21.2551 8.46325L21.2579 8.4583C21.2657 8.44397 21.2726 8.43535 21.2777 8.43045L21.2795 8.42878L21.2905 8.42371L21.311 8.41782L21.3188 8.41588C21.3258 8.41432 21.3286 8.41442 21.3469 8.4134C21.3712 8.41203 21.3955 8.41215 21.4199 8.41212C21.4771 8.41209 21.5136 8.38012 21.5301 8.33923C21.7141 8.42248 21.8958 8.51016 22.0742 8.60199L22.1166 8.62401C22.6674 8.9125 23.1892 9.29135 23.4919 9.8488C23.5119 9.88606 23.5181 9.92677 23.5131 9.96559C23.5777 10.0432 23.6402 10.1234 23.7002 10.2048C23.8832 10.454 24.0172 10.7374 24.144 11.0183C24.3992 11.5831 24.5709 12.1633 24.7049 12.7683C24.8346 13.3513 24.9392 13.9405 25.0363 14.5298C25.1441 15.1845 25.2337 15.8449 25.2525 16.509C25.2856 17.6929 25.0547 18.8836 24.3917 19.8803C23.8002 20.7695 22.9094 21.4756 21.8531 21.7016C20.7787 21.9315 19.6418 21.7073 18.7951 20.9896C18.6586 20.8741 18.6773 20.6408 18.7951 20.5225C18.9284 20.3891 19.1252 20.4075 19.261 20.5225C20.0584 21.1985 21.219 21.3027 22.1798 20.9583C23.0681 20.6396 23.7639 19.9044 24.1908 19.0787C24.7118 18.0717 24.7996 16.9151 24.7196 15.8011C24.6759 15.1892 24.585 14.5824 24.4913 13.9766L24.4347 13.6118C24.373 13.2168 24.3082 12.8223 24.2237 12.4313L24.2039 12.3403C24.1005 11.8687 23.9795 11.3851 23.7923 10.9419C23.6942 10.7092 23.5762 10.485 23.4553 10.2637C23.4319 10.2208 23.4078 10.1773 23.3832 10.1334C23.3501 10.145 23.3123 10.1469 23.2726 10.1344C22.9312 10.0279 22.5805 9.95651 22.2235 9.93272C22.0609 9.92182 21.898 9.92013 21.7353 9.92648C21.4568 9.91023 21.1705 9.93478 20.9052 10.0204C20.8793 9.99806 20.853 9.97621 20.8267 9.95435C20.8196 9.95379 20.8125 9.95304 20.8054 9.95163C20.7377 9.93829 20.6901 9.89007 20.6614 9.82917C20.6599 9.82594 20.6586 9.82272 20.6573 9.81949C20.6233 9.79347 20.5891 9.76786 20.5546 9.74259C20.4704 9.76448 20.3966 9.69425 20.3767 9.61729C20.358 9.60461 20.3389 9.59233 20.32 9.5799C20.3052 9.58353 20.2904 9.58654 20.2761 9.5876C20.2141 9.59208 20.1542 9.58256 20.0992 9.55291C20.0297 9.51537 19.9852 9.45481 19.9555 9.38602C19.8503 9.3925 19.7439 9.35828 19.6498 9.29641C19.5735 9.24622 19.515 9.17693 19.4569 9.10776C18.7486 8.79105 17.9787 8.60406 17.2069 8.55615C17.1309 8.57081 17.0554 8.58825 16.9808 8.60854C16.9632 8.61336 16.9381 8.62281 16.9093 8.63415C17.0814 8.61329 17.2556 8.61123 17.4324 8.63675C18.2711 8.75833 18.9244 9.38787 19.4866 9.98212C19.6203 9.95504 19.7555 10.1287 19.6317 10.2436L18.6667 11.1401C18.6904 11.2404 18.5757 11.3392 18.4752 11.3151C18.3068 11.2745 18.138 11.2351 17.9691 11.1963C17.793 11.2817 17.5715 11.2671 17.4117 11.1432C17.4043 11.1375 17.3881 11.1283 17.3741 11.1191C17.361 11.13 17.3433 11.1409 17.3363 11.1455C17.2795 11.1832 17.2103 11.1943 17.1439 11.1837C17.0757 11.1729 17.014 11.1381 16.9609 11.0949C16.9271 11.0673 16.8483 10.9524 16.8044 10.944L16.8001 10.9435C16.8294 10.9443 16.7353 11.032 16.7101 11.0501C16.6511 11.0923 16.5859 11.1144 16.5126 11.1064C16.3847 11.0922 16.2748 10.9754 16.2122 10.8676L16.2075 10.8593L16.2055 10.8541L16.2039 10.8597C16.2036 10.8607 16.2032 10.8617 16.2028 10.8629C16.1934 10.8883 16.164 10.9172 16.144 10.9349C16.087 10.9854 16.0165 11.0076 15.9412 10.9944C15.8774 10.9833 15.8238 10.9447 15.7807 10.898L15.774 10.8905C15.7612 10.8761 15.6772 10.763 15.6905 10.7358L15.692 10.7336L15.6878 10.7327C15.6368 10.7453 15.5939 10.7327 15.5624 10.7063C15.3871 10.6677 15.214 10.6229 15.0465 10.5658C15.0334 10.6028 15.0206 10.6397 15.0081 10.677C15.0996 10.7337 15.1842 10.8144 15.262 10.8721C15.4094 10.981 15.5568 11.09 15.7039 11.1993L16.2868 11.6303L16.3535 11.6123C16.4386 11.5894 16.5117 11.6391 16.543 11.7151L16.5455 11.7217C16.5579 11.755 16.5729 11.7857 16.5904 11.8152C16.7361 11.8094 16.8595 11.8991 16.8994 12.0277C16.9354 12.0269 16.9717 12.0282 17.0089 12.0323C17.1107 12.0436 17.1793 12.1193 17.1608 12.2234L17.1594 12.2305L17.157 12.2421C17.216 12.2672 17.2588 12.3157 17.2683 12.389C17.2841 12.4129 17.2968 12.4388 17.305 12.4677C17.3475 12.6175 17.2647 12.8026 17.2206 12.9461L17.2172 12.9574C17.1889 13.0517 17.1596 13.1455 17.1299 13.2394L17.0561 13.4723C16.8513 14.1214 16.6517 14.8058 16.8174 15.4864C16.8527 15.6304 16.669 15.6955 16.5894 15.5828C16.3963 15.3099 16.1877 15.0527 15.9687 14.8059L15.958 14.8042C15.8047 14.7733 15.7451 14.6647 15.6747 14.554C15.6332 14.5662 15.5886 14.5691 15.5455 14.5608C15.4831 14.5487 15.4272 14.513 15.3831 14.4679C15.3457 14.4296 15.3114 14.3315 15.2672 14.3071C15.212 14.2767 15.1008 14.3202 15.0348 14.3104C14.9811 14.3025 14.931 14.284 14.8824 14.2608C14.793 14.383 14.7337 14.5266 14.7192 14.6814C14.7135 14.7402 14.696 14.79 14.6708 14.8313C14.7638 14.8279 14.8572 14.8345 14.9494 14.8517C15.2904 14.9153 15.535 15.1263 15.6724 15.4407C15.6783 15.4544 15.6605 15.4657 15.6524 15.4526C15.4485 15.1379 15.0046 15.1219 14.6823 15.2328C14.34 15.3505 14.1479 15.6526 14.0795 15.9974C14.0046 16.3753 14.1008 16.7827 14.306 17.1045C14.4012 17.2542 14.5312 17.3907 14.7039 17.4458C14.9091 17.5113 15.0986 17.3942 15.3088 17.4546C15.4519 17.4956 15.515 17.6343 15.4891 17.773C15.4787 17.8275 15.4597 17.8751 15.4341 17.9164C15.5097 18.0667 15.5796 18.2214 15.6686 18.3636C15.8061 18.583 15.9723 18.7647 16.1534 18.9478C16.3405 19.1369 16.531 19.3223 16.7312 19.4976C16.923 19.6658 17.1429 19.7854 17.344 19.9394C17.4852 20.0475 17.5551 20.199 17.4855 20.3725C17.428 20.5159 17.2343 20.638 17.0776 20.5732C16.7774 20.4492 16.5147 20.2382 16.2755 20.0209C16.0538 19.8192 15.8607 19.5781 15.7149 19.3164C15.5773 19.0696 15.4759 18.7893 15.3903 18.5194L15.3797 18.4857C15.3394 18.3573 15.297 18.2129 15.2695 18.0674C15.1049 18.1575 14.8816 18.1707 14.7055 18.1463C14.4209 18.1071 14.1613 17.9634 13.9652 17.7539C13.8738 17.6565 13.793 17.5453 13.7232 17.4248C13.7295 17.4981 13.7333 17.5691 13.7374 17.6337C13.9005 17.8127 13.9659 18.0711 13.908 18.3069C14.0444 18.4476 14.0826 18.6589 14.0114 18.8389C14.1607 18.9873 14.1551 19.2236 14.0906 19.4382C14.2671 19.636 14.2838 19.9441 14.146 20.1673L14.1418 20.1833C14.281 20.4168 14.2496 20.7185 14.0752 20.9247C14.1943 21.1562 14.1759 21.4677 13.8783 21.5576C13.7698 21.5903 13.6647 21.5624 13.586 21.5014C13.6578 21.8596 13.69 22.2232 13.5942 22.583C13.556 22.7258 13.4168 22.8301 13.2703 22.8301C13.1478 22.8301 13.0588 22.7684 12.9973 22.6776C13.0045 22.8583 12.9936 23.0399 12.9552 23.223C12.932 23.3337 12.8296 23.4199 12.721 23.4466C12.7602 23.4909 12.7758 23.555 12.7382 23.6218C12.5789 23.9045 12.194 23.7872 12.1679 23.5164C12.0592 23.435 12.0087 23.3015 11.9878 23.1571C11.9573 22.9467 11.9462 22.7397 11.9117 22.5319L11.8985 22.5443L11.8916 22.5502L11.8895 22.5652C11.8697 22.6679 11.8119 22.7398 11.7369 22.7827C11.7532 22.9619 11.723 23.1443 11.6096 23.2804C11.5341 23.3711 11.4055 23.4068 11.2952 23.3871C11.2883 23.3874 11.2812 23.3874 11.2738 23.3864C11.024 23.3531 10.8795 23.1157 10.9453 22.8977C10.8447 22.7741 10.8023 22.6173 10.8321 22.4624C10.6375 22.3332 10.6415 22.0495 10.7089 21.8216C10.5048 21.6602 10.4281 21.3584 10.5306 21.1186C10.3467 20.8897 10.3212 20.5707 10.4461 20.31C10.2438 20.1434 10.245 19.8217 10.4456 19.6514C10.3388 19.4387 10.2743 19.1839 10.3811 18.9893C10.3058 18.906 10.2644 18.7872 10.2731 18.6724C10.2859 18.5038 10.3972 18.3874 10.5352 18.3097L10.5448 18.257C10.5772 18.261 10.6117 18.252 10.6422 18.2227C10.6723 18.1936 10.7033 18.1702 10.7354 18.151C10.7717 18.1505 10.803 18.1343 10.825 18.1093C10.8851 18.0888 10.9498 18.0798 11.0216 18.079C11.1765 18.0773 11.182 17.845 11.0378 17.8299C11.015 17.8069 10.9836 17.7924 10.9496 17.7924L10.923 17.7925C10.8607 17.7931 10.7979 17.797 10.7401 17.8218C10.7026 17.8379 10.6736 17.8621 10.6524 17.8918C10.6484 17.9367 10.6241 17.9815 10.5713 18.0185C10.5104 18.0612 10.427 18.0662 10.3618 18.0275C10.2705 17.9734 10.2696 17.889 10.2801 17.7972C10.3032 17.5963 10.188 17.4073 10.2154 17.2019C10.2276 17.111 10.2577 17.0326 10.3069 16.9693C10.2032 16.8136 10.1849 16.6127 10.2648 16.4418C10.0984 16.2624 10.0696 15.9858 10.1757 15.7698C10.1772 15.7646 10.1784 15.7593 10.1801 15.7541C10.1921 15.7174 10.2086 15.6843 10.2268 15.6526C10.1337 15.4909 10.1344 15.2924 10.229 15.1313C10.0856 14.9638 10.0811 14.6971 10.2086 14.5165C10.2094 14.5016 10.2109 14.4866 10.2122 14.4716C10.1537 14.3193 10.1677 14.1461 10.242 14.0045C10.2155 13.9433 10.195 13.8774 10.182 13.8072C10.1485 13.6262 10.1658 13.4502 10.2157 13.2736C10.2238 13.2457 10.2329 13.2179 10.2426 13.19C10.2442 13.0691 10.2488 12.9486 10.2548 12.8284C10.2311 12.7267 10.2273 12.6149 10.2267 12.511L10.2266 12.4437C10.2254 12.2724 10.2135 12.0216 10.3215 11.876C10.2522 11.7187 10.2807 11.5205 10.3965 11.3958C10.3152 11.2557 10.2981 11.0836 10.3798 10.9282C10.3929 10.9031 10.4082 10.8798 10.4248 10.8578C10.4181 10.7154 10.448 10.5686 10.5237 10.4271C10.5728 10.335 10.6462 10.2553 10.7335 10.1914C10.7321 10.1726 10.7312 10.1537 10.7315 10.1351C10.733 10.0523 10.7513 9.9691 10.7822 9.89148C10.7268 9.79673 10.7011 9.68993 10.7335 9.57483C10.7698 9.44457 10.8651 9.33248 10.984 9.26923C10.9936 9.14643 11.0128 9.02435 11.0401 8.90389C10.967 8.74067 11.0252 8.52525 11.1905 8.42909C11.1689 8.29865 11.1883 8.16338 11.283 8.0615C11.3189 8.02289 11.3612 7.99362 11.4067 7.9742C11.3848 7.84304 11.4095 7.70659 11.5 7.59978C11.5739 7.51258 11.6834 7.4596 11.7949 7.45181C11.8378 7.22367 12.0552 7.05309 12.2846 7.06668C12.3132 6.96623 12.3817 6.87866 12.488 6.83426C12.5152 6.82289 12.5427 6.81541 12.5701 6.81124C12.7566 6.62263 13.0343 6.49478 13.2747 6.42931C13.5158 6.3639 13.7603 6.35757 13.9673 6.43362L13.9824 6.43933L13.9992 6.43714C14.0724 6.429 14.1454 6.4243 14.2185 6.42242ZM12.3861 21.8819C12.3217 21.8617 12.2498 21.9057 12.2324 21.9693C12.2139 22.0366 12.255 22.1032 12.3196 22.1234C12.4002 22.1486 12.4848 22.1549 12.5687 22.1549C12.6362 22.155 12.6937 22.0973 12.6937 22.0297C12.6937 21.9617 12.6365 21.9045 12.5687 21.9044C12.5005 21.9044 12.4501 21.9019 12.3861 21.8819ZM11.8132 20.5518C11.7169 20.5519 11.6343 20.5749 11.5629 20.6426C11.5153 20.6877 11.5141 20.7748 11.5629 20.8197C11.6122 20.865 11.6837 20.8677 11.7342 20.8245L11.744 20.8158C11.7452 20.8147 11.7461 20.8139 11.7468 20.8132C11.7509 20.8105 11.7549 20.8078 11.7593 20.8056L11.7511 20.8109C11.7449 20.8154 11.7593 20.8081 11.7674 20.8046L11.7699 20.8036L11.7707 20.8034L11.7772 20.8029C11.7891 20.8023 11.8012 20.8023 11.8132 20.8023C11.8785 20.8022 11.9411 20.7447 11.9381 20.677C11.935 20.6092 11.8832 20.5517 11.8132 20.5518ZM13.6302 19.7572C13.7655 19.6741 13.6447 19.4614 13.509 19.538L13.5041 19.5409C13.4346 19.5837 13.3491 19.5779 13.2703 19.5779C13.1096 19.578 13.1093 19.8285 13.2703 19.8284L13.2969 19.8283C13.4124 19.8274 13.5292 19.8193 13.6302 19.7572ZM12.566 18.8429C12.4638 18.8236 12.3493 18.8064 12.2418 18.8182L12.224 18.8204H12.1909C12.1622 18.8204 12.1344 18.832 12.112 18.8502C12.0767 18.8649 12.0432 18.8847 12.0126 18.9112C11.8909 19.017 12.0683 19.1935 12.1893 19.0883C12.1961 19.0825 12.2039 19.0777 12.2125 19.0737L12.2192 19.0709H12.3528C12.365 19.0709 12.3768 19.0684 12.3883 19.0647C12.4317 19.0707 12.4721 19.0793 12.4995 19.0845C12.6567 19.1141 12.724 18.8727 12.566 18.8429ZM12.4519 16.4389C12.256 16.3478 12.0392 16.3485 11.858 16.4749C11.7285 16.5653 11.8488 16.7785 11.9795 16.6943L11.9841 16.6912C12.0004 16.6799 12.0171 16.6704 12.0339 16.6618C12.1259 16.6884 12.2184 16.6897 12.3073 16.6569L12.3189 16.6524L12.3258 16.6551C12.4707 16.7225 12.5978 16.5067 12.4519 16.4389ZM14.5844 16.0464C14.3865 16.0242 14.3849 15.7109 14.5844 15.7333C15.0054 15.7806 15.3875 15.9683 15.6673 16.2905C15.7974 16.4404 15.5831 16.6597 15.4505 16.5165L15.4464 16.5119C15.2239 16.2557 14.9236 16.0845 14.5844 16.0464ZM12.3681 14.4379C12.3241 14.433 12.2802 14.4306 12.2371 14.4327C12.1333 14.4377 12.0069 14.5071 12.0525 14.6325C12.089 14.7329 12.2087 14.7369 12.2678 14.6833C12.2923 14.6839 12.3169 14.6856 12.3413 14.6881C12.4066 14.6948 12.4712 14.7073 12.5355 14.72C12.6926 14.7509 12.7598 14.5096 12.6019 14.4784L12.5321 14.4646C12.5086 14.4599 12.4848 14.4554 12.461 14.4513C12.4467 14.4442 12.4314 14.4394 12.4151 14.4382L12.4068 14.4379H12.3681ZM11.1268 12.4945L11.1121 12.4925C10.9011 12.4655 10.5624 12.4904 10.5368 12.7596C10.5227 12.9087 10.7376 12.9181 10.78 12.7906C10.9358 12.7624 11.0928 12.757 11.2476 12.7741C11.3066 12.714 11.3071 12.5985 11.2088 12.5696C11.1949 12.5322 11.166 12.5002 11.1268 12.4945ZM15.9493 12.0398C15.9005 11.9949 15.8206 11.989 15.7726 12.0398C15.7449 12.069 15.7219 12.1015 15.7036 12.1373L15.6914 12.1614C15.6894 12.1655 15.6873 12.1694 15.6851 12.1734C15.681 12.1807 15.6764 12.1876 15.6719 12.1947L15.6689 12.1977C15.6677 12.1989 15.6663 12.2003 15.6646 12.2021C15.6197 12.2497 15.614 12.3326 15.6646 12.3792C15.7134 12.4241 15.7933 12.4301 15.8413 12.3792C15.8689 12.35 15.892 12.3175 15.9103 12.2817L15.9225 12.2576C15.9245 12.2536 15.9266 12.2496 15.9288 12.2457C15.9329 12.2384 15.9375 12.2314 15.942 12.2243L15.9469 12.2194C15.9476 12.2186 15.9484 12.2178 15.9493 12.2169C15.9942 12.1693 15.9999 12.0864 15.9493 12.0398ZM13.3874 11.7136C13.2113 11.5886 13.002 11.5828 12.8402 11.7332C12.7234 11.8418 12.895 12.0158 13.0127 11.914L13.0169 11.9103C13.0212 11.9063 13.0255 11.9028 13.0298 11.8995C13.0509 11.9175 13.0777 11.9289 13.1084 11.929C13.1164 11.929 13.1244 11.929 13.1324 11.9291L13.1444 11.9296L13.1509 11.9301L13.1517 11.9302L13.1573 11.9326C13.1676 11.9373 13.1818 11.9445 13.1623 11.9322C13.1666 11.9345 13.1707 11.9372 13.1748 11.9399L13.182 11.9464C13.2291 11.991 13.3106 11.9969 13.3573 11.9476C13.4401 11.9195 13.4841 11.7823 13.3874 11.7136ZM15.1084 11.3033L15.1116 11.3023C15.2659 11.2581 15.2003 11.0164 15.0451 11.0607C14.8805 11.1079 14.8019 11.2614 14.769 11.4187C14.7551 11.4849 14.7883 11.5541 14.8562 11.5728C14.9183 11.5899 14.996 11.5518 15.0099 11.4853C15.0197 11.4386 15.031 11.3989 15.0488 11.3621L15.0596 11.3411C15.0646 11.3315 15.0664 11.3299 15.0834 11.315C15.0863 11.3125 15.0993 11.3064 15.1084 11.3033ZM12.494 10.0417L12.4699 10.0362C12.3195 10.0032 12.1199 9.98595 12.0291 10.1354C11.9463 10.2715 12.1551 10.3955 12.2411 10.2668C12.2424 10.2667 12.2439 10.2667 12.2457 10.2669L12.2485 10.2672L12.2871 10.2641C12.3351 10.2637 12.381 10.2723 12.4276 10.2833C12.5839 10.3204 12.6507 10.0789 12.494 10.0417ZM17.8922 9.0788C18.006 8.96467 17.8294 8.78748 17.7155 8.9017C17.6255 8.99197 17.5386 9.08287 17.4801 9.19756C17.4494 9.25774 17.4644 9.33345 17.5249 9.36893C17.5807 9.40165 17.665 9.38443 17.6958 9.324C17.7466 9.22458 17.8106 9.16065 17.8922 9.0788ZM16.4556 8.77921C16.3432 8.84597 16.2704 8.95593 16.2262 9.08321C16.204 9.14709 16.2514 9.2202 16.3134 9.23726C16.3801 9.25561 16.441 9.21649 16.4649 9.15573L16.4671 9.14978C16.4789 9.11575 16.4979 9.07554 16.5213 9.0452C16.5413 9.01931 16.5723 8.99338 16.5958 8.98477C16.6521 8.96404 16.692 8.91288 16.6868 8.85314C16.5942 8.88523 16.5082 8.84663 16.4556 8.77921ZM13.0888 8.2344C12.9754 8.12882 12.8231 8.11482 12.6856 8.17873C12.6243 8.20716 12.609 8.29567 12.6408 8.35009C12.6775 8.41306 12.7502 8.42358 12.8117 8.39502C12.7959 8.40235 12.8244 8.39268 12.8367 8.38914C12.8383 8.38987 12.8589 8.38893 12.866 8.38903L12.8746 8.38957C12.8746 8.38963 12.8725 8.38959 12.8683 8.38945C12.8743 8.39081 12.8802 8.39243 12.886 8.3943L12.8935 8.39688C12.8897 8.3961 12.9066 8.40713 12.9113 8.41079L12.9122 8.41149C13.0299 8.52105 13.207 8.34433 13.0888 8.2344Z" fill="black"/>
<path fill-rule="evenodd" clip-rule="evenodd" d="M22.177 17.8896C22.2844 17.7 22.6048 17.7308 22.6538 17.9519C22.7532 18.4001 22.219 18.814 21.8132 18.8243C21.41 18.8346 20.9575 18.4912 21.0159 18.0576C21.0303 17.9503 21.1736 17.9633 21.2224 18.0306L21.2414 18.0564C21.374 18.2346 21.549 18.4191 21.7951 18.3756C21.8971 18.3577 21.9897 18.2939 22.0514 18.2118C22.1257 18.1128 22.1176 17.9945 22.177 17.8896ZM19.613 14.6107C19.6677 14.5956 19.7228 14.6014 19.7713 14.622C19.8794 14.6419 19.9697 14.732 20.0014 14.835C20.0039 14.8439 20.0067 14.8527 20.0098 14.8614L20.0146 14.8744L20.0017 14.8414C20.0076 14.8739 20.0341 14.9081 20.0436 14.9407C20.0553 14.9808 20.0581 15.0264 20.0542 15.0705C20.0886 15.0709 20.1229 15.072 20.1572 15.075L20.1904 15.078C20.3758 15.0952 20.5793 15.1268 20.6892 15.2871C20.7509 15.3771 20.693 15.5392 20.5796 15.5566C20.405 15.5833 20.2547 15.4867 20.0807 15.4673C19.9163 15.449 19.7442 15.4595 19.5819 15.4892C19.2468 15.5505 18.9388 15.6864 18.6122 15.7716L18.5678 15.7829L18.5678 15.7827C18.5119 15.7962 18.4484 15.7184 18.5037 15.6729C18.7653 15.4579 19.1003 15.2836 19.4303 15.1775C19.3822 15.101 19.3673 15.0002 19.4002 14.9181C19.4053 14.9011 19.4116 14.8845 19.4183 14.868L19.4322 14.8341C19.4335 14.8181 19.4366 14.8023 19.441 14.7868L19.4417 14.7821L19.4422 14.7824C19.4667 14.7025 19.5309 14.6333 19.613 14.6107ZM22.9509 14.623C23.0225 14.5514 23.123 14.562 23.1977 14.6184L23.2076 14.6261C23.278 14.6574 23.3362 14.7258 23.3745 14.7891C23.4142 14.8549 23.4406 14.9219 23.4416 14.9943C23.6148 14.9949 23.7807 15.0469 23.9079 15.1868C23.949 15.2319 23.977 15.3015 23.9544 15.3628L23.941 15.3992C23.8983 15.5148 23.7063 15.5813 23.641 15.4454L23.638 15.4388C23.5687 15.2773 23.3026 15.2943 23.1611 15.3108C23.0625 15.3223 22.9652 15.3468 22.8699 15.3743C22.8364 15.384 22.8032 15.3945 22.7699 15.4052L22.7367 15.416C22.719 15.4217 22.6268 15.4718 22.6842 15.4599C22.6996 15.4568 22.7112 15.4792 22.6955 15.4868C22.627 15.5195 22.554 15.4543 22.5586 15.3808C22.5665 15.2532 22.7691 15.1832 22.8666 15.1392L22.8724 15.1366C22.9098 15.1193 22.9489 15.1027 22.9894 15.0873C22.9666 15.0535 22.9478 15.016 22.9322 14.9756C22.9175 14.9376 22.9076 14.9005 22.9022 14.8601C22.8969 14.8403 22.8969 14.8205 22.9022 14.8007L22.903 14.795C22.9002 14.7819 22.8989 14.7684 22.8991 14.7548L22.8986 14.7495H22.8991C22.901 14.7018 22.92 14.654 22.9509 14.623ZM21.8076 15.9821C22.0825 16.0671 22.536 16.2985 22.3928 16.6558C22.1928 16.984 21.6623 16.7428 21.4052 16.6368C21.1743 16.5603 21.054 16.8841 21.2773 16.9817C23.1227 17.712 23.1159 15.7845 21.8745 15.8128C21.7379 15.8159 21.7336 15.9538 21.8076 15.9821ZM19.3662 13.4688L19.413 13.4551C19.6567 13.3845 19.9054 13.2626 20.1218 13.4529C20.2067 13.5276 20.2242 13.6828 20.1634 13.776C20.025 13.9883 19.8196 13.9559 19.596 13.974C19.4257 13.9877 19.258 14.0378 19.0991 14.1003C18.9692 14.1514 18.8487 14.2234 18.735 14.3037C18.6232 14.3826 18.5469 14.506 18.4323 14.5771C18.3903 14.6031 18.3417 14.5763 18.3267 14.5341C18.2732 14.3843 18.3635 14.1976 18.44 14.07C18.5333 13.9142 18.675 13.7869 18.8274 13.6905C18.9943 13.5849 19.1788 13.524 19.3662 13.4688ZM22.9166 13.3076C23.3285 13.3075 23.7248 13.5367 23.9552 13.8726C24.0334 13.9867 23.9761 14.1558 23.8637 14.2215C23.7377 14.2953 23.6029 14.2422 23.5198 14.1365L23.5149 14.1301C23.3828 13.9541 23.2125 13.8155 23.0106 13.7252C22.9121 13.6812 22.8032 13.6454 22.6966 13.6273L22.6622 13.6214C22.6139 13.6133 22.558 13.6056 22.5143 13.6132C22.4909 13.6162 22.4695 13.624 22.4497 13.6357C22.4592 13.6565 22.4346 13.6816 22.4119 13.6691C22.3096 13.6129 22.3221 13.5125 22.4067 13.4346C22.5263 13.3243 22.7622 13.3076 22.9166 13.3076Z" fill="black"/>
</svg>
