<svg width="36" height="48" viewBox="0 0 36 48" fill="none" xmlns="http://www.w3.org/2000/svg">
<rect x="19.0293" y="28.7432" width="7.16745" height="8.82975" fill="#FDEA6B"/>
<path fill-rule="evenodd" clip-rule="evenodd" d="M16.9384 20.1072C17.711 19.5186 19.6507 19.2539 20.4753 19.8206C21.2897 20.3897 21.3785 21.31 21.7581 22.1566C22.1161 21.9877 22.7075 22.2296 22.8113 22.562C22.9401 22.7188 22.9459 23.1592 23.0347 23.37C26.8983 23.9852 27.4848 26.9986 27.9499 30.4196C28.5651 33.891 29.9617 37.3549 29.3554 40.927C29.4344 41.0414 29.4967 41.1525 29.5542 41.2845C29.6922 41.5194 29.5145 41.8519 29.2362 41.8391C28.8759 41.8074 28.5192 41.7642 28.1572 41.7507C27.1538 41.7158 26.1494 41.72 25.1456 41.7328L25.0087 41.7345C19.9498 41.7975 14.8911 41.9217 9.83196 41.9546C9.64843 41.9549 9.55857 41.7902 9.58307 41.6278C9.63243 41.3007 9.67822 40.9735 9.72602 40.6463C8.5294 40.9625 7.25728 41.0421 6.06404 40.6796C5.98057 40.5945 6.25853 40.6406 6.30264 40.6277C5.20448 39.877 5.53243 38.2956 5.62971 37.1565C6.23459 33.2536 6.44783 28.9352 8.78489 25.6047C9.79594 24.2456 11.2782 23.1695 12.9815 22.9273L13.0287 22.9209C13.5268 22.8544 14.0818 22.833 14.5173 22.562C15.007 22.1709 15.2157 21.4482 15.7309 21.4414C15.901 21.4392 16.1325 21.6545 16.3815 21.8007C16.4001 21.4791 16.5734 21.2077 16.6116 20.9584L16.6147 20.9371C16.6546 20.6464 16.6 20.3848 16.9384 20.1072ZM25.2416 30.5227C24.1558 29.7681 21.351 30.1472 21.2868 30.1895C21.1455 30.2825 21.0846 30.2908 21.0081 30.4116C20.9326 30.4216 20.8572 30.432 20.7818 30.4427C20.6306 30.4921 20.7427 30.6781 20.9173 30.6118C20.8123 31.065 21.1214 31.3873 21.2445 31.8353C21.2844 31.9808 21.2459 32.2424 21.2445 32.3911C21.2564 32.5806 21.4659 32.8045 21.431 32.9946C21.3069 33.6706 20.6334 34.33 20.9173 34.9856C21.1054 35.3558 21.6712 35.5446 22.0473 35.6705C22.8266 35.9697 24.1845 35.6592 24.6373 34.9856C24.8788 34.6262 25.1586 33.7198 25.3027 33.4387L25.3346 32.9927C25.4133 31.8841 25.4833 30.6907 25.2416 30.5227Z" fill="#D08B5B"/>
<path fill-rule="evenodd" clip-rule="evenodd" d="M15.6907 21.4434L16.0015 21.6341L17.8061 22.5265C18.156 22.6245 18.3309 22.742 18.3309 22.8789V24.2728C18.3309 24.4594 18.6592 24.8821 19.3158 25.5411L19.9225 24.9361L19.9089 24.8569C19.8512 24.5156 19.8223 24.2873 19.8223 24.172C19.8223 24.048 20.4158 23.5772 21.6027 22.7597L22.122 22.2706L22.0667 22.1022C22.3868 22.1173 22.7341 22.3146 22.8113 22.5619C22.9401 22.7187 22.9459 23.1592 23.0347 23.3699C26.8983 23.9851 27.4848 26.9985 27.9499 30.4195C28.5651 33.8909 29.9617 37.3548 29.3554 40.9269C29.4344 41.0413 29.4967 41.1524 29.5542 41.2844C29.6922 41.5193 29.5145 41.8518 29.2362 41.839C28.8759 41.8073 28.5192 41.7641 28.1572 41.7506C27.1538 41.7157 26.1494 41.7199 25.1456 41.7327L25.0087 41.7344C19.9498 41.7974 14.8911 41.9216 9.83196 41.9545C9.64843 41.9548 9.55857 41.7901 9.58307 41.6277C9.63243 41.3006 9.67822 40.9734 9.72602 40.6462C8.5294 40.9624 7.25728 41.042 6.06404 40.6795C5.98057 40.5944 6.25853 40.6405 6.30264 40.6276C5.20448 39.8769 5.53243 38.2955 5.62971 37.1564C6.23459 33.2535 6.44783 28.9351 8.78489 25.6046C9.79594 24.2455 11.2782 23.1694 12.9815 22.9272L13.0287 22.9208L13.0763 22.9146C13.5619 22.8527 14.0956 22.8243 14.5173 22.5619C14.9941 22.1811 15.2045 21.486 15.6907 21.4434ZM20.0149 29.6251C19.8379 29.6251 19.4754 29.9001 18.9274 30.4501L18.8791 30.4724C18.2167 30.7802 17.7779 31.0472 17.5626 31.2734L17.5549 31.2816C17.3375 31.515 16.9068 32.1356 16.263 33.1434L15.3308 33.6949H14.978L14.7269 35.5173L15.3308 36.8186L16.6986 36.3577L18.9274 35.77L20.2063 34.4719L20.9278 34.2297C20.8403 34.4826 20.8085 34.7343 20.9173 34.9855C21.1054 35.3557 21.6712 35.5445 22.0473 35.6704C22.8266 35.9696 24.1845 35.6591 24.6373 34.9855C24.8788 34.6261 25.1586 33.7198 25.3027 33.4386L25.344 32.8593C25.4184 31.7902 25.4736 30.6838 25.2416 30.5226C24.1558 29.768 21.351 30.1472 21.2868 30.1894C21.1455 30.2824 21.0846 30.2907 21.0081 30.4115L20.9685 30.4168L21.1911 30.1148L21.1123 30.0727C20.5499 29.7743 20.1841 29.6251 20.0149 29.6251ZM20.9173 30.6117C20.8167 31.0455 21.0958 31.3595 21.2278 31.7786L20.8906 31.1328L20.8906 30.62C20.8993 30.6179 20.9082 30.6151 20.9173 30.6117Z" fill="#9DDADB"/>
<path fill-rule="evenodd" clip-rule="evenodd" d="M15.542 21.3756C15.617 21.3092 15.7279 21.3927 15.6802 21.4824C15.5732 21.684 15.4634 21.875 15.3197 22.0532C15.2326 22.1613 15.1393 22.2635 15.0448 22.3646C15.2874 22.5746 15.4956 22.8353 15.6921 23.0796C15.9434 23.3922 16.181 23.7179 16.4631 24.0039C16.7413 24.2859 17.0489 24.4831 17.4208 24.6145L17.496 24.6406C17.8696 24.7719 18.269 24.9491 18.4796 25.303C18.5211 25.3728 18.4375 25.459 18.3672 25.4155C18.0012 25.1888 17.5712 25.1432 17.1728 24.9934C16.788 24.8487 16.4525 24.626 16.1561 24.3418C15.8602 24.0581 15.6118 23.7352 15.3526 23.4192C15.0964 23.1068 14.8204 22.8399 14.5173 22.5756C14.0495 22.8904 13.5156 23.0274 12.9726 23.1619L12.9134 23.1766C12.3698 23.3112 11.8291 23.4676 11.3191 23.7021C10.8695 23.9087 10.4272 24.1556 10.0609 24.4919C9.67214 24.8489 9.36954 25.3047 9.09258 25.7506C8.47305 26.748 8.03749 27.8408 7.65405 28.9468C7.25524 30.0973 6.92166 31.2707 6.65236 32.4582C6.5154 33.0621 6.40416 33.6704 6.31274 34.283C6.26873 34.578 6.22964 34.8736 6.1953 35.1699C6.15865 35.4863 6.15023 35.8118 6.05321 36.116C6.01161 36.2464 5.91339 36.3005 5.81508 36.2959L5.79512 36.5458C5.76864 36.8788 5.74395 37.212 5.73562 37.5472C5.72178 38.1045 5.72806 38.6601 5.76813 39.2162L5.7738 39.2921C5.80529 39.6979 5.87565 40.1539 6.18072 40.4511C6.49665 40.7589 6.9825 40.8557 7.40832 40.8612C8.40009 40.8742 9.35477 40.4054 10.2324 39.9941C11.1362 39.5705 12.0154 39.1004 12.8735 38.5905C13.3105 38.3309 13.7428 38.0626 14.1695 37.7864C14.3789 37.6509 14.5869 37.5131 14.7933 37.373C14.9115 37.2928 15.0235 37.2048 15.1438 37.1337C15.0849 37.0787 15.0586 36.9924 15.1079 36.917C14.7601 36.6149 14.6153 36.0758 14.5983 35.6396C14.5847 35.2875 14.6365 34.9364 14.6773 34.5877C14.698 34.4118 14.7234 34.2362 14.7499 34.0611C14.7603 33.992 14.7683 33.918 14.7805 33.845C13.8412 34.3614 12.8755 34.8213 11.8842 35.2298C11.3761 35.4393 10.8615 35.6276 10.3397 35.8001L10.234 35.835C9.73967 35.9968 9.23351 36.1497 8.72247 36.2423C8.69515 36.2472 8.67296 36.2069 8.70213 36.194C9.20015 35.9742 9.71543 35.7888 10.2209 35.5863L10.304 35.5524C10.2945 35.5519 10.2846 35.5506 10.2742 35.5481C9.97778 35.4765 9.68363 35.3662 9.39286 35.2734C9.123 35.1872 8.81981 35.133 8.56757 35.0029C8.54817 34.9929 8.55903 34.9659 8.57793 34.9646C8.86144 34.9449 9.1692 35.0276 9.44717 35.0762L9.55159 35.0945C9.72652 35.1254 9.90533 35.1586 10.0794 35.2018C10.0857 35.1435 10.1183 35.0849 10.1646 35.0506C10.6747 34.6727 10.6229 33.9094 10.6775 33.3466L10.7179 32.9288C10.7891 32.1975 10.8643 31.4663 10.9787 30.7405C10.9848 30.7017 11.0448 30.7128 11.045 30.7494C11.0509 31.6492 10.983 32.5447 10.949 33.443L10.9437 33.5904C10.9249 34.1447 10.9102 34.7203 10.5612 35.1468C10.61 35.1183 10.676 35.1183 10.7155 35.1653C10.7641 35.2231 10.7921 35.2881 10.7912 35.3518C11.1066 35.2195 11.4205 35.0838 11.733 34.9454C12.7374 34.5002 13.7208 34.002 14.6782 33.4629C14.7813 33.4049 14.8792 33.4505 14.9302 33.527L14.9375 33.5259C14.9388 33.5258 14.94 33.5256 14.9413 33.5256L14.9486 33.5253C14.9489 33.5253 14.9491 33.5253 14.9494 33.5253C15.0842 33.4513 15.2678 33.504 15.3834 33.6121C15.3868 33.6153 15.3897 33.6188 15.3928 33.6223C15.5392 33.5565 15.6759 33.4678 15.8 33.3552C16.0539 33.125 16.2689 32.8404 16.4564 32.555C16.8017 32.0293 17.0949 31.4446 17.5613 31.0119C17.9402 30.6603 18.41 30.4414 18.9029 30.304C18.9008 30.2896 18.9064 30.2742 18.9163 30.264C18.9416 30.2381 18.9597 30.2291 18.9924 30.2448C18.995 30.2461 18.9966 30.2479 18.9976 30.2497L19.0457 30.1675C19.072 30.1229 19.0989 30.078 19.1083 30.0662C19.1642 29.9957 19.2218 29.9258 19.2803 29.8573C19.3794 29.7413 19.4924 29.6269 19.6232 29.5465C19.9095 29.3705 20.2106 29.4701 20.505 29.5663C20.6829 29.6245 20.8602 29.6845 21.0378 29.7435L21.0562 29.7495C21.1886 29.7921 21.3435 29.8293 21.4028 29.9696C21.4262 30.0252 21.4298 30.0828 21.4189 30.1387C22.6766 29.8188 24.0735 29.9658 25.3009 30.3414C25.348 30.3558 25.395 30.3946 25.4049 30.4455C25.5456 31.1669 25.6082 31.9068 25.5446 32.6405C25.4897 33.2739 25.3494 33.8946 25.085 34.4744L25.07 34.5071C24.8216 35.0445 24.4278 35.707 23.8265 35.8754C23.4634 35.9771 23.0618 35.9171 22.6915 35.8985C22.3315 35.8804 21.9637 35.8777 21.6072 35.8211C21.2897 35.7707 21.0115 35.6283 20.8153 35.3701C20.646 35.1473 20.5569 34.878 20.4838 34.6101C20.4504 34.6208 20.4172 34.6321 20.3845 34.6449C20.2466 34.6988 20.1297 34.7858 20.0241 34.8881C19.8009 35.1043 19.6279 35.3668 19.3944 35.5731C19.1831 35.7599 18.9423 35.9051 18.6839 36.0167C18.1487 36.2481 17.5745 36.3406 17.0083 36.4632L16.9688 36.4718C16.5426 36.5653 16.1075 36.6802 15.7313 36.9022C15.724 36.9676 15.6942 37.0291 15.6465 37.0693C15.7129 37.1317 15.741 37.2304 15.6827 37.323C15.5198 37.5816 15.2392 37.7287 14.9874 37.8941L14.971 37.9049C14.7232 38.0692 14.4733 38.2303 14.2213 38.388C13.7091 38.7089 13.1862 39.012 12.6559 39.3018C11.803 39.768 10.9318 40.2077 10.0448 40.6065C10.098 40.8685 10.0785 41.1387 10.1186 41.4025L10.1247 41.4401C10.1418 41.538 10.1187 41.6199 10.0513 41.6839L10.0442 41.6904L10.0443 41.6896L10.038 41.6954L10.0359 41.6971L10.0366 41.6966C10.0288 41.7037 10.0208 41.7103 10.0126 41.716L10.0022 41.7227C9.93727 41.7622 9.85368 41.7617 9.78721 41.7269L9.77962 41.7227L9.76685 41.7154C9.67903 41.6648 9.61846 41.5396 9.6549 41.4401C9.74444 41.1957 9.77828 40.9347 9.86097 40.6886L9.79537 40.718L9.7089 40.7557C8.77375 41.1602 7.735 41.5009 6.71609 41.2251C6.26588 41.1032 5.8451 40.8454 5.61984 40.4252C5.39818 40.0117 5.36685 39.5315 5.35508 39.0716C5.34056 38.5039 5.37098 37.9275 5.44582 37.3647C5.49605 36.9869 5.55681 36.6019 5.65051 36.228C5.60231 36.1855 5.56688 36.1245 5.55753 36.0489C5.5133 35.6918 5.5907 35.3205 5.63809 34.9653C5.68438 34.6184 5.73552 34.2722 5.79336 33.9271C5.91014 33.2302 6.04582 32.5347 6.20379 31.8459C6.48491 30.62 6.85615 29.416 7.3031 28.2407L7.34224 28.1383C7.75524 27.064 8.23344 26.0127 8.89931 25.069C9.21784 24.6175 9.55455 24.2081 10.0046 23.8827C10.4263 23.5779 10.9019 23.3584 11.3927 23.1906C11.8841 23.0228 12.3891 22.9103 12.9031 22.8403C13.4251 22.7692 13.976 22.7256 14.4629 22.5114C14.4013 22.401 14.4542 22.2518 14.5579 22.1833C14.9067 21.9528 15.2293 21.6528 15.542 21.3756ZM26.7096 31.4021C26.7242 31.3799 26.759 31.394 26.7525 31.4202C26.5829 32.1156 26.4236 32.8124 26.3196 33.5211C26.1318 34.8001 26.1664 36.0959 26.1817 37.3844L26.1825 37.451C26.1904 38.1451 26.2013 38.8392 26.2243 39.533C26.2359 39.8836 26.2588 40.2376 26.2463 40.5885C26.2395 40.7788 26.1888 40.9588 26.1709 41.1468C26.1551 41.3112 26.1691 41.4782 26.177 41.6428C26.1822 41.7523 26.0207 41.7476 26.0098 41.6428L25.9957 41.5072C25.9775 41.3357 25.9549 41.1652 25.8987 41.001C25.8311 40.8035 25.7987 40.6096 25.7753 40.4022C25.7394 40.0845 25.7234 39.7636 25.7095 39.4437L25.7001 39.2223C25.6422 37.8852 25.6442 36.5418 25.7379 35.2061L25.7447 35.1107C25.8375 33.8481 25.9985 32.4839 26.7096 31.4021ZM23.0929 23.4445C23.0486 23.4263 23.0641 23.3592 23.1132 23.3709L23.2024 23.3922C23.8564 23.5489 24.4985 23.7187 25.1089 24.0103C25.7197 24.3021 26.2368 24.7376 26.6477 25.2732C27.4465 26.3144 27.7784 27.5796 28.0404 28.8437C28.3316 30.2484 28.5968 31.6582 28.8905 33.0624L28.9451 33.3239C29.2169 34.6318 29.4735 35.9404 29.6626 37.2637L29.6761 37.3597C29.8668 38.7206 29.9815 40.1285 29.7735 41.4929C29.7323 41.7628 29.2833 41.6956 29.3008 41.4289C29.3515 40.6579 29.3878 39.891 29.3528 39.1183C29.3176 38.3455 29.2452 37.576 29.1372 36.8099C29.0463 36.1652 28.9108 35.5285 28.7909 34.8889L28.7721 34.7879C28.6717 34.2439 28.5682 33.7005 28.4649 33.157L28.3105 32.3433C28.0792 31.1249 27.8433 29.9054 27.5768 28.6946L27.561 28.6234C27.3002 27.4585 26.9157 26.2384 26.1334 25.3134C25.3395 24.3746 24.203 23.9019 23.0929 23.4445ZM20.2082 35.7998C20.2273 35.7573 20.294 35.7619 20.3146 35.7998C20.395 35.9483 20.404 36.1378 20.4192 36.3055L20.4208 36.3227C20.4401 36.5273 20.4572 36.7325 20.4677 36.9378C20.4876 37.3272 20.4971 37.7162 20.4959 38.1062C20.4946 38.5058 20.4866 38.905 20.4651 39.3041L20.4592 39.411C20.4396 39.7578 20.4066 40.1446 20.2419 40.4478C20.182 40.558 20.0191 40.5256 19.9845 40.4142C19.8709 40.0492 19.9292 39.6165 19.9583 39.2427L19.981 38.951C20.0034 38.6593 20.0247 38.3675 20.0417 38.0755C20.0649 37.6759 20.0841 37.276 20.1025 36.8763C20.1085 36.7464 20.115 36.6165 20.1218 36.4867L20.1323 36.292C20.1413 36.1291 20.1406 35.9504 20.2082 35.7998ZM7.43358 36.3171L7.48388 36.2685C7.63828 36.1173 7.83339 35.8845 8.06163 35.8989C8.15265 35.9047 8.21065 35.9803 8.19178 36.0699C8.15146 36.2614 7.95619 36.3608 7.81563 36.4777C7.66163 36.6057 7.5165 36.7426 7.37165 36.8807C7.24314 37.0033 7.11956 37.1293 6.99894 37.2592L6.95384 37.3081C6.9106 37.3553 6.60271 37.6339 6.636 37.7062L6.63782 37.7094C6.64708 37.7233 6.63165 37.7423 6.61628 37.7374C6.48333 37.6954 6.49162 37.5814 6.54189 37.4659C6.63847 37.244 6.80761 37.0387 6.95531 36.8491C7.10261 36.6601 7.26204 36.484 7.43358 36.3171ZM20.6899 30.7514C20.5871 30.5083 20.2084 30.5134 19.9934 30.5279C19.4519 30.5645 18.866 30.7016 18.3843 30.9548C17.8848 31.2173 17.5483 31.6378 17.2473 32.1029L17.2332 32.1247C16.9397 32.581 16.6571 33.1212 16.1977 33.4349C15.9637 33.5947 15.6904 33.7407 15.4064 33.8039C15.3869 33.8382 15.3554 33.8653 15.314 33.8752L15.2947 33.8796C15.2138 33.8975 15.0882 33.9172 14.9797 33.9054C14.9804 33.9585 14.9798 34.0112 14.9812 34.0615C14.985 34.2057 14.9866 34.3505 14.9866 34.4948C14.9867 34.7971 14.9705 35.1 14.9831 35.4023C14.9942 35.6697 15.032 35.949 15.1603 36.188C15.2544 36.3634 15.3787 36.4794 15.5286 36.5902C15.8975 36.3653 16.3146 36.2282 16.738 36.1251C17.25 36.0005 17.7742 35.9173 18.2745 35.7483C18.5153 35.6669 18.7469 35.5604 18.9566 35.4158C19.1792 35.2622 19.3493 35.0544 19.5243 34.8512L19.5516 34.8196C19.7302 34.6147 19.925 34.4187 20.1773 34.3076C20.3946 34.212 20.6811 34.1949 20.8711 34.0469C20.9704 33.9694 20.9787 33.857 20.9892 33.7419C20.8675 33.7593 20.7387 33.7314 20.6174 33.7172L20.5546 33.7098C20.4399 33.6962 20.3278 33.6812 20.2149 33.652C20.194 33.6466 20.194 33.615 20.2149 33.6096C20.3484 33.5751 20.4806 33.5604 20.6174 33.5444L20.6495 33.5404C20.7733 33.5241 20.9034 33.4996 21.0248 33.5269C21.0466 33.444 21.078 33.3648 21.1222 33.2855C21.1841 33.1741 21.3013 33.0479 21.3171 32.9178C21.3219 32.8789 21.3128 32.8331 21.2945 32.7988L21.2882 32.787C21.2805 32.7732 21.2714 32.7593 21.2581 32.7507C21.2566 32.7524 21.2535 32.7544 21.2467 32.7565C21.1532 32.786 21.0717 32.7402 21.0285 32.6697C20.8448 32.6925 20.6444 32.6848 20.4722 32.6924L20.2981 32.7008C20.1121 32.7094 19.9176 32.7131 19.7428 32.6755C19.7183 32.6703 19.711 32.6296 19.7354 32.6192C19.9503 32.5272 20.211 32.4979 20.4412 32.4626C20.5697 32.4428 20.6991 32.4278 20.828 32.4104C20.9138 32.3988 21.0049 32.3797 21.0938 32.3751C21.3168 32.0974 21.1966 31.6595 20.8864 31.5399C20.7734 31.5896 20.6717 31.5607 20.5483 31.5501C20.425 31.5395 20.3014 31.5323 20.1777 31.5329C19.9297 31.534 19.6669 31.5992 19.4213 31.5711C19.3814 31.5665 19.3443 31.5134 19.384 31.4809C19.572 31.3275 19.8414 31.2774 20.08 31.2447L20.1294 31.2381C20.2094 31.2276 20.3067 31.2123 20.4076 31.2032C20.4305 31.1587 20.4714 31.125 20.5329 31.1167C20.5512 31.1142 20.5695 31.1127 20.5879 31.1111L20.5876 31.1093C20.7376 31.1021 20.7311 30.8487 20.6899 30.7514ZM10.4218 35.4927C10.4191 35.4968 10.4162 35.5007 10.4131 35.5044L10.4084 35.51L10.433 35.4999L10.4218 35.4927ZM23.3072 30.2082C22.6759 30.1403 22.0437 30.1547 21.4105 30.1729C21.3599 30.3386 21.1836 30.4798 21.0128 30.4851C21.1466 30.6888 21.1604 30.9645 21.0666 31.1805C21.2658 31.2598 21.4373 31.4022 21.5415 31.6051C21.6859 31.8864 21.667 32.1994 21.5243 32.4593C21.6461 32.5697 21.718 32.7489 21.7108 32.9178C21.7028 33.1061 21.5906 33.267 21.4973 33.4229C21.3966 33.5916 21.3932 33.74 21.3623 33.9289C21.317 34.2053 21.1306 34.373 20.8908 34.4777L20.9036 34.5278C20.9654 34.7685 21.0423 35.0225 21.219 35.1986C21.4463 35.425 21.7989 35.4229 22.0992 35.4373L22.1137 35.438C22.3887 35.4517 22.6635 35.4678 22.9384 35.4834L23.1446 35.495C23.4611 35.5124 23.765 35.5145 24.0234 35.3052C24.4452 34.9635 24.7344 34.398 24.9174 33.8975C25.3016 32.8468 25.3062 31.6938 25.1298 30.5995C24.5384 30.4088 23.9248 30.2746 23.3072 30.2082ZM18.0572 31.9513L18.0618 31.9517C18.1918 31.9665 18.2811 32.0718 18.3129 32.1967C18.3591 32.3783 18.3364 32.5424 18.4476 32.7063C18.5619 32.8748 18.6322 33.0097 18.6488 33.2179C18.6557 33.3036 18.6525 33.389 18.6716 33.4729L18.6854 33.5316C18.7001 33.5943 18.7121 33.6546 18.7048 33.7218C18.6981 33.7832 18.6683 33.831 18.6068 33.8506C18.4064 33.9148 18.2516 33.767 18.1999 33.5802C18.1551 33.4188 18.2148 33.2265 18.1517 33.075C18.1168 32.991 18.0523 32.9207 18.0159 32.8361C17.9798 32.7523 17.9617 32.6647 17.9559 32.5736C17.9449 32.4013 18.0973 32.1942 18.0123 32.0381C17.9941 32.0047 18.0146 31.9503 18.0572 31.9513ZM15.3951 30.1729C15.5308 30.1453 15.6848 30.0821 15.8186 30.1347C15.8874 30.1617 15.9214 30.2456 15.8633 30.304C15.7624 30.4052 15.6157 30.4108 15.4798 30.4347L15.4678 30.4368C15.3071 30.4666 15.1461 30.4948 14.9849 30.5215C14.6816 30.5718 14.3775 30.6162 14.0724 30.654C13.7591 30.6927 13.4448 30.7273 13.1302 30.7533L13.0083 30.7633C12.7425 30.7845 12.4659 30.8006 12.2051 30.7598C12.1672 30.7539 12.1733 30.6987 12.2051 30.6891C12.4908 30.6025 12.8043 30.5793 13.0997 30.5427C13.4137 30.5038 13.7272 30.4626 14.04 30.4137C14.3522 30.365 14.664 30.3126 14.9746 30.2547C15.115 30.2286 15.2552 30.2014 15.3951 30.1729ZM20.292 29.8951C20.1729 29.853 20.0419 29.7905 19.9128 29.8114C19.6903 29.8475 19.4922 30.0644 19.3161 30.2072L19.4045 30.19C19.8571 30.103 20.4564 30.0092 20.8363 30.2971C20.8373 30.2954 20.838 30.2938 20.8391 30.2921C20.8698 30.2455 20.9053 30.2092 20.9441 30.1693C20.9478 30.1658 20.9514 30.1622 20.9549 30.1585L20.9758 30.1362L20.928 30.1197C20.8255 30.0834 20.7041 30.0366 20.6849 30.0298L20.6835 30.0293C20.5529 29.985 20.422 29.9413 20.292 29.8951ZM16.5736 20.4055C16.555 20.1659 16.9278 20.1679 16.9463 20.4055C16.9865 20.9244 16.8698 21.4383 16.6186 21.8931C16.6168 21.8965 16.6147 21.8994 16.6128 21.9025C16.7699 21.9843 16.9288 22.0628 17.0913 22.1329C17.2991 22.2227 17.5108 22.3044 17.7263 22.3737C17.9212 22.4364 18.1614 22.4612 18.3252 22.5918C18.6708 22.8671 18.541 23.4384 18.4745 23.8087L18.4641 23.8671C18.431 24.0577 18.4071 24.2532 18.4874 24.4361C18.5732 24.6315 18.7466 24.7764 18.9013 24.9161L18.9325 24.9445C19.0696 25.0694 19.2262 25.2212 19.3267 25.3905C19.4185 25.2007 19.5436 25.0456 19.6759 24.871C19.7702 24.7463 19.7031 24.7053 19.6353 24.5835C19.57 24.4663 19.5382 24.3414 19.5586 24.2078C19.5962 23.9609 19.7934 23.7826 19.9897 23.6486C20.2216 23.4905 20.4803 23.3733 20.72 23.2262C21.2124 22.9239 21.692 22.5783 22.1241 22.1944C22.136 22.1838 22.1567 22.1977 22.1471 22.2122C21.8058 22.7316 21.4056 23.1804 20.9137 23.5613C20.7143 23.7158 20.5048 23.8439 20.2939 23.9786L20.2332 24.0175C20.1486 24.0724 20.0429 24.1457 20.0046 24.2392C19.9661 24.3331 20.0483 24.4041 20.0925 24.4819C20.2329 24.7291 20.1652 24.9597 19.9987 25.1694L19.9909 25.179C19.8255 25.383 19.7001 25.5727 19.6401 25.8332C19.5113 26.393 19.6908 26.976 19.8786 27.5015L19.886 27.5222C19.9877 27.8055 20.0957 28.0866 20.184 28.3744L20.2083 28.454C20.2883 28.7188 20.3538 28.9799 20.264 29.2521C20.2335 29.3447 20.1073 29.3666 20.0549 29.2795C19.8699 28.9722 19.8238 28.6024 19.7079 28.2645C19.5949 27.9353 19.4652 27.612 19.356 27.2813C19.2155 26.8557 19.1214 26.3975 19.1725 25.951C19.171 25.9484 19.1693 25.9459 19.1681 25.9432L19.1323 25.8649C19.0348 25.6529 18.9405 25.4678 18.7631 25.2988C18.5781 25.1226 18.3773 24.9666 18.2316 24.7532C17.9154 24.2898 18.111 23.7742 18.1492 23.2675L18.1536 23.2054C18.1605 23.1002 18.1643 22.9572 18.0956 22.8844C18.0183 22.8024 17.8371 22.7815 17.7346 22.7452C17.4696 22.6514 17.2085 22.5421 16.9598 22.4108C16.723 22.2859 16.4937 22.1479 16.2802 21.9862L16.1719 21.9047C16.0012 21.7758 15.8241 21.6351 15.7097 21.4596C15.6965 21.4394 15.7189 21.4068 15.7428 21.4165C15.9339 21.4941 16.1084 21.6174 16.2872 21.7248C16.29 21.7182 16.2932 21.7116 16.2968 21.705C16.518 21.3046 16.609 20.861 16.5736 20.4055ZM22.6764 23.1489C22.7525 22.9401 23.0994 22.9562 23.0856 23.2043C23.075 23.3949 22.9941 23.5669 22.9201 23.74L22.9122 23.7586C22.8359 23.9389 22.7477 24.1082 22.6421 24.2734C22.4405 24.5894 22.2042 24.8826 21.9519 25.1593C21.7232 25.4101 21.423 25.5635 21.077 25.538C20.9313 25.5273 20.7842 25.4902 20.6564 25.4174C20.5047 25.3308 20.34 25.071 20.1464 25.1339C20.1277 25.14 20.1102 25.1126 20.1264 25.0996C20.3498 24.9196 20.6035 25.1987 20.8174 25.2659C21.1397 25.3672 21.4705 25.2552 21.678 24.9945C21.8946 24.7223 22.094 24.4176 22.2761 24.1212C22.3685 23.9707 22.4529 23.8145 22.5257 23.6536C22.5993 23.4911 22.616 23.3145 22.6764 23.1489ZM22.1568 21.8638C22.1474 21.835 22.1832 21.8075 22.2085 21.824C22.3553 21.9196 22.4826 22.046 22.618 22.1567C22.7683 22.2796 22.9196 22.3999 23.0733 22.5184C23.2974 22.6912 23.0375 23.0094 22.8403 22.8206C22.5704 22.5624 22.2748 22.2247 22.1568 21.8638ZM21.3507 20.8531C21.4103 20.623 21.7631 20.7179 21.7117 20.9453L21.71 20.9522C21.6126 21.3278 21.7513 21.7103 22.0474 21.9538L22.0583 21.9626C22.2456 22.1126 21.9802 22.3747 21.7948 22.2262C21.3899 21.9021 21.2215 21.3515 21.3507 20.8531Z" fill="black"/>
<path fill-rule="evenodd" clip-rule="evenodd" d="M25.038 11.7293C24.4226 7.99771 19.7233 7.32493 16.6611 8.11034C16.6047 7.39256 16.1536 6.75832 15.5907 6.34113C13.1996 4.61623 10.3689 7.54476 10.9356 10.0687C11.0373 10.8333 11.6469 11.7058 12.4999 11.5749C11.4277 13.6091 11.0088 17.711 13.3711 18.9789C13.599 19.1415 13.6368 19.4718 13.8122 19.6835C14.097 20.025 15.3135 20.4601 15.9717 20.1114C16.1785 20.3019 16.4171 20.4873 16.696 20.5532C18.137 21.7096 20.243 21.9705 21.9977 21.4934C23.0788 21.3094 24.1995 20.8205 24.7557 19.8217C25.227 19.0615 25.0098 18.1708 24.7937 17.3662C24.7003 16.9236 24.6396 16.4774 24.6021 16.0275C24.6788 15.9378 24.6831 15.8132 24.7022 15.6998C24.7852 15.2977 24.9665 14.9246 25.0572 14.5237C25.2601 13.6136 25.2249 12.6412 25.038 11.7293Z" fill="#D08B5B"/>
<path fill-rule="evenodd" clip-rule="evenodd" d="M11.6766 7.6861C12.2082 6.67117 13.2504 6.09854 14.2927 6.17707C15.359 6.25742 16.1751 6.99444 16.3641 8.18449L16.3696 8.22069L16.3809 8.29794L16.3706 8.30147L16.3756 8.31025L16.3845 8.32524C16.3951 8.34251 16.4081 8.36218 16.4259 8.38786L16.4496 8.42178L16.5294 8.53405L16.535 8.5421L16.552 8.56665L16.5863 8.55451C18.2571 7.96961 20.1182 7.97563 21.7818 8.59756L21.8321 8.61659L21.8785 8.63453L21.9047 8.64136C22.9246 8.91175 23.7396 9.56202 24.2975 10.4931L24.3144 10.5214L24.3314 10.5504C24.8406 11.4272 25.1018 12.5111 25.0834 13.5992L25.0828 13.6325L25.0825 13.6378L25.0797 13.6706C25.0554 13.9318 24.9899 14.1652 24.8543 14.5211L24.8369 14.5662L24.8101 14.6351L24.7265 14.8474L24.706 14.9002L24.4661 15.5316L24.5106 14.8979C24.5155 14.8274 24.5183 14.7656 24.5206 14.6711L24.521 14.6541L24.5264 14.3859L24.528 14.326C24.5289 14.2982 24.5298 14.273 24.5308 14.2485L24.5326 14.2119L24.5358 14.155L24.5365 14.1432L24.535 14.1304C24.4839 13.7277 24.2995 13.3838 23.9821 13.058L23.9656 13.0412L23.9488 13.0244L23.9288 13.0046C23.6949 12.7754 23.4585 12.6001 22.9687 12.2784L22.9476 12.2645L22.663 12.0789L22.5564 12.0089C22.3216 11.8538 22.1785 11.7534 22.0272 11.6362L21.9946 11.6108L21.969 11.5907C21.707 11.3828 21.5024 11.1785 21.3452 10.9581L21.3306 10.9374L21.2997 10.893L21.3218 10.8455L21.3214 10.8461L21.3214 10.8459L21.3225 10.8409L21.324 10.8324L21.3255 10.8221C21.3283 10.8017 21.3306 10.7751 21.3323 10.745C21.3329 10.7342 21.3335 10.723 21.3339 10.7118L21.3344 10.6948L21.3347 10.6802L21.3288 10.6974C21.0254 11.5753 20.3064 12.3078 19.293 12.8484L19.2622 12.8647L19.2274 12.8829C18.2285 13.4011 17.0066 13.6986 15.9472 13.7071L15.9131 13.7072L15.8794 13.7073L15.8534 13.6858C15.7561 13.6055 15.5772 13.7055 15.6098 13.8485C15.9109 15.1717 15.974 16.5413 15.7902 17.861L15.7836 17.907L15.7829 17.9113L15.7759 17.9487C15.7698 17.982 15.764 18.0161 15.7577 18.0554L15.7478 18.1188L15.7095 18.3757L15.6921 18.4858L15.6845 18.5304C15.6198 18.905 15.5378 19.1598 15.3887 19.3795L15.3744 19.4003L15.3598 19.4143L15.3454 19.4287C15.3161 19.459 15.2976 19.4836 15.2886 19.5007L15.2867 19.5045L15.2856 19.5069L15.2882 19.5079C15.3356 19.525 15.4325 19.5215 15.5133 19.4993L15.5233 19.4964L15.5328 19.4935L15.5982 19.4722L15.6438 19.5365L15.6574 19.5554C15.6824 19.5901 15.7086 19.6251 15.7412 19.6678L15.7797 19.7178L15.8687 19.8324L15.787 19.8889C15.5115 20.0797 15.1263 20.0418 14.7171 19.8629L14.7011 19.8559L14.6953 19.853C14.5002 19.7495 14.3724 19.6244 14.1619 19.3577L14.1372 19.3263L14.0435 19.2058L14.0079 19.1607C13.9829 19.1295 13.9616 19.1036 13.9403 19.0787L13.9332 19.0704L13.9082 19.0418L13.9027 19.0308C13.7997 18.8229 13.6524 18.6847 13.3946 18.536L13.3583 18.5153L13.335 18.4993C12.6808 18.0446 12.2947 17.3274 12.1324 16.3972C12.0055 15.67 12.0186 14.8519 12.1349 13.9331L12.1405 13.8893L12.1465 13.8437C12.2471 13.0704 12.4773 12.3484 12.8261 11.6911L12.8443 11.6572L12.8607 11.627L12.7788 11.5619L12.7452 11.5357C12.7174 11.5143 12.6971 11.4995 12.6787 11.4874L12.6688 11.481L12.6597 11.4754L12.6572 11.48L12.5947 11.4733C12.331 11.445 12.071 11.3308 11.8594 11.1548L11.8419 11.1401L11.825 11.123C11.4159 10.706 11.215 10.1278 11.2148 9.46759C11.2147 8.88401 11.3744 8.26297 11.6476 7.74047L11.6611 7.71485L11.6766 7.6861Z" fill="#E8E1E1"/>
<path fill-rule="evenodd" clip-rule="evenodd" d="M24.9887 13.63C24.9532 14.08 24.763 14.4848 24.6037 14.9041C24.6211 14.656 24.6129 14.3978 24.6303 14.1402C24.445 12.527 22.2566 12.1031 21.4071 10.8833C21.4393 10.8144 21.4509 10.1985 21.3242 10.3717C20.8328 12.5273 17.9122 13.6088 15.9126 13.6129C15.7614 13.488 15.4614 13.62 15.5181 13.869C15.8171 15.1832 15.8826 16.5579 15.6906 17.8932C15.6001 18.3647 15.5848 18.9321 15.3026 19.3384C15.0031 19.624 15.3632 19.6469 15.5613 19.5824C15.6166 19.6603 15.6749 19.7359 15.7334 19.8112C15.4488 20.0084 15.0335 19.9009 14.7388 19.7696C14.4111 19.5957 14.2238 19.2587 13.9863 18.9886C13.8567 18.727 13.66 18.5766 13.4072 18.435C12.0008 17.4767 12.0372 15.3747 12.239 13.8554C12.8273 9.33453 17.8326 7.15318 21.8495 8.72374C24.0188 9.27986 25.0352 11.5284 24.9887 13.63ZM11.9051 11.0705C11.0473 10.2141 11.2199 8.71676 11.7592 7.7294C12.8398 5.6664 15.909 5.73343 16.2766 8.23401C14.7114 8.77152 13.3907 9.92412 12.6043 11.3795C12.3483 11.3521 12.1008 11.2377 11.9051 11.0705ZM25.038 11.7303C24.4226 7.9987 19.7233 7.32592 16.6611 8.11136C16.6047 7.39355 16.1536 6.75931 15.5907 6.34209C13.1996 4.61722 10.3689 7.54576 10.9356 10.0697C11.0373 10.8343 11.6469 11.7068 12.4999 11.5759C11.4277 13.6101 11.0088 17.712 13.3711 18.9799C13.599 19.1426 13.6368 19.4728 13.8122 19.6845C14.097 20.026 15.3135 20.4611 15.9717 20.1124C16.1282 20.3049 17.0163 20.8902 16.9516 20.3164C16.8862 20.1619 16.6844 20.1215 16.5499 20.0451C16.2674 19.8888 16.0219 19.6684 15.8291 19.4096C16.4348 17.6972 16.3887 15.7906 16.0493 14.0274C18.0773 13.9252 20.4635 13.0341 21.358 11.0773C21.9627 12.5013 23.8378 12.6846 24.3115 14.2767C24.3401 15.1129 24.1612 15.9368 24.2909 16.7734C24.329 17.5929 24.7611 18.4069 24.5113 19.221C23.8134 20.9963 21.3009 21.2568 19.641 21.1826C19.2467 21.15 18.9194 20.9363 18.5953 20.7335C18.401 20.6411 18.1698 20.8345 18.2888 21.0408C18.7433 21.6766 19.6781 21.7322 20.3959 21.7093C22.2587 21.5985 24.9508 21.0468 25.0475 18.7408C24.9861 17.8267 24.6283 16.9518 24.6022 16.0285C24.6788 15.9388 24.6831 15.8142 24.7022 15.7008C24.7852 15.2987 24.9665 14.9256 25.0572 14.5247C25.2601 13.6146 25.2249 12.6423 25.038 11.7303Z" fill="black"/>
<path fill-rule="evenodd" clip-rule="evenodd" d="M21.2085 19.0034C20.9981 18.9175 20.8103 18.7743 20.6731 18.5913C20.6254 18.5277 20.613 18.4606 20.623 18.3991C20.6343 18.33 20.6751 18.2674 20.7308 18.2254C20.7867 18.1833 20.8566 18.1625 20.9242 18.1731C20.9829 18.1823 21.0414 18.2145 21.0876 18.2812L21.0973 18.2946C21.1789 18.405 21.2852 18.4956 21.4064 18.554C21.5232 18.6103 21.6538 18.6366 21.7889 18.6213C22.0463 18.5922 22.2237 18.4529 22.4123 18.2638C22.4357 18.24 22.459 18.2153 22.4825 18.1903C22.4974 18.1676 22.518 18.153 22.5408 18.1454C22.5662 18.1369 22.595 18.1374 22.6213 18.1466C22.6466 18.1554 22.6693 18.1722 22.6845 18.1946C22.699 18.2158 22.7072 18.242 22.7045 18.2722C22.6873 18.4682 22.5849 18.6431 22.4394 18.7804C22.2778 18.933 22.0636 19.0385 21.862 19.0755C21.6398 19.1163 21.4134 19.087 21.2085 19.0034ZM21.9668 15.98C22.2031 16.1237 22.5632 16.4588 22.309 16.8151C22.0097 17.1293 21.5788 16.7691 21.3664 16.6062C21.1695 16.4799 20.9483 16.8047 21.131 16.9521C22.6654 18.0885 23.2881 16.0176 22.0863 15.811C21.954 15.7883 21.9048 15.9355 21.9668 15.98ZM19.2171 14.658C19.2432 14.3338 19.7369 14.2601 19.786 14.581C19.83 14.8684 19.7782 15.1325 19.6488 15.3913C19.5251 15.6385 19.2143 15.5232 19.1908 15.298C19.1593 14.9963 19.2009 14.8597 19.2171 14.658ZM22.975 14.5145C23.0438 14.4243 23.1432 14.3627 23.2622 14.3975C23.6342 14.5063 23.5246 15.0346 23.3939 15.2917C23.323 15.4314 23.0935 15.4668 22.9898 15.3438C22.8208 15.1433 22.7399 14.7429 22.9547 14.5454C22.9605 14.5352 22.967 14.5249 22.975 14.5145ZM19.6435 13.2391L19.7023 13.2288C19.8841 13.1974 20.1101 13.1672 20.2387 13.3134C20.3069 13.3909 20.3304 13.535 20.2387 13.6092C20.0774 13.7398 19.8992 13.6892 19.7059 13.7002C19.5467 13.7094 19.3936 13.7357 19.2402 13.7796C18.9037 13.8758 18.6295 14.0515 18.3421 14.2443C18.3044 14.2696 18.2659 14.2214 18.2839 14.1861C18.4498 13.861 18.7713 13.5939 19.0934 13.4312C19.2653 13.3443 19.4534 13.2722 19.6435 13.2391ZM22.6359 13.0935L22.6809 13.1027C23.1703 13.2051 23.8062 13.4095 24.0379 13.8904C24.0468 13.9584 24.0374 13.973 24.0298 13.9825L24.0273 13.9857C24.0211 13.9938 24.0161 14.005 23.9866 14.0143C23.9784 14.0123 23.9702 14.0103 23.9618 14.0081C23.8556 13.9802 23.7715 13.9419 23.6902 13.902L23.6019 13.8586C23.4996 13.8083 23.3963 13.76 23.2869 13.7242C23.0533 13.648 22.8131 13.5943 22.5691 13.5657C22.5162 13.5595 22.4653 13.5416 22.4252 13.511C22.387 13.482 22.3579 13.4418 22.3446 13.3883C22.3274 13.3192 22.3324 13.2668 22.3695 13.2044C22.3973 13.1575 22.4373 13.1251 22.4831 13.1064C22.5298 13.0874 22.583 13.0829 22.6359 13.0935Z" fill="black"/>
<path fill-rule="evenodd" clip-rule="evenodd" d="M24.7675 16.17C24.3875 16.5628 23.7531 16.6756 23.2476 16.4649C21.9494 15.9223 22.5848 14.2299 23.586 13.7755C23.711 13.7443 23.8781 13.6703 24.0304 13.6535C24.0442 13.6467 24.0742 13.6663 24.1105 13.6478C25.2144 13.7711 25.4658 15.4855 24.7675 16.17ZM20.5804 16.2706C20.1542 16.8361 19.3618 17.0106 18.7144 16.7477C17.4355 16.2438 17.8891 14.7431 18.7641 14.1548C20.6126 13.4599 21.3758 15.2279 20.5804 16.2706ZM17.8079 15.0176C17.8067 15.017 17.8055 15.0167 17.8043 15.0162C17.8111 15.0132 17.8178 15.0102 17.8246 15.0072C17.8224 15.0129 17.82 15.0186 17.8179 15.0243C17.8146 15.022 17.8117 15.0194 17.8079 15.0176ZM25.6474 14.4063C25.543 14.4065 25.3923 14.4237 25.3059 14.4961C25.0929 13.7774 24.3066 13.1123 23.6228 13.5973C23.0843 13.7705 22.6847 14.1547 22.4576 14.6655C22.0481 14.4219 21.4042 14.5259 21.0491 14.8482C20.8166 14.0794 20.2442 13.8103 19.563 13.7705C18.8195 13.6487 18.0784 14.3711 17.8471 14.9506C17.6549 14.9287 17.3676 14.8675 17.1867 14.9862C16.0128 14.6782 13.9604 14.5084 13.7217 14.6795C13.5516 14.7448 13.4583 15.1464 13.6958 15.1681C13.9029 15.1387 13.6717 14.8738 13.8804 14.8449C14.9922 14.776 16.0715 15 17.1716 15.0939C17.2698 15.2261 17.5871 15.2703 17.7564 15.2172C17.4898 16.2003 18.0654 16.8691 18.9278 17.0694C20.2633 17.3763 21.4251 16.1812 21.0759 14.9381C21.4804 14.7368 21.9458 14.7455 22.3865 14.8515C21.6501 17.5627 26.0149 17.4411 25.3332 14.589C25.7869 14.8147 25.8854 14.4518 25.6474 14.4063Z" fill="black"/>
</svg>
