<svg width="36" height="48" viewBox="0 0 36 48" fill="none" xmlns="http://www.w3.org/2000/svg">
<path fill-rule="evenodd" clip-rule="evenodd" d="M7.03189 42.3639C11.1209 42.9853 15.2841 43.0165 19.4072 42.7909C21.0389 42.6687 22.6756 42.6467 24.3061 42.8029C25.2695 42.8746 29.4936 43.1976 29.8387 42.3344C29.6215 37.7377 29.1816 33.102 27.832 28.6812C27.2769 27.1114 26.8002 25.8086 25.717 24.5096C25.3756 24.1549 24.6393 23.4111 24.2174 23.1685C23.8519 22.9584 23.6992 23.0333 23.4893 22.6784C23.2807 22.2863 23.1269 21.6315 22.8308 21.3548C22.5293 21.0731 22.0824 21.1739 21.5286 21.2646C21.6304 19.8891 20.9957 19.5388 20.1213 19.2772C18.5844 18.6904 17.0665 18.9852 16.6797 20.8569C15.9624 20.8569 15.5595 21.1656 15.124 21.4623C14.9459 21.5836 15.0698 21.8926 14.8571 21.9879C14.4636 22.1281 13.7683 22.0938 13.3895 22.2662C11.6667 23.0506 10.1322 24.188 9.1245 25.8491C6.86534 29.3956 5.31348 36.8663 5.58202 41.0697C5.46436 41.2543 5.62706 41.5189 5.66842 41.7174C5.72062 41.8901 5.88967 42.0049 6.06609 41.9853C6.31228 42.2502 6.69308 42.3091 7.03189 42.3639Z" fill="#D08B5B"/>
<path fill-rule="evenodd" clip-rule="evenodd" d="M15.5389 21.138C15.7909 20.8751 16.1859 20.7181 16.5601 20.7269L16.5776 20.7275L16.7046 20.7331L16.6197 21.1497L16.6154 21.1694L16.5981 21.2417L16.5751 21.3364L16.5669 21.3712L16.5582 21.4097C16.5569 21.416 16.5555 21.4222 16.5542 21.4283L16.5505 21.4465L16.5143 21.6235L16.521 21.6392L16.5191 21.6794C16.5135 21.8248 16.5448 21.9047 16.6137 21.9303L16.6193 21.9322L16.6586 21.9449L16.6907 22.0146C16.7646 22.1739 16.8335 22.3132 16.9043 22.4443C17.1106 22.8267 17.3569 23.209 17.6407 23.5931C17.9104 23.9582 18.1914 24.3066 18.4835 24.6374C18.6149 24.7862 18.7536 24.9356 18.9013 25.0876L19.0284 25.2179L19.0689 25.2588L19.0961 25.2859L19.13 25.3192L19.1789 25.3658L19.2143 25.4007L19.2258 25.4116C19.2402 25.425 19.2514 25.4341 19.2615 25.4406L19.2652 25.4429L19.2764 25.4495L19.8657 26.0696L20.0739 26.1841L20.1727 26.2389L20.1928 26.199L20.1968 26.1862L20.4159 25.705L20.5496 25.4102C20.8241 24.8039 21.0377 24.3215 21.2331 23.8622L21.2574 23.8049L21.3294 23.634L21.3675 23.5428C21.5421 23.1243 21.6711 22.8013 21.7865 22.4875L21.8029 22.4427L21.8272 22.3757L21.8633 22.2746L21.8699 22.2573C21.9012 22.177 21.8242 21.8852 21.7483 21.7253L21.7441 21.7164L21.7243 21.6768L21.703 21.635C21.6528 21.5371 21.6165 21.4284 21.586 21.2969C21.581 21.2756 21.5764 21.2541 21.572 21.2325L21.5656 21.1999L21.5616 21.1785L21.556 21.1486L21.5479 21.1057L21.7177 21.0773L21.8108 21.0621L21.8514 21.0558C21.904 21.0476 21.9509 21.041 21.9949 21.0354L22.0113 21.0333L22.0409 21.0298L22.0419 21.0357L22.1025 21.0416L22.1474 21.0463C22.3689 21.0697 22.5398 21.0955 22.6611 21.1242L22.6731 21.127L22.6947 21.1325L22.7046 21.1351C22.815 21.1648 22.9 21.229 22.9673 21.3237C23.0134 21.3887 23.0434 21.4509 23.0908 21.5688L23.1078 21.6114L23.1642 21.7509C23.1708 21.7679 23.181 21.795 23.1948 21.8323L23.2427 21.9627L23.4827 22.6257L23.7283 22.7549C23.8424 22.8147 23.9259 22.8578 23.9672 22.8781L23.9818 22.8853L23.9922 22.89L24.0769 22.9236L24.0678 22.95L24.078 22.9559C25.089 23.5377 25.8687 24.4327 26.4757 25.6209L26.4941 25.657L26.5129 25.6944C26.9966 26.6623 27.3432 27.7424 27.6817 29.1844L27.7026 29.274L27.7191 29.3453L27.8073 29.7302C28.1388 31.1831 28.3666 32.2665 28.5552 33.3296L28.5674 33.3989L28.5988 33.5795C28.8356 34.9555 29.0338 36.3191 29.1924 37.6692L29.2188 37.8965C29.2849 38.4766 29.3447 39.0763 29.4096 39.7965L29.4183 39.8932L29.4469 40.2167C29.4773 40.5652 29.5051 40.9131 29.5302 41.2602L29.5426 41.4337L29.568 41.8109L29.5829 42.0259L29.5847 42.055L29.5907 42.167L29.5924 42.1933C29.5947 42.227 29.5973 42.2554 29.6005 42.2816L29.6031 42.301L29.606 42.3198C29.6143 42.3711 29.6309 42.4171 29.6583 42.4685L29.6653 42.4814L29.7123 42.5655L29.6271 42.6103C29.183 42.8444 28.3087 42.9473 27.1092 42.9527L27.0728 42.9528H26.9978C26.4149 42.9525 25.7972 42.93 25.1527 42.8916L25.0069 42.8827L24.8853 42.8749C24.8328 42.8715 24.7818 42.8681 24.7289 42.8644L24.6478 42.8587L24.3089 42.8339C22.7844 42.6878 21.1857 42.6902 19.4241 42.8222C14.8314 43.0735 10.8673 42.9674 7.14144 42.4111L7.02861 42.3941L6.94546 42.3806L6.89587 42.3723C6.50066 42.3048 6.25251 42.2183 6.05887 42.0367L6.04873 42.0271L6.04028 42.0188L6.03662 42.0189C5.84165 42.018 5.66316 41.8904 5.59694 41.7023L5.5935 41.6922L5.58913 41.6781L5.58611 41.6641C5.58303 41.6506 5.57917 41.636 5.57449 41.6201L5.57082 41.6078L5.54004 41.5069L5.64373 41.488C5.65267 41.4863 5.66196 41.4801 5.67097 41.467L5.67961 41.4547L5.69456 41.4339L5.73068 41.3844C5.76915 41.3304 5.78808 41.2966 5.79746 41.2625C5.80576 41.2324 5.80887 41.1938 5.80797 41.14L5.80727 41.1138L5.80319 41.0186C5.80292 41.011 5.80274 41.0043 5.80262 40.9979L5.80249 40.9883L5.80242 40.8543L5.80276 40.7071C5.80299 40.6428 5.80336 40.5802 5.80385 40.5186L5.80469 40.4271L5.80552 40.3534C5.81051 39.9455 5.82248 39.5379 5.84142 39.1311C5.87845 38.3366 5.94196 37.5434 6.03181 36.7531C6.21733 35.1216 6.5015 33.5393 6.88807 32.0102L6.9269 31.8575C7.34487 30.2233 7.74787 28.9635 8.26008 27.7984C8.91155 26.3167 9.70588 25.0972 10.706 24.1222C11.2559 23.5862 11.8649 23.1337 12.512 22.7867C12.8096 22.6271 13.126 22.4855 13.4652 22.3581L13.5138 22.34L13.5923 22.3113L13.6525 22.2891L13.8464 22.2166C13.8872 22.2013 13.9316 22.1842 13.9841 22.1635L14.0165 22.1507L14.3639 22.0121L14.4216 21.9894L14.4857 21.9644L14.5329 21.9463C14.6099 21.9169 14.6797 21.8913 14.7445 21.8686L14.7828 21.8554L14.8176 21.8437L14.9658 21.7924L14.9629 21.9273C14.961 22.017 14.9841 22.0848 15.0354 22.1335L15.0371 22.135L15.0389 22.1365L15.0405 22.1375L15.0495 22.1373L15.0845 22.1371C15.0881 22.1351 15.0915 22.1328 15.0947 22.1301C15.1445 22.0877 15.1677 22.0309 15.1902 21.9007L15.1962 21.8644L15.2066 21.7965L15.2107 21.7708C15.2257 21.6804 15.2388 21.6305 15.2642 21.5734C15.3009 21.4909 15.3494 21.4105 15.4065 21.3366L15.4198 21.3197L15.4732 21.2555L15.4814 21.2454C15.5001 21.2214 15.5096 21.2045 15.5137 21.189L15.5146 21.1848L15.5199 21.1579L15.5389 21.138Z" fill="#FFCF77"/>
<path fill-rule="evenodd" clip-rule="evenodd" d="M23.9564 23.0646C23.9313 23.0506 23.9534 23.0147 23.9786 23.0265C25.1913 23.5957 26.1216 24.5941 26.7762 25.7478C27.454 26.9424 27.8403 28.2986 28.1734 29.6243L28.1854 29.6722C28.5405 31.0902 28.8425 32.523 29.1144 33.9592C29.3897 35.4136 29.6107 36.8771 29.7885 38.3466C29.8764 39.0732 29.9548 39.801 30.016 40.5304C30.0465 40.8948 30.0743 41.2596 30.0992 41.6245C30.1092 41.7704 30.1186 41.9163 30.1266 42.0624L30.1324 42.172C30.1374 42.2714 30.1492 42.371 30.1246 42.469C30.1035 42.5535 30.0587 42.6301 30.0194 42.7076C29.9416 42.861 29.7283 42.8357 29.6444 42.7076L29.6201 42.6703C29.5645 42.5844 29.5183 42.5045 29.5008 42.3975C29.484 42.2939 29.4833 42.1853 29.4758 42.0807C29.4618 41.8881 29.45 41.6954 29.4364 41.5028C29.4081 41.0974 29.3762 40.6922 29.3409 40.2874C29.271 39.4881 29.1961 38.6896 29.1041 37.8926C28.9407 36.476 28.7356 35.0633 28.4938 33.658C28.2576 32.2853 27.9589 30.9265 27.6474 29.5693L27.6151 29.429C27.0696 27.0595 26.2288 24.3308 23.9564 23.0646ZM11.0397 32.3428C11.0486 32.3191 11.087 32.3136 11.0935 32.3428C11.1752 32.7107 11.1833 33.0897 11.1957 33.4664C11.2081 33.838 11.2075 34.2113 11.2021 34.5831C11.1822 35.9496 11.1447 37.3149 11.1122 38.6812C11.096 39.3647 11.0808 40.0482 11.0691 40.7317C11.0647 40.9881 11.061 41.2444 11.0579 41.5008L11.0542 41.8389C11.0523 41.9884 11.0484 42.1361 11.0301 42.2854C11.0181 42.3836 10.9925 42.4773 10.9383 42.5615C10.8998 42.6213 10.845 42.6516 10.7916 42.6922L10.7816 42.7C10.7134 42.7539 10.6416 42.7542 10.5741 42.7L10.5545 42.6845C10.49 42.634 10.4343 42.5946 10.3931 42.5148C10.3358 42.4039 10.3266 42.2834 10.3169 42.1611C10.3021 41.9758 10.3119 41.7877 10.3138 41.6018C10.3177 41.2289 10.3228 40.856 10.3294 40.4831C10.3534 39.1157 10.4008 37.7481 10.4873 36.3831C10.528 35.7402 10.5833 35.0952 10.6574 34.4549L10.6715 34.3349C10.694 34.1465 10.7145 33.9547 10.7376 33.7623C10.3927 33.5197 10.0896 33.2253 9.83118 32.8914C9.81215 32.8668 9.84348 32.8323 9.86645 32.8561C10.1306 33.1297 10.4334 33.3478 10.7686 33.5192C10.8235 33.1165 10.8991 32.716 11.0397 32.3428ZM16.8004 20.1538C16.8051 20.1501 16.8125 20.1485 16.817 20.1538C16.8911 20.2402 16.8761 20.3724 16.8785 20.4819L16.8787 20.4921C16.8841 20.6523 16.8851 20.8119 16.8845 20.9722L16.8829 21.4823C16.8826 21.5524 16.877 21.6254 16.8806 21.696L16.8824 21.7233C16.9214 21.7632 16.9395 21.8208 16.9263 21.8787C16.9239 21.953 16.8851 22.0149 16.8284 22.0539L16.9498 22.2261L17.0713 22.3982C17.3216 22.7535 17.5747 23.1055 17.8385 23.451C18.1075 23.8032 18.3945 24.1421 18.6947 24.468C18.8414 24.6273 18.9906 24.7843 19.1433 24.9378C19.2054 25.0002 19.2689 25.0611 19.3318 25.1226L19.3944 25.1844C19.4314 25.2214 19.4779 25.258 19.5024 25.3049C19.5168 25.3325 19.5201 25.4006 19.5253 25.4119C19.5716 25.5138 19.4926 25.6762 19.3612 25.6254L19.3672 25.6214C19.3911 25.6048 19.3758 25.6045 19.3212 25.6207C19.2868 25.6206 19.2545 25.6126 19.2243 25.597L19.2154 25.592C19.1729 25.5704 19.135 25.5286 19.1005 25.4952L19.0919 25.4871C19.013 25.4131 18.9378 25.3347 18.8622 25.2574C18.7043 25.0961 18.5501 24.9313 18.4007 24.7622C18.1027 24.4247 17.8203 24.0736 17.5528 23.7115C17.2803 23.3428 17.027 22.9551 16.8092 22.5515C16.7265 22.3983 16.6508 22.2422 16.5781 22.0843C16.4367 22.0389 16.4039 21.8884 16.4137 21.7189C16.3616 21.5974 16.3145 21.4733 16.2868 21.3466C16.283 21.3292 16.3053 21.3128 16.3186 21.328C16.3639 21.3794 16.4057 21.4341 16.446 21.4903C16.4703 21.3715 16.501 21.2621 16.5155 21.1924L16.5782 20.8846C16.2249 20.8662 15.8378 21.0114 15.5943 21.2656C15.5812 21.3318 15.5303 21.3792 15.4806 21.441C15.4239 21.5118 15.3744 21.5911 15.3375 21.6741C15.2557 21.8581 15.3019 22.1292 15.143 22.2642C15.1265 22.2783 15.108 22.2881 15.0889 22.2941C15.1643 22.6638 15.13 23.0712 15.1284 23.4463L15.1283 23.4793C15.1287 23.8991 15.1147 24.3192 15.0985 24.7387L15.082 25.1538C15.0606 25.7074 15.0467 26.2613 15.1005 26.8119C15.3461 26.5944 15.6 26.3867 15.8626 26.189C16.0353 26.0589 16.2114 25.9334 16.3908 25.8127L16.5365 25.7153C16.7111 25.5981 16.89 25.4776 17.0812 25.3937C17.3313 25.284 17.5691 25.3217 17.8105 25.4342C18.0509 25.5463 18.2842 25.6764 18.5201 25.7979C18.7599 25.9214 19.0003 26.0438 19.2405 26.1666C19.3996 26.2479 19.6328 26.3214 19.7495 26.4711C19.757 26.438 19.7657 26.4049 19.7758 26.372C19.7642 26.3218 19.7687 26.2676 19.7968 26.2159C20.189 25.495 20.5519 24.7569 20.9122 24.0198C21.0945 23.6467 21.2679 23.2692 21.4507 22.8963L21.6283 22.5332C21.658 22.4727 21.6877 22.4123 21.7177 22.3519C21.7625 22.2615 21.8092 22.172 21.8545 22.0819C21.8736 22.0438 21.8976 22.006 21.9163 21.9675L21.9251 21.9483C21.9256 21.9473 21.9686 21.8119 21.9353 21.8248L21.9325 21.8262C21.9155 21.8358 21.9019 21.8144 21.9129 21.8008C21.9599 21.7426 22.0254 21.7942 22.0522 21.848C22.1261 21.9961 21.9907 22.2286 21.9386 22.3705L21.9358 22.3784C21.7741 22.8361 21.5911 23.2853 21.4035 23.7329C21.0439 24.591 20.6576 25.436 20.2722 26.2824L20.2676 26.297C20.3498 26.234 20.4376 26.1767 20.5127 26.1211C20.7023 25.9806 20.8974 25.847 21.0922 25.7139C21.4495 25.4697 21.8164 25.2416 22.1894 25.0226L22.2641 24.9789C22.4504 24.8703 22.635 24.7822 22.8561 24.8148C23.0616 24.8451 23.2526 24.9555 23.4382 25.0452L23.4574 25.0544L24.031 25.3272C23.9697 25.0826 23.9033 24.8392 23.834 24.5967C23.6989 24.1237 23.5503 23.6546 23.3891 23.1898C23.2386 22.7555 23.0758 22.3259 22.9037 21.8997L22.8518 21.7718C22.7816 21.5964 22.7119 21.405 22.5113 21.351C22.3108 21.297 22.0808 21.3771 21.8976 21.2628C21.881 21.2524 21.883 21.2249 21.9032 21.2198L22.0163 21.1913C22.2285 21.1385 22.4774 21.0854 22.6781 21.1367C22.8966 21.1927 23.0773 21.3761 23.1833 21.5668C23.3011 21.7789 23.3842 22.0162 23.4736 22.2424L23.4878 22.278C23.5904 22.5339 23.6891 22.7914 23.7836 23.0505C23.9724 23.5684 24.1444 24.0925 24.3 24.6213C24.375 24.8762 24.4461 25.1323 24.5145 25.389C24.5342 25.4629 24.5666 25.5524 24.5932 25.6457C24.6237 25.6755 24.6525 25.7087 24.6796 25.7465C24.7245 25.8093 24.6923 25.883 24.6365 25.9206C24.6343 25.9848 24.62 26.0453 24.5859 26.0971C24.4527 26.2993 24.1006 26.2472 24.115 25.9753C24.1171 25.9337 24.1333 25.894 24.1579 25.8604L24.1572 25.855L24.1544 25.845C24.0933 25.8157 24.0319 25.783 23.9672 25.7511L23.3652 25.4535C23.1909 25.3673 22.9977 25.2342 22.8038 25.2013C22.6231 25.1707 22.4324 25.3054 22.2771 25.3867L22.267 25.3919C21.8916 25.5844 21.5189 25.7833 21.1478 25.9838C20.9666 26.0817 20.7877 26.1837 20.6072 26.2828C20.4563 26.3656 20.2934 26.4845 20.1238 26.5313C20.0513 26.5876 19.9652 26.5801 19.8961 26.5375C19.9277 26.7333 19.9257 26.9343 19.9355 27.1346C19.9485 27.4022 19.9505 27.6707 19.9548 27.9387L19.9565 28.0392C19.9679 28.6318 19.974 29.2246 19.9763 29.8173C19.9843 31.9279 19.961 34.0392 19.9555 36.1498C19.9528 37.2102 19.9318 38.2716 19.9042 39.3316C19.8926 39.7808 19.8682 40.2294 19.8418 40.6779L19.8273 40.9226C19.7966 41.4387 19.7785 41.9606 19.6829 42.4698C19.6705 42.5362 19.5581 42.5379 19.5471 42.4698C19.4592 41.9242 19.4543 41.3666 19.4374 40.8145L19.4338 40.7042C19.4135 40.1115 19.4039 39.5191 19.4059 38.9261C19.4134 36.8146 19.4683 34.7045 19.5132 32.5936C19.5358 31.5331 19.5509 30.472 19.586 29.4118C19.6035 28.8813 19.6234 28.3511 19.6469 27.8208C19.6574 27.5841 19.6675 27.3475 19.6833 27.1111L19.6904 27.0098C19.6952 26.9437 19.6992 26.8784 19.704 26.8137C19.4904 26.8918 19.2951 26.7473 19.103 26.6484C18.8816 26.5345 18.6603 26.4204 18.4388 26.3067L18.2171 26.1931L17.7734 25.9667C17.5737 25.8647 17.4198 25.7632 17.2068 25.8828C16.4392 26.3136 15.7339 26.8868 15.0947 27.4882C14.9721 27.6036 14.7131 27.5726 14.6821 27.3793C14.5495 26.5534 14.6301 25.7156 14.6978 24.8873L14.7228 24.5797C14.753 24.2124 14.786 23.8451 14.8299 23.4793C14.8495 23.3156 14.8691 23.1521 14.8907 22.9888L14.9073 22.8663C14.9344 22.6727 14.952 22.4803 15.0097 22.2946C14.9915 22.2887 14.974 22.2791 14.9584 22.2642C14.785 22.0997 14.8686 21.8143 14.9477 21.6186C15.0258 21.4254 15.1449 21.2568 15.294 21.1117C15.3265 21.08 15.3724 21.0597 15.4185 21.0586C15.7801 20.8189 16.1767 20.6993 16.5896 20.8301C16.6012 20.7747 16.613 20.7193 16.6255 20.6641L16.6381 20.6089C16.6703 20.4718 16.6822 20.2454 16.8004 20.1538ZM20.5063 41.7966C20.6185 41.7657 20.7414 41.7983 20.8236 41.8805C20.9058 41.9628 20.9384 42.0857 20.9074 42.1979C20.892 42.2532 20.864 42.3011 20.8236 42.3419C20.7858 42.3794 20.7418 42.4062 20.6914 42.4222L20.6797 42.4258L20.6614 42.4334C20.6051 42.4485 20.5488 42.4485 20.4926 42.4334C20.4389 42.4183 20.3922 42.3911 20.3526 42.3518C20.3132 42.3121 20.286 42.2654 20.2709 42.2116C20.2558 42.1554 20.2558 42.0991 20.2709 42.0428L20.2786 42.0245C20.2941 41.9692 20.322 41.9212 20.3624 41.8805C20.4031 41.8401 20.4511 41.8121 20.5063 41.7966ZM27.1689 30.6111C27.1873 30.5899 27.2172 30.617 27.2058 30.6395C27.031 30.9823 26.8362 31.3226 26.6447 31.6567C26.6601 31.7493 26.6753 31.8411 26.6928 31.9306C26.7674 32.3122 26.8587 32.6868 26.9183 33.072C27.1324 34.4566 27.2435 35.8562 27.3389 37.2531C27.4345 38.6551 27.4468 40.0577 27.4611 41.4625C27.4624 41.5842 27.3688 41.7257 27.2433 41.7487C27.1859 41.7592 27.1429 41.7571 27.0856 41.7487C26.9551 41.7294 26.8734 41.5798 26.8678 41.4625C26.8304 40.6774 26.78 39.8933 26.7217 39.1094C26.6183 37.7197 26.5551 36.3264 26.4715 34.9352L26.4421 34.449C26.4105 33.9221 26.3817 33.3949 26.3723 32.8673C26.366 32.5178 26.3847 32.1683 26.3732 31.8191C26.3626 31.4968 26.3299 31.1463 26.401 30.8296C26.4036 30.8177 26.4223 30.8147 26.4278 30.8261C26.5016 30.9816 26.5484 31.1507 26.5845 31.3233C26.7748 31.0825 26.9687 30.8411 27.1689 30.6111ZM14.6995 22.0961C14.7263 22.0941 14.7252 22.1343 14.6995 22.1373C14.326 22.1806 13.9651 22.3327 13.6123 22.462L13.5821 22.473C13.2257 22.6024 12.8783 22.7528 12.5439 22.9321C11.8902 23.2826 11.2899 23.7346 10.7591 24.2521C8.64 26.3177 7.67428 29.2965 6.96664 32.0958C6.57346 33.651 6.29387 35.2326 6.11265 36.8263C6.02304 37.6144 5.95969 38.4056 5.92276 39.198C5.90385 39.6041 5.89193 40.0106 5.88695 40.4171C5.88439 40.6253 5.88363 40.8336 5.88388 41.0418C5.88401 41.1372 5.90104 41.2574 5.87553 41.35C5.85187 41.4359 5.78514 41.5114 5.73578 41.583C5.67728 41.6678 5.57215 41.6633 5.51284 41.583L5.49096 41.5537C5.42771 41.4698 5.36582 41.3895 5.35678 41.2798C5.34711 41.1622 5.35393 41.041 5.35349 40.9228C5.35249 40.6848 5.35543 40.4468 5.36019 40.2089C5.36936 39.7528 5.38733 39.2969 5.41403 38.8415C5.46823 37.9174 5.55747 36.9951 5.68523 36.0782C5.91234 34.4485 6.25274 32.8343 6.69863 31.2504C7.11928 29.7563 7.61762 28.2666 8.32755 26.8826C8.9867 25.5976 9.85143 24.4021 10.9925 23.5041C11.5231 23.0864 12.1007 22.7384 12.7234 22.4763C13.0375 22.3441 13.3674 22.2361 13.7028 22.1746C14.0345 22.1138 14.3648 22.1223 14.6995 22.0961ZM20.5706 39.1556C20.6299 39.1552 20.696 39.1682 20.7468 39.201L20.8147 39.2535C20.8331 39.2772 20.8514 39.3009 20.8697 39.3247C20.9121 39.38 20.9178 39.4696 20.9089 39.5356C20.9069 39.5797 20.8938 39.6206 20.8697 39.6586L20.818 39.7256C20.7683 39.7661 20.7268 39.795 20.6666 39.8146C20.6352 39.8247 20.6049 39.8269 20.5747 39.8253L20.5646 39.8247L20.5706 39.8255L20.5601 39.8243C20.5502 39.8234 20.5404 39.8224 20.5305 39.821C20.5238 39.8202 20.517 39.8197 20.5103 39.8187C20.5038 39.8182 20.4975 39.818 20.491 39.8186C20.4145 39.8258 20.3376 39.7824 20.2833 39.7325C20.2344 39.6876 20.1905 39.5923 20.1973 39.5248L20.2002 39.4965C20.2053 39.4489 20.2096 39.4302 20.2297 39.3824C20.2493 39.3358 20.2767 39.2948 20.314 39.2601C20.3854 39.1937 20.4727 39.1563 20.5706 39.1556ZM20.3339 35.6712C20.4354 35.5605 20.6098 35.5524 20.7357 35.6194C20.7663 35.6357 20.7945 35.6619 20.8216 35.6838C20.8897 35.7389 20.9165 35.8383 20.9202 35.922C20.9239 36.0049 20.8803 36.1032 20.8216 36.1604L20.8073 36.1742C20.7722 36.2083 20.722 36.238 20.6729 36.247C20.5937 36.2616 20.5273 36.2611 20.4535 36.23C20.3902 36.2033 20.3356 36.1603 20.2985 36.102L20.2925 36.0921C20.2899 36.0881 20.2875 36.0839 20.2853 36.0796L20.282 36.0732C20.2114 35.9375 20.2304 35.7839 20.3339 35.6712ZM20.3864 32.1685C20.4322 32.1541 20.478 32.1521 20.5238 32.1623C20.5549 32.1624 20.5838 32.1703 20.6107 32.1858C20.6399 32.194 20.6652 32.2088 20.6867 32.2302C20.7125 32.2454 20.7332 32.266 20.7485 32.2919C20.7789 32.3252 20.7995 32.3643 20.8101 32.4091L20.8224 32.5007L20.8101 32.5923L20.7754 32.6746C20.7658 32.6871 20.7562 32.6995 20.7465 32.7119C20.7312 32.7379 20.7105 32.7586 20.6846 32.7739C20.6677 32.7907 20.6484 32.8033 20.6268 32.812C20.5501 32.867 20.4479 32.8849 20.3571 32.8599C20.3031 32.8448 20.2562 32.8174 20.2165 32.7779C20.1771 32.7382 20.1497 32.6913 20.1346 32.6374L20.1284 32.5943C20.1204 32.5365 20.1191 32.5045 20.1355 32.431C20.1427 32.3987 20.1635 32.3531 20.1744 32.3339C20.2209 32.252 20.297 32.1959 20.3864 32.1685ZM24.3624 29.6485C24.4939 29.6476 24.6254 29.6478 24.7569 29.6493L24.8554 29.6506C25.0205 29.6532 25.162 29.6361 25.2918 29.7507C25.386 29.8339 25.3445 29.9734 25.255 30.0361C25.1195 30.131 24.9496 30.0832 24.7938 30.0728C24.6296 30.0618 24.4652 30.0526 24.3008 30.0452C23.9824 30.031 23.6638 30.0219 23.3451 30.0205C23.0271 30.0191 22.7086 30.0222 22.3906 30.0273C22.067 30.0325 21.7301 30.0627 21.4084 30.0292C21.3642 30.0246 21.3542 29.9664 21.3979 29.9513C21.701 29.8464 22.0421 29.8124 22.3599 29.7723C22.6876 29.7309 23.0153 29.7016 23.3451 29.6825C23.6839 29.6631 24.0231 29.6509 24.3624 29.6485ZM20.3858 28.6179L20.3967 28.6181C20.4546 28.6183 20.5087 28.6319 20.5592 28.659L20.57 28.665L20.6395 28.7187C20.682 28.7616 20.7115 28.8121 20.7277 28.8702L20.74 28.9615C20.7418 29.0088 20.7319 29.0529 20.7105 29.0939C20.6966 29.1364 20.6729 29.1733 20.6395 29.2044C20.6084 29.2379 20.5715 29.2615 20.529 29.2754C20.4912 29.2952 20.4507 29.3052 20.4075 29.3052L20.3967 29.305C20.3348 29.3048 20.277 29.2892 20.2235 29.2581L20.1539 29.2044C20.1114 29.1615 20.0819 29.111 20.0657 29.0528L20.0534 28.9615C20.0516 28.9143 20.0614 28.8701 20.083 28.8292C20.0968 28.7866 20.1205 28.7498 20.1539 28.7187C20.185 28.6852 20.2219 28.6615 20.2645 28.6477C20.3022 28.6278 20.3427 28.6179 20.3858 28.6179ZM21.4036 20.5499C21.4776 20.4428 21.6117 20.5381 21.5925 20.6243C21.5975 20.8663 21.6099 21.1011 21.665 21.3382C21.6902 21.4467 21.7232 21.5554 21.7741 21.6548L21.7955 21.6966C21.8614 21.8269 21.9126 21.9498 21.8238 22.0927C21.782 22.1601 21.7063 22.2107 21.6244 22.2071C21.2608 22.1914 21.2109 21.6852 21.1888 21.4026C21.166 21.1116 21.2368 20.7918 21.4036 20.5499Z" fill="black"/>
<path fill-rule="evenodd" clip-rule="evenodd" d="M24.1005 11.6502C23.0017 8.75218 21.021 6.63032 17.6819 7.96304C17.5861 7.89767 17.4611 7.88013 17.3413 7.95669C15.5223 9.10171 14.2124 10.9374 13.6448 13.0075C13.2993 13.0733 12.9636 13.1882 12.6638 13.3765C12.0122 13.7858 11.5737 14.4372 11.1628 15.0715C11.0392 15.2622 11.1536 15.578 11.3859 15.6213C11.4868 15.6401 11.5867 15.6513 11.6861 15.6543C11.6619 15.7424 11.6301 15.8275 11.5895 15.9055C11.4426 16.1881 11.7201 16.4881 11.9802 16.4108C12.0091 16.4261 12.0393 16.4387 12.0706 16.4482C12.0742 16.6082 12.1562 16.8225 12.3186 16.8548C12.5812 16.9113 12.9302 16.7098 12.8682 16.4154C12.9476 16.4294 13.0266 16.4311 13.1037 16.4214C13.1123 16.5748 13.1096 16.7348 13.1307 16.8762C13.1998 17.5428 13.8641 17.9905 14.4976 17.7877C14.5365 17.9954 14.5821 18.2872 14.7861 18.3999C15.0247 19.0708 15.4366 19.8365 16.1113 20.1421C16.0512 20.2964 16.0838 20.4841 16.2647 20.5873C17.4997 21.2932 18.982 21.532 20.3783 21.2696C20.9363 21.2363 21.4799 21.1099 22.0018 20.8406C22.3823 20.6442 22.7321 20.3948 23.0736 20.1377C23.4153 19.8805 23.7807 19.6301 24.0534 19.2961C24.3496 18.9335 24.4875 18.5068 24.577 18.0526C24.987 15.9911 24.8454 13.9669 24.1005 12.0032C23.1785 9.57231 25.0222 14.0812 24.1005 11.6502Z" fill="#D08B5B"/>
<path fill-rule="evenodd" clip-rule="evenodd" d="M12.6605 13.2576C13.6862 12.6511 14.9942 12.8081 15.6104 13.7476C15.7168 13.9098 15.7902 14.0882 15.8421 14.2948L15.8505 14.3291L15.8588 14.3652C15.8857 14.4846 15.9033 14.597 15.9272 14.7881L15.9536 15.0049L15.9612 15.0639C15.9869 15.2602 16.0094 15.3841 16.0445 15.5104L16.0514 15.5349L16.0919 15.6749L15.939 15.7315C15.6458 15.8377 15.5844 15.8472 15.4153 15.7585C15.2832 15.6893 15.2142 15.5961 15.1225 15.4073L15.1092 15.3796L15.0799 15.318L15.0641 15.2856C15.0043 15.1659 14.9564 15.0383 14.8887 14.9919C14.7969 14.929 14.5073 14.9039 14.3059 14.9288L14.2954 14.9301L14.2867 14.9319L14.2718 14.9353C13.9332 15.0155 13.6245 15.2896 13.4209 15.5792C13.257 15.8124 13.1628 16.1061 13.1512 16.4114L13.1506 16.4318L13.1466 16.5876L12.8183 16.5805L12.8215 16.5199L12.8166 16.5307C12.7132 16.7493 12.4533 16.8948 12.2359 16.7501L12.2282 16.7448L12.2203 16.7392C12.0368 16.6038 12.0147 16.3296 12.1653 16.1631L12.1723 16.1556L12.179 16.1487L12.1776 16.148L12.1761 16.1475L12.1751 16.1474C12.1238 16.1569 12.0787 16.1833 12.0177 16.2394L12.0021 16.2541L11.9706 16.2883L11.938 16.3232L11.924 16.3376C11.915 16.3466 11.9068 16.3546 11.8991 16.3616C11.8887 16.3711 11.879 16.3791 11.8685 16.3864C11.8588 16.3932 11.8488 16.3991 11.8367 16.4043C11.8068 16.4173 11.7748 16.4235 11.7339 16.4134C11.6778 16.3996 11.6462 16.3656 11.627 16.3256C11.6196 16.31 11.6153 16.2957 11.6123 16.2806C11.6092 16.2648 11.6076 16.2486 11.6068 16.2301C11.6063 16.2179 11.6061 16.2046 11.6062 16.1901L11.6066 16.1674L11.6073 16.1427L11.6082 16.123L11.6119 16.05C11.6252 15.8103 11.688 15.5748 11.7956 15.3525L11.8065 15.3303L11.8106 15.3223L11.7994 15.3374C11.726 15.4344 11.6551 15.5016 11.5667 15.546L11.5545 15.5519L11.5426 15.5573C11.4199 15.6113 11.2963 15.5904 11.2216 15.4902C11.1699 15.4209 11.1547 15.3296 11.1653 15.2336C11.1858 15.0474 11.2593 14.8769 11.4031 14.6282L11.4233 14.5935L11.5022 14.4593C11.8065 13.946 12.1976 13.5313 12.6605 13.2576Z" fill="#E8E1E1"/>
<path fill-rule="evenodd" clip-rule="evenodd" d="M18.7883 7.39768C19.3507 7.35789 19.9233 7.45292 20.4588 7.62291C21.3129 7.89394 22.0973 8.37224 22.7417 8.99493C23.4059 9.63665 23.8971 10.4279 24.1957 11.3017C24.5559 12.3556 24.6098 13.4808 24.7112 14.581C24.7624 15.1368 24.8468 15.6841 24.9345 16.2346L24.9484 16.3215C25.0341 16.8578 25.0823 17.4002 24.9639 17.9357C24.7671 18.8256 24.1771 19.581 23.4767 20.1392C22.0379 21.2859 19.798 21.985 18.1228 20.9298C17.8636 20.7665 18.1092 20.3491 18.3622 20.5192C18.5403 20.639 18.7289 20.7439 18.9312 20.8164C19.7764 21.1192 20.7047 21.0114 21.5401 20.7297C22.3633 20.4521 23.1532 19.9831 23.7606 19.3573C24.3986 18.6999 24.7522 17.8879 24.7011 16.964C24.6707 16.4142 24.5457 15.8747 24.4764 15.3294C24.415 14.8465 24.3781 14.361 24.3357 13.8761L24.3201 13.7017C24.2301 12.7138 24.1009 11.6988 23.6525 10.8021C23.2754 10.0477 22.7232 9.37652 22.0592 8.85819C21.364 8.31554 20.5336 7.93602 19.6624 7.79446C18.6379 7.62801 17.6572 7.93069 16.8026 8.49417C16.0446 8.9939 15.393 9.6617 14.8933 10.4194C14.651 10.7868 14.4446 11.1792 14.2664 11.5816C14.0984 11.9607 13.9826 12.358 13.8475 12.7488C13.9587 12.7455 14.0717 12.7498 14.1864 12.7625C14.775 12.8279 15.3233 13.1336 15.6724 13.6158C16.099 14.205 15.9837 14.9282 16.1503 15.5983C16.1632 15.6503 16.1413 15.7012 16.0969 15.73C15.8442 15.8937 15.5061 15.8991 15.2616 15.7148C15.0493 15.5548 14.9497 15.2656 15.0356 15.0129C15.0468 14.9799 15.0947 14.9858 15.096 15.0211C15.1122 15.4511 15.5102 15.7823 15.9003 15.5777C15.733 14.9999 15.821 14.3546 15.4788 13.8327C14.8729 12.909 13.6193 12.8708 12.7387 13.3915C12.2753 13.6655 11.9085 14.0775 11.6353 14.5384L11.5567 14.6721C11.452 14.8509 11.3411 15.0531 11.3194 15.2499C11.3068 15.3635 11.3487 15.4703 11.4786 15.413C11.5838 15.3667 11.6652 15.2588 11.7277 15.1659C11.8342 15.0076 12.079 15.1444 11.991 15.313L11.9881 15.3185C11.86 15.546 11.7811 15.7966 11.7667 16.0578L11.763 16.1301C11.7606 16.1828 11.7588 16.2577 11.77 16.2604C11.7833 16.2637 11.876 16.1565 11.8914 16.1416C11.9657 16.0701 12.0423 16.0116 12.1457 15.9925C12.2818 15.9675 12.419 16.1362 12.3009 16.2468L12.296 16.2513C12.1906 16.3431 12.1953 16.5263 12.3117 16.6122C12.476 16.7334 12.6783 16.5355 12.7021 16.3726L12.7029 16.3666C12.724 16.1906 12.9678 16.1844 12.9811 16.3666C13.0098 16.7621 12.5402 17.0935 12.1829 16.894C12.0416 16.8152 11.9517 16.6708 11.9236 16.5161C11.8785 16.5399 11.8298 16.5565 11.7784 16.5611C11.6109 16.576 11.4919 16.4579 11.4648 16.2995C11.4332 16.1149 11.4519 15.9173 11.5004 15.7256C11.4095 15.7476 11.3138 15.7392 11.2177 15.6835C10.9267 15.5152 11.0103 15.1409 11.1201 14.8881C11.5891 13.8093 12.5607 12.8305 13.7644 12.7527C13.771 12.5624 13.7967 12.3825 13.8388 12.1919C14.2505 10.3276 15.5843 8.60138 17.3207 7.79455C17.7847 7.57894 18.2768 7.43391 18.7883 7.39768ZM14.2348 14.8446L14.2513 14.8409C14.4389 14.8004 14.9325 14.7528 14.873 15.0692C14.8702 15.0841 14.8487 15.0823 14.8448 15.0692C14.7865 14.8702 14.3906 15.0294 14.275 15.0773C14.1157 15.1433 13.9585 15.2407 13.8284 15.3538C13.5435 15.6017 13.3525 15.951 13.3235 16.3304C13.2947 16.7067 13.4036 17.1132 13.6744 17.3854C13.8071 17.5188 13.9766 17.6094 14.1669 17.6161C14.3379 17.622 14.5268 17.4886 14.6846 17.5667C14.7157 17.5821 14.7404 17.6244 14.7376 17.6593C14.7322 17.7252 14.7028 17.7765 14.659 17.8163C14.9232 18.2989 15.1394 18.8097 15.4764 19.2485C15.6455 19.4687 15.8371 19.6726 16.0541 19.8461C16.1572 19.9287 16.2693 20.0011 16.3849 20.0648C16.5204 20.1394 16.6377 20.1862 16.7344 20.3127C16.8168 20.4205 16.7343 20.6291 16.5984 20.6477C16.2783 20.6914 15.9672 20.4319 15.7322 20.2376C15.4975 20.0434 15.2945 19.8039 15.1268 19.5497C14.8048 19.0617 14.5845 18.4859 14.4965 17.9034C14.3942 17.9359 14.2791 17.9459 14.1925 17.9461C13.962 17.9466 13.742 17.8635 13.5609 17.7231C12.898 17.209 12.8243 16.1536 13.2921 15.4881C13.516 15.1696 13.8562 14.9343 14.2348 14.8446ZM14.2389 16.0687C14.3927 16.0552 14.5463 16.0795 14.6907 16.132L14.7503 16.1537C14.8761 16.1998 15.01 16.254 15.1009 16.3486C15.2398 16.4931 15.1015 16.7435 14.9037 16.6881C14.6851 16.6269 14.5074 16.4423 14.2888 16.3648C14.0934 16.2957 13.8721 16.3055 13.6987 16.4246C13.6758 16.4404 13.6457 16.4093 13.6606 16.3865C13.7933 16.184 14.0027 16.0894 14.2389 16.0687Z" fill="black"/>
<path fill-rule="evenodd" clip-rule="evenodd" d="M21.2085 19.0034C20.9981 18.9175 20.8103 18.7743 20.6731 18.5913C20.6254 18.5277 20.613 18.4606 20.623 18.3991C20.6343 18.33 20.6751 18.2674 20.7308 18.2254C20.7867 18.1833 20.8566 18.1625 20.9242 18.1731C20.9829 18.1823 21.0414 18.2145 21.0876 18.2812L21.0973 18.2946C21.1789 18.405 21.2852 18.4956 21.4064 18.554C21.5232 18.6103 21.6538 18.6366 21.7889 18.6213C22.0463 18.5922 22.2237 18.4529 22.4123 18.2638C22.4357 18.24 22.459 18.2153 22.4825 18.1903C22.4974 18.1676 22.518 18.153 22.5408 18.1454C22.5662 18.1369 22.595 18.1374 22.6213 18.1466C22.6466 18.1554 22.6693 18.1722 22.6845 18.1946C22.699 18.2158 22.7072 18.242 22.7045 18.2722C22.6873 18.4682 22.5849 18.6431 22.4394 18.7804C22.2778 18.933 22.0636 19.0385 21.862 19.0755C21.6398 19.1163 21.4134 19.087 21.2085 19.0034ZM21.9668 15.98C22.2031 16.1237 22.5632 16.4588 22.309 16.8151C22.0097 17.1293 21.5788 16.7691 21.3664 16.6062C21.1695 16.4799 20.9483 16.8047 21.131 16.9521C22.6654 18.0885 23.2881 16.0176 22.0863 15.811C21.954 15.7883 21.9048 15.9355 21.9668 15.98ZM19.2171 14.658C19.2432 14.3338 19.7369 14.2601 19.786 14.581C19.83 14.8684 19.7782 15.1325 19.6488 15.3913C19.5251 15.6385 19.2143 15.5232 19.1908 15.298C19.1593 14.9963 19.2009 14.8597 19.2171 14.658ZM22.975 14.5145C23.0438 14.4243 23.1432 14.3627 23.2622 14.3975C23.6342 14.5063 23.5246 15.0346 23.3939 15.2917C23.323 15.4314 23.0935 15.4668 22.9898 15.3438C22.8208 15.1433 22.7399 14.7429 22.9547 14.5454C22.9605 14.5352 22.967 14.5249 22.975 14.5145ZM19.6435 13.2391L19.7023 13.2288C19.8841 13.1974 20.1101 13.1672 20.2387 13.3134C20.3069 13.3909 20.3304 13.535 20.2387 13.6092C20.0774 13.7398 19.8992 13.6892 19.7059 13.7002C19.5467 13.7094 19.3936 13.7357 19.2402 13.7796C18.9037 13.8758 18.6295 14.0515 18.3421 14.2443C18.3044 14.2696 18.2659 14.2214 18.2839 14.1861C18.4498 13.861 18.7713 13.5939 19.0934 13.4312C19.2653 13.3443 19.4534 13.2722 19.6435 13.2391ZM22.6359 13.0935L22.6809 13.1027C23.1703 13.2051 23.8062 13.4095 24.0379 13.8904C24.0468 13.9584 24.0374 13.973 24.0298 13.9825L24.0273 13.9857C24.0211 13.9938 24.0161 14.005 23.9866 14.0143C23.9784 14.0123 23.9702 14.0103 23.9618 14.0081C23.8556 13.9802 23.7715 13.9419 23.6902 13.902L23.6019 13.8586C23.4996 13.8083 23.3963 13.76 23.2869 13.7242C23.0533 13.648 22.8131 13.5943 22.5691 13.5657C22.5162 13.5595 22.4653 13.5416 22.4252 13.511C22.387 13.482 22.3579 13.4418 22.3446 13.3883C22.3274 13.3192 22.3324 13.2668 22.3695 13.2044C22.3973 13.1575 22.4373 13.1251 22.4831 13.1064C22.5298 13.0874 22.583 13.0829 22.6359 13.0935Z" fill="black"/>
<path fill-rule="evenodd" clip-rule="evenodd" d="M23.1729 17.2462C22.7339 17.1721 22.2778 17.2816 21.8545 17.3982C21.1821 16.9566 20.3108 17.4023 19.8293 17.9541C19.6645 18.0899 19.3184 18.2703 19.5007 18.5293C19.4316 18.7125 19.4131 18.7986 19.5562 18.5846C20.3658 18.6778 21.2345 18.5016 22.0358 18.3355C22.3086 18.4273 22.5496 18.6419 22.8495 18.5684C23.1331 18.6287 23.44 18.685 23.696 18.503C23.891 18.4951 24.3246 18.8453 24.3177 18.4381C24.2574 18.0477 23.4837 17.3982 23.1729 17.2462Z" fill="#E8E1E1"/>
<path fill-rule="evenodd" clip-rule="evenodd" d="M23.5022 18.4999C23.0256 18.5527 22.5423 18.4751 22.1432 18.1983C22.1015 18.1694 22.0604 18.1697 22.027 18.1866C21.9862 18.1821 21.9446 18.1984 21.9204 18.2449C21.8202 18.438 21.488 18.395 21.3054 18.3989C20.7081 18.4105 20.09 18.3775 19.5152 18.5581C20.065 17.4831 20.8252 17.019 22.0017 17.441C21.8954 17.5266 22.4255 17.3263 22.472 17.3225C23.286 17.1184 23.9575 17.8014 24.2855 18.4781C24.0374 18.4191 23.7593 18.4714 23.5022 18.4999ZM24.6391 18.6829C24.2802 17.8741 23.5726 16.9849 22.5855 17.1247C22.3828 17.1545 22.1696 17.293 21.9656 17.268C21.3748 17.0497 20.8872 16.9388 20.2956 17.2918C20.0445 17.3105 18.632 19.0601 19.3032 18.9173C20.1272 18.4439 21.5599 18.8898 22.0716 18.4664C23.0761 19.1261 23.8929 18.4094 24.459 18.8218C24.5574 18.9122 24.6955 18.7996 24.6391 18.6829Z" fill="black"/>
<path fill-rule="evenodd" clip-rule="evenodd" d="M24.6048 16.2605C24.3941 16.5438 24.0034 16.634 23.643 16.6028C22.8659 16.528 22.6213 15.645 22.5958 14.9587C23.1169 15.1053 22.5517 14.0666 24.3332 13.9524C24.9612 13.9 24.7881 14.2795 25.0655 14.5567C25.0598 15.1385 24.963 15.7707 24.6048 16.2605ZM20.903 15.592C20.4442 17.7416 17.9316 17.2303 17.6676 15.2926C17.9114 15.1205 17.8472 14.6955 18.15 14.5416C18.6298 14.2349 19.2297 14.248 19.7746 14.2552C20.4712 14.3031 20.6697 14.5917 21.0275 14.9066C21.0103 15.117 20.9607 15.3663 20.903 15.592ZM25.6001 13.5964C25.5744 13.5921 25.5486 13.588 25.5228 13.5843C25.5027 13.5728 25.479 13.564 25.4515 13.5587C25.3888 13.5428 25.3265 13.5321 25.2643 13.5263C24.3712 13.3252 22.3053 13.6107 22.22 14.373C21.9356 14.468 21.6896 14.383 21.36 14.3914C21.1091 13.3423 16.7716 13.4904 16.563 14.1229C16.5622 14.1227 16.5614 14.1225 16.5606 14.1222C16.3602 14.0602 16.0647 14.0751 15.8352 14.0653C15.3454 14.055 14.855 14.0987 14.3757 14.2021C13.4782 14.3448 12.2533 14.5118 12.8775 15.633C12.8776 15.6332 12.8777 15.6334 12.8779 15.6336L12.878 15.6335C12.9855 15.7438 13.1681 15.655 13.1749 15.5057C12.965 14.9745 13.439 14.9107 13.8037 14.7581C14.7112 14.4319 15.6351 14.3867 16.5736 14.4876C16.6442 14.5708 16.7513 14.6433 16.8646 14.6812C17.4921 14.7854 17.1614 15.2511 17.558 15.3188C17.4852 16.9421 19.4551 17.8281 20.5966 16.7611C21.0523 16.3153 21.161 15.655 21.2666 15.0598C21.3225 15.0472 21.358 15.0167 21.3788 14.9762C21.5131 14.842 21.5976 14.7181 21.8633 14.6812C22.129 14.6444 22.3335 14.7183 22.3612 14.741C22.3681 14.755 22.3756 14.7691 22.3843 14.7832C22.3965 14.8042 22.413 14.821 22.4318 14.8342C22.1694 16.4506 23.4238 17.4728 24.6901 16.6345C25.2403 16.1167 25.3566 15.3239 25.3796 14.6164C25.4541 14.5713 25.5014 14.4841 25.4756 14.3744C25.44 14.2231 25.5234 14.0922 25.6563 14.0264C25.829 13.941 25.7984 13.6292 25.6001 13.5964Z" fill="black"/>
</svg>
