<svg width="36" height="48" viewBox="0 0 36 48" fill="none" xmlns="http://www.w3.org/2000/svg">
<path fill-rule="evenodd" clip-rule="evenodd" d="M28.0656 32.5744C27.8563 31.9311 28.1055 31.1881 27.9426 30.4946C27.8868 30.2203 27.7807 29.2012 27.6741 28.6053C27.6145 28.272 27.9711 28.1685 28.0259 28.0354C28.4116 26.8403 25.5982 24.0286 25.4265 23.9251C25.1691 23.7763 24.9414 23.6482 24.69 23.4962C23.9564 23.2384 23.0768 22.5214 22.4118 22.9819C21.2597 21.2661 21.7155 19.1522 21.0903 18.9009C20.4651 18.6497 18.6188 18.1419 17.5633 18.7903C16.9306 19.2586 16.9773 20.0648 16.6886 20.7296C16.5191 21.0426 16.4359 21.4959 16.2386 21.7C15.5684 22.3935 14.7327 22.5131 13.7983 22.6308C13.7272 22.6398 13.6523 22.4462 13.5832 22.4701C12.0071 23.015 10.1731 23.174 8.38822 26.2254C8.13614 26.6618 7.4561 27.362 7.68349 27.8663C6.18527 31.3515 4.71108 39.1961 8.82204 41.1524C8.95345 41.2365 9.8449 40.7856 9.99016 40.7898C10.2323 40.7968 9.76835 41.3849 9.99016 41.2801C11.6186 41.4037 20.5791 41.0848 24.0138 41.4037C26.3757 41.386 27.8717 41.8003 28.417 41.386C28.199 40.8589 28.2091 40.2944 28.278 39.7371C28.78 39.3634 28.1595 36.7301 28.212 35.959C28.6819 35.3955 28.3077 33.2822 28.0656 32.5744Z" fill="#D08B5B"/>
<path fill-rule="evenodd" clip-rule="evenodd" d="M13.7057 22.6254L13.6906 22.6352C13.6881 22.6368 13.6857 22.6385 13.6833 22.6403C13.6672 22.6524 13.6697 22.6742 13.6887 22.6815C13.7139 22.6914 13.7404 22.6989 13.7677 22.7047C13.8506 22.825 13.9154 22.9737 13.9606 23.049C14.0905 23.2655 15.2058 24.6266 15.3725 24.8015C15.6433 25.0857 16.9771 26.1543 16.9952 26.1329C17.2097 26.2612 17.432 26.3762 17.6629 26.4744C19.0292 27.0552 20.7818 27.1079 21.9561 26.143C22.0436 26.167 22.8737 24.9712 23.0021 24.5428C23.0647 24.5602 23.1422 24.1011 23.0989 24.1081C23.1367 23.8486 22.682 22.9164 22.6388 22.8718C22.6453 22.8698 22.6518 22.8678 22.6583 22.8659C22.6621 22.8741 22.6708 22.8803 22.6809 22.8777C22.7676 22.8551 22.8555 22.8431 22.9433 22.8449C23.0101 22.8463 23.487 23.0636 23.5055 23.0725C23.5169 23.078 23.5283 23.0834 23.5398 23.089C27.3545 24.9235 27.9424 27.9048 28.0744 27.898C28.0188 27.9684 26.5115 30.1004 26.4305 30.2888C26.4137 29.8814 26.6922 40.7426 26.7117 40.9694C26.7196 41.0629 26.7202 41.2837 26.7334 41.3726C26.6377 41.3778 23.2831 41.1487 17.0451 41.1863C15.0532 41.1983 10.1299 41.415 10.1299 41.415L10.1282 41.4015C10.1141 41.2685 10.1264 41.0106 10.1245 40.8781C10.3135 40.7688 10.4991 40.6527 10.6825 40.5386C11.1001 40.2787 13.6769 37.9176 15.5706 35.805C16.6933 34.5526 18.0938 33.7098 18.1696 33.6279C18.1711 33.6262 18.1718 33.6244 18.1729 33.6226C18.1768 33.6255 18.1817 33.6283 18.188 33.6274C19.0603 33.5027 20.3618 33.7711 21.3199 33.2749C21.7477 33.0534 23.1992 31.5453 23.627 31.1285C23.6398 31.116 23.6491 31.1028 23.6555 31.0893C23.9408 30.9155 25.0524 30.034 25.131 29.9251L25.1545 29.8923C25.2414 29.7693 25.372 29.6395 25.2206 29.5213C25.061 29.3967 24.7551 29.5464 24.5868 29.6181L24.5634 29.6279C24.4814 29.6616 24.4011 29.6982 24.322 29.7371C24.2221 29.4572 23.9786 29.4514 23.7162 29.49C23.5291 29.5176 23.3474 29.5816 23.1651 29.6304C22.9336 29.6922 22.7011 29.7505 22.4677 29.8051C22.0475 29.9035 21.5619 30.0835 21.1368 30.158C21.1256 30.1449 21.11 30.1346 21.0892 30.1294C20.9436 30.0931 20.783 30.1209 20.6337 30.1237C20.5058 30.126 20.3779 30.1263 20.25 30.1245L20.1732 30.1231C19.899 30.1175 19.5312 29.99 19.2571 29.9852L19.2407 29.9752L19.2245 29.9649C19.1537 29.9192 19.077 29.8581 19.0561 29.7812C19.0535 29.7716 19.3338 29.1263 19.3379 28.6041C19.3401 28.3137 19.2405 28.0421 19.2168 27.898C19.1588 27.5464 19.029 27.7728 18.8412 28.1172C18.6534 28.4616 18.403 28.7747 18.2152 29.0252C17.9731 29.3481 17.7357 29.4456 17.6123 29.6328C17.5914 29.6645 17.5709 29.6972 17.5508 29.7308C17.5025 29.6826 17.0956 30.6416 17.1668 30.8263C17.1172 30.8099 15.1166 33.3775 10.7661 35.2248C10.7938 35.0521 11.5485 30.4969 11.3607 29.7454C11.1729 28.9939 8.6894 26.2166 8.43115 26.1549C8.457 26.1128 7.44838 26.8021 9.26371 25.0174C11.079 23.2327 12.2887 22.9304 13.1925 22.5988C13.243 22.5831 13.2934 22.5672 13.3435 22.5511C13.3308 22.5735 13.3595 22.5982 13.3816 22.58C13.5065 22.4767 13.615 22.5252 13.7057 22.6254Z" fill="#9DDADB"/>
<path fill-rule="evenodd" clip-rule="evenodd" d="M27.3164 28.7167C27.091 29.0445 26.884 29.382 26.6969 29.7331C26.6004 29.9142 26.5104 30.0988 26.4294 30.2873C26.4125 29.8798 26.4088 29.4676 26.3612 29.0642C26.3578 29.0351 26.3093 29.0209 26.3042 29.0564C26.2516 29.4222 26.2429 29.7975 26.223 30.1672C26.2002 30.1602 26.1749 30.1562 26.147 30.1562C25.8766 30.1562 25.6102 30.1783 25.3408 30.2002C25.22 30.21 25.0937 30.2174 24.9705 30.2367C25.0697 30.1272 25.162 30.0115 25.2472 29.8908C25.3341 29.7677 25.4335 29.5754 25.282 29.4571C25.1147 29.3265 24.7867 29.4974 24.6248 29.5638C24.5429 29.5974 24.4626 29.634 24.3835 29.6729C24.2836 29.393 23.9775 29.3559 23.715 29.3945C23.5279 29.4221 23.3463 29.4861 23.1639 29.5349C22.9324 29.5968 22.6999 29.655 22.4666 29.7097C22.0464 29.8081 21.6233 29.8941 21.1983 29.9686C21.187 29.9555 21.1715 29.9452 21.1506 29.94C21.0051 29.9036 20.8445 29.9315 20.6952 29.9343C20.5417 29.9371 20.3882 29.9369 20.2347 29.9337C19.9605 29.9281 19.6866 29.9258 19.4124 29.9211C19.3345 29.8738 19.2357 29.806 19.2115 29.7171C19.1813 29.6061 19.2756 29.4831 19.3194 29.3886C19.4876 29.0258 19.5464 28.6197 19.4804 28.2246C19.4686 28.1541 19.4444 28.0771 19.4094 28.0049C19.7098 28.0371 20.0063 28.0589 20.3083 28.0688C20.9113 28.0884 21.5143 28.109 22.1176 28.1135C23.3239 28.1224 24.5302 28.1225 25.7365 28.1137C26.4186 28.1087 27.0991 28.1024 27.7803 28.0676C27.7248 28.138 27.6708 28.2099 27.6181 28.2829C27.6072 28.2797 27.593 28.2855 27.5946 28.299C27.5951 28.3038 27.5957 28.3085 27.5963 28.3132C27.5001 28.4476 27.4075 28.5841 27.3164 28.7167ZM25.975 41.1932C25.6947 41.1842 25.4144 41.1753 25.1341 41.1664C24.5839 41.1489 24.0336 41.1313 23.4834 41.1138C22.3934 41.0791 21.3034 41.0456 20.2132 41.0155C19.1256 40.9855 18.0375 40.9538 16.9496 40.9877C15.8592 41.0218 14.7717 41.1098 13.6833 41.1805C13.0783 41.2197 12.4728 41.2537 11.8667 41.27C11.2894 41.2854 10.7069 41.262 10.1305 41.3032C10.1112 41.1607 10.1254 41.0185 10.1233 40.8765C10.3124 40.7673 10.498 40.6511 10.6814 40.537C11.35 40.121 11.9821 39.6503 12.5783 39.1357C12.6699 39.0566 12.7598 38.9759 12.8487 38.8942C12.7868 39.0296 12.8364 39.204 13.0138 39.2613C13.2302 39.3312 13.4517 39.3064 13.6764 39.3011C13.9046 39.2957 14.1328 39.2906 14.3611 39.2858C14.8071 39.2763 15.2532 39.2678 15.6992 39.2604C16.5707 39.2458 17.4421 39.235 18.3136 39.2279C20.067 39.2137 21.8191 39.2376 23.5722 39.2692C24.0652 39.2782 24.5576 39.2892 25.0506 39.278C25.2972 39.2725 25.5448 39.2707 25.7912 39.2574C25.9886 39.2467 26.1871 39.2188 26.3845 39.1937C26.4094 39.5375 26.4354 39.8813 26.4643 40.2248C26.4835 40.4516 26.5033 40.6784 26.5227 40.9052C26.5307 40.9988 26.5313 41.0943 26.5445 41.1832C26.355 41.1936 26.1667 41.1992 25.975 41.1932ZM26.1678 31.4843C26.1609 31.7475 26.1573 32.0108 26.1554 32.2742C26.1326 32.2612 26.107 32.2516 26.0781 32.2473C25.7715 32.2004 25.4435 32.2359 25.1333 32.2412C24.8335 32.2462 24.5327 32.2445 24.2331 32.2587C23.933 32.2728 23.633 32.2898 23.333 32.3053C23.1922 32.3127 23.0529 32.319 22.9132 32.338C22.8175 32.3511 22.6951 32.3501 22.5929 32.3774C23.0218 31.9618 23.4484 31.5438 23.8762 31.127C23.889 31.1145 23.8983 31.1013 23.9048 31.0878C24.19 30.9139 24.4638 30.7182 24.7118 30.4941C24.9084 30.57 25.1323 30.5796 25.3408 30.5965C25.6103 30.6184 25.8765 30.6405 26.147 30.6405C26.1653 30.6405 26.1824 30.6387 26.1985 30.6355C26.1853 30.9183 26.1752 31.2011 26.1678 31.4843ZM15.0302 36.597C15.6851 36.8062 16.3946 36.8038 17.0759 36.8457C17.8022 36.8904 18.5274 36.9276 19.2545 36.9559C20.7067 37.0123 22.158 37.089 23.61 37.15C24.4394 37.1849 25.2686 37.2233 26.0977 37.2651C26.1565 37.268 26.2126 37.2529 26.2621 37.2253C26.2899 37.7715 26.3225 38.3174 26.3605 38.863C26.3652 38.9312 26.3704 38.9994 26.3753 39.0677C25.9851 39.0187 25.5979 38.9718 25.2048 38.9386C24.7633 38.9013 24.3221 38.8699 23.88 38.8405C23.0186 38.7834 22.1558 38.7069 21.2928 38.679C19.5335 38.6221 17.7704 38.6415 16.0105 38.654C15.5125 38.6576 15.0146 38.6624 14.5166 38.6684C14.2677 38.6714 14.0187 38.6747 13.7698 38.6783C13.5196 38.682 13.2507 38.656 13.0138 38.7433C13.0115 38.7442 13.0096 38.7454 13.0074 38.7462C13.7221 38.0688 14.3624 37.3201 15.0302 36.597ZM17.3323 34.4311C18.4267 34.6305 19.5383 34.6168 20.6477 34.6365C21.7828 34.6568 22.9194 34.6434 24.0547 34.6457C24.6996 34.6471 25.3501 34.6754 25.9927 34.618C26.0686 34.6112 26.1275 34.5824 26.1694 34.5415C26.1812 35.2253 26.2026 35.9087 26.2322 36.5919C26.1905 36.5741 26.145 36.5634 26.0977 36.5606C24.647 36.4752 23.1962 36.3977 21.7437 36.3504C20.2924 36.3031 18.8392 36.247 17.3871 36.2646C16.6785 36.2731 15.9291 36.2278 15.2302 36.3823C15.4958 36.1 15.7671 35.8229 16.0509 35.5575C16.4647 35.1707 16.9062 34.8084 17.3323 34.4311ZM18.1684 33.6263C18.1699 33.6247 18.1706 33.6228 18.1717 33.6211C18.1757 33.624 18.1805 33.626 18.1868 33.6259C19.2113 33.6028 20.3606 33.9261 21.3188 33.4299C21.7466 33.2084 22.1008 32.8583 22.4447 32.5218C22.4449 32.5243 22.4451 32.5268 22.4453 32.5293C22.4475 32.5566 22.4591 32.5895 22.4868 32.6015C22.5998 32.6511 22.7321 32.6544 22.8535 32.6721C22.993 32.6924 23.1301 32.7043 23.2709 32.7128C23.5813 32.7314 23.8916 32.7511 24.2021 32.7687C24.5119 32.7862 24.8231 32.7877 25.1333 32.7954C25.4444 32.8031 25.7702 32.8408 26.0781 32.7964C26.1064 32.7923 26.1315 32.7834 26.1538 32.7711C26.1543 33.1696 26.1579 33.568 26.1617 33.9661C26.1623 34.031 26.1635 34.0959 26.1643 34.1608C26.1227 34.1227 26.0656 34.0961 25.9927 34.0896C25.4218 34.0393 24.8464 34.0617 24.2735 34.0636C23.7109 34.0655 23.1483 34.0674 22.5856 34.0692C21.4496 34.073 20.3144 34.0841 19.1786 34.1058C18.6262 34.1163 18.0762 34.1628 17.532 34.2522C17.7523 34.0513 17.9666 33.8446 18.1684 33.6263ZM9.26691 40.8706C9.05718 40.9348 8.84898 40.9069 8.63884 40.9509C8.62591 40.9536 8.61399 40.9586 8.60306 40.9652C7.97377 40.6963 7.5543 40.1565 7.26723 39.5517C6.96463 38.9142 6.75605 38.2327 6.61633 37.5418C6.32826 36.1176 6.32776 34.6408 6.47687 33.1999C6.62338 31.7843 6.91345 30.3764 7.32741 29.0151C7.61164 28.0803 7.97386 27.1359 8.4768 26.2836C9.05755 26.6729 9.50795 27.2333 9.93223 27.7812C10.4392 28.4358 10.8961 29.1286 11.3051 29.8485C11.2628 29.9718 11.2563 30.1265 11.236 30.2367C11.1969 30.4492 11.1616 30.6644 11.1338 30.8788C11.0745 31.3369 11.0176 31.7954 10.957 32.2534C10.8371 33.159 10.6939 34.0622 10.5358 34.9619C10.523 35.0348 10.5434 35.0964 10.5811 35.1427C10.2674 35.3081 9.95784 35.4808 9.65621 35.6681C8.99308 36.0797 8.37333 36.5592 7.88676 37.1743C7.87411 37.1902 7.89392 37.2116 7.90957 37.1971C8.95302 36.2326 10.2494 35.627 11.5221 35.0286C12.1725 34.7227 12.8198 34.412 13.4438 34.0544C14.0964 33.6806 14.7187 33.258 15.3152 32.8001C15.9964 32.2773 16.6375 31.7057 17.2386 31.0924C17.3094 31.0201 17.2922 30.9296 17.2389 30.8725C17.2569 30.8669 17.2715 30.8512 17.2724 30.8251C17.2868 30.4246 17.407 30.0834 17.6424 29.7593C17.8607 29.4586 18.139 29.2107 18.39 28.9386C18.5016 28.8177 18.6082 28.6917 18.7034 28.5574C18.8014 28.4191 18.8611 28.2664 18.9463 28.1219C19.046 27.953 19.1307 28.0393 19.1769 28.1921C19.2293 28.3654 19.226 28.5683 19.205 28.7464C19.1827 28.9349 19.1253 29.1187 19.0427 29.289C18.9651 29.4491 18.8756 29.6119 18.9279 29.7953C19.0137 30.0967 19.3818 30.2713 19.6606 30.3392C19.9711 30.4147 20.2959 30.4001 20.6103 30.3609C21.004 30.3117 21.3959 30.2398 21.7851 30.1634C22.2358 30.0749 22.6839 29.9727 23.1285 29.8572C23.3375 29.803 23.545 29.7316 23.756 29.6867C23.8312 29.6707 23.9705 29.6466 24.0589 29.6859C22.9223 30.3637 21.6831 30.8153 20.4246 31.2088C20.2682 31.2576 20.3323 31.4938 20.4924 31.4547C21.8444 31.124 23.1165 30.5102 24.3271 29.838C24.3456 29.8276 24.3613 29.8117 24.3729 29.7928C24.4947 29.75 24.6185 29.7127 24.7448 29.682C24.8012 29.6683 25.0915 29.5725 25.1277 29.6093C25.1792 29.6615 25.0012 29.8308 24.9568 29.88C24.6404 30.2306 24.2641 30.5167 23.8568 30.7533C23.4436 30.9932 23.004 31.1845 22.5623 31.365C22.0675 31.5672 21.5445 31.7261 21.0636 31.9585C20.8725 32.0509 21.0066 32.3645 21.2079 32.3009C21.4673 32.2189 21.7193 32.0984 21.9714 31.996C22.1856 31.9091 22.3997 31.8222 22.6127 31.7323C22.7611 31.6696 22.9086 31.6048 23.0546 31.5371C22.8359 31.7431 22.6171 31.949 22.3984 32.1549C22.0197 32.5116 21.6599 32.918 21.1969 33.1681C20.7395 33.4153 20.2177 33.4441 19.7085 33.4387C19.4529 33.436 19.1984 33.4279 18.9428 33.4382C18.6738 33.4491 18.4349 33.4904 18.18 33.5751C18.1753 33.5767 18.1719 33.5795 18.169 33.5827C18.1601 33.5718 18.1449 33.5664 18.1293 33.5756C17.4366 33.9854 16.8051 34.5169 16.1978 35.0422C15.5719 35.5837 14.983 36.1595 14.4218 36.7677C13.8847 37.3498 13.3519 37.9342 12.7674 38.4698C12.1967 38.9927 11.5869 39.4676 10.95 39.9071C10.6031 40.1466 10.2475 40.3772 9.87962 40.5833C9.68303 40.6935 9.48338 40.8044 9.26691 40.8706ZM9.32516 25.1087C9.57323 24.8299 9.84025 24.5715 10.1228 24.3325C10.2474 24.3694 10.3783 24.3797 10.5102 24.3811C10.7114 24.3831 10.913 24.3915 11.1143 24.3894C11.5017 24.3854 11.889 24.3732 12.2766 24.3711C13.0689 24.3668 13.8616 24.3665 14.654 24.3734C14.7578 24.3743 14.8327 24.3299 14.8789 24.2654C15.0393 24.4474 15.2047 24.6251 15.3714 24.8C15.6422 25.0842 15.9309 25.3553 16.2383 25.6024C16.1784 25.6028 16.1186 25.6033 16.0591 25.6029C15.785 25.6011 15.5109 25.5993 15.2369 25.5979C14.6868 25.5948 14.1368 25.5926 13.5868 25.5911C12.4934 25.5882 11.3965 25.5973 10.3044 25.6533C10.0013 25.6689 9.69586 25.6752 9.39383 25.7047C9.23001 25.7208 9.06638 25.7394 8.90272 25.7569C8.86923 25.7605 8.83712 25.7649 8.8056 25.77C8.96588 25.5396 9.13852 25.3183 9.32516 25.1087ZM13.7046 22.6239C13.6972 22.6289 13.6892 22.6334 13.6822 22.6387C13.6661 22.6508 13.6686 22.6727 13.6876 22.68C13.7128 22.6899 13.7393 22.6973 13.7666 22.7032C13.8495 22.8235 13.9142 22.9721 13.9595 23.0475C14.0894 23.264 14.2388 23.4702 14.3908 23.6715C14.4213 23.7119 14.4525 23.7519 14.4837 23.7918C13.7477 23.79 13.0121 23.7938 12.2766 23.8216C11.8893 23.8363 11.5007 23.8486 11.1143 23.8777C10.9554 23.8896 10.7966 23.9097 10.6381 23.9296C11.4626 23.3334 12.3897 22.8782 13.3502 22.5402C13.3489 22.5417 13.3475 22.5428 13.3462 22.5442C13.325 22.5677 13.3566 22.5982 13.3804 22.5785C13.5054 22.4751 13.6138 22.5236 13.7046 22.6239ZM17.4234 29.6312C17.4025 29.663 17.3819 29.6957 17.3619 29.7292C17.3136 29.6811 17.2462 29.6489 17.1593 29.6462C16.1952 29.6161 15.2315 29.5898 14.2668 29.5892C13.791 29.5888 13.311 29.5728 12.8358 29.5964C12.5972 29.6082 12.3587 29.6223 12.1203 29.6358C11.9535 29.6453 11.7764 29.657 11.6136 29.7053C11.2384 29.0487 10.8218 28.4175 10.3669 27.8139C11.399 27.9405 12.4488 27.927 13.4868 27.9622C14.6628 28.0021 15.8394 28.0106 17.0158 28.0385C17.3385 28.0461 17.6612 28.0545 17.9838 28.0636C18.1504 28.0682 18.3169 28.073 18.4834 28.0781C18.5355 28.0796 18.5894 28.0811 18.6433 28.0797C18.6392 28.0881 18.6351 28.0965 18.631 28.1048C18.5402 28.2925 18.4261 28.4651 18.293 28.6254C18.0101 28.9661 17.6684 29.2596 17.4234 29.6312ZM16.1585 31.6538C16.1228 31.5545 16.0358 31.4781 15.8972 31.4844C15.1072 31.5203 14.3157 31.5452 13.5267 31.5972C13.1423 31.6225 12.7563 31.6396 12.3726 31.6732C12.1746 31.6906 11.9771 31.7229 11.78 31.7486C11.6448 31.7662 11.5034 31.7866 11.3738 31.8347C11.3989 31.5571 11.4211 31.2793 11.4403 31.0011C11.4557 30.7776 11.4604 30.5521 11.4592 30.328C11.4586 30.2146 11.4548 30.1005 11.4493 29.9872C11.461 29.9895 11.4726 29.9907 11.4841 29.9893C11.5043 29.9867 11.5232 29.9844 11.5407 29.9797C11.7223 30.0508 11.9279 30.0665 12.1203 30.0802C12.3484 30.0965 12.5766 30.1138 12.8047 30.1301C13.2902 30.1647 13.7802 30.1625 14.2668 30.1783C15.2246 30.2096 16.1825 30.2277 17.1405 30.2534C17.0961 30.4441 17.0945 30.6401 17.1656 30.8248C17.1161 30.8083 17.059 30.816 17.0103 30.8641C16.7344 31.1368 16.4502 31.3998 16.1585 31.6538ZM13.3719 33.6823C13.3524 33.6283 13.3156 33.5788 13.272 33.5452C13.1045 33.416 12.7987 33.4904 12.5976 33.5002C12.3596 33.5119 12.1215 33.5235 11.8835 33.5352C11.8113 33.5387 11.4426 33.5575 11.1718 33.6152C11.2277 33.1925 11.2785 32.7691 11.3239 32.3449C11.3334 32.2558 11.3422 32.1668 11.351 32.0777C11.4785 32.1187 11.6172 32.1338 11.7488 32.14C11.9459 32.1494 12.144 32.1653 12.3414 32.1684C12.7357 32.1746 13.1323 32.1552 13.5267 32.1486C14.2369 32.1368 14.9472 32.1029 15.6571 32.0749C14.9444 32.6536 14.1912 33.1817 13.4056 33.6621C13.3944 33.669 13.3831 33.6755 13.3719 33.6823ZM11.1286 33.9331C11.1886 33.9411 11.2481 33.9437 11.2936 33.9484C11.5221 33.9714 11.747 33.9923 11.9766 33.9957C12.2043 33.999 12.432 34.0023 12.6597 34.0057C12.7081 34.0063 12.7566 34.0071 12.805 34.0078C12.2054 34.3354 11.5874 34.6288 10.9782 34.9378C11.0319 34.6034 11.082 34.2685 11.1286 33.9331ZM17.6617 26.4728C19.0281 27.0537 20.7807 27.1064 21.9549 26.1415C22.0716 26.1734 22.2007 26.184 22.3037 26.1944C22.5352 26.2176 22.7645 26.239 22.9971 26.2463C23.4505 26.2605 23.9043 26.2817 24.3578 26.2873C25.2754 26.2986 26.193 26.3039 27.1105 26.3121C27.1886 26.3128 27.2511 26.289 27.2985 26.2508C27.3914 26.4083 27.4778 26.5699 27.5567 26.7356C27.6718 26.9772 27.7694 27.2269 27.8494 27.4822C27.8323 27.4793 27.8145 27.4772 27.7954 27.4768C26.5895 27.456 25.3827 27.4907 24.1767 27.4957C22.9703 27.5008 21.7641 27.4956 20.5578 27.5042C20.224 27.5066 19.8926 27.5067 19.5596 27.5314C19.3863 27.5443 19.2109 27.55 19.0393 27.5779C19.0201 27.581 19.0006 27.5838 18.9809 27.5866C18.7509 27.4521 18.4653 27.4802 18.2024 27.4752C17.9006 27.4695 17.5987 27.4644 17.2969 27.46C16.7036 27.4512 16.1102 27.4447 15.5168 27.4407C14.3392 27.4326 13.1645 27.4627 11.9876 27.5037C11.4021 27.5241 10.8187 27.5588 10.2407 27.6489C10.2019 27.5987 10.1635 27.5482 10.1242 27.4983C9.71464 26.9791 9.22913 26.3143 8.55521 26.1534C8.58106 26.1112 8.60729 26.0693 8.63392 26.0277C9.10084 26.1509 9.61593 26.1447 10.093 26.1705C10.6429 26.2002 11.1916 26.2207 11.7422 26.2343C12.8365 26.2612 13.9307 26.278 15.0253 26.2947C15.329 26.2993 15.6328 26.3041 15.9366 26.3092C16.1005 26.3119 16.2643 26.3151 16.4282 26.3176C16.5198 26.319 16.6016 26.3188 16.6889 26.2884C16.7696 26.2602 16.8484 26.218 16.9265 26.183C16.9538 26.1708 16.9759 26.1527 16.994 26.1314C17.2085 26.2596 17.4308 26.3747 17.6617 26.4728ZM23.001 24.5413C23.1728 24.589 23.3502 24.5969 23.5319 24.6107C23.7704 24.6287 24.0083 24.6318 24.2474 24.6333C24.6287 24.6357 25.01 24.6331 25.3912 24.6226C25.5549 24.6181 25.6505 24.5085 25.6789 24.3829C25.6829 24.3861 25.6869 24.3892 25.6909 24.3925C26.1548 24.7748 26.5751 25.2121 26.9313 25.6961C26.0735 25.6988 25.2156 25.6994 24.3578 25.7052C23.9043 25.7082 23.4505 25.7269 22.9971 25.7385C22.7747 25.7442 22.5556 25.7627 22.3341 25.7837C22.3297 25.7842 22.3251 25.7845 22.3206 25.7849C22.3441 25.7579 22.3674 25.7304 22.3901 25.7022C22.6549 25.374 22.8726 24.9696 23.001 24.5413ZM28.578 41.7684C28.6537 41.5601 28.6243 41.3367 28.62 41.1176C28.6156 40.8929 28.6132 40.6683 28.6125 40.4435C28.611 40.0041 28.608 39.5647 28.6032 39.1253C28.5934 38.2365 28.5831 37.3469 28.5481 36.4586C28.479 34.7025 28.3459 32.9507 28.1286 31.2064C28.023 30.3583 27.892 29.5123 27.7141 28.6762C27.7166 28.6729 27.719 28.6694 27.7215 28.666C27.8987 28.4293 28.1001 28.2104 28.2741 27.972C28.2895 27.9509 28.296 27.9237 28.2958 27.8963C28.3022 27.8932 28.3086 27.89 28.3151 27.8863C28.4594 27.8041 28.329 27.5799 28.1847 27.6632C28.2014 27.6537 27.9617 27.0383 27.9363 26.9763C27.8451 26.7537 27.7425 26.5361 27.6268 26.3252C27.557 26.198 27.4823 26.0734 27.404 25.9512C27.3904 25.8599 27.3411 25.7752 27.2564 25.73C27.1078 25.517 26.9472 25.3123 26.7761 25.1172C26.0756 24.3188 25.2007 23.6743 24.2448 23.2151C24.1066 23.1488 23.9644 23.0935 23.8227 23.0356C23.6718 22.9739 23.5319 22.8933 23.3833 22.8285C23.1413 22.7231 22.9025 22.7292 22.6649 22.8407C22.6446 22.8503 22.6591 22.8815 22.6798 22.8761C22.8328 22.8362 22.9895 22.8295 23.1428 22.8729C23.2931 22.9153 23.4074 23.0091 23.5386 23.0874C23.7724 23.2269 24.0338 23.3178 24.2735 23.448C24.5904 23.6203 24.9001 23.8095 25.1963 24.0171C24.8894 24.0334 24.5822 24.0451 24.2749 24.0532C24.0467 24.0593 23.8186 24.0604 23.5907 24.0736C23.4285 24.0831 23.2599 24.0804 23.0978 24.1066C23.1369 23.8378 23.1369 23.5666 23.0881 23.3047C23.0881 23.3046 23.088 23.3045 23.088 23.3044C23.0762 23.2414 23.0619 23.1787 23.0443 23.1168C23.0069 22.9851 22.8869 22.9653 22.7997 23.0152C22.7911 23.0088 22.7824 23.0026 22.774 22.9958C22.6696 22.911 22.5757 22.8095 22.494 22.7029C22.3242 22.4814 22.187 22.225 22.0832 21.9665C21.9779 21.7047 21.9034 21.4308 21.8304 21.1587C21.7937 21.0223 21.7541 20.8866 21.7168 20.7503C21.6844 20.6318 21.6608 20.5008 21.6012 20.3929C21.59 20.3726 21.5564 20.3764 21.5511 20.3994C21.5195 20.5347 21.5362 20.689 21.542 20.8269C21.5484 20.98 21.5572 21.1316 21.5776 21.2836C21.6198 21.5988 21.6879 21.9087 21.797 22.208C21.9017 22.4951 22.0397 22.7629 22.2273 23.0048C22.3519 23.1655 22.5289 23.3781 22.7338 23.4648C22.7606 23.7663 22.7576 24.0682 22.6863 24.3668C22.5932 24.7577 22.4148 25.1292 22.1698 25.4474C21.6559 26.1148 20.8609 26.4919 20.0315 26.5696C19.1734 26.65 18.2953 26.458 17.5243 26.0805C16.6666 25.6605 15.9552 25.0126 15.3161 24.3133C14.9478 23.9102 14.5658 23.5136 14.2244 23.0871C14.1639 23.0115 14.067 22.8581 13.9522 22.7198C14.0691 22.7188 14.189 22.7013 14.2925 22.688C14.5066 22.6605 14.7158 22.6179 14.925 22.5647C15.3162 22.4652 15.7286 22.3268 16.0704 22.1077C16.7936 21.6442 17.076 21.0563 17.1724 20.2463C17.2029 19.9903 16.7603 19.9281 16.7191 20.1849C16.6557 20.5797 16.5599 20.7719 16.434 21.1511C16.3128 21.5157 16.1373 21.6515 15.8019 21.8525C15.487 22.0411 15.1291 22.1507 14.7822 22.264C14.5899 22.3267 14.3954 22.384 14.2016 22.4416C14.0781 22.4784 13.9316 22.5104 13.8064 22.5671C13.7411 22.5098 13.673 22.4665 13.6044 22.4501C13.6094 22.4417 13.6029 22.4285 13.5902 22.431C13.5701 22.435 13.55 22.4395 13.5298 22.4436C13.5096 22.4451 13.4894 22.4491 13.4693 22.4563C12.261 22.7181 11.1006 23.2755 10.1166 24.0349C10.067 24.0556 10.019 24.081 9.97336 24.1131C9.94986 24.1296 9.93427 24.1558 9.92979 24.1829C9.78187 24.3037 9.63834 24.4291 9.49965 24.5589C8.38272 25.6039 7.67502 26.9941 7.17959 28.4241C6.69155 29.8328 6.36119 31.31 6.17953 32.7891C5.99433 34.2967 5.97298 35.8356 6.24159 37.3348C6.38582 38.1397 6.61931 38.9307 6.96394 39.6732C7.27342 40.34 7.77718 41.0996 8.56842 41.1808C8.57095 41.1833 8.57333 41.186 8.57618 41.1884C8.88663 41.4441 9.34885 41.2675 9.67342 41.1147C9.72488 41.0905 9.77593 41.065 9.82676 41.0389C9.7999 41.1423 9.78779 41.2506 9.78219 41.352C9.77051 41.5628 10.0676 41.5748 10.1238 41.3998C10.6053 41.4845 11.1026 41.4857 11.5896 41.483C12.1338 41.48 12.6778 41.4612 13.2214 41.4356C14.2999 41.3847 15.3771 41.3069 16.4563 41.2716C18.6416 41.2 20.8328 41.3529 23.0162 41.43C23.6288 41.4516 24.2413 41.4732 24.8538 41.4948C25.4796 41.5169 26.1048 41.5211 26.7256 41.6058C26.9539 41.6369 27.0413 41.4131 26.9769 41.2737C26.993 41.18 26.977 41.0774 26.9682 40.9671C26.9518 40.7609 26.9363 40.5548 26.9218 40.3485C26.8934 39.9463 26.866 39.544 26.8401 39.1417C26.7874 38.3263 26.7421 37.5104 26.6981 36.6946C26.6105 35.0726 26.5434 33.4493 26.494 31.8256C26.482 31.4298 26.4663 31.0339 26.4464 30.6384C26.4701 30.6009 26.4936 30.5634 26.5164 30.5254C26.5923 30.3988 26.6667 30.2714 26.7435 30.1454C26.8977 29.8928 27.0528 29.6418 27.2148 29.3942C27.3548 29.1803 27.4992 28.9698 27.65 28.7635C27.8373 30.3458 28.0038 31.9296 28.0802 33.522C28.1644 35.2759 28.2091 37.0324 28.2334 38.7881C28.2402 39.2786 28.2447 39.7691 28.25 40.2596C28.2527 40.515 28.2554 40.7703 28.2533 41.0257C28.2513 41.27 28.2144 41.5372 28.301 41.7684C28.3515 41.9032 28.5282 41.9056 28.578 41.7684Z" fill="black"/>
<path fill-rule="evenodd" clip-rule="evenodd" d="M22.3687 10.2296C20.3145 8.55579 17.0227 8.01232 14.8238 9.70097C13.1152 11.2857 12.4082 15.7891 12.7105 18.052C12.7946 19.5034 13.9007 21.1485 15.5244 20.6895C15.8002 20.6623 16.0679 20.5563 16.3461 20.5341C16.679 20.4957 17.0144 20.495 17.3466 20.5421C18.0704 20.6447 18.7121 21.03 19.4146 21.2102C20.7183 21.5444 22.1728 21.3196 23.2949 20.5667C27.0031 18.1226 25.3234 12.5951 22.3687 10.2296Z" fill="#D08B5B"/>
<path fill-rule="evenodd" clip-rule="evenodd" d="M22.0957 21.2501C22.1338 21.2369 22.1719 21.2232 22.2097 21.2091C22.2122 21.2179 22.2162 21.2263 22.2209 21.2345C22.2262 21.2476 22.2316 21.2604 22.2375 21.2733C22.19 21.2736 22.1425 21.2651 22.0957 21.2501ZM22.0195 5.03028C22.0026 4.99243 21.9832 4.95611 21.9614 4.92101C22.0145 4.93826 22.0676 4.96206 22.1157 4.99274C22.0832 5.0037 22.0513 5.01623 22.0195 5.03028ZM13.9055 9.98249C13.9033 9.98211 13.9012 9.9818 13.899 9.98142C13.9269 9.90706 13.9765 9.83686 14.0313 9.78617C14.0411 9.77706 14.0518 9.76863 14.0621 9.75993C14.0039 9.82941 13.9511 9.90352 13.9055 9.98249ZM28.752 17.7586C28.7245 17.4974 28.6895 17.2373 28.6443 16.9786C28.6008 16.731 28.5643 16.4661 28.4384 16.2463C28.3135 16.0274 28.1883 15.8148 28.0396 15.6223C28.0608 15.5239 28.089 15.4316 28.1133 15.357C28.2538 14.9281 28.3922 14.3833 28.1002 13.9847C28.0324 13.8923 27.9497 13.8215 27.855 13.7577C27.8147 13.7304 27.7479 13.7057 27.717 13.6681C27.6951 13.6415 27.7026 13.6559 27.7016 13.6428C27.6963 13.572 27.8619 13.4226 27.9006 13.3666C27.9731 13.2629 28.0271 13.1462 28.0683 13.0269C28.2314 12.5547 28.1205 12.0346 28.0224 11.5615C27.9706 11.3107 27.9134 11.0593 27.8947 10.8032C27.8772 10.5627 27.91 10.3279 27.9293 10.0886C27.9481 9.85252 27.9431 9.60895 27.8422 9.39036C27.7928 9.28391 27.7182 9.18997 27.6273 9.1167C27.5386 9.04503 27.428 9.00339 27.3416 8.932C27.2553 8.86089 27.28 8.7648 27.3025 8.66648C27.3334 8.53309 27.3725 8.40065 27.3762 8.26288C27.3831 8.02272 27.2853 7.7888 27.1326 7.60722C26.9752 7.41967 26.7503 7.29283 26.5073 7.26434C26.3961 7.25118 26.2868 7.27345 26.1762 7.26562C26.0669 7.2581 26.0432 7.20331 26.0226 7.10311C25.9751 6.8736 25.9945 6.64691 25.8817 6.43274C25.7818 6.24237 25.604 6.11334 25.4076 6.03728C25.0475 5.89763 24.6287 5.92644 24.2489 6.00876C24.0246 5.3475 23.3247 4.91384 22.636 4.90852C22.5285 4.72566 22.3465 4.58914 22.1388 4.50895C21.7952 4.37588 21.4313 4.45356 21.0734 4.45356H21.0719C21.0359 4.45134 21 4.45043 20.9641 4.45075C20.9304 4.44884 20.8966 4.44602 20.8629 4.44229C20.4556 4.39404 20.0527 4.22684 19.6492 4.39063C19.4693 4.46358 19.3262 4.57599 19.2357 4.7194C19.0992 4.75662 18.9646 4.79924 18.8325 4.84871C18.26 4.86371 17.6928 5.1715 17.4033 5.67032C16.9957 5.62398 16.5534 5.70257 16.2838 6.03634C16.2136 6.1232 16.1593 6.22524 16.1232 6.33358C15.8484 6.42269 15.594 6.58147 15.4276 6.82063C15.2757 7.03886 15.2465 7.32104 15.3493 7.55531C15.1039 7.7335 14.9122 7.98859 14.8198 8.28981C14.7637 8.47282 14.7553 8.66191 14.7914 8.84204C14.5402 8.8979 14.3 9.00145 14.0871 9.15684C13.864 9.31963 13.5854 9.57873 13.5707 9.87694C13.5696 9.89883 13.5704 9.92071 13.5722 9.94254C13.081 9.90794 12.5803 9.99135 12.2483 10.3861C11.999 10.6823 11.8907 11.0637 11.9572 11.4109C11.3728 11.5299 10.8203 11.8361 10.4349 12.2889C10.1547 12.6179 9.90581 13.0363 9.92077 13.4843C9.92546 13.6193 9.95704 13.7552 10.0117 13.8807V13.881C9.98827 13.9252 9.96419 13.9743 9.94108 14.0266C9.57909 14.2805 9.31611 14.6785 9.16806 15.1172C9.04847 15.4726 8.9732 15.9341 9.10091 16.2958C9.12031 16.3509 9.14498 16.4028 9.17372 16.451C9.14964 16.4767 9.12687 16.5024 9.10469 16.5284C8.86073 16.8142 8.61368 17.1743 8.63058 17.5679C8.63745 17.7264 8.69613 17.8857 8.79205 18.0166C8.4547 18.3595 8.18301 18.7922 8.20984 19.2753C8.23295 19.6958 8.46317 20.1229 8.82388 20.3249C8.76363 20.6489 8.84421 20.9909 9.09591 21.2439C9.2215 21.3704 9.36951 21.4536 9.52633 21.4981C9.56132 21.8798 9.89922 22.187 10.2581 22.2752C10.325 22.2918 10.3918 22.3019 10.4583 22.3065C10.7812 22.4653 11.1663 22.4471 11.4958 22.3015C11.593 22.4252 11.7195 22.5261 11.8669 22.5984C11.9265 22.6278 11.9897 22.6522 12.0555 22.6719C12.5209 22.81 12.9982 22.6228 13.4051 22.4043C13.4182 22.3974 13.4423 22.3886 13.4635 22.3789C13.5197 22.4418 13.6222 22.5041 13.6756 22.5348C13.8568 22.6391 14.0782 22.6876 14.2862 22.6738C14.5302 22.6576 14.7453 22.5768 14.9446 22.4619C14.9737 22.4669 15.003 22.4697 15.0324 22.4713C15.2198 22.4812 15.3868 22.4218 15.5371 22.3279C15.6364 22.341 15.7382 22.3398 15.8413 22.3216C16.0684 22.3795 16.2895 22.2875 16.4672 22.1412C16.5459 22.0764 16.6124 22.0003 16.6837 21.9277C16.7577 21.8522 16.8139 21.8347 16.9004 21.784C17.105 21.6641 17.1296 21.36 17.0409 21.1402C17.0578 21.1017 17.0675 21.0588 17.0675 21.0112C17.0669 20.596 16.8761 20.2153 16.6418 19.8831C16.5371 19.735 16.4235 19.59 16.2988 19.4585C16.1986 19.3529 16.0578 19.1817 15.9094 19.1388C15.9003 19.1322 15.8909 19.1256 15.8816 19.1194C15.9103 19.0185 15.9272 18.9159 15.92 18.811C15.9125 18.7032 15.8778 18.6012 15.8223 18.5142C16.0087 18.1519 16.0874 17.7545 16.0499 17.34C16.2017 17.1242 16.3167 16.886 16.376 16.6248C16.4125 16.4633 16.4335 16.2933 16.4306 16.1276C16.4294 16.0481 16.4003 15.9475 16.3998 15.8652C16.4041 15.8912 16.4379 15.7942 16.451 15.77C16.6015 15.4898 16.7948 15.2713 16.827 14.9409C16.8457 14.7477 16.8001 14.5342 16.6846 14.3758C16.7586 14.0833 16.7577 13.7692 16.6412 13.4903C16.6099 13.4158 16.574 13.3428 16.5328 13.2736C16.5518 13.2154 16.5693 13.1565 16.5918 13.1036C16.6006 13.0826 16.6093 13.0613 16.618 13.04C16.7027 12.9652 16.7814 12.8835 16.8476 12.8033C16.9944 12.6258 17.1066 12.4223 17.1206 12.1877C17.1275 12.0703 17.1 11.9579 17.0659 11.8464C17.0509 11.796 17.0419 11.74 17.0241 11.6908C17.0141 11.6636 16.99 11.6357 16.9816 11.61C16.9797 11.6044 16.9782 11.5997 16.9769 11.596C16.9782 11.5922 16.9791 11.5844 16.9791 11.5696C16.9794 11.4572 16.9941 11.3473 16.9947 11.239C17.0975 11.343 17.2212 11.4206 17.3617 11.466C17.645 11.5571 17.9405 11.5158 18.1912 11.3752C18.4611 11.5606 18.7644 11.7284 19.0823 11.7957C19.2713 11.8358 19.4606 11.8192 19.6501 11.8439C19.8385 11.8687 20.0206 11.951 20.198 12.0152C20.5928 12.1583 20.9866 12.3051 21.3826 12.4445C21.7024 12.5569 22.0485 12.6461 22.3833 12.5829C22.4774 12.7281 22.5995 12.8509 22.756 12.9411C22.868 13.0053 22.9911 13.0488 23.1182 13.0704C23.2307 13.0895 23.3625 13.082 23.4537 13.1593C23.5427 13.2345 23.5983 13.3465 23.6782 13.4311C23.7673 13.5257 23.8772 13.6077 23.9924 13.6666C24.0849 13.7138 24.1792 13.7479 24.2751 13.7702C24.2667 13.9841 24.2585 14.1976 24.256 14.4118C24.2514 14.877 24.2532 15.3423 24.247 15.8076C24.2408 16.2713 24.2261 16.7351 24.2017 17.1981C24.1786 17.6327 24.1461 18.0689 24.0427 18.4929C23.6998 19.8997 22.4152 20.907 20.9772 20.9583C20.5503 20.9736 20.1277 20.9135 19.7195 20.7876C19.2966 20.6571 18.919 20.3884 18.4855 20.3058C18.3721 20.2845 18.2653 20.3988 18.3302 20.5086C18.4421 20.6975 18.5779 20.8127 18.7637 20.9263C18.9583 21.045 19.1751 21.133 19.389 21.21C19.7826 21.3515 20.1989 21.4336 20.6165 21.4565C20.935 21.474 21.2549 21.4521 21.5669 21.392C21.5888 21.4593 21.6275 21.5247 21.6568 21.587C21.6612 21.5961 21.6759 21.5898 21.6731 21.5805C21.6684 21.5648 21.6653 21.551 21.6641 21.5398C21.769 21.6769 21.9311 21.7717 22.0976 21.8178C22.215 21.8504 22.3396 21.8603 22.4605 21.8466C22.4995 21.8422 22.5367 21.8356 22.5736 21.8275C22.6966 21.9355 22.854 22.0075 23.012 22.0435C22.9849 22.2089 23.0664 22.3892 23.2554 22.4362C23.3347 22.4559 23.4109 22.4562 23.4871 22.449C23.5486 22.4778 23.6149 22.5004 23.6851 22.5157C23.7766 22.5358 23.8859 22.5101 23.955 22.4437C23.9927 22.4703 24.028 22.4888 24.063 22.531C24.207 22.7052 24.5175 22.5664 24.5312 22.3651C24.5768 22.3651 24.6227 22.3657 24.6687 22.3673C24.6796 22.3723 24.6905 22.3773 24.7017 22.3826C24.9026 22.4762 25.1106 22.558 25.3327 22.4844C25.3736 22.4709 25.411 22.4537 25.4451 22.4337C25.6016 22.4478 25.7558 22.4481 25.9145 22.3967C26.0082 22.3663 26.0963 22.3181 26.1697 22.2549C26.4145 22.3269 26.6729 22.3595 26.9165 22.2702C27.0989 22.2035 27.2457 22.0983 27.349 21.9596C27.5071 21.9653 27.6676 21.9271 27.8122 21.8516C28.0596 21.7232 28.2329 21.4793 28.3538 21.2348C28.6199 20.6953 28.7773 20.1157 28.8391 19.518C28.9001 18.9293 28.8132 18.3438 28.752 17.7586Z" fill="black"/>
<path fill-rule="evenodd" clip-rule="evenodd" d="M22.1299 18.9635C21.9299 18.9651 21.705 18.89 21.5546 18.8312L21.5154 18.8157C21.3852 18.7635 21.2515 18.7037 21.1518 18.6032C21.1199 18.5705 21.086 18.5336 21.0688 18.4947C21.0587 18.472 21.0545 18.4484 21.0642 18.425C21.1003 18.4215 21.1344 18.4168 21.1668 18.4109C21.1822 18.4081 21.197 18.4052 21.2083 18.4051C21.25 18.4049 21.2913 18.4102 21.3325 18.4154C21.3385 18.4161 21.3444 18.4169 21.3504 18.4176C21.3825 18.4216 21.4145 18.4259 21.4463 18.4302C21.5391 18.4426 21.6314 18.455 21.7255 18.4595C21.7934 18.4628 21.8646 18.4589 21.9365 18.455C22.1229 18.4449 22.3156 18.431 22.4592 18.5616C22.4969 18.5958 22.5126 18.6389 22.5126 18.6828C22.5126 18.7362 22.4901 18.7905 22.4559 18.8331C22.3784 18.9295 22.2591 18.9624 22.1299 18.9635ZM23.2208 17.2815C23.1337 17.4121 22.9887 17.4961 22.7901 17.487C22.3952 17.4689 21.9239 17.3199 21.5932 17.1043C21.507 17.0482 21.4512 16.9585 21.4412 16.8624L21.4234 16.6914L21.3271 16.8338C21.317 16.8486 21.3069 16.8634 21.2968 16.8782C21.2689 16.919 21.241 16.9598 21.2148 17.0015C21.1139 17.1619 21.0214 17.3239 20.9374 17.4938C20.8779 17.6141 20.8344 17.7486 20.7908 17.8843C20.7173 18.1135 20.6462 18.3389 20.4889 18.5C20.4651 18.5244 20.4286 18.5331 20.3951 18.5288C20.3656 18.525 20.3367 18.5105 20.3226 18.4817C20.1347 18.0995 20.3874 17.6388 20.5924 17.3186L20.6141 17.2852C20.8042 16.9958 21.1146 16.6128 21.4702 16.5608L21.5109 16.6257L21.5701 16.5862C21.6669 16.5216 21.7946 16.5246 21.9065 16.5752L22.0184 16.6257C22.2266 16.7192 22.432 16.8054 22.6573 16.8527C22.6737 16.8561 22.6901 16.8593 22.7065 16.8623C22.722 16.8651 22.7375 16.8678 22.7532 16.8702C22.7498 16.8548 22.7462 16.8395 22.7426 16.8243C22.7388 16.8082 22.7349 16.792 22.7308 16.7759C22.7265 16.7592 22.722 16.7427 22.7175 16.7262C22.6994 16.6604 22.679 16.5953 22.6548 16.5315C22.5639 16.2917 22.4186 16.0674 22.2773 15.8534L22.2607 15.8283C22.2404 15.7976 22.2182 15.7656 22.1953 15.7326C22.0851 15.5738 21.9629 15.4015 21.9542 15.2286C22.1005 15.2378 22.2229 15.3287 22.3306 15.4078C22.4785 15.5164 22.6156 15.6405 22.7399 15.7754C22.981 16.0371 23.1974 16.3716 23.2923 16.7173C23.3467 16.9153 23.3228 17.1284 23.2208 17.2815ZM19.3627 15.3089L19.3627 15.3018C19.3631 15.1021 19.4794 14.6463 19.7667 14.6463C19.9462 14.6463 20.0552 14.9565 20.074 15.2763L20.0747 15.2894C20.083 15.4882 20.0285 15.9229 19.7667 15.9229C19.5021 15.9229 19.3654 15.5112 19.3627 15.3089ZM23.5929 15.2462L23.593 15.2392C23.5925 15.0395 23.4763 14.5836 23.189 14.5836C23.0139 14.5836 22.906 14.8786 22.8832 15.1898L22.8816 15.2137C22.8703 15.4059 22.9213 15.8602 23.189 15.8602C23.4535 15.8602 23.5902 15.4486 23.5929 15.2462ZM20.3304 13.9576C20.2923 13.9621 20.2544 13.9679 20.2166 13.9739C20.1061 13.9915 19.9962 14.0127 19.887 14.0373C19.6798 14.0841 19.4741 14.1432 19.2725 14.21C19.0837 14.2726 18.8979 14.3432 18.7122 14.4139C18.7023 14.4176 18.6923 14.4214 18.6824 14.4252C18.6168 14.4501 18.5515 14.4781 18.4859 14.5061C18.3861 14.5488 18.2859 14.5918 18.1836 14.6242C18.4531 14.2514 18.8684 13.9751 19.268 13.7775C19.496 13.6647 19.7379 13.5738 19.9812 13.4993L20.1167 13.4585C20.3162 13.3996 20.5343 13.3452 20.7218 13.4627C20.7959 13.5091 20.8432 13.5813 20.8581 13.6593C20.8727 13.7359 20.856 13.8179 20.8032 13.8864C20.7572 13.9461 20.6998 13.98 20.6388 13.9917C20.5714 14.0045 20.5 13.9904 20.435 13.9557C20.3829 13.9518 20.3676 13.9532 20.3522 13.9549L20.3304 13.9576ZM23.3319 13.9955C23.1983 13.9665 23.0661 13.9548 22.9291 13.959C22.8672 13.9609 22.8072 13.9704 22.7474 13.9801C22.6546 13.995 22.5621 14.0105 22.4621 13.9923C22.4099 13.9829 22.3655 13.9523 22.3311 13.9125C22.291 13.8659 22.2644 13.8063 22.2559 13.7497C22.2471 13.6912 22.2559 13.64 22.2775 13.5949C22.3031 13.5415 22.3461 13.4965 22.3982 13.4571C22.5556 13.3379 22.8258 13.3665 23.0117 13.3907C23.1953 13.4145 23.3779 13.4715 23.5403 13.562C23.7004 13.6513 23.8396 13.7716 23.9483 13.9186C24.0399 14.0426 24.083 14.1852 24.1275 14.3305C23.918 14.1546 23.5973 14.0532 23.3319 13.9955Z" fill="black"/>
</svg>
