<svg width="36" height="48" viewBox="0 0 36 48" fill="none" xmlns="http://www.w3.org/2000/svg">
<path fill-rule="evenodd" clip-rule="evenodd" d="M7.62953 42.2057C9.54603 42.2594 11.3564 42.3186 13.2692 42.2057C16.3301 42.0163 25.3129 42.3578 27.2874 42.2057C27.4364 42.1943 27.9488 42.3578 27.9595 42.2057C28.0463 41.1472 28.1025 30.4376 27.8447 29.7007C27.5868 28.9638 26.3139 25.4215 24.6921 23.7697C24.2398 23.3235 23.5516 23.1506 23.1715 22.6349C22.8437 22.0726 22.8692 21.7425 22.5455 21.4467C22.405 21.3183 22.0737 21.2662 21.8275 21.088C21.58 20.842 21.8144 20.3003 21.7128 19.9576C21.5034 19.102 20.732 18.5531 19.8888 18.4237C18.7169 18.1432 17.4797 18.4084 16.9184 19.3293C16.7095 19.6721 16.8207 20.0888 16.5637 20.638C16.582 21.0531 16.0976 21.1534 15.8081 21.3179L15.233 21.8992C13.4615 22.8964 11.3775 23.4348 9.82534 24.7745C8.50565 26.1138 7.19304 27.6617 6.6075 29.4737C6.48628 29.9675 6.44671 30.4778 6.39648 30.9823C6.25307 32.4567 5.85372 33.8877 5.51006 35.3238C5.1182 37.1333 4.75292 39.0541 5.28106 40.8806C5.43333 41.2672 7.2829 42.1877 7.62953 42.2057Z" fill="#D08B5B"/>
<path fill-rule="evenodd" clip-rule="evenodd" d="M16.556 20.6338L16.7057 20.6498V21.8026L18.6629 23.8393L19.0205 24.2484C18.8073 25.009 19.022 25.3893 19.6647 25.3893C20.6286 25.3893 19.8834 25.1091 20.0646 24.7298L20.0723 24.7143C20.2037 24.4546 20.6534 23.9039 21.4213 23.0622L22.3022 21.5892V21.3202L22.332 21.3324C22.4152 21.3671 22.4869 21.4024 22.5357 21.447C22.8594 21.7429 22.8339 22.0729 23.1617 22.6352C23.5419 23.1509 24.2301 23.3238 24.6823 23.77C26.3042 25.4218 27.577 28.9642 27.8349 29.7011C28.0928 30.438 28.0365 41.1475 27.9497 42.2061C27.939 42.3581 27.4266 42.1946 27.2776 42.2061C25.3031 42.3581 16.3204 42.0167 13.2595 42.2061C11.3467 42.3189 9.53626 42.2597 7.61977 42.2061C7.27313 42.188 5.42356 41.2676 5.27129 40.881C4.74316 39.0544 5.10844 37.1336 5.5003 35.3242L5.53427 35.1829C5.86418 33.8177 6.2352 32.4556 6.37946 31.0551L6.38671 30.9826C6.43695 30.4781 6.47651 29.9678 6.59773 29.474C7.18327 27.6621 8.49588 26.1141 9.81557 24.7748C11.3523 23.4486 13.4101 22.9076 15.17 21.9294L15.2233 21.8996L15.7983 21.3182L15.8159 21.3084C16.107 21.1496 16.5719 21.0451 16.5539 20.6384L16.556 20.6338Z" fill="#FDEA6B"/>
<path fill-rule="evenodd" clip-rule="evenodd" d="M16.8164 19.4768C16.8318 19.4267 16.8978 19.4408 16.9028 19.4884C16.9526 19.9606 16.89 20.454 16.8299 20.9231C16.8011 21.1494 16.7845 21.3849 16.7407 21.6081C16.735 21.6319 16.7297 21.656 16.7247 21.6799C16.7391 21.7055 16.7817 21.7343 16.802 21.754L16.8904 21.84L17.0674 22.0114C17.4139 22.3471 17.7604 22.683 18.1069 23.0187L18.6155 23.5119C18.7898 23.6809 18.988 23.8428 19.141 24.0313C19.224 24.1337 19.2427 24.2592 19.161 24.3688C19.1206 24.423 19.0481 24.4624 18.9745 24.4706C19.0033 24.5107 19.0255 24.5561 19.0396 24.6065C19.0684 24.7092 18.9645 24.8354 18.854 24.7925C18.7285 24.7442 18.6249 24.6578 18.4972 24.6165C18.3682 24.5745 18.228 24.5664 18.0944 24.5889C18.033 24.5993 17.9729 24.6146 17.9144 24.6341C18.5407 24.9224 19.2183 25.0881 19.9094 25.1118C20.0502 25.1166 20.1908 25.1147 20.3307 25.1053C20.5661 25.0899 20.7998 25.0543 21.0296 24.9966C21.2102 24.9512 21.3889 24.8942 21.5623 24.8253C21.6474 24.7915 21.7316 24.7543 21.813 24.712L21.8201 24.7078C21.8385 24.6963 22.1786 24.5034 22.1845 24.4744C22.1905 24.4454 22.1905 24.4353 22.1794 24.41C22.1683 24.3848 22.1376 24.3674 22.1376 24.3674C22.0326 24.3225 21.9237 24.2807 21.8089 24.2799C21.5447 24.2783 21.2565 24.4737 21.038 24.6068C20.798 24.753 20.5773 24.924 20.3463 25.0824C20.341 25.0862 20.3351 25.0878 20.3294 25.0878C20.305 25.0878 20.2825 25.0577 20.2981 25.0342C20.4637 24.7903 20.6871 24.5873 20.9208 24.41L21.015 24.3394C21.2291 24.1797 21.4795 24.0028 21.7398 23.9643C22.0587 23.9173 22.3917 24.1162 22.6762 24.2326L23.1801 24.439C23.2699 24.4756 23.3676 24.5069 23.458 24.5486L23.2469 23.8876C23.1414 23.5571 23.0361 23.2265 22.9319 22.8957L22.9117 22.8309C22.8079 22.495 22.7126 22.1457 22.5397 21.8389C22.4984 21.7653 22.4512 21.6961 22.4045 21.6263C22.356 21.554 22.3379 21.4741 22.2769 21.4096C22.156 21.2815 21.9829 21.2064 21.8177 21.1573C21.7773 21.1454 21.7892 21.0921 21.8271 21.0881C21.9967 21.0702 22.1584 21.1098 22.3116 21.1813L22.3753 21.2117C22.5203 21.2803 22.6616 21.3441 22.7692 21.4672C23.0145 21.7484 23.1419 22.1024 23.259 22.4518L23.2903 22.5456C23.3341 22.5312 23.6318 22.622 23.669 22.6436C24.7848 23.1155 25.6443 23.994 26.2728 25.0235C26.9614 26.1517 27.3363 27.4408 27.6458 28.7164C27.7414 29.1101 27.8327 29.505 27.9205 29.9008C27.5295 30.0513 27.1139 30.13 26.7478 30.3421C26.6084 30.4228 26.7344 30.6394 26.8742 30.5584C27.217 30.3598 27.6076 30.2864 27.9745 30.147C28.1735 31.0632 28.3505 31.9845 28.4987 32.9096C28.9542 35.7489 29.2418 38.6345 29.2236 41.5126C29.2233 41.5762 29.2046 41.6473 29.1698 41.7083C29.1902 41.6983 29.2061 41.6864 29.2152 41.672C29.3307 41.4907 29.6202 41.6589 29.5041 41.8411L29.4871 41.8675C29.4 42.0019 29.3186 42.1046 29.1654 42.1805C29.0111 42.2569 28.844 42.2698 28.6737 42.2741C28.095 42.2894 27.5159 42.2993 26.9366 42.3065C26.8571 41.6866 26.8248 41.0607 26.7154 40.4445C26.6872 40.286 26.4459 40.3532 26.4739 40.5111C26.5796 41.1062 26.6135 41.7103 26.6872 42.3095C25.4488 42.3228 24.2096 42.323 22.972 42.3264C21.2949 42.3314 19.6179 42.3279 17.9408 42.3269L17.2221 42.3267C15.2847 42.3267 13.3472 42.3204 11.4099 42.3076L10.9491 42.3044C10.7658 41.2235 10.6411 40.1333 10.6388 39.0349C10.6384 38.8738 10.388 38.8735 10.3884 39.0349C10.3907 40.1321 10.5141 41.2224 10.6957 42.3029C10.237 42.3009 9.77845 42.3026 9.31971 42.3189L9.08622 42.3272C8.61905 42.3432 8.15094 42.3531 7.68465 42.3158C7.16697 42.2741 6.64337 42.179 6.17921 41.935C5.97016 41.825 5.78609 41.6843 5.62878 41.5189C5.78869 41.4258 5.95088 41.3366 6.10578 41.2352C6.24008 41.1473 6.11479 40.9303 5.97939 41.0189C5.81248 41.1282 5.63702 41.2233 5.46515 41.3244C5.34071 41.1583 5.23858 40.9739 5.16102 40.775C5.03864 40.4609 4.99138 40.123 4.95038 39.7905C4.9019 39.3988 4.88184 39.004 4.88184 38.6095C4.88184 37.7797 4.96916 36.9525 5.09094 36.1328C5.2074 35.3475 5.36135 34.5685 5.52407 33.792L5.54631 33.6861C5.70687 32.9227 5.85993 32.1572 6.04396 31.3991C6.21414 30.6982 6.41079 30.0005 6.64515 29.3163C6.85376 29.4453 7.07207 29.5582 7.27742 29.6926C7.41267 29.7812 7.53827 29.5644 7.40381 29.4764C7.18472 29.3329 6.95104 29.2137 6.72994 29.0736C6.99201 28.341 7.29961 27.6254 7.66841 26.9401C8.40703 25.5678 9.40237 24.34 10.6772 23.4339C11.3153 22.9805 12.0155 22.6095 12.7507 22.3395C13.5003 22.064 14.2771 21.9131 15.0715 21.8511C15.0942 21.8493 15.1069 21.8703 15.106 21.8897L15.1057 21.8934L15.137 21.8984C15.1485 21.8198 15.1723 21.7437 15.2177 21.6739C15.321 21.5148 15.5169 21.4128 15.6734 21.3151L15.7105 21.292C15.8967 21.1765 16.0932 21.0628 16.3097 21.0223C16.3172 21.021 16.3219 21.0289 16.3169 21.0348C16.1741 21.1986 15.9915 21.3238 15.8241 21.4623L15.7857 21.4944C15.647 21.6086 15.4535 21.7382 15.4483 21.9291C15.4424 22.1539 15.4884 22.3878 15.505 22.612C15.5216 22.8355 15.5332 23.0588 15.5391 23.283C15.5607 24.0861 15.5348 24.8896 15.4637 25.6896L15.7779 25.4791C16.2669 25.1516 16.7575 24.8251 17.2584 24.5185C17.5614 24.3328 17.9019 24.1741 18.2649 24.1813C18.3667 24.1831 18.4815 24.1979 18.5917 24.2292C18.4731 24.1168 18.3595 23.9972 18.2434 23.8842C18.0521 23.6978 17.8609 23.5116 17.6697 23.3256L17.1183 22.7883L16.5667 22.2509C16.3958 22.084 16.1954 21.9303 16.2136 21.6673C16.2283 21.4575 16.335 21.2487 16.408 21.0464C16.4183 21.0173 16.4277 20.9885 16.4365 20.96C16.5836 20.4709 16.6671 19.964 16.8164 19.4768ZM23.9429 40.4613C23.8288 40.3472 23.6518 40.5243 23.7659 40.6384L23.8262 40.6986C23.927 40.7991 24.0269 40.9028 24.0966 41.0272L24.1069 41.046C24.182 41.1886 24.3982 41.0622 24.3231 40.9195C24.2301 40.7432 24.0823 40.6009 23.9429 40.4613ZM19.0561 40.4291C18.693 40.3598 18.3431 40.3598 17.98 40.4291C17.8219 40.4593 17.8888 40.7008 18.0466 40.6707C18.3641 40.61 18.672 40.61 18.9896 40.6707C19.147 40.7008 19.2145 40.4594 19.0561 40.4291ZM14.1525 37.9042C13.9962 37.8646 13.9296 38.1061 14.0859 38.1457L14.1629 38.1651C14.4246 38.2298 14.6739 38.278 14.9457 38.2179C15.1009 38.1836 15.0382 37.9479 14.8853 37.9751L14.8791 37.9763C14.6276 38.0319 14.3959 37.9659 14.1525 37.9042ZM22.8612 36.2772C22.7456 36.1647 22.5684 36.3417 22.6842 36.4543C22.8287 36.5949 22.999 36.7017 23.2054 36.7074C23.3642 36.7118 23.3664 36.4688 23.2125 36.4573L23.2054 36.4569C23.0671 36.4531 22.9569 36.3702 22.8612 36.2772ZM8.12493 35.6082C8.2691 35.5361 8.14243 35.32 7.99858 35.3919L7.13323 35.8247C6.98907 35.8968 7.11573 36.113 7.25958 36.041L8.12493 35.6082ZM25.2245 35.6634C25.0633 35.6588 25.0635 35.9093 25.2245 35.9139C25.376 35.9181 25.5312 35.9755 25.6661 36.041C25.8105 36.1112 25.9376 35.8952 25.7925 35.8247C25.6161 35.7391 25.4225 35.6689 25.2245 35.6634ZM17.139 34.454C17.2715 34.3639 17.1464 34.1467 17.0126 34.2377C16.8301 34.3617 16.6647 34.5083 16.4851 34.6361L16.4357 34.6705C16.3032 34.7606 16.4283 34.9777 16.5621 34.8868C16.7612 34.7514 16.9399 34.5893 17.139 34.454ZM26.4504 32.6334C26.2893 32.6334 26.2891 32.8839 26.4504 32.8839L26.481 32.8838C26.614 32.8831 26.7542 32.8794 26.8778 32.9326L26.892 32.939C27.037 33.0073 27.1642 32.7914 27.0184 32.7227C26.8371 32.6373 26.6475 32.6335 26.4504 32.6334ZM12.545 32.4545L12.566 32.4466C12.7165 32.3925 12.6516 32.1504 12.4994 32.2051C12.2701 32.2875 12.0916 32.4433 11.8927 32.5784C11.7601 32.6685 11.8852 32.8856 12.019 32.7947C12.1905 32.6782 12.35 32.5308 12.545 32.4545ZM21.9368 31.8028L21.9705 31.7847C22.1139 31.7109 21.9873 31.4947 21.8442 31.5684C21.7305 31.6269 21.6288 31.7048 21.5174 31.7668L21.4836 31.7849C21.3403 31.8586 21.4668 32.0748 21.61 32.0012C21.7236 31.9426 21.8253 31.8648 21.9368 31.8028ZM18.1276 29.3766L18.1018 29.3517C17.9866 29.2388 17.8094 29.4158 17.9247 29.5288C18.2129 29.8109 18.5535 30.0251 18.8972 30.2322L18.9597 30.2698C19.0982 30.3529 19.2242 30.1364 19.0861 30.0535L18.9943 29.9983C18.6888 29.814 18.3868 29.6237 18.1276 29.3766ZM11.1986 29.1427C11.2957 29.0166 11.0845 28.8932 10.9858 29.012L10.9824 29.0163C10.8813 29.1476 10.7614 29.2664 10.636 29.3748L10.6125 29.395C10.5379 29.4585 10.4021 29.5946 10.2972 29.6035C10.1379 29.6171 10.1364 29.8677 10.2972 29.854C10.4594 29.8402 10.599 29.726 10.7215 29.6282C10.8999 29.4858 11.0594 29.3235 11.1986 29.1427ZM24.5198 28.2302C24.6361 28.1209 24.4643 27.9469 24.3469 28.0494L24.3428 28.0531C24.1253 28.2575 23.8126 28.3123 23.5327 28.3816C23.3763 28.4204 23.4426 28.662 23.5992 28.6232L23.7268 28.5917C24.0128 28.5203 24.2998 28.4371 24.5198 28.2302ZM19.5609 26.6502C19.4047 26.6105 19.338 26.8521 19.4944 26.8918C19.76 26.9593 20.0115 27.0466 20.2577 27.1677C20.4018 27.2386 20.5288 27.0227 20.3841 26.9514C20.1192 26.8211 19.8469 26.723 19.5609 26.6502ZM22.1188 21.3699C22.115 21.3586 22.1269 21.3458 22.1385 21.3498C22.4195 21.4546 22.2701 21.8228 22.1828 22.0432L22.167 22.0834C22.0302 22.4366 21.839 22.7804 21.6305 23.0967C21.4124 23.4276 21.1701 23.7445 20.9078 24.042C20.7941 24.1711 20.676 24.2965 20.5541 24.4182L20.5081 24.4637C20.3848 24.5849 20.2258 24.7978 20.0346 24.7743C19.8286 24.7496 19.7138 24.5295 19.864 24.3623C19.9701 24.2439 20.1172 24.1496 20.2358 24.042C20.3535 23.9355 20.4675 23.8256 20.5785 23.7126C20.8058 23.4806 21.0211 23.2354 21.218 22.9771C21.4084 22.7273 21.5906 22.4706 21.7563 22.2037L21.7892 22.1501C21.9153 21.9425 22.2064 21.6373 22.1188 21.3699ZM12.1632 23.9937C12.0298 23.9024 11.9045 24.1194 12.0369 24.21C12.2803 24.3764 12.4945 24.578 12.758 24.7149C12.8991 24.7883 13.0245 24.5781 12.8894 24.5014L12.8844 24.4987C12.6211 24.3618 12.4066 24.16 12.1632 23.9937Z" fill="black"/>
<path fill-rule="evenodd" clip-rule="evenodd" d="M23.8094 10.698C21.9313 9.45176 18.1688 9.58712 16.1013 10.3507C14.0841 10.992 13.3778 12.7791 13.0429 14.7098C12.6357 16.8798 12.6905 20.0079 15.618 19.97C16.0296 20.1696 16.4856 20.2561 16.9115 20.4214C17.4943 20.6234 18.0658 20.8579 18.6573 21.0348C19.8222 21.411 21.1185 21.3782 22.2235 20.8279C22.8341 20.5322 23.0868 20.0718 23.486 19.5812C24.6476 18.1539 25.232 16.1112 25.1797 14.2963C25.0878 13.0183 24.877 11.5389 23.8094 10.698Z" fill="#D08B5B"/>
<path fill-rule="evenodd" clip-rule="evenodd" d="M26.1859 15.9587C25.9932 14.7595 25.9398 13.54 25.6874 12.3501C25.4501 11.2305 25.0062 10.1724 24.2307 9.3189C23.5367 8.55522 22.6394 7.99444 21.6762 7.63905C19.7997 6.94676 17.6415 7.10332 15.8263 7.91149C14.1272 8.66762 12.772 10.0666 11.9821 11.7455C11.469 12.8364 11.211 13.9962 11.0964 15.1932C10.9692 16.523 10.9555 17.8665 10.9037 19.201C10.8974 19.3657 10.8883 19.5304 10.8862 19.6951C10.8837 19.8755 10.9564 20.0336 11.0158 20.2014C11.0198 20.2133 11.0258 20.2246 11.033 20.2352C10.9883 20.2409 10.9436 20.2474 10.899 20.2546C10.849 20.2625 10.8512 20.3439 10.899 20.3536C11.3034 20.4362 11.7191 20.4478 12.1305 20.4682C12.5568 20.4895 12.9838 20.5011 13.4107 20.5155C13.8271 20.5295 14.2434 20.5436 14.6597 20.5577C14.8783 20.5652 15.097 20.5728 15.3156 20.58C15.4196 20.5834 15.5236 20.5872 15.6279 20.5906C15.6798 20.5925 15.7319 20.594 15.7838 20.5959C15.826 20.5972 15.8947 20.6241 15.899 20.5931C15.9068 20.5978 15.9153 20.6018 15.9243 20.6047C15.9343 20.61 15.944 20.6163 15.9534 20.6232C16.0043 20.6582 16.0814 20.6538 16.133 20.6232C16.1377 20.6203 16.1427 20.6172 16.1477 20.6141C16.1861 20.5912 16.2129 20.558 16.2279 20.5205C16.4416 20.7791 16.8198 20.4885 16.6012 20.2149C16.4837 20.0677 15.3156 16.4597 15.7991 13.7112L17.738 13.4538C18.0925 13.4178 18.7522 13.3461 18.7522 13.3461C18.7522 13.3461 18.9136 12.8179 18.9599 12.6479C18.9633 12.6354 18.9667 12.6225 18.9705 12.61C19.0167 12.6918 19.0632 12.7731 19.1101 12.8546L19.3493 13.3421C19.3493 13.3421 22.8805 13.2829 23.7463 13.2885C23.761 13.2885 23.8306 14.3437 23.7991 14.8084C23.7354 15.7414 23.6676 16.6739 23.5733 17.6045C23.5131 18.2003 23.368 18.7847 23.1518 19.3339C22.8103 20.2014 21.8189 21.026 20.8523 21.026C20.2505 21.026 18.8908 20.5374 18.6928 20.4388C18.4948 20.3401 18.3768 20.6094 18.5573 20.7171C18.9228 20.9353 19.9304 21.3981 20.8523 21.3981C22.191 21.3981 23.2016 20.1247 23.3256 19.9421C24.5446 19.8752 25.7914 19.9061 27.0089 20.0273C27.111 20.0373 27.1991 19.914 27.1663 19.8197C26.729 18.5651 26.3964 17.271 26.1859 15.9587Z" fill="black"/>
<path fill-rule="evenodd" clip-rule="evenodd" d="M22.7714 17.2808C22.8177 17.2203 22.9304 17.4837 22.9534 17.5159L22.9545 17.5174C23.0548 17.6388 23.1366 17.8247 23.1482 17.9805C23.1486 17.9852 23.1486 17.9897 23.1486 17.9942C23.3093 17.9721 23.4701 17.9496 23.6308 17.925C23.693 17.8782 23.78 17.8927 23.8641 17.9353C24.0518 18.0301 23.9605 18.3312 23.7582 18.3264C23.2114 18.3133 22.653 18.3836 22.1108 18.4468C21.8318 18.4793 21.5535 18.5138 21.276 18.5579C21.0169 18.5991 20.7519 18.6573 20.4895 18.6686C20.4752 18.6692 20.4693 18.6479 20.4821 18.6412C20.7134 18.5224 20.9776 18.4505 21.2273 18.3809C21.4975 18.3056 21.7697 18.2349 22.0438 18.1752C22.2898 18.1216 22.537 18.0815 22.7849 18.0454C22.783 18.0406 22.7811 18.0356 22.7796 18.0304C22.7481 17.9249 22.7489 17.8039 22.7422 17.6927L22.7383 17.6337C22.7322 17.532 22.7261 17.34 22.7714 17.2808ZM21.966 15.9799C22.2023 16.1236 22.5625 16.4587 22.3082 16.815C22.0089 17.1292 21.578 16.769 21.3657 16.6061C21.1688 16.4798 20.9476 16.8046 21.1302 16.952C22.6646 18.0884 23.2873 16.0175 22.0855 15.8109C21.9532 15.7882 21.9041 15.9354 21.966 15.9799ZM18.1659 14.7149C18.5592 14.6549 18.962 14.648 19.3594 14.6679C19.566 14.6782 19.7724 14.6935 19.9782 14.7139C20.0857 14.7246 20.1931 14.7366 20.3003 14.75C20.3771 14.7596 20.4958 14.8037 20.5689 14.7836C20.7921 14.7225 21.004 14.9338 20.9425 15.1574C20.8814 15.3793 20.6197 15.4378 20.4514 15.3045C20.3716 15.2764 20.2913 15.2497 20.2105 15.2248C20.2044 15.2502 20.1953 15.2754 20.1826 15.2997C20.1682 15.327 20.1544 15.3544 20.1413 15.3822C20.1442 15.3778 20.1225 15.4297 20.1219 15.4312L20.1046 15.4764C20.0745 15.5543 20.0407 15.6281 19.9589 15.6685C19.8464 15.724 19.6699 15.6934 19.6244 15.561C19.5533 15.4218 19.6004 15.2273 19.6411 15.0831L19.6442 15.072C19.1534 14.9552 18.6545 14.8677 18.1659 14.7489C18.1499 14.745 18.1483 14.7176 18.1659 14.7149ZM24.0029 14.1912C24.0285 14.1401 24.0864 14.1399 24.1208 14.1879C24.1974 14.2945 24.0259 14.4472 23.9543 14.5182L23.9471 14.5254C23.7862 14.6887 23.59 14.8203 23.3954 14.9393C23.3546 14.9643 23.3132 14.9881 23.2716 15.0115C23.2793 15.027 23.2863 15.0428 23.292 15.059C23.3215 15.1422 23.322 15.2416 23.2955 15.3257C23.2402 15.5011 23.0932 15.6412 22.9024 15.641C22.8018 15.6409 22.6827 15.5458 22.6964 15.4348C22.7012 15.3954 22.7052 15.3533 22.7112 15.3114C22.5771 15.356 22.4123 15.3037 22.327 15.1931C22.2084 15.0393 22.241 14.7873 22.4227 14.6918C22.5563 14.6216 22.7037 14.6039 22.8484 14.5667C22.992 14.53 23.1346 14.4877 23.2752 14.4406C23.4138 14.394 23.5517 14.3442 23.6895 14.2949C23.7576 14.2705 23.8251 14.2481 23.8944 14.2274C23.9254 14.2182 23.97 14.194 24.0029 14.1912Z" fill="black"/>
</svg>
