<svg width="39" height="48" viewBox="0 0 39 48" fill="none" xmlns="http://www.w3.org/2000/svg">
<path fill-rule="evenodd" clip-rule="evenodd" d="M36.4238 28.8804C36.7444 28.713 37.0574 28.5311 37.3655 28.3418C37.5825 28.2119 37.3904 27.8849 37.1679 28.0031C37.0541 28.0635 36.9408 28.1246 36.827 28.1846C36.9165 28.1075 36.9995 28.0235 37.0739 27.932L37.0688 27.9269C37.3556 27.6698 36.9872 27.1847 36.661 27.3959C36.3733 27.6045 36.083 27.8174 35.7528 27.9547C35.0689 28.2449 34.3145 28.2929 33.5804 28.3012C33.3118 28.2811 33.0552 28.3276 32.7945 28.3795C32.8967 27.9694 33.1524 27.6597 33.2881 27.2625C33.3882 26.8614 32.8095 26.5883 32.6045 26.9737C32.5541 27.0684 32.5061 27.1642 32.4592 27.2604C32.016 27.6637 31.2758 27.6282 30.8288 28.0612C30.5741 28.2873 30.4495 28.5941 30.4003 28.902C30.3669 29.1111 30.4188 29.3207 30.2925 29.5059C29.6815 30.3703 28.7162 31.7366 28.226 32.688C27.8789 30.4274 26.9521 27.6313 25.9946 25.5642C25.678 24.9032 25.3158 24.2572 24.8403 23.6969C24.8942 23.51 24.704 23.1783 24.583 23.2804C24.2106 22.8253 23.5524 22.7075 23.0231 22.4813C22.3087 22.1757 21.7159 21.5404 21.4245 20.8184C21.0501 19.4435 20.1285 19.2688 18.8503 19.3296C17.627 19.328 16.7219 19.8515 16.455 21.0972C15.9127 22.0427 14.6324 21.8864 13.7113 22.1367C13.0363 22.2909 12.3811 22.5295 11.7585 22.8323C11.0659 22.175 8.58534 24.9334 8.35986 25.6432C8.4926 25.669 8.62452 25.7 8.75526 25.7377C8.87169 25.7714 8.8228 25.9473 8.70537 25.9192C8.55923 25.8841 8.41216 25.8599 8.2644 25.8431C8.25989 25.8572 8.25595 25.8713 8.25301 25.8852C8.23642 25.8841 8.21986 25.8826 8.20327 25.8815C8.24005 25.9007 8.27545 25.9229 8.30994 25.9516C8.39332 26.0208 8.28477 26.1545 8.19617 26.0993C8.11269 26.0368 8.00337 26.0467 7.90324 26.0257C7.89729 26.2317 7.16261 26.0013 7.0485 25.933C6.5413 25.8695 6.01952 25.9376 5.54603 25.6929C4.91601 25.5602 4.28127 25.4134 3.65833 25.2444C3.49341 25.3087 3.33842 25.5389 3.46941 25.7077C3.54308 25.7846 3.44837 25.9101 3.3556 25.8555C3.04446 25.6722 2.80384 25.3863 2.59983 25.0782C2.5038 24.9812 2.33335 25.0021 2.20434 24.9619C2.18709 24.9929 2.17692 25.0274 2.17708 25.0629C1.62981 25.153 2.02021 25.7509 2.29532 25.9372C2.14938 26.0323 2.14384 26.2185 2.15661 26.3739C2.12568 26.4293 2.11535 26.4979 2.14227 26.56C2.24518 26.7972 2.46775 26.997 2.63698 27.1892C2.82384 27.4015 2.99044 27.6149 3.2178 27.787C4.0844 28.4479 5.13019 28.8173 6.20305 28.9618C6.58399 29.0204 7.13194 29.1099 7.36781 29.4322C7.30994 29.8146 7.20368 30.1814 7.10728 30.5543C6.97247 31.0493 6.98164 31.5676 6.97986 32.0722C6.96102 32.0571 6.92484 32.0602 6.91945 32.0891C6.88809 32.2983 6.86477 32.5122 6.73767 32.688C6.62625 33.0148 6.5521 33.3635 6.51044 33.7069C6.34355 35.3349 6.30371 37.011 6.67999 38.6136C6.82518 39.2082 7.06133 39.7733 7.38308 40.2936C7.47902 40.4488 7.63326 40.4942 7.77175 40.4637C8.23529 40.7046 8.81923 40.7819 9.31886 40.7207C11.0222 40.2383 10.4287 41.3999 12.8169 41.0442C16.9392 40.5188 21.1052 41.5512 25.2187 40.9451C25.32 41.7279 26.6463 41.5034 27.107 41.1724C28.4883 40.1451 29.1742 36.8926 29.8674 35.2427C30.344 33.9422 31.1419 31.6388 32.1869 30.7662C32.5002 30.521 32.879 30.392 33.2579 30.2878C34.6723 29.9232 36.092 29.5784 37.5091 29.2239C37.7494 29.1647 37.7062 28.7547 37.4492 28.781C37.1082 28.8159 36.766 28.8475 36.4238 28.8804Z" fill="#D08B5B"/>
<path fill-rule="evenodd" clip-rule="evenodd" d="M4.9389 28.6358C4.84312 28.624 4.74923 28.5898 4.65596 28.5629C4.51355 28.5213 4.37395 28.4727 4.23655 28.4173C3.95298 28.3037 3.67787 28.1693 3.41996 28.0049C3.00337 27.7391 2.6353 27.3984 2.35768 26.9883L2.33862 26.9597C2.18013 26.7181 1.88777 26.1819 2.21558 25.9985C2.0043 25.8219 1.80462 25.5047 1.81588 25.2599C1.83185 24.9136 2.25626 24.9183 2.47567 25.0651C2.61933 25.1612 2.727 25.2959 2.83498 25.4284C2.95454 25.5755 3.08224 25.7158 3.21495 25.8507C3.25016 25.8864 3.28572 25.9214 3.3219 25.9558L3.35829 25.99C3.35266 25.9766 3.34765 25.9628 3.34327 25.9487C3.27003 25.7205 3.35736 25.4233 3.58553 25.3188C3.72516 25.2547 3.87017 25.2938 4.00548 25.3482L4.02621 25.3566C4.20837 25.4321 4.39272 25.4988 4.5824 25.5523C5.35548 25.7706 6.16236 25.8069 6.95454 25.9159C7.2597 25.9581 7.5705 26.0113 7.8741 26.0896C7.9899 25.5977 8.27378 25.1262 8.58176 24.7383C10.0566 22.8824 12.4888 22.2691 14.7138 21.872C14.9167 21.836 15.0847 22.1047 15.2027 22.0411C15.4265 21.9209 15.6234 21.7505 15.7962 21.5655C16.1646 21.1706 16.4259 20.7063 16.7329 20.2664C16.8847 20.0491 17.234 20.2435 17.0932 20.4768L17.0242 20.5908C16.7401 21.0578 16.4255 21.539 16.0181 21.9011C15.8015 22.0934 15.5611 22.2452 15.2863 22.3401C15.0782 22.4118 14.7862 22.4723 14.5583 22.4027L14.531 22.3629C14.54 22.3762 14.5491 22.3895 14.5583 22.4027C15.153 23.2647 15.8991 23.9943 16.6854 24.6828C17.479 25.3774 18.3351 25.9994 19.1964 26.6076L19.2681 26.6582C20.6713 25.6344 21.8566 24.2989 22.6882 22.7732C22.5139 22.7522 22.3414 22.6404 22.1924 22.5571C22.0131 22.4563 21.8444 22.336 21.7129 22.1757C21.4265 21.8266 21.4638 21.3767 21.4121 20.953C21.409 20.9267 21.4437 20.9202 21.4597 20.9333C21.615 21.0623 21.6694 21.2737 21.7342 21.4562C21.8056 21.6569 21.8863 21.8223 22.05 21.9634C22.2024 22.095 22.3883 22.1917 22.5689 22.2778C22.6621 22.322 23.1244 22.4355 23.1771 22.5296C23.9758 22.342 24.7539 22.6661 25.3458 23.2128C25.9176 23.741 26.3373 24.4276 26.7079 25.1055C27.1032 25.8288 27.4272 26.5828 27.7063 27.3577C27.9893 28.1443 28.2062 28.948 28.3254 29.7759C28.4261 30.4739 28.4878 31.1828 28.5278 31.8886L28.5326 31.9768C29.1236 31.049 29.7292 30.131 30.3473 29.2211C30.2068 28.8456 30.3624 28.4624 30.6256 28.1724C30.9173 27.8515 31.3207 27.7025 31.7066 27.529L31.7574 27.506C31.9434 27.4212 32.1288 27.3277 32.2894 27.2005C32.4441 27.0778 32.5577 26.9087 32.7204 26.7957C32.957 26.631 33.3865 26.6661 33.3974 27.0258C33.403 27.2234 33.3182 27.4401 33.2406 27.6176C33.1527 27.8183 33.034 28.0002 32.8932 28.1674C32.8867 28.1752 32.8796 28.1814 32.8723 28.1862L32.8669 28.1897C33.0616 28.2219 33.2578 28.2479 33.4578 28.257C33.8613 28.2755 34.2691 28.2457 34.6641 28.1605C35.0685 28.0735 35.4603 27.932 35.824 27.7347C36.1348 27.5663 36.4228 27.3483 36.7758 27.297C36.8084 27.292 36.8412 27.2888 36.875 27.287C36.9314 27.2838 36.9877 27.3502 36.9655 27.4059C36.9533 27.4366 36.9405 27.467 36.9264 27.4977C36.8043 27.7666 36.6171 28.0276 36.3835 28.2256L36.3655 28.2407C36.4478 28.2122 36.5289 28.1803 36.6087 28.1443C37.0779 27.9329 37.5035 27.6135 38.0065 27.4852C38.0303 27.4789 38.0544 27.4733 38.0785 27.4679C38.234 27.4344 38.3161 27.6035 38.2247 27.7194C38.2099 27.7382 38.1952 27.7566 38.1799 27.7751C37.9555 28.0538 37.7079 28.3124 37.435 28.5447C37.3414 28.6243 37.245 28.7013 37.1467 28.7749C37.1053 28.8061 37.0637 28.8366 37.0216 28.8666L37.0009 28.8813C37.05 28.8466 37.0985 28.8112 37.1467 28.7749C37.4547 28.6816 37.7583 28.571 38.0553 28.4486C38.1733 28.4001 38.265 28.5197 38.2775 28.618C38.3195 28.9474 37.9539 29.1857 37.716 29.3441C37.4775 29.5032 37.2149 29.6241 36.9461 29.7211C36.4292 29.908 35.8862 29.9928 35.3441 30.0689L35.0808 30.1056C34.0387 30.2514 32.9502 30.4257 32.2024 31.2369C31.7833 31.6915 31.4998 32.2563 31.2403 32.8121C30.9811 33.3673 30.7536 33.9372 30.5376 34.5102C30.3138 35.1032 30.1189 35.7071 29.9117 36.3061C29.7214 36.8561 29.4941 37.3991 29.2689 37.9365L29.2334 38.0214C28.7555 39.1636 28.1846 40.2394 27.389 41.1932C27.2578 41.3507 27.0459 41.1271 27.1671 40.9712C27.9993 39.8978 28.5783 38.6313 29.0563 37.3679C29.2738 36.7931 29.4559 36.2044 29.665 35.6264L29.7894 35.283C29.9556 34.8253 30.1231 34.3681 30.2979 33.914C30.5192 33.3394 30.7624 32.7717 31.0406 32.2225L31.0701 32.1647C31.3425 31.6349 31.6662 31.1127 32.1117 30.7118C32.9134 29.9898 33.9804 29.8166 35.0119 29.6794L35.3365 29.6366C35.7726 29.5786 36.2099 29.5146 36.634 29.398C36.8788 29.331 37.1179 29.2452 37.3426 29.1268C37.4322 29.0798 37.5195 29.0282 37.604 28.9718C37.363 29.0426 37.1185 29.1005 36.8697 29.1459C36.748 29.1681 36.6275 29.1848 36.5073 29.1963C36.1977 29.227 35.8907 29.2257 35.5736 29.2092C35.5467 29.2076 35.538 29.1653 35.5668 29.16C35.7876 29.1207 36.0086 29.0716 36.2288 29.0183L36.2948 29.0022C36.296 28.9656 36.3104 28.9267 36.3405 28.8898C36.45 28.7564 36.6581 28.6881 36.8024 28.5939C36.9536 28.4953 37.1001 28.3888 37.2397 28.2748C37.3674 28.1706 37.4901 28.0603 37.6081 27.9451L37.6434 27.9104C37.6317 27.922 37.6199 27.9336 37.6081 27.9451C37.2894 28.0923 36.9874 28.2811 36.6547 28.3976C36.3902 28.4906 36.1129 28.5532 35.8331 28.5754L35.8157 28.5768L35.7984 28.5779C35.5063 28.5989 35.2124 28.5905 34.9248 28.6537C34.8926 28.6609 34.8826 28.6177 34.9114 28.6055C35.1627 28.5009 35.424 28.4605 35.6882 28.4117C35.6938 28.391 35.7082 28.3725 35.7333 28.3606L35.8008 28.3283C36.0021 28.2316 36.1897 28.134 36.357 27.9771C36.5048 27.8383 36.6278 27.6762 36.7201 27.4964C36.3505 27.5775 36.0259 27.8578 35.6898 28.0153C35.3236 28.1872 34.9361 28.3105 34.5379 28.3807L34.4926 28.3885C33.7486 28.5126 32.8539 28.4968 32.1874 28.1098C32.1661 28.0973 32.1815 28.0688 32.2034 28.0722C32.3924 28.1032 32.5796 28.1399 32.7667 28.1724C32.7301 28.1389 32.7138 28.0788 32.7561 28.0306C32.9242 27.8379 33.0571 27.6176 33.1421 27.3766L33.1584 27.3294C33.1975 27.2176 33.2636 27.044 33.1962 26.9432C33.1317 26.847 32.9799 26.8602 32.8891 26.9009C32.7004 26.9861 32.5749 27.1987 32.4159 27.327C32.2425 27.4673 32.0453 27.5713 31.8434 27.6643L31.8008 27.6836C31.4516 27.8408 31.0785 27.973 30.804 28.2504C30.6563 28.3994 30.5292 28.5857 30.4866 28.7946C30.4672 28.8904 30.4672 28.989 30.4929 29.0839C30.5132 29.1581 30.5558 29.2039 30.5314 29.2793C30.4995 29.3767 30.3865 29.4931 30.3282 29.5799C30.2606 29.6801 30.1933 29.7806 30.1261 29.8811C29.9918 30.0821 29.8581 30.2838 29.7245 30.4851C29.4572 30.8884 29.1927 31.2935 28.9304 31.7C28.8451 31.8323 28.76 31.9648 28.6752 32.0974L28.5483 32.2964L28.4812 32.4014L28.3667 32.5813C28.3708 32.598 28.3705 32.6155 28.3652 32.6308C28.3457 32.6864 28.3091 32.7244 28.2637 32.752L28.2556 32.7567C27.5877 33.8128 26.9304 34.8758 26.2666 35.9345C26.2312 36.2576 26.198 36.581 26.1692 36.9045C26.1038 37.6365 26.0591 38.3705 26.0447 39.1054C26.0378 39.4611 26.0663 39.8189 26.0816 40.1743C26.0891 40.3439 26.0994 40.5133 26.1128 40.6827L26.1227 40.8027C26.1359 40.9677 26.1434 41.1315 26.0841 41.2887C26.0315 41.4268 25.8713 41.4578 25.7764 41.3526C24.5392 41.3028 23.301 41.2649 22.0628 41.2414C19.8466 41.1988 17.6293 41.2054 15.4128 41.2483C14.2995 41.2699 13.1858 41.3003 12.0728 41.3378C11.5245 41.356 10.9758 41.3817 10.4272 41.3892C10.1315 41.3932 9.6663 41.2856 9.64245 40.9529L9.64186 40.9427C9.60493 40.9527 9.56675 40.9609 9.52762 40.9668C9.5102 40.9695 9.49348 40.9687 9.47802 40.9651L9.47035 40.9631C9.0297 41.0974 8.4723 40.9057 8.05359 40.794L8.01902 40.7849C7.61933 40.6806 7.29821 40.5316 7.03624 40.2003C6.57771 39.6201 6.42121 38.8411 6.33984 38.1231C6.26347 37.4474 6.25908 36.7592 6.35204 36.0848C6.29727 35.5353 6.35079 34.9682 6.41307 34.4218C6.44374 34.1516 6.47974 33.8817 6.52293 33.6131C6.54703 33.4631 6.57864 33.3147 6.61088 33.1666C6.62375 33.1074 6.63447 33.0437 6.65078 32.9821L6.65814 32.9558C6.60806 32.9624 6.55329 32.9515 6.50039 32.9224C6.37457 32.8532 6.33795 32.7132 6.33576 32.5792C6.32887 32.1753 6.37707 31.7598 6.41964 31.3584C6.46252 30.9576 6.52136 30.5552 6.59836 30.1594L6.61828 30.0574C6.67662 29.7613 6.74338 29.4557 6.86096 29.1775C6.41934 29.1024 5.97896 29.0226 5.55048 28.8866C5.3414 28.8199 5.13546 28.737 4.9389 28.6358ZM27.9893 32.8394C27.9824 32.8409 27.9758 32.8428 27.9692 32.8447C27.7927 32.8942 27.6143 32.9361 27.4365 32.9812C27.1292 33.0586 26.8287 33.145 26.543 33.2793C26.4831 34.0352 26.3944 34.7886 26.31 35.5423L26.2932 35.6931C26.4228 35.4526 26.5555 35.214 26.6941 34.9783C27.1164 34.2596 27.5483 33.5467 27.9893 32.8394ZM6.76581 32.9142C6.76675 33.0041 6.74797 33.0974 6.73795 33.1838C6.72168 33.3241 6.70853 33.465 6.69194 33.6052C6.65814 33.887 6.62935 34.1691 6.60838 34.4522C6.59492 34.6329 6.58615 34.8142 6.57833 34.9955C6.7558 34.332 6.99085 33.6829 7.21433 33.0329C7.17697 33.0289 7.13879 33.0198 7.0994 33.0093L7.03308 32.9915C6.99398 32.9814 6.86714 32.9502 6.76581 32.9142ZM28.5483 32.2964L28.5495 32.3262C28.5542 32.4317 28.491 32.4912 28.4143 32.5065C28.4588 32.4364 28.5035 32.3663 28.5483 32.2964ZM8.24155 27.2954C8.4284 27.312 8.6115 27.3518 8.78615 27.4207L8.803 27.4273C8.93218 27.4771 9.12105 27.5398 9.1633 27.6777C9.1752 27.7169 9.14327 27.7491 9.10665 27.7523C8.96643 27.7635 8.80117 27.6132 8.67128 27.5625C8.52668 27.5061 8.3752 27.4642 8.22183 27.4419C7.87723 27.3915 7.51792 27.4298 7.19366 27.5553C7.17457 27.5628 7.16268 27.5324 7.17989 27.5234C7.50665 27.3455 7.87003 27.2626 8.24155 27.2954ZM4.28193 28.1909C4.26033 28.1718 4.23873 28.1518 4.21745 28.1318C4.04964 27.9729 3.90104 27.7876 3.79101 27.5839L3.76206 27.5288C3.67244 27.3553 3.5624 27.108 3.773 26.9829C3.89882 26.9081 4.05031 26.9269 4.19053 26.9723C4.19961 26.9751 4.20868 26.9783 4.21776 26.9814C4.28036 27.0033 4.34076 27.0296 4.3946 27.0546C4.6284 27.162 4.83466 27.3183 5.05062 27.4561C5.28463 27.6054 5.51568 27.7009 5.78575 27.7568L5.81119 27.7619C6.06471 27.8121 6.33951 27.8443 6.51635 28.0528C6.5608 28.1055 6.52011 28.2041 6.44342 28.1781C5.95454 28.0131 5.43716 27.9767 4.98834 27.7059C4.80242 27.5938 4.62652 27.4651 4.43654 27.359C4.33576 27.3026 4.2317 27.2533 4.12081 27.2194L4.06023 27.2016C4.02475 27.1912 3.98239 27.181 3.95391 27.1912C3.89969 27.21 3.917 27.239 3.93377 27.2896L3.93544 27.2948C4.06721 27.7025 4.4428 28.0437 4.79084 28.2695C4.87065 28.3215 4.95234 28.3691 5.0356 28.4133C5.59915 28.7137 6.22972 28.8536 6.84904 29.0196C6.84904 29.0196 7.20713 29.1196 7.32575 29.1572C7.45783 29.1462 7.60838 29.1929 7.70791 29.2486C7.80462 29.3028 7.88256 29.3754 7.9414 29.4609C7.9414 29.4609 7.99805 29.5082 8.00838 29.5815C8.03811 29.6494 8.05814 29.7226 8.06816 29.7991C8.07379 29.8438 8.06253 29.8783 8.04124 29.9027C8.10526 30.8856 7.83986 31.863 7.54065 32.7972L7.511 32.8893L7.49195 32.9477C7.16926 33.9381 6.79899 34.9213 6.63373 35.9539C6.52325 36.6437 6.52669 37.3576 6.60775 38.0505L6.61347 38.0983C6.69334 38.7534 6.84702 39.4883 7.26346 40.0156C7.47588 40.2847 7.72754 40.4042 8.04929 40.4909L8.06691 40.4956C8.35799 40.5723 8.65846 40.681 8.95861 40.7138C9.23717 40.7442 9.47066 40.6406 9.72137 40.5435L9.72167 40.5432C10.2497 40.0757 10.4894 39.395 10.6666 38.708C11.1257 36.9302 11.0688 35.0847 10.8084 33.2809C10.6725 32.3384 10.4879 31.4041 10.3038 30.4701C10.2118 30.0032 10.1126 29.5373 10.0303 29.0689L9.9814 28.7932C9.95442 28.6401 9.92833 28.4868 9.90603 28.3328C9.87598 28.1258 9.8669 27.9223 9.85658 27.7141C9.60368 27.2948 9.23654 26.9494 8.81119 26.7018C8.50665 26.5242 8.18428 26.4012 7.85157 26.3119C6.90039 26.0555 5.86346 26.0737 4.90634 25.8764C4.5848 25.8102 4.27959 25.7119 3.97454 25.5942L3.93294 25.578C3.79304 25.5235 3.65031 25.4932 3.58083 25.6582C3.53138 25.7756 3.5608 25.8977 3.63498 25.9963C3.81682 26.238 4.18239 26.3501 4.45751 26.4372C4.62308 26.4898 4.7921 26.5314 4.96299 26.5624C5.13388 26.5934 5.3054 26.6013 5.46941 26.6617C5.53263 26.6849 5.54515 26.7854 5.46941 26.8032C5.26158 26.8517 5.0525 26.8101 4.84593 26.7697C4.61901 26.7249 4.39554 26.6614 4.17833 26.5809C4.13826 26.5661 4.0968 26.5505 4.05457 26.534L4.02277 26.5214C4.05563 26.5452 4.0885 26.5687 4.12167 26.5922C4.13044 26.5984 4.12512 26.615 4.11354 26.6109C3.6028 26.4203 3.13809 26.0764 2.77809 25.6695L2.76017 25.6491C2.63341 25.5038 2.34452 25.0642 2.10102 25.1866C1.87236 25.3014 2.26214 25.7441 2.41027 25.925L2.42747 25.9462C2.59586 25.9506 2.75893 26.0555 2.89539 26.14C3.13232 26.2869 3.3799 26.4134 3.63217 26.5317C4.13357 26.7675 4.66597 26.9338 5.16206 27.1814C5.16863 27.1849 5.16362 27.1933 5.15736 27.1924C4.84156 27.142 4.52919 27.0615 4.22403 26.9617L4.21041 26.9574L4.1968 26.9529C4.00619 26.8902 3.81808 26.8195 3.63311 26.744C3.42747 26.6601 3.22653 26.5659 3.03154 26.4591C2.85501 26.3627 2.65908 26.1889 2.45439 26.1632C2.43248 26.1604 2.41307 26.1601 2.39617 26.1617C2.16112 26.1814 2.35549 26.5709 2.42121 26.6874C2.52857 26.8787 2.65815 27.0553 2.80682 27.2165C3.10823 27.544 3.47348 27.8036 3.86879 28.0056C4.00369 28.0744 4.14172 28.1352 4.28193 28.1909Z" fill="black"/>
<path fill-rule="evenodd" clip-rule="evenodd" d="M23.775 10.3891C23.5539 9.59074 23.5855 9.5044 23.256 8.74188C22.1635 6.52661 14.8626 7.26834 14.1174 9.47966C13.7132 10.6793 13.8082 12.3688 13.7029 13.4091C13.6707 13.9606 13.6391 14.5122 13.6063 15.0637C13.595 15.2541 13.5836 15.4446 13.5719 15.635C13.5492 16.0058 13.5271 16.3765 13.5065 16.7473C13.3692 17.8897 13.9419 18.0059 14.9242 17.9721C15.1839 18.6003 15.6046 19.1246 16.1241 19.5512C15.9987 19.8932 16.4535 20.0702 16.6988 20.207C18.0334 20.954 19.6729 21.4098 21.1512 20.9897C21.5856 20.8662 23.3794 20.4387 23.931 19.1153C24.2018 18.4655 24.7524 15.1 24.0263 12.0726L23.775 10.3891Z" fill="#D08B5B"/>
<path fill-rule="evenodd" clip-rule="evenodd" d="M19.108 5.18186C19.3144 5.14526 19.5453 5.15935 19.6636 5.36256C19.6892 5.40636 19.7055 5.45054 19.7133 5.49406C20.2774 5.36694 20.863 5.35316 21.4392 5.43645C21.611 5.46115 21.6713 5.69067 21.5957 5.82189C21.5879 5.83535 21.5801 5.84847 21.5716 5.86134C21.7522 5.87603 21.9324 5.90734 22.111 5.95559C22.2382 5.99003 22.3568 6.15504 22.3003 6.29031C22.2953 6.3022 22.29 6.3141 22.2847 6.32597C22.5655 6.37328 22.8338 6.48381 23.0683 6.66228C23.0964 6.68326 23.1224 6.7105 23.1439 6.7415C23.6683 6.68229 24.2083 6.79097 24.6765 7.04459C24.8077 7.11564 24.8711 7.32044 24.7821 7.44819C24.7543 7.48796 24.7252 7.52584 24.694 7.56248C24.8976 7.63794 25.0778 7.76002 25.1993 7.95888C25.3315 8.17461 25.3721 8.45234 25.3012 8.68968C25.4492 8.84091 25.5267 9.07258 25.4739 9.30491C25.4258 9.51692 25.2962 9.65153 25.13 9.73234C25.1637 9.83567 25.1366 9.95308 25.06 10.0329C24.9426 10.1553 24.8021 10.2493 24.649 10.311C24.6487 10.3507 24.6387 10.3918 24.6187 10.43C24.4807 10.6954 24.183 10.8718 23.8804 10.8984C23.9822 11.327 24.0659 11.761 24.1471 12.1925C24.2914 12.9599 24.4032 13.7348 24.4713 14.5129L24.4796 14.6091C24.5905 15.9257 24.6163 17.305 24.3492 18.6037C24.179 19.4307 23.663 20.1276 22.9746 20.5998C22.2747 21.0801 21.4195 21.319 20.5781 21.3569C20.149 21.376 19.7158 21.3397 19.2954 21.2514C19.0958 21.2094 18.9031 21.15 18.7135 21.0742C18.5096 20.9925 18.3416 20.8719 18.1691 20.7363C18.0795 20.6659 18.1308 20.4996 18.2369 20.4786C18.3128 20.4633 18.3878 20.4467 18.4634 20.4329C18.5327 20.4201 18.6083 20.4896 18.5939 20.5538L18.7401 20.5915C18.7889 20.6041 18.8376 20.6169 18.8862 20.6299L18.959 20.6499C19.1661 20.7078 19.3779 20.7567 19.5902 20.7914C20.0225 20.8619 20.4723 20.8635 20.9067 20.8087C21.6372 20.7169 22.3834 20.4558 22.9515 19.9745C23.2301 19.7384 23.4622 19.4588 23.6305 19.1341C23.8445 18.7217 23.9091 18.2624 23.9628 17.8062C24.1181 16.4871 24.0703 15.1661 23.9497 13.8466C23.8898 13.1903 23.8079 12.5353 23.7211 11.8819C23.6764 11.5468 23.6283 11.2112 23.5887 10.8749C23.5003 10.8511 23.4159 10.8116 23.3404 10.7543C23.2891 10.7155 23.2592 10.6704 23.246 10.6244C23.1697 10.61 23.0966 10.568 23.0439 10.497L23.0371 10.4876C22.8987 10.2868 22.6595 10.1719 22.438 10.0883C22.3037 10.0376 22.1669 9.99344 22.0308 9.94839C21.889 9.90111 21.7391 9.83128 21.5901 9.81312C21.4211 9.79308 21.2509 9.84412 21.0804 9.82596C20.9254 9.80905 20.789 9.75329 20.6775 9.64185C20.6384 9.60303 20.6047 9.55825 20.5778 9.51003C20.0578 9.62147 19.5115 9.48091 18.9712 9.51473C18.6158 9.53727 18.3022 9.7577 17.943 9.75175C17.8449 9.75019 17.75 9.71575 17.681 9.65532C17.3421 9.72013 16.9976 9.84472 16.679 9.9518C16.3642 10.0577 16.0612 10.2001 15.7502 10.3157C15.7498 10.316 15.7498 10.316 15.7498 10.3163C15.7092 10.4481 15.5881 10.5051 15.4591 10.4819C15.0371 10.4065 14.6817 10.1397 14.271 10.042C14.1579 10.455 14.0364 10.8626 13.9534 11.2838C13.8693 11.7087 13.8103 12.1392 13.7712 12.5707C13.7319 13.0037 13.7131 13.4411 13.7122 13.8757C13.7119 14.0974 13.7175 14.3197 13.725 14.5414C13.7311 14.7271 13.7664 14.9619 13.6995 15.1405L13.6935 15.1557H13.6932C13.685 15.1817 13.6485 15.1974 13.6279 15.1733C13.502 15.0267 13.472 14.7935 13.437 14.6093C13.3946 14.3858 13.3674 14.1601 13.3456 13.9336C13.3018 13.4793 13.2921 13.0269 13.3152 12.5707C13.3605 11.6727 13.5042 10.7242 13.8109 9.87543C13.7166 9.88417 13.6744 9.74487 13.6682 9.66627C13.6562 9.50833 13.6809 9.34073 13.7076 9.18232L13.7356 9.01833C13.7621 8.86355 13.7902 8.7128 13.8428 8.56224C13.969 8.20088 14.1504 7.8615 14.3765 7.55308C14.8378 6.92404 15.4772 6.44777 16.2052 6.1732C16.2508 6.15598 16.2939 6.15629 16.332 6.16941C16.9945 5.81156 17.7066 5.53602 18.4299 5.34001C18.6536 5.27958 18.88 5.22259 19.108 5.18186ZM13.6067 15.2775C13.9074 15.0884 14.528 15.039 14.6957 15.4419C14.7026 15.4582 14.6832 15.4726 14.6689 15.4688L14.6278 15.4584C14.4702 15.4193 14.3339 15.3968 14.1723 15.4617C14.0302 15.5187 13.8921 15.6079 13.7981 15.7306C13.5759 16.0209 13.5518 16.4152 13.5725 16.7673L13.5735 16.7843C13.5929 17.0933 13.6719 17.4696 13.9733 17.6224C14.1261 17.6998 14.2913 17.6941 14.4571 17.6929C14.6461 17.6916 14.8391 17.7123 15.0196 17.7706C15.1205 17.8031 15.168 17.9371 15.0843 18.0157C15.0565 18.0417 15.0274 18.0661 14.9968 18.088C15.0883 18.1857 15.1783 18.2847 15.2654 18.389C15.4132 18.5658 15.5703 18.7368 15.7342 18.8987C15.8929 19.0549 16.0609 19.2061 16.2421 19.3358C16.4326 19.4717 16.6606 19.5672 16.8255 19.7337C16.933 19.8421 16.9145 19.9933 16.8255 20.1029C16.6045 20.3753 16.2284 20.0889 16.0171 19.9279L15.9916 19.9085C15.772 19.7419 15.5634 19.5621 15.3857 19.3505C15.2045 19.1344 15.0477 18.9046 14.9319 18.6469C14.8638 18.4954 14.8204 18.3523 14.7969 18.2027C14.4171 18.368 13.9383 18.3153 13.5979 18.0827C13.146 17.774 13.0192 17.2073 13.0176 16.69L13.0176 16.6593C13.021 16.1565 13.1527 15.5629 13.6067 15.2775ZM14.4635 16.0063L14.4774 16.0065C14.6447 16.0101 14.7938 16.0705 14.9359 16.1537L14.9506 16.1624C15.0886 16.2447 15.2867 16.3108 15.3597 16.4649C15.4035 16.5579 15.4003 16.6643 15.3241 16.7413C15.1861 16.881 14.9778 16.8578 14.8285 16.7488C14.717 16.6671 14.6436 16.5447 14.5343 16.462C14.3287 16.3061 14.0045 16.3149 13.7906 16.4498C13.7775 16.4583 13.7647 16.4423 13.7706 16.4298C13.902 16.1603 14.1624 16.0053 14.4635 16.0063Z" fill="black"/>
<path fill-rule="evenodd" clip-rule="evenodd" d="M22.324 18.5351L22.3456 18.5301C22.5186 18.4893 22.6849 18.4338 22.846 18.541C22.9995 18.6431 23.0208 18.832 22.9012 18.9698C22.7783 19.1114 22.6151 19.1035 22.4428 19.1054L22.432 19.1056C22.2889 19.1075 22.1435 19.1054 22.001 19.0927C21.8681 19.0809 21.7344 19.062 21.6031 19.0372L21.5254 19.0219C21.4461 19.0059 21.3679 18.985 21.3271 18.9082C21.2558 18.7742 21.7857 18.6692 21.8501 18.6508C22.0063 18.6062 22.1655 18.571 22.324 18.5351ZM22.6179 16.9204C22.5334 17.008 22.4218 17.0679 22.2966 17.1052C21.9818 17.1988 21.5801 17.1489 21.3229 17.0535C21.2696 17.0337 21.2198 16.9934 21.1911 16.9429C21.1649 16.8968 21.1561 16.8426 21.176 16.7873C21.1817 16.7716 21.1886 16.7562 21.1955 16.741C21.2144 16.6997 21.2528 16.6676 21.298 16.6492C21.3448 16.6301 21.3982 16.6262 21.4409 16.6397C21.4467 16.6415 21.4526 16.6434 21.4586 16.6453C21.6215 16.6966 21.8887 16.7817 22.1101 16.7652C22.2429 16.7553 22.3598 16.7084 22.4202 16.5868C22.452 16.5227 22.4432 16.4592 22.415 16.4012C22.3724 16.3136 22.2871 16.2375 22.2152 16.185C22.1139 16.111 22.0059 16.0814 21.8941 16.0502C21.852 16.0385 21.8093 16.0266 21.7663 16.0123C21.7521 16.0076 21.7397 15.9984 21.7303 15.9864C21.7211 15.9746 21.7151 15.9602 21.7132 15.9457C21.7113 15.9307 21.7137 15.9158 21.7206 15.9029C21.7271 15.8909 21.7374 15.8804 21.7528 15.8735C21.9714 15.7755 22.2542 15.8403 22.4677 15.9945C22.5744 16.0715 22.6633 16.1705 22.7182 16.2811C22.7691 16.3838 22.7907 16.4964 22.7708 16.6112C22.7484 16.7398 22.694 16.8414 22.6179 16.9204ZM19.0342 14.7336C19.0957 14.7065 19.1462 14.8333 19.1588 14.8679L19.185 14.9396C19.2276 15.0552 19.2766 15.1728 19.3663 15.2586C19.4414 15.3305 19.5617 15.3914 19.6488 15.3073C19.7314 15.2276 19.6911 15.1377 19.7033 15.0399C19.7253 14.8629 19.9665 14.686 20.1115 14.8707C20.4392 15.288 19.9323 15.8682 19.4653 15.7664C19.2279 15.7146 19.0367 15.5242 18.9582 15.2977L18.9542 15.2857C18.9072 15.1422 18.8596 14.8107 19.0342 14.7336ZM23.2622 15.0242L23.2599 15.0189C23.1039 14.6638 23.6606 14.5112 23.7078 14.8301L23.7108 14.8516C23.7567 15.2055 23.6599 15.6815 23.2266 15.7168C22.7401 15.7564 22.5376 15.2135 22.581 14.815C22.5888 14.7437 22.6753 14.7338 22.702 14.7986L22.7077 14.8128C22.7863 15.013 22.8609 15.3981 23.1376 15.3977C23.3225 15.3974 23.3137 15.1478 23.2622 15.0242ZM23.6151 13.9963C23.8948 13.9863 23.8944 14.4241 23.6151 14.4307C22.6824 14.4527 21.7489 14.4818 20.8158 14.4868L20.6462 14.4879C19.7698 14.4938 18.8904 14.5057 18.0165 14.4321C17.9419 14.4259 17.9558 14.3211 18.0181 14.3253C18.9343 14.1949 19.8616 14.1568 20.7847 14.1072C21.7274 14.0566 22.6718 14.0298 23.6151 13.9963Z" fill="black"/>
<path fill-rule="evenodd" clip-rule="evenodd" d="M23.6123 11.3148C23.7932 11.2528 23.9375 11.441 23.9027 11.6051C23.8617 11.7983 23.6602 11.9533 23.5265 12.0895C23.3863 12.2329 23.2433 12.3735 23.0949 12.5087C22.8117 12.7674 22.5181 13.011 22.2085 13.238L22.1139 13.3074C21.8301 13.5151 21.5472 13.7179 21.2433 13.8977C21.0786 13.9948 20.9124 14.0887 20.744 14.1792C20.684 14.2114 20.6107 14.2612 20.5353 14.2982C20.811 14.5111 21.0232 14.8361 21.0692 15.1389C21.1832 15.891 20.6987 16.588 20.0151 16.8651C19.6742 17.0031 19.2949 17.0432 18.9306 17.0016C18.56 16.9593 18.1844 16.8497 17.9437 16.546C17.73 16.2764 17.653 15.9323 17.6376 15.5945C17.6304 15.4341 17.632 15.2763 17.6658 15.1345C17.5184 15.1358 17.371 15.1351 17.2248 15.1367C16.8636 15.1401 16.5018 15.1417 16.1403 15.1317C15.7675 15.121 15.3966 15.1044 15.0251 15.0713C14.862 15.0565 14.6999 15.0324 14.5378 15.0093C14.3804 14.987 14.2066 14.9786 14.0595 14.9141C14.0495 14.91 14.0537 14.8956 14.0624 14.8927C14.2192 14.8421 14.3973 14.8511 14.5606 14.8411L14.7199 14.8314C14.8525 14.8235 14.985 14.8162 15.1181 14.812C15.4253 14.8019 15.7324 14.7994 16.0396 14.7941L16.1713 14.7916C16.5328 14.7844 16.8943 14.7804 17.2558 14.7688C17.4057 14.7641 17.5559 14.7553 17.7065 14.7472C17.724 14.7074 17.7497 14.6711 17.7744 14.6357C17.8483 14.5299 17.9422 14.4366 18.0395 14.352C18.2389 14.1779 18.4633 14.0486 18.7137 13.9619C18.9618 13.8762 19.3247 13.8337 19.5872 13.8393C19.8497 13.8448 20.2238 13.8818 20.344 14.0965C20.3566 14.1188 20.5854 14.0759 20.6533 14.0239C20.812 13.9027 20.9678 13.7781 21.1209 13.6503C21.4051 13.4127 21.6974 13.1788 21.9666 12.9246C22.2442 12.6622 22.5196 12.3954 22.7838 12.1199C22.9165 11.9818 23.0489 11.8434 23.1775 11.7019C23.309 11.5575 23.422 11.3797 23.6123 11.3148Z" fill="black"/>
</svg>
