<svg width="36" height="48" viewBox="0 0 36 48" fill="none" xmlns="http://www.w3.org/2000/svg">
<path fill-rule="evenodd" clip-rule="evenodd" d="M6.08615 38.5582C5.99244 39.4175 5.78017 40.3642 6.1848 41.175C5.92997 41.1864 6.13669 41.2602 6.27422 41.2855C6.35275 41.3463 6.45829 41.3704 6.55754 41.362C7.07284 41.4709 7.6048 41.5104 8.12803 41.5721C14.6607 42.1149 21.2371 41.9707 27.782 41.7368C27.9948 41.7276 28.1376 41.5729 28.1539 41.3646C28.3938 38.2985 28.5132 35.223 28.5071 32.1476C28.4005 31.0668 29.2171 31.4885 28.7815 30.0644C28.4313 28.5622 27.913 27.1001 27.2521 25.7068C26.7953 24.8002 26.3648 23.8463 25.6685 23.0945C25.4485 23.0641 25.2612 22.8454 25.0752 22.7233C24.8869 22.6866 24.7473 22.5266 24.5564 22.4774C24.1927 22.3828 23.3788 22.1815 23.069 22.4236C23.0568 22.4202 23.0444 22.4174 23.0321 22.4139C22.9715 22.4812 22.8882 22.4307 22.843 22.3703C22.6882 22.2501 22.0117 22.2377 21.9349 22.0533C21.5347 21.69 21.4276 20.9256 21.4276 20.4784C21.2779 20.3102 21.2676 20.3414 21.0644 20.2525C20.8652 20.0012 20.6246 19.7822 20.356 19.6097C18.8446 18.6168 16.6512 19.663 16.2974 21.3887C15.738 21.8317 15.1623 22.2818 14.4772 22.5126C14.1429 22.3406 13.762 22.2857 13.4071 22.2853C13.1426 22.2757 12.7771 22.1227 12.6052 22.4012C9.71331 23.3482 7.96796 26.1027 6.7269 28.7126C6.55294 29.0842 6.34483 29.4733 6.39807 29.8966C6.43466 30.4036 6.98471 30.7054 6.88076 31.2428C6.72968 32.7208 6.55782 34.1974 6.40054 35.675C6.29572 36.6361 6.19094 37.5971 6.08615 38.5582Z" fill="#D08B5B"/>
<path fill-rule="evenodd" clip-rule="evenodd" d="M12.6053 22.4017C12.7772 22.1233 13.1427 22.2763 13.4072 22.2859C13.762 22.2862 14.1429 22.3412 14.4772 22.5132C14.4909 22.5086 14.5045 22.5039 14.5181 22.4991L14.5379 22.5431L13.0823 22.7483L13.8164 24.0801C15.5448 25.6977 17.4662 26.4167 19.5805 26.2369C21.6737 26.059 23.1122 24.9408 23.8961 22.8824L23.9196 22.8197L22.924 22.5431L22.9239 22.4375C22.9603 22.4528 22.9995 22.4507 23.0322 22.4145C23.0444 22.418 23.0568 22.4208 23.069 22.4242C23.3788 22.1821 24.1928 22.3834 24.5565 22.478C24.7474 22.5272 24.887 22.6872 25.0753 22.7239C25.2612 22.846 25.4485 23.0646 25.6686 23.095C26.3649 23.8468 26.7953 24.8008 27.2522 25.7074C27.9131 27.1006 28.4314 28.5628 28.7815 30.0649C29.0603 30.9764 28.8262 31.1318 28.6495 31.4088L28.6349 31.4111C28.3953 31.4483 28.1722 31.5009 27.9656 31.5687C27.5245 31.7136 27.0901 31.8967 26.6625 32.1181L26.6132 32.1438L27.1542 41.7595L26.8164 41.7712C21.2996 41.9596 15.763 42.0634 10.2517 41.7256L10.7672 32.5748L6.4783 30.1936C6.43614 30.1011 6.40581 30.0037 6.39813 29.8972C6.34489 29.4738 6.55299 29.0848 6.72695 28.7132C7.96802 26.1033 9.71337 23.3488 12.6053 22.4017Z" fill="#78E185"/>
<path fill-rule="evenodd" clip-rule="evenodd" d="M27.2432 31.5073C27.0563 31.575 26.7942 31.641 26.6605 31.7941C26.6451 31.6515 26.6295 31.5089 26.6138 31.3663C27.0056 31.357 27.3983 31.3536 27.7903 31.3427C27.6052 31.3879 27.4224 31.4425 27.2432 31.5073ZM26.3824 40.4763C26.2476 40.4776 26.1123 40.487 25.9776 40.4922C25.718 40.5023 25.4585 40.5122 25.199 40.5219C24.6695 40.5418 24.14 40.5609 23.6104 40.5794C22.5618 40.6158 21.513 40.6495 20.4642 40.6804C18.3665 40.7421 16.2678 40.7795 14.1703 40.8501C13.5885 40.8697 13.0066 40.8849 12.4253 40.9166C12.124 40.933 11.8214 40.9471 11.5216 40.982C11.2686 41.0114 11.0193 41.0611 10.7678 41.0981C10.7847 40.7702 10.8005 40.4423 10.8169 40.1145C10.8324 39.8043 10.847 39.4941 10.8614 39.1839C11.8432 39.2353 12.8262 39.256 13.8093 39.2648C14.8493 39.2741 15.8889 39.2999 16.9289 39.3019C18.9878 39.306 21.0468 39.2801 23.1056 39.2594C23.6879 39.2535 24.2703 39.2477 24.8526 39.2418C25.1437 39.2389 25.4349 39.236 25.726 39.2331C25.8714 39.2316 26.0176 39.2347 26.1628 39.2287C26.3178 39.2222 26.4119 39.1782 26.5244 39.0738C26.5844 39.0182 26.5869 38.9049 26.5244 38.8497C26.4341 38.7699 26.3503 38.7087 26.2252 38.6998C26.1023 38.691 25.9741 38.7031 25.8508 38.7047C25.5805 38.7082 25.3101 38.7118 25.0397 38.7154C24.5198 38.7222 23.9999 38.7291 23.48 38.7359C22.4401 38.7496 21.4002 38.7636 20.3604 38.7794C19.3413 38.795 18.3221 38.8066 17.3032 38.8322C16.2629 38.8584 15.2237 38.9057 14.1837 38.9391C13.0765 38.9747 11.97 39.0172 10.8654 39.1003C10.8919 38.5253 10.9164 37.9501 10.9394 37.3749C13.1327 37.4943 15.3274 37.5793 17.5244 37.583C19.8132 37.587 22.1019 37.5478 24.3899 37.4881C24.7123 37.4796 25.0347 37.4711 25.357 37.461C25.5234 37.4558 25.6898 37.4509 25.8562 37.4449C25.9785 37.4405 26.1042 37.4353 26.2148 37.3767C26.433 37.2613 26.4707 36.9241 26.2118 36.8318C26.0702 36.7814 25.9201 36.8307 25.8857 36.9584C25.8751 36.9594 25.865 36.9602 25.8562 36.9606C25.7314 36.9653 25.6066 36.9688 25.4818 36.9727C25.2114 36.9813 24.9411 36.9901 24.6707 36.9986C24.1715 37.0142 23.6723 37.0286 23.173 37.0418C22.1538 37.0689 21.1344 37.0909 20.1149 37.1079C18.0964 37.1415 16.0781 37.1726 14.0599 37.2187C13.0206 37.2425 11.9816 37.2734 10.9424 37.2997C10.9672 36.6745 10.9906 36.0492 11.0118 35.4239C11.0142 35.3507 11.0169 35.2773 11.0196 35.204C11.1685 35.2368 11.321 35.2549 11.4727 35.2764C11.736 35.3136 12 35.3412 12.2644 35.3691C12.7626 35.4217 13.2623 35.454 13.7623 35.4816C14.7817 35.5378 15.8014 35.5775 16.8218 35.6086C18.8404 35.6701 20.8614 35.6835 22.8808 35.6765C23.9774 35.6728 25.0806 35.6873 26.1766 35.6394C26.2442 35.6579 26.3138 35.656 26.3811 35.634C26.4364 36.6115 26.4947 37.5888 26.5521 38.5662C26.5908 39.2257 26.625 39.8874 26.6725 40.547C26.5796 40.5013 26.4942 40.4754 26.3824 40.4763ZM7.37986 30.5451C7.18756 30.451 6.97548 30.3651 6.80572 30.2318C6.62015 30.086 6.57457 29.9149 6.6316 29.6861C6.63586 29.669 6.64087 29.652 6.64531 29.635C8.01279 29.6383 9.3768 29.5781 10.7437 29.5456C12.1324 29.5127 13.5206 29.4849 14.9098 29.4771C17.6801 29.4615 20.45 29.524 23.219 29.6018C24.2162 29.6298 25.2134 29.6574 26.2106 29.6847C26.1879 29.9279 26.1966 30.1771 26.1915 30.4186C26.1869 30.6307 26.1881 30.8432 26.1913 31.0556C25.6696 31.0543 25.148 31.0431 24.6263 31.0372C23.3346 31.0226 22.0436 31.0597 20.7523 31.0893C18.1696 31.1484 15.5863 31.1949 13.0042 31.2727C12.3029 31.2938 11.597 31.3049 10.8925 31.3349C10.8683 31.2203 10.8414 31.1063 10.8111 30.993C10.7629 30.813 10.7085 30.6281 10.5643 30.503C10.5574 30.497 10.5478 30.4996 10.5447 30.5082C10.49 30.66 10.5038 30.8145 10.5199 30.9735C10.5325 31.0991 10.5411 31.2251 10.5475 31.3512C10.1094 31.3743 9.6722 31.4067 9.2373 31.4552C9.11295 31.3938 8.98853 31.3324 8.86393 31.2714C8.36932 31.0292 7.87454 30.7872 7.37986 30.5451ZM23.2556 35.0642C22.2353 35.0724 21.2149 35.0733 20.1947 35.0668C18.175 35.0538 16.1561 35.0041 14.1369 34.964C13.5749 34.9528 13.0137 34.9418 12.4516 34.9418C12.1606 34.9418 11.8687 34.9437 11.578 34.9563C11.3951 34.9643 11.2096 34.9654 11.0275 34.9874C11.0495 34.3989 11.0724 33.8098 11.0716 33.2211C12.998 33.5129 14.945 33.5931 16.8903 33.6505C18.8612 33.7087 20.8325 33.7388 22.8042 33.7417C23.3646 33.7425 23.9249 33.7413 24.4852 33.738C24.755 33.7364 25.0248 33.7343 25.2945 33.7318C25.4396 33.7304 25.5854 33.7334 25.7303 33.7273C25.8835 33.7208 25.9761 33.6845 26.0831 33.5755C26.1379 33.5197 26.1406 33.4235 26.0831 33.3679C25.8921 33.1836 25.6673 33.2236 25.419 33.2267C25.17 33.2298 24.921 33.2324 24.672 33.2347C24.1739 33.2392 23.6759 33.2421 23.1778 33.2434C22.2024 33.2459 21.227 33.2421 20.2517 33.2321C18.2805 33.212 16.3097 33.1681 14.339 33.122C13.2494 33.0964 12.1601 33.1035 11.0715 33.1563C11.0711 33.0586 11.0702 32.9608 11.0683 32.863C11.0611 32.4928 11.0251 32.1226 10.9687 31.7564C11.5022 31.7546 12.0357 31.7432 12.5668 31.7364C13.8583 31.7198 15.1495 31.6938 16.4408 31.6679C17.7217 31.6422 19.0027 31.6165 20.2836 31.5908C21.5637 31.5651 22.8478 31.5633 24.1264 31.4941C24.8164 31.4568 25.5067 31.4061 26.1972 31.3794C26.1986 31.4428 26.1999 31.5063 26.2013 31.5696C26.2179 32.3476 26.2483 33.1247 26.2875 33.9019C26.3063 34.2752 26.3262 34.6486 26.3467 35.022C26.3368 35.021 26.3267 35.0204 26.3163 35.0203C25.2968 35.0135 24.2753 35.0559 23.2556 35.0642ZM7.11054 28.3081C7.22734 28.0075 7.35423 27.7089 7.49138 27.4143C8.07367 27.5787 8.69479 27.6635 9.29573 27.72C9.93548 27.7801 10.5765 27.8139 11.2189 27.827C12.4853 27.8529 13.7517 27.7928 15.0168 27.7405C17.6188 27.633 20.2206 27.5545 22.8252 27.5495C23.5525 27.548 24.2798 27.5514 25.0071 27.5596C25.3708 27.5637 25.7344 27.5686 26.098 27.5749C26.285 27.5781 26.472 27.5816 26.659 27.5855C26.7418 27.5872 26.8256 27.5933 26.9083 27.5908C27.0189 27.5875 27.0997 27.5542 27.2024 27.5141C27.3203 27.4682 27.3899 27.271 27.2427 27.2057C27.0958 27.1403 26.9778 27.1021 26.8148 27.0985C26.6382 27.0947 26.4616 27.0912 26.285 27.088C25.9629 27.0821 25.6409 27.0772 25.3188 27.0731C24.6643 27.065 24.0097 27.0615 23.3551 27.0616C22.0667 27.0618 20.7782 27.077 19.4902 27.1073C16.9043 27.1682 14.3242 27.3485 11.7392 27.4259C11.0267 27.4472 10.3129 27.4514 9.60033 27.43C8.91019 27.4093 8.22152 27.3512 7.53223 27.3267C7.77032 26.8246 8.03971 26.3356 8.34368 25.8707C9.49276 25.9111 10.6394 25.8812 11.7887 25.8462C12.3918 25.8278 12.9949 25.8092 13.5979 25.7885C13.8995 25.7782 14.201 25.7678 14.5025 25.7575C14.6481 25.7525 14.7937 25.7475 14.9392 25.7425C15.096 25.7372 15.2611 25.7473 15.4134 25.7061C15.441 25.6986 15.4629 25.6826 15.4794 25.6623C15.8847 25.8709 16.3135 26.0355 16.7544 26.1574C17.7115 26.4222 18.7408 26.5215 19.7307 26.44C20.525 26.3746 21.3167 26.1779 22.0151 25.7928C23.5923 25.9381 25.1917 25.8698 26.7723 25.8595C26.9233 25.8585 26.9861 25.7201 26.9608 25.6059C27.4681 26.6995 27.8041 27.8851 28.1186 29.0383C28.3141 29.755 28.4879 30.4762 28.6534 31.1999C28.6465 31.2005 28.6396 31.2011 28.6328 31.2018C28.652 31.1225 28.6088 31.0291 28.5003 31.0266C27.8606 31.0119 27.2189 31.0486 26.579 31.0545C26.561 30.8944 26.543 30.7343 26.524 30.5742C26.4981 30.3561 26.4672 30.1386 26.4408 29.9206C26.4313 29.8416 26.4224 29.7652 26.4115 29.6901C26.9182 29.7039 27.4248 29.7178 27.9315 29.7312C28.2603 29.7399 28.2597 29.2305 27.9315 29.2205C25.1473 29.1352 22.3629 29.049 19.5778 29.0017C16.7909 28.9544 13.9944 28.9252 11.2097 29.0681C9.6922 29.146 8.17842 29.2501 6.67977 29.5069C6.79617 29.1005 6.95855 28.6993 7.11054 28.3081ZM9.48046 24.4372C9.53088 24.4751 9.54703 24.4989 9.6224 24.5122C9.70412 24.5265 9.78816 24.5311 9.87066 24.5391C10.0472 24.5564 10.2242 24.5629 10.4013 24.5713C10.755 24.5881 11.1086 24.6059 11.4625 24.6166C12.1651 24.638 12.8827 24.6682 13.585 24.6369C13.7568 24.6293 13.8349 24.4876 13.8193 24.3584C13.951 24.5216 14.095 24.6748 14.2484 24.8144C14.495 25.0389 14.7611 25.2379 15.0417 25.4135C14.8597 25.4201 14.6743 25.443 14.5025 25.4503C14.2114 25.4628 13.9202 25.4753 13.6291 25.4878C13.0156 25.5142 12.4021 25.5425 11.7887 25.5712C10.6534 25.6243 9.52196 25.6903 8.39098 25.7987C8.71398 25.3131 9.0758 24.855 9.48046 24.4372ZM27.9584 26.796C27.4787 25.4788 26.8603 24.1105 25.7473 23.2058C25.1753 22.7408 24.538 22.4191 23.8162 22.2667C23.7941 22.262 23.7852 22.2936 23.8069 22.3007C25.055 22.7103 25.9787 23.7943 26.6035 24.9051C26.7167 25.1064 26.8216 25.3125 26.9208 25.5218C26.8885 25.4824 26.8391 25.4562 26.7723 25.4573C25.2963 25.4821 23.803 25.4571 22.3304 25.6013C22.368 25.5763 22.4056 25.5513 22.4425 25.5249C22.8447 25.2381 23.2067 24.8872 23.5059 24.4897C23.6862 24.5354 23.8759 24.5466 24.0598 24.5641C24.3052 24.5874 24.5523 24.5981 24.7985 24.6113C25.0443 24.6245 25.2911 24.6258 25.5372 24.6317C25.7063 24.6358 26.0369 24.6639 26.0371 24.4051C26.0373 24.146 25.7063 24.1734 25.5372 24.1768C25.291 24.1817 25.0444 24.1824 24.7985 24.1939C24.5627 24.2049 24.3256 24.2139 24.0905 24.235C23.9472 24.2478 23.7996 24.2563 23.6555 24.2791C23.8901 23.9289 24.0768 23.5475 24.2015 23.1453C24.214 23.1048 24.2182 23.0669 24.2161 23.0319C24.269 22.9761 24.3027 22.8996 24.3027 22.8295C24.3027 22.6629 24.1729 22.5652 24.0212 22.5479C23.4208 22.4792 22.7593 22.3814 22.2754 21.9864C22.057 21.8082 21.8814 21.5975 21.716 21.3708C21.5303 21.1159 21.4606 20.7949 21.4599 20.4829C21.4599 20.4654 21.4309 20.4601 21.4282 20.4786C21.3373 21.1111 21.4684 21.8331 21.9222 22.3069C22.3677 22.7722 22.9729 22.9465 23.587 23.0483C23.3338 23.7718 22.9158 24.4073 22.3291 24.907C21.6752 25.4639 20.8476 25.7617 20.0037 25.8741C19.0934 25.9954 18.1392 25.9365 17.244 25.7385C16.3816 25.5478 15.538 25.2067 14.836 24.6623C14.4819 24.3876 14.1562 24.0639 13.8723 23.7174C13.638 23.4314 13.4584 23.1125 13.2573 22.8062C14.0076 23.012 14.9147 22.7309 15.5431 22.3338C15.9133 22.0999 16.2376 21.808 16.504 21.4607C16.6354 21.2894 16.7523 21.1086 16.8487 20.9152C16.8989 20.8146 16.9439 20.7112 16.9854 20.6068C17.011 20.5423 17.0362 20.476 17.0362 20.4051C17.036 20.3529 17.0229 20.3042 16.9967 20.2591C16.9429 20.202 16.9322 20.1855 16.9646 20.2094C16.9118 20.1013 16.7591 20.0738 16.6615 20.1299C16.6251 20.1509 16.5395 20.1914 16.4974 20.2591C16.4689 20.3049 16.4536 20.3596 16.4354 20.4098C16.4067 20.4891 16.3777 20.5675 16.3416 20.6438C16.2577 20.8212 16.1571 20.9905 16.0423 21.1495C15.8326 21.4404 15.563 21.7033 15.2694 21.9086C14.9611 22.124 14.6289 22.3002 14.2685 22.4102C13.8879 22.5263 13.5112 22.561 13.1185 22.6035C13.1144 22.5977 13.1103 22.5919 13.1061 22.5861C13.0985 22.5756 13.0821 22.579 13.0815 22.5927C13.0812 22.5993 13.0813 22.6059 13.0811 22.6124C13.0252 22.6387 13.0205 22.7176 13.0829 22.7479C13.106 23.1113 13.2628 23.4692 13.4336 23.7836C13.5047 23.9146 13.5851 24.0415 13.6722 24.1641C13.6464 24.1543 13.6175 24.148 13.585 24.1468C12.8825 24.1198 12.165 24.1545 11.4625 24.1802C11.119 24.1928 10.7758 24.2121 10.4325 24.2305C10.2555 24.24 10.0782 24.246 9.90187 24.2643C9.8137 24.2735 9.725 24.2807 9.6373 24.2939C9.63094 24.2949 9.62503 24.2959 9.61946 24.2969C9.83642 24.0831 10.0651 23.8806 10.3066 23.6917C11.0986 23.0719 12.0083 22.5668 12.9789 22.2922C12.9881 22.2896 12.9867 22.2738 12.9765 22.2749C11.0461 22.4724 9.43805 23.6893 8.31317 25.2174C7.689 26.0652 7.21561 27.0039 6.80825 27.9717C6.60293 28.4596 6.40866 28.9561 6.24597 29.46C6.16328 29.7161 6.126 29.9877 6.24443 30.2389C6.33526 30.4317 6.50287 30.5749 6.67855 30.6887C6.69022 30.6963 6.70224 30.7033 6.71404 30.7107C6.53445 31.3367 6.41414 31.9789 6.29871 32.6192C6.17332 33.3148 6.06393 34.0133 5.96997 34.7138C5.78218 36.1141 5.63833 37.5173 5.57551 38.9291C5.55814 39.3196 5.54653 39.7104 5.54146 40.1012C5.53893 40.2967 5.54005 40.4922 5.54271 40.6877C5.54575 40.9065 5.51614 41.1534 5.62747 41.3486C5.77623 41.6095 6.06515 41.5197 6.19223 41.3413C6.19407 41.3437 6.19598 41.3462 6.19786 41.3486C6.20938 41.326 6.21902 41.3033 6.22725 41.2807C6.24093 41.2506 6.24985 41.2192 6.2531 41.1871C6.27705 41.0659 6.26803 40.9429 6.26706 40.8112C6.26565 40.626 6.26672 40.4408 6.26725 40.2555C6.26828 39.9058 6.27226 39.5562 6.28221 39.2066C6.30215 38.5075 6.34108 37.809 6.39432 37.1117C6.50011 35.7265 6.65617 34.3477 6.78972 32.9652C6.8577 32.2613 6.93971 31.5556 6.95385 30.8479C7.11871 30.9347 7.28882 31.0134 7.45335 31.0972C7.75864 31.2527 8.0639 31.4081 8.36916 31.5636C8.66522 31.7143 8.96171 31.8642 9.25833 32.0139C9.55742 32.1648 9.85451 32.3644 10.191 32.4015C10.3709 32.4213 10.436 32.1789 10.33 32.0658C10.1916 31.9179 10.0078 31.8261 9.82306 31.74C10.0685 31.749 10.3143 31.7538 10.5602 31.7557C10.5636 32.0652 10.5527 32.3754 10.5372 32.6843C10.499 33.4418 10.4459 34.198 10.3956 34.9549C10.2912 36.528 10.19 38.102 10.1111 39.6767C10.0918 40.0624 10.0725 40.448 10.0531 40.8337C10.0437 41.0212 10.0307 41.2089 10.0254 41.3966C10.0194 41.6071 10.0246 41.871 10.2194 42.001C10.357 42.0928 10.505 42.0495 10.6083 41.9233C10.7464 41.7545 10.7462 41.5099 10.7573 41.3027C10.7599 41.2549 10.7622 41.207 10.7647 41.1591C10.9756 41.1865 11.185 41.2243 11.3969 41.2449C11.6557 41.2702 11.9161 41.285 12.176 41.2917C12.706 41.3053 13.2351 41.3102 13.7652 41.3102C14.8144 41.3103 15.8634 41.2923 16.9124 41.2754C19.0104 41.2415 21.1082 41.1827 23.2055 41.1176C23.787 41.0995 24.3684 41.0806 24.9498 41.0608C25.2508 41.0506 25.5519 41.0401 25.853 41.0294C26.138 41.0193 26.4493 41.0561 26.7001 40.9081C26.7074 40.9982 26.7148 41.0883 26.7227 41.1783C26.7378 41.3489 26.8576 41.4954 27.0396 41.4954C27.2106 41.4954 27.3576 41.3503 27.3565 41.1783C27.2926 39.6227 27.1544 38.0669 27.0449 36.5139C26.9443 35.0875 26.85 33.659 26.7062 32.2359C26.747 32.2623 26.7969 32.2787 26.8557 32.2789C27.0436 32.2797 27.2311 32.1631 27.4069 32.1012C27.5843 32.0387 27.7646 31.9846 27.9473 31.9402C28.0555 31.9139 28.1641 31.8919 28.273 31.8732C28.2598 32.0958 28.2632 32.3205 28.2591 32.5423C28.2527 32.8833 28.2421 33.2242 28.2339 33.5651C28.2175 34.2369 28.2118 34.9087 28.1989 35.5805C28.1731 36.9349 28.1305 38.2885 28.0581 39.6412C28.0383 40.0129 28.0159 40.3844 27.9911 40.7558C27.978 40.9518 27.9642 41.1478 27.9498 41.3437C27.9356 41.5363 27.9024 41.7409 27.9749 41.9255C27.9772 41.9241 27.9795 41.9228 27.9817 41.9215C28.0323 42.0804 28.2545 42.1567 28.3595 41.9758C28.5231 41.6938 28.4853 41.2897 28.5041 40.9724C28.5243 40.632 28.5424 40.2915 28.5584 39.9509C28.5905 39.2695 28.6127 38.5879 28.6256 37.9059C28.6514 36.5417 28.647 35.1754 28.5636 33.8132C28.5408 33.4407 28.5089 33.0689 28.4761 32.6973C28.4515 32.4186 28.438 32.1324 28.3945 31.8537C28.607 31.8223 28.8211 31.8041 29.0373 31.7988C29.2465 31.7936 29.3815 31.6048 29.3371 31.405C28.9898 29.84 28.5066 28.3014 27.9584 26.796Z" fill="black"/>
<path fill-rule="evenodd" clip-rule="evenodd" d="M26.1319 13.6377C25.8461 12.0753 25.1413 10.5887 24.059 9.42554C23.9341 9.28743 23.8219 9.06956 23.6313 9.03475C23.44 8.64395 23.0754 8.36769 22.7839 8.05211C22.1476 7.41615 21.5389 6.70548 20.7183 6.30388C16.9119 4.7345 13.2491 9.20937 12.4718 12.5747C11.6997 15.2812 12.5429 19.0146 15.8887 19.1242C16.362 19.7518 17.0151 20.1862 17.6861 20.5742C18.6023 21.1622 19.6017 21.401 20.6617 21.0737C21.7173 21.3502 22.8117 20.4628 23.4461 19.6845C23.9475 19.0817 24.2912 18.346 24.7498 17.722C25.2913 17.7084 25.7593 17.2488 25.8317 16.71C26.3375 15.7783 26.3145 14.6618 26.1319 13.6377Z" fill="#D08B5B"/>
<path fill-rule="evenodd" clip-rule="evenodd" d="M12.4718 12.5747C13.2491 9.20937 16.9119 4.7345 20.7183 6.30388C21.5389 6.70548 22.1476 7.41615 22.7839 8.05211C23.0754 8.36769 23.44 8.64395 23.6313 9.03475C23.8219 9.06956 23.9341 9.28743 24.059 9.42554C25.1413 10.5887 25.8461 12.0753 26.1319 13.6377C26.3145 14.6618 26.3375 15.7783 25.8317 16.71C25.7593 17.2488 25.2913 17.7084 24.7498 17.722C24.6506 17.857 24.5567 17.9973 24.4655 18.1403L24.4439 18.1476L24.4413 17.9892C24.3956 15.423 24.2482 13.8739 23.999 13.3419C23.7473 12.8045 22.6641 11.8205 20.7493 10.39L20.691 10.3465L20.2415 9.97438L19.8927 10.3692C18.5804 11.8532 17.5531 12.9984 16.8109 13.8046C16.0123 14.6723 15.3366 15.9922 14.7838 17.7644L14.7671 17.8183L15.7437 19.1171C12.5187 18.9059 11.711 15.2417 12.4718 12.5747Z" fill="#9DDADB"/>
<path fill-rule="evenodd" clip-rule="evenodd" d="M17.8408 5.77174C18.5334 5.60951 19.2597 5.64314 19.9458 5.82143C21.3055 6.17484 22.4243 7.09385 23.3519 8.11851C24.2568 9.11796 25.003 10.2637 25.548 11.498L25.5756 11.5607C25.9611 12.4406 26.296 13.3551 26.3104 14.3238C26.3228 15.1576 26.2388 16.0263 25.9701 16.8193C25.7307 17.5258 25.2904 18.2377 24.5329 18.407C24.0961 19.5201 23.2416 20.484 22.1652 20.9997C21.4975 21.3196 20.7643 21.4624 20.0262 21.3914C19.2731 21.319 18.5696 20.9563 17.981 20.4936C17.9649 20.481 17.9856 20.4564 18.0023 20.466C18.7109 20.8754 19.549 21.0217 20.3607 20.9948C21.6946 20.9506 22.9175 20.2288 23.6201 19.0943C23.795 18.812 23.9508 18.5141 24.075 18.2043C24.0678 18.1788 24.0636 18.153 24.0636 18.1278C24.0636 18.0211 24.1141 17.9395 24.1895 17.8868C24.2244 17.7773 24.2554 17.6666 24.2812 17.5546C24.3397 17.3009 24.3724 17.0435 24.3921 16.7841C24.4081 16.5734 24.3992 16.3498 24.4204 16.1336C24.4127 15.9604 24.402 15.7874 24.3863 15.6148C24.336 15.0584 24.2341 14.5035 24.0378 13.9791C23.8391 13.448 23.5251 12.9797 23.129 12.5766C22.2794 11.7119 21.2216 11.0806 20.3955 10.1924L20.3522 10.1454L20.3493 10.1445C20.2468 10.2499 20.1443 10.3552 20.0416 10.4604L19.5723 10.9403C18.6144 11.9208 17.6642 12.9109 16.8309 14.002C16.3511 14.6303 15.92 15.289 15.5485 15.9874C15.3726 16.3182 15.2131 16.6572 15.069 17.0031L15.0122 17.1407C14.9447 17.3055 14.8718 17.4899 14.8313 17.676C14.9518 17.7959 15.04 17.9721 15.1375 18.1082C15.2481 18.2625 15.3757 18.4094 15.5069 18.5465C15.6397 18.6853 15.7854 18.8184 15.9401 18.9324L15.9587 18.9458C16.1361 19.0721 16.3398 19.1593 16.3665 19.3996C16.378 19.504 16.2849 19.5879 16.1988 19.6204C15.9629 19.7092 15.7185 19.4541 15.5613 19.3073C15.4632 19.2157 15.3731 19.1171 15.2895 19.0129C15.2082 19.0246 15.1263 19.0304 15.0452 19.0208C14.9196 19.0058 14.7953 18.9838 14.6729 18.9515C13.6582 18.6845 12.9072 17.84 12.502 16.8995C11.9579 15.6368 11.9706 14.1813 12.1967 12.8461C12.61 10.406 13.9474 8.12728 15.967 6.68461C16.5326 6.28057 17.1598 5.93124 17.8408 5.77174ZM18.9341 6.09816C17.6294 6.02924 16.44 6.70368 15.4856 7.54323C13.748 9.07184 12.6777 11.31 12.4624 13.6083C12.348 14.8294 12.4336 16.1457 13.0688 17.2245C13.3152 17.6431 13.6326 18.0079 14.0072 18.3154C14.3602 18.6053 14.7627 18.7723 15.1929 18.886C15.1733 18.8589 15.1539 18.8317 15.1351 18.804C15.0351 18.6572 14.9556 18.501 14.889 18.3375C14.8831 18.3434 14.8721 18.3445 14.8655 18.3356C14.594 17.962 14.679 17.5164 14.8084 17.1056C14.9441 16.6748 15.1161 16.2556 15.3124 15.849C16.0279 14.3671 17.0922 13.0761 18.1969 11.8714C18.7611 11.2562 19.344 10.6588 19.9247 10.0593C20.2147 9.75996 20.504 9.45975 20.7896 9.1561C20.9317 9.00493 21.073 8.85297 21.213 8.6998C21.3514 8.54835 21.4759 8.38794 21.6483 8.2745C21.7857 8.18411 21.9228 8.35688 21.8586 8.48538C21.7598 8.68303 21.59 8.83971 21.4397 9.00043L21.4242 9.01708C21.2777 9.17564 21.1298 9.33291 20.9811 9.48934C20.81 9.66926 20.6375 9.84795 20.4646 10.0262C20.6121 10.009 20.7613 9.99918 20.908 9.97686C21.1071 9.94655 21.3036 9.9019 21.499 9.85333C21.705 9.8022 21.9083 9.73692 22.1046 9.65576C22.2889 9.57955 22.4632 9.45744 22.666 9.44548C22.8378 9.43533 22.8914 9.64847 22.7962 9.76062C22.6651 9.91517 22.4294 9.976 22.2377 10.0334L22.2106 10.0416C21.9986 10.1065 21.7816 10.1551 21.5623 10.1877C21.2737 10.2305 20.9402 10.2501 20.6315 10.2063C21.248 10.5687 21.8154 11.0178 22.3811 11.4558L22.4809 11.533C23.0336 11.9593 23.5731 12.4189 23.9672 13.0022C24.3351 13.5467 24.5572 14.1807 24.6818 14.823C24.7433 15.1399 24.7839 15.4602 24.8111 15.7818C24.9126 16.0669 24.8963 16.4059 24.8708 16.7195L24.8616 16.8277L24.8623 16.8595C24.8661 17.0556 24.9448 17.4923 24.7596 17.6404C24.7565 17.6562 24.7535 17.672 24.7502 17.6878C24.7733 17.6735 24.796 17.6589 24.8186 17.6438C24.8279 17.6375 24.8369 17.6307 24.846 17.6239L24.8716 17.6029C24.8725 17.6021 24.8734 17.6013 24.874 17.6007C24.9315 17.5502 24.9863 17.4974 25.0374 17.4403C25.1318 17.3348 25.2216 17.2008 25.3066 17.0464C25.4934 16.7069 25.6128 16.338 25.7051 15.9565C25.8738 15.259 25.9434 14.5099 25.8664 13.7946C25.8557 13.6948 25.8336 13.5696 25.7994 13.4412C25.7182 13.1362 25.6248 12.8344 25.5202 12.5368C25.311 11.9413 25.0545 11.3635 24.7555 10.8079C24.1481 9.67949 23.3667 8.63621 22.4304 7.76072C21.4822 6.87408 20.2525 6.16779 18.9341 6.09816ZM17.0942 9.70363C17.1412 9.67482 17.1897 9.73078 17.1663 9.77593C17.0534 9.99445 16.8634 10.1789 16.7056 10.3662C16.5422 10.5601 16.38 10.755 16.2183 10.9502C15.8888 11.3477 15.5673 11.7525 15.2584 12.1663L15.1769 12.2758C14.9053 12.6412 14.6371 13.0124 14.3997 13.4007C14.2755 13.6038 14.1661 13.8138 14.0667 14.0302C13.9721 14.2361 13.9285 14.4847 13.8148 14.6781C13.8076 14.6903 13.7855 14.6893 13.7827 14.6739C13.7456 14.4656 13.8373 14.2148 13.9028 14.0197C13.9806 13.7878 14.0914 13.5668 14.2101 13.3534C14.4575 12.9083 14.754 12.4911 15.0518 12.0789C15.3543 11.6604 15.6683 11.2504 15.9978 10.8528C16.1526 10.6661 16.3108 10.483 16.4737 10.3036L16.5351 10.2365C16.7058 10.0509 16.8778 9.83608 17.0942 9.70363ZM16.3032 9.05654C16.3806 8.99908 16.4466 9.1165 16.3973 9.17875C16.1025 9.55053 15.767 9.88459 15.4444 10.2313C15.1346 10.5643 14.8384 10.9098 14.559 11.2688C13.9892 12.001 13.5331 12.8044 13.1468 13.6463C13.1395 13.6622 13.1166 13.6504 13.1201 13.635C13.3247 12.7243 13.803 11.8971 14.3477 11.1498L14.3684 11.1214C14.9193 10.3699 15.5526 9.61435 16.3032 9.05654Z" fill="black"/>
<path fill-rule="evenodd" clip-rule="evenodd" d="M22.5855 18.3429C22.4822 18.478 22.2952 18.5815 22.0857 18.631C21.8862 18.6781 21.6656 18.6762 21.4752 18.6036L21.4589 18.5971C21.3166 18.538 21.18 18.4186 21.1281 18.294C21.1075 18.2444 21.1005 18.1941 21.1146 18.1471C21.1273 18.1048 21.1571 18.0659 21.2066 18.0325C21.2222 18.022 21.2431 18.0213 21.263 18.0248C21.2877 18.0291 21.312 18.0407 21.3267 18.0563C21.4081 18.1429 21.5263 18.2274 21.6661 18.2259C21.774 18.2248 21.8621 18.1822 21.9476 18.134L22.0076 18.0996C22.0656 18.0666 22.1243 18.0355 22.1908 18.0213C22.3098 17.9959 22.4541 18.0423 22.5421 18.1189C22.5804 18.1524 22.6083 18.1916 22.6159 18.2339C22.6222 18.2695 22.6133 18.3066 22.5855 18.3429ZM21.9668 15.9803C22.2032 16.124 22.5633 16.4592 22.309 16.8155C22.0097 17.1296 21.5788 16.7694 21.3665 16.6065C21.1696 16.4803 20.9484 16.805 21.1311 16.9524C22.6654 18.0888 23.2881 16.0179 22.0864 15.8113C21.954 15.7886 21.9049 15.9359 21.9668 15.9803ZM19.3004 13.7714L19.3683 13.7528L19.4376 13.7341L19.4844 13.7217C19.806 13.6375 20.1607 13.5634 20.4796 13.5996C20.5959 13.6128 20.6903 13.6783 20.7067 13.8002C20.7206 13.903 20.6542 14.0357 20.5411 14.054C20.1665 14.1146 19.7831 14.095 19.4068 14.1575C19.2194 14.1886 19.0335 14.2272 18.8468 14.262C18.7049 14.2884 18.5582 14.2977 18.415 14.3192L18.4479 14.3237C18.4594 14.3253 18.4566 14.3447 18.4452 14.3439C18.398 14.3392 18.3508 14.3385 18.3034 14.3418L18.2831 14.3434C18.2522 14.3478 18.234 14.3109 18.2616 14.2922C18.436 14.1738 18.584 14.0455 18.7793 13.9582C18.9482 13.8827 19.1221 13.8205 19.3004 13.7714ZM22.2281 13.5899C22.4753 13.3398 23.0012 13.4359 23.2953 13.5503C23.4632 13.6156 23.6228 13.6982 23.7558 13.8217L23.7687 13.8339L23.7887 13.8531C23.8785 13.941 23.9785 14.0619 23.9643 14.1886C23.9621 14.208 23.9516 14.23 23.9298 14.2339C23.812 14.2548 23.6963 14.1926 23.5875 14.1552L23.5154 14.1305C23.4072 14.0936 23.2984 14.0584 23.1868 14.0329C23.0481 14.0014 22.9066 13.9831 22.7642 13.9849C22.6202 13.9868 22.4656 14.0274 22.3285 13.9703C22.1756 13.9066 22.0963 13.7232 22.2281 13.5899ZM19.7853 15.6065C19.7222 15.671 19.6389 15.7074 19.5323 15.6857C19.449 15.6688 19.2903 15.585 19.1636 15.4559C19.0769 15.3676 19.0044 15.2573 18.9847 15.1295C18.9801 15.0998 18.9643 15.0807 18.9437 15.0688C18.9273 15.0593 18.9058 15.0545 18.8824 15.0569C18.8624 15.0589 18.8413 15.0661 18.825 15.0757C18.7939 15.0939 18.7812 15.1197 18.7786 15.139C18.7537 15.3251 18.8255 15.5098 18.9375 15.6655C19.0887 15.8756 19.3107 16.0296 19.4411 16.0656C19.6644 16.1273 19.8997 16.0782 20.0732 15.9227C20.2119 15.7984 20.283 15.6365 20.3489 15.4699L20.3617 15.4377C20.3765 15.3999 20.3912 15.3624 20.4068 15.3253C20.4381 15.2509 20.4281 15.1866 20.3978 15.1365C20.3642 15.081 20.3022 15.0419 20.2332 15.0299C20.1694 15.0188 20.1011 15.031 20.0472 15.07C20.0017 15.1029 19.965 15.1551 19.9519 15.2322C19.9307 15.3577 19.8815 15.5016 19.7948 15.5966L19.7853 15.6065ZM23.614 14.8805C23.5619 14.8533 23.5212 14.8452 23.4635 14.8625C23.4316 14.872 23.4001 14.8904 23.3754 14.9151C23.3509 14.9396 23.3332 14.9701 23.3264 15.0038C23.3095 15.0872 23.2639 15.1652 23.1989 15.2161C23.1434 15.2596 23.0733 15.2826 22.9956 15.2696C22.9117 15.2556 22.8317 15.2018 22.7767 15.1383C22.7614 15.1206 22.7488 15.1009 22.7366 15.081L22.7294 15.069C22.7022 15.0242 22.6759 14.9826 22.6385 14.9497C22.6243 14.9372 22.6029 14.9285 22.5822 14.9285C22.5738 14.9285 22.5653 14.9299 22.5571 14.9324C22.4736 15.0162 22.4576 15.0798 22.4603 15.1429C22.4631 15.2091 22.4892 15.2761 22.5313 15.3386C22.6301 15.4852 22.8178 15.6054 22.9444 15.6326C23.1178 15.6699 23.29 15.6251 23.4281 15.5282C23.5702 15.4285 23.6755 15.2737 23.7083 15.0993C23.7162 15.0573 23.7128 15.0119 23.6968 14.9726C23.6812 14.9342 23.654 14.9013 23.614 14.8805Z" fill="black"/>
<path fill-rule="evenodd" clip-rule="evenodd" d="M23.6873 13.6514C24.422 13.6514 24.8412 13.8094 24.9948 13.8217L24.9994 13.8221C25.0633 13.8261 25.1207 13.8315 25.1808 13.8548C25.4019 13.94 25.438 14.172 25.3089 14.3182C25.2999 14.6208 25.3396 14.9743 25.2714 15.2779C25.1872 16.5576 24.5856 16.7736 24.2436 16.8524C24.072 16.892 23.8685 16.9077 23.6861 16.866C23.375 16.8544 23.0674 16.7569 22.8043 16.5873C22.4378 16.3508 22.1656 15.9874 22.0773 15.556C22.0354 15.3504 22.0158 15.1364 22.0386 14.9274L22.042 14.8986C21.9229 14.8416 21.7848 14.8309 21.6425 14.8258C21.5746 14.8234 21.5076 14.8212 21.4425 14.8241C21.3789 14.8312 21.316 14.8407 21.2529 14.8536C21.1841 14.8744 21.1191 14.9087 21.059 14.963L21.0549 15.0423C21.0436 15.2404 21.0176 15.439 20.9775 15.6334C20.9183 15.9201 20.8231 16.1939 20.6204 16.3973C20.5518 16.4998 20.4669 16.5913 20.3639 16.6706C19.9895 16.9589 19.4809 17.0648 19.0142 17.0249C18.0665 16.944 17.5188 16.1914 17.3925 15.8698L17.385 15.8503C17.2938 15.6111 17.2211 15.3009 16.933 15.2495L16.8717 15.2385C16.7402 15.2138 16.6189 15.1794 16.5418 15.0511C16.508 14.995 16.4906 14.9324 16.4864 14.8685C16.4414 14.8719 16.3965 14.8752 16.3517 14.8785C15.9946 14.954 13.8529 15.018 13.682 15.018C13.682 15.018 13.3534 15.1564 13.2146 15.0492C13.1185 14.9747 13.0868 14.8753 13.1398 14.7628C13.2196 14.5934 13.5881 14.4915 13.7518 14.4593C13.7518 14.4593 16.3923 14.4812 16.5823 14.4452C16.6999 14.3239 16.9103 14.3405 17.086 14.3213C17.2315 14.2175 17.435 14.148 17.5958 14.1015C17.6286 14.089 17.661 14.077 17.6926 14.0657C17.9873 13.9607 18.2937 13.9051 18.6048 13.8752C18.9255 13.8447 19.2472 13.8585 19.5661 13.9022C19.7005 13.9205 19.8336 13.944 19.9658 13.9749C20.2025 14.0061 20.4378 14.0575 20.6745 14.1185L20.7219 14.1308C20.9712 14.1962 21.2275 14.2528 21.4856 14.2085C21.6957 14.1726 21.8978 14.0917 22.0915 14.0042L22.1167 13.9928C22.5427 13.7982 23.208 13.6514 23.6873 13.6514ZM19.9401 14.3628C19.783 14.3282 19.7158 14.5707 19.8735 14.6054C19.9852 14.6299 20.0798 14.6862 20.1437 14.7817L20.1505 14.7921C20.2363 14.9286 20.4532 14.8026 20.3668 14.6651C20.2696 14.5104 20.1186 14.4021 19.9401 14.3628ZM24.5438 14.2125C24.4884 14.1735 24.4045 14.2025 24.3723 14.2576C24.3369 14.3184 24.3601 14.386 24.412 14.4258L24.4173 14.4297C24.4649 14.4632 24.5113 14.5234 24.5171 14.585L24.5176 14.5928C24.5239 14.7541 24.7745 14.7549 24.7682 14.5928C24.7621 14.4341 24.6703 14.3016 24.5438 14.2125Z" fill="black"/>
</svg>
