<svg width="36" height="48" viewBox="0 0 36 48" fill="none" xmlns="http://www.w3.org/2000/svg">
<path fill-rule="evenodd" clip-rule="evenodd" d="M22.8154 22.2386C22.2357 21.8165 21.9482 21.1254 21.7319 21.0077C21.5728 20.9212 21.5757 20.324 21.2567 20.1126C20.8286 19.829 19.4645 19.618 18.9683 19.5786C18.4919 19.5407 17.6634 19.6203 17.2165 19.7948C16.4712 20.0857 16.1739 20.6408 15.8457 21.3559C15.8457 21.3559 23.2137 22.5286 22.8154 22.2386Z" fill="#D08B5B"/>
<path fill-rule="evenodd" clip-rule="evenodd" d="M12.0041 22.7314H23.7838L27.8612 26.3601L29.6709 41.6121L27.0968 42.4139L11.1922 42.6798L6.22497 41.2749L5.91504 30.6583L12.0041 22.7314Z" fill="#78E185"/>
<path fill-rule="evenodd" clip-rule="evenodd" d="M28.0143 38.8421C27.9322 38.8011 27.8467 38.7542 27.753 38.751C27.592 38.7454 27.5918 38.4948 27.753 38.5005C27.8935 38.5054 28.017 38.564 28.1407 38.6258C28.285 38.6979 28.158 38.9139 28.0143 38.8421ZM27.753 31.7914C27.8628 31.7915 27.9735 31.8053 28.0579 31.8822C28.108 31.9279 28.104 32.0131 28.0579 32.0593C28.0084 32.1087 27.9308 32.1048 27.8808 32.0593C27.8971 32.0741 27.8809 32.0594 27.875 32.0561C27.8736 32.0554 27.8728 32.0549 27.8724 32.0545C27.8712 32.0542 27.8699 32.054 27.8679 32.0534C27.8548 32.0501 27.8419 32.0469 27.8287 32.0445C27.8284 32.0452 27.8007 32.0427 27.7942 32.0424C27.7804 32.0419 27.7667 32.0419 27.753 32.0419C27.6851 32.0418 27.6278 31.9846 27.6278 31.9166C27.6278 31.849 27.6853 31.7913 27.753 31.7914ZM26.5757 34.6011C26.5398 34.7585 26.2985 34.6915 26.3342 34.5345C26.3862 34.3064 26.3768 34.0726 26.3342 33.8436C26.3049 33.6858 26.5463 33.6188 26.5757 33.777C26.6267 34.0517 26.6381 34.3273 26.5757 34.6011ZM26.2594 25.5988C26.0729 25.5545 25.8885 25.5493 25.6978 25.5492C25.5364 25.5492 25.5366 25.2987 25.6978 25.2987C25.9105 25.2988 26.1182 25.3079 26.326 25.3573C26.4829 25.3946 26.4161 25.636 26.2594 25.5988ZM25.6346 31.7001C25.5264 31.646 25.4182 31.5919 25.3101 31.5378C25.1657 31.4656 25.2927 31.2497 25.4364 31.3215L25.761 31.4839C25.9052 31.556 25.7783 31.772 25.6346 31.7001ZM25.5895 36.6329C25.4523 36.8308 25.2595 36.9537 25.028 37.0151C24.8718 37.0565 24.8057 36.8148 24.9614 36.7736C25.1269 36.7297 25.274 36.6497 25.3733 36.5065C25.4646 36.3748 25.6816 36.5002 25.5895 36.6329ZM24.7243 27.8137C24.6872 27.7443 24.6313 27.715 24.562 27.7134C24.4009 27.7098 24.4008 27.4593 24.562 27.463C24.72 27.4665 24.865 27.5459 24.9405 27.6873C25.0165 27.8295 24.8003 27.956 24.7243 27.8137ZM23.1362 29.5163C23.0913 29.5653 23.0042 29.564 22.9591 29.5163C22.9315 29.4872 22.9082 29.4546 22.89 29.4188C22.883 29.4053 22.8765 29.3915 22.8688 29.3783C22.8654 29.3724 22.8616 29.3666 22.8578 29.361C22.8564 29.3598 22.8537 29.357 22.8509 29.354C22.8028 29.3031 22.804 29.228 22.8509 29.1769C22.8958 29.128 22.9829 29.1292 23.028 29.1769C23.0556 29.2061 23.0789 29.2387 23.0971 29.2744C23.1041 29.288 23.1106 29.3018 23.1183 29.315C23.1217 29.3208 23.1255 29.3266 23.1293 29.3323C23.1307 29.3334 23.1334 29.3362 23.1362 29.3392C23.1843 29.3901 23.1831 29.4652 23.1362 29.5163ZM23.0026 33.2151C22.8396 33.2897 22.6607 33.2897 22.4977 33.2151C22.4359 33.1868 22.4213 33.0976 22.4528 33.0437C22.4893 32.9813 22.5626 32.9707 22.6241 32.9988C22.698 33.0326 22.8024 33.0326 22.8763 32.9988C22.938 32.9706 23.0106 32.9806 23.0476 33.0437C23.0793 33.098 23.0641 33.1869 23.0026 33.2151ZM22.5579 35.8332C22.5298 35.8995 22.4693 35.9348 22.3986 35.9375C22.3285 35.9401 22.2764 35.878 22.2734 35.8122C22.2715 35.7698 22.2945 35.7335 22.3274 35.711C22.3275 35.7087 22.3275 35.7064 22.3275 35.704C22.3276 35.6338 22.3849 35.5818 22.4527 35.5788C22.5203 35.5757 22.5779 35.6385 22.5779 35.704C22.5779 35.7482 22.5752 35.7921 22.5579 35.8332ZM21.9118 39.9954C21.712 39.9986 21.5168 40.0463 21.3169 40.0495C21.1555 40.0521 21.156 39.8016 21.3169 39.799C21.5168 39.7958 21.712 39.7481 21.9118 39.7449C22.0733 39.7423 22.0728 39.9928 21.9118 39.9954ZM21.0809 23.9435C20.964 24.0549 20.8195 24.1098 20.677 24.1795C20.5327 24.25 20.4059 24.0339 20.5506 23.9632C20.6713 23.9042 20.8049 23.8606 20.9039 23.7664C21.0206 23.6551 21.1979 23.8321 21.0809 23.9435ZM20.767 26.8307C20.6849 26.7897 20.5994 26.7428 20.5057 26.7395C20.3447 26.7339 20.3445 26.4834 20.5057 26.4891C20.6462 26.4939 20.7697 26.5526 20.8934 26.6144C21.0377 26.6864 20.9108 26.9024 20.767 26.8307ZM19.2618 38.4184C19.2247 38.349 19.1688 38.3197 19.0995 38.3181C18.9383 38.3145 18.9383 38.064 19.0995 38.0676C19.2575 38.0712 19.4025 38.1506 19.478 38.292C19.554 38.4343 19.3378 38.5606 19.2618 38.4184ZM18.7405 32.9791C18.6907 32.9333 18.6942 32.8483 18.7405 32.802C18.7946 32.7479 18.8487 32.6938 18.9028 32.6397C18.9523 32.5902 19.0298 32.5938 19.0798 32.6397C19.1297 32.6854 19.1262 32.7704 19.0798 32.8168C19.0257 32.8709 18.9717 32.925 18.9176 32.9791C18.8681 33.0286 18.7905 33.025 18.7405 32.9791ZM18.1259 41.4563C17.9453 41.452 17.776 41.4002 17.6059 41.3436C17.4535 41.2928 17.5192 41.051 17.6725 41.102C17.8203 41.1512 17.9688 41.2021 18.1259 41.2058C18.2871 41.2095 18.2872 41.46 18.1259 41.4563ZM17.3147 36.0998C17.1515 36.0953 17.0161 36.0121 16.9016 35.9008C16.7859 35.7882 16.9631 35.6112 17.0787 35.7237C17.1442 35.7874 17.2198 35.8467 17.3147 35.8493C17.4758 35.8538 17.4759 36.1043 17.3147 36.0998ZM17.8185 29.2113C17.8204 29.278 17.8486 29.3495 17.89 29.3933C18.0006 29.5105 17.8238 29.6879 17.7129 29.5704C17.6215 29.4736 17.5719 29.3439 17.5681 29.2113C17.5634 29.0498 17.8139 29.0505 17.8185 29.2113ZM15.9086 23.7558C15.8562 23.6532 15.7875 23.5328 15.6831 23.4761C15.5412 23.3991 15.6677 23.1829 15.8094 23.2598C15.9514 23.3369 16.053 23.4888 16.1248 23.6294C16.198 23.7728 15.9819 23.8994 15.9086 23.7558ZM15.584 26.3608C15.5259 26.3591 15.4682 26.3492 15.4122 26.334C15.3883 26.3275 15.3646 26.32 15.3406 26.3135C15.3304 26.3107 15.2868 26.3053 15.3136 26.3067C15.2458 26.3031 15.1884 26.2523 15.1884 26.1815C15.1884 26.1164 15.246 26.0526 15.3136 26.0562C15.4065 26.0612 15.491 26.1077 15.584 26.1103C15.745 26.1149 15.7451 26.3653 15.584 26.3608ZM14.7727 30.3646H14.5023C14.3409 30.3646 14.3412 30.1141 14.5023 30.1141H14.7727C14.9341 30.1141 14.9338 30.3646 14.7727 30.3646ZM14.4573 41.4391C14.3753 41.4802 14.2786 41.5191 14.2122 41.5819C14.0951 41.6927 13.9178 41.5157 14.0352 41.4048C14.1198 41.3248 14.2279 41.2744 14.3309 41.2229C14.3916 41.1925 14.4662 41.2062 14.5022 41.2678C14.5348 41.3235 14.5178 41.4089 14.4573 41.4391ZM13.8531 38.2742C13.8426 38.2713 13.8315 38.2693 13.8209 38.2678C13.7783 38.262 13.7338 38.2641 13.691 38.264C13.5297 38.2639 13.5299 38.0134 13.691 38.0135C13.818 38.0136 13.9502 38.0154 14.05 38.1043C14.1007 38.1495 14.0958 38.2357 14.05 38.2814C14.0002 38.3312 13.9234 38.3264 13.8729 38.2814C13.8783 38.2862 13.86 38.2761 13.8531 38.2742ZM13.6911 34.0176C13.7275 33.9426 13.728 33.8937 13.7281 33.8103C13.7282 33.6489 13.9786 33.6491 13.9785 33.8103C13.9784 33.9314 13.9604 34.0344 13.9073 34.1441C13.8777 34.2052 13.7909 34.2211 13.736 34.189C13.6745 34.153 13.6616 34.0785 13.6911 34.0176ZM12.9671 28.1418C12.8219 28.1912 12.6923 28.2612 12.5644 28.3456C12.4294 28.4347 12.3041 28.2177 12.438 28.1293C12.5839 28.033 12.7349 27.9566 12.9005 27.9002C13.0537 27.8481 13.1189 28.0902 12.9671 28.1418ZM12.1226 23.926C12.0147 23.9291 11.9033 23.9704 11.8072 24.0172C11.6627 24.0874 11.5359 23.8713 11.6808 23.8009C11.8182 23.7341 11.9684 23.6799 12.1226 23.6756C12.2841 23.671 12.2834 23.9215 12.1226 23.926ZM11.744 35.18C11.7016 35.1819 11.6653 35.159 11.6428 35.126C11.6405 35.126 11.6381 35.1259 11.6358 35.1259C11.5657 35.1259 11.5137 35.0685 11.5106 35.0006C11.5076 34.933 11.5703 34.8754 11.6358 34.8754C11.68 34.8754 11.7239 34.8781 11.7649 34.8955C11.8313 34.9235 11.8665 34.984 11.8692 35.0548C11.8718 35.1249 11.8097 35.1771 11.744 35.18ZM11.1282 26.5186C10.9745 26.5689 10.9092 26.327 11.0617 26.2771C11.2407 26.2186 11.4236 26.1733 11.6026 26.1148C11.7563 26.0645 11.8216 26.3065 11.6691 26.3563C11.4902 26.4148 11.3072 26.4601 11.1282 26.5186ZM10.5667 31.2466C10.519 31.4003 10.2774 31.3343 10.3252 31.18C10.3714 31.031 10.3748 30.8811 10.3749 30.7263C10.3749 30.5649 10.6253 30.5651 10.6252 30.7263C10.6252 30.9025 10.6192 31.077 10.5667 31.2466ZM8.89263 36.9094C8.88352 36.9717 8.83407 37.0167 8.76934 37.0196C8.70346 37.0225 8.64177 36.9599 8.64415 36.8943C8.64875 36.7683 8.7515 36.6655 8.87751 36.6609C8.94762 36.6583 8.99977 36.7203 9.00271 36.7861C9.00559 36.8501 8.95219 36.9 8.89263 36.9094ZM8.04543 29.7109C7.91313 29.7551 7.77175 29.7971 7.66803 29.8951C7.55082 30.0057 7.37354 29.8289 7.49097 29.718C7.62775 29.5888 7.80368 29.5278 7.97889 29.4693C8.13232 29.4181 8.19751 29.6601 8.04543 29.7109ZM7.47125 34.5769C7.43488 34.6391 7.36124 34.6503 7.29999 34.6218C7.21786 34.5836 7.12718 34.5849 7.03864 34.5848C6.87729 34.5847 6.87754 34.3342 7.03864 34.3343C7.17523 34.3345 7.30124 34.3473 7.42637 34.4055C7.48794 34.4342 7.50293 34.5227 7.47125 34.5769ZM7.14681 40.4824C7.0767 40.4849 7.02456 40.4229 7.02161 40.3571C7.01873 40.2931 7.0721 40.2432 7.13172 40.2339C7.1408 40.1715 7.19028 40.1265 7.25498 40.1237C7.32089 40.1207 7.38258 40.1833 7.38017 40.2489C7.37557 40.375 7.27288 40.4777 7.14681 40.4824ZM29.9583 41.4295C29.9157 41.2763 29.8184 41.1527 29.7448 41.0149C29.7202 40.9685 29.7116 40.9396 29.6982 40.9056C29.6801 40.9419 29.6448 40.9693 29.5918 40.9693C29.4902 40.9693 29.3713 40.9628 29.2764 41.0063C29.2147 41.0346 29.1421 41.0245 29.1052 40.9614C29.0734 40.9071 29.0886 40.8182 29.1501 40.79C29.2899 40.7259 29.4402 40.7189 29.5918 40.7188C29.6293 40.7188 29.6577 40.7326 29.6777 40.7533C29.7357 39.9593 29.7342 39.1647 29.6794 38.37C29.6209 37.5209 29.4863 36.6886 29.3454 35.8504C29.2772 35.444 29.1887 35.0335 29.2059 34.6196C29.2231 34.2085 29.3993 33.8252 29.2744 33.4129C29.2243 33.2475 29.1386 33.096 29.0829 32.9325C29.0231 32.7566 29.0284 32.5828 29.0556 32.4006C29.1117 32.0295 29.2046 31.6629 29.0559 31.3006C28.9902 31.14 28.8838 30.9966 28.8325 30.8306C28.7686 30.6243 28.7774 30.396 28.7667 30.1822C28.7452 29.7507 28.7395 29.3164 28.7038 28.8859C28.6879 28.693 28.6531 28.5102 28.5739 28.3333C28.4979 28.1629 28.3849 28.0079 28.3345 27.8273C28.2844 27.6494 28.2801 27.4619 28.2531 27.2799C28.225 27.0877 28.1808 26.8983 28.1214 26.7135C27.8916 25.9984 27.4707 25.3559 26.9733 24.7988C26.4447 24.2068 25.8128 23.7609 25.142 23.3454C24.7893 23.1269 24.4366 22.9084 24.0842 22.6899C24.0767 22.7309 24.0505 22.7686 24.0004 22.7854C23.868 22.8296 23.7267 22.8716 23.6229 22.9696C23.5057 23.0802 23.3284 22.9033 23.4459 22.7925C23.5684 22.6767 23.7223 22.6158 23.879 22.5623C23.7184 22.4611 23.5561 22.3562 23.3749 22.2977C23.2162 22.2464 22.9821 22.2911 22.8534 22.1747C22.7523 22.0829 22.7204 21.9129 22.6816 21.7883C22.6331 21.6336 22.5912 21.4705 22.5295 21.3202C22.4876 21.2175 22.4265 21.1188 22.3495 21.0393C22.3157 20.9091 22.2537 20.7901 22.1442 20.7178C21.8575 20.528 21.5054 20.7165 21.3793 20.987C21.275 20.9867 21.1652 21.0096 21.0638 21.0158C20.8553 21.029 20.6466 21.0349 20.4378 21.0343C20.0293 21.0331 19.6206 21.0064 19.2156 20.9523C18.4913 20.8552 17.7887 20.6595 17.0766 20.507C17.0725 20.4976 17.0678 20.4882 17.0622 20.4788C16.9088 20.2215 16.5267 20.265 16.286 20.3624C16.1827 20.404 16.0775 20.4566 16.0184 20.5543C15.9558 20.5966 15.9016 20.6479 15.8657 20.7021C15.7912 20.8139 15.7336 21.0393 15.5824 21.0581C15.4829 21.0703 15.3818 21.0512 15.2807 21.0656C15.1542 21.0832 15.0409 21.1276 14.9242 21.1783C14.0353 21.5644 13.1164 21.9937 12.1517 22.1433C11.9254 22.1784 11.6951 22.2147 11.4985 22.3415C11.3389 22.4446 11.2155 22.5861 11.0838 22.7204C10.9555 22.8513 10.8497 22.9092 10.6666 22.9327C10.4444 22.9612 10.2519 23.0226 10.0894 23.1841C9.95454 23.3185 9.86659 23.49 9.7608 23.646C9.6531 23.805 9.49507 23.8946 9.33107 23.9869C8.94327 24.2055 8.58208 24.4695 8.26753 24.786C7.60493 25.4536 7.20368 26.3115 6.7993 27.1475C6.36205 28.0518 5.95329 28.967 5.66972 29.9326C5.39179 30.8807 5.22653 31.8561 5.15016 32.8405C5.06972 33.8734 5.05845 34.9105 4.99147 35.9441C4.95798 36.4604 4.93263 36.9773 4.90697 37.494C4.88193 38.0043 4.84531 38.5156 4.85122 39.0266C4.86252 40.0145 5.05999 41.0055 5.40524 41.9304C5.49132 42.1606 5.58675 42.3876 5.68847 42.6111C5.7777 42.8075 6.08287 42.7855 6.17864 42.6111C6.20055 42.5711 6.21776 42.5297 6.23216 42.4878C6.48255 42.49 6.73545 42.4706 6.98427 42.4937C7.42371 42.5347 7.86406 42.5576 8.30474 42.5848C9.17676 42.639 10.0503 42.675 10.9226 42.7248C11.0072 42.7296 11.0919 42.7345 11.1765 42.7395C10.5549 40.8147 10.6355 38.7338 10.5371 36.732C10.5292 36.5707 10.7796 36.5716 10.7875 36.732C10.8863 38.7424 10.8022 40.8286 11.4458 42.7565C11.6955 42.7735 11.9448 42.7941 12.1934 42.8244C12.3943 42.8485 12.5962 42.877 12.799 42.867C13.029 42.856 13.2538 42.8034 13.4782 42.7577C13.886 42.6747 14.2788 42.7123 14.6882 42.7633C15.1261 42.8181 15.5655 42.8485 16.0062 42.8676C17.7708 42.9449 19.5473 43.0154 21.3113 42.8973C21.7383 42.8688 22.1642 42.8288 22.5883 42.7743C23.0253 42.7182 23.4575 42.624 23.8941 42.5704C24.3245 42.5178 24.7201 42.6622 25.1455 42.6888C25.5792 42.716 26.0247 42.6255 26.4544 42.5736C26.5946 42.5566 26.7349 42.54 26.8753 42.5236C26.6946 41.2845 26.5918 40.036 26.492 38.788C26.4791 38.6271 26.7296 38.6285 26.7424 38.788C26.8414 40.0263 26.9419 41.2654 27.1223 42.4948C27.8664 42.4082 28.6113 42.3206 29.3477 42.1856C29.5574 42.1474 29.7658 42.0851 29.8913 41.8979C29.9842 41.7592 30.0031 41.5891 29.9583 41.4295Z" fill="black"/>
<path fill-rule="evenodd" clip-rule="evenodd" d="M26.1319 13.6377C25.8461 12.0753 25.1413 10.5887 24.059 9.42554C23.9341 9.28743 23.8219 9.06956 23.6313 9.03475C23.44 8.64395 23.0754 8.36769 22.7839 8.05211C22.1476 7.41615 21.5389 6.70548 20.7183 6.30388C16.9119 4.7345 13.2491 9.20937 12.4718 12.5747C11.6997 15.2812 12.5429 19.0146 15.8887 19.1242C16.362 19.7518 17.0151 20.1862 17.6861 20.5742C18.6023 21.1622 19.6017 21.401 20.6617 21.0737C21.7173 21.3502 22.8117 20.4628 23.4461 19.6845C23.9475 19.0817 24.2912 18.346 24.7498 17.722C25.2913 17.7084 25.7593 17.2488 25.8317 16.71C26.3375 15.7783 26.3145 14.6618 26.1319 13.6377Z" fill="#D08B5B"/>
<path fill-rule="evenodd" clip-rule="evenodd" d="M12.4718 12.5747C13.2491 9.20937 16.9119 4.7345 20.7183 6.30388C21.5389 6.70548 22.1476 7.41615 22.7839 8.05211C23.0754 8.36769 23.44 8.64395 23.6313 9.03475C23.8219 9.06956 23.9341 9.28743 24.059 9.42554C25.1413 10.5887 25.8461 12.0753 26.1319 13.6377C26.3145 14.6618 26.3375 15.7783 25.8317 16.71C25.7593 17.2488 25.2913 17.7084 24.7498 17.722C24.6506 17.857 24.5567 17.9973 24.4655 18.1403L24.4439 18.1476L24.4413 17.9892C24.3956 15.423 24.2482 13.8739 23.999 13.3419C23.7473 12.8045 22.6641 11.8205 20.7493 10.39L20.691 10.3465L20.2415 9.97438L19.8927 10.3692C18.5804 11.8532 17.5531 12.9984 16.8109 13.8046C16.0123 14.6723 15.3366 15.9922 14.7838 17.7644L14.7671 17.8183L15.7437 19.1171C12.5187 18.9059 11.711 15.2417 12.4718 12.5747Z" fill="#9DDADB"/>
<path fill-rule="evenodd" clip-rule="evenodd" d="M17.8408 5.77174C18.5334 5.60951 19.2597 5.64314 19.9458 5.82143C21.3055 6.17484 22.4243 7.09385 23.3519 8.11851C24.2568 9.11796 25.003 10.2637 25.548 11.498L25.5756 11.5607C25.9611 12.4406 26.296 13.3551 26.3104 14.3238C26.3228 15.1576 26.2388 16.0263 25.9701 16.8193C25.7307 17.5258 25.2904 18.2377 24.5329 18.407C24.0961 19.5201 23.2416 20.484 22.1652 20.9997C21.4975 21.3196 20.7643 21.4624 20.0262 21.3914C19.2731 21.319 18.5696 20.9563 17.981 20.4936C17.9649 20.481 17.9856 20.4564 18.0023 20.466C18.7109 20.8754 19.549 21.0217 20.3607 20.9948C21.6946 20.9506 22.9175 20.2288 23.6201 19.0943C23.795 18.812 23.9508 18.5141 24.075 18.2043C24.0678 18.1788 24.0636 18.153 24.0636 18.1278C24.0636 18.0211 24.1141 17.9395 24.1895 17.8868C24.2244 17.7773 24.2554 17.6666 24.2812 17.5546C24.3397 17.3009 24.3724 17.0435 24.3921 16.7841C24.4081 16.5734 24.3992 16.3498 24.4204 16.1336C24.4127 15.9604 24.402 15.7874 24.3863 15.6148C24.336 15.0584 24.2341 14.5035 24.0378 13.9791C23.8391 13.448 23.5251 12.9797 23.129 12.5766C22.2794 11.7119 21.2216 11.0806 20.3955 10.1924L20.3522 10.1454L20.3493 10.1445C20.2468 10.2499 20.1443 10.3552 20.0416 10.4604L19.5723 10.9403C18.6144 11.9208 17.6642 12.9109 16.8309 14.002C16.3511 14.6303 15.92 15.289 15.5485 15.9874C15.3726 16.3182 15.2131 16.6572 15.069 17.0031L15.0122 17.1407C14.9447 17.3055 14.8718 17.4899 14.8313 17.676C14.9518 17.7959 15.04 17.9721 15.1375 18.1082C15.2481 18.2625 15.3757 18.4094 15.5069 18.5465C15.6397 18.6853 15.7854 18.8184 15.9401 18.9324L15.9587 18.9458C16.1361 19.0721 16.3398 19.1593 16.3665 19.3996C16.378 19.504 16.2849 19.5879 16.1988 19.6204C15.9629 19.7092 15.7185 19.4541 15.5613 19.3073C15.4632 19.2157 15.3731 19.1171 15.2895 19.0129C15.2082 19.0246 15.1263 19.0304 15.0452 19.0208C14.9196 19.0058 14.7953 18.9838 14.6729 18.9515C13.6582 18.6845 12.9072 17.84 12.502 16.8995C11.9579 15.6368 11.9706 14.1813 12.1967 12.8461C12.61 10.406 13.9474 8.12728 15.967 6.68461C16.5326 6.28057 17.1598 5.93124 17.8408 5.77174ZM18.9341 6.09816C17.6294 6.02924 16.44 6.70368 15.4856 7.54323C13.748 9.07184 12.6777 11.31 12.4624 13.6083C12.348 14.8294 12.4336 16.1457 13.0688 17.2245C13.3152 17.6431 13.6326 18.0079 14.0072 18.3154C14.3602 18.6053 14.7627 18.7723 15.1929 18.886C15.1733 18.8589 15.1539 18.8317 15.1351 18.804C15.0351 18.6572 14.9556 18.501 14.889 18.3375C14.8831 18.3434 14.8721 18.3445 14.8655 18.3356C14.594 17.962 14.679 17.5164 14.8084 17.1056C14.9441 16.6748 15.1161 16.2556 15.3124 15.849C16.0279 14.3671 17.0922 13.0761 18.1969 11.8714C18.7611 11.2562 19.344 10.6588 19.9247 10.0593C20.2147 9.75996 20.504 9.45975 20.7896 9.1561C20.9317 9.00493 21.073 8.85297 21.213 8.6998C21.3514 8.54835 21.4759 8.38794 21.6483 8.2745C21.7857 8.18411 21.9228 8.35688 21.8586 8.48538C21.7598 8.68303 21.59 8.83971 21.4397 9.00043L21.4242 9.01708C21.2777 9.17564 21.1298 9.33291 20.9811 9.48934C20.81 9.66926 20.6375 9.84795 20.4646 10.0262C20.6121 10.009 20.7613 9.99918 20.908 9.97686C21.1071 9.94655 21.3036 9.9019 21.499 9.85333C21.705 9.8022 21.9083 9.73692 22.1046 9.65576C22.2889 9.57955 22.4632 9.45744 22.666 9.44548C22.8378 9.43533 22.8914 9.64847 22.7962 9.76062C22.6651 9.91517 22.4294 9.976 22.2377 10.0334L22.2106 10.0416C21.9986 10.1065 21.7816 10.1551 21.5623 10.1877C21.2737 10.2305 20.9402 10.2501 20.6315 10.2063C21.248 10.5687 21.8154 11.0178 22.3811 11.4558L22.4809 11.533C23.0336 11.9593 23.5731 12.4189 23.9672 13.0022C24.3351 13.5467 24.5572 14.1807 24.6818 14.823C24.7433 15.1399 24.7839 15.4602 24.8111 15.7818C24.9126 16.0669 24.8963 16.4059 24.8708 16.7195L24.8616 16.8277L24.8623 16.8595C24.8661 17.0556 24.9448 17.4923 24.7596 17.6404C24.7565 17.6562 24.7535 17.672 24.7502 17.6878C24.7733 17.6735 24.796 17.6589 24.8186 17.6438C24.8279 17.6375 24.8369 17.6307 24.846 17.6239L24.8716 17.6029C24.8725 17.6021 24.8734 17.6013 24.874 17.6007C24.9315 17.5502 24.9863 17.4974 25.0374 17.4403C25.1318 17.3348 25.2216 17.2008 25.3066 17.0464C25.4934 16.7069 25.6128 16.338 25.7051 15.9565C25.8738 15.259 25.9434 14.5099 25.8664 13.7946C25.8557 13.6948 25.8336 13.5696 25.7994 13.4412C25.7182 13.1362 25.6248 12.8344 25.5202 12.5368C25.311 11.9413 25.0545 11.3635 24.7555 10.8079C24.1481 9.67949 23.3667 8.63621 22.4304 7.76072C21.4822 6.87408 20.2525 6.16779 18.9341 6.09816ZM17.0942 9.70363C17.1412 9.67482 17.1897 9.73078 17.1663 9.77593C17.0534 9.99445 16.8634 10.1789 16.7056 10.3662C16.5422 10.5601 16.38 10.755 16.2183 10.9502C15.8888 11.3477 15.5673 11.7525 15.2584 12.1663L15.1769 12.2758C14.9053 12.6412 14.6371 13.0124 14.3997 13.4007C14.2755 13.6038 14.1661 13.8138 14.0667 14.0302C13.9721 14.2361 13.9285 14.4847 13.8148 14.6781C13.8076 14.6903 13.7855 14.6893 13.7827 14.6739C13.7456 14.4656 13.8373 14.2148 13.9028 14.0197C13.9806 13.7878 14.0914 13.5668 14.2101 13.3534C14.4575 12.9083 14.754 12.4911 15.0518 12.0789C15.3543 11.6604 15.6683 11.2504 15.9978 10.8528C16.1526 10.6661 16.3108 10.483 16.4737 10.3036L16.5351 10.2365C16.7058 10.0509 16.8778 9.83608 17.0942 9.70363ZM16.3032 9.05654C16.3806 8.99908 16.4466 9.1165 16.3973 9.17875C16.1025 9.55053 15.767 9.88459 15.4444 10.2313C15.1346 10.5643 14.8384 10.9098 14.559 11.2688C13.9892 12.001 13.5331 12.8044 13.1468 13.6463C13.1395 13.6622 13.1166 13.6504 13.1201 13.635C13.3247 12.7243 13.803 11.8971 14.3477 11.1498L14.3684 11.1214C14.9193 10.3699 15.5526 9.61435 16.3032 9.05654Z" fill="black"/>
<path fill-rule="evenodd" clip-rule="evenodd" d="M19.0992 17.6529C19.441 17.4469 20.7188 17.5979 21.7225 17.6529C22.5195 17.6965 23.0888 17.61 23.271 17.7327C23.6827 18.0099 23.4827 19.3501 22.7734 19.5334C22.064 19.7167 19.4345 19.9727 18.9811 19.5334C18.5278 19.0941 18.4859 18.0223 19.0992 17.6529Z" fill="white"/>
<path fill-rule="evenodd" clip-rule="evenodd" d="M19.5422 17.2987C20.0788 17.2336 20.5988 17.3979 21.1233 17.4807C21.4003 17.5244 21.6776 17.5571 21.9578 17.5692C22.0142 17.5717 22.0706 17.5731 22.127 17.5742C22.1322 17.5246 22.16 17.479 22.2202 17.4516C22.3437 17.3957 22.4424 17.3704 22.578 17.3758C22.702 17.3807 22.8265 17.3935 22.9486 17.4159C23.1705 17.4565 23.3933 17.5489 23.5555 17.7092C23.931 18.0804 23.8739 18.6765 23.5837 19.0808C22.9843 19.9161 21.8902 19.9548 20.9532 19.9439L20.8667 19.9428C20.0135 19.9306 18.7929 20.0579 18.4053 19.0868C18.2627 18.7297 18.2825 18.3158 18.457 17.9733C18.6652 17.5648 19.1034 17.352 19.5422 17.2987ZM22.2073 18.6895L22.1997 18.6898C21.8063 18.705 21.413 18.7156 21.0194 18.7226C21.0312 18.8237 21.0432 18.9249 21.0569 19.0258C21.0677 19.1052 21.0793 19.1845 21.0913 19.2637C21.0964 19.2972 21.1151 19.3493 21.1098 19.3825L21.1079 19.3956C21.1281 19.4048 21.1464 19.4195 21.1601 19.4409C21.1648 19.4483 21.1683 19.4557 21.1717 19.4632C21.4773 19.4656 21.8061 19.4596 22.1176 19.4041L22.1182 19.3973C22.1239 19.3575 22.1404 19.3307 22.1624 19.3123C22.1843 19.1854 22.1823 19.0501 22.1908 18.9241C22.1961 18.8459 22.2018 18.7677 22.2073 18.6895ZM20.7188 18.728C20.4353 18.7328 20.1516 18.7365 19.8682 18.733L19.7395 18.7311C19.7666 18.8769 19.7962 19.0223 19.8208 19.1691C19.8464 19.3221 19.7118 19.4194 19.5953 19.4155C19.6084 19.4176 19.6214 19.4198 19.6345 19.4217C19.9986 19.4732 20.3766 19.4595 20.7461 19.4591C20.7262 19.343 20.7342 19.2121 20.7313 19.1152L20.7307 19.1002C20.725 18.9761 20.7211 18.852 20.7188 18.728ZM18.7929 18.7012C18.8028 18.777 18.8219 18.8513 18.8506 18.9204C18.9716 19.2123 19.249 19.3486 19.5426 19.4059C19.4917 19.3883 19.4512 19.3461 19.441 19.2737C19.4156 19.0936 19.4064 18.9106 19.4057 18.7277C19.2011 18.7258 18.9952 18.7215 18.7929 18.7012ZM23.2743 18.6389C23.1286 18.6732 22.9593 18.6575 22.8164 18.664C22.6825 18.6701 22.5486 18.6754 22.4147 18.6808C22.421 18.7722 22.4271 18.8636 22.4338 18.955C22.4424 19.0731 22.4433 19.198 22.4659 19.3156C22.7353 19.2236 22.9768 19.076 23.1579 18.8401C23.2031 18.7813 23.2435 18.7124 23.2743 18.6389ZM19.4807 17.7777C19.2382 17.8352 19.0087 17.9565 18.8854 18.1785C18.8122 18.3102 18.78 18.4663 18.7862 18.6201C18.9911 18.5963 19.1996 18.5872 19.407 18.5797C19.4077 18.5424 19.4086 18.505 19.4097 18.4678L19.4129 18.3723C19.4186 18.1902 19.4214 17.9615 19.4807 17.7777ZM20.7358 17.7999L20.629 17.7879C20.3325 17.7541 20.0362 17.7187 19.7397 17.739C19.6968 17.742 19.6532 17.7466 19.6095 17.753C19.662 17.9422 19.6576 18.1644 19.6794 18.3517C19.6879 18.4241 19.6986 18.4959 19.7104 18.5675L19.7619 18.5651C20.08 18.5478 20.3985 18.5372 20.7169 18.5246C20.7169 18.4648 20.7172 18.4049 20.7182 18.3451L20.7193 18.2852C20.723 18.1323 20.7131 17.96 20.7358 17.7999ZM22.2246 17.7757C21.9141 17.8258 21.5932 17.8365 21.2881 17.8368C21.1663 17.837 21.0445 17.8295 20.9228 17.8187C20.9307 17.8835 20.9349 17.9491 20.9408 18.0131C20.9528 18.1422 20.9666 18.2712 20.9815 18.4001L20.9948 18.5128C21.3862 18.4951 21.7775 18.4759 22.1688 18.456L22.224 18.4531L22.2395 18.2364C22.25 18.0919 22.2616 17.9474 22.278 17.8036L22.2657 17.7991C22.2513 17.7932 22.2376 17.785 22.2246 17.7757ZM22.3595 17.8294C22.3766 18.0338 22.3861 18.2389 22.3987 18.4436L22.6566 18.4298C22.6996 18.4275 22.7426 18.4251 22.7856 18.4226C22.9527 18.413 23.1675 18.3623 23.3327 18.4096C23.3454 18.2593 23.3024 18.1129 23.1668 18.0119C22.9288 17.8346 22.6257 17.8977 22.3595 17.8294ZM21.4782 16.003C21.8623 15.7829 22.826 15.558 22.8871 16.2495C22.9151 16.5677 22.6787 16.8314 22.4025 16.949L22.3921 16.9534C22.1331 17.0599 21.6741 17.1802 21.45 16.9492C21.2634 16.757 21.5108 16.4123 21.7426 16.5698C21.8618 16.6507 22.1125 16.591 22.2454 16.5525L22.2537 16.5501C22.3972 16.5079 22.5884 16.373 22.5291 16.1963C22.4766 16.04 22.2533 16.0114 22.1134 16.0063C21.9046 15.9989 21.7014 16.0474 21.4945 16.0631C21.4618 16.0656 21.4516 16.0182 21.4782 16.003ZM23.0693 14.891C23.5906 14.8666 23.9149 15.436 23.795 15.9026C23.7743 15.9831 23.6843 16.0621 23.5974 16.0531L23.5755 16.0511C23.5644 16.05 23.5532 16.0486 23.5429 16.0457C23.4604 16.0229 23.3865 15.937 23.3925 15.848L23.3941 15.8221C23.4062 15.6017 23.3824 15.3478 23.1205 15.2944C22.8985 15.2491 22.7745 15.4629 22.7719 15.6598C22.7714 15.6947 22.7321 15.7191 22.7012 15.7003C22.5407 15.6026 22.5129 15.4082 22.5742 15.2408C22.6519 15.0286 22.8464 14.9014 23.0693 14.891ZM19.2007 15.0131C19.58 14.8865 19.9893 15.0888 20.173 15.4244C20.2375 15.443 20.3018 15.4927 20.2929 15.5688C20.2799 15.6783 20.2605 15.7473 20.1846 15.8303C20.0659 15.9601 19.8437 15.8937 19.7944 15.7339L19.7923 15.7267C19.7362 15.52 19.5089 15.3837 19.3018 15.456C19.0598 15.5405 19.0669 15.7961 18.8971 15.9451C18.8772 15.9626 18.8533 15.9653 18.8294 15.9538C18.6491 15.8667 18.6815 15.6044 18.7458 15.4543C18.8301 15.2573 18.9939 15.0821 19.2007 15.0131ZM18.684 13.8607C18.9914 13.5469 19.793 13.2432 20.0033 13.8227C20.0434 13.9331 19.9581 14.0819 19.8432 14.1048C19.6551 14.1422 19.4882 14.0605 19.3014 14.0752C19.1501 14.0871 18.9923 14.1377 18.8714 14.2314C18.5364 14.4911 18.4628 14.9302 18.2294 15.2606C18.218 15.2767 18.1959 15.27 18.1938 15.251C18.1407 14.7699 18.3473 14.2043 18.684 13.8607ZM22.6932 13.5517C22.8972 13.4797 23.1283 13.4858 23.3333 13.5498C23.5399 13.6142 23.7295 13.7366 23.8756 13.8965C23.9419 13.969 24.0033 14.0491 24.0525 14.1344C24.0786 14.1796 24.1061 14.2729 24.1358 14.3285C24.2965 14.4213 24.3652 14.6328 24.2213 14.7833L24.2148 14.7899L24.1956 14.809C24.1182 14.8856 24.0016 14.9188 23.896 14.8882C23.6598 14.8198 23.6311 14.6336 23.5493 14.4361C23.4953 14.3056 23.4027 14.1901 23.2905 14.1053C23.0253 13.9049 22.5905 13.841 22.2712 13.9355C22.2542 13.9405 22.2343 13.9188 22.2464 13.9031C22.3069 13.8247 22.3417 13.7604 22.4227 13.6971C22.505 13.6329 22.5947 13.5866 22.6932 13.5517Z" fill="black"/>
</svg>
