<svg width="36" height="48" viewBox="0 0 36 48" fill="none" xmlns="http://www.w3.org/2000/svg">
<path fill-rule="evenodd" clip-rule="evenodd" d="M7.03189 42.3639C11.1209 42.9853 15.2841 43.0165 19.4072 42.7909C21.0389 42.6687 22.6756 42.6467 24.3061 42.8029C25.2695 42.8746 29.4936 43.1976 29.8387 42.3344C29.6215 37.7377 29.1816 33.102 27.832 28.6812C27.2769 27.1114 26.8002 25.8086 25.717 24.5096C25.3756 24.1549 24.6393 23.4111 24.2174 23.1685C23.8519 22.9584 23.6992 23.0333 23.4893 22.6784C23.2807 22.2863 23.1269 21.6315 22.8308 21.3548C22.5293 21.0731 22.0824 21.1739 21.5286 21.2646C21.6304 19.8891 20.9957 19.5388 20.1213 19.2772C18.5844 18.6904 17.0665 18.9852 16.6797 20.8569C15.9624 20.8569 15.5595 21.1656 15.124 21.4623C14.9459 21.5836 15.0698 21.8926 14.8571 21.9879C14.4636 22.1281 13.7683 22.0938 13.3895 22.2662C11.6667 23.0506 10.1322 24.188 9.1245 25.8491C6.86534 29.3956 5.31348 36.8663 5.58202 41.0697C5.46436 41.2543 5.62706 41.5189 5.66842 41.7174C5.72062 41.8901 5.88967 42.0049 6.06609 41.9853C6.31228 42.2502 6.69308 42.3091 7.03189 42.3639Z" fill="#D08B5B"/>
<path fill-rule="evenodd" clip-rule="evenodd" d="M15.5389 21.138C15.7909 20.8751 16.1859 20.7181 16.5601 20.7269L16.5776 20.7275L16.7046 20.7331L16.6197 21.1497L16.6154 21.1694L16.5981 21.2417L16.5751 21.3364L16.5669 21.3712L16.5582 21.4097C16.5569 21.416 16.5555 21.4222 16.5542 21.4283L16.5505 21.4465L16.5143 21.6235L16.521 21.6392L16.5191 21.6794C16.5135 21.8248 16.5448 21.9047 16.6137 21.9303L16.6193 21.9322L16.6586 21.9449L16.6907 22.0146C16.7646 22.1739 16.8335 22.3132 16.9043 22.4443C17.1106 22.8267 17.3569 23.209 17.6407 23.5931C17.9104 23.9582 18.1914 24.3066 18.4835 24.6374C18.6149 24.7862 18.7536 24.9356 18.9013 25.0876L19.0284 25.2179L19.0689 25.2588L19.0961 25.2859L19.13 25.3192L19.1789 25.3658L19.2143 25.4007L19.2258 25.4116C19.2402 25.425 19.2514 25.4341 19.2615 25.4406L19.2652 25.4429L19.2764 25.4495L19.8657 26.0696L20.0739 26.1841L20.1727 26.2389L20.1928 26.199L20.1968 26.1862L20.4159 25.705L20.5496 25.4102C20.8241 24.8039 21.0377 24.3215 21.2331 23.8622L21.2574 23.8049L21.3294 23.634L21.3675 23.5428C21.5421 23.1243 21.6711 22.8013 21.7865 22.4875L21.8029 22.4427L21.8272 22.3757L21.8633 22.2746L21.8699 22.2573C21.9012 22.177 21.8242 21.8852 21.7483 21.7253L21.7441 21.7164L21.7243 21.6768L21.703 21.635C21.6528 21.5371 21.6165 21.4284 21.586 21.2969C21.581 21.2756 21.5764 21.2541 21.572 21.2325L21.5656 21.1999L21.5616 21.1785L21.556 21.1486L21.5479 21.1057L21.7177 21.0773L21.8108 21.0621L21.8514 21.0558C21.904 21.0476 21.9509 21.041 21.9949 21.0354L22.0113 21.0333L22.0409 21.0298L22.0419 21.0357L22.1025 21.0416L22.1474 21.0463C22.3689 21.0697 22.5398 21.0955 22.6611 21.1242L22.6731 21.127L22.6947 21.1325L22.7046 21.1351C22.815 21.1648 22.9 21.229 22.9673 21.3237C23.0134 21.3887 23.0434 21.4509 23.0908 21.5688L23.1078 21.6114L23.1642 21.7509C23.1708 21.7679 23.181 21.795 23.1948 21.8323L23.2427 21.9627L23.4827 22.6257L23.7283 22.7549C23.8424 22.8147 23.9259 22.8578 23.9672 22.8781L23.9818 22.8853L23.9922 22.89L24.0769 22.9236L24.0678 22.95L24.078 22.9559C25.089 23.5377 25.8687 24.4327 26.4757 25.6209L26.4941 25.657L26.5129 25.6944C26.9966 26.6623 27.3432 27.7424 27.6817 29.1844L27.7026 29.274L27.7191 29.3453L27.8073 29.7302C28.1388 31.1831 28.3666 32.2665 28.5552 33.3296L28.5674 33.3989L28.5988 33.5795C28.8356 34.9555 29.0338 36.3191 29.1924 37.6692L29.2188 37.8965C29.2849 38.4766 29.3447 39.0763 29.4096 39.7965L29.4183 39.8932L29.4469 40.2167C29.4773 40.5652 29.5051 40.9131 29.5302 41.2602L29.5426 41.4337L29.568 41.8109L29.5829 42.0259L29.5847 42.055L29.5907 42.167L29.5924 42.1933C29.5947 42.227 29.5973 42.2554 29.6005 42.2816L29.6031 42.301L29.606 42.3198C29.6143 42.3711 29.6309 42.4171 29.6583 42.4685L29.6653 42.4814L29.7123 42.5655L29.6271 42.6103C29.183 42.8444 28.3087 42.9473 27.1092 42.9527L27.0728 42.9528H26.9978C26.4149 42.9525 25.7972 42.93 25.1527 42.8916L25.0069 42.8827L24.8853 42.8749C24.8328 42.8715 24.7818 42.8681 24.7289 42.8644L24.6478 42.8587L24.3089 42.8339C22.7844 42.6878 21.1857 42.6902 19.4241 42.8222C14.8314 43.0735 10.8673 42.9674 7.14144 42.4111L7.02861 42.3941L6.94546 42.3806L6.89587 42.3723C6.50066 42.3048 6.25251 42.2183 6.05887 42.0367L6.04873 42.0271L6.04028 42.0188L6.03662 42.0189C5.84165 42.018 5.66316 41.8904 5.59694 41.7023L5.5935 41.6922L5.58913 41.6781L5.58611 41.6641C5.58303 41.6506 5.57917 41.636 5.57449 41.6201L5.57082 41.6078L5.54004 41.5069L5.64373 41.488C5.65267 41.4863 5.66196 41.4801 5.67097 41.467L5.67961 41.4547L5.69456 41.4339L5.73068 41.3844C5.76915 41.3304 5.78808 41.2966 5.79746 41.2625C5.80576 41.2324 5.80887 41.1938 5.80797 41.14L5.80727 41.1138L5.80319 41.0186C5.80292 41.011 5.80274 41.0043 5.80262 40.9979L5.80249 40.9883L5.80242 40.8543L5.80276 40.7071C5.80299 40.6428 5.80336 40.5802 5.80385 40.5186L5.80469 40.4271L5.80552 40.3534C5.81051 39.9455 5.82248 39.5379 5.84142 39.1311C5.87845 38.3366 5.94196 37.5434 6.03181 36.7531C6.21733 35.1216 6.5015 33.5393 6.88807 32.0102L6.9269 31.8575C7.34487 30.2233 7.74787 28.9635 8.26008 27.7984C8.91155 26.3167 9.70588 25.0972 10.706 24.1222C11.2559 23.5862 11.8649 23.1337 12.512 22.7867C12.8096 22.6271 13.126 22.4855 13.4652 22.3581L13.5138 22.34L13.5923 22.3113L13.6525 22.2891L13.8464 22.2166C13.8872 22.2013 13.9316 22.1842 13.9841 22.1635L14.0165 22.1507L14.3639 22.0121L14.4216 21.9894L14.4857 21.9644L14.5329 21.9463C14.6099 21.9169 14.6797 21.8913 14.7445 21.8686L14.7828 21.8554L14.8176 21.8437L14.9658 21.7924L14.9629 21.9273C14.961 22.017 14.9841 22.0848 15.0354 22.1335L15.0371 22.135L15.0389 22.1365L15.0405 22.1375L15.0495 22.1373L15.0845 22.1371C15.0881 22.1351 15.0915 22.1328 15.0947 22.1301C15.1445 22.0877 15.1677 22.0309 15.1902 21.9007L15.1962 21.8644L15.2066 21.7965L15.2107 21.7708C15.2257 21.6804 15.2388 21.6305 15.2642 21.5734C15.3009 21.4909 15.3494 21.4105 15.4065 21.3366L15.4198 21.3197L15.4732 21.2555L15.4814 21.2454C15.5001 21.2214 15.5096 21.2045 15.5137 21.189L15.5146 21.1848L15.5199 21.1579L15.5389 21.138Z" fill="#FFCF77"/>
<path fill-rule="evenodd" clip-rule="evenodd" d="M23.9564 23.0646C23.9313 23.0506 23.9534 23.0147 23.9786 23.0265C25.1913 23.5957 26.1216 24.5941 26.7762 25.7478C27.454 26.9424 27.8403 28.2986 28.1734 29.6243L28.1854 29.6722C28.5405 31.0902 28.8425 32.523 29.1144 33.9592C29.3897 35.4136 29.6107 36.8771 29.7885 38.3466C29.8764 39.0732 29.9548 39.801 30.016 40.5304C30.0465 40.8948 30.0743 41.2596 30.0992 41.6245C30.1092 41.7704 30.1186 41.9163 30.1266 42.0624L30.1324 42.172C30.1374 42.2714 30.1492 42.371 30.1246 42.469C30.1035 42.5535 30.0587 42.6301 30.0194 42.7076C29.9416 42.861 29.7283 42.8357 29.6444 42.7076L29.6201 42.6703C29.5645 42.5844 29.5183 42.5045 29.5008 42.3975C29.484 42.2939 29.4833 42.1853 29.4758 42.0807C29.4618 41.8881 29.45 41.6954 29.4364 41.5028C29.4081 41.0974 29.3762 40.6922 29.3409 40.2874C29.271 39.4881 29.1961 38.6896 29.1041 37.8926C28.9407 36.476 28.7356 35.0633 28.4938 33.658C28.2576 32.2853 27.9589 30.9265 27.6474 29.5693L27.6151 29.429C27.0696 27.0595 26.2288 24.3308 23.9564 23.0646ZM11.0397 32.3428C11.0486 32.3191 11.087 32.3136 11.0935 32.3428C11.1752 32.7107 11.1833 33.0897 11.1957 33.4664C11.2081 33.838 11.2075 34.2113 11.2021 34.5831C11.1822 35.9496 11.1447 37.3149 11.1122 38.6812C11.096 39.3647 11.0808 40.0482 11.0691 40.7317C11.0647 40.9881 11.061 41.2444 11.0579 41.5008L11.0542 41.8389C11.0523 41.9884 11.0484 42.1361 11.0301 42.2854C11.0181 42.3836 10.9925 42.4773 10.9383 42.5615C10.8998 42.6213 10.845 42.6516 10.7916 42.6922L10.7816 42.7C10.7134 42.7539 10.6416 42.7542 10.5741 42.7L10.5545 42.6845C10.49 42.634 10.4343 42.5946 10.3931 42.5148C10.3358 42.4039 10.3266 42.2834 10.3169 42.1611C10.3021 41.9758 10.3119 41.7877 10.3138 41.6018C10.3177 41.2289 10.3228 40.856 10.3294 40.4831C10.3534 39.1157 10.4008 37.7481 10.4873 36.3831C10.528 35.7402 10.5833 35.0952 10.6574 34.4549L10.6715 34.3349C10.694 34.1465 10.7145 33.9547 10.7376 33.7623C10.3927 33.5197 10.0896 33.2253 9.83118 32.8914C9.81215 32.8668 9.84348 32.8323 9.86645 32.8561C10.1306 33.1297 10.4334 33.3478 10.7686 33.5192C10.8235 33.1165 10.8991 32.716 11.0397 32.3428ZM16.8004 20.1538C16.8051 20.1501 16.8125 20.1485 16.817 20.1538C16.8911 20.2402 16.8761 20.3724 16.8785 20.4819L16.8787 20.4921C16.8841 20.6523 16.8851 20.8119 16.8845 20.9722L16.8829 21.4823C16.8826 21.5524 16.877 21.6254 16.8806 21.696L16.8824 21.7233C16.9214 21.7632 16.9395 21.8208 16.9263 21.8787C16.9239 21.953 16.8851 22.0149 16.8284 22.0539L16.9498 22.2261L17.0713 22.3982C17.3216 22.7535 17.5747 23.1055 17.8385 23.451C18.1075 23.8032 18.3945 24.1421 18.6947 24.468C18.8414 24.6273 18.9906 24.7843 19.1433 24.9378C19.2054 25.0002 19.2689 25.0611 19.3318 25.1226L19.3944 25.1844C19.4314 25.2214 19.4779 25.258 19.5024 25.3049C19.5168 25.3325 19.5201 25.4006 19.5253 25.4119C19.5716 25.5138 19.4926 25.6762 19.3612 25.6254L19.3672 25.6214C19.3911 25.6048 19.3758 25.6045 19.3212 25.6207C19.2868 25.6206 19.2545 25.6126 19.2243 25.597L19.2154 25.592C19.1729 25.5704 19.135 25.5286 19.1005 25.4952L19.0919 25.4871C19.013 25.4131 18.9378 25.3347 18.8622 25.2574C18.7043 25.0961 18.5501 24.9313 18.4007 24.7622C18.1027 24.4247 17.8203 24.0736 17.5528 23.7115C17.2803 23.3428 17.027 22.9551 16.8092 22.5515C16.7265 22.3983 16.6508 22.2422 16.5781 22.0843C16.4367 22.0389 16.4039 21.8884 16.4137 21.7189C16.3616 21.5974 16.3145 21.4733 16.2868 21.3466C16.283 21.3292 16.3053 21.3128 16.3186 21.328C16.3639 21.3794 16.4057 21.4341 16.446 21.4903C16.4703 21.3715 16.501 21.2621 16.5155 21.1924L16.5782 20.8846C16.2249 20.8662 15.8378 21.0114 15.5943 21.2656C15.5812 21.3318 15.5303 21.3792 15.4806 21.441C15.4239 21.5118 15.3744 21.5911 15.3375 21.6741C15.2557 21.8581 15.3019 22.1292 15.143 22.2642C15.1265 22.2783 15.108 22.2881 15.0889 22.2941C15.1643 22.6638 15.13 23.0712 15.1284 23.4463L15.1283 23.4793C15.1287 23.8991 15.1147 24.3192 15.0985 24.7387L15.082 25.1538C15.0606 25.7074 15.0467 26.2613 15.1005 26.8119C15.3461 26.5944 15.6 26.3867 15.8626 26.189C16.0353 26.0589 16.2114 25.9334 16.3908 25.8127L16.5365 25.7153C16.7111 25.5981 16.89 25.4776 17.0812 25.3937C17.3313 25.284 17.5691 25.3217 17.8105 25.4342C18.0509 25.5463 18.2842 25.6764 18.5201 25.7979C18.7599 25.9214 19.0003 26.0438 19.2405 26.1666C19.3996 26.2479 19.6328 26.3214 19.7495 26.4711C19.757 26.438 19.7657 26.4049 19.7758 26.372C19.7642 26.3218 19.7687 26.2676 19.7968 26.2159C20.189 25.495 20.5519 24.7569 20.9122 24.0198C21.0945 23.6467 21.2679 23.2692 21.4507 22.8963L21.6283 22.5332C21.658 22.4727 21.6877 22.4123 21.7177 22.3519C21.7625 22.2615 21.8092 22.172 21.8545 22.0819C21.8736 22.0438 21.8976 22.006 21.9163 21.9675L21.9251 21.9483C21.9256 21.9473 21.9686 21.8119 21.9353 21.8248L21.9325 21.8262C21.9155 21.8358 21.9019 21.8144 21.9129 21.8008C21.9599 21.7426 22.0254 21.7942 22.0522 21.848C22.1261 21.9961 21.9907 22.2286 21.9386 22.3705L21.9358 22.3784C21.7741 22.8361 21.5911 23.2853 21.4035 23.7329C21.0439 24.591 20.6576 25.436 20.2722 26.2824L20.2676 26.297C20.3498 26.234 20.4376 26.1767 20.5127 26.1211C20.7023 25.9806 20.8974 25.847 21.0922 25.7139C21.4495 25.4697 21.8164 25.2416 22.1894 25.0226L22.2641 24.9789C22.4504 24.8703 22.635 24.7822 22.8561 24.8148C23.0616 24.8451 23.2526 24.9555 23.4382 25.0452L23.4574 25.0544L24.031 25.3272C23.9697 25.0826 23.9033 24.8392 23.834 24.5967C23.6989 24.1237 23.5503 23.6546 23.3891 23.1898C23.2386 22.7555 23.0758 22.3259 22.9037 21.8997L22.8518 21.7718C22.7816 21.5964 22.7119 21.405 22.5113 21.351C22.3108 21.297 22.0808 21.3771 21.8976 21.2628C21.881 21.2524 21.883 21.2249 21.9032 21.2198L22.0163 21.1913C22.2285 21.1385 22.4774 21.0854 22.6781 21.1367C22.8966 21.1927 23.0773 21.3761 23.1833 21.5668C23.3011 21.7789 23.3842 22.0162 23.4736 22.2424L23.4878 22.278C23.5904 22.5339 23.6891 22.7914 23.7836 23.0505C23.9724 23.5684 24.1444 24.0925 24.3 24.6213C24.375 24.8762 24.4461 25.1323 24.5145 25.389C24.5342 25.4629 24.5666 25.5524 24.5932 25.6457C24.6237 25.6755 24.6525 25.7087 24.6796 25.7465C24.7245 25.8093 24.6923 25.883 24.6365 25.9206C24.6343 25.9848 24.62 26.0453 24.5859 26.0971C24.4527 26.2993 24.1006 26.2472 24.115 25.9753C24.1171 25.9337 24.1333 25.894 24.1579 25.8604L24.1572 25.855L24.1544 25.845C24.0933 25.8157 24.0319 25.783 23.9672 25.7511L23.3652 25.4535C23.1909 25.3673 22.9977 25.2342 22.8038 25.2013C22.6231 25.1707 22.4324 25.3054 22.2771 25.3867L22.267 25.3919C21.8916 25.5844 21.5189 25.7833 21.1478 25.9838C20.9666 26.0817 20.7877 26.1837 20.6072 26.2828C20.4563 26.3656 20.2934 26.4845 20.1238 26.5313C20.0513 26.5876 19.9652 26.5801 19.8961 26.5375C19.9277 26.7333 19.9257 26.9343 19.9355 27.1346C19.9485 27.4022 19.9505 27.6707 19.9548 27.9387L19.9565 28.0392C19.9679 28.6318 19.974 29.2246 19.9763 29.8173C19.9843 31.9279 19.961 34.0392 19.9555 36.1498C19.9528 37.2102 19.9318 38.2716 19.9042 39.3316C19.8926 39.7808 19.8682 40.2294 19.8418 40.6779L19.8273 40.9226C19.7966 41.4387 19.7785 41.9606 19.6829 42.4698C19.6705 42.5362 19.5581 42.5379 19.5471 42.4698C19.4592 41.9242 19.4543 41.3666 19.4374 40.8145L19.4338 40.7042C19.4135 40.1115 19.4039 39.5191 19.4059 38.9261C19.4134 36.8146 19.4683 34.7045 19.5132 32.5936C19.5358 31.5331 19.5509 30.472 19.586 29.4118C19.6035 28.8813 19.6234 28.3511 19.6469 27.8208C19.6574 27.5841 19.6675 27.3475 19.6833 27.1111L19.6904 27.0098C19.6952 26.9437 19.6992 26.8784 19.704 26.8137C19.4904 26.8918 19.2951 26.7473 19.103 26.6484C18.8816 26.5345 18.6603 26.4204 18.4388 26.3067L18.2171 26.1931L17.7734 25.9667C17.5737 25.8647 17.4198 25.7632 17.2068 25.8828C16.4392 26.3136 15.7339 26.8868 15.0947 27.4882C14.9721 27.6036 14.7131 27.5726 14.6821 27.3793C14.5495 26.5534 14.6301 25.7156 14.6978 24.8873L14.7228 24.5797C14.753 24.2124 14.786 23.8451 14.8299 23.4793C14.8495 23.3156 14.8691 23.1521 14.8907 22.9888L14.9073 22.8663C14.9344 22.6727 14.952 22.4803 15.0097 22.2946C14.9915 22.2887 14.974 22.2791 14.9584 22.2642C14.785 22.0997 14.8686 21.8143 14.9477 21.6186C15.0258 21.4254 15.1449 21.2568 15.294 21.1117C15.3265 21.08 15.3724 21.0597 15.4185 21.0586C15.7801 20.8189 16.1767 20.6993 16.5896 20.8301C16.6012 20.7747 16.613 20.7193 16.6255 20.6641L16.6381 20.6089C16.6703 20.4718 16.6822 20.2454 16.8004 20.1538ZM20.5063 41.7966C20.6185 41.7657 20.7414 41.7983 20.8236 41.8805C20.9058 41.9628 20.9384 42.0857 20.9074 42.1979C20.892 42.2532 20.864 42.3011 20.8236 42.3419C20.7858 42.3794 20.7418 42.4062 20.6914 42.4222L20.6797 42.4258L20.6614 42.4334C20.6051 42.4485 20.5488 42.4485 20.4926 42.4334C20.4389 42.4183 20.3922 42.3911 20.3526 42.3518C20.3132 42.3121 20.286 42.2654 20.2709 42.2116C20.2558 42.1554 20.2558 42.0991 20.2709 42.0428L20.2786 42.0245C20.2941 41.9692 20.322 41.9212 20.3624 41.8805C20.4031 41.8401 20.4511 41.8121 20.5063 41.7966ZM27.1689 30.6111C27.1873 30.5899 27.2172 30.617 27.2058 30.6395C27.031 30.9823 26.8362 31.3226 26.6447 31.6567C26.6601 31.7493 26.6753 31.8411 26.6928 31.9306C26.7674 32.3122 26.8587 32.6868 26.9183 33.072C27.1324 34.4566 27.2435 35.8562 27.3389 37.2531C27.4345 38.6551 27.4468 40.0577 27.4611 41.4625C27.4624 41.5842 27.3688 41.7257 27.2433 41.7487C27.1859 41.7592 27.1429 41.7571 27.0856 41.7487C26.9551 41.7294 26.8734 41.5798 26.8678 41.4625C26.8304 40.6774 26.78 39.8933 26.7217 39.1094C26.6183 37.7197 26.5551 36.3264 26.4715 34.9352L26.4421 34.449C26.4105 33.9221 26.3817 33.3949 26.3723 32.8673C26.366 32.5178 26.3847 32.1683 26.3732 31.8191C26.3626 31.4968 26.3299 31.1463 26.401 30.8296C26.4036 30.8177 26.4223 30.8147 26.4278 30.8261C26.5016 30.9816 26.5484 31.1507 26.5845 31.3233C26.7748 31.0825 26.9687 30.8411 27.1689 30.6111ZM14.6995 22.0961C14.7263 22.0941 14.7252 22.1343 14.6995 22.1373C14.326 22.1806 13.9651 22.3327 13.6123 22.462L13.5821 22.473C13.2257 22.6024 12.8783 22.7528 12.5439 22.9321C11.8902 23.2826 11.2899 23.7346 10.7591 24.2521C8.64 26.3177 7.67428 29.2965 6.96664 32.0958C6.57346 33.651 6.29387 35.2326 6.11265 36.8263C6.02304 37.6144 5.95969 38.4056 5.92276 39.198C5.90385 39.6041 5.89193 40.0106 5.88695 40.4171C5.88439 40.6253 5.88363 40.8336 5.88388 41.0418C5.88401 41.1372 5.90104 41.2574 5.87553 41.35C5.85187 41.4359 5.78514 41.5114 5.73578 41.583C5.67728 41.6678 5.57215 41.6633 5.51284 41.583L5.49096 41.5537C5.42771 41.4698 5.36582 41.3895 5.35678 41.2798C5.34711 41.1622 5.35393 41.041 5.35349 40.9228C5.35249 40.6848 5.35543 40.4468 5.36019 40.2089C5.36936 39.7528 5.38733 39.2969 5.41403 38.8415C5.46823 37.9174 5.55747 36.9951 5.68523 36.0782C5.91234 34.4485 6.25274 32.8343 6.69863 31.2504C7.11928 29.7563 7.61762 28.2666 8.32755 26.8826C8.9867 25.5976 9.85143 24.4021 10.9925 23.5041C11.5231 23.0864 12.1007 22.7384 12.7234 22.4763C13.0375 22.3441 13.3674 22.2361 13.7028 22.1746C14.0345 22.1138 14.3648 22.1223 14.6995 22.0961ZM20.5706 39.1556C20.6299 39.1552 20.696 39.1682 20.7468 39.201L20.8147 39.2535C20.8331 39.2772 20.8514 39.3009 20.8697 39.3247C20.9121 39.38 20.9178 39.4696 20.9089 39.5356C20.9069 39.5797 20.8938 39.6206 20.8697 39.6586L20.818 39.7256C20.7683 39.7661 20.7268 39.795 20.6666 39.8146C20.6352 39.8247 20.6049 39.8269 20.5747 39.8253L20.5646 39.8247L20.5706 39.8255L20.5601 39.8243C20.5502 39.8234 20.5404 39.8224 20.5305 39.821C20.5238 39.8202 20.517 39.8197 20.5103 39.8187C20.5038 39.8182 20.4975 39.818 20.491 39.8186C20.4145 39.8258 20.3376 39.7824 20.2833 39.7325C20.2344 39.6876 20.1905 39.5923 20.1973 39.5248L20.2002 39.4965C20.2053 39.4489 20.2096 39.4302 20.2297 39.3824C20.2493 39.3358 20.2767 39.2948 20.314 39.2601C20.3854 39.1937 20.4727 39.1563 20.5706 39.1556ZM20.3339 35.6712C20.4354 35.5605 20.6098 35.5524 20.7357 35.6194C20.7663 35.6357 20.7945 35.6619 20.8216 35.6838C20.8897 35.7389 20.9165 35.8383 20.9202 35.922C20.9239 36.0049 20.8803 36.1032 20.8216 36.1604L20.8073 36.1742C20.7722 36.2083 20.722 36.238 20.6729 36.247C20.5937 36.2616 20.5273 36.2611 20.4535 36.23C20.3902 36.2033 20.3356 36.1603 20.2985 36.102L20.2925 36.0921C20.2899 36.0881 20.2875 36.0839 20.2853 36.0796L20.282 36.0732C20.2114 35.9375 20.2304 35.7839 20.3339 35.6712ZM20.3864 32.1685C20.4322 32.1541 20.478 32.1521 20.5238 32.1623C20.5549 32.1624 20.5838 32.1703 20.6107 32.1858C20.6399 32.194 20.6652 32.2088 20.6867 32.2302C20.7125 32.2454 20.7332 32.266 20.7485 32.2919C20.7789 32.3252 20.7995 32.3643 20.8101 32.4091L20.8224 32.5007L20.8101 32.5923L20.7754 32.6746C20.7658 32.6871 20.7562 32.6995 20.7465 32.7119C20.7312 32.7379 20.7105 32.7586 20.6846 32.7739C20.6677 32.7907 20.6484 32.8033 20.6268 32.812C20.5501 32.867 20.4479 32.8849 20.3571 32.8599C20.3031 32.8448 20.2562 32.8174 20.2165 32.7779C20.1771 32.7382 20.1497 32.6913 20.1346 32.6374L20.1284 32.5943C20.1204 32.5365 20.1191 32.5045 20.1355 32.431C20.1427 32.3987 20.1635 32.3531 20.1744 32.3339C20.2209 32.252 20.297 32.1959 20.3864 32.1685ZM24.3624 29.6485C24.4939 29.6476 24.6254 29.6478 24.7569 29.6493L24.8554 29.6506C25.0205 29.6532 25.162 29.6361 25.2918 29.7507C25.386 29.8339 25.3445 29.9734 25.255 30.0361C25.1195 30.131 24.9496 30.0832 24.7938 30.0728C24.6296 30.0618 24.4652 30.0526 24.3008 30.0452C23.9824 30.031 23.6638 30.0219 23.3451 30.0205C23.0271 30.0191 22.7086 30.0222 22.3906 30.0273C22.067 30.0325 21.7301 30.0627 21.4084 30.0292C21.3642 30.0246 21.3542 29.9664 21.3979 29.9513C21.701 29.8464 22.0421 29.8124 22.3599 29.7723C22.6876 29.7309 23.0153 29.7016 23.3451 29.6825C23.6839 29.6631 24.0231 29.6509 24.3624 29.6485ZM20.3858 28.6179L20.3967 28.6181C20.4546 28.6183 20.5087 28.6319 20.5592 28.659L20.57 28.665L20.6395 28.7187C20.682 28.7616 20.7115 28.8121 20.7277 28.8702L20.74 28.9615C20.7418 29.0088 20.7319 29.0529 20.7105 29.0939C20.6966 29.1364 20.6729 29.1733 20.6395 29.2044C20.6084 29.2379 20.5715 29.2615 20.529 29.2754C20.4912 29.2952 20.4507 29.3052 20.4075 29.3052L20.3967 29.305C20.3348 29.3048 20.277 29.2892 20.2235 29.2581L20.1539 29.2044C20.1114 29.1615 20.0819 29.111 20.0657 29.0528L20.0534 28.9615C20.0516 28.9143 20.0614 28.8701 20.083 28.8292C20.0968 28.7866 20.1205 28.7498 20.1539 28.7187C20.185 28.6852 20.2219 28.6615 20.2645 28.6477C20.3022 28.6278 20.3427 28.6179 20.3858 28.6179ZM21.4036 20.5499C21.4776 20.4428 21.6117 20.5381 21.5925 20.6243C21.5975 20.8663 21.6099 21.1011 21.665 21.3382C21.6902 21.4467 21.7232 21.5554 21.7741 21.6548L21.7955 21.6966C21.8614 21.8269 21.9126 21.9498 21.8238 22.0927C21.782 22.1601 21.7063 22.2107 21.6244 22.2071C21.2608 22.1914 21.2109 21.6852 21.1888 21.4026C21.166 21.1116 21.2368 20.7918 21.4036 20.5499Z" fill="black"/>
<path fill-rule="evenodd" clip-rule="evenodd" d="M20.9381 10.1809C17.3436 10.0494 13.9088 12.4713 12.7523 15.8945C12.6683 16.163 12.9298 16.4138 13.1937 16.3684C12.9238 17.7307 13.5136 19.5642 15.0499 19.7575C15.3646 19.7973 15.6809 19.7744 15.996 19.8033C16.2769 19.8291 17.8059 20.6914 18.3785 20.8935C19.5839 21.3156 22.6173 21.2383 23.824 20.8935C23.8679 20.9937 24.805 17.141 25.0184 15.9464C25.0963 15.4289 24.3852 15.0457 24.4376 14.5124C24.505 13.8273 25.3043 12.992 25.0594 12.3398C24.4139 10.6798 22.5405 10.2166 20.9381 10.1809Z" fill="#D08B5B"/>
<path fill-rule="evenodd" clip-rule="evenodd" d="M19.1535 7.16335C19.315 7.17681 19.4774 7.19967 19.637 7.22973C20.122 7.1502 20.6239 7.2385 21.0943 7.39161C22.1959 7.75012 23.2562 8.37258 24.0864 9.18511C24.5137 9.60343 24.8632 10.0853 25.0784 10.6458C25.1877 10.9301 25.2492 11.2335 25.267 11.5375L25.269 11.5744C25.274 11.6752 25.2763 11.7962 25.2642 11.916C25.3027 12.1579 25.3369 12.4017 25.3395 12.6464C25.3407 12.7597 25.3334 12.8728 25.3197 12.9852L25.3244 12.9959C25.3045 13.13 25.2807 13.2636 25.2535 13.3966L25.2468 13.4054C25.2431 13.4324 25.2388 13.4593 25.2347 13.4863C25.22 13.5546 25.2046 13.6228 25.1883 13.6907C25.1529 13.8378 25.1138 13.9839 25.0716 14.1291C25.0642 14.1545 25.0713 14.1746 25.0852 14.1878C25.0544 14.2983 25.0209 14.408 24.9836 14.5166C25.0019 14.6115 25.0204 14.7065 25.0399 14.8011C25.1421 15.2933 25.2286 15.7886 25.3448 16.278C25.5803 17.2712 25.9382 18.2484 26.0366 19.2695C26.1131 20.0614 25.986 20.9271 25.495 21.574C25.0718 22.1313 24.4353 22.4604 23.7478 22.5481C23.419 22.5904 23.0816 22.5709 22.7599 22.4877L22.7249 22.4784C22.5637 22.4349 22.3588 22.3668 22.209 22.2572C22.0466 22.1999 21.8932 22.0941 21.8008 21.9907C21.6746 21.8495 21.5369 21.6081 21.5712 21.4074C21.3835 21.4228 21.1946 21.4271 21.0087 21.4265C20.5508 21.4256 20.0889 21.3893 19.6485 21.2559C19.2556 21.1369 18.7977 20.9381 18.5654 20.5792C18.5544 20.5623 18.5726 20.5379 18.5916 20.5445C18.7793 20.6105 18.9548 20.6998 19.1485 20.7502C19.339 20.7997 19.5295 20.8463 19.726 20.8667C20.1101 20.9064 20.4999 20.901 20.8853 20.882L21.0176 20.8751C21.4299 20.8529 21.8561 20.8214 22.2418 20.6666C22.3931 20.6059 22.5332 20.5212 22.6609 20.4205L22.6809 20.4045C22.7493 20.3488 22.8199 20.3018 22.8918 20.2574C22.9021 20.2442 22.9124 20.2311 22.9227 20.2176C23.086 20.0075 23.2615 19.8049 23.4087 19.5829C23.701 19.1424 23.8137 18.6846 23.829 18.1592C23.8451 17.6046 23.8469 17.0493 23.8535 16.4945L23.8559 16.3096C23.8643 15.6753 23.8656 15.0387 23.9143 14.4059C23.9368 14.1119 23.9687 13.8193 24.0178 13.5288L24.0286 13.4666L24.108 13.0185C24.127 12.9106 24.1382 12.7994 24.1626 12.6919C24.1352 12.6468 24.1035 12.6034 24.0667 12.5621C24.0328 12.524 23.9984 12.487 23.964 12.4503L23.9393 12.4284C23.8827 12.3778 23.8341 12.3294 23.7885 12.2598L23.7775 12.2425C23.7285 12.1833 23.6824 12.1214 23.6416 12.0534L23.6341 12.0402C23.6239 12.0273 23.6138 12.0145 23.6032 12.0019C23.5705 11.9624 23.5362 11.9252 23.5008 11.8895C23.3765 12.1303 23.2006 12.3389 22.9516 12.4693C22.8615 12.5164 22.7517 12.476 22.7222 12.3757C22.6477 12.1225 22.5346 11.887 22.3849 11.6737C22.1349 12.0907 21.7386 12.4169 21.2715 12.576C21.1548 12.6158 21.052 12.4931 21.0794 12.3835C21.1637 12.0465 21.1804 11.7039 21.1309 11.3651C20.9546 11.4915 20.7728 11.6104 20.5861 11.7207C20.1706 12.0427 19.7304 12.3324 19.2461 12.5405C19.1342 12.5886 18.9659 12.5078 19.0167 12.3637C19.0595 12.2424 19.0947 12.1191 19.1172 11.9924L19.1222 11.9631C19.1224 11.9623 19.1224 11.9614 19.1226 11.9605C18.0011 13.5114 15.2815 15.0059 15.0728 15.0203L15.0671 15.0203C15.1975 15.1452 15.3027 15.2994 15.3715 15.4766C15.4438 15.6628 15.149 15.7439 15.0728 15.5659L15.0704 15.5599C14.9531 15.2579 14.663 15.0414 14.3474 14.9902C14.1566 15.0249 13.9763 15.1171 13.8533 15.257C13.6112 15.5322 13.609 15.8641 13.7742 16.1772L13.7985 16.2228C13.8879 16.3901 13.9822 16.5577 14.0325 16.7414C14.0941 16.9669 14.0475 17.1954 14.0878 17.4206L14.09 17.4325C14.1091 17.5326 14.1504 17.6465 14.2693 17.6191C14.2785 17.617 14.2873 17.6141 14.2962 17.6111C14.3213 17.6311 14.3514 17.6477 14.389 17.6587C14.4811 17.6856 14.5828 17.6725 14.6745 17.6508C14.763 17.6298 14.8489 17.5969 14.9317 17.5584C14.9408 17.581 14.9465 17.6047 14.947 17.6275C14.9499 17.744 14.9018 17.8398 14.8277 17.9178C14.9458 18.0675 15.0467 18.2322 15.1604 18.385C15.3237 18.6041 15.4908 18.8186 15.6685 19.0262C15.8534 19.2426 16.0549 19.447 16.2638 19.6402C16.4103 19.7755 16.6524 19.9201 16.7442 20.1165C16.8498 20.1493 16.9394 20.2304 16.9722 20.3638C17.0318 20.6055 17.0493 21.172 17.0025 21.4178C16.9559 21.6614 16.7785 21.8132 16.5824 21.9416C16.5281 21.9773 16.4665 21.9735 16.4166 21.9469C16.3725 21.9898 16.3229 22.0293 16.266 22.0643C16.0561 22.1943 15.8122 22.2415 15.5705 22.2688C15.2441 22.3734 14.8921 22.4009 14.5441 22.3358C14.4305 22.3493 14.3168 22.3615 14.2028 22.3715C13.0365 22.4733 11.8509 22.3865 10.7134 22.1082C10.1915 21.9804 9.6987 21.7482 9.23955 21.45C8.44817 20.936 8.11323 19.4931 8.57241 18.1138L8.60877 18.005C8.81569 17.3888 9.03883 16.7759 9.33793 16.201L9.37364 16.1326C9.64857 15.6083 9.95101 15.0845 10.3527 14.647C10.5538 14.4282 10.7874 14.2293 11.0514 14.0903C11.1516 14.0376 11.2685 14.001 11.3828 13.9595L11.3852 13.9309L11.3877 13.9022C11.3952 13.8103 11.4048 13.7186 11.4171 13.6271C11.4633 13.285 11.5284 12.9478 11.621 12.615C11.7137 12.2817 11.8276 11.954 11.9647 11.6363C12.1934 11.1064 12.4806 10.6038 12.8121 10.1321C12.8358 10.0834 12.8598 10.0348 12.8844 9.98668C13.164 9.43904 13.5259 8.91677 13.9929 8.51255C14.5288 8.04851 15.1744 7.76045 15.8481 7.55818C16.5468 7.34871 17.2758 7.20531 18.0038 7.15709C18.387 7.13172 18.7709 7.13141 19.1535 7.16335ZM14.0438 15.9612C14.3945 15.731 14.8724 15.8888 15.0501 16.2627C15.1785 16.5335 14.754 16.686 14.6869 16.4161C14.62 16.1456 14.333 15.9518 14.0572 15.9931C14.0382 15.9962 14.0263 15.9724 14.0438 15.9612Z" fill="black"/>
<path fill-rule="evenodd" clip-rule="evenodd" d="M22.324 18.5351L22.3456 18.5301C22.5186 18.4893 22.6849 18.4338 22.846 18.541C22.9995 18.6431 23.0208 18.832 22.9012 18.9698C22.7783 19.1114 22.6151 19.1035 22.4428 19.1054L22.432 19.1056C22.2889 19.1075 22.1435 19.1054 22.001 19.0927C21.8681 19.0809 21.7344 19.062 21.6031 19.0372L21.5254 19.0219C21.4461 19.0059 21.3679 18.985 21.3271 18.9082C21.2558 18.7742 21.7857 18.6692 21.8501 18.6508C22.0063 18.6062 22.1655 18.571 22.324 18.5351ZM22.6179 16.9204C22.5334 17.008 22.4218 17.0679 22.2966 17.1052C21.9818 17.1988 21.5801 17.1489 21.3229 17.0535C21.2696 17.0337 21.2198 16.9934 21.1911 16.9429C21.1649 16.8968 21.1561 16.8426 21.176 16.7873C21.1817 16.7716 21.1886 16.7562 21.1955 16.741C21.2144 16.6997 21.2528 16.6676 21.298 16.6492C21.3448 16.6301 21.3982 16.6262 21.4409 16.6397C21.4467 16.6415 21.4526 16.6434 21.4586 16.6453C21.6215 16.6966 21.8887 16.7817 22.1101 16.7652C22.2429 16.7553 22.3598 16.7084 22.4202 16.5868C22.452 16.5227 22.4432 16.4592 22.415 16.4012C22.3724 16.3136 22.2871 16.2375 22.2152 16.185C22.1139 16.111 22.0059 16.0814 21.8941 16.0502C21.852 16.0385 21.8093 16.0266 21.7663 16.0123C21.7521 16.0076 21.7397 15.9984 21.7303 15.9864C21.7211 15.9746 21.7151 15.9602 21.7132 15.9457C21.7113 15.9307 21.7137 15.9158 21.7206 15.9029C21.7271 15.8909 21.7374 15.8804 21.7528 15.8735C21.9714 15.7755 22.2542 15.8403 22.4677 15.9945C22.5744 16.0715 22.6633 16.1705 22.7182 16.2811C22.7691 16.3838 22.7907 16.4964 22.7708 16.6112C22.7484 16.7398 22.694 16.8414 22.6179 16.9204ZM19.0342 14.7336C19.0957 14.7065 19.1462 14.8333 19.1588 14.8679L19.185 14.9396C19.2276 15.0552 19.2766 15.1728 19.3663 15.2586C19.4414 15.3305 19.5617 15.3914 19.6488 15.3073C19.7314 15.2276 19.6911 15.1377 19.7033 15.0399C19.7253 14.8629 19.9665 14.686 20.1115 14.8707C20.4392 15.288 19.9323 15.8682 19.4653 15.7664C19.2279 15.7146 19.0367 15.5242 18.9582 15.2977L18.9542 15.2857C18.9072 15.1422 18.8596 14.8107 19.0342 14.7336ZM23.2622 15.0242L23.2599 15.0189C23.1039 14.6638 23.6606 14.5112 23.7078 14.8301L23.7108 14.8516C23.7567 15.2055 23.6599 15.6815 23.2266 15.7168C22.7401 15.7564 22.5376 15.2135 22.581 14.815C22.5888 14.7437 22.6753 14.7338 22.702 14.7986L22.7077 14.8128C22.7863 15.013 22.8609 15.3981 23.1376 15.3977C23.3225 15.3974 23.3137 15.1478 23.2622 15.0242ZM23.6151 13.9963C23.8948 13.9863 23.8944 14.4241 23.6151 14.4307C22.6824 14.4527 21.7489 14.4818 20.8158 14.4868L20.6462 14.4879C19.7698 14.4938 18.8904 14.5057 18.0165 14.4321C17.9419 14.4259 17.9558 14.3211 18.0181 14.3253C18.9343 14.1949 19.8616 14.1568 20.7847 14.1072C21.7274 14.0566 22.6718 14.0298 23.6151 13.9963Z" fill="black"/>
</svg>
