<svg width="36" height="48" viewBox="0 0 36 48" fill="none" xmlns="http://www.w3.org/2000/svg">
<path fill-rule="evenodd" clip-rule="evenodd" d="M6.08615 38.5582C5.99244 39.4175 5.78017 40.3642 6.1848 41.175C5.92997 41.1864 6.13669 41.2602 6.27422 41.2855C6.35275 41.3463 6.45829 41.3704 6.55754 41.362C7.07284 41.4709 7.6048 41.5104 8.12803 41.5721C14.6607 42.1149 21.2371 41.9707 27.782 41.7368C27.9948 41.7276 28.1376 41.5729 28.1539 41.3646C28.3938 38.2985 28.5132 35.223 28.5071 32.1476C28.4005 31.0668 29.2171 31.4885 28.7815 30.0644C28.4313 28.5622 27.913 27.1001 27.2521 25.7068C26.7953 24.8002 26.3648 23.8463 25.6685 23.0945C25.4485 23.0641 25.2612 22.8454 25.0752 22.7233C24.8869 22.6866 24.7473 22.5266 24.5564 22.4774C24.1927 22.3828 23.3788 22.1815 23.069 22.4236C23.0568 22.4202 23.0444 22.4174 23.0321 22.4139C22.9715 22.4812 22.8882 22.4307 22.843 22.3703C22.6882 22.2501 22.0117 22.2377 21.9349 22.0533C21.5347 21.69 21.4276 20.9256 21.4276 20.4784C21.2779 20.3102 21.2676 20.3414 21.0644 20.2525C20.8652 20.0012 20.6246 19.7822 20.356 19.6097C18.8446 18.6168 16.6512 19.663 16.2974 21.3887C15.738 21.8317 15.1623 22.2818 14.4772 22.5126C14.1429 22.3406 13.762 22.2857 13.4071 22.2853C13.1426 22.2757 12.7771 22.1227 12.6052 22.4012C9.71331 23.3482 7.96796 26.1027 6.7269 28.7126C6.55294 29.0842 6.34483 29.4733 6.39807 29.8966C6.43466 30.4036 6.98471 30.7054 6.88076 31.2428C6.72968 32.7208 6.55782 34.1974 6.40054 35.675C6.29572 36.6361 6.19094 37.5971 6.08615 38.5582Z" fill="#D08B5B"/>
<path fill-rule="evenodd" clip-rule="evenodd" d="M12.6053 22.4017C12.7772 22.1233 13.1427 22.2763 13.4072 22.2859C13.762 22.2862 14.1429 22.3412 14.4772 22.5132C14.4909 22.5086 14.5045 22.5039 14.5181 22.4991L14.5379 22.5431L13.0823 22.7483L13.8164 24.0801C15.5448 25.6977 17.4662 26.4167 19.5805 26.2369C21.6737 26.059 23.1122 24.9408 23.8961 22.8824L23.9196 22.8197L22.924 22.5431L22.9239 22.4375C22.9603 22.4528 22.9995 22.4507 23.0322 22.4145C23.0444 22.418 23.0568 22.4208 23.069 22.4242C23.3788 22.1821 24.1928 22.3834 24.5565 22.478C24.7474 22.5272 24.887 22.6872 25.0753 22.7239C25.2612 22.846 25.4485 23.0646 25.6686 23.095C26.3649 23.8468 26.7953 24.8008 27.2522 25.7074C27.9131 27.1006 28.4314 28.5628 28.7815 30.0649C29.0603 30.9764 28.8262 31.1318 28.6495 31.4088L28.6349 31.4111C28.3953 31.4483 28.1722 31.5009 27.9656 31.5687C27.5245 31.7136 27.0901 31.8967 26.6625 32.1181L26.6132 32.1438L27.1542 41.7595L26.8164 41.7712C21.2996 41.9596 15.763 42.0634 10.2517 41.7256L10.7672 32.5748L6.4783 30.1936C6.43614 30.1011 6.40581 30.0037 6.39813 29.8972C6.34489 29.4738 6.55299 29.0848 6.72695 28.7132C7.96802 26.1033 9.71337 23.3488 12.6053 22.4017Z" fill="#78E185"/>
<path fill-rule="evenodd" clip-rule="evenodd" d="M27.2432 31.5073C27.0563 31.575 26.7942 31.641 26.6605 31.7941C26.6451 31.6515 26.6295 31.5089 26.6138 31.3663C27.0056 31.357 27.3983 31.3536 27.7903 31.3427C27.6052 31.3879 27.4224 31.4425 27.2432 31.5073ZM26.3824 40.4763C26.2476 40.4776 26.1123 40.487 25.9776 40.4922C25.718 40.5023 25.4585 40.5122 25.199 40.5219C24.6695 40.5418 24.14 40.5609 23.6104 40.5794C22.5618 40.6158 21.513 40.6495 20.4642 40.6804C18.3665 40.7421 16.2678 40.7795 14.1703 40.8501C13.5885 40.8697 13.0066 40.8849 12.4253 40.9166C12.124 40.933 11.8214 40.9471 11.5216 40.982C11.2686 41.0114 11.0193 41.0611 10.7678 41.0981C10.7847 40.7702 10.8005 40.4423 10.8169 40.1145C10.8324 39.8043 10.847 39.4941 10.8614 39.1839C11.8432 39.2353 12.8262 39.256 13.8093 39.2648C14.8493 39.2741 15.8889 39.2999 16.9289 39.3019C18.9878 39.306 21.0468 39.2801 23.1056 39.2594C23.6879 39.2535 24.2703 39.2477 24.8526 39.2418C25.1437 39.2389 25.4349 39.236 25.726 39.2331C25.8714 39.2316 26.0176 39.2347 26.1628 39.2287C26.3178 39.2222 26.4119 39.1782 26.5244 39.0738C26.5844 39.0182 26.5869 38.9049 26.5244 38.8497C26.4341 38.7699 26.3503 38.7087 26.2252 38.6998C26.1023 38.691 25.9741 38.7031 25.8508 38.7047C25.5805 38.7082 25.3101 38.7118 25.0397 38.7154C24.5198 38.7222 23.9999 38.7291 23.48 38.7359C22.4401 38.7496 21.4002 38.7636 20.3604 38.7794C19.3413 38.795 18.3221 38.8066 17.3032 38.8322C16.2629 38.8584 15.2237 38.9057 14.1837 38.9391C13.0765 38.9747 11.97 39.0172 10.8654 39.1003C10.8919 38.5253 10.9164 37.9501 10.9394 37.3749C13.1327 37.4943 15.3274 37.5793 17.5244 37.583C19.8132 37.587 22.1019 37.5478 24.3899 37.4881C24.7123 37.4796 25.0347 37.4711 25.357 37.461C25.5234 37.4558 25.6898 37.4509 25.8562 37.4449C25.9785 37.4405 26.1042 37.4353 26.2148 37.3767C26.433 37.2613 26.4707 36.9241 26.2118 36.8318C26.0702 36.7814 25.9201 36.8307 25.8857 36.9584C25.8751 36.9594 25.865 36.9602 25.8562 36.9606C25.7314 36.9653 25.6066 36.9688 25.4818 36.9727C25.2114 36.9813 24.9411 36.9901 24.6707 36.9986C24.1715 37.0142 23.6723 37.0286 23.173 37.0418C22.1538 37.0689 21.1344 37.0909 20.1149 37.1079C18.0964 37.1415 16.0781 37.1726 14.0599 37.2187C13.0206 37.2425 11.9816 37.2734 10.9424 37.2997C10.9672 36.6745 10.9906 36.0492 11.0118 35.4239C11.0142 35.3507 11.0169 35.2773 11.0196 35.204C11.1685 35.2368 11.321 35.2549 11.4727 35.2764C11.736 35.3136 12 35.3412 12.2644 35.3691C12.7626 35.4217 13.2623 35.454 13.7623 35.4816C14.7817 35.5378 15.8014 35.5775 16.8218 35.6086C18.8404 35.6701 20.8614 35.6835 22.8808 35.6765C23.9774 35.6728 25.0806 35.6873 26.1766 35.6394C26.2442 35.6579 26.3138 35.656 26.3811 35.634C26.4364 36.6115 26.4947 37.5888 26.5521 38.5662C26.5908 39.2257 26.625 39.8874 26.6725 40.547C26.5796 40.5013 26.4942 40.4754 26.3824 40.4763ZM7.37986 30.5451C7.18756 30.451 6.97548 30.3651 6.80572 30.2318C6.62015 30.086 6.57457 29.9149 6.6316 29.6861C6.63586 29.669 6.64087 29.652 6.64531 29.635C8.01279 29.6383 9.3768 29.5781 10.7437 29.5456C12.1324 29.5127 13.5206 29.4849 14.9098 29.4771C17.6801 29.4615 20.45 29.524 23.219 29.6018C24.2162 29.6298 25.2134 29.6574 26.2106 29.6847C26.1879 29.9279 26.1966 30.1771 26.1915 30.4186C26.1869 30.6307 26.1881 30.8432 26.1913 31.0556C25.6696 31.0543 25.148 31.0431 24.6263 31.0372C23.3346 31.0226 22.0436 31.0597 20.7523 31.0893C18.1696 31.1484 15.5863 31.1949 13.0042 31.2727C12.3029 31.2938 11.597 31.3049 10.8925 31.3349C10.8683 31.2203 10.8414 31.1063 10.8111 30.993C10.7629 30.813 10.7085 30.6281 10.5643 30.503C10.5574 30.497 10.5478 30.4996 10.5447 30.5082C10.49 30.66 10.5038 30.8145 10.5199 30.9735C10.5325 31.0991 10.5411 31.2251 10.5475 31.3512C10.1094 31.3743 9.6722 31.4067 9.2373 31.4552C9.11295 31.3938 8.98853 31.3324 8.86393 31.2714C8.36932 31.0292 7.87454 30.7872 7.37986 30.5451ZM23.2556 35.0642C22.2353 35.0724 21.2149 35.0733 20.1947 35.0668C18.175 35.0538 16.1561 35.0041 14.1369 34.964C13.5749 34.9528 13.0137 34.9418 12.4516 34.9418C12.1606 34.9418 11.8687 34.9437 11.578 34.9563C11.3951 34.9643 11.2096 34.9654 11.0275 34.9874C11.0495 34.3989 11.0724 33.8098 11.0716 33.2211C12.998 33.5129 14.945 33.5931 16.8903 33.6505C18.8612 33.7087 20.8325 33.7388 22.8042 33.7417C23.3646 33.7425 23.9249 33.7413 24.4852 33.738C24.755 33.7364 25.0248 33.7343 25.2945 33.7318C25.4396 33.7304 25.5854 33.7334 25.7303 33.7273C25.8835 33.7208 25.9761 33.6845 26.0831 33.5755C26.1379 33.5197 26.1406 33.4235 26.0831 33.3679C25.8921 33.1836 25.6673 33.2236 25.419 33.2267C25.17 33.2298 24.921 33.2324 24.672 33.2347C24.1739 33.2392 23.6759 33.2421 23.1778 33.2434C22.2024 33.2459 21.227 33.2421 20.2517 33.2321C18.2805 33.212 16.3097 33.1681 14.339 33.122C13.2494 33.0964 12.1601 33.1035 11.0715 33.1563C11.0711 33.0586 11.0702 32.9608 11.0683 32.863C11.0611 32.4928 11.0251 32.1226 10.9687 31.7564C11.5022 31.7546 12.0357 31.7432 12.5668 31.7364C13.8583 31.7198 15.1495 31.6938 16.4408 31.6679C17.7217 31.6422 19.0027 31.6165 20.2836 31.5908C21.5637 31.5651 22.8478 31.5633 24.1264 31.4941C24.8164 31.4568 25.5067 31.4061 26.1972 31.3794C26.1986 31.4428 26.1999 31.5063 26.2013 31.5696C26.2179 32.3476 26.2483 33.1247 26.2875 33.9019C26.3063 34.2752 26.3262 34.6486 26.3467 35.022C26.3368 35.021 26.3267 35.0204 26.3163 35.0203C25.2968 35.0135 24.2753 35.0559 23.2556 35.0642ZM7.11054 28.3081C7.22734 28.0075 7.35423 27.7089 7.49138 27.4143C8.07367 27.5787 8.69479 27.6635 9.29573 27.72C9.93548 27.7801 10.5765 27.8139 11.2189 27.827C12.4853 27.8529 13.7517 27.7928 15.0168 27.7405C17.6188 27.633 20.2206 27.5545 22.8252 27.5495C23.5525 27.548 24.2798 27.5514 25.0071 27.5596C25.3708 27.5637 25.7344 27.5686 26.098 27.5749C26.285 27.5781 26.472 27.5816 26.659 27.5855C26.7418 27.5872 26.8256 27.5933 26.9083 27.5908C27.0189 27.5875 27.0997 27.5542 27.2024 27.5141C27.3203 27.4682 27.3899 27.271 27.2427 27.2057C27.0958 27.1403 26.9778 27.1021 26.8148 27.0985C26.6382 27.0947 26.4616 27.0912 26.285 27.088C25.9629 27.0821 25.6409 27.0772 25.3188 27.0731C24.6643 27.065 24.0097 27.0615 23.3551 27.0616C22.0667 27.0618 20.7782 27.077 19.4902 27.1073C16.9043 27.1682 14.3242 27.3485 11.7392 27.4259C11.0267 27.4472 10.3129 27.4514 9.60033 27.43C8.91019 27.4093 8.22152 27.3512 7.53223 27.3267C7.77032 26.8246 8.03971 26.3356 8.34368 25.8707C9.49276 25.9111 10.6394 25.8812 11.7887 25.8462C12.3918 25.8278 12.9949 25.8092 13.5979 25.7885C13.8995 25.7782 14.201 25.7678 14.5025 25.7575C14.6481 25.7525 14.7937 25.7475 14.9392 25.7425C15.096 25.7372 15.2611 25.7473 15.4134 25.7061C15.441 25.6986 15.4629 25.6826 15.4794 25.6623C15.8847 25.8709 16.3135 26.0355 16.7544 26.1574C17.7115 26.4222 18.7408 26.5215 19.7307 26.44C20.525 26.3746 21.3167 26.1779 22.0151 25.7928C23.5923 25.9381 25.1917 25.8698 26.7723 25.8595C26.9233 25.8585 26.9861 25.7201 26.9608 25.6059C27.4681 26.6995 27.8041 27.8851 28.1186 29.0383C28.3141 29.755 28.4879 30.4762 28.6534 31.1999C28.6465 31.2005 28.6396 31.2011 28.6328 31.2018C28.652 31.1225 28.6088 31.0291 28.5003 31.0266C27.8606 31.0119 27.2189 31.0486 26.579 31.0545C26.561 30.8944 26.543 30.7343 26.524 30.5742C26.4981 30.3561 26.4672 30.1386 26.4408 29.9206C26.4313 29.8416 26.4224 29.7652 26.4115 29.6901C26.9182 29.7039 27.4248 29.7178 27.9315 29.7312C28.2603 29.7399 28.2597 29.2305 27.9315 29.2205C25.1473 29.1352 22.3629 29.049 19.5778 29.0017C16.7909 28.9544 13.9944 28.9252 11.2097 29.0681C9.6922 29.146 8.17842 29.2501 6.67977 29.5069C6.79617 29.1005 6.95855 28.6993 7.11054 28.3081ZM9.48046 24.4372C9.53088 24.4751 9.54703 24.4989 9.6224 24.5122C9.70412 24.5265 9.78816 24.5311 9.87066 24.5391C10.0472 24.5564 10.2242 24.5629 10.4013 24.5713C10.755 24.5881 11.1086 24.6059 11.4625 24.6166C12.1651 24.638 12.8827 24.6682 13.585 24.6369C13.7568 24.6293 13.8349 24.4876 13.8193 24.3584C13.951 24.5216 14.095 24.6748 14.2484 24.8144C14.495 25.0389 14.7611 25.2379 15.0417 25.4135C14.8597 25.4201 14.6743 25.443 14.5025 25.4503C14.2114 25.4628 13.9202 25.4753 13.6291 25.4878C13.0156 25.5142 12.4021 25.5425 11.7887 25.5712C10.6534 25.6243 9.52196 25.6903 8.39098 25.7987C8.71398 25.3131 9.0758 24.855 9.48046 24.4372ZM27.9584 26.796C27.4787 25.4788 26.8603 24.1105 25.7473 23.2058C25.1753 22.7408 24.538 22.4191 23.8162 22.2667C23.7941 22.262 23.7852 22.2936 23.8069 22.3007C25.055 22.7103 25.9787 23.7943 26.6035 24.9051C26.7167 25.1064 26.8216 25.3125 26.9208 25.5218C26.8885 25.4824 26.8391 25.4562 26.7723 25.4573C25.2963 25.4821 23.803 25.4571 22.3304 25.6013C22.368 25.5763 22.4056 25.5513 22.4425 25.5249C22.8447 25.2381 23.2067 24.8872 23.5059 24.4897C23.6862 24.5354 23.8759 24.5466 24.0598 24.5641C24.3052 24.5874 24.5523 24.5981 24.7985 24.6113C25.0443 24.6245 25.2911 24.6258 25.5372 24.6317C25.7063 24.6358 26.0369 24.6639 26.0371 24.4051C26.0373 24.146 25.7063 24.1734 25.5372 24.1768C25.291 24.1817 25.0444 24.1824 24.7985 24.1939C24.5627 24.2049 24.3256 24.2139 24.0905 24.235C23.9472 24.2478 23.7996 24.2563 23.6555 24.2791C23.8901 23.9289 24.0768 23.5475 24.2015 23.1453C24.214 23.1048 24.2182 23.0669 24.2161 23.0319C24.269 22.9761 24.3027 22.8996 24.3027 22.8295C24.3027 22.6629 24.1729 22.5652 24.0212 22.5479C23.4208 22.4792 22.7593 22.3814 22.2754 21.9864C22.057 21.8082 21.8814 21.5975 21.716 21.3708C21.5303 21.1159 21.4606 20.7949 21.4599 20.4829C21.4599 20.4654 21.4309 20.4601 21.4282 20.4786C21.3373 21.1111 21.4684 21.8331 21.9222 22.3069C22.3677 22.7722 22.9729 22.9465 23.587 23.0483C23.3338 23.7718 22.9158 24.4073 22.3291 24.907C21.6752 25.4639 20.8476 25.7617 20.0037 25.8741C19.0934 25.9954 18.1392 25.9365 17.244 25.7385C16.3816 25.5478 15.538 25.2067 14.836 24.6623C14.4819 24.3876 14.1562 24.0639 13.8723 23.7174C13.638 23.4314 13.4584 23.1125 13.2573 22.8062C14.0076 23.012 14.9147 22.7309 15.5431 22.3338C15.9133 22.0999 16.2376 21.808 16.504 21.4607C16.6354 21.2894 16.7523 21.1086 16.8487 20.9152C16.8989 20.8146 16.9439 20.7112 16.9854 20.6068C17.011 20.5423 17.0362 20.476 17.0362 20.4051C17.036 20.3529 17.0229 20.3042 16.9967 20.2591C16.9429 20.202 16.9322 20.1855 16.9646 20.2094C16.9118 20.1013 16.7591 20.0738 16.6615 20.1299C16.6251 20.1509 16.5395 20.1914 16.4974 20.2591C16.4689 20.3049 16.4536 20.3596 16.4354 20.4098C16.4067 20.4891 16.3777 20.5675 16.3416 20.6438C16.2577 20.8212 16.1571 20.9905 16.0423 21.1495C15.8326 21.4404 15.563 21.7033 15.2694 21.9086C14.9611 22.124 14.6289 22.3002 14.2685 22.4102C13.8879 22.5263 13.5112 22.561 13.1185 22.6035C13.1144 22.5977 13.1103 22.5919 13.1061 22.5861C13.0985 22.5756 13.0821 22.579 13.0815 22.5927C13.0812 22.5993 13.0813 22.6059 13.0811 22.6124C13.0252 22.6387 13.0205 22.7176 13.0829 22.7479C13.106 23.1113 13.2628 23.4692 13.4336 23.7836C13.5047 23.9146 13.5851 24.0415 13.6722 24.1641C13.6464 24.1543 13.6175 24.148 13.585 24.1468C12.8825 24.1198 12.165 24.1545 11.4625 24.1802C11.119 24.1928 10.7758 24.2121 10.4325 24.2305C10.2555 24.24 10.0782 24.246 9.90187 24.2643C9.8137 24.2735 9.725 24.2807 9.6373 24.2939C9.63094 24.2949 9.62503 24.2959 9.61946 24.2969C9.83642 24.0831 10.0651 23.8806 10.3066 23.6917C11.0986 23.0719 12.0083 22.5668 12.9789 22.2922C12.9881 22.2896 12.9867 22.2738 12.9765 22.2749C11.0461 22.4724 9.43805 23.6893 8.31317 25.2174C7.689 26.0652 7.21561 27.0039 6.80825 27.9717C6.60293 28.4596 6.40866 28.9561 6.24597 29.46C6.16328 29.7161 6.126 29.9877 6.24443 30.2389C6.33526 30.4317 6.50287 30.5749 6.67855 30.6887C6.69022 30.6963 6.70224 30.7033 6.71404 30.7107C6.53445 31.3367 6.41414 31.9789 6.29871 32.6192C6.17332 33.3148 6.06393 34.0133 5.96997 34.7138C5.78218 36.1141 5.63833 37.5173 5.57551 38.9291C5.55814 39.3196 5.54653 39.7104 5.54146 40.1012C5.53893 40.2967 5.54005 40.4922 5.54271 40.6877C5.54575 40.9065 5.51614 41.1534 5.62747 41.3486C5.77623 41.6095 6.06515 41.5197 6.19223 41.3413C6.19407 41.3437 6.19598 41.3462 6.19786 41.3486C6.20938 41.326 6.21902 41.3033 6.22725 41.2807C6.24093 41.2506 6.24985 41.2192 6.2531 41.1871C6.27705 41.0659 6.26803 40.9429 6.26706 40.8112C6.26565 40.626 6.26672 40.4408 6.26725 40.2555C6.26828 39.9058 6.27226 39.5562 6.28221 39.2066C6.30215 38.5075 6.34108 37.809 6.39432 37.1117C6.50011 35.7265 6.65617 34.3477 6.78972 32.9652C6.8577 32.2613 6.93971 31.5556 6.95385 30.8479C7.11871 30.9347 7.28882 31.0134 7.45335 31.0972C7.75864 31.2527 8.0639 31.4081 8.36916 31.5636C8.66522 31.7143 8.96171 31.8642 9.25833 32.0139C9.55742 32.1648 9.85451 32.3644 10.191 32.4015C10.3709 32.4213 10.436 32.1789 10.33 32.0658C10.1916 31.9179 10.0078 31.8261 9.82306 31.74C10.0685 31.749 10.3143 31.7538 10.5602 31.7557C10.5636 32.0652 10.5527 32.3754 10.5372 32.6843C10.499 33.4418 10.4459 34.198 10.3956 34.9549C10.2912 36.528 10.19 38.102 10.1111 39.6767C10.0918 40.0624 10.0725 40.448 10.0531 40.8337C10.0437 41.0212 10.0307 41.2089 10.0254 41.3966C10.0194 41.6071 10.0246 41.871 10.2194 42.001C10.357 42.0928 10.505 42.0495 10.6083 41.9233C10.7464 41.7545 10.7462 41.5099 10.7573 41.3027C10.7599 41.2549 10.7622 41.207 10.7647 41.1591C10.9756 41.1865 11.185 41.2243 11.3969 41.2449C11.6557 41.2702 11.9161 41.285 12.176 41.2917C12.706 41.3053 13.2351 41.3102 13.7652 41.3102C14.8144 41.3103 15.8634 41.2923 16.9124 41.2754C19.0104 41.2415 21.1082 41.1827 23.2055 41.1176C23.787 41.0995 24.3684 41.0806 24.9498 41.0608C25.2508 41.0506 25.5519 41.0401 25.853 41.0294C26.138 41.0193 26.4493 41.0561 26.7001 40.9081C26.7074 40.9982 26.7148 41.0883 26.7227 41.1783C26.7378 41.3489 26.8576 41.4954 27.0396 41.4954C27.2106 41.4954 27.3576 41.3503 27.3565 41.1783C27.2926 39.6227 27.1544 38.0669 27.0449 36.5139C26.9443 35.0875 26.85 33.659 26.7062 32.2359C26.747 32.2623 26.7969 32.2787 26.8557 32.2789C27.0436 32.2797 27.2311 32.1631 27.4069 32.1012C27.5843 32.0387 27.7646 31.9846 27.9473 31.9402C28.0555 31.9139 28.1641 31.8919 28.273 31.8732C28.2598 32.0958 28.2632 32.3205 28.2591 32.5423C28.2527 32.8833 28.2421 33.2242 28.2339 33.5651C28.2175 34.2369 28.2118 34.9087 28.1989 35.5805C28.1731 36.9349 28.1305 38.2885 28.0581 39.6412C28.0383 40.0129 28.0159 40.3844 27.9911 40.7558C27.978 40.9518 27.9642 41.1478 27.9498 41.3437C27.9356 41.5363 27.9024 41.7409 27.9749 41.9255C27.9772 41.9241 27.9795 41.9228 27.9817 41.9215C28.0323 42.0804 28.2545 42.1567 28.3595 41.9758C28.5231 41.6938 28.4853 41.2897 28.5041 40.9724C28.5243 40.632 28.5424 40.2915 28.5584 39.9509C28.5905 39.2695 28.6127 38.5879 28.6256 37.9059C28.6514 36.5417 28.647 35.1754 28.5636 33.8132C28.5408 33.4407 28.5089 33.0689 28.4761 32.6973C28.4515 32.4186 28.438 32.1324 28.3945 31.8537C28.607 31.8223 28.8211 31.8041 29.0373 31.7988C29.2465 31.7936 29.3815 31.6048 29.3371 31.405C28.9898 29.84 28.5066 28.3014 27.9584 26.796Z" fill="black"/>
<path fill-rule="evenodd" clip-rule="evenodd" d="M15.4046 6.46655C17.3727 6.35884 19.1164 5.80446 20.5018 7.04517C20.5018 7.04517 22.743 5.36729 23.1169 6.00634C23.3675 6.43454 23.02 7.00937 23.1132 7.53776C23.7207 8.57606 23.6864 10.3335 23.7207 10.7453C23.8073 11.7834 24.3526 15.6897 24.3526 16.6173C24.3526 17.0908 23.9632 18.3309 23.7207 19.021C23.1809 20.557 22.1506 21.3398 20.4608 21.3398C18.7711 21.3398 16.0131 19.924 15.1286 18.6669C15.0511 18.5568 14.5498 18.8782 14.0255 18.3206C13.4574 17.7167 13.1423 16.5647 13.1423 15.8779C13.1423 15.0065 12.5806 14.4022 12.6459 13.2868C12.7918 10.7957 13.2986 6.5818 15.4046 6.46655Z" fill="#D08B5B"/>
<path fill-rule="evenodd" clip-rule="evenodd" d="M23.1189 5.9995C23.3694 6.4277 23.0219 7.00253 23.1151 7.53093C23.3496 7.9316 23.4884 8.43936 23.5725 8.93556L23.1131 9.17999L22.9431 9.20498C20.1869 9.61237 18.4278 9.979 17.6657 10.3049C16.8959 10.6341 15.9617 11.7903 14.863 13.7736L14.8297 13.8339L14.612 15.3141L13.6139 15.6209L13.1441 15.8442C13.1327 14.9871 12.5832 14.3839 12.6479 13.28C12.7938 10.7889 13.3005 6.57496 15.4065 6.45971C17.3747 6.352 19.1184 5.79763 20.5037 7.03834C21.9979 5.91975 22.8696 5.57347 23.1189 5.9995Z" fill="#9FD8E5"/>
<path fill-rule="evenodd" clip-rule="evenodd" d="M15.1856 3.57003C15.2112 3.56846 15.2371 3.56971 15.263 3.57225C15.2915 3.5735 15.3199 3.57629 15.3483 3.58196C15.4929 3.60979 15.6219 3.6865 15.7218 3.79453C15.7247 3.79734 15.7268 3.80051 15.7293 3.80329C15.7762 3.83868 15.8196 3.87878 15.8586 3.92134C15.8655 3.91476 15.8721 3.90822 15.8793 3.90164C15.8999 3.88345 15.9214 3.86623 15.9439 3.84998C16.038 3.76908 16.1484 3.71028 16.2672 3.67682L16.2834 3.67241C16.2865 3.67147 16.2897 3.67085 16.2928 3.67022C16.3771 3.64207 16.4658 3.62767 16.5551 3.62795C16.662 3.62451 16.7691 3.64207 16.869 3.68337C16.9874 3.73256 17.0905 3.81018 17.177 3.90352C17.2338 3.94986 17.2835 4.00087 17.336 4.05695C17.4443 4.17308 17.5299 4.30897 17.584 4.45867C17.5914 4.47965 17.598 4.50122 17.6039 4.52282C17.7361 4.50751 17.8688 4.49655 18.0015 4.4912C18.1505 4.48215 18.2995 4.47899 18.4488 4.48403C18.8601 4.49746 19.2624 4.57014 19.6519 4.70321C19.73 4.72635 19.8059 4.75578 19.8789 4.7921C19.9936 4.83781 20.1019 4.89605 20.2041 4.9665L20.2911 5.01823C20.3348 5.04427 20.3785 5.07064 20.4208 5.0977C20.5217 5.16254 20.6173 5.23515 20.7079 5.31343C20.8034 5.3908 20.8937 5.47503 20.9796 5.56329C21.0029 5.58718 21.0254 5.61139 21.0476 5.63575C21.2456 5.74286 21.4215 5.88001 21.5855 6.04358C21.7156 5.96855 21.8503 5.90055 21.9893 5.84008C22.1327 5.77778 22.3148 5.71359 22.465 5.67135C22.6 5.63346 22.7333 5.60747 22.8686 5.58834C22.9301 5.5777 22.9919 5.56924 23.0541 5.56204L23.0516 5.56301C23.0953 5.55828 23.1387 5.55421 23.1828 5.55046L23.1815 5.55014C23.2002 5.54861 23.2193 5.54701 23.238 5.54576L23.2836 5.54203C23.2974 5.54078 23.3174 5.573 23.3186 5.58427L23.3202 5.59586C23.3305 5.60747 23.3399 5.62031 23.3464 5.62814C23.3545 5.62748 23.3627 5.62689 23.3708 5.62654C23.3951 5.62438 23.4232 5.66787 23.4376 5.68447L23.4506 5.69977C23.4654 5.71761 23.4802 5.73815 23.4826 5.76055C23.4985 5.89053 23.5135 6.02075 23.5273 6.151C23.5326 6.24963 23.5273 6.34733 23.511 6.44408C23.4988 6.53801 23.4863 6.63194 23.4738 6.72556C23.4539 6.79135 23.4342 6.8571 23.4145 6.92282C23.4067 6.9479 23.398 6.97261 23.3895 6.99734C23.3396 7.16254 23.281 7.32336 23.2113 7.47919C23.2622 7.53561 23.3096 7.5941 23.3537 7.6545C23.3643 7.66537 23.3749 7.67617 23.3848 7.68744C23.3876 7.68309 23.3917 7.67902 23.3961 7.6768C23.4111 7.67022 23.422 7.67805 23.4314 7.69092C23.5298 7.78513 23.6013 7.89507 23.6456 8.02059L23.6733 8.08606C23.6778 8.09701 23.6824 8.10796 23.6869 8.11891C23.7221 8.21413 23.7493 8.31182 23.7718 8.41073C23.7919 8.48857 23.8064 8.56747 23.8157 8.64722C23.8831 8.87432 23.9365 9.10665 23.9868 9.33585C23.9947 9.37192 23.991 9.40411 23.9794 9.43154L24.0089 9.46028L24.0591 9.51047C24.1436 9.59488 24.2297 9.68361 24.2925 9.78404C24.3574 9.8883 24.4052 9.99977 24.4583 10.1103L24.4697 10.1338L24.4931 10.1809C24.5184 10.2323 24.5305 10.2607 24.5529 10.3229C24.5901 10.4266 24.6101 10.5308 24.6195 10.6407C24.6332 10.8007 24.6313 10.9751 24.5614 11.1238C24.5611 11.1251 24.5604 11.1261 24.5598 11.127C24.528 11.2707 24.4492 11.4041 24.3296 11.4892C24.304 11.5134 24.2765 11.535 24.2472 11.5522C24.1767 11.5937 24.112 11.5974 24.0351 11.5782L24.0254 11.5757C24.0157 11.5732 24.007 11.571 23.9986 11.5691C24.0111 11.5794 24.0173 11.5917 23.9986 11.6004C23.9804 11.6092 23.9642 11.6142 23.9489 11.6161C23.9555 11.6245 23.9561 11.6336 23.9423 11.6411C23.9124 11.6571 23.888 11.6621 23.863 11.6577L23.8683 11.7012C23.9092 12.0306 23.9459 12.0958 23.9779 12.4496C23.9992 12.8118 24.0329 13.1732 24.0795 13.533L24.0955 13.6637C24.1469 14.078 24.2046 14.4954 24.2931 14.9031C24.3377 15.0813 24.3762 15.2607 24.4086 15.4413C24.4546 15.5788 24.4867 15.7194 24.5045 15.8628C24.5305 16.0087 24.5483 16.1559 24.5586 16.3043C24.5945 16.3992 24.612 16.4956 24.611 16.5939C24.6157 16.726 24.6113 16.8579 24.5973 16.9891C24.5895 17.1256 24.5707 17.2608 24.5411 17.3948C24.5145 17.5787 24.4661 17.7562 24.3968 17.9284C24.3412 18.1206 24.2731 18.3092 24.1956 18.4936C24.0754 18.7791 23.9302 19.0443 23.7649 19.3058C23.61 19.5509 23.4439 19.787 23.254 20.0065C23.0085 20.2902 22.7286 20.5501 22.4219 20.7692C22.247 20.8989 22.0624 21.0154 21.8694 21.115C21.6333 21.237 21.3934 21.3469 21.1376 21.4211C20.978 21.4675 20.8156 21.4994 20.6513 21.5239C20.3287 21.5718 19.9945 21.5645 19.67 21.5085C19.4607 21.4803 19.2549 21.4315 19.0603 21.3617C18.9004 21.3041 18.748 21.238 18.5956 21.1635C18.5172 21.1256 18.4416 21.0817 18.3691 21.0326C18.2473 20.9534 18.1333 20.8638 18.0271 20.7649C17.9925 20.7351 17.9587 20.7047 17.9256 20.6728C17.9097 20.6587 17.9185 20.6377 17.9369 20.6328L17.9425 20.6321C17.9353 20.6255 17.9278 20.6189 17.9206 20.6121C17.9191 20.6108 17.9178 20.6093 17.9166 20.6077C17.9131 20.6045 17.9094 20.6014 17.9063 20.5983C17.8941 20.5876 17.9063 20.5638 17.9169 20.5582C17.921 20.556 17.9263 20.5557 17.9322 20.5563C17.9309 20.5551 17.93 20.5541 17.9288 20.5532C17.9275 20.5523 17.9272 20.5498 17.9275 20.5472L17.9228 20.5435C17.9069 20.5294 17.915 20.5088 17.9338 20.5034C17.9429 20.5006 17.958 20.5021 17.9737 20.5055L17.9797 20.5069L17.9691 20.4968C17.9503 20.4806 17.9562 20.4624 17.9794 20.4568C17.9966 20.4578 18.0136 20.4602 18.0305 20.4643L18.0431 20.4677C18.0493 20.4693 18.0553 20.4712 18.0615 20.4731C18.0509 20.4633 18.0403 20.454 18.03 20.4442C18.0197 20.4352 18.0306 20.4092 18.04 20.4039C18.0528 20.3967 18.0777 20.4067 18.0893 20.4151C18.1177 20.4183 18.1552 20.4308 18.1689 20.4427C18.2067 20.479 18.2458 20.5137 18.2854 20.5476C18.3095 20.5551 18.3323 20.5651 18.3498 20.5801C18.3948 20.6233 18.4416 20.6641 18.4894 20.7035L18.5257 20.7286C18.5318 20.7327 18.5379 20.7368 18.5441 20.7408C18.6128 20.7811 18.6815 20.8212 18.7499 20.8616C19.0007 20.9468 19.2515 21.032 19.502 21.1168L19.5351 21.1268L19.7784 21.1569C19.9383 21.1738 20.0985 21.1729 20.2584 21.1544C20.3784 21.156 20.4974 21.144 20.6145 21.1196C20.8134 21.0858 21.0086 21.036 21.1985 20.9665C21.4172 20.8867 21.6255 20.7815 21.8288 20.6681C21.9019 20.6271 21.9737 20.5836 22.0443 20.5376C22.0671 20.5213 22.0899 20.5047 22.1127 20.4878C22.2629 20.3747 22.4066 20.2542 22.545 20.1267C22.6099 20.0669 22.6724 20.0047 22.7327 19.9402C22.7414 19.9307 22.7499 19.9217 22.7583 19.9123C22.8161 19.849 22.872 19.7836 22.9254 19.7159L22.9763 19.6584C23.1818 19.4019 23.3645 19.1261 23.5288 18.842C23.6919 18.5606 23.8262 18.2644 23.933 17.9578C23.9673 17.8485 23.9973 17.7377 24.0223 17.6256C24.0685 17.491 24.0988 17.3529 24.1129 17.212C24.1176 17.1844 24.1213 17.1569 24.1251 17.1293L24.1272 17.0859C24.1275 17.0786 24.1278 17.0714 24.1279 17.0642C24.1341 17.0204 24.1394 16.9765 24.1435 16.9327C24.146 16.8886 24.1475 16.8444 24.1479 16.8002L24.1444 16.5294C24.1435 16.5209 24.1425 16.5122 24.1419 16.5034L24.135 16.4436C24.1201 16.3202 24.1085 16.1966 24.0935 16.0732C24.0935 16.0726 24.0935 16.0716 24.0932 16.0707C24.0876 16.0247 24.0816 15.9783 24.0748 15.932C24.0713 15.9044 24.067 15.8769 24.0629 15.8493L24.0551 15.8011C24.0406 15.7173 24.023 15.6342 24.0017 15.5518L23.9923 15.5165L23.938 15.2425L23.8768 14.9729C23.8371 14.7923 23.804 14.6103 23.7777 14.4269C23.7303 14.1344 23.6897 13.8417 23.6544 13.5476C23.6525 13.5335 23.6506 13.5191 23.6491 13.5051C23.6131 13.2324 23.5872 12.9587 23.5704 12.6841C23.5476 12.4136 23.5344 12.1424 23.531 11.871C23.5307 11.8587 23.5388 11.8487 23.5485 11.8431L23.5476 11.7909C23.5465 11.7447 23.5456 11.8001 23.5452 11.7474L23.5447 11.6027C23.5447 11.5906 23.5448 11.5822 23.5451 11.5816C23.3782 11.5932 23.266 11.5837 23.1048 11.5752L23.0775 11.5738C22.9298 11.5669 22.783 11.5506 22.6371 11.5262C22.6365 11.5337 22.6315 11.539 22.6231 11.5406C22.6081 11.5412 22.594 11.5412 22.5796 11.5416L22.585 11.5619C22.5853 11.5722 22.5806 11.5788 22.5706 11.5816L22.5289 11.5835C22.4733 11.5858 22.4175 11.5869 22.3623 11.5794C22.3126 11.5729 22.2642 11.5613 22.2161 11.5475C22.1864 11.5425 22.1561 11.5356 22.1252 11.5268C22.0459 11.504 21.9672 11.4733 21.8875 11.4489C21.8063 11.4316 21.7239 11.426 21.6377 11.4467C21.5465 11.4683 21.4693 11.5074 21.3737 11.4836C21.3547 11.4789 21.3363 11.4717 21.3178 11.4642L21.3008 11.463C21.2979 11.4627 21.2949 11.4624 21.2919 11.462C21.1923 11.4476 21.1036 11.3844 21.0086 11.3505C20.9755 11.3424 20.9426 11.3445 20.9105 11.3579L20.9024 11.3615L20.8709 11.385C20.8582 11.4 20.8456 11.4152 20.8332 11.4304L20.8147 11.4532C20.7806 11.4955 20.7444 11.5334 20.7004 11.5609C20.6473 11.6101 20.5842 11.6389 20.5089 11.6408C20.4661 11.642 20.4236 11.633 20.3824 11.6198C20.2269 11.6681 20.0604 11.6778 19.9052 11.6308C19.8436 11.6214 19.7834 11.6048 19.7256 11.5788C19.6984 11.5666 19.6712 11.5522 19.645 11.5362C19.5354 11.5826 19.4317 11.6442 19.3258 11.6975L19.302 11.7095C19.1938 11.7635 19.0741 11.8162 18.9516 11.8083C18.7973 11.7983 18.6459 11.7777 18.4947 11.7516C18.4935 11.7516 18.4919 11.7513 18.4906 11.751L18.4698 11.7475L18.3942 11.7342L18.3332 11.7229L18.3021 11.7348C18.0517 11.8298 17.7774 11.9039 17.5259 11.8374C17.4162 11.824 17.3135 11.787 17.2207 11.7241C17.2176 11.7219 17.2145 11.7197 17.2113 11.7172C17.1967 11.7097 17.1829 11.7013 17.1707 11.6922L17.1681 11.6901L17.1657 11.6881L17.1645 11.6874C17.0274 11.6242 16.9487 11.4896 16.9624 11.3387C16.954 11.2907 16.9543 11.2438 16.9637 11.1937C16.919 11.2466 16.8734 11.2989 16.8272 11.3508C16.6581 11.555 16.4925 11.7631 16.3392 11.9799L16.304 12.03C16.2197 12.1493 16.1413 12.2727 16.0688 12.3998C15.9954 12.5253 15.9202 12.6497 15.8424 12.7724C15.7413 12.8844 15.6435 12.9991 15.5493 13.1167L15.5092 13.1672L15.3736 13.346C15.2777 13.46 15.1981 13.5846 15.1353 13.7199C15.0838 13.816 15.0363 13.914 14.9935 14.0145C14.9798 14.0449 14.9666 14.0755 14.9538 14.1062C14.9098 14.2262 14.8726 14.3483 14.8436 14.4744C14.8202 14.5658 14.8035 14.6583 14.7935 14.7522L14.7905 14.7835C14.7867 14.8204 14.7839 14.8574 14.7824 14.8943C14.7914 14.8997 14.7989 14.905 14.8045 14.9103L14.8273 14.9185L14.8458 14.9239C14.8745 14.9329 14.9241 14.9514 14.9123 14.9742L14.852 15.0894C14.8583 15.096 14.8611 15.1029 14.857 15.1104C14.8167 15.1877 14.7761 15.2651 14.7355 15.3424C14.7343 15.3452 14.7321 15.3474 14.7299 15.349C14.7646 15.3649 14.7983 15.3825 14.8305 15.4016C14.8932 15.4392 14.9395 15.4827 14.9823 15.5334C15.0272 15.5604 15.0697 15.5898 15.1097 15.6236C15.159 15.6755 15.2021 15.7326 15.2387 15.7942C15.2724 15.8525 15.2999 15.9132 15.3211 15.9768C15.3305 16.0103 15.3349 16.045 15.3346 16.0804C15.2968 16.3478 14.9916 16.1646 14.9857 16.1411C14.9438 15.9796 14.8957 15.8775 14.7877 15.7573L14.7849 15.7554C14.7224 15.7278 14.6606 15.7006 14.5959 15.6793C14.5862 15.6812 14.5762 15.6825 14.5662 15.684C14.5775 15.7 14.5719 15.7157 14.5491 15.7184C14.4507 15.7379 14.3513 15.7432 14.2514 15.7347L14.0996 15.7132C14.0366 15.7374 13.9765 15.7684 13.9197 15.8055L13.901 15.818L13.8975 15.8205C13.7511 15.9386 13.638 16.0954 13.5605 16.2664C13.5537 16.2816 13.5471 16.297 13.5408 16.3125L13.5315 16.3359L13.5309 16.3372C13.4297 16.7358 13.5199 17.1735 13.7048 17.5351C13.8057 17.697 13.911 17.8557 14.0209 18.0114L14.1277 18.1514C14.1908 18.2108 14.2527 18.2719 14.3129 18.3345C14.3223 18.3439 14.3323 18.3533 14.3423 18.3624C14.3741 18.3833 14.4066 18.4018 14.4397 18.4175C14.4525 18.4218 14.4657 18.4259 14.4788 18.4294C14.5425 18.46 14.6093 18.4764 14.6796 18.4782C14.7724 18.4844 14.8625 18.4735 14.9496 18.4458L14.9669 18.44L14.9798 18.4353C15.0272 18.4049 15.0713 18.3671 15.1131 18.3226C15.1225 18.3129 15.14 18.3129 15.16 18.3182C15.1709 18.3069 15.1818 18.295 15.1921 18.2822C15.1993 18.2744 15.2106 18.2741 15.2193 18.28C15.249 18.2766 15.3293 18.3223 15.3083 18.3464C15.3049 18.352 15.3005 18.357 15.2968 18.3624C15.3108 18.3696 15.3249 18.3777 15.3374 18.3862C15.403 18.4044 15.4998 18.47 15.492 18.4898L15.491 18.4914C15.4759 18.5201 15.4561 18.5443 15.4318 18.5634L15.4236 18.5696L15.4051 18.5825C15.4311 18.5988 15.4529 18.6175 15.442 18.6307C15.437 18.6404 15.4317 18.6498 15.4254 18.6583C15.4785 18.724 15.5313 18.7904 15.5838 18.8568C15.6363 18.9708 15.7012 19.0772 15.7787 19.1758C15.8433 19.2829 15.9211 19.3791 16.012 19.4648C16.0195 19.4724 16.0273 19.4796 16.0348 19.4868C16.1018 19.5364 16.1718 19.5828 16.2448 19.6274L16.2762 19.6465C16.2928 19.6564 16.3206 19.669 16.3075 19.6931C16.3059 19.6962 16.304 19.6987 16.3018 19.7006C16.3478 19.7307 16.3952 19.7591 16.4443 19.7855L16.4489 19.7883C16.4674 19.8002 16.4926 19.8217 16.4661 19.8393C16.4436 19.8543 16.384 19.8136 16.3559 19.7948C16.3506 19.7948 16.3443 19.7933 16.3381 19.7914C16.3474 19.7964 16.3567 19.8018 16.366 19.8071L16.3802 19.8149C16.3912 19.8215 16.4449 19.8572 16.4074 19.8722C16.389 19.8737 16.3721 19.869 16.3565 19.8584C16.3381 19.8493 16.32 19.8396 16.3022 19.8296C16.3084 19.8393 16.3084 19.849 16.2928 19.8553C16.2875 19.8556 16.2822 19.8553 16.2769 19.8547C16.3137 19.8782 16.3515 19.9 16.3905 19.9207L16.3969 19.9247C16.4134 19.9354 16.4397 19.9558 16.4205 19.9733C16.399 19.9927 16.3396 19.9514 16.3243 19.942L16.2787 19.9148C16.2753 19.9163 16.2715 19.917 16.2675 19.9173C16.2812 19.9258 16.294 19.9348 16.3081 19.9429L16.3272 19.9534C16.3512 19.9667 16.385 19.9885 16.3727 20.0103C16.3605 20.0318 16.3241 20.0141 16.3005 20.0001L16.2752 19.9844C16.2741 19.9837 16.273 19.983 16.2719 19.9824L16.2709 19.9862C16.2707 19.9868 16.2704 19.9874 16.27 19.988C16.2583 20.0085 16.2288 19.9951 16.2085 19.9833L16.1922 19.9733C16.1645 19.9566 16.1371 19.9401 16.1099 19.9234L16.0692 19.8982H16.0685C15.9277 19.8133 15.7974 19.7288 15.6747 19.6198C15.6013 19.5547 15.5329 19.4858 15.4679 19.4122C15.3374 19.2647 15.2402 19.096 15.1465 18.9238C15.145 18.9209 15.1472 18.9137 15.1509 18.9059C15.1406 18.8847 15.1306 18.863 15.1206 18.8408C15.0244 18.8677 14.917 18.8756 14.818 18.869C14.7649 18.8655 14.7124 18.8561 14.6602 18.842C14.4938 18.8189 14.3332 18.7428 14.1946 18.6517C14.1858 18.646 14.178 18.6398 14.1699 18.6342C14.1127 18.6019 14.0584 18.5643 14.0069 18.5214C13.9063 18.4381 13.8104 18.3454 13.7233 18.2487C13.6602 18.1736 13.6005 18.0956 13.5446 18.0148C13.4878 17.935 13.4303 17.8551 13.3728 17.7753C13.2132 17.5248 13.1111 17.2364 13.0714 16.9418C13.0521 16.8332 13.0421 16.7232 13.0443 16.6136C13.0458 16.5344 13.0546 16.4543 13.0699 16.3744C13.0608 16.3656 13.0517 16.3569 13.0427 16.3478C13.0377 16.3566 13.0327 16.3629 13.0296 16.3597L12.958 16.2878C12.9072 16.2365 12.8731 16.1988 12.8147 16.1158C12.7216 15.9833 12.6523 15.8377 12.6007 15.6843C12.5636 15.5748 12.5389 15.4501 12.5292 15.3296C12.5261 15.3095 12.523 15.2892 12.5205 15.2685C12.5005 15.1054 12.5189 14.9491 12.5436 14.7882C12.5452 14.7776 12.5505 14.771 12.5576 14.7675C12.5595 14.7548 12.5616 14.7417 12.5637 14.7286C12.3568 14.5091 12.208 14.2445 12.2201 13.9249C12.2239 13.8242 12.2445 13.725 12.2839 13.6323L12.2887 13.6218C12.116 13.5952 11.979 13.4736 11.8761 13.3229C11.867 13.3156 11.8581 13.3083 11.8496 13.3011C11.6656 13.1435 11.538 12.9204 11.4507 12.6848C11.3881 12.5479 11.3467 12.4017 11.3291 12.25C11.3278 12.2392 11.3271 12.2285 11.3261 12.2177C11.2834 11.9779 11.2725 11.7357 11.2922 11.497C11.2494 11.3493 11.2145 11.1991 11.1906 11.0453C11.1793 10.972 11.1715 10.8987 11.1656 10.8254L11.165 10.8214L11.164 10.8082L11.1614 10.7754C11.161 10.7699 11.1606 10.7645 11.1603 10.7591C11.1075 10.0884 11.2571 9.42834 11.5045 8.80713C11.526 8.75126 11.5483 8.69554 11.5712 8.64026L11.5956 8.5825C11.8439 8.18109 12.2167 7.85643 12.5325 7.51354C12.6415 7.39525 12.4653 7.21765 12.3559 7.33641C12.1461 7.56423 11.921 7.78244 11.7177 8.01662C11.6818 8.01925 11.6459 8.02022 11.61 8.01843C11.5476 8.01527 11.487 8.00528 11.4283 7.98928C11.2818 7.96768 11.1484 7.9085 11.0272 7.82145C10.8651 7.74571 10.7268 7.6029 10.713 7.4166C10.7115 7.39781 10.7118 7.37934 10.713 7.3609C10.698 7.26975 10.7115 7.17428 10.7496 7.08627C10.7561 7.06216 10.7646 7.03836 10.7752 7.01488C10.8061 6.94506 10.857 6.87808 10.9192 6.83265C10.9207 6.83171 10.922 6.83111 10.9232 6.83014C10.9298 6.82329 10.936 6.81637 10.9432 6.81014C10.9538 6.8004 10.9651 6.79135 10.977 6.78289C10.9348 6.71335 10.8967 6.64199 10.8642 6.56588C10.8289 6.48322 10.8108 6.39933 10.8008 6.31069C10.7967 6.27562 10.7952 6.24087 10.7946 6.20614C10.7927 6.19014 10.7914 6.17386 10.7902 6.15758C10.7824 6.03359 10.7967 5.90493 10.843 5.78905C10.8464 5.78031 10.8508 5.77151 10.8548 5.76243C10.8636 5.73613 10.8733 5.70986 10.8851 5.68415C10.9314 5.58552 10.9969 5.50192 11.0778 5.43335C11.1216 5.3892 11.1706 5.35006 11.224 5.31687C11.2555 5.29715 11.2915 5.27961 11.3293 5.26521C11.3967 5.22952 11.4832 5.19695 11.5535 5.19448C11.5619 5.19414 11.5694 5.19511 11.5776 5.19511C11.5841 5.01535 11.6072 4.81965 11.6781 4.65684C11.7194 4.53882 11.7812 4.43393 11.8743 4.35844C11.9283 4.30196 11.9948 4.25609 12.0778 4.22611L12.0926 4.22098L12.0982 4.21942C12.1729 4.1831 12.2534 4.16869 12.3362 4.16904C12.4327 4.164 12.5311 4.18219 12.6151 4.22662C12.6326 4.23601 12.6513 4.2476 12.6691 4.26012C12.6826 4.2332 12.6976 4.20596 12.7147 4.17875C12.775 4.08196 12.8478 3.99774 12.9321 3.92102C12.9421 3.91194 12.9531 3.9038 12.9637 3.89507C13.0046 3.85781 13.048 3.82336 13.093 3.79205C13.1901 3.72439 13.2966 3.67401 13.4084 3.64141C13.5375 3.59359 13.6737 3.57139 13.81 3.57606L13.8382 3.57726C13.8444 3.57785 13.8507 3.57817 13.8566 3.57848C13.9919 3.58728 14.1252 3.62047 14.2527 3.67053C14.3848 3.72286 14.4966 3.80204 14.6006 3.89284C14.6249 3.85906 14.6527 3.82709 14.6868 3.79703C14.6965 3.78861 14.7068 3.78106 14.7165 3.77323C14.724 3.76572 14.7318 3.75852 14.7399 3.75132C14.7771 3.71844 14.8164 3.68995 14.8595 3.66459C14.9079 3.63612 14.9601 3.6164 15.0141 3.60419C15.0691 3.58537 15.1269 3.57378 15.1856 3.57003ZM14.5437 16.4781C14.5493 16.4777 14.8385 16.5865 14.9827 16.6568L14.9898 16.6603C15.1559 16.7429 15.2359 16.8024 15.3852 16.9086C15.3952 16.9158 15.4055 16.9267 15.4055 16.9374C15.4055 17.092 15.368 17.281 15.2384 17.1973C15.2196 17.1852 15.2007 17.1733 15.1817 17.1617L15.1531 17.1444L15.1522 17.1447C15.1525 17.1447 15.1528 17.1444 15.1531 17.144C14.8708 16.9715 14.5725 16.8363 14.2577 16.7395C14.2361 16.7317 14.3957 16.4899 14.4397 16.5034C14.4144 16.4934 14.5395 16.4783 14.5437 16.4781ZM17.5103 9.64956C17.3226 9.66969 17.1349 9.68951 16.9471 9.70889C16.8275 9.72267 16.7076 9.73488 16.5876 9.74521C16.4074 9.75871 16.2272 9.76087 16.0476 9.73613C15.9839 9.7274 15.9214 9.71484 15.8596 9.6995C15.8174 9.7305 15.7737 9.75961 15.729 9.78751L15.2331 10.1679C14.9004 10.43 14.575 10.7077 14.282 11.0143C13.7704 11.5498 13.3536 12.1763 13.0916 12.8703C13.0678 12.8844 13.0495 12.9089 13.0433 12.9465C12.9971 13.231 12.8617 13.4904 12.8128 13.7737C12.7646 14.0528 12.8287 14.29 13.0035 14.5112C13.0408 14.5584 13.1173 14.5559 13.1642 14.524C13.1751 14.5455 13.2223 14.5446 13.2389 14.4497C13.3167 14.3653 13.3832 14.2769 13.4282 14.1673C13.4614 14.0867 13.4056 14.0308 13.338 14.0198C13.3661 13.9183 13.3978 13.8178 13.4334 13.7183C13.539 13.4227 13.6733 13.1403 13.8423 12.8754C13.9909 12.6424 14.163 12.4395 14.3479 12.236C14.3501 12.2332 14.3538 12.2323 14.3579 12.2317L14.3963 12.189C14.4016 12.1831 14.4126 12.1837 14.4247 12.1869C14.4363 12.1746 14.4475 12.1621 14.4594 12.1499C14.471 12.1374 14.4838 12.1411 14.491 12.1512C14.5106 12.1468 14.5466 12.1681 14.5575 12.175C14.5762 12.1875 14.5822 12.2016 14.5662 12.2194C14.5634 12.2226 14.5606 12.2257 14.5578 12.2285C14.5793 12.2376 14.6006 12.2498 14.6171 12.2617C14.6749 12.2745 14.7561 12.3284 14.7421 12.3444C14.7124 12.3753 14.6837 12.407 14.6552 12.4392C14.6802 12.4568 14.6965 12.474 14.6899 12.4815C14.5681 12.6102 14.4557 12.7464 14.3526 12.8907C14.2742 12.9984 14.2033 13.1105 14.1399 13.2273C14.0456 13.3926 13.9656 13.5627 13.8947 13.7374C13.8847 13.764 13.875 13.7906 13.8657 13.8172C13.762 14.1081 13.6845 14.4099 13.6517 14.7174L13.6504 14.7382C13.6443 14.8489 13.6419 15.1455 13.6305 15.2162C13.6995 15.2503 13.7714 15.2795 13.846 15.3033C13.8601 15.3074 13.8744 15.3111 13.8888 15.3146C13.8969 15.3111 13.9053 15.3083 13.9138 15.3058C13.9825 15.2779 14.0543 15.2579 14.1277 15.2481C14.1772 15.2416 14.2264 15.2393 14.2756 15.2407L14.2967 15.2416C14.3186 15.2422 14.3401 15.2438 14.362 15.246C14.3607 15.2334 14.3601 15.2213 14.3592 15.2087C14.3529 15.2046 14.3482 15.199 14.3479 15.1915C14.3332 15.0506 14.3329 14.9097 14.347 14.7688C14.3563 14.6952 14.3673 14.6219 14.3791 14.5487C14.3913 14.4885 14.4054 14.4294 14.4207 14.3702C14.4613 14.2043 14.5153 14.0424 14.5809 13.884C14.7677 13.4321 15.0353 13.0247 15.3046 12.6196C15.501 12.3237 15.6869 12.0212 15.8902 11.7303C16.0632 11.4827 16.245 11.2388 16.439 11.0071C16.6326 10.7757 16.8372 10.553 17.058 10.347C17.0936 10.3141 17.1295 10.2822 17.1661 10.2506C17.3753 10.0627 17.6027 9.90834 17.8394 9.75683C17.8485 9.75088 17.8647 9.75745 17.8782 9.76869L17.9164 9.74515C17.9228 9.74125 17.9292 9.73738 17.9356 9.73363C17.9416 9.7299 17.9481 9.73613 17.9516 9.74145C17.9678 9.733 17.984 9.72489 18.0003 9.71672C18.0121 9.70714 18.0243 9.69806 18.0363 9.6886C17.8607 9.67974 17.6854 9.66659 17.5103 9.64956ZM19.7122 7.5622C19.5704 7.53374 19.4279 7.52963 19.2849 7.55093C19.225 7.55972 19.1653 7.57031 19.1061 7.58311C19.2405 7.70053 19.3485 7.85079 19.4186 8.02372C19.4944 8.21065 19.1922 8.29122 19.1175 8.10698C19.0454 7.92926 18.909 7.79293 18.7443 7.71121C18.7086 7.73115 18.6741 7.75276 18.6412 7.77668C18.5981 7.81175 18.5575 7.84963 18.5194 7.89128C18.4363 7.9818 18.3601 8.10263 18.3101 8.22224C18.2908 8.28736 18.2764 8.35437 18.2673 8.42325C18.2655 8.43891 18.2636 8.45488 18.262 8.47085C18.2312 8.79489 18.3236 9.11016 18.4826 9.38914L18.4889 9.38924C18.6308 9.31208 18.7794 9.24708 18.9323 9.19414C19.0547 9.11151 19.1818 9.03507 19.3127 8.96588C19.5909 8.81874 19.8847 8.70531 20.1875 8.62774L20.2225 8.61895C20.2938 8.60068 20.3658 8.58459 20.438 8.57052L20.4814 8.56231H20.4821L20.4774 8.51562C20.453 8.33245 20.3815 8.16243 20.289 8.00528C20.2197 7.88661 20.1151 7.76513 19.9989 7.66806L19.9983 7.66772C19.9455 7.63766 19.89 7.61279 19.833 7.59225L19.8115 7.58474L19.7122 7.5622ZM15.9049 7.28387C15.61 7.25598 15.3152 7.25879 15.0204 7.2829C14.8277 7.30203 14.6362 7.32862 14.4457 7.36243C14.3167 7.38466 14.1902 7.41598 14.0659 7.45483L14.137 7.59898C14.2558 7.83904 14.3775 8.07753 14.5209 8.30427C14.595 8.42106 14.6752 8.53225 14.7627 8.63899C14.8217 8.71539 14.8867 8.78618 14.9579 8.85128C14.9766 8.87417 14.9966 8.89577 15.0169 8.91672C15.0819 8.97245 15.1518 9.0213 15.2284 9.06169C15.2897 9.1065 15.3538 9.14564 15.4206 9.17996L15.4457 9.1926L15.68 9.28275C15.6925 9.28629 15.7051 9.28984 15.7178 9.29322L15.7368 9.29812L15.7724 9.3056L15.7992 9.29106C15.8036 9.28866 15.8082 9.28629 15.8127 9.284C15.8202 9.27996 15.8255 9.28779 15.8271 9.29339C15.8277 9.29562 15.8268 9.29872 15.8252 9.30185L15.8594 9.28334C15.9181 9.30723 15.9803 9.32633 16.0471 9.33892C16.0774 9.34459 16.1077 9.34894 16.138 9.35266L16.1421 9.35538C16.1427 9.35586 16.1434 9.35638 16.1441 9.35699H16.1773C16.4108 9.37956 16.6476 9.34972 16.8807 9.30773C17.2106 9.27448 17.5404 9.23781 17.87 9.20353C17.8763 9.20293 17.8788 9.20572 17.8788 9.21014L17.8991 9.20826C17.9285 9.20509 17.9628 9.25425 17.9406 9.27213C17.9584 9.28275 17.9756 9.29812 17.9884 9.31002L17.9959 9.30936C17.9506 9.22044 17.9156 9.12744 17.8907 9.03072L17.8588 8.8685C17.8501 8.80807 17.8451 8.7436 17.8441 8.68001C17.8419 8.65089 17.8404 8.62368 17.8404 8.59985C17.8404 8.57731 17.8407 8.55476 17.8416 8.53225C17.7795 8.50654 17.7164 8.48403 17.652 8.4649C17.4693 8.44239 17.2869 8.41981 17.1042 8.39758C16.9946 8.40165 16.885 8.40948 16.7756 8.42169C16.6517 8.43265 16.528 8.44674 16.4046 8.46365C16.393 8.4649 16.3724 8.44924 16.3599 8.43108L16.3072 8.43832C16.2797 8.44176 16.2509 8.38662 16.2872 8.37535C16.3003 8.37013 16.3134 8.36519 16.3265 8.36044L16.3462 8.35343L16.3349 8.35468C16.3312 8.35503 16.3265 8.35406 16.3212 8.35221C16.2922 8.35594 16.2631 8.35969 16.2344 8.36314C16.1979 8.3677 16.2062 8.31953 16.2318 8.30819L16.2441 8.30365C16.2225 8.29015 16.2035 8.25322 16.2302 8.24115L16.2338 8.23977C16.2462 8.23479 16.2584 8.23069 16.2709 8.22599C16.27 8.22196 16.27 8.21817 16.2712 8.21475L16.2197 8.2213C16.215 8.22192 16.2374 8.18895 16.2481 8.18243L16.25 8.18153L16.2747 8.17402C16.2784 8.16337 16.2984 8.13989 16.3053 8.13773C16.3959 8.1092 16.4802 8.08356 16.5683 8.0638C16.5726 8.05848 16.5776 8.05441 16.5833 8.05316C16.6382 8.04001 16.6938 8.02967 16.7494 8.02094C16.7532 8.01527 16.7569 8.01123 16.7613 8.01089C16.899 7.99335 17.0371 7.98928 17.1757 7.99871C17.2023 8.00118 17.2288 8.00403 17.2554 8.00744C17.3063 8.01311 17.3572 8.02031 17.4078 8.03002C17.5345 8.05182 17.6583 8.08497 17.7789 8.12968L17.8066 8.1402C17.8369 8.15151 17.8669 8.16337 17.8966 8.17624C17.9116 8.1227 17.9303 8.07007 17.9525 8.01843C17.9559 8.00838 17.9597 7.99871 17.9637 7.989L17.9334 7.97081C17.9269 7.98333 17.9135 7.99304 17.9047 7.98775C17.6876 7.8409 17.4581 7.71844 17.216 7.62075C17.0805 7.56063 16.9418 7.50963 16.7997 7.46701C16.7288 7.44419 16.6573 7.42352 16.5854 7.4038C16.5495 7.39625 16.5136 7.38873 16.4771 7.38247C16.2893 7.33175 16.0985 7.2989 15.9049 7.28387ZM23.0576 7.78088C23.0312 7.82653 23.0038 7.87174 22.9747 7.91633C22.8335 8.13297 22.6643 8.33627 22.4723 8.51353C22.5224 8.5134 22.5723 8.51531 22.6216 8.51994C22.7067 8.52799 22.79 8.54214 22.8712 8.56196C22.8778 8.55667 22.8851 8.55401 22.891 8.55821L22.9122 8.57289C23.0864 8.62001 23.2499 8.6941 23.3981 8.79335L23.3954 8.77375C23.395 8.77049 23.3945 8.76722 23.3939 8.76395C23.3964 8.72544 23.397 8.68689 23.3958 8.6487C23.3652 8.42294 23.2886 8.21504 23.2012 8.00466C23.1995 8.00059 23.2007 7.99529 23.2032 7.98991C23.1591 7.91764 23.1108 7.84776 23.0576 7.78088ZM23.0978 6.00603C23.0325 6.01793 22.9679 6.03327 22.9035 6.05237C22.7827 6.07057 22.6655 6.1025 22.5525 6.14787C22.3966 6.20329 22.2455 6.26779 22.0949 6.33608C21.8026 6.46881 21.5284 6.63667 21.2788 6.83894C21.2629 6.85112 21.2476 6.86368 21.2323 6.8762C21.1764 6.9247 21.122 6.97543 21.0705 7.02897C21.0164 7.08783 20.9621 7.14673 20.9081 7.20588C20.8419 7.27542 20.7656 7.33832 20.7057 7.41347C20.6935 7.42881 20.6829 7.44572 20.6732 7.46266L20.7085 7.47484C20.7382 7.48486 20.7332 7.54059 20.7038 7.53245C20.6938 7.52963 20.6844 7.52619 20.6751 7.52246C20.6791 7.52779 20.6819 7.53311 20.6826 7.53778C20.6844 7.5528 20.6729 7.5735 20.6545 7.56818C20.646 7.56596 20.6376 7.56282 20.6292 7.55938C20.6267 7.56909 20.6248 7.57879 20.6248 7.58819C20.6263 7.58881 20.6279 7.58944 20.6298 7.58978C20.6504 7.59698 20.6891 7.6292 20.6947 7.65115C20.6991 7.66806 20.6848 7.68619 20.6663 7.68118C20.6526 7.67742 20.6392 7.67179 20.626 7.66552C20.6348 7.67401 20.6417 7.68309 20.6423 7.69092C20.6435 7.70532 20.631 7.72564 20.6139 7.72098C20.582 7.71218 20.5564 7.69875 20.5351 7.68184C20.5295 7.68932 20.5214 7.69527 20.5148 7.69342L20.5027 7.68967C20.506 7.69278 20.509 7.69605 20.512 7.69927L20.5164 7.70404C20.6026 7.79734 20.6779 7.90067 20.7382 8.01186C20.741 8.0087 20.7444 8.00588 20.7488 8.00243C20.7769 7.97864 20.8059 7.95547 20.835 7.93295L20.8438 7.92525L20.8528 7.91758L20.7875 7.93918L20.789 7.93749C20.7936 7.93157 20.8079 7.91183 20.8146 7.90525L20.8162 7.9038C20.9059 7.82336 21.0036 7.75507 21.1092 7.69937C21.1776 7.65488 21.2494 7.61731 21.3247 7.58631C21.5043 7.50271 21.6873 7.43918 21.8753 7.38031C21.9035 7.37123 21.9316 7.36152 21.9597 7.35273C21.9678 7.34991 21.9694 7.35335 21.9681 7.35899L21.9828 7.3546C22.009 7.34615 22.0537 7.39249 22.0359 7.4141C22.0466 7.42286 22.0572 7.43263 22.0664 7.4418L22.0731 7.44854L22.0805 7.44635C22.1029 7.43945 22.1405 7.47432 22.1644 7.49902L22.1821 7.51774C22.1955 7.53214 22.2217 7.56188 22.1896 7.5735L22.1493 7.58725C22.1505 7.59539 22.1471 7.60228 22.1346 7.60697C22.1205 7.61167 22.1068 7.61668 22.093 7.62172C22.1014 7.62901 22.1096 7.63658 22.1176 7.64426L22.1296 7.65582C22.1437 7.67029 22.1773 7.70218 22.1477 7.71627L22.144 7.71781L22.1055 7.73159C22.1105 7.74286 22.1093 7.75354 22.0924 7.75977C21.8682 7.83617 21.6492 7.92575 21.4353 8.02751C21.2751 8.11641 21.1058 8.18282 20.9274 8.22631C20.9128 8.23104 20.8809 8.2088 20.8678 8.18657L20.8411 8.19443C20.8367 8.19573 20.8323 8.19698 20.8278 8.19813L20.8234 8.1991C20.8568 8.28833 20.8815 8.38506 20.8953 8.47868C20.8968 8.48713 20.8981 8.49593 20.899 8.50438C20.934 8.50153 20.9687 8.49903 21.0036 8.49718C21.2457 8.48431 21.4906 8.49214 21.7332 8.52095C21.8313 8.46239 21.9256 8.39821 22.0159 8.32873C22.0434 8.3074 22.0706 8.28549 22.0974 8.26325C22.2586 8.12298 22.4044 7.96552 22.5337 7.79547C22.6534 7.63797 22.7574 7.46889 22.8448 7.2917C22.9223 7.12541 22.9863 6.95257 23.0347 6.7741C23.0791 6.61097 23.0944 6.45222 23.1056 6.28345C23.1094 6.2559 23.1119 6.22837 23.114 6.20079L23.1138 6.18898L23.1134 6.18325C23.1103 6.12411 23.1044 6.0649 23.0978 6.00603ZM20.8094 8.10294C20.8022 8.10545 20.7947 8.10795 20.7872 8.11014C20.7916 8.11985 20.7956 8.12927 20.7997 8.13895L20.8002 8.13876L20.8297 8.11547C20.8234 8.11265 20.8162 8.1083 20.8094 8.10294ZM23.0541 5.56205C23.1103 5.54107 23.1528 5.537 23.1815 5.55015C23.139 5.55328 23.0966 5.55735 23.0541 5.56205Z" fill="black"/>
<path fill-rule="evenodd" clip-rule="evenodd" d="M21.2085 19.0034C20.9981 18.9175 20.8103 18.7743 20.6731 18.5913C20.6254 18.5277 20.613 18.4606 20.623 18.3991C20.6343 18.33 20.6751 18.2674 20.7308 18.2254C20.7867 18.1833 20.8566 18.1625 20.9242 18.1731C20.9829 18.1823 21.0414 18.2145 21.0876 18.2812L21.0973 18.2946C21.1789 18.405 21.2852 18.4956 21.4064 18.554C21.5232 18.6103 21.6538 18.6366 21.7889 18.6213C22.0463 18.5922 22.2237 18.4529 22.4123 18.2638C22.4357 18.24 22.459 18.2153 22.4825 18.1903C22.4974 18.1676 22.518 18.153 22.5408 18.1454C22.5662 18.1369 22.595 18.1374 22.6213 18.1466C22.6466 18.1554 22.6693 18.1722 22.6845 18.1946C22.699 18.2158 22.7072 18.242 22.7045 18.2722C22.6873 18.4682 22.5849 18.6431 22.4394 18.7804C22.2778 18.933 22.0636 19.0385 21.862 19.0755C21.6398 19.1163 21.4134 19.087 21.2085 19.0034ZM21.9668 15.98C22.2031 16.1237 22.5632 16.4588 22.309 16.8151C22.0097 17.1293 21.5788 16.7691 21.3664 16.6062C21.1695 16.4799 20.9483 16.8047 21.131 16.9521C22.6654 18.0885 23.2881 16.0176 22.0863 15.811C21.954 15.7883 21.9048 15.9355 21.9668 15.98ZM19.2171 14.658C19.2432 14.3338 19.7369 14.2601 19.786 14.581C19.83 14.8684 19.7782 15.1325 19.6488 15.3913C19.5251 15.6385 19.2143 15.5232 19.1908 15.298C19.1593 14.9963 19.2009 14.8597 19.2171 14.658ZM22.975 14.5145C23.0438 14.4243 23.1432 14.3627 23.2622 14.3975C23.6342 14.5063 23.5246 15.0346 23.3939 15.2917C23.323 15.4314 23.0935 15.4668 22.9898 15.3438C22.8208 15.1433 22.7399 14.7429 22.9547 14.5454C22.9605 14.5352 22.967 14.5249 22.975 14.5145ZM19.6435 13.2391L19.7023 13.2288C19.8841 13.1974 20.1101 13.1672 20.2387 13.3134C20.3069 13.3909 20.3304 13.535 20.2387 13.6092C20.0774 13.7398 19.8992 13.6892 19.7059 13.7002C19.5467 13.7094 19.3936 13.7357 19.2402 13.7796C18.9037 13.8758 18.6295 14.0515 18.3421 14.2443C18.3044 14.2696 18.2659 14.2214 18.2839 14.1861C18.4498 13.861 18.7713 13.5939 19.0934 13.4312C19.2653 13.3443 19.4534 13.2722 19.6435 13.2391ZM22.6359 13.0935L22.6809 13.1027C23.1703 13.2051 23.8062 13.4095 24.0379 13.8904C24.0468 13.9584 24.0374 13.973 24.0298 13.9825L24.0273 13.9857C24.0211 13.9938 24.0161 14.005 23.9866 14.0143C23.9784 14.0123 23.9702 14.0103 23.9618 14.0081C23.8556 13.9802 23.7715 13.9419 23.6902 13.902L23.6019 13.8586C23.4996 13.8083 23.3963 13.76 23.2869 13.7242C23.0533 13.648 22.8131 13.5943 22.5691 13.5657C22.5162 13.5595 22.4653 13.5416 22.4252 13.511C22.387 13.482 22.3579 13.4418 22.3446 13.3883C22.3274 13.3192 22.3324 13.2668 22.3695 13.2044C22.3973 13.1575 22.4373 13.1251 22.4831 13.1064C22.5298 13.0874 22.583 13.0829 22.6359 13.0935Z" fill="black"/>
<path fill-rule="evenodd" clip-rule="evenodd" d="M23.2595 19.717C23.1502 19.6813 23.0429 19.6397 22.9351 19.5995C22.384 19.3226 21.7182 19.2724 21.1402 19.5056C20.8565 19.6201 20.592 19.8258 20.3073 19.9606C20.2397 19.9858 20.1716 20.0087 20.1027 20.0279C20.0604 20.0132 20.0181 19.9976 19.9762 19.9819C19.6743 19.8681 19.3903 19.7276 19.1145 19.5731C19.0851 19.5317 19.0546 19.4915 19.0218 19.4528C19.2213 19.4245 19.4167 19.3774 19.5934 19.3288C20.1361 19.18 20.6476 18.9377 21.1884 18.7824C21.692 18.6374 22.2385 18.5582 22.7443 18.7382C22.9843 18.8237 23.1956 18.9734 23.4291 19.0742C23.5499 19.1262 23.6948 19.1772 23.836 19.1847C23.7449 19.403 23.6297 19.6068 23.4723 19.7765C23.4003 19.7612 23.3289 19.7396 23.2595 19.717ZM24.4338 18.0077C24.3855 18.0479 24.1861 18.1775 24.1214 18.2548C24.1047 18.2484 24.088 18.2419 24.0715 18.2352C24.0431 18.2002 24.0011 18.1849 23.9584 18.1858C23.6602 18.0471 23.3947 17.851 23.1577 17.6051C22.9893 17.4307 22.8169 17.2481 22.5919 17.147C22.3268 17.0274 22.066 17.0825 21.7875 17.1007C21.4911 17.1204 21.1984 17.0362 20.9023 17.0766C20.6858 17.1063 20.4829 17.198 20.3077 17.3274C19.9499 17.5913 19.7033 17.962 19.4009 18.2817C19.0579 18.6443 18.636 18.876 18.1668 18.9944C18.1612 18.9906 18.1552 18.9868 18.1493 18.9834C17.8034 18.6703 17.4911 18.3168 17.2147 17.9401C16.9449 17.5722 16.2335 15.9162 16.0617 15.7709C15.9903 15.7104 15.912 15.6845 15.8372 15.6867C15.7017 15.6898 15.5765 15.784 15.5205 15.9324C15.4253 16.1848 15.4729 16.5111 15.4804 16.775C15.4898 17.0982 15.5111 17.421 15.5449 17.7425C15.5784 18.0603 15.6228 18.3772 15.6782 18.6919C15.7061 18.851 15.7371 19.0097 15.7712 19.1678C15.7818 19.2176 15.7953 19.2621 15.8116 19.3034C15.8282 19.3814 15.846 19.459 15.8651 19.536C15.9897 20.0405 16.1862 20.5455 16.5615 20.9178C16.9521 21.3058 17.4829 21.5634 17.9759 21.7939C18.4454 22.0134 18.9374 22.2085 19.4422 22.3613C19.8807 22.5601 20.3502 22.7173 20.8216 22.7999C21.3405 22.891 21.8861 22.8967 22.3872 22.7163C22.6335 22.6277 22.8663 22.504 23.0776 22.35C23.3771 22.1944 23.6466 21.9805 23.8673 21.6975C24.2625 21.1902 24.4511 20.5746 24.5337 19.9398C24.5548 19.7773 24.6342 19.1546 24.6405 19.0577C24.6607 18.7446 24.6808 18.4315 24.701 18.1184C24.7105 17.9706 24.5292 17.9285 24.4338 18.0077Z" fill="black"/>
</svg>
