<svg width="36" height="48" viewBox="0 0 36 48" fill="none" xmlns="http://www.w3.org/2000/svg">
<path fill-rule="evenodd" clip-rule="evenodd" d="M6.3716 40.4812C6.329 40.4825 6.34243 40.4701 6.35808 40.4671C6.36258 40.4718 6.36709 40.4765 6.3716 40.4812ZM7.62934 41.4165C8.81955 41.5577 10.0112 41.4285 11.1956 41.2991C13.5949 41.1211 15.9775 41.6395 18.3816 41.4814C21.386 41.3548 24.3986 41.1169 27.3931 41.5177C28.2213 41.5368 29.5424 41.7604 29.242 40.4777C28.8475 37.1801 28.32 33.899 27.7549 30.6268C27.276 28.7923 27.2414 25.6192 25.93 24.3435C25.7383 24.1684 25.0506 23.6019 24.8688 23.5258C23.9649 23.1892 22.3354 22.9265 21.6631 22.2128C21.1186 21.2911 21.3719 20.0333 20.5252 19.2912C19.7831 18.6851 18.1634 18.8132 17.37 19.2684C16.744 19.6744 16.6459 20.4631 16.2559 21.0463C16.1597 21.1861 15.9311 21.5229 15.8021 21.6316C15.4879 21.9342 14.3846 22.252 14.066 22.3104C12.268 22.679 11.3714 22.9068 9.95726 24.102C6.26218 27.8758 6.78596 34.5504 5.76352 39.4852C5.72168 40.0277 5.39201 40.7639 5.98017 41.1132C6.48675 41.356 7.08237 41.3295 7.62934 41.4165Z" fill="#D08B5B"/>
<path fill-rule="evenodd" clip-rule="evenodd" d="M21.2505 20.9579C21.2549 20.9451 21.2755 20.9429 21.2787 20.9579C21.3291 21.1887 21.4236 21.4417 21.5194 21.658C21.6167 21.8772 21.7497 22.0786 21.9178 22.2495C22.2699 22.6077 22.7228 22.7712 23.2195 22.7715L23.2314 22.7718C23.2337 22.7551 23.2363 22.7384 23.2387 22.7217L23.2421 22.6966C23.2874 22.3535 23.6946 22.3635 23.7741 22.6224C23.8145 22.6353 23.8549 22.6481 23.895 22.6616L23.903 22.6644C23.9704 22.6901 24.1989 22.8039 24.2408 22.7737C24.3331 22.7072 24.4386 22.7834 24.4737 22.8682C24.531 23.0071 24.5405 23.1789 24.5591 23.3296L24.5616 23.3491L24.5644 23.3726C25.8712 23.7124 26.6045 25.0202 26.9788 26.2251C27.1816 26.8782 27.3144 27.5521 27.4477 28.2221C27.5904 28.9388 27.7219 29.6574 27.8611 30.3744C28.1356 31.7875 28.3954 33.2037 28.6211 34.6252L28.6865 35.0381C28.8933 36.3452 29.0946 37.6516 29.264 38.9647C29.3554 39.6726 29.4411 40.3812 29.5237 41.0904C29.5386 41.2168 29.5532 41.3434 29.5678 41.4699L29.5895 41.6599C29.6089 41.8303 29.6417 41.9987 29.5575 42.1581C29.3751 42.5037 28.8223 42.5012 28.791 42.0585C28.7848 41.9705 28.8145 41.9032 28.8637 41.8562L28.863 41.8488C28.8625 41.8444 28.862 41.8411 28.8618 41.8396C28.8455 41.7517 28.8411 41.6587 28.8311 41.5697C28.8092 41.38 28.7879 41.1903 28.7663 41.0002C28.7247 40.6382 28.6827 40.2763 28.6392 39.9146C28.5513 39.181 28.4583 38.4483 28.3598 37.7163L28.2621 36.9925C27.9353 34.5797 27.5947 32.1675 27.1466 29.7739C27.0245 29.1223 26.8991 28.4717 26.7704 27.8213C26.6483 27.2054 26.5112 26.5924 26.3065 25.9978C25.9723 25.0265 25.3879 24.1169 24.5766 23.4794C24.5892 23.6012 24.5982 23.7236 24.6098 23.8454C24.6396 24.1582 24.6712 24.4707 24.7031 24.7832C24.8192 25.9154 24.9766 27.0458 25.2452 28.1529C25.3782 28.7015 25.5403 29.2429 25.7378 29.7717C25.8352 30.0322 25.9413 30.2893 26.0577 30.5416C26.1729 30.7912 26.3748 31.058 26.387 31.336C26.3926 31.4647 26.258 31.579 26.1335 31.5652C26.1917 32.0775 26.2245 32.595 26.2593 33.106C26.31 33.8462 26.3503 34.5877 26.4095 35.3272C26.5153 36.652 26.648 37.9749 26.787 39.2966C26.8145 39.5586 26.8445 39.8204 26.8741 40.0822L26.8989 40.3019C26.9156 40.4444 26.9408 40.6152 26.8652 40.7416C26.9328 40.9047 26.9791 41.0722 27.0061 41.2469C27.0402 41.4642 26.916 41.7078 26.6624 41.6984C26.6336 41.6975 26.6048 41.695 26.576 41.6919C26.341 41.7463 26.1065 41.7942 25.8624 41.7958C25.5507 41.798 25.2383 41.7917 24.9266 41.7896C24.3235 41.7855 23.7203 41.7814 23.1172 41.7764C20.9338 41.7589 18.7494 41.7598 16.5663 41.7247L15.6928 41.7109C14.8921 41.698 14.0912 41.6831 13.2909 41.654C12.7397 41.6339 12.1886 41.6136 11.6377 41.5914L11.5255 41.5871C11.0395 41.5694 10.5528 41.5603 10.0721 41.4858C10.0601 41.4838 10.0548 41.4713 10.0567 41.4603L10.0574 41.4573L10.0364 41.4526C10.0242 41.5052 9.7707 41.2842 9.77257 41.1373C9.66741 41.0005 9.71655 40.782 9.72782 40.6235C9.73877 40.4692 9.75254 40.3145 9.76475 40.1601C9.79073 39.8304 9.81295 39.5004 9.83955 39.1707C9.94691 37.8412 10.0396 36.5083 10.0996 35.176C10.13 34.5044 10.1544 33.8324 10.1801 33.1608C10.1916 32.855 10.2077 32.549 10.2377 32.2446L10.2455 32.1685C10.2784 31.8598 10.2752 31.5279 10.3888 31.237C10.3904 31.233 10.3957 31.233 10.3973 31.237C10.5122 31.5201 10.5231 31.8492 10.5463 32.1598C10.5504 32.1586 10.5544 32.1579 10.5588 32.157C10.7175 32.0815 10.8777 32.0136 11.028 31.9203C11.0483 31.9078 11.068 31.8946 11.0881 31.8818C11.3244 31.1585 11.5982 30.4471 11.8502 29.7285C12.6643 27.4049 13.1137 24.9303 13.2133 22.4699C12.5923 22.8704 11.916 23.182 11.2586 23.5165L11.197 23.548C10.5494 23.8793 9.92938 24.2553 9.46835 24.8299C9.06647 25.3302 8.80387 25.9398 8.55818 26.5276C8.29433 27.1591 8.05645 27.8019 7.83893 28.4507C7.39761 29.767 7.05583 31.1156 6.78916 32.4779C6.52594 33.8224 6.33783 35.1769 6.21201 36.5409C6.14785 37.2366 6.08932 37.933 6.04018 38.6303C6.01514 38.9831 5.99292 39.3363 5.97226 39.6898C5.96225 39.8614 5.95473 40.0333 5.94347 40.2049C5.93658 40.3038 5.93533 40.4059 5.90278 40.4998C5.87555 40.5781 5.82735 40.6436 5.78228 40.7128C5.69996 40.8389 5.49214 40.8618 5.41483 40.7128L5.38135 40.6482C5.33704 40.5622 5.29658 40.4757 5.29057 40.3765C5.28494 40.2825 5.29652 40.1845 5.30184 40.0903C5.31217 39.8996 5.32406 39.7086 5.33595 39.5179C5.36099 39.1168 5.38885 38.7157 5.42015 38.315C5.48243 37.5121 5.56256 36.7115 5.66334 35.9124C6.01796 33.106 6.53001 30.3143 7.50716 27.651C7.74879 26.9925 8.01827 26.3393 8.3225 25.7072C8.6167 25.096 8.98885 24.5189 9.52907 24.0981C10.0263 23.7107 10.6044 23.4513 11.1787 23.1996L11.2505 23.1682C11.8943 22.8867 12.5369 22.5836 13.2092 22.3744C13.1942 22.3763 13.1795 22.3782 13.1667 22.3826C13.1519 22.3873 13.1432 22.3682 13.1523 22.3578C13.1904 22.3156 13.2064 22.2721 13.2502 22.2304C13.2805 22.2016 13.312 22.1744 13.3444 22.1482L13.391 22.111C13.4763 22.0433 13.566 21.9741 13.6734 21.9505C13.8252 21.9173 13.8997 22.0554 13.8571 22.1634C13.879 22.1349 13.9378 22.1434 13.9532 22.1825C14.4527 23.4713 14.7807 24.8355 15.453 26.0532C15.9494 26.9528 16.6155 27.7834 17.4993 28.3267C17.9741 28.6185 18.5175 28.8427 19.0787 28.8781C19.5826 28.9097 20.0674 28.7816 20.4959 28.5171C21.3266 28.0045 21.869 27.1046 22.2558 26.2326C22.6812 25.2726 22.9848 24.2497 23.1632 23.2126C22.5979 23.2205 22.0014 22.9625 21.6255 22.542C21.4277 22.3206 21.2802 22.051 21.2054 21.7636C21.13 21.4736 21.1541 21.2353 21.2505 20.9579ZM16.5084 20.2049C16.5773 20.0818 16.73 20.0411 16.8549 20.0912C16.9935 20.147 17.0352 20.2816 17.0155 20.4184C16.9926 20.5787 16.8896 20.7519 16.8095 20.8918C16.7256 21.0384 16.6177 21.1734 16.5059 21.2995C16.2956 21.5375 16.0705 21.752 15.8036 21.9273C15.5379 22.1017 15.2374 22.2323 14.9285 22.3052L14.855 22.3224C14.6147 22.3773 14.2729 22.4403 14.0727 22.3097C14.063 22.3034 14.0633 22.2905 14.0727 22.2843C14.181 22.2088 14.326 22.1953 14.4505 22.1597C14.5863 22.1205 14.7225 22.0761 14.8524 22.0203C15.1087 21.9101 15.3541 21.7648 15.5726 21.5913C15.792 21.4173 16.0042 21.2097 16.151 20.9701C16.2249 20.8499 16.2878 20.7237 16.3482 20.5966C16.4092 20.4691 16.4399 20.3276 16.5084 20.2049Z" fill="black"/>
<path fill-rule="evenodd" clip-rule="evenodd" d="M25.2227 17.1188C24.695 14.7207 24.5922 12.087 23.1994 9.99305C22.5908 9.13923 21.6129 8.02586 20.4705 8.37677C20.5176 7.87119 20.562 7.36539 20.6031 6.85927C20.6266 6.56977 20.7347 6.18405 20.4903 5.96146C20.0868 5.63482 19.4189 6.13464 19.107 6.4139C18.4314 7.06248 18.1646 7.69243 17.2746 8.12559C16.9179 7.87072 16.5702 7.60329 16.2081 7.3553C15.8391 7.10262 15.3114 6.69217 14.9285 7.15864C14.604 7.55404 14.8113 8.17728 14.9399 8.61232C15.0057 8.83482 15.0712 9.07767 15.1626 9.30649C15.1703 9.48042 15.1837 9.65404 15.2035 9.82716C14.5442 9.94477 13.8657 10.0437 13.2358 10.2745C12.8923 10.461 12.9226 10.8846 13.1663 11.1382C13.531 11.4922 13.9924 11.7691 14.4962 11.9549C14.4047 12.2723 14.1854 12.5414 13.9097 12.7174C13.8172 12.7761 13.7654 12.8623 13.7466 12.9543C13.6053 13.0247 13.4539 13.0755 13.2941 13.1085C13.097 13.1493 12.983 13.3825 13.0339 13.5679C13.177 14.0185 13.6816 13.761 14.0093 13.7292C14.0192 14.0438 14.0243 14.3717 14.1668 14.6631C13.4051 14.8635 12.7452 15.5942 12.9213 16.4175C13.0813 17.2046 13.9287 17.4451 14.5996 17.6239C14.6504 17.6539 14.6502 17.6834 14.6664 17.7577C14.7771 18.2679 14.6839 18.8292 14.5094 19.3136C14.4618 19.4456 14.5317 19.6109 14.6374 19.6901C15.1837 20.0388 15.3648 18.9768 15.9875 19.6528C15.941 19.6458 15.8254 19.5878 15.8314 19.6718C16.6393 21.0932 19.0248 21.1806 20.4864 21.2154C20.6618 21.301 20.8638 21.2525 21.0644 21.1979C21.2558 21.1875 21.447 21.1731 21.6378 21.1536C21.986 21.0906 22.5985 21.1653 22.6204 20.6736C23.5197 20.3179 24.293 19.7035 24.8203 18.8894C25.2115 18.3492 25.3659 17.7774 25.2227 17.1188Z" fill="#D08B5B"/>
<path fill-rule="evenodd" clip-rule="evenodd" d="M14.7002 18.5049C14.759 18.8554 14.8967 19.1905 15.1288 19.4863C15.1419 19.5029 15.1552 19.5195 15.1687 19.536L15.1531 19.5444L15.1372 19.5527C15.0148 19.6153 14.8903 19.6483 14.7758 19.5514C14.6748 19.4657 14.7207 19.2904 14.7293 19.1723L14.7322 19.1287L14.7388 19.0369L14.7412 18.9997C14.7484 18.8816 14.7498 18.7611 14.7193 18.6509C14.7138 18.631 14.7022 18.6167 14.6878 18.6078C14.6918 18.5791 14.6954 18.5503 14.6985 18.5215L14.7002 18.5049ZM13.9105 12.7184C13.8256 13.0294 13.7701 13.3453 13.7374 13.6672C13.6422 13.6694 13.547 13.6792 13.452 13.6564C13.388 13.6411 13.3283 13.6175 13.2716 13.584C13.2515 13.5721 13.2227 13.541 13.1986 13.5284C13.2504 13.4992 13.3112 13.3951 13.3516 13.3539C13.414 13.2904 13.4789 13.2294 13.5461 13.1711C13.6337 13.0952 13.8305 12.9927 13.8475 12.8723C13.8484 12.8658 13.8469 12.8592 13.8408 12.8558C13.825 12.8468 13.8087 12.8416 13.7921 12.8392C13.8177 12.7962 13.8532 12.7572 13.8997 12.7255L13.9105 12.7184ZM15.6824 7.32006L15.6971 7.32747L15.7698 7.36252C15.9058 7.42885 16.0388 7.49968 16.1717 7.57225C16.4954 7.749 16.8143 7.93158 17.1298 8.1223C17.155 8.13751 17.19 8.10601 17.1719 8.08012C17.1582 8.06055 17.1444 8.04114 17.1304 8.0219L17.1376 8.02724C17.1874 8.06508 17.2693 8.14678 17.1173 8.25639C16.7573 8.51603 16.4327 8.82607 16.1254 9.1456C15.6462 9.64385 15.2268 10.201 14.902 10.811C14.6282 11.1101 14.405 11.4706 14.2297 11.8469C14.1765 11.823 14.1238 11.7981 14.0719 11.7721C14.1148 11.7662 14.1522 11.7499 14.1999 11.7231L14.2112 11.7168L14.2313 11.705C14.3031 11.6627 14.3255 11.5496 14.2589 11.4907C14.2011 11.4395 14.1765 11.4004 14.1002 11.3758C14.0332 11.3542 13.9629 11.3446 13.8951 11.3256C13.7524 11.2857 13.6198 11.2224 13.4964 11.1405C13.3857 11.0671 13.2849 10.9757 13.2022 10.8714L13.1815 10.8447L13.161 10.8187C13.1219 10.7685 13.0754 10.7014 13.0993 10.6467C13.1239 10.5904 13.2386 10.5308 13.2929 10.4972L13.3234 10.4781C13.8597 10.1467 14.4828 10.1019 15.0839 9.96966C15.108 9.96437 15.1 9.93149 15.0784 9.9293C14.968 9.91827 14.8565 9.91136 14.7446 9.90858C14.8983 9.88153 15.0518 9.85532 15.2043 9.82812C15.1943 9.74043 15.186 9.65262 15.1791 9.56471C15.2471 9.6226 15.3391 9.63878 15.4667 9.57297C15.5691 9.52012 15.6037 9.38404 15.5613 9.28331C15.5471 9.24944 15.5275 9.22248 15.5041 9.20162L15.497 9.19555L15.4222 8.85639L15.2581 8.10307L15.2532 8.08147L15.2477 8.05858L15.2141 7.92692C15.1531 7.68335 15.0883 7.35222 15.2993 7.23559C15.4153 7.17156 15.5697 7.26285 15.6824 7.32006ZM20.3501 6.21751L20.3553 6.24098L20.3672 6.2929C20.3927 6.40811 20.4091 6.52619 20.4221 6.64318C20.4523 6.91574 20.4578 7.19138 20.4403 7.46497C20.4317 7.59905 20.4172 7.73416 20.4004 7.86723C20.3822 8.00985 20.3418 8.15034 20.3312 8.29362C20.2886 8.34817 20.2492 8.4075 20.2044 8.45666C20.0843 8.58814 19.9435 8.68702 19.7596 8.68921C19.4092 8.69336 19.115 8.42021 18.7748 8.36025L18.7517 8.35643C18.695 8.34569 18.249 8.23035 18.3037 8.03582L18.3059 8.02867C18.3239 7.97597 18.3038 7.9094 18.2645 7.87161C18.245 7.85283 18.2241 7.83839 18.2023 7.82743C18.546 7.21325 19.01 6.68929 19.646 6.34651L19.7334 6.30028L19.781 6.27545C19.9264 6.2006 20.0918 6.12472 20.2431 6.11189C20.3196 6.10538 20.3363 6.15604 20.3501 6.21751Z" fill="#C93305"/>
<path fill-rule="evenodd" clip-rule="evenodd" d="M19.7685 5.78219L19.821 5.75921C20.0021 5.68063 20.1997 5.60528 20.3979 5.64824C20.6261 5.69771 20.7581 5.89451 20.8146 6.10905C20.88 6.35722 20.9092 6.62139 20.9271 6.87683C20.9457 7.14138 20.9385 7.40536 20.9187 7.6695C20.9021 7.8904 20.8678 8.1464 20.7858 8.36051C20.7893 8.35738 20.7934 8.35506 20.7984 8.35453C21.1213 8.32137 21.4188 8.34069 21.7271 8.44492C22.0142 8.54202 22.2927 8.67826 22.5426 8.85037C23.0824 9.2221 23.5001 9.78351 23.7911 10.3647C24.3822 11.5456 24.5069 12.8814 24.6726 14.1727L24.6776 14.2118C24.7667 14.9024 24.8852 15.5825 25.0751 16.2523L25.1079 16.3665C25.2822 16.9793 25.3863 17.5754 25.2473 18.2098C24.9785 19.4366 24.0308 20.3626 22.9346 20.8971C22.3749 21.17 21.7693 21.3714 21.1576 21.4875C20.5303 21.6066 19.8513 21.6265 19.2792 21.3012C18.9956 21.1398 19.2453 20.7279 19.5319 20.8677C20.1234 21.1564 20.7938 21.0613 21.4078 20.9026C22.0185 20.7448 22.6174 20.5238 23.1585 20.1956C24.0871 19.6323 24.8684 18.66 24.894 17.5308C24.9084 16.8954 24.6376 16.2887 24.507 15.6752C24.3919 15.1346 24.3205 14.5861 24.2531 14.0377L24.2031 13.6303C24.0581 12.462 23.8765 11.2593 23.278 10.2267C22.7497 9.31531 21.8398 8.59055 20.7926 8.39777C20.7863 8.39664 20.7821 8.39361 20.7796 8.38975C20.7476 8.56269 20.5575 8.72394 20.4358 8.82345C20.2635 8.96453 20.0546 9.06676 19.8274 9.06219C19.3893 9.05339 19.0132 8.71282 18.7129 8.42761C18.679 8.39548 18.7157 8.35065 18.7542 8.35647C19.1027 8.40904 19.4015 8.69288 19.7587 8.68865C19.9425 8.68646 20.0834 8.58758 20.2034 8.4561C20.2482 8.40694 20.2877 8.34761 20.3303 8.29307C20.3408 8.14979 20.3813 8.00929 20.3994 7.86667C20.4163 7.7336 20.4308 7.59849 20.4394 7.46442C20.4569 7.19082 20.4513 6.91519 20.4211 6.64262C20.4082 6.52563 20.3918 6.40756 20.3663 6.29235L20.3544 6.24042C20.3386 6.16904 20.3282 6.10401 20.2422 6.11134C20.0508 6.12755 19.837 6.24456 19.6697 6.33286C19.021 6.67531 18.5494 7.20481 18.2013 7.82687C18.2232 7.83783 18.2441 7.85227 18.2636 7.87105C18.3028 7.90885 18.323 7.97541 18.305 8.02811C18.2355 8.23176 17.9884 8.23771 17.8146 8.31746C17.6252 8.40431 17.4473 8.51597 17.2789 8.63827C16.9472 8.87899 16.6426 9.16179 16.3528 9.45108C15.8966 9.90659 15.4729 10.3914 15.0637 10.8888L14.9766 11.0837C14.8897 11.2787 14.8047 11.4743 14.7343 11.6774C14.6198 12.0076 14.5239 12.3451 14.4502 12.6868C14.376 13.0308 14.3276 13.3826 14.3092 13.734C14.2929 14.0475 14.3344 14.3609 14.3326 14.6726C14.3604 14.7247 14.3705 14.7835 14.3574 14.8434C14.4449 14.8682 14.5297 14.9061 14.6093 14.9583C14.6287 14.9711 14.6164 15.0015 14.5935 14.9959C14.4926 14.971 14.3916 14.9654 14.2927 14.9751C14.2402 15.0399 14.1553 15.0812 14.0728 15.0794L14.0377 15.0786C14.0119 15.0781 13.9864 15.0739 13.9617 15.0669C13.8226 15.1312 13.6946 15.2237 13.5862 15.3343C13.3257 15.6002 13.1999 15.9485 13.2184 16.3206C13.2367 16.6877 13.4317 17.0188 13.7547 17.1951C13.8988 17.2737 14.0589 17.3151 14.2227 17.3181C14.3803 17.321 14.5871 17.273 14.7165 17.3759C14.7311 17.3875 14.7407 17.4029 14.7466 17.4199C14.7556 17.3817 14.7652 17.3436 14.7756 17.3056C14.7836 17.2766 14.8318 17.2732 14.8377 17.3056L14.8453 17.3478C14.9538 17.9609 14.992 18.5921 15.4229 19.0827C15.6245 19.3122 15.8675 19.5192 16.1168 19.695L16.1581 19.7238C16.2646 19.7975 16.3797 19.8691 16.5067 19.8958C16.6478 19.9254 16.7644 19.9173 16.8942 19.995C16.9552 20.0316 16.9927 20.1123 16.9702 20.1824C16.8262 20.6317 16.2589 20.4299 15.9729 20.2522C15.8139 20.1534 15.6591 20.0341 15.5153 19.9026C15.3899 19.9792 15.241 20.0286 15.113 20.0477C14.9157 20.0774 14.7061 20.0362 14.5488 19.9084C14.3824 19.7733 14.3254 19.5767 14.3537 19.3679C14.3678 19.264 14.3946 19.1627 14.4236 19.0621L14.4475 18.9799C14.4825 18.8603 14.5098 18.7367 14.5802 18.6323C14.6157 18.5796 14.7001 18.5845 14.7183 18.6504C14.7602 18.8011 14.7421 18.9712 14.7312 19.1282L14.7289 19.1641C14.7218 19.2822 14.6716 19.4633 14.7749 19.5508C14.8992 19.6561 15.0353 19.608 15.1678 19.5355C15.1543 19.519 15.1409 19.5024 15.1279 19.4857C14.6993 18.9397 14.5928 18.26 14.7102 17.5956C14.5996 17.7411 14.3113 17.7725 14.1583 17.7612C13.9181 17.7435 13.6818 17.6703 13.4772 17.5416C13.0487 17.2722 12.8077 16.7996 12.7975 16.2969C12.7875 15.8087 13.0053 15.3151 13.4071 15.0308C13.5132 14.9557 13.6312 14.8974 13.7545 14.859C13.6946 14.6205 13.6882 14.3571 13.7012 14.0993C13.5575 14.1189 13.402 14.0934 13.272 14.0491L13.2519 14.042C13.0516 13.9701 12.7973 13.8256 12.7598 13.6001C12.7137 13.3226 13.0552 13.1632 13.2533 13.0524C13.346 13.0006 13.4407 12.9521 13.5391 12.9121L13.5687 12.9004C13.6537 12.8676 13.7536 12.8065 13.8398 12.8552C13.846 12.8587 13.8475 12.8653 13.8466 12.8718C13.8295 12.9921 13.6327 13.0946 13.5452 13.1705C13.478 13.2288 13.413 13.2898 13.3507 13.3533C13.3103 13.3945 13.2495 13.4986 13.1976 13.5279C13.2217 13.5405 13.2506 13.5715 13.2707 13.5835C13.3273 13.6169 13.3871 13.6405 13.451 13.6558C13.5461 13.6786 13.6413 13.6688 13.7364 13.6667C13.7751 13.287 13.8452 12.9156 13.9582 12.5509C14.1476 11.9389 14.4581 11.2943 14.901 10.8105C15.2258 10.2005 15.6453 9.6433 16.1244 9.14504C16.4317 8.82551 16.7563 8.51547 17.1163 8.25584C17.2759 8.14074 17.4438 8.03705 17.622 7.9535L17.6812 7.92628C17.7801 7.8804 17.9004 7.82084 18.0151 7.8038C18.0893 7.5086 18.2215 7.22626 18.382 6.97036C18.603 6.61776 18.8938 6.32037 19.2342 6.08275C19.4021 5.96546 19.5811 5.8646 19.7685 5.78219ZM13.8644 16.0639C14.15 15.8716 14.5002 15.7964 14.8414 15.8248C15.0107 15.8389 15.1782 15.8787 15.3368 15.9395L15.4022 15.9654C15.5537 16.0262 15.7163 16.1013 15.7218 16.2851C15.7239 16.3576 15.6704 16.4154 15.6057 16.4379C15.448 16.4929 15.3202 16.3613 15.19 16.2913C15.0586 16.2205 14.9188 16.1739 14.7749 16.1361C14.7611 16.1324 14.7472 16.1291 14.7334 16.1259C14.7409 16.1409 14.7452 16.1576 14.7437 16.1755C14.7402 16.2185 14.7277 16.2504 14.7156 16.2907C14.7119 16.3029 14.703 16.3774 14.6939 16.3866C14.6969 16.412 14.6972 16.436 14.698 16.4615C14.7001 16.537 14.6909 16.6007 14.6525 16.6675C14.5568 16.8338 14.2832 16.8492 14.1916 16.6675C14.1 16.4858 14.1716 16.308 14.3108 16.1774C14.3487 16.1418 14.3993 16.1056 14.4543 16.0806C14.2613 16.063 14.0661 16.0713 13.8733 16.0967C13.8545 16.0992 13.8516 16.0726 13.8644 16.0639ZM13.8815 9.96932C14.2732 9.90256 14.6822 9.88926 15.0775 9.92874C15.099 9.93093 15.1071 9.96381 15.0829 9.9691C14.4819 10.1014 13.8588 10.1461 13.3225 10.4775L13.2978 10.493C13.2463 10.5258 13.1238 10.5878 13.0984 10.6461C13.0683 10.715 13.1497 10.8036 13.1876 10.8533C13.2728 10.9649 13.3786 11.0624 13.4954 11.14C13.6188 11.2219 13.7515 11.2851 13.8942 11.325C13.962 11.344 14.0323 11.3536 14.0993 11.3753C14.1755 11.3998 14.2002 11.439 14.2579 11.4902C14.3245 11.5491 14.3022 11.6622 14.2304 11.7045L14.2102 11.7162C14.1159 11.7704 14.0634 11.7863 13.9436 11.7651C13.8498 11.7485 13.7602 11.7157 13.6725 11.6792C13.5112 11.6121 13.3641 11.5242 13.2283 11.4147L13.208 11.3982C12.9655 11.1972 12.5546 10.7577 12.8253 10.4377C13.0641 10.1553 13.5335 10.0286 13.8815 9.96932ZM14.8461 6.92477C15.2217 6.48116 15.7522 6.78406 16.1287 7.0493C16.5343 7.33511 16.8863 7.67223 17.1709 8.07956C17.189 8.10546 17.154 8.13695 17.1289 8.12174C16.8133 7.93102 16.4945 7.74845 16.1708 7.57169C16.0379 7.49912 15.9048 7.42829 15.7689 7.36197L15.6962 7.32692C15.5826 7.27071 15.4195 7.16815 15.2984 7.23504C15.0372 7.37934 15.1984 7.852 15.2522 8.08092L15.2571 8.10251L15.4213 8.85583L15.496 9.19499C15.5226 9.21659 15.5447 9.24549 15.5604 9.28275C15.6027 9.38348 15.5682 9.51956 15.4657 9.57241C15.1633 9.72841 15.061 9.42375 15.004 9.1948C14.9578 9.00881 14.911 8.82294 14.8642 8.6371L14.7867 8.32998C14.668 7.86506 14.4994 7.33411 14.8461 6.92477Z" fill="black"/>
<path fill-rule="evenodd" clip-rule="evenodd" d="M21.2085 19.0034C20.9981 18.9175 20.8103 18.7743 20.6731 18.5913C20.6254 18.5277 20.613 18.4606 20.623 18.3991C20.6343 18.33 20.6751 18.2674 20.7308 18.2254C20.7867 18.1833 20.8566 18.1625 20.9242 18.1731C20.9829 18.1823 21.0414 18.2145 21.0876 18.2812L21.0973 18.2946C21.1789 18.405 21.2852 18.4956 21.4064 18.554C21.5232 18.6103 21.6538 18.6366 21.7889 18.6213C22.0463 18.5922 22.2237 18.4529 22.4123 18.2638C22.4357 18.24 22.459 18.2153 22.4825 18.1903C22.4974 18.1676 22.518 18.153 22.5408 18.1454C22.5662 18.1369 22.595 18.1374 22.6213 18.1466C22.6466 18.1554 22.6693 18.1722 22.6845 18.1946C22.699 18.2158 22.7072 18.242 22.7045 18.2722C22.6873 18.4682 22.5849 18.6431 22.4394 18.7804C22.2778 18.933 22.0636 19.0385 21.862 19.0755C21.6398 19.1163 21.4134 19.087 21.2085 19.0034ZM21.9668 15.98C22.2031 16.1237 22.5632 16.4588 22.309 16.8151C22.0097 17.1293 21.5788 16.7691 21.3664 16.6062C21.1695 16.4799 20.9483 16.8047 21.131 16.9521C22.6654 18.0885 23.2881 16.0176 22.0863 15.811C21.954 15.7883 21.9048 15.9355 21.9668 15.98ZM19.2171 14.658C19.2432 14.3338 19.7369 14.2601 19.786 14.581C19.83 14.8684 19.7782 15.1325 19.6488 15.3913C19.5251 15.6385 19.2143 15.5232 19.1908 15.298C19.1593 14.9963 19.2009 14.8597 19.2171 14.658ZM22.975 14.5145C23.0438 14.4243 23.1432 14.3627 23.2622 14.3975C23.6342 14.5063 23.5246 15.0346 23.3939 15.2917C23.323 15.4314 23.0935 15.4668 22.9898 15.3438C22.8208 15.1433 22.7399 14.7429 22.9547 14.5454C22.9605 14.5352 22.967 14.5249 22.975 14.5145ZM19.6435 13.2391L19.7023 13.2288C19.8841 13.1974 20.1101 13.1672 20.2387 13.3134C20.3069 13.3909 20.3304 13.535 20.2387 13.6092C20.0774 13.7398 19.8992 13.6892 19.7059 13.7002C19.5467 13.7094 19.3936 13.7357 19.2402 13.7796C18.9037 13.8758 18.6295 14.0515 18.3421 14.2443C18.3044 14.2696 18.2659 14.2214 18.2839 14.1861C18.4498 13.861 18.7713 13.5939 19.0934 13.4312C19.2653 13.3443 19.4534 13.2722 19.6435 13.2391ZM22.6359 13.0935L22.6809 13.1027C23.1703 13.2051 23.8062 13.4095 24.0379 13.8904C24.0468 13.9584 24.0374 13.973 24.0298 13.9825L24.0273 13.9857C24.0211 13.9938 24.0161 14.005 23.9866 14.0143C23.9784 14.0123 23.9702 14.0103 23.9618 14.0081C23.8556 13.9802 23.7715 13.9419 23.6902 13.902L23.6019 13.8586C23.4996 13.8083 23.3963 13.76 23.2869 13.7242C23.0533 13.648 22.8131 13.5943 22.5691 13.5657C22.5162 13.5595 22.4653 13.5416 22.4252 13.511C22.387 13.482 22.3579 13.4418 22.3446 13.3883C22.3274 13.3192 22.3324 13.2668 22.3695 13.2044C22.3973 13.1575 22.4373 13.1251 22.4831 13.1064C22.5298 13.0874 22.583 13.0829 22.6359 13.0935Z" fill="black"/>
<path fill-rule="evenodd" clip-rule="evenodd" d="M24.7071 17.243C24.6654 17.1183 24.4507 17.1292 24.4639 17.276C24.479 17.4436 24.4217 17.6306 24.2611 17.712C24.093 17.7973 23.9038 17.7206 23.8012 17.5744C23.7121 17.4473 23.6506 17.3091 23.5384 17.1982C23.434 17.0952 23.3071 17.0157 23.1683 16.9685C23.0602 16.9318 22.9481 16.922 22.8393 16.934C22.5683 16.8728 22.2542 17.0121 22.0853 17.2235C22.0744 17.2372 22.0643 17.2512 22.0545 17.2653C22.0378 17.2425 22.0203 17.2199 22.0017 17.1976C21.9538 17.1403 21.8944 17.128 21.8408 17.1436C21.5353 16.9163 21.1071 16.8862 20.7602 17.0913C20.4822 17.2557 20.2522 17.4979 19.9104 17.5167C19.6396 17.5317 19.3447 17.3771 19.3256 17.0794C19.3156 16.924 19.1039 16.7945 18.9851 16.9384C18.7354 17.2409 18.6854 17.6429 18.8236 18.0088C18.9694 18.3948 19.2664 18.6667 19.6425 18.8267C20.0486 18.9994 20.5245 19.0594 20.9639 19.0458C21.4019 19.0321 21.8001 18.8636 22.0641 18.5052C22.0957 18.4624 22.1234 18.419 22.1476 18.375C22.404 18.7015 22.8058 18.8388 23.2151 18.8486C23.6432 18.8589 24.1494 18.7837 24.4521 18.4511C24.7439 18.1304 24.8445 17.6536 24.7071 17.243Z" fill="black"/>
</svg>
