<svg width="36" height="48" viewBox="0 0 36 48" fill="none" xmlns="http://www.w3.org/2000/svg">
<path fill-rule="evenodd" clip-rule="evenodd" d="M20.7462 42.4832C18.2063 42.4904 16.685 42.4606 13.812 42.419C10.4868 42.331 9.59064 42.4893 7.72779 42.1234C7.44297 42.0628 7.22629 41.9712 7.00651 41.8433C6.92773 41.9324 6.79418 42.0648 6.66735 41.9771C6.43374 41.8227 6.54084 41.2832 6.48291 40.9785C6.38701 38.2956 6.23361 35.5327 6.758 32.8823C6.44009 32.7789 4.57731 32.0123 4.47559 31.7555C6.16012 27.3491 9.85546 22.1926 14.7174 22.3868C14.8152 22.5074 14.9022 22.6859 15.0107 22.8087C15.6717 22.5611 16.5893 22.3129 16.6346 21.3595C16.749 20.7233 16.8315 20.1292 16.8866 19.5444C16.8966 19.4775 16.9768 19.4546 17.0261 19.4261C17.047 19.2749 17.0951 19.1203 17.1994 19.0166C18.0515 18.9401 19.9966 19.2916 20.507 19.4364C21.2033 19.5556 21.1309 20.3032 21.2606 20.8699C21.4663 21.5705 21.6094 22.2976 21.915 22.9821C21.9841 22.9916 22.1778 23.0253 22.2492 23.0378C22.2529 22.9603 22.2166 22.7301 22.2876 22.6831C22.4194 22.5507 22.4498 22.8026 22.479 22.8848C25.3564 22.3412 27.238 24.7838 27.8685 27.5123C28.3251 28.8844 28.9302 30.2731 29.7201 31.7623C30.2155 32.687 28.7924 32.8588 28.1958 33.2279C28.8114 35.624 28.8855 38.0642 28.9865 40.4792C29.0132 40.8507 29.0494 41.3558 28.9179 41.5407C28.8555 41.5892 28.8121 41.5879 28.7488 41.5914C28.6267 41.7232 28.4173 41.7145 28.241 41.7521C27.6836 41.8535 27.1124 41.9213 26.5758 41.9315C25.0696 42.8641 22.7474 42.3426 20.7462 42.4832Z" fill="#D08B5B"/>
<rect x="11.9248" y="26.1758" width="13.7089" height="9.01761" fill="white"/>
<path fill-rule="evenodd" clip-rule="evenodd" d="M16.6765 19.543C16.7556 19.1468 17.4094 19.2386 17.3797 19.6382C17.0496 21.1255 17.2505 22.936 15.1646 22.7896C16.4887 25.1197 20.5777 26.5368 21.8994 23.4777C21.2482 23.3999 21.1193 21.8598 21.0407 21.3209L21.0374 21.2727C21.02 20.9956 21.0258 20.7387 21.1924 20.5016C21.3586 20.6261 21.4254 20.8515 21.4817 21.0571L21.5229 21.2217C21.6606 21.7703 21.8048 22.3165 22.0234 22.8401L22.0311 22.8413C22.0202 22.4862 22.476 22.3239 22.5889 22.7043C25.6725 22.2795 27.3592 24.8251 28.0247 27.4873C28.5101 28.9446 29.1429 30.3467 29.8617 31.7019C30.4042 32.7608 29.0869 33.0032 28.39 33.3555C28.926 35.5035 29.0312 37.7288 29.1305 39.9319C29.0976 40.402 29.31 41.3665 29.0263 41.7037C28.606 42.0326 28.3796 41.4688 28.4443 41.1072C28.5046 38.5509 28.2385 36.0059 28.1621 33.4536C27.636 33.676 27.1035 33.8808 26.565 34.0712C26.5924 36.4662 26.8771 38.8612 26.9786 41.2439C27.1118 41.349 27.1854 41.531 27.0717 41.6897C26.4625 42.5396 25.3611 42.6665 24.392 42.6787C22.0858 42.7076 19.7772 42.6987 17.4709 42.6918C15.2054 42.6405 12.9202 42.7856 10.6667 42.5259C10.225 42.8577 10.1347 42.1424 10.1939 41.8373L10.2163 41.2261C10.2314 40.8186 10.2475 40.4112 10.268 40.0041L10.3194 39.0112C10.4054 37.3567 10.4965 35.703 10.641 34.0516C9.33199 33.8726 8.04175 33.5548 6.79265 33.1259C6.89546 35.9926 6.68454 38.8901 7.03625 41.7422C7.26833 42.0572 6.80288 42.353 6.53118 42.1557C6.19421 41.8986 6.33872 41.3958 6.27143 41.0257L6.26279 40.7865C6.16848 38.2066 6.03963 35.5725 6.52032 33.0281L6.31355 32.9478C5.68327 32.7016 4.06237 32.0433 4.27493 31.7186C5.96711 27.2829 9.75243 21.9775 14.7658 22.2296C14.8928 22.3178 14.9577 22.4896 15.0519 22.6127L15.201 22.5586C15.7786 22.347 16.4059 22.0789 16.423 21.3676C16.5324 20.7616 16.6191 20.1554 16.6765 19.543ZM24.9383 30.5991C25.6565 29.5943 20.6756 31.1824 20.3215 31.2872L20.1882 31.3358C18.0066 32.1292 15.6548 32.8964 13.9153 34.4778C13.8787 34.5178 13.9242 34.5732 13.9715 34.5507L13.9776 34.5471C14.0468 34.5086 14.3464 34.4016 14.1341 34.4421C16.6476 32.8565 19.5677 31.9854 22.421 31.2236C22.8356 31.1233 23.2523 31.0311 23.6705 30.9471C24.0924 30.8446 24.5685 30.8457 24.9383 30.5991ZM17.0677 30.2721C17.1292 30.0216 17.5419 27.7196 16.8564 28.3511C16.6736 28.6824 16.6034 29.0662 16.5705 29.4392C16.4821 29.874 16.7053 30.3427 16.4883 30.7435C16.294 31.2671 15.58 31.8788 15.5323 30.906C16.7005 30.8661 16.3498 29.3853 15.5544 29.8431C15.1189 30.216 15.0436 30.9182 15.2616 31.4326C14.9095 31.0492 14.3386 31.0479 13.9311 30.7586C13.1952 29.9628 14.4313 29.1346 15.1044 28.848C15.1423 28.8063 15.6941 28.6139 15.5771 28.5906C15.0487 28.5955 14.5192 28.708 14.0632 28.986C13.1194 29.4466 12.7982 30.8727 13.8778 31.3725C14.1113 31.4851 14.3668 31.5456 14.5979 31.6618C15.1804 31.9638 14.9922 32.3434 14.3909 32.3545C14.1436 32.4086 13.3274 32.1821 13.4188 32.6157C13.5664 32.8868 13.8879 32.9272 14.1696 32.9348C14.9224 32.9864 15.8585 32.561 15.433 31.6751C15.9466 32.1128 16.5879 31.5009 16.808 31.0254C17.0762 31.5515 17.7503 31.3931 18.1308 31.0818C18.7121 31.5397 19.4416 31.0307 19.7006 30.4621C19.7059 30.5804 19.7111 30.6987 19.7169 30.817C19.7286 31.0594 20.1042 31.1373 20.1597 30.8769C20.2441 30.4812 20.3606 30.0898 20.5207 29.7178C20.8892 28.7399 21.1145 29.1808 21.1273 29.9472C21.1727 30.2349 21.3167 30.4927 21.6346 30.5121C21.7232 30.5175 21.8388 30.4387 21.8526 30.346L21.871 30.2235C21.9097 29.9667 21.9545 29.7023 22.0515 29.4611C22.1448 30.2597 23.1903 30.2558 23.4818 29.5936C24.0866 29.9567 24.7212 29.4495 25.0031 28.9249L25.0115 28.909C25.1101 28.7296 24.8597 28.5126 24.7166 28.6813L24.6669 28.7331C24.397 29.0125 23.9675 29.4178 23.6126 29.0726C23.6244 28.917 23.6196 28.758 23.61 28.6049C23.5986 28.4223 23.3466 28.2598 23.2034 28.4231C23.0014 28.2515 22.7506 28.2762 22.5394 28.3959C21.9923 28.5506 21.6477 29.0834 21.529 29.6129C21.5164 29.1898 21.378 28.7308 20.9134 28.691C20.4373 28.6869 20.2551 29.2193 20.0928 29.5776C20.0834 29.4171 20.0743 29.2567 20.0661 29.0962C20.0521 28.8201 19.6692 28.8229 19.6378 29.088L19.637 29.0962C19.5767 29.6691 19.2595 31.0415 18.459 30.7729C18.7966 30.401 19.4071 29.2676 18.8267 28.9145C17.9334 28.6896 17.4752 30.0993 17.8561 30.7553L17.8363 30.7692C17.6187 30.9194 17.2591 31.0866 17.1376 30.7499L17.1238 30.7189C17.0614 30.5765 17.0063 30.4224 17.0677 30.2721ZM15.7899 30.1132C15.959 30.0144 16.0192 30.3415 15.976 30.4513C15.9069 30.6274 15.7182 30.7255 15.5302 30.7926L15.5308 30.7727C15.5391 30.5716 15.6061 30.2206 15.7899 30.1132ZM18.637 29.2968C18.6408 29.3203 18.6346 29.3491 18.6338 29.371C18.6049 29.7565 18.4334 30.1267 18.1949 30.4276C18.0577 30.0188 18.2346 29.4786 18.637 29.2968ZM22.7034 28.8146C22.813 28.7857 22.9292 28.7938 23.0422 28.8244C23.034 28.9529 23.0619 29.0814 23.1178 29.1994C22.8261 30.0756 22.1404 29.4011 22.7034 28.8146Z" fill="black"/>
<path fill-rule="evenodd" clip-rule="evenodd" d="M22.3687 10.2296C20.3145 8.55579 17.0227 8.01232 14.8238 9.70097C13.1152 11.2857 12.4082 15.7891 12.7105 18.052C12.7946 19.5034 13.9007 21.1485 15.5244 20.6895C15.8002 20.6623 16.0679 20.5563 16.3461 20.5341C16.679 20.4957 17.0144 20.495 17.3466 20.5421C18.0704 20.6447 18.7121 21.03 19.4146 21.2102C20.7183 21.5444 22.1728 21.3196 23.2949 20.5667C27.0031 18.1226 25.3234 12.5951 22.3687 10.2296Z" fill="#D08B5B"/>
<path fill-rule="evenodd" clip-rule="evenodd" d="M22.0957 21.2501C22.1338 21.2369 22.1719 21.2232 22.2097 21.2091C22.2122 21.2179 22.2162 21.2263 22.2209 21.2345C22.2262 21.2476 22.2316 21.2604 22.2375 21.2733C22.19 21.2736 22.1425 21.2651 22.0957 21.2501ZM22.0195 5.03028C22.0026 4.99243 21.9832 4.95611 21.9614 4.92101C22.0145 4.93826 22.0676 4.96206 22.1157 4.99274C22.0832 5.0037 22.0513 5.01623 22.0195 5.03028ZM13.9055 9.98249C13.9033 9.98211 13.9012 9.9818 13.899 9.98142C13.9269 9.90706 13.9765 9.83686 14.0313 9.78617C14.0411 9.77706 14.0518 9.76863 14.0621 9.75993C14.0039 9.82941 13.9511 9.90352 13.9055 9.98249ZM28.752 17.7586C28.7245 17.4974 28.6895 17.2373 28.6443 16.9786C28.6008 16.731 28.5643 16.4661 28.4384 16.2463C28.3135 16.0274 28.1883 15.8148 28.0396 15.6223C28.0608 15.5239 28.089 15.4316 28.1133 15.357C28.2538 14.9281 28.3922 14.3833 28.1002 13.9847C28.0324 13.8923 27.9497 13.8215 27.855 13.7577C27.8147 13.7304 27.7479 13.7057 27.717 13.6681C27.6951 13.6415 27.7026 13.6559 27.7016 13.6428C27.6963 13.572 27.8619 13.4226 27.9006 13.3666C27.9731 13.2629 28.0271 13.1462 28.0683 13.0269C28.2314 12.5547 28.1205 12.0346 28.0224 11.5615C27.9706 11.3107 27.9134 11.0593 27.8947 10.8032C27.8772 10.5627 27.91 10.3279 27.9293 10.0886C27.9481 9.85252 27.9431 9.60895 27.8422 9.39036C27.7928 9.28391 27.7182 9.18997 27.6273 9.1167C27.5386 9.04503 27.428 9.00339 27.3416 8.932C27.2553 8.86089 27.28 8.7648 27.3025 8.66648C27.3334 8.53309 27.3725 8.40065 27.3762 8.26288C27.3831 8.02272 27.2853 7.7888 27.1326 7.60722C26.9752 7.41967 26.7503 7.29283 26.5073 7.26434C26.3961 7.25118 26.2868 7.27345 26.1762 7.26562C26.0669 7.2581 26.0432 7.20331 26.0226 7.10311C25.9751 6.8736 25.9945 6.64691 25.8817 6.43274C25.7818 6.24237 25.604 6.11334 25.4076 6.03728C25.0475 5.89763 24.6287 5.92644 24.2489 6.00876C24.0246 5.3475 23.3247 4.91384 22.636 4.90852C22.5285 4.72566 22.3465 4.58914 22.1388 4.50895C21.7952 4.37588 21.4313 4.45356 21.0734 4.45356H21.0719C21.0359 4.45134 21 4.45043 20.9641 4.45075C20.9304 4.44884 20.8966 4.44602 20.8629 4.44229C20.4556 4.39404 20.0527 4.22684 19.6492 4.39063C19.4693 4.46358 19.3262 4.57599 19.2357 4.7194C19.0992 4.75662 18.9646 4.79924 18.8325 4.84871C18.26 4.86371 17.6928 5.1715 17.4033 5.67032C16.9957 5.62398 16.5534 5.70257 16.2838 6.03634C16.2136 6.1232 16.1593 6.22524 16.1232 6.33358C15.8484 6.42269 15.594 6.58147 15.4276 6.82063C15.2757 7.03886 15.2465 7.32104 15.3493 7.55531C15.1039 7.7335 14.9122 7.98859 14.8198 8.28981C14.7637 8.47282 14.7553 8.66191 14.7914 8.84204C14.5402 8.8979 14.3 9.00145 14.0871 9.15684C13.864 9.31963 13.5854 9.57873 13.5707 9.87694C13.5696 9.89883 13.5704 9.92071 13.5722 9.94254C13.081 9.90794 12.5803 9.99135 12.2483 10.3861C11.999 10.6823 11.8907 11.0637 11.9572 11.4109C11.3728 11.5299 10.8203 11.8361 10.4349 12.2889C10.1547 12.6179 9.90581 13.0363 9.92077 13.4843C9.92546 13.6193 9.95704 13.7552 10.0117 13.8807V13.881C9.98827 13.9252 9.96419 13.9743 9.94108 14.0266C9.57909 14.2805 9.31611 14.6785 9.16806 15.1172C9.04847 15.4726 8.9732 15.9341 9.10091 16.2958C9.12031 16.3509 9.14498 16.4028 9.17372 16.451C9.14964 16.4767 9.12687 16.5024 9.10469 16.5284C8.86073 16.8142 8.61368 17.1743 8.63058 17.5679C8.63745 17.7264 8.69613 17.8857 8.79205 18.0166C8.4547 18.3595 8.18301 18.7922 8.20984 19.2753C8.23295 19.6958 8.46317 20.1229 8.82388 20.3249C8.76363 20.6489 8.84421 20.9909 9.09591 21.2439C9.2215 21.3704 9.36951 21.4536 9.52633 21.4981C9.56132 21.8798 9.89922 22.187 10.2581 22.2752C10.325 22.2918 10.3918 22.3019 10.4583 22.3065C10.7812 22.4653 11.1663 22.4471 11.4958 22.3015C11.593 22.4252 11.7195 22.5261 11.8669 22.5984C11.9265 22.6278 11.9897 22.6522 12.0555 22.6719C12.5209 22.81 12.9982 22.6228 13.4051 22.4043C13.4182 22.3974 13.4423 22.3886 13.4635 22.3789C13.5197 22.4418 13.6222 22.5041 13.6756 22.5348C13.8568 22.6391 14.0782 22.6876 14.2862 22.6738C14.5302 22.6576 14.7453 22.5768 14.9446 22.4619C14.9737 22.4669 15.003 22.4697 15.0324 22.4713C15.2198 22.4812 15.3868 22.4218 15.5371 22.3279C15.6364 22.341 15.7382 22.3398 15.8413 22.3216C16.0684 22.3795 16.2895 22.2875 16.4672 22.1412C16.5459 22.0764 16.6124 22.0003 16.6837 21.9277C16.7577 21.8522 16.8139 21.8347 16.9004 21.784C17.105 21.6641 17.1296 21.36 17.0409 21.1402C17.0578 21.1017 17.0675 21.0588 17.0675 21.0112C17.0669 20.596 16.8761 20.2153 16.6418 19.8831C16.5371 19.735 16.4235 19.59 16.2988 19.4585C16.1986 19.3529 16.0578 19.1817 15.9094 19.1388C15.9003 19.1322 15.8909 19.1256 15.8816 19.1194C15.9103 19.0185 15.9272 18.9159 15.92 18.811C15.9125 18.7032 15.8778 18.6012 15.8223 18.5142C16.0087 18.1519 16.0874 17.7545 16.0499 17.34C16.2017 17.1242 16.3167 16.886 16.376 16.6248C16.4125 16.4633 16.4335 16.2933 16.4306 16.1276C16.4294 16.0481 16.4003 15.9475 16.3998 15.8652C16.4041 15.8912 16.4379 15.7942 16.451 15.77C16.6015 15.4898 16.7948 15.2713 16.827 14.9409C16.8457 14.7477 16.8001 14.5342 16.6846 14.3758C16.7586 14.0833 16.7577 13.7692 16.6412 13.4903C16.6099 13.4158 16.574 13.3428 16.5328 13.2736C16.5518 13.2154 16.5693 13.1565 16.5918 13.1036C16.6006 13.0826 16.6093 13.0613 16.618 13.04C16.7027 12.9652 16.7814 12.8835 16.8476 12.8033C16.9944 12.6258 17.1066 12.4223 17.1206 12.1877C17.1275 12.0703 17.1 11.9579 17.0659 11.8464C17.0509 11.796 17.0419 11.74 17.0241 11.6908C17.0141 11.6636 16.99 11.6357 16.9816 11.61C16.9797 11.6044 16.9782 11.5997 16.9769 11.596C16.9782 11.5922 16.9791 11.5844 16.9791 11.5696C16.9794 11.4572 16.9941 11.3473 16.9947 11.239C17.0975 11.343 17.2212 11.4206 17.3617 11.466C17.645 11.5571 17.9405 11.5158 18.1912 11.3752C18.4611 11.5606 18.7644 11.7284 19.0823 11.7957C19.2713 11.8358 19.4606 11.8192 19.6501 11.8439C19.8385 11.8687 20.0206 11.951 20.198 12.0152C20.5928 12.1583 20.9866 12.3051 21.3826 12.4445C21.7024 12.5569 22.0485 12.6461 22.3833 12.5829C22.4774 12.7281 22.5995 12.8509 22.756 12.9411C22.868 13.0053 22.9911 13.0488 23.1182 13.0704C23.2307 13.0895 23.3625 13.082 23.4537 13.1593C23.5427 13.2345 23.5983 13.3465 23.6782 13.4311C23.7673 13.5257 23.8772 13.6077 23.9924 13.6666C24.0849 13.7138 24.1792 13.7479 24.2751 13.7702C24.2667 13.9841 24.2585 14.1976 24.256 14.4118C24.2514 14.877 24.2532 15.3423 24.247 15.8076C24.2408 16.2713 24.2261 16.7351 24.2017 17.1981C24.1786 17.6327 24.1461 18.0689 24.0427 18.4929C23.6998 19.8997 22.4152 20.907 20.9772 20.9583C20.5503 20.9736 20.1277 20.9135 19.7195 20.7876C19.2966 20.6571 18.919 20.3884 18.4855 20.3058C18.3721 20.2845 18.2653 20.3988 18.3302 20.5086C18.4421 20.6975 18.5779 20.8127 18.7637 20.9263C18.9583 21.045 19.1751 21.133 19.389 21.21C19.7826 21.3515 20.1989 21.4336 20.6165 21.4565C20.935 21.474 21.2549 21.4521 21.5669 21.392C21.5888 21.4593 21.6275 21.5247 21.6568 21.587C21.6612 21.5961 21.6759 21.5898 21.6731 21.5805C21.6684 21.5648 21.6653 21.551 21.6641 21.5398C21.769 21.6769 21.9311 21.7717 22.0976 21.8178C22.215 21.8504 22.3396 21.8603 22.4605 21.8466C22.4995 21.8422 22.5367 21.8356 22.5736 21.8275C22.6966 21.9355 22.854 22.0075 23.012 22.0435C22.9849 22.2089 23.0664 22.3892 23.2554 22.4362C23.3347 22.4559 23.4109 22.4562 23.4871 22.449C23.5486 22.4778 23.6149 22.5004 23.6851 22.5157C23.7766 22.5358 23.8859 22.5101 23.955 22.4437C23.9927 22.4703 24.028 22.4888 24.063 22.531C24.207 22.7052 24.5175 22.5664 24.5312 22.3651C24.5768 22.3651 24.6227 22.3657 24.6687 22.3673C24.6796 22.3723 24.6905 22.3773 24.7017 22.3826C24.9026 22.4762 25.1106 22.558 25.3327 22.4844C25.3736 22.4709 25.411 22.4537 25.4451 22.4337C25.6016 22.4478 25.7558 22.4481 25.9145 22.3967C26.0082 22.3663 26.0963 22.3181 26.1697 22.2549C26.4145 22.3269 26.6729 22.3595 26.9165 22.2702C27.0989 22.2035 27.2457 22.0983 27.349 21.9596C27.5071 21.9653 27.6676 21.9271 27.8122 21.8516C28.0596 21.7232 28.2329 21.4793 28.3538 21.2348C28.6199 20.6953 28.7773 20.1157 28.8391 19.518C28.9001 18.9293 28.8132 18.3438 28.752 17.7586Z" fill="black"/>
<path fill-rule="evenodd" clip-rule="evenodd" d="M21.2085 19.0034C20.9981 18.9175 20.8103 18.7743 20.6731 18.5913C20.6254 18.5277 20.613 18.4606 20.623 18.3991C20.6343 18.33 20.6751 18.2674 20.7308 18.2254C20.7867 18.1833 20.8566 18.1625 20.9242 18.1731C20.9829 18.1823 21.0414 18.2145 21.0876 18.2812L21.0973 18.2946C21.1789 18.405 21.2852 18.4956 21.4064 18.554C21.5232 18.6103 21.6538 18.6366 21.7889 18.6213C22.0463 18.5922 22.2237 18.4529 22.4123 18.2638C22.4357 18.24 22.459 18.2153 22.4825 18.1903C22.4974 18.1676 22.518 18.153 22.5408 18.1454C22.5662 18.1369 22.595 18.1374 22.6213 18.1466C22.6466 18.1554 22.6693 18.1722 22.6845 18.1946C22.699 18.2158 22.7072 18.242 22.7045 18.2722C22.6873 18.4682 22.5849 18.6431 22.4394 18.7804C22.2778 18.933 22.0636 19.0385 21.862 19.0755C21.6398 19.1163 21.4134 19.087 21.2085 19.0034ZM21.9668 15.98C22.2031 16.1237 22.5632 16.4588 22.309 16.8151C22.0097 17.1293 21.5788 16.7691 21.3664 16.6062C21.1695 16.4799 20.9483 16.8047 21.131 16.9521C22.6654 18.0885 23.2881 16.0176 22.0863 15.811C21.954 15.7883 21.9048 15.9355 21.9668 15.98ZM19.2171 14.658C19.2432 14.3338 19.7369 14.2601 19.786 14.581C19.83 14.8684 19.7782 15.1325 19.6488 15.3913C19.5251 15.6385 19.2143 15.5232 19.1908 15.298C19.1593 14.9963 19.2009 14.8597 19.2171 14.658ZM22.975 14.5145C23.0438 14.4243 23.1432 14.3627 23.2622 14.3975C23.6342 14.5063 23.5246 15.0346 23.3939 15.2917C23.323 15.4314 23.0935 15.4668 22.9898 15.3438C22.8208 15.1433 22.7399 14.7429 22.9547 14.5454C22.9605 14.5352 22.967 14.5249 22.975 14.5145ZM19.6435 13.2391L19.7023 13.2288C19.8841 13.1974 20.1101 13.1672 20.2387 13.3134C20.3069 13.3909 20.3304 13.535 20.2387 13.6092C20.0774 13.7398 19.8992 13.6892 19.7059 13.7002C19.5467 13.7094 19.3936 13.7357 19.2402 13.7796C18.9037 13.8758 18.6295 14.0515 18.3421 14.2443C18.3044 14.2696 18.2659 14.2214 18.2839 14.1861C18.4498 13.861 18.7713 13.5939 19.0934 13.4312C19.2653 13.3443 19.4534 13.2722 19.6435 13.2391ZM22.6359 13.0935L22.6809 13.1027C23.1703 13.2051 23.8062 13.4095 24.0379 13.8904C24.0468 13.9584 24.0374 13.973 24.0298 13.9825L24.0273 13.9857C24.0211 13.9938 24.0161 14.005 23.9866 14.0143C23.9784 14.0123 23.9702 14.0103 23.9618 14.0081C23.8556 13.9802 23.7715 13.9419 23.6902 13.902L23.6019 13.8586C23.4996 13.8083 23.3963 13.76 23.2869 13.7242C23.0533 13.648 22.8131 13.5943 22.5691 13.5657C22.5162 13.5595 22.4653 13.5416 22.4252 13.511C22.387 13.482 22.3579 13.4418 22.3446 13.3883C22.3274 13.3192 22.3324 13.2668 22.3695 13.2044C22.3973 13.1575 22.4373 13.1251 22.4831 13.1064C22.5298 13.0874 22.583 13.0829 22.6359 13.0935Z" fill="black"/>
</svg>
