<svg width="36" height="48" viewBox="0 0 36 48" fill="none" xmlns="http://www.w3.org/2000/svg">
<path fill-rule="evenodd" clip-rule="evenodd" d="M28.518 32.2538C28.518 32.0004 28.1675 31.5507 28.1668 31.3212C28.4615 31.2685 28.7079 30.8691 28.6427 30.6189C28.5276 30.531 28.2261 30.3578 28.1014 30.277C27.3417 30.3 27.6305 29.2427 27.5445 28.7053C27.4579 28.1794 27.3936 27.6296 27.2669 27.1008C27.0419 26.6776 26.9363 26.2033 26.7212 25.7823C26.6251 25.6427 26.4699 25.5148 26.4234 25.3527C25.9529 24.8386 25.3051 24.5304 24.772 24.095C24.9789 24.0287 24.9651 23.7496 24.9517 23.5703C24.9999 23.3365 24.9485 23.0432 24.7352 22.9114C24.6632 22.6766 24.3483 22.5946 24.1641 22.7442C24.0431 22.2018 23.5699 21.8727 23.0741 21.6715C23.0745 21.6699 23.0749 21.6683 23.0754 21.6667C22.5754 21.4682 21.9761 21.3692 21.4772 21.4808C21.7406 18.5454 19.4932 18.4377 18.3526 18.6844C17.7693 18.8105 16.8939 19.2034 16.6951 19.7495C16.5828 20.0578 16.2606 21.0521 16.2148 21.3692C15.3438 20.872 14.3341 20.2164 13.5787 21.2174C13.4274 21.3918 13.26 21.5214 13.0337 21.5813C12.3269 21.7648 11.3889 21.7709 10.9872 22.4916C10.7471 22.9381 10.9631 23.2323 10.8986 23.679C7.71725 25.9139 5.05869 34.1473 5.65562 37.9777C5.79922 39.3484 6.50031 41.7747 8.2308 41.4722C9.11342 42.438 23.928 42.438 25.4556 41.4722C26.713 41.8012 27.9907 41.2919 28.518 40.0871C29.1876 38.4351 28.478 36.651 28.3522 34.9562C28.2759 34.5284 28.1622 34.1887 28.1014 33.7507C28.0761 33.5682 28.1635 33.2645 28.1014 33.0963C28.1307 32.9867 28.518 32.5072 28.518 32.2538Z" fill="#D08B5B"/>
<path fill-rule="evenodd" clip-rule="evenodd" d="M16.0015 21.1669L16.0538 21.1893L16.2332 21.2671L16.1956 21.3534C16.0897 21.5962 15.9707 21.8298 15.8404 22.0498L15.8158 22.0908L15.7781 22.1533L15.78 22.1554C15.7962 22.1734 15.8128 22.1921 15.8298 22.2114L17.8041 24.3336C18.6369 25.228 19.0766 25.6986 19.1231 25.7454C19.3172 25.9405 19.5081 25.9648 19.6828 25.8003L19.7025 25.7816L19.7348 25.7505L19.7569 25.7288C19.8709 25.6161 19.9843 25.4915 20.1472 25.3036L21.9707 22.7158L21.8556 22.4584C21.6441 21.9829 21.5287 21.705 21.5092 21.6245L21.5005 21.585L21.4822 21.5L21.5655 21.4752C21.8657 21.3857 22.1981 21.4092 22.5751 21.5208L22.5969 21.5273L22.6597 21.5467C22.9151 21.6261 23.0598 21.6795 23.2079 21.7587C23.4095 21.8664 23.5583 22.0001 23.6512 22.1744C23.758 22.375 23.8397 22.4758 23.9774 22.5573L23.9882 22.5636L24.0016 22.5711L24.0157 22.5787C24.0279 22.5852 24.0414 22.592 24.0577 22.6L24.1155 22.6279C24.2979 22.7154 24.3817 22.7715 24.4536 22.8819C24.5329 23.0039 24.5463 23.1181 24.5218 23.2833L24.5196 23.2976L24.5158 23.3209L24.5009 23.4068L24.4973 23.4285C24.4876 23.49 24.486 23.544 24.493 23.5894L24.4947 23.5997L24.5347 23.8123L24.4554 23.7619L24.6748 23.9408C24.9818 24.1922 25.1648 24.3482 25.3561 24.5242L25.409 24.5731L25.4194 24.5828C25.7641 24.9045 26.0442 25.2146 26.2785 25.5458C26.5327 25.9047 26.7481 26.2974 26.9221 26.7155L26.9418 26.7634L26.9434 26.7697C27.2039 27.7911 27.4132 28.8258 27.5707 29.8705L27.5857 29.9716L27.6622 30.4901L27.4105 30.0304C27.3713 29.9589 27.2629 29.888 27.1276 29.8352L27.1148 29.8303L27.1055 29.8268L27.0862 29.8199C26.9378 29.7682 26.7881 29.7634 26.6478 29.8069L26.6333 29.8115L26.5908 29.8258L26.5529 29.8016C26.4832 29.7571 26.4051 29.7194 26.3192 29.6884L26.2976 29.6808L26.207 29.6497L26.2398 29.5597C26.2647 29.4917 26.2191 29.3582 26.1535 29.3009C26.0513 29.2122 25.9044 29.1873 25.6762 29.2041L25.6453 29.2066L25.6208 29.2088L25.5841 29.2125L25.4683 29.2249L25.4683 29.2254C25.4669 29.2454 25.466 29.2638 25.4656 29.2812L25.4654 29.294L25.4654 29.3065C25.4659 29.3496 25.4696 29.3894 25.4768 29.4266L25.4801 29.4424L25.5062 29.559L25.3868 29.5568L25.3347 29.5561C25.1604 29.554 24.9773 29.5567 24.7618 29.5638L24.549 29.5717L24.0063 29.5947L23.5302 29.6114L23.3883 29.6161L23.3815 29.5263C23.3726 29.4078 23.2713 29.3291 23.0919 29.2942L23.0803 29.292L22.8929 29.2581L23.0469 29.1183L23.0593 29.1066L23.0722 29.0941C23.196 28.9708 23.2376 28.8578 23.1866 28.7487C23.127 28.6207 22.9431 28.5833 22.7741 28.6528L22.7625 28.6577L22.7505 28.6631C22.7188 28.6778 22.6872 28.6963 22.6369 28.7287L22.5727 28.7705L22.5493 28.7854C22.4937 28.8205 22.4568 28.8404 22.4103 28.8596C22.2871 28.9106 22.172 28.9142 21.9833 28.8906L21.9665 28.8885L21.9264 28.8831L21.8242 28.8689L21.7989 28.8655L21.7732 28.8624C21.5803 28.8394 21.4582 28.8518 21.3551 28.9177C21.2891 28.9599 21.2518 29.0138 21.1941 29.1398L21.1668 29.2005L21.1547 29.2266C21.0853 29.3743 21.0327 29.4452 20.9291 29.5067C20.863 29.546 20.8004 29.5695 20.6897 29.6017L20.611 29.6245L20.583 29.6329C20.5661 29.6382 20.5521 29.6429 20.5373 29.6482C20.4168 29.691 20.3078 29.7526 20.2054 29.8351L20.1895 29.848L20.1722 29.8624C20.0726 29.9466 19.9873 30.0378 19.8418 30.2088L19.7358 30.3339L19.6982 30.3778L19.667 30.4135C19.6637 30.4172 19.6604 30.421 19.6571 30.4247L19.6275 30.4577C19.3967 30.7111 19.1658 30.9448 18.9306 31.1615L18.8812 31.2066L18.8304 31.2524L18.7886 31.2895C18.6518 31.41 18.504 31.532 18.2746 31.7163L17.9901 31.9442L17.9006 32.0165C17.6319 32.2342 17.4682 32.3747 17.3013 32.5333L17.26 32.5729L17.257 32.5899C17.2554 32.5995 17.2537 32.6104 17.2518 32.6227C17.2518 32.6227 17.0889 33.6277 17.2368 34.4519C17.3846 35.276 17.437 34.9409 17.5866 35.1432L17.6213 35.1898C17.7033 35.299 17.7666 35.3763 17.8352 35.448L17.9163 35.5317L18.0095 35.6073L18.0683 35.6429C18.1109 35.6686 18.1533 35.6888 18.1958 35.7033C18.2544 35.7234 18.3328 35.6837 18.3713 35.6137L18.3749 35.6068L18.4 35.5564L18.4562 35.5548C18.4694 35.5544 18.4828 35.5524 18.4959 35.5488C18.629 35.5121 18.6952 35.3536 18.6301 35.2305L18.6265 35.2239L18.5928 35.164L18.5755 35.1339C18.5507 35.0914 18.5278 35.0554 18.5046 35.0237L18.4958 35.0121L18.3664 34.8418L18.6922 34.8722L18.7188 34.8748L18.7554 34.8787L18.8727 34.8921C18.9948 34.9058 19.1127 34.9182 19.2277 34.9295L19.3256 34.9388L19.4969 34.9545L19.5321 34.958L19.6081 34.966L19.7904 34.9858L19.8553 34.9924L19.8915 34.9959C19.9263 34.9992 19.9575 35.0019 19.9888 35.0042L20.0232 35.0067C20.2857 35.0246 20.4905 35.0127 20.6765 34.9603C20.979 34.8747 21.2831 34.6979 21.6124 34.4364C21.9489 34.1691 22.1923 33.9174 22.3387 33.6562C22.3415 33.6513 22.3419 33.6474 22.34 33.6427L22.3386 33.6397L22.2829 33.5376L22.3944 33.5046C22.4835 33.4783 22.5591 33.4448 22.6227 33.4019C22.8183 33.2702 22.8838 33.0067 22.742 32.869L22.7357 32.8631L22.727 32.8553L22.6073 32.6757L22.7805 32.6501C22.8385 32.6412 22.8894 32.6311 22.937 32.6187C23.2536 32.5363 23.4164 32.2837 23.2761 32.0406L23.2715 32.0327L23.2149 31.9391L23.3159 31.8973C23.3376 31.8883 23.36 31.8799 23.3848 31.8712L23.4 31.8659L23.4152 31.8608L23.472 31.842C23.5922 31.8023 23.7098 31.7722 23.827 31.7515C23.9197 31.7356 24.0125 31.7253 24.1053 31.7207L24.1401 31.7192L24.1789 31.7179L24.1792 31.7167L24.2019 31.7171L24.2813 31.7143L24.2797 31.7184C24.3975 31.7213 24.5159 31.7328 24.6344 31.7527L24.6624 31.7575C24.7035 31.7648 24.7426 31.7722 24.7844 31.7807L24.9651 31.819C24.998 31.8259 25.0267 31.8315 25.0551 31.8366L25.0826 31.8414L25.3738 31.8906L25.1077 32.0186L25.1008 32.022L25.094 32.0256L25.0646 32.0418C24.8838 32.144 24.7768 32.2606 24.7517 32.4044C24.7125 32.6288 24.8401 32.7321 25.1409 32.767L25.166 32.7697L25.1925 32.7722L25.2099 32.7736L25.9631 32.8246L25.2499 32.9615C25.0772 32.9947 24.9027 33.0395 24.7265 33.0953C24.7128 33.0997 24.698 33.105 24.682 33.1114L24.6697 33.1163L24.5972 33.1464L24.5277 33.1967C24.4056 33.2872 24.3716 33.3771 24.4325 33.4663L24.4367 33.4723L24.4745 33.524L24.4402 33.578C24.3416 33.7333 24.3545 33.9311 24.4723 34.0918C24.5706 34.226 24.7296 34.3113 24.9465 34.3602L24.9633 34.3639L25.011 34.3741L25.0805 34.3851L25.1309 34.392L25.1696 34.3965L25.1957 34.3992L25.2358 34.4029L25.3453 34.4122C25.5008 34.4254 25.5807 34.4362 25.6765 34.4601C25.8052 34.4922 25.9186 34.5445 26.0694 34.6336L26.0869 34.6441L26.1241 34.6665L26.1961 34.7108L26.2658 34.7541L26.2893 34.7686L26.3184 34.7862C26.533 34.9143 26.6744 34.9624 26.8233 34.9399C26.9179 34.9257 26.9973 34.8911 27.0677 34.8361L27.0787 34.8272L27.1867 34.7383L27.1836 34.7203L27.207 34.6879C27.252 34.626 27.4438 34.2649 27.4439 34.2647C27.5676 34.0473 27.6869 33.8972 27.8376 33.7979L27.8506 33.7895L27.8801 33.7714L27.914 33.7643L27.931 33.7669C27.9806 33.7747 27.9953 33.7967 28.0093 33.834C28.0129 33.8435 28.0158 33.8541 28.0186 33.8668L28.0212 33.8794L28.0239 33.8938L28.028 33.9188L28.0323 33.9481L28.0372 33.9841L28.0425 34.0258C28.0466 34.0593 28.0512 34.0983 28.0563 34.1442L28.1131 34.6675L28.1287 34.8065L28.1431 34.9304C28.1443 34.9405 28.1455 34.9504 28.1467 34.9604L28.159 35.0608L28.1723 35.1658C28.2068 35.4303 28.2409 35.6431 28.2762 35.8045L28.2827 35.8336L28.2871 35.8524L28.2984 35.9006C28.501 36.7684 28.6037 37.485 28.6088 38.2028C28.6134 38.9745 28.4451 39.6632 28.0803 40.2309C27.7324 40.7726 27.2247 41.1657 26.6526 41.3013C26.351 41.3726 26.0519 41.357 25.8108 41.237C25.7668 41.2151 25.7355 41.1927 25.6785 41.145L25.6595 41.129C25.5842 41.0652 25.5509 41.043 25.5108 41.0336C25.5059 41.0325 25.5011 41.0316 25.4965 41.031L25.4896 41.0302L25.4043 41.0237L25.4028 40.9382C25.3996 40.756 25.3127 40.6848 25.3209 40.9691C25.3209 40.9691 25.3366 41.3787 25.3408 41.4304L25.3438 41.4644L25.345 41.4763L25.2946 41.6521C23.0973 42.4916 10.359 42.5061 8.3936 41.685L8.33736 41.6599L7.98983 41.493C7.98983 41.493 8.68626 41.3307 8.21008 41.3909C7.69927 41.4555 7.10459 41.1424 6.78228 40.6152L6.66478 40.4212L6.62882 40.361L6.60888 40.3271C6.56098 40.2451 6.52685 40.1824 6.49073 40.1103C6.34498 39.8191 6.22395 39.5058 6.12445 39.1687C5.93928 38.5416 5.84227 37.8622 5.81331 37.0938C5.7609 35.7039 5.90428 34.237 6.2209 32.7086C6.52799 31.2261 6.99335 29.7851 7.60736 28.4224C7.9143 27.7413 8.25263 27.0898 8.62354 26.4688L8.6634 26.4024L8.70681 26.3306L8.75137 26.2575L8.79616 26.1846L8.837 26.1188L8.87814 26.0531L8.91965 25.9875C9.29857 25.3918 9.63546 24.9522 10.0249 24.573C10.3709 24.236 10.7355 23.8941 11.1185 23.5473L11.1103 23.4021L11.11 23.3994C11.1019 23.3517 10.9576 22.9434 11.1033 22.6254L11.12 22.5897C11.2518 22.3105 11.271 22.3823 11.3972 22.2942L11.4023 22.2905C11.679 22.0923 12.0316 21.9564 12.4496 21.8657C12.5568 21.8425 12.6577 21.8321 12.7999 21.8264L12.8195 21.8257L12.8453 21.8248L12.9558 21.8214C13.1641 21.8148 13.3203 21.7413 13.4407 21.5892L13.4497 21.5778L13.4587 21.5658L13.4671 21.5542C13.4965 21.5131 13.5246 21.4662 13.57 21.3856L13.601 21.3305L13.616 21.3044L13.6313 21.2782C13.6833 21.19 13.7202 21.1381 13.7723 21.0813C13.9299 20.9099 14.1744 20.8092 14.4322 20.7925C14.8893 20.7626 15.3393 20.8852 16.0015 21.1669ZM22.0006 29.9862L21.9634 30.1695C21.9599 30.1868 21.9579 30.2038 21.9576 30.2203L21.9577 30.2327L21.9603 30.3163L21.8776 30.3286C21.8107 30.3385 21.7444 30.3488 21.6787 30.3596L21.6132 30.3706L20.9957 30.4753L21.5602 30.1916L21.5717 30.186L21.5748 30.1844L21.5965 30.174L21.6644 30.1425L21.8314 30.0658L22.0006 29.9862Z" fill="#78E185"/>
<path fill-rule="evenodd" clip-rule="evenodd" d="M21.5155 20.5323C21.5505 20.6821 21.5186 20.8511 21.5244 21.005C21.53 21.152 21.5473 21.2981 21.5729 21.443C21.8415 21.3016 22.1589 21.2835 22.465 21.329C22.861 21.3878 23.3192 21.5181 23.6295 21.7827C23.7061 21.8481 23.7696 21.9255 23.8227 22.0108C23.8865 22.1132 23.9272 22.2289 24.0284 22.3022C24.1848 22.4157 24.3787 22.4597 24.5291 22.5855C24.6824 22.7137 24.7776 22.9054 24.7978 23.1032C24.8085 23.2085 24.7911 23.3069 24.7711 23.4096C24.7532 23.502 24.762 23.5399 24.7864 23.6289C24.8055 23.6987 24.769 23.778 24.7096 23.8165C24.837 23.9039 24.9626 23.9941 25.086 24.0879C25.8053 24.634 26.4134 25.3147 26.835 26.1156L26.8452 26.1355L26.857 26.1594C26.9598 26.3706 27.2286 26.9879 27.262 27.1267C27.2859 27.1992 27.309 27.272 27.3305 27.3452C27.3873 27.5392 27.4354 27.7356 27.4753 27.9336L27.486 27.9877C27.5184 28.154 27.5742 28.351 27.5652 28.5283C27.6585 29.0123 27.7413 29.4984 27.8119 29.9864C27.8211 30.0504 27.7957 30.1023 27.7562 30.1368C27.8506 30.152 27.9444 30.1706 28.0372 30.1895L28.0911 30.2008L28.1181 30.2068C28.3114 30.2504 28.5021 30.3139 28.6287 30.4763C28.7652 30.652 28.768 30.8777 28.6309 31.0546C28.5145 31.2049 28.3445 31.2763 28.1671 31.3214C28.1321 31.3302 28.0967 31.3383 28.0613 31.3455C28.0375 31.3505 28.0219 31.3179 28.0444 31.3054L28.082 31.2846L28.1334 31.2564C28.2672 31.1827 28.406 31.0994 28.4801 30.9663C28.5806 30.7857 28.501 30.6184 28.3286 30.5267C28.1842 30.4498 28.0056 30.4301 27.8453 30.4039L27.7791 30.3929C27.6115 30.3662 27.4405 30.3488 27.2713 30.3679C27.1233 30.3848 26.9734 30.4353 26.8538 30.5257L26.8427 30.5345L26.8313 30.5441C26.7264 30.635 26.5756 30.8392 26.7734 30.8981C26.9245 30.9428 27.1087 30.9317 27.2676 30.9403L27.2882 30.9416C27.4212 30.9507 27.5602 30.9507 27.6948 30.9666C27.743 30.9722 27.7906 30.9801 27.8372 30.9911C27.9709 31.0227 27.9249 31.2005 27.8071 31.2131C27.7783 31.2162 27.749 31.2177 27.7195 31.2184C27.6425 31.2763 27.5361 31.3026 27.445 31.3386C27.358 31.3731 27.2707 31.4072 27.1828 31.4407C27.2585 31.4441 27.3342 31.4504 27.4097 31.4598C27.4341 31.4626 27.4344 31.4955 27.4097 31.498C27.2281 31.5165 27.0466 31.5365 26.8657 31.5618C26.5856 31.6007 26.3073 31.6527 26.0353 31.7319C25.8365 31.79 25.6402 31.8592 25.4497 31.94L25.3921 31.9648L25.3683 31.9752C25.1955 32.0501 24.9719 32.1378 24.8726 32.303C24.8206 32.3891 24.7978 32.5221 24.871 32.6045C24.9493 32.6932 25.1134 32.6831 25.2231 32.6874L25.2319 32.6878C25.4641 32.6991 25.6967 32.7006 25.9292 32.6925C26.4165 32.6753 26.9042 32.6221 27.3828 32.5284C27.471 32.5112 27.5092 32.6437 27.4203 32.6643C26.8558 32.7955 26.2851 32.8675 25.7059 32.8709L25.6425 32.871C25.4169 32.9141 25.1956 32.9785 24.9762 33.0511L24.9324 33.0657C24.8028 33.1095 24.5815 33.1531 24.5051 33.2818C24.4544 33.3672 24.4722 33.4258 24.5224 33.4656C24.6106 33.5354 24.7984 33.5485 24.8898 33.552C25.256 33.5657 25.6225 33.5682 25.989 33.5604C26.1721 33.5564 26.3552 33.5498 26.5383 33.5404C26.7173 33.531 26.9086 33.5044 27.087 33.5216C27.1637 33.5291 27.1893 33.6418 27.1061 33.6628C26.8861 33.7186 26.6393 33.7137 26.412 33.7208L26.3859 33.7217C26.1417 33.7304 25.8973 33.7342 25.6532 33.7336C25.4436 33.7328 25.2341 33.7285 25.0248 33.7208L24.8397 33.7135L24.807 33.7119C24.7083 33.7066 24.6076 33.6953 24.5202 33.6547C24.4394 33.7899 24.4998 33.9712 24.604 34.0783C24.7032 34.1804 24.8463 34.2305 24.9834 34.2618C24.9962 34.2646 25.0091 34.2674 25.0219 34.27C25.323 34.3313 25.6297 34.326 25.9114 34.4644C26.1483 34.5809 26.3652 34.775 26.6306 34.821C26.8679 34.8623 27.0403 34.7578 27.1668 34.5643C27.1737 34.5536 27.1806 34.543 27.1871 34.5323C27.2866 34.372 27.3583 34.1954 27.4632 34.0382C27.5167 33.9581 27.5771 33.8811 27.651 33.8185C27.6841 33.7899 27.9164 33.6666 27.9527 33.6297C28.1089 33.4693 27.9706 33.1321 28.0112 32.9311C28.0588 32.6972 28.2645 32.6149 28.3878 32.4335C28.6222 32.0885 27.9793 31.7654 28.1715 31.3881C28.174 31.3834 28.1771 31.3799 28.1812 31.3777C28.1981 31.3686 28.225 31.3799 28.2234 31.4022C28.2021 31.6833 28.4701 31.8769 28.5668 32.1204C28.6769 32.3976 28.501 32.5654 28.3214 32.7504C28.091 32.9881 28.2532 33.2542 28.2019 33.5404C28.1952 33.5779 28.1844 33.611 28.1704 33.6406C28.2098 33.665 28.2401 33.7055 28.2468 33.7619C28.3258 34.432 28.4107 35.1 28.5494 35.7608L28.579 35.9012L28.6188 36.0885C28.7176 36.5569 28.8098 37.0272 28.8274 37.5061C28.8824 37.9102 28.9043 38.3177 28.8716 38.7246C28.7727 39.963 28.0807 41.2586 26.8234 41.6387C26.5324 41.7267 26.2237 41.7495 25.9251 41.6879C25.8228 41.6669 25.6795 41.6205 25.5508 41.5504C25.5585 41.6329 25.5645 41.7155 25.5671 41.7978C25.6095 41.8451 25.6287 41.9164 25.6045 41.9774C25.502 41.9437 25.4088 41.8902 25.3249 41.8171L25.311 41.8047C25.2612 41.6198 25.2467 41.4175 25.2394 41.2226L25.2375 41.1672C25.2356 41.1133 25.2344 41.0604 25.2325 41.0088C25.2219 40.6872 25.2294 40.365 25.246 40.0437L25.2582 39.8073C25.2861 39.2557 25.3089 38.7054 25.2936 38.1522C25.276 37.5157 25.2216 36.8819 25.1533 36.2488C25.1179 35.9222 25.0779 35.5963 25.0369 35.2704C25.004 35.008 24.949 34.7255 24.948 34.455C24.7373 34.4099 24.5305 34.3235 24.4009 34.1466C24.2635 33.959 24.2432 33.7192 24.3652 33.5269C24.2472 33.3654 24.344 33.2132 24.4898 33.1105C24.2657 32.9849 24.1408 32.6424 24.1076 32.4041C24.0851 32.2407 24.0779 31.9961 24.1477 31.8123C24.0476 31.8158 23.9474 31.8261 23.8472 31.8433C23.7314 31.8637 23.6178 31.8934 23.5057 31.9304L23.449 31.9492C23.4204 31.9588 23.3881 31.9701 23.3561 31.9833C23.5587 32.3183 23.2985 32.6221 22.9649 32.7088C22.9014 32.7254 22.8366 32.737 22.7712 32.7463C22.6238 32.7667 22.4732 32.7729 22.327 32.7864C22.0472 32.8121 21.7659 32.8488 21.4851 32.8606C21.4234 32.8635 21.3837 32.8347 21.3649 32.7946C21.3643 32.794 21.364 32.7936 21.364 32.793C21.3574 32.7824 21.353 32.7711 21.3514 32.7592C21.3524 32.7601 21.3537 32.7608 21.3546 32.7614C21.3411 32.6862 21.3862 32.5948 21.4851 32.5839C21.8904 32.5381 22.3014 32.536 22.7079 32.5024L22.734 32.5003C22.8616 32.4893 23.0119 32.469 23.113 32.3882C23.2069 32.313 23.2153 32.2153 23.1777 32.127C23.1771 32.1292 23.1765 32.1317 23.1762 32.1339C23.1733 32.1514 23.1493 32.1508 23.1414 32.1386C23.118 32.1029 23.112 32.0678 23.118 32.034C23.0898 32.0015 23.0557 31.9726 23.0188 31.9504C22.855 31.8509 22.6397 31.8236 22.4535 31.7942C22.2497 31.7619 22.0444 31.7472 21.8388 31.7375C21.4341 31.7184 21.0281 31.7513 20.63 31.8239C20.6134 31.8268 20.6065 31.8036 20.6228 31.7983C20.778 31.7469 20.9367 31.7037 21.0973 31.6696C21.0935 31.6689 21.0898 31.6683 21.086 31.6673C21.072 31.6639 21.0619 31.6467 21.0666 31.6329C21.0672 31.6307 21.0682 31.6286 21.0691 31.6267C21.0009 31.5954 20.9724 31.4902 21.0551 31.4476C21.3126 31.3145 21.615 31.2544 21.8976 31.1996C22.169 31.1473 22.4431 31.1106 22.7177 31.0781C23.1818 31.0236 23.6879 31.0249 24.1345 30.8783L24.1529 30.8721C24.3348 30.8094 24.5519 30.6823 24.5646 30.4675C24.5834 30.1428 24.101 30.2274 23.9001 30.2352C23.3502 30.2562 22.8009 30.2944 22.2535 30.3533C22.1417 30.3651 22.03 30.3773 21.9183 30.3899C21.7471 30.409 21.5756 30.429 21.4047 30.4503C21.3092 30.4622 21.2116 30.4779 21.1133 30.4929C21.0826 30.5004 21.0526 30.5057 21.0225 30.5086C21.0203 30.5088 21.0184 30.5082 21.0169 30.5073C20.8738 30.5273 20.7302 30.5427 20.5906 30.5383C20.5746 30.538 20.5646 30.5129 20.5815 30.5054C20.7618 30.429 20.9624 30.3839 21.1636 30.3485C21.2882 30.2556 21.4388 30.181 21.5624 30.109C21.7321 30.0101 21.9264 29.8645 22.1189 29.8053C22.2056 29.737 22.3039 29.6823 22.3943 29.645C22.3684 29.6046 22.359 29.5485 22.3636 29.5013C22.3809 29.3319 22.5164 29.2373 22.6729 29.2041C22.7214 29.1941 22.7774 29.1866 22.8372 29.1838C22.8384 29.1522 22.8525 29.1212 22.8838 29.098L22.8931 29.091L22.8996 29.0857C23.0047 29.0004 23.2132 28.7601 22.9621 28.7426C22.8288 28.7332 22.7161 28.8309 22.61 28.897C22.3896 29.0344 22.1765 29.0413 21.9249 29.0072L21.8117 28.9909L21.7929 28.9884C21.611 28.9645 21.4264 28.9612 21.3249 29.1468C21.2159 29.3453 21.1778 29.5263 20.958 29.6356C20.748 29.7399 20.5148 29.7605 20.322 29.9039C20.1154 30.0573 19.9602 30.2728 19.7912 30.4637C19.4184 30.8846 18.9918 31.2563 18.5524 31.6057L18.4742 31.6677C18.0695 31.9876 17.6518 32.3026 17.1987 32.5491C17.1956 32.5506 17.1924 32.5513 17.1896 32.5513C17.1774 32.55 17.1683 32.5344 17.1793 32.5237C17.7086 32.0093 18.3277 31.5922 18.8713 31.0916C19.1123 30.8696 19.3417 30.636 19.5624 30.3936C19.7552 30.181 19.9261 29.9421 20.1508 29.7612C20.26 29.6731 20.3781 29.6059 20.5101 29.5589C20.6335 29.5147 20.7718 29.4928 20.8854 29.4252C21.108 29.2931 21.0864 28.9799 21.3089 28.8378C21.4997 28.7158 21.7321 28.7604 21.9437 28.7893L21.969 28.7927C22.1061 28.8109 22.2479 28.8262 22.3787 28.772C22.5082 28.7185 22.6125 28.6183 22.743 28.5651C22.9249 28.4902 23.1827 28.5081 23.276 28.7082C23.3652 28.8992 23.2435 29.072 23.1014 29.1988C23.2951 29.2339 23.4651 29.3275 23.4795 29.5185C23.6216 29.5138 23.7634 29.5088 23.9054 29.5038C24.4003 29.4866 24.8976 29.4533 25.3928 29.4621C25.3815 29.4117 25.3765 29.3597 25.3758 29.3068C25.3756 29.2774 25.3768 29.248 25.379 29.2179C25.3827 29.1665 25.4165 29.1355 25.4666 29.1302L25.5785 29.1183L25.6159 29.1146C25.8254 29.0947 26.0597 29.0906 26.2194 29.2291C26.3051 29.304 26.3743 29.4762 26.3324 29.5911C26.43 29.6246 26.523 29.6675 26.6078 29.7217C26.7759 29.6653 26.9524 29.6716 27.1214 29.7304L27.1415 29.7376C27.2616 29.7817 27.4319 29.8653 27.4972 29.9845C27.3387 28.91 27.1251 27.8446 26.8567 26.7921C26.6853 26.3718 26.4688 25.9701 26.2062 25.5993C25.5449 24.665 24.5921 24.0224 23.7364 23.2838C23.6609 23.3669 23.5796 23.446 23.5035 23.5222L23.4713 23.5546C23.3164 23.7116 23.1548 23.8618 22.9896 24.0078C22.6444 24.3131 22.2811 24.5949 21.9203 24.8812C21.1931 25.4583 20.5356 26.0712 19.9886 26.8247C19.9787 26.8383 19.9515 26.8303 19.9591 26.8123C20.3343 25.92 21.1121 25.2416 21.8187 24.6122C22.1903 24.2812 22.5706 23.9582 22.9279 23.6116C23.0944 23.45 23.2558 23.2828 23.408 23.1076L23.4459 23.0636C23.5454 22.9471 23.7784 22.5912 23.9325 22.848C23.9647 22.9017 23.9633 22.9704 23.9325 23.0241C23.8887 23.1005 23.8332 23.1734 23.7724 23.2434C23.9884 23.3609 24.1999 23.485 24.4068 23.6163C24.3949 23.553 24.3978 23.4831 24.4089 23.4131L24.4125 23.3909L24.4276 23.3041C24.4492 23.1761 24.4603 23.0572 24.3792 22.9324C24.2777 22.7763 24.0864 22.7276 23.9339 22.6374C23.7583 22.5334 23.6666 22.3943 23.5726 22.2178C23.3926 21.8799 22.9858 21.7443 22.6361 21.6356L22.5922 21.622C22.2691 21.5218 21.9196 21.4682 21.5966 21.5645C21.6269 21.7055 21.6665 21.8446 21.7161 21.9801C21.7688 22.1243 21.8893 22.2847 21.877 22.4405C21.8685 22.5483 21.7392 22.6635 21.6319 22.5811C21.48 22.4645 21.4496 22.2746 21.4089 22.0937C21.3696 21.9187 21.3444 21.7395 21.3337 21.5605C21.3234 21.388 21.3315 21.2156 21.3527 21.0442L21.369 20.9184L21.373 20.8892C21.3908 20.762 21.4172 20.6285 21.4887 20.5288C21.4956 20.5192 21.5124 20.519 21.5155 20.5323ZM17.1077 19.817C17.11 19.8272 17.1116 19.8372 17.1131 19.8473C17.1235 19.8902 17.1274 19.9314 17.1261 19.9729C17.1268 19.9878 17.1257 20.0028 17.1229 20.0176C17.1173 20.0663 17.1055 20.1164 17.0897 20.1711C17.0559 20.2874 17.0172 20.4024 16.974 20.5157C16.8886 20.7396 16.7877 20.9533 16.663 21.1582C16.4377 21.5282 16.1514 21.8353 15.8138 22.1008C15.8778 22.1537 15.9405 22.2087 16.0032 22.2627C16.3065 22.5238 16.6017 22.7968 16.8875 23.077C17.3952 23.5746 17.8926 24.0815 18.3783 24.6005C18.6179 24.8565 18.8531 25.1158 19.087 25.3768L19.0946 25.3856L19.1029 25.3955C19.186 25.496 19.352 25.7356 19.4758 25.6971C19.5383 25.6776 19.6042 25.5843 19.6468 25.5398L19.7254 25.4578C19.7515 25.4305 19.7774 25.4029 19.8029 25.375C20.2597 24.8743 20.692 24.3543 21.0979 23.8108C21.2959 23.5457 21.4874 23.2755 21.6719 23.0007C21.7667 22.8594 21.8598 22.7168 21.951 22.5731C22.0392 22.434 22.1106 22.2846 22.2405 22.1809C22.3359 22.1047 22.4681 22.1745 22.4441 22.2994C22.4062 22.496 22.2702 22.6622 22.1631 22.8284C22.0555 22.9954 21.9454 23.1607 21.8328 23.3243C21.6161 23.6393 21.3901 23.9477 21.1559 24.2498C20.9543 24.51 20.7439 24.7636 20.5278 25.012L20.4688 25.0796C20.2364 25.3446 20.0083 25.626 19.7515 25.8679C19.5215 26.0845 19.2704 26.0214 19.0609 25.8109C18.7959 25.5447 18.55 25.2568 18.295 24.9809C17.7856 24.4296 17.2709 23.8825 16.7508 23.3412L16.5798 23.163C16.3805 22.9549 16.182 22.7454 15.9886 22.5321L15.9637 22.5043C15.7432 22.2562 15.519 21.9454 15.2055 21.8192C15.1829 21.8101 15.1912 21.7779 15.2157 21.7824C15.4163 21.8195 15.5839 21.9207 15.7397 22.0415C15.8798 21.8096 16.0048 21.5651 16.1138 21.315L16.0439 21.2847C15.5436 21.0684 14.9797 20.8504 14.4426 20.8854C14.2262 20.8995 13.9952 20.9815 13.8458 21.1441C13.7104 21.2914 13.6429 21.4899 13.5187 21.6468C13.3764 21.8264 13.1909 21.9073 12.9632 21.9146L12.8524 21.9179C12.7251 21.922 12.603 21.9287 12.4738 21.9568C12.1238 22.0327 11.7548 22.1558 11.4613 22.3661C11.3548 22.4424 11.2449 22.5473 11.1934 22.6629C11.1424 22.7774 11.1277 22.9113 11.1227 23.0349C11.1203 23.0952 11.1384 23.1747 11.1233 23.2324C11.125 23.2258 11.1258 23.2293 11.126 23.2362C11.1729 23.2732 11.2049 23.3347 11.2084 23.396C11.5009 23.2435 11.8038 23.1098 12.1126 22.9892C12.4564 22.8551 12.8108 22.7476 13.1654 22.6457C13.5123 22.5461 13.8755 22.5049 14.2292 22.4339C14.2743 22.4249 14.2899 22.4857 14.248 22.5019C13.8762 22.6447 13.5165 22.814 13.1416 22.9484C12.7669 23.0828 12.395 23.2282 12.0312 23.3898C11.328 23.7023 10.6487 24.1 10.0947 24.6395C9.55359 25.1665 9.13622 25.8066 8.74805 26.4503C8.35713 27.0984 8.00824 27.7702 7.69728 28.4603C7.08214 29.8254 6.62085 31.2607 6.31716 32.7269C6.0216 34.1536 5.85647 35.6312 5.91146 37.0895C5.93757 37.7821 6.02214 38.4752 6.21882 39.1414C6.31278 39.4596 6.4304 39.7705 6.57901 40.0674C6.73572 40.3804 6.94686 40.6592 7.08996 40.9775C7.10173 41.0037 7.10624 41.0288 7.10558 41.0522C7.71591 41.5812 8.67121 41.2247 9.33174 40.9089C10.8516 40.1818 12.3433 39.3862 13.7612 38.4732C15.1605 37.572 16.4867 36.5663 17.7815 35.5224C17.6814 35.4191 17.5931 35.3032 17.5155 35.1983C17.3552 34.9817 17.2347 34.7362 17.1518 34.48C17.0547 34.1801 17.0247 33.8591 17.0522 33.5457L17.0601 33.4571C17.0864 33.1611 17.1169 32.8608 17.1818 32.5716C17.1824 32.5679 17.1853 32.5663 17.1884 32.5663C17.1915 32.5663 17.1947 32.5682 17.1959 32.5716C17.3709 33.1318 17.385 33.7339 17.5815 34.2869C17.6607 34.5092 17.7834 34.724 17.9305 34.9084C17.994 34.9882 18.0685 35.0574 18.1445 35.1251C18.1496 35.0906 18.1564 35.0565 18.1668 35.023L18.175 34.9965C18.1852 34.9643 18.1978 34.9285 18.2153 34.8968C18.1906 34.8896 18.1665 34.8818 18.1427 34.873C18.1239 34.8661 18.1198 34.8358 18.1427 34.8307C18.205 34.8163 18.2691 34.8091 18.3346 34.806C18.3449 34.8044 18.3549 34.8041 18.3649 34.8048C18.4873 34.801 18.6119 34.8098 18.7299 34.8116C18.9342 34.8148 19.138 34.8185 19.342 34.8276C19.7327 34.8445 20.1737 34.9194 20.558 34.8285C20.9073 34.7459 21.2516 34.5129 21.5317 34.2937C21.7765 34.1021 21.9652 33.8745 22.1683 33.6475C22.1537 33.6498 22.1393 33.652 22.1249 33.654L21.9939 33.6719C21.8286 33.694 21.6323 33.7113 21.5011 33.6318C21.451 33.6015 21.4654 33.5326 21.5164 33.5138C21.6503 33.4646 21.8166 33.5053 21.9593 33.4985C22.0713 33.4931 22.1846 33.4812 22.2951 33.4581C22.3314 33.4506 22.3674 33.4418 22.4031 33.4315C22.6647 33.356 22.9721 33.0905 22.7643 32.8005C22.7565 32.7896 22.7652 32.7796 22.7758 32.7776C22.7806 32.7767 22.7856 32.7776 22.7896 32.7811C23.0262 32.9771 22.9032 33.3284 22.6794 33.479C22.6025 33.531 22.5155 33.5673 22.4253 33.594C22.4425 33.6255 22.4456 33.6644 22.425 33.7013C22.2497 34.0138 21.953 34.2884 21.6751 34.5092C21.3896 34.7358 21.0604 34.9497 20.7064 35.0499C20.2976 35.1651 19.8485 35.0784 19.4338 35.0418C19.209 35.022 18.985 34.9985 18.7605 34.9726C18.7004 34.9657 18.6382 34.9604 18.5749 34.9544C18.6344 35.0327 18.6817 35.1229 18.7127 35.177C18.8134 35.353 18.7205 35.5847 18.5252 35.6385C18.5048 35.6442 18.4838 35.6473 18.4632 35.6479C18.4106 35.7535 18.2854 35.8311 18.1696 35.7913C18.1192 35.7742 18.0707 35.7507 18.0241 35.7225C17.2957 36.3625 16.5289 36.963 15.7402 37.526C14.2776 38.5699 12.7445 39.5233 11.1549 40.3615C10.7968 40.5504 10.4361 40.7341 10.0722 40.9107L9.75903 41.0617C9.41239 41.2286 9.05762 41.3946 8.68949 41.4981C8.61772 41.5183 8.54257 41.5346 8.46558 41.5471C8.46458 41.554 8.46433 41.5606 8.46478 41.5669C8.39556 41.5762 8.33516 41.5776 8.28358 41.5712L8.27184 41.5695C7.8206 41.6011 7.33794 41.4909 7.04764 41.1612C6.99926 41.1951 6.92871 41.1989 6.86646 41.15C6.55337 40.9043 6.36674 40.5301 6.20295 40.1729C6.03688 39.8105 5.90671 39.4329 5.81106 39.046C5.62001 38.2733 5.54423 37.4762 5.54024 36.6814C5.5258 33.6186 6.29256 30.5288 7.62439 27.7791C7.96217 27.0817 8.3345 26.3974 8.74783 25.7418C9.16004 25.088 9.63869 24.4804 10.2517 24.0036C10.428 23.8666 10.6113 23.7412 10.8005 23.6257C10.6735 23.5628 10.6231 23.4027 10.6142 23.2605C10.5945 22.9447 10.6321 22.5808 10.817 22.3143C11.0763 21.9404 11.5405 21.7099 11.9709 21.5978C12.1956 21.5393 12.428 21.5053 12.6598 21.4937C12.7793 21.4877 12.9035 21.5074 13.0215 21.4945C13.1257 21.4832 13.1901 21.421 13.25 21.3392C13.4035 21.1297 13.5034 20.9099 13.7235 20.7563C13.9493 20.5987 14.242 20.5384 14.5141 20.5547C14.8311 20.5738 15.1202 20.6987 15.3994 20.8423C15.6513 20.9718 15.8959 21.1154 16.1342 21.2685C16.1779 21.1661 16.2191 21.0629 16.2574 20.9593C16.3316 20.7585 16.3962 20.5514 16.4486 20.3439C16.5017 20.1334 16.4939 19.8555 16.6544 19.6973C16.7939 19.5597 17.0625 19.6137 17.1077 19.817ZM27.9209 33.859L27.9197 33.8592C27.5952 34.0516 27.44 34.5323 27.2873 34.7424C27.2998 34.8129 27.3086 34.8846 27.3258 34.9513C27.3652 35.1044 27.4168 35.2563 27.4767 35.4022C27.5818 35.6599 27.7136 35.9053 27.8353 36.1552C27.9333 36.3561 28.0293 36.5607 28.104 36.7722C28.0959 36.7803 28.0884 36.7899 28.082 36.8019C28.001 36.9536 27.9376 36.9238 27.7882 36.8907L27.7881 36.8904C27.7026 36.6286 27.5793 36.3828 27.4685 36.1317L27.4416 36.0704L27.4149 36.009C27.3223 35.7941 27.2379 35.5772 27.1887 35.3468C27.1574 35.1999 27.1445 35.049 27.1427 34.899C27.0616 34.9657 26.9643 35.0136 26.8416 35.032C26.5791 35.0717 26.3413 34.9072 26.1274 34.7753L26.0792 34.7458C25.9453 34.6643 25.8125 34.589 25.6582 34.5505C25.4829 34.5067 25.3017 34.5067 25.1236 34.4844C25.1023 34.4816 25.0807 34.4788 25.0591 34.4754C25.1286 34.7055 25.1608 34.9554 25.2022 35.1858C25.2598 35.5089 25.3067 35.8349 25.3518 36.1599C25.4394 36.7899 25.5004 37.4248 25.5314 38.0602C25.5614 38.6753 25.5463 39.2881 25.524 39.9031L25.5129 40.203C25.5041 40.4471 25.4967 40.6916 25.501 40.9358C25.5129 40.9367 25.5248 40.9386 25.5368 40.9414C25.6601 40.9702 25.7442 41.0961 25.8569 41.1522C26.0948 41.2705 26.3821 41.2689 26.6353 41.2091C27.2112 41.0726 27.6901 40.6706 28.0056 40.1793C28.3843 39.59 28.5233 38.8965 28.5189 38.2026C28.5137 37.4217 28.3873 36.6751 28.2113 35.9212L28.2 35.8731C28.0519 35.245 27.9591 33.8649 27.9209 33.859ZM11.7944 32.2834C11.7977 32.4934 11.7123 32.718 11.6654 32.9221C11.6149 33.142 11.5645 33.3619 11.5134 33.5817L11.4674 33.7787C11.4292 33.9428 11.3915 34.107 11.3577 34.2721C11.3299 34.4078 11.3182 34.5867 11.2727 34.7364C11.8144 34.5172 12.3569 34.3002 12.8985 34.0818C13.5658 33.8125 14.2363 33.5507 14.9051 33.2858C15.5715 33.0222 16.2341 32.7222 16.9139 32.4968C17.0757 32.4429 17.1853 32.7013 17.0303 32.7729C16.3399 33.0933 15.6093 33.3441 14.902 33.6247L13.8788 34.031C12.9408 34.4033 12.0021 34.7739 11.0588 35.1316C10.4162 35.3753 9.77617 35.6261 9.12953 35.8574C8.82124 35.9677 8.51016 36.0719 8.2034 36.1862C7.94644 36.282 7.6685 36.4242 7.57335 36.7003C7.56835 36.7147 7.54863 36.7088 7.55082 36.6941C7.58932 36.4267 7.78778 36.2595 8.01154 36.133C8.30852 35.9646 8.63472 35.8422 8.94821 35.7072L8.99088 35.6887C9.63104 35.4094 10.2764 35.1414 10.9236 34.8779C10.9172 34.8622 10.9134 34.8454 10.9131 34.8279L10.9113 34.8284C10.8995 34.7087 10.9544 34.602 10.9938 34.4906L11.107 34.1711C11.1825 33.9584 11.2501 33.743 11.3198 33.5283C11.3927 33.3039 11.4663 33.0798 11.5398 32.8556C11.602 32.6657 11.6438 32.4393 11.7503 32.2696C11.7631 32.2492 11.7985 32.2607 11.7944 32.2834ZM24.2604 31.8111L24.2523 31.8519C24.2429 31.8996 24.2341 31.9476 24.2319 31.9958C24.2256 32.122 24.24 32.2482 24.2735 32.37C24.3064 32.4905 24.3524 32.607 24.4178 32.7138C24.4798 32.8143 24.5696 32.8932 24.6269 32.9962C24.6328 33.0072 24.6366 33.0181 24.6381 33.0288C24.66 33.0197 24.6817 33.0116 24.7026 33.005C24.8773 32.9496 25.0557 32.9032 25.2366 32.8685L25.2079 32.8665L25.1893 32.8651C24.8871 32.8395 24.6019 32.7405 24.6635 32.3875C24.6984 32.1879 24.8549 32.0541 25.0228 31.9593L25.0438 31.9476C25.0528 31.9426 25.0623 31.9376 25.0713 31.9332C24.9195 31.9075 24.8094 31.8759 24.6231 31.8446C24.5023 31.8242 24.3812 31.813 24.2604 31.8111ZM10.4516 27.4625C10.7488 28.0633 10.9724 28.702 11.1411 29.3501C11.2226 29.663 11.2917 29.9791 11.3473 30.2976L11.3655 30.404L11.3759 30.4617C11.4278 30.7457 11.4937 31.0533 11.4175 31.3303C11.3926 31.4209 11.2424 31.4567 11.2003 31.3588C11.0734 31.0632 11.0913 30.7234 11.0545 30.4071C11.0158 30.0752 10.9631 29.7449 10.8974 29.4173C10.7711 28.7878 10.5939 28.173 10.3964 27.5629L10.3744 27.4951C10.3576 27.4499 10.4306 27.4202 10.4516 27.4625ZM21.8757 30.15C21.7871 30.1917 21.6985 30.2299 21.6203 30.2681C21.6144 30.2712 21.6081 30.274 21.6018 30.2772C21.6904 30.2621 21.7793 30.248 21.8682 30.2349C21.8673 30.2061 21.8701 30.1776 21.8757 30.15ZM25.3415 29.8491C25.3282 29.8535 25.3165 29.8605 25.3062 29.87L25.3013 29.875C25.2891 29.8864 25.2804 29.8998 25.2754 29.9153C25.2676 29.9303 25.2639 29.9464 25.2646 29.9636L25.2691 29.9969C25.275 30.0181 25.2857 30.0365 25.3013 30.0522L25.3266 30.0717C25.3437 30.0817 25.3619 30.0873 25.3814 30.0886L25.3898 30.0889L25.4151 30.0889C25.4296 30.0884 25.4432 30.0848 25.456 30.0781C25.4693 30.0737 25.4811 30.0668 25.4913 30.0572L25.4963 30.0522C25.5086 30.0408 25.5172 30.0274 25.5222 30.0119C25.5289 29.9991 25.5325 29.9854 25.533 29.9709L25.533 29.9636L25.5285 29.9303C25.5233 29.9117 25.5144 29.8953 25.5019 29.881L25.4963 29.875L25.471 29.8554C25.4539 29.8455 25.4356 29.8399 25.4162 29.8387L25.4078 29.8384H25.3898C25.3725 29.8377 25.3564 29.8413 25.3415 29.8491ZM24.5272 29.8068C24.4607 29.819 24.4229 29.8996 24.4398 29.9608C24.4584 30.0285 24.5227 30.0586 24.5873 30.0494L24.5937 30.0483C24.6694 30.0344 24.7436 30.0398 24.8157 30.0663C24.8791 30.0898 24.9528 30.0401 24.9696 29.9789C24.9889 29.9089 24.9459 29.8483 24.8822 29.8248C24.768 29.7826 24.6454 29.785 24.5272 29.8068ZM11.3406 25.3589C11.492 25.5809 11.5866 25.876 11.6799 26.1298L11.6892 26.155C11.7884 26.4216 11.884 26.6904 11.9732 26.9606C12.1513 27.4999 12.3833 28.0643 12.4262 28.634C12.4341 28.7392 12.2733 28.7813 12.2266 28.6881C12.0926 28.4202 12.0206 28.1409 11.9413 27.8537C11.8657 27.5797 11.7869 27.3067 11.7081 27.0337C11.6293 26.7608 11.5531 26.4871 11.4755 26.2139C11.4001 25.9481 11.295 25.6525 11.2777 25.3759C11.2755 25.34 11.3232 25.3333 11.3406 25.3589ZM14.7587 23.5715C14.9609 23.7118 15.1265 23.9171 15.2975 24.0927C15.4711 24.2709 15.6423 24.4507 15.812 24.6326C16.0954 24.9367 16.3738 25.2457 16.6613 25.546C17.2342 26.1445 17.8823 26.6953 18.6729 26.9766C18.8643 27.0447 18.7805 27.3518 18.5887 27.2823C17.78 26.989 17.11 26.4466 16.519 25.8331C16.213 25.5154 15.9321 25.1758 15.6583 24.8302C15.5301 24.6685 15.403 24.5063 15.2776 24.3425L15.2026 24.244C15.0449 24.0359 14.852 23.8285 14.7367 23.5936C14.7302 23.5804 14.7444 23.5615 14.7587 23.5715Z" fill="black"/>
<path fill-rule="evenodd" clip-rule="evenodd" d="M24.2012 12.6567C23.9185 11.4621 23.3005 10.3503 22.3111 9.45186C19.3337 6.50091 13.866 8.10263 13.8908 12.5495C13.784 13.0689 13.7407 13.6029 13.776 14.1326C13.7906 14.3586 13.8882 14.674 13.7571 14.8774C13.4614 15.258 13.2896 15.5384 13.3902 16.0446C13.4743 16.4866 13.7743 16.7997 14.1792 16.9661C14.4221 17.036 14.6525 17.1882 14.7424 17.4201C15.2829 18.4122 15.6834 19.2373 16.5355 19.9135C16.7554 20.0875 19.0106 21.1315 19.7536 21.1315C21.929 21.1315 24.6708 20.3415 24.7163 17.9055C24.7242 17.3705 24.6306 16.8292 24.5718 16.2984C24.4288 15.087 24.4792 13.8318 24.2012 12.6567Z" fill="#D08B5B"/>
<path fill-rule="evenodd" clip-rule="evenodd" d="M24.1521 12.0587C24.1528 12.044 24.1739 12.0406 24.178 12.0552C24.2588 12.3428 24.3047 12.6358 24.3679 12.9279C24.4288 13.2092 24.4863 13.4914 24.5342 13.7752C24.6245 14.3108 24.7005 14.8478 24.7713 15.3862L24.7889 15.5208C24.9119 16.4682 25.115 17.4552 24.9374 18.4081C24.7858 19.2212 24.2776 19.8766 23.6227 20.357C23.0026 20.812 22.2507 21.1039 21.5042 21.2699C20.703 21.4481 19.7532 21.5012 19.1013 20.9122C18.8403 20.6764 19.1961 20.2084 19.4792 20.4212C20.144 20.9209 20.9898 20.7736 21.7399 20.5748L21.7627 20.5687C22.4211 20.3929 23.0839 20.1264 23.6066 19.6769C24.1845 19.1798 24.4702 18.49 24.5032 17.7334C24.5218 17.3083 24.4822 16.8837 24.4396 16.4611L24.4348 16.4142C24.3859 15.9309 24.3346 15.4479 24.2872 14.9644C24.2439 14.5236 24.2066 14.0802 24.1869 13.6374L24.1777 13.414C24.1586 12.9637 24.1328 12.5069 24.1521 12.0587ZM16.355 8.31731C17.4369 7.75268 18.6802 7.5506 19.8842 7.74009C21.0416 7.92226 22.1038 8.52099 22.8978 9.37951C23.2854 9.79867 23.6295 10.2835 23.8494 10.8132C23.9586 11.0764 24.0441 11.3509 24.0896 11.6328C24.1131 11.7777 24.1361 11.9279 24.1405 12.0748C24.1445 12.2109 24.1047 12.3385 24.1094 12.4768C24.1101 12.4984 24.0771 12.5026 24.072 12.4819C24.0344 12.3276 23.9438 12.211 23.887 12.0646C23.8445 11.9552 23.7963 11.8484 23.7472 11.742L23.7051 11.6508C23.5827 11.3856 23.4364 11.1314 23.2917 10.8781C23.0004 10.3679 22.6265 9.90429 22.1887 9.51305C21.4201 8.82615 20.4341 8.38275 19.4049 8.30291C18.3367 8.22 17.2533 8.47525 16.341 9.04066C15.4288 9.60605 14.7391 10.485 14.381 11.4969C14.2003 12.0076 14.1005 12.5396 14.0773 13.0806C14.0655 13.3545 14.0765 13.6306 14.0957 13.9039L14.1052 14.0342C14.1163 14.1905 14.1239 14.3462 14.1006 14.4988C14.2652 14.4473 14.4377 14.426 14.6107 14.4514C14.8679 14.4893 15.0216 14.595 15.137 14.8254C15.143 14.8374 15.1309 14.8494 15.119 14.8434C14.9694 14.7686 14.7274 14.808 14.569 14.8472C14.4041 14.8881 14.2557 14.9591 14.1156 15.0551C13.8564 15.2326 13.6533 15.5076 13.6035 15.8232C13.5553 16.1281 13.6801 16.4367 13.8898 16.6552C13.9977 16.7678 14.1268 16.865 14.2712 16.9257C14.4465 16.9993 14.6201 16.997 14.7752 17.1185C14.871 17.1936 14.8479 17.3222 14.7828 17.4056C15.1101 17.7653 15.4002 18.1588 15.7274 18.5199C15.8791 18.6873 16.0296 18.8549 16.1749 19.0276L16.2291 19.0927C16.3742 19.2682 16.6051 19.4537 16.6714 19.6745C16.7127 19.8119 16.566 19.9915 16.4176 19.9289C16.1901 19.8329 16.0277 19.583 15.8739 19.3914L15.8639 19.3789C15.7027 19.1803 15.5596 18.9707 15.4287 18.751L15.3857 18.6786C15.149 18.2796 14.9144 17.8658 14.7635 17.4275C14.7536 17.4378 14.743 17.4471 14.7319 17.4551C14.5145 17.61 14.1985 17.4909 13.9814 17.3903C13.7765 17.2953 13.5886 17.1524 13.4421 16.9801C13.1236 16.6056 12.9768 16.1205 13.0831 15.6344C13.1733 15.2226 13.4579 14.8221 13.8312 14.6138C13.6589 14.415 13.5876 14.147 13.5401 13.8849C13.4795 13.5504 13.4674 13.2076 13.4839 12.8685C13.5167 12.1929 13.6901 11.5269 13.9582 10.9082C14.4379 9.80131 15.2859 8.87537 16.355 8.31731ZM14.0781 15.704C14.3052 15.6613 14.5168 15.651 14.7358 15.7473C14.9733 15.8519 15.1405 16.0245 15.296 16.2267C15.4728 16.4567 15.0196 16.7079 14.9053 16.4026L14.902 16.3932C14.8713 16.3028 14.8165 16.2154 14.7471 16.135C14.7263 16.167 14.6984 16.1951 14.6657 16.2113C14.626 16.2308 14.5655 16.2173 14.556 16.1665C14.5454 16.1102 14.5571 16.0419 14.5895 15.9942L14.594 15.9877C14.4364 15.8606 14.2469 15.7678 14.0781 15.7379C14.0613 15.7349 14.0614 15.7071 14.0781 15.704Z" fill="black"/>
<path fill-rule="evenodd" clip-rule="evenodd" d="M21.2085 19.0034C20.9981 18.9175 20.8103 18.7743 20.6731 18.5913C20.6254 18.5277 20.613 18.4606 20.623 18.3991C20.6343 18.33 20.6751 18.2674 20.7308 18.2254C20.7867 18.1833 20.8566 18.1625 20.9242 18.1731C20.9829 18.1823 21.0414 18.2145 21.0876 18.2812L21.0973 18.2946C21.1789 18.405 21.2852 18.4956 21.4064 18.554C21.5232 18.6103 21.6538 18.6366 21.7889 18.6213C22.0463 18.5922 22.2237 18.4529 22.4123 18.2638C22.4357 18.24 22.459 18.2153 22.4825 18.1903C22.4974 18.1676 22.518 18.153 22.5408 18.1454C22.5662 18.1369 22.595 18.1374 22.6213 18.1466C22.6466 18.1554 22.6693 18.1722 22.6845 18.1946C22.699 18.2158 22.7072 18.242 22.7045 18.2722C22.6873 18.4682 22.5849 18.6431 22.4394 18.7804C22.2778 18.933 22.0636 19.0385 21.862 19.0755C21.6398 19.1163 21.4134 19.087 21.2085 19.0034ZM21.9668 15.98C22.2031 16.1237 22.5632 16.4588 22.309 16.8151C22.0097 17.1293 21.5788 16.7691 21.3664 16.6062C21.1695 16.4799 20.9483 16.8047 21.131 16.9521C22.6654 18.0885 23.2881 16.0176 22.0863 15.811C21.954 15.7883 21.9048 15.9355 21.9668 15.98ZM19.2171 14.658C19.2432 14.3338 19.7369 14.2601 19.786 14.581C19.83 14.8684 19.7782 15.1325 19.6488 15.3913C19.5251 15.6385 19.2143 15.5232 19.1908 15.298C19.1593 14.9963 19.2009 14.8597 19.2171 14.658ZM22.975 14.5145C23.0438 14.4243 23.1432 14.3627 23.2622 14.3975C23.6342 14.5063 23.5246 15.0346 23.3939 15.2917C23.323 15.4314 23.0935 15.4668 22.9898 15.3438C22.8208 15.1433 22.7399 14.7429 22.9547 14.5454C22.9605 14.5352 22.967 14.5249 22.975 14.5145ZM19.6435 13.2391L19.7023 13.2288C19.8841 13.1974 20.1101 13.1672 20.2387 13.3134C20.3069 13.3909 20.3304 13.535 20.2387 13.6092C20.0774 13.7398 19.8992 13.6892 19.7059 13.7002C19.5467 13.7094 19.3936 13.7357 19.2402 13.7796C18.9037 13.8758 18.6295 14.0515 18.3421 14.2443C18.3044 14.2696 18.2659 14.2214 18.2839 14.1861C18.4498 13.861 18.7713 13.5939 19.0934 13.4312C19.2653 13.3443 19.4534 13.2722 19.6435 13.2391ZM22.6359 13.0935L22.6809 13.1027C23.1703 13.2051 23.8062 13.4095 24.0379 13.8904C24.0468 13.9584 24.0374 13.973 24.0298 13.9825L24.0273 13.9857C24.0211 13.9938 24.0161 14.005 23.9866 14.0143C23.9784 14.0123 23.9702 14.0103 23.9618 14.0081C23.8556 13.9802 23.7715 13.9419 23.6902 13.902L23.6019 13.8586C23.4996 13.8083 23.3963 13.76 23.2869 13.7242C23.0533 13.648 22.8131 13.5943 22.5691 13.5657C22.5162 13.5595 22.4653 13.5416 22.4252 13.511C22.387 13.482 22.3579 13.4418 22.3446 13.3883C22.3274 13.3192 22.3324 13.2668 22.3695 13.2044C22.3973 13.1575 22.4373 13.1251 22.4831 13.1064C22.5298 13.0874 22.583 13.0829 22.6359 13.0935Z" fill="black"/>
<path fill-rule="evenodd" clip-rule="evenodd" d="M23.1729 17.2462C22.7339 17.1721 22.2778 17.2816 21.8545 17.3982C21.1821 16.9566 20.3108 17.4023 19.8293 17.9541C19.6645 18.0899 19.3184 18.2703 19.5007 18.5293C19.4316 18.7125 19.4131 18.7986 19.5562 18.5846C20.3658 18.6778 21.2345 18.5016 22.0358 18.3355C22.3086 18.4273 22.5496 18.6419 22.8495 18.5684C23.1331 18.6287 23.44 18.685 23.696 18.503C23.891 18.4951 24.3246 18.8453 24.3177 18.4381C24.2574 18.0477 23.4837 17.3982 23.1729 17.2462Z" fill="#E8E1E1"/>
<path fill-rule="evenodd" clip-rule="evenodd" d="M23.5022 18.4999C23.0256 18.5527 22.5423 18.4751 22.1432 18.1983C22.1015 18.1694 22.0604 18.1697 22.027 18.1866C21.9862 18.1821 21.9446 18.1984 21.9204 18.2449C21.8202 18.438 21.488 18.395 21.3054 18.3989C20.7081 18.4105 20.09 18.3775 19.5152 18.5581C20.065 17.4831 20.8252 17.019 22.0017 17.441C21.8954 17.5266 22.4255 17.3263 22.472 17.3225C23.286 17.1184 23.9575 17.8014 24.2855 18.4781C24.0374 18.4191 23.7593 18.4714 23.5022 18.4999ZM24.6391 18.6829C24.2802 17.8741 23.5726 16.9849 22.5855 17.1247C22.3828 17.1545 22.1696 17.293 21.9656 17.268C21.3748 17.0497 20.8872 16.9388 20.2956 17.2918C20.0445 17.3105 18.632 19.0601 19.3032 18.9173C20.1272 18.4439 21.5599 18.8898 22.0716 18.4664C23.0761 19.1261 23.8929 18.4094 24.459 18.8218C24.5574 18.9122 24.6955 18.7996 24.6391 18.6829Z" fill="black"/>
<path fill-rule="evenodd" clip-rule="evenodd" d="M24.7675 16.17C24.3875 16.5628 23.7531 16.6756 23.2476 16.4649C21.9494 15.9223 22.5848 14.2299 23.586 13.7755C23.711 13.7443 23.8781 13.6703 24.0304 13.6535C24.0442 13.6467 24.0742 13.6663 24.1105 13.6478C25.2144 13.7711 25.4658 15.4855 24.7675 16.17ZM20.5804 16.2706C20.1542 16.8361 19.3618 17.0106 18.7144 16.7477C17.4355 16.2438 17.8891 14.7431 18.7641 14.1548C20.6126 13.4599 21.3758 15.2279 20.5804 16.2706ZM17.8079 15.0176C17.8067 15.017 17.8055 15.0167 17.8043 15.0162C17.8111 15.0132 17.8178 15.0102 17.8246 15.0072C17.8224 15.0129 17.82 15.0186 17.8179 15.0243C17.8146 15.022 17.8117 15.0194 17.8079 15.0176ZM25.6474 14.4063C25.543 14.4065 25.3923 14.4237 25.3059 14.4961C25.0929 13.7774 24.3066 13.1123 23.6228 13.5973C23.0843 13.7705 22.6847 14.1547 22.4576 14.6655C22.0481 14.4219 21.4042 14.5259 21.0491 14.8482C20.8166 14.0794 20.2442 13.8103 19.563 13.7705C18.8195 13.6487 18.0784 14.3711 17.8471 14.9506C17.6549 14.9287 17.3676 14.8675 17.1867 14.9862C16.0128 14.6782 13.9604 14.5084 13.7217 14.6795C13.5516 14.7448 13.4583 15.1464 13.6958 15.1681C13.9029 15.1387 13.6717 14.8738 13.8804 14.8449C14.9922 14.776 16.0715 15 17.1716 15.0939C17.2698 15.2261 17.5871 15.2703 17.7564 15.2172C17.4898 16.2003 18.0654 16.8691 18.9278 17.0694C20.2633 17.3763 21.4251 16.1812 21.0759 14.9381C21.4804 14.7368 21.9458 14.7455 22.3865 14.8515C21.6501 17.5627 26.0149 17.4411 25.3332 14.589C25.7869 14.8147 25.8854 14.4518 25.6474 14.4063Z" fill="black"/>
</svg>
