<svg width="36" height="48" viewBox="0 0 36 48" fill="none" xmlns="http://www.w3.org/2000/svg">
<path fill-rule="evenodd" clip-rule="evenodd" d="M17.3025 18.9652C17.9888 18.4864 20.2168 18.8471 21.1352 18.9652C21.6178 19.0272 21.9026 19.6535 22.1561 20.6058C23.4786 20.2814 25.214 19.9742 26.4607 20.8533C26.8457 21.1887 26.9177 21.7603 26.4736 22.0792C26.3288 22.1768 26.0499 22.2597 26.0058 22.3443C25.8272 22.7991 25.6279 23.4002 25.6596 23.8839C26.2273 28.9626 27.3654 34.0551 28.166 39.1013L28.1872 39.2923C28.281 40.1509 28.357 41.1638 27.7739 41.8474C27.3819 42.1798 26.8243 42.134 26.3453 42.2298C21.8293 42.835 17.2693 42.2565 12.735 42.4411C11.9623 42.4846 11.1855 42.5408 10.411 42.5466L10.4106 42.5376C10.4941 42.537 10.5776 42.5358 10.6612 42.5341C10.5756 40.0112 10.3989 37.4917 10.3419 34.9677C10.3239 34.1722 10.3186 33.3763 10.3343 32.5807C10.3375 32.4194 10.0871 32.4194 10.084 32.5807C10.0787 32.8447 10.0764 33.1086 10.0753 33.3726C9.88777 33.2255 9.67923 33.1088 9.4791 32.9775C9.34395 32.8889 9.21838 33.1057 9.35272 33.1938C9.59009 33.3495 9.84273 33.4802 10.0485 33.6792C10.0568 33.6873 10.0655 33.6935 10.0744 33.6987C10.079 36.2346 10.2526 38.7686 10.3628 41.3012C10.3791 41.676 10.3939 42.0508 10.4069 42.4257L10.4109 42.5466C9.5725 42.5528 8.73675 42.4999 7.91179 42.3076C7.77242 42.5019 7.44779 42.5405 7.28275 42.2896C7.20018 42.195 7.18356 42.0339 7.05577 41.9978C7.0214 41.971 7.07445 41.9519 7.09874 41.9645C5.97013 38.7293 7.00005 32.7004 7.91001 29.3859C8.3081 27.677 9.26497 26.0949 9.36459 24.3259C9.37508 23.4921 8.77739 22.4877 9.53517 21.8178C9.4234 21.2054 10.0021 20.6951 10.5864 20.6548C11.3056 18.0571 14.4887 21.0867 16.2123 21.1173C16.4486 20.7241 16.9742 19.1942 17.3025 18.9652ZM26.9923 35.9713C26.9922 35.8101 26.7418 35.8098 26.7419 35.9713C26.7436 37.6855 26.8908 39.7377 27.1025 41.4377C27.1222 41.5956 27.3728 41.5975 27.3529 41.4377C27.1412 39.7377 26.994 37.6855 26.9923 35.9713ZM15.2481 38.1715C15.3902 38.0954 15.2639 37.8791 15.1217 37.9552C14.0782 38.5143 13.103 39.1824 12.1651 39.903C12.0391 39.9998 12.1636 40.2176 12.2915 40.1193C13.2294 39.3987 14.2045 38.7306 15.2481 38.1715ZM24.3036 37.8515C24.2049 37.733 23.9935 37.8562 24.0909 37.9823C24.3175 38.2759 24.599 38.5073 24.929 38.6765C25.0704 38.749 25.196 38.539 25.0604 38.4629L25.0554 38.4602C24.7738 38.3158 24.5199 38.1244 24.3225 37.8756L24.3036 37.8515ZM11.7721 30.5219C11.8071 30.3648 11.5657 30.2978 11.5307 30.4553C11.457 30.7864 11.5105 31.1386 11.5872 31.4666L11.5923 31.4884L11.6028 31.5319C11.6166 31.5883 11.6693 31.6198 11.7235 31.6238C12.6446 31.692 13.5555 31.3789 14.4386 31.1479L14.5039 31.1309L14.5692 31.1143C14.7253 31.075 14.6592 30.8333 14.5026 30.8728L14.4329 30.8906C13.5839 31.1094 12.7096 31.4179 11.8238 31.3791L11.8145 31.3383C11.7564 31.0789 11.7153 30.8014 11.7678 30.5423L11.7721 30.5219ZM25.9107 29.9115C25.9118 29.7502 25.6615 29.7501 25.6603 29.9115L25.66 29.9431C25.657 30.1972 25.6361 30.5582 25.3871 30.6929C25.1657 30.8127 24.8716 30.7228 24.6371 30.6311L24.5895 30.6122L24.5207 30.5842C24.3717 30.5232 24.3068 30.7654 24.4542 30.8258L24.491 30.8407C24.8099 30.9682 25.2196 31.0896 25.5344 30.897C25.8422 30.7086 25.9015 30.3095 25.9097 29.9742L25.9102 29.9485L25.9107 29.9115Z" fill="#D08B5B"/>
<path fill-rule="evenodd" clip-rule="evenodd" d="M25.2159 20.2518L25.2416 20.2565L25.95 20.3883L25.2314 20.4425C25.1982 20.4451 25.1648 20.4482 25.1312 20.4519C25.0622 20.4594 24.9944 20.469 24.9278 20.4805L24.8847 20.4882L24.9032 20.4873C25.1656 20.4751 25.4284 20.4965 25.6874 20.5509C25.9428 20.6045 26.1695 20.6774 26.3723 20.7766L26.3966 20.7886L26.4278 20.8047L26.4429 20.8119L26.4548 20.8174C26.5104 20.8431 26.533 20.8563 26.5565 20.8882C26.603 20.9513 26.5831 21.0226 26.5231 21.0767C26.4781 21.1173 26.42 21.1374 26.3438 21.149C26.3326 21.1507 26.3211 21.1522 26.3086 21.1536L26.2412 21.1602C26.1156 21.1733 26.0327 21.2413 26.0202 21.3469C26.0078 21.4502 26.0684 21.5551 26.1553 21.5809L26.1617 21.5826L26.1699 21.5845C26.1811 21.587 26.1911 21.5898 26.2007 21.5933L26.2079 21.596L26.2235 21.6024L26.2243 21.6026L26.2248 21.6029L26.2397 21.6091L26.2437 21.6167L26.246 21.6185C26.2549 21.6257 26.2586 21.6308 26.2644 21.6419L26.2695 21.6518L26.2736 21.6661L26.2748 21.6707L26.2755 21.6745L26.2756 21.6757L26.2797 21.7018L26.2808 21.7107L26.2812 21.7165L26.2812 22.1181L26.1783 21.9121L26.1747 21.9151C26.1248 21.9552 26.0609 21.9882 25.9796 22.0203L25.963 22.0267L25.9201 22.0426L25.8354 22.0729L25.8159 22.0801L25.7985 22.0868C25.7848 22.0922 25.773 22.0972 25.7623 22.1021C25.7461 22.1096 25.7319 22.118 25.7195 22.1273L25.7123 22.133L25.6715 22.1667L25.571 22.1316C25.5593 22.1275 25.5485 22.1236 25.5383 22.1199L25.4408 22.0836L25.3574 22.0529C25.2491 22.0133 25.1518 21.9789 25.0571 21.9469L24.9422 21.9086L24.8583 21.8813C24.8292 21.8719 24.7985 21.862 24.7646 21.8512L24.2909 21.7015L24.1997 21.6722C24.1485 21.6557 24.1024 21.6406 24.0547 21.6247L23.9663 21.5949L23.8805 21.5654C23.6015 21.4684 23.3346 21.3646 22.8593 21.1726L22.9624 21.2314L23.039 21.2747C23.1308 21.3263 23.2313 21.3824 23.3438 21.4446L23.8552 21.7273L23.9576 21.7846L24.1868 21.9134L24.3078 21.981C24.5245 22.1013 24.6784 22.1827 24.8423 22.2627C24.9691 22.3246 25.0994 22.3841 25.2351 22.442L25.2862 22.4636L25.3646 22.4963L25.4265 22.5231L25.4683 22.5415L25.4959 22.5533C25.644 22.6152 25.7307 22.6313 25.8272 22.6061L25.8339 22.6042L25.8405 22.6019L26.0283 22.5298L25.963 22.7201C25.9555 22.7418 25.9481 22.7637 25.9408 22.7859L25.9276 22.8263L25.9169 22.8474C25.854 22.9725 25.7919 23.1014 25.7293 23.2365L25.6958 23.3093L25.6764 23.3237C25.6694 23.3289 25.6629 23.3366 25.6575 23.3471C25.6326 23.3957 25.6085 23.4441 25.5852 23.4925L25.5607 23.544L25.5354 23.5984C25.4248 23.8365 25.3245 24.0809 25.1943 24.4218L25.0228 24.8764L24.9972 24.9442C24.7866 25.4999 24.5881 26.057 24.4019 26.6152C24.0337 27.7164 23.7081 28.834 23.4259 29.9647C22.8593 32.2359 22.4813 34.5413 22.296 36.8617C22.261 37.299 22.2358 37.7342 22.2204 38.1681L22.2166 38.2807L22.2046 38.3803C22.1953 38.4589 22.1865 38.5352 22.1782 38.6098L22.1733 38.6544C22.1131 39.2068 22.0841 39.6414 22.0872 40.0575C22.0887 40.264 22.095 40.4564 22.1067 40.6416L22.1095 40.6843L22.1561 41.3657L21.9274 40.7222C21.9112 40.6767 21.8955 40.6304 21.8779 40.5764L21.8556 40.5076L21.8449 40.473C21.8353 40.4414 21.8261 40.4086 21.8146 40.3657L21.7741 40.2127L21.7641 40.1759C21.7536 40.138 21.7449 40.1088 21.7347 40.0776L21.7226 40.0413L21.7138 40.0159C21.6975 39.9705 21.6783 39.922 21.6482 39.8486L21.6017 39.7357L21.5924 39.7127V39.6944L21.5939 39.6337C21.5971 39.4888 21.5963 39.3362 21.5921 39.165L21.5882 39.0309L21.5841 38.9159C21.5836 38.904 21.5831 38.8918 21.5826 38.8792L21.5612 38.3621L21.5197 37.2139L21.5132 37.02C21.5086 36.8757 21.5048 36.7452 21.5016 36.6179L21.4987 36.5016L21.4979 36.462C21.4726 35.3227 21.4821 34.1507 21.5241 32.9317L21.5283 32.8136L21.5325 32.6973C21.6031 30.8036 21.7252 29.1918 22.0147 26.0187L22.0629 25.4936L22.135 24.7166L22.1516 24.5342C22.185 24.1628 22.2091 23.8733 22.2294 23.5896L22.2383 23.4632C22.2724 22.9619 22.293 22.4414 22.303 21.8697L22.3047 21.7669L22.2596 21.9239L22.2205 21.4016C22.2086 21.2435 22.1887 21.0973 22.1592 20.9611L22.1528 20.9321L22.1401 20.8766L22.1302 20.8398C22.1134 20.7776 22.2186 20.4915 22.2186 20.4915L22.2782 20.4772L22.3503 20.4602C23.4988 20.192 24.3934 20.104 25.2159 20.2518ZM13.8951 19.7869L13.9297 19.7965L13.9516 19.8027C14.1273 19.8532 14.3138 19.9247 14.529 20.0202L14.5906 20.0478C14.6181 20.0602 14.7771 20.1231 14.8403 20.1501L14.8511 20.1547C15.0844 20.2573 15.2236 20.3649 15.2542 20.5234L15.2561 20.5342C15.3242 20.5995 15.4031 20.6622 15.4929 20.7224L15.5156 20.7374L15.5371 20.7513C15.6336 20.8127 15.7251 20.867 15.8111 20.9138L15.8344 20.9264L15.8505 20.9349L16.0054 20.9881L16.1969 21.0545L16.2353 21.0677C16.435 21.1357 16.5527 21.1714 16.6937 21.206L16.7728 21.2254C17.0729 21.2982 17.3387 21.3549 17.5949 21.3994C17.8557 21.4445 18.1235 21.484 18.4004 21.5186L18.4939 21.53C18.5861 21.5409 18.6765 21.5491 18.8173 21.5601L19.045 21.5778L19.1989 21.5902L19.117 21.7212C18.9024 22.0644 18.7367 22.4467 18.5514 22.9874L18.5307 23.0482C18.3627 23.5451 18.2444 23.9928 18.0409 24.852C17.7326 26.1556 17.4788 27.4716 17.2802 28.7948C17.1434 29.7068 17.0324 30.6167 16.9479 31.5236L16.9359 31.6531L16.7489 31.6529C16.7243 31.3742 16.6937 31.0873 16.6569 30.7856C16.5413 29.846 16.3749 28.9234 16.1574 28.0231L16.1368 27.9388L16.1279 27.9025L16.1464 27.8699C16.1575 27.8504 16.1619 27.8284 16.1588 27.8092C16.136 27.6673 16.0943 27.5378 16.0147 27.3424L15.9335 27.1461L15.9153 27.1011L15.9139 27.0964C15.8279 26.7943 15.7361 26.4956 15.6387 26.2006L15.606 26.1024L15.6046 26.0978C15.4631 25.592 15.3241 25.1744 15.1608 24.7831C15.0329 24.4774 14.8875 24.1777 14.7255 23.8851L14.6949 23.8303L14.6921 23.825C14.4868 23.398 14.2685 22.9944 14.0366 22.6162L13.9994 22.5559L13.996 22.546C13.988 22.5232 13.9761 22.5028 13.9603 22.4856L13.9542 22.4793L13.9464 22.4717L13.9294 22.445L13.7937 22.411C13.4117 22.3154 13.0142 22.3071 12.5705 22.3732L12.5408 22.3778L12.5111 22.3825C12.1853 22.4355 11.9054 22.5077 11.397 22.6622L10.8968 22.8154L10.8257 22.8366L10.7585 22.8565C10.5147 22.9275 10.3012 22.9811 10.0939 23.0214L10.0657 23.0268L9.98898 23.0412L9.95103 23.0481C9.72265 23.0888 9.56273 23.0998 9.41153 23.0709L9.3978 23.0681L9.38099 23.0644L9.36598 23.0606C9.18947 23.0135 9.12424 22.8856 9.20549 22.7074C9.27268 22.5598 9.41846 22.4551 9.6327 22.3634L9.66377 22.3504L9.67149 22.3472L9.67964 22.3455C9.73064 22.3345 9.77948 22.3151 9.82597 22.2868C9.91971 22.2299 9.9589 22.1123 9.91644 22.0152C9.87264 21.9157 9.75281 21.8502 9.66939 21.8838L9.60643 21.9088L9.53754 21.9359L9.49509 21.8752C9.49272 21.8719 9.49048 21.8683 9.4883 21.8645L9.48507 21.8585L9.48301 21.8542L9.47781 21.8497L9.47264 21.8445C9.4597 21.8304 9.45276 21.8152 9.44929 21.7995C9.44797 21.7936 9.44728 21.7882 9.44697 21.7829L9.44677 21.7775C9.44658 21.7664 9.4474 21.7575 9.45084 21.7264C9.466 21.5912 9.55443 21.482 9.70757 21.3565L9.73229 21.3365L9.73967 21.3307C10.0327 21.0984 10.4044 20.9788 10.7202 21.0522C10.7356 21.0557 10.7508 21.0596 10.7662 21.0641L10.7818 21.0689L10.8002 21.0751C10.8973 21.1087 10.9732 21.0674 11.0086 20.9749C11.0442 20.8818 11.0202 20.7791 10.9449 20.7236L10.9381 20.7188L10.9151 20.7035L10.8882 20.685L10.8585 20.664L10.8449 20.6542L10.8252 20.6395C10.6739 20.5251 10.5909 20.4183 10.6152 20.292L10.6169 20.2839L10.619 20.2744L10.6231 20.2656L10.6358 20.2383L10.649 20.2112L10.6527 20.2037L10.6577 20.197C10.7097 20.1269 10.7969 20.0736 10.9218 20.022L10.9364 20.0161C10.9886 19.9951 11.1343 19.9439 11.1561 19.9355L11.1577 19.9349C11.5892 19.7598 12.058 19.6588 12.5294 19.6381C12.9922 19.618 13.4559 19.668 13.8951 19.7869Z" fill="white"/>
<path d="M21.9771 24.6123L21.9715 24.6549L21.9661 24.6974C21.8128 25.9186 21.6835 27.4553 21.5708 28.6805C21.3461 31.1231 21.2084 33.5757 21.2275 36.0292C21.2325 36.6637 21.2554 37.2962 21.2847 37.9297L21.291 38.0654C21.3239 38.7558 21.3743 39.4854 21.5665 40.1514C21.5877 40.2249 21.635 40.2672 21.6895 40.2826C21.6917 40.3602 21.6962 40.4381 21.7014 40.5152L21.7054 40.5728C21.7277 40.8844 21.7912 41.5316 21.927 41.814C22.0594 42.0895 22.2801 42.3081 22.5615 42.4284C22.6403 42.462 22.7206 42.4861 22.8018 42.5029C21.0933 42.5379 18.8492 42.4827 17.1374 42.4414C17.3153 42.4134 17.4162 42.2726 17.4397 42.0933C17.4866 41.7332 17.3984 41.3609 17.1987 41.0581C17.178 41.0268 17.1536 40.999 17.1264 40.9752L17.1312 40.776C17.1345 40.6265 17.1361 40.477 17.1276 40.3277C17.1095 39.9983 17.0823 39.6689 17.0585 39.3398C17.0103 38.6807 16.973 38.0203 16.9583 37.3597C16.9283 36.0383 16.9502 34.7158 17.025 33.3963C17.1749 30.7602 17.5239 27.8279 18.0951 25.2495C18.1367 25.0616 18.1787 24.8737 18.2222 24.6862C18.6663 24.9169 19.4569 24.9999 19.9424 25.003C20.5508 25.0068 21.4275 24.8668 21.9771 24.6123Z" fill="#E86BBB"/>
<path fill-rule="evenodd" clip-rule="evenodd" d="M27.0987 41.4475C26.8871 39.7475 26.7399 37.6953 26.7382 35.9811C26.738 35.8196 26.9884 35.8199 26.9886 35.9811C26.9903 37.6953 27.1375 39.7475 27.3491 41.4475C27.369 41.6073 27.1184 41.6053 27.0987 41.4475ZM25.5307 30.9067C25.2036 31.1069 24.7741 30.9681 24.4504 30.8355C24.303 30.7752 24.3679 30.533 24.5169 30.594C24.7633 30.6949 25.1233 30.8433 25.3833 30.7027C25.6428 30.5623 25.6545 30.1761 25.6565 29.9213C25.6577 29.7599 25.9081 29.76 25.9069 29.9213C25.9042 30.268 25.8579 30.7065 25.5307 30.9067ZM24.9252 38.6862C24.5953 38.517 24.3137 38.2857 24.0871 37.9921C23.9886 37.8644 24.2062 37.7398 24.3033 37.8656C24.5027 38.1241 24.7626 38.3218 25.0516 38.47C25.1952 38.5436 25.0684 38.7597 24.9252 38.6862ZM23.3391 29.9441C22.7729 32.2139 22.393 34.5243 22.2067 36.8564C22.1689 37.3298 22.1423 37.8026 22.1272 38.2757C22.1122 38.3991 22.0978 38.5227 22.0844 38.6464C22.0334 39.1142 21.9942 39.5895 21.9977 40.0604C21.9992 40.2718 22.0058 40.4822 22.0202 40.6929C21.9952 40.6224 21.972 40.5517 21.9495 40.4813C21.9035 40.3369 21.8731 40.1872 21.8262 40.0438C21.7873 39.9252 21.7373 39.8115 21.6906 39.6966V39.6963C21.7047 39.2257 21.6728 38.7507 21.6565 38.2823C21.6355 37.6755 21.6096 37.0693 21.5961 36.4622C21.5692 35.2479 21.5826 34.0327 21.6265 32.8191C21.7144 30.3737 21.9366 27.9399 22.1607 25.5045C22.223 24.8272 22.29 24.1503 22.3363 23.4718C22.383 22.7861 22.4017 22.0991 22.4071 21.4115C22.4074 21.362 22.3323 21.3489 22.3185 21.3968C22.3063 21.2337 22.2847 21.0708 22.2487 20.9133C22.7886 21.2578 23.3579 21.5555 23.916 21.8687C24.2099 22.0337 24.5025 22.2015 24.8055 22.3493C24.972 22.4307 25.1401 22.5055 25.3116 22.5763C25.4894 22.6496 25.6593 22.7504 25.8549 22.6993C25.8718 22.695 25.8878 22.6887 25.9031 22.6806C25.8809 22.7228 25.8587 22.7648 25.8374 22.8074C25.7636 22.9542 25.6931 23.1017 25.6249 23.2504C25.6067 23.2639 25.5908 23.2824 25.5783 23.3065C25.5451 23.3713 25.5129 23.4367 25.4816 23.5031C25.4753 23.4971 25.469 23.4912 25.4628 23.4852C25.4365 23.4605 25.4002 23.4977 25.4233 23.5247C25.434 23.5369 25.4443 23.5488 25.4546 23.561C25.2506 24.0003 25.0847 24.4622 24.9138 24.9131C24.7038 25.4672 24.5047 26.0255 24.3172 26.5876C23.9476 27.6932 23.6215 28.8132 23.3391 29.9441ZM15.2443 38.1813C14.2008 38.7404 13.2256 39.4085 12.2877 40.1291C12.1599 40.2273 12.0353 40.0096 12.1613 39.9128C13.0992 39.1922 14.0744 38.5241 15.118 37.965C15.2601 37.8888 15.3864 38.1051 15.2443 38.1813ZM11.7197 31.6336C11.6655 31.6295 11.6128 31.5981 11.599 31.5416C11.5145 31.1954 11.4483 30.8182 11.5269 30.4651C11.562 30.3075 11.8033 30.3746 11.7683 30.5316C11.7063 30.8101 11.7556 31.1111 11.82 31.3888C12.7301 31.4287 13.6281 31.102 14.4988 30.8826C14.6554 30.8431 14.7216 31.0848 14.5654 31.1241C13.6417 31.3568 12.6863 31.7051 11.7197 31.6336ZM29.8387 40.8692C29.8396 40.867 29.8406 40.8645 29.8412 40.8623C29.8947 40.7001 29.896 40.5116 29.9019 40.3416C29.9122 40.0391 29.9013 39.7361 29.874 39.4345C29.8165 38.7998 29.6925 38.1755 29.5445 37.5565C29.2512 36.3303 28.8368 35.1374 28.6118 33.8946C28.1701 31.4552 28.275 28.9152 27.4083 26.5622C27.0481 25.584 26.5335 24.6438 25.8343 23.8666C25.8853 23.7113 25.9351 23.5557 25.9836 23.3995C26.0684 23.1277 26.1551 22.8471 26.2074 22.5672C26.2086 22.5597 26.2102 22.5519 26.2111 22.544C26.5088 22.4157 26.7795 22.1736 26.8258 21.8517C26.8459 21.7127 26.8227 21.5587 26.7626 21.4243C26.8853 21.311 26.9642 21.1638 26.9454 20.9666C26.9103 20.5952 26.4769 20.4997 26.1751 20.4271C25.8321 20.3447 25.4762 20.3219 25.1254 20.3607C24.9482 20.3801 24.7729 20.4127 24.6017 20.4615C24.4531 20.5038 24.2913 20.5473 24.172 20.6494C24.1579 20.6613 24.1695 20.6845 24.1864 20.6845C24.4277 20.6836 24.6681 20.5949 24.9119 20.5833C25.1673 20.5714 25.4221 20.5924 25.6725 20.645C25.9172 20.6964 26.1614 20.7715 26.3839 20.8877C26.4465 20.9206 26.5382 20.9428 26.4647 21.0092C26.4108 21.0577 26.305 21.0618 26.2359 21.069C26.0828 21.0849 25.9507 21.1745 25.9313 21.3379C25.9141 21.4823 26.0002 21.6457 26.1535 21.6783C26.162 21.6802 26.1698 21.6824 26.1767 21.6852C26.1808 21.693 26.187 21.6996 26.1864 21.6889C26.1864 21.6889 26.1867 21.6886 26.1867 21.6889C26.1905 21.7118 26.1917 21.7208 26.1917 21.7224C26.1908 21.7206 26.1892 21.7127 26.188 21.7065C26.1889 21.7121 26.1908 21.7212 26.1933 21.7346C26.1898 21.7199 26.1927 21.756 26.1898 21.7616C26.1085 21.9119 25.8678 21.9542 25.7276 22.0189C25.7003 22.0314 25.6769 22.0462 25.6568 22.0628C25.6236 22.0512 25.5898 22.0396 25.5557 22.0268C25.3877 21.9638 25.2199 21.9028 25.0496 21.8461C24.721 21.7362 24.3883 21.6382 24.0596 21.528C23.4374 21.3195 22.8359 21.0561 22.2252 20.8175C22.2058 20.7455 22.1833 20.6751 22.1567 20.6065C22.1514 20.5921 22.1257 20.5874 22.1229 20.6065C22.1135 20.6672 22.106 20.7283 22.0997 20.7897C22.0972 20.7953 22.0966 20.8016 22.0978 20.8075C22.0625 21.1645 22.0718 21.5299 22.0537 21.8865C22.0312 22.3311 21.9683 22.7726 21.9504 23.2175V23.2257C21.8847 23.6055 21.8252 23.9865 21.7714 24.3688C21.711 24.3501 21.6418 24.3538 21.5711 24.3917C21.0709 24.6588 20.5088 24.8075 19.9432 24.8407C19.6584 24.8573 19.3764 24.8479 19.0931 24.815C18.9069 24.7937 18.7235 24.7549 18.5398 24.718C18.6365 24.3125 18.7404 23.9089 18.8578 23.5094C18.9545 23.1809 19.0621 22.854 19.1952 22.5381C19.3294 22.219 19.4966 21.9144 19.6521 21.605C19.7238 21.4619 19.6393 21.2431 19.4531 21.2581C19.398 21.2625 19.3429 21.2659 19.2875 21.2684C18.7485 21.2941 18.188 21.234 17.6559 21.1804C17.0503 21.1191 16.4365 21.0555 15.8362 20.9556C15.7917 20.9484 15.7736 21.0088 15.8174 21.0236C16.1022 21.1194 16.3836 21.2277 16.6756 21.2994C16.9761 21.3736 17.2784 21.4413 17.5833 21.4942C17.8753 21.5446 18.1686 21.5869 18.4628 21.6225C18.6546 21.646 18.8487 21.6579 19.0418 21.6736C18.7817 22.0894 18.6024 22.5584 18.4462 23.0202C18.2456 23.6133 18.0981 24.2236 17.9539 24.8326C17.6452 26.1379 17.3908 27.4564 17.1917 28.7831C17.049 29.7343 16.9335 30.6893 16.8468 31.6468C16.8211 31.3559 16.7898 31.066 16.7545 30.7764C16.6362 29.8148 16.4634 28.8595 16.2324 27.9186C16.2531 27.8823 16.2628 27.8388 16.2559 27.7965C16.2143 27.5379 16.1047 27.3127 16.0086 27.0729C15.9132 26.7379 15.8102 26.405 15.6994 26.0747C15.5736 25.6247 15.4324 25.1817 15.2518 24.749C15.1138 24.4193 14.9564 24.098 14.7811 23.7865C14.5717 23.3509 14.3416 22.9248 14.0891 22.5174C14.0759 22.4795 14.0546 22.4442 14.0243 22.4144C13.9783 22.3418 13.9316 22.2701 13.8841 22.199C13.8531 22.1526 13.7642 22.1808 13.7877 22.2397C13.7986 22.2673 13.8096 22.2948 13.8208 22.3221C12.792 22.0647 11.7833 22.4582 10.8033 22.7488C10.556 22.8224 10.3063 22.8888 10.0528 22.9367C9.85338 22.9742 9.62115 23.02 9.4224 22.9786C9.28938 22.9511 9.23054 22.8906 9.29533 22.7485C9.3623 22.6014 9.54509 22.5046 9.70378 22.4395C9.76356 22.4266 9.8224 22.4038 9.87905 22.3693C10.0111 22.2892 10.069 22.122 10.0067 21.9795C9.9501 21.8508 9.78484 21.74 9.63867 21.7988C9.6177 21.8073 9.59705 21.8154 9.57639 21.8236C9.5742 21.8204 9.57169 21.8161 9.5695 21.8098C9.54853 21.7525 9.53946 21.8211 9.54853 21.739C9.56356 21.605 9.70534 21.4832 9.80237 21.4065C10.0437 21.2152 10.3924 21.0737 10.7038 21.146C10.7273 21.1513 10.7507 21.1579 10.7739 21.166C11.0947 21.2772 11.2509 20.815 10.9945 20.6428C10.9789 20.6325 10.9592 20.6193 10.9376 20.604C10.8308 20.5298 10.6747 20.4049 10.7172 20.2922C10.7698 20.1522 11.08 20.0717 11.1974 20.0241C11.6218 19.8519 12.0803 19.7542 12.5379 19.7342C12.9983 19.7141 13.4647 19.7649 13.9088 19.8891C14.1266 19.9499 14.3504 20.0423 14.5564 20.1356C14.7413 20.2192 15.1438 20.3297 15.1695 20.5639C15.1751 20.6156 15.2487 20.6331 15.2647 20.5768C15.3908 20.1271 14.9013 19.8369 14.5783 19.6512C14.3664 19.5291 14.126 19.453 13.8934 19.3782C13.6706 19.3061 13.4431 19.2532 13.2108 19.2213C12.7122 19.153 12.2077 19.1618 11.7132 19.2576C11.2628 19.345 10.7617 19.494 10.3977 19.784C10.1742 19.9618 10.0731 20.2449 10.1629 20.521C10.1661 20.5301 10.1692 20.5395 10.1723 20.5486C9.77013 20.6206 9.38953 20.851 9.13508 21.1723C8.926 21.4362 8.81645 21.8035 9.00362 22.1107C8.9958 22.1163 8.98797 22.1223 8.98046 22.1285C8.80205 22.2713 8.66935 22.4786 8.62991 22.7053C8.5526 23.1524 8.82271 23.4652 9.20049 23.5848C9.10691 23.6763 9.01708 23.7733 8.92913 23.8704C8.73226 24.088 8.54415 24.325 8.37827 24.5667C8.04212 25.0564 7.75479 25.5897 7.50346 26.127C6.98672 27.2304 6.6609 28.418 6.48813 29.6222C6.40112 30.229 6.3429 30.839 6.32068 31.4514C6.29501 32.1497 6.32099 32.8482 6.30753 33.5468C6.29439 34.2181 6.22021 34.8731 6.07029 35.5275C5.92662 36.1534 5.73508 36.7668 5.56168 37.3846C5.36606 38.0803 5.15072 38.7729 5.04744 39.4903C4.99517 39.8553 4.95761 40.2214 4.98672 40.5905C5.01614 40.9666 5.1526 41.2881 5.27842 41.6379C5.31035 41.7272 5.40769 41.7631 5.48562 41.744C5.50315 41.9116 5.56637 42.075 5.66058 42.2165C5.86058 42.5165 6.16857 42.7078 6.5213 42.7773C6.9188 42.8553 7.3285 42.8368 7.73101 42.8224C8.16763 42.8067 8.60456 42.7926 9.04118 42.7745C9.4983 42.7556 9.95539 42.7362 10.4125 42.7167C10.3974 42.248 10.3794 41.7794 10.359 41.311C10.2488 38.7784 10.0752 36.2443 10.0706 33.7084C10.0618 33.7032 10.0531 33.6971 10.0447 33.689C9.83896 33.49 9.58631 33.3593 9.34894 33.2036C9.21461 33.1154 9.34018 32.8986 9.47533 32.9873C9.67545 33.1186 9.884 33.2353 10.0715 33.3824C10.0726 33.1184 10.0749 32.8545 10.0802 32.5904C10.0834 32.4292 10.3338 32.4292 10.3306 32.5904C10.3149 33.3861 10.3201 34.1819 10.3381 34.9775C10.3964 37.5556 10.5795 40.1289 10.6628 42.706C11.8898 42.6535 13.1167 42.6007 14.3438 42.5559C15.342 42.5196 16.3401 42.4833 17.3382 42.447C17.5476 42.4395 17.6653 42.2898 17.6909 42.0941C17.7379 41.734 17.6496 41.3617 17.4499 41.0589C17.4293 41.0276 17.4049 40.9998 17.3776 40.976C17.3823 40.7602 17.3911 40.5442 17.3789 40.3285C17.3607 39.9991 17.3335 39.6697 17.3097 39.3406C17.2615 38.6815 17.2243 38.0211 17.2096 37.3605C17.1795 36.0391 17.2014 34.7166 17.2762 33.3971C17.4262 30.761 17.7751 28.1418 18.3463 25.5634C18.388 25.3755 18.4299 25.1876 18.4734 25.0001C18.9175 25.2308 19.4578 25.3138 19.9432 25.317C20.5517 25.3207 21.1467 25.1807 21.6963 24.9262C21.6925 24.9547 21.6888 24.9829 21.6853 25.0114C21.5319 26.2325 21.4027 27.4561 21.29 28.6813C21.0653 31.1239 20.9276 33.5765 20.9467 36.03C20.952 36.7098 20.978 37.3874 21.0102 38.0662C21.0431 38.7566 21.0934 39.4862 21.2856 40.1522C21.3069 40.2257 21.3542 40.268 21.4086 40.2834C21.4114 40.3804 21.4177 40.4778 21.4246 40.5736C21.4468 40.8852 21.5103 41.5324 21.6462 41.8148C21.7786 42.0903 21.9992 42.3089 22.2806 42.4292C22.638 42.5816 23.0246 42.5378 23.4021 42.5134C25.0434 42.4063 26.6834 42.2629 28.3238 42.137C28.5523 42.1195 28.7808 42.1022 29.0089 42.0844C29.2121 42.0687 29.4221 42.0549 29.6024 41.9494C29.8074 41.8295 29.9673 41.2406 29.8966 40.997C29.8837 40.9525 29.8643 40.9087 29.8387 40.8692Z" fill="black"/>
<path fill-rule="evenodd" clip-rule="evenodd" d="M24.7168 14.5032C24.7044 13.8017 24.6907 13.0863 24.5867 12.3917C24.485 11.7126 24.2052 11.0988 23.7245 10.6057C22.7034 9.55821 21.2233 9.30236 19.8455 9.06791L17.49 8.66703C16.7713 8.54476 16.0047 8.34932 15.2786 8.52272C14.9208 8.60816 14.617 8.80668 14.3393 9.04154C14.0716 9.26792 13.7838 9.51102 13.6025 9.81559C13.4208 10.1206 13.3583 10.4771 13.2992 10.8221C13.2326 11.211 13.1809 11.603 13.1441 11.9958C13.0704 12.783 13.0604 13.5761 13.1138 14.3649C13.1397 14.7475 13.1809 15.129 13.2335 15.5088C13.2596 15.6971 13.289 15.885 13.3223 16.0722C13.3321 16.1274 13.3396 16.1885 13.3497 16.2502C13.2754 16.4621 13.2331 16.6815 13.2365 16.9C13.2466 17.5435 13.7884 17.9486 14.3346 18.1661C14.6513 18.2922 14.9824 18.3779 15.2935 18.5188C15.6209 18.667 15.8437 18.9073 16.0675 19.1813C16.4944 19.7041 16.9761 20.1738 17.5261 20.5658C18.6923 21.3968 20.1694 21.7899 21.5843 21.4915C21.9238 21.42 22.2663 21.3088 22.5715 21.1413C22.8937 20.9645 23.136 20.7083 23.3394 20.4054C23.7172 19.843 23.9881 19.2097 24.1931 18.5653C24.4021 17.908 24.5505 17.2494 24.6314 16.564C24.7121 15.8808 24.7291 15.1906 24.7168 14.5032Z" fill="#D08B5B"/>
<path fill-rule="evenodd" clip-rule="evenodd" d="M17.2001 6.22315C18.1749 6.08873 19.5203 6.52562 20.0058 7.40652C22.3235 6.85877 25.2466 6.84083 27.1569 8.66429C29.1501 10.8273 26.6465 13.6793 24.9864 14.3223C25.1073 14.9112 24.9188 18.6837 23.5853 20.3665C22.527 21.7922 20.0625 22.4502 18.9221 20.7473L18.9132 20.7332C18.791 20.5365 18.8963 20.5429 19.0217 20.6892C20.1384 21.6736 21.6567 21.6905 22.8267 20.6515C25.0195 18.7525 24.7934 14.0962 23.75 11.4025C20.7788 11.0753 17.5976 11.9781 15.5455 14.2203L15.6842 15.0578C15.7079 15.2005 15.7347 15.343 15.7552 15.4862C15.7683 15.578 15.7698 15.6692 15.7064 15.7435C15.4971 15.9886 15.1442 15.6202 14.8539 15.4737C14.7682 15.4616 14.6823 15.4569 14.5981 15.4629C13.2033 15.643 13.4782 18.3555 15.0111 17.88C15.1399 17.7996 15.2506 17.8241 15.3006 17.9408C15.666 18.2764 15.9069 18.8748 16.514 19.4512C16.7282 19.6674 16.9231 19.8483 17.164 20.0217C17.3055 20.1652 17.7325 20.3114 17.5972 20.557C17.3412 21.1156 15.8317 19.3608 15.5648 18.8755C14.7286 19.2065 13.8019 19.0941 12.9354 19.0132C8.36381 18.7749 8.9741 13.9439 12.7213 10.8938C13.4267 10.3733 14.2049 9.94858 15.0138 9.62179C15.1243 9.57717 15.076 9.39538 14.964 9.44062C14.4288 9.65689 13.907 9.9143 13.4095 10.2122L13.4088 10.0341C13.4081 9.73411 13.4128 9.42178 13.4647 9.14767C13.4907 8.95774 13.5344 8.75488 13.6017 8.60227C13.6849 8.13438 14.9877 6.52837 17.2001 6.22315ZM14.5371 16.0856C14.6077 16.0184 14.7395 16.0986 14.8023 16.0965C14.963 16.1186 15.1157 16.1866 15.2347 16.2706C15.3134 16.3148 15.3685 16.3562 15.4145 16.3943L15.4157 16.394C15.4154 16.394 15.415 16.3943 15.4146 16.3944L15.4189 16.3974C15.486 16.4451 15.7313 16.7141 15.5763 16.6417C15.5648 16.6267 15.5529 16.6122 15.541 16.598C15.5397 16.6 15.5379 16.6019 15.5358 16.6037L15.5445 16.6167C15.6763 16.8154 15.4488 16.606 15.4138 16.5504C15.4121 16.5518 15.4102 16.5527 15.4084 16.5537L15.454 16.6093C15.4604 16.6172 15.4654 16.6235 15.4695 16.6288L15.4791 16.6381C15.6315 16.7882 15.6362 16.9233 15.4592 16.7014C15.4662 16.7118 15.4718 16.7229 15.4726 16.7328L15.4831 16.7462C15.622 16.9257 15.509 16.8619 15.44 16.7853L15.4342 16.7787L15.4354 16.7805C15.4996 16.8797 15.3721 16.8101 15.3496 16.757L15.3487 16.7546C15.3241 16.7345 15.309 16.712 15.3038 16.7063L15.3029 16.7053C15.1834 16.5826 15.0102 16.4787 14.863 16.4315C14.8417 16.4275 14.8201 16.4242 14.7983 16.4219C14.7098 16.4021 14.6204 16.3886 14.53 16.3812C14.5189 16.3799 14.5077 16.3718 14.4993 16.3613C14.3627 16.3566 14.4048 16.3005 14.4616 16.29L14.4625 16.2899L14.4513 16.2889C14.3636 16.2803 14.3037 16.2488 14.3924 16.2294L14.4036 16.2272C14.4022 16.225 14.401 16.2229 14.3998 16.2207C14.3239 16.2123 14.3734 16.1383 14.4156 16.1562C14.3979 16.0981 14.4789 16.1271 14.4891 16.1185C14.4968 16.1099 14.5064 16.1023 14.5119 16.1019C14.5363 16.0846 14.5245 16.0862 14.5371 16.0856ZM15.0019 15.1442L14.9841 15.1547C14.9697 15.1631 14.9549 15.1687 14.94 15.172C14.961 15.1809 14.9817 15.1906 15.0023 15.2009C15.0019 15.1883 15.0017 15.1757 15.0017 15.1631L15.0019 15.1442Z" fill="black"/>
<path fill-rule="evenodd" clip-rule="evenodd" d="M21.2085 19.0034C20.9981 18.9175 20.8103 18.7743 20.6731 18.5913C20.6254 18.5277 20.613 18.4606 20.623 18.3991C20.6343 18.33 20.6751 18.2674 20.7308 18.2254C20.7867 18.1833 20.8566 18.1625 20.9242 18.1731C20.9829 18.1823 21.0414 18.2145 21.0876 18.2812L21.0973 18.2946C21.1789 18.405 21.2852 18.4956 21.4064 18.554C21.5232 18.6103 21.6538 18.6366 21.7889 18.6213C22.0463 18.5922 22.2237 18.4529 22.4123 18.2638C22.4357 18.24 22.459 18.2153 22.4825 18.1903C22.4974 18.1676 22.518 18.153 22.5408 18.1454C22.5662 18.1369 22.595 18.1374 22.6213 18.1466C22.6466 18.1554 22.6693 18.1722 22.6845 18.1946C22.699 18.2158 22.7072 18.242 22.7045 18.2722C22.6873 18.4682 22.5849 18.6431 22.4394 18.7804C22.2778 18.933 22.0636 19.0385 21.862 19.0755C21.6398 19.1163 21.4134 19.087 21.2085 19.0034ZM21.9668 15.98C22.2031 16.1237 22.5632 16.4588 22.309 16.8151C22.0097 17.1293 21.5788 16.7691 21.3664 16.6062C21.1695 16.4799 20.9483 16.8047 21.131 16.9521C22.6654 18.0885 23.2881 16.0176 22.0863 15.811C21.954 15.7883 21.9048 15.9355 21.9668 15.98ZM19.2171 14.658C19.2432 14.3338 19.7369 14.2601 19.786 14.581C19.83 14.8684 19.7782 15.1325 19.6488 15.3913C19.5251 15.6385 19.2143 15.5232 19.1908 15.298C19.1593 14.9963 19.2009 14.8597 19.2171 14.658ZM22.975 14.5145C23.0438 14.4243 23.1432 14.3627 23.2622 14.3975C23.6342 14.5063 23.5246 15.0346 23.3939 15.2917C23.323 15.4314 23.0935 15.4668 22.9898 15.3438C22.8208 15.1433 22.7399 14.7429 22.9547 14.5454C22.9605 14.5352 22.967 14.5249 22.975 14.5145ZM19.6435 13.2391L19.7023 13.2288C19.8841 13.1974 20.1101 13.1672 20.2387 13.3134C20.3069 13.3909 20.3304 13.535 20.2387 13.6092C20.0774 13.7398 19.8992 13.6892 19.7059 13.7002C19.5467 13.7094 19.3936 13.7357 19.2402 13.7796C18.9037 13.8758 18.6295 14.0515 18.3421 14.2443C18.3044 14.2696 18.2659 14.2214 18.2839 14.1861C18.4498 13.861 18.7713 13.5939 19.0934 13.4312C19.2653 13.3443 19.4534 13.2722 19.6435 13.2391ZM22.6359 13.0935L22.6809 13.1027C23.1703 13.2051 23.8062 13.4095 24.0379 13.8904C24.0468 13.9584 24.0374 13.973 24.0298 13.9825L24.0273 13.9857C24.0211 13.9938 24.0161 14.005 23.9866 14.0143C23.9784 14.0123 23.9702 14.0103 23.9618 14.0081C23.8556 13.9802 23.7715 13.9419 23.6902 13.902L23.6019 13.8586C23.4996 13.8083 23.3963 13.76 23.2869 13.7242C23.0533 13.648 22.8131 13.5943 22.5691 13.5657C22.5162 13.5595 22.4653 13.5416 22.4252 13.511C22.387 13.482 22.3579 13.4418 22.3446 13.3883C22.3274 13.3192 22.3324 13.2668 22.3695 13.2044C22.3973 13.1575 22.4373 13.1251 22.4831 13.1064C22.5298 13.0874 22.583 13.0829 22.6359 13.0935Z" fill="black"/>
<path fill-rule="evenodd" clip-rule="evenodd" d="M25.0479 16.6258C24.9442 16.4865 24.7578 16.3036 24.5692 16.3135C24.545 16.3147 24.536 16.3409 24.5505 16.3586C24.6122 16.4339 24.6964 16.4875 24.7583 16.5645C24.8314 16.6555 24.8842 16.7653 24.9185 16.8764C24.9684 17.0377 24.9822 17.2203 24.9377 17.3844C24.8594 17.6736 24.6116 17.8856 24.3412 17.9938C24.0736 18.101 23.7516 18.1376 23.4985 17.9806C23.125 17.7488 22.8081 17.4147 22.3386 17.4081C22.2288 17.4066 22.1514 17.4569 22.1053 17.5287C22.0589 17.4595 21.9825 17.4105 21.8754 17.4092C21.3491 17.4033 20.9562 17.7658 20.5144 17.9918C20.2159 18.1445 19.8296 18.0971 19.5215 17.9962C19.231 17.901 18.9156 17.71 18.806 17.4082C18.7455 17.2416 18.759 17.047 18.8212 16.8827C18.862 16.7747 18.9251 16.6704 19.0031 16.5855C19.084 16.4974 19.1904 16.4421 19.2733 16.3586C19.2902 16.3415 19.2768 16.315 19.2546 16.3135C18.9026 16.2896 18.5847 16.71 18.5183 17.0151C18.4528 17.3155 18.5504 17.6151 18.748 17.8443C19.1496 18.3103 19.8933 18.4641 20.4722 18.3271C20.9407 18.2163 21.3857 17.961 21.8754 17.9977C21.9828 18.0057 22.0599 17.9609 22.1064 17.8931C22.1529 17.9629 22.2305 18.0086 22.3386 17.9981C22.7951 17.9539 23.2025 18.2773 23.6456 18.3562C23.9983 18.4191 24.3794 18.3343 24.6817 18.1442C24.9976 17.9455 25.22 17.6267 25.2347 17.2466C25.2431 17.028 25.179 16.8018 25.0479 16.6258Z" fill="black"/>
</svg>
