<svg width="36" height="48" viewBox="0 0 36 48" fill="none" xmlns="http://www.w3.org/2000/svg">
<path fill-rule="evenodd" clip-rule="evenodd" d="M18.9013 18.7928C19.8131 18.8379 21.2329 19.2289 21.3038 19.4788C21.4147 19.8691 21.1765 21.3322 21.5748 22.1202C21.7447 22.4562 22.3895 22.4261 22.6393 22.5355C23.4753 22.9015 25.9502 23.5958 26.4604 24.47C26.6649 24.8202 27.9212 29.1659 28.5888 31.3829C28.664 31.6329 28.749 31.864 28.8414 32.0781L28.8754 31.9118C29.1476 30.5718 29.2837 29.7606 29.2837 29.4782C29.2837 29.037 28.9318 27.1752 29.2837 26.7018C29.632 26.233 30.4715 25.8498 30.8492 25.8422L30.8605 25.8421C31.1084 25.8421 31.3236 25.7645 31.506 25.6094L31.7734 25.4749C33.1336 24.7921 33.9283 24.4176 34.1574 24.3513C34.5232 24.2455 35.1456 24.4708 34.8344 24.8091C34.6269 25.0347 34.1056 25.4336 33.2703 26.006L32.9554 26.2563L32.9935 26.2762C33.4005 26.4905 33.6398 26.671 33.7114 26.8174C33.7852 26.9684 33.7498 27.147 33.6051 27.3532L33.6271 27.3746C33.81 27.5543 33.9015 27.6747 33.9015 27.7361V28.0358C34.0835 28.3024 34.129 28.5248 34.038 28.7029C33.947 28.881 33.8027 29.0353 33.6051 29.1659C33.4595 29.549 33.2862 29.8217 33.085 29.9839C32.8838 30.1461 32.5362 30.2812 32.042 30.3891L31.5948 31.4587L31.2324 32.9615L31.0499 34.6383L31.1029 34.6767C31.3486 34.8557 31.506 34.9885 31.506 35.1256C31.506 35.3393 30.5145 40.364 28.972 40.5889C28.6384 40.6376 26.9083 40.399 26.3403 39.9367L26.3486 39.9867C26.4823 40.7943 26.454 41.2137 26.2638 41.2449C23.9262 41.6282 17.2872 41.7467 6.34673 41.6002C6.28164 35.7913 6.57597 31.9227 7.22971 29.9943C8.9017 25.0624 10.7451 23.3779 11.3901 23.2336C11.955 23.1072 13.9139 22.3273 14.4616 22.1202C14.819 21.9851 14.8956 21.58 15.3029 21.58L15.3359 21.5801C15.7298 21.5841 16.0791 21.6546 16.2754 21.4519C16.7905 20.92 16.6465 20.1838 16.8602 19.4788C16.9779 19.0904 17.7824 18.7376 18.9013 18.7928Z" fill="#D08B5B"/>
<path d="M15.3029 21.5791L15.3359 21.5793C15.4332 21.5802 15.5279 21.5853 15.6181 21.5893L15.4279 22.2376L15.4238 22.3057C15.3003 24.5411 16.3945 25.6112 18.7065 25.516C21.0185 25.4209 22.1685 24.6893 22.1565 23.3214L22.1558 23.2797L22.1558 22.4285L22.1922 22.4355C22.3677 22.4683 22.5368 22.4897 22.6393 22.5346C23.4753 22.9007 25.9502 23.5949 26.4604 24.4691C26.6649 24.8194 27.9212 29.165 28.5888 31.3821C28.6131 31.4631 28.6386 31.5421 28.6649 31.6193L28.6649 32.0574L28.6577 32.084C28.4237 32.9594 28.7352 33.6752 29.5922 34.2312C30.1997 34.6254 30.8235 34.8812 31.4638 34.9988C31.4913 35.0413 31.506 35.0828 31.506 35.1248C31.506 35.3384 30.5145 40.3632 28.972 40.5881C28.6384 40.6367 26.9083 40.3982 26.3403 39.9359L26.3486 39.9858L26.3565 40.0338C26.4811 40.81 26.4502 41.2134 26.2638 41.244C23.9262 41.6274 17.2872 41.7458 6.34673 41.5994C6.28164 35.7905 6.57597 31.9218 7.22971 29.9935C8.9017 25.0615 10.7451 23.377 11.3901 23.2328C11.955 23.1064 13.9139 22.3264 14.4616 22.1194C14.819 21.9843 14.8956 21.5791 15.3029 21.5791Z" fill="#BA98DE"/>
<path fill-rule="evenodd" clip-rule="evenodd" d="M16.3959 20.185C16.4494 20.0789 16.5915 20.0927 16.6852 20.1408C16.9663 20.3464 16.6722 20.745 16.5944 20.9959C16.3943 21.4826 16.0469 21.9582 15.5672 22.1857C15.6069 22.6695 15.652 23.1523 15.6686 23.6376C16.2819 24.3986 17.3159 24.6764 18.2338 24.89C19.6755 25.2888 21.3025 24.4717 21.7891 23.0461C21.2353 22.7313 21.0561 21.9072 21.2213 21.3322C21.2357 21.2918 21.2983 21.2739 21.3205 21.319C21.4722 21.631 21.452 22.0117 21.6243 22.32C23.2791 22.4784 25.4146 23.103 26.4986 24.4417C26.979 25.1114 27.1693 25.9825 27.4059 26.7587C27.9108 28.359 28.313 29.9916 28.8082 31.5935L28.8665 31.2904C29.0265 30.4554 29.1718 29.6092 29.0638 28.7601L29.0619 28.7195C29.0266 28.0438 28.8152 26.7883 29.339 26.3322C29.8128 25.97 30.4991 25.679 31.0936 25.8459C32.1516 25.3749 33.0648 24.5818 34.1916 24.2729C34.5384 24.2015 35.0373 24.2861 34.9553 24.7567C34.7281 25.5799 33.7768 25.8993 33.1265 26.3238C33.5433 26.4368 34.0515 26.944 33.7258 27.3862C33.723 27.394 33.7205 27.4 33.718 27.4047C33.9822 27.5218 34.0192 27.8161 33.9543 28.0685C33.9478 28.1352 33.9302 28.0779 33.9694 28.1383C34.2674 28.4195 34.1357 29.2033 33.6867 29.2298C33.7161 29.6011 33.4776 29.9618 33.1756 30.1644C32.8501 30.3827 32.3794 30.3921 32.1099 30.6908C31.4771 31.8069 31.2588 33.1246 31.1898 34.4028C31.6069 34.559 31.9812 35.0261 31.6022 35.4223C31.5947 35.4232 31.5873 35.4241 31.5797 35.4247C31.36 36.0112 31.2752 36.6364 31.159 37.2489C30.9802 38.294 30.5144 39.2536 29.9196 40.1243C29.2317 41.2767 27.382 41.094 26.4501 40.3503C26.4538 40.5454 26.486 40.7394 26.4235 40.9279C26.3313 41.1314 26.1065 41.0435 26.0842 40.8431C25.5916 41.1202 25.4756 40.2054 26.0232 40.3505C25.9811 39.6892 25.9566 39.027 25.9368 38.3645C25.3169 38.5652 25.2901 37.5363 25.9243 37.742L25.9235 37.4576C25.9189 35.2764 25.943 33.0877 26.2307 30.9237C26.2573 30.7618 26.3024 30.6053 26.3287 30.4444C26.3315 30.4277 26.3575 30.4325 26.3576 30.4484C26.4021 33.4781 26.2042 36.5142 26.4107 39.5449C26.5826 39.5974 26.6511 39.7947 26.7784 39.9097C27.061 40.1707 27.4459 40.2978 27.8222 40.3421C28.8761 40.4899 29.331 40.1679 29.8003 39.2516C29.5887 39.3931 29.3027 39.1432 29.4317 38.9192L29.4357 38.9125C29.5697 38.6751 29.9481 38.8174 29.9002 39.0831C30.372 38.3272 30.6189 37.4749 30.8013 36.6101L30.826 36.5068C30.9146 36.1397 31.0297 35.719 31.2426 35.3868C29.9443 35.0558 28.6742 34.0472 28.471 32.6635C28.1414 33.6996 27.6948 34.7123 27.2692 35.72C27.1377 36.0703 27.083 36.447 26.8946 36.772C26.8507 36.8472 26.7396 36.8278 26.7148 36.7485C26.5454 35.9906 27.0589 35.2697 27.3255 34.5874C27.5432 34.2018 28.1681 32.441 28.5556 32.4367C28.1202 30.5277 27.5395 28.633 26.9865 26.7478C26.4517 24.2023 25.362 23.7114 23.0535 22.9099C23.4699 25.0327 25.371 27.0875 24.3593 29.314L24.3347 29.3718C24.2313 29.6173 24.1453 29.8646 24.2176 30.1341C24.2877 30.3955 24.4473 30.6225 24.575 30.8577C25.2889 32.1859 24.7975 33.7371 24.5215 35.1204C24.1728 36.7425 23.8284 38.3661 23.4679 39.9858C23.3969 40.3089 23.3509 40.6418 23.2435 40.9549C23.1881 41.1164 22.9118 41.1011 22.9296 40.9126C22.9637 40.5469 23.0664 40.1903 23.1416 39.8311C23.5903 37.506 24.1976 35.2082 24.5837 32.8728C24.832 31.1441 23.8543 30.8784 23.8908 29.7615C24.0237 29.1902 24.3754 28.6804 24.3552 28.0716C24.4334 26.2081 23.0766 24.6707 22.909 22.8583L22.6133 22.7527C22.4654 22.6998 22.3178 22.6464 22.1706 22.5918C22.9454 28.0125 22.7101 33.5517 22.3228 38.9992C22.2437 39.2505 22.3189 41.8205 21.9872 41.6647C21.9705 41.7628 21.9183 41.8593 21.805 41.8588C20.7762 41.8682 19.7471 41.8845 18.7183 41.8968C18.2235 41.8512 17.5433 42.0402 17.1224 41.7545C16.6364 41.6158 16.5805 39.4851 16.4506 39.0158L16.4 38.6745C15.5742 33.0977 14.8352 27.4058 15.4288 21.7738C14.6029 21.8055 14.4325 22.6972 14.3712 23.3464C14.2181 24.7793 13.2926 26.0133 13.2482 27.4626C13.2445 27.8142 13.3108 28.1548 13.4513 28.4777C13.8241 29.2687 14.4688 30.1831 13.9869 31.0665C13.4171 31.7543 13.4664 31.9353 13.6755 32.7851C14.2638 35.5948 15.2409 38.2958 16.1703 41.0047C15.9684 42.0576 14.7537 38.1489 14.6394 37.8541C14.1017 38.1246 13.808 37.227 14.4248 37.1631C14.0286 35.8367 13.6641 34.5004 13.3606 33.1493L13.3526 33.1112C13.2185 32.487 12.9548 31.7561 13.4001 31.2024C14.5483 30.0407 12.6415 28.7424 12.882 27.3352C12.6743 27.4892 12.3599 27.3271 12.3647 27.0684C12.3552 26.7771 12.7464 26.6278 12.9346 26.8501C13.1282 25.7084 13.8015 24.7117 14.0053 23.5734L14.0145 23.5199C14.0835 23.1176 14.103 22.6942 14.3005 22.3276C14.0316 22.5023 13.7453 22.6435 13.4507 22.7681C13.9773 23.2081 12.9576 23.6097 13.042 22.93C10.1541 23.7658 9.50134 24.9314 8.44103 27.6082C8.63909 27.4157 8.97837 27.6648 8.85981 27.9103C8.76522 28.1689 8.35261 28.0933 8.35277 27.8177L8.30444 27.9329C7.66148 29.4709 7.07627 31.0463 6.78219 32.6922C7.35909 32.6107 7.2122 33.533 6.68951 33.273C6.47975 34.7368 6.47643 36.2213 6.50206 37.6969C6.98867 37.4417 7.00331 38.3091 6.50676 38.0617C6.52491 39.271 6.55151 40.4802 6.57154 41.6894C6.57561 41.9468 6.17874 41.9456 6.17248 41.6894C6.12613 39.8314 6.04165 37.97 6.08181 36.1114C6.04403 32.8855 6.97104 29.7763 8.35226 26.8866C9.57439 23.5593 11.2625 23.1809 14.3684 22.2136C14.6551 21.7878 15.2676 21.3852 15.7674 21.6525C16.047 21.201 16.189 20.6661 16.3959 20.185ZM11.0745 31.7813C11.0861 31.7403 11.1446 31.7506 11.1465 31.791C11.1725 32.313 11.1493 32.8384 11.1136 33.3626C11.092 33.6826 11.0654 34.0022 11.0429 34.32C10.9831 35.1586 10.9349 35.998 10.8983 36.8381C10.9111 36.8328 10.9243 36.828 10.9381 36.8243C11.0013 36.8071 11.0645 36.8071 11.1277 36.8243C11.1841 36.8401 11.2334 36.8676 11.2759 36.9073L11.2849 36.9161C11.3196 36.9483 11.3443 36.9865 11.3587 37.0307C11.3792 37.0699 11.3896 37.1119 11.3896 37.1568L11.3894 37.1681C11.3891 37.2326 11.3731 37.2924 11.3406 37.3481C11.309 37.4017 11.2664 37.4443 11.2129 37.4762C11.1572 37.5085 11.0973 37.5244 11.0329 37.5247C11.026 37.5254 11.0191 37.526 11.0122 37.5263C10.9643 37.5282 10.9196 37.5182 10.8782 37.4966L10.872 37.4947C10.8564 37.9208 10.8435 38.3473 10.8341 38.7737C10.8257 39.1454 10.8144 39.5171 10.8069 39.8887L10.8034 40.0746L10.7966 40.4855C10.7944 40.6545 10.7955 40.8163 10.7381 40.9756L10.7312 40.994C10.6899 41.1004 10.6577 41.2486 10.5471 41.3078C10.4589 41.355 10.3399 41.3375 10.2892 41.2454C10.2467 41.1684 10.2836 41.0575 10.3465 41.0056C10.3453 41.0022 10.3434 40.999 10.3418 40.9956C10.3321 40.9674 10.3174 40.9408 10.3086 40.9123C10.2811 40.8221 10.2886 40.726 10.2883 40.6323C10.2883 40.4671 10.2939 40.3017 10.2983 40.1367C10.308 39.7854 10.3193 39.4344 10.333 39.0834C10.3795 37.906 10.4671 36.7285 10.5675 35.5544L10.6015 35.1581C10.6469 34.6311 10.6938 34.1035 10.7603 33.5792C10.7634 33.5542 10.7665 33.5291 10.77 33.504C10.7343 33.4862 10.7011 33.4615 10.6748 33.4339C10.5694 33.3232 10.5054 33.1576 10.4454 33.0149L10.4316 32.9824C10.3665 32.8303 10.3064 32.6762 10.2755 32.5128L10.2725 32.4977C10.2584 32.4281 10.2305 32.3048 10.3043 32.271C10.3428 32.2535 10.3671 32.266 10.3797 32.3045C10.3813 32.3096 10.38 32.3152 10.3772 32.3196C10.4075 32.3662 10.4551 32.4098 10.4852 32.453L10.588 32.6001L10.6388 32.674C10.7033 32.7689 10.7722 32.8597 10.8432 32.9492C10.8992 32.556 10.9678 32.1643 11.0745 31.7813ZM15.2917 40.545C15.4204 40.4442 15.6298 40.499 15.6298 40.685C15.6298 40.8719 15.4201 40.9258 15.2917 40.8249L15.2853 40.8202L15.2792 40.8152C15.2093 40.7606 15.207 40.6184 15.2739 40.5591L15.2792 40.5547C15.2833 40.5513 15.2874 40.5482 15.2917 40.545ZM9.69893 40.1818C9.75714 40.1818 9.81129 40.1965 9.86168 40.226C9.88359 40.2426 9.90518 40.2594 9.92709 40.2764C9.96716 40.3164 9.9947 40.364 10.01 40.4188L10.0216 40.5046C10.0232 40.5491 10.0141 40.5904 9.99376 40.6289C9.98062 40.669 9.95839 40.7037 9.92709 40.7329C9.89767 40.7645 9.86324 40.7867 9.82321 40.7996C9.78789 40.8182 9.75024 40.8277 9.70997 40.8277L9.69893 40.8274C9.64043 40.8274 9.58625 40.8127 9.53586 40.7833C9.51395 40.7667 9.49235 40.7498 9.47044 40.7329C9.43069 40.6928 9.40284 40.6452 9.38753 40.5904C9.38374 40.5619 9.38002 40.5331 9.37592 40.5046C9.37439 40.4601 9.38374 40.4188 9.40378 40.3803C9.41692 40.3402 9.43914 40.3055 9.47044 40.2764C9.4999 40.2447 9.53429 40.2225 9.57436 40.2097C9.60964 40.191 9.64756 40.1816 9.68787 40.1816L9.69893 40.1818ZM24.3393 39.5862L24.4213 39.5972C24.4999 39.6151 24.5631 39.673 24.6053 39.7391C24.6279 39.7744 24.6401 39.8126 24.642 39.8537C24.6511 39.8944 24.6492 39.9354 24.6363 39.9764C24.6269 40.0165 24.6085 40.0515 24.5812 40.0813C24.5719 40.096 24.5609 40.1095 24.5484 40.1214C24.5227 40.1643 24.4839 40.1924 24.4438 40.2213C24.4101 40.2429 24.3734 40.2544 24.334 40.2563C24.308 40.2632 24.2817 40.2632 24.2554 40.2563C24.2163 40.2544 24.1797 40.2429 24.1459 40.2213C24.1259 40.2059 24.1058 40.1903 24.0861 40.1749C24.0686 40.1546 24.0523 40.1336 24.0369 40.1117C24.0267 40.0876 24.0166 40.0637 24.0066 40.0399C23.9881 39.9826 23.9972 39.9319 24.0072 39.8746C24.0088 39.8649 24.0113 39.8562 24.0148 39.8467L24.0215 39.8286C24.0395 39.781 24.0492 39.7648 24.0811 39.7234L24.0933 39.7071C24.0993 39.699 24.1056 39.6911 24.1127 39.684C24.1327 39.6633 24.1612 39.646 24.1837 39.6282C24.2319 39.6004 24.2839 39.5866 24.3393 39.5862ZM13.7233 39.3859C13.7687 39.3862 13.8113 39.3975 13.8507 39.4203L13.9021 39.4601C13.9334 39.4917 13.9549 39.5286 13.9672 39.5716C13.97 39.5941 13.9731 39.6166 13.9762 39.6389C13.9775 39.6736 13.9703 39.7062 13.9543 39.7366C13.9443 39.7679 13.9268 39.7948 13.9021 39.818C13.8792 39.8424 13.852 39.8599 13.8207 39.8703C13.7934 39.8845 13.764 39.892 13.7328 39.8921L13.7233 39.8919C13.6776 39.8919 13.6351 39.8803 13.5956 39.8574L13.5443 39.818C13.513 39.7863 13.4914 39.7491 13.4792 39.7062C13.4764 39.6836 13.4733 39.6614 13.4701 39.6389C13.4689 39.6041 13.4761 39.5716 13.492 39.5415C13.5024 39.5102 13.5196 39.4829 13.5443 39.4601C13.5672 39.4353 13.5944 39.4178 13.6257 39.4078C13.653 39.3934 13.6819 39.3861 13.7129 39.3858L13.7233 39.3859ZM11.6473 39.2822C11.7127 39.2816 11.7791 39.3001 11.8326 39.338C11.8845 39.3749 11.9239 39.4147 11.9493 39.4745C11.9562 39.4908 11.9631 39.5067 11.969 39.523C11.996 39.5947 12.001 39.6667 11.9637 39.7369C11.9277 39.8048 11.8501 39.8346 11.7806 39.8549C11.7218 39.8724 11.6551 39.8753 11.5966 39.8543C11.5675 39.844 11.539 39.833 11.5127 39.817C11.4636 39.7867 11.437 39.7506 11.4041 39.7062C11.3784 39.6623 11.3656 39.6147 11.3656 39.564C11.3656 39.513 11.3784 39.4657 11.4041 39.4216C11.4545 39.3355 11.5478 39.2829 11.6473 39.2822ZM8.3296 39.3427C8.41226 39.3427 8.48484 39.3809 8.53464 39.4453C8.585 39.5108 8.60346 39.5922 8.58124 39.6733C8.55777 39.7591 8.48675 39.8342 8.39877 39.8559C8.3337 39.8718 8.28046 39.8712 8.21567 39.8602C8.1609 39.8508 8.11899 39.8183 8.07702 39.7844C8.02913 39.7453 8.01442 39.6739 8.02224 39.6163C8.02975 39.5587 8.05639 39.5211 8.09677 39.487L8.09705 39.4861L8.08202 39.4977C8.08769 39.4926 8.09329 39.4873 8.09896 39.482C8.1008 39.4789 8.10237 39.4754 8.10393 39.472C8.12709 39.4325 8.15839 39.4015 8.19752 39.3784C8.23852 39.3546 8.28234 39.3427 8.3296 39.3427ZM27.5969 38.3943C27.6423 38.382 27.688 38.382 27.7333 38.3943C27.7669 38.4021 27.7959 38.4174 27.8207 38.4403C27.8458 38.4566 27.8663 38.4775 27.8817 38.5035L27.8867 38.5123C27.9224 38.573 27.928 38.6425 27.9127 38.7102C27.8936 38.7938 27.8166 38.8699 27.7333 38.8896L27.7305 38.8901L27.7277 38.8909C27.6939 38.9015 27.6598 38.9031 27.626 38.8952C27.5919 38.8937 27.5603 38.8837 27.5312 38.8649C27.4943 38.8411 27.4633 38.8104 27.4395 38.7734C27.4207 38.744 27.4107 38.7124 27.4091 38.6782C27.4032 38.6557 27.4032 38.6332 27.4091 38.6106C27.4107 38.5765 27.4207 38.5448 27.4395 38.5154L27.4795 38.4637L27.4836 38.4603C27.5155 38.4284 27.5534 38.4064 27.5969 38.3943ZM24.4457 36.7373C24.8561 36.7373 24.8554 37.3741 24.4457 37.3741C24.0354 37.3741 24.036 36.7373 24.4457 36.7373ZM9.42285 36.6568C9.46607 36.6471 9.50927 36.649 9.55215 36.6624C9.57812 36.6734 9.60379 36.6843 9.62945 36.695L9.69518 36.7457C9.70739 36.7561 9.71334 36.7673 9.7246 36.782L9.73869 36.8005C9.75905 36.8277 9.75953 36.8335 9.78188 36.8916C9.7969 36.9474 9.7969 37.0031 9.78188 37.0589C9.77465 37.0858 9.76373 37.1111 9.74964 37.1346C9.73676 37.1571 9.72136 37.1769 9.70401 37.1951L9.69518 37.2041C9.66576 37.2357 9.63102 37.258 9.59096 37.2711C9.5656 37.2859 9.53837 37.293 9.50927 37.293C9.46607 37.3027 9.42285 37.3009 9.38 37.2874C9.35402 37.2764 9.32836 37.2655 9.30266 37.2548L9.23697 37.2041L9.18626 37.1384L9.17009 37.0998L9.15371 37.061L9.14213 36.9749C9.14057 36.9301 9.14964 36.8888 9.16995 36.85C9.17778 36.8227 9.19158 36.7986 9.21158 36.7786C9.22601 36.7542 9.24539 36.7348 9.26983 36.7204C9.28983 36.7003 9.31396 36.6865 9.34119 36.6787C9.36654 36.664 9.39377 36.6568 9.42285 36.6568ZM29.7177 36.2018C29.7518 36.2006 29.7838 36.2078 29.8132 36.2234C29.8235 36.2269 29.8335 36.2313 29.8432 36.2363C29.8811 36.2585 29.9111 36.2886 29.9334 36.3262C29.9515 36.355 29.9615 36.386 29.9631 36.4194C29.9699 36.4496 29.9693 36.48 29.9611 36.5103L29.9584 36.5194C29.9515 36.5441 29.9412 36.5669 29.9274 36.5879C29.9261 36.5904 29.9246 36.5929 29.9227 36.5951C29.9018 36.6283 29.8739 36.6555 29.8395 36.6759C29.8013 36.6978 29.7603 36.7091 29.7158 36.7094C29.6273 36.7094 29.5509 36.6615 29.5043 36.5879C29.4977 36.5776 29.4939 36.5644 29.4893 36.5538C29.4852 36.5437 29.4786 36.5309 29.4751 36.5194C29.4633 36.4749 29.4633 36.4304 29.4751 36.386C29.4829 36.3534 29.4977 36.3249 29.5199 36.3008C29.5377 36.2736 29.5612 36.252 29.5903 36.2363C29.6264 36.2152 29.6652 36.204 29.7064 36.2021L29.7177 36.2018ZM12.3931 35.8903C12.4365 35.8785 12.4796 35.8775 12.5226 35.8876L12.5334 35.8903C12.5678 35.8984 12.5975 35.9141 12.6232 35.9373C12.6517 35.9561 12.6745 35.9808 12.6911 36.0114C12.7149 36.0525 12.7268 36.097 12.7271 36.1445C12.7268 36.1921 12.7149 36.2366 12.6911 36.2776C12.6676 36.3174 12.636 36.3487 12.5963 36.3722L12.5619 36.3888C12.5331 36.4069 12.5024 36.4166 12.4692 36.4182C12.447 36.4242 12.4247 36.4242 12.4029 36.4182C12.3803 36.4182 12.3593 36.4126 12.3399 36.4013C12.3187 36.3954 12.3005 36.3847 12.2848 36.369C12.2576 36.3515 12.2363 36.3283 12.2207 36.2992L12.1953 36.2394L12.1866 36.173L12.1953 36.107L12.2091 36.0744C12.2216 36.0296 12.2442 35.9908 12.277 35.9579C12.3099 35.9253 12.3487 35.9028 12.3931 35.8903ZM27.9149 35.3621C27.9606 35.3477 28.006 35.3458 28.0514 35.3558C28.082 35.3558 28.1108 35.3637 28.1374 35.3793C28.1665 35.3874 28.1916 35.4018 28.2129 35.4231C28.2501 35.4472 28.2792 35.4792 28.3008 35.5189L28.3352 35.6007C28.3559 35.6536 28.3484 35.7316 28.3359 35.7848C28.3255 35.8286 28.3055 35.8668 28.2758 35.8994C28.2608 35.9247 28.2407 35.9448 28.2153 35.9598C28.1864 35.9862 28.1529 36.005 28.115 36.0161L28.1046 36.019L28.1008 36.0199C28.1002 36.0202 28.0996 36.0202 28.0989 36.0202C28.0986 36.0206 28.098 36.0206 28.0977 36.0206C28.0827 36.0243 28.0673 36.0265 28.0514 36.0271C28.006 36.0371 27.9606 36.0353 27.9149 36.0209C27.888 36.0096 27.8608 35.998 27.8335 35.9864C27.8104 35.9689 27.7875 35.951 27.7644 35.9332C27.7465 35.91 27.7287 35.8868 27.7108 35.864C27.6858 35.8249 27.6723 35.7823 27.6705 35.7369C27.6623 35.7065 27.6623 35.6765 27.6705 35.6461C27.6705 35.6151 27.6783 35.5866 27.6936 35.5599C27.7074 35.5174 27.7309 35.4808 27.7644 35.4498C27.7875 35.4319 27.8104 35.414 27.8335 35.3965C27.8608 35.3849 27.888 35.3734 27.9149 35.3621ZM7.95246 34.2411C7.99969 34.2283 8.04698 34.2283 8.09425 34.2411L8.15775 34.2678C8.18905 34.2847 8.21381 34.3075 8.23259 34.3366C8.25637 34.3623 8.27231 34.3927 8.28044 34.4274C8.29894 34.475 8.29675 34.5505 8.28204 34.599C8.26545 34.6541 8.23979 34.698 8.20004 34.7393C8.134 34.8076 8.03256 34.8273 7.94276 34.8066C7.918 34.801 7.89453 34.79 7.87324 34.7766C7.80536 34.7346 7.75966 34.6613 7.75997 34.5802C7.75997 34.5715 7.7606 34.5627 7.76185 34.554C7.75747 34.5361 7.75587 34.5176 7.75653 34.4982L7.76592 34.4274L7.76652 34.4256C7.77907 34.3808 7.8016 34.342 7.83443 34.3091C7.8648 34.279 7.9002 34.2572 7.94067 34.2442L7.9509 34.2411H7.95246ZM31.5703 27.2103C31.4848 26.509 31.1633 25.7545 30.1828 26.1663L30.11 26.1936C29.8674 26.2855 29.5846 26.4062 29.437 26.6184C29.3353 26.7647 29.3697 27.048 29.3556 27.2187C29.2917 27.7735 29.326 28.3276 29.3926 28.88C29.4786 30.175 29.2064 31.5168 28.6645 32.6937C29.2068 33.5716 29.9326 34.3903 30.9227 34.7562C30.9646 33.7581 31.1599 32.7784 31.3678 31.8045L31.376 31.762C31.4591 31.3229 31.5007 30.8722 31.789 30.5069C32.3755 29.87 33.1822 30.2305 33.5681 29.2072C33.487 29.1662 33.5318 29.026 33.6295 29.0529C33.968 29.113 34.023 28.4852 33.7913 28.334C33.5499 28.1867 33.7929 27.9151 33.6902 27.719C33.6329 27.6345 33.5093 27.6317 33.4532 27.5343C33.3047 27.1758 34.0481 26.946 33.1738 26.5419C32.9949 26.4783 32.7949 26.5177 32.6144 26.517C32.3489 26.5418 32.138 26.7289 31.8952 26.7878C32.1595 27.4725 31.4925 28.1319 30.8905 27.585C30.5629 27.8948 30.1965 28.6009 30.9929 28.2717C31.3826 28.0115 31.7182 27.6751 32.1706 27.5148L32.1802 27.5119C32.3482 27.4568 33.0831 27.0996 33.0467 27.4088C32.7714 27.6746 32.3173 27.6714 31.9985 27.8872C31.5565 28.0917 31.2738 28.5872 30.7446 28.5804C30.6226 29.3214 31.4632 28.8705 31.7762 28.6662L31.863 28.6191C32.3046 28.3804 32.7527 28.1594 33.2676 28.1564C33.4097 28.1555 33.4091 28.3747 33.2676 28.3766C32.5966 28.3808 32.0504 28.8004 31.4883 29.1123C31.433 29.5449 32.0662 29.3555 32.3064 29.2917C32.5584 29.2563 32.963 28.9837 33.1835 29.1277C33.2697 29.3494 32.8902 29.3329 32.7581 29.4001C33.3613 29.6899 32.8328 29.8725 32.6711 29.4271L32.6237 29.4432C32.2198 29.579 31.2404 29.8585 31.3569 29.1741C31.209 29.2395 31.0288 29.2786 30.8654 29.2423C30.4581 29.8451 29.8083 29.6118 30.7528 29.201C30.5399 29.1019 30.4689 28.7196 30.6733 28.5773C29.9299 28.5319 30.4818 27.7516 30.7895 27.4915C30.7605 27.4622 30.7323 27.4322 30.7061 27.4018C30.5287 27.4864 30.3422 27.5377 30.1427 27.5559C29.9518 27.5731 29.9093 27.2481 30.0977 27.2215C30.2996 27.193 30.4855 27.1391 30.6632 27.0377C30.9327 26.9213 31.0246 27.4214 31.2943 27.4391C31.4413 27.4682 31.5408 27.3392 31.5703 27.2103ZM25.3112 33.6631C25.3763 33.6631 25.4341 33.6904 25.4814 33.7336C25.5287 33.7768 25.549 33.8416 25.5518 33.9036C25.5531 33.9368 25.5462 33.9678 25.5312 33.9966C25.5215 34.0263 25.5049 34.052 25.4814 34.074C25.4376 34.1175 25.3728 34.1444 25.3112 34.1444C25.2461 34.1444 25.1882 34.1171 25.1409 34.074C25.0936 34.0304 25.0733 33.9659 25.0704 33.9036C25.0692 33.8707 25.0761 33.8397 25.0911 33.8109C25.0998 33.7841 25.1141 33.7604 25.134 33.7402L25.1409 33.7336C25.1847 33.6897 25.2495 33.6631 25.3112 33.6631ZM27.2838 32.1782L27.2942 32.1783C27.3493 32.1787 27.4004 32.1924 27.4479 32.22C27.4686 32.236 27.4892 32.2516 27.5096 32.2676C27.5474 32.3058 27.5734 32.3505 27.5878 32.4022C27.6026 32.4561 27.6026 32.5103 27.5878 32.5641C27.5828 32.5951 27.5713 32.6252 27.5531 32.6512C27.5262 32.6959 27.4905 32.732 27.4454 32.7585C27.3988 32.7858 27.3484 32.7992 27.2942 32.7996C27.2401 32.7992 27.1897 32.7858 27.1431 32.7585C27.098 32.732 27.0623 32.6959 27.0357 32.6512C27.0172 32.6252 27.0057 32.5951 27.0006 32.5641C26.9859 32.5103 26.9859 32.4561 27.0006 32.4022C27.014 32.3542 27.0374 32.3122 27.071 32.2759L27.0789 32.2676C27.1064 32.2379 27.139 32.2169 27.1769 32.2046C27.2101 32.1872 27.2458 32.1783 27.2838 32.1782ZM12.2291 32.1949C12.2523 32.1887 12.2752 32.1887 12.2983 32.1949C12.3327 32.1965 12.3649 32.2068 12.3947 32.2256C12.4122 32.2394 12.4298 32.2529 12.4473 32.2664L12.4626 32.2847C12.4952 32.3245 12.4961 32.3313 12.5211 32.3919C12.5315 32.4257 12.5331 32.4595 12.5255 32.4934C12.5255 32.5162 12.5196 32.5375 12.5083 32.5572C12.5021 32.5788 12.4914 32.5976 12.4755 32.6133C12.4642 32.6323 12.4492 32.6477 12.43 32.659C12.4057 32.6812 12.3769 32.6966 12.3437 32.7044L12.2764 32.7134C12.2676 32.7122 12.2586 32.711 12.2498 32.71C12.2392 32.7097 12.229 32.7085 12.2189 32.7066L12.2088 32.7044L12.1995 32.7019C12.1873 32.6983 12.1753 32.6935 12.1637 32.6875C12.1418 32.6812 12.1227 32.6703 12.1064 32.654C12.0783 32.6358 12.0557 32.6114 12.0395 32.581L12.0351 32.571C12.0291 32.5603 12.0241 32.5494 12.0203 32.5375C12.0097 32.5187 12.0044 32.4987 12.0041 32.4771C11.9979 32.4483 11.9983 32.4198 12.0057 32.3914L12.0085 32.3819L12.0326 32.3246C12.0451 32.3052 12.0582 32.2854 12.0751 32.2695C12.0853 32.2604 12.1101 32.241 12.1241 32.2313L12.1327 32.2256C12.1625 32.2068 12.1947 32.1965 12.2291 32.1949ZM8.86044 31.6404C8.98717 31.7673 8.93117 32.0002 8.75374 32.0453L8.73336 32.0503C8.56185 32.0938 8.40723 31.9388 8.45073 31.7673L8.45574 31.7472C8.50081 31.5697 8.73368 31.5136 8.86044 31.6404ZM29.9384 30.2991C29.9371 30.2815 29.9596 30.2753 29.9709 30.2856C30.1218 30.4209 30.2179 30.5831 30.401 30.6879C30.585 30.7932 30.7747 30.7847 30.9665 30.8526C31.0316 30.8758 31.0319 30.9629 30.9665 30.9857C30.6035 31.1125 29.9659 30.6826 29.9384 30.2991ZM12.8789 30.2715C12.9193 30.259 12.96 30.2571 13.0004 30.2662C13.0279 30.2662 13.0535 30.2731 13.077 30.2868C13.103 30.2941 13.1252 30.3072 13.1443 30.326C13.1672 30.3395 13.1853 30.3579 13.1991 30.3808C13.226 30.4102 13.2442 30.4447 13.2535 30.4841L13.2642 30.5652L13.2535 30.6463C13.2432 30.6704 13.2329 30.6948 13.2229 30.719L13.1949 30.7569C13.1722 30.7871 13.1686 30.7874 13.1136 30.8282C13.0786 30.8504 13.0407 30.8627 13.0004 30.8642C12.9734 30.8717 12.9465 30.8717 12.9193 30.8642C12.8921 30.8642 12.8664 30.8573 12.8426 30.8436C12.8169 30.8364 12.7944 30.8232 12.7753 30.8044C12.7421 30.7828 12.7162 30.7543 12.697 30.719C12.6867 30.6948 12.6764 30.6704 12.6664 30.6463L12.6554 30.5652L12.6664 30.4841L12.667 30.4816C12.6814 30.4309 12.7071 30.3867 12.744 30.3494L12.8047 30.3025C12.8285 30.2872 12.8532 30.2793 12.8789 30.2715ZM27.4895 30.3323C27.5762 30.3084 27.6714 30.3335 27.7349 30.3971C27.7985 30.4606 27.8235 30.5555 27.7997 30.6422C27.7762 30.7268 27.7083 30.7953 27.6235 30.8182C27.5982 30.8251 27.5725 30.8289 27.5465 30.8276C27.503 30.8273 27.4623 30.8163 27.4244 30.7944L27.3756 30.7565C27.3518 30.7346 27.3352 30.7086 27.3255 30.6786C27.3102 30.6498 27.3033 30.6188 27.3045 30.5853L27.3043 30.5793C27.3033 30.5674 27.3049 30.5555 27.3086 30.5439C27.3086 30.5317 27.3105 30.5198 27.3137 30.5082C27.3365 30.4237 27.4054 30.3554 27.4895 30.3323ZM8.79909 29.4844C8.82695 29.4834 8.85292 29.489 8.87702 29.5019C8.90238 29.51 8.92397 29.5238 8.94213 29.5438C8.96216 29.562 8.97593 29.5839 8.98407 29.609C8.9969 29.6331 9.00253 29.6591 9.00159 29.6869C9.00159 29.7236 8.9922 29.7577 8.97405 29.789C8.96341 29.8028 8.95277 29.8166 8.94213 29.83C8.91709 29.8554 8.88735 29.8726 8.85292 29.8823L8.83289 29.8892C8.80347 29.8998 8.77468 29.9005 8.744 29.8964C8.71177 29.892 8.682 29.8832 8.65574 29.8632C8.63005 29.8482 8.60973 29.8278 8.59471 29.8021L8.57749 29.7614C8.57374 29.7477 8.57217 29.727 8.57123 29.7126C8.57123 29.7104 8.57123 29.7086 8.57092 29.7063C8.57092 29.6941 8.57468 29.6644 8.57778 29.6522C8.58469 29.6265 8.59875 29.6021 8.61474 29.5814C8.62851 29.5598 8.64729 29.5429 8.67045 29.5304L8.67251 29.5288L8.67483 29.5272C8.682 29.5222 8.68954 29.5172 8.69706 29.5119C8.72836 29.4937 8.76247 29.4844 8.79909 29.4844ZM24.9615 29.262C25.0116 29.262 25.0583 29.2749 25.1014 29.2999C25.103 29.3005 25.1045 29.3012 25.1058 29.3018C25.1471 29.3262 25.18 29.3591 25.2044 29.4004C25.2295 29.4433 25.242 29.4897 25.242 29.5392C25.242 29.5889 25.2295 29.6349 25.2044 29.6778C25.18 29.7192 25.1471 29.7521 25.1058 29.7765C25.1045 29.7774 25.103 29.778 25.1014 29.7787C25.0583 29.8037 25.0116 29.8162 24.9615 29.8166C24.9118 29.8162 24.8651 29.8037 24.8219 29.7787C24.7374 29.7292 24.6845 29.6368 24.6845 29.5392C24.6845 29.4414 24.7374 29.3491 24.8219 29.2999C24.8651 29.2749 24.9118 29.262 24.9615 29.262ZM11.9637 28.9L11.9722 28.8998C12.0054 28.8985 12.0363 28.9054 12.0648 28.9208C12.0945 28.9304 12.1205 28.9471 12.1425 28.9706L12.1881 29.0087L12.2014 29.0195C12.2036 29.0213 12.2057 29.0231 12.2078 29.025C12.2385 29.056 12.2595 29.0923 12.2714 29.1343C12.2752 29.1584 12.2783 29.1822 12.2808 29.2063C12.2876 29.2689 12.2507 29.3331 12.2101 29.3776C12.1881 29.4011 12.1621 29.4176 12.1321 29.4277C12.1033 29.4427 12.072 29.4496 12.0388 29.4483C11.9709 29.4424 11.9065 29.428 11.8576 29.3754C11.852 29.3691 11.8466 29.3625 11.841 29.356L11.8019 29.3109C11.7722 29.2808 11.7515 29.2454 11.7403 29.2047C11.7371 29.1831 11.7343 29.1618 11.7315 29.1405C11.7286 29.0764 11.7599 29.0162 11.8019 28.9706C11.8407 28.9282 11.9064 28.9023 11.9637 28.9ZM10.3838 28.2407C10.7093 28.2407 10.7086 28.7457 10.3838 28.7457C10.0585 28.7457 10.0592 28.2407 10.3838 28.2407ZM26.7494 27.5325L26.7596 27.5327C26.8135 27.533 26.8639 27.5465 26.9105 27.5737L26.9712 27.6204C27.0082 27.658 27.0338 27.7018 27.0482 27.7525C27.0516 27.7791 27.0551 27.8058 27.0589 27.8321C27.0604 27.8734 27.0516 27.9119 27.0329 27.9476C27.021 27.9845 27.0004 28.0168 26.9712 28.044C26.944 28.0732 26.9121 28.0938 26.8748 28.1057C26.8392 28.1245 26.8007 28.1333 26.7596 28.1317C26.7055 28.1314 26.6551 28.1179 26.6085 28.0907C26.5881 28.075 26.5681 28.0594 26.5478 28.044C26.5137 28.0094 26.4892 27.9693 26.4745 27.9235L26.4711 27.9119L26.4601 27.8321C26.4586 27.791 26.4673 27.7525 26.4861 27.7168C26.498 27.6796 26.5187 27.6476 26.5478 27.6204C26.575 27.5912 26.6072 27.5706 26.6442 27.5587C26.6768 27.5415 26.7119 27.5327 26.7494 27.5325ZM25.2833 26.5871C25.3124 26.5862 25.3393 26.5921 25.3647 26.6053C25.3906 26.6137 25.4132 26.6284 25.4323 26.6488C25.4727 26.6811 25.4974 26.7455 25.4974 26.7978C25.4974 26.8501 25.4727 26.9147 25.4323 26.9469C25.406 26.9729 25.375 26.991 25.3393 27.001L25.2833 27.0086C25.2288 27.0111 25.1734 26.9826 25.1346 26.9469C25.1268 26.9397 25.1193 26.9325 25.1114 26.9256C25.0761 26.893 25.0608 26.8445 25.0585 26.7978C25.0576 26.7731 25.063 26.75 25.0742 26.7284C25.0814 26.7058 25.0939 26.6867 25.1114 26.6701C25.1193 26.6632 25.1268 26.656 25.1346 26.6488C25.1769 26.6097 25.2263 26.59 25.2833 26.5871ZM34.5722 24.9029C34.7778 24.6523 34.6581 24.4739 34.349 24.5359C33.8166 24.608 33.3155 24.9445 32.8467 25.1859C32.3349 25.4563 31.8075 25.6794 31.2854 25.9334C31.5008 26.0657 31.661 26.2728 31.7834 26.5092C32.0277 26.3236 32.34 26.2348 32.6448 26.2233C33.1978 25.6934 34.1136 25.5721 34.5722 24.9029ZM10.2742 25.7349C10.33 25.7351 10.3823 25.7482 10.4312 25.7744L10.4417 25.7802L10.5086 25.8322C10.5412 25.8623 10.564 25.8979 10.5775 25.939C10.5982 25.9784 10.6075 26.0213 10.606 26.067C10.6075 26.1128 10.5982 26.1553 10.5775 26.1948C10.564 26.2361 10.5412 26.2715 10.5086 26.3016C10.4902 26.3257 10.4664 26.3445 10.4379 26.3583C10.4113 26.3692 10.385 26.3805 10.3584 26.3917C10.3287 26.4011 10.2942 26.4024 10.262 26.404C10.2035 26.4036 10.149 26.3889 10.0983 26.3595L10.0326 26.3088C10.001 26.2793 9.9784 26.2446 9.96526 26.2042C9.94664 26.1686 9.9372 26.1306 9.9372 26.0901L9.93743 26.0789C9.93743 26.0765 9.93743 26.0736 9.93778 26.0708C9.9415 26.0414 9.9456 26.0119 9.94961 25.9825C9.95997 25.9393 9.97969 25.9014 10.0091 25.8695C10.0166 25.8544 10.0266 25.8422 10.0395 25.8322C10.0808 25.7909 10.1296 25.7627 10.1859 25.7467C10.2154 25.743 10.2448 25.7389 10.2742 25.7349ZM24.8063 24.9054C24.8485 24.9054 24.8876 24.916 24.924 24.937C24.9399 24.9493 24.9556 24.9614 24.9712 24.9737C25.0004 25.0028 25.0204 25.0372 25.0313 25.0767L25.0398 25.1386C25.0407 25.1709 25.0341 25.2007 25.0194 25.2286C25.0101 25.2573 24.9941 25.2824 24.9712 25.3037C24.9502 25.3265 24.9252 25.3425 24.8961 25.3519C24.8686 25.3666 24.8385 25.3732 24.8063 25.372C24.7643 25.372 24.7249 25.3613 24.6886 25.34C24.6729 25.3281 24.657 25.3159 24.6413 25.3037C24.6149 25.277 24.5959 25.2458 24.5845 25.2104L24.5815 25.2007L24.5731 25.1386C24.5719 25.1064 24.5784 25.0767 24.5931 25.0488C24.6025 25.0197 24.6188 24.9946 24.6413 24.9737C24.6626 24.9508 24.6877 24.9348 24.7165 24.9254C24.7415 24.9122 24.7684 24.9055 24.7968 24.9053L24.8063 24.9054ZM12.1037 24.5661L12.1146 24.5663C12.1769 24.5666 12.2348 24.5823 12.2886 24.6136C12.3118 24.6315 12.335 24.6493 12.3581 24.6675C12.401 24.7103 12.4304 24.761 12.447 24.8196L12.4592 24.911C12.4611 24.9586 12.451 25.0028 12.4294 25.0438C12.4157 25.0867 12.3919 25.1236 12.3581 25.1549C12.3271 25.1885 12.2902 25.2122 12.2473 25.226C12.2063 25.2476 12.1622 25.2577 12.1146 25.2558C12.0523 25.2558 11.9944 25.2401 11.9406 25.2088C11.9174 25.1909 11.8943 25.1728 11.8708 25.1549C11.8282 25.1117 11.7988 25.061 11.7822 25.0028L11.77 24.911C11.7681 24.8637 11.7781 24.8193 11.7997 24.7783C11.8135 24.7357 11.8373 24.6984 11.8708 24.6675C11.9021 24.6336 11.939 24.6098 11.9819 24.596C12.0197 24.5761 12.0602 24.5663 12.1037 24.5661ZM23.693 23.7053C23.7215 23.6977 23.7499 23.6977 23.7784 23.7053C23.821 23.7071 23.8608 23.7199 23.8977 23.7434L23.9625 23.7936C23.9634 23.7945 23.9644 23.7954 23.9653 23.7967C24.0044 23.8361 24.0316 23.8828 24.0466 23.9363L24.0579 24.0206C24.0595 24.0641 24.0504 24.1048 24.0307 24.1424C24.019 24.1785 23.9995 24.2099 23.9728 24.2371L23.9625 24.2472C23.9333 24.2785 23.8992 24.3008 23.8595 24.3136C23.8345 24.3284 23.8072 24.3356 23.7784 24.3356C23.7359 24.3452 23.693 24.3434 23.6504 24.3299C23.6251 24.3189 23.5994 24.3083 23.5738 24.2977L23.5656 24.2929C23.4689 24.2401 23.4091 24.1292 23.4091 24.0206C23.4091 23.9119 23.4689 23.8007 23.5656 23.7478C23.5684 23.7466 23.5709 23.745 23.5738 23.7434C23.6107 23.7199 23.6504 23.7071 23.693 23.7053Z" fill="black"/>
<path fill-rule="evenodd" clip-rule="evenodd" d="M19.773 8.92912C24.4739 9.07832 24.7575 11.3168 24.7575 15.0709C24.7575 18.8249 22.3188 21.1905 21.4209 21.6036C20.5229 22.0166 18.1585 23.7909 16.0247 22.9733C13.891 22.1556 14.5089 18.7013 14.5089 17.2171C14.5089 15.7328 15.072 8.77992 19.773 8.92912Z" fill="#D08B5B"/>
<path fill-rule="evenodd" clip-rule="evenodd" d="M15.2295 14.8865C16.2015 10.9132 17.9759 8.9746 20.5527 9.07079C24.4179 9.21509 24.3771 13.1646 24.1346 12.8045C23.9762 12.5692 22.867 11.7473 20.807 10.3388L20.6797 10.2518L15.2295 14.8865Z" fill="#9FD8E5"/>
<path fill-rule="evenodd" clip-rule="evenodd" d="M21.68 20.3701C20.8168 20.8532 19.8283 20.872 18.8997 20.568C18.3428 20.3861 17.8322 20.1049 17.3543 19.7686C16.9386 19.4758 16.5675 19.1511 16.1999 18.8064C15.8973 18.1373 15.6278 17.4694 15.5015 16.7414C15.3885 16.088 15.3735 15.4094 15.5047 14.7572C16.4748 13.9572 17.439 13.1507 18.4018 12.3416C18.8922 11.9295 19.3838 11.5197 19.8813 11.1164C20.134 10.9116 20.3842 10.7037 20.6359 10.498C20.6775 10.4642 20.7187 10.4303 20.7603 10.3965C21.2799 10.7779 21.8371 11.1048 22.3531 11.4924C22.6233 11.6956 22.8859 11.912 23.1361 12.1396C23.2673 12.2589 23.3954 12.382 23.5203 12.5081C23.6346 12.6234 23.7448 12.7887 23.907 12.8322C23.9291 12.8382 23.95 12.8394 23.9697 12.8366C24.1865 14.7391 24.3404 16.7934 23.4119 18.5211C23.0068 19.2748 22.4325 19.9486 21.68 20.3701ZM16.0641 21.0693C15.9452 20.9601 16.1224 20.7834 16.2407 20.8921C16.9843 21.5749 17.9563 21.9368 18.9381 22.1043C19.0965 22.1314 19.029 22.3727 18.8717 22.3459C17.8466 22.171 16.8391 21.7809 16.0641 21.0693ZM15.1719 22.1169C15.03 22.0405 15.1563 21.8244 15.298 21.9006C15.8772 22.212 16.5126 22.3738 17.1571 22.4831C17.3156 22.51 17.248 22.7513 17.0907 22.7246C16.4243 22.6117 15.7705 22.4387 15.1719 22.1169ZM17.5295 11.5641C18.0102 11.1317 18.5268 10.7202 19.0724 10.373C19.6246 10.0217 20.2277 9.81163 20.8795 9.80662C20.8339 9.84325 20.7905 9.88396 20.7465 9.92181C20.6235 10.0274 20.5007 10.1335 20.3779 10.2393C20.1324 10.4513 19.8863 10.6629 19.644 10.8784C19.1667 11.303 18.6879 11.7254 18.2116 12.1509C17.2962 12.9687 16.4005 13.8044 15.524 14.6642C15.5287 14.6433 15.5337 14.6223 15.5387 14.6013C15.8289 13.3864 16.6181 12.3842 17.5295 11.5641ZM21.2974 9.85954C21.3006 9.85014 21.3028 9.84103 21.304 9.8323C22.5549 9.99574 23.5996 10.9184 23.945 12.1334C23.9151 12.1753 23.8985 12.2251 23.9047 12.278C23.9079 12.3046 23.911 12.3316 23.9141 12.3582C23.8713 12.3156 23.8273 12.2758 23.7898 12.2379C23.6652 12.1114 23.5375 11.9884 23.4063 11.8684C23.138 11.6233 22.8594 11.3941 22.5658 11.1802C22.0552 10.8083 21.5023 10.4663 20.8936 10.2879C20.9336 10.255 20.9736 10.2221 21.0139 10.1896C21.1341 10.0915 21.2456 10.0108 21.2974 9.85954ZM23.54 8.56044C22.772 7.71911 21.7085 7.1029 20.5885 6.88873C19.519 6.68396 18.4118 6.81891 17.4015 7.21687C15.2873 8.04975 13.6191 9.88117 12.838 12.0034C12.3826 13.2399 12.2333 14.5953 12.3702 15.9042C12.5063 17.207 12.8977 18.5525 13.6098 19.6609C13.675 19.7623 13.7466 19.8597 13.8215 19.9539C13.7881 20.3366 13.6607 20.7117 13.4602 21.0379C13.4494 21.0554 13.438 21.0726 13.4268 21.0898C13.2215 21.2439 13.0085 21.3886 12.8006 21.5379C12.6204 21.6673 12.442 21.8 12.2726 21.9433C12.1127 22.0786 11.9269 22.2293 11.8186 22.4119C11.7299 22.5614 11.6937 22.7648 11.8148 22.9075C11.9607 23.0793 12.208 23.0187 12.4057 23.0187C12.4227 23.0187 12.4396 23.0191 12.4565 23.0193C12.5158 23.0567 12.577 23.0905 12.6362 23.122C13.235 23.4401 13.8359 23.7548 14.4374 24.0679C15.6356 24.6919 16.8287 25.3411 18.0514 25.9156C18.618 26.182 19.2245 26.415 19.8592 26.4141C20.4545 26.4131 20.9926 26.1761 21.4573 25.8157C21.9871 25.4052 22.43 24.8839 22.8597 24.3729C23.0315 24.1684 23.1998 23.9615 23.365 23.7517C23.6824 23.6455 23.9972 23.6145 24.2802 23.8193C24.5072 23.9837 24.8064 23.7601 24.8118 23.5134C24.8136 23.4258 24.8099 23.3393 24.8005 23.2541C24.7437 22.7281 24.4869 22.2522 24.1977 21.8107C24.0397 21.5693 23.8732 21.3322 23.7058 21.0974C23.6664 21.042 23.6277 20.9866 23.5902 20.9302C24.2627 19.9377 24.7961 18.8371 25.1241 17.687C25.4686 16.4768 25.5857 15.2219 25.5089 13.9679C25.3908 12.046 24.8649 10.012 23.54 8.56044Z" fill="black"/>
<path fill-rule="evenodd" clip-rule="evenodd" d="M21.9738 18.9793C21.7433 19.0461 21.4958 19.0521 21.2607 18.9831C21.0476 18.9205 20.8287 18.7828 20.6718 18.6005C20.5324 18.4386 20.4422 18.2419 20.4457 18.0319C20.4461 18.0079 20.4547 17.9879 20.4679 17.9723C20.4821 17.9556 20.5019 17.9441 20.5231 17.9391C20.545 17.934 20.5681 17.9358 20.5878 17.9447C20.6056 17.9528 20.6208 17.9666 20.6303 17.9867C20.6545 18.0183 20.6785 18.0496 20.7026 18.0799C20.8965 18.3194 21.0842 18.4984 21.3757 18.5625C21.5339 18.5974 21.6918 18.5819 21.8368 18.5288C21.9919 18.4719 22.1322 18.3719 22.2421 18.2439C22.2918 18.186 22.3504 18.1624 22.4077 18.162C22.4727 18.1615 22.5369 18.1918 22.5853 18.24C22.6329 18.2875 22.6647 18.352 22.6676 18.4194C22.6702 18.4786 22.6509 18.5405 22.5995 18.5956C22.4303 18.7774 22.2111 18.9105 21.9738 18.9793ZM21.9667 15.9799C22.2031 16.1236 22.5632 16.4588 22.3089 16.8151C22.0096 17.1292 21.5787 16.769 21.3664 16.6061C21.1695 16.4799 20.9483 16.8046 21.131 16.952C22.6653 18.0884 23.288 16.0175 22.0862 15.8109C21.9539 15.7882 21.9048 15.9355 21.9667 15.9799ZM19.7558 15.3475C19.6798 15.2989 19.5904 15.2823 19.4914 15.3273C19.414 15.3625 19.2783 15.4799 19.1838 15.6342C19.1192 15.7398 19.0734 15.8636 19.0829 15.9926C19.0851 16.0225 19.0741 16.0446 19.0566 16.0609C19.0428 16.0738 19.0229 16.0833 18.9995 16.0863C18.9797 16.0888 18.9575 16.0865 18.9394 16.0809C18.905 16.0702 18.8868 16.0479 18.88 16.0296C18.8138 15.8539 18.8423 15.6578 18.9164 15.4809C19.0165 15.2422 19.1982 15.0422 19.3172 14.9777C19.5209 14.8673 19.7612 14.8622 19.9651 14.9747C20.1388 15.0704 20.2473 15.2249 20.3553 15.3824C20.3783 15.4159 20.401 15.4491 20.4246 15.4818C20.4718 15.5472 20.4765 15.6121 20.4582 15.6677C20.438 15.7293 20.3863 15.7814 20.3218 15.8086C20.2621 15.8337 20.1929 15.8373 20.1316 15.8114C20.0799 15.7896 20.0324 15.747 20.0023 15.6748C19.9517 15.5531 19.8673 15.4189 19.7558 15.3475ZM23.6139 15.6182C23.5618 15.6453 23.5211 15.6535 23.4634 15.6362C23.4315 15.6266 23.4 15.6082 23.3753 15.5835C23.3508 15.559 23.3331 15.5286 23.3263 15.4948C23.3094 15.4115 23.2638 15.3334 23.1988 15.2826C23.1433 15.2391 23.0732 15.216 22.9955 15.229C22.9116 15.243 22.8316 15.2969 22.7766 15.3603C22.7582 15.3816 22.7438 15.4057 22.7293 15.4296C22.7021 15.4744 22.6758 15.5161 22.6384 15.549C22.6242 15.5615 22.6028 15.5702 22.5821 15.5702C22.5737 15.5702 22.5652 15.5688 22.557 15.5662C22.4735 15.4824 22.4575 15.4188 22.4602 15.3557C22.463 15.2896 22.4891 15.2226 22.5312 15.1601C22.63 15.0135 22.8177 14.8933 22.9443 14.8661C23.1177 14.8288 23.2899 14.8735 23.428 14.9704C23.5701 15.0701 23.6753 15.2249 23.7082 15.3994C23.7161 15.4414 23.7127 15.4867 23.6967 15.526C23.6811 15.5645 23.6539 15.5974 23.6139 15.6182ZM20.1382 13.7846C20.0342 13.886 19.911 13.9017 19.7864 13.9157C19.7171 13.9235 19.6619 13.9298 19.6075 13.9421C19.458 13.9759 19.3102 14.0267 19.1754 14.0999C19.0345 14.1765 18.8809 14.2688 18.7704 14.3871C18.7441 14.4152 18.7194 14.4447 18.6946 14.4743C18.6719 14.5013 18.6502 14.5273 18.6272 14.5524C18.6008 14.5811 18.5758 14.6113 18.5509 14.6414C18.5355 14.6667 18.5324 14.673 18.5293 14.6795C18.5247 14.6892 18.5192 14.7002 18.513 14.7119C18.5046 14.728 18.4946 14.7455 18.4842 14.7615C18.4669 14.7906 18.4576 14.7986 18.4495 14.8022C18.4362 14.8081 18.4235 14.8111 18.4113 14.8095C18.3998 14.808 18.3889 14.8025 18.3782 14.7934C18.3248 14.7483 18.309 14.6741 18.3107 14.5955C18.3131 14.4761 18.3571 14.3439 18.3977 14.2627C18.492 14.0739 18.6229 13.8776 18.7802 13.7367C18.9598 13.5758 19.1562 13.4541 19.3818 13.3702C19.522 13.318 19.6843 13.2701 19.837 13.2762C19.947 13.2805 20.0519 13.3132 20.1386 13.3949C20.1918 13.445 20.2174 13.5163 20.2174 13.5875C20.2174 13.6602 20.1908 13.7333 20.1382 13.7846ZM23.8255 14.7134C23.8189 14.7243 23.8097 14.7317 23.7995 14.7362C23.7889 14.7409 23.7769 14.7423 23.7655 14.7404C23.7541 14.7384 23.7432 14.7333 23.7347 14.7254C23.7264 14.7178 23.7201 14.7078 23.7173 14.6955C23.6482 14.3919 23.5141 14.166 23.2277 14.0204C23.0869 13.9487 22.9249 13.9032 22.7716 13.8669C22.727 13.8563 22.6799 13.8495 22.6325 13.8426C22.4839 13.8209 22.3342 13.796 22.2374 13.6759C22.179 13.6035 22.1545 13.5109 22.1683 13.4262C22.1814 13.3465 22.2279 13.2734 22.3126 13.2296C22.5233 13.1206 22.7852 13.2276 22.998 13.3187C23.0137 13.3255 23.0292 13.3321 23.0444 13.3385C23.2525 13.4264 23.4423 13.5424 23.5983 13.7082C23.7221 13.8398 23.8368 14.0344 23.883 14.2345C23.9214 14.401 23.9124 14.571 23.8255 14.7134Z" fill="black"/>
<path fill-rule="evenodd" clip-rule="evenodd" d="M24.1623 16.5129C23.6925 16.7392 23.0372 16.4054 22.7213 16.0557C22.6064 15.9284 22.5177 15.5642 22.5619 15.3332C22.6817 14.7075 23.1318 14.3321 23.6069 14.2038C24.2656 14.0261 24.9284 14.4764 24.8511 15.0079C24.7779 15.5116 24.6669 16.2423 24.1623 16.5129ZM20.965 15.3111C20.9274 15.9929 20.3801 16.5897 19.7259 16.7665C18.672 17.0607 18.1511 16.3195 17.9152 15.521C17.8917 15.4417 17.8366 15.1995 17.9845 14.9918C18.5661 14.1748 19.9812 14.314 20.688 14.5383C20.8949 14.7363 20.9795 15.0219 20.965 15.3111ZM24.6726 14.1351C24.6723 14.1355 24.6719 14.1359 24.6716 14.1363C24.6692 14.1348 24.6668 14.1333 24.6644 14.1319C24.6671 14.133 24.67 14.134 24.6726 14.1351ZM25.5544 14.214C25.4932 13.5198 23.316 13.7856 23.0614 13.8425C22.3667 14.0469 21.7667 14.603 20.99 14.3585C20.1852 13.461 17.475 13.7184 16.9069 14.1756C16.7993 14.1334 16.6686 14.156 16.53 14.1959C15.8185 14.1701 12.5701 14.4155 13.2346 15.324C13.3354 15.394 13.4362 15.3228 13.4389 15.1786C16.9026 13.9279 16.5668 15.0994 16.9776 14.9626C17.0403 14.9807 17.1058 14.9921 17.163 15.0041C17.4809 15.1064 17.5889 15.0748 17.6308 15.4319C17.9185 18.1888 21.5885 17.2373 21.2874 14.9759C21.5855 14.9595 21.8462 14.8306 22.1613 14.9564C22.3801 17.0868 24.0938 17.1727 24.6095 16.4343C24.9984 15.9217 24.8442 15.1482 25.3787 14.745C25.5897 14.9216 25.6033 14.3254 25.5544 14.214Z" fill="black"/>
</svg>
