<svg width="39" height="48" viewBox="0 0 39 48" fill="none" xmlns="http://www.w3.org/2000/svg">
<path fill-rule="evenodd" clip-rule="evenodd" d="M20.407 19.0902C22.0864 18.9699 24.3889 19.3029 24.8746 21.2185C25.0252 21.9155 25.322 22.2215 25.8207 22.6774C28.9859 26.7302 17.9425 27.4114 17.3748 23.4594C16.1788 23.8951 14.8769 23.9874 13.6802 24.4278C13.0311 24.6677 12.4426 25.0462 11.8786 25.4419C9.57878 27.076 7.31152 28.7567 5.01991 30.4025C5.9067 30.811 7.59271 32.3708 6.9057 33.4189C6.74566 33.623 6.5081 33.7638 6.29796 33.913L6.18715 33.9922C5.94876 34.1631 5.54746 34.4544 5.32554 34.6127L5.28462 34.6425C5.26857 34.6541 5.25047 34.6671 5.23412 34.6788C6.83443 37.0194 8.70733 39.1791 10.7848 41.1073C10.9617 41.2718 10.8893 41.6397 10.6332 41.6825L10.3282 41.7273C9.34336 41.8708 8.33978 41.9999 7.3473 41.922C6.38069 41.8168 5.79822 40.9608 5.13744 40.3408C3.81791 38.9915 2.58958 37.5523 1.47077 36.0319L1.44748 35.9998C1.09927 35.5238 0.637085 35.0373 0.60326 34.4226C0.54157 34.2378 0.703917 33.973 0.859911 33.847L0.913166 33.7701C1.74983 32.5663 2.69673 31.4055 3.88307 30.5337C3.87866 30.4038 3.93869 30.2673 4.05756 30.1812L9.01556 26.5918C10.2948 25.7111 11.4838 24.6761 12.8704 23.9649C14.2883 23.282 15.8883 23.2551 17.3413 22.6852C17.3721 22.2744 18.2354 22.1695 18.2081 22.233C19.119 21.683 19.588 21.0285 19.7326 20.4271C19.8772 19.8256 19.6975 19.2771 20.407 19.0902ZM32.6678 31.9769C34.2008 29.6692 35.6622 32.2225 36.3004 33.7613C37.0545 35.8672 35.4929 38.4578 34.484 40.2732C34.1124 40.7774 33.6237 41.8409 32.9688 41.918C31.3187 41.9112 29.6663 41.795 28.0153 41.7604C26.9492 41.4958 28.4449 39.893 29.4782 40.4785C29.7912 40.5956 29.9476 40.9512 30.2529 41.0653C30.3641 41.089 30.3718 41.0394 30.417 40.9286L30.4234 40.9131C30.5041 40.7214 30.5823 40.5286 30.6617 40.3364C31.334 38.6803 32.0446 37.0389 32.7512 35.3982C32.9022 35.0419 32.6904 34.7484 32.4152 34.5364C32.2045 34.3629 31.2986 33.9393 32.1521 34.1257C31.8235 33.3626 32.2184 32.588 32.6678 31.9769ZM28.8615 28.8179C29.0091 28.7995 29.1987 28.9483 29.2214 29.0924C29.4097 30.2875 29.1999 31.4689 28.9484 32.6379L28.9022 32.8519C28.8094 33.2783 28.7057 33.713 28.4744 34.0867C28.2383 34.4681 27.8812 34.7555 27.4711 34.9303C26.1558 35.4546 24.52 34.9361 23.5524 33.9557C22.9334 33.1075 23.4776 32.0419 23.5814 31.1122C23.4832 30.8617 23.447 30.572 23.3903 30.3137L23.3833 30.2829L23.1627 29.3194C23.1141 29.1068 23.2689 28.816 23.5233 28.8452C25.2971 29.0487 27.0899 29.0396 28.8615 28.8179Z" fill="#D08B5B"/>
<rect x="23.0625" y="28.8691" width="6.22848" height="6.26223" fill="#FDEA6B"/>
<path fill-rule="evenodd" clip-rule="evenodd" d="M35.0558 31.6755C35.0504 31.6518 35.0789 31.6336 35.0974 31.6514C35.4094 31.9523 35.6298 32.3368 35.8717 32.6931C36.1021 33.0325 36.3528 33.3588 36.5246 33.7333C36.6842 34.0815 36.7872 34.4347 36.8179 34.8173C36.8486 35.1971 36.8088 35.5779 36.7418 35.952C36.6101 36.6891 36.3284 37.387 36.0191 38.0649C35.7185 38.7239 35.3788 39.3642 35.02 39.9928L34.8915 40.2172C34.7346 40.4904 34.5761 40.7632 34.4063 41.0279C34.195 41.3573 34.0022 41.6973 33.7237 41.9722C33.5259 42.1679 33.1531 41.9722 33.2432 41.6926C33.2824 41.5708 33.313 41.4562 33.3738 41.3431C33.4198 41.257 33.4717 41.1734 33.5206 41.0886C33.6182 40.9189 33.7149 40.7486 33.8126 40.5789C34.0176 40.2222 34.2335 39.8722 34.4367 39.5143C34.7891 38.8937 35.1218 38.2615 35.416 37.6109L35.4506 37.5341C35.7214 36.9316 35.9779 36.3075 36.0968 35.6558C36.222 34.9692 36.1099 34.322 35.8661 33.6766C35.74 33.3428 35.5982 33.0166 35.4508 32.6916L35.4224 32.6295C35.2801 32.3193 35.1291 32.0107 35.0558 31.6755ZM19.9024 19.7986C19.9052 19.7864 19.9259 19.7854 19.9277 19.7986C20.0154 20.3816 19.8204 20.9984 19.5027 21.4834C19.3293 21.7483 19.1155 21.9875 18.8636 22.1798L18.844 22.1946C18.5866 22.3871 18.2388 22.573 17.9193 22.4482C17.9093 22.4443 17.8999 22.44 17.8911 22.435C17.9271 22.4907 17.9603 22.5493 17.9941 22.6078C18.0946 22.7822 18.1847 22.9629 18.2827 23.1389C18.458 23.4535 18.6667 23.735 18.9306 23.9814C19.9856 24.9666 21.4671 25.2007 22.8584 25.1895L22.9567 25.1886C23.5678 25.1843 24.3671 25.2155 24.8389 24.773C25.0924 24.5354 25.232 24.1975 25.3581 23.8803C25.4821 23.5694 25.5669 23.2484 25.6698 22.9322C25.4548 22.7848 25.2576 22.6047 25.1027 22.3943C24.9412 22.1751 24.8191 21.9284 24.7487 21.665L24.7383 21.6257C24.6839 21.4157 24.6291 21.1379 24.7168 20.9396C24.7268 20.9167 24.7644 20.9183 24.775 20.9396C24.8223 21.0344 24.8313 21.1415 24.8605 21.243C24.8943 21.361 24.9324 21.4784 24.9828 21.5902C25.0802 21.8069 25.2088 22.0129 25.3631 22.1933C25.4905 22.3426 25.6285 22.4798 25.7863 22.595C25.8792 22.4344 26.0949 22.4128 26.2755 22.4657C26.5176 22.5364 26.7563 22.6272 26.9897 22.7232L27.0364 22.7425C27.267 22.8383 27.5277 22.9263 27.7437 23.0568C27.8749 23.1194 28.0007 23.1824 28.119 23.2381C28.7085 23.5152 29.2893 23.8091 29.8674 24.1088L29.9913 24.1731C30.2335 24.2993 30.4736 24.4267 30.6842 24.6027C30.8986 24.7818 31.0652 25.0266 31.2216 25.2561C31.5794 25.7809 31.9165 26.3207 32.2702 26.8483C32.9844 27.9129 33.6986 28.9775 34.417 30.0395C34.5907 30.2966 34.7866 30.5474 34.9425 30.8154C35.0918 31.0716 35.0877 31.3346 35.0586 31.6204L35.0531 31.6729C34.9973 32.1973 34.9014 32.7009 34.6073 33.1506C34.1443 33.8576 33.4151 34.2978 32.6436 34.6009C32.7378 34.6711 32.8263 34.7468 32.9387 34.7951C33.1115 34.869 33.2958 34.9072 33.4827 34.9225C33.6821 34.9385 33.9068 34.8887 34.0683 35.0243C34.1331 35.0784 34.1349 35.2087 34.0683 35.2629C33.913 35.3896 33.7123 35.3533 33.5231 35.3321L33.5118 35.3308C33.3362 35.3114 33.1631 35.2788 32.9982 35.2143C32.9575 35.1983 32.9171 35.1805 32.878 35.1608C32.8792 35.1642 32.8799 35.1683 32.8792 35.1727C32.8511 35.3884 32.79 35.5924 32.7255 35.7985L32.6846 35.9292C32.6013 36.1959 32.5174 36.4621 32.431 36.7282C32.2666 37.2349 32.0876 37.7367 31.9079 38.238L31.7528 38.6705C31.5935 39.1142 31.4321 39.5573 31.2539 39.9937C31.1437 40.2629 31.0329 40.5322 30.9224 40.8012C30.8144 41.0639 30.7246 41.3475 30.5907 41.5977C30.4805 41.8038 30.18 41.6562 30.2282 41.4446C30.2914 41.1669 30.4107 40.8913 30.5018 40.6211C30.5944 40.3468 30.6852 40.0722 30.7794 39.7986C30.9432 39.3232 31.1247 38.8541 31.3071 38.3854L31.4879 37.9209C31.6652 37.4657 31.8446 37.011 32.0364 36.5617L32.0573 36.5124C32.2565 36.0425 32.4622 35.514 32.8241 35.1499C32.8288 35.1448 32.8354 35.1423 32.842 35.1417C32.7531 35.0935 32.6698 35.0349 32.5966 34.9657L32.593 34.9621C32.5641 34.9314 32.4445 34.7803 32.406 34.6899C32.3559 34.7077 32.3058 34.7249 32.2558 34.7418C32.1684 34.7713 32.0961 34.75 32.0451 34.7033L31.9479 34.7635C31.844 34.8269 31.7323 34.8872 31.6176 34.8902C31.473 34.894 31.3594 34.8142 31.2821 34.6964C31.2126 34.5912 31.1713 34.4776 31.0833 34.3833C30.9968 34.2907 30.8967 34.2125 30.7945 34.1379L30.6739 34.0501C30.4528 33.8886 30.2385 33.7255 30.0605 33.5122C29.9709 33.4045 29.8511 33.2768 29.7966 33.1474C29.786 33.1225 29.7794 33.099 29.7781 33.0761C29.7662 33.1569 29.754 33.238 29.7418 33.3187C29.5709 34.4557 29.4329 35.6004 29.3888 36.7501C29.3672 37.3171 29.3575 37.8848 29.3828 38.4522C29.3954 38.7356 29.416 39.0186 29.4445 39.3011C29.4586 39.4426 29.4733 39.5838 29.4905 39.7247L29.4945 39.7573C29.4995 39.8005 29.5027 39.8423 29.499 39.8819C29.6367 39.9498 29.7159 40.1214 29.7709 40.2554C29.8129 40.3575 29.7803 40.4567 29.7127 40.5284C29.7935 40.602 29.8655 40.6884 29.9259 40.7874C29.9381 40.8074 29.9118 40.8231 29.8961 40.8106C29.7969 40.7317 29.6902 40.6668 29.5788 40.6171C29.5202 40.6393 29.4564 40.6452 29.3975 40.629C29.3337 40.6114 29.2786 40.5688 29.2389 40.5147C28.9224 40.4627 28.5935 40.5263 28.3087 40.7245C28.2495 40.7658 28.196 40.8124 28.145 40.8631C28.1362 40.872 28.1271 40.8832 28.118 40.8942L28.1802 40.918C28.2059 40.9278 28.2271 40.9355 28.2351 40.9371C28.2894 40.9481 28.3444 40.954 28.3995 40.9588L28.4821 40.9656C28.7991 40.9919 29.1152 41.0006 29.4101 41.1334C29.472 41.1612 29.4504 41.2567 29.3919 41.2727C29.1766 41.3311 28.963 41.3266 28.7438 41.311L28.6968 41.3075C28.493 41.2918 28.2742 41.2928 28.0755 41.2364C28.1231 41.3666 28.0583 41.5367 27.8595 41.5633C27.2626 41.6428 26.662 41.6053 26.0645 41.5526C25.4611 41.4994 24.858 41.449 24.2529 41.4174C22.2959 41.3144 20.3359 41.3342 18.3772 41.3621L17.2703 41.3782C16.3875 41.3906 15.5046 41.4003 14.6219 41.3936L14.2087 41.3897C14.0341 41.388 13.8594 41.3859 13.6849 41.3808L13.5803 41.3773C13.3725 41.3698 13.0974 41.4011 12.9168 41.278C12.7678 41.1766 12.7346 40.9906 12.8245 40.8407C12.8504 40.7974 12.8861 40.7589 12.9234 40.7213C12.9997 40.0685 13.0426 39.4125 13.0864 38.7569C13.2385 36.4624 13.1497 34.1798 12.7988 31.9085C11.8573 32.1963 10.9303 32.5573 10.027 32.9446C9.53839 33.154 9.05232 33.3713 8.57188 33.5993C8.13338 33.8075 7.69301 34.0677 7.22446 34.203C7.18187 34.2408 7.12232 34.2588 7.0695 34.242L7.06265 34.2396H7.06234C7.01414 34.2509 6.96061 34.244 6.90803 34.2124C6.89739 34.2059 6.88675 34.1994 6.87611 34.1928L6.86014 34.1826C6.6952 34.0787 6.52931 33.9506 6.41257 33.794C6.27079 33.9256 6.11836 34.0461 5.96844 34.1682C5.80568 34.301 5.64356 34.4344 5.48268 34.569C5.41883 34.6225 5.34841 34.6736 5.29207 34.7353L5.28389 34.7443C5.28258 34.7458 5.28132 34.7473 5.28018 34.7487C5.52399 34.9065 5.73745 35.1461 5.92869 35.3543C6.13404 35.5777 6.33229 35.8083 6.52893 36.0398L6.71928 36.2644C8.06533 37.8545 9.42515 39.5022 11.1678 40.6709C11.4432 40.8557 11.1806 41.3056 10.9071 41.1168C10.3894 40.7602 9.89958 40.3641 9.42916 39.9473C8.60474 39.2175 7.86296 38.3987 7.16844 37.5454C6.81695 37.1136 6.47579 36.6713 6.14152 36.226L6.02807 36.075C5.87688 35.8735 5.7265 35.6715 5.58252 35.4648L5.5524 35.4215C5.42611 35.2392 5.29181 35.0344 5.21038 34.8245C5.17908 34.8561 5.14371 34.8827 5.09207 34.9028C5.00381 34.9372 4.89551 34.8649 4.87392 34.7788C4.82133 34.5699 5.00287 34.4456 5.1506 34.3348C5.32994 34.2008 5.51273 34.0715 5.69583 33.9428L5.76123 33.8965C5.9902 33.7341 6.22037 33.5673 6.46985 33.439C6.47736 33.429 6.48644 33.4196 6.49676 33.4114C6.50866 33.402 6.52024 33.393 6.53213 33.3839C6.23417 32.9004 5.90741 32.4358 5.54277 31.9968C5.2686 31.6665 4.97752 31.3511 4.66953 31.0524L4.53118 30.9184C4.3219 30.7162 4.1043 30.5112 3.87204 30.3354L3.79933 30.4179C3.70224 30.5277 3.60418 30.6368 3.50052 30.74C3.29645 30.9429 3.0952 31.1498 2.89489 31.3568C2.56222 31.7011 2.24083 32.056 1.92045 32.4115L1.7603 32.5892C1.42666 32.9596 1.06922 33.3231 0.765935 33.7189L0.750789 33.7389C0.618381 33.9166 0.524126 34.1132 0.585654 34.3389C0.645021 34.5564 0.786169 34.7494 0.907829 34.9372L0.919926 34.956C1.41664 35.73 1.94872 36.4843 2.51867 37.2061C3.66014 38.6517 4.96218 40.0218 6.51586 41.0269C6.73119 41.1663 6.52994 41.5126 6.31429 41.3717C5.40694 40.7783 4.57345 40.0657 3.80662 39.3004C3.10271 38.5981 2.46484 37.8247 1.86703 37.031C1.57564 36.6437 1.29645 36.2482 1.02885 35.844C0.769378 35.4517 0.469222 35.0481 0.281115 34.6153C0.182531 34.3877 0.146217 34.1413 0.226968 33.9014C0.301023 33.681 0.447478 33.498 0.599837 33.3258L0.614136 33.3097C0.96437 32.9161 1.32086 32.5272 1.68049 32.1421C2.04137 31.7557 2.41883 31.3831 2.80412 31.0214C3.10678 30.7368 3.42227 30.486 3.75968 30.2537C3.72932 30.2321 3.69896 30.2114 3.66797 30.1914C3.57376 30.13 3.54997 29.9988 3.6326 29.9155C3.85827 29.6876 4.11836 29.4894 4.36312 29.2818C4.59316 29.0867 4.82321 28.8913 5.05326 28.696C5.52149 28.2989 5.98972 27.9016 6.45795 27.5043C7.29895 26.7907 8.13526 26.0721 8.97345 25.3554C9.32295 25.0566 9.67572 24.7616 10.0276 24.4657L10.6527 23.9394L10.9585 23.6826C11.1151 23.5513 11.2751 23.4215 11.4533 23.3214C11.8724 23.0859 12.3764 22.9839 12.8382 22.8592L12.8689 22.8508C13.3869 22.709 13.9077 22.5756 14.4313 22.4566C14.9556 22.3376 15.4821 22.2293 16.0107 22.1312C16.4858 22.043 16.9722 21.9672 17.4567 21.9559C17.5769 21.9102 17.7277 21.8942 17.8461 21.9431C17.8949 21.9634 17.9459 21.9932 17.9913 22.0308C18.2282 21.9475 18.462 21.9077 18.6833 21.7668C18.9043 21.6262 19.0999 21.4415 19.2645 21.238C19.6047 20.8165 19.7828 20.3187 19.9024 19.7986ZM25.3487 34.0699C25.1609 34.0568 24.9919 34.1344 24.8242 34.2171C24.9187 34.2581 25.0132 34.2988 25.1077 34.3392L25.7368 34.6078C25.9447 34.6964 26.1647 34.7735 26.3622 34.8827C26.3763 34.8905 26.3875 34.9 26.396 34.9109C26.6013 34.7794 26.8185 34.662 27.0267 34.5371C27.0742 34.5086 27.1221 34.4801 27.17 34.4516C26.9221 34.5346 26.668 34.5762 26.3988 34.4982C26.0398 34.3946 25.7281 34.0965 25.3487 34.0699ZM25.8633 33.4399L25.8295 33.417C25.6474 33.292 25.43 33.1313 25.2088 33.2436C25.1046 33.2965 25.0191 33.382 24.9165 33.439C24.8132 33.4966 24.6996 33.5407 24.5844 33.5674C24.3932 33.6115 24.1741 33.6181 23.9684 33.5755L23.9716 33.8535C24.1271 33.9177 24.2817 33.9835 24.4364 34.0499C24.5367 34.0155 24.6334 33.9743 24.7349 33.929L24.8035 33.8983C24.9991 33.8103 25.1966 33.7515 25.4129 33.7793C25.8201 33.8316 26.1277 34.1344 26.5171 34.2352C26.9944 34.3592 27.4251 34.0029 27.8761 33.9149C27.9505 33.9003 28.0271 33.8917 28.1033 33.8903L28.1287 33.8902L28.14 33.8836C28.237 33.8266 28.3822 33.7722 28.4498 33.6763C28.5234 33.5724 28.5296 33.3983 28.5537 33.2762C28.5562 33.2639 28.5587 33.2514 28.5609 33.2392C28.5184 33.2392 28.4752 33.2414 28.4313 33.2495C28.2936 33.2749 28.1641 33.3238 28.0357 33.3783C27.7932 33.4812 27.5559 33.5987 27.3005 33.6672C27.0504 33.7345 26.7891 33.7665 26.5315 33.7292C26.2802 33.6929 26.0714 33.5796 25.8633 33.4399ZM25.9025 32.4623L25.8648 32.438C25.7653 32.3746 25.6512 32.3088 25.5293 32.3321C25.4204 32.3531 25.3268 32.4398 25.232 32.4934C25.0238 32.6108 24.7903 32.675 24.5522 32.6913C24.354 32.7047 24.1484 32.6806 23.9578 32.6218L23.9644 33.2374C24.0342 33.2596 24.1065 33.2755 24.1825 33.2812C24.4135 33.2984 24.6389 33.243 24.8326 33.1155L24.9306 33.0504C25.0983 32.9402 25.2557 32.8527 25.4777 32.8929C25.6974 32.933 25.8817 33.0739 26.0614 33.1966L26.0909 33.2164C26.2972 33.3527 26.5063 33.4406 26.7594 33.4427C27.0326 33.4449 27.3027 33.3688 27.5572 33.2752C27.8098 33.1826 28.0498 33.0714 28.3199 33.0373C28.4026 33.0269 28.5033 33.0238 28.5982 33.0401C28.6107 32.9702 28.6226 32.9008 28.6339 32.8309C28.6583 32.6809 28.6792 32.5313 28.6974 32.3813C28.2182 32.2523 27.7756 32.6697 27.3306 32.7983C27.0724 32.8729 26.7913 32.872 26.5331 32.7999C26.2941 32.7332 26.1063 32.5948 25.9025 32.4623ZM25.9036 31.4257C25.8013 31.4059 25.7002 31.4532 25.6132 31.5018C25.3913 31.6248 25.1997 31.7961 24.9484 31.8609C24.6251 31.9442 24.2714 31.8725 23.9503 31.7363C23.9515 31.9263 23.9531 32.1164 23.9547 32.3065C24.0151 32.3293 24.077 32.3478 24.1403 32.3625C24.365 32.4138 24.6032 32.407 24.8245 32.3421C25.0501 32.276 25.2232 32.0976 25.4495 32.0419C25.6809 31.9847 25.899 32.0959 26.0855 32.2224L26.1416 32.2607C26.3548 32.4054 26.5615 32.5311 26.8282 32.5557C27.1102 32.5817 27.3553 32.4934 27.6072 32.3763L27.6659 32.3491C27.9849 32.2026 28.399 32.0357 28.7174 32.2025C28.7425 31.9658 28.7606 31.7291 28.7728 31.492C28.729 31.4758 28.6836 31.4639 28.6313 31.4636C28.5065 31.463 28.3753 31.5024 28.2589 31.5434C28.0044 31.6333 27.7675 31.7672 27.5155 31.8634C27.2767 31.9548 27.0123 32.0024 26.7575 31.9614C26.5215 31.9235 26.3443 31.8002 26.1813 31.6311L26.1576 31.6061C26.0861 31.53 26.0096 31.4462 25.9036 31.4257ZM26.0905 30.5468C25.9725 30.4845 25.8288 30.4265 25.6924 30.4447C25.5622 30.4619 25.4754 30.5502 25.3952 30.6447L25.3518 30.6964C25.2084 30.8661 25.0672 31.0089 24.8461 31.0787C24.6169 31.1508 24.3741 31.1226 24.1609 31.0171C24.0852 30.9795 24.0148 30.9328 23.944 30.8868L23.9478 31.3862C24.0893 31.4566 24.2332 31.5202 24.3913 31.5587C24.683 31.6298 24.9309 31.5772 25.1803 31.4163L25.2065 31.3992C25.3944 31.2758 25.5871 31.1288 25.8191 31.1151C26.0456 31.1015 26.2156 31.2271 26.3648 31.3808L26.3822 31.3991C26.5703 31.5975 26.7603 31.6943 27.0401 31.6715C27.3114 31.6493 27.5653 31.5295 27.8138 31.4262L27.8364 31.4169C28.0636 31.3236 28.3256 31.2275 28.575 31.2632C28.6348 31.2716 28.7121 31.2901 28.781 31.3223C28.791 31.0887 28.7957 30.8549 28.7966 30.6207C28.6548 30.4976 28.4342 30.4773 28.2567 30.5277C27.9788 30.6066 27.7512 30.8101 27.4858 30.9206C27.2504 31.0186 27.0051 31.0405 26.765 30.9478C26.5171 30.852 26.3227 30.6695 26.0905 30.5468ZM28.781 29.563C28.3656 29.5774 27.9594 29.8476 27.5628 29.9506C27.1198 30.0656 26.7583 29.9088 26.3637 29.7348L26.3127 29.7124C26.1102 29.6234 25.8927 29.5436 25.6683 29.5799C25.4495 29.6156 25.2561 29.7367 25.068 29.8463L25.0319 29.8671C24.6892 30.0623 24.3403 30.1959 23.9403 30.1625C23.9425 30.2881 23.9415 30.4134 23.9418 30.5361C24.0076 30.5737 24.0708 30.6163 24.1309 30.6551L24.1524 30.6688C24.3432 30.7881 24.5398 30.8665 24.7672 30.7929C24.9869 30.7215 25.0902 30.5302 25.2411 30.3727C25.3797 30.228 25.5606 30.1401 25.7634 30.1485C25.9816 30.1572 26.1878 30.2534 26.3681 30.3708C26.5484 30.4882 26.7227 30.64 26.9337 30.6989C27.4069 30.8304 27.8123 30.3298 28.2598 30.2518C28.4476 30.2189 28.6548 30.2606 28.7966 30.3739C28.795 30.104 28.7891 29.8335 28.781 29.563ZM25.206 29.4496C25.1475 29.4518 25.0889 29.4543 25.0304 29.4568C24.8138 29.4662 24.5972 29.4769 24.3806 29.4891C24.2307 29.4972 24.0464 29.5432 23.8993 29.4975C23.8955 29.5126 23.8905 29.527 23.8839 29.5411C23.9062 29.6519 23.9199 29.7665 23.9284 29.8823C24.0642 29.8971 24.2022 29.892 24.3362 29.8642C24.6576 29.7975 24.9187 29.5946 25.206 29.4496ZM28.7747 29.3566C27.9838 29.4111 27.1868 29.3924 26.3946 29.4095L26.2996 29.4117C26.2958 29.4117 26.2921 29.4121 26.2883 29.4121C26.3792 29.4473 26.4693 29.4876 26.5591 29.5287L26.6489 29.5699C26.8611 29.6675 27.077 29.7474 27.3146 29.7302C27.5691 29.7117 27.8088 29.6078 28.0467 29.5238C28.2736 29.4437 28.5349 29.3898 28.7769 29.4249C28.7763 29.402 28.7756 29.3795 28.7747 29.3566Z" fill="black"/>
<path fill-rule="evenodd" clip-rule="evenodd" d="M22.2036 7.99219C23.977 7.99219 26.5727 9.17939 26.7679 10.3216C26.998 11.6677 27.5089 16.7292 27.2308 18.3856C26.9526 20.0419 25.8679 21.2657 23.4693 21.2657C21.0707 21.2657 19.2803 19.9544 18.8693 19.5041C18.4582 19.0539 17.9601 17.6527 17.9601 17.6527C17.9601 17.6527 16.6468 17.4296 16.6407 16.38C16.6346 15.3305 17.3005 15.0062 17.3005 15.0062C17.3005 15.0062 16.9411 10.6524 17.6964 9.57409C18.4517 8.49576 20.4301 7.99219 22.2036 7.99219Z" fill="#D08B5B"/>
<path fill-rule="evenodd" clip-rule="evenodd" d="M27.5574 13.5369C27.6545 14.5949 27.6911 15.6619 27.7099 16.724C27.728 17.7304 27.6396 18.7799 27.0677 19.6403C26.5677 20.3931 25.8062 20.9394 24.9582 21.2344C24.4757 21.4025 23.9413 21.4648 23.4316 21.4802C23.1683 21.488 22.9044 21.4767 22.6426 21.4495C22.6097 21.446 22.5766 21.4431 22.5435 21.4401C22.3218 21.4203 22.102 21.4007 21.9405 21.2328C21.8896 21.1799 21.8902 21.0713 21.9655 21.0368C22.1089 20.9714 22.206 20.9645 22.3631 20.9861C22.4933 21.0039 22.6239 21.018 22.755 21.0271C23.0361 21.0468 23.3191 21.0475 23.6002 21.0259C24.1168 20.9861 24.6453 20.8398 25.1144 20.6182C25.8499 20.27 26.4818 19.6995 26.8228 18.9509C27.2138 18.0937 27.1942 17.1025 27.1759 16.1795L27.1752 16.1416C27.1548 15.1178 27.1171 14.097 27.0284 13.0766C26.9947 12.6905 26.9468 12.3066 26.8989 11.9225C26.8854 11.8144 26.8719 11.7063 26.8588 11.5981C26.8272 11.3363 26.7857 11.0758 26.7347 10.8172C26.7194 10.7391 26.7015 10.6616 26.6835 10.5842C26.67 10.526 26.6565 10.4678 26.6442 10.4095C26.6233 10.4129 26.602 10.4148 26.5802 10.4157C26.4496 10.4201 26.3069 10.3882 26.21 10.2952C26.1729 10.3206 26.1257 10.3365 26.0689 10.3394C25.7217 10.3566 25.371 10.3489 25.021 10.3412C24.8298 10.3371 24.6389 10.3329 24.4488 10.3328C23.9091 10.3325 23.3691 10.3328 22.8291 10.3344C22.7468 10.3346 22.6644 10.3349 22.582 10.3352C22.1246 10.337 21.6665 10.3387 21.2097 10.3265C21.1129 10.3239 21.0154 10.3222 20.9176 10.3205C20.5085 10.3135 20.0934 10.3063 19.6936 10.232C19.5272 10.825 19.5331 11.4766 19.8801 12.0064C19.9781 12.1557 19.8985 12.3317 19.7708 12.425C19.6402 12.5202 19.4055 12.6662 19.2046 12.6812C19.1969 12.6988 19.189 12.7163 19.1811 12.7337C19.1693 12.7599 19.1576 12.786 19.1462 12.8121C19.0504 13.031 18.964 13.2514 18.9036 13.4832C18.8724 13.6027 18.8456 13.7241 18.8231 13.8463C18.8249 13.8677 18.8268 13.8891 18.8291 13.9104C18.8291 13.9123 18.8293 13.9142 18.8296 13.9164L18.8297 13.9173L18.8335 13.9417C18.8363 13.9567 18.8391 13.9718 18.8419 13.9868C18.8506 14.0331 18.8592 14.0794 18.8685 14.1255C18.8975 14.2742 18.92 14.4242 18.9359 14.5748C18.965 14.8504 18.9622 15.2086 18.6942 15.3717C18.5508 15.459 18.379 15.45 18.2275 15.3914C18.1431 15.3587 18.0691 15.3147 17.9929 15.2694C17.9772 15.2601 17.9615 15.2508 17.9455 15.2414C17.9209 15.227 17.8957 15.2137 17.8707 15.2005C17.8391 15.1839 17.8077 15.1673 17.7775 15.1484C17.7625 15.139 17.7481 15.1278 17.7347 15.1159C17.6332 15.1375 17.5342 15.1779 17.4786 15.2054C17.3296 15.2796 17.1987 15.387 17.0875 15.5104C16.8511 15.7731 16.7802 16.1432 16.8133 16.4867C16.8442 16.8064 16.9695 17.1736 17.2215 17.3863C17.3311 17.4789 17.468 17.5331 17.6126 17.5315C17.6838 17.5309 17.7494 17.5159 17.8181 17.4977C17.8474 17.49 17.8797 17.4866 17.912 17.4832C17.9543 17.4788 17.9966 17.4744 18.032 17.4601C18.1248 17.4229 18.2391 17.5365 18.2013 17.6299C18.1929 17.6506 18.1856 17.6706 18.1785 17.6899C18.1616 17.736 18.1461 17.7782 18.121 17.8168C18.3797 18.2401 18.6629 18.6503 18.9643 19.0439C19.1554 19.2931 19.3703 19.5145 19.5862 19.7369C19.6773 19.8307 19.7685 19.9247 19.8582 20.0211C19.9916 20.1645 20.0472 20.4469 19.8058 20.5083C19.5934 20.5627 19.4284 20.3675 19.2975 20.2126C19.2799 20.1919 19.263 20.1718 19.2467 20.1532C18.6736 19.4998 18.2404 18.7495 18.0376 17.9026C17.9462 17.9677 17.8412 18.0031 17.7306 18.0184C17.5104 18.0488 17.2878 18.0053 17.0947 17.8935C16.3639 17.4705 16.1871 16.3273 16.5294 15.6109C16.6119 15.4384 16.7339 15.2844 16.8825 15.1649C16.8708 15.1424 16.8662 15.1161 16.8737 15.0878C16.8869 15.0383 16.9014 14.9894 16.9167 14.9407C16.9 14.9333 16.8879 14.9179 16.8902 14.8951C16.9018 14.7759 16.9132 14.6567 16.9246 14.5375L16.9308 14.4724C16.9293 14.4078 16.9274 14.3432 16.9254 14.2786C16.921 14.1303 16.9165 13.9819 16.9182 13.8327C16.92 13.674 16.9254 13.5154 16.9308 13.3567C16.937 13.1742 16.9432 12.9918 16.9439 12.8092C16.9459 12.2179 16.9589 11.627 16.9718 11.036C16.9849 10.4371 16.998 9.83827 16.9998 9.23909C17.0016 8.65698 17.0029 8.074 16.9876 7.49224C16.9874 7.48811 16.9873 7.48408 16.9873 7.48004C16.9872 7.47641 16.9871 7.47277 16.987 7.46907C16.9851 7.39767 16.9805 7.32257 16.9759 7.2455C16.9503 6.81994 16.9211 6.33419 17.3056 6.07914C17.3802 6.02969 17.4733 6.02907 17.5545 6.06101C17.7881 5.89787 18.0811 5.81925 18.3612 5.77385C18.7742 5.70701 19.19 5.66694 19.606 5.62685C19.7277 5.61512 19.8493 5.60339 19.971 5.59099C20.2514 5.5625 20.5466 5.55157 20.8289 5.55784C20.9758 5.56106 21.1237 5.55574 21.2718 5.55042C21.4115 5.5454 21.5515 5.54037 21.691 5.54249C22.017 5.54782 22.3456 5.56003 22.6729 5.58696C22.6805 5.58618 22.6882 5.58547 22.6959 5.58477C22.7037 5.58406 22.7115 5.58336 22.7192 5.58257C23.215 5.53491 23.7102 5.56011 24.2057 5.58532C24.3256 5.59143 24.4456 5.59754 24.5656 5.60261C25.1522 5.62735 25.7715 5.68809 26.2981 5.96955C26.3658 6.00568 26.4232 6.04676 26.4722 6.09254C26.5408 6.10221 26.6062 6.12172 26.665 6.1545C26.8346 6.12015 27.0238 6.1963 27.0639 6.39353C27.1223 6.68253 27.1445 6.97401 27.1095 7.26711C27.109 7.2708 27.1086 7.27459 27.1082 7.27848C27.1078 7.28182 27.1075 7.28524 27.107 7.28872C27.1778 7.56062 27.1731 7.85758 27.1143 8.12576C27.1391 8.46461 27.1532 8.80443 27.1552 9.14368C27.1555 9.19501 27.1562 9.24655 27.157 9.29819C27.1596 9.48265 27.1622 9.66848 27.1452 9.85128C27.1261 10.057 27.0416 10.2198 26.9087 10.376C26.8837 10.4055 26.8413 10.4103 26.8061 10.4032C26.797 10.4014 26.7891 10.3989 26.7819 10.3959C26.8475 10.5368 26.9018 10.6848 26.955 10.8295C26.9667 10.8616 26.9785 10.8935 26.9903 10.9252C27.0933 11.2026 27.1933 11.4847 27.2641 11.7722C27.4078 12.3517 27.5024 12.9423 27.5574 13.5369ZM17.6046 16.1597C17.5749 16.1392 17.545 16.1185 17.5126 16.1031C17.5086 16.1012 17.3374 16.0455 17.3705 16.1191C17.3818 16.1435 17.3524 16.1707 17.3315 16.1491C17.2721 16.0887 17.3052 16.0161 17.3618 15.9622C17.4639 15.8648 17.6163 15.8874 17.7416 15.9106C17.9158 15.9428 18.0851 16.0192 18.2319 16.1172C18.39 16.2227 18.5852 16.3689 18.6164 16.569C18.6448 16.7528 18.4624 16.9554 18.2747 16.8324C18.1731 16.7656 18.102 16.6665 18.0307 16.5669C17.9798 16.496 17.9288 16.4249 17.8665 16.3652C17.7931 16.2951 17.7137 16.2334 17.6298 16.177C17.6213 16.1713 17.613 16.1655 17.6046 16.1597Z" fill="black"/>
<path fill-rule="evenodd" clip-rule="evenodd" d="M24.2085 19.0034C23.9981 18.9175 23.8103 18.7743 23.6731 18.5913C23.6254 18.5277 23.613 18.4606 23.623 18.3991C23.6343 18.33 23.6751 18.2674 23.7308 18.2254C23.7867 18.1833 23.8566 18.1625 23.9242 18.1731C23.9829 18.1823 24.0414 18.2145 24.0876 18.2812L24.0973 18.2946C24.1789 18.405 24.2852 18.4956 24.4064 18.554C24.5232 18.6103 24.6538 18.6366 24.7889 18.6213C25.0463 18.5922 25.2237 18.4529 25.4123 18.2638C25.4357 18.24 25.459 18.2153 25.4825 18.1903C25.4974 18.1676 25.518 18.153 25.5408 18.1454C25.5662 18.1369 25.595 18.1374 25.6213 18.1466C25.6466 18.1554 25.6693 18.1722 25.6845 18.1946C25.699 18.2158 25.7072 18.242 25.7045 18.2722C25.6873 18.4682 25.5849 18.6431 25.4394 18.7804C25.2778 18.933 25.0636 19.0385 24.862 19.0755C24.6398 19.1163 24.4134 19.087 24.2085 19.0034ZM24.9668 15.98C25.2031 16.1237 25.5632 16.4588 25.309 16.8151C25.0097 17.1293 24.5788 16.7691 24.3664 16.6062C24.1695 16.4799 23.9483 16.8047 24.131 16.9521C25.6654 18.0885 26.2881 16.0176 25.0863 15.811C24.954 15.7883 24.9048 15.9355 24.9668 15.98ZM22.2171 14.658C22.2432 14.3338 22.7369 14.2601 22.786 14.581C22.83 14.8684 22.7782 15.1325 22.6488 15.3913C22.5251 15.6385 22.2143 15.5232 22.1908 15.298C22.1593 14.9963 22.2009 14.8597 22.2171 14.658ZM25.975 14.5145C26.0438 14.4243 26.1432 14.3627 26.2622 14.3975C26.6342 14.5063 26.5246 15.0346 26.3939 15.2917C26.323 15.4314 26.0935 15.4668 25.9898 15.3438C25.8208 15.1433 25.7399 14.7429 25.9547 14.5454C25.9605 14.5352 25.967 14.5249 25.975 14.5145ZM22.6435 13.2391L22.7023 13.2288C22.8841 13.1974 23.1101 13.1672 23.2387 13.3134C23.3069 13.3909 23.3304 13.535 23.2387 13.6092C23.0774 13.7398 22.8992 13.6892 22.7059 13.7002C22.5467 13.7094 22.3936 13.7357 22.2402 13.7796C21.9037 13.8758 21.6295 14.0515 21.3421 14.2443C21.3044 14.2696 21.2659 14.2214 21.2839 14.1861C21.4498 13.861 21.7713 13.5939 22.0934 13.4312C22.2653 13.3443 22.4534 13.2722 22.6435 13.2391ZM25.6359 13.0935L25.6809 13.1027C26.1703 13.2051 26.8062 13.4095 27.0379 13.8904C27.0468 13.9584 27.0374 13.973 27.0298 13.9825L27.0273 13.9857C27.0211 13.9938 27.0161 14.005 26.9866 14.0143C26.9784 14.0123 26.9702 14.0103 26.9618 14.0081C26.8556 13.9802 26.7715 13.9419 26.6902 13.902L26.6019 13.8586C26.4996 13.8083 26.3963 13.76 26.2869 13.7242C26.0533 13.648 25.8131 13.5943 25.5691 13.5657C25.5162 13.5595 25.4653 13.5416 25.4252 13.511C25.387 13.482 25.3579 13.4418 25.3446 13.3883C25.3274 13.3192 25.3324 13.2668 25.3695 13.2044C25.3973 13.1575 25.4373 13.1251 25.4831 13.1064C25.5298 13.0874 25.583 13.0829 25.6359 13.0935Z" fill="black"/>
</svg>
