<svg width="36" height="48" viewBox="0 0 36 48" fill="none" xmlns="http://www.w3.org/2000/svg">
<path fill-rule="evenodd" clip-rule="evenodd" d="M6.3716 40.4812C6.329 40.4825 6.34243 40.4701 6.35808 40.4671C6.36258 40.4718 6.36709 40.4765 6.3716 40.4812ZM7.62934 41.4165C8.81955 41.5577 10.0112 41.4285 11.1956 41.2991C13.5949 41.1211 15.9775 41.6395 18.3816 41.4814C21.386 41.3548 24.3986 41.1169 27.3931 41.5177C28.2213 41.5368 29.5424 41.7604 29.242 40.4777C28.8475 37.1801 28.32 33.899 27.7549 30.6268C27.276 28.7923 27.2414 25.6192 25.93 24.3435C25.7383 24.1684 25.0506 23.6019 24.8688 23.5258C23.9649 23.1892 22.3354 22.9265 21.6631 22.2128C21.1186 21.2911 21.3719 20.0333 20.5252 19.2912C19.7831 18.6851 18.1634 18.8132 17.37 19.2684C16.744 19.6744 16.6459 20.4631 16.2559 21.0463C16.1597 21.1861 15.9311 21.5229 15.8021 21.6316C15.4879 21.9342 14.3846 22.252 14.066 22.3104C12.268 22.679 11.3714 22.9068 9.95726 24.102C6.26218 27.8758 6.78596 34.5504 5.76352 39.4852C5.72168 40.0277 5.39201 40.7639 5.98017 41.1132C6.48675 41.356 7.08237 41.3295 7.62934 41.4165Z" fill="#D08B5B"/>
<path fill-rule="evenodd" clip-rule="evenodd" d="M21.2505 20.9579C21.2549 20.9451 21.2755 20.9429 21.2787 20.9579C21.3291 21.1887 21.4236 21.4417 21.5194 21.658C21.6167 21.8772 21.7497 22.0786 21.9178 22.2495C22.2699 22.6077 22.7228 22.7712 23.2195 22.7715L23.2314 22.7718C23.2337 22.7551 23.2363 22.7384 23.2387 22.7217L23.2421 22.6966C23.2874 22.3535 23.6946 22.3635 23.7741 22.6224C23.8145 22.6353 23.8549 22.6481 23.895 22.6616L23.903 22.6644C23.9704 22.6901 24.1989 22.8039 24.2408 22.7737C24.3331 22.7072 24.4386 22.7834 24.4737 22.8682C24.531 23.0071 24.5405 23.1789 24.5591 23.3296L24.5616 23.3491L24.5644 23.3726C25.8712 23.7124 26.6045 25.0202 26.9788 26.2251C27.1816 26.8782 27.3144 27.5521 27.4477 28.2221C27.5904 28.9388 27.7219 29.6574 27.8611 30.3744C28.1356 31.7875 28.3954 33.2037 28.6211 34.6252L28.6865 35.0381C28.8933 36.3452 29.0946 37.6516 29.264 38.9647C29.3554 39.6726 29.4411 40.3812 29.5237 41.0904C29.5386 41.2168 29.5532 41.3434 29.5678 41.4699L29.5895 41.6599C29.6089 41.8303 29.6417 41.9987 29.5575 42.1581C29.3751 42.5037 28.8223 42.5012 28.791 42.0585C28.7848 41.9705 28.8145 41.9032 28.8637 41.8562L28.863 41.8488C28.8625 41.8444 28.862 41.8411 28.8618 41.8396C28.8455 41.7517 28.8411 41.6587 28.8311 41.5697C28.8092 41.38 28.7879 41.1903 28.7663 41.0002C28.7247 40.6382 28.6827 40.2763 28.6392 39.9146C28.5513 39.181 28.4583 38.4483 28.3598 37.7163L28.2621 36.9925C27.9353 34.5797 27.5947 32.1675 27.1466 29.7739C27.0245 29.1223 26.8991 28.4717 26.7704 27.8213C26.6483 27.2054 26.5112 26.5924 26.3065 25.9978C25.9723 25.0265 25.3879 24.1169 24.5766 23.4794C24.5892 23.6012 24.5982 23.7236 24.6098 23.8454C24.6396 24.1582 24.6712 24.4707 24.7031 24.7832C24.8192 25.9154 24.9766 27.0458 25.2452 28.1529C25.3782 28.7015 25.5403 29.2429 25.7378 29.7717C25.8352 30.0322 25.9413 30.2893 26.0577 30.5416C26.1729 30.7912 26.3748 31.058 26.387 31.336C26.3926 31.4647 26.258 31.579 26.1335 31.5652C26.1917 32.0775 26.2245 32.595 26.2593 33.106C26.31 33.8462 26.3503 34.5877 26.4095 35.3272C26.5153 36.652 26.648 37.9749 26.787 39.2966C26.8145 39.5586 26.8445 39.8204 26.8741 40.0822L26.8989 40.3019C26.9156 40.4444 26.9408 40.6152 26.8652 40.7416C26.9328 40.9047 26.9791 41.0722 27.0061 41.2469C27.0402 41.4642 26.916 41.7078 26.6624 41.6984C26.6336 41.6975 26.6048 41.695 26.576 41.6919C26.341 41.7463 26.1065 41.7942 25.8624 41.7958C25.5507 41.798 25.2383 41.7917 24.9266 41.7896C24.3235 41.7855 23.7203 41.7814 23.1172 41.7764C20.9338 41.7589 18.7494 41.7598 16.5663 41.7247L15.6928 41.7109C14.8921 41.698 14.0912 41.6831 13.2909 41.654C12.7397 41.6339 12.1886 41.6136 11.6377 41.5914L11.5255 41.5871C11.0395 41.5694 10.5528 41.5603 10.0721 41.4858C10.0601 41.4838 10.0548 41.4713 10.0567 41.4603L10.0574 41.4573L10.0364 41.4526C10.0242 41.5052 9.7707 41.2842 9.77257 41.1373C9.66741 41.0005 9.71655 40.782 9.72782 40.6235C9.73877 40.4692 9.75254 40.3145 9.76475 40.1601C9.79073 39.8304 9.81295 39.5004 9.83955 39.1707C9.94691 37.8412 10.0396 36.5083 10.0996 35.176C10.13 34.5044 10.1544 33.8324 10.1801 33.1608C10.1916 32.855 10.2077 32.549 10.2377 32.2446L10.2455 32.1685C10.2784 31.8598 10.2752 31.5279 10.3888 31.237C10.3904 31.233 10.3957 31.233 10.3973 31.237C10.5122 31.5201 10.5231 31.8492 10.5463 32.1598C10.5504 32.1586 10.5544 32.1579 10.5588 32.157C10.7175 32.0815 10.8777 32.0136 11.028 31.9203C11.0483 31.9078 11.068 31.8946 11.0881 31.8818C11.3244 31.1585 11.5982 30.4471 11.8502 29.7285C12.6643 27.4049 13.1137 24.9303 13.2133 22.4699C12.5923 22.8704 11.916 23.182 11.2586 23.5165L11.197 23.548C10.5494 23.8793 9.92938 24.2553 9.46835 24.8299C9.06647 25.3302 8.80387 25.9398 8.55818 26.5276C8.29433 27.1591 8.05645 27.8019 7.83893 28.4507C7.39761 29.767 7.05583 31.1156 6.78916 32.4779C6.52594 33.8224 6.33783 35.1769 6.21201 36.5409C6.14785 37.2366 6.08932 37.933 6.04018 38.6303C6.01514 38.9831 5.99292 39.3363 5.97226 39.6898C5.96225 39.8614 5.95473 40.0333 5.94347 40.2049C5.93658 40.3038 5.93533 40.4059 5.90278 40.4998C5.87555 40.5781 5.82735 40.6436 5.78228 40.7128C5.69996 40.8389 5.49214 40.8618 5.41483 40.7128L5.38135 40.6482C5.33704 40.5622 5.29658 40.4757 5.29057 40.3765C5.28494 40.2825 5.29652 40.1845 5.30184 40.0903C5.31217 39.8996 5.32406 39.7086 5.33595 39.5179C5.36099 39.1168 5.38885 38.7157 5.42015 38.315C5.48243 37.5121 5.56256 36.7115 5.66334 35.9124C6.01796 33.106 6.53001 30.3143 7.50716 27.651C7.74879 26.9925 8.01827 26.3393 8.3225 25.7072C8.6167 25.096 8.98885 24.5189 9.52907 24.0981C10.0263 23.7107 10.6044 23.4513 11.1787 23.1996L11.2505 23.1682C11.8943 22.8867 12.5369 22.5836 13.2092 22.3744C13.1942 22.3763 13.1795 22.3782 13.1667 22.3826C13.1519 22.3873 13.1432 22.3682 13.1523 22.3578C13.1904 22.3156 13.2064 22.2721 13.2502 22.2304C13.2805 22.2016 13.312 22.1744 13.3444 22.1482L13.391 22.111C13.4763 22.0433 13.566 21.9741 13.6734 21.9505C13.8252 21.9173 13.8997 22.0554 13.8571 22.1634C13.879 22.1349 13.9378 22.1434 13.9532 22.1825C14.4527 23.4713 14.7807 24.8355 15.453 26.0532C15.9494 26.9528 16.6155 27.7834 17.4993 28.3267C17.9741 28.6185 18.5175 28.8427 19.0787 28.8781C19.5826 28.9097 20.0674 28.7816 20.4959 28.5171C21.3266 28.0045 21.869 27.1046 22.2558 26.2326C22.6812 25.2726 22.9848 24.2497 23.1632 23.2126C22.5979 23.2205 22.0014 22.9625 21.6255 22.542C21.4277 22.3206 21.2802 22.051 21.2054 21.7636C21.13 21.4736 21.1541 21.2353 21.2505 20.9579ZM16.5084 20.2049C16.5773 20.0818 16.73 20.0411 16.8549 20.0912C16.9935 20.147 17.0352 20.2816 17.0155 20.4184C16.9926 20.5787 16.8896 20.7519 16.8095 20.8918C16.7256 21.0384 16.6177 21.1734 16.5059 21.2995C16.2956 21.5375 16.0705 21.752 15.8036 21.9273C15.5379 22.1017 15.2374 22.2323 14.9285 22.3052L14.855 22.3224C14.6147 22.3773 14.2729 22.4403 14.0727 22.3097C14.063 22.3034 14.0633 22.2905 14.0727 22.2843C14.181 22.2088 14.326 22.1953 14.4505 22.1597C14.5863 22.1205 14.7225 22.0761 14.8524 22.0203C15.1087 21.9101 15.3541 21.7648 15.5726 21.5913C15.792 21.4173 16.0042 21.2097 16.151 20.9701C16.2249 20.8499 16.2878 20.7237 16.3482 20.5966C16.4092 20.4691 16.4399 20.3276 16.5084 20.2049Z" fill="black"/>
<path fill-rule="evenodd" clip-rule="evenodd" d="M23.9536 12.1836C23.9876 11.8666 23.6175 11.0208 23.6264 11.1924C23.0329 10.275 21.8747 9.91425 20.8754 9.61141C18.754 8.90935 17.0975 9.75722 15.607 11.2599C14.7271 12.084 13.8898 13.0044 13.448 14.1451C12.579 16.3212 13.8816 18.8025 15.8625 19.842C16.0223 19.9287 16.1965 20.0111 16.3488 20.1158C17.1676 20.5901 18.1292 20.7542 19.0417 20.9606C20.7487 21.3518 22.8926 21.1654 23.8986 19.536C24.581 18.3797 24.3997 16.978 24.3463 15.6947C24.2661 14.5703 24.1252 13.2997 23.9536 12.1836Z" fill="#D08B5B"/>
<path fill-rule="evenodd" clip-rule="evenodd" d="M14.8294 8.97544C15.9353 7.93898 17.57 7.43662 19.0645 7.52448C19.874 7.57207 20.6541 7.77541 21.3857 8.12475C21.6144 8.23399 21.8374 8.36187 22.043 8.51244C22.1816 8.57732 22.3172 8.64752 22.4486 8.72385C23.1063 9.10585 23.6148 9.68445 23.9402 10.3708C24.0956 10.6984 24.2182 11.0438 24.2876 11.3997L24.2988 11.4583C24.3342 11.6369 24.4043 11.8723 24.3157 12.0394C24.2569 12.1502 24.1339 12.2201 24.0174 12.2107C24.0427 12.3134 24.073 12.416 24.0923 12.5194L24.1451 12.8012C24.1538 12.8482 24.1625 12.8951 24.171 12.9421C24.222 13.222 24.2688 13.5016 24.3063 13.7837C24.3847 14.3711 24.4556 14.9598 24.518 15.5494C24.5628 15.971 24.6048 16.3931 24.6455 16.8151L24.6698 17.0683C24.7117 17.5041 24.7445 17.9437 24.716 18.3815C24.6732 19.0381 24.4718 19.6372 24.0808 20.1245C24.118 20.2144 24.1306 20.3155 24.1586 20.4272C24.1974 20.5817 24.248 20.7331 24.3018 20.8831C24.327 20.942 24.3522 21.001 24.3772 21.0601L24.4428 21.2167L24.494 21.3194C24.5495 21.4311 24.6031 21.5444 24.6372 21.66C24.8582 21.7783 25.0386 21.9712 25.0474 22.2356C25.0553 22.4745 24.9316 22.7275 24.7226 22.8492C24.5165 22.9696 24.3042 22.9222 24.1068 22.8303C23.9346 22.8805 23.7504 22.8869 23.5799 22.8333C23.4486 22.9524 23.2793 23.0346 23.0916 23.0568C22.8087 23.0905 22.5401 23.0111 22.2805 22.9067L22.2624 22.8994C22.2543 22.8962 22.2462 22.8927 22.2384 22.8893C21.9398 22.8749 21.6424 22.7565 21.4306 22.5468C21.3617 22.4788 21.302 22.4012 21.2539 22.3141C21.0793 21.9976 21.0521 21.609 21.2239 21.295C21.1871 21.2965 21.1499 21.2981 21.113 21.299C20.6216 21.3131 20.1293 21.2879 19.6391 21.2556L19.5235 21.2477C19.2064 21.2248 18.7386 21.1709 18.7297 20.7768C18.7284 20.7264 18.7803 20.6885 18.8277 20.7019C19.0079 20.7529 19.185 20.8331 19.3718 20.8619C19.616 20.8998 19.869 20.9039 20.1158 20.9177L20.1867 20.9216C20.6843 20.9489 21.1998 20.9656 21.6893 20.8666C22.0547 20.7931 22.4354 20.659 22.7703 20.4931C23.0916 20.3334 23.3837 20.1246 23.6192 19.8518C24.1379 19.2519 24.2067 18.4056 24.1814 17.6466C24.1507 16.7401 24.0445 15.8349 23.9846 14.9297L23.9575 14.5231C23.9351 14.1839 23.9147 13.8443 23.9062 13.5051C23.8999 13.2574 23.904 13.0091 23.9052 12.7614C23.9058 12.6377 23.9043 12.5134 23.9071 12.3898C23.9087 12.3203 23.9168 12.2523 23.9227 12.1843C23.8953 12.17 23.8696 12.1499 23.8465 12.1233C23.8284 12.1023 23.8144 12.0801 23.8047 12.0576C23.6882 12.0234 23.6342 11.978 23.5586 11.875C23.4949 11.7883 23.4227 11.7081 23.3456 11.633C23.1813 11.4733 22.9936 11.3427 22.7952 11.229C22.3852 10.9939 21.936 10.8367 21.4831 10.7077C20.7897 10.5105 20.0695 10.409 19.3659 10.2506C19.1719 10.5217 18.9664 10.7848 18.7515 11.0393C18.0809 11.8334 17.312 12.5413 16.488 13.1725C16.3204 13.3012 16.1504 13.428 15.978 13.5511C15.7509 13.8982 15.5214 14.2437 15.2885 14.5868L15.1885 14.7337L15.1869 14.7365C15.1732 14.7575 15.16 14.7785 15.1469 14.7995C15.1191 14.8439 15.0879 14.8868 15.0548 14.9285C15.0332 14.9601 15.0114 14.9917 14.9892 15.0233C15.0317 15.0462 15.0704 15.0719 15.1007 15.1004C15.1625 15.1589 15.1522 15.2519 15.1007 15.3114C14.9346 15.5037 14.6716 15.2532 14.4804 15.1865C14.2734 15.2497 14.1006 15.4968 14.0147 15.6855C13.8911 15.9577 13.8414 16.2858 13.8973 16.5804C13.9485 16.8497 14.0866 17.0824 14.3161 17.2283C14.3243 17.2333 14.333 17.2386 14.3414 17.2433C14.3418 17.2439 14.3418 17.2439 14.3421 17.2436C14.3499 17.2486 14.358 17.2533 14.3661 17.2577C14.4739 17.3172 14.5922 17.3523 14.715 17.3607C14.7852 17.3657 14.8587 17.3619 14.9289 17.3704C15.0011 17.3789 15.0604 17.4121 15.1298 17.4296C15.2063 17.4493 15.2556 17.5523 15.2075 17.6215C15.1838 17.6556 15.1613 17.6882 15.1372 17.7174C15.2163 17.8107 15.285 17.9137 15.3471 18.0117C15.4321 18.146 15.5074 18.2885 15.5761 18.4338C15.6395 18.5174 15.7001 18.6025 15.7588 18.6896C16.0914 19.1837 16.346 19.7341 16.5024 20.3093C16.6574 20.8782 16.7542 21.5172 16.6108 22.0981C16.4787 22.6323 16.093 23.0747 15.522 23.1032C15.4029 23.1091 15.2857 23.0957 15.1755 23.0654C14.9335 23.2153 14.6335 23.2907 14.365 23.2995C14.1479 23.3066 13.9101 23.2608 13.7327 23.1291C13.5223 23.2209 13.2941 23.273 13.0956 23.2849C12.8735 23.2982 12.6411 23.2375 12.46 23.1173C12.2877 23.2653 12.1018 23.3901 11.8906 23.4758C11.5274 23.6229 11.0951 23.6048 10.7625 23.3847C10.4292 23.1642 10.2596 22.7685 10.3614 22.3758C10.4551 22.0139 10.7497 21.7484 11.0264 21.5198L11.0811 21.4748C11.3548 21.2509 11.6312 21.0341 11.8069 20.7185C11.9934 20.3838 12.0614 19.9949 12.0799 19.6161C12.1198 18.7819 11.9506 17.9553 11.899 17.1256C11.8459 16.2686 11.8756 15.4091 11.9921 14.5583C12.2185 12.9058 12.8145 11.2857 13.8926 9.99756C14.0486 9.81117 14.2156 9.63351 14.3915 9.46511C14.526 9.28877 14.6714 9.12348 14.8294 8.97544ZM29.1708 18.4112C29.1767 18.4115 29.1823 18.4118 29.1877 18.414C29.1912 18.4155 29.1942 18.4179 29.197 18.4206L29.2233 18.4469C29.2326 18.4563 29.232 18.4707 29.2233 18.4801C29.2156 18.4886 29.2017 18.4889 29.1927 18.4823L29.1902 18.4801L29.1629 18.4528C29.16 18.4496 29.1574 18.4461 29.1561 18.4416C29.1549 18.4372 29.1549 18.4322 29.1545 18.4275C29.1542 18.419 29.1624 18.4112 29.1708 18.4112ZM14.517 15.8531C14.7674 15.777 15.0679 15.958 15.2172 16.149C15.2922 16.2448 15.3134 16.376 15.2172 16.4702C15.1354 16.5504 14.9755 16.5651 14.8964 16.4702C14.8068 16.3622 14.7337 16.2125 14.6057 16.1433C14.4667 16.0682 14.2805 16.087 14.2477 16.2701C14.2421 16.3012 14.1978 16.2908 14.1959 16.263C14.1837 16.0776 14.3458 15.9047 14.517 15.8531Z" fill="black"/>
<path fill-rule="evenodd" clip-rule="evenodd" d="M21.2085 19.0034C20.9981 18.9175 20.8103 18.7743 20.6731 18.5913C20.6254 18.5277 20.613 18.4606 20.623 18.3991C20.6343 18.33 20.6751 18.2674 20.7308 18.2254C20.7867 18.1833 20.8566 18.1625 20.9242 18.1731C20.9829 18.1823 21.0414 18.2145 21.0876 18.2812L21.0973 18.2946C21.1789 18.405 21.2852 18.4956 21.4064 18.554C21.5232 18.6103 21.6538 18.6366 21.7889 18.6213C22.0463 18.5922 22.2237 18.4529 22.4123 18.2638C22.4357 18.24 22.459 18.2153 22.4825 18.1903C22.4974 18.1676 22.518 18.153 22.5408 18.1454C22.5662 18.1369 22.595 18.1374 22.6213 18.1466C22.6466 18.1554 22.6693 18.1722 22.6845 18.1946C22.699 18.2158 22.7072 18.242 22.7045 18.2722C22.6873 18.4682 22.5849 18.6431 22.4394 18.7804C22.2778 18.933 22.0636 19.0385 21.862 19.0755C21.6398 19.1163 21.4134 19.087 21.2085 19.0034ZM21.9668 15.98C22.2031 16.1237 22.5632 16.4588 22.309 16.8151C22.0097 17.1293 21.5788 16.7691 21.3664 16.6062C21.1695 16.4799 20.9483 16.8047 21.131 16.9521C22.6654 18.0885 23.2881 16.0176 22.0863 15.811C21.954 15.7883 21.9048 15.9355 21.9668 15.98ZM19.2171 14.658C19.2432 14.3338 19.7369 14.2601 19.786 14.581C19.83 14.8684 19.7782 15.1325 19.6488 15.3913C19.5251 15.6385 19.2143 15.5232 19.1908 15.298C19.1593 14.9963 19.2009 14.8597 19.2171 14.658ZM22.975 14.5145C23.0438 14.4243 23.1432 14.3627 23.2622 14.3975C23.6342 14.5063 23.5246 15.0346 23.3939 15.2917C23.323 15.4314 23.0935 15.4668 22.9898 15.3438C22.8208 15.1433 22.7399 14.7429 22.9547 14.5454C22.9605 14.5352 22.967 14.5249 22.975 14.5145ZM19.6435 13.2391L19.7023 13.2288C19.8841 13.1974 20.1101 13.1672 20.2387 13.3134C20.3069 13.3909 20.3304 13.535 20.2387 13.6092C20.0774 13.7398 19.8992 13.6892 19.7059 13.7002C19.5467 13.7094 19.3936 13.7357 19.2402 13.7796C18.9037 13.8758 18.6295 14.0515 18.3421 14.2443C18.3044 14.2696 18.2659 14.2214 18.2839 14.1861C18.4498 13.861 18.7713 13.5939 19.0934 13.4312C19.2653 13.3443 19.4534 13.2722 19.6435 13.2391ZM22.6359 13.0935L22.6809 13.1027C23.1703 13.2051 23.8062 13.4095 24.0379 13.8904C24.0468 13.9584 24.0374 13.973 24.0298 13.9825L24.0273 13.9857C24.0211 13.9938 24.0161 14.005 23.9866 14.0143C23.9784 14.0123 23.9702 14.0103 23.9618 14.0081C23.8556 13.9802 23.7715 13.9419 23.6902 13.902L23.6019 13.8586C23.4996 13.8083 23.3963 13.76 23.2869 13.7242C23.0533 13.648 22.8131 13.5943 22.5691 13.5657C22.5162 13.5595 22.4653 13.5416 22.4252 13.511C22.387 13.482 22.3579 13.4418 22.3446 13.3883C22.3274 13.3192 22.3324 13.2668 22.3695 13.2044C22.3973 13.1575 22.4373 13.1251 22.4831 13.1064C22.5298 13.0874 22.583 13.0829 22.6359 13.0935Z" fill="black"/>
<path fill-rule="evenodd" clip-rule="evenodd" d="M24.7071 17.243C24.6654 17.1183 24.4507 17.1292 24.4639 17.276C24.479 17.4436 24.4217 17.6306 24.2611 17.712C24.093 17.7973 23.9038 17.7206 23.8012 17.5744C23.7121 17.4473 23.6506 17.3091 23.5384 17.1982C23.434 17.0952 23.3071 17.0157 23.1683 16.9685C23.0602 16.9318 22.9481 16.922 22.8393 16.934C22.5683 16.8728 22.2542 17.0121 22.0853 17.2235C22.0744 17.2372 22.0643 17.2512 22.0545 17.2653C22.0378 17.2425 22.0203 17.2199 22.0017 17.1976C21.9538 17.1403 21.8944 17.128 21.8408 17.1436C21.5353 16.9163 21.1071 16.8862 20.7602 17.0913C20.4822 17.2557 20.2522 17.4979 19.9104 17.5167C19.6396 17.5317 19.3447 17.3771 19.3256 17.0794C19.3156 16.924 19.1039 16.7945 18.9851 16.9384C18.7354 17.2409 18.6854 17.6429 18.8236 18.0088C18.9694 18.3948 19.2664 18.6667 19.6425 18.8267C20.0486 18.9994 20.5245 19.0594 20.9639 19.0458C21.4019 19.0321 21.8001 18.8636 22.0641 18.5052C22.0957 18.4624 22.1234 18.419 22.1476 18.375C22.404 18.7015 22.8058 18.8388 23.2151 18.8486C23.6432 18.8589 24.1494 18.7837 24.4521 18.4511C24.7439 18.1304 24.8445 17.6536 24.7071 17.243Z" fill="black"/>
</svg>
