<svg width="36" height="48" viewBox="0 0 36 48" fill="none" xmlns="http://www.w3.org/2000/svg">
<path fill-rule="evenodd" clip-rule="evenodd" d="M28.5619 40.2158C28.486 39.5104 28.4392 38.7999 28.4124 38.0909C28.3855 37.3827 28.4206 36.6658 28.436 35.9573C28.4674 34.5161 28.5184 33.0715 28.4037 31.6324C28.2953 30.2724 28.0465 28.9219 27.6538 27.6152C27.4625 26.9788 27.261 26.3168 26.9465 25.7288C26.6302 25.1375 26.1292 24.7438 25.5789 24.3828C24.993 23.9984 24.4119 23.6067 23.8283 23.2187C23.3384 22.8931 22.4568 22.514 22.0548 22.0786C21.6319 21.6205 21.5524 20.485 21.2707 19.9423C20.9964 19.4137 20.22 19.0689 19.6221 19.0689C18.6325 19.0689 17.8827 19.0183 17.069 19.934C16.663 20.3909 16.986 20.8529 16.5605 21.2914C16.1693 21.6946 15.1687 22.109 14.6645 22.3429C14.0605 22.6231 13.4413 22.8705 12.8132 23.0909C12.1724 23.3157 11.5155 23.4832 10.8711 23.6954C10.2534 23.8988 9.4469 24.737 8.9674 25.1805C8.52161 25.5929 8.41098 25.5467 8.07208 26.0477C7.32829 27.147 6.58369 28.259 5.99139 29.4493C5.69636 30.0422 5.4107 30.6659 5.30366 31.3244C5.18948 32.0267 5.30269 32.7054 5.48785 33.3854C5.67633 34.0774 6.27486 34.7362 6.46985 35.4265C6.55971 35.7446 6.25126 36.0917 6.39314 36.3915C6.464 36.5412 6.55323 36.6745 6.65483 36.8049C6.73311 36.9054 7.03838 36.8832 7.07788 37.0062C7.11778 37.1304 6.89693 37.3882 6.89364 37.5168C6.88898 37.7009 6.88165 37.8849 6.87561 38.0689L6.83993 39.1568C6.81649 39.8717 6.79305 40.5866 6.7696 41.3015C6.76194 41.5349 6.75076 41.7629 6.80669 41.9843C6.7865 41.9656 6.76732 41.9452 6.74979 41.9223C6.69849 41.8553 6.5897 41.9121 6.63323 41.9905C6.70591 42.1213 6.81042 42.2133 6.9332 42.2795C7.07589 42.4899 28.6854 42.9599 28.7917 42.3447C28.8514 41.9995 28.7428 41.6299 28.6994 41.2869C28.6542 40.9297 28.6005 40.574 28.5619 40.2158Z" fill="#D08B5B"/>
<path fill-rule="evenodd" clip-rule="evenodd" d="M6.04199 29.9473L28.3611 31.168C28.3771 31.3226 28.3913 31.4774 28.4036 31.6323C28.5183 33.0713 28.4673 34.516 28.4359 35.9572C28.4317 36.1482 28.4262 36.3399 28.4207 36.5318L26.219 36.8955L10.5667 37.2718L6.65471 36.8048L6.49235 36.5232L6.37986 36.033C6.42813 35.8318 6.52542 35.6235 6.46973 35.4264C6.4535 35.3689 6.43447 35.3116 6.41311 35.2546L6.43331 34.8612L6.04199 29.9473Z" fill="#FDEA6B"/>
<path fill-rule="evenodd" clip-rule="evenodd" d="M6.61106 31.3252C6.66392 31.1738 6.90574 31.2393 6.8525 31.3918C6.57882 32.176 6.77297 33.0294 7.06884 33.778C7.12821 33.9282 6.88596 33.9928 6.8274 33.8446C6.51616 33.0571 6.32361 32.1488 6.61106 31.3252ZM8.44608 35.8047C9.21791 35.9133 9.99037 35.9803 10.7675 36.0345C10.8023 36.037 10.8323 36.0317 10.8583 36.0204C10.8351 36.3764 10.8163 36.7327 10.8016 37.089C10.5897 37.0831 10.3735 37.0972 10.1635 37.0915C9.88896 37.084 9.61478 37.0702 9.34092 37.0493C8.81072 37.0092 8.28145 36.9453 7.75719 36.857C7.56126 36.8241 7.31244 36.8041 7.08928 36.739C6.87832 36.6773 6.69053 36.5752 6.59194 36.383C6.50805 36.2201 6.49272 36.0207 6.49272 35.8407C6.49272 35.7167 6.514 35.5908 6.52683 35.4659C6.5428 35.4546 6.55719 35.4411 6.56877 35.4261C6.80164 35.4997 7.04327 35.5514 7.27989 35.6014C7.66518 35.6835 8.0561 35.7499 8.44608 35.8047ZM8.01078 32.9096C8.01503 33.1489 8.08123 33.3663 8.21003 33.5677C8.29716 33.7041 8.08035 33.8296 7.99381 33.6942C7.8422 33.4569 7.76539 33.1906 7.76039 32.9096C7.75751 32.748 8.0079 32.7486 8.01078 32.9096ZM27.7957 35.5203C27.9002 35.5262 28.0054 35.5298 28.1102 35.5353C28.2026 35.6144 28.3307 35.655 28.4476 35.6298C28.4516 35.6399 28.4553 35.6513 28.4586 35.6644C28.4793 35.7448 28.4896 35.8313 28.5015 35.9133C28.5134 35.9941 28.5224 36.0755 28.5287 36.1569C28.5318 36.1979 28.5516 36.2906 28.5265 36.3263C28.504 36.3585 28.4542 36.3557 28.4198 36.3598C28.3271 36.3698 28.2332 36.3745 28.14 36.3824C27.9638 36.3977 27.7876 36.413 27.6117 36.4284C27.4392 36.4434 27.2498 36.4387 27.0811 36.4841C27.0523 36.1456 27.0261 35.8072 27.0016 35.4684C27.263 35.5069 27.5362 35.5059 27.7957 35.5203ZM5.8827 34.959C5.98787 35.1621 6.08489 35.3619 6.28615 35.484C6.31244 35.4997 6.34186 35.5081 6.3719 35.5103C6.34937 35.6071 6.33528 35.706 6.32277 35.7974C6.29522 35.9988 6.28928 36.207 6.33967 36.4055C6.38881 36.5987 6.47018 36.7712 6.62981 36.8949C6.70399 36.9525 6.78505 36.9963 6.87018 37.0311C6.85579 37.0715 6.84733 37.1116 6.85172 37.1558C6.83137 37.2581 6.81791 37.3624 6.8032 37.4623C6.77097 37.6839 6.73873 37.9059 6.71338 38.1289C6.66267 38.5722 6.62292 39.0156 6.58943 39.4605C6.55594 39.9042 6.53184 40.3485 6.51181 40.7932C6.50148 41.0205 6.49241 41.2478 6.48395 41.4754C6.4755 41.7093 6.43763 41.9485 6.54092 42.1655C6.62417 42.3409 6.90555 42.3308 6.99194 42.1655C7.10148 41.9554 7.06924 41.7059 7.07206 41.4754C7.07488 41.2584 7.07863 41.0412 7.08333 40.8241C7.09272 40.3799 7.10649 39.9358 7.11744 39.4916C7.12809 39.0579 7.14123 38.6245 7.15 38.1909C7.15438 37.9639 7.15469 37.7369 7.15594 37.5098C7.15657 37.384 7.16189 37.2497 7.1525 37.1185C7.23075 37.1369 7.30962 37.1526 7.38755 37.1686C7.98255 37.2907 8.5838 37.3796 9.18881 37.4347C9.49272 37.4623 9.79757 37.4817 10.1024 37.4927C10.3265 37.5008 10.5588 37.5164 10.7863 37.508C10.7685 38.0515 10.7603 38.5954 10.7613 39.1393C10.7619 39.5316 10.7672 39.9239 10.7769 40.3163C10.7822 40.5226 10.7866 40.7289 10.7929 40.9353C10.7957 41.028 10.7957 41.1216 10.802 41.214C10.8038 41.2428 10.8079 41.2707 10.8132 41.2982C10.7926 41.3568 10.7753 41.4147 10.7613 41.4689C10.6924 41.7318 10.6924 41.9846 10.7231 42.2526C10.7494 42.4799 10.9406 42.6906 11.1932 42.6108C11.2342 42.5979 11.2752 42.5844 11.3159 42.5707C11.6877 42.6129 12.0617 42.6227 12.4389 42.6298C12.9901 42.6405 13.5415 42.6439 14.093 42.6468C15.1747 42.6524 16.2567 42.6552 17.3387 42.6583C19.5131 42.6646 21.6874 42.6706 23.8617 42.6768C24.4652 42.6787 25.0686 42.6803 25.6721 42.6822C25.9844 42.6831 26.2962 42.6834 26.6082 42.6953C26.7537 42.701 26.8996 42.7088 27.0451 42.711C27.2138 42.7138 27.3631 42.6652 27.5243 42.6211C27.6154 42.5957 27.6514 42.5043 27.632 42.427C27.7778 42.4617 27.9547 42.3878 28.0045 42.2235C28.0408 42.1041 28.0273 41.9748 27.9732 41.8643V41.864C27.8686 41.2036 27.7359 40.5464 27.6317 39.8857C27.5174 39.1621 27.4076 38.437 27.3109 37.7106C27.2383 37.162 27.1785 37.5509 27.1268 36.9998C27.3519 37.0173 27.6063 36.9488 27.8292 36.9196C27.9891 36.899 28.1503 36.8824 28.3106 36.8605C28.2987 37.022 28.3021 37.1867 28.2977 37.3417C28.2893 37.6495 28.293 37.956 28.3009 38.2639C28.3159 38.8578 28.3494 38.5121 28.4029 39.1036C28.457 39.6994 28.5234 40.2931 28.6038 40.8862C28.6451 41.1914 28.6893 41.4964 28.7359 41.801C28.7575 41.9432 28.7797 42.0851 28.8026 42.2272C28.8298 42.3947 28.8386 42.5535 28.9641 42.6793C29.0595 42.7748 29.2545 42.7667 29.3178 42.6336C29.3979 42.4655 29.3616 42.3214 29.3318 42.1449C29.3077 42.003 29.2846 41.8612 29.2617 41.7194C29.2129 41.4153 29.1666 41.1109 29.1231 40.8063C29.0392 40.2192 28.96 39.6312 28.8893 39.0426C28.8179 38.4492 28.744 38.7958 28.6739 38.2025C28.6386 37.9031 28.6032 37.6044 28.5619 37.306C28.5409 37.1526 28.5278 36.9892 28.5002 36.831C28.509 36.8298 28.5178 36.8282 28.5265 36.8266C28.7168 36.7919 28.8793 36.6845 28.9271 36.4885C28.9728 36.3009 28.9184 36.0852 28.8799 35.9011C28.847 35.7443 28.8173 35.5441 28.7164 35.4098C29.072 34.9567 29.3032 34.3866 29.4507 33.8385C29.6114 33.2414 29.6787 32.618 29.6929 32.001C29.7095 31.2861 29.6556 30.5753 29.5331 29.8763C29.5302 29.7282 29.5234 29.5801 29.5124 29.4322C29.4048 27.9806 28.9528 26.2626 27.5199 25.5844C27.5143 25.5816 27.5084 25.579 27.5024 25.5765C27.3901 25.4422 27.2498 25.3214 27.1365 25.2084C26.9359 25.0079 26.7262 24.8163 26.504 24.6397C26.0639 24.29 25.5813 24.0107 25.0796 23.7592C24.5722 23.5047 24.0573 23.2658 23.5616 22.988C23.1297 22.7457 22.7409 22.4539 22.3719 22.1245C21.9572 21.7541 21.662 21.2547 21.5462 20.7095C21.5403 20.6811 21.498 20.6889 21.4974 20.7161C21.4671 21.7152 22.1412 22.5982 22.9171 23.1568C23.8448 23.8241 24.965 24.14 25.9059 24.7869C26.1397 24.9475 26.3584 25.1288 26.5666 25.3214C26.2476 25.2888 25.9231 25.3095 25.6242 25.3978C25.5065 25.3906 25.3882 25.3884 25.2702 25.3827C25.0004 25.3693 24.7303 25.3568 24.4602 25.3448C23.9096 25.3204 23.3588 25.2982 22.8079 25.2788C21.7271 25.2406 20.6461 25.2118 19.565 25.1927C17.3926 25.1542 15.2173 25.1466 13.0451 25.2096C12.4561 25.2265 9.35876 25.1091 9.07206 25.1423C9.49366 24.7772 9.95625 24.4791 10.4649 24.2339C11.1012 23.928 11.7588 23.7239 12.4383 23.5372C13.8376 23.1531 15.2908 22.7826 16.4107 21.8067C16.689 21.564 16.9362 21.2851 17.1387 20.976C17.3322 20.6811 17.5472 20.3034 17.5525 19.9437C17.5563 19.6882 17.2007 19.5952 17.0743 19.814C16.9957 19.9496 16.9569 20.0983 16.8927 20.2405C16.8289 20.3814 16.7531 20.5173 16.6689 20.6473C16.5034 20.9028 16.298 21.1307 16.0746 21.3364C15.5982 21.7754 15.021 22.0969 14.4239 22.3402C13.068 22.8922 11.585 23.1252 10.3002 23.8529C9.7381 24.1713 9.20007 24.6106 8.86236 25.1711C8.8079 25.1795 8.75375 25.1895 8.6996 25.2008C8.73998 25.1498 8.78067 25.0988 8.82167 25.048C8.84859 25.0148 8.80696 24.971 8.7741 25.0004C8.13528 25.569 7.54687 26.183 7.01353 26.8525C6.50336 27.4931 6.02762 28.1644 5.69084 28.9147C5.08552 30.2623 4.95219 31.8037 5.26486 33.2447C5.35 33.6373 5.47018 34.0218 5.62323 34.3934C5.70211 34.5854 5.78755 34.7745 5.8827 34.959Z" fill="black"/>
<path fill-rule="evenodd" clip-rule="evenodd" d="M16.3126 7.63544C21.0466 7.40205 24.2586 11.1448 24.3967 12.6372C24.4927 13.6732 24.4276 15.0549 24.4276 15.9807C24.4276 16.4532 24.6654 17.8896 24.3967 18.5783C23.7987 20.1113 23.1231 21.312 21.2511 21.312C19.3791 21.312 16.5253 20.3393 15.5454 19.0848C15.3664 18.8557 13.1431 17.179 13.1431 15.861C13.1431 13.0491 12.9347 7.80197 16.3126 7.63544Z" fill="#D08B5B"/>
<path fill-rule="evenodd" clip-rule="evenodd" d="M13.0828 4.59862C13.3526 4.51408 13.5248 4.63579 13.6476 4.82435C13.6747 4.81905 13.7009 4.8194 13.7301 4.82644C13.7373 4.8282 13.7547 4.8348 13.7679 4.84C13.7782 4.84429 13.7874 4.84949 13.7962 4.855L13.8015 4.85221C13.8218 4.83008 13.843 4.80988 13.866 4.7936C13.9176 4.75703 13.9707 4.74638 14.0212 4.7539L14.0445 4.74529C14.2442 4.67552 14.4607 4.7079 14.5961 4.88036C14.6223 4.91368 14.6435 4.95078 14.6616 4.98992C14.7022 5.00326 14.7403 5.02255 14.7731 5.04628C14.7962 5.03541 14.8205 5.02627 14.8466 5.01954C14.994 4.98165 15.1487 5.01741 15.2688 5.10796C15.3273 5.15202 15.3703 5.20719 15.4029 5.27019C15.44 5.27892 15.4767 5.29464 15.5111 5.31574C15.5407 5.301 15.5707 5.28716 15.6014 5.27767C15.7139 5.24304 15.8346 5.2303 15.9516 5.23903C16.2039 5.25779 16.4478 5.54662 16.2792 5.79466L16.274 5.80216C16.2526 5.83206 16.234 5.86297 16.2168 5.89437C16.2771 5.92071 16.3353 5.95593 16.389 6.00008C16.6518 6.21598 16.6754 6.54881 16.6263 6.86278L16.6242 6.87585H16.6248C16.7644 6.88914 16.885 7.03532 16.8025 7.17282L16.7985 7.17926C16.6868 7.35219 16.5911 7.54322 16.4844 7.7252C16.1893 7.83188 15.9046 7.96326 15.6366 8.12244C15.4697 8.26904 15.3107 8.42403 15.1709 8.59646C15.1011 8.68257 15.037 8.77372 14.9781 8.86821C15.0252 8.89091 15.0835 8.88976 15.1327 8.84404C15.5705 8.43728 16.0995 8.15181 16.6628 7.9605C16.7034 7.94669 16.73 7.92071 16.7449 7.88996C16.9949 7.81854 17.2494 7.76315 17.5064 7.72395C17.5772 7.65628 17.6514 7.5916 17.722 7.52421C17.812 7.43823 17.9248 7.43949 18.009 7.4935C18.0509 7.47437 18.0937 7.45748 18.1372 7.44231L18.1641 7.4331C18.1754 7.4294 18.1861 7.42511 18.1972 7.42173C18.4987 7.32932 18.7745 7.36363 19.0711 7.43956L19.1091 7.44947C19.2473 7.48625 19.3344 7.48037 19.4683 7.44652L19.4833 7.44265C19.6256 7.40545 19.7778 7.3779 19.9232 7.41707C20.0753 7.45806 20.1763 7.54923 20.2799 7.65939L20.2903 7.67047C20.3387 7.72233 20.3666 7.72799 20.4299 7.72673L20.4977 7.72471C20.7537 7.71768 21.0043 7.7285 21.196 7.92694C21.2668 8.00032 21.3429 8.10419 21.3885 8.19898L21.3951 8.21312C21.3972 8.21772 21.3991 8.22158 21.4008 8.22502C21.4283 8.22057 21.4711 8.20313 21.4915 8.19916C21.7704 8.14493 22.0031 8.2285 22.1822 8.44883C22.2214 8.49705 22.2806 8.59174 22.3216 8.64378C22.336 8.65599 22.3495 8.66907 22.3624 8.68282C22.4296 8.72587 22.5249 8.72315 22.6003 8.73824C22.8058 8.77926 23.0254 8.8576 23.1299 9.05364C23.1735 9.13545 23.1897 9.22497 23.2081 9.3144C23.2772 9.35989 23.3313 9.42546 23.3734 9.49644C23.4245 9.58261 23.4462 9.68816 23.505 9.76954C23.5478 9.82865 23.6131 9.86021 23.6752 9.89635L23.6989 9.91032C23.883 10.0202 24.0272 10.1422 24.0878 10.3575L24.093 10.3767C24.1029 10.4096 24.1374 10.5038 24.1073 10.4896C24.1332 10.5039 24.1772 10.509 24.2008 10.5168C24.3285 10.5592 24.4395 10.6276 24.5075 10.7478C24.5593 10.8393 24.5687 10.9347 24.5835 11.0355L24.5898 11.0762C24.5915 11.0861 24.5934 11.0975 24.5954 11.1086L24.5974 11.1195L24.5977 11.1198C24.6209 11.1298 24.6436 11.1407 24.6659 11.1524C24.7718 11.2149 24.8441 11.3233 24.8441 11.4488C24.8441 11.5097 24.8252 11.5572 24.7975 11.5996C24.8199 11.6335 24.8372 11.6697 24.8503 11.71C24.8759 11.7887 24.8777 11.8747 24.8691 11.9561C24.8587 12.0538 24.8337 12.1428 24.8043 12.2361C24.7929 12.2721 24.7883 12.3224 24.7712 12.3568C24.8028 12.3971 24.8216 12.4463 24.8157 12.4949C24.8074 12.5644 24.7757 12.6457 24.7129 12.6847C24.6822 12.8365 24.6161 12.9917 24.5511 13.1159C24.5436 13.1303 24.5345 13.1431 24.5245 13.1537C24.5336 13.6494 24.4974 14.1485 24.4949 14.6435C24.4921 15.1824 24.5033 15.7216 24.522 16.2598C24.5536 17.1519 24.6663 18.0743 24.4037 18.9441C24.1888 19.6561 23.7584 20.2673 23.1812 20.7307C22.5903 21.2048 21.8779 21.4791 21.1214 21.522C20.7366 21.5436 20.3453 21.4997 19.973 21.3998L19.9332 21.389C19.573 21.2898 19.1558 21.1383 18.8908 20.8729C18.7508 20.7326 18.8923 20.4355 19.0975 20.5172C19.3008 20.5983 19.4833 20.7182 19.685 20.8027C19.8652 20.8782 20.0533 20.9361 20.2438 20.9787C20.6257 21.0648 21.0308 21.0836 21.4191 21.0301C22.8208 20.8378 23.913 19.6709 24.1285 18.2872C24.1882 17.904 24.187 17.5145 24.183 17.1274L24.1786 16.7031C24.1752 16.3482 24.1739 15.9931 24.1869 15.6383C24.2035 15.1818 24.2356 14.7256 24.2787 14.271L24.3012 14.0344C24.3278 13.7576 24.3579 13.4787 24.4096 13.2057C24.3672 13.2079 24.0328 12.6344 23.8472 12.314C23.7795 12.2601 23.7223 12.1932 23.7002 12.1066C23.6956 12.0886 23.6932 12.0703 23.6918 12.0521C23.6515 11.9886 23.609 11.9268 23.5642 11.8668L23.5544 11.8624C23.5468 11.859 23.541 11.8561 23.5375 11.8541C23.4397 11.7985 23.3579 11.7142 23.302 11.6165C23.2831 11.5836 23.2677 11.5492 23.2551 11.514C23.1753 11.4355 23.0918 11.3606 23.0041 11.2904C22.9955 11.2835 22.9866 11.2771 22.9779 11.2703C22.8663 11.2285 22.7683 11.1656 22.6968 11.0749C22.6669 11.0564 22.6369 11.0382 22.6065 11.0204C22.5155 11.0196 22.4236 10.9983 22.3341 10.9615C22.1705 10.8941 22.0397 10.7609 21.8753 10.6992C21.7015 10.634 21.5183 10.7822 21.3335 10.7555C21.2864 10.7487 21.2396 10.7343 21.1961 10.7134C21.0921 10.8239 20.9817 10.928 20.86 11.0192C20.6833 11.1515 20.5027 11.212 20.2979 11.2718C20.1964 11.3683 20.0828 11.4619 19.9457 11.4756C19.6286 11.7297 19.2895 11.9441 18.9326 12.1431C18.8752 12.1751 18.8181 12.1895 18.764 12.1899C18.652 12.2604 18.5299 12.3146 18.4008 12.3521C18.3603 12.3638 18.3186 12.3663 18.2776 12.3613L18.1656 12.4527C18.0877 12.5163 18.0045 12.5467 17.925 12.5487C17.8766 12.5859 17.8264 12.621 17.7748 12.6549C17.7195 12.6911 17.6477 12.7062 17.5756 12.7018C17.4655 12.8098 17.3228 12.8211 17.2032 12.7714C17.1868 12.781 17.1699 12.7902 17.1509 12.7991C17.1251 12.8114 17.0982 12.8217 17.0707 12.8301C16.946 12.9648 16.7635 13.0354 16.5807 13.0169C16.4441 13.1008 16.2852 13.1444 16.1298 13.1346C16.1061 13.254 16.0865 13.3738 16.0699 13.494L16.0682 13.582C16.068 13.5963 16.068 13.6074 16.0682 13.6147L16.0683 13.6176C16.0835 14.0037 16.0918 14.3899 16.1068 14.776L16.1082 14.8065C16.1253 15.1438 16.2081 15.7588 15.7135 15.7454C15.5292 15.7404 15.3463 15.6044 15.2028 15.4925L15.1826 15.4767C15.1716 15.4681 15.1603 15.4593 15.149 15.4504C15.0417 15.4364 14.936 15.4102 14.8277 15.4063C14.694 15.4016 14.5534 15.4153 14.4232 15.4457C14.1933 15.4993 13.971 15.6042 13.821 15.7942C13.8079 15.8108 13.7957 15.8283 13.7842 15.8459C13.7736 15.8819 13.7554 15.9151 13.7314 15.9439C13.5896 16.2636 13.6715 16.686 13.8282 16.9784C14.015 17.3267 14.3106 17.5675 14.6822 17.6888L14.7009 17.6948C14.9548 17.7743 15.0519 17.9284 15.19 18.1425C15.3193 18.3436 15.4676 18.5308 15.6269 18.7087C15.9352 19.0528 16.3678 19.3368 16.547 19.7723C16.5833 19.86 16.4796 19.9426 16.3993 19.9201C16.0848 19.8315 15.8643 19.607 15.6357 19.3838C15.4774 19.2291 15.3253 19.0683 15.1825 18.8994C15.1526 18.9133 15.1196 18.9226 15.0853 18.9268C14.9338 18.9453 14.7776 18.9376 14.645 18.8558C14.5838 18.8614 14.5202 18.8401 14.4729 18.7967C14.4295 18.7567 14.3921 18.7135 14.3605 18.6675C14.3124 18.6717 14.2653 18.673 14.2203 18.6655C14.1985 18.6635 14.1775 18.6578 14.1583 18.6484C14.1225 18.6342 14.0885 18.6123 14.0573 18.5788C13.9942 18.5109 13.97 18.4149 13.9816 18.3236C13.9691 18.321 13.9567 18.3178 13.9445 18.3136C13.8604 18.2851 13.7957 18.2284 13.7544 18.1513C13.6804 18.1097 13.6137 18.0533 13.5633 17.9934C13.5019 17.9205 13.4555 17.8383 13.4283 17.7475C13.4001 17.7344 13.3728 17.7192 13.3466 17.7014C13.1591 17.5742 13.0517 17.3353 13.1254 17.1145L13.1279 17.1076C13.1316 17.0976 13.1384 17.0807 13.1467 17.0616C13.1455 17.046 13.1442 17.0304 13.1434 17.0148L13.1408 16.9678L13.1032 16.9518C12.9158 16.8771 12.7891 16.7763 12.7666 16.5649C12.7619 16.5212 12.7789 16.4766 12.8056 16.4393L12.8054 16.4276C12.7933 16.4213 12.7817 16.4148 12.7715 16.4083C12.6693 16.3429 12.6065 16.2256 12.6135 16.1044C12.62 15.9939 12.6811 15.9058 12.7497 15.8243L12.7693 15.8015C12.771 15.7996 12.7728 15.7976 12.7747 15.7953L12.7293 15.781C12.6999 15.7716 12.6729 15.7623 12.6535 15.7514C12.5784 15.7092 12.5148 15.6522 12.4755 15.5797C12.4698 15.5707 12.464 15.5619 12.4588 15.5523C12.4081 15.4596 12.4014 15.3408 12.4341 15.2413C12.438 15.2295 12.443 15.2185 12.4481 15.2075C12.3101 15.1587 12.2038 15.0579 12.191 14.8721C12.186 14.799 12.2019 14.7262 12.2366 14.6639C12.2289 14.6219 12.2273 14.5784 12.2323 14.5353C12.1837 14.4893 12.146 14.4339 12.1291 14.3663C12.0973 14.2386 12.1556 14.1171 12.2424 14.0056C12.2103 13.9175 12.2086 13.8181 12.2453 13.7294C12.2312 13.6851 12.2232 13.6383 12.2227 13.5902C12.2218 13.4838 12.2545 13.3949 12.3073 13.3193C12.233 13.2283 12.1978 13.1074 12.2416 12.9941C12.2728 12.9136 12.3085 12.8399 12.3496 12.7716C12.328 12.7197 12.3155 12.6616 12.3155 12.5965C12.3155 12.4794 12.3592 12.3866 12.4262 12.3107C12.3972 12.172 12.4563 12.0031 12.5851 11.942C12.6337 11.919 12.6987 11.8949 12.7704 11.8762C12.7973 11.792 12.8254 11.7081 12.855 11.6248C12.9017 11.4937 12.9519 11.3644 13.0051 11.2367C12.9745 11.2635 12.9424 11.2886 12.9091 11.3114C12.804 11.4453 12.6647 11.5613 12.5476 11.6308C12.3155 11.7684 12.05 11.6868 11.9354 11.4565C11.8277 11.5371 11.6985 11.5848 11.5606 11.5685C11.4042 11.55 11.2613 11.4484 11.2222 11.2901C11.2166 11.2672 11.2132 11.2424 11.2128 11.2175C11.1232 11.2815 11.0293 11.3404 10.9264 11.3741C10.7953 11.4171 10.6615 11.314 10.6442 11.1856C10.6374 11.1348 10.6469 11.0898 10.6671 11.0518L10.6543 11.0468C10.6522 11.0459 10.6501 11.045 10.648 11.044C10.5792 11.0117 10.5258 10.9525 10.5005 10.8842C10.3516 10.942 10.1812 10.8743 10.134 10.7102C10.0778 10.5151 10.0744 10.3176 10.1184 10.1275C9.96065 10.0126 9.85789 9.81945 9.8404 9.61749C9.82763 9.47252 9.86214 9.3387 9.92295 9.21495C9.77378 9.15903 9.7225 8.96302 9.7934 8.82181C9.69923 8.76777 9.63783 8.6532 9.63645 8.54167C9.59438 8.47779 9.58092 8.39554 9.61581 8.30336C9.66182 8.1819 9.75551 8.0803 9.8628 8.00061C9.81601 7.91895 9.78125 7.8299 9.75967 7.73788C9.67078 7.7118 9.59904 7.63972 9.58442 7.53148C9.56612 7.39578 9.65522 7.28074 9.77516 7.25037C9.78846 7.20904 9.80471 7.16861 9.82479 7.12979C9.76545 6.98889 9.77419 6.81073 9.85071 6.65668C9.91849 6.52047 10.0287 6.43718 10.1615 6.37957C10.1277 6.26372 10.1724 6.14818 10.2848 6.06208C10.4221 5.95684 10.5727 5.8764 10.7309 5.81957C10.7168 5.63098 10.7954 5.43786 10.9813 5.3721C11.031 5.35454 11.0827 5.34806 11.1353 5.34828C11.1735 5.26508 11.2371 5.19745 11.3202 5.13758C11.446 5.04703 11.681 5.10235 11.7508 5.24435L11.7542 5.25165C11.7578 5.2597 11.7616 5.26705 11.7653 5.27485C11.7793 5.2059 11.8122 5.14078 11.865 5.08739C11.997 4.95391 12.1364 4.95141 12.2705 5.00849C12.2952 4.94731 12.3249 4.88913 12.3612 4.83593C12.4927 4.64293 12.71 4.61835 12.8691 4.72287C12.9329 4.66666 13.004 4.62333 13.0828 4.59862ZM14.0231 16.2047C14.288 16.1007 14.6093 16.1315 14.8711 16.2313L14.8903 16.2388C15.1214 16.3304 15.497 16.5342 15.5423 16.7949C15.5657 16.9299 15.4377 17.0467 15.3077 16.9756C15.1946 16.9139 15.1312 16.7896 15.0413 16.6994C14.9523 16.6102 14.8526 16.5385 14.744 16.4755C14.5172 16.3443 14.2789 16.2933 14.0231 16.2555C13.9944 16.2514 14.0022 16.2128 14.0231 16.2047Z" fill="black"/>
<path fill-rule="evenodd" clip-rule="evenodd" d="M22.1299 18.9635C21.9299 18.9651 21.705 18.89 21.5546 18.8312L21.5154 18.8157C21.3852 18.7635 21.2515 18.7037 21.1518 18.6032C21.1199 18.5705 21.086 18.5336 21.0688 18.4947C21.0587 18.472 21.0545 18.4484 21.0642 18.425C21.1003 18.4215 21.1344 18.4168 21.1668 18.4109C21.1822 18.4081 21.197 18.4052 21.2083 18.4051C21.25 18.4049 21.2913 18.4102 21.3325 18.4154C21.3385 18.4161 21.3444 18.4169 21.3504 18.4176C21.3825 18.4216 21.4145 18.4259 21.4463 18.4302C21.5391 18.4426 21.6314 18.455 21.7255 18.4595C21.7934 18.4628 21.8646 18.4589 21.9365 18.455C22.1229 18.4449 22.3156 18.431 22.4592 18.5616C22.4969 18.5958 22.5126 18.6389 22.5126 18.6828C22.5126 18.7362 22.4901 18.7905 22.4559 18.8331C22.3784 18.9295 22.2591 18.9624 22.1299 18.9635ZM23.2208 17.2815C23.1337 17.4121 22.9887 17.4961 22.7901 17.487C22.3952 17.4689 21.9239 17.3199 21.5932 17.1043C21.507 17.0482 21.4512 16.9585 21.4412 16.8624L21.4234 16.6914L21.3271 16.8338C21.317 16.8486 21.3069 16.8634 21.2968 16.8782C21.2689 16.919 21.241 16.9598 21.2148 17.0015C21.1139 17.1619 21.0214 17.3239 20.9374 17.4938C20.8779 17.6141 20.8344 17.7486 20.7908 17.8843C20.7173 18.1135 20.6462 18.3389 20.4889 18.5C20.4651 18.5244 20.4286 18.5331 20.3951 18.5288C20.3656 18.525 20.3367 18.5105 20.3226 18.4817C20.1347 18.0995 20.3874 17.6388 20.5924 17.3186L20.6141 17.2852C20.8042 16.9958 21.1146 16.6128 21.4702 16.5608L21.5109 16.6257L21.5701 16.5862C21.6669 16.5216 21.7946 16.5246 21.9065 16.5752L22.0184 16.6257C22.2266 16.7192 22.432 16.8054 22.6573 16.8527C22.6737 16.8561 22.6901 16.8593 22.7065 16.8623C22.722 16.8651 22.7375 16.8678 22.7532 16.8702C22.7498 16.8548 22.7462 16.8395 22.7426 16.8243C22.7388 16.8082 22.7349 16.792 22.7308 16.7759C22.7265 16.7592 22.722 16.7427 22.7175 16.7262C22.6994 16.6604 22.679 16.5953 22.6548 16.5315C22.5639 16.2917 22.4186 16.0674 22.2773 15.8534L22.2607 15.8283C22.2404 15.7976 22.2182 15.7656 22.1953 15.7326C22.0851 15.5738 21.9629 15.4015 21.9542 15.2286C22.1005 15.2378 22.2229 15.3287 22.3306 15.4078C22.4785 15.5164 22.6156 15.6405 22.7399 15.7754C22.981 16.0371 23.1974 16.3716 23.2923 16.7173C23.3467 16.9153 23.3228 17.1284 23.2208 17.2815ZM19.3627 15.3089L19.3627 15.3018C19.3631 15.1021 19.4794 14.6463 19.7667 14.6463C19.9462 14.6463 20.0552 14.9565 20.074 15.2763L20.0747 15.2894C20.083 15.4882 20.0285 15.9229 19.7667 15.9229C19.5021 15.9229 19.3654 15.5112 19.3627 15.3089ZM23.5929 15.2462L23.593 15.2392C23.5925 15.0395 23.4763 14.5836 23.189 14.5836C23.0139 14.5836 22.906 14.8786 22.8832 15.1898L22.8816 15.2137C22.8703 15.4059 22.9213 15.8602 23.189 15.8602C23.4535 15.8602 23.5902 15.4486 23.5929 15.2462ZM20.3304 13.9576C20.2923 13.9621 20.2544 13.9679 20.2166 13.9739C20.1061 13.9915 19.9962 14.0127 19.887 14.0373C19.6798 14.0841 19.4741 14.1432 19.2725 14.21C19.0837 14.2726 18.8979 14.3432 18.7122 14.4139C18.7023 14.4176 18.6923 14.4214 18.6824 14.4252C18.6168 14.4501 18.5515 14.4781 18.4859 14.5061C18.3861 14.5488 18.2859 14.5918 18.1836 14.6242C18.4531 14.2514 18.8684 13.9751 19.268 13.7775C19.496 13.6647 19.7379 13.5738 19.9812 13.4993L20.1167 13.4585C20.3162 13.3996 20.5343 13.3452 20.7218 13.4627C20.7959 13.5091 20.8432 13.5813 20.8581 13.6593C20.8727 13.7359 20.856 13.8179 20.8032 13.8864C20.7572 13.9461 20.6998 13.98 20.6388 13.9917C20.5714 14.0045 20.5 13.9904 20.435 13.9557C20.3829 13.9518 20.3676 13.9532 20.3522 13.9549L20.3304 13.9576ZM23.3319 13.9955C23.1983 13.9665 23.0661 13.9548 22.9291 13.959C22.8672 13.9609 22.8072 13.9704 22.7474 13.9801C22.6546 13.995 22.5621 14.0105 22.4621 13.9923C22.4099 13.9829 22.3655 13.9523 22.3311 13.9125C22.291 13.8659 22.2644 13.8063 22.2559 13.7497C22.2471 13.6912 22.2559 13.64 22.2775 13.5949C22.3031 13.5415 22.3461 13.4965 22.3982 13.4571C22.5556 13.3379 22.8258 13.3665 23.0117 13.3907C23.1953 13.4145 23.3779 13.4715 23.5403 13.562C23.7004 13.6513 23.8396 13.7716 23.9483 13.9186C24.0399 14.0426 24.083 14.1852 24.1275 14.3305C23.918 14.1546 23.5973 14.0532 23.3319 13.9955Z" fill="black"/>
</svg>
