<svg width="36" height="48" viewBox="0 0 36 48" fill="none" xmlns="http://www.w3.org/2000/svg">
<path fill-rule="evenodd" clip-rule="evenodd" d="M27.8784 29.2424C27.7801 28.9723 27.9237 28.7029 28.0033 28.4416C28.2863 27.5355 27.5123 25.2498 26.971 25.2164C26.773 24.704 26.2447 24.4915 25.8288 24.1964C25.3569 23.9018 24.8979 23.5634 24.4071 23.3051C24.3798 23.061 24.084 23.0005 23.9031 23.1751C23.4062 22.8659 22.8104 22.9233 22.2778 22.7207C21.8731 22.0663 21.8427 21.3782 21.7355 20.7468C21.6888 20.4716 21.7385 20.2061 21.5505 19.9608C20.919 19.0723 18.424 18.6871 17.5041 19.2136C17.0089 18.9046 16.997 19.4642 16.9183 19.8095C16.8309 19.9823 16.7836 20.1779 16.7982 20.3841C16.5638 20.8739 16.365 21.4866 15.8724 21.8524C15.2472 22.3166 14.2855 22.4931 13.676 22.7207C13.5393 22.5891 13.4975 22.3989 13.4975 22.3989C12.5529 22.6043 11.6361 22.9654 10.8447 23.5293C9.94554 23.7923 9.3123 24.5239 8.85439 25.3084C8.80394 25.391 8.79205 25.4754 8.80679 25.5528C7.39868 27.6177 6.72663 30.0897 6.63223 32.5863C5.72672 33.13 7.06262 38.0139 7.37361 39.0278C7.37392 39.0276 7.37424 39.0275 7.37455 39.0274C7.5763 39.3847 7.80538 40.4043 8.31029 40.3254C8.65665 40.7172 9.2086 40.6402 9.67862 40.6703C9.60206 40.964 9.63968 41.3001 9.73079 41.5904C9.83856 41.936 10.3674 41.9477 10.4424 41.571C15.1229 42.4807 19.9254 41.7548 24.6586 41.8914C26.0271 41.9011 27.3955 41.9434 28.7607 42.041C28.953 42.0547 29.1479 41.8582 29.1348 41.6667C28.8412 38.5427 28.5656 34.4331 28.2374 31.3397C28.1595 30.6343 28.098 29.921 27.8784 29.2424Z" fill="#D08B5B"/>
<path fill-rule="evenodd" clip-rule="evenodd" d="M13.5024 22.4192C13.5007 22.4123 13.499 22.4054 13.4975 22.3984C12.5529 22.6039 11.6361 22.965 10.8447 23.5288C9.94554 23.7919 9.3123 24.5235 8.85439 25.3079L8.84829 25.3183C8.80299 25.3976 8.79266 25.4782 8.80679 25.5524C7.39868 27.6173 6.72663 30.0892 6.63223 32.5859C5.72672 33.1296 7.06262 38.0134 7.37361 39.0274L7.37455 39.0269C7.42482 39.116 7.47679 39.2461 7.53431 39.3902C7.70759 39.8242 7.9312 40.3842 8.31029 40.325C8.59188 40.6435 9.00935 40.6522 9.40821 40.6604C9.49996 40.6623 9.59072 40.6642 9.67862 40.6698C9.60206 40.9636 9.63968 41.4876 9.73079 41.7779C9.83856 42.1234 24.7888 42.4049 28.7607 42.0406C28.9525 42.023 29.1479 41.8578 29.1348 41.6663C29.0115 40.3543 28.8914 38.8685 28.7692 37.3572C28.6004 35.2697 28.4278 33.1336 28.2374 31.3393C28.2299 31.2718 28.2226 31.2043 28.2153 31.1367C28.1463 30.4977 28.077 29.8557 27.8784 29.242C27.7999 29.0263 27.8756 28.8111 27.9499 28.6C27.9686 28.5468 27.9873 28.4938 28.0033 28.4412C28.2863 27.535 27.5653 25.2548 27.0484 25.2209L26.971 25.216C26.8189 24.8224 26.4719 24.6058 26.1307 24.3927C26.0379 24.3348 25.9456 24.2771 25.8577 24.2162L25.8288 24.196C25.668 24.0956 25.5086 23.9901 25.349 23.8844C25.0403 23.68 24.7306 23.4749 24.4071 23.3046C24.3798 23.0606 24.084 23.0001 23.9031 23.1747C23.824 23.1255 23.7425 23.0856 23.6591 23.0524L23.6261 23.5069C23.062 25.61 21.4925 26.7803 18.9176 27.0175C15.0553 27.3734 13.3144 23.5011 13.3144 23.1097C13.3144 22.9381 13.3711 22.7215 13.4845 22.4598L13.5024 22.4192ZM21.142 30.5033C21.2547 30.4354 21.4141 30.3524 21.6268 30.2707L21.8947 31.255L21.8947 31.255L21.8947 31.255L21.8947 31.255L21.8949 31.255L21.8957 31.2549L21.8989 31.2547L21.9123 31.2536L21.9643 31.2492C22.0096 31.2455 22.0754 31.2402 22.1568 31.2338C22.3196 31.2209 22.5441 31.2038 22.7911 31.1867C22.8792 31.1806 22.9693 31.1746 23.0598 31.1688L23.1576 32.2792L23.6336 32.2958C23.5804 32.377 23.5425 32.4007 23.5357 32.4049C23.5345 32.4057 23.5343 32.4058 23.5353 32.4054C23.3958 32.4496 23.2517 32.4774 23.0739 32.5117C23.0012 32.5257 22.9228 32.5408 22.8367 32.5586C22.7089 32.5849 22.554 32.6201 22.4098 32.6718C22.2843 32.7169 22.055 32.8118 21.8811 33.0206C21.8114 33.1044 21.7412 33.2109 21.6945 33.2817L21.6845 33.2969C21.6269 33.3842 21.5773 33.4588 21.5259 33.5269C21.4859 33.5798 21.455 33.6147 21.4333 33.6362C21.1787 33.6917 20.665 33.8266 20.2288 33.9432C20.0818 33.9825 19.9386 34.021 19.8096 34.0559L19.8071 34.0513C19.6566 33.7686 19.5365 33.466 19.5119 33.2285C19.4745 32.8669 19.4555 32.5193 19.446 32.2605L19.4455 32.2475L19.5183 32.2004L19.5838 32.1285L20.9223 30.6588C20.9273 30.6543 20.9354 30.6473 20.9468 30.638C20.9809 30.6101 21.0447 30.5619 21.142 30.5033ZM25.8509 30.1219C25.851 30.1219 25.8501 30.1226 25.8481 30.1239L25.8509 30.1219ZM26.6547 31.3886L26.6359 31.4004C26.6471 31.42 26.658 31.4406 26.6684 31.4619C26.7214 31.5704 26.8422 31.8635 26.7068 32.2013C26.5577 32.5736 26.2238 32.7046 26.0285 32.7483C25.8527 32.7877 25.4952 32.8655 25.1842 32.933L24.9726 32.9789C24.9585 33.0039 24.9436 33.0295 24.9277 33.0555C24.7796 33.2981 24.4863 33.6777 23.9881 33.8355C23.7571 33.9086 23.4847 33.9608 23.2858 33.999L23.2857 33.999C23.2308 34.0096 23.1814 34.019 23.1401 34.0276C23.0679 34.0425 23.0141 34.0551 22.9743 34.0659L22.9364 34.1232L22.9322 34.1295C22.8786 34.2107 22.8051 34.3221 22.7223 34.4317C22.6381 34.5429 22.5265 34.6767 22.3886 34.7942C22.2532 34.9096 22.0518 35.0445 21.7879 35.0945C21.6438 35.1218 21.1333 35.2541 20.6161 35.3923C20.367 35.4589 20.1287 35.5234 19.9527 35.5714L19.742 35.6289L19.6838 35.6448L19.6687 35.6489L19.6648 35.65L19.6639 35.6503L19.6637 35.6503L19.6636 35.6503L19.4648 34.9272C18.8575 35.3672 18.8574 35.3671 18.8573 35.3669L18.8571 35.3667L18.8567 35.3661L18.8557 35.3648L18.8531 35.3611L18.8453 35.3501C18.8424 35.346 18.839 35.3411 18.8351 35.3356C18.8306 35.3292 18.8255 35.3219 18.8199 35.3136C18.799 35.2832 18.7703 35.2405 18.7362 35.1875C18.6682 35.0821 18.5772 34.9331 18.4831 34.7562C18.3039 34.4197 18.0746 33.9115 18.0199 33.3829C17.978 32.9783 17.9573 32.5956 17.947 32.3157C17.9418 32.1752 17.9392 32.0592 17.9379 31.9777C17.9372 31.9369 17.9369 31.9046 17.9367 31.8821L17.9366 31.8559L17.9366 31.8485L17.9366 31.8463L17.9366 31.8456V31.8453V31.8452L18.6866 31.8451H17.9366V31.437L18.2793 31.2154L18.5403 31.0465L19.8292 29.6314L19.8384 29.6212L20.3813 30.1341C19.8385 29.6213 19.8387 29.6211 19.839 29.6208L19.8395 29.6203L19.8406 29.6192L19.8428 29.6168L19.8478 29.6116L19.8601 29.5992C19.8693 29.5901 19.8805 29.5792 19.8937 29.5669C19.9202 29.5422 19.9549 29.5113 19.9984 29.4759C20.0854 29.4048 20.2072 29.3153 20.3677 29.2186C20.6895 29.0246 21.1619 28.8047 21.8137 28.6456C22.4018 28.5019 23.1069 28.3485 23.698 28.2504C23.9911 28.2018 24.2743 28.1636 24.508 28.1495C24.623 28.1426 24.7481 28.1401 24.8664 28.1508L24.8679 28.1509C24.9423 28.1576 25.1853 28.1796 25.3958 28.3429C25.5991 28.5006 25.7358 28.6964 25.8118 28.8195C25.8531 28.8864 25.8851 28.9461 25.9074 28.9902C25.9186 29.0125 25.9277 29.0315 25.9345 29.0462L25.9431 29.0651L25.9462 29.0721L25.9474 29.0749L25.948 29.0762L25.9482 29.0768L25.9483 29.0771C25.9484 29.0772 25.9485 29.0773 25.2597 29.3741C25.9822 29.5753 25.9821 29.5755 25.9821 29.5758L25.9819 29.5762L25.9817 29.5772L25.9811 29.5792L25.9798 29.5837L25.9765 29.5949C25.974 29.6032 25.9709 29.6133 25.9671 29.6249C25.9629 29.6377 25.9579 29.6526 25.9519 29.6693C26.0784 29.682 26.2008 29.6987 26.3101 29.721C26.4055 29.7406 26.5435 29.7744 26.6749 29.8411C26.7523 29.8803 27.1499 30.0928 27.1499 30.5829C27.1499 30.8733 27.0029 31.0738 26.9205 31.1666C26.8307 31.2678 26.7301 31.3403 26.6547 31.3886ZM19.4648 34.9272L19.6636 35.6503L19.1624 35.7881L18.8575 35.3672L19.4648 34.9272ZM25.9822 29.5753L25.2597 29.3741L25.9485 29.0773L26.0532 29.3204L25.9822 29.5753ZM22.8976 34.0915C22.8974 34.0914 22.9004 34.0898 22.9076 34.087C22.9014 34.0902 22.8978 34.0916 22.8976 34.0915ZM21.408 33.6586L21.4107 33.6567C21.4089 33.6581 21.408 33.6587 21.408 33.6586Z" fill="#FFCF77"/>
<path fill-rule="evenodd" clip-rule="evenodd" d="M23.2013 28.9878L24.577 25.8705C24.577 25.8705 24.7849 25.3408 25.1379 25.3408C25.4908 25.3408 28.6915 25.4411 28.6915 25.4411C28.6915 25.4411 29.3465 25.5247 29.135 25.8705C28.9235 26.2163 25.7786 32.6512 25.7786 32.6512H24.4447V32.326L25.9297 31.9107C25.9297 31.9107 26.2 31.6239 25.7786 31.6239C25.3571 31.6239 22.9055 31.53 22.9055 31.53L25.2432 31.1869L26.3996 30.742L26.2295 30.5081L25.2432 30.3672L22.0312 30.5081L22.9055 30.2123L24.859 29.7976C24.859 29.7976 25.2432 29.5269 25.2432 29.2614C25.2432 28.996 24.2139 28.8939 24.2139 28.8939L23.2013 28.9878Z" fill="white"/>
<path fill-rule="evenodd" clip-rule="evenodd" d="M16.9949 19.4066C17.0083 19.3699 17.063 19.3748 17.0641 19.4159C17.0856 20.2943 16.867 21.3677 16.1644 21.961C15.8038 22.2656 15.3269 22.4049 14.8891 22.5651L14.8397 22.5833L14.066 22.8716C13.8608 22.9481 13.6395 23.0657 13.4582 22.9577C13.6049 23.3216 13.728 23.6954 13.9066 24.0461C14.129 24.4826 14.3978 24.8819 14.7268 25.2452C16.0303 26.6842 18.0932 27.1232 19.9444 26.7015C20.8977 26.4844 21.8253 26.0729 22.4757 25.3224C22.9699 24.7519 23.2539 23.9862 23.3208 23.2309C23.3013 23.2341 23.2808 23.2339 23.2597 23.2293C23.0255 23.1782 22.789 23.0526 22.5829 22.9294L22.5631 22.9175C22.3648 22.7981 22.1581 22.6612 22.0157 22.4757C21.8744 22.2914 21.7261 21.6903 21.7261 21.6903C21.6857 21.4644 21.6477 21.0144 21.6542 20.786C21.6548 20.7645 21.7504 20.7518 21.7606 20.7742C21.8489 20.968 21.8774 21.394 21.9456 21.5957L21.9593 21.636C22.0321 21.8467 22.0945 22.1032 22.2454 22.2736C22.5287 22.5934 22.9561 22.7288 23.3376 22.8892C23.365 22.5277 23.9422 22.5361 23.9348 22.9132C23.9344 22.9336 23.9335 22.954 23.9328 22.9743C23.9783 22.9994 24.0221 23.028 24.063 23.0556L24.1029 23.0827C24.254 23.1856 24.4063 23.2833 24.5672 23.3705C24.8787 23.5394 25.2085 23.6734 25.5277 23.8267C25.8506 23.9818 26.1526 24.1667 26.4346 24.3879C26.567 24.4918 26.694 24.6024 26.8145 24.72L26.8472 24.7522C26.9618 24.8664 27.111 24.9941 27.1763 25.1442C27.1907 25.1773 27.2628 25.2543 27.302 25.2569C27.9084 25.2967 28.5136 25.3528 29.1162 25.437C29.2722 25.4588 29.3339 25.5393 29.2762 25.6694C29.0781 26.1164 28.3022 27.9018 28.0959 28.381C28.12 28.733 28.0874 29.1474 28.1091 29.4995C28.1409 30.0133 28.1825 30.5269 28.2324 31.0393C28.4108 32.8721 28.6812 34.6961 28.9256 36.5209C29.0479 37.4342 29.1594 38.3488 29.2695 39.2637C29.3251 39.726 29.3723 40.1887 29.4086 40.653C29.4237 40.8465 29.4374 41.0401 29.4495 41.2337L29.4599 41.4055C29.4744 41.6217 29.5074 41.8282 29.3737 42.0137C29.313 42.0979 29.1746 42.1453 29.0949 42.0497C28.9946 41.9295 28.9574 41.8397 28.9478 41.6818C28.9405 41.5609 28.9387 41.4395 28.9332 41.3185C28.9213 41.0562 28.9064 40.7941 28.8889 40.5321C28.8539 40.0084 28.814 39.4848 28.7678 38.9619C28.6057 37.1286 28.2978 35.309 28.0929 33.4802C27.9896 32.5582 27.9162 31.6345 27.8774 30.7074C27.8579 30.2444 27.8509 29.7815 27.8555 29.3181C27.8572 29.145 27.8654 28.9727 27.8772 28.8008C27.5703 29.4985 27.2475 30.1894 26.9101 30.8711L26.8302 31.0326C26.6163 31.4635 26.3968 31.896 26.1398 32.3022L26.0956 32.3715C25.9915 32.5365 25.8493 32.7967 25.6594 32.8487C25.5272 32.885 25.3656 32.8595 25.23 32.8569C25.0955 32.8543 24.9607 32.8537 24.8263 32.8483C24.6755 32.8422 24.5315 32.8224 24.3858 32.7831C24.3616 32.7766 24.3386 32.7695 24.3178 32.7605C24.1709 33.0009 23.9214 33.184 23.6663 33.2907C23.4619 33.3761 23.2478 33.4347 23.0332 33.4889L22.9575 33.5079C22.7275 33.5652 22.4644 33.5925 22.3347 33.8146L22.3046 33.8661C22.2082 34.03 22.1157 34.174 21.9561 34.2915C21.7843 34.418 21.5807 34.4976 21.378 34.5595C21.1704 34.6229 20.9579 34.6714 20.7471 34.7234L20.6897 34.7377C20.5505 34.7725 20.4101 34.8045 20.2718 34.8424C20.2128 34.8586 20.1527 34.8752 20.0948 34.8951C20.027 34.9184 19.9777 34.9548 19.9243 34.9944C19.8762 35.1624 19.6707 35.2536 19.5017 35.2419C19.413 35.2358 19.3334 35.2057 19.261 35.1615C19.1346 35.2692 18.9954 35.3656 18.8665 35.4653C18.6861 35.605 18.5049 35.7437 18.3228 35.8811C17.9472 36.1643 17.5688 36.4437 17.1864 36.7177C16.5077 37.2039 15.8143 37.6679 15.109 38.1147C14.815 38.301 14.5189 38.487 14.22 38.6686L14.2519 38.6804L14.3152 38.7043C14.4648 38.7602 14.6314 38.8504 14.6604 39.025C14.6834 39.1635 14.6061 39.2589 14.4694 39.2758C14.307 39.2959 14.1806 39.1811 14.0795 39.0715C14.0349 39.0232 13.9849 38.9783 13.9422 38.9285C13.9247 38.9082 13.9113 38.8848 13.8995 38.8602C13.6045 39.0342 13.3064 39.2022 13.0035 39.3594L12.9277 39.3984C12.1766 39.7826 11.4455 40.2036 10.6881 40.5769C10.4905 40.6743 10.2496 40.7796 9.99846 40.8515C10.0651 41.1099 10.0641 41.3935 10.0658 41.6558C10.0674 41.9113 9.66137 41.9101 9.66995 41.6558L9.67408 41.533C9.68147 41.3264 9.69355 41.112 9.74253 40.911C9.00267 41.0338 8.26356 40.767 8.12594 40.6869C7.97405 40.5985 7.83618 40.4571 7.72144 40.326C7.4759 40.0452 7.30551 39.7087 7.15433 39.3701C6.83051 38.6451 6.60109 37.8701 6.43336 37.095C5.81499 34.2373 6.08097 31.1788 7.08519 28.4395C7.33609 27.7551 7.6323 27.0858 7.97174 26.4406L8.01388 26.3609C8.3526 25.7229 8.72906 25.0874 9.20726 24.5445C9.70535 23.9791 10.3198 23.5393 10.9888 23.198C11.3152 23.0314 11.6512 22.887 11.9945 22.7591C12.0497 22.7385 12.1052 22.7201 12.1608 22.7025C12.5187 22.4743 12.9529 22.256 13.3873 22.2646C13.4168 22.2651 13.4407 22.2763 13.4586 22.2932C13.4795 22.2969 13.5004 22.3013 13.5214 22.3074C13.5677 22.3208 13.6166 22.3716 13.61 22.4237L13.6077 22.4411C13.6065 22.4496 13.6049 22.4577 13.6023 22.4657C13.6178 22.468 13.633 22.4717 13.648 22.4768C14.0636 22.3594 14.4725 22.1799 14.8781 22.035L14.9705 22.0024C15.3101 21.8833 15.6586 21.7666 15.9373 21.5309C16.2145 21.2964 16.4229 20.9928 16.5736 20.6645C16.7593 20.26 16.8424 19.8218 16.9949 19.4066ZM25.316 40.7395C25.3983 40.6783 25.4956 40.7493 25.5264 40.8251C25.6275 41.0739 25.5775 41.4605 25.435 41.6804C25.2874 41.9083 24.9339 41.8184 24.9254 41.5423C24.9164 41.2545 25.0837 40.9125 25.316 40.7395ZM26.166 33.8702C26.1734 33.8379 26.2236 33.8382 26.2311 33.8702C26.2996 34.1621 26.298 34.4765 26.3181 34.7758L26.3205 34.809C26.3446 35.139 26.3649 35.47 26.3794 35.8006C26.4077 36.4511 26.4417 37.1016 26.4797 37.7516C26.4986 38.0739 26.5188 38.3962 26.5404 38.7184C26.6079 38.6807 26.6775 38.6477 26.7496 38.6185C26.8576 38.5748 26.9628 38.5698 27.0789 38.571C27.2203 38.5724 27.3267 38.6968 27.308 38.8354C27.2876 38.9863 27.1548 39.0509 27.0169 39.0294C26.8642 39.0054 26.7108 38.9684 26.5566 38.9531C26.5737 39.2022 26.5915 39.4512 26.6103 39.7001C26.6353 40.0297 26.6678 40.3588 26.6906 40.6885C26.6928 40.7199 26.6952 40.7514 26.6976 40.783C26.7895 40.7352 26.8872 40.7107 26.9979 40.6805L27.0266 40.6725C27.1873 40.6263 27.3592 40.5625 27.508 40.6705C27.6079 40.7432 27.6279 40.8628 27.5451 40.9587C27.4195 41.1041 27.2337 41.0759 27.0603 41.0685L26.967 41.0651C26.879 41.0616 26.7979 41.056 26.7166 41.0338C26.7315 41.2485 26.7394 41.4641 26.7131 41.6758C26.6988 41.7901 26.5483 41.8202 26.5085 41.7034C26.4044 41.3985 26.3829 41.0696 26.3448 40.7502C26.3092 40.4519 26.2876 40.1514 26.2643 39.8518L26.2573 39.7619C26.2049 39.1027 26.163 38.4431 26.1323 37.7826C26.1017 37.1221 26.0833 36.4617 26.076 35.8006C26.0726 35.5004 26.0776 35.1991 26.0894 34.899L26.0931 34.809C26.1066 34.5003 26.0972 34.1727 26.166 33.8702ZM12.4125 40.7882C12.4165 40.746 12.4503 40.6936 12.5006 40.7001C12.5468 40.7061 12.5945 40.7032 12.6403 40.7109C12.7008 40.7209 12.7494 40.7566 12.8056 40.7791C12.897 40.8157 12.9966 40.8345 13.0903 40.8644C13.2662 40.9206 13.362 41.1058 13.2892 41.2787C13.2126 41.4606 13.0201 41.5018 12.8539 41.4255C12.7228 41.3654 12.6251 41.2693 12.5369 41.158L12.512 41.1263C12.474 41.0785 12.4309 41.0252 12.415 40.9673C12.3995 40.9109 12.4071 40.8456 12.4125 40.7882ZM20.9571 39.9334C21.1761 39.9025 21.3632 39.9774 21.5659 40.0481L21.5824 40.0538C21.7887 40.125 22.0897 40.1743 22.1954 40.3855C22.2592 40.5129 22.2096 40.6821 22.0595 40.7198C21.8218 40.7794 21.6086 40.6056 21.4121 40.4886L21.4017 40.4825C21.212 40.3713 21.0162 40.2778 20.895 40.086C20.8627 40.0349 20.8907 39.9427 20.9571 39.9334ZM13.3101 22.5058C13.2224 22.5255 13.1346 22.5428 13.0469 22.5596C12.7135 22.7384 12.3898 22.9239 12.0454 23.0832C11.6801 23.2523 11.3161 23.4269 10.9691 23.6314C10.2681 24.0445 9.69014 24.5817 9.21258 25.2401C8.38767 26.3775 7.77405 27.6892 7.3349 29.0201C7.22206 29.362 7.12109 29.7077 7.03177 30.0564C7.1897 29.9103 7.37668 29.8205 7.58635 29.7435C7.67521 29.7109 7.78582 29.7661 7.83086 29.8431C7.85111 29.8776 7.86253 29.9118 7.86044 29.9524C7.85577 30.0419 7.79756 30.1435 7.70147 30.1613C7.47746 30.2026 7.25965 30.283 7.04366 30.3537C7.01092 30.3645 6.98278 30.3604 6.96031 30.3477C6.74588 31.2564 6.61174 32.1837 6.56422 33.1166C6.52404 33.9064 6.54882 34.7024 6.63627 35.4911C6.70347 35.4609 6.7692 35.4325 6.84288 35.4154C6.93843 35.3931 7.03242 35.3661 7.12563 35.3355C7.39461 35.2473 7.51731 35.6915 7.24238 35.7592C7.14006 35.7844 7.03712 35.8053 6.93286 35.8206C6.842 35.834 6.76163 35.8281 6.67596 35.8141C6.74141 36.3062 6.8308 36.7947 6.94466 37.2762L6.96979 37.3816C7.1177 37.9966 7.29008 38.6174 7.53937 39.1986C7.66166 39.4837 7.82357 39.7545 8.02347 39.9922C8.12169 40.1091 8.2307 40.2093 8.34958 40.3042C8.44854 40.3833 8.78495 40.5547 9.18338 40.5547C9.5818 40.5547 9.68966 40.517 9.89067 40.4478C10.2882 40.3109 10.6656 40.0924 11.0384 39.8977L11.077 39.8777C11.2418 39.7923 11.4061 39.7058 11.5699 39.6184C11.5492 39.4514 11.5854 39.3111 11.6724 39.1568C11.7664 38.9899 11.9995 39.073 12.0168 39.2437L12.0174 39.2503C12.02 39.2887 12.0264 39.328 12.0345 39.3671C13.1296 38.7669 14.2016 38.1247 15.2566 37.4556C15.9361 37.0245 16.6084 36.5805 17.2709 36.1236C17.602 35.8952 17.9303 35.6627 18.2554 35.4256C18.4256 35.3014 18.5951 35.1762 18.7638 35.0499C18.8341 34.9973 18.903 34.9421 18.9734 34.8892C18.9563 34.8678 18.9396 34.8464 18.9235 34.8252C18.6605 34.4808 18.4899 34.0703 18.4049 33.6467C18.3536 33.3912 18.3288 33.1259 18.3212 32.8653L18.3179 32.752C18.3127 32.5611 18.3113 32.3613 18.3465 32.1764C18.2987 32.2027 18.2498 32.2285 18.201 32.2561C18.0262 32.3552 17.8511 32.4541 17.6758 32.5525C17.3248 32.7495 16.9727 32.9442 16.6161 33.1311C15.9793 33.4649 15.3361 33.7824 14.6756 34.0669L14.3543 34.2055C13.7965 34.4455 13.2341 34.6812 12.6542 34.8596C12.3271 34.9602 11.8366 35.0847 11.5048 35.1615C11.5048 35.1615 11.9047 35.5384 11.6153 35.6681C11.3259 35.7978 11.0862 35.3004 11.0766 35.2554C10.9238 35.2873 10.4873 35.3647 10.4873 35.3647C10.0725 35.4448 9.67038 35.6033 9.29963 35.8063C9.17074 35.8768 9.13483 35.7398 9.27139 35.6443C9.67069 35.365 10.1364 35.207 10.617 35.0744L10.6406 35.0679C10.8169 35.0196 10.9929 34.9692 11.1685 34.9171C11.1492 34.8472 11.1381 34.7747 11.1403 34.6947C11.1453 34.5166 11.161 34.3378 11.1705 34.1598C11.1903 33.7862 11.2156 33.4138 11.2453 33.0409C11.2567 32.8972 11.2695 32.7532 11.2841 32.6092C11.1899 32.5587 11.1087 32.4917 11.0037 32.4587L10.9859 32.4535C10.8736 32.4232 10.9115 32.2785 11.0113 32.2661C11.1017 32.2549 11.1916 32.26 11.2807 32.2792C11.2945 32.2822 11.3075 32.2855 11.32 32.2893C11.3363 32.156 11.3545 32.023 11.3751 31.8908C11.4297 31.5414 11.4683 31.1733 11.5818 30.8376C11.5902 30.8128 11.6271 30.8039 11.6408 30.8299C11.806 31.1443 11.8117 31.53 11.8304 31.88L11.8327 31.9219C11.8546 32.3038 11.8559 32.6895 11.8488 33.0719C11.8415 33.4661 11.828 33.8592 11.8104 34.253C11.8033 34.4116 11.8035 34.5761 11.7765 34.7277C12.7596 34.4081 13.7252 34.0254 14.6508 33.5723C15.3038 33.2527 15.951 32.9203 16.591 32.5754C16.9116 32.4026 17.2337 32.2326 17.554 32.0592C17.6662 31.9984 17.7783 31.9374 17.8904 31.8764L18.0585 31.7847C18.2158 31.6988 18.3471 31.6133 18.5304 31.6073C18.585 31.6055 18.634 31.6311 18.6687 31.6699C18.7672 31.6 18.881 31.5571 19.0004 31.5581C19.1802 31.3097 19.3628 31.0633 19.5525 30.8223L19.6928 30.6438C19.9355 30.3359 20.1925 30.0234 20.502 29.789C20.6401 29.6845 20.792 29.606 20.9505 29.5412C20.9132 29.5321 20.8767 29.5138 20.8442 29.4836C20.6929 29.3433 20.672 29.0825 20.6413 28.8866C20.6094 28.6835 20.6217 28.5017 20.6532 28.2993C20.6654 28.2206 20.7957 28.2042 20.8275 28.2765C20.8945 28.4289 20.9655 28.5749 21.0265 28.729L21.0444 28.7755C21.1099 28.9489 21.2493 29.1314 21.2401 29.3196C21.2376 29.3712 21.2203 29.4161 21.1936 29.4522C21.3266 29.408 21.4615 29.3686 21.5944 29.3276C22.0124 29.1983 22.4321 29.0728 22.8582 28.9725C22.9716 28.9458 23.0856 28.9211 23.2001 28.8983C23.26 28.6135 23.3474 28.334 23.4505 28.0595C23.3529 28.0095 23.2897 27.9256 23.2057 27.8511C23.1271 27.7813 23.0731 27.6963 23.006 27.6161C22.9449 27.5432 22.9792 27.4114 23.089 27.4157L23.1201 27.417C23.2338 27.4223 23.3439 27.434 23.4469 27.4871L23.4837 27.506C23.534 27.5322 23.5892 27.5622 23.6383 27.5976C23.7025 27.4498 23.7692 27.3035 23.8367 27.1586L23.9242 26.9713C24.1512 26.4837 24.3776 25.9776 24.6626 25.5236C24.7893 25.3217 24.9579 25.1957 25.1999 25.1762C25.4491 25.1561 25.7082 25.1821 25.9577 25.191C26.247 25.2014 26.5362 25.2136 26.8252 25.2288C26.7511 25.1512 26.6835 25.0648 26.6091 24.9903C26.4856 24.8668 26.3551 24.7497 26.218 24.6414C25.9465 24.4272 25.6481 24.2507 25.3381 24.0987C25.028 23.9467 24.7088 23.8142 24.4177 23.6264C24.2335 23.5075 24.0689 23.358 23.9187 23.1962C23.8241 24.2166 23.3316 25.1647 22.5916 25.8769C21.823 26.6166 20.7609 27.0231 19.7219 27.1959C18.6622 27.3723 17.5561 27.3076 16.5423 26.9391C16.0196 26.749 15.5182 26.4776 15.0711 26.1371C15.0662 26.1667 15.0603 26.196 15.0487 26.2235C15.0331 26.2605 15.014 26.292 14.9922 26.3244L14.9532 26.3815C14.9286 26.4173 14.9035 26.4528 14.8756 26.4861C14.8081 26.5666 14.7123 26.6018 14.6092 26.6015C14.4117 26.6008 14.2622 26.4071 14.3153 26.2156C14.3487 26.0952 14.4202 26.0227 14.5317 25.9756C14.567 25.9607 14.6029 25.9482 14.6391 25.9359L14.6662 25.9267C14.7027 25.9142 14.739 25.9023 14.7766 25.8954C14.5648 25.7084 14.3684 25.5052 14.1925 25.2858C13.6408 24.5979 13.0966 23.6344 13.2811 22.7208C13.2843 22.7051 13.2984 22.6952 13.3136 22.6927C13.3243 22.6286 13.3584 22.5665 13.4052 22.5248C13.3737 22.5166 13.342 22.5102 13.3101 22.5058ZM19.0391 38.3021C19.1483 38.2413 19.2612 38.3858 19.1724 38.475L19.0398 38.6077C18.9168 38.7314 18.797 38.8564 18.6917 38.9974L18.6662 39.0318C18.524 39.2253 18.3724 39.4495 18.1395 39.5218C17.8577 39.6092 17.587 39.2659 17.7501 39.0151C17.8927 38.7959 18.1671 38.7132 18.4037 38.6226C18.6276 38.5369 18.8298 38.4185 19.0391 38.3021ZM9.94982 37.2907C10.014 37.2066 10.1814 37.2509 10.1376 37.3699C9.99511 37.7562 9.93705 38.283 9.5773 38.5396C9.46125 38.6224 9.27893 38.5843 9.18338 38.4888C9.0748 38.3802 9.07045 38.2272 9.13255 38.0947C9.20828 37.933 9.39455 37.8158 9.52512 37.6927L9.53683 37.6815C9.6773 37.545 9.82923 37.4486 9.94982 37.2907ZM24.9854 37.7353C25.1 37.6859 25.3986 37.5898 25.4871 37.7035C25.4913 37.7077 25.4948 37.7122 25.4976 37.7173C25.5193 37.755 25.5226 37.8082 25.4976 37.8457C25.3945 38.0007 25.2871 38.1164 25.1405 38.2268L25.124 38.239C24.9644 38.3564 24.8145 38.4943 24.62 38.5472C24.3504 38.6206 24.1621 38.283 24.3514 38.0858C24.5039 37.927 24.7368 37.8445 24.9389 37.7559L24.9854 37.7353ZM14.1596 35.5279C14.1145 35.4464 14.2067 35.3463 14.2901 35.3974C14.5281 35.5429 14.8054 35.6521 15.0728 35.7305C15.181 35.7623 15.2786 35.872 15.2705 35.9904L15.2693 36.0083C15.2661 36.0501 15.2603 36.0916 15.2338 36.1264C15.1407 36.2482 15.0075 36.2952 14.8652 36.2231C14.5482 36.0624 14.3312 35.838 14.1596 35.5279ZM21.1167 35.281C21.1109 35.2467 21.1359 35.2202 21.1708 35.2268C21.3719 35.265 21.5577 35.3622 21.7305 35.4739C21.8231 35.5338 21.9125 35.5996 22.0049 35.6602C22.1191 35.7349 22.1618 35.7966 22.1787 35.9337C22.1898 36.0242 22.1054 36.1069 22.0279 36.1319C21.8168 36.2 21.5749 35.9765 21.4318 35.8313L21.4254 35.8247C21.2757 35.6721 21.1522 35.4915 21.1167 35.281ZM27.1583 35.0438C27.1125 34.9199 27.2705 34.8172 27.3738 34.8781C27.4712 34.9353 27.5767 34.9828 27.6685 35.0485C27.7529 35.1088 27.8298 35.1803 27.9107 35.2457L27.9507 35.2773C28.099 35.3966 28.3439 35.6917 28.1318 35.8629C27.9299 36.0258 27.6622 35.8177 27.5267 35.6656L27.5173 35.6549C27.4393 35.5648 27.3432 35.4669 27.2866 35.3617C27.2334 35.2626 27.1973 35.1489 27.1583 35.0438ZM25.1674 25.4548C24.9145 25.5039 24.8115 25.8162 24.705 26.0197C24.4537 26.5 24.2226 26.9891 23.9904 27.4789C23.919 27.6295 23.8494 27.7813 23.7792 27.9328C23.7749 27.9447 23.7694 27.9564 23.7629 27.9679C23.6191 28.2777 23.471 28.5854 23.2979 28.8794C23.4563 28.8498 23.6156 28.8245 23.7754 28.8045C23.7674 28.654 23.8704 28.4525 23.9214 28.3257L23.9256 28.3151C23.9892 28.1526 24.0558 27.8967 24.2195 27.8125C24.274 27.7844 24.3323 27.8196 24.3365 27.8796C24.3489 28.0584 24.1741 28.263 24.0886 28.4148C24.037 28.5066 23.9866 28.5988 23.9375 28.692C23.9191 28.7269 23.9038 28.7611 23.8849 28.7919C23.9673 28.783 24.0499 28.775 24.1326 28.7692L24.1865 28.7655C24.4933 28.7453 24.8192 28.7395 25.0964 28.8909C25.3535 29.0312 25.485 29.3309 25.3437 29.6038C25.1677 29.9437 24.7801 29.9888 24.4392 30.0163C24.0135 30.0507 23.5868 30.1127 23.1641 30.1732C22.7269 30.2358 22.3151 30.397 21.8844 30.4799C21.8443 30.4876 21.8194 30.4352 21.8561 30.4128C22.1959 30.2059 22.6089 30.0921 22.9888 29.9761L23.0195 29.9667C23.2256 29.9034 23.4269 29.831 23.6401 29.7951C23.847 29.7603 24.0552 29.732 24.2639 29.7106L24.2842 29.7087C24.514 29.6894 25.1002 29.696 25.0754 29.3557C25.059 29.1304 24.693 29.0915 24.5259 29.0888C23.7599 29.0765 22.9884 29.2799 22.2604 29.4979L22.0979 29.5466C21.7998 29.6363 21.5013 29.7287 21.2088 29.8338C20.8773 29.953 20.6162 30.1388 20.3748 30.3932C20.1071 30.6752 19.8479 30.9636 19.5702 31.2361C19.3951 31.4079 19.2178 31.5766 19.0391 31.744C18.9987 31.7963 18.9664 31.8532 18.944 31.927C18.9062 32.0516 18.9149 32.1675 18.9292 32.2956C18.9652 32.619 18.9731 32.9458 19.0182 33.2682C19.0601 33.5668 19.1185 33.8765 19.2425 34.1536C19.2916 34.2633 19.3555 34.3711 19.4282 34.4674L19.487 34.5438C19.5126 34.577 19.5412 34.6133 19.5713 34.6474C19.6154 34.5936 19.6792 34.5585 19.7535 34.5673C19.9112 34.5859 20.0351 34.5814 20.1899 34.5452C20.3096 34.5171 20.4284 34.4843 20.5476 34.4539C20.7817 34.3941 21.018 34.3398 21.2497 34.2712L21.2895 34.2592C21.4622 34.2062 21.6349 34.1398 21.7787 34.0283C21.9456 33.8987 21.997 33.7118 22.1207 33.5501C22.3848 33.2049 22.9555 33.2121 23.3419 33.1176C23.6703 33.0372 23.9863 32.9104 24.2136 32.6721L24.2268 32.6579C24.2168 32.6154 24.2331 32.5674 24.2726 32.5453L24.2812 32.5405C24.2966 32.5319 24.3132 32.5283 24.3295 32.5287C24.3506 32.4977 24.3709 32.4657 24.3894 32.4316C24.4046 32.4035 24.4427 32.4242 24.4377 32.452C24.4347 32.4685 24.4306 32.4847 24.4267 32.5009C24.6468 32.4442 24.8886 32.455 25.1121 32.4552L25.4021 32.4542C25.4523 32.4535 25.5271 32.451 25.5338 32.448L25.5406 32.445C25.5587 32.4371 25.533 32.4501 25.5457 32.4333C25.5596 32.4148 25.5732 32.3961 25.5867 32.3772C25.6348 32.3099 25.6802 32.2406 25.7248 32.1707C25.2391 32.2944 24.7359 32.3714 24.24 32.4357C23.7079 32.5046 23.1688 32.5525 22.632 32.553C22.484 32.5531 22.4853 32.3296 22.632 32.324C23.2004 32.3023 23.7659 32.2722 24.3305 32.1994C24.6225 32.1616 24.9133 32.1143 25.2024 32.059C25.314 32.0376 25.4254 32.015 25.5365 31.991L25.6197 31.9729C25.672 31.9613 25.8196 31.9447 25.8916 31.8964C25.9057 31.872 25.9199 31.8478 25.9339 31.8235C25.927 31.7381 25.7102 31.7496 25.6593 31.7495C25.5152 31.7492 25.371 31.7503 25.2269 31.7507C24.9386 31.7516 24.6503 31.749 24.362 31.7467C23.786 31.742 23.2078 31.7219 22.6322 31.7465C22.4925 31.7525 22.4191 31.5283 22.5572 31.4694C23.1668 31.209 23.8436 31.1524 24.4945 31.0723C24.8368 31.0303 25.1793 30.9817 25.514 30.8965L25.5967 30.8755C25.8069 30.8216 26.0391 30.7558 26.2161 30.6274C25.95 30.5197 25.6193 30.532 25.3435 30.5168L25.3224 30.5155C24.9362 30.4918 24.5493 30.4797 24.1624 30.4791C23.3707 30.478 22.5788 30.5061 21.788 30.5436C21.7682 30.5445 21.7641 30.5132 21.7833 30.509C22.5961 30.3316 23.4222 30.2461 24.254 30.233C24.6414 30.2268 25.029 30.2323 25.416 30.2494L25.5581 30.256C25.8881 30.2702 26.2543 30.2741 26.5304 30.4734C26.5725 30.5038 26.5946 30.5426 26.5981 30.5836C26.9684 29.8452 27.3104 29.0914 27.6538 28.3425C27.9207 27.7603 28.1777 27.1731 28.4544 26.5954L28.544 26.4085C28.6639 26.1591 28.7868 25.9097 28.9233 25.6694C28.413 25.6011 27.9 25.5538 27.3866 25.5175C26.9189 25.4844 25.3926 25.4112 25.1674 25.4548ZM24.9415 33.4578C24.9996 33.4255 25.0888 33.4518 25.1031 33.5236C25.1138 33.5771 25.132 33.6364 25.132 33.6911C25.132 33.7566 25.1086 33.8277 25.0961 33.8918C25.0674 34.0391 25.0321 34.1589 24.9572 34.2901C24.9103 34.3723 24.8157 34.428 24.7206 34.4258C24.6453 34.4241 24.5786 34.4039 24.5269 34.3456C24.465 34.2757 24.4225 34.173 24.4564 34.0789C24.5454 33.8325 24.7089 33.587 24.9415 33.4578ZM12.6004 33.212C12.7365 32.9734 13.0593 32.7602 13.3409 32.7813C13.7638 32.813 13.8501 33.3826 13.4406 33.5185C13.1959 33.5998 12.8592 33.5164 12.6452 33.3827C12.5874 33.3467 12.5663 33.2718 12.6004 33.212ZM8.25426 32.397C8.22333 32.352 8.27445 32.3006 8.32052 32.3107C8.42271 32.3332 8.53288 32.343 8.63297 32.3735C8.73548 32.4047 8.8347 32.4564 8.93623 32.492C9.14894 32.5665 9.37614 32.6039 9.58199 32.6939C9.66427 32.7299 9.729 32.8491 9.72139 32.937L9.71945 32.9576C9.7149 33.0012 9.70734 33.0392 9.68296 33.0791C9.61745 33.1861 9.48765 33.2414 9.36515 33.2085C9.13789 33.1474 8.91582 32.9905 8.72205 32.8602L8.68624 32.8364C8.60159 32.7806 8.51055 32.7222 8.44233 32.6504C8.37113 32.5754 8.3126 32.4819 8.25426 32.397ZM16.0664 31.5294C16.0402 31.4351 16.1574 31.3728 16.2258 31.4365C16.3623 31.5638 16.505 31.6818 16.6388 31.8122L16.6477 31.8211C16.7435 31.9174 16.8828 32.1029 16.7582 32.2274C16.5987 32.387 16.3765 32.1502 16.2909 32.0268C16.1823 31.8702 16.1172 31.7124 16.0664 31.5294ZM26.5141 30.7501C26.3116 30.9647 25.9995 31.0634 25.7248 31.1451C25.399 31.242 25.0634 31.2999 24.7274 31.3474C24.4027 31.3934 24.0806 31.4345 23.7611 31.4873C24.0028 31.4903 24.2444 31.4921 24.4855 31.4964C24.7636 31.5014 25.0416 31.5074 25.3196 31.5155C25.522 31.5214 25.7596 31.4936 25.952 31.5689C25.9867 31.5824 26.0191 31.6012 26.0474 31.6241C26.2091 31.3364 26.3641 31.0447 26.5141 30.7501ZM14.0214 28.7433C14.2328 28.6761 14.4316 28.587 14.6557 28.6101C14.7153 28.6162 14.7579 28.6742 14.7254 28.7315C14.6192 28.9185 14.4465 29.024 14.2765 29.1491L14.2615 29.1602C14.0755 29.2986 13.8757 29.4248 13.6733 29.5384C13.3249 29.734 13.0127 29.1742 13.3646 29.01C13.5763 28.9111 13.7987 28.8141 14.0214 28.7433ZM17.8274 28.2573C18.1508 28.2786 18.474 28.2931 18.7978 28.3062C19.1729 28.3213 19.0468 28.8987 18.7335 28.7819C18.4239 28.6664 18.1144 28.5524 17.802 28.4447C17.707 28.4119 17.7146 28.2557 17.8213 28.2571L17.8274 28.2573ZM9.53234 27.2301C9.61616 27.2242 9.7007 27.2425 9.78464 27.2506L9.87396 27.2593C10.0581 27.2776 10.2307 27.3002 10.4063 27.3752C10.7303 27.5135 10.5563 28.0346 10.2311 28.0226C9.99065 28.0138 9.78508 27.9105 9.58208 27.7903C9.40461 27.6851 9.29582 27.5536 9.17597 27.3886C9.13629 27.3339 9.19159 27.2726 9.24564 27.2671C9.34086 27.2574 9.4371 27.2367 9.53234 27.2301ZM25.7739 26.166C25.7203 26.5007 25.5872 26.8144 25.3867 27.0875C25.2859 27.2247 25.1089 27.2299 25.0091 27.0875C24.8678 26.886 24.9549 26.6551 25.0613 26.4616L25.0928 26.4049C25.1405 26.3199 25.2137 26.196 25.2973 26.1104L25.2987 26.1017C25.3436 25.7513 25.8291 25.8212 25.7739 26.166ZM12.693 24.0181C12.7736 23.9455 12.9221 23.9673 12.9483 24.0855C12.9849 24.2511 13.0072 24.4377 12.9832 24.6057C12.9702 24.6968 12.9653 24.7991 12.9295 24.884C12.891 24.9753 12.817 25.0455 12.7472 25.1141C12.6079 25.2511 12.3143 25.2058 12.277 24.9899L12.2723 24.9634C12.2535 24.8613 12.2295 24.7521 12.2573 24.6509C12.2783 24.5745 12.3251 24.4965 12.3639 24.4257L12.3721 24.4106C12.4498 24.2659 12.5709 24.1281 12.693 24.0181ZM24.0261 24.3704L24.0552 24.3707C24.2803 24.3751 24.6917 24.4299 24.6939 24.7081C24.6944 24.7737 24.6459 24.8416 24.5808 24.8567C24.4463 24.8879 24.3593 24.8084 24.2635 24.7281C24.1851 24.6624 24.0937 24.6099 23.9987 24.5722C23.8962 24.5314 23.9029 24.3702 24.0261 24.3704Z" fill="black"/>
<path fill-rule="evenodd" clip-rule="evenodd" d="M24.3893 13.5284C24.2733 12.601 23.9092 11.6163 23.5262 10.7516C22.6649 8.92346 20.6933 8.67176 18.9258 8.29484C17.1816 8.04028 15.3347 7.81042 13.6168 8.31832C12.6511 8.5555 12.2739 9.70857 12.4263 10.6185C12.5133 11.1855 12.7707 11.7222 12.9903 12.2477C13.4266 13.3268 13.7035 14.4822 13.7039 15.6506C13.674 16.4141 13.5665 17.2856 14.4417 17.6091C15.2746 18.0243 15.345 19.1499 16.3879 19.7885C16.8096 20.6448 17.9583 20.7202 18.7851 20.9188C19.3076 21.0191 19.8361 21.0929 20.366 21.1405C21.9003 21.3376 23.1278 20.8919 23.931 19.5217C24.4685 18.6878 24.8687 17.7249 24.7698 16.7142C24.6713 15.65 24.5073 14.5913 24.3893 13.5284Z" fill="#D08B5B"/>
<path fill-rule="evenodd" clip-rule="evenodd" d="M18.9385 6.07305C19.0261 5.97354 19.161 6.00767 19.2429 6.08635C19.2962 6.1021 19.3479 6.12552 19.3967 6.15652C19.5069 6.14234 19.6225 6.14234 19.7307 6.14631C19.7569 6.13157 19.785 6.11845 19.8156 6.10718C20.0342 6.02705 20.2279 6.06775 20.3876 6.17503C20.4645 6.10207 20.5615 6.05629 20.6856 6.06321C20.7963 6.06941 20.8752 6.12164 20.9428 6.19043C21.0102 6.09296 21.1192 6.02342 21.255 6.01374C21.4448 6.00022 21.6273 6.07652 21.7785 6.19466C21.8666 6.09334 21.9868 6.0351 22.1206 6.03453C22.2087 6.0185 22.3017 6.02483 22.3856 6.05025C22.5076 6.08717 22.6146 6.15633 22.6999 6.2461C22.8348 6.1166 22.9999 6.02342 23.1903 6.03701C23.4368 6.05485 23.641 6.23649 23.736 6.46005C23.9028 6.52703 24.0567 6.62256 24.1854 6.75876C24.1923 6.76593 24.1988 6.77345 24.2057 6.78099C24.275 6.80664 24.3403 6.84299 24.3978 6.89086C24.5799 7.04275 24.6205 7.26256 24.5602 7.47795C24.5686 7.51242 24.5758 7.54749 24.5824 7.58253C24.7529 7.60851 24.9078 7.70718 24.9959 7.8678C25.1165 8.08823 25.0927 8.37877 24.9622 8.58921C24.906 8.67973 24.8348 8.75601 24.7548 8.8227C24.8453 9.02873 24.8019 9.27458 24.656 9.44122C24.6204 9.49867 24.5768 9.55053 24.5277 9.59746C24.5819 9.81047 24.4855 10.0302 24.2931 10.1441L24.2766 10.1854C24.2739 10.1922 24.2711 10.199 24.2682 10.2058C24.2661 10.2146 24.2634 10.2231 24.2608 10.2316C24.2562 10.3072 24.2314 10.3814 24.1821 10.4513C24.0812 10.5945 23.9562 10.6879 23.8898 10.8551L23.8832 10.8726C23.8547 10.9518 23.7626 11.0076 23.6842 10.9832C24.1198 11.88 24.3481 12.8778 24.5049 13.8557C24.5831 14.3436 24.6434 14.8331 24.6924 15.3246L24.7404 15.8139C24.7826 16.2489 24.8201 16.6854 24.8204 17.1218C24.821 18.1091 24.5393 19.0587 23.9346 19.8443C23.3627 20.587 22.5535 21.1252 21.6393 21.3372C20.6954 21.5558 19.5882 21.4697 18.7418 20.9693C18.4923 20.8222 18.7109 20.4683 18.9648 20.5867C19.4455 20.8109 19.934 20.9775 20.4668 21.0147C20.9862 21.0513 21.5069 20.9862 21.9994 20.8159C22.8143 20.5338 23.5077 19.943 23.9533 19.2071C24.1729 18.8445 24.3319 18.451 24.4165 18.0351C24.5219 17.5168 24.506 16.9811 24.4673 16.4562L24.4646 16.4204C24.3881 15.4091 24.2872 14.3914 24.1242 13.3902C23.9801 12.5047 23.7585 11.6372 23.4708 10.7889C23.3581 10.6894 23.2321 10.6072 23.0972 10.5447C22.1094 10.5033 21.1198 10.5154 20.1333 10.5837C19.2919 10.6423 18.4546 10.7416 17.6237 10.8862L17.5347 10.9019C17.3507 10.9347 17.1465 10.9535 16.9731 11.0277C16.8244 11.0916 16.7642 11.2143 16.7267 11.3652C16.6324 11.7469 16.618 12.1646 16.6021 12.556C16.5864 12.9386 16.6217 13.3244 16.5911 13.7057C16.5652 14.0248 16.4837 14.3514 16.2479 14.5822C16.1245 14.703 15.9727 14.7691 15.8303 14.8608C15.7382 14.92 15.6991 14.981 15.711 15.0906C15.7366 15.3305 15.9293 15.6326 15.7129 15.838C15.6748 15.874 15.6089 15.8787 15.5714 15.838C15.4821 15.7407 15.3587 15.6664 15.2528 15.5878C15.2085 15.5553 15.2453 15.4921 15.2956 15.5146C15.3618 15.5444 15.4293 15.5794 15.4983 15.6101C15.3459 15.4842 15.1291 15.4225 14.9486 15.3859C14.8577 15.3677 14.7621 15.3624 14.6675 15.3709C14.5975 15.4044 14.526 15.4354 14.4545 15.4657C14.3636 15.504 14.2718 15.5387 14.1793 15.5716C13.8586 15.8336 13.7055 16.2598 13.7724 16.6766C13.8089 16.9067 13.9148 17.1569 14.1144 17.2912C14.3508 17.4503 14.6675 17.382 14.923 17.5001C15.1622 17.6105 15.3078 17.8338 15.4168 18.0649L15.4622 18.1611C15.5634 18.3741 15.6674 18.5815 15.8056 18.7753C15.9655 18.9998 16.1614 19.2015 16.375 19.3747C16.4786 19.4585 16.5891 19.5339 16.7033 19.6025L16.7345 19.6211C16.8501 19.689 16.9328 19.7538 16.9406 19.8975C16.9431 19.9476 16.9116 19.9933 16.871 20.0193C16.6961 20.1305 16.5221 19.9915 16.3766 19.8944C16.2195 19.7898 16.0692 19.6721 15.9302 19.5437C15.666 19.3001 15.4374 19.0108 15.2616 18.6967C15.1276 18.4575 15.0514 18.121 14.8396 17.9356C14.7103 17.8225 14.5276 17.8216 14.3661 17.8009C14.2159 17.7815 14.0738 17.7502 13.9401 17.676C13.3963 17.3732 13.2427 16.6402 13.3717 16.0738C13.3935 15.9783 13.4241 15.8853 13.4619 15.7958C13.2595 15.8296 13.0321 15.6198 13.1143 15.4081C13.1205 15.3922 13.1277 15.3772 13.1346 15.3618C13.0012 15.2738 12.896 15.1404 12.846 14.966C12.8204 14.8758 12.8166 14.7847 12.8301 14.6967C12.7654 14.6532 12.712 14.5934 12.6777 14.5198C12.5702 14.47 12.475 14.3956 12.4181 14.2891C12.3394 14.1422 12.3494 14.0069 12.4094 13.8851C12.4009 13.8698 12.3928 13.8542 12.385 13.8382C12.1648 13.6983 12.0111 13.4571 12.0286 13.1897C12.0343 13.1011 12.0561 13.0213 12.0899 12.9493C12.087 12.9402 12.0842 12.9308 12.0817 12.9217C11.8975 12.8278 11.745 12.6734 11.6907 12.4674C11.6364 12.2601 11.7004 12.0534 11.8284 11.8944C11.641 11.757 11.5283 11.565 11.5967 11.2747C11.6245 11.1567 11.6804 11.0493 11.756 10.9588C11.7557 10.956 11.755 10.9532 11.7544 10.9504L11.7369 10.9367C11.5055 10.7537 11.3725 10.5205 11.5145 10.2336C11.5783 10.1047 11.6691 10.0148 11.776 9.9556L11.7813 9.93869C11.7048 9.77431 11.6788 9.59176 11.7316 9.39983C11.7747 9.24173 11.8768 9.11583 12.0074 9.03226C11.9987 8.96147 11.9999 8.88604 12.014 8.80429C12.0374 8.66624 12.1058 8.54569 12.2057 8.46021C12.2095 8.44202 12.2142 8.4242 12.2195 8.40632C12.2532 8.29708 12.3163 8.17841 12.3894 8.09039C12.4497 8.01744 12.5171 7.99082 12.5996 7.98801C12.5946 7.92072 12.598 7.85243 12.6118 7.78323C12.6539 7.56972 12.7895 7.36898 12.9903 7.27787C13.0728 7.24061 13.1596 7.22968 13.2433 7.23873C13.3145 7.08844 13.4535 6.9795 13.6243 6.95602C13.6909 6.94663 13.7527 6.94722 13.8095 6.95571C13.8417 6.94065 13.8751 6.92721 13.9101 6.91497C13.9332 6.90683 13.9566 6.89932 13.9801 6.89183C14.0591 6.79352 14.1631 6.71489 14.2846 6.66764C14.4248 6.61285 14.5676 6.61845 14.6941 6.66448L14.7343 6.65603C14.7974 6.54644 14.898 6.46159 15.0526 6.42307C15.2281 6.37955 15.4083 6.44029 15.5464 6.55085C15.547 6.55085 15.5476 6.55085 15.5486 6.55051C15.6207 6.38863 15.7441 6.27591 15.9512 6.28374C16.0802 6.28875 16.1967 6.35297 16.2866 6.4444C16.3366 6.4381 16.3866 6.43247 16.4368 6.42686C16.4899 6.36452 16.549 6.30631 16.6142 6.25402C16.7211 6.1682 16.86 6.17512 16.9388 6.29595C16.9559 6.32225 16.9719 6.34887 16.9878 6.37548L17.0599 6.37047C17.1449 6.25556 17.2608 6.17791 17.4194 6.17168C17.565 6.1657 17.6687 6.23712 17.7477 6.33697C17.812 6.3354 17.8767 6.33418 17.9413 6.33321C18.0166 6.24585 18.1053 6.16883 18.2065 6.10495C18.284 6.05611 18.3983 6.07273 18.461 6.13786C18.5035 6.18213 18.5429 6.22835 18.5796 6.27619C18.6742 6.16986 18.802 6.09982 18.9385 6.07305ZM14.3417 16.0159C14.4876 15.9326 14.6837 16.0228 14.8249 16.0935C14.997 16.1796 15.1679 16.3096 15.2731 16.4724C15.4165 16.6941 15.0795 16.8732 14.9286 16.6744C14.8358 16.5519 14.7618 16.4286 14.6494 16.3215C14.5466 16.2232 14.3977 16.1574 14.3386 16.0278C14.3364 16.0234 14.3371 16.0184 14.3417 16.0159ZM14.4442 10.635L14.4469 10.6272C14.4884 10.5135 14.3074 10.4644 14.2663 10.5773C14.2039 10.7482 14.2758 10.9341 14.4442 11.008C14.4909 11.0284 14.5443 11.0213 14.5724 10.9743C14.5961 10.9347 14.5851 10.866 14.5388 10.8458C14.444 10.8042 14.4123 10.7309 14.4442 10.635ZM12.8847 10.317C12.9753 10.2368 12.8423 10.1043 12.7522 10.1841C12.668 10.2586 12.6056 10.3597 12.6218 10.4761C12.6384 10.5946 12.7275 10.6783 12.8251 10.7374C12.9286 10.8002 13.0229 10.6378 12.9197 10.5752L12.9081 10.5681C12.8648 10.5411 12.8141 10.5041 12.8068 10.451C12.799 10.3947 12.8466 10.3507 12.8847 10.317ZM13.399 8.90258L13.4054 8.89784C13.5028 8.82821 13.4093 8.6652 13.3108 8.73562C13.2206 8.80022 13.1482 8.88413 13.1406 8.99986C13.1332 9.11233 13.1902 9.20983 13.2649 9.28895C13.3479 9.37697 13.4803 9.24396 13.3974 9.15613C13.3166 9.07053 13.3009 8.97713 13.399 8.90258Z" fill="black"/>
<path fill-rule="evenodd" clip-rule="evenodd" d="M22.3086 18.1238C22.3303 18.1179 22.3495 18.1471 22.3315 18.163C22.2578 18.2285 22.211 18.3503 22.1572 18.4334C22.1061 18.5124 22.0568 18.5906 22.0118 18.6734C21.9614 18.7661 21.9127 18.8584 21.8734 18.9565L21.8657 18.9763C21.8774 19.0043 21.8866 19.0319 21.8934 19.05L21.8953 19.0552C21.9624 19.2264 21.8217 19.4168 21.663 19.4647C21.3915 19.5465 21.1585 19.3235 21.1521 19.0583C21.147 18.8496 21.2883 18.6637 21.432 18.5258C21.5577 18.4051 21.6984 18.3024 21.8558 18.2272C21.9252 18.194 21.9974 18.1663 22.0728 18.1502C22.1499 18.1337 22.2331 18.1442 22.3086 18.1238ZM21.7969 18.88C21.8168 18.8893 21.8338 18.9123 21.8481 18.9391C21.841 18.9164 21.8263 18.8938 21.7969 18.88ZM21.9668 15.9807C22.2032 16.1245 22.5633 16.4596 22.309 16.8159C22.0097 17.1301 21.5788 16.7698 21.3665 16.6069C21.1696 16.4807 20.9484 16.8054 21.1311 16.9528C22.6654 18.0893 23.2881 16.0183 22.0863 15.8118C21.954 15.789 21.9049 15.9363 21.9668 15.9807ZM20.024 14.6007L20.0657 14.5972C20.2469 14.5812 20.4303 14.5569 20.6089 14.5979C20.8489 14.653 20.8313 15.0022 20.6089 15.0665C20.4129 15.123 20.1957 15.0986 19.9934 15.1005C19.9616 15.1008 19.9298 15.1016 19.898 15.1022C19.8917 15.1778 19.8669 15.2431 19.8289 15.3083C19.8017 15.3551 19.767 15.3995 19.7328 15.441C19.6515 15.5398 19.4599 15.5376 19.3779 15.441C19.3172 15.3696 19.2689 15.2874 19.2681 15.1907C19.268 15.1659 19.271 15.1396 19.2769 15.1137L19.1664 15.1157C18.8962 15.1198 18.6238 15.118 18.3585 15.075C18.2641 15.0946 18.1868 14.9242 18.3171 14.8732C18.6713 14.7346 19.067 14.6938 19.4429 14.6522C19.6361 14.6307 19.8303 14.616 20.024 14.6007ZM23.0416 14.4575L23.0512 14.4565C23.2856 14.4325 23.544 14.3909 23.7788 14.4149C24.1295 14.4505 24.1289 14.9248 23.7788 14.9602C23.6503 14.9733 23.5149 14.9669 23.3799 14.9545C23.4489 15.101 23.367 15.2759 23.2007 15.2983C23.0462 15.319 22.886 15.1688 22.9367 15.0077L22.9391 15.0005C22.949 14.9726 22.9579 14.9413 22.9684 14.9105L22.9125 14.9058C22.7454 14.891 22.5133 14.8608 22.4518 14.7288C22.4333 14.689 22.4375 14.652 22.4661 14.618C22.5833 14.4785 22.8722 14.4739 23.0416 14.4575ZM20.549 13.3717C20.7187 13.31 20.895 13.4543 20.917 13.6169C20.9423 13.8043 20.8072 13.9277 20.636 13.95L20.6274 13.9511C20.2495 13.9927 19.8743 14.0689 19.4959 14.1119C19.324 14.1314 19.1508 14.1443 18.9778 14.1489L18.8541 14.1517C18.7026 14.1555 18.54 14.159 18.4001 14.1068L18.4007 14.1058C18.3635 14.0951 18.3464 14.0415 18.3878 14.0122C18.5367 13.9068 18.7375 13.867 18.9109 13.8169C19.0852 13.7665 19.2608 13.7201 19.4369 13.6765C19.8067 13.585 20.1908 13.5019 20.549 13.3717ZM22.1136 13.4155C22.1585 13.1784 22.4942 13.153 22.6175 13.3255C22.6972 13.3529 22.814 13.3814 22.8864 13.4029C23.0125 13.4403 23.1388 13.4775 23.2653 13.5136C23.5272 13.5882 23.7829 13.6828 24.0405 13.771C24.067 13.7801 24.0597 13.8138 24.0342 13.8172C23.6747 13.864 23.3213 13.8858 22.9596 13.8708L22.8854 13.8674C22.5668 13.855 22.0258 13.8787 22.1136 13.4155Z" fill="black"/>
<path fill-rule="evenodd" clip-rule="evenodd" d="M22.6294 19.4845C22.3379 19.2247 22.0112 18.7025 21.5924 19.1157C21.4888 19.2325 21.4469 19.4942 21.2885 19.5456C21.0782 19.6139 20.8698 19.3912 20.7981 19.2203C20.5048 18.2704 21.7171 18.0098 22.4078 18.1633C22.7452 18.3019 22.9937 18.8599 23.0087 19.1511C23.0184 19.3468 22.8529 19.6345 22.6294 19.4845ZM24.8284 18.0204C24.8256 18.0078 24.8216 17.9964 24.8168 17.986C24.6879 17.9373 24.5859 17.987 24.5229 18.0799C24.5249 18.103 24.5318 18.1264 24.5362 18.1492C24.4875 18.2518 24.4437 18.3786 24.3777 18.4672C24.3647 18.4682 24.3512 18.4668 24.3383 18.463C23.2455 18.5772 23.779 17.4334 22.6707 17.1494C21.8139 17.008 20.2655 17.1699 19.8613 18.062C19.5426 19.4869 17.9218 18.494 17.3897 17.753C16.8219 17.0786 16.4547 16.2545 16.1007 15.4548C16.0259 15.2856 15.7925 15.4066 15.8179 15.569C15.4907 16.2256 15.5016 17.0143 15.4205 17.7336C15.2827 19.1688 15.1484 21.1814 16.4813 22.0577C18.218 24.0215 22.5547 24.7144 24.5578 22.9101C25.2512 21.4188 25.1657 19.5994 24.8284 18.0204Z" fill="black"/>
</svg>
