<svg width="36" height="48" viewBox="0 0 36 48" fill="none" xmlns="http://www.w3.org/2000/svg">
<path fill-rule="evenodd" clip-rule="evenodd" d="M27.8784 29.2424C27.7801 28.9723 27.9237 28.7029 28.0033 28.4416C28.2863 27.5355 27.5123 25.2498 26.971 25.2164C26.773 24.704 26.2447 24.4915 25.8288 24.1964C25.3569 23.9018 24.8979 23.5634 24.4071 23.3051C24.3798 23.061 24.084 23.0005 23.9031 23.1751C23.4062 22.8659 22.8104 22.9233 22.2778 22.7207C21.8731 22.0663 21.8427 21.3782 21.7355 20.7468C21.6888 20.4716 21.7385 20.2061 21.5505 19.9608C20.919 19.0723 18.424 18.6871 17.5041 19.2136C17.0089 18.9046 16.997 19.4642 16.9183 19.8095C16.8309 19.9823 16.7836 20.1779 16.7982 20.3841C16.5638 20.8739 16.365 21.4866 15.8724 21.8524C15.2472 22.3166 14.2855 22.4931 13.676 22.7207C13.5393 22.5891 13.4975 22.3989 13.4975 22.3989C12.5529 22.6043 11.6361 22.9654 10.8447 23.5293C9.94554 23.7923 9.3123 24.5239 8.85439 25.3084C8.80394 25.391 8.79205 25.4754 8.80679 25.5528C7.39868 27.6177 6.72663 30.0897 6.63223 32.5863C5.72672 33.13 7.06262 38.0139 7.37361 39.0278C7.37392 39.0276 7.37424 39.0275 7.37455 39.0274C7.5763 39.3847 7.80538 40.4043 8.31029 40.3254C8.65665 40.7172 9.2086 40.6402 9.67862 40.6703C9.60206 40.964 9.63968 41.3001 9.73079 41.5904C9.83856 41.936 10.3674 41.9477 10.4424 41.571C15.1229 42.4807 19.9254 41.7548 24.6586 41.8914C26.0271 41.9011 27.3955 41.9434 28.7607 42.041C28.953 42.0547 29.1479 41.8582 29.1348 41.6667C28.8412 38.5427 28.5656 34.4331 28.2374 31.3397C28.1595 30.6343 28.098 29.921 27.8784 29.2424Z" fill="#D08B5B"/>
<path fill-rule="evenodd" clip-rule="evenodd" d="M13.5024 22.4192C13.5007 22.4123 13.499 22.4054 13.4975 22.3984C12.5529 22.6039 11.6361 22.965 10.8447 23.5288C9.94554 23.7919 9.3123 24.5235 8.85439 25.3079L8.84829 25.3183C8.80299 25.3976 8.79266 25.4782 8.80679 25.5524C7.39868 27.6173 6.72663 30.0892 6.63223 32.5859C5.72672 33.1296 7.06262 38.0134 7.37361 39.0274L7.37455 39.0269C7.42482 39.116 7.47679 39.2461 7.53431 39.3902C7.70759 39.8242 7.9312 40.3842 8.31029 40.325C8.59188 40.6435 9.00935 40.6522 9.40821 40.6604C9.49996 40.6623 9.59072 40.6642 9.67862 40.6698C9.60206 40.9636 9.63968 41.4876 9.73079 41.7779C9.83856 42.1234 24.7888 42.4049 28.7607 42.0406C28.9525 42.023 29.1479 41.8578 29.1348 41.6663C29.0115 40.3543 28.8914 38.8685 28.7692 37.3572C28.6004 35.2697 28.4278 33.1336 28.2374 31.3393C28.2299 31.2718 28.2226 31.2043 28.2153 31.1367C28.1463 30.4977 28.077 29.8557 27.8784 29.242C27.7999 29.0263 27.8756 28.8111 27.9499 28.6C27.9686 28.5468 27.9873 28.4938 28.0033 28.4412C28.2863 27.535 27.5653 25.2548 27.0484 25.2209L26.971 25.216C26.8189 24.8224 26.4719 24.6058 26.1307 24.3927C26.0379 24.3348 25.9456 24.2771 25.8577 24.2162L25.8288 24.196C25.668 24.0956 25.5086 23.9901 25.349 23.8844C25.0403 23.68 24.7306 23.4749 24.4071 23.3046C24.3798 23.0606 24.084 23.0001 23.9031 23.1747C23.824 23.1255 23.7425 23.0856 23.6591 23.0524L23.6261 23.5069C23.062 25.61 21.4925 26.7803 18.9176 27.0175C15.0553 27.3734 13.3144 23.5011 13.3144 23.1097C13.3144 22.9381 13.3711 22.7215 13.4845 22.4598L13.5024 22.4192ZM21.142 30.5033C21.2547 30.4354 21.4141 30.3524 21.6268 30.2707L21.8947 31.255L21.8947 31.255L21.8947 31.255L21.8947 31.255L21.8949 31.255L21.8957 31.2549L21.8989 31.2547L21.9123 31.2536L21.9643 31.2492C22.0096 31.2455 22.0754 31.2402 22.1568 31.2338C22.3196 31.2209 22.5441 31.2038 22.7911 31.1867C22.8792 31.1806 22.9693 31.1746 23.0598 31.1688L23.1576 32.2792L23.6336 32.2958C23.5804 32.377 23.5425 32.4007 23.5357 32.4049C23.5345 32.4057 23.5343 32.4058 23.5353 32.4054C23.3958 32.4496 23.2517 32.4774 23.0739 32.5117C23.0012 32.5257 22.9228 32.5408 22.8367 32.5586C22.7089 32.5849 22.554 32.6201 22.4098 32.6718C22.2843 32.7169 22.055 32.8118 21.8811 33.0206C21.8114 33.1044 21.7412 33.2109 21.6945 33.2817L21.6845 33.2969C21.6269 33.3842 21.5773 33.4588 21.5259 33.5269C21.4859 33.5798 21.455 33.6147 21.4333 33.6362C21.1787 33.6917 20.665 33.8266 20.2288 33.9432C20.0818 33.9825 19.9386 34.021 19.8096 34.0559L19.8071 34.0513C19.6566 33.7686 19.5365 33.466 19.5119 33.2285C19.4745 32.8669 19.4555 32.5193 19.446 32.2605L19.4455 32.2475L19.5183 32.2004L19.5838 32.1285L20.9223 30.6588C20.9273 30.6543 20.9354 30.6473 20.9468 30.638C20.9809 30.6101 21.0447 30.5619 21.142 30.5033ZM25.8509 30.1219C25.851 30.1219 25.8501 30.1226 25.8481 30.1239L25.8509 30.1219ZM26.6547 31.3886L26.6359 31.4004C26.6471 31.42 26.658 31.4406 26.6684 31.4619C26.7214 31.5704 26.8422 31.8635 26.7068 32.2013C26.5577 32.5736 26.2238 32.7046 26.0285 32.7483C25.8527 32.7877 25.4952 32.8655 25.1842 32.933L24.9726 32.9789C24.9585 33.0039 24.9436 33.0295 24.9277 33.0555C24.7796 33.2981 24.4863 33.6777 23.9881 33.8355C23.7571 33.9086 23.4847 33.9608 23.2858 33.999L23.2857 33.999C23.2308 34.0096 23.1814 34.019 23.1401 34.0276C23.0679 34.0425 23.0141 34.0551 22.9743 34.0659L22.9364 34.1232L22.9322 34.1295C22.8786 34.2107 22.8051 34.3221 22.7223 34.4317C22.6381 34.5429 22.5265 34.6767 22.3886 34.7942C22.2532 34.9096 22.0518 35.0445 21.7879 35.0945C21.6438 35.1218 21.1333 35.2541 20.6161 35.3923C20.367 35.4589 20.1287 35.5234 19.9527 35.5714L19.742 35.6289L19.6838 35.6448L19.6687 35.6489L19.6648 35.65L19.6639 35.6503L19.6637 35.6503L19.6636 35.6503L19.4648 34.9272C18.8575 35.3672 18.8574 35.3671 18.8573 35.3669L18.8571 35.3667L18.8567 35.3661L18.8557 35.3648L18.8531 35.3611L18.8453 35.3501C18.8424 35.346 18.839 35.3411 18.8351 35.3356C18.8306 35.3292 18.8255 35.3219 18.8199 35.3136C18.799 35.2832 18.7703 35.2405 18.7362 35.1875C18.6682 35.0821 18.5772 34.9331 18.4831 34.7562C18.3039 34.4197 18.0746 33.9115 18.0199 33.3829C17.978 32.9783 17.9573 32.5956 17.947 32.3157C17.9418 32.1752 17.9392 32.0592 17.9379 31.9777C17.9372 31.9369 17.9369 31.9046 17.9367 31.8821L17.9366 31.8559L17.9366 31.8485L17.9366 31.8463L17.9366 31.8456V31.8453V31.8452L18.6866 31.8451H17.9366V31.437L18.2793 31.2154L18.5403 31.0465L19.8292 29.6314L19.8384 29.6212L20.3813 30.1341C19.8385 29.6213 19.8387 29.6211 19.839 29.6208L19.8395 29.6203L19.8406 29.6192L19.8428 29.6168L19.8478 29.6116L19.8601 29.5992C19.8693 29.5901 19.8805 29.5792 19.8937 29.5669C19.9202 29.5422 19.9549 29.5113 19.9984 29.4759C20.0854 29.4048 20.2072 29.3153 20.3677 29.2186C20.6895 29.0246 21.1619 28.8047 21.8137 28.6456C22.4018 28.5019 23.1069 28.3485 23.698 28.2504C23.9911 28.2018 24.2743 28.1636 24.508 28.1495C24.623 28.1426 24.7481 28.1401 24.8664 28.1508L24.8679 28.1509C24.9423 28.1576 25.1853 28.1796 25.3958 28.3429C25.5991 28.5006 25.7358 28.6964 25.8118 28.8195C25.8531 28.8864 25.8851 28.9461 25.9074 28.9902C25.9186 29.0125 25.9277 29.0315 25.9345 29.0462L25.9431 29.0651L25.9462 29.0721L25.9474 29.0749L25.948 29.0762L25.9482 29.0768L25.9483 29.0771C25.9484 29.0772 25.9485 29.0773 25.2597 29.3741C25.9822 29.5753 25.9821 29.5755 25.9821 29.5758L25.9819 29.5762L25.9817 29.5772L25.9811 29.5792L25.9798 29.5837L25.9765 29.5949C25.974 29.6032 25.9709 29.6133 25.9671 29.6249C25.9629 29.6377 25.9579 29.6526 25.9519 29.6693C26.0784 29.682 26.2008 29.6987 26.3101 29.721C26.4055 29.7406 26.5435 29.7744 26.6749 29.8411C26.7523 29.8803 27.1499 30.0928 27.1499 30.5829C27.1499 30.8733 27.0029 31.0738 26.9205 31.1666C26.8307 31.2678 26.7301 31.3403 26.6547 31.3886ZM19.4648 34.9272L19.6636 35.6503L19.1624 35.7881L18.8575 35.3672L19.4648 34.9272ZM25.9822 29.5753L25.2597 29.3741L25.9485 29.0773L26.0532 29.3204L25.9822 29.5753ZM22.8976 34.0915C22.8974 34.0914 22.9004 34.0898 22.9076 34.087C22.9014 34.0902 22.8978 34.0916 22.8976 34.0915ZM21.408 33.6586L21.4107 33.6567C21.4089 33.6581 21.408 33.6587 21.408 33.6586Z" fill="#FFCF77"/>
<path fill-rule="evenodd" clip-rule="evenodd" d="M23.2013 28.9878L24.577 25.8705C24.577 25.8705 24.7849 25.3408 25.1379 25.3408C25.4908 25.3408 28.6915 25.4411 28.6915 25.4411C28.6915 25.4411 29.3465 25.5247 29.135 25.8705C28.9235 26.2163 25.7786 32.6512 25.7786 32.6512H24.4447V32.326L25.9297 31.9107C25.9297 31.9107 26.2 31.6239 25.7786 31.6239C25.3571 31.6239 22.9055 31.53 22.9055 31.53L25.2432 31.1869L26.3996 30.742L26.2295 30.5081L25.2432 30.3672L22.0312 30.5081L22.9055 30.2123L24.859 29.7976C24.859 29.7976 25.2432 29.5269 25.2432 29.2614C25.2432 28.996 24.2139 28.8939 24.2139 28.8939L23.2013 28.9878Z" fill="white"/>
<path fill-rule="evenodd" clip-rule="evenodd" d="M16.9949 19.4066C17.0083 19.3699 17.063 19.3748 17.0641 19.4159C17.0856 20.2943 16.867 21.3677 16.1644 21.961C15.8038 22.2656 15.3269 22.4049 14.8891 22.5651L14.8397 22.5833L14.066 22.8716C13.8608 22.9481 13.6395 23.0657 13.4582 22.9577C13.6049 23.3216 13.728 23.6954 13.9066 24.0461C14.129 24.4826 14.3978 24.8819 14.7268 25.2452C16.0303 26.6842 18.0932 27.1232 19.9444 26.7015C20.8977 26.4844 21.8253 26.0729 22.4757 25.3224C22.9699 24.7519 23.2539 23.9862 23.3208 23.2309C23.3013 23.2341 23.2808 23.2339 23.2597 23.2293C23.0255 23.1782 22.789 23.0526 22.5829 22.9294L22.5631 22.9175C22.3648 22.7981 22.1581 22.6612 22.0157 22.4757C21.8744 22.2914 21.7261 21.6903 21.7261 21.6903C21.6857 21.4644 21.6477 21.0144 21.6542 20.786C21.6548 20.7645 21.7504 20.7518 21.7606 20.7742C21.8489 20.968 21.8774 21.394 21.9456 21.5957L21.9593 21.636C22.0321 21.8467 22.0945 22.1032 22.2454 22.2736C22.5287 22.5934 22.9561 22.7288 23.3376 22.8892C23.365 22.5277 23.9422 22.5361 23.9348 22.9132C23.9344 22.9336 23.9335 22.954 23.9328 22.9743C23.9783 22.9994 24.0221 23.028 24.063 23.0556L24.1029 23.0827C24.254 23.1856 24.4063 23.2833 24.5672 23.3705C24.8787 23.5394 25.2085 23.6734 25.5277 23.8267C25.8506 23.9818 26.1526 24.1667 26.4346 24.3879C26.567 24.4918 26.694 24.6024 26.8145 24.72L26.8472 24.7522C26.9618 24.8664 27.111 24.9941 27.1763 25.1442C27.1907 25.1773 27.2628 25.2543 27.302 25.2569C27.9084 25.2967 28.5136 25.3528 29.1162 25.437C29.2722 25.4588 29.3339 25.5393 29.2762 25.6694C29.0781 26.1164 28.3022 27.9018 28.0959 28.381C28.12 28.733 28.0874 29.1474 28.1091 29.4995C28.1409 30.0133 28.1825 30.5269 28.2324 31.0393C28.4108 32.8721 28.6812 34.6961 28.9256 36.5209C29.0479 37.4342 29.1594 38.3488 29.2695 39.2637C29.3251 39.726 29.3723 40.1887 29.4086 40.653C29.4237 40.8465 29.4374 41.0401 29.4495 41.2337L29.4599 41.4055C29.4744 41.6217 29.5074 41.8282 29.3737 42.0137C29.313 42.0979 29.1746 42.1453 29.0949 42.0497C28.9946 41.9295 28.9574 41.8397 28.9478 41.6818C28.9405 41.5609 28.9387 41.4395 28.9332 41.3185C28.9213 41.0562 28.9064 40.7941 28.8889 40.5321C28.8539 40.0084 28.814 39.4848 28.7678 38.9619C28.6057 37.1286 28.2978 35.309 28.0929 33.4802C27.9896 32.5582 27.9162 31.6345 27.8774 30.7074C27.8579 30.2444 27.8509 29.7815 27.8555 29.3181C27.8572 29.145 27.8654 28.9727 27.8772 28.8008C27.5703 29.4985 27.2475 30.1894 26.9101 30.8711L26.8302 31.0326C26.6163 31.4635 26.3968 31.896 26.1398 32.3022L26.0956 32.3715C25.9915 32.5365 25.8493 32.7967 25.6594 32.8487C25.5272 32.885 25.3656 32.8595 25.23 32.8569C25.0955 32.8543 24.9607 32.8537 24.8263 32.8483C24.6755 32.8422 24.5315 32.8224 24.3858 32.7831C24.3616 32.7766 24.3386 32.7695 24.3178 32.7605C24.1709 33.0009 23.9214 33.184 23.6663 33.2907C23.4619 33.3761 23.2478 33.4347 23.0332 33.4889L22.9575 33.5079C22.7275 33.5652 22.4644 33.5925 22.3347 33.8146L22.3046 33.8661C22.2082 34.03 22.1157 34.174 21.9561 34.2915C21.7843 34.418 21.5807 34.4976 21.378 34.5595C21.1704 34.6229 20.9579 34.6714 20.7471 34.7234L20.6897 34.7377C20.5505 34.7725 20.4101 34.8045 20.2718 34.8424C20.2128 34.8586 20.1527 34.8752 20.0948 34.8951C20.027 34.9184 19.9777 34.9548 19.9243 34.9944C19.8762 35.1624 19.6707 35.2536 19.5017 35.2419C19.413 35.2358 19.3334 35.2057 19.261 35.1615C19.1346 35.2692 18.9954 35.3656 18.8665 35.4653C18.6861 35.605 18.5049 35.7437 18.3228 35.8811C17.9472 36.1643 17.5688 36.4437 17.1864 36.7177C16.5077 37.2039 15.8143 37.6679 15.109 38.1147C14.815 38.301 14.5189 38.487 14.22 38.6686L14.2519 38.6804L14.3152 38.7043C14.4648 38.7602 14.6314 38.8504 14.6604 39.025C14.6834 39.1635 14.6061 39.2589 14.4694 39.2758C14.307 39.2959 14.1806 39.1811 14.0795 39.0715C14.0349 39.0232 13.9849 38.9783 13.9422 38.9285C13.9247 38.9082 13.9113 38.8848 13.8995 38.8602C13.6045 39.0342 13.3064 39.2022 13.0035 39.3594L12.9277 39.3984C12.1766 39.7826 11.4455 40.2036 10.6881 40.5769C10.4905 40.6743 10.2496 40.7796 9.99846 40.8515C10.0651 41.1099 10.0641 41.3935 10.0658 41.6558C10.0674 41.9113 9.66137 41.9101 9.66995 41.6558L9.67408 41.533C9.68147 41.3264 9.69355 41.112 9.74253 40.911C9.00267 41.0338 8.26356 40.767 8.12594 40.6869C7.97405 40.5985 7.83618 40.4571 7.72144 40.326C7.4759 40.0452 7.30551 39.7087 7.15433 39.3701C6.83051 38.6451 6.60109 37.8701 6.43336 37.095C5.81499 34.2373 6.08097 31.1788 7.08519 28.4395C7.33609 27.7551 7.6323 27.0858 7.97174 26.4406L8.01388 26.3609C8.3526 25.7229 8.72906 25.0874 9.20726 24.5445C9.70535 23.9791 10.3198 23.5393 10.9888 23.198C11.3152 23.0314 11.6512 22.887 11.9945 22.7591C12.0497 22.7385 12.1052 22.7201 12.1608 22.7025C12.5187 22.4743 12.9529 22.256 13.3873 22.2646C13.4168 22.2651 13.4407 22.2763 13.4586 22.2932C13.4795 22.2969 13.5004 22.3013 13.5214 22.3074C13.5677 22.3208 13.6166 22.3716 13.61 22.4237L13.6077 22.4411C13.6065 22.4496 13.6049 22.4577 13.6023 22.4657C13.6178 22.468 13.633 22.4717 13.648 22.4768C14.0636 22.3594 14.4725 22.1799 14.8781 22.035L14.9705 22.0024C15.3101 21.8833 15.6586 21.7666 15.9373 21.5309C16.2145 21.2964 16.4229 20.9928 16.5736 20.6645C16.7593 20.26 16.8424 19.8218 16.9949 19.4066ZM25.316 40.7395C25.3983 40.6783 25.4956 40.7493 25.5264 40.8251C25.6275 41.0739 25.5775 41.4605 25.435 41.6804C25.2874 41.9083 24.9339 41.8184 24.9254 41.5423C24.9164 41.2545 25.0837 40.9125 25.316 40.7395ZM26.166 33.8702C26.1734 33.8379 26.2236 33.8382 26.2311 33.8702C26.2996 34.1621 26.298 34.4765 26.3181 34.7758L26.3205 34.809C26.3446 35.139 26.3649 35.47 26.3794 35.8006C26.4077 36.4511 26.4417 37.1016 26.4797 37.7516C26.4986 38.0739 26.5188 38.3962 26.5404 38.7184C26.6079 38.6807 26.6775 38.6477 26.7496 38.6185C26.8576 38.5748 26.9628 38.5698 27.0789 38.571C27.2203 38.5724 27.3267 38.6968 27.308 38.8354C27.2876 38.9863 27.1548 39.0509 27.0169 39.0294C26.8642 39.0054 26.7108 38.9684 26.5566 38.9531C26.5737 39.2022 26.5915 39.4512 26.6103 39.7001C26.6353 40.0297 26.6678 40.3588 26.6906 40.6885C26.6928 40.7199 26.6952 40.7514 26.6976 40.783C26.7895 40.7352 26.8872 40.7107 26.9979 40.6805L27.0266 40.6725C27.1873 40.6263 27.3592 40.5625 27.508 40.6705C27.6079 40.7432 27.6279 40.8628 27.5451 40.9587C27.4195 41.1041 27.2337 41.0759 27.0603 41.0685L26.967 41.0651C26.879 41.0616 26.7979 41.056 26.7166 41.0338C26.7315 41.2485 26.7394 41.4641 26.7131 41.6758C26.6988 41.7901 26.5483 41.8202 26.5085 41.7034C26.4044 41.3985 26.3829 41.0696 26.3448 40.7502C26.3092 40.4519 26.2876 40.1514 26.2643 39.8518L26.2573 39.7619C26.2049 39.1027 26.163 38.4431 26.1323 37.7826C26.1017 37.1221 26.0833 36.4617 26.076 35.8006C26.0726 35.5004 26.0776 35.1991 26.0894 34.899L26.0931 34.809C26.1066 34.5003 26.0972 34.1727 26.166 33.8702ZM12.4125 40.7882C12.4165 40.746 12.4503 40.6936 12.5006 40.7001C12.5468 40.7061 12.5945 40.7032 12.6403 40.7109C12.7008 40.7209 12.7494 40.7566 12.8056 40.7791C12.897 40.8157 12.9966 40.8345 13.0903 40.8644C13.2662 40.9206 13.362 41.1058 13.2892 41.2787C13.2126 41.4606 13.0201 41.5018 12.8539 41.4255C12.7228 41.3654 12.6251 41.2693 12.5369 41.158L12.512 41.1263C12.474 41.0785 12.4309 41.0252 12.415 40.9673C12.3995 40.9109 12.4071 40.8456 12.4125 40.7882ZM20.9571 39.9334C21.1761 39.9025 21.3632 39.9774 21.5659 40.0481L21.5824 40.0538C21.7887 40.125 22.0897 40.1743 22.1954 40.3855C22.2592 40.5129 22.2096 40.6821 22.0595 40.7198C21.8218 40.7794 21.6086 40.6056 21.4121 40.4886L21.4017 40.4825C21.212 40.3713 21.0162 40.2778 20.895 40.086C20.8627 40.0349 20.8907 39.9427 20.9571 39.9334ZM13.3101 22.5058C13.2224 22.5255 13.1346 22.5428 13.0469 22.5596C12.7135 22.7384 12.3898 22.9239 12.0454 23.0832C11.6801 23.2523 11.3161 23.4269 10.9691 23.6314C10.2681 24.0445 9.69014 24.5817 9.21258 25.2401C8.38767 26.3775 7.77405 27.6892 7.3349 29.0201C7.22206 29.362 7.12109 29.7077 7.03177 30.0564C7.1897 29.9103 7.37668 29.8205 7.58635 29.7435C7.67521 29.7109 7.78582 29.7661 7.83086 29.8431C7.85111 29.8776 7.86253 29.9118 7.86044 29.9524C7.85577 30.0419 7.79756 30.1435 7.70147 30.1613C7.47746 30.2026 7.25965 30.283 7.04366 30.3537C7.01092 30.3645 6.98278 30.3604 6.96031 30.3477C6.74588 31.2564 6.61174 32.1837 6.56422 33.1166C6.52404 33.9064 6.54882 34.7024 6.63627 35.4911C6.70347 35.4609 6.7692 35.4325 6.84288 35.4154C6.93843 35.3931 7.03242 35.3661 7.12563 35.3355C7.39461 35.2473 7.51731 35.6915 7.24238 35.7592C7.14006 35.7844 7.03712 35.8053 6.93286 35.8206C6.842 35.834 6.76163 35.8281 6.67596 35.8141C6.74141 36.3062 6.8308 36.7947 6.94466 37.2762L6.96979 37.3816C7.1177 37.9966 7.29008 38.6174 7.53937 39.1986C7.66166 39.4837 7.82357 39.7545 8.02347 39.9922C8.12169 40.1091 8.2307 40.2093 8.34958 40.3042C8.44854 40.3833 8.78495 40.5547 9.18338 40.5547C9.5818 40.5547 9.68966 40.517 9.89067 40.4478C10.2882 40.3109 10.6656 40.0924 11.0384 39.8977L11.077 39.8777C11.2418 39.7923 11.4061 39.7058 11.5699 39.6184C11.5492 39.4514 11.5854 39.3111 11.6724 39.1568C11.7664 38.9899 11.9995 39.073 12.0168 39.2437L12.0174 39.2503C12.02 39.2887 12.0264 39.328 12.0345 39.3671C13.1296 38.7669 14.2016 38.1247 15.2566 37.4556C15.9361 37.0245 16.6084 36.5805 17.2709 36.1236C17.602 35.8952 17.9303 35.6627 18.2554 35.4256C18.4256 35.3014 18.5951 35.1762 18.7638 35.0499C18.8341 34.9973 18.903 34.9421 18.9734 34.8892C18.9563 34.8678 18.9396 34.8464 18.9235 34.8252C18.6605 34.4808 18.4899 34.0703 18.4049 33.6467C18.3536 33.3912 18.3288 33.1259 18.3212 32.8653L18.3179 32.752C18.3127 32.5611 18.3113 32.3613 18.3465 32.1764C18.2987 32.2027 18.2498 32.2285 18.201 32.2561C18.0262 32.3552 17.8511 32.4541 17.6758 32.5525C17.3248 32.7495 16.9727 32.9442 16.6161 33.1311C15.9793 33.4649 15.3361 33.7824 14.6756 34.0669L14.3543 34.2055C13.7965 34.4455 13.2341 34.6812 12.6542 34.8596C12.3271 34.9602 11.8366 35.0847 11.5048 35.1615C11.5048 35.1615 11.9047 35.5384 11.6153 35.6681C11.3259 35.7978 11.0862 35.3004 11.0766 35.2554C10.9238 35.2873 10.4873 35.3647 10.4873 35.3647C10.0725 35.4448 9.67038 35.6033 9.29963 35.8063C9.17074 35.8768 9.13483 35.7398 9.27139 35.6443C9.67069 35.365 10.1364 35.207 10.617 35.0744L10.6406 35.0679C10.8169 35.0196 10.9929 34.9692 11.1685 34.9171C11.1492 34.8472 11.1381 34.7747 11.1403 34.6947C11.1453 34.5166 11.161 34.3378 11.1705 34.1598C11.1903 33.7862 11.2156 33.4138 11.2453 33.0409C11.2567 32.8972 11.2695 32.7532 11.2841 32.6092C11.1899 32.5587 11.1087 32.4917 11.0037 32.4587L10.9859 32.4535C10.8736 32.4232 10.9115 32.2785 11.0113 32.2661C11.1017 32.2549 11.1916 32.26 11.2807 32.2792C11.2945 32.2822 11.3075 32.2855 11.32 32.2893C11.3363 32.156 11.3545 32.023 11.3751 31.8908C11.4297 31.5414 11.4683 31.1733 11.5818 30.8376C11.5902 30.8128 11.6271 30.8039 11.6408 30.8299C11.806 31.1443 11.8117 31.53 11.8304 31.88L11.8327 31.9219C11.8546 32.3038 11.8559 32.6895 11.8488 33.0719C11.8415 33.4661 11.828 33.8592 11.8104 34.253C11.8033 34.4116 11.8035 34.5761 11.7765 34.7277C12.7596 34.4081 13.7252 34.0254 14.6508 33.5723C15.3038 33.2527 15.951 32.9203 16.591 32.5754C16.9116 32.4026 17.2337 32.2326 17.554 32.0592C17.6662 31.9984 17.7783 31.9374 17.8904 31.8764L18.0585 31.7847C18.2158 31.6988 18.3471 31.6133 18.5304 31.6073C18.585 31.6055 18.634 31.6311 18.6687 31.6699C18.7672 31.6 18.881 31.5571 19.0004 31.5581C19.1802 31.3097 19.3628 31.0633 19.5525 30.8223L19.6928 30.6438C19.9355 30.3359 20.1925 30.0234 20.502 29.789C20.6401 29.6845 20.792 29.606 20.9505 29.5412C20.9132 29.5321 20.8767 29.5138 20.8442 29.4836C20.6929 29.3433 20.672 29.0825 20.6413 28.8866C20.6094 28.6835 20.6217 28.5017 20.6532 28.2993C20.6654 28.2206 20.7957 28.2042 20.8275 28.2765C20.8945 28.4289 20.9655 28.5749 21.0265 28.729L21.0444 28.7755C21.1099 28.9489 21.2493 29.1314 21.2401 29.3196C21.2376 29.3712 21.2203 29.4161 21.1936 29.4522C21.3266 29.408 21.4615 29.3686 21.5944 29.3276C22.0124 29.1983 22.4321 29.0728 22.8582 28.9725C22.9716 28.9458 23.0856 28.9211 23.2001 28.8983C23.26 28.6135 23.3474 28.334 23.4505 28.0595C23.3529 28.0095 23.2897 27.9256 23.2057 27.8511C23.1271 27.7813 23.0731 27.6963 23.006 27.6161C22.9449 27.5432 22.9792 27.4114 23.089 27.4157L23.1201 27.417C23.2338 27.4223 23.3439 27.434 23.4469 27.4871L23.4837 27.506C23.534 27.5322 23.5892 27.5622 23.6383 27.5976C23.7025 27.4498 23.7692 27.3035 23.8367 27.1586L23.9242 26.9713C24.1512 26.4837 24.3776 25.9776 24.6626 25.5236C24.7893 25.3217 24.9579 25.1957 25.1999 25.1762C25.4491 25.1561 25.7082 25.1821 25.9577 25.191C26.247 25.2014 26.5362 25.2136 26.8252 25.2288C26.7511 25.1512 26.6835 25.0648 26.6091 24.9903C26.4856 24.8668 26.3551 24.7497 26.218 24.6414C25.9465 24.4272 25.6481 24.2507 25.3381 24.0987C25.028 23.9467 24.7088 23.8142 24.4177 23.6264C24.2335 23.5075 24.0689 23.358 23.9187 23.1962C23.8241 24.2166 23.3316 25.1647 22.5916 25.8769C21.823 26.6166 20.7609 27.0231 19.7219 27.1959C18.6622 27.3723 17.5561 27.3076 16.5423 26.9391C16.0196 26.749 15.5182 26.4776 15.0711 26.1371C15.0662 26.1667 15.0603 26.196 15.0487 26.2235C15.0331 26.2605 15.014 26.292 14.9922 26.3244L14.9532 26.3815C14.9286 26.4173 14.9035 26.4528 14.8756 26.4861C14.8081 26.5666 14.7123 26.6018 14.6092 26.6015C14.4117 26.6008 14.2622 26.4071 14.3153 26.2156C14.3487 26.0952 14.4202 26.0227 14.5317 25.9756C14.567 25.9607 14.6029 25.9482 14.6391 25.9359L14.6662 25.9267C14.7027 25.9142 14.739 25.9023 14.7766 25.8954C14.5648 25.7084 14.3684 25.5052 14.1925 25.2858C13.6408 24.5979 13.0966 23.6344 13.2811 22.7208C13.2843 22.7051 13.2984 22.6952 13.3136 22.6927C13.3243 22.6286 13.3584 22.5665 13.4052 22.5248C13.3737 22.5166 13.342 22.5102 13.3101 22.5058ZM19.0391 38.3021C19.1483 38.2413 19.2612 38.3858 19.1724 38.475L19.0398 38.6077C18.9168 38.7314 18.797 38.8564 18.6917 38.9974L18.6662 39.0318C18.524 39.2253 18.3724 39.4495 18.1395 39.5218C17.8577 39.6092 17.587 39.2659 17.7501 39.0151C17.8927 38.7959 18.1671 38.7132 18.4037 38.6226C18.6276 38.5369 18.8298 38.4185 19.0391 38.3021ZM9.94982 37.2907C10.014 37.2066 10.1814 37.2509 10.1376 37.3699C9.99511 37.7562 9.93705 38.283 9.5773 38.5396C9.46125 38.6224 9.27893 38.5843 9.18338 38.4888C9.0748 38.3802 9.07045 38.2272 9.13255 38.0947C9.20828 37.933 9.39455 37.8158 9.52512 37.6927L9.53683 37.6815C9.6773 37.545 9.82923 37.4486 9.94982 37.2907ZM24.9854 37.7353C25.1 37.6859 25.3986 37.5898 25.4871 37.7035C25.4913 37.7077 25.4948 37.7122 25.4976 37.7173C25.5193 37.755 25.5226 37.8082 25.4976 37.8457C25.3945 38.0007 25.2871 38.1164 25.1405 38.2268L25.124 38.239C24.9644 38.3564 24.8145 38.4943 24.62 38.5472C24.3504 38.6206 24.1621 38.283 24.3514 38.0858C24.5039 37.927 24.7368 37.8445 24.9389 37.7559L24.9854 37.7353ZM14.1596 35.5279C14.1145 35.4464 14.2067 35.3463 14.2901 35.3974C14.5281 35.5429 14.8054 35.6521 15.0728 35.7305C15.181 35.7623 15.2786 35.872 15.2705 35.9904L15.2693 36.0083C15.2661 36.0501 15.2603 36.0916 15.2338 36.1264C15.1407 36.2482 15.0075 36.2952 14.8652 36.2231C14.5482 36.0624 14.3312 35.838 14.1596 35.5279ZM21.1167 35.281C21.1109 35.2467 21.1359 35.2202 21.1708 35.2268C21.3719 35.265 21.5577 35.3622 21.7305 35.4739C21.8231 35.5338 21.9125 35.5996 22.0049 35.6602C22.1191 35.7349 22.1618 35.7966 22.1787 35.9337C22.1898 36.0242 22.1054 36.1069 22.0279 36.1319C21.8168 36.2 21.5749 35.9765 21.4318 35.8313L21.4254 35.8247C21.2757 35.6721 21.1522 35.4915 21.1167 35.281ZM27.1583 35.0438C27.1125 34.9199 27.2705 34.8172 27.3738 34.8781C27.4712 34.9353 27.5767 34.9828 27.6685 35.0485C27.7529 35.1088 27.8298 35.1803 27.9107 35.2457L27.9507 35.2773C28.099 35.3966 28.3439 35.6917 28.1318 35.8629C27.9299 36.0258 27.6622 35.8177 27.5267 35.6656L27.5173 35.6549C27.4393 35.5648 27.3432 35.4669 27.2866 35.3617C27.2334 35.2626 27.1973 35.1489 27.1583 35.0438ZM25.1674 25.4548C24.9145 25.5039 24.8115 25.8162 24.705 26.0197C24.4537 26.5 24.2226 26.9891 23.9904 27.4789C23.919 27.6295 23.8494 27.7813 23.7792 27.9328C23.7749 27.9447 23.7694 27.9564 23.7629 27.9679C23.6191 28.2777 23.471 28.5854 23.2979 28.8794C23.4563 28.8498 23.6156 28.8245 23.7754 28.8045C23.7674 28.654 23.8704 28.4525 23.9214 28.3257L23.9256 28.3151C23.9892 28.1526 24.0558 27.8967 24.2195 27.8125C24.274 27.7844 24.3323 27.8196 24.3365 27.8796C24.3489 28.0584 24.1741 28.263 24.0886 28.4148C24.037 28.5066 23.9866 28.5988 23.9375 28.692C23.9191 28.7269 23.9038 28.7611 23.8849 28.7919C23.9673 28.783 24.0499 28.775 24.1326 28.7692L24.1865 28.7655C24.4933 28.7453 24.8192 28.7395 25.0964 28.8909C25.3535 29.0312 25.485 29.3309 25.3437 29.6038C25.1677 29.9437 24.7801 29.9888 24.4392 30.0163C24.0135 30.0507 23.5868 30.1127 23.1641 30.1732C22.7269 30.2358 22.3151 30.397 21.8844 30.4799C21.8443 30.4876 21.8194 30.4352 21.8561 30.4128C22.1959 30.2059 22.6089 30.0921 22.9888 29.9761L23.0195 29.9667C23.2256 29.9034 23.4269 29.831 23.6401 29.7951C23.847 29.7603 24.0552 29.732 24.2639 29.7106L24.2842 29.7087C24.514 29.6894 25.1002 29.696 25.0754 29.3557C25.059 29.1304 24.693 29.0915 24.5259 29.0888C23.7599 29.0765 22.9884 29.2799 22.2604 29.4979L22.0979 29.5466C21.7998 29.6363 21.5013 29.7287 21.2088 29.8338C20.8773 29.953 20.6162 30.1388 20.3748 30.3932C20.1071 30.6752 19.8479 30.9636 19.5702 31.2361C19.3951 31.4079 19.2178 31.5766 19.0391 31.744C18.9987 31.7963 18.9664 31.8532 18.944 31.927C18.9062 32.0516 18.9149 32.1675 18.9292 32.2956C18.9652 32.619 18.9731 32.9458 19.0182 33.2682C19.0601 33.5668 19.1185 33.8765 19.2425 34.1536C19.2916 34.2633 19.3555 34.3711 19.4282 34.4674L19.487 34.5438C19.5126 34.577 19.5412 34.6133 19.5713 34.6474C19.6154 34.5936 19.6792 34.5585 19.7535 34.5673C19.9112 34.5859 20.0351 34.5814 20.1899 34.5452C20.3096 34.5171 20.4284 34.4843 20.5476 34.4539C20.7817 34.3941 21.018 34.3398 21.2497 34.2712L21.2895 34.2592C21.4622 34.2062 21.6349 34.1398 21.7787 34.0283C21.9456 33.8987 21.997 33.7118 22.1207 33.5501C22.3848 33.2049 22.9555 33.2121 23.3419 33.1176C23.6703 33.0372 23.9863 32.9104 24.2136 32.6721L24.2268 32.6579C24.2168 32.6154 24.2331 32.5674 24.2726 32.5453L24.2812 32.5405C24.2966 32.5319 24.3132 32.5283 24.3295 32.5287C24.3506 32.4977 24.3709 32.4657 24.3894 32.4316C24.4046 32.4035 24.4427 32.4242 24.4377 32.452C24.4347 32.4685 24.4306 32.4847 24.4267 32.5009C24.6468 32.4442 24.8886 32.455 25.1121 32.4552L25.4021 32.4542C25.4523 32.4535 25.5271 32.451 25.5338 32.448L25.5406 32.445C25.5587 32.4371 25.533 32.4501 25.5457 32.4333C25.5596 32.4148 25.5732 32.3961 25.5867 32.3772C25.6348 32.3099 25.6802 32.2406 25.7248 32.1707C25.2391 32.2944 24.7359 32.3714 24.24 32.4357C23.7079 32.5046 23.1688 32.5525 22.632 32.553C22.484 32.5531 22.4853 32.3296 22.632 32.324C23.2004 32.3023 23.7659 32.2722 24.3305 32.1994C24.6225 32.1616 24.9133 32.1143 25.2024 32.059C25.314 32.0376 25.4254 32.015 25.5365 31.991L25.6197 31.9729C25.672 31.9613 25.8196 31.9447 25.8916 31.8964C25.9057 31.872 25.9199 31.8478 25.9339 31.8235C25.927 31.7381 25.7102 31.7496 25.6593 31.7495C25.5152 31.7492 25.371 31.7503 25.2269 31.7507C24.9386 31.7516 24.6503 31.749 24.362 31.7467C23.786 31.742 23.2078 31.7219 22.6322 31.7465C22.4925 31.7525 22.4191 31.5283 22.5572 31.4694C23.1668 31.209 23.8436 31.1524 24.4945 31.0723C24.8368 31.0303 25.1793 30.9817 25.514 30.8965L25.5967 30.8755C25.8069 30.8216 26.0391 30.7558 26.2161 30.6274C25.95 30.5197 25.6193 30.532 25.3435 30.5168L25.3224 30.5155C24.9362 30.4918 24.5493 30.4797 24.1624 30.4791C23.3707 30.478 22.5788 30.5061 21.788 30.5436C21.7682 30.5445 21.7641 30.5132 21.7833 30.509C22.5961 30.3316 23.4222 30.2461 24.254 30.233C24.6414 30.2268 25.029 30.2323 25.416 30.2494L25.5581 30.256C25.8881 30.2702 26.2543 30.2741 26.5304 30.4734C26.5725 30.5038 26.5946 30.5426 26.5981 30.5836C26.9684 29.8452 27.3104 29.0914 27.6538 28.3425C27.9207 27.7603 28.1777 27.1731 28.4544 26.5954L28.544 26.4085C28.6639 26.1591 28.7868 25.9097 28.9233 25.6694C28.413 25.6011 27.9 25.5538 27.3866 25.5175C26.9189 25.4844 25.3926 25.4112 25.1674 25.4548ZM24.9415 33.4578C24.9996 33.4255 25.0888 33.4518 25.1031 33.5236C25.1138 33.5771 25.132 33.6364 25.132 33.6911C25.132 33.7566 25.1086 33.8277 25.0961 33.8918C25.0674 34.0391 25.0321 34.1589 24.9572 34.2901C24.9103 34.3723 24.8157 34.428 24.7206 34.4258C24.6453 34.4241 24.5786 34.4039 24.5269 34.3456C24.465 34.2757 24.4225 34.173 24.4564 34.0789C24.5454 33.8325 24.7089 33.587 24.9415 33.4578ZM12.6004 33.212C12.7365 32.9734 13.0593 32.7602 13.3409 32.7813C13.7638 32.813 13.8501 33.3826 13.4406 33.5185C13.1959 33.5998 12.8592 33.5164 12.6452 33.3827C12.5874 33.3467 12.5663 33.2718 12.6004 33.212ZM8.25426 32.397C8.22333 32.352 8.27445 32.3006 8.32052 32.3107C8.42271 32.3332 8.53288 32.343 8.63297 32.3735C8.73548 32.4047 8.8347 32.4564 8.93623 32.492C9.14894 32.5665 9.37614 32.6039 9.58199 32.6939C9.66427 32.7299 9.729 32.8491 9.72139 32.937L9.71945 32.9576C9.7149 33.0012 9.70734 33.0392 9.68296 33.0791C9.61745 33.1861 9.48765 33.2414 9.36515 33.2085C9.13789 33.1474 8.91582 32.9905 8.72205 32.8602L8.68624 32.8364C8.60159 32.7806 8.51055 32.7222 8.44233 32.6504C8.37113 32.5754 8.3126 32.4819 8.25426 32.397ZM16.0664 31.5294C16.0402 31.4351 16.1574 31.3728 16.2258 31.4365C16.3623 31.5638 16.505 31.6818 16.6388 31.8122L16.6477 31.8211C16.7435 31.9174 16.8828 32.1029 16.7582 32.2274C16.5987 32.387 16.3765 32.1502 16.2909 32.0268C16.1823 31.8702 16.1172 31.7124 16.0664 31.5294ZM26.5141 30.7501C26.3116 30.9647 25.9995 31.0634 25.7248 31.1451C25.399 31.242 25.0634 31.2999 24.7274 31.3474C24.4027 31.3934 24.0806 31.4345 23.7611 31.4873C24.0028 31.4903 24.2444 31.4921 24.4855 31.4964C24.7636 31.5014 25.0416 31.5074 25.3196 31.5155C25.522 31.5214 25.7596 31.4936 25.952 31.5689C25.9867 31.5824 26.0191 31.6012 26.0474 31.6241C26.2091 31.3364 26.3641 31.0447 26.5141 30.7501ZM14.0214 28.7433C14.2328 28.6761 14.4316 28.587 14.6557 28.6101C14.7153 28.6162 14.7579 28.6742 14.7254 28.7315C14.6192 28.9185 14.4465 29.024 14.2765 29.1491L14.2615 29.1602C14.0755 29.2986 13.8757 29.4248 13.6733 29.5384C13.3249 29.734 13.0127 29.1742 13.3646 29.01C13.5763 28.9111 13.7987 28.8141 14.0214 28.7433ZM17.8274 28.2573C18.1508 28.2786 18.474 28.2931 18.7978 28.3062C19.1729 28.3213 19.0468 28.8987 18.7335 28.7819C18.4239 28.6664 18.1144 28.5524 17.802 28.4447C17.707 28.4119 17.7146 28.2557 17.8213 28.2571L17.8274 28.2573ZM9.53234 27.2301C9.61616 27.2242 9.7007 27.2425 9.78464 27.2506L9.87396 27.2593C10.0581 27.2776 10.2307 27.3002 10.4063 27.3752C10.7303 27.5135 10.5563 28.0346 10.2311 28.0226C9.99065 28.0138 9.78508 27.9105 9.58208 27.7903C9.40461 27.6851 9.29582 27.5536 9.17597 27.3886C9.13629 27.3339 9.19159 27.2726 9.24564 27.2671C9.34086 27.2574 9.4371 27.2367 9.53234 27.2301ZM25.7739 26.166C25.7203 26.5007 25.5872 26.8144 25.3867 27.0875C25.2859 27.2247 25.1089 27.2299 25.0091 27.0875C24.8678 26.886 24.9549 26.6551 25.0613 26.4616L25.0928 26.4049C25.1405 26.3199 25.2137 26.196 25.2973 26.1104L25.2987 26.1017C25.3436 25.7513 25.8291 25.8212 25.7739 26.166ZM12.693 24.0181C12.7736 23.9455 12.9221 23.9673 12.9483 24.0855C12.9849 24.2511 13.0072 24.4377 12.9832 24.6057C12.9702 24.6968 12.9653 24.7991 12.9295 24.884C12.891 24.9753 12.817 25.0455 12.7472 25.1141C12.6079 25.2511 12.3143 25.2058 12.277 24.9899L12.2723 24.9634C12.2535 24.8613 12.2295 24.7521 12.2573 24.6509C12.2783 24.5745 12.3251 24.4965 12.3639 24.4257L12.3721 24.4106C12.4498 24.2659 12.5709 24.1281 12.693 24.0181ZM24.0261 24.3704L24.0552 24.3707C24.2803 24.3751 24.6917 24.4299 24.6939 24.7081C24.6944 24.7737 24.6459 24.8416 24.5808 24.8567C24.4463 24.8879 24.3593 24.8084 24.2635 24.7281C24.1851 24.6624 24.0937 24.6099 23.9987 24.5722C23.8962 24.5314 23.9029 24.3702 24.0261 24.3704Z" fill="black"/>
<path fill-rule="evenodd" clip-rule="evenodd" d="M24.7121 16.2067C24.5162 14.79 24.0683 13.4146 24.0039 11.9767C23.9657 11.3614 23.9274 10.7461 23.8892 10.1308C23.8747 9.74644 23.3767 9.61678 23.1865 9.95726C22.7541 9.47657 21.9799 9.54737 21.3893 9.56196C17.9122 9.68548 14.6079 12.0423 13.4144 15.3283C13.3856 15.4067 13.3943 15.4901 13.4268 15.5647C12.8704 17.4246 14.8379 18.6222 16.1798 19.4514C16.7242 20.0281 17.3641 20.5072 18.0866 20.8354C18.9177 21.2274 19.8429 21.4459 20.7612 21.4668C20.9627 21.4715 21.0838 21.3081 21.0984 21.139C21.3914 21.0706 21.8927 21.1495 22.0476 20.8486C23.8143 20.0793 24.9655 18.1295 24.7121 16.2067Z" fill="#D08B5B"/>
<path fill-rule="evenodd" clip-rule="evenodd" d="M23.8857 11.1824C23.8807 11.1364 23.9468 11.135 23.9605 11.1722C24.0724 11.478 24.1885 11.7818 24.2772 12.0953C24.3627 12.3975 24.4243 12.7065 24.4867 13.0143C24.5901 13.5249 24.6791 14.0394 24.7527 14.5555C24.9099 14.4324 25.1156 14.4212 25.3093 14.517C25.4002 14.5619 25.435 14.6807 25.4132 14.7729C25.3957 14.8469 25.3743 14.9205 25.3486 14.9925C25.4035 15.0412 25.4501 15.1013 25.484 15.1702C25.5731 15.3518 25.5444 15.5425 25.4644 15.7157C25.4705 15.726 25.4765 15.7364 25.4822 15.7474C25.598 15.9729 25.5361 16.1747 25.4515 16.3946C25.3881 16.5592 25.4235 16.7445 25.2868 16.8688C25.2393 17.0217 25.168 17.164 25.0643 17.2926C25.0407 17.3358 25.0055 17.3706 24.9636 17.3961C24.953 17.6376 24.9276 17.8782 24.8798 18.1167C24.6941 19.0429 24.1048 19.8681 23.3753 20.4501C22.6615 21.0197 21.8231 21.36 20.9184 21.47C20.4792 21.5234 20.0393 21.5066 19.6036 21.4303L19.5493 21.4206C19.1473 21.3475 18.6609 21.2265 18.3829 20.9225C18.2367 20.7626 18.3221 20.4107 18.5806 20.4439C18.7175 20.4615 18.8367 20.4835 18.9656 20.5342C19.0662 20.5737 19.1669 20.6118 19.2701 20.644C19.4678 20.7057 19.6723 20.7538 19.8776 20.7805C20.3053 20.8359 20.7497 20.8212 21.1725 20.7376C21.9413 20.5856 22.6881 20.2348 23.2715 19.7068C23.9497 19.093 24.3472 18.2986 24.4057 17.3824C24.4709 16.362 24.3533 15.317 24.2558 14.3019C24.205 13.7738 24.1406 13.2468 24.063 12.7221C23.9872 12.2093 23.9418 11.6973 23.8857 11.1824ZM17.8841 7.88735L17.9169 7.88229C19.2225 7.68312 20.5961 7.69725 21.8232 8.23736C22.0584 8.34097 22.2886 8.4659 22.5053 8.61087C22.6606 8.59462 22.8168 8.58144 22.9701 8.57928C23.1631 8.57674 23.3514 8.67725 23.3752 8.87295C23.556 8.89549 23.7225 8.96218 23.829 9.0956C23.8705 9.14755 23.8983 9.20766 23.9124 9.27029C24.0236 9.29662 24.1326 9.33698 24.236 9.39021C24.3615 9.45502 24.434 9.63537 24.3896 9.76879C24.3794 9.79908 24.3677 9.82858 24.3547 9.85744L24.3446 9.87898L24.3506 9.88712C24.4508 10.0487 24.3812 10.2607 24.2275 10.3571C24.1123 10.4294 23.9836 10.487 23.8512 10.5149C23.8621 10.5681 23.8721 10.6217 23.8802 10.6758C23.8833 10.6978 23.8553 10.7134 23.8427 10.6918C23.8427 10.6918 23.8902 10.8399 23.9618 11.0031C23.9898 11.0672 23.8999 11.1242 23.8656 11.0594C23.7744 10.8866 23.7178 10.7093 23.635 10.5312C23.5585 10.5262 23.4823 10.5086 23.4089 10.4751C23.3608 10.4532 23.3243 10.4163 23.2981 10.3721C23.2965 10.374 23.2956 10.3762 23.294 10.3784C23.0475 10.6962 22.5659 10.8077 22.1936 10.9082C21.7939 11.0162 21.3847 11.0829 20.974 11.132C20.2569 11.2175 19.5342 11.2335 18.8137 11.2667C18.7659 11.2689 18.7183 11.2713 18.6706 11.2736C18.378 11.531 18.001 11.6909 17.6144 11.7395C17.4184 11.7642 17.1867 11.7579 16.967 11.7077C16.8875 11.7891 16.787 11.8494 16.6773 11.8804C16.6576 12.2906 16.4295 12.6789 16.0846 12.9052L16.0907 12.9296C16.1764 13.2798 16.1753 13.6627 15.8681 13.9061C15.8264 13.939 15.781 13.9673 15.7332 13.9907L15.7437 14.0149C15.9024 14.3867 15.9531 14.7974 15.6548 15.1059C15.5338 15.2309 15.3215 15.2013 15.2308 15.0578L15.2264 15.0505C15.2213 15.042 15.2159 15.0338 15.2107 15.0254C15.2026 15.042 15.1902 15.056 15.1719 15.0638C15.0585 15.1127 15.0132 15.0766 14.9098 15.0262C14.8143 14.9792 14.7134 14.9442 14.6103 14.917C14.5263 14.895 14.4426 14.8794 14.3583 14.8703C13.8254 15.0744 13.4812 15.7007 13.5631 16.2884C13.6074 16.6084 13.7827 16.9252 14.0881 17.058C14.2218 17.1162 14.3789 17.1407 14.5235 17.1209C14.7193 17.0943 14.8698 16.9707 15.0725 17.0414C15.1525 17.0693 15.2025 17.1322 15.2068 17.2183C15.2141 17.3536 15.1662 17.455 15.0857 17.5302C15.2278 17.6492 15.3424 17.8145 15.4658 17.9463C15.6201 18.1113 15.7765 18.2763 15.9433 18.4285C16.1007 18.5728 16.2682 18.7068 16.4455 18.8259L16.4642 18.8382C16.6864 18.9832 16.9665 19.1121 16.9771 19.4154C16.9806 19.5069 16.9253 19.5908 16.8503 19.6374C16.5702 19.8115 16.2653 19.5829 16.0458 19.4154C15.9574 19.3481 15.8715 19.2783 15.7887 19.2059C15.7334 19.2103 15.6732 19.2013 15.6104 19.1734C15.5701 19.1558 15.5307 19.1352 15.492 19.1133C15.3661 19.1449 15.2475 19.117 15.1497 19.051C15.0088 19.0857 14.8595 19.0898 14.7327 19.0619C14.6169 19.0362 14.5135 18.9814 14.4282 18.9079C14.2502 18.9648 14.0525 18.9542 13.877 18.8462C13.7717 18.7814 13.6896 18.689 13.6449 18.581C13.6222 18.5453 13.6076 18.5037 13.6065 18.4578L13.6065 18.4404C13.4534 18.4438 13.3001 18.3912 13.1817 18.2698C13.073 18.1583 13.02 18.0193 13.014 17.878C12.86 17.8342 12.7191 17.7443 12.612 17.6056C12.4346 17.3758 12.4109 17.0918 12.5021 16.8382C12.4961 16.8247 12.4908 16.811 12.4862 16.7972C12.3447 16.5971 12.2513 16.3557 12.2588 16.1137C12.2597 16.0761 12.2647 16.0392 12.2722 16.0025C12.1329 15.9283 12.0305 15.798 12.0195 15.6324C12.0111 15.5025 12.0576 15.3753 12.1417 15.2792C12.1007 15.1812 12.0826 15.0747 12.0951 14.9683C12.1079 14.859 12.1463 14.7641 12.2026 14.685C12.2013 14.6561 12.2029 14.627 12.2076 14.5973C12.2019 14.5681 12.1972 14.5381 12.1948 14.5074C12.1682 14.1717 12.3993 13.878 12.6807 13.723C12.7548 13.6823 12.8347 13.6492 12.9147 13.621C12.9728 13.6003 13.0602 13.5934 13.1114 13.5555C13.1092 13.554 13.1305 13.5264 13.1342 13.5117C13.1383 13.4935 13.1427 13.4757 13.1449 13.4572C13.1533 13.3796 13.147 13.2997 13.1455 13.2218C13.1386 12.8679 13.1495 12.5126 13.1867 12.1606C13.2557 11.5081 13.426 10.8697 13.7576 10.2995C14.0359 9.82168 14.417 9.41808 14.8539 9.08336C15.7242 8.41697 16.8103 8.05464 17.8841 7.88735ZM13.8507 16.0022C13.7374 15.7292 14.2708 15.7265 14.4118 15.7395L14.4159 15.7399C14.7333 15.7716 15.2296 15.9246 15.3595 16.2457C15.4132 16.3786 15.2541 16.5227 15.1268 16.479C15.0021 16.4362 14.9322 16.3443 14.8322 16.264C14.8059 16.2429 14.7786 16.2232 14.7507 16.2042C14.7654 16.251 14.7889 16.2943 14.8215 16.3266L14.8291 16.3338C14.9827 16.4722 14.708 16.6896 14.6061 16.5064C14.5518 16.4089 14.5301 16.3019 14.547 16.1913C14.552 16.1586 14.5608 16.1287 14.5735 16.1002C14.5634 16.0952 14.5534 16.0897 14.5432 16.0848L14.5249 16.0763C14.4026 16.0206 13.881 15.8023 13.8852 15.9975C13.8857 16.0191 13.8577 16.0192 13.8507 16.0022Z" fill="black"/>
<path fill-rule="evenodd" clip-rule="evenodd" d="M21.2085 19.0034C20.9981 18.9175 20.8103 18.7743 20.6731 18.5913C20.6254 18.5277 20.613 18.4606 20.623 18.3991C20.6343 18.33 20.6751 18.2674 20.7308 18.2254C20.7867 18.1833 20.8566 18.1625 20.9242 18.1731C20.9829 18.1823 21.0414 18.2145 21.0876 18.2812L21.0973 18.2946C21.1789 18.405 21.2852 18.4956 21.4064 18.554C21.5232 18.6103 21.6538 18.6366 21.7889 18.6213C22.0463 18.5922 22.2237 18.4529 22.4123 18.2638C22.4357 18.24 22.459 18.2153 22.4825 18.1903C22.4974 18.1676 22.518 18.153 22.5408 18.1454C22.5662 18.1369 22.595 18.1374 22.6213 18.1466C22.6466 18.1554 22.6693 18.1722 22.6845 18.1946C22.699 18.2158 22.7072 18.242 22.7045 18.2722C22.6873 18.4682 22.5849 18.6431 22.4394 18.7804C22.2778 18.933 22.0636 19.0385 21.862 19.0755C21.6398 19.1163 21.4134 19.087 21.2085 19.0034ZM21.9668 15.98C22.2031 16.1237 22.5632 16.4588 22.309 16.8151C22.0097 17.1293 21.5788 16.7691 21.3664 16.6062C21.1695 16.4799 20.9483 16.8047 21.131 16.9521C22.6654 18.0885 23.2881 16.0176 22.0863 15.811C21.954 15.7883 21.9048 15.9355 21.9668 15.98ZM19.2171 14.658C19.2432 14.3338 19.7369 14.2601 19.786 14.581C19.83 14.8684 19.7782 15.1325 19.6488 15.3913C19.5251 15.6385 19.2143 15.5232 19.1908 15.298C19.1593 14.9963 19.2009 14.8597 19.2171 14.658ZM22.975 14.5145C23.0438 14.4243 23.1432 14.3627 23.2622 14.3975C23.6342 14.5063 23.5246 15.0346 23.3939 15.2917C23.323 15.4314 23.0935 15.4668 22.9898 15.3438C22.8208 15.1433 22.7399 14.7429 22.9547 14.5454C22.9605 14.5352 22.967 14.5249 22.975 14.5145ZM19.6435 13.2391L19.7023 13.2288C19.8841 13.1974 20.1101 13.1672 20.2387 13.3134C20.3069 13.3909 20.3304 13.535 20.2387 13.6092C20.0774 13.7398 19.8992 13.6892 19.7059 13.7002C19.5467 13.7094 19.3936 13.7357 19.2402 13.7796C18.9037 13.8758 18.6295 14.0515 18.3421 14.2443C18.3044 14.2696 18.2659 14.2214 18.2839 14.1861C18.4498 13.861 18.7713 13.5939 19.0934 13.4312C19.2653 13.3443 19.4534 13.2722 19.6435 13.2391ZM22.6359 13.0935L22.6809 13.1027C23.1703 13.2051 23.8062 13.4095 24.0379 13.8904C24.0468 13.9584 24.0374 13.973 24.0298 13.9825L24.0273 13.9857C24.0211 13.9938 24.0161 14.005 23.9866 14.0143C23.9784 14.0123 23.9702 14.0103 23.9618 14.0081C23.8556 13.9802 23.7715 13.9419 23.6902 13.902L23.6019 13.8586C23.4996 13.8083 23.3963 13.76 23.2869 13.7242C23.0533 13.648 22.8131 13.5943 22.5691 13.5657C22.5162 13.5595 22.4653 13.5416 22.4252 13.511C22.387 13.482 22.3579 13.4418 22.3446 13.3883C22.3274 13.3192 22.3324 13.2668 22.3695 13.2044C22.3973 13.1575 22.4373 13.1251 22.4831 13.1064C22.5298 13.0874 22.583 13.0829 22.6359 13.0935Z" fill="black"/>
<path fill-rule="evenodd" clip-rule="evenodd" d="M24.7675 16.17C24.3875 16.5628 23.7531 16.6756 23.2476 16.4649C21.9494 15.9223 22.5848 14.2299 23.586 13.7755C23.711 13.7443 23.8781 13.6703 24.0304 13.6535C24.0442 13.6467 24.0742 13.6663 24.1105 13.6478C25.2144 13.7711 25.4658 15.4855 24.7675 16.17ZM20.5804 16.2706C20.1542 16.8361 19.3618 17.0106 18.7144 16.7477C17.4355 16.2438 17.8891 14.7431 18.7641 14.1548C20.6126 13.4599 21.3758 15.2279 20.5804 16.2706ZM17.8079 15.0176C17.8067 15.017 17.8055 15.0167 17.8043 15.0162C17.8111 15.0132 17.8178 15.0102 17.8246 15.0072C17.8224 15.0129 17.82 15.0186 17.8179 15.0243C17.8146 15.022 17.8117 15.0194 17.8079 15.0176ZM25.6474 14.4063C25.543 14.4065 25.3923 14.4237 25.3059 14.4961C25.0929 13.7774 24.3066 13.1123 23.6228 13.5973C23.0843 13.7705 22.6847 14.1547 22.4576 14.6655C22.0481 14.4219 21.4042 14.5259 21.0491 14.8482C20.8166 14.0794 20.2442 13.8103 19.563 13.7705C18.8195 13.6487 18.0784 14.3711 17.8471 14.9506C17.6549 14.9287 17.3676 14.8675 17.1867 14.9862C16.0128 14.6782 13.9604 14.5084 13.7217 14.6795C13.5516 14.7448 13.4583 15.1464 13.6958 15.1681C13.9029 15.1387 13.6717 14.8738 13.8804 14.8449C14.9922 14.776 16.0715 15 17.1716 15.0939C17.2698 15.2261 17.5871 15.2703 17.7564 15.2172C17.4898 16.2003 18.0654 16.8691 18.9278 17.0694C20.2633 17.3763 21.4251 16.1812 21.0759 14.9381C21.4804 14.7368 21.9458 14.7455 22.3865 14.8515C21.6501 17.5627 26.0149 17.4411 25.3332 14.589C25.7869 14.8147 25.8854 14.4518 25.6474 14.4063Z" fill="black"/>
</svg>
