<svg width="36" height="48" viewBox="0 0 36 48" fill="none" xmlns="http://www.w3.org/2000/svg">
<path fill-rule="evenodd" clip-rule="evenodd" d="M28.5619 40.2158C28.486 39.5104 28.4392 38.7999 28.4124 38.0909C28.3855 37.3827 28.4206 36.6658 28.436 35.9573C28.4674 34.5161 28.5184 33.0715 28.4037 31.6324C28.2953 30.2724 28.0465 28.9219 27.6538 27.6152C27.4625 26.9788 27.261 26.3168 26.9465 25.7288C26.6302 25.1375 26.1292 24.7438 25.5789 24.3828C24.993 23.9984 24.4119 23.6067 23.8283 23.2187C23.3384 22.8931 22.4568 22.514 22.0548 22.0786C21.6319 21.6205 21.5524 20.485 21.2707 19.9423C20.9964 19.4137 20.22 19.0689 19.6221 19.0689C18.6325 19.0689 17.8827 19.0183 17.069 19.934C16.663 20.3909 16.986 20.8529 16.5605 21.2914C16.1693 21.6946 15.1687 22.109 14.6645 22.3429C14.0605 22.6231 13.4413 22.8705 12.8132 23.0909C12.1724 23.3157 11.5155 23.4832 10.8711 23.6954C10.2534 23.8988 9.4469 24.737 8.9674 25.1805C8.52161 25.5929 8.41098 25.5467 8.07208 26.0477C7.32829 27.147 6.58369 28.259 5.99139 29.4493C5.69636 30.0422 5.4107 30.6659 5.30366 31.3244C5.18948 32.0267 5.30269 32.7054 5.48785 33.3854C5.67633 34.0774 6.27486 34.7362 6.46985 35.4265C6.55971 35.7446 6.25126 36.0917 6.39314 36.3915C6.464 36.5412 6.55323 36.6745 6.65483 36.8049C6.73311 36.9054 7.03838 36.8832 7.07788 37.0062C7.11778 37.1304 6.89693 37.3882 6.89364 37.5168C6.88898 37.7009 6.88165 37.8849 6.87561 38.0689L6.83993 39.1568C6.81649 39.8717 6.79305 40.5866 6.7696 41.3015C6.76194 41.5349 6.75076 41.7629 6.80669 41.9843C6.7865 41.9656 6.76732 41.9452 6.74979 41.9223C6.69849 41.8553 6.5897 41.9121 6.63323 41.9905C6.70591 42.1213 6.81042 42.2133 6.9332 42.2795C7.07589 42.4899 28.6854 42.9599 28.7917 42.3447C28.8514 41.9995 28.7428 41.6299 28.6994 41.2869C28.6542 40.9297 28.6005 40.574 28.5619 40.2158Z" fill="#D08B5B"/>
<path fill-rule="evenodd" clip-rule="evenodd" d="M6.04199 29.9473L28.3611 31.168C28.3771 31.3226 28.3913 31.4774 28.4036 31.6323C28.5183 33.0713 28.4673 34.516 28.4359 35.9572C28.4317 36.1482 28.4262 36.3399 28.4207 36.5318L26.219 36.8955L10.5667 37.2718L6.65471 36.8048L6.49235 36.5232L6.37986 36.033C6.42813 35.8318 6.52542 35.6235 6.46973 35.4264C6.4535 35.3689 6.43447 35.3116 6.41311 35.2546L6.43331 34.8612L6.04199 29.9473Z" fill="#FDEA6B"/>
<path fill-rule="evenodd" clip-rule="evenodd" d="M6.61106 31.3252C6.66392 31.1738 6.90574 31.2393 6.8525 31.3918C6.57882 32.176 6.77297 33.0294 7.06884 33.778C7.12821 33.9282 6.88596 33.9928 6.8274 33.8446C6.51616 33.0571 6.32361 32.1488 6.61106 31.3252ZM8.44608 35.8047C9.21791 35.9133 9.99037 35.9803 10.7675 36.0345C10.8023 36.037 10.8323 36.0317 10.8583 36.0204C10.8351 36.3764 10.8163 36.7327 10.8016 37.089C10.5897 37.0831 10.3735 37.0972 10.1635 37.0915C9.88896 37.084 9.61478 37.0702 9.34092 37.0493C8.81072 37.0092 8.28145 36.9453 7.75719 36.857C7.56126 36.8241 7.31244 36.8041 7.08928 36.739C6.87832 36.6773 6.69053 36.5752 6.59194 36.383C6.50805 36.2201 6.49272 36.0207 6.49272 35.8407C6.49272 35.7167 6.514 35.5908 6.52683 35.4659C6.5428 35.4546 6.55719 35.4411 6.56877 35.4261C6.80164 35.4997 7.04327 35.5514 7.27989 35.6014C7.66518 35.6835 8.0561 35.7499 8.44608 35.8047ZM8.01078 32.9096C8.01503 33.1489 8.08123 33.3663 8.21003 33.5677C8.29716 33.7041 8.08035 33.8296 7.99381 33.6942C7.8422 33.4569 7.76539 33.1906 7.76039 32.9096C7.75751 32.748 8.0079 32.7486 8.01078 32.9096ZM27.7957 35.5203C27.9002 35.5262 28.0054 35.5298 28.1102 35.5353C28.2026 35.6144 28.3307 35.655 28.4476 35.6298C28.4516 35.6399 28.4553 35.6513 28.4586 35.6644C28.4793 35.7448 28.4896 35.8313 28.5015 35.9133C28.5134 35.9941 28.5224 36.0755 28.5287 36.1569C28.5318 36.1979 28.5516 36.2906 28.5265 36.3263C28.504 36.3585 28.4542 36.3557 28.4198 36.3598C28.3271 36.3698 28.2332 36.3745 28.14 36.3824C27.9638 36.3977 27.7876 36.413 27.6117 36.4284C27.4392 36.4434 27.2498 36.4387 27.0811 36.4841C27.0523 36.1456 27.0261 35.8072 27.0016 35.4684C27.263 35.5069 27.5362 35.5059 27.7957 35.5203ZM5.8827 34.959C5.98787 35.1621 6.08489 35.3619 6.28615 35.484C6.31244 35.4997 6.34186 35.5081 6.3719 35.5103C6.34937 35.6071 6.33528 35.706 6.32277 35.7974C6.29522 35.9988 6.28928 36.207 6.33967 36.4055C6.38881 36.5987 6.47018 36.7712 6.62981 36.8949C6.70399 36.9525 6.78505 36.9963 6.87018 37.0311C6.85579 37.0715 6.84733 37.1116 6.85172 37.1558C6.83137 37.2581 6.81791 37.3624 6.8032 37.4623C6.77097 37.6839 6.73873 37.9059 6.71338 38.1289C6.66267 38.5722 6.62292 39.0156 6.58943 39.4605C6.55594 39.9042 6.53184 40.3485 6.51181 40.7932C6.50148 41.0205 6.49241 41.2478 6.48395 41.4754C6.4755 41.7093 6.43763 41.9485 6.54092 42.1655C6.62417 42.3409 6.90555 42.3308 6.99194 42.1655C7.10148 41.9554 7.06924 41.7059 7.07206 41.4754C7.07488 41.2584 7.07863 41.0412 7.08333 40.8241C7.09272 40.3799 7.10649 39.9358 7.11744 39.4916C7.12809 39.0579 7.14123 38.6245 7.15 38.1909C7.15438 37.9639 7.15469 37.7369 7.15594 37.5098C7.15657 37.384 7.16189 37.2497 7.1525 37.1185C7.23075 37.1369 7.30962 37.1526 7.38755 37.1686C7.98255 37.2907 8.5838 37.3796 9.18881 37.4347C9.49272 37.4623 9.79757 37.4817 10.1024 37.4927C10.3265 37.5008 10.5588 37.5164 10.7863 37.508C10.7685 38.0515 10.7603 38.5954 10.7613 39.1393C10.7619 39.5316 10.7672 39.9239 10.7769 40.3163C10.7822 40.5226 10.7866 40.7289 10.7929 40.9353C10.7957 41.028 10.7957 41.1216 10.802 41.214C10.8038 41.2428 10.8079 41.2707 10.8132 41.2982C10.7926 41.3568 10.7753 41.4147 10.7613 41.4689C10.6924 41.7318 10.6924 41.9846 10.7231 42.2526C10.7494 42.4799 10.9406 42.6906 11.1932 42.6108C11.2342 42.5979 11.2752 42.5844 11.3159 42.5707C11.6877 42.6129 12.0617 42.6227 12.4389 42.6298C12.9901 42.6405 13.5415 42.6439 14.093 42.6468C15.1747 42.6524 16.2567 42.6552 17.3387 42.6583C19.5131 42.6646 21.6874 42.6706 23.8617 42.6768C24.4652 42.6787 25.0686 42.6803 25.6721 42.6822C25.9844 42.6831 26.2962 42.6834 26.6082 42.6953C26.7537 42.701 26.8996 42.7088 27.0451 42.711C27.2138 42.7138 27.3631 42.6652 27.5243 42.6211C27.6154 42.5957 27.6514 42.5043 27.632 42.427C27.7778 42.4617 27.9547 42.3878 28.0045 42.2235C28.0408 42.1041 28.0273 41.9748 27.9732 41.8643V41.864C27.8686 41.2036 27.7359 40.5464 27.6317 39.8857C27.5174 39.1621 27.4076 38.437 27.3109 37.7106C27.2383 37.162 27.1785 37.5509 27.1268 36.9998C27.3519 37.0173 27.6063 36.9488 27.8292 36.9196C27.9891 36.899 28.1503 36.8824 28.3106 36.8605C28.2987 37.022 28.3021 37.1867 28.2977 37.3417C28.2893 37.6495 28.293 37.956 28.3009 38.2639C28.3159 38.8578 28.3494 38.5121 28.4029 39.1036C28.457 39.6994 28.5234 40.2931 28.6038 40.8862C28.6451 41.1914 28.6893 41.4964 28.7359 41.801C28.7575 41.9432 28.7797 42.0851 28.8026 42.2272C28.8298 42.3947 28.8386 42.5535 28.9641 42.6793C29.0595 42.7748 29.2545 42.7667 29.3178 42.6336C29.3979 42.4655 29.3616 42.3214 29.3318 42.1449C29.3077 42.003 29.2846 41.8612 29.2617 41.7194C29.2129 41.4153 29.1666 41.1109 29.1231 40.8063C29.0392 40.2192 28.96 39.6312 28.8893 39.0426C28.8179 38.4492 28.744 38.7958 28.6739 38.2025C28.6386 37.9031 28.6032 37.6044 28.5619 37.306C28.5409 37.1526 28.5278 36.9892 28.5002 36.831C28.509 36.8298 28.5178 36.8282 28.5265 36.8266C28.7168 36.7919 28.8793 36.6845 28.9271 36.4885C28.9728 36.3009 28.9184 36.0852 28.8799 35.9011C28.847 35.7443 28.8173 35.5441 28.7164 35.4098C29.072 34.9567 29.3032 34.3866 29.4507 33.8385C29.6114 33.2414 29.6787 32.618 29.6929 32.001C29.7095 31.2861 29.6556 30.5753 29.5331 29.8763C29.5302 29.7282 29.5234 29.5801 29.5124 29.4322C29.4048 27.9806 28.9528 26.2626 27.5199 25.5844C27.5143 25.5816 27.5084 25.579 27.5024 25.5765C27.3901 25.4422 27.2498 25.3214 27.1365 25.2084C26.9359 25.0079 26.7262 24.8163 26.504 24.6397C26.0639 24.29 25.5813 24.0107 25.0796 23.7592C24.5722 23.5047 24.0573 23.2658 23.5616 22.988C23.1297 22.7457 22.7409 22.4539 22.3719 22.1245C21.9572 21.7541 21.662 21.2547 21.5462 20.7095C21.5403 20.6811 21.498 20.6889 21.4974 20.7161C21.4671 21.7152 22.1412 22.5982 22.9171 23.1568C23.8448 23.8241 24.965 24.14 25.9059 24.7869C26.1397 24.9475 26.3584 25.1288 26.5666 25.3214C26.2476 25.2888 25.9231 25.3095 25.6242 25.3978C25.5065 25.3906 25.3882 25.3884 25.2702 25.3827C25.0004 25.3693 24.7303 25.3568 24.4602 25.3448C23.9096 25.3204 23.3588 25.2982 22.8079 25.2788C21.7271 25.2406 20.6461 25.2118 19.565 25.1927C17.3926 25.1542 15.2173 25.1466 13.0451 25.2096C12.4561 25.2265 9.35876 25.1091 9.07206 25.1423C9.49366 24.7772 9.95625 24.4791 10.4649 24.2339C11.1012 23.928 11.7588 23.7239 12.4383 23.5372C13.8376 23.1531 15.2908 22.7826 16.4107 21.8067C16.689 21.564 16.9362 21.2851 17.1387 20.976C17.3322 20.6811 17.5472 20.3034 17.5525 19.9437C17.5563 19.6882 17.2007 19.5952 17.0743 19.814C16.9957 19.9496 16.9569 20.0983 16.8927 20.2405C16.8289 20.3814 16.7531 20.5173 16.6689 20.6473C16.5034 20.9028 16.298 21.1307 16.0746 21.3364C15.5982 21.7754 15.021 22.0969 14.4239 22.3402C13.068 22.8922 11.585 23.1252 10.3002 23.8529C9.7381 24.1713 9.20007 24.6106 8.86236 25.1711C8.8079 25.1795 8.75375 25.1895 8.6996 25.2008C8.73998 25.1498 8.78067 25.0988 8.82167 25.048C8.84859 25.0148 8.80696 24.971 8.7741 25.0004C8.13528 25.569 7.54687 26.183 7.01353 26.8525C6.50336 27.4931 6.02762 28.1644 5.69084 28.9147C5.08552 30.2623 4.95219 31.8037 5.26486 33.2447C5.35 33.6373 5.47018 34.0218 5.62323 34.3934C5.70211 34.5854 5.78755 34.7745 5.8827 34.959Z" fill="black"/>
<path fill-rule="evenodd" clip-rule="evenodd" d="M19.6574 6.85627C21.4308 6.85627 23.652 8.88432 24.3021 9.74734C24.8486 10.4729 24.7713 14.2109 24.7713 16.4282C24.7713 16.892 24.5622 17.7697 24.4863 18.2133C24.2081 19.8388 22.9962 21.202 20.5976 21.202C18.6445 21.202 17.1415 20.5819 15.6881 18.9957C15.3565 18.6338 13.7371 19.9293 13.4059 19.4628C12.5409 19.4628 11.8175 11.3601 13.5159 8.92982C15.2143 6.4995 17.884 6.85627 19.6574 6.85627Z" fill="#D08B5B"/>
<path fill-rule="evenodd" clip-rule="evenodd" d="M14.3269 7.42701C15.3517 6.49237 16.7169 6.04274 18.0942 6.07593C18.8076 6.09315 19.5185 6.22935 20.1922 6.46262C20.5292 6.57973 20.8555 6.73252 21.1676 6.90536C21.28 6.9675 21.3837 7.04032 21.4834 7.11764L21.5083 7.13707H21.5086C21.7763 7.2335 22.0152 7.40665 22.232 7.60924C22.6664 7.57448 23.1043 7.61362 23.5244 7.74795C24.1091 7.93519 24.6503 8.27804 25.0304 8.76493C25.4732 9.33176 25.6204 10.0193 25.5679 10.7291L25.5582 10.8497C25.5062 11.4767 25.4132 12.2831 24.8999 12.6951C24.8609 12.7264 24.8177 12.7502 24.7731 12.7646C25.1038 13.3326 25.3753 13.9632 25.5377 14.6001C26.1576 17.0326 25.681 19.5695 24.9355 21.9141C24.8743 22.1072 24.5829 22.2356 24.4345 22.0468C24.1697 21.7093 23.7849 21.4519 23.352 21.4037C23.0849 21.3739 22.8192 21.4278 22.5668 21.3063C22.4678 21.2584 22.3722 21.1801 22.3035 21.0849C21.8775 21.2468 21.4187 21.3232 20.9636 21.3044C20.2168 21.2737 19.4185 21.0145 18.9047 20.4459C18.8223 20.3546 18.8014 20.2521 18.8204 20.1598C18.8848 20.1367 18.951 20.1195 19.0191 20.1088C19.6706 20.4937 20.3888 20.751 21.1606 20.7671C21.6066 20.7765 22.0416 20.7139 22.4032 20.4348C22.4815 20.3743 22.5534 20.3074 22.62 20.2355C23.376 19.7479 23.9091 18.9198 24.1625 18.0327C24.3986 17.2055 24.3696 16.3441 24.2884 15.4956L24.2455 15.0478C24.1831 14.3906 24.1251 13.7315 24.1089 13.0715L24.1138 13.0712C24.2735 13.0609 24.2746 12.8103 24.1138 12.8207C23.6978 12.8477 23.285 12.7793 22.8703 12.8091C22.8668 12.6126 22.8527 12.4169 22.795 12.2274C22.7622 12.119 22.574 12.0977 22.5541 12.2274C22.5274 12.4008 22.5177 12.5733 22.5148 12.7476C21.8942 12.7393 21.2741 12.6869 20.6534 12.7084C20.5389 12.586 20.5025 12.3689 20.4489 12.2179C20.4411 12.1957 20.4333 12.1738 20.4252 12.1515C20.3781 12.3673 20.3114 12.5784 20.2236 12.785L20.0714 12.7856C19.2076 12.7896 18.3263 12.8155 17.4829 12.9953C17.4243 12.9502 17.3894 12.8715 17.38 12.8C17.3188 12.3348 17.2315 11.8821 17.0767 11.4388L17.0546 11.3762C17.0528 11.3711 17.0509 11.3655 17.0489 11.3598C16.9348 11.5443 16.7988 11.7163 16.6504 11.8764C16.5629 11.9708 16.4712 12.0611 16.3771 12.1488C16.2857 12.2506 16.1912 12.3508 16.0997 12.4529C16.1032 12.4714 16.1064 12.4903 16.1089 12.5095C16.1369 12.7213 16.1398 12.9361 16.1193 13.1487C16.0822 13.5332 15.9739 13.9036 15.8 14.2462L15.7945 14.2805C15.7681 14.4411 15.7306 14.6071 15.6428 14.728C15.7523 14.851 15.8367 14.9979 15.8856 15.1611C15.9291 15.3065 15.7286 15.4324 15.6246 15.3135C15.542 15.219 15.4502 15.1408 15.3493 15.0785C15.343 15.0871 15.3315 15.0914 15.3186 15.0841C15.0378 14.9279 14.5609 14.9752 14.2804 15.1223C13.9315 15.3052 13.7954 15.6806 13.8341 16.0611C13.8713 16.4246 14.0299 16.8495 14.3376 17.0358C14.4787 17.1213 14.5887 17.1285 14.7386 17.0874C14.7865 17.0744 14.8459 17.0344 14.8715 17.0145L14.8966 16.9943C14.9948 16.9164 15.0864 16.8631 15.2024 16.8611C15.3211 16.824 15.4403 16.8754 15.4857 17.0002L15.4885 17.0082C15.5097 17.0718 15.5485 17.1516 15.54 17.2487C15.5313 17.3526 15.4838 17.4472 15.4129 17.5233C15.4007 17.5364 15.3876 17.5496 15.3742 17.5618C16.5954 18.8872 16.7522 20.9525 16.126 22.6082C16.0988 22.6809 16.0697 22.7526 16.0394 22.8236C15.9348 23.0672 15.5319 22.9918 15.4807 22.7504C15.4654 22.678 15.4485 22.606 15.4301 22.5346C15.3962 22.4027 15.3574 22.272 15.3137 22.1432L15.297 22.095C15.2599 21.9886 15.2252 21.8812 15.1877 21.7747L15.184 21.7625C15.1826 21.7577 15.181 21.7522 15.1793 21.7459L15.1159 21.8846L14.9232 22.3032C14.833 22.4986 14.5465 22.3924 14.5358 22.2042L14.5356 22.1977C14.5346 22.163 14.5334 22.1285 14.5312 22.0944C14.5175 21.8386 14.4734 21.59 14.4035 21.3467L14.3782 21.3781C14.0024 21.844 13.5613 22.2806 12.9561 22.3881C12.8043 22.415 12.6326 22.256 12.7369 22.1022C12.78 22.0387 12.8215 21.9735 12.8609 21.9075C12.8268 21.8915 12.7947 21.8749 12.765 21.858C12.5354 21.7287 12.3443 21.5446 12.1862 21.3357C11.8511 20.893 11.7312 20.3357 11.7018 19.7902C11.6706 19.2138 11.7212 18.606 11.8783 18.0499C11.9464 17.8095 12.0385 17.5787 12.145 17.3548C12.1375 17.3348 12.1303 17.3148 12.1231 17.2947C12.0082 16.9735 11.9139 16.645 11.8355 16.3128C11.6775 15.6421 11.5925 14.9501 11.5822 14.261C11.5635 13.0264 11.7758 11.7721 12.2234 10.6207C12.6857 9.43343 13.3809 8.28963 14.3269 7.42701ZM13.7513 18.2212C13.6664 18.0872 13.4541 18.208 13.5329 18.3429L13.5358 18.3477C13.6704 18.5603 13.7335 18.802 13.811 19.0391C13.8606 19.1915 14.1021 19.1264 14.0518 18.9724L14.0351 18.9209C13.9581 18.6806 13.8877 18.4363 13.7513 18.2212ZM14.4906 15.6637L14.547 15.6364C14.7249 15.5513 14.8807 15.4933 15.0909 15.5676C15.3723 15.6668 15.6737 15.9828 15.4835 16.2893C15.4135 16.4023 15.2892 16.4474 15.1612 16.4208C14.9453 16.3759 14.8896 16.181 14.78 16.0211L14.7612 15.994C14.6944 15.8972 14.6099 15.7633 14.4987 15.7254C14.4734 15.7166 14.4628 15.6772 14.4906 15.6637ZM14.6492 9.15542L14.6674 9.1391C14.7882 9.03202 14.6108 8.85542 14.4906 8.96188C13.9403 9.44939 13.7491 10.2124 13.4637 10.8628C13.3996 11.009 13.6148 11.1368 13.6795 10.9893C13.9518 10.3687 14.1325 9.62636 14.6492 9.15542ZM21.2625 8.94215C21.1187 8.87719 20.9929 9.08698 21.1312 9.15605L21.1363 9.15851C21.6223 9.37863 21.8291 9.8771 22.0271 10.3399C22.0902 10.4877 22.3054 10.3602 22.2429 10.2137L22.2072 10.1307C22.0006 9.65375 21.7596 9.16763 21.2625 8.94215ZM22.0243 8.64094C21.8719 8.58802 21.8066 8.82975 21.9578 8.88266C22.3697 9.02638 22.6524 9.33636 22.8907 9.6908C22.98 9.82356 23.1965 9.69832 23.1062 9.56431C22.8295 9.15288 22.5009 8.80752 22.0243 8.64094Z" fill="black"/>
<path fill-rule="evenodd" clip-rule="evenodd" d="M21.2085 19.0034C20.9981 18.9175 20.8103 18.7743 20.6731 18.5913C20.6254 18.5277 20.613 18.4606 20.623 18.3991C20.6343 18.33 20.6751 18.2674 20.7308 18.2254C20.7867 18.1833 20.8566 18.1625 20.9242 18.1731C20.9829 18.1823 21.0414 18.2145 21.0876 18.2812L21.0973 18.2946C21.1789 18.405 21.2852 18.4956 21.4064 18.554C21.5232 18.6103 21.6538 18.6366 21.7889 18.6213C22.0463 18.5922 22.2237 18.4529 22.4123 18.2638C22.4357 18.24 22.459 18.2153 22.4825 18.1903C22.4974 18.1676 22.518 18.153 22.5408 18.1454C22.5662 18.1369 22.595 18.1374 22.6213 18.1466C22.6466 18.1554 22.6693 18.1722 22.6845 18.1946C22.699 18.2158 22.7072 18.242 22.7045 18.2722C22.6873 18.4682 22.5849 18.6431 22.4394 18.7804C22.2778 18.933 22.0636 19.0385 21.862 19.0755C21.6398 19.1163 21.4134 19.087 21.2085 19.0034ZM21.9668 15.98C22.2031 16.1237 22.5632 16.4588 22.309 16.8151C22.0097 17.1293 21.5788 16.7691 21.3664 16.6062C21.1695 16.4799 20.9483 16.8047 21.131 16.9521C22.6654 18.0885 23.2881 16.0176 22.0863 15.811C21.954 15.7883 21.9048 15.9355 21.9668 15.98ZM19.2171 14.658C19.2432 14.3338 19.7369 14.2601 19.786 14.581C19.83 14.8684 19.7782 15.1325 19.6488 15.3913C19.5251 15.6385 19.2143 15.5232 19.1908 15.298C19.1593 14.9963 19.2009 14.8597 19.2171 14.658ZM22.975 14.5145C23.0438 14.4243 23.1432 14.3627 23.2622 14.3975C23.6342 14.5063 23.5246 15.0346 23.3939 15.2917C23.323 15.4314 23.0935 15.4668 22.9898 15.3438C22.8208 15.1433 22.7399 14.7429 22.9547 14.5454C22.9605 14.5352 22.967 14.5249 22.975 14.5145ZM19.6435 13.2391L19.7023 13.2288C19.8841 13.1974 20.1101 13.1672 20.2387 13.3134C20.3069 13.3909 20.3304 13.535 20.2387 13.6092C20.0774 13.7398 19.8992 13.6892 19.7059 13.7002C19.5467 13.7094 19.3936 13.7357 19.2402 13.7796C18.9037 13.8758 18.6295 14.0515 18.3421 14.2443C18.3044 14.2696 18.2659 14.2214 18.2839 14.1861C18.4498 13.861 18.7713 13.5939 19.0934 13.4312C19.2653 13.3443 19.4534 13.2722 19.6435 13.2391ZM22.6359 13.0935L22.6809 13.1027C23.1703 13.2051 23.8062 13.4095 24.0379 13.8904C24.0468 13.9584 24.0374 13.973 24.0298 13.9825L24.0273 13.9857C24.0211 13.9938 24.0161 14.005 23.9866 14.0143C23.9784 14.0123 23.9702 14.0103 23.9618 14.0081C23.8556 13.9802 23.7715 13.9419 23.6902 13.902L23.6019 13.8586C23.4996 13.8083 23.3963 13.76 23.2869 13.7242C23.0533 13.648 22.8131 13.5943 22.5691 13.5657C22.5162 13.5595 22.4653 13.5416 22.4252 13.511C22.387 13.482 22.3579 13.4418 22.3446 13.3883C22.3274 13.3192 22.3324 13.2668 22.3695 13.2044C22.3973 13.1575 22.4373 13.1251 22.4831 13.1064C22.5298 13.0874 22.583 13.0829 22.6359 13.0935Z" fill="black"/>
<path fill-rule="evenodd" clip-rule="evenodd" d="M24.6048 16.2605C24.3941 16.5438 24.0034 16.634 23.643 16.6028C22.8659 16.528 22.6213 15.645 22.5958 14.9587C23.1169 15.1053 22.5517 14.0666 24.3332 13.9524C24.9612 13.9 24.7881 14.2795 25.0655 14.5567C25.0598 15.1385 24.963 15.7707 24.6048 16.2605ZM20.903 15.592C20.4442 17.7416 17.9316 17.2303 17.6676 15.2926C17.9114 15.1205 17.8472 14.6955 18.15 14.5416C18.6298 14.2349 19.2297 14.248 19.7746 14.2552C20.4712 14.3031 20.6697 14.5917 21.0275 14.9066C21.0103 15.117 20.9607 15.3663 20.903 15.592ZM25.6001 13.5964C25.5744 13.5921 25.5486 13.588 25.5228 13.5843C25.5027 13.5728 25.479 13.564 25.4515 13.5587C25.3888 13.5428 25.3265 13.5321 25.2643 13.5263C24.3712 13.3252 22.3053 13.6107 22.22 14.373C21.9356 14.468 21.6896 14.383 21.36 14.3914C21.1091 13.3423 16.7716 13.4904 16.563 14.1229C16.5622 14.1227 16.5614 14.1225 16.5606 14.1222C16.3602 14.0602 16.0647 14.0751 15.8352 14.0653C15.3454 14.055 14.855 14.0987 14.3757 14.2021C13.4782 14.3448 12.2533 14.5118 12.8775 15.633C12.8776 15.6332 12.8777 15.6334 12.8779 15.6336L12.878 15.6335C12.9855 15.7438 13.1681 15.655 13.1749 15.5057C12.965 14.9745 13.439 14.9107 13.8037 14.7581C14.7112 14.4319 15.6351 14.3867 16.5736 14.4876C16.6442 14.5708 16.7513 14.6433 16.8646 14.6812C17.4921 14.7854 17.1614 15.2511 17.558 15.3188C17.4852 16.9421 19.4551 17.8281 20.5966 16.7611C21.0523 16.3153 21.161 15.655 21.2666 15.0598C21.3225 15.0472 21.358 15.0167 21.3788 14.9762C21.5131 14.842 21.5976 14.7181 21.8633 14.6812C22.129 14.6444 22.3335 14.7183 22.3612 14.741C22.3681 14.755 22.3756 14.7691 22.3843 14.7832C22.3965 14.8042 22.413 14.821 22.4318 14.8342C22.1694 16.4506 23.4238 17.4728 24.6901 16.6345C25.2403 16.1167 25.3566 15.3239 25.3796 14.6164C25.4541 14.5713 25.5014 14.4841 25.4756 14.3744C25.44 14.2231 25.5234 14.0922 25.6563 14.0264C25.829 13.941 25.7984 13.6292 25.6001 13.5964Z" fill="black"/>
</svg>
