<svg width="36" height="48" viewBox="0 0 36 48" fill="none" xmlns="http://www.w3.org/2000/svg">
<path fill-rule="evenodd" clip-rule="evenodd" d="M25.2562 26.8324C24.9844 26.7355 24.7225 26.6235 24.4838 26.4588C23.7957 25.9465 23.3471 25.1755 22.9232 24.4449C22.3261 23.3825 21.9007 22.2503 21.6066 21.0692C21.4803 20.5618 21.4374 19.9735 21.1503 19.5236C20.4995 18.5816 18.5913 18.7037 17.578 18.869C16.8994 18.9891 16.7592 19.7488 16.605 20.3109C16.4767 20.778 16.3927 21.2504 16.3222 21.729C16.1544 21.8394 15.965 21.929 15.7845 22.007C13.8171 22.6106 13.4713 23.7294 12.7198 25.4578C11.4506 27.9698 8.00666 28.9534 7.48645 31.9264C7.15127 33.8891 8.10441 35.7356 9.0871 37.3673C10.0023 39.1496 11.2799 40.005 13.3146 39.5839C15.2231 39.1556 17.0572 38.4392 18.9321 37.8856C19.8402 37.6622 20.7468 37.0813 21.702 37.2839C23.6702 37.7261 25.6925 37.934 27.7096 37.8766C30.5416 37.9911 30.5412 35.2719 30.2505 33.1662C30.0469 29.8891 28.3946 27.7849 25.2562 26.8324Z" fill="#D08B5B"/>
<path fill-rule="evenodd" clip-rule="evenodd" d="M25.445 31.575C25.6817 31.7315 25.8807 31.9689 26.0405 32.2187C25.3734 32.1493 24.7075 32.0692 24.0431 31.9781C24.1301 31.9225 24.2179 31.8681 24.3077 31.8168C24.6353 31.6321 25.0792 31.333 25.445 31.575ZM14.3625 33.5475C14.2403 33.4996 14.193 33.3132 14.1454 33.2063C13.996 32.8712 13.8597 32.5304 13.7179 32.192C14.2564 32.0385 14.78 31.8681 15.3378 31.7862C15.9376 31.6983 16.5462 31.677 17.1516 31.6968C18.3777 31.7368 19.5924 31.9373 20.7978 32.1522C22.0019 32.3669 23.2058 32.5732 24.4183 32.7351C25.6062 32.8937 26.7978 33.0097 27.9917 33.1116C28.2236 33.1314 28.6104 33.2149 28.7969 33.0323C28.9446 32.8876 28.9494 32.6209 28.7646 32.5033C28.6495 32.43 28.4827 32.429 28.3512 32.4121C28.1855 32.3907 28.0193 32.3766 27.8526 32.3655C27.7847 32.361 27.7168 32.3569 27.6489 32.3528C28.1941 32.1471 28.7634 32.035 29.3544 32.0663C29.3878 32.2694 29.5384 32.4783 29.6208 32.6459C29.7647 32.9383 29.8769 33.2343 29.9506 33.5523C30.1045 34.217 30.1112 34.9068 30.0677 35.5847C30.0278 36.15 29.942 36.7752 29.4988 37.1755C29.1632 37.4786 28.6898 37.5908 28.2506 37.6261C27.7401 37.6671 27.2217 37.6233 26.7155 37.5549C26.0055 37.4588 25.2922 37.3318 24.5962 37.1616C23.2481 36.832 21.956 36.3075 20.7639 35.5963C20.1825 35.2495 19.6277 34.8594 19.0384 34.5258C18.4378 34.1858 17.7988 33.9221 17.1279 33.7583C16.377 33.5751 15.592 33.4969 14.8202 33.5421C14.6863 33.5499 14.4928 33.5985 14.3625 33.5475ZM13.4924 33.2072C13.5713 33.4634 13.6316 33.7558 13.8001 33.9711C13.9669 34.1844 14.2186 34.2596 14.4793 34.2786C14.7937 34.3014 15.1117 34.2868 15.4268 34.2985C16.0729 34.3225 16.7102 34.4275 17.328 34.6201C17.9036 34.7996 18.438 35.0796 18.9527 35.3902C19.4287 35.6775 19.8907 35.9859 20.3669 36.2722C20.2402 36.3303 20.1149 36.3932 19.9889 36.4479C19.7247 36.5627 19.4588 36.6735 19.1918 36.7815C18.6652 36.9944 18.1363 37.2021 17.6021 37.3951C16.5249 37.7843 15.4299 38.1243 14.3218 38.4139C13.7932 38.5521 13.2572 38.7134 12.7081 38.7364C12.2213 38.7568 11.7703 38.6191 11.3776 38.3295C10.5631 37.7288 9.91515 36.8618 9.39134 36.0066C9.08013 35.4985 8.80855 34.9647 8.58392 34.4127C8.4703 34.1335 8.36727 33.8501 8.27453 33.5634C8.23102 33.4287 8.18977 33.2933 8.15071 33.1573C8.13353 33.0975 8.11706 33.0375 8.10076 32.9775C8.93359 32.7232 9.77631 32.4937 10.6388 32.3663C11.0993 32.2983 11.566 32.2638 12.0315 32.2688C12.2626 32.2713 12.4935 32.2838 12.7234 32.3077C12.8471 32.3205 12.9703 32.337 13.093 32.3575C13.1437 32.3659 13.1958 32.3784 13.2481 32.3876C13.328 32.6613 13.4085 32.9347 13.4924 33.2072ZM30.7081 32.119C30.753 32.0282 30.7719 31.9388 30.788 31.8399C30.8003 31.7645 30.8328 31.6583 30.8043 31.5604C30.7724 31.4507 30.6854 31.3526 30.6229 31.2591C30.554 31.1557 30.4851 31.0522 30.4163 30.9487C30.2787 30.7417 30.1414 30.5345 30.0043 30.3272C29.4444 29.4805 28.8884 28.6314 28.3315 27.7828C27.8373 27.0297 27.3514 26.2699 26.8422 25.5269C26.4067 24.8916 25.9321 24.2668 25.336 23.7727C24.5824 23.148 23.6849 22.8537 22.7476 22.6241C22.6452 22.5178 22.5085 22.4597 22.3623 22.4715C22.1558 22.2372 21.9916 22.0735 21.9172 21.7756C21.8816 21.6329 21.8928 21.2319 21.7538 21.1474C21.5888 21.0471 21.5026 21.1799 21.4571 21.3295C21.3048 21.8302 21.4796 22.5033 21.8818 23.0048C21.7123 23.5907 21.4877 24.4233 21.0869 24.8927C20.6577 25.3952 20.0642 25.5517 19.4238 25.562C18.2026 25.5816 16.9827 25.1276 16.0512 24.3407C15.768 24.1015 15.5051 23.8344 15.2672 23.5503C15.0888 23.3372 14.8777 23.0083 14.7381 22.7596C14.7381 22.6628 14.6238 22.5614 15.7879 22.4832C16.952 22.4049 17.0403 20.8103 17.0661 20.5933C17.0872 20.4171 17.1766 20.1435 17.0525 19.9999C16.9998 19.9388 16.8917 19.929 16.8249 19.9705C16.699 20.0487 16.6576 20.2488 16.618 20.3846C16.5625 20.575 16.3812 21.7563 16.0377 21.893C15.8768 21.957 15.6923 21.9582 15.5222 21.9701C15.3121 21.9848 15.1015 21.9955 14.8923 22.02C14.8151 22.029 14.7309 22.054 14.6547 22.0547C14.6052 22.0551 14.5541 22.0311 14.5062 22.0142C14.3446 21.957 14.1831 21.9999 14.0166 22.0223C12.5444 22.2202 11.0285 22.6719 9.77284 23.4847C8.66605 24.2011 7.8863 25.2314 7.37177 26.436C6.8468 27.6654 6.54589 28.9947 6.29371 30.3034C6.20924 30.7419 6.13547 31.1824 6.07209 31.6244C6.01083 32.0515 5.93421 32.4882 5.91587 32.9196C5.90861 33.0904 5.94939 33.2489 6.01215 33.4049C6.08282 33.5804 6.24986 33.6496 6.41008 33.7315C6.76179 33.9115 7.13281 34.0511 7.51506 34.1499C7.74858 34.5749 7.94511 35.0165 8.10304 35.4748C8.04445 35.5909 8.04323 35.7644 8.03196 35.8772C8.00401 36.1583 7.99206 36.4409 7.98955 36.7232C7.98451 37.2892 8.01853 37.8546 8.0452 38.4196C8.07224 38.9928 8.16213 41.254 8.17678 41.5302C8.18817 41.7447 8.17284 42.0447 8.2858 42.2352C8.45938 42.5279 8.8878 42.518 9.08623 42.2807C14.0166 43.341 23.2842 43.0216 27.0167 42.4881C27.5024 42.4187 27.3499 42.4957 27.4734 42.373C27.566 42.2808 27.6449 42.123 27.6706 41.9961C27.7048 41.8268 27.6495 41.6736 27.5526 41.5365C27.4507 41.3925 27.4322 41.1592 27.3943 40.988C27.3049 40.5831 27.2604 38.8049 27.2186 38.6079C27.2055 38.5465 27.1929 38.4816 27.1777 38.4166C27.8624 38.4815 28.5758 38.4815 29.2271 38.2524C29.5965 38.1225 29.941 37.9185 30.2061 37.6271C30.5272 37.2743 30.7058 36.8302 30.7977 36.3667C30.9162 35.7689 30.9414 35.1497 30.9181 34.5421C30.8857 33.8239 30.7667 33.0956 30.4711 32.4363C30.5684 32.3459 30.6499 32.2369 30.7081 32.119Z" fill="black"/>
<path fill-rule="evenodd" clip-rule="evenodd" d="M24.0495 11.0743C23.0196 9.61188 20.4316 9.44714 18.796 9.45641C15.5658 9.42944 14.8895 13.1516 14.7208 15.7598C14.3763 15.8185 14.0412 15.9389 13.8139 16.2104C13.537 16.5409 13.4414 17.1082 13.701 17.4779C13.8733 17.7233 14.1455 17.8054 14.4303 17.819C15.3732 17.7288 15.5666 18.5714 16.031 19.2032C17.2227 20.8172 19.2872 21.3407 21.1807 21.3488C21.8238 21.3659 22.5986 21.4143 23.0105 20.8077C24.3114 18.5471 24.3397 15.549 24.4199 12.9873C24.4309 12.3315 24.4281 11.6372 24.0495 11.0743Z" fill="#D08B5B"/>
<path fill-rule="evenodd" clip-rule="evenodd" d="M26.2726 12.3422C26.2856 12.3669 26.2953 12.3944 26.3006 12.4242C26.3176 12.5189 26.2828 12.5913 26.2371 12.6617C26.2431 12.7107 26.2464 12.7582 26.249 12.8C26.2636 13.0347 26.2099 13.3565 26.0035 13.4523L25.9936 13.4639C25.9777 13.4899 25.9534 13.5123 25.9214 13.5287C25.9135 13.5343 25.9054 13.5395 25.8973 13.5441C25.8952 13.5459 25.893 13.5475 25.8907 13.5491C25.889 13.5503 25.8874 13.5515 25.8858 13.5528C25.8883 13.5502 25.8907 13.5475 25.8931 13.5448C25.8949 13.5428 25.8967 13.5409 25.8985 13.5389C25.7843 13.5846 25.674 13.594 25.5563 13.5801C25.4836 13.6065 25.4106 13.6262 25.3491 13.6414C25.157 13.689 24.9092 13.7271 24.722 13.646C24.6674 13.6224 24.6222 13.5911 24.5881 13.5538C24.591 13.6991 24.5952 13.8443 24.6015 13.9896C24.6143 14.3569 24.6137 14.7239 24.6108 15.0915C24.6077 15.5051 24.5962 15.919 24.574 16.3323C24.5637 16.5399 24.5471 16.7472 24.525 16.9538C24.5062 17.1552 24.4844 17.3562 24.4591 17.5566C24.3994 17.9686 24.301 18.3838 24.1811 18.7821C24.1289 18.9549 24.0718 19.13 24.0068 19.3009C23.9793 19.3795 23.9503 19.4572 23.9187 19.5342C23.7523 19.9378 23.5449 20.3273 23.2647 20.6636C23.1117 20.8471 22.9427 21.0121 22.7541 21.1508C22.6026 21.2691 22.4386 21.3693 22.2584 21.4482C21.8711 21.618 21.4388 21.6562 21.02 21.6499C20.8602 21.6477 20.6909 21.6194 20.5325 21.593L20.5228 21.5913C20.3991 21.571 20.2738 21.5437 20.1499 21.5118C20.0399 21.4861 19.9312 21.4564 19.8241 21.4216C19.6951 21.3875 19.5714 21.3383 19.4537 21.2748L19.245 21.1962C19.1579 21.1633 19.0733 21.1242 18.9911 21.0794L18.7644 20.9733C18.6704 20.9279 18.5788 20.8781 18.4895 20.8233C18.4801 20.8183 18.4695 20.8098 18.4655 20.8004C18.4558 20.7951 18.4461 20.7898 18.4364 20.7845C18.4228 20.7772 18.4093 20.7699 18.3958 20.7622C18.3921 20.7603 18.3949 20.7494 18.3999 20.7387C18.3958 20.7303 18.3964 20.7209 18.4077 20.7124C18.4161 20.7059 18.4295 20.7077 18.4436 20.7121C18.4424 20.7112 18.4414 20.7102 18.4405 20.7093L18.4405 20.7093C18.4355 20.7066 18.4306 20.704 18.4257 20.7013C18.4152 20.6957 18.4047 20.69 18.3943 20.6843C18.3786 20.6758 18.3761 20.6539 18.3908 20.6423C18.3949 20.6392 18.3996 20.6376 18.4042 20.6373L18.4033 20.637C18.4005 20.6351 18.4027 20.6263 18.4067 20.6166C18.3989 20.6066 18.3964 20.5944 18.4102 20.5837C18.429 20.5689 18.4713 20.5932 18.491 20.6045C18.4925 20.6054 18.4939 20.6062 18.4951 20.6069C18.5074 20.6137 18.5198 20.6203 18.5321 20.6269C18.5396 20.6309 18.5471 20.6348 18.5545 20.6388C18.5557 20.636 18.5582 20.6335 18.5623 20.631C18.5332 20.6157 18.5045 20.6 18.4758 20.5844C18.458 20.575 18.4349 20.5552 18.4583 20.5368C18.477 20.5217 18.5254 20.5474 18.5485 20.5606C18.5514 20.5584 18.5545 20.5574 18.5582 20.5568C18.5542 20.5545 18.5501 20.5523 18.5459 20.5501C18.5398 20.5468 18.5336 20.5435 18.5276 20.5399C18.4995 20.5243 18.5186 20.4754 18.5476 20.4917L18.5579 20.4979C18.5778 20.4962 18.6053 20.5116 18.6195 20.5196L18.6216 20.5208C18.7194 20.5825 18.8212 20.6363 18.9268 20.6827C18.998 20.7165 19.0695 20.75 19.1413 20.7826C19.2119 20.8176 19.2847 20.848 19.3594 20.8737C19.5471 20.947 19.7366 21.0152 19.9281 21.0785C20.1964 21.152 20.4741 21.2112 20.7527 21.2344C20.7889 21.2372 20.8251 21.2397 20.8613 21.241C20.901 21.2406 20.9407 21.2404 20.9803 21.2402C21.0199 21.2399 21.0595 21.2397 21.099 21.2394C21.2388 21.2249 21.3785 21.2107 21.518 21.1965L21.5606 21.1921C21.6144 21.1846 21.6668 21.1752 21.7187 21.1643C21.7459 21.1577 21.773 21.1508 21.7999 21.143C21.8046 21.1423 21.8093 21.1415 21.814 21.1407C21.8187 21.1399 21.8233 21.139 21.828 21.1383C21.8939 21.1207 21.9586 21.0998 22.0232 21.0753C22.0638 21.0587 22.1041 21.0412 22.1441 21.0227C22.2762 20.961 22.4061 20.8796 22.5286 20.7863L22.9886 20.3273L23.1288 20.1357C23.31 19.8761 23.4534 19.5868 23.5724 19.2915L23.7616 18.7448C23.7813 18.6791 23.8 18.6133 23.8178 18.5473L23.9256 18.1042C23.9375 18.05 23.949 17.9962 23.9603 17.9423C24.0293 17.607 24.0674 17.2666 24.1002 16.9263C24.1602 16.307 24.1764 15.6857 24.1808 15.0639C24.1836 14.6922 24.1805 14.3206 24.173 13.9492C24.1686 13.7338 24.1655 13.5184 24.1623 13.303C24.1583 13.0744 24.1539 12.8455 24.148 12.6169C24.1477 12.6119 24.1495 12.6075 24.152 12.6038C24.1514 12.5769 24.1511 12.5499 24.1508 12.5227C24.1505 12.5048 24.1573 12.497 24.1673 12.4954C24.1655 12.3323 24.1642 12.1695 24.1639 12.0067C24.1639 11.996 24.1689 11.9891 24.1755 11.9851V11.9437C24.1483 11.8304 24.1114 11.7192 24.0636 11.6134C24.0474 11.5752 24.0293 11.5379 24.0093 11.5016C23.9846 11.4471 23.9525 11.3977 23.9131 11.3523C23.8803 11.2969 23.84 11.2477 23.7932 11.2039L23.7357 11.1625C23.7198 11.1541 23.6963 11.1394 23.6757 11.1224C23.6572 11.111 23.6387 11.0995 23.6202 11.088C23.6017 11.0765 23.5831 11.065 23.5645 11.0536C23.543 11.0423 23.557 11.0141 23.5724 11.0066V11.0057C23.5689 11.0041 23.5652 11.0022 23.5611 10.9988C23.5161 10.9562 23.4693 10.9161 23.4206 10.8785C23.4118 10.882 23.4015 10.8807 23.3937 10.8742C23.365 10.8472 23.3356 10.8212 23.3056 10.7962C23.2385 10.752 23.1682 10.7116 23.0948 10.676C22.9771 10.6202 22.8565 10.5723 22.7328 10.5316C22.7088 10.5237 22.6846 10.5165 22.6605 10.5094L22.6526 10.507C22.638 10.5063 22.6234 10.5056 22.6088 10.5049C22.5854 10.5037 22.562 10.5025 22.5385 10.5015C21.1233 10.4392 19.7043 10.4654 18.2923 10.5796C17.9444 10.6077 17.597 10.6413 17.2501 10.6801C17.1847 10.6874 17.1166 10.6932 17.047 10.699C16.7921 10.7203 16.519 10.7432 16.2985 10.8533C16.2867 10.8592 16.2754 10.8655 16.2643 10.872C16.2833 10.9942 16.329 11.1138 16.3733 11.23C16.3801 11.2477 16.3868 11.2653 16.3934 11.2828C16.4703 11.4874 16.5392 11.696 16.5324 11.9177C16.5276 12.0722 16.4944 12.2208 16.4467 12.366C16.4222 12.5731 16.3579 12.7731 16.2895 12.9696C15.9533 13.9363 15.7702 14.926 15.789 15.9522C15.7895 15.9797 15.7832 16.0036 15.7723 16.0241L15.7729 16.0281C15.7788 16.0716 15.7848 16.1152 15.7918 16.1586C15.8199 16.3315 15.5924 16.4175 15.5139 16.3029C15.5087 16.3081 15.5013 16.3117 15.4946 16.3123C15.4746 16.3142 15.4418 16.2813 15.4324 16.2662C15.4203 16.2437 15.4075 16.2218 15.3937 16.2008C15.3918 16.1999 15.3903 16.1992 15.3887 16.1986L15.414 16.2509C15.4278 16.2785 15.375 16.2919 15.3594 16.2666C15.3453 16.2443 15.3312 16.223 15.3172 16.2027C15.3091 16.2086 15.3 16.2102 15.2941 16.2005C15.2438 16.1172 15.1857 16.0458 15.122 15.9851C15.0217 15.903 14.9121 15.8533 14.7875 15.8241C14.6894 15.81 14.5888 15.8094 14.4917 15.8207C14.3802 15.8338 14.2628 15.8617 14.1619 15.9127C14.0797 15.9694 13.9973 16.0261 13.9148 16.0828C13.8945 16.1041 13.8752 16.1263 13.8571 16.1495C13.7999 16.2237 13.754 16.3029 13.7162 16.3871L13.7115 16.4028C13.6884 16.4735 13.6734 16.5462 13.6668 16.6207C13.6664 16.6678 13.666 16.7149 13.6656 16.7619C13.6652 16.8089 13.6648 16.856 13.6643 16.9031C13.6768 17.0255 13.7081 17.1445 13.7559 17.2576C13.7783 17.3243 13.8136 17.3837 13.8614 17.4363C13.887 17.4808 13.9161 17.5212 13.9486 17.5588C14.0145 17.6026 14.0863 17.6399 14.1628 17.6693C14.1816 17.6743 14.2003 17.6793 14.2194 17.6831C14.3177 17.721 14.4196 17.7413 14.5248 17.7441C14.6579 17.7532 14.7881 17.7416 14.9155 17.7094C14.9942 17.6953 15.0705 17.6724 15.1442 17.6408C15.2147 17.6051 15.2813 17.5622 15.3434 17.5121C15.3503 17.5077 15.3606 17.5102 15.3719 17.5159C15.3742 17.5141 15.3766 17.5124 15.379 17.5107C15.3904 17.5024 15.4017 17.4942 15.4128 17.4852C15.419 17.4808 15.4246 17.4861 15.4274 17.4918L15.4312 17.4889C15.4559 17.472 15.5236 17.525 15.493 17.5563C15.5062 17.5644 15.5193 17.5741 15.5311 17.5841C15.5855 17.5863 15.6951 17.6865 15.6745 17.7022C15.6439 17.7288 15.6117 17.7532 15.5789 17.7764C15.608 17.798 15.6461 17.8315 15.6283 17.845C15.5964 17.8753 15.5617 17.9016 15.5249 17.9242C15.4999 17.9433 15.4743 17.9614 15.4474 17.978C15.4184 17.9952 15.3887 18.01 15.3581 18.0237C15.4115 18.1274 15.4624 18.232 15.5099 18.3384C15.5414 18.4139 15.578 18.4868 15.6202 18.557C15.6739 18.6637 15.7382 18.7639 15.8135 18.8572C15.8747 18.9606 15.9465 19.0554 16.0287 19.1422C16.1302 19.258 16.2392 19.367 16.3551 19.4678C16.4013 19.5007 16.4484 19.5326 16.4975 19.5621C16.6227 19.6566 16.7561 19.7377 16.8976 19.8053C16.9141 19.8144 16.9272 19.8345 16.9079 19.8501C16.9073 19.8504 16.9066 19.8504 16.906 19.8511C16.9522 19.8774 16.9988 19.9034 17.0456 19.929L17.0472 19.9299C17.0661 19.9401 17.1011 19.9591 17.0737 19.9813C17.0556 19.9963 16.9997 19.9694 16.9663 19.9519L16.981 19.96C16.9814 19.9603 16.982 19.9606 16.9827 19.961C16.9965 19.9684 17.0489 19.9966 17.0141 20.0148C16.9956 20.0179 16.9782 20.0148 16.9613 20.0057C16.9438 19.9992 16.9263 19.992 16.9091 19.9844C16.9098 19.9901 16.9066 19.9954 16.8976 19.9998C16.8904 20.001 16.8835 20.001 16.8767 20.0004C16.9148 20.022 16.9529 20.0433 16.9913 20.0643C17.0025 20.0702 17.0556 20.0997 17.0206 20.1178C17.0035 20.1213 16.9869 20.1185 16.971 20.1097C16.9419 20.0987 16.9132 20.0859 16.8854 20.0718L16.8657 20.0608C16.8607 20.0608 16.8557 20.0602 16.8507 20.0593C16.8813 20.0759 16.9123 20.0918 16.9435 20.1075C16.9619 20.1175 16.9928 20.1379 16.9663 20.1585C16.9479 20.1726 16.8982 20.1473 16.8688 20.1307C16.867 20.1329 16.8648 20.1354 16.8617 20.1379C16.8425 20.1524 16.797 20.1261 16.774 20.1128C16.7708 20.1109 16.768 20.1093 16.7658 20.1081C16.6109 20.0248 16.4613 19.9387 16.3173 19.8401C16.2292 19.7834 16.1433 19.7239 16.0593 19.6591C15.8984 19.5345 15.7523 19.3895 15.6183 19.2367C15.5268 19.1322 15.4771 19.0733 15.3884 18.9465C15.246 18.7423 15.1385 18.5294 15.0352 18.3037C15.0336 18.3002 15.0367 18.2915 15.0414 18.2827C15.0202 18.2304 14.9996 18.1775 14.9789 18.1227C14.9252 18.1299 14.8712 18.1349 14.8178 18.138C14.6919 18.1452 14.5698 18.134 14.4514 18.108C14.3081 18.0895 14.1663 18.0488 14.0407 17.9849C13.9654 17.947 13.893 17.9066 13.8243 17.8616C13.7627 17.8287 13.7034 17.7911 13.6465 17.7473C13.4045 17.5619 13.273 17.2742 13.2408 16.9754C13.2162 16.8439 13.2108 16.7087 13.2255 16.5781C13.2361 16.4832 13.2574 16.3893 13.2883 16.2988C13.3455 16.0981 13.452 15.9124 13.6063 15.7718C13.6322 15.7452 13.6594 15.7199 13.6884 15.6961C13.7743 15.6256 13.8717 15.5689 13.9754 15.5276C13.9954 15.5179 14.0157 15.5088 14.036 15.5004L14.0113 15.4434C14.0026 15.4459 13.9723 15.4409 13.9686 15.4302C13.9624 15.4135 13.9565 15.3966 13.9506 15.3797C13.9469 15.369 13.9432 15.3584 13.9395 15.3479C13.9339 15.3513 13.9267 15.3532 13.9189 15.3535V15.3852C13.9192 15.3942 13.902 15.4506 13.8927 15.4212C13.8867 15.4047 13.8812 15.388 13.8756 15.3713C13.8721 15.3607 13.8685 15.35 13.8649 15.3394C13.8571 15.3344 13.8511 15.3285 13.8489 15.3216L13.8489 15.3216C13.848 15.3188 13.8471 15.3159 13.8458 15.3131C13.8455 15.313 13.8451 15.3129 13.8447 15.3128C13.8443 15.3127 13.8439 15.3127 13.8436 15.3125V15.3222C13.8439 15.3282 13.8283 15.3733 13.8255 15.3645C13.7715 15.2154 13.7274 15.0633 13.6931 14.9086C13.6697 14.8234 13.6512 14.7373 13.6372 14.65C13.6219 14.5714 13.6084 14.4925 13.5969 14.4129L13.5941 14.3932L13.5931 14.3888L13.5929 14.3865C13.592 14.3788 13.5912 14.3708 13.59 14.3632C13.5775 14.2733 13.5672 14.1831 13.5594 14.0923C13.5429 13.9057 13.5363 13.7181 13.5382 13.5309C13.5356 13.5319 13.5332 13.5331 13.5308 13.5343C13.5293 13.5351 13.5278 13.5358 13.5263 13.5365C13.4452 13.5712 13.3594 13.5995 13.2722 13.622C13.1221 13.8394 12.8825 13.9866 12.5954 14.002C12.4982 14.0073 12.3962 13.9954 12.3018 13.9679C12.292 13.9702 12.2819 13.972 12.2714 13.9734C12.2221 13.9798 12.1824 13.9692 12.1414 13.9583C12.1183 13.9522 12.0949 13.9459 12.0691 13.9425C12.0597 13.9412 12.0505 13.94 12.0414 13.9389C11.9382 13.9256 11.8502 13.9142 11.7818 13.8526C11.7587 13.8532 11.7367 13.8498 11.7159 13.8435C11.5182 13.891 11.3083 13.7863 11.2388 13.5669C11.1202 13.4973 11.0258 13.394 10.9623 13.2741C10.84 13.1169 10.7422 12.9242 10.6815 12.7217L10.6787 12.716C10.6479 12.6491 10.6333 12.5774 10.632 12.5054C10.5993 12.3005 10.6079 12.0953 10.6701 11.9149C10.6675 11.8171 10.6904 11.7152 10.7324 11.6227C10.7833 11.5106 10.8609 11.3817 10.9616 11.3069C10.9618 11.192 11.0111 11.0655 11.0756 10.9798C11.2044 10.8085 11.3913 10.718 11.5935 10.7049C11.6963 10.4407 12.0079 10.379 12.2766 10.4669C12.3882 10.3526 12.5517 10.298 12.7149 10.3174C12.8529 10.3338 12.9708 10.4 13.0685 10.4912C13.0942 10.4985 13.1198 10.5062 13.1454 10.5142C13.2309 10.4766 13.3307 10.4681 13.4219 10.4917C13.58 10.5325 13.6832 10.6526 13.7545 10.7904C13.7773 10.8061 13.7996 10.8223 13.8213 10.8393C13.8451 10.85 13.8667 10.8643 13.8864 10.8811C13.9149 10.8964 13.9392 10.9215 13.9539 10.9578C13.9942 10.9995 14.0317 11.0435 14.0649 11.0908C14.0897 11.0332 14.1153 10.976 14.1418 10.9193C14.1848 10.9323 14.2369 10.9155 14.2586 10.8578L14.2641 10.8431C14.4026 10.4745 14.6493 9.81835 14.8819 9.51381C14.6068 9.70158 14.2709 9.80056 13.9373 9.7906C13.923 9.79016 13.9086 9.78957 13.8941 9.78878C13.7147 9.81978 13.5325 9.82266 13.3653 9.78903C13.2527 9.74805 13.1429 9.6992 13.0366 9.64394C13.0107 9.63047 12.9851 9.61632 12.9595 9.60204C12.9515 9.59528 12.9439 9.58795 12.9364 9.58063C12.9334 9.57774 12.9304 9.57486 12.9274 9.57201C12.9054 9.57361 12.8824 9.57189 12.8579 9.56538C12.7658 9.54099 12.6807 9.47958 12.6273 9.40068C12.6173 9.386 12.6093 9.37087 12.6022 9.35562C12.5443 9.29883 12.4941 9.23448 12.4572 9.15924C12.4138 9.07126 12.3872 8.97231 12.3844 8.87337C12.3663 8.7763 12.3676 8.67642 12.4013 8.58374C12.4037 8.57743 12.4063 8.57124 12.4089 8.56502C12.4104 8.56137 12.412 8.5577 12.4135 8.554C12.4142 8.55143 12.4149 8.54882 12.4156 8.54619C12.4165 8.5424 12.4175 8.53859 12.4188 8.5349C12.4287 8.50186 12.4412 8.47243 12.4564 8.44456C12.4621 8.41591 12.4713 8.38751 12.4844 8.35987C12.4859 8.3465 12.4877 8.33313 12.4898 8.31982C12.3906 8.13211 12.4257 7.88663 12.5743 7.73405C12.5538 7.63542 12.5747 7.53084 12.6346 7.44333C12.6785 7.37901 12.7397 7.32826 12.8089 7.29303C12.8161 7.28937 12.8352 7.28308 12.8581 7.27584C12.8837 7.25314 12.9107 7.23166 12.9403 7.21275C12.9473 7.02927 13.13 6.92343 13.2882 6.83179C13.2959 6.82737 13.3034 6.82297 13.3109 6.81861C13.3625 6.78862 13.3999 6.74554 13.4373 6.70243C13.4765 6.65717 13.5158 6.61189 13.5715 6.58171C13.669 6.52895 13.7888 6.51682 13.9012 6.50544C13.926 6.50292 13.9505 6.50045 13.9743 6.49757C14.2844 6.46012 14.6145 6.43119 14.9261 6.46504C15.0991 6.48383 15.2424 6.56758 15.3016 6.70479C15.4505 6.72242 15.5831 6.83007 15.6881 6.94078C15.819 7.07896 15.9306 7.22606 15.969 7.40763C15.9946 7.4215 16.0179 7.43847 16.0389 7.45763C16.0381 7.58532 16.0215 7.71323 15.9864 7.83374C15.9967 7.90579 15.9751 7.97458 15.9384 8.03695C15.944 8.09601 15.94 8.15415 15.9277 8.21211C15.9989 8.33876 15.9323 8.53017 15.8325 8.65576L15.8318 8.72658C15.8377 8.72348 15.8435 8.71982 15.8489 8.71522C16.1358 8.47044 16.4278 8.40296 16.7432 8.33008C16.9254 8.288 17.1153 8.24411 17.3166 8.16323C17.8125 8.06726 18.3187 8.00618 18.8267 7.98585C18.8238 7.98543 18.821 7.98505 18.8181 7.98468C18.8142 7.98417 18.8104 7.98367 18.8066 7.98304C18.5506 7.94102 18.3047 7.83547 18.0933 7.68383C18.0373 7.66961 17.9842 7.64428 17.9367 7.60192C17.8906 7.56077 17.8586 7.51331 17.8402 7.46239C17.8319 7.45341 17.8236 7.44436 17.8154 7.43515C17.6567 7.39608 17.5359 7.2584 17.5561 7.07742C17.4556 6.95816 17.4186 6.8109 17.4526 6.65757C17.3965 6.56248 17.3916 6.44259 17.4335 6.34218C17.3452 6.23472 17.3383 6.08217 17.4075 5.96059C17.3444 5.87057 17.3304 5.75127 17.4084 5.64466C17.4452 5.59431 17.4961 5.56256 17.5517 5.54722C17.5673 5.4892 17.5992 5.43531 17.6493 5.3937C17.6751 5.37231 17.7021 5.35644 17.7297 5.3446C17.74 5.2847 17.7738 5.2279 17.8387 5.18322C17.8682 5.16297 17.8984 5.14988 17.9284 5.14261C17.9568 5.07216 18.0063 5.01039 18.076 4.97028C18.1601 4.9219 18.258 4.91548 18.3472 4.94084C18.4636 4.76444 18.7191 4.69605 18.8962 4.8269C19.0437 4.73541 19.2292 4.7547 19.3618 4.86595C19.522 4.77098 19.7211 4.80931 19.8468 4.94172C20.0482 4.83138 20.3141 4.91288 20.4219 5.12195C20.6252 5.09934 20.8167 5.23273 20.8709 5.42579C20.8797 5.43296 20.8885 5.44034 20.8972 5.44771L20.8994 5.44965C21.0212 5.45551 21.1369 5.50335 21.2052 5.61688C21.2393 5.67359 21.255 5.74022 21.2527 5.8055C21.3255 5.84495 21.3843 5.90967 21.4095 5.99356C21.4332 6.07221 21.4242 6.15002 21.3932 6.21781C21.4946 6.32592 21.5214 6.49444 21.4495 6.63024C21.4793 6.68134 21.4947 6.74174 21.4923 6.80452C21.4887 6.89748 21.4457 6.97241 21.3872 7.03637C21.4608 7.16945 21.4321 7.34016 21.3125 7.43346C21.2438 7.67756 21.07 7.83998 20.8037 7.93961C20.6699 7.98964 20.5299 8.02819 20.3873 8.05649C20.9581 8.13349 21.5196 8.26881 22.059 8.47058C22.0884 8.48157 22.1132 8.47728 22.1323 8.46448C22.1374 8.46723 22.1427 8.46989 22.1479 8.47254C22.1546 8.47593 22.1612 8.47932 22.1678 8.48292C22.3165 8.56464 22.462 8.65325 22.6038 8.74812C22.6038 8.73247 22.6041 8.71681 22.6048 8.70084C22.602 8.572 22.6155 8.44509 22.6497 8.32276C22.605 8.26174 22.5716 8.19216 22.5534 8.12046C22.508 7.94155 22.5944 7.68696 22.7494 7.62584C22.8038 7.47473 22.9274 7.36539 23.0788 7.32237C23.0909 7.31151 23.1036 7.30095 23.1179 7.29115C23.1498 7.26917 23.1847 7.25417 23.2205 7.24547C23.2392 7.16359 23.2848 7.08823 23.3603 7.03534C23.467 6.96066 23.5932 6.95255 23.704 6.99329C23.7251 6.98618 23.7464 6.98001 23.768 6.97466C23.9464 6.82243 24.2245 6.83363 24.3815 7.01176C24.4892 6.96239 24.6162 6.96019 24.7265 7.02664C24.8148 7.0798 24.8697 7.16553 24.8912 7.25962C25.0583 7.26476 25.2112 7.37591 25.2594 7.5418C25.4133 7.55927 25.5393 7.68007 25.566 7.83212C25.6643 7.84583 25.755 7.89211 25.8102 7.98413C25.8357 8.02668 25.8495 8.07324 25.8531 8.11987C25.9028 8.14376 25.9473 8.17992 25.981 8.22717C26.0399 8.30996 26.0512 8.40661 26.0296 8.49757C26.0316 8.5017 26.0337 8.50578 26.0358 8.50986C26.0389 8.51576 26.0419 8.52166 26.0447 8.52769C26.0608 8.56189 26.0736 8.59855 26.0851 8.63578C26.1369 8.71064 26.1608 8.80217 26.1561 8.8941C26.1671 8.93299 26.1777 8.97197 26.1865 9.01114C26.2215 9.16488 26.2346 9.32863 26.2106 9.48519C26.1987 9.56096 26.1815 9.63548 26.1572 9.70781C26.1547 9.72159 26.1506 9.73443 26.1459 9.74664C26.1325 9.80362 26.1153 9.85967 26.0935 9.91446C26.041 9.98429 25.986 10.0522 25.9282 10.118C25.8795 10.1913 25.8239 10.2589 25.7612 10.3209C25.7159 10.3657 25.6662 10.4073 25.6134 10.4449C25.5086 10.5291 25.3914 10.5947 25.2663 10.6374C25.244 10.6327 25.2215 10.6291 25.199 10.6255C25.057 10.7039 24.8335 10.7127 24.6968 10.7122C24.5462 10.7116 24.4083 10.6735 24.2936 10.6015L24.3334 10.6811C24.3301 10.6831 24.3266 10.6848 24.3237 10.687C24.2989 10.6458 24.2712 10.6093 24.2386 10.583C24.1941 10.547 24.1223 10.5438 24.0915 10.602L24.0899 10.605C24.0734 10.6361 24.0757 10.6658 24.0883 10.6901L24.102 10.7101C24.1036 10.7119 24.1052 10.7139 24.1069 10.7157L24.1061 10.7158C24.1488 10.7502 24.1907 10.8345 24.2305 10.9164C24.2574 10.9643 24.2831 11.0129 24.3071 11.0623C24.3211 11.083 24.346 11.1012 24.3725 11.1065C24.3673 11.1459 24.3854 11.1867 24.4151 11.207C24.4229 11.1912 24.4324 11.175 24.4447 11.1584C24.5789 10.9756 24.8426 10.8967 25.0412 10.9802C25.0808 10.9735 25.1206 10.968 25.1608 10.9648C25.2919 10.9562 25.4248 10.9665 25.5543 10.9937C25.5945 11.0179 25.6329 11.0451 25.6687 11.0761C25.699 11.1024 25.7271 11.13 25.7533 11.1585C25.7736 11.1737 25.7936 11.1899 25.8132 11.2067C25.8926 11.2495 25.9509 11.3316 25.9999 11.4133C26.0387 11.4684 26.0727 11.5269 26.1021 11.5889C26.2382 11.8225 26.3954 12.1125 26.2726 12.3422ZM15.3512 16.8562C15.4012 16.9141 15.4402 16.9786 15.4684 17.0497C15.4796 17.0725 15.4659 17.0863 15.4427 17.0822C15.4324 17.0807 15.4184 17.0731 15.404 17.0631C15.4051 17.0658 15.4063 17.0683 15.4074 17.0708C15.4086 17.0733 15.4098 17.0758 15.4109 17.0785C15.4231 17.1026 15.4128 17.1198 15.385 17.1107C15.3834 17.1098 15.3818 17.1088 15.3806 17.1079C15.395 17.1336 15.4081 17.1599 15.4193 17.1874C15.4315 17.2118 15.4206 17.2288 15.3931 17.2194C15.3787 17.2112 15.365 17.2018 15.3519 17.1915C15.3535 17.1951 15.3551 17.1986 15.3567 17.2022C15.3611 17.2117 15.3655 17.2211 15.3693 17.2309C15.3818 17.2557 15.3675 17.2685 15.3431 17.2629C15.3222 17.2513 15.3028 17.2375 15.2847 17.2216C15.2829 17.2201 15.2811 17.2185 15.2795 17.217C15.2786 17.2162 15.2778 17.2154 15.2769 17.2147C15.285 17.235 15.2697 17.2475 15.2494 17.2435C15.2207 17.2378 15.1666 17.1893 15.1535 17.1636L15.151 17.1589C15.1357 17.1486 15.1192 17.1342 15.1067 17.1204C15.0967 17.1348 15.0773 17.1455 15.0686 17.1279C15.0423 17.0562 15.0014 16.9949 14.9455 16.9432C14.9137 16.8965 14.8749 16.8568 14.8296 16.8239C14.8053 16.8032 14.78 16.7835 14.7541 16.7647C14.7081 16.7437 14.6604 16.7278 14.6104 16.7171C14.6047 16.7154 14.599 16.714 14.5932 16.7126C14.5888 16.7116 14.5844 16.7105 14.5801 16.7093L14.5765 16.7086C14.5556 16.7048 14.5349 16.701 14.5139 16.698C14.4236 16.6855 14.333 16.6833 14.2425 16.6915C14.2262 16.6921 14.2106 16.6796 14.2037 16.6652C14.1834 16.6661 14.1634 16.667 14.1431 16.6689C14.1097 16.6702 14.1169 16.6229 14.1422 16.6182C14.1741 16.6122 14.2059 16.6079 14.2372 16.6041C14.2365 16.6013 14.2362 16.5981 14.2368 16.5956C14.1797 16.5928 14.1228 16.5941 14.0654 16.6C14.0404 16.6013 14.0701 16.5549 14.0838 16.5524C14.087 16.5518 14.0903 16.5513 14.0936 16.5508C14.0966 16.5504 14.0997 16.5499 14.1028 16.5493C14.1022 16.5484 14.1019 16.5477 14.1016 16.5468H14.1C14.0657 16.5484 14.0423 16.4936 14.0835 16.4861C14.0884 16.4852 14.0933 16.4844 14.0981 16.4836C14.1034 16.4828 14.1086 16.482 14.1138 16.481C14.1119 16.4757 14.1116 16.471 14.1135 16.4666C14.0957 16.4663 14.0782 16.4663 14.0604 16.4663C14.065 16.466 14.0691 16.4561 14.0734 16.4458C14.078 16.4347 14.0828 16.423 14.0888 16.4222L14.1163 16.4184C14.1169 16.4068 14.1344 16.3799 14.1419 16.3783C14.2012 16.3683 14.2593 16.3614 14.3168 16.3592C14.3224 16.3461 14.3305 16.3286 14.3383 16.3286C14.4036 16.3276 14.4664 16.3282 14.5289 16.3348C14.5314 16.3329 14.5339 16.332 14.536 16.3323L14.5657 16.3395C14.6004 16.3445 14.6351 16.3517 14.6704 16.3621C14.7537 16.3868 14.8371 16.4259 14.9093 16.4745C14.9774 16.5202 15.0451 16.5678 15.1045 16.6248C15.1254 16.6426 15.1451 16.662 15.1638 16.6821C15.1941 16.7071 15.2235 16.7328 15.2516 16.7581C15.286 16.7898 15.3194 16.8223 15.3512 16.8562Z" fill="black"/>
<path fill-rule="evenodd" clip-rule="evenodd" d="M21.9738 18.9793C21.7433 19.0461 21.4958 19.0521 21.2607 18.9831C21.0476 18.9205 20.8287 18.7828 20.6718 18.6005C20.5324 18.4386 20.4422 18.2419 20.4457 18.0319C20.4461 18.0079 20.4547 17.9879 20.4679 17.9723C20.4821 17.9556 20.5019 17.9441 20.5231 17.9391C20.545 17.934 20.5681 17.9358 20.5878 17.9447C20.6056 17.9528 20.6208 17.9666 20.6303 17.9867C20.6545 18.0183 20.6785 18.0496 20.7026 18.0799C20.8965 18.3194 21.0842 18.4984 21.3757 18.5625C21.5339 18.5974 21.6918 18.5819 21.8368 18.5288C21.9919 18.4719 22.1322 18.3719 22.2421 18.2439C22.2918 18.186 22.3504 18.1624 22.4077 18.162C22.4727 18.1615 22.5369 18.1918 22.5853 18.24C22.6329 18.2875 22.6647 18.352 22.6676 18.4194C22.6702 18.4786 22.6509 18.5405 22.5995 18.5956C22.4303 18.7774 22.2111 18.9105 21.9738 18.9793ZM21.9667 15.9799C22.2031 16.1236 22.5632 16.4588 22.3089 16.8151C22.0096 17.1292 21.5787 16.769 21.3664 16.6061C21.1695 16.4799 20.9483 16.8046 21.131 16.952C22.6653 18.0884 23.288 16.0175 22.0862 15.8109C21.9539 15.7882 21.9048 15.9355 21.9667 15.9799ZM19.7558 15.3475C19.6798 15.2989 19.5904 15.2823 19.4914 15.3273C19.414 15.3625 19.2783 15.4799 19.1838 15.6342C19.1192 15.7398 19.0734 15.8636 19.0829 15.9926C19.0851 16.0225 19.0741 16.0446 19.0566 16.0609C19.0428 16.0738 19.0229 16.0833 18.9995 16.0863C18.9797 16.0888 18.9575 16.0865 18.9394 16.0809C18.905 16.0702 18.8868 16.0479 18.88 16.0296C18.8138 15.8539 18.8423 15.6578 18.9164 15.4809C19.0165 15.2422 19.1982 15.0422 19.3172 14.9777C19.5209 14.8673 19.7612 14.8622 19.9651 14.9747C20.1388 15.0704 20.2473 15.2249 20.3553 15.3824C20.3783 15.4159 20.401 15.4491 20.4246 15.4818C20.4718 15.5472 20.4765 15.6121 20.4582 15.6677C20.438 15.7293 20.3863 15.7814 20.3218 15.8086C20.2621 15.8337 20.1929 15.8373 20.1316 15.8114C20.0799 15.7896 20.0324 15.747 20.0023 15.6748C19.9517 15.5531 19.8673 15.4189 19.7558 15.3475ZM23.6139 15.6182C23.5618 15.6453 23.5211 15.6535 23.4634 15.6362C23.4315 15.6266 23.4 15.6082 23.3753 15.5835C23.3508 15.559 23.3331 15.5286 23.3263 15.4948C23.3094 15.4115 23.2638 15.3334 23.1988 15.2826C23.1433 15.2391 23.0732 15.216 22.9955 15.229C22.9116 15.243 22.8316 15.2969 22.7766 15.3603C22.7582 15.3816 22.7438 15.4057 22.7293 15.4296C22.7021 15.4744 22.6758 15.5161 22.6384 15.549C22.6242 15.5615 22.6028 15.5702 22.5821 15.5702C22.5737 15.5702 22.5652 15.5688 22.557 15.5662C22.4735 15.4824 22.4575 15.4188 22.4602 15.3557C22.463 15.2896 22.4891 15.2226 22.5312 15.1601C22.63 15.0135 22.8177 14.8933 22.9443 14.8661C23.1177 14.8288 23.2899 14.8735 23.428 14.9704C23.5701 15.0701 23.6753 15.2249 23.7082 15.3994C23.7161 15.4414 23.7127 15.4867 23.6967 15.526C23.6811 15.5645 23.6539 15.5974 23.6139 15.6182ZM20.1382 13.7846C20.0342 13.886 19.911 13.9017 19.7864 13.9157C19.7171 13.9235 19.6619 13.9298 19.6075 13.9421C19.458 13.9759 19.3102 14.0267 19.1754 14.0999C19.0345 14.1765 18.8809 14.2688 18.7704 14.3871C18.7441 14.4152 18.7194 14.4447 18.6946 14.4743C18.6719 14.5013 18.6502 14.5273 18.6272 14.5524C18.6008 14.5811 18.5758 14.6113 18.5509 14.6414C18.5355 14.6667 18.5324 14.673 18.5293 14.6795C18.5247 14.6892 18.5192 14.7002 18.513 14.7119C18.5046 14.728 18.4946 14.7455 18.4842 14.7615C18.4669 14.7906 18.4576 14.7986 18.4495 14.8022C18.4362 14.8081 18.4235 14.8111 18.4113 14.8095C18.3998 14.808 18.3889 14.8025 18.3782 14.7934C18.3248 14.7483 18.309 14.6741 18.3107 14.5955C18.3131 14.4761 18.3571 14.3439 18.3977 14.2627C18.492 14.0739 18.6229 13.8776 18.7802 13.7367C18.9598 13.5758 19.1562 13.4541 19.3818 13.3702C19.522 13.318 19.6843 13.2701 19.837 13.2762C19.947 13.2805 20.0519 13.3132 20.1386 13.3949C20.1918 13.445 20.2174 13.5163 20.2174 13.5875C20.2174 13.6602 20.1908 13.7333 20.1382 13.7846ZM23.8255 14.7134C23.8189 14.7243 23.8097 14.7317 23.7995 14.7362C23.7889 14.7409 23.7769 14.7423 23.7655 14.7404C23.7541 14.7384 23.7432 14.7333 23.7347 14.7254C23.7264 14.7178 23.7201 14.7078 23.7173 14.6955C23.6482 14.3919 23.5141 14.166 23.2277 14.0204C23.0869 13.9487 22.9249 13.9032 22.7716 13.8669C22.727 13.8563 22.6799 13.8495 22.6325 13.8426C22.4839 13.8209 22.3342 13.796 22.2374 13.6759C22.179 13.6035 22.1545 13.5109 22.1683 13.4262C22.1814 13.3465 22.2279 13.2734 22.3126 13.2296C22.5233 13.1206 22.7852 13.2276 22.998 13.3187C23.0137 13.3255 23.0292 13.3321 23.0444 13.3385C23.2525 13.4264 23.4423 13.5424 23.5983 13.7082C23.7221 13.8398 23.8368 14.0344 23.883 14.2345C23.9214 14.401 23.9124 14.571 23.8255 14.7134Z" fill="black"/>
<path fill-rule="evenodd" clip-rule="evenodd" d="M24.6048 16.2605C24.3941 16.5438 24.0034 16.634 23.643 16.6028C22.8659 16.528 22.6213 15.645 22.5958 14.9587C23.1169 15.1053 22.5517 14.0666 24.3332 13.9524C24.9612 13.9 24.7881 14.2795 25.0655 14.5567C25.0598 15.1385 24.963 15.7707 24.6048 16.2605ZM20.903 15.592C20.4442 17.7416 17.9316 17.2303 17.6676 15.2926C17.9114 15.1205 17.8472 14.6955 18.15 14.5416C18.6298 14.2349 19.2297 14.248 19.7746 14.2552C20.4712 14.3031 20.6697 14.5917 21.0275 14.9066C21.0103 15.117 20.9607 15.3663 20.903 15.592ZM25.6001 13.5964C25.5744 13.5921 25.5486 13.588 25.5228 13.5843C25.5027 13.5728 25.479 13.564 25.4515 13.5587C25.3888 13.5428 25.3265 13.5321 25.2643 13.5263C24.3712 13.3252 22.3053 13.6107 22.22 14.373C21.9356 14.468 21.6896 14.383 21.36 14.3914C21.1091 13.3423 16.7716 13.4904 16.563 14.1229C16.5622 14.1227 16.5614 14.1225 16.5606 14.1222C16.3602 14.0602 16.0647 14.0751 15.8352 14.0653C15.3454 14.055 14.855 14.0987 14.3757 14.2021C13.4782 14.3448 12.2533 14.5118 12.8775 15.633C12.8776 15.6332 12.8777 15.6334 12.8779 15.6336L12.878 15.6335C12.9855 15.7438 13.1681 15.655 13.1749 15.5057C12.965 14.9745 13.439 14.9107 13.8037 14.7581C14.7112 14.4319 15.6351 14.3867 16.5736 14.4876C16.6442 14.5708 16.7513 14.6433 16.8646 14.6812C17.4921 14.7854 17.1614 15.2511 17.558 15.3188C17.4852 16.9421 19.4551 17.8281 20.5966 16.7611C21.0523 16.3153 21.161 15.655 21.2666 15.0598C21.3225 15.0472 21.358 15.0167 21.3788 14.9762C21.5131 14.842 21.5976 14.7181 21.8633 14.6812C22.129 14.6444 22.3335 14.7183 22.3612 14.741C22.3681 14.755 22.3756 14.7691 22.3843 14.7832C22.3965 14.8042 22.413 14.821 22.4318 14.8342C22.1694 16.4506 23.4238 17.4728 24.6901 16.6345C25.2403 16.1167 25.3566 15.3239 25.3796 14.6164C25.4541 14.5713 25.5014 14.4841 25.4756 14.3744C25.44 14.2231 25.5234 14.0922 25.6563 14.0264C25.829 13.941 25.7984 13.6292 25.6001 13.5964Z" fill="black"/>
</svg>
