<svg width="39" height="48" viewBox="0 0 39 48" fill="none" xmlns="http://www.w3.org/2000/svg">
<path fill-rule="evenodd" clip-rule="evenodd" d="M36.4238 28.8804C36.7444 28.713 37.0574 28.5311 37.3655 28.3418C37.5825 28.2119 37.3904 27.8849 37.1679 28.0031C37.0541 28.0635 36.9408 28.1246 36.827 28.1846C36.9165 28.1075 36.9995 28.0235 37.0739 27.932L37.0688 27.9269C37.3556 27.6698 36.9872 27.1847 36.661 27.3959C36.3733 27.6045 36.083 27.8174 35.7528 27.9547C35.0689 28.2449 34.3145 28.2929 33.5804 28.3012C33.3118 28.2811 33.0552 28.3276 32.7945 28.3795C32.8967 27.9694 33.1524 27.6597 33.2881 27.2625C33.3882 26.8614 32.8095 26.5883 32.6045 26.9737C32.5541 27.0684 32.5061 27.1642 32.4592 27.2604C32.016 27.6637 31.2758 27.6282 30.8288 28.0612C30.5741 28.2873 30.4495 28.5941 30.4003 28.902C30.3669 29.1111 30.4188 29.3207 30.2925 29.5059C29.6815 30.3703 28.7162 31.7366 28.226 32.688C27.8789 30.4274 26.9521 27.6313 25.9946 25.5642C25.678 24.9032 25.3158 24.2572 24.8403 23.6969C24.8942 23.51 24.704 23.1783 24.583 23.2804C24.2106 22.8253 23.5524 22.7075 23.0231 22.4813C22.3087 22.1757 21.7159 21.5404 21.4245 20.8184C21.0501 19.4435 20.1285 19.2688 18.8503 19.3296C17.627 19.328 16.7219 19.8515 16.455 21.0972C15.9127 22.0427 14.6324 21.8864 13.7113 22.1367C13.0363 22.2909 12.3811 22.5295 11.7585 22.8323C11.0659 22.175 8.58534 24.9334 8.35986 25.6432C8.4926 25.669 8.62452 25.7 8.75526 25.7377C8.87169 25.7714 8.8228 25.9473 8.70537 25.9192C8.55923 25.8841 8.41216 25.8599 8.2644 25.8431C8.25989 25.8572 8.25595 25.8713 8.25301 25.8852C8.23642 25.8841 8.21986 25.8826 8.20327 25.8815C8.24005 25.9007 8.27545 25.9229 8.30994 25.9516C8.39332 26.0208 8.28477 26.1545 8.19617 26.0993C8.11269 26.0368 8.00337 26.0467 7.90324 26.0257C7.89729 26.2317 7.16261 26.0013 7.0485 25.933C6.5413 25.8695 6.01952 25.9376 5.54603 25.6929C4.91601 25.5602 4.28127 25.4134 3.65833 25.2444C3.49341 25.3087 3.33842 25.5389 3.46941 25.7077C3.54308 25.7846 3.44837 25.9101 3.3556 25.8555C3.04446 25.6722 2.80384 25.3863 2.59983 25.0782C2.5038 24.9812 2.33335 25.0021 2.20434 24.9619C2.18709 24.9929 2.17692 25.0274 2.17708 25.0629C1.62981 25.153 2.02021 25.7509 2.29532 25.9372C2.14938 26.0323 2.14384 26.2185 2.15661 26.3739C2.12568 26.4293 2.11535 26.4979 2.14227 26.56C2.24518 26.7972 2.46775 26.997 2.63698 27.1892C2.82384 27.4015 2.99044 27.6149 3.2178 27.787C4.0844 28.4479 5.13019 28.8173 6.20305 28.9618C6.58399 29.0204 7.13194 29.1099 7.36781 29.4322C7.30994 29.8146 7.20368 30.1814 7.10728 30.5543C6.97247 31.0493 6.98164 31.5676 6.97986 32.0722C6.96102 32.0571 6.92484 32.0602 6.91945 32.0891C6.88809 32.2983 6.86477 32.5122 6.73767 32.688C6.62625 33.0148 6.5521 33.3635 6.51044 33.7069C6.34355 35.3349 6.30371 37.011 6.67999 38.6136C6.82518 39.2082 7.06133 39.7733 7.38308 40.2936C7.47902 40.4488 7.63326 40.4942 7.77175 40.4637C8.23529 40.7046 8.81923 40.7819 9.31886 40.7207C11.0222 40.2383 10.4287 41.3999 12.8169 41.0442C16.9392 40.5188 21.1052 41.5512 25.2187 40.9451C25.32 41.7279 26.6463 41.5034 27.107 41.1724C28.4883 40.1451 29.1742 36.8926 29.8674 35.2427C30.344 33.9422 31.1419 31.6388 32.1869 30.7662C32.5002 30.521 32.879 30.392 33.2579 30.2878C34.6723 29.9232 36.092 29.5784 37.5091 29.2239C37.7494 29.1647 37.7062 28.7547 37.4492 28.781C37.1082 28.8159 36.766 28.8475 36.4238 28.8804Z" fill="#D08B5B"/>
<path fill-rule="evenodd" clip-rule="evenodd" d="M4.9389 28.6358C4.84312 28.624 4.74923 28.5898 4.65596 28.5629C4.51355 28.5213 4.37395 28.4727 4.23655 28.4173C3.95298 28.3037 3.67787 28.1693 3.41996 28.0049C3.00337 27.7391 2.6353 27.3984 2.35768 26.9883L2.33862 26.9597C2.18013 26.7181 1.88777 26.1819 2.21558 25.9985C2.0043 25.8219 1.80462 25.5047 1.81588 25.2599C1.83185 24.9136 2.25626 24.9183 2.47567 25.0651C2.61933 25.1612 2.727 25.2959 2.83498 25.4284C2.95454 25.5755 3.08224 25.7158 3.21495 25.8507C3.25016 25.8864 3.28572 25.9214 3.3219 25.9558L3.35829 25.99C3.35266 25.9766 3.34765 25.9628 3.34327 25.9487C3.27003 25.7205 3.35736 25.4233 3.58553 25.3188C3.72516 25.2547 3.87017 25.2938 4.00548 25.3482L4.02621 25.3566C4.20837 25.4321 4.39272 25.4988 4.5824 25.5523C5.35548 25.7706 6.16236 25.8069 6.95454 25.9159C7.2597 25.9581 7.5705 26.0113 7.8741 26.0896C7.9899 25.5977 8.27378 25.1262 8.58176 24.7383C10.0566 22.8824 12.4888 22.2691 14.7138 21.872C14.9167 21.836 15.0847 22.1047 15.2027 22.0411C15.4265 21.9209 15.6234 21.7505 15.7962 21.5655C16.1646 21.1706 16.4259 20.7063 16.7329 20.2664C16.8847 20.0491 17.234 20.2435 17.0932 20.4768L17.0242 20.5908C16.7401 21.0578 16.4255 21.539 16.0181 21.9011C15.8015 22.0934 15.5611 22.2452 15.2863 22.3401C15.0782 22.4118 14.7862 22.4723 14.5583 22.4027L14.531 22.3629C14.54 22.3762 14.5491 22.3895 14.5583 22.4027C15.153 23.2647 15.8991 23.9943 16.6854 24.6828C17.479 25.3774 18.3351 25.9994 19.1964 26.6076L19.2681 26.6582C20.6713 25.6344 21.8566 24.2989 22.6882 22.7732C22.5139 22.7522 22.3414 22.6404 22.1924 22.5571C22.0131 22.4563 21.8444 22.336 21.7129 22.1757C21.4265 21.8266 21.4638 21.3767 21.4121 20.953C21.409 20.9267 21.4437 20.9202 21.4597 20.9333C21.615 21.0623 21.6694 21.2737 21.7342 21.4562C21.8056 21.6569 21.8863 21.8223 22.05 21.9634C22.2024 22.095 22.3883 22.1917 22.5689 22.2778C22.6621 22.322 23.1244 22.4355 23.1771 22.5296C23.9758 22.342 24.7539 22.6661 25.3458 23.2128C25.9176 23.741 26.3373 24.4276 26.7079 25.1055C27.1032 25.8288 27.4272 26.5828 27.7063 27.3577C27.9893 28.1443 28.2062 28.948 28.3254 29.7759C28.4261 30.4739 28.4878 31.1828 28.5278 31.8886L28.5326 31.9768C29.1236 31.049 29.7292 30.131 30.3473 29.2211C30.2068 28.8456 30.3624 28.4624 30.6256 28.1724C30.9173 27.8515 31.3207 27.7025 31.7066 27.529L31.7574 27.506C31.9434 27.4212 32.1288 27.3277 32.2894 27.2005C32.4441 27.0778 32.5577 26.9087 32.7204 26.7957C32.957 26.631 33.3865 26.6661 33.3974 27.0258C33.403 27.2234 33.3182 27.4401 33.2406 27.6176C33.1527 27.8183 33.034 28.0002 32.8932 28.1674C32.8867 28.1752 32.8796 28.1814 32.8723 28.1862L32.8669 28.1897C33.0616 28.2219 33.2578 28.2479 33.4578 28.257C33.8613 28.2755 34.2691 28.2457 34.6641 28.1605C35.0685 28.0735 35.4603 27.932 35.824 27.7347C36.1348 27.5663 36.4228 27.3483 36.7758 27.297C36.8084 27.292 36.8412 27.2888 36.875 27.287C36.9314 27.2838 36.9877 27.3502 36.9655 27.4059C36.9533 27.4366 36.9405 27.467 36.9264 27.4977C36.8043 27.7666 36.6171 28.0276 36.3835 28.2256L36.3655 28.2407C36.4478 28.2122 36.5289 28.1803 36.6087 28.1443C37.0779 27.9329 37.5035 27.6135 38.0065 27.4852C38.0303 27.4789 38.0544 27.4733 38.0785 27.4679C38.234 27.4344 38.3161 27.6035 38.2247 27.7194C38.2099 27.7382 38.1952 27.7566 38.1799 27.7751C37.9555 28.0538 37.7079 28.3124 37.435 28.5447C37.3414 28.6243 37.245 28.7013 37.1467 28.7749C37.1053 28.8061 37.0637 28.8366 37.0216 28.8666L37.0009 28.8813C37.05 28.8466 37.0985 28.8112 37.1467 28.7749C37.4547 28.6816 37.7583 28.571 38.0553 28.4486C38.1733 28.4001 38.265 28.5197 38.2775 28.618C38.3195 28.9474 37.9539 29.1857 37.716 29.3441C37.4775 29.5032 37.2149 29.6241 36.9461 29.7211C36.4292 29.908 35.8862 29.9928 35.3441 30.0689L35.0808 30.1056C34.0387 30.2514 32.9502 30.4257 32.2024 31.2369C31.7833 31.6915 31.4998 32.2563 31.2403 32.8121C30.9811 33.3673 30.7536 33.9372 30.5376 34.5102C30.3138 35.1032 30.1189 35.7071 29.9117 36.3061C29.7214 36.8561 29.4941 37.3991 29.2689 37.9365L29.2334 38.0214C28.7555 39.1636 28.1846 40.2394 27.389 41.1932C27.2578 41.3507 27.0459 41.1271 27.1671 40.9712C27.9993 39.8978 28.5783 38.6313 29.0563 37.3679C29.2738 36.7931 29.4559 36.2044 29.665 35.6264L29.7894 35.283C29.9556 34.8253 30.1231 34.3681 30.2979 33.914C30.5192 33.3394 30.7624 32.7717 31.0406 32.2225L31.0701 32.1647C31.3425 31.6349 31.6662 31.1127 32.1117 30.7118C32.9134 29.9898 33.9804 29.8166 35.0119 29.6794L35.3365 29.6366C35.7726 29.5786 36.2099 29.5146 36.634 29.398C36.8788 29.331 37.1179 29.2452 37.3426 29.1268C37.4322 29.0798 37.5195 29.0282 37.604 28.9718C37.363 29.0426 37.1185 29.1005 36.8697 29.1459C36.748 29.1681 36.6275 29.1848 36.5073 29.1963C36.1977 29.227 35.8907 29.2257 35.5736 29.2092C35.5467 29.2076 35.538 29.1653 35.5668 29.16C35.7876 29.1207 36.0086 29.0716 36.2288 29.0183L36.2948 29.0022C36.296 28.9656 36.3104 28.9267 36.3405 28.8898C36.45 28.7564 36.6581 28.6881 36.8024 28.5939C36.9536 28.4953 37.1001 28.3888 37.2397 28.2748C37.3674 28.1706 37.4901 28.0603 37.6081 27.9451L37.6434 27.9104C37.6317 27.922 37.6199 27.9336 37.6081 27.9451C37.2894 28.0923 36.9874 28.2811 36.6547 28.3976C36.3902 28.4906 36.1129 28.5532 35.8331 28.5754L35.8157 28.5768L35.7984 28.5779C35.5063 28.5989 35.2124 28.5905 34.9248 28.6537C34.8926 28.6609 34.8826 28.6177 34.9114 28.6055C35.1627 28.5009 35.424 28.4605 35.6882 28.4117C35.6938 28.391 35.7082 28.3725 35.7333 28.3606L35.8008 28.3283C36.0021 28.2316 36.1897 28.134 36.357 27.9771C36.5048 27.8383 36.6278 27.6762 36.7201 27.4964C36.3505 27.5775 36.0259 27.8578 35.6898 28.0153C35.3236 28.1872 34.9361 28.3105 34.5379 28.3807L34.4926 28.3885C33.7486 28.5126 32.8539 28.4968 32.1874 28.1098C32.1661 28.0973 32.1815 28.0688 32.2034 28.0722C32.3924 28.1032 32.5796 28.1399 32.7667 28.1724C32.7301 28.1389 32.7138 28.0788 32.7561 28.0306C32.9242 27.8379 33.0571 27.6176 33.1421 27.3766L33.1584 27.3294C33.1975 27.2176 33.2636 27.044 33.1962 26.9432C33.1317 26.847 32.9799 26.8602 32.8891 26.9009C32.7004 26.9861 32.5749 27.1987 32.4159 27.327C32.2425 27.4673 32.0453 27.5713 31.8434 27.6643L31.8008 27.6836C31.4516 27.8408 31.0785 27.973 30.804 28.2504C30.6563 28.3994 30.5292 28.5857 30.4866 28.7946C30.4672 28.8904 30.4672 28.989 30.4929 29.0839C30.5132 29.1581 30.5558 29.2039 30.5314 29.2793C30.4995 29.3767 30.3865 29.4931 30.3282 29.5799C30.2606 29.6801 30.1933 29.7806 30.1261 29.8811C29.9918 30.0821 29.8581 30.2838 29.7245 30.4851C29.4572 30.8884 29.1927 31.2935 28.9304 31.7C28.8451 31.8323 28.76 31.9648 28.6752 32.0974L28.5483 32.2964L28.4812 32.4014L28.3667 32.5813C28.3708 32.598 28.3705 32.6155 28.3652 32.6308C28.3457 32.6864 28.3091 32.7244 28.2637 32.752L28.2556 32.7567C27.5877 33.8128 26.9304 34.8758 26.2666 35.9345C26.2312 36.2576 26.198 36.581 26.1692 36.9045C26.1038 37.6365 26.0591 38.3705 26.0447 39.1054C26.0378 39.4611 26.0663 39.8189 26.0816 40.1743C26.0891 40.3439 26.0994 40.5133 26.1128 40.6827L26.1227 40.8027C26.1359 40.9677 26.1434 41.1315 26.0841 41.2887C26.0315 41.4268 25.8713 41.4578 25.7764 41.3526C24.5392 41.3028 23.301 41.2649 22.0628 41.2414C19.8466 41.1988 17.6293 41.2054 15.4128 41.2483C14.2995 41.2699 13.1858 41.3003 12.0728 41.3378C11.5245 41.356 10.9758 41.3817 10.4272 41.3892C10.1315 41.3932 9.6663 41.2856 9.64245 40.9529L9.64186 40.9427C9.60493 40.9527 9.56675 40.9609 9.52762 40.9668C9.5102 40.9695 9.49348 40.9687 9.47802 40.9651L9.47035 40.9631C9.0297 41.0974 8.4723 40.9057 8.05359 40.794L8.01902 40.7849C7.61933 40.6806 7.29821 40.5316 7.03624 40.2003C6.57771 39.6201 6.42121 38.8411 6.33984 38.1231C6.26347 37.4474 6.25908 36.7592 6.35204 36.0848C6.29727 35.5353 6.35079 34.9682 6.41307 34.4218C6.44374 34.1516 6.47974 33.8817 6.52293 33.6131C6.54703 33.4631 6.57864 33.3147 6.61088 33.1666C6.62375 33.1074 6.63447 33.0437 6.65078 32.9821L6.65814 32.9558C6.60806 32.9624 6.55329 32.9515 6.50039 32.9224C6.37457 32.8532 6.33795 32.7132 6.33576 32.5792C6.32887 32.1753 6.37707 31.7598 6.41964 31.3584C6.46252 30.9576 6.52136 30.5552 6.59836 30.1594L6.61828 30.0574C6.67662 29.7613 6.74338 29.4557 6.86096 29.1775C6.41934 29.1024 5.97896 29.0226 5.55048 28.8866C5.3414 28.8199 5.13546 28.737 4.9389 28.6358ZM27.9893 32.8394C27.9824 32.8409 27.9758 32.8428 27.9692 32.8447C27.7927 32.8942 27.6143 32.9361 27.4365 32.9812C27.1292 33.0586 26.8287 33.145 26.543 33.2793C26.4831 34.0352 26.3944 34.7886 26.31 35.5423L26.2932 35.6931C26.4228 35.4526 26.5555 35.214 26.6941 34.9783C27.1164 34.2596 27.5483 33.5467 27.9893 32.8394ZM6.76581 32.9142C6.76675 33.0041 6.74797 33.0974 6.73795 33.1838C6.72168 33.3241 6.70853 33.465 6.69194 33.6052C6.65814 33.887 6.62935 34.1691 6.60838 34.4522C6.59492 34.6329 6.58615 34.8142 6.57833 34.9955C6.7558 34.332 6.99085 33.6829 7.21433 33.0329C7.17697 33.0289 7.13879 33.0198 7.0994 33.0093L7.03308 32.9915C6.99398 32.9814 6.86714 32.9502 6.76581 32.9142ZM28.5483 32.2964L28.5495 32.3262C28.5542 32.4317 28.491 32.4912 28.4143 32.5065C28.4588 32.4364 28.5035 32.3663 28.5483 32.2964ZM8.24155 27.2954C8.4284 27.312 8.6115 27.3518 8.78615 27.4207L8.803 27.4273C8.93218 27.4771 9.12105 27.5398 9.1633 27.6777C9.1752 27.7169 9.14327 27.7491 9.10665 27.7523C8.96643 27.7635 8.80117 27.6132 8.67128 27.5625C8.52668 27.5061 8.3752 27.4642 8.22183 27.4419C7.87723 27.3915 7.51792 27.4298 7.19366 27.5553C7.17457 27.5628 7.16268 27.5324 7.17989 27.5234C7.50665 27.3455 7.87003 27.2626 8.24155 27.2954ZM4.28193 28.1909C4.26033 28.1718 4.23873 28.1518 4.21745 28.1318C4.04964 27.9729 3.90104 27.7876 3.79101 27.5839L3.76206 27.5288C3.67244 27.3553 3.5624 27.108 3.773 26.9829C3.89882 26.9081 4.05031 26.9269 4.19053 26.9723C4.19961 26.9751 4.20868 26.9783 4.21776 26.9814C4.28036 27.0033 4.34076 27.0296 4.3946 27.0546C4.6284 27.162 4.83466 27.3183 5.05062 27.4561C5.28463 27.6054 5.51568 27.7009 5.78575 27.7568L5.81119 27.7619C6.06471 27.8121 6.33951 27.8443 6.51635 28.0528C6.5608 28.1055 6.52011 28.2041 6.44342 28.1781C5.95454 28.0131 5.43716 27.9767 4.98834 27.7059C4.80242 27.5938 4.62652 27.4651 4.43654 27.359C4.33576 27.3026 4.2317 27.2533 4.12081 27.2194L4.06023 27.2016C4.02475 27.1912 3.98239 27.181 3.95391 27.1912C3.89969 27.21 3.917 27.239 3.93377 27.2896L3.93544 27.2948C4.06721 27.7025 4.4428 28.0437 4.79084 28.2695C4.87065 28.3215 4.95234 28.3691 5.0356 28.4133C5.59915 28.7137 6.22972 28.8536 6.84904 29.0196C6.84904 29.0196 7.20713 29.1196 7.32575 29.1572C7.45783 29.1462 7.60838 29.1929 7.70791 29.2486C7.80462 29.3028 7.88256 29.3754 7.9414 29.4609C7.9414 29.4609 7.99805 29.5082 8.00838 29.5815C8.03811 29.6494 8.05814 29.7226 8.06816 29.7991C8.07379 29.8438 8.06253 29.8783 8.04124 29.9027C8.10526 30.8856 7.83986 31.863 7.54065 32.7972L7.511 32.8893L7.49195 32.9477C7.16926 33.9381 6.79899 34.9213 6.63373 35.9539C6.52325 36.6437 6.52669 37.3576 6.60775 38.0505L6.61347 38.0983C6.69334 38.7534 6.84702 39.4883 7.26346 40.0156C7.47588 40.2847 7.72754 40.4042 8.04929 40.4909L8.06691 40.4956C8.35799 40.5723 8.65846 40.681 8.95861 40.7138C9.23717 40.7442 9.47066 40.6406 9.72137 40.5435L9.72167 40.5432C10.2497 40.0757 10.4894 39.395 10.6666 38.708C11.1257 36.9302 11.0688 35.0847 10.8084 33.2809C10.6725 32.3384 10.4879 31.4041 10.3038 30.4701C10.2118 30.0032 10.1126 29.5373 10.0303 29.0689L9.9814 28.7932C9.95442 28.6401 9.92833 28.4868 9.90603 28.3328C9.87598 28.1258 9.8669 27.9223 9.85658 27.7141C9.60368 27.2948 9.23654 26.9494 8.81119 26.7018C8.50665 26.5242 8.18428 26.4012 7.85157 26.3119C6.90039 26.0555 5.86346 26.0737 4.90634 25.8764C4.5848 25.8102 4.27959 25.7119 3.97454 25.5942L3.93294 25.578C3.79304 25.5235 3.65031 25.4932 3.58083 25.6582C3.53138 25.7756 3.5608 25.8977 3.63498 25.9963C3.81682 26.238 4.18239 26.3501 4.45751 26.4372C4.62308 26.4898 4.7921 26.5314 4.96299 26.5624C5.13388 26.5934 5.3054 26.6013 5.46941 26.6617C5.53263 26.6849 5.54515 26.7854 5.46941 26.8032C5.26158 26.8517 5.0525 26.8101 4.84593 26.7697C4.61901 26.7249 4.39554 26.6614 4.17833 26.5809C4.13826 26.5661 4.0968 26.5505 4.05457 26.534L4.02277 26.5214C4.05563 26.5452 4.0885 26.5687 4.12167 26.5922C4.13044 26.5984 4.12512 26.615 4.11354 26.6109C3.6028 26.4203 3.13809 26.0764 2.77809 25.6695L2.76017 25.6491C2.63341 25.5038 2.34452 25.0642 2.10102 25.1866C1.87236 25.3014 2.26214 25.7441 2.41027 25.925L2.42747 25.9462C2.59586 25.9506 2.75893 26.0555 2.89539 26.14C3.13232 26.2869 3.3799 26.4134 3.63217 26.5317C4.13357 26.7675 4.66597 26.9338 5.16206 27.1814C5.16863 27.1849 5.16362 27.1933 5.15736 27.1924C4.84156 27.142 4.52919 27.0615 4.22403 26.9617L4.21041 26.9574L4.1968 26.9529C4.00619 26.8902 3.81808 26.8195 3.63311 26.744C3.42747 26.6601 3.22653 26.5659 3.03154 26.4591C2.85501 26.3627 2.65908 26.1889 2.45439 26.1632C2.43248 26.1604 2.41307 26.1601 2.39617 26.1617C2.16112 26.1814 2.35549 26.5709 2.42121 26.6874C2.52857 26.8787 2.65815 27.0553 2.80682 27.2165C3.10823 27.544 3.47348 27.8036 3.86879 28.0056C4.00369 28.0744 4.14172 28.1352 4.28193 28.1909Z" fill="black"/>
<path fill-rule="evenodd" clip-rule="evenodd" d="M19.2036 7.99219C20.977 7.99219 23.5727 9.17939 23.7679 10.3216C23.998 11.6677 24.5089 16.7292 24.2308 18.3856C23.9526 20.0419 22.8679 21.2657 20.4693 21.2657C18.0707 21.2657 16.2803 19.9544 15.8693 19.5041C15.4582 19.0539 14.9601 17.6527 14.9601 17.6527C14.9601 17.6527 13.6468 17.4296 13.6407 16.38C13.6346 15.3305 14.3005 15.0062 14.3005 15.0062C14.3005 15.0062 13.9411 10.6524 14.6964 9.57409C15.4517 8.49576 17.4301 7.99219 19.2036 7.99219Z" fill="#D08B5B"/>
<path fill-rule="evenodd" clip-rule="evenodd" d="M24.5574 13.5369C24.6545 14.5949 24.6911 15.6619 24.7099 16.724C24.728 17.7304 24.6396 18.7799 24.0677 19.6403C23.5677 20.3931 22.8062 20.9394 21.9582 21.2344C21.4757 21.4025 20.9413 21.4648 20.4316 21.4802C20.1683 21.488 19.9044 21.4767 19.6426 21.4495C19.6097 21.446 19.5766 21.4431 19.5435 21.4401C19.3218 21.4203 19.102 21.4007 18.9405 21.2328C18.8896 21.1799 18.8902 21.0713 18.9655 21.0368C19.1089 20.9714 19.206 20.9645 19.3631 20.9861C19.4933 21.0039 19.6239 21.018 19.755 21.0271C20.0361 21.0468 20.3191 21.0475 20.6002 21.0259C21.1168 20.9861 21.6453 20.8398 22.1144 20.6182C22.8499 20.27 23.4818 19.6995 23.8228 18.9509C24.2138 18.0937 24.1942 17.1025 24.1759 16.1795L24.1752 16.1416C24.1548 15.1178 24.1171 14.097 24.0284 13.0766C23.9947 12.6905 23.9468 12.3066 23.8989 11.9225C23.8854 11.8144 23.8719 11.7063 23.8588 11.5981C23.8272 11.3363 23.7857 11.0758 23.7347 10.8172C23.7194 10.7391 23.7015 10.6616 23.6835 10.5842C23.67 10.526 23.6565 10.4678 23.6442 10.4095C23.6233 10.4129 23.602 10.4148 23.5802 10.4157C23.4496 10.4201 23.3069 10.3882 23.21 10.2952C23.1729 10.3206 23.1257 10.3365 23.0689 10.3394C22.7217 10.3566 22.371 10.3489 22.021 10.3412C21.8298 10.3371 21.6389 10.3329 21.4488 10.3328C20.9091 10.3325 20.3691 10.3328 19.8291 10.3344C19.7468 10.3346 19.6644 10.3349 19.582 10.3352C19.1246 10.337 18.6665 10.3387 18.2097 10.3265C18.1129 10.3239 18.0154 10.3222 17.9176 10.3205C17.5085 10.3135 17.0934 10.3063 16.6936 10.232C16.5272 10.825 16.5331 11.4766 16.8801 12.0064C16.9781 12.1557 16.8985 12.3317 16.7708 12.425C16.6402 12.5202 16.4055 12.6662 16.2046 12.6812C16.1969 12.6988 16.189 12.7163 16.1811 12.7337C16.1693 12.7599 16.1576 12.786 16.1462 12.8121C16.0504 13.031 15.964 13.2514 15.9036 13.4832C15.8724 13.6027 15.8456 13.7241 15.8231 13.8463C15.8249 13.8677 15.8268 13.8891 15.8291 13.9104C15.8291 13.9123 15.8293 13.9142 15.8296 13.9164L15.8297 13.9173L15.8335 13.9417C15.8363 13.9567 15.8391 13.9718 15.8419 13.9868C15.8506 14.0331 15.8592 14.0794 15.8685 14.1255C15.8975 14.2742 15.92 14.4242 15.9359 14.5748C15.965 14.8504 15.9622 15.2086 15.6942 15.3717C15.5508 15.459 15.379 15.45 15.2275 15.3914C15.1431 15.3587 15.0691 15.3147 14.9929 15.2694C14.9772 15.2601 14.9615 15.2508 14.9455 15.2414C14.9209 15.227 14.8957 15.2137 14.8707 15.2005C14.8391 15.1839 14.8077 15.1673 14.7775 15.1484C14.7625 15.139 14.7481 15.1278 14.7347 15.1159C14.6332 15.1375 14.5342 15.1779 14.4786 15.2054C14.3296 15.2796 14.1987 15.387 14.0875 15.5104C13.8511 15.7731 13.7802 16.1432 13.8133 16.4867C13.8442 16.8064 13.9695 17.1736 14.2215 17.3863C14.3311 17.4789 14.468 17.5331 14.6126 17.5315C14.6838 17.5309 14.7494 17.5159 14.8181 17.4977C14.8474 17.49 14.8797 17.4866 14.912 17.4832C14.9543 17.4788 14.9966 17.4744 15.032 17.4601C15.1248 17.4229 15.2391 17.5365 15.2013 17.6299C15.1929 17.6506 15.1856 17.6706 15.1785 17.6899C15.1616 17.736 15.1461 17.7782 15.121 17.8168C15.3797 18.2401 15.6629 18.6503 15.9643 19.0439C16.1554 19.2931 16.3703 19.5145 16.5862 19.7369C16.6773 19.8307 16.7685 19.9247 16.8582 20.0211C16.9916 20.1645 17.0472 20.4469 16.8058 20.5083C16.5934 20.5627 16.4284 20.3675 16.2975 20.2126C16.2799 20.1919 16.263 20.1718 16.2467 20.1532C15.6736 19.4998 15.2404 18.7495 15.0376 17.9026C14.9462 17.9677 14.8412 18.0031 14.7306 18.0184C14.5104 18.0488 14.2878 18.0053 14.0947 17.8935C13.3639 17.4705 13.1871 16.3273 13.5294 15.6109C13.6119 15.4384 13.7339 15.2844 13.8825 15.1649C13.8708 15.1424 13.8662 15.1161 13.8737 15.0878C13.8869 15.0383 13.9014 14.9894 13.9167 14.9407C13.9 14.9333 13.8879 14.9179 13.8902 14.8951C13.9018 14.7759 13.9132 14.6567 13.9246 14.5375L13.9308 14.4724C13.9293 14.4078 13.9274 14.3432 13.9254 14.2786C13.921 14.1303 13.9165 13.9819 13.9182 13.8327C13.92 13.674 13.9254 13.5154 13.9308 13.3567C13.937 13.1742 13.9432 12.9918 13.9439 12.8092C13.9459 12.2179 13.9589 11.627 13.9718 11.036C13.9849 10.4371 13.998 9.83827 13.9998 9.23909C14.0016 8.65698 14.0029 8.074 13.9876 7.49224C13.9874 7.48811 13.9873 7.48408 13.9873 7.48004C13.9872 7.47641 13.9871 7.47277 13.987 7.46907C13.9851 7.39767 13.9805 7.32257 13.9759 7.2455C13.9503 6.81994 13.9211 6.33419 14.3056 6.07914C14.3802 6.02969 14.4733 6.02907 14.5545 6.06101C14.7881 5.89787 15.0811 5.81925 15.3612 5.77385C15.7742 5.70701 16.19 5.66694 16.606 5.62685C16.7277 5.61512 16.8493 5.60339 16.971 5.59099C17.2514 5.5625 17.5466 5.55157 17.8289 5.55784C17.9758 5.56106 18.1237 5.55574 18.2718 5.55042C18.4115 5.5454 18.5515 5.54037 18.691 5.54249C19.017 5.54782 19.3456 5.56003 19.6729 5.58696C19.6805 5.58618 19.6882 5.58547 19.6959 5.58477C19.7037 5.58406 19.7115 5.58336 19.7192 5.58257C20.215 5.53491 20.7102 5.56011 21.2057 5.58532C21.3256 5.59143 21.4456 5.59754 21.5656 5.60261C22.1522 5.62735 22.7715 5.68809 23.2981 5.96955C23.3658 6.00568 23.4232 6.04676 23.4722 6.09254C23.5408 6.10221 23.6062 6.12172 23.665 6.1545C23.8346 6.12015 24.0238 6.1963 24.0639 6.39353C24.1223 6.68253 24.1445 6.97401 24.1095 7.26711C24.109 7.2708 24.1086 7.27459 24.1082 7.27848C24.1078 7.28182 24.1075 7.28524 24.107 7.28872C24.1778 7.56062 24.1731 7.85758 24.1143 8.12576C24.1391 8.46461 24.1532 8.80443 24.1552 9.14368C24.1555 9.19501 24.1562 9.24655 24.157 9.29819C24.1596 9.48265 24.1622 9.66848 24.1452 9.85128C24.1261 10.057 24.0416 10.2198 23.9087 10.376C23.8837 10.4055 23.8413 10.4103 23.8061 10.4032C23.797 10.4014 23.7891 10.3989 23.7819 10.3959C23.8475 10.5368 23.9018 10.6848 23.955 10.8295C23.9667 10.8616 23.9785 10.8935 23.9903 10.9252C24.0933 11.2026 24.1933 11.4847 24.2641 11.7722C24.4078 12.3517 24.5024 12.9423 24.5574 13.5369ZM14.6046 16.1597C14.5749 16.1392 14.545 16.1185 14.5126 16.1031C14.5086 16.1012 14.3374 16.0455 14.3705 16.1191C14.3818 16.1435 14.3524 16.1707 14.3315 16.1491C14.2721 16.0887 14.3052 16.0161 14.3618 15.9622C14.4639 15.8648 14.6163 15.8874 14.7416 15.9106C14.9158 15.9428 15.0851 16.0192 15.2319 16.1172C15.39 16.2227 15.5852 16.3689 15.6164 16.569C15.6448 16.7528 15.4624 16.9554 15.2747 16.8324C15.1731 16.7656 15.102 16.6665 15.0307 16.5669C14.9798 16.496 14.9288 16.4249 14.8665 16.3652C14.7931 16.2951 14.7137 16.2334 14.6298 16.177C14.6213 16.1713 14.613 16.1655 14.6046 16.1597Z" fill="black"/>
<path fill-rule="evenodd" clip-rule="evenodd" d="M21.8456 18.3912C21.8936 18.3077 22.0042 18.2304 22.1053 18.2422C22.5585 18.2954 22.5577 18.845 22.3827 19.1659C22.2276 19.4504 21.9065 19.6174 21.5851 19.593C21.2475 19.5674 20.9598 19.3688 20.8332 19.0529C20.7495 18.8439 20.7108 18.458 20.9335 18.3176C20.9377 18.315 20.9445 18.3156 20.9478 18.3194C21.0546 18.4437 21.0588 18.6303 21.1523 18.7686C21.2392 18.8973 21.3743 19.0036 21.5325 19.02C21.6507 19.0323 21.7703 18.9896 21.8165 18.8835C21.8415 18.8261 21.8387 18.7949 21.8293 18.7554L21.8207 18.721C21.7911 18.6008 21.7778 18.5092 21.8456 18.3912ZM21.9668 15.9807C22.2031 16.1245 22.5632 16.4596 22.309 16.8159C22.0097 17.1301 21.5788 16.7698 21.3665 16.6069C21.1696 16.4807 20.9483 16.8054 21.131 16.9528C22.6654 18.0893 23.2881 16.0183 22.0863 15.8118C21.954 15.789 21.9048 15.9363 21.9668 15.9807ZM19.4709 14.9952C19.616 14.7775 19.9471 14.8096 20.027 15.0679C20.0703 15.2079 20.0105 15.3337 20.0136 15.4735C20.0162 15.5916 20.0085 15.7231 19.9723 15.8375C19.8898 16.0982 19.6554 16.2824 19.378 16.2748C19.1016 16.2672 18.8581 16.0921 18.7424 15.8456C18.6262 15.5982 18.6508 15.3421 18.7356 15.0905C18.7397 15.0784 18.7555 15.0725 18.7651 15.0827C18.8653 15.1893 18.9387 15.3018 19.0147 15.4212L19.0925 15.5435C19.152 15.6356 19.2384 15.7533 19.3495 15.7459L19.3661 15.7443C19.397 15.7416 19.3923 15.7477 19.4161 15.7057C19.4271 15.6862 19.4251 15.65 19.4304 15.627L19.4323 15.6192L19.4312 15.6151C19.4289 15.6039 19.4266 15.583 19.4247 15.5466L19.4243 15.5385C19.4162 15.3683 19.3681 15.1495 19.4709 14.9952ZM23.1483 15.1402C23.1223 14.8617 23.5136 14.7999 23.6437 15.0059C23.7116 15.1134 23.7313 15.2484 23.7464 15.3763L23.7534 15.437C23.7688 15.5683 23.7749 15.705 23.7179 15.8275C23.6281 16.0204 23.4329 16.1225 23.2223 16.1063C23.0212 16.0908 22.8378 15.9742 22.741 15.7971C22.6548 15.6391 22.5691 15.3307 22.6738 15.1659C22.6801 15.1559 22.6928 15.1546 22.7014 15.1623C22.8004 15.2502 22.8165 15.4105 22.8754 15.525C22.9361 15.6431 23.0281 15.7582 23.1676 15.7762C23.3011 15.7933 23.3521 15.7204 23.318 15.5931C23.2741 15.4288 23.1648 15.317 23.1483 15.1402ZM19.5766 13.3396L19.6406 13.3151C19.8599 13.2322 20.161 13.1364 20.3392 13.3148C20.4492 13.4248 20.4702 13.5868 20.3917 13.7211C20.2966 13.8837 20.1259 13.8877 19.9612 13.9116C19.7738 13.9389 19.5832 13.9907 19.4088 14.0645C19.2122 14.1477 19.0299 14.2514 18.8512 14.3672C18.6813 14.4773 18.5121 14.6572 18.3088 14.6911C18.3005 14.6924 18.2911 14.6889 18.289 14.6798C18.2428 14.4809 18.3711 14.2853 18.4856 14.1302C18.6241 13.9424 18.792 13.7882 18.9796 13.65C19.1606 13.5166 19.3675 13.4202 19.5766 13.3396ZM23.5599 14.0465L23.5795 14.0431C23.7125 14.0209 23.833 14.026 23.9332 14.1314C24.0097 14.2118 24.0392 14.3159 24.0027 14.4222C23.9691 14.5203 23.8938 14.6199 23.7846 14.6404C23.4159 14.7098 23.0076 14.6983 22.6371 14.6458C22.4675 14.6217 22.2965 14.5923 22.1314 14.5459L22.0554 14.5239C21.9176 14.4845 21.7598 14.4433 21.6596 14.3419C21.6236 14.3055 21.6444 14.2533 21.6875 14.2364C21.8622 14.168 22.1016 14.2044 22.2879 14.199C22.5046 14.1928 22.7217 14.1766 22.9374 14.1542C23.1481 14.1323 23.3521 14.0846 23.5599 14.0465Z" fill="black"/>
<path fill-rule="evenodd" clip-rule="evenodd" d="M25.0479 16.6258C24.9442 16.4865 24.7578 16.3036 24.5692 16.3135C24.545 16.3147 24.536 16.3409 24.5505 16.3586C24.6122 16.4339 24.6964 16.4875 24.7583 16.5645C24.8314 16.6555 24.8842 16.7653 24.9185 16.8764C24.9684 17.0377 24.9822 17.2203 24.9377 17.3844C24.8594 17.6736 24.6116 17.8856 24.3412 17.9938C24.0736 18.101 23.7516 18.1376 23.4985 17.9806C23.125 17.7488 22.8081 17.4147 22.3386 17.4081C22.2288 17.4066 22.1514 17.4569 22.1053 17.5287C22.0589 17.4595 21.9825 17.4105 21.8754 17.4092C21.3491 17.4033 20.9562 17.7658 20.5144 17.9918C20.2159 18.1445 19.8296 18.0971 19.5215 17.9962C19.231 17.901 18.9156 17.71 18.806 17.4082C18.7455 17.2416 18.759 17.047 18.8212 16.8827C18.862 16.7747 18.9251 16.6704 19.0031 16.5855C19.084 16.4974 19.1904 16.4421 19.2733 16.3586C19.2902 16.3415 19.2768 16.315 19.2546 16.3135C18.9026 16.2896 18.5847 16.71 18.5183 17.0151C18.4528 17.3155 18.5504 17.6151 18.748 17.8443C19.1496 18.3103 19.8933 18.4641 20.4722 18.3271C20.9407 18.2163 21.3857 17.961 21.8754 17.9977C21.9828 18.0057 22.0599 17.9609 22.1064 17.8931C22.1529 17.9629 22.2305 18.0086 22.3386 17.9981C22.7951 17.9539 23.2025 18.2773 23.6456 18.3562C23.9983 18.4191 24.3794 18.3343 24.6817 18.1442C24.9976 17.9455 25.22 17.6267 25.2347 17.2466C25.2431 17.028 25.179 16.8018 25.0479 16.6258Z" fill="black"/>
<path fill-rule="evenodd" clip-rule="evenodd" d="M24.1623 16.5129C23.6925 16.7392 23.0372 16.4054 22.7213 16.0557C22.6064 15.9284 22.5177 15.5642 22.5619 15.3332C22.6817 14.7075 23.1318 14.3321 23.6069 14.2038C24.2656 14.0261 24.9284 14.4764 24.8511 15.0079C24.7779 15.5116 24.6669 16.2423 24.1623 16.5129ZM20.965 15.3111C20.9274 15.9929 20.3801 16.5897 19.7259 16.7665C18.672 17.0607 18.1511 16.3195 17.9152 15.521C17.8917 15.4417 17.8366 15.1995 17.9845 14.9918C18.5661 14.1748 19.9812 14.314 20.688 14.5383C20.8949 14.7363 20.9795 15.0219 20.965 15.3111ZM24.6726 14.1351C24.6723 14.1355 24.6719 14.1359 24.6716 14.1363C24.6692 14.1348 24.6668 14.1333 24.6644 14.1319C24.6671 14.133 24.67 14.134 24.6726 14.1351ZM25.5544 14.214C25.4932 13.5198 23.316 13.7856 23.0614 13.8425C22.3667 14.0469 21.7667 14.603 20.99 14.3585C20.1852 13.461 17.475 13.7184 16.9069 14.1756C16.7993 14.1334 16.6686 14.156 16.53 14.1959C15.8185 14.1701 12.5701 14.4155 13.2346 15.324C13.3354 15.394 13.4362 15.3228 13.4389 15.1786C16.9026 13.9279 16.5668 15.0994 16.9776 14.9626C17.0403 14.9807 17.1058 14.9921 17.163 15.0041C17.4809 15.1064 17.5889 15.0748 17.6308 15.4319C17.9185 18.1888 21.5885 17.2373 21.2874 14.9759C21.5855 14.9595 21.8462 14.8306 22.1613 14.9564C22.3801 17.0868 24.0938 17.1727 24.6095 16.4343C24.9984 15.9217 24.8442 15.1482 25.3787 14.745C25.5897 14.9216 25.6033 14.3254 25.5544 14.214Z" fill="black"/>
</svg>
