<svg width="36" height="48" viewBox="0 0 36 48" fill="none" xmlns="http://www.w3.org/2000/svg">
<path fill-rule="evenodd" clip-rule="evenodd" d="M22.8154 22.2386C22.2357 21.8165 21.9482 21.1254 21.7319 21.0077C21.5728 20.9212 21.5757 20.324 21.2567 20.1126C20.8286 19.829 19.4645 19.618 18.9683 19.5786C18.4919 19.5407 17.6634 19.6203 17.2165 19.7948C16.4712 20.0857 16.1739 20.6408 15.8457 21.3559C15.8457 21.3559 23.2137 22.5286 22.8154 22.2386Z" fill="#D08B5B"/>
<path fill-rule="evenodd" clip-rule="evenodd" d="M12.0041 22.7314H23.7838L27.8612 26.3601L29.6709 41.6121L27.0968 42.4139L11.1922 42.6798L6.22497 41.2749L5.91504 30.6583L12.0041 22.7314Z" fill="#78E185"/>
<path fill-rule="evenodd" clip-rule="evenodd" d="M28.0143 38.8421C27.9322 38.8011 27.8467 38.7542 27.753 38.751C27.592 38.7454 27.5918 38.4948 27.753 38.5005C27.8935 38.5054 28.017 38.564 28.1407 38.6258C28.285 38.6979 28.158 38.9139 28.0143 38.8421ZM27.753 31.7914C27.8628 31.7915 27.9735 31.8053 28.0579 31.8822C28.108 31.9279 28.104 32.0131 28.0579 32.0593C28.0084 32.1087 27.9308 32.1048 27.8808 32.0593C27.8971 32.0741 27.8809 32.0594 27.875 32.0561C27.8736 32.0554 27.8728 32.0549 27.8724 32.0545C27.8712 32.0542 27.8699 32.054 27.8679 32.0534C27.8548 32.0501 27.8419 32.0469 27.8287 32.0445C27.8284 32.0452 27.8007 32.0427 27.7942 32.0424C27.7804 32.0419 27.7667 32.0419 27.753 32.0419C27.6851 32.0418 27.6278 31.9846 27.6278 31.9166C27.6278 31.849 27.6853 31.7913 27.753 31.7914ZM26.5757 34.6011C26.5398 34.7585 26.2985 34.6915 26.3342 34.5345C26.3862 34.3064 26.3768 34.0726 26.3342 33.8436C26.3049 33.6858 26.5463 33.6188 26.5757 33.777C26.6267 34.0517 26.6381 34.3273 26.5757 34.6011ZM26.2594 25.5988C26.0729 25.5545 25.8885 25.5493 25.6978 25.5492C25.5364 25.5492 25.5366 25.2987 25.6978 25.2987C25.9105 25.2988 26.1182 25.3079 26.326 25.3573C26.4829 25.3946 26.4161 25.636 26.2594 25.5988ZM25.6346 31.7001C25.5264 31.646 25.4182 31.5919 25.3101 31.5378C25.1657 31.4656 25.2927 31.2497 25.4364 31.3215L25.761 31.4839C25.9052 31.556 25.7783 31.772 25.6346 31.7001ZM25.5895 36.6329C25.4523 36.8308 25.2595 36.9537 25.028 37.0151C24.8718 37.0565 24.8057 36.8148 24.9614 36.7736C25.1269 36.7297 25.274 36.6497 25.3733 36.5065C25.4646 36.3748 25.6816 36.5002 25.5895 36.6329ZM24.7243 27.8137C24.6872 27.7443 24.6313 27.715 24.562 27.7134C24.4009 27.7098 24.4008 27.4593 24.562 27.463C24.72 27.4665 24.865 27.5459 24.9405 27.6873C25.0165 27.8295 24.8003 27.956 24.7243 27.8137ZM23.1362 29.5163C23.0913 29.5653 23.0042 29.564 22.9591 29.5163C22.9315 29.4872 22.9082 29.4546 22.89 29.4188C22.883 29.4053 22.8765 29.3915 22.8688 29.3783C22.8654 29.3724 22.8616 29.3666 22.8578 29.361C22.8564 29.3598 22.8537 29.357 22.8509 29.354C22.8028 29.3031 22.804 29.228 22.8509 29.1769C22.8958 29.128 22.9829 29.1292 23.028 29.1769C23.0556 29.2061 23.0789 29.2387 23.0971 29.2744C23.1041 29.288 23.1106 29.3018 23.1183 29.315C23.1217 29.3208 23.1255 29.3266 23.1293 29.3323C23.1307 29.3334 23.1334 29.3362 23.1362 29.3392C23.1843 29.3901 23.1831 29.4652 23.1362 29.5163ZM23.0026 33.2151C22.8396 33.2897 22.6607 33.2897 22.4977 33.2151C22.4359 33.1868 22.4213 33.0976 22.4528 33.0437C22.4893 32.9813 22.5626 32.9707 22.6241 32.9988C22.698 33.0326 22.8024 33.0326 22.8763 32.9988C22.938 32.9706 23.0106 32.9806 23.0476 33.0437C23.0793 33.098 23.0641 33.1869 23.0026 33.2151ZM22.5579 35.8332C22.5298 35.8995 22.4693 35.9348 22.3986 35.9375C22.3285 35.9401 22.2764 35.878 22.2734 35.8122C22.2715 35.7698 22.2945 35.7335 22.3274 35.711C22.3275 35.7087 22.3275 35.7064 22.3275 35.704C22.3276 35.6338 22.3849 35.5818 22.4527 35.5788C22.5203 35.5757 22.5779 35.6385 22.5779 35.704C22.5779 35.7482 22.5752 35.7921 22.5579 35.8332ZM21.9118 39.9954C21.712 39.9986 21.5168 40.0463 21.3169 40.0495C21.1555 40.0521 21.156 39.8016 21.3169 39.799C21.5168 39.7958 21.712 39.7481 21.9118 39.7449C22.0733 39.7423 22.0728 39.9928 21.9118 39.9954ZM21.0809 23.9435C20.964 24.0549 20.8195 24.1098 20.677 24.1795C20.5327 24.25 20.4059 24.0339 20.5506 23.9632C20.6713 23.9042 20.8049 23.8606 20.9039 23.7664C21.0206 23.6551 21.1979 23.8321 21.0809 23.9435ZM20.767 26.8307C20.6849 26.7897 20.5994 26.7428 20.5057 26.7395C20.3447 26.7339 20.3445 26.4834 20.5057 26.4891C20.6462 26.4939 20.7697 26.5526 20.8934 26.6144C21.0377 26.6864 20.9108 26.9024 20.767 26.8307ZM19.2618 38.4184C19.2247 38.349 19.1688 38.3197 19.0995 38.3181C18.9383 38.3145 18.9383 38.064 19.0995 38.0676C19.2575 38.0712 19.4025 38.1506 19.478 38.292C19.554 38.4343 19.3378 38.5606 19.2618 38.4184ZM18.7405 32.9791C18.6907 32.9333 18.6942 32.8483 18.7405 32.802C18.7946 32.7479 18.8487 32.6938 18.9028 32.6397C18.9523 32.5902 19.0298 32.5938 19.0798 32.6397C19.1297 32.6854 19.1262 32.7704 19.0798 32.8168C19.0257 32.8709 18.9717 32.925 18.9176 32.9791C18.8681 33.0286 18.7905 33.025 18.7405 32.9791ZM18.1259 41.4563C17.9453 41.452 17.776 41.4002 17.6059 41.3436C17.4535 41.2928 17.5192 41.051 17.6725 41.102C17.8203 41.1512 17.9688 41.2021 18.1259 41.2058C18.2871 41.2095 18.2872 41.46 18.1259 41.4563ZM17.3147 36.0998C17.1515 36.0953 17.0161 36.0121 16.9016 35.9008C16.7859 35.7882 16.9631 35.6112 17.0787 35.7237C17.1442 35.7874 17.2198 35.8467 17.3147 35.8493C17.4758 35.8538 17.4759 36.1043 17.3147 36.0998ZM17.8185 29.2113C17.8204 29.278 17.8486 29.3495 17.89 29.3933C18.0006 29.5105 17.8238 29.6879 17.7129 29.5704C17.6215 29.4736 17.5719 29.3439 17.5681 29.2113C17.5634 29.0498 17.8139 29.0505 17.8185 29.2113ZM15.9086 23.7558C15.8562 23.6532 15.7875 23.5328 15.6831 23.4761C15.5412 23.3991 15.6677 23.1829 15.8094 23.2598C15.9514 23.3369 16.053 23.4888 16.1248 23.6294C16.198 23.7728 15.9819 23.8994 15.9086 23.7558ZM15.584 26.3608C15.5259 26.3591 15.4682 26.3492 15.4122 26.334C15.3883 26.3275 15.3646 26.32 15.3406 26.3135C15.3304 26.3107 15.2868 26.3053 15.3136 26.3067C15.2458 26.3031 15.1884 26.2523 15.1884 26.1815C15.1884 26.1164 15.246 26.0526 15.3136 26.0562C15.4065 26.0612 15.491 26.1077 15.584 26.1103C15.745 26.1149 15.7451 26.3653 15.584 26.3608ZM14.7727 30.3646H14.5023C14.3409 30.3646 14.3412 30.1141 14.5023 30.1141H14.7727C14.9341 30.1141 14.9338 30.3646 14.7727 30.3646ZM14.4573 41.4391C14.3753 41.4802 14.2786 41.5191 14.2122 41.5819C14.0951 41.6927 13.9178 41.5157 14.0352 41.4048C14.1198 41.3248 14.2279 41.2744 14.3309 41.2229C14.3916 41.1925 14.4662 41.2062 14.5022 41.2678C14.5348 41.3235 14.5178 41.4089 14.4573 41.4391ZM13.8531 38.2742C13.8426 38.2713 13.8315 38.2693 13.8209 38.2678C13.7783 38.262 13.7338 38.2641 13.691 38.264C13.5297 38.2639 13.5299 38.0134 13.691 38.0135C13.818 38.0136 13.9502 38.0154 14.05 38.1043C14.1007 38.1495 14.0958 38.2357 14.05 38.2814C14.0002 38.3312 13.9234 38.3264 13.8729 38.2814C13.8783 38.2862 13.86 38.2761 13.8531 38.2742ZM13.6911 34.0176C13.7275 33.9426 13.728 33.8937 13.7281 33.8103C13.7282 33.6489 13.9786 33.6491 13.9785 33.8103C13.9784 33.9314 13.9604 34.0344 13.9073 34.1441C13.8777 34.2052 13.7909 34.2211 13.736 34.189C13.6745 34.153 13.6616 34.0785 13.6911 34.0176ZM12.9671 28.1418C12.8219 28.1912 12.6923 28.2612 12.5644 28.3456C12.4294 28.4347 12.3041 28.2177 12.438 28.1293C12.5839 28.033 12.7349 27.9566 12.9005 27.9002C13.0537 27.8481 13.1189 28.0902 12.9671 28.1418ZM12.1226 23.926C12.0147 23.9291 11.9033 23.9704 11.8072 24.0172C11.6627 24.0874 11.5359 23.8713 11.6808 23.8009C11.8182 23.7341 11.9684 23.6799 12.1226 23.6756C12.2841 23.671 12.2834 23.9215 12.1226 23.926ZM11.744 35.18C11.7016 35.1819 11.6653 35.159 11.6428 35.126C11.6405 35.126 11.6381 35.1259 11.6358 35.1259C11.5657 35.1259 11.5137 35.0685 11.5106 35.0006C11.5076 34.933 11.5703 34.8754 11.6358 34.8754C11.68 34.8754 11.7239 34.8781 11.7649 34.8955C11.8313 34.9235 11.8665 34.984 11.8692 35.0548C11.8718 35.1249 11.8097 35.1771 11.744 35.18ZM11.1282 26.5186C10.9745 26.5689 10.9092 26.327 11.0617 26.2771C11.2407 26.2186 11.4236 26.1733 11.6026 26.1148C11.7563 26.0645 11.8216 26.3065 11.6691 26.3563C11.4902 26.4148 11.3072 26.4601 11.1282 26.5186ZM10.5667 31.2466C10.519 31.4003 10.2774 31.3343 10.3252 31.18C10.3714 31.031 10.3748 30.8811 10.3749 30.7263C10.3749 30.5649 10.6253 30.5651 10.6252 30.7263C10.6252 30.9025 10.6192 31.077 10.5667 31.2466ZM8.89263 36.9094C8.88352 36.9717 8.83407 37.0167 8.76934 37.0196C8.70346 37.0225 8.64177 36.9599 8.64415 36.8943C8.64875 36.7683 8.7515 36.6655 8.87751 36.6609C8.94762 36.6583 8.99977 36.7203 9.00271 36.7861C9.00559 36.8501 8.95219 36.9 8.89263 36.9094ZM8.04543 29.7109C7.91313 29.7551 7.77175 29.7971 7.66803 29.8951C7.55082 30.0057 7.37354 29.8289 7.49097 29.718C7.62775 29.5888 7.80368 29.5278 7.97889 29.4693C8.13232 29.4181 8.19751 29.6601 8.04543 29.7109ZM7.47125 34.5769C7.43488 34.6391 7.36124 34.6503 7.29999 34.6218C7.21786 34.5836 7.12718 34.5849 7.03864 34.5848C6.87729 34.5847 6.87754 34.3342 7.03864 34.3343C7.17523 34.3345 7.30124 34.3473 7.42637 34.4055C7.48794 34.4342 7.50293 34.5227 7.47125 34.5769ZM7.14681 40.4824C7.0767 40.4849 7.02456 40.4229 7.02161 40.3571C7.01873 40.2931 7.0721 40.2432 7.13172 40.2339C7.1408 40.1715 7.19028 40.1265 7.25498 40.1237C7.32089 40.1207 7.38258 40.1833 7.38017 40.2489C7.37557 40.375 7.27288 40.4777 7.14681 40.4824ZM29.9583 41.4295C29.9157 41.2763 29.8184 41.1527 29.7448 41.0149C29.7202 40.9685 29.7116 40.9396 29.6982 40.9056C29.6801 40.9419 29.6448 40.9693 29.5918 40.9693C29.4902 40.9693 29.3713 40.9628 29.2764 41.0063C29.2147 41.0346 29.1421 41.0245 29.1052 40.9614C29.0734 40.9071 29.0886 40.8182 29.1501 40.79C29.2899 40.7259 29.4402 40.7189 29.5918 40.7188C29.6293 40.7188 29.6577 40.7326 29.6777 40.7533C29.7357 39.9593 29.7342 39.1647 29.6794 38.37C29.6209 37.5209 29.4863 36.6886 29.3454 35.8504C29.2772 35.444 29.1887 35.0335 29.2059 34.6196C29.2231 34.2085 29.3993 33.8252 29.2744 33.4129C29.2243 33.2475 29.1386 33.096 29.0829 32.9325C29.0231 32.7566 29.0284 32.5828 29.0556 32.4006C29.1117 32.0295 29.2046 31.6629 29.0559 31.3006C28.9902 31.14 28.8838 30.9966 28.8325 30.8306C28.7686 30.6243 28.7774 30.396 28.7667 30.1822C28.7452 29.7507 28.7395 29.3164 28.7038 28.8859C28.6879 28.693 28.6531 28.5102 28.5739 28.3333C28.4979 28.1629 28.3849 28.0079 28.3345 27.8273C28.2844 27.6494 28.2801 27.4619 28.2531 27.2799C28.225 27.0877 28.1808 26.8983 28.1214 26.7135C27.8916 25.9984 27.4707 25.3559 26.9733 24.7988C26.4447 24.2068 25.8128 23.7609 25.142 23.3454C24.7893 23.1269 24.4366 22.9084 24.0842 22.6899C24.0767 22.7309 24.0505 22.7686 24.0004 22.7854C23.868 22.8296 23.7267 22.8716 23.6229 22.9696C23.5057 23.0802 23.3284 22.9033 23.4459 22.7925C23.5684 22.6767 23.7223 22.6158 23.879 22.5623C23.7184 22.4611 23.5561 22.3562 23.3749 22.2977C23.2162 22.2464 22.9821 22.2911 22.8534 22.1747C22.7523 22.0829 22.7204 21.9129 22.6816 21.7883C22.6331 21.6336 22.5912 21.4705 22.5295 21.3202C22.4876 21.2175 22.4265 21.1188 22.3495 21.0393C22.3157 20.9091 22.2537 20.7901 22.1442 20.7178C21.8575 20.528 21.5054 20.7165 21.3793 20.987C21.275 20.9867 21.1652 21.0096 21.0638 21.0158C20.8553 21.029 20.6466 21.0349 20.4378 21.0343C20.0293 21.0331 19.6206 21.0064 19.2156 20.9523C18.4913 20.8552 17.7887 20.6595 17.0766 20.507C17.0725 20.4976 17.0678 20.4882 17.0622 20.4788C16.9088 20.2215 16.5267 20.265 16.286 20.3624C16.1827 20.404 16.0775 20.4566 16.0184 20.5543C15.9558 20.5966 15.9016 20.6479 15.8657 20.7021C15.7912 20.8139 15.7336 21.0393 15.5824 21.0581C15.4829 21.0703 15.3818 21.0512 15.2807 21.0656C15.1542 21.0832 15.0409 21.1276 14.9242 21.1783C14.0353 21.5644 13.1164 21.9937 12.1517 22.1433C11.9254 22.1784 11.6951 22.2147 11.4985 22.3415C11.3389 22.4446 11.2155 22.5861 11.0838 22.7204C10.9555 22.8513 10.8497 22.9092 10.6666 22.9327C10.4444 22.9612 10.2519 23.0226 10.0894 23.1841C9.95454 23.3185 9.86659 23.49 9.7608 23.646C9.6531 23.805 9.49507 23.8946 9.33107 23.9869C8.94327 24.2055 8.58208 24.4695 8.26753 24.786C7.60493 25.4536 7.20368 26.3115 6.7993 27.1475C6.36205 28.0518 5.95329 28.967 5.66972 29.9326C5.39179 30.8807 5.22653 31.8561 5.15016 32.8405C5.06972 33.8734 5.05845 34.9105 4.99147 35.9441C4.95798 36.4604 4.93263 36.9773 4.90697 37.494C4.88193 38.0043 4.84531 38.5156 4.85122 39.0266C4.86252 40.0145 5.05999 41.0055 5.40524 41.9304C5.49132 42.1606 5.58675 42.3876 5.68847 42.6111C5.7777 42.8075 6.08287 42.7855 6.17864 42.6111C6.20055 42.5711 6.21776 42.5297 6.23216 42.4878C6.48255 42.49 6.73545 42.4706 6.98427 42.4937C7.42371 42.5347 7.86406 42.5576 8.30474 42.5848C9.17676 42.639 10.0503 42.675 10.9226 42.7248C11.0072 42.7296 11.0919 42.7345 11.1765 42.7395C10.5549 40.8147 10.6355 38.7338 10.5371 36.732C10.5292 36.5707 10.7796 36.5716 10.7875 36.732C10.8863 38.7424 10.8022 40.8286 11.4458 42.7565C11.6955 42.7735 11.9448 42.7941 12.1934 42.8244C12.3943 42.8485 12.5962 42.877 12.799 42.867C13.029 42.856 13.2538 42.8034 13.4782 42.7577C13.886 42.6747 14.2788 42.7123 14.6882 42.7633C15.1261 42.8181 15.5655 42.8485 16.0062 42.8676C17.7708 42.9449 19.5473 43.0154 21.3113 42.8973C21.7383 42.8688 22.1642 42.8288 22.5883 42.7743C23.0253 42.7182 23.4575 42.624 23.8941 42.5704C24.3245 42.5178 24.7201 42.6622 25.1455 42.6888C25.5792 42.716 26.0247 42.6255 26.4544 42.5736C26.5946 42.5566 26.7349 42.54 26.8753 42.5236C26.6946 41.2845 26.5918 40.036 26.492 38.788C26.4791 38.6271 26.7296 38.6285 26.7424 38.788C26.8414 40.0263 26.9419 41.2654 27.1223 42.4948C27.8664 42.4082 28.6113 42.3206 29.3477 42.1856C29.5574 42.1474 29.7658 42.0851 29.8913 41.8979C29.9842 41.7592 30.0031 41.5891 29.9583 41.4295Z" fill="black"/>
<path fill-rule="evenodd" clip-rule="evenodd" d="M26.1319 13.6377C25.8461 12.0753 25.1413 10.5887 24.059 9.42554C23.9341 9.28743 23.8219 9.06956 23.6313 9.03475C23.44 8.64395 23.0754 8.36769 22.7839 8.05211C22.1476 7.41615 21.5389 6.70548 20.7183 6.30388C16.9119 4.7345 13.2491 9.20937 12.4718 12.5747C11.6997 15.2812 12.5429 19.0146 15.8887 19.1242C16.362 19.7518 17.0151 20.1862 17.6861 20.5742C18.6023 21.1622 19.6017 21.401 20.6617 21.0737C21.7173 21.3502 22.8117 20.4628 23.4461 19.6845C23.9475 19.0817 24.2912 18.346 24.7498 17.722C25.2913 17.7084 25.7593 17.2488 25.8317 16.71C26.3375 15.7783 26.3145 14.6618 26.1319 13.6377Z" fill="#D08B5B"/>
<path fill-rule="evenodd" clip-rule="evenodd" d="M12.4718 12.5747C13.2491 9.20937 16.9119 4.7345 20.7183 6.30388C21.5389 6.70548 22.1476 7.41615 22.7839 8.05211C23.0754 8.36769 23.44 8.64395 23.6313 9.03475C23.8219 9.06956 23.9341 9.28743 24.059 9.42554C25.1413 10.5887 25.8461 12.0753 26.1319 13.6377C26.3145 14.6618 26.3375 15.7783 25.8317 16.71C25.7593 17.2488 25.2913 17.7084 24.7498 17.722C24.6506 17.857 24.5567 17.9973 24.4655 18.1403L24.4439 18.1476L24.4413 17.9892C24.3956 15.423 24.2482 13.8739 23.999 13.3419C23.7473 12.8045 22.6641 11.8205 20.7493 10.39L20.691 10.3465L20.2415 9.97438L19.8927 10.3692C18.5804 11.8532 17.5531 12.9984 16.8109 13.8046C16.0123 14.6723 15.3366 15.9922 14.7838 17.7644L14.7671 17.8183L15.7437 19.1171C12.5187 18.9059 11.711 15.2417 12.4718 12.5747Z" fill="#9DDADB"/>
<path fill-rule="evenodd" clip-rule="evenodd" d="M17.8408 5.77174C18.5334 5.60951 19.2597 5.64314 19.9458 5.82143C21.3055 6.17484 22.4243 7.09385 23.3519 8.11851C24.2568 9.11796 25.003 10.2637 25.548 11.498L25.5756 11.5607C25.9611 12.4406 26.296 13.3551 26.3104 14.3238C26.3228 15.1576 26.2388 16.0263 25.9701 16.8193C25.7307 17.5258 25.2904 18.2377 24.5329 18.407C24.0961 19.5201 23.2416 20.484 22.1652 20.9997C21.4975 21.3196 20.7643 21.4624 20.0262 21.3914C19.2731 21.319 18.5696 20.9563 17.981 20.4936C17.9649 20.481 17.9856 20.4564 18.0023 20.466C18.7109 20.8754 19.549 21.0217 20.3607 20.9948C21.6946 20.9506 22.9175 20.2288 23.6201 19.0943C23.795 18.812 23.9508 18.5141 24.075 18.2043C24.0678 18.1788 24.0636 18.153 24.0636 18.1278C24.0636 18.0211 24.1141 17.9395 24.1895 17.8868C24.2244 17.7773 24.2554 17.6666 24.2812 17.5546C24.3397 17.3009 24.3724 17.0435 24.3921 16.7841C24.4081 16.5734 24.3992 16.3498 24.4204 16.1336C24.4127 15.9604 24.402 15.7874 24.3863 15.6148C24.336 15.0584 24.2341 14.5035 24.0378 13.9791C23.8391 13.448 23.5251 12.9797 23.129 12.5766C22.2794 11.7119 21.2216 11.0806 20.3955 10.1924L20.3522 10.1454L20.3493 10.1445C20.2468 10.2499 20.1443 10.3552 20.0416 10.4604L19.5723 10.9403C18.6144 11.9208 17.6642 12.9109 16.8309 14.002C16.3511 14.6303 15.92 15.289 15.5485 15.9874C15.3726 16.3182 15.2131 16.6572 15.069 17.0031L15.0122 17.1407C14.9447 17.3055 14.8718 17.4899 14.8313 17.676C14.9518 17.7959 15.04 17.9721 15.1375 18.1082C15.2481 18.2625 15.3757 18.4094 15.5069 18.5465C15.6397 18.6853 15.7854 18.8184 15.9401 18.9324L15.9587 18.9458C16.1361 19.0721 16.3398 19.1593 16.3665 19.3996C16.378 19.504 16.2849 19.5879 16.1988 19.6204C15.9629 19.7092 15.7185 19.4541 15.5613 19.3073C15.4632 19.2157 15.3731 19.1171 15.2895 19.0129C15.2082 19.0246 15.1263 19.0304 15.0452 19.0208C14.9196 19.0058 14.7953 18.9838 14.6729 18.9515C13.6582 18.6845 12.9072 17.84 12.502 16.8995C11.9579 15.6368 11.9706 14.1813 12.1967 12.8461C12.61 10.406 13.9474 8.12728 15.967 6.68461C16.5326 6.28057 17.1598 5.93124 17.8408 5.77174ZM18.9341 6.09816C17.6294 6.02924 16.44 6.70368 15.4856 7.54323C13.748 9.07184 12.6777 11.31 12.4624 13.6083C12.348 14.8294 12.4336 16.1457 13.0688 17.2245C13.3152 17.6431 13.6326 18.0079 14.0072 18.3154C14.3602 18.6053 14.7627 18.7723 15.1929 18.886C15.1733 18.8589 15.1539 18.8317 15.1351 18.804C15.0351 18.6572 14.9556 18.501 14.889 18.3375C14.8831 18.3434 14.8721 18.3445 14.8655 18.3356C14.594 17.962 14.679 17.5164 14.8084 17.1056C14.9441 16.6748 15.1161 16.2556 15.3124 15.849C16.0279 14.3671 17.0922 13.0761 18.1969 11.8714C18.7611 11.2562 19.344 10.6588 19.9247 10.0593C20.2147 9.75996 20.504 9.45975 20.7896 9.1561C20.9317 9.00493 21.073 8.85297 21.213 8.6998C21.3514 8.54835 21.4759 8.38794 21.6483 8.2745C21.7857 8.18411 21.9228 8.35688 21.8586 8.48538C21.7598 8.68303 21.59 8.83971 21.4397 9.00043L21.4242 9.01708C21.2777 9.17564 21.1298 9.33291 20.9811 9.48934C20.81 9.66926 20.6375 9.84795 20.4646 10.0262C20.6121 10.009 20.7613 9.99918 20.908 9.97686C21.1071 9.94655 21.3036 9.9019 21.499 9.85333C21.705 9.8022 21.9083 9.73692 22.1046 9.65576C22.2889 9.57955 22.4632 9.45744 22.666 9.44548C22.8378 9.43533 22.8914 9.64847 22.7962 9.76062C22.6651 9.91517 22.4294 9.976 22.2377 10.0334L22.2106 10.0416C21.9986 10.1065 21.7816 10.1551 21.5623 10.1877C21.2737 10.2305 20.9402 10.2501 20.6315 10.2063C21.248 10.5687 21.8154 11.0178 22.3811 11.4558L22.4809 11.533C23.0336 11.9593 23.5731 12.4189 23.9672 13.0022C24.3351 13.5467 24.5572 14.1807 24.6818 14.823C24.7433 15.1399 24.7839 15.4602 24.8111 15.7818C24.9126 16.0669 24.8963 16.4059 24.8708 16.7195L24.8616 16.8277L24.8623 16.8595C24.8661 17.0556 24.9448 17.4923 24.7596 17.6404C24.7565 17.6562 24.7535 17.672 24.7502 17.6878C24.7733 17.6735 24.796 17.6589 24.8186 17.6438C24.8279 17.6375 24.8369 17.6307 24.846 17.6239L24.8716 17.6029C24.8725 17.6021 24.8734 17.6013 24.874 17.6007C24.9315 17.5502 24.9863 17.4974 25.0374 17.4403C25.1318 17.3348 25.2216 17.2008 25.3066 17.0464C25.4934 16.7069 25.6128 16.338 25.7051 15.9565C25.8738 15.259 25.9434 14.5099 25.8664 13.7946C25.8557 13.6948 25.8336 13.5696 25.7994 13.4412C25.7182 13.1362 25.6248 12.8344 25.5202 12.5368C25.311 11.9413 25.0545 11.3635 24.7555 10.8079C24.1481 9.67949 23.3667 8.63621 22.4304 7.76072C21.4822 6.87408 20.2525 6.16779 18.9341 6.09816ZM17.0942 9.70363C17.1412 9.67482 17.1897 9.73078 17.1663 9.77593C17.0534 9.99445 16.8634 10.1789 16.7056 10.3662C16.5422 10.5601 16.38 10.755 16.2183 10.9502C15.8888 11.3477 15.5673 11.7525 15.2584 12.1663L15.1769 12.2758C14.9053 12.6412 14.6371 13.0124 14.3997 13.4007C14.2755 13.6038 14.1661 13.8138 14.0667 14.0302C13.9721 14.2361 13.9285 14.4847 13.8148 14.6781C13.8076 14.6903 13.7855 14.6893 13.7827 14.6739C13.7456 14.4656 13.8373 14.2148 13.9028 14.0197C13.9806 13.7878 14.0914 13.5668 14.2101 13.3534C14.4575 12.9083 14.754 12.4911 15.0518 12.0789C15.3543 11.6604 15.6683 11.2504 15.9978 10.8528C16.1526 10.6661 16.3108 10.483 16.4737 10.3036L16.5351 10.2365C16.7058 10.0509 16.8778 9.83608 17.0942 9.70363ZM16.3032 9.05654C16.3806 8.99908 16.4466 9.1165 16.3973 9.17875C16.1025 9.55053 15.767 9.88459 15.4444 10.2313C15.1346 10.5643 14.8384 10.9098 14.559 11.2688C13.9892 12.001 13.5331 12.8044 13.1468 13.6463C13.1395 13.6622 13.1166 13.6504 13.1201 13.635C13.3247 12.7243 13.803 11.8971 14.3477 11.1498L14.3684 11.1214C14.9193 10.3699 15.5526 9.61435 16.3032 9.05654Z" fill="black"/>
<path fill-rule="evenodd" clip-rule="evenodd" d="M22.1299 18.9635C21.9299 18.9651 21.705 18.89 21.5546 18.8312L21.5154 18.8157C21.3852 18.7635 21.2515 18.7037 21.1518 18.6032C21.1199 18.5705 21.086 18.5336 21.0688 18.4947C21.0587 18.472 21.0545 18.4484 21.0642 18.425C21.1003 18.4215 21.1344 18.4168 21.1668 18.4109C21.1822 18.4081 21.197 18.4052 21.2083 18.4051C21.25 18.4049 21.2913 18.4102 21.3325 18.4154C21.3385 18.4161 21.3444 18.4169 21.3504 18.4176C21.3825 18.4216 21.4145 18.4259 21.4463 18.4302C21.5391 18.4426 21.6314 18.455 21.7255 18.4595C21.7934 18.4628 21.8646 18.4589 21.9365 18.455C22.1229 18.4449 22.3156 18.431 22.4592 18.5616C22.4969 18.5958 22.5126 18.6389 22.5126 18.6828C22.5126 18.7362 22.4901 18.7905 22.4559 18.8331C22.3784 18.9295 22.2591 18.9624 22.1299 18.9635ZM23.2208 17.2815C23.1337 17.4121 22.9887 17.4961 22.7901 17.487C22.3952 17.4689 21.9239 17.3199 21.5932 17.1043C21.507 17.0482 21.4512 16.9585 21.4412 16.8624L21.4234 16.6914L21.3271 16.8338C21.317 16.8486 21.3069 16.8634 21.2968 16.8782C21.2689 16.919 21.241 16.9598 21.2148 17.0015C21.1139 17.1619 21.0214 17.3239 20.9374 17.4938C20.8779 17.6141 20.8344 17.7486 20.7908 17.8843C20.7173 18.1135 20.6462 18.3389 20.4889 18.5C20.4651 18.5244 20.4286 18.5331 20.3951 18.5288C20.3656 18.525 20.3367 18.5105 20.3226 18.4817C20.1347 18.0995 20.3874 17.6388 20.5924 17.3186L20.6141 17.2852C20.8042 16.9958 21.1146 16.6128 21.4702 16.5608L21.5109 16.6257L21.5701 16.5862C21.6669 16.5216 21.7946 16.5246 21.9065 16.5752L22.0184 16.6257C22.2266 16.7192 22.432 16.8054 22.6573 16.8527C22.6737 16.8561 22.6901 16.8593 22.7065 16.8623C22.722 16.8651 22.7375 16.8678 22.7532 16.8702C22.7498 16.8548 22.7462 16.8395 22.7426 16.8243C22.7388 16.8082 22.7349 16.792 22.7308 16.7759C22.7265 16.7592 22.722 16.7427 22.7175 16.7262C22.6994 16.6604 22.679 16.5953 22.6548 16.5315C22.5639 16.2917 22.4186 16.0674 22.2773 15.8534L22.2607 15.8283C22.2404 15.7976 22.2182 15.7656 22.1953 15.7326C22.0851 15.5738 21.9629 15.4015 21.9542 15.2286C22.1005 15.2378 22.2229 15.3287 22.3306 15.4078C22.4785 15.5164 22.6156 15.6405 22.7399 15.7754C22.981 16.0371 23.1974 16.3716 23.2923 16.7173C23.3467 16.9153 23.3228 17.1284 23.2208 17.2815ZM19.3627 15.3089L19.3627 15.3018C19.3631 15.1021 19.4794 14.6463 19.7667 14.6463C19.9462 14.6463 20.0552 14.9565 20.074 15.2763L20.0747 15.2894C20.083 15.4882 20.0285 15.9229 19.7667 15.9229C19.5021 15.9229 19.3654 15.5112 19.3627 15.3089ZM23.5929 15.2462L23.593 15.2392C23.5925 15.0395 23.4763 14.5836 23.189 14.5836C23.0139 14.5836 22.906 14.8786 22.8832 15.1898L22.8816 15.2137C22.8703 15.4059 22.9213 15.8602 23.189 15.8602C23.4535 15.8602 23.5902 15.4486 23.5929 15.2462ZM20.3304 13.9576C20.2923 13.9621 20.2544 13.9679 20.2166 13.9739C20.1061 13.9915 19.9962 14.0127 19.887 14.0373C19.6798 14.0841 19.4741 14.1432 19.2725 14.21C19.0837 14.2726 18.8979 14.3432 18.7122 14.4139C18.7023 14.4176 18.6923 14.4214 18.6824 14.4252C18.6168 14.4501 18.5515 14.4781 18.4859 14.5061C18.3861 14.5488 18.2859 14.5918 18.1836 14.6242C18.4531 14.2514 18.8684 13.9751 19.268 13.7775C19.496 13.6647 19.7379 13.5738 19.9812 13.4993L20.1167 13.4585C20.3162 13.3996 20.5343 13.3452 20.7218 13.4627C20.7959 13.5091 20.8432 13.5813 20.8581 13.6593C20.8727 13.7359 20.856 13.8179 20.8032 13.8864C20.7572 13.9461 20.6998 13.98 20.6388 13.9917C20.5714 14.0045 20.5 13.9904 20.435 13.9557C20.3829 13.9518 20.3676 13.9532 20.3522 13.9549L20.3304 13.9576ZM23.3319 13.9955C23.1983 13.9665 23.0661 13.9548 22.9291 13.959C22.8672 13.9609 22.8072 13.9704 22.7474 13.9801C22.6546 13.995 22.5621 14.0105 22.4621 13.9923C22.4099 13.9829 22.3655 13.9523 22.3311 13.9125C22.291 13.8659 22.2644 13.8063 22.2559 13.7497C22.2471 13.6912 22.2559 13.64 22.2775 13.5949C22.3031 13.5415 22.3461 13.4965 22.3982 13.4571C22.5556 13.3379 22.8258 13.3665 23.0117 13.3907C23.1953 13.4145 23.3779 13.4715 23.5403 13.562C23.7004 13.6513 23.8396 13.7716 23.9483 13.9186C24.0399 14.0426 24.083 14.1852 24.1275 14.3305C23.918 14.1546 23.5973 14.0532 23.3319 13.9955Z" fill="black"/>
<path fill-rule="evenodd" clip-rule="evenodd" d="M19.1778 19.1994C19.4312 18.6055 19.9843 18.169 20.6211 18.0094C21.0887 17.8925 21.5794 17.8963 22.0561 17.9427C22.3058 17.9668 22.5737 17.9866 22.8091 18.0793C23.0101 18.1586 23.1739 18.3084 23.297 18.4843C23.4436 18.6927 23.5433 18.9313 23.6133 19.1758C23.6233 19.2105 23.6326 19.2455 23.6413 19.2807C23.6109 19.4652 23.5463 19.6222 23.3755 19.7382C23.2088 19.8514 23.0099 19.8977 22.8117 19.9142C22.7923 19.9049 22.7735 19.8953 22.7563 19.8854C22.4473 19.7085 22.2299 19.2904 21.84 19.347C21.4921 19.3975 21.263 19.8355 21.0561 20.0924C20.3919 20.1698 19.7281 19.9701 19.1877 19.5902C19.1603 19.4601 19.1587 19.329 19.1778 19.1994ZM24.0928 18.7488C24.0397 18.5997 23.9727 18.4552 23.8934 18.3191C23.6312 17.869 23.2286 17.5104 22.7506 17.3054C21.6201 16.8211 20.1572 17.1625 19.2442 17.9568C18.9323 18.2283 18.6169 18.6273 18.5216 19.0564C18.4931 19.0621 18.4662 19.0769 18.4441 19.0978C17.7844 18.6823 17.1051 18.2826 16.5735 17.7066C16.1875 17.2882 15.919 16.793 15.7546 16.2488C15.7412 16.204 15.669 16.2105 15.6711 16.2601C15.6718 16.2717 15.6724 16.2833 15.673 16.2949C15.6661 16.2736 15.6336 16.2845 15.6311 16.3052C15.5427 16.9663 15.432 17.6671 15.5339 18.3316C15.5949 18.7282 15.7749 19.0184 16.0156 19.3319C16.2735 19.6679 16.5654 19.9804 16.8639 20.2801C17.0533 20.4703 17.2512 20.6897 17.4831 20.8292C17.7529 20.9912 18.0589 21.1144 18.3468 21.2395C18.6397 21.3671 18.9369 21.4849 19.2398 21.5871C19.8453 21.7921 20.471 21.9338 21.1077 21.9958C21.6176 22.0454 22.2002 22.0993 22.6887 21.9074C23.0632 21.7604 23.3655 21.4947 23.6052 21.1749C23.8662 20.8267 24.0725 20.43 24.1866 20.0117C24.3051 19.5772 24.1178 18.8189 24.0928 18.7488Z" fill="black"/>
<path fill-rule="evenodd" clip-rule="evenodd" d="M23.6873 13.6514C24.422 13.6514 24.8412 13.8094 24.9948 13.8217L24.9994 13.8221C25.0633 13.8261 25.1207 13.8315 25.1808 13.8548C25.4019 13.94 25.438 14.172 25.3089 14.3182C25.2999 14.6208 25.3396 14.9743 25.2714 15.2779C25.1872 16.5576 24.5856 16.7736 24.2436 16.8524C24.072 16.892 23.8685 16.9077 23.6861 16.866C23.375 16.8544 23.0674 16.7569 22.8043 16.5873C22.4378 16.3508 22.1656 15.9874 22.0773 15.556C22.0354 15.3504 22.0158 15.1364 22.0386 14.9274L22.042 14.8986C21.9229 14.8416 21.7848 14.8309 21.6425 14.8258C21.5746 14.8234 21.5076 14.8212 21.4425 14.8241C21.3789 14.8312 21.316 14.8407 21.2529 14.8536C21.1841 14.8744 21.1191 14.9087 21.059 14.963L21.0549 15.0423C21.0436 15.2404 21.0176 15.439 20.9775 15.6334C20.9183 15.9201 20.8231 16.1939 20.6204 16.3973C20.5518 16.4998 20.4669 16.5913 20.3639 16.6706C19.9895 16.9589 19.4809 17.0648 19.0142 17.0249C18.0665 16.944 17.5188 16.1914 17.3925 15.8698L17.385 15.8503C17.2938 15.6111 17.2211 15.3009 16.933 15.2495L16.8717 15.2385C16.7402 15.2138 16.6189 15.1794 16.5418 15.0511C16.508 14.995 16.4906 14.9324 16.4864 14.8685C16.4414 14.8719 16.3965 14.8752 16.3517 14.8785C15.9946 14.954 13.8529 15.018 13.682 15.018C13.682 15.018 13.3534 15.1564 13.2146 15.0492C13.1185 14.9747 13.0868 14.8753 13.1398 14.7628C13.2196 14.5934 13.5881 14.4915 13.7518 14.4593C13.7518 14.4593 16.3923 14.4812 16.5823 14.4452C16.6999 14.3239 16.9103 14.3405 17.086 14.3213C17.2315 14.2175 17.435 14.148 17.5958 14.1015C17.6286 14.089 17.661 14.077 17.6926 14.0657C17.9873 13.9607 18.2937 13.9051 18.6048 13.8752C18.9255 13.8447 19.2472 13.8585 19.5661 13.9022C19.7005 13.9205 19.8336 13.944 19.9658 13.9749C20.2025 14.0061 20.4378 14.0575 20.6745 14.1185L20.7219 14.1308C20.9712 14.1962 21.2275 14.2528 21.4856 14.2085C21.6957 14.1726 21.8978 14.0917 22.0915 14.0042L22.1167 13.9928C22.5427 13.7982 23.208 13.6514 23.6873 13.6514ZM19.9401 14.3628C19.783 14.3282 19.7158 14.5707 19.8735 14.6054C19.9852 14.6299 20.0798 14.6862 20.1437 14.7817L20.1505 14.7921C20.2363 14.9286 20.4532 14.8026 20.3668 14.6651C20.2696 14.5104 20.1186 14.4021 19.9401 14.3628ZM24.5438 14.2125C24.4884 14.1735 24.4045 14.2025 24.3723 14.2576C24.3369 14.3184 24.3601 14.386 24.412 14.4258L24.4173 14.4297C24.4649 14.4632 24.5113 14.5234 24.5171 14.585L24.5176 14.5928C24.5239 14.7541 24.7745 14.7549 24.7682 14.5928C24.7621 14.4341 24.6703 14.3016 24.5438 14.2125Z" fill="black"/>
</svg>
