<svg width="36" height="48" viewBox="0 0 36 48" fill="none" xmlns="http://www.w3.org/2000/svg">
<path fill-rule="evenodd" clip-rule="evenodd" d="M6.08615 38.5582C5.99244 39.4175 5.78017 40.3642 6.1848 41.175C5.92997 41.1864 6.13669 41.2602 6.27422 41.2855C6.35275 41.3463 6.45829 41.3704 6.55754 41.362C7.07284 41.4709 7.6048 41.5104 8.12803 41.5721C14.6607 42.1149 21.2371 41.9707 27.782 41.7368C27.9948 41.7276 28.1376 41.5729 28.1539 41.3646C28.3938 38.2985 28.5132 35.223 28.5071 32.1476C28.4005 31.0668 29.2171 31.4885 28.7815 30.0644C28.4313 28.5622 27.913 27.1001 27.2521 25.7068C26.7953 24.8002 26.3648 23.8463 25.6685 23.0945C25.4485 23.0641 25.2612 22.8454 25.0752 22.7233C24.8869 22.6866 24.7473 22.5266 24.5564 22.4774C24.1927 22.3828 23.3788 22.1815 23.069 22.4236C23.0568 22.4202 23.0444 22.4174 23.0321 22.4139C22.9715 22.4812 22.8882 22.4307 22.843 22.3703C22.6882 22.2501 22.0117 22.2377 21.9349 22.0533C21.5347 21.69 21.4276 20.9256 21.4276 20.4784C21.2779 20.3102 21.2676 20.3414 21.0644 20.2525C20.8652 20.0012 20.6246 19.7822 20.356 19.6097C18.8446 18.6168 16.6512 19.663 16.2974 21.3887C15.738 21.8317 15.1623 22.2818 14.4772 22.5126C14.1429 22.3406 13.762 22.2857 13.4071 22.2853C13.1426 22.2757 12.7771 22.1227 12.6052 22.4012C9.71331 23.3482 7.96796 26.1027 6.7269 28.7126C6.55294 29.0842 6.34483 29.4733 6.39807 29.8966C6.43466 30.4036 6.98471 30.7054 6.88076 31.2428C6.72968 32.7208 6.55782 34.1974 6.40054 35.675C6.29572 36.6361 6.19094 37.5971 6.08615 38.5582Z" fill="#D08B5B"/>
<path fill-rule="evenodd" clip-rule="evenodd" d="M12.6053 22.4017C12.7772 22.1233 13.1427 22.2763 13.4072 22.2859C13.762 22.2862 14.1429 22.3412 14.4772 22.5132C14.4909 22.5086 14.5045 22.5039 14.5181 22.4991L14.5379 22.5431L13.0823 22.7483L13.8164 24.0801C15.5448 25.6977 17.4662 26.4167 19.5805 26.2369C21.6737 26.059 23.1122 24.9408 23.8961 22.8824L23.9196 22.8197L22.924 22.5431L22.9239 22.4375C22.9603 22.4528 22.9995 22.4507 23.0322 22.4145C23.0444 22.418 23.0568 22.4208 23.069 22.4242C23.3788 22.1821 24.1928 22.3834 24.5565 22.478C24.7474 22.5272 24.887 22.6872 25.0753 22.7239C25.2612 22.846 25.4485 23.0646 25.6686 23.095C26.3649 23.8468 26.7953 24.8008 27.2522 25.7074C27.9131 27.1006 28.4314 28.5628 28.7815 30.0649C29.0603 30.9764 28.8262 31.1318 28.6495 31.4088L28.6349 31.4111C28.3953 31.4483 28.1722 31.5009 27.9656 31.5687C27.5245 31.7136 27.0901 31.8967 26.6625 32.1181L26.6132 32.1438L27.1542 41.7595L26.8164 41.7712C21.2996 41.9596 15.763 42.0634 10.2517 41.7256L10.7672 32.5748L6.4783 30.1936C6.43614 30.1011 6.40581 30.0037 6.39813 29.8972C6.34489 29.4738 6.55299 29.0848 6.72695 28.7132C7.96802 26.1033 9.71337 23.3488 12.6053 22.4017Z" fill="#78E185"/>
<path fill-rule="evenodd" clip-rule="evenodd" d="M27.2432 31.5073C27.0563 31.575 26.7942 31.641 26.6605 31.7941C26.6451 31.6515 26.6295 31.5089 26.6138 31.3663C27.0056 31.357 27.3983 31.3536 27.7903 31.3427C27.6052 31.3879 27.4224 31.4425 27.2432 31.5073ZM26.3824 40.4763C26.2476 40.4776 26.1123 40.487 25.9776 40.4922C25.718 40.5023 25.4585 40.5122 25.199 40.5219C24.6695 40.5418 24.14 40.5609 23.6104 40.5794C22.5618 40.6158 21.513 40.6495 20.4642 40.6804C18.3665 40.7421 16.2678 40.7795 14.1703 40.8501C13.5885 40.8697 13.0066 40.8849 12.4253 40.9166C12.124 40.933 11.8214 40.9471 11.5216 40.982C11.2686 41.0114 11.0193 41.0611 10.7678 41.0981C10.7847 40.7702 10.8005 40.4423 10.8169 40.1145C10.8324 39.8043 10.847 39.4941 10.8614 39.1839C11.8432 39.2353 12.8262 39.256 13.8093 39.2648C14.8493 39.2741 15.8889 39.2999 16.9289 39.3019C18.9878 39.306 21.0468 39.2801 23.1056 39.2594C23.6879 39.2535 24.2703 39.2477 24.8526 39.2418C25.1437 39.2389 25.4349 39.236 25.726 39.2331C25.8714 39.2316 26.0176 39.2347 26.1628 39.2287C26.3178 39.2222 26.4119 39.1782 26.5244 39.0738C26.5844 39.0182 26.5869 38.9049 26.5244 38.8497C26.4341 38.7699 26.3503 38.7087 26.2252 38.6998C26.1023 38.691 25.9741 38.7031 25.8508 38.7047C25.5805 38.7082 25.3101 38.7118 25.0397 38.7154C24.5198 38.7222 23.9999 38.7291 23.48 38.7359C22.4401 38.7496 21.4002 38.7636 20.3604 38.7794C19.3413 38.795 18.3221 38.8066 17.3032 38.8322C16.2629 38.8584 15.2237 38.9057 14.1837 38.9391C13.0765 38.9747 11.97 39.0172 10.8654 39.1003C10.8919 38.5253 10.9164 37.9501 10.9394 37.3749C13.1327 37.4943 15.3274 37.5793 17.5244 37.583C19.8132 37.587 22.1019 37.5478 24.3899 37.4881C24.7123 37.4796 25.0347 37.4711 25.357 37.461C25.5234 37.4558 25.6898 37.4509 25.8562 37.4449C25.9785 37.4405 26.1042 37.4353 26.2148 37.3767C26.433 37.2613 26.4707 36.9241 26.2118 36.8318C26.0702 36.7814 25.9201 36.8307 25.8857 36.9584C25.8751 36.9594 25.865 36.9602 25.8562 36.9606C25.7314 36.9653 25.6066 36.9688 25.4818 36.9727C25.2114 36.9813 24.9411 36.9901 24.6707 36.9986C24.1715 37.0142 23.6723 37.0286 23.173 37.0418C22.1538 37.0689 21.1344 37.0909 20.1149 37.1079C18.0964 37.1415 16.0781 37.1726 14.0599 37.2187C13.0206 37.2425 11.9816 37.2734 10.9424 37.2997C10.9672 36.6745 10.9906 36.0492 11.0118 35.4239C11.0142 35.3507 11.0169 35.2773 11.0196 35.204C11.1685 35.2368 11.321 35.2549 11.4727 35.2764C11.736 35.3136 12 35.3412 12.2644 35.3691C12.7626 35.4217 13.2623 35.454 13.7623 35.4816C14.7817 35.5378 15.8014 35.5775 16.8218 35.6086C18.8404 35.6701 20.8614 35.6835 22.8808 35.6765C23.9774 35.6728 25.0806 35.6873 26.1766 35.6394C26.2442 35.6579 26.3138 35.656 26.3811 35.634C26.4364 36.6115 26.4947 37.5888 26.5521 38.5662C26.5908 39.2257 26.625 39.8874 26.6725 40.547C26.5796 40.5013 26.4942 40.4754 26.3824 40.4763ZM7.37986 30.5451C7.18756 30.451 6.97548 30.3651 6.80572 30.2318C6.62015 30.086 6.57457 29.9149 6.6316 29.6861C6.63586 29.669 6.64087 29.652 6.64531 29.635C8.01279 29.6383 9.3768 29.5781 10.7437 29.5456C12.1324 29.5127 13.5206 29.4849 14.9098 29.4771C17.6801 29.4615 20.45 29.524 23.219 29.6018C24.2162 29.6298 25.2134 29.6574 26.2106 29.6847C26.1879 29.9279 26.1966 30.1771 26.1915 30.4186C26.1869 30.6307 26.1881 30.8432 26.1913 31.0556C25.6696 31.0543 25.148 31.0431 24.6263 31.0372C23.3346 31.0226 22.0436 31.0597 20.7523 31.0893C18.1696 31.1484 15.5863 31.1949 13.0042 31.2727C12.3029 31.2938 11.597 31.3049 10.8925 31.3349C10.8683 31.2203 10.8414 31.1063 10.8111 30.993C10.7629 30.813 10.7085 30.6281 10.5643 30.503C10.5574 30.497 10.5478 30.4996 10.5447 30.5082C10.49 30.66 10.5038 30.8145 10.5199 30.9735C10.5325 31.0991 10.5411 31.2251 10.5475 31.3512C10.1094 31.3743 9.6722 31.4067 9.2373 31.4552C9.11295 31.3938 8.98853 31.3324 8.86393 31.2714C8.36932 31.0292 7.87454 30.7872 7.37986 30.5451ZM23.2556 35.0642C22.2353 35.0724 21.2149 35.0733 20.1947 35.0668C18.175 35.0538 16.1561 35.0041 14.1369 34.964C13.5749 34.9528 13.0137 34.9418 12.4516 34.9418C12.1606 34.9418 11.8687 34.9437 11.578 34.9563C11.3951 34.9643 11.2096 34.9654 11.0275 34.9874C11.0495 34.3989 11.0724 33.8098 11.0716 33.2211C12.998 33.5129 14.945 33.5931 16.8903 33.6505C18.8612 33.7087 20.8325 33.7388 22.8042 33.7417C23.3646 33.7425 23.9249 33.7413 24.4852 33.738C24.755 33.7364 25.0248 33.7343 25.2945 33.7318C25.4396 33.7304 25.5854 33.7334 25.7303 33.7273C25.8835 33.7208 25.9761 33.6845 26.0831 33.5755C26.1379 33.5197 26.1406 33.4235 26.0831 33.3679C25.8921 33.1836 25.6673 33.2236 25.419 33.2267C25.17 33.2298 24.921 33.2324 24.672 33.2347C24.1739 33.2392 23.6759 33.2421 23.1778 33.2434C22.2024 33.2459 21.227 33.2421 20.2517 33.2321C18.2805 33.212 16.3097 33.1681 14.339 33.122C13.2494 33.0964 12.1601 33.1035 11.0715 33.1563C11.0711 33.0586 11.0702 32.9608 11.0683 32.863C11.0611 32.4928 11.0251 32.1226 10.9687 31.7564C11.5022 31.7546 12.0357 31.7432 12.5668 31.7364C13.8583 31.7198 15.1495 31.6938 16.4408 31.6679C17.7217 31.6422 19.0027 31.6165 20.2836 31.5908C21.5637 31.5651 22.8478 31.5633 24.1264 31.4941C24.8164 31.4568 25.5067 31.4061 26.1972 31.3794C26.1986 31.4428 26.1999 31.5063 26.2013 31.5696C26.2179 32.3476 26.2483 33.1247 26.2875 33.9019C26.3063 34.2752 26.3262 34.6486 26.3467 35.022C26.3368 35.021 26.3267 35.0204 26.3163 35.0203C25.2968 35.0135 24.2753 35.0559 23.2556 35.0642ZM7.11054 28.3081C7.22734 28.0075 7.35423 27.7089 7.49138 27.4143C8.07367 27.5787 8.69479 27.6635 9.29573 27.72C9.93548 27.7801 10.5765 27.8139 11.2189 27.827C12.4853 27.8529 13.7517 27.7928 15.0168 27.7405C17.6188 27.633 20.2206 27.5545 22.8252 27.5495C23.5525 27.548 24.2798 27.5514 25.0071 27.5596C25.3708 27.5637 25.7344 27.5686 26.098 27.5749C26.285 27.5781 26.472 27.5816 26.659 27.5855C26.7418 27.5872 26.8256 27.5933 26.9083 27.5908C27.0189 27.5875 27.0997 27.5542 27.2024 27.5141C27.3203 27.4682 27.3899 27.271 27.2427 27.2057C27.0958 27.1403 26.9778 27.1021 26.8148 27.0985C26.6382 27.0947 26.4616 27.0912 26.285 27.088C25.9629 27.0821 25.6409 27.0772 25.3188 27.0731C24.6643 27.065 24.0097 27.0615 23.3551 27.0616C22.0667 27.0618 20.7782 27.077 19.4902 27.1073C16.9043 27.1682 14.3242 27.3485 11.7392 27.4259C11.0267 27.4472 10.3129 27.4514 9.60033 27.43C8.91019 27.4093 8.22152 27.3512 7.53223 27.3267C7.77032 26.8246 8.03971 26.3356 8.34368 25.8707C9.49276 25.9111 10.6394 25.8812 11.7887 25.8462C12.3918 25.8278 12.9949 25.8092 13.5979 25.7885C13.8995 25.7782 14.201 25.7678 14.5025 25.7575C14.6481 25.7525 14.7937 25.7475 14.9392 25.7425C15.096 25.7372 15.2611 25.7473 15.4134 25.7061C15.441 25.6986 15.4629 25.6826 15.4794 25.6623C15.8847 25.8709 16.3135 26.0355 16.7544 26.1574C17.7115 26.4222 18.7408 26.5215 19.7307 26.44C20.525 26.3746 21.3167 26.1779 22.0151 25.7928C23.5923 25.9381 25.1917 25.8698 26.7723 25.8595C26.9233 25.8585 26.9861 25.7201 26.9608 25.6059C27.4681 26.6995 27.8041 27.8851 28.1186 29.0383C28.3141 29.755 28.4879 30.4762 28.6534 31.1999C28.6465 31.2005 28.6396 31.2011 28.6328 31.2018C28.652 31.1225 28.6088 31.0291 28.5003 31.0266C27.8606 31.0119 27.2189 31.0486 26.579 31.0545C26.561 30.8944 26.543 30.7343 26.524 30.5742C26.4981 30.3561 26.4672 30.1386 26.4408 29.9206C26.4313 29.8416 26.4224 29.7652 26.4115 29.6901C26.9182 29.7039 27.4248 29.7178 27.9315 29.7312C28.2603 29.7399 28.2597 29.2305 27.9315 29.2205C25.1473 29.1352 22.3629 29.049 19.5778 29.0017C16.7909 28.9544 13.9944 28.9252 11.2097 29.0681C9.6922 29.146 8.17842 29.2501 6.67977 29.5069C6.79617 29.1005 6.95855 28.6993 7.11054 28.3081ZM9.48046 24.4372C9.53088 24.4751 9.54703 24.4989 9.6224 24.5122C9.70412 24.5265 9.78816 24.5311 9.87066 24.5391C10.0472 24.5564 10.2242 24.5629 10.4013 24.5713C10.755 24.5881 11.1086 24.6059 11.4625 24.6166C12.1651 24.638 12.8827 24.6682 13.585 24.6369C13.7568 24.6293 13.8349 24.4876 13.8193 24.3584C13.951 24.5216 14.095 24.6748 14.2484 24.8144C14.495 25.0389 14.7611 25.2379 15.0417 25.4135C14.8597 25.4201 14.6743 25.443 14.5025 25.4503C14.2114 25.4628 13.9202 25.4753 13.6291 25.4878C13.0156 25.5142 12.4021 25.5425 11.7887 25.5712C10.6534 25.6243 9.52196 25.6903 8.39098 25.7987C8.71398 25.3131 9.0758 24.855 9.48046 24.4372ZM27.9584 26.796C27.4787 25.4788 26.8603 24.1105 25.7473 23.2058C25.1753 22.7408 24.538 22.4191 23.8162 22.2667C23.7941 22.262 23.7852 22.2936 23.8069 22.3007C25.055 22.7103 25.9787 23.7943 26.6035 24.9051C26.7167 25.1064 26.8216 25.3125 26.9208 25.5218C26.8885 25.4824 26.8391 25.4562 26.7723 25.4573C25.2963 25.4821 23.803 25.4571 22.3304 25.6013C22.368 25.5763 22.4056 25.5513 22.4425 25.5249C22.8447 25.2381 23.2067 24.8872 23.5059 24.4897C23.6862 24.5354 23.8759 24.5466 24.0598 24.5641C24.3052 24.5874 24.5523 24.5981 24.7985 24.6113C25.0443 24.6245 25.2911 24.6258 25.5372 24.6317C25.7063 24.6358 26.0369 24.6639 26.0371 24.4051C26.0373 24.146 25.7063 24.1734 25.5372 24.1768C25.291 24.1817 25.0444 24.1824 24.7985 24.1939C24.5627 24.2049 24.3256 24.2139 24.0905 24.235C23.9472 24.2478 23.7996 24.2563 23.6555 24.2791C23.8901 23.9289 24.0768 23.5475 24.2015 23.1453C24.214 23.1048 24.2182 23.0669 24.2161 23.0319C24.269 22.9761 24.3027 22.8996 24.3027 22.8295C24.3027 22.6629 24.1729 22.5652 24.0212 22.5479C23.4208 22.4792 22.7593 22.3814 22.2754 21.9864C22.057 21.8082 21.8814 21.5975 21.716 21.3708C21.5303 21.1159 21.4606 20.7949 21.4599 20.4829C21.4599 20.4654 21.4309 20.4601 21.4282 20.4786C21.3373 21.1111 21.4684 21.8331 21.9222 22.3069C22.3677 22.7722 22.9729 22.9465 23.587 23.0483C23.3338 23.7718 22.9158 24.4073 22.3291 24.907C21.6752 25.4639 20.8476 25.7617 20.0037 25.8741C19.0934 25.9954 18.1392 25.9365 17.244 25.7385C16.3816 25.5478 15.538 25.2067 14.836 24.6623C14.4819 24.3876 14.1562 24.0639 13.8723 23.7174C13.638 23.4314 13.4584 23.1125 13.2573 22.8062C14.0076 23.012 14.9147 22.7309 15.5431 22.3338C15.9133 22.0999 16.2376 21.808 16.504 21.4607C16.6354 21.2894 16.7523 21.1086 16.8487 20.9152C16.8989 20.8146 16.9439 20.7112 16.9854 20.6068C17.011 20.5423 17.0362 20.476 17.0362 20.4051C17.036 20.3529 17.0229 20.3042 16.9967 20.2591C16.9429 20.202 16.9322 20.1855 16.9646 20.2094C16.9118 20.1013 16.7591 20.0738 16.6615 20.1299C16.6251 20.1509 16.5395 20.1914 16.4974 20.2591C16.4689 20.3049 16.4536 20.3596 16.4354 20.4098C16.4067 20.4891 16.3777 20.5675 16.3416 20.6438C16.2577 20.8212 16.1571 20.9905 16.0423 21.1495C15.8326 21.4404 15.563 21.7033 15.2694 21.9086C14.9611 22.124 14.6289 22.3002 14.2685 22.4102C13.8879 22.5263 13.5112 22.561 13.1185 22.6035C13.1144 22.5977 13.1103 22.5919 13.1061 22.5861C13.0985 22.5756 13.0821 22.579 13.0815 22.5927C13.0812 22.5993 13.0813 22.6059 13.0811 22.6124C13.0252 22.6387 13.0205 22.7176 13.0829 22.7479C13.106 23.1113 13.2628 23.4692 13.4336 23.7836C13.5047 23.9146 13.5851 24.0415 13.6722 24.1641C13.6464 24.1543 13.6175 24.148 13.585 24.1468C12.8825 24.1198 12.165 24.1545 11.4625 24.1802C11.119 24.1928 10.7758 24.2121 10.4325 24.2305C10.2555 24.24 10.0782 24.246 9.90187 24.2643C9.8137 24.2735 9.725 24.2807 9.6373 24.2939C9.63094 24.2949 9.62503 24.2959 9.61946 24.2969C9.83642 24.0831 10.0651 23.8806 10.3066 23.6917C11.0986 23.0719 12.0083 22.5668 12.9789 22.2922C12.9881 22.2896 12.9867 22.2738 12.9765 22.2749C11.0461 22.4724 9.43805 23.6893 8.31317 25.2174C7.689 26.0652 7.21561 27.0039 6.80825 27.9717C6.60293 28.4596 6.40866 28.9561 6.24597 29.46C6.16328 29.7161 6.126 29.9877 6.24443 30.2389C6.33526 30.4317 6.50287 30.5749 6.67855 30.6887C6.69022 30.6963 6.70224 30.7033 6.71404 30.7107C6.53445 31.3367 6.41414 31.9789 6.29871 32.6192C6.17332 33.3148 6.06393 34.0133 5.96997 34.7138C5.78218 36.1141 5.63833 37.5173 5.57551 38.9291C5.55814 39.3196 5.54653 39.7104 5.54146 40.1012C5.53893 40.2967 5.54005 40.4922 5.54271 40.6877C5.54575 40.9065 5.51614 41.1534 5.62747 41.3486C5.77623 41.6095 6.06515 41.5197 6.19223 41.3413C6.19407 41.3437 6.19598 41.3462 6.19786 41.3486C6.20938 41.326 6.21902 41.3033 6.22725 41.2807C6.24093 41.2506 6.24985 41.2192 6.2531 41.1871C6.27705 41.0659 6.26803 40.9429 6.26706 40.8112C6.26565 40.626 6.26672 40.4408 6.26725 40.2555C6.26828 39.9058 6.27226 39.5562 6.28221 39.2066C6.30215 38.5075 6.34108 37.809 6.39432 37.1117C6.50011 35.7265 6.65617 34.3477 6.78972 32.9652C6.8577 32.2613 6.93971 31.5556 6.95385 30.8479C7.11871 30.9347 7.28882 31.0134 7.45335 31.0972C7.75864 31.2527 8.0639 31.4081 8.36916 31.5636C8.66522 31.7143 8.96171 31.8642 9.25833 32.0139C9.55742 32.1648 9.85451 32.3644 10.191 32.4015C10.3709 32.4213 10.436 32.1789 10.33 32.0658C10.1916 31.9179 10.0078 31.8261 9.82306 31.74C10.0685 31.749 10.3143 31.7538 10.5602 31.7557C10.5636 32.0652 10.5527 32.3754 10.5372 32.6843C10.499 33.4418 10.4459 34.198 10.3956 34.9549C10.2912 36.528 10.19 38.102 10.1111 39.6767C10.0918 40.0624 10.0725 40.448 10.0531 40.8337C10.0437 41.0212 10.0307 41.2089 10.0254 41.3966C10.0194 41.6071 10.0246 41.871 10.2194 42.001C10.357 42.0928 10.505 42.0495 10.6083 41.9233C10.7464 41.7545 10.7462 41.5099 10.7573 41.3027C10.7599 41.2549 10.7622 41.207 10.7647 41.1591C10.9756 41.1865 11.185 41.2243 11.3969 41.2449C11.6557 41.2702 11.9161 41.285 12.176 41.2917C12.706 41.3053 13.2351 41.3102 13.7652 41.3102C14.8144 41.3103 15.8634 41.2923 16.9124 41.2754C19.0104 41.2415 21.1082 41.1827 23.2055 41.1176C23.787 41.0995 24.3684 41.0806 24.9498 41.0608C25.2508 41.0506 25.5519 41.0401 25.853 41.0294C26.138 41.0193 26.4493 41.0561 26.7001 40.9081C26.7074 40.9982 26.7148 41.0883 26.7227 41.1783C26.7378 41.3489 26.8576 41.4954 27.0396 41.4954C27.2106 41.4954 27.3576 41.3503 27.3565 41.1783C27.2926 39.6227 27.1544 38.0669 27.0449 36.5139C26.9443 35.0875 26.85 33.659 26.7062 32.2359C26.747 32.2623 26.7969 32.2787 26.8557 32.2789C27.0436 32.2797 27.2311 32.1631 27.4069 32.1012C27.5843 32.0387 27.7646 31.9846 27.9473 31.9402C28.0555 31.9139 28.1641 31.8919 28.273 31.8732C28.2598 32.0958 28.2632 32.3205 28.2591 32.5423C28.2527 32.8833 28.2421 33.2242 28.2339 33.5651C28.2175 34.2369 28.2118 34.9087 28.1989 35.5805C28.1731 36.9349 28.1305 38.2885 28.0581 39.6412C28.0383 40.0129 28.0159 40.3844 27.9911 40.7558C27.978 40.9518 27.9642 41.1478 27.9498 41.3437C27.9356 41.5363 27.9024 41.7409 27.9749 41.9255C27.9772 41.9241 27.9795 41.9228 27.9817 41.9215C28.0323 42.0804 28.2545 42.1567 28.3595 41.9758C28.5231 41.6938 28.4853 41.2897 28.5041 40.9724C28.5243 40.632 28.5424 40.2915 28.5584 39.9509C28.5905 39.2695 28.6127 38.5879 28.6256 37.9059C28.6514 36.5417 28.647 35.1754 28.5636 33.8132C28.5408 33.4407 28.5089 33.0689 28.4761 32.6973C28.4515 32.4186 28.438 32.1324 28.3945 31.8537C28.607 31.8223 28.8211 31.8041 29.0373 31.7988C29.2465 31.7936 29.3815 31.6048 29.3371 31.405C28.9898 29.84 28.5066 28.3014 27.9584 26.796Z" fill="black"/>
<path fill-rule="evenodd" clip-rule="evenodd" d="M19.2029 7.99219C20.9763 7.99219 22.8106 9.37025 23.4607 10.2496C24.0072 10.989 24.3015 14.3322 24.3015 16.5917C24.3015 17.0642 24.5616 17.955 24.4857 18.407C24.2076 20.0633 22.9956 21.4524 20.597 21.4524C18.1984 21.4524 16.4786 20.4993 14.6957 17.9401C13.8307 17.9401 13.4114 17.2751 13.4054 16.2256C13.3993 15.1761 14.2404 14.7942 14.2404 14.7942C14.2404 14.7942 13.9405 10.6524 14.6957 9.57409C15.451 8.49576 17.4295 7.99219 19.2029 7.99219Z" fill="#D08B5B"/>
<path fill-rule="evenodd" clip-rule="evenodd" d="M18.4568 7.40615C19.5765 7.29249 20.6737 7.38799 21.7771 7.5856C21.8615 7.60091 21.9093 7.65636 21.927 7.72302C22.4468 7.74682 22.9671 7.78505 23.4862 7.81354C23.6745 7.82388 23.7813 8.01046 23.6954 8.17894C23.6783 8.21242 23.6604 8.24498 23.6423 8.27754L23.6651 8.27002C23.8212 8.2198 23.9899 8.19504 24.1421 8.27476C24.3357 8.3762 24.4116 8.60005 24.3688 8.80608C24.3579 8.85868 24.3395 8.90909 24.3186 8.95828C24.361 8.95546 24.4038 8.9564 24.4463 8.96204C24.6724 8.99209 24.8405 9.16587 24.8523 9.39726C24.8698 9.74666 24.6453 10.1011 24.3807 10.3513C24.4191 10.4305 24.4338 10.5238 24.4178 10.6184C24.386 10.8053 24.2486 10.9173 24.0894 10.9903C24.1558 11.2017 24.1872 11.4227 24.1687 11.6485C24.1625 11.7239 24.0967 11.7862 24.0273 11.8015C24.2861 12.5158 24.4171 13.2827 24.5113 14.03C24.5784 14.5617 24.6115 15.0965 24.6155 15.6322C24.6175 15.8741 24.6135 16.1162 24.6034 16.3581L24.5993 16.4488C24.5868 16.7103 24.5862 16.9849 24.5394 17.2435C24.6993 17.5162 24.7636 17.8547 24.7908 18.1603C24.8245 18.5385 24.7711 18.9287 24.6521 19.2885C24.203 20.648 22.8475 21.5059 21.486 21.7288C20.2258 21.9352 18.7675 21.6575 18.0311 20.5099C18.0195 20.4917 18.0442 20.4767 18.0585 20.4886C18.5854 20.9182 19.1966 21.1098 19.8607 21.2031C21.0088 21.3641 22.2993 21.091 23.2207 20.3671C23.6629 20.0196 23.9818 19.5136 24.1221 18.9691C24.1936 18.6907 24.2183 18.4004 24.1902 18.114C24.1614 17.8234 24.0331 17.5754 23.9522 17.3008C23.925 17.2081 23.9538 17.122 24.0103 17.0607C24.0262 16.8377 24.0637 16.6129 24.078 16.3906C24.094 16.1379 24.1037 15.8852 24.1071 15.6322C24.1137 15.1074 24.0918 14.5817 24.0478 14.0592C23.9672 13.1023 23.7532 12.1686 23.6277 11.2199C23.5812 11.2617 23.5146 11.2788 23.4447 11.2423L23.4375 11.2383L23.3994 11.2164C23.3972 11.2164 23.3947 11.2168 23.3925 11.217C23.1317 11.2424 22.8612 11.2061 22.6114 11.1281C22.3499 11.0467 22.1073 10.9215 21.8905 10.7546C21.8493 10.964 21.8321 11.1757 21.8318 11.3892C21.8315 11.5226 21.6906 11.5919 21.5788 11.5349C21.0831 11.2825 20.6097 10.9916 20.1602 10.6647C20.1077 10.9343 20.0553 11.2039 20.0025 11.4738C19.9822 11.5778 19.85 11.6197 19.7654 11.5703C19.4287 11.3739 19.138 11.1169 18.9012 10.8112C18.8539 10.9019 18.8065 10.9925 18.7588 11.0829L18.687 11.2183C18.6161 11.3514 18.5211 11.4986 18.3659 11.5411C18.2016 11.5862 18.0645 11.4795 18.0092 11.3304C17.9923 11.2841 17.9767 11.2364 17.9624 11.1885C17.8224 11.5089 17.6644 11.822 17.4857 12.1207C17.2178 12.5687 16.896 12.968 16.5753 13.3775C16.4779 13.5018 16.3111 13.3831 16.2976 13.2623C16.2898 13.1912 16.2833 13.1198 16.2776 13.0487C16.0907 13.4269 15.8957 13.8014 15.6832 14.1651L15.7136 14.2847C15.8013 14.6378 15.8741 14.9934 15.9533 15.3484C15.9788 15.463 15.9181 15.6267 15.7846 15.6462C15.6251 15.6695 15.4742 15.7512 15.3109 15.695C15.1328 15.6337 15.0976 15.4794 15.0135 15.3331C14.9967 15.3039 14.9772 15.2772 14.9562 15.2517L14.9509 15.2587C14.9378 15.2759 14.9065 15.2571 14.9143 15.2374L14.9235 15.2146C14.8512 15.1378 14.7648 15.0736 14.6853 15.0047C14.4964 14.9727 14.2839 15.0077 14.1538 15.0846C13.8574 15.2599 13.7212 15.6213 13.7184 15.9535C13.715 16.3424 13.8352 16.7795 14.0382 17.112C14.1276 17.2582 14.25 17.3903 14.4118 17.4552C14.5723 17.5197 14.7463 17.4996 14.9097 17.5604C15.0177 17.6008 15.0842 17.721 15.019 17.83C15.0146 17.8375 15.0096 17.8444 15.0049 17.8516L15.0535 17.9162C15.0869 17.961 15.1217 18.0089 15.1542 18.0588C15.2373 18.1547 15.3247 18.247 15.4094 18.3413C15.5658 18.515 15.7176 18.6935 15.8716 18.8698C16.0169 19.0361 16.1705 19.1923 16.3289 19.346C16.4785 19.4917 16.6653 19.6141 16.8027 19.7694C16.9363 19.9209 16.9726 20.1855 16.7527 20.2732C16.5094 20.3705 16.294 20.1425 16.1303 19.9905L16.1234 19.9842C15.8232 19.7072 15.552 19.3907 15.3368 19.0423C15.1235 19.1878 14.815 19.2017 14.6027 19.0562C14.4909 18.9796 14.4052 18.851 14.3635 18.711C14.3243 18.7198 14.285 18.725 14.2467 18.7244C14.227 18.7359 14.2072 18.747 14.1872 18.7574C14.0289 18.84 13.8343 18.8031 13.7618 18.6274C13.6959 18.468 13.7639 18.2868 13.8233 18.1332L13.8356 18.1014C13.8693 18.0138 13.9065 17.9183 13.9527 17.8284C13.824 17.7314 13.714 17.6108 13.621 17.4737C13.3083 17.0118 13.1522 16.3364 13.2212 15.7854C13.2627 15.4528 13.4186 15.1084 13.6737 14.8842L13.6644 14.8598C13.5929 14.6779 13.5279 14.4953 13.4857 14.3031C13.4364 14.0783 13.4123 13.8453 13.3905 13.6164C13.3443 13.133 13.3568 12.6386 13.4183 12.157C13.5338 11.2506 13.8268 10.3607 14.3468 9.60642C14.1994 9.42948 14.0826 9.22126 14.1435 8.98176C14.1713 8.87183 14.2347 8.76759 14.3303 8.70463C14.383 8.6699 14.4458 8.66458 14.4986 8.63577L14.5145 8.62701C14.5377 8.61345 14.5199 8.61489 14.5061 8.55186C14.4515 8.30009 14.4968 8.05683 14.7732 7.97323C15.0333 7.89464 15.2794 8.06153 15.4334 8.26035C15.8363 7.97382 16.3673 7.82388 16.8342 7.69644C17.3652 7.55206 17.9099 7.46192 18.4568 7.40615ZM14.1048 15.8508C14.1029 15.6457 14.2968 15.5192 14.4877 15.5527C14.6159 15.5751 14.7228 15.6518 14.8232 15.731L14.8721 15.7698C14.9944 15.8661 15.1347 15.9698 15.2076 16.106C15.3144 16.307 15.0886 16.5775 14.8778 16.4366C14.7332 16.3395 14.6405 16.1838 14.5456 16.0392L14.5358 16.0242C14.4927 15.9594 14.4549 15.8905 14.3959 15.8386L14.3831 15.8274C14.3637 15.8108 14.3428 15.7956 14.3178 15.7885C14.2694 15.7745 14.1798 15.7941 14.1585 15.8518L14.1566 15.8577C14.1488 15.8868 14.1051 15.8805 14.1048 15.8508Z" fill="black"/>
<path fill-rule="evenodd" clip-rule="evenodd" d="M21.2085 19.0034C20.9981 18.9175 20.8103 18.7743 20.6731 18.5913C20.6254 18.5277 20.613 18.4606 20.623 18.3991C20.6343 18.33 20.6751 18.2674 20.7308 18.2254C20.7867 18.1833 20.8566 18.1625 20.9242 18.1731C20.9829 18.1823 21.0414 18.2145 21.0876 18.2812L21.0973 18.2946C21.1789 18.405 21.2852 18.4956 21.4064 18.554C21.5232 18.6103 21.6538 18.6366 21.7889 18.6213C22.0463 18.5922 22.2237 18.4529 22.4123 18.2638C22.4357 18.24 22.459 18.2153 22.4825 18.1903C22.4974 18.1676 22.518 18.153 22.5408 18.1454C22.5662 18.1369 22.595 18.1374 22.6213 18.1466C22.6466 18.1554 22.6693 18.1722 22.6845 18.1946C22.699 18.2158 22.7072 18.242 22.7045 18.2722C22.6873 18.4682 22.5849 18.6431 22.4394 18.7804C22.2778 18.933 22.0636 19.0385 21.862 19.0755C21.6398 19.1163 21.4134 19.087 21.2085 19.0034ZM21.9668 15.98C22.2031 16.1237 22.5632 16.4588 22.309 16.8151C22.0097 17.1293 21.5788 16.7691 21.3664 16.6062C21.1695 16.4799 20.9483 16.8047 21.131 16.9521C22.6654 18.0885 23.2881 16.0176 22.0863 15.811C21.954 15.7883 21.9048 15.9355 21.9668 15.98ZM19.2171 14.658C19.2432 14.3338 19.7369 14.2601 19.786 14.581C19.83 14.8684 19.7782 15.1325 19.6488 15.3913C19.5251 15.6385 19.2143 15.5232 19.1908 15.298C19.1593 14.9963 19.2009 14.8597 19.2171 14.658ZM22.975 14.5145C23.0438 14.4243 23.1432 14.3627 23.2622 14.3975C23.6342 14.5063 23.5246 15.0346 23.3939 15.2917C23.323 15.4314 23.0935 15.4668 22.9898 15.3438C22.8208 15.1433 22.7399 14.7429 22.9547 14.5454C22.9605 14.5352 22.967 14.5249 22.975 14.5145ZM19.6435 13.2391L19.7023 13.2288C19.8841 13.1974 20.1101 13.1672 20.2387 13.3134C20.3069 13.3909 20.3304 13.535 20.2387 13.6092C20.0774 13.7398 19.8992 13.6892 19.7059 13.7002C19.5467 13.7094 19.3936 13.7357 19.2402 13.7796C18.9037 13.8758 18.6295 14.0515 18.3421 14.2443C18.3044 14.2696 18.2659 14.2214 18.2839 14.1861C18.4498 13.861 18.7713 13.5939 19.0934 13.4312C19.2653 13.3443 19.4534 13.2722 19.6435 13.2391ZM22.6359 13.0935L22.6809 13.1027C23.1703 13.2051 23.8062 13.4095 24.0379 13.8904C24.0468 13.9584 24.0374 13.973 24.0298 13.9825L24.0273 13.9857C24.0211 13.9938 24.0161 14.005 23.9866 14.0143C23.9784 14.0123 23.9702 14.0103 23.9618 14.0081C23.8556 13.9802 23.7715 13.9419 23.6902 13.902L23.6019 13.8586C23.4996 13.8083 23.3963 13.76 23.2869 13.7242C23.0533 13.648 22.8131 13.5943 22.5691 13.5657C22.5162 13.5595 22.4653 13.5416 22.4252 13.511C22.387 13.482 22.3579 13.4418 22.3446 13.3883C22.3274 13.3192 22.3324 13.2668 22.3695 13.2044C22.3973 13.1575 22.4373 13.1251 22.4831 13.1064C22.5298 13.0874 22.583 13.0829 22.6359 13.0935Z" fill="black"/>
<path fill-rule="evenodd" clip-rule="evenodd" d="M23.6123 11.3148C23.7932 11.2528 23.9375 11.441 23.9027 11.6051C23.8617 11.7983 23.6602 11.9533 23.5265 12.0895C23.3863 12.2329 23.2433 12.3735 23.0949 12.5087C22.8117 12.7674 22.5181 13.011 22.2085 13.238L22.1139 13.3074C21.8301 13.5151 21.5472 13.7179 21.2433 13.8977C21.0786 13.9948 20.9124 14.0887 20.744 14.1792C20.684 14.2114 20.6107 14.2612 20.5353 14.2982C20.811 14.5111 21.0232 14.8361 21.0692 15.1389C21.1832 15.891 20.6987 16.588 20.0151 16.8651C19.6742 17.0031 19.2949 17.0432 18.9306 17.0016C18.56 16.9593 18.1844 16.8497 17.9437 16.546C17.73 16.2764 17.653 15.9323 17.6376 15.5945C17.6304 15.4341 17.632 15.2763 17.6658 15.1345C17.5184 15.1358 17.371 15.1351 17.2248 15.1367C16.8636 15.1401 16.5018 15.1417 16.1403 15.1317C15.7675 15.121 15.3966 15.1044 15.0251 15.0713C14.862 15.0565 14.6999 15.0324 14.5378 15.0093C14.3804 14.987 14.2066 14.9786 14.0595 14.9141C14.0495 14.91 14.0537 14.8956 14.0624 14.8927C14.2192 14.8421 14.3973 14.8511 14.5606 14.8411L14.7199 14.8314C14.8525 14.8235 14.985 14.8162 15.1181 14.812C15.4253 14.8019 15.7324 14.7994 16.0396 14.7941L16.1713 14.7916C16.5328 14.7844 16.8943 14.7804 17.2558 14.7688C17.4057 14.7641 17.5559 14.7553 17.7065 14.7472C17.724 14.7074 17.7497 14.6711 17.7744 14.6357C17.8483 14.5299 17.9422 14.4366 18.0395 14.352C18.2389 14.1779 18.4633 14.0486 18.7137 13.9619C18.9618 13.8762 19.3247 13.8337 19.5872 13.8393C19.8497 13.8448 20.2238 13.8818 20.344 14.0965C20.3566 14.1188 20.5854 14.0759 20.6533 14.0239C20.812 13.9027 20.9678 13.7781 21.1209 13.6503C21.4051 13.4127 21.6974 13.1788 21.9666 12.9246C22.2442 12.6622 22.5196 12.3954 22.7838 12.1199C22.9165 11.9818 23.0489 11.8434 23.1775 11.7019C23.309 11.5575 23.422 11.3797 23.6123 11.3148Z" fill="black"/>
</svg>
