<svg width="36" height="48" viewBox="0 0 36 48" fill="none" xmlns="http://www.w3.org/2000/svg">
<path fill-rule="evenodd" clip-rule="evenodd" d="M26.8257 26.1625C26.5529 25.1042 26.302 24.6555 25.8174 24.2876C25.3641 23.9436 24.7024 23.6546 23.7369 23.4435C22.7313 23.2676 22.7028 22.7449 22.4506 21.9047C22.3771 21.6521 22.0126 21.5849 21.8553 21.7669C21.8331 21.743 21.81 21.7211 21.786 21.7012C21.8074 21.5808 21.6321 21.2355 21.6379 21.1203C21.6991 19.9175 21.3058 19.3136 20.324 19.089C20.1106 19.0402 18.6604 19.0114 18.4522 19.069C17.5422 19.3207 16.6463 20.1197 16.7834 21.0822C16.4978 21.4556 16.2182 21.6835 15.7775 21.8038C15.0911 21.891 15.4359 31.6162 16.6279 37.4427C17.1393 39.9426 29.3681 35.6877 28.8155 34.4356C28.8939 34.2061 28.7511 33.9539 28.8155 33.7169C28.8622 33.5454 28.9816 33.4745 29.0417 33.3046C29.1263 33.0656 29.0343 32.745 28.9391 32.5012C28.9001 32.3796 29.0109 32.2488 29.0417 32.1248C29.1879 31.5398 28.8532 31.5913 28.612 31.2003C28.6156 31.1991 28.6783 30.9199 28.678 30.9213C28.715 30.7219 28.6224 30.4666 28.5417 30.3002C28.4872 30.1878 28.3703 30.1174 28.2542 30.1303C28.3711 29.7332 28.519 29.4028 28.678 29.0203C28.9593 28.346 29.2268 27.6406 29.6306 27.0302C29.796 26.7803 29.6624 26.5504 29.3948 26.5334C28.5285 26.4784 27.6717 26.3536 26.8257 26.1625Z" fill="#D08B5B"/>
<path fill-rule="evenodd" clip-rule="evenodd" d="M25.4735 26.2441L23.4961 29.5916C23.4961 29.5916 23.9652 29.6384 24.1551 29.7296C24.3449 29.8209 25.2166 30.9293 25.2166 30.9293L25.3551 31.5397L25.0269 32.0318L25.1549 32.3407C25.1549 32.3407 25.2462 32.1314 25.4735 31.9689C25.7009 31.8064 26.2023 31.5397 26.2023 31.5397C26.2023 31.5397 26.0356 31.4505 26.0356 31.3458C26.0356 31.2411 25.8889 30.7946 26.2023 30.6259C26.5156 30.4572 28.135 30.0624 28.135 30.0624L29.7762 26.5997L25.4735 26.2441Z" fill="#EC7495"/>
<path fill-rule="evenodd" clip-rule="evenodd" d="M16.6521 21.8262L22.9311 22.9285L25.8174 24.2873L26.2886 24.6503L23.496 29.5913L19.1839 30.3783L18.0853 33.2326L18.3095 36.45L25.3244 35.6134L28.3503 35.2537L29.0616 38.1261L28.9331 39.3078L28.7462 39.907L21.2448 41.9328C21.2448 41.9328 17.425 41.5624 16.7479 41.5624C16.0708 41.5624 11.1062 42.0556 11.1062 42.0556L9.95753 41.9328C9.95753 41.9328 7.41611 39.2535 7.02193 38.2999C6.62776 37.3464 5.77539 31.5499 5.77539 31.5499L5.86924 30.6592L8.06498 25.0071C8.06498 25.0071 8.35819 24.7407 8.72785 24.2873C9.09751 23.8338 16.6521 21.8262 16.6521 21.8262Z" fill="#9DDADB"/>
<path fill-rule="evenodd" clip-rule="evenodd" d="M28.0171 29.9908C27.4496 30.0197 26.8816 30.1546 26.3683 30.3991C26.1582 30.4993 25.9679 30.644 25.9122 30.8819C25.8841 31.0035 25.8909 31.129 25.9059 31.2518C25.9172 31.3447 25.9201 31.4634 26.0008 31.5263C26.0146 31.537 26.0293 31.5451 26.0446 31.5511C25.8553 31.6365 25.675 31.7393 25.5147 31.8451C25.3683 31.9418 25.2177 32.0909 25.1501 32.259C25.1445 32.2399 25.1388 32.2221 25.1332 32.2052C25.018 31.8645 24.8406 31.5855 24.5611 31.398C24.5293 31.2823 24.1887 30.7843 23.8723 30.8031C23.5258 30.8234 23.2471 30.8488 22.9338 31.0081C22.8196 31.0056 22.7056 31.0072 22.593 31.0122C22.5736 31.0128 22.5745 31.0392 22.593 31.0413C22.6844 31.0529 22.7758 31.0657 22.8672 31.0808C23.0844 31.1156 23.301 31.1597 23.5128 31.2145C23.767 31.2803 24.0299 31.3463 24.2675 31.4612C24.7282 31.6845 25.0133 32.2681 24.9548 32.776C24.9451 32.8592 24.9129 33.111 24.7973 33.085C24.6997 33.0631 24.6609 32.8592 24.6268 32.7838C24.5354 32.5834 24.3708 32.4525 24.1733 32.3639C23.9413 32.2596 23.6931 32.1892 23.4527 32.1072C23.3166 32.0605 23.1805 32.0138 23.044 31.9675C22.9044 31.9196 22.7717 31.8535 22.623 31.887C22.5332 31.9074 22.5229 32.0145 22.5733 32.0759C22.6499 32.1695 22.7639 32.197 22.8744 32.2355C23.0202 32.2863 23.1658 32.337 23.3113 32.3877C23.5363 32.466 23.772 32.532 23.9914 32.6279L23.9845 32.6435C23.9667 32.6385 23.9457 32.6564 23.9492 32.6783C23.982 32.8809 24.0277 33.1151 23.977 33.318C23.937 33.4789 23.7958 33.6571 23.6124 33.6098C23.6412 33.5835 23.6518 33.5381 23.6324 33.4961C23.5598 33.3408 22.6083 32.7277 22.5235 32.9554C22.5207 32.9635 22.5294 32.9695 22.5363 32.9682C22.6086 32.9532 22.7298 33.0765 22.7876 33.1157C22.8712 33.1721 22.956 33.2272 23.0387 33.2851C23.1291 33.3484 23.2174 33.4147 23.3035 33.4833C23.3711 33.5372 23.4221 33.5932 23.4997 33.6205C23.459 33.6398 23.4268 33.6758 23.413 33.7219C23.378 33.8418 23.3104 33.9436 23.193 33.9965C23.07 34.0516 22.9313 34.0168 22.8017 34.0303C22.6252 34.0481 22.4712 34.1321 22.3426 34.252C22.0725 34.5043 21.937 34.949 21.5592 35.0683C21.3335 35.1394 21.0831 35.0946 20.8546 35.0623C20.5996 35.0263 20.351 34.9978 20.0941 35.0354C19.8481 35.0714 19.6155 35.1565 19.3908 35.2605C19.1802 35.3579 18.9473 35.4681 18.7604 35.6134C18.7219 35.4947 18.6831 35.3773 18.6537 35.2561C18.5842 34.9697 18.5467 34.6778 18.5376 34.3835C18.5291 34.1033 18.5448 33.8218 18.5689 33.5428C18.5808 33.4034 18.5996 33.2647 18.6114 33.1254C18.6145 33.0903 18.6208 33.0528 18.6255 33.0152C18.9592 32.8182 19.3097 32.6673 19.6631 32.512C19.664 32.5117 19.665 32.5111 19.6659 32.5108C19.6769 32.5057 19.6875 32.5011 19.6985 32.4964C19.6981 32.4957 19.6978 32.4951 19.6972 32.4945C19.7376 32.4698 19.7658 32.4369 19.7827 32.3999C20.2919 32.0621 20.7176 31.6009 21.0349 31.0629C21.1679 30.8375 21.296 30.6036 21.47 30.4061C21.6553 30.1953 21.8753 30.0701 22.1476 30.0049C22.4659 29.9286 22.7939 29.8828 23.1201 29.8568C23.2981 29.8428 23.4972 29.8208 23.6913 29.8218C23.8265 29.8227 23.9588 29.8343 24.0803 29.8678C24.2603 29.9173 24.3654 30.0541 24.4784 30.1925C24.5864 30.3253 24.6938 30.4583 24.7945 30.5967C24.89 30.7279 24.9802 30.8635 25.0584 31.0056C25.1053 31.0908 25.1489 31.1785 25.1855 31.269C25.1983 31.3009 25.2152 31.3372 25.223 31.3704C25.2309 31.4039 25.2165 31.4393 25.254 31.4393C25.0991 31.4415 24.9961 31.8279 25.1501 31.8189C25.3666 31.8063 25.4755 31.5466 25.433 31.3162C25.3574 30.9052 24.9486 30.4088 24.8678 30.3036C24.689 30.0713 24.5047 29.7682 24.2186 29.6602C24.2146 29.6586 24.2102 29.6571 24.2061 29.6558C24.2894 29.5769 24.3551 29.4824 24.418 29.3862C24.4828 29.2873 24.5601 29.1739 24.5814 29.0565C24.5949 28.9817 24.5019 28.9391 24.4578 29.0045C24.3936 29.1 24.3626 29.2209 24.3147 29.3258C24.2659 29.4322 24.2064 29.5328 24.1595 29.6401C24.0465 29.6054 23.9244 29.5895 23.8002 29.5841C23.957 29.3718 24.2249 28.9623 24.2571 28.9097C24.4055 28.6661 24.5467 28.415 24.6816 28.1635C24.8274 27.8911 24.9523 27.6074 25.0919 27.3319C25.1711 27.1757 25.2509 27.0182 25.3388 26.8666C25.3692 26.8146 25.4017 26.7627 25.4387 26.7154C25.4459 26.706 25.455 26.6982 25.4634 26.6894C25.4731 26.6841 25.4831 26.6781 25.4888 26.675C25.5394 26.6459 25.5573 26.5783 25.593 26.5353C25.6499 26.4662 25.7169 26.458 25.8027 26.4571C25.9854 26.4552 26.1689 26.4624 26.3514 26.4674C26.6196 26.4749 26.8875 26.4856 27.1554 26.4996C27.2365 26.504 27.3172 26.5084 27.3983 26.5134C27.788 26.5366 28.1773 26.567 28.5658 26.6043C28.9094 26.6371 29.2531 26.6907 29.597 26.7163C29.1313 27.8232 28.6149 28.91 28.0302 29.9589C28.0243 29.9695 28.0199 29.9802 28.0171 29.9908ZM25.433 32.8423C25.3579 32.8768 25.285 32.9197 25.2171 32.9686C25.2283 32.8925 25.2312 32.8123 25.228 32.7318C25.2841 32.7919 25.3557 32.8264 25.433 32.8423ZM28.6396 30.9383C28.6343 30.9389 28.6293 30.9418 28.6268 30.9471C28.5229 31.1616 28.5663 31.4011 28.736 31.5692C28.8249 31.6569 29.0186 31.7558 29.0124 31.8999C29.007 32.0164 28.8803 32.114 28.8262 32.2102C28.7758 32.2997 28.757 32.398 28.7974 32.4951C28.849 32.6194 28.9933 32.6689 29.0427 32.791C29.1053 32.946 29.0036 33.1329 28.9323 33.2679C28.8659 33.3928 28.7801 33.5177 28.7232 33.6499C28.3417 33.8475 27.4759 34.2063 27.3717 34.2263C27.2446 34.251 27.1172 34.2745 26.9895 34.2965C26.7444 34.339 26.4988 34.3785 26.2525 34.4132C26.1122 34.4329 25.9717 34.4524 25.8312 34.4677C25.7085 34.4809 25.5701 34.4987 25.4712 34.4064C25.2719 34.2197 25.3836 33.9069 25.5097 33.7184C25.5122 33.7147 25.5122 33.7112 25.5113 33.7081C25.6302 33.6802 25.7489 33.6477 25.8672 33.6248C26.0947 33.581 26.3238 33.5441 26.5532 33.5112C27.0246 33.4438 27.4991 33.3994 27.9729 33.3546C28.0903 33.3433 28.0915 33.1586 27.9729 33.1696C27.2922 33.2319 26.608 33.291 25.9363 33.4223C25.7679 33.4548 25.6008 33.4917 25.4346 33.5334C25.3561 33.5528 25.2719 33.5832 25.1895 33.5841C25.1845 33.5841 25.1795 33.5841 25.1745 33.5838C25.0133 33.5788 24.9899 33.4407 25.0784 33.3258C25.0894 33.3117 25.1007 33.2976 25.1122 33.2842C25.2687 33.0975 25.4637 32.9729 25.6646 32.8439C25.8897 32.8132 26.1141 32.745 26.3345 32.6949C26.8784 32.5709 27.4224 32.4469 27.9667 32.3232C28.0734 32.2988 28.028 32.1347 27.9213 32.1588C27.5082 32.2525 27.095 32.3461 26.6818 32.4397L26.0772 32.5769C25.9564 32.6041 25.8055 32.6589 25.6634 32.6786C25.5933 32.6883 25.5254 32.6895 25.464 32.6752C25.2659 32.6282 25.2559 32.3805 25.3413 32.2333C25.4371 32.068 25.618 31.9647 25.7786 31.8711C26.0568 31.7086 26.3529 31.5918 26.6421 31.4571C26.6935 31.4459 26.7448 31.4346 26.7961 31.4233C27.0947 31.3576 27.4359 31.3253 27.7169 31.2048C27.8011 31.1691 27.7551 31.0363 27.6719 31.0382C27.4537 31.0429 27.2255 31.1205 27.0124 31.1666C26.7817 31.2167 26.5507 31.2665 26.3201 31.3162C26.2969 31.3212 26.1598 31.3651 26.1391 31.3554C26.126 31.3491 26.1213 31.3034 26.1169 31.2733C26.1028 31.1744 26.0925 31.0705 26.1079 30.9712C26.1417 30.7486 26.3273 30.644 26.515 30.5585C26.9332 30.3684 27.3917 30.2495 27.8481 30.2019C27.9532 30.1909 28.0584 30.1841 28.1642 30.1806C28.2884 30.1768 28.3908 30.1549 28.4537 30.2773C28.5526 30.4702 28.6071 30.7182 28.6396 30.9383ZM28.0589 37.9315C27.9678 37.6163 27.9926 37.2797 27.9302 36.9581C27.898 36.7922 27.854 36.6277 27.806 36.4657C27.7672 36.3349 27.7026 36.1958 27.6953 36.0592C27.6948 36.0501 27.7056 36.0449 27.7129 36.0491C27.8415 36.1227 27.9402 36.2819 28.0135 36.4069C28.1013 36.5564 28.1683 36.7129 28.2223 36.8775C28.3301 37.2055 28.4185 37.601 28.2796 37.9315C28.2382 38.0299 28.093 38.0496 28.0589 37.9315ZM24.5031 40.3179C24.3673 40.2231 24.2684 40.0906 24.1532 39.9737C24.04 39.8587 24.217 39.6815 24.3303 39.7966C24.4285 39.8963 24.5138 40.0209 24.6294 40.1016C24.6851 40.1404 24.7109 40.2106 24.6744 40.273C24.6422 40.3281 24.5586 40.3566 24.5031 40.3179ZM23.7459 36.675C23.9938 36.5677 24.2375 36.451 24.4969 36.3738C24.6519 36.3276 24.7176 36.5694 24.5635 36.6153C24.3246 36.6864 24.1005 36.7925 23.8723 36.8912C23.7258 36.9546 23.5984 36.7387 23.7459 36.675ZM21.1284 36.5999C21.0678 36.4503 21.3101 36.3859 21.3698 36.5334C21.4386 36.7031 21.5174 36.8685 21.5862 37.0383C21.6467 37.1879 21.4044 37.2524 21.3447 37.1049C21.276 36.9351 21.1971 36.7697 21.1284 36.5999ZM18.5448 39.5876C18.5044 39.6415 18.4371 39.6706 18.3735 39.6326C18.3202 39.6006 18.2877 39.5157 18.3286 39.4612C18.4479 39.3021 18.5689 39.1449 18.7087 39.003C18.8221 38.888 18.9991 39.0652 18.8858 39.1801C18.7609 39.3068 18.6514 39.4455 18.5448 39.5876ZM18.1754 22.8239C18.2903 22.9024 18.391 22.9978 18.4892 23.096C18.6033 23.2101 18.4263 23.3872 18.3121 23.2731C18.2294 23.1904 18.1459 23.1064 18.049 23.0402C17.993 23.0019 17.9679 22.9308 18.0041 22.8688C18.0366 22.8133 18.1195 22.7858 18.1754 22.8239ZM21.9341 26.8548C21.8691 26.985 21.8106 27.1126 21.8069 27.2605C21.803 27.4217 21.5526 27.4218 21.5566 27.2605C21.5614 27.0669 21.6327 26.899 21.7179 26.7284C21.7899 26.5839 22.0058 26.711 21.9341 26.8548ZM23.3132 23.6174C23.4478 23.5277 23.573 23.7448 23.4396 23.8337C23.3314 23.9059 23.2232 23.978 23.1151 24.0502C22.9805 24.1399 22.8553 23.9229 22.9887 23.8339C23.0969 23.7617 23.205 23.6896 23.3132 23.6174ZM17.3315 29.2777C17.3085 29.4368 17.0673 29.3687 17.09 29.2111C17.1253 28.9674 17.1682 28.727 17.2343 28.4897C17.2776 28.3343 17.519 28.4007 17.4757 28.5563C17.4097 28.7936 17.3667 29.034 17.3315 29.2777ZM16.4536 32.147C16.2924 32.1436 16.2924 31.8931 16.4536 31.8965C16.5995 31.8996 16.7428 31.938 16.8835 31.9731C17.04 32.0123 16.9733 32.2538 16.817 32.2147C16.698 32.185 16.5769 32.1496 16.4536 32.147ZM16.1295 37.9271C16.0742 37.954 16.0174 37.9783 15.9614 38.0039C15.8493 38.0551 15.7373 38.1065 15.6253 38.1579C15.392 38.2651 15.1588 38.3726 14.9259 38.4804C14.4595 38.6964 13.9896 38.9047 13.5221 39.1183C13.0454 39.3362 12.5699 39.5569 12.095 39.7788C11.8713 39.8833 11.6459 39.9839 11.4209 40.0857C11.2286 40.1727 10.9908 40.3248 10.7796 40.3391C10.7688 40.3398 10.7651 40.3261 10.7713 40.319C10.8511 40.2283 10.9784 40.1755 11.0832 40.1165C11.1903 40.0562 11.2994 39.9995 11.408 39.942C11.6345 39.8219 11.8612 39.7029 12.0898 39.5871C12.547 39.3556 13.0052 39.1258 13.4634 38.8963C13.9308 38.6621 14.3976 38.4265 14.869 38.2007C15.091 38.0944 15.3132 37.9884 15.5355 37.8827C15.6559 37.8255 15.7764 37.7683 15.8969 37.7113C15.949 37.6866 16.0005 37.66 16.0537 37.638C16.1244 37.6087 16.1781 37.6147 16.2511 37.5967C16.37 37.5673 16.4215 37.7186 16.3302 37.7845C16.255 37.8387 16.2155 37.8851 16.1295 37.9271ZM14.458 40.4955C14.4323 40.4331 14.4861 40.3571 14.5454 40.3415C14.6165 40.3227 14.6735 40.3659 14.6994 40.4289C14.7681 40.596 14.8658 40.7493 14.9917 40.8787C15.1042 40.9944 14.9272 41.1715 14.8146 41.0558C14.6569 40.8936 14.5436 40.7039 14.458 40.4955ZM13.2282 36.4748C13.114 36.3607 13.2911 36.1836 13.4053 36.2977L13.7298 36.6223C13.8439 36.7365 13.6668 36.9136 13.5527 36.7995L13.2282 36.4748ZM9.89893 35.9456C9.66563 36.014 9.39351 36.077 9.23445 36.2761C9.22669 36.2858 9.21364 36.2733 9.2183 36.2636C9.42193 35.8413 10.0059 35.6932 10.4102 35.5452C10.6962 35.4405 10.9896 35.3537 11.2855 35.2762C11.256 34.9385 11.3375 34.5766 11.3659 34.2406C11.3961 33.8818 11.4208 33.5221 11.4334 33.1622C11.4463 32.7951 11.4495 32.4255 11.4374 32.0583C11.4254 31.6924 11.3779 31.331 11.3571 30.9664C11.3551 30.9311 11.4042 30.9294 11.4148 30.9586C11.5376 31.2969 11.5901 31.6718 11.6301 32.0286C11.6713 32.3961 11.685 32.7626 11.6797 33.1323C11.6743 33.5124 11.6522 33.8916 11.6219 34.2705C11.6075 34.4501 11.5908 34.6295 11.5751 34.809C11.5631 34.9459 11.5575 35.0818 11.5296 35.2144C11.708 35.1706 11.8869 35.1291 12.0652 35.0888C12.6338 34.9605 13.2048 34.8414 13.7709 34.7026C14.0489 34.6345 14.3228 34.5529 14.5995 34.4804C14.8601 34.4122 15.135 34.3295 15.4025 34.299C15.498 34.2881 15.5101 34.4188 15.4469 34.4631C15.2295 34.6158 14.9408 34.7221 14.6897 34.8076C14.4377 34.8934 14.1757 34.9551 13.9174 35.0186C13.3787 35.1512 12.8349 35.2595 12.2919 35.3724C11.7497 35.4852 11.2065 35.5971 10.6704 35.7362C10.4122 35.8032 10.1549 35.8704 9.89893 35.9456ZM8.62046 29.2443C8.48106 29.3262 8.3552 29.1096 8.49411 29.028C8.67586 28.9213 8.86957 28.8411 9.06485 28.7629C9.2147 28.7029 9.27918 28.9452 9.13142 29.0044C8.95592 29.0747 8.78378 29.1484 8.62046 29.2443ZM8.11567 38.5504C7.97589 38.6315 7.84995 38.415 7.98932 38.3342C8.18506 38.2207 8.39943 38.1449 8.60228 38.0456C8.7466 37.9749 8.87336 38.191 8.72863 38.2619C8.52582 38.3612 8.31142 38.4369 8.11567 38.5504ZM7.88863 33.2678C8.02378 33.3963 8.20416 33.4567 8.37423 33.5242C8.52253 33.583 8.45749 33.8251 8.30766 33.7657C8.09577 33.6817 7.87993 33.6049 7.71157 33.4449C7.59445 33.3336 7.77182 33.1568 7.88863 33.2678ZM9.38381 26.0937C9.53239 26.152 9.46732 26.3941 9.31724 26.3352C9.15079 26.2699 8.9789 26.2202 8.81245 26.1549C8.66391 26.0966 8.72895 25.8544 8.87902 25.9133C9.04547 25.9786 9.21736 26.0283 9.38381 26.0937ZM12.0215 23.2441C12.1793 23.2175 12.2466 23.4589 12.088 23.4857C11.8914 23.5189 11.6977 23.5577 11.5111 23.6299C11.3605 23.6882 11.2959 23.446 11.4446 23.3884C11.6311 23.3162 11.8248 23.2773 12.0215 23.2441ZM12.893 30.1821C12.7482 30.1109 12.8752 29.895 13.0193 29.9658C13.1712 30.0405 13.3285 30.0983 13.4942 30.1336C13.652 30.1672 13.5848 30.4086 13.4277 30.3751C13.2412 30.3354 13.0637 30.2661 12.893 30.1821ZM13.7161 26.274C13.872 26.2313 13.9379 26.473 13.7827 26.5156C13.5096 26.5904 13.2284 26.6293 12.9534 26.6959C12.7966 26.7339 12.7303 26.4923 12.8868 26.4544C13.1619 26.3878 13.4431 26.3489 13.7161 26.274ZM17.208 25.0476C17.3665 25.077 17.299 25.3183 17.1415 25.2892C16.9738 25.2582 16.8039 25.2577 16.6339 25.2576C16.4725 25.2575 16.4728 25.007 16.6339 25.0071C16.827 25.0072 17.0176 25.0124 17.208 25.0476ZM28.5964 26.3563C28.1873 26.3171 27.7776 26.2858 27.3673 26.2623C27.3482 26.2614 27.3294 26.2601 27.3103 26.2592C27.3082 26.2548 27.3053 26.2507 27.3025 26.2463C27.1686 26.0497 27.07 25.8531 26.9845 25.6308C26.9028 25.4191 26.8237 25.2009 26.6978 25.0099C26.5543 24.7923 26.3606 24.622 26.1483 24.4744C26.0195 24.5611 25.8999 24.6625 25.7906 24.77C25.6755 24.8832 25.4984 24.7061 25.6135 24.5929C25.7107 24.4974 25.8144 24.4091 25.9241 24.3293C25.7975 24.2524 25.6683 24.18 25.5423 24.1081C25.0699 23.8385 24.5864 23.5893 24.0928 23.3614C23.8634 23.2552 23.6312 23.1609 23.3974 23.0654C23.2715 23.0141 23.1473 22.948 23.0215 22.8886C23.0305 22.7996 23.0039 22.7 22.9357 22.6415C22.8853 22.5986 22.8462 22.5826 22.7861 22.5523C22.7726 22.5475 22.7645 22.5447 22.7607 22.5432C22.7636 22.5438 22.7717 22.5463 22.7851 22.5507C22.8171 22.5654 22.8196 22.561 22.7927 22.5378C22.7911 22.4871 22.6912 22.3801 22.6684 22.3278C22.5889 22.1483 22.5642 21.9586 22.4468 21.7951C22.285 21.57 22.0133 21.4849 21.7601 21.5612C21.7338 21.2904 21.7269 21.0077 21.6249 20.7659C21.6221 20.7594 21.613 20.7565 21.6089 20.7638C21.5025 20.9451 21.4935 21.147 21.4853 21.3562C21.4775 21.5525 21.485 21.7532 21.5107 21.9483C21.4944 21.9608 21.4778 21.9727 21.4606 21.9843C21.3798 22.0375 21.2928 22.0785 21.2014 22.1089C21.0274 22.1665 20.8449 22.1915 20.6625 22.2003C20.1914 22.2229 19.706 22.1753 19.2427 22.0945C18.7742 22.0128 18.0559 21.89 17.639 21.6555C17.3638 21.5008 17.11 21.312 16.8527 21.1292C16.946 20.8286 16.9698 20.5054 16.8759 20.2515C16.8647 20.2211 16.8171 20.2155 16.808 20.2515C16.7492 20.4938 16.7319 20.7374 16.6537 20.977C16.6525 20.9804 16.6512 20.9842 16.6499 20.9876C16.6255 20.9711 16.6011 20.9547 16.5767 20.9385C16.5204 20.9012 16.4437 20.9291 16.4099 20.9823C15.8693 21.8343 15.0133 21.8831 14.1144 22.0353C13.1307 22.2019 12.142 22.3816 11.1961 22.7075C10.2916 23.0194 9.4271 23.4734 8.74228 24.1516C8.58726 24.3052 8.44228 24.4688 8.30544 24.6396C8.43783 24.6563 8.56913 24.6823 8.69874 24.723C8.8522 24.7712 8.78625 25.013 8.63217 24.9645C8.4656 24.9122 8.29718 24.8863 8.12704 24.8734C7.66172 25.5102 7.2989 26.2323 6.98516 26.943C6.38337 28.3057 5.99167 29.7569 5.81142 31.2344C5.91039 31.1751 6.01114 31.1185 6.11439 31.066C6.25787 30.993 6.38441 31.2092 6.24078 31.2823C6.08128 31.3634 5.92635 31.4529 5.77624 31.5499C5.71067 32.1966 5.68525 32.8475 5.70065 33.4974C5.73727 35.0466 5.94635 36.6413 6.41927 38.1195C6.6512 38.845 6.95855 39.5646 7.41646 40.1776C7.62366 40.4553 7.85902 40.7058 8.13633 40.9147C8.2706 41.0161 8.4127 41.1066 8.56262 41.183C8.75574 41.282 9.00738 41.3145 9.17389 41.4545C9.22866 41.5005 9.27092 41.5612 9.30284 41.6298C9.28438 41.7601 9.28218 41.8906 9.31787 42.0209C9.32913 42.0616 9.35981 42.0948 9.39768 42.1108C9.3983 42.122 9.3983 42.133 9.3983 42.1436C9.3983 42.1486 9.40582 42.1499 9.40675 42.1449C9.40832 42.1352 9.40988 42.1255 9.41145 42.1155C9.42366 42.1195 9.43649 42.1214 9.44963 42.1214C9.92506 42.1232 10.4011 42.1116 10.8771 42.0955C10.8403 41.9827 10.8005 41.8708 10.7622 41.758C10.7102 41.6048 10.9521 41.5396 11.0036 41.6914C11.0484 41.8233 11.0952 41.954 11.1369 42.0864C11.647 42.0674 12.1569 42.0446 12.6659 42.0278C13.7485 41.9918 14.8309 41.9799 15.9138 41.9571C17.5955 41.9214 19.2894 41.8484 20.9738 41.9198C21.032 41.7961 21.0972 41.6753 21.159 41.5533C21.232 41.4093 21.4479 41.5362 21.3752 41.6797C21.3323 41.7645 21.2878 41.8482 21.2455 41.9328C21.5866 41.9505 21.9274 41.9739 22.2674 42.0059C22.8477 42.0603 23.4224 42.1571 24.0021 42.2172C24.5914 42.2786 25.1679 42.2677 25.7526 42.1703C25.8578 42.1527 25.9197 42.0892 25.9454 42.0103C25.9463 42.0099 25.947 42.0093 25.9476 42.0084C25.9776 41.9733 26.0058 41.9442 26.0349 41.9188C26.0697 41.8963 26.1072 41.8772 26.1514 41.8603C26.2337 41.829 26.3194 41.8099 26.4064 41.797C26.5022 41.7826 26.5992 41.7814 26.695 41.7695C26.7757 41.7592 26.8546 41.7438 26.9335 41.725C27.0753 41.6912 27.2099 41.6471 27.3438 41.5885C27.4606 41.5375 27.566 41.4642 27.6656 41.3843C27.8715 41.2337 28.0499 41.0415 28.2058 40.8417C28.2966 40.7249 28.382 40.6038 28.4597 40.4776C28.5949 40.259 28.71 40.032 28.8265 39.8031C28.8687 39.7353 28.9073 39.6659 28.9425 39.5949C28.715 39.5279 28.4853 39.4732 28.244 39.4693C28.0828 39.4667 28.0828 39.2162 28.244 39.2188C28.5207 39.2232 28.7824 39.2879 29.0424 39.3649C29.055 39.3313 29.0672 39.2974 29.0784 39.263C29.1094 39.1913 29.1351 39.1177 29.1564 39.0432C29.1689 39.0094 29.1814 38.9756 29.1939 38.9418C29.2221 38.8247 29.2503 38.7072 29.2787 38.5898C29.3354 38.402 29.3801 38.2113 29.413 38.0181C29.4406 37.891 29.4618 37.7629 29.4762 37.6333C29.5201 37.3192 29.5557 37.0058 29.5582 36.6883C29.5545 36.4926 29.542 36.2972 29.5207 36.1028C29.5116 35.9706 29.4963 35.8391 29.4756 35.7086C29.4487 35.5144 29.4221 35.3222 29.3773 35.1306C29.3438 35.001 29.3104 34.8713 29.2769 34.7417C29.1933 34.4715 29.0947 34.2066 28.9811 33.9476C28.9748 33.9314 28.9432 33.8956 28.9241 33.8953C28.9097 33.895 28.8897 33.9082 28.8962 33.9257C28.8969 33.9273 28.8975 33.9292 28.8981 33.9307C28.8916 33.916 28.8853 33.901 28.8787 33.8863C28.8731 33.8725 28.8512 33.845 28.8343 33.8453C28.8334 33.8453 28.8324 33.8453 28.8312 33.8456C28.8356 33.8425 28.8396 33.8384 28.8437 33.8337C28.9561 33.7006 29.029 33.5256 29.1094 33.3715C29.1761 33.2444 29.239 33.1104 29.2571 32.9666C29.2731 32.8405 29.2515 32.7162 29.1723 32.6141C29.0822 32.4979 28.9125 32.4434 29.0068 32.2756C29.1138 32.0846 29.2712 31.919 29.1144 31.702C29.0346 31.5915 28.9082 31.5307 28.8143 31.4346C28.7063 31.3234 28.6549 31.1747 28.6578 31.0229C28.6643 31.0266 28.6731 31.0248 28.6762 31.0153C28.767 30.7411 28.7013 30.4399 28.6083 30.1728C28.5576 30.0278 28.4502 29.988 28.3254 29.9808C28.8662 28.9241 29.3723 27.8504 29.8233 26.752C29.8384 26.716 29.8531 26.68 29.8678 26.644C29.8897 26.5901 29.8434 26.5185 29.7899 26.5065C29.3999 26.4211 28.9936 26.3938 28.5964 26.3563Z" fill="black"/>
<path fill-rule="evenodd" clip-rule="evenodd" d="M24.2012 12.6567C23.9185 11.4621 23.3005 10.3503 22.3111 9.45186C19.3337 6.50091 13.866 8.10263 13.8908 12.5495C13.784 13.0689 13.7407 13.6029 13.776 14.1326C13.7906 14.3586 13.8882 14.674 13.7571 14.8774C13.4614 15.258 13.2896 15.5384 13.3902 16.0446C13.4743 16.4866 13.7743 16.7997 14.1792 16.9661C14.4221 17.036 14.6525 17.1882 14.7424 17.4201C15.2829 18.4122 15.6834 19.2373 16.5355 19.9135C16.7554 20.0875 19.0106 21.1315 19.7536 21.1315C21.929 21.1315 24.6708 20.3415 24.7163 17.9055C24.7242 17.3705 24.6306 16.8292 24.5718 16.2984C24.4288 15.087 24.4792 13.8318 24.2012 12.6567Z" fill="#D08B5B"/>
<path fill-rule="evenodd" clip-rule="evenodd" d="M24.1521 12.0587C24.1528 12.044 24.1739 12.0406 24.178 12.0552C24.2588 12.3428 24.3047 12.6358 24.3679 12.9279C24.4288 13.2092 24.4863 13.4914 24.5342 13.7752C24.6245 14.3108 24.7005 14.8478 24.7713 15.3862L24.7889 15.5208C24.9119 16.4682 25.115 17.4552 24.9374 18.4081C24.7858 19.2212 24.2776 19.8766 23.6227 20.357C23.0026 20.812 22.2507 21.1039 21.5042 21.2699C20.703 21.4481 19.7532 21.5012 19.1013 20.9122C18.8403 20.6764 19.1961 20.2084 19.4792 20.4212C20.144 20.9209 20.9898 20.7736 21.7399 20.5748L21.7627 20.5687C22.4211 20.3929 23.0839 20.1264 23.6066 19.6769C24.1845 19.1798 24.4702 18.49 24.5032 17.7334C24.5218 17.3083 24.4822 16.8837 24.4396 16.4611L24.4348 16.4142C24.3859 15.9309 24.3346 15.4479 24.2872 14.9644C24.2439 14.5236 24.2066 14.0802 24.1869 13.6374L24.1777 13.414C24.1586 12.9637 24.1328 12.5069 24.1521 12.0587ZM16.355 8.31731C17.4369 7.75268 18.6802 7.5506 19.8842 7.74009C21.0416 7.92226 22.1038 8.52099 22.8978 9.37951C23.2854 9.79867 23.6295 10.2835 23.8494 10.8132C23.9586 11.0764 24.0441 11.3509 24.0896 11.6328C24.1131 11.7777 24.1361 11.9279 24.1405 12.0748C24.1445 12.2109 24.1047 12.3385 24.1094 12.4768C24.1101 12.4984 24.0771 12.5026 24.072 12.4819C24.0344 12.3276 23.9438 12.211 23.887 12.0646C23.8445 11.9552 23.7963 11.8484 23.7472 11.742L23.7051 11.6508C23.5827 11.3856 23.4364 11.1314 23.2917 10.8781C23.0004 10.3679 22.6265 9.90429 22.1887 9.51305C21.4201 8.82615 20.4341 8.38275 19.4049 8.30291C18.3367 8.22 17.2533 8.47525 16.341 9.04066C15.4288 9.60605 14.7391 10.485 14.381 11.4969C14.2003 12.0076 14.1005 12.5396 14.0773 13.0806C14.0655 13.3545 14.0765 13.6306 14.0957 13.9039L14.1052 14.0342C14.1163 14.1905 14.1239 14.3462 14.1006 14.4988C14.2652 14.4473 14.4377 14.426 14.6107 14.4514C14.8679 14.4893 15.0216 14.595 15.137 14.8254C15.143 14.8374 15.1309 14.8494 15.119 14.8434C14.9694 14.7686 14.7274 14.808 14.569 14.8472C14.4041 14.8881 14.2557 14.9591 14.1156 15.0551C13.8564 15.2326 13.6533 15.5076 13.6035 15.8232C13.5553 16.1281 13.6801 16.4367 13.8898 16.6552C13.9977 16.7678 14.1268 16.865 14.2712 16.9257C14.4465 16.9993 14.6201 16.997 14.7752 17.1185C14.871 17.1936 14.8479 17.3222 14.7828 17.4056C15.1101 17.7653 15.4002 18.1588 15.7274 18.5199C15.8791 18.6873 16.0296 18.8549 16.1749 19.0276L16.2291 19.0927C16.3742 19.2682 16.6051 19.4537 16.6714 19.6745C16.7127 19.8119 16.566 19.9915 16.4176 19.9289C16.1901 19.8329 16.0277 19.583 15.8739 19.3914L15.8639 19.3789C15.7027 19.1803 15.5596 18.9707 15.4287 18.751L15.3857 18.6786C15.149 18.2796 14.9144 17.8658 14.7635 17.4275C14.7536 17.4378 14.743 17.4471 14.7319 17.4551C14.5145 17.61 14.1985 17.4909 13.9814 17.3903C13.7765 17.2953 13.5886 17.1524 13.4421 16.9801C13.1236 16.6056 12.9768 16.1205 13.0831 15.6344C13.1733 15.2226 13.4579 14.8221 13.8312 14.6138C13.6589 14.415 13.5876 14.147 13.5401 13.8849C13.4795 13.5504 13.4674 13.2076 13.4839 12.8685C13.5167 12.1929 13.6901 11.5269 13.9582 10.9082C14.4379 9.80131 15.2859 8.87537 16.355 8.31731ZM14.0781 15.704C14.3052 15.6613 14.5168 15.651 14.7358 15.7473C14.9733 15.8519 15.1405 16.0245 15.296 16.2267C15.4728 16.4567 15.0196 16.7079 14.9053 16.4026L14.902 16.3932C14.8713 16.3028 14.8165 16.2154 14.7471 16.135C14.7263 16.167 14.6984 16.1951 14.6657 16.2113C14.626 16.2308 14.5655 16.2173 14.556 16.1665C14.5454 16.1102 14.5571 16.0419 14.5895 15.9942L14.594 15.9877C14.4364 15.8606 14.2469 15.7678 14.0781 15.7379C14.0613 15.7349 14.0614 15.7071 14.0781 15.704Z" fill="black"/>
<path fill-rule="evenodd" clip-rule="evenodd" d="M19.5939 16.5637C20.4236 16.5637 21.0962 15.975 21.0962 15.2487C21.0962 14.5224 20.4236 13.9336 19.5939 13.9336C18.7642 13.9336 17.8662 14.4985 17.8662 15.2248C17.8662 15.533 18.1089 16.0715 18.3117 16.2957C18.5869 16.5998 19.1162 16.5637 19.5939 16.5637Z" fill="white"/>
<path fill-rule="evenodd" clip-rule="evenodd" d="M23.1692 16.312C23.8044 16.312 24.3193 15.7796 24.3193 15.1228C24.3193 14.466 23.8044 13.9336 23.1692 13.9336C22.5341 13.9336 21.8467 14.4444 21.8467 15.1012C21.8467 15.3799 22.0325 15.8669 22.1877 16.0696C22.3984 16.3447 22.8036 16.312 23.1692 16.312Z" fill="white"/>
<path fill-rule="evenodd" clip-rule="evenodd" d="M19.5727 17.3804C19.5793 17.3743 19.5897 17.3722 19.5976 17.3771C19.733 17.4628 19.7491 17.7509 19.7506 17.9173C19.8066 17.9319 19.862 17.9485 19.9143 17.9601C20.0254 17.9847 20.1372 18.0061 20.2487 18.0287L20.3323 18.046C20.6116 18.1049 20.8962 18.1485 21.1809 18.1703C21.4572 18.1914 21.7416 18.1992 22.0171 18.1636C22.1354 18.1483 22.253 18.1227 22.3673 18.0886C22.5025 18.0483 22.6101 17.9814 22.7358 17.9229C23.0505 17.7763 23.3142 18.2059 23.0114 18.3945C22.7514 18.5563 22.3967 18.6146 22.0966 18.6397C21.7899 18.6652 21.4844 18.6372 21.1813 18.5886C20.8537 18.5361 20.5329 18.4555 20.2221 18.3386C20.0908 18.2892 19.9636 18.2292 19.8395 18.1637L19.8057 18.1457C19.7851 18.1346 19.7636 18.1234 19.742 18.112C19.7187 18.3195 19.6517 18.5199 19.5707 18.7126L19.5688 18.7092C19.5245 18.8612 19.3645 18.9552 19.2053 18.8881C19.0185 18.8093 19.0043 18.6026 19.113 18.4559L19.1182 18.449C19.246 18.2845 19.3261 18.0805 19.3957 17.8859C19.4314 17.7862 19.4645 17.6841 19.4932 17.582C19.5139 17.5082 19.5147 17.434 19.5727 17.3804ZM24.3875 15.728C24.2768 16.0628 24.0352 16.3207 23.6987 16.434C23.3653 16.5464 22.9944 16.5054 22.6536 16.4447C22.579 16.4314 22.5034 16.4167 22.428 16.3996C22.4897 16.4379 22.5442 16.4917 22.5964 16.5487C22.6736 16.6328 22.7436 16.7216 22.7648 16.8269C22.7859 16.9315 22.7527 17.011 22.6922 17.0711C22.5991 17.1634 22.4489 17.2132 22.3217 17.2407C22.0368 17.3023 21.7514 17.2927 21.4679 17.2295C21.3956 17.2134 21.3465 17.1746 21.3189 17.1239C21.2855 17.0624 21.2827 16.9859 21.3019 16.9162C21.3211 16.8466 21.3626 16.7824 21.4228 16.7469C21.4723 16.7176 21.5343 16.7096 21.6046 16.733C21.7458 16.78 21.886 16.8111 22.0351 16.8147C22.0982 16.8162 22.1617 16.8143 22.2247 16.8085C22.2603 16.8053 22.2959 16.8007 22.3312 16.7951C22.3104 16.7673 22.2902 16.7391 22.2704 16.7105C22.2471 16.6768 22.2243 16.6426 22.2026 16.6079C22.1398 16.5073 22.0875 16.4039 22.0416 16.2947C22.0269 16.2597 22.0132 16.2246 22.0001 16.1894C21.9982 16.1843 21.9963 16.1792 21.9944 16.1741C21.9904 16.1707 21.9864 16.1673 21.9824 16.1639C21.8925 16.0861 21.8172 15.9903 21.7639 15.8716C21.6196 15.5502 21.6431 15.1512 21.7306 14.8174C21.8008 14.5499 21.9557 14.3025 22.1603 14.1343C22.196 14.0755 22.2196 14.0399 22.2485 14.0098C22.3661 13.8874 22.5302 13.8049 22.6903 13.7547C23.0479 13.6425 23.4374 13.723 23.7406 13.9366C24.0205 14.1338 24.2396 14.4296 24.358 14.7586C24.4702 15.0702 24.4921 15.4119 24.3875 15.728ZM19.5161 13.6932C19.9415 13.6895 20.3742 13.8152 20.7193 14.0666C21.0495 14.3071 21.3088 14.6623 21.3084 15.0853C21.3081 15.4972 21.088 15.9022 20.8439 16.2211C20.5699 16.5791 20.2119 16.7517 19.7617 16.7557C19.5277 16.7578 19.2919 16.7371 19.0596 16.7086L18.9349 16.6929C18.7633 16.6707 18.5899 16.6445 18.4272 16.5855C17.6527 16.3045 17.6287 15.2904 17.9155 14.6422C18.137 14.1417 18.6975 13.6536 19.2565 13.7122C19.3407 13.7004 19.4272 13.694 19.5161 13.6932ZM20.2345 14.1701C19.7019 13.9309 19.0547 14.0025 18.5381 14.2577C18.3334 14.4811 18.1838 14.7626 18.1233 15.0211C18.0587 15.297 18.0681 15.5941 18.1653 15.8615C18.284 16.188 18.5761 16.2688 18.8913 16.319L19.0137 16.3382L19.065 16.346C19.3747 16.3922 19.7133 16.4281 20.0109 16.3703C20.3426 16.3058 20.5532 16.0377 20.719 15.7629L20.7268 15.75C20.899 15.462 21.0431 15.1118 20.8987 14.7818C20.7759 14.5014 20.5077 14.2928 20.2345 14.1701ZM23.3782 14.2534C23.1954 14.1521 22.9869 14.1337 22.7895 14.2015C22.7046 14.2307 22.6312 14.278 22.5601 14.331L22.5317 14.3524C22.4442 14.4196 22.3625 14.4537 22.2969 14.5444L22.2884 14.5566C22.2553 14.606 22.1974 14.6258 22.1446 14.6192C22.0831 14.7889 22.0577 14.9723 22.0572 15.1529L22.0572 15.1768L22.0575 15.2012C22.0615 15.4146 22.0987 15.6757 22.2666 15.8188C22.4197 15.9492 22.6516 15.9805 22.8585 15.9987L23.0181 16.012L23.0605 16.0152C23.2786 16.0304 23.5177 16.0252 23.7005 15.896C23.8598 15.7835 23.9349 15.5925 23.9544 15.4039C24.0004 14.9584 23.775 14.4734 23.3782 14.2534ZM19.3995 14.2946C19.6928 14.1448 20.0451 14.1823 20.2936 14.3701C20.2715 14.3744 20.2498 14.3799 20.2281 14.3908C20.1718 14.419 20.1368 14.4756 20.1234 14.5359C20.1084 14.604 20.1437 14.6685 20.2109 14.6899C20.2694 14.7086 20.3387 14.7171 20.393 14.6816C20.4214 14.663 20.4413 14.6385 20.4544 14.6076L20.4562 14.6031L20.4585 14.5997L20.4594 14.5982C20.4596 14.5976 20.4585 14.5987 20.4569 14.6013C20.4586 14.5974 20.4601 14.5936 20.4617 14.5896C20.4639 14.585 20.4661 14.5803 20.4679 14.5754C20.4711 14.5727 20.474 14.5697 20.4769 14.5666C20.522 14.6361 20.5574 14.7146 20.5799 14.8019C20.7243 15.3622 20.1322 15.9437 19.6031 16.0018C19.4032 16.0238 19.2209 15.9762 19.0696 15.8823C19.071 15.8805 19.0725 15.8788 19.0737 15.8769C19.1345 15.8878 19.2071 15.8606 19.2291 15.7928C19.2854 15.6198 19.2277 15.4174 19.0393 15.3609C18.918 15.3245 18.794 15.3647 18.7073 15.4476C18.6417 15.2872 18.6183 15.1065 18.6493 14.9255C18.6931 14.6703 18.847 14.4402 19.0866 14.334C19.2032 14.2823 19.3038 14.2714 19.3995 14.2946ZM22.4883 14.6403L22.4972 14.6262C22.5878 14.4867 22.7611 14.3155 22.9406 14.3626C22.9659 14.3692 22.9906 14.3798 23.0129 14.3936C23.1115 14.3802 23.2148 14.4026 23.2996 14.4548L23.2973 14.4607C23.297 14.4617 23.2966 14.4627 23.2964 14.4637C23.2887 14.4976 23.2932 14.529 23.309 14.5602C23.3262 14.594 23.3507 14.626 23.3839 14.6454C23.4066 14.6587 23.4334 14.6657 23.4596 14.6651C23.4981 14.6644 23.5319 14.6475 23.5597 14.6216C23.5749 14.6076 23.5854 14.587 23.5912 14.5659C23.6049 14.579 23.6182 14.5937 23.6309 14.6103C23.8391 14.8841 23.8103 15.3242 23.5661 15.5683C23.5562 15.5781 23.5457 15.587 23.5354 15.5961C23.4362 15.7326 23.2834 15.8253 23.0998 15.8441C22.9299 15.8615 22.7599 15.8112 22.6296 15.7081C22.6401 15.7025 22.6499 15.6953 22.6583 15.6857C22.6806 15.6605 22.6989 15.6356 22.7124 15.6049C22.7158 15.5971 22.7191 15.5893 22.7222 15.5815L22.7267 15.5696C22.7275 15.5674 22.7344 15.5474 22.7326 15.5509L22.7322 15.5517L22.7346 15.5459C22.758 15.4877 22.7485 15.4211 22.6932 15.3846L22.6871 15.3808C22.669 15.3702 22.6466 15.3652 22.6239 15.3652C22.5673 15.296 22.4832 15.2801 22.4042 15.3003L22.4015 15.278C22.4011 15.2742 22.4007 15.2705 22.4004 15.2667C22.3392 15.0638 22.3688 14.8332 22.4883 14.6403ZM19.7716 12.5972L19.792 12.594C19.9456 12.5718 20.05 12.5974 20.1499 12.7288C20.1975 12.7913 20.1828 12.8859 20.1499 12.9498C20.0436 13.1565 19.751 13.1138 19.5539 13.1548C19.3615 13.1949 19.1696 13.2494 18.9896 13.3287C18.8059 13.4097 18.6335 13.5055 18.4653 13.6149C18.3132 13.7138 18.1753 13.8626 18.0016 13.9202C17.9937 13.9228 17.9843 13.9158 17.9848 13.9075C17.9972 13.7098 18.1622 13.5283 18.29 13.3876C18.4379 13.2248 18.6177 13.0803 18.805 12.9653C18.9982 12.8468 19.2071 12.7492 19.4234 12.6811C19.5373 12.6453 19.6538 12.6168 19.7716 12.5972ZM22.1121 12.8656C22.3055 12.5826 22.7863 12.6369 23.0701 12.7125C23.4258 12.8073 23.8113 12.9989 24.0607 13.2763C24.2842 13.5249 23.9499 13.8477 23.6986 13.6386L23.6315 13.583L23.5886 13.5477C23.3957 13.3901 23.2047 13.2475 22.9696 13.1424C22.694 13.0192 22.4148 12.9593 22.1235 12.8936C22.112 12.8911 22.1053 12.8755 22.1121 12.8656Z" fill="black"/>
<path fill-rule="evenodd" clip-rule="evenodd" d="M19.1778 19.1994C19.4312 18.6055 19.9843 18.169 20.6211 18.0094C21.0887 17.8925 21.5794 17.8963 22.0561 17.9427C22.3058 17.9668 22.5737 17.9866 22.8091 18.0793C23.0101 18.1586 23.1739 18.3084 23.297 18.4843C23.4436 18.6927 23.5433 18.9313 23.6133 19.1758C23.6233 19.2105 23.6326 19.2455 23.6413 19.2807C23.6109 19.4652 23.5463 19.6222 23.3755 19.7382C23.2088 19.8514 23.0099 19.8977 22.8117 19.9142C22.7923 19.9049 22.7735 19.8953 22.7563 19.8854C22.4473 19.7085 22.2299 19.2904 21.84 19.347C21.4921 19.3975 21.263 19.8355 21.0561 20.0924C20.3919 20.1698 19.7281 19.9701 19.1877 19.5902C19.1603 19.4601 19.1587 19.329 19.1778 19.1994ZM24.0928 18.7488C24.0397 18.5997 23.9727 18.4552 23.8934 18.3191C23.6312 17.869 23.2286 17.5104 22.7506 17.3054C21.6201 16.8211 20.1572 17.1625 19.2442 17.9568C18.9323 18.2283 18.6169 18.6273 18.5216 19.0564C18.4931 19.0621 18.4662 19.0769 18.4441 19.0978C17.7844 18.6823 17.1051 18.2826 16.5735 17.7066C16.1875 17.2882 15.919 16.793 15.7546 16.2488C15.7412 16.204 15.669 16.2105 15.6711 16.2601C15.6718 16.2717 15.6724 16.2833 15.673 16.2949C15.6661 16.2736 15.6336 16.2845 15.6311 16.3052C15.5427 16.9663 15.432 17.6671 15.5339 18.3316C15.5949 18.7282 15.7749 19.0184 16.0156 19.3319C16.2735 19.6679 16.5654 19.9804 16.8639 20.2801C17.0533 20.4703 17.2512 20.6897 17.4831 20.8292C17.7529 20.9912 18.0589 21.1144 18.3468 21.2395C18.6397 21.3671 18.9369 21.4849 19.2398 21.5871C19.8453 21.7921 20.471 21.9338 21.1077 21.9958C21.6176 22.0454 22.2002 22.0993 22.6887 21.9074C23.0632 21.7604 23.3655 21.4947 23.6052 21.1749C23.8662 20.8267 24.0725 20.43 24.1866 20.0117C24.3051 19.5772 24.1178 18.8189 24.0928 18.7488Z" fill="black"/>
</svg>
