<svg width="36" height="48" viewBox="0 0 36 48" fill="none" xmlns="http://www.w3.org/2000/svg">
<path fill-rule="evenodd" clip-rule="evenodd" d="M16.6967 20.748L16.3138 21.6951L16.5247 24.6969L16.6817 24.7214C18.3398 24.9785 19.4665 25.1084 20.0618 25.111L20.0802 25.111C20.6797 25.111 21.398 24.9771 22.2353 24.7092L22.2734 24.6969L22.37 22.4492H22.1421L21.7298 21.4822L21.7302 21.4819C21.7347 21.4897 21.7395 21.4972 21.7444 21.5045C21.9163 21.7588 22.0159 21.5534 22.4197 21.6434C22.9033 21.7511 23.1179 22.2399 23.5436 22.6053C23.7412 22.7749 24.156 22.8549 24.3545 22.9715L24.5631 23.094C25.2164 23.4796 25.9674 23.9479 26.3617 24.558C26.8239 25.2732 27.1426 25.9519 27.4368 26.7475C28.0709 28.4624 28.5111 30.2123 28.8257 32.012C29.1445 33.836 29.336 35.6826 29.4824 37.5277C29.5501 38.3828 29.6076 39.2386 29.6553 40.095L29.6671 40.3091C29.6921 40.7751 29.6703 41.231 29.2468 41.518C28.9434 41.7235 28.5407 41.7548 28.1847 41.7759L28.1653 41.7771C25.5333 41.9315 22.9012 42.0848 20.2691 42.2384L16.3211 42.4693C15.6641 42.5078 15.0072 42.546 14.3503 42.584L12.7467 42.6767C11.991 42.7197 11.2343 42.7569 10.4775 42.7525C9.52543 42.747 8.57735 42.6766 7.63401 42.5497L7.55079 42.5383C6.9573 42.4564 6.09676 42.2489 5.99016 41.5369C5.97486 41.4347 6.06481 41.3708 6.14033 41.3855C6.11548 41.2696 6.10005 41.1535 6.08531 41.0527C6.02205 40.6219 5.98234 40.1883 5.96271 39.7533C5.92334 38.8829 5.95651 38.0085 6.04349 37.1419C6.18739 35.7082 6.3891 34.277 6.59753 32.8509L6.64393 32.534C6.86562 31.023 7.12957 29.5145 7.54259 28.0427C7.92412 26.683 8.51933 25.2686 9.33832 24.4088C10.1573 23.5491 11.325 22.8021 12.5249 22.3446C12.6288 22.3049 14.6932 21.8527 14.8323 21.9186L14.8573 21.899C15.2689 21.5739 15.8561 21.0029 16.4606 21.1827L16.462 21.1805C16.4763 21.1542 16.5321 20.9788 16.6092 20.7481L16.6967 20.748Z" fill="#8FA7DF"/>
<path fill-rule="evenodd" clip-rule="evenodd" d="M17.133 19.4875C17.633 18.8533 18.1601 18.6517 18.939 18.699C19.4671 18.6801 19.9939 18.8172 20.4411 19.1202C20.8509 19.3344 21.2143 19.6292 21.4736 20.0088C21.6955 20.3333 21.5269 21.1352 21.7295 21.4821C21.7276 21.5199 21.7266 21.5543 21.7266 21.5854C21.7266 21.8856 21.9354 22.2207 22.3532 22.5905L22.3698 22.6052V24.7869C21.6675 25.0029 20.798 25.1109 19.7613 25.1109C18.74 25.1109 17.6778 24.9394 16.5746 24.5963L16.5245 24.5806L16.3135 22.2095L16.5245 21.5533L16.5244 21.0037L16.606 20.7579C16.7503 20.3257 16.9713 19.6926 17.133 19.4875Z" fill="#D08B5B"/>
<path fill-rule="evenodd" clip-rule="evenodd" d="M16.5254 24.5811C16.5254 24.5811 18.3797 25.1212 19.6456 25.1212C20.9114 25.1212 22.2741 24.5811 22.2741 24.5811L22.053 42.363L18.4951 42.4065L16.5254 24.5811Z" fill="#9FD8E5"/>
<path fill-rule="evenodd" clip-rule="evenodd" d="M10.4209 32.3452C10.4072 32.3195 10.439 32.2964 10.4601 32.3149C10.9394 32.7357 11.1903 33.4114 11.2429 34.036C11.2987 34.6983 11.2197 35.3841 11.1894 36.0461C11.1558 36.7835 11.1256 37.5213 11.0846 38.2584C11.0429 39.0062 10.9981 39.7538 10.9596 40.5018L10.873 42.1844C10.8638 42.3637 10.8838 42.5842 10.815 42.7516C10.7084 43.011 10.3917 42.9708 10.3252 42.754L10.3231 42.7469L10.317 42.7516C10.2583 42.5562 10.3023 42.3241 10.3122 42.122L10.4029 40.2837C10.4669 38.9842 10.5241 37.6848 10.5929 36.3856L10.6163 35.9526C10.6484 35.3696 10.6731 34.7882 10.6929 34.2054L10.6993 34.0111C10.7182 33.4259 10.7032 32.8735 10.4209 32.3452ZM22.0394 21.558C22.3064 21.5327 22.508 21.6212 22.7504 21.7145C22.856 21.7552 22.956 21.8021 23.0574 21.8507C23.1842 21.9115 23.2658 22.0191 23.3439 22.1328L23.3856 22.1941C23.7108 22.6708 23.9296 23.2207 24.1765 23.7397C24.4652 24.3468 24.7569 24.9526 25.0395 25.5626L25.179 25.8631C25.2487 26.0134 25.3182 26.1637 25.3867 26.3145L25.505 26.5771C25.6238 26.8433 25.7304 27.1249 25.561 27.3996C25.4035 27.655 25.1242 27.8527 24.9031 28.0501C24.7186 28.2149 24.5341 28.3796 24.3495 28.5443C24.731 28.9265 24.9871 29.4077 25.1377 29.9238C25.3516 29.8346 25.6126 29.8175 25.8338 29.779C26.1434 29.725 26.1813 30.1938 25.8891 30.1881C25.6734 30.1839 25.4202 30.2059 25.1989 30.1605C25.2373 30.33 25.2652 30.5022 25.283 30.6748C25.376 31.5795 25.1728 32.4895 24.9608 33.3649L24.9433 33.4368C24.7131 34.3843 24.4949 35.3342 24.2996 36.2895C24.1039 37.2469 23.9278 38.2083 23.7715 39.1729C23.6125 40.1548 23.4999 41.142 23.379 42.129C23.3606 42.2784 23.2667 42.4064 23.1017 42.4064C22.9642 42.4064 22.8071 42.2781 22.8244 42.129C22.9492 41.0542 23.1262 39.985 23.3021 38.9175C23.605 37.0791 23.9863 35.2567 24.4249 33.4463L24.5015 33.131C24.6988 32.3134 24.8778 31.4708 24.7789 30.6274C24.6982 29.9406 24.4112 29.2083 23.8439 28.7818L23.8266 28.7689C23.6941 28.6717 23.6431 28.4858 23.7736 28.3577C23.8567 28.2763 23.9398 28.1949 24.023 28.1135L24.5224 27.6258L24.6231 27.5273C24.7071 27.4453 24.7914 27.3638 24.8783 27.2848C24.9309 27.237 25.0734 27.1459 25.0839 27.0673C25.0906 27.016 25.0299 26.9259 25.0053 26.8786L24.8926 26.651C24.8286 26.5212 24.7666 26.3905 24.7041 26.26C24.5745 25.9896 24.4432 25.72 24.3165 25.4482L23.5552 23.8166C23.3405 23.3562 23.1492 22.8702 22.8684 22.4447L22.8131 22.3617C22.7669 22.2919 22.7261 22.2246 22.6969 22.1392C22.6688 22.057 22.6335 21.9668 22.5816 21.8966C22.4601 21.732 22.2276 21.6387 22.0332 21.6042C22.0051 21.5992 22.0153 21.5603 22.0394 21.558ZM16.1848 21.1295C16.2017 21.1295 16.2043 21.1536 16.1887 21.1583C15.9541 21.2289 15.7299 21.3428 15.547 21.5071C15.4595 21.5858 15.3714 21.6751 15.3173 21.7809C15.2967 21.8215 15.2852 21.8643 15.2768 21.9087L15.2742 21.9235C15.2602 22.0037 15.2403 22.0483 15.1995 22.1125L15.1926 22.1234C14.9601 22.4825 14.7972 22.8814 14.6482 23.2808L14.3239 24.1516L13.9997 25.0225C13.8952 25.3031 13.7907 25.5837 13.6863 25.8643C13.6286 26.0193 13.5692 26.1735 13.5099 26.3278C13.4842 26.3947 13.4566 26.461 13.4332 26.5287C13.4299 26.5379 13.4197 26.5936 13.412 26.6072L13.4146 26.6118C13.48 26.7218 13.6543 26.8137 13.7532 26.8937L14.0935 27.1689C14.3362 27.3652 14.5851 27.556 14.8204 27.761C14.9683 27.8898 14.8763 28.1204 14.7114 28.1741C14.4351 28.2642 14.1644 28.3719 13.8922 28.4738C13.7823 28.515 13.6678 28.5508 13.5592 28.5962L13.493 28.6248C13.4672 28.6364 13.4796 28.6363 13.4806 28.684C13.4817 28.734 13.4958 28.7861 13.504 28.8353C13.5957 29.3898 13.6928 29.9434 13.7954 30.496C14.1582 32.4502 14.5917 34.39 15.086 36.315C15.3357 37.2871 15.6035 38.2545 15.8587 39.2251C16.1133 40.1932 16.4482 41.1474 16.768 42.0956C16.8583 42.3629 16.4344 42.4781 16.3464 42.2118C15.9778 41.0967 15.6407 39.9719 15.2925 38.8504C14.6738 36.8578 14.1863 34.8219 13.7551 32.781C13.5414 31.7696 13.346 30.7542 13.1689 29.7356C13.1354 29.5428 13.1025 29.3499 13.0703 29.1568L13.0234 28.8729C12.9913 28.6704 12.9729 28.4596 13.1302 28.2994C13.2838 28.1431 13.5474 28.0877 13.7495 28.0144L13.7641 28.009C13.8927 27.961 14.0222 27.9147 14.1512 27.867C13.9612 27.7174 13.7735 27.5644 13.5839 27.4148C13.431 27.2941 13.2757 27.1759 13.1249 27.0525C13.0006 26.9506 12.8993 26.8199 12.8863 26.6543C12.8731 26.4851 12.9456 26.3281 13.0041 26.1729L13.0097 26.1579C13.0671 26.0029 13.1246 25.848 13.1837 25.6937L13.5489 24.7381C13.781 24.1309 14.0034 23.5188 14.2475 22.9163C14.3441 22.6778 14.4493 22.4431 14.5737 22.2178C14.6337 22.1091 14.698 22.0027 14.7679 21.9002C14.8462 21.7851 14.9173 21.729 15.0386 21.6656C15.2327 21.5641 15.3849 21.3939 15.5798 21.2893C15.771 21.1866 15.9677 21.1318 16.1848 21.1295ZM16.8147 20.0461C16.8221 20.0334 16.8418 20.0391 16.842 20.0536C16.8471 20.3553 16.7754 20.6637 16.7313 20.9621C16.687 21.2616 16.6728 21.5777 16.6088 21.8739C16.6074 21.8877 16.6048 21.9013 16.601 21.9147L16.5979 21.9248C16.5709 22.0078 16.5006 22.0782 16.4143 22.1002C16.4414 22.2506 16.467 22.4013 16.4885 22.5528C16.5254 22.8131 16.5591 23.0739 16.5923 23.3347L16.6319 23.6478C16.6694 23.9428 16.7058 24.2379 16.7419 24.5331C16.8335 24.5714 16.927 24.603 17.0227 24.6304C17.2432 24.6936 17.4691 24.7192 17.6966 24.7416C18.16 24.787 18.6269 24.8081 19.092 24.8339L19.1916 24.8395C19.7144 24.8695 20.2401 24.8748 20.7616 24.8212C21.0202 24.7945 21.2767 24.7499 21.5289 24.6866C21.657 24.6545 21.7816 24.6064 21.9095 24.575C21.9519 24.5646 21.9898 24.5405 22.0323 24.5148C22.0512 24.491 22.0776 24.4729 22.1121 24.4659L22.1215 24.4643L22.1307 24.463L22.1339 24.4615L22.1337 24.4625C22.1598 24.459 22.1847 24.459 22.2081 24.4622C22.2175 24.2321 22.2276 24.0019 22.2402 23.7719C22.2743 23.1539 22.3682 22.5093 22.2428 21.8967C22.2386 21.8761 22.2666 21.8688 22.2739 21.8881C22.52 22.5366 22.4923 23.2457 22.5047 23.9282C22.5168 24.5957 22.5095 25.2636 22.5062 25.9312C22.554 25.9516 22.5966 25.9792 22.6304 26.0179C22.6978 26.0952 22.7172 26.2297 22.6304 26.3043C22.5919 26.3374 22.5493 26.3604 22.5041 26.3763C22.5017 26.9563 22.4976 27.5363 22.4918 28.1163C22.602 28.2015 22.6123 28.4038 22.4876 28.4879C22.4668 30.3662 22.4327 32.2446 22.4044 34.1226L22.3452 38.0627C22.3373 38.5877 22.3242 39.1126 22.3195 39.6375L22.3232 39.639L22.3363 39.6451C22.3584 39.6554 22.3913 39.6722 22.3981 39.6894C22.3999 39.6939 22.4004 39.697 22.4001 39.6993C22.4363 39.7043 22.4722 39.7214 22.5032 39.7509C22.5797 39.8236 22.5642 39.9333 22.5032 40.0074L22.4869 40.0273C22.4488 40.0734 22.3766 40.0912 22.3177 40.0818C22.3183 40.4094 22.3204 40.7371 22.3193 41.0647C22.319 41.1648 22.3175 41.2649 22.3158 41.3649L22.3116 41.6049C22.3089 41.7418 22.2968 41.9158 22.1566 41.9773C21.9984 42.0467 21.8566 41.9898 21.7926 41.8292C21.7752 41.7856 21.779 41.7451 21.7853 41.7021C21.7833 41.6374 21.7732 41.5625 21.7745 41.5025L21.7797 41.2523C21.7805 41.2138 21.7821 41.1752 21.7832 41.1366L21.7786 41.1371C21.2166 41.1644 20.6507 41.1511 20.0879 41.1508L19.8375 41.1511C19.6286 41.1513 19.4193 41.1502 19.2108 41.1422L19.1326 41.1389C18.9764 41.1315 18.8122 41.1292 18.6503 41.1152C18.6709 41.2815 18.6902 41.4478 18.7074 41.6143C18.7237 41.7722 18.5608 41.9064 18.4155 41.9064C18.2429 41.9064 18.1442 41.7707 18.1235 41.6143C18.026 40.8768 17.9861 40.1323 17.8929 39.3943C17.8094 38.7332 17.7371 38.0707 17.6635 37.4084L17.6389 37.1876C17.3697 34.7774 17.1084 32.3663 16.8584 29.954L16.742 28.8263C16.6245 27.6897 16.5062 26.5531 16.4065 25.4148C16.3495 24.764 16.297 24.1131 16.2475 23.4617C16.2112 22.9832 16.1884 22.5073 16.1736 22.0297C16.1151 21.9695 16.0858 21.8815 16.1117 21.7907C16.1268 21.7378 16.1445 21.6851 16.1631 21.6325C16.1619 21.5808 16.1607 21.5291 16.1597 21.4773C16.1587 21.4284 16.2084 21.4032 16.2482 21.4113C16.3205 21.2362 16.4001 21.0625 16.4666 20.8891C16.5741 20.6084 16.6628 20.3059 16.8147 20.0461ZM10.8086 23.0802C11.9328 22.3754 13.271 21.8682 14.6113 21.9228C14.6418 21.9241 14.6504 21.9706 14.6188 21.9776C13.9038 22.1373 13.1811 22.3318 12.5042 22.6149C11.8254 22.8988 11.18 23.2811 10.6051 23.7406C9.54443 24.5882 8.72002 25.6908 8.17717 26.9336C7.8592 27.6616 7.63632 28.4303 7.44171 29.1992C7.23576 30.0129 7.06603 30.8354 6.9249 31.6629C6.64615 33.2974 6.48387 34.9499 6.39751 36.6052C6.30966 38.289 6.34587 39.9741 6.28321 41.6582C6.27238 41.95 5.85548 41.9443 5.83429 41.6582C5.69232 39.7435 5.77097 37.7982 5.90227 35.8848C6.02033 34.1648 6.2265 32.4483 6.55848 30.756L6.5874 30.6093C6.89776 29.0435 7.2721 27.4398 8.0224 26.0219C8.66296 24.8113 9.65188 23.8055 10.8086 23.0802ZM26.4201 30.5635C26.426 30.5467 26.4482 30.5469 26.4541 30.5635C26.5822 30.9224 26.5868 31.3274 26.6209 31.7057L26.6236 31.7347C26.6563 32.0798 26.6809 32.4253 26.7037 32.7711L26.7122 32.9007C26.804 34.3113 26.9188 35.7203 27.0917 37.1234C27.264 38.5213 27.497 39.9094 27.7489 41.2948C27.777 41.449 27.7087 41.6061 27.547 41.6506C27.4044 41.6897 27.2215 41.6019 27.1913 41.4486C27.0349 40.6534 26.9084 39.8572 26.7956 39.0551C26.597 37.6427 26.4488 36.2239 26.3535 34.8008C26.3056 34.086 26.2762 33.3716 26.2645 32.6553C26.2591 32.323 26.2677 31.9899 26.2854 31.6579L26.2896 31.5813C26.3092 31.242 26.3072 30.8871 26.4201 30.5635ZM14.2722 39.548C14.2872 39.5399 14.3058 39.5566 14.2963 39.5721C14.0786 39.926 13.7841 40.2312 13.4995 40.532C13.2019 40.8464 12.9117 41.1702 12.6082 41.4785C12.3888 41.7011 12.036 41.342 12.2675 41.1376C12.593 40.8505 12.9331 40.5776 13.2644 40.2968L13.4093 40.1739C13.6809 39.9444 13.9606 39.7169 14.2722 39.548ZM24.6115 39.3708C24.5953 39.3398 24.6324 39.3147 24.6576 39.3352C24.8332 39.478 24.9906 39.6484 25.1601 39.7992C25.328 39.9485 25.5022 40.0878 25.6812 40.2236C25.8608 40.36 26.0444 40.4909 26.233 40.6148C26.3894 40.7176 26.5506 40.7999 26.7144 40.8852C26.7902 40.895 26.8604 40.9322 26.9167 41.0028C27.0055 41.1145 27.015 41.325 26.8917 41.422L26.8696 41.4393C26.7257 41.5525 26.5549 41.5662 26.4133 41.4393C26.2551 41.2977 26.1056 41.1418 25.9538 40.992L25.9081 40.9473C25.7449 40.7887 25.5857 40.6248 25.4356 40.4537L25.2997 40.299C25.0476 40.0114 24.7852 39.7015 24.6115 39.3708ZM23.8027 22.7904C23.7735 22.7711 23.7915 22.719 23.8275 22.7314L23.8937 22.7543C24.17 22.8503 24.4544 22.9569 24.7052 23.1047C24.9748 23.2636 25.2237 23.453 25.4615 23.656C25.9538 24.0764 26.3725 24.5933 26.7284 25.1321C27.4426 26.2132 27.8842 27.4514 28.2407 28.6903C28.6209 30.0112 28.9136 31.3606 29.1526 32.7138C29.3955 34.089 29.5828 35.4767 29.706 36.8678C29.7666 37.5531 29.8074 38.2387 29.8278 38.9264C29.8384 39.2801 29.838 39.6337 29.8351 39.9875C29.8343 40.0785 29.8349 40.1695 29.836 40.2605L29.8394 40.5334C29.8413 40.7059 29.8619 40.8873 29.8209 41.0558C29.755 41.3272 29.3064 41.2766 29.3212 40.9992C29.3077 40.907 29.3071 40.8116 29.3106 40.716C29.3085 40.7037 29.3062 40.6912 29.3036 40.6783C29.2963 40.6417 29.3025 40.6077 29.3169 40.5786C29.3192 40.5327 29.3213 40.4872 29.3221 40.4424C29.325 40.2602 29.3248 40.0787 29.3198 39.8966C29.3092 39.5125 29.2939 39.1284 29.2785 38.7446C29.2477 37.9774 29.2048 37.21 29.1426 36.4447C28.9263 33.7811 28.4697 31.1023 27.7026 28.5397C27.3463 27.3497 26.8551 26.1815 26.1507 25.1532C25.8381 24.6966 25.4853 24.275 25.0942 23.8836C24.7007 23.4898 24.267 23.098 23.8027 22.7904ZM18.4948 39.9615L18.5479 40.3461C18.5745 40.5385 18.6008 40.7309 18.6258 40.9234C18.7955 40.9002 18.9691 40.8905 19.1326 40.876C19.4188 40.8506 19.707 40.8383 19.9941 40.8265C20.5877 40.802 21.1843 40.7595 21.7786 40.7625C21.7847 40.7625 21.7904 40.7629 21.7962 40.7634L21.8257 40.0044L21.4082 40.0038C21.0544 40.0032 20.7007 40.0002 20.347 39.9972C20.0284 39.9944 19.7097 39.994 19.3912 39.9874L19.2547 39.9841C19.0131 39.9776 18.7464 39.991 18.4948 39.9615ZM21.8607 38.8599C21.8437 38.8619 21.8263 38.8635 21.8079 38.8643C21.7252 38.8678 21.6419 38.8654 21.5591 38.8661C21.3829 38.8676 21.2067 38.8688 21.0305 38.8688C20.678 38.8687 20.3257 38.8709 19.9733 38.8751C19.6105 38.8795 19.248 38.8858 18.8852 38.8865C18.7095 38.8868 18.5343 38.8822 18.3585 38.8773C18.387 39.1271 18.4167 39.3767 18.4495 39.6257C18.7223 39.5888 19.0158 39.6074 19.2825 39.6049L19.3171 39.6044C19.6811 39.5982 20.0454 39.6028 20.4094 39.6032C20.784 39.6037 21.1585 39.6049 21.533 39.6079L21.8407 39.6105L21.8413 39.595C21.8503 39.3502 21.8561 39.1051 21.8607 38.8599ZM18.2232 37.6648C18.2573 37.9597 18.2893 38.255 18.322 38.5503C18.3436 38.547 18.3656 38.5441 18.388 38.5417C18.564 38.5233 18.7397 38.5075 18.9163 38.4966C19.2685 38.4748 19.6206 38.4632 19.9733 38.4538C20.336 38.444 20.6987 38.4366 21.0616 38.4315C21.2378 38.429 21.4139 38.4292 21.5902 38.4305C21.6729 38.431 21.7565 38.4284 21.839 38.434C21.8488 38.4346 21.8582 38.4356 21.8676 38.4367L21.8738 37.9934C21.8748 37.9195 21.8759 37.8457 21.8771 37.7718C21.6047 37.7886 21.3277 37.7822 21.0555 37.7823L20.9928 37.7824C20.6507 37.784 20.3085 37.7793 19.9665 37.7722C19.6137 37.7648 19.2616 37.7533 18.9093 37.7307C18.7667 37.7216 18.625 37.7094 18.4831 37.6938L18.4121 37.6857C18.3503 37.6784 18.2867 37.6725 18.2232 37.6648ZM21.9052 36.4138C21.2491 36.4659 20.5965 36.4877 19.9386 36.4942L19.8399 36.495C19.2586 36.4994 18.6724 36.5234 18.0897 36.508C18.1246 36.8102 18.1593 37.1124 18.1943 37.4145C18.2778 37.4106 18.3616 37.4106 18.4432 37.4076C18.6091 37.4017 18.7744 37.4002 18.9405 37.3998C19.2825 37.399 19.6245 37.402 19.9665 37.4013C20.319 37.4005 20.6714 37.3946 21.0238 37.3879C21.3096 37.3826 21.5983 37.3611 21.8848 37.3619L21.9052 36.4138ZM21.933 35.1246C21.857 35.1499 21.7672 35.1515 21.6688 35.156L21.4148 35.1687C21.2971 35.1744 21.1794 35.1799 21.0616 35.1842C20.669 35.1985 20.2765 35.212 19.8839 35.2245C19.4816 35.2372 19.0774 35.2447 18.6751 35.232C18.478 35.2258 18.2826 35.2154 18.0861 35.199C18.0375 35.1949 17.988 35.1923 17.9384 35.1887C17.9841 35.5891 18.03 35.9894 18.0761 36.3897C18.656 36.3185 19.2404 36.2742 19.8196 36.2006L20.3434 36.1337C20.8669 36.0668 21.3899 36.0013 21.9153 35.946L21.933 35.1246ZM21.961 33.8212C21.8494 33.8487 21.7223 33.8473 21.6151 33.8541L21.5953 33.8555C21.3923 33.8709 21.1888 33.8786 20.9854 33.8836C20.5866 33.8934 20.1876 33.8984 19.7888 33.9008L19.5489 33.9023C19.2291 33.9042 18.9096 33.905 18.5897 33.8975C18.3846 33.8927 18.1799 33.8827 17.9749 33.8724C17.9134 33.8693 17.8507 33.8673 17.7877 33.8641C17.8305 34.2432 17.8738 34.6221 17.917 35.0011C17.9844 34.9904 18.052 34.9823 18.1165 34.9714C18.2818 34.9435 18.4467 34.9212 18.6131 34.9012C18.9735 34.858 19.3359 34.8269 19.698 34.8007C20.0698 34.7737 20.4418 34.7509 20.8137 34.7248L21.077 34.7063C21.1648 34.7002 21.2526 34.6943 21.3404 34.6889C21.4904 34.6797 21.6647 34.6901 21.8135 34.6574C21.8538 34.6406 21.8985 34.6368 21.9433 34.6464L21.961 33.8212ZM21.9947 32.2955C21.9561 32.3445 21.8985 32.3702 21.8298 32.3791C21.4717 32.4256 21.1045 32.433 20.7434 32.4549L20.6798 32.4589C20.307 32.4835 19.9339 32.5028 19.5609 32.5226C19.1776 32.543 18.7944 32.5596 18.4108 32.5729C18.248 32.5786 18.0844 32.5793 17.9213 32.5772L17.8514 32.5761C17.7844 32.575 17.7143 32.5752 17.644 32.5729C17.6829 32.9273 17.7222 33.2817 17.762 33.6361C17.8337 33.6283 17.9053 33.6223 17.9749 33.615C18.1797 33.5933 18.3844 33.5719 18.5897 33.5557C18.9788 33.525 19.3682 33.5066 19.758 33.4873C20.1569 33.4675 20.556 33.4544 20.9549 33.4357C21.1483 33.4267 21.3416 33.4154 21.5344 33.3977C21.6696 33.3852 21.8301 33.3392 21.9711 33.3561C21.9788 33.0025 21.9868 32.649 21.9947 32.2955ZM22.0262 30.9287C22.0201 30.9382 22.0129 30.9473 22.0043 30.9559C21.8466 31.1116 21.6524 31.0996 21.4435 31.116L21.4307 31.117C21.226 31.1342 21.0211 31.1506 20.8162 31.1654C20.4065 31.195 19.996 31.2157 19.5858 31.2341C19.1659 31.253 18.7433 31.266 18.3231 31.2574C18.0539 31.2519 17.772 31.2529 17.4975 31.2266C17.5397 31.617 17.5821 32.0073 17.6248 32.3976C17.702 32.383 17.7797 32.3719 17.8533 32.3603C18.0387 32.3311 18.2243 32.3018 18.4108 32.2803C18.7836 32.2374 19.1564 32.1972 19.5298 32.161C19.8491 32.13 20.1684 32.0986 20.488 32.0703L20.6798 32.0537C21.0611 32.0216 21.4472 31.9687 21.8298 31.9609C21.8928 31.9596 21.9641 31.9939 22.0002 32.0481C22.0087 31.6749 22.0174 31.3018 22.0262 30.9287ZM22.0527 29.8223C21.9553 29.8341 21.8504 29.8274 21.7605 29.8303C21.5333 29.8378 21.3061 29.8447 21.0789 29.8514L19.7155 29.8916C19.2513 29.9053 18.7854 29.9156 18.3211 29.909C18.1168 29.9061 17.9116 29.9058 17.7074 29.8947L17.6394 29.8906C17.5553 29.8849 17.4522 29.8842 17.3515 29.8739L17.4704 30.9757C17.7436 30.9362 18.0251 30.9214 18.296 30.8983L18.3539 30.8932C18.7534 30.8568 19.1548 30.8327 19.555 30.8056C19.9655 30.7778 20.3755 30.744 20.7855 30.7095C20.9904 30.6922 21.1953 30.6751 21.4 30.6562L21.4253 30.6537C21.6187 30.6335 21.8006 30.5905 21.9719 30.7046C21.997 30.7213 22.0166 30.7436 22.03 30.7685C22.0375 30.4531 22.0448 30.1377 22.0527 29.8223ZM22.0844 28.5365C21.2541 28.5699 20.4237 28.5953 19.5927 28.6065C19.125 28.6127 18.6578 28.6083 18.1902 28.5985C17.9874 28.5943 17.7829 28.5846 17.5803 28.569L17.5044 28.5629C17.408 28.5548 17.3068 28.5489 17.206 28.5392C17.2477 28.918 17.289 29.2969 17.33 29.6758C17.4291 29.6574 17.5328 29.6489 17.6196 29.6378L17.6394 29.6351C17.8552 29.6054 18.0731 29.5881 18.2901 29.569C18.7125 29.5318 19.137 29.5078 19.5605 29.4874C19.9942 29.4665 20.4282 29.4488 20.8619 29.4296L21.2957 29.4101C21.368 29.4069 21.4403 29.4038 21.5126 29.4007C21.616 29.3964 21.7192 29.3922 21.8225 29.3879C21.8735 29.3858 21.9264 29.3789 21.9775 29.3815L21.992 29.3796C21.9987 29.3787 22.0046 29.378 22.01 29.3775C22.0239 29.3669 22.0388 29.3581 22.0546 29.3515L22.0642 29.3477L22.0844 28.5365ZM17.0699 27.318C17.1084 27.659 17.1466 28.0001 17.1842 28.3412C17.3026 28.3277 17.4225 28.3202 17.5355 28.3101C17.7636 28.2896 17.9926 28.2717 18.2213 28.2612L18.6784 28.2399C18.9831 28.2259 19.2878 28.2122 19.5927 28.2011C20.4272 28.1706 21.2616 28.1357 22.0956 28.0931C22.1015 27.8617 22.1076 27.6304 22.1138 27.399C22.0738 27.4419 22.0159 27.4701 21.9399 27.47C21.0644 27.4676 20.1881 27.4727 19.3127 27.4583C18.8744 27.451 18.4367 27.4404 17.999 27.4179C17.7848 27.407 17.5695 27.3845 17.3569 27.3551C17.2663 27.3425 17.1671 27.3336 17.0699 27.318ZM16.9298 26.1028C16.9709 26.4522 17.0113 26.8016 17.051 27.1511C17.1597 27.1317 17.2721 27.1213 17.3735 27.1075C17.5915 27.0779 17.8108 27.0543 18.0303 27.0419C18.4575 27.0177 18.8849 27.0055 19.3127 26.9964C20.1881 26.9778 21.0643 26.978 21.9399 26.971C22.0222 26.9704 22.0832 27.0029 22.1233 27.0515C22.1294 26.8334 22.1358 26.6153 22.1424 26.3971C22.0579 26.3882 21.974 26.3755 21.8964 26.3701C21.658 26.3534 21.4194 26.3382 21.1807 26.3245C20.6827 26.2959 20.1842 26.2715 19.6858 26.2498C19.1873 26.2282 18.6887 26.207 18.19 26.1885L17.972 26.1805C17.6252 26.1676 17.2725 26.1513 16.9298 26.1028ZM16.7729 24.7872C16.8158 25.141 16.858 25.4949 16.9001 25.8488L16.9129 25.9583C17.3299 25.8772 17.7695 25.8535 18.19 25.8356C18.6888 25.8143 19.1867 25.8034 19.6858 25.8049C20.1845 25.8065 20.6825 25.8183 21.1807 25.8389C21.4297 25.8491 21.6787 25.861 21.9275 25.8746C21.9959 25.8782 22.0761 25.8763 22.1587 25.8775C22.1605 25.8219 22.162 25.7662 22.1639 25.7107C22.1715 25.4854 22.1789 25.2602 22.1867 25.0349C22.0184 25.1214 21.7995 25.1563 21.6304 25.1932L21.6111 25.1974C21.3318 25.2602 21.0467 25.3008 20.7616 25.3257C20.2018 25.3745 19.6361 25.3563 19.0769 25.309L18.9789 25.3006C18.4878 25.258 17.9786 25.204 17.5025 25.0824C17.2757 25.0245 17.0412 24.9435 16.838 24.826C16.8169 24.8138 16.7951 24.8009 16.7729 24.7872ZM21.5018 20.5829C21.5067 20.5638 21.5353 20.5594 21.5447 20.5773C21.6109 20.703 21.6355 20.8538 21.6814 20.9885C21.7308 21.1333 21.7769 21.2791 21.8314 21.4222C21.9453 21.721 22.0797 22.0082 22.2399 22.285C22.3985 22.5591 21.9543 22.7547 21.8376 22.4547C21.717 22.145 21.618 21.8248 21.558 21.4976C21.5288 21.3379 21.5027 21.1761 21.4942 21.0138C21.4869 20.8745 21.4674 20.7188 21.5018 20.5829Z" fill="black"/>
<path fill-rule="evenodd" clip-rule="evenodd" d="M24.2012 12.6567C23.9185 11.4621 23.3005 10.3503 22.3111 9.45186C19.3337 6.50091 13.866 8.10263 13.8908 12.5495C13.784 13.0689 13.7407 13.6029 13.776 14.1326C13.7906 14.3586 13.8882 14.674 13.7571 14.8774C13.4614 15.258 13.2896 15.5384 13.3902 16.0446C13.4743 16.4866 13.7743 16.7997 14.1792 16.9661C14.4221 17.036 14.6525 17.1882 14.7424 17.4201C15.2829 18.4122 15.6834 19.2373 16.5355 19.9135C16.7554 20.0875 19.0106 21.1315 19.7536 21.1315C21.929 21.1315 24.6708 20.3415 24.7163 17.9055C24.7242 17.3705 24.6306 16.8292 24.5718 16.2984C24.4288 15.087 24.4792 13.8318 24.2012 12.6567Z" fill="#D08B5B"/>
<path fill-rule="evenodd" clip-rule="evenodd" d="M24.1521 12.0587C24.1528 12.044 24.1739 12.0406 24.178 12.0552C24.2588 12.3428 24.3047 12.6358 24.3679 12.9279C24.4288 13.2092 24.4863 13.4914 24.5342 13.7752C24.6245 14.3108 24.7005 14.8478 24.7713 15.3862L24.7889 15.5208C24.9119 16.4682 25.115 17.4552 24.9374 18.4081C24.7858 19.2212 24.2776 19.8766 23.6227 20.357C23.0026 20.812 22.2507 21.1039 21.5042 21.2699C20.703 21.4481 19.7532 21.5012 19.1013 20.9122C18.8403 20.6764 19.1961 20.2084 19.4792 20.4212C20.144 20.9209 20.9898 20.7736 21.7399 20.5748L21.7627 20.5687C22.4211 20.3929 23.0839 20.1264 23.6066 19.6769C24.1845 19.1798 24.4702 18.49 24.5032 17.7334C24.5218 17.3083 24.4822 16.8837 24.4396 16.4611L24.4348 16.4142C24.3859 15.9309 24.3346 15.4479 24.2872 14.9644C24.2439 14.5236 24.2066 14.0802 24.1869 13.6374L24.1777 13.414C24.1586 12.9637 24.1328 12.5069 24.1521 12.0587ZM16.355 8.31731C17.4369 7.75268 18.6802 7.5506 19.8842 7.74009C21.0416 7.92226 22.1038 8.52099 22.8978 9.37951C23.2854 9.79867 23.6295 10.2835 23.8494 10.8132C23.9586 11.0764 24.0441 11.3509 24.0896 11.6328C24.1131 11.7777 24.1361 11.9279 24.1405 12.0748C24.1445 12.2109 24.1047 12.3385 24.1094 12.4768C24.1101 12.4984 24.0771 12.5026 24.072 12.4819C24.0344 12.3276 23.9438 12.211 23.887 12.0646C23.8445 11.9552 23.7963 11.8484 23.7472 11.742L23.7051 11.6508C23.5827 11.3856 23.4364 11.1314 23.2917 10.8781C23.0004 10.3679 22.6265 9.90429 22.1887 9.51305C21.4201 8.82615 20.4341 8.38275 19.4049 8.30291C18.3367 8.22 17.2533 8.47525 16.341 9.04066C15.4288 9.60605 14.7391 10.485 14.381 11.4969C14.2003 12.0076 14.1005 12.5396 14.0773 13.0806C14.0655 13.3545 14.0765 13.6306 14.0957 13.9039L14.1052 14.0342C14.1163 14.1905 14.1239 14.3462 14.1006 14.4988C14.2652 14.4473 14.4377 14.426 14.6107 14.4514C14.8679 14.4893 15.0216 14.595 15.137 14.8254C15.143 14.8374 15.1309 14.8494 15.119 14.8434C14.9694 14.7686 14.7274 14.808 14.569 14.8472C14.4041 14.8881 14.2557 14.9591 14.1156 15.0551C13.8564 15.2326 13.6533 15.5076 13.6035 15.8232C13.5553 16.1281 13.6801 16.4367 13.8898 16.6552C13.9977 16.7678 14.1268 16.865 14.2712 16.9257C14.4465 16.9993 14.6201 16.997 14.7752 17.1185C14.871 17.1936 14.8479 17.3222 14.7828 17.4056C15.1101 17.7653 15.4002 18.1588 15.7274 18.5199C15.8791 18.6873 16.0296 18.8549 16.1749 19.0276L16.2291 19.0927C16.3742 19.2682 16.6051 19.4537 16.6714 19.6745C16.7127 19.8119 16.566 19.9915 16.4176 19.9289C16.1901 19.8329 16.0277 19.583 15.8739 19.3914L15.8639 19.3789C15.7027 19.1803 15.5596 18.9707 15.4287 18.751L15.3857 18.6786C15.149 18.2796 14.9144 17.8658 14.7635 17.4275C14.7536 17.4378 14.743 17.4471 14.7319 17.4551C14.5145 17.61 14.1985 17.4909 13.9814 17.3903C13.7765 17.2953 13.5886 17.1524 13.4421 16.9801C13.1236 16.6056 12.9768 16.1205 13.0831 15.6344C13.1733 15.2226 13.4579 14.8221 13.8312 14.6138C13.6589 14.415 13.5876 14.147 13.5401 13.8849C13.4795 13.5504 13.4674 13.2076 13.4839 12.8685C13.5167 12.1929 13.6901 11.5269 13.9582 10.9082C14.4379 9.80131 15.2859 8.87537 16.355 8.31731ZM14.0781 15.704C14.3052 15.6613 14.5168 15.651 14.7358 15.7473C14.9733 15.8519 15.1405 16.0245 15.296 16.2267C15.4728 16.4567 15.0196 16.7079 14.9053 16.4026L14.902 16.3932C14.8713 16.3028 14.8165 16.2154 14.7471 16.135C14.7263 16.167 14.6984 16.1951 14.6657 16.2113C14.626 16.2308 14.5655 16.2173 14.556 16.1665C14.5454 16.1102 14.5571 16.0419 14.5895 15.9942L14.594 15.9877C14.4364 15.8606 14.2469 15.7678 14.0781 15.7379C14.0613 15.7349 14.0614 15.7071 14.0781 15.704Z" fill="black"/>
<path fill-rule="evenodd" clip-rule="evenodd" d="M19.5939 16.5637C20.4236 16.5637 21.0962 15.975 21.0962 15.2487C21.0962 14.5224 20.4236 13.9336 19.5939 13.9336C18.7642 13.9336 17.8662 14.4985 17.8662 15.2248C17.8662 15.533 18.1089 16.0715 18.3117 16.2957C18.5869 16.5998 19.1162 16.5637 19.5939 16.5637Z" fill="white"/>
<path fill-rule="evenodd" clip-rule="evenodd" d="M23.1692 16.312C23.8044 16.312 24.3193 15.7796 24.3193 15.1228C24.3193 14.466 23.8044 13.9336 23.1692 13.9336C22.5341 13.9336 21.8467 14.4444 21.8467 15.1012C21.8467 15.3799 22.0325 15.8669 22.1877 16.0696C22.3984 16.3447 22.8036 16.312 23.1692 16.312Z" fill="white"/>
<path fill-rule="evenodd" clip-rule="evenodd" d="M19.5727 17.3804C19.5793 17.3743 19.5897 17.3722 19.5976 17.3771C19.733 17.4628 19.7491 17.7509 19.7506 17.9173C19.8066 17.9319 19.862 17.9485 19.9143 17.9601C20.0254 17.9847 20.1372 18.0061 20.2487 18.0287L20.3323 18.046C20.6116 18.1049 20.8962 18.1485 21.1809 18.1703C21.4572 18.1914 21.7416 18.1992 22.0171 18.1636C22.1354 18.1483 22.253 18.1227 22.3673 18.0886C22.5025 18.0483 22.6101 17.9814 22.7358 17.9229C23.0505 17.7763 23.3142 18.2059 23.0114 18.3945C22.7514 18.5563 22.3967 18.6146 22.0966 18.6397C21.7899 18.6652 21.4844 18.6372 21.1813 18.5886C20.8537 18.5361 20.5329 18.4555 20.2221 18.3386C20.0908 18.2892 19.9636 18.2292 19.8395 18.1637L19.8057 18.1457C19.7851 18.1346 19.7636 18.1234 19.742 18.112C19.7187 18.3195 19.6517 18.5199 19.5707 18.7126L19.5688 18.7092C19.5245 18.8612 19.3645 18.9552 19.2053 18.8881C19.0185 18.8093 19.0043 18.6026 19.113 18.4559L19.1182 18.449C19.246 18.2845 19.3261 18.0805 19.3957 17.8859C19.4314 17.7862 19.4645 17.6841 19.4932 17.582C19.5139 17.5082 19.5147 17.434 19.5727 17.3804ZM24.3875 15.728C24.2768 16.0628 24.0352 16.3207 23.6987 16.434C23.3653 16.5464 22.9944 16.5054 22.6536 16.4447C22.579 16.4314 22.5034 16.4167 22.428 16.3996C22.4897 16.4379 22.5442 16.4917 22.5964 16.5487C22.6736 16.6328 22.7436 16.7216 22.7648 16.8269C22.7859 16.9315 22.7527 17.011 22.6922 17.0711C22.5991 17.1634 22.4489 17.2132 22.3217 17.2407C22.0368 17.3023 21.7514 17.2927 21.4679 17.2295C21.3956 17.2134 21.3465 17.1746 21.3189 17.1239C21.2855 17.0624 21.2827 16.9859 21.3019 16.9162C21.3211 16.8466 21.3626 16.7824 21.4228 16.7469C21.4723 16.7176 21.5343 16.7096 21.6046 16.733C21.7458 16.78 21.886 16.8111 22.0351 16.8147C22.0982 16.8162 22.1617 16.8143 22.2247 16.8085C22.2603 16.8053 22.2959 16.8007 22.3312 16.7951C22.3104 16.7673 22.2902 16.7391 22.2704 16.7105C22.2471 16.6768 22.2243 16.6426 22.2026 16.6079C22.1398 16.5073 22.0875 16.4039 22.0416 16.2947C22.0269 16.2597 22.0132 16.2246 22.0001 16.1894C21.9982 16.1843 21.9963 16.1792 21.9944 16.1741C21.9904 16.1707 21.9864 16.1673 21.9824 16.1639C21.8925 16.0861 21.8172 15.9903 21.7639 15.8716C21.6196 15.5502 21.6431 15.1512 21.7306 14.8174C21.8008 14.5499 21.9557 14.3025 22.1603 14.1343C22.196 14.0755 22.2196 14.0399 22.2485 14.0098C22.3661 13.8874 22.5302 13.8049 22.6903 13.7547C23.0479 13.6425 23.4374 13.723 23.7406 13.9366C24.0205 14.1338 24.2396 14.4296 24.358 14.7586C24.4702 15.0702 24.4921 15.4119 24.3875 15.728ZM19.5161 13.6932C19.9415 13.6895 20.3742 13.8152 20.7193 14.0666C21.0495 14.3071 21.3088 14.6623 21.3084 15.0853C21.3081 15.4972 21.088 15.9022 20.8439 16.2211C20.5699 16.5791 20.2119 16.7517 19.7617 16.7557C19.5277 16.7578 19.2919 16.7371 19.0596 16.7086L18.9349 16.6929C18.7633 16.6707 18.5899 16.6445 18.4272 16.5855C17.6527 16.3045 17.6287 15.2904 17.9155 14.6422C18.137 14.1417 18.6975 13.6536 19.2565 13.7122C19.3407 13.7004 19.4272 13.694 19.5161 13.6932ZM20.2345 14.1701C19.7019 13.9309 19.0547 14.0025 18.5381 14.2577C18.3334 14.4811 18.1838 14.7626 18.1233 15.0211C18.0587 15.297 18.0681 15.5941 18.1653 15.8615C18.284 16.188 18.5761 16.2688 18.8913 16.319L19.0137 16.3382L19.065 16.346C19.3747 16.3922 19.7133 16.4281 20.0109 16.3703C20.3426 16.3058 20.5532 16.0377 20.719 15.7629L20.7268 15.75C20.899 15.462 21.0431 15.1118 20.8987 14.7818C20.7759 14.5014 20.5077 14.2928 20.2345 14.1701ZM23.3782 14.2534C23.1954 14.1521 22.9869 14.1337 22.7895 14.2015C22.7046 14.2307 22.6312 14.278 22.5601 14.331L22.5317 14.3524C22.4442 14.4196 22.3625 14.4537 22.2969 14.5444L22.2884 14.5566C22.2553 14.606 22.1974 14.6258 22.1446 14.6192C22.0831 14.7889 22.0577 14.9723 22.0572 15.1529L22.0572 15.1768L22.0575 15.2012C22.0615 15.4146 22.0987 15.6757 22.2666 15.8188C22.4197 15.9492 22.6516 15.9805 22.8585 15.9987L23.0181 16.012L23.0605 16.0152C23.2786 16.0304 23.5177 16.0252 23.7005 15.896C23.8598 15.7835 23.9349 15.5925 23.9544 15.4039C24.0004 14.9584 23.775 14.4734 23.3782 14.2534ZM19.3995 14.2946C19.6928 14.1448 20.0451 14.1823 20.2936 14.3701C20.2715 14.3744 20.2498 14.3799 20.2281 14.3908C20.1718 14.419 20.1368 14.4756 20.1234 14.5359C20.1084 14.604 20.1437 14.6685 20.2109 14.6899C20.2694 14.7086 20.3387 14.7171 20.393 14.6816C20.4214 14.663 20.4413 14.6385 20.4544 14.6076L20.4562 14.6031L20.4585 14.5997L20.4594 14.5982C20.4596 14.5976 20.4585 14.5987 20.4569 14.6013C20.4586 14.5974 20.4601 14.5936 20.4617 14.5896C20.4639 14.585 20.4661 14.5803 20.4679 14.5754C20.4711 14.5727 20.474 14.5697 20.4769 14.5666C20.522 14.6361 20.5574 14.7146 20.5799 14.8019C20.7243 15.3622 20.1322 15.9437 19.6031 16.0018C19.4032 16.0238 19.2209 15.9762 19.0696 15.8823C19.071 15.8805 19.0725 15.8788 19.0737 15.8769C19.1345 15.8878 19.2071 15.8606 19.2291 15.7928C19.2854 15.6198 19.2277 15.4174 19.0393 15.3609C18.918 15.3245 18.794 15.3647 18.7073 15.4476C18.6417 15.2872 18.6183 15.1065 18.6493 14.9255C18.6931 14.6703 18.847 14.4402 19.0866 14.334C19.2032 14.2823 19.3038 14.2714 19.3995 14.2946ZM22.4883 14.6403L22.4972 14.6262C22.5878 14.4867 22.7611 14.3155 22.9406 14.3626C22.9659 14.3692 22.9906 14.3798 23.0129 14.3936C23.1115 14.3802 23.2148 14.4026 23.2996 14.4548L23.2973 14.4607C23.297 14.4617 23.2966 14.4627 23.2964 14.4637C23.2887 14.4976 23.2932 14.529 23.309 14.5602C23.3262 14.594 23.3507 14.626 23.3839 14.6454C23.4066 14.6587 23.4334 14.6657 23.4596 14.6651C23.4981 14.6644 23.5319 14.6475 23.5597 14.6216C23.5749 14.6076 23.5854 14.587 23.5912 14.5659C23.6049 14.579 23.6182 14.5937 23.6309 14.6103C23.8391 14.8841 23.8103 15.3242 23.5661 15.5683C23.5562 15.5781 23.5457 15.587 23.5354 15.5961C23.4362 15.7326 23.2834 15.8253 23.0998 15.8441C22.9299 15.8615 22.7599 15.8112 22.6296 15.7081C22.6401 15.7025 22.6499 15.6953 22.6583 15.6857C22.6806 15.6605 22.6989 15.6356 22.7124 15.6049C22.7158 15.5971 22.7191 15.5893 22.7222 15.5815L22.7267 15.5696C22.7275 15.5674 22.7344 15.5474 22.7326 15.5509L22.7322 15.5517L22.7346 15.5459C22.758 15.4877 22.7485 15.4211 22.6932 15.3846L22.6871 15.3808C22.669 15.3702 22.6466 15.3652 22.6239 15.3652C22.5673 15.296 22.4832 15.2801 22.4042 15.3003L22.4015 15.278C22.4011 15.2742 22.4007 15.2705 22.4004 15.2667C22.3392 15.0638 22.3688 14.8332 22.4883 14.6403ZM19.7716 12.5972L19.792 12.594C19.9456 12.5718 20.05 12.5974 20.1499 12.7288C20.1975 12.7913 20.1828 12.8859 20.1499 12.9498C20.0436 13.1565 19.751 13.1138 19.5539 13.1548C19.3615 13.1949 19.1696 13.2494 18.9896 13.3287C18.8059 13.4097 18.6335 13.5055 18.4653 13.6149C18.3132 13.7138 18.1753 13.8626 18.0016 13.9202C17.9937 13.9228 17.9843 13.9158 17.9848 13.9075C17.9972 13.7098 18.1622 13.5283 18.29 13.3876C18.4379 13.2248 18.6177 13.0803 18.805 12.9653C18.9982 12.8468 19.2071 12.7492 19.4234 12.6811C19.5373 12.6453 19.6538 12.6168 19.7716 12.5972ZM22.1121 12.8656C22.3055 12.5826 22.7863 12.6369 23.0701 12.7125C23.4258 12.8073 23.8113 12.9989 24.0607 13.2763C24.2842 13.5249 23.9499 13.8477 23.6986 13.6386L23.6315 13.583L23.5886 13.5477C23.3957 13.3901 23.2047 13.2475 22.9696 13.1424C22.694 13.0192 22.4148 12.9593 22.1235 12.8936C22.112 12.8911 22.1053 12.8755 22.1121 12.8656Z" fill="black"/>
<path fill-rule="evenodd" clip-rule="evenodd" d="M19.1778 19.1994C19.4312 18.6055 19.9843 18.169 20.6211 18.0094C21.0887 17.8925 21.5794 17.8963 22.0561 17.9427C22.3058 17.9668 22.5737 17.9866 22.8091 18.0793C23.0101 18.1586 23.1739 18.3084 23.297 18.4843C23.4436 18.6927 23.5433 18.9313 23.6133 19.1758C23.6233 19.2105 23.6326 19.2455 23.6413 19.2807C23.6109 19.4652 23.5463 19.6222 23.3755 19.7382C23.2088 19.8514 23.0099 19.8977 22.8117 19.9142C22.7923 19.9049 22.7735 19.8953 22.7563 19.8854C22.4473 19.7085 22.2299 19.2904 21.84 19.347C21.4921 19.3975 21.263 19.8355 21.0561 20.0924C20.3919 20.1698 19.7281 19.9701 19.1877 19.5902C19.1603 19.4601 19.1587 19.329 19.1778 19.1994ZM24.0928 18.7488C24.0397 18.5997 23.9727 18.4552 23.8934 18.3191C23.6312 17.869 23.2286 17.5104 22.7506 17.3054C21.6201 16.8211 20.1572 17.1625 19.2442 17.9568C18.9323 18.2283 18.6169 18.6273 18.5216 19.0564C18.4931 19.0621 18.4662 19.0769 18.4441 19.0978C17.7844 18.6823 17.1051 18.2826 16.5735 17.7066C16.1875 17.2882 15.919 16.793 15.7546 16.2488C15.7412 16.204 15.669 16.2105 15.6711 16.2601C15.6718 16.2717 15.6724 16.2833 15.673 16.2949C15.6661 16.2736 15.6336 16.2845 15.6311 16.3052C15.5427 16.9663 15.432 17.6671 15.5339 18.3316C15.5949 18.7282 15.7749 19.0184 16.0156 19.3319C16.2735 19.6679 16.5654 19.9804 16.8639 20.2801C17.0533 20.4703 17.2512 20.6897 17.4831 20.8292C17.7529 20.9912 18.0589 21.1144 18.3468 21.2395C18.6397 21.3671 18.9369 21.4849 19.2398 21.5871C19.8453 21.7921 20.471 21.9338 21.1077 21.9958C21.6176 22.0454 22.2002 22.0993 22.6887 21.9074C23.0632 21.7604 23.3655 21.4947 23.6052 21.1749C23.8662 20.8267 24.0725 20.43 24.1866 20.0117C24.3051 19.5772 24.1178 18.8189 24.0928 18.7488Z" fill="black"/>
</svg>
