<svg width="36" height="48" viewBox="0 0 36 48" fill="none" xmlns="http://www.w3.org/2000/svg">
<path fill-rule="evenodd" clip-rule="evenodd" d="M6.10303 30.995L28.5278 32.7759L28.5513 32.9283C28.9271 35.3766 29.1169 37.0375 29.1207 37.9112L29.1208 37.9379C29.1208 38.8042 29.3866 40.1819 29.9183 42.0711L29.9511 42.1875L6.07173 42.2291L5.79004 36.5426L6.10303 30.995ZM19.3791 18.7928C20.2909 18.8379 21.2098 19.2289 21.2808 19.4788C21.4389 20.0354 21.6931 22.4181 22.5291 22.7842C23.365 23.1503 25.1498 22.8165 25.66 23.6907C26.1703 24.5649 27.8461 28.1285 27.8461 28.9589C27.8461 29.5124 22.385 29.7046 11.4628 29.5353C11.6022 25.0766 12.1835 22.7327 13.2067 22.5039L13.298 22.4837C14.7777 22.1603 15.662 22.1499 16.1668 21.6286C16.6818 21.0968 16.7753 20.1838 16.989 19.4788C17.1067 19.0904 18.2602 18.7376 19.3791 18.7928Z" fill="#D08B5B"/>
<path fill-rule="evenodd" clip-rule="evenodd" d="M21.3782 20.186C21.3817 20.1834 21.3851 20.1826 21.3889 20.1845C21.4599 20.2186 21.4746 20.2869 21.499 20.3579C21.5347 20.4619 21.576 20.5633 21.6142 20.6664C21.6903 20.873 21.7629 21.0794 21.8477 21.2826C21.9347 21.4917 22.0249 21.6971 22.1281 21.8991C22.1779 21.9968 22.2314 22.0926 22.2859 22.1878C22.3235 22.2538 22.3585 22.3446 22.408 22.4066C22.4117 22.3869 22.417 22.3681 22.4233 22.3506C22.4168 22.3537 22.4105 22.3572 22.4045 22.3609C22.392 22.3687 22.377 22.3531 22.3845 22.3409C22.4114 22.2964 22.4465 22.2664 22.4865 22.246C22.5973 22.123 25.0395 22.7102 25.7072 23.3698C26.9164 24.5643 27.7325 26.0412 28.2693 27.6124C28.5657 28.4794 28.8386 29.3549 29.1206 30.2266C29.4186 31.1484 29.7297 32.0661 30.0283 32.9873C30.0937 33.1899 29.951 33.374 29.7707 33.4407C29.4349 33.5647 29.0965 33.6815 28.7554 33.7895C28.9209 34.4254 29.0368 35.0748 29.12 35.7261C29.2918 37.069 29.3134 38.4392 29.5842 39.768C29.6464 40.073 29.725 40.3737 29.8081 40.6736L29.8274 40.7428C29.8768 40.9187 29.9219 41.0963 29.9826 41.2685C30.0349 41.4166 30.1025 41.5659 30.1391 41.7187C30.182 41.8985 30.1188 42.0948 29.9507 42.1871C29.8158 42.2614 29.6227 42.2307 29.5413 42.0913C29.5247 42.0628 29.5147 42.0318 29.5106 42.0005C29.4984 41.9745 29.4871 41.9479 29.4771 41.9207C29.4732 41.9102 29.4698 41.8993 29.4665 41.8884L29.4568 41.8559C29.433 41.7782 29.4111 41.6999 29.3892 41.6217C29.3535 41.4961 29.3176 41.3709 29.2779 41.2464L29.2577 41.1842C29.1594 40.8849 29.0715 40.5831 28.9948 40.2775C28.7204 39.1817 28.6622 38.0472 28.5868 36.9242L28.5829 36.8661C28.5147 35.8598 28.474 34.8556 28.5576 33.8515L28.5461 33.8552L28.5347 33.8587C28.4261 33.8919 28.3172 33.9244 28.208 33.9561C28.2045 33.9573 28.2014 33.9586 28.1979 33.9595C28.128 33.9812 28.0562 34.0017 27.9831 34.0209L27.9391 34.0322L27.9081 34.0406L27.8755 34.0499C27.772 34.0799 27.6665 34.1145 27.5591 34.1111C27.3814 34.1395 27.2004 34.1568 27.0227 34.1574C27.0774 35.0532 27.1407 35.9484 27.2161 36.8426C27.2918 37.7416 27.3923 38.6371 27.4965 39.5326C27.5479 39.975 27.603 40.4165 27.6637 40.8574C27.6943 41.0809 27.7263 41.3032 27.767 41.5249C27.8089 41.7516 27.8831 41.994 27.8383 42.2232C27.8374 42.2228 27.8364 42.2225 27.8355 42.2225C27.8205 42.2889 27.7804 42.3484 27.7106 42.3894C27.5826 42.4642 27.4036 42.4204 27.33 42.2895C27.3238 42.2786 27.3178 42.2673 27.3122 42.2557C27.2368 42.288 27.1541 42.3005 27.0527 42.3014L25.6774 42.3152C25.0524 42.3215 24.4274 42.328 23.802 42.3371C21.8387 42.3661 19.8753 42.3995 17.912 42.4232L17.1757 42.4317C16.0715 42.4433 14.9666 42.4661 13.8624 42.4658C13.31 42.4658 12.7582 42.4639 12.2058 42.4505C11.9382 42.4439 11.6712 42.4336 11.4039 42.4226L11.3567 42.4204C11.1433 42.4099 10.9168 42.3901 10.7081 42.4379C10.6505 42.55 10.5034 42.5732 10.4264 42.4586C10.2505 42.1964 10.2025 41.8305 10.17 41.5101L10.1585 41.3947C10.1225 41.0355 10.0909 40.6764 10.0674 40.3166C9.98417 39.0419 9.95381 37.766 9.992 36.4888C10.0114 35.8379 10.0712 35.1907 10.1419 34.5435C10.1641 34.3415 10.1873 34.1399 10.2123 33.9385L10.2128 33.8669C10.2128 33.8441 10.2127 33.8222 10.212 33.8017L10.2058 33.6074C10.2006 33.4455 10.1958 33.2835 10.1938 33.1215L10.1929 33.0242L10.192 32.8433C10.0374 32.8286 9.87244 32.7772 9.7391 32.7525C9.52286 32.7121 9.30718 32.6686 9.09215 32.6225C8.66148 32.5298 8.2355 32.4203 7.81234 32.2991L7.72235 32.2732C7.33188 32.1607 6.93604 32.0407 6.56665 31.8723C6.42205 31.8062 6.27776 31.7317 6.151 31.634C6.14349 31.7367 6.1319 31.8391 6.12502 31.9409C6.11128 32.1422 6.09497 32.3429 6.08151 32.5442L6.06864 32.7358C6.0475 33.055 6.02846 33.3738 6.01985 33.694C5.98167 35.0905 5.9751 36.4929 6.04896 37.8884C6.08558 38.587 6.13785 39.2855 6.21328 39.9813C6.25021 40.3235 6.28934 40.6667 6.33754 41.0077C6.3873 41.358 6.47713 41.7062 6.50467 42.0591C6.53097 42.3994 6.01078 42.4489 5.92533 42.1377C5.82302 41.7645 5.79695 41.3619 5.74302 40.9782L5.73691 40.9356C5.67713 40.528 5.62924 40.1187 5.58793 39.7089C5.44529 38.2952 5.40827 36.8743 5.48308 35.4552C5.51864 34.7756 5.60297 34.0986 5.70503 33.4262L5.71688 33.3486C5.76334 33.0475 5.80684 32.7463 5.85945 32.4465L5.87964 32.3341C5.9269 32.0765 5.9632 31.7962 6.03989 31.5385L6.01709 31.5175C5.97448 31.4778 5.92829 31.4318 5.89466 31.3823C5.77885 31.3666 5.68026 31.2833 5.69247 31.1321C5.73222 30.6352 5.91375 30.1298 6.07557 29.6608C6.23801 29.1893 6.42643 28.7265 6.63989 28.2756C7.39075 26.6909 8.47212 25.2522 9.7945 24.0996C10.4959 23.4881 11.2646 22.9458 12.1141 22.5597C12.5328 22.3691 12.966 22.2216 13.4199 22.1421C13.6446 22.1026 13.8715 22.0719 14.1 22.0653C14.2853 21.9559 14.5054 22.0019 14.6849 22.122L14.6947 22.1286H14.695L14.741 22.1377C14.7522 22.1399 14.7519 22.1577 14.741 22.1602C14.7404 22.1602 14.7394 22.1605 14.7388 22.1608C14.7682 22.184 14.7961 22.2087 14.822 22.2354C14.9078 22.323 14.9075 22.4289 14.8634 22.5143C15.126 22.7579 15.2918 23.0707 15.4656 23.386C15.6518 23.7236 15.8956 24.0154 16.1923 24.2615C17.2799 25.1639 18.8796 25.5631 20.2424 25.137C21.2446 24.8239 22.1006 23.9763 22.3372 22.9558C22.2812 22.9759 22.2205 22.979 22.1629 22.9583C21.8925 22.8619 21.7893 22.5662 21.6859 22.319L21.6809 22.3071C21.5798 22.0675 21.495 21.8242 21.428 21.5731C21.3604 21.3195 21.3206 21.0518 21.304 20.79C21.2976 20.6865 21.3005 20.583 21.3058 20.4795L21.3106 20.394C21.3142 20.3164 21.3131 20.2372 21.3782 20.186ZM16.9779 19.4881C16.9817 19.4787 16.9964 19.4737 17.002 19.485C17.2414 19.9791 17.0843 20.656 16.858 21.1273C16.6211 21.6201 16.2643 21.994 15.8415 22.3174C15.7832 22.3619 15.7234 22.4057 15.6627 22.4486C15.31 22.6978 14.9957 22.0259 15.403 21.8975C15.8274 21.6818 16.1723 21.2973 16.412 20.8934C16.5416 20.6751 16.6565 20.4478 16.7444 20.2092C16.8321 19.9713 16.8847 19.7236 16.9779 19.4881Z" fill="black"/>
<path fill-rule="evenodd" clip-rule="evenodd" d="M23.9223 13.2298C23.9384 12.4441 23.8657 11.6389 23.4848 10.9366C23.1541 10.2775 22.6635 9.70618 22.1598 9.17436C21.9497 8.95246 21.6691 8.72887 21.6954 8.39249C21.7229 8.03952 21.9347 7.2749 21.9674 6.91874C22.0317 6.21843 21.5317 6.02571 20.9472 5.69294C20.2423 5.29156 19.3999 5.338 18.6358 5.51819C17.2109 5.85904 15.5178 6.42474 14.9793 7.93845C14.8499 8.31177 14.8822 8.7047 14.8564 9.09195C14.8323 9.45444 14.6875 9.79968 14.5488 10.1309C13.8153 11.768 13.8219 13.5755 13.9551 15.3326C13.5634 15.4234 13.1847 15.7302 13.0984 16.1372C12.9537 16.8499 13.6993 17.1794 14.1397 17.5646C14.6768 18.0344 15.0678 18.6424 15.556 19.1586C18.7241 22.6605 25.7147 21.0487 24.2614 15.5942C24.0643 14.819 23.893 14.035 23.9223 13.2298Z" fill="#D08B5B"/>
<path fill-rule="evenodd" clip-rule="evenodd" d="M18.6364 5.51819C19.3928 5.3398 20.226 5.2925 20.9266 5.68103L21.0001 5.72253C21.5617 6.03773 22.0303 6.23944 21.9679 6.91874C21.9353 7.2749 21.7235 8.03952 21.6959 8.39249C21.695 8.40364 21.6945 8.41467 21.6943 8.42558L21.3691 9.88621H19.6017C18.7507 8.97242 17.9899 8.51552 17.3195 8.51552C16.6578 8.51552 15.9569 8.71975 15.2168 9.12821L15.1872 9.14465L14.8506 9.16408C14.8532 9.14011 14.8554 9.11607 14.857 9.09195C14.8827 8.7047 14.8504 8.31177 14.9799 7.93845C15.5183 6.42474 17.2115 5.85904 18.6364 5.51819Z" fill="#EC7495"/>
<path fill-rule="evenodd" clip-rule="evenodd" d="M17.6556 5.59401C18.4424 5.28741 19.2928 5.15778 20.134 5.26643C20.5867 5.32489 21.0255 5.44694 21.4394 5.64063C21.6391 5.73406 21.8306 5.84484 22.0102 5.97281L22.0266 5.98457C22.1688 6.08736 22.3138 6.21449 22.2972 6.38512C22.3082 6.42084 22.3101 6.46011 22.3014 6.49928C22.1611 7.1302 22.014 7.75911 21.8688 8.38881C21.8383 8.5212 21.8087 8.6538 21.7794 8.7865C22.7676 9.53245 23.6965 10.5523 24.0483 11.7641C24.3926 12.9504 24.2419 14.1998 24.3636 15.414C24.3925 15.7016 24.4412 15.987 24.5177 16.2659C24.5999 16.5655 24.7372 16.8486 24.8067 17.1515C24.9464 17.7608 24.7437 18.359 24.423 18.8757C23.8284 19.8335 22.9301 20.6417 21.8856 21.0709C21.3512 21.2904 20.7629 21.4098 20.1847 21.4005C19.6177 21.3914 18.9722 21.2746 18.4976 20.9466C18.1767 20.7249 18.4509 20.2883 18.7961 20.4346L18.8899 20.4742C19.1292 20.5747 19.3669 20.6678 19.6235 20.7212C19.9104 20.7809 20.2052 20.7936 20.4972 20.7753C21.0636 20.7397 21.6006 20.5507 22.0895 20.2669C22.5306 20.0108 22.9237 19.68 23.2746 19.3104L23.3137 19.2691C23.646 18.9157 23.9805 18.5129 24.1674 18.0633C24.2636 17.832 24.3157 17.5776 24.274 17.3281C24.226 17.0404 24.0982 16.7694 24.0237 16.4883C23.8821 15.9542 23.8343 15.3973 23.818 14.8463L23.8169 14.804C23.7868 13.6732 23.8723 12.5281 23.4728 11.4472C23.111 10.4684 22.3652 9.71957 21.7553 8.89583C21.7253 9.03213 21.6955 9.16849 21.6652 9.30469C21.629 9.46745 21.596 9.63124 21.5566 9.79318L21.5537 9.80498C21.5655 9.8399 21.5614 9.8796 21.5297 9.90459C21.5262 9.90734 21.5226 9.90972 21.5191 9.91229C21.4868 9.98718 21.4366 10.0446 21.3407 10.0685C21.2488 10.0913 21.1761 10.0524 21.1353 9.98515L20.6559 9.98759C20.3514 9.98916 20.0174 10.0242 19.718 9.9621C19.6719 9.95252 19.6778 9.88696 19.718 9.87434C20.0009 9.78573 20.3313 9.78786 20.625 9.7604L21.0879 9.71709C21.1084 9.71519 21.129 9.71274 21.1496 9.71016L21.1806 9.70626L21.3416 8.98845C21.4054 8.70365 21.4722 8.41931 21.5306 8.13334C21.6357 7.61774 21.7511 7.10449 21.8663 6.59111C21.5044 6.50216 21.135 6.46233 20.7606 6.47817L20.7175 6.48009C20.5724 6.48703 20.4169 6.50158 20.2956 6.58598C20.1452 6.69062 20.1343 6.90648 20.101 7.07293C20.0095 7.52942 19.944 7.99025 19.8867 8.45225C19.8589 8.67565 19.838 8.89965 19.8134 9.12334C19.8022 9.22485 19.7954 9.32805 19.7803 9.42894C19.7659 9.52497 19.7316 9.61843 19.7122 9.71334C19.7456 9.85818 19.5454 9.99579 19.4336 9.86711C19.2955 9.70801 19.1745 9.54194 19.0201 9.39647C18.8653 9.25049 18.6961 9.12271 18.5137 9.01322C18.1431 8.79066 17.758 8.65377 17.3441 8.53807C17.3304 8.53425 17.3226 8.5257 17.3188 8.51581C16.9058 8.63329 16.5019 8.79248 16.127 8.99709C15.2581 9.47149 14.574 10.2906 14.3148 11.2525C14.1539 11.8498 14.1184 12.4808 14.1162 13.0971C14.1152 13.3832 14.1213 13.6725 14.1664 13.9556C14.2168 14.2715 14.3311 14.5538 14.4232 14.8569C14.4472 14.936 14.4413 15.0066 14.4157 15.0656L14.4392 15.0691C14.6273 15.0986 14.9958 15.1818 15.0294 15.3874C15.0388 15.4451 15.0066 15.4902 14.9475 15.4952C14.8424 15.5041 14.7763 15.4276 14.6924 15.3753C14.6773 15.3659 14.6618 15.3573 14.6463 15.3486C14.6423 15.3514 14.637 15.3521 14.6314 15.3489C14.1352 15.0656 13.5287 15.4989 13.4182 16.0017C13.3151 16.4711 13.4906 17.0148 13.9431 17.22C14.1707 17.3232 14.4126 17.388 14.622 17.5291C14.7983 17.6479 14.954 17.7931 15.0898 17.9564C15.3695 18.2924 15.5805 18.6756 15.8283 19.0342C15.937 19.1916 16.0578 19.3403 16.2013 19.4675C16.3585 19.6068 16.5772 19.6617 16.6438 19.8798C16.6697 19.9648 16.6266 20.0669 16.5503 20.1101C16.2709 20.2686 15.9545 19.993 15.759 19.8062C15.5584 19.6144 15.3948 19.3822 15.2446 19.1498C14.993 18.7606 14.7782 18.3165 14.4092 18.0215C14.1877 17.8445 13.9117 17.7775 13.6624 17.6522C13.3764 17.5086 13.1732 17.2732 13.0518 16.9788C12.8283 16.4369 12.8872 15.746 13.3106 15.3148C13.448 15.1748 13.622 15.0852 13.8042 15.0491C13.6161 14.7192 13.5462 14.3033 13.4991 13.9341C13.4516 13.5632 13.4466 13.1899 13.4662 12.8168L13.4701 12.7443C13.5075 12.0792 13.5828 11.396 13.8229 10.7715C14.0251 10.2458 14.3319 9.76353 14.7396 9.37386C14.7816 9.33366 14.8248 9.29427 14.8687 9.25554C14.8569 9.24649 14.8456 9.23678 14.8355 9.22579C14.7213 9.10117 14.7458 8.93294 14.761 8.77804C14.7779 8.60586 14.8052 8.43418 14.8463 8.2661C15.1331 7.09338 16.0148 6.13657 17.1495 5.7408C17.3133 5.68362 17.4829 5.63443 17.6556 5.59401ZM13.8327 15.9716C14.0164 15.8553 14.2967 15.8999 14.4881 15.9761C14.7133 16.0658 14.9532 16.233 15.0419 16.4668C15.1241 16.6831 14.8175 16.7598 14.7032 16.6099C14.6326 16.5172 14.5803 16.428 14.5133 16.3472C14.5047 16.3556 14.4966 16.3643 14.4894 16.3738L14.4842 16.3811C14.4557 16.423 14.4039 16.4666 14.3485 16.4591L14.3336 16.4571C14.2776 16.4496 14.2161 16.4224 14.2006 16.3614L14.1991 16.3545L14.197 16.3435C14.1843 16.2757 14.2044 16.2011 14.2692 16.1656C14.2736 16.1633 14.278 16.1612 14.2824 16.159C14.1397 16.084 13.9925 16.0606 13.8373 16.0065C13.8218 16.0011 13.8184 15.9807 13.8327 15.9716ZM18.9386 5.88132C17.9816 5.85724 16.9316 6.15226 16.2242 6.81687C15.8893 7.13158 15.6624 7.49767 15.459 7.90571C15.3629 8.09837 15.3011 8.31182 15.2553 8.5217C15.2302 8.63652 15.2115 8.75234 15.2015 8.8695C15.1995 8.89208 15.1999 8.9159 15.1964 8.93826C15.1934 8.9573 15.1898 8.96225 15.1865 8.96099C15.1882 8.96632 15.1961 8.97718 15.2037 8.98754C15.9202 8.47088 16.8071 8.17017 17.6842 8.36608C17.7121 8.37231 17.7121 8.41646 17.6842 8.42269C17.6393 8.43271 17.5946 8.44392 17.5499 8.45491C17.9337 8.4634 18.328 8.58394 18.6595 8.7632C18.9907 8.94233 19.3391 9.19558 19.5792 9.50362C19.5723 9.45865 19.5669 9.4135 19.5659 9.36782C19.5632 9.2458 19.566 9.12315 19.5706 9.00123C19.5804 8.7368 19.5983 8.47241 19.62 8.20874L19.6296 8.09382C19.6684 7.63297 19.7162 7.15904 19.8091 6.70822C19.8633 6.4453 20.0084 6.28514 20.2033 6.19124C19.8414 5.95697 19.3502 5.89172 18.9386 5.88132ZM20.7133 5.72793C20.282 5.59836 19.833 5.54128 19.3838 5.54908C19.5471 5.59044 19.7052 5.65056 19.854 5.73356C20.0454 5.8404 20.1802 5.98192 20.3009 6.15057C20.4145 6.11093 20.5409 6.08904 20.6738 6.07958C20.9808 6.05776 21.2911 6.07417 21.596 6.12264C21.5391 6.0875 21.4814 6.05378 21.4227 6.02175C21.197 5.89873 20.9591 5.80179 20.7133 5.72793Z" fill="black"/>
<path fill-rule="evenodd" clip-rule="evenodd" d="M21.4996 19.3172C21.7362 19.2843 21.9906 19.1502 22.2166 19.2592C22.3222 19.3101 22.3723 19.4842 22.3009 19.581C22.1918 19.7288 22.0792 19.7533 21.9022 19.7675C21.7694 19.7781 21.636 19.7789 21.5036 19.7636L21.4699 19.7595C21.2337 19.729 20.9881 19.663 20.8051 19.5042C20.7677 19.4717 20.7869 19.4015 20.8349 19.3913C21.0522 19.3456 21.2796 19.3479 21.4996 19.3172ZM21.2211 18.7722C21.221 18.7703 21.224 18.7703 21.2241 18.7722C21.2298 18.9075 21.2678 19.0329 21.338 19.1486C21.339 19.1503 21.3364 19.1518 21.3355 19.1501C21.2652 19.0343 21.2269 18.9076 21.2211 18.7722ZM21.9669 15.9806C22.2033 16.1243 22.5634 16.4594 22.3091 16.8157C22.0098 17.1299 21.5789 16.7697 21.3666 16.6068C21.1697 16.4805 20.9485 16.8052 21.1312 16.9526C22.6655 18.0891 23.2882 16.0182 22.0864 15.8116C21.9541 15.7888 21.905 15.9361 21.9669 15.9806ZM23.1766 14.3722C23.2321 14.3722 23.2852 14.3911 23.3335 14.4259C23.3811 14.4602 23.4242 14.5103 23.46 14.5728C23.5279 14.691 23.5704 14.8543 23.5704 15.0348C23.5704 15.2152 23.5279 15.3785 23.46 15.4967C23.4242 15.5592 23.3811 15.6093 23.3335 15.6436C23.2852 15.6785 23.2321 15.6973 23.1766 15.6973C23.1211 15.6973 23.068 15.6785 23.0197 15.6436C22.9721 15.6093 22.929 15.5592 22.8931 15.4967C22.8253 15.3785 22.7828 15.2152 22.7828 15.0348C22.7828 14.8543 22.8253 14.691 22.8931 14.5728C22.929 14.5103 22.9721 14.4602 23.0197 14.4259C23.068 14.3911 23.1211 14.3722 23.1766 14.3722ZM20.6064 14.5563L20.6273 14.5523C20.7492 14.5302 20.8108 14.5376 20.917 14.6207C20.9967 14.6832 20.9739 14.8062 20.917 14.8719C20.8178 14.9864 20.7209 14.9661 20.5851 14.9705L20.5755 14.9708C20.4623 14.9754 20.349 14.9787 20.2357 14.9804C20.2047 14.9809 20.1737 14.9808 20.1427 14.981C20.146 15.2678 19.9807 15.4862 19.763 15.6522C19.6223 15.7596 19.4443 15.6357 19.3941 15.5021C19.3525 15.3915 19.3436 15.2555 19.3651 15.1344C19.3731 15.0898 19.3897 15.0414 19.4152 15L19.4223 14.989L19.4212 14.9731C19.4209 14.9692 19.4212 14.9654 19.421 14.9615C19.2189 14.9492 19.018 14.9289 18.8171 14.9035L18.7501 14.8948C18.5787 14.8721 18.3269 14.8648 18.1881 14.7532C18.1838 14.7497 18.1853 14.7419 18.19 14.7394C18.2662 14.6983 18.3436 14.7006 18.4289 14.6968L18.4412 14.6962C18.5339 14.6914 18.6265 14.6875 18.7192 14.6843L18.812 14.6814C19.0493 14.6746 19.2868 14.663 19.5239 14.6504C19.5651 14.6482 19.6064 14.6456 19.6476 14.6431C19.6908 14.625 19.7367 14.6142 19.782 14.6122C19.8196 14.6105 19.8557 14.6157 19.8896 14.6265C19.9762 14.6198 20.0628 14.6125 20.1493 14.6047L20.2357 14.5966C20.3577 14.585 20.486 14.5799 20.6064 14.5563ZM22.1046 12.4065C22.3655 12.2783 22.6826 12.2751 22.9512 12.3812L22.969 12.3885C23.2403 12.5011 23.5672 12.7612 23.4964 13.0852C23.4316 13.3818 22.9666 13.3316 22.9431 13.0512C22.7929 12.8431 22.4562 12.7975 22.2446 12.9298C22.1162 13.0101 22.0281 13.1453 21.9679 13.2816C21.9166 13.3977 21.9069 13.5411 21.8281 13.6422C21.8255 13.6455 21.8204 13.6461 21.8166 13.6452C21.5815 13.5908 21.5761 13.217 21.6162 13.0357C21.6744 12.7722 21.8614 12.5262 22.1046 12.4065Z" fill="black"/>
</svg>
