<svg width="36" height="48" viewBox="0 0 36 48" fill="none" xmlns="http://www.w3.org/2000/svg">
<path fill-rule="evenodd" clip-rule="evenodd" d="M29.3504 42.4124C29.9553 42.3832 29.712 41.3247 29.6686 40.936C29.1897 39.5162 29.3022 37.9672 29.1139 36.4791C28.9965 35.0898 28.8458 33.7049 28.7189 32.3168C28.4699 29.499 26.6812 23.7627 24.6401 22.8401C24.3829 21.7115 23.3209 20.6579 21.9773 20.6579C21.0609 19.5727 19.9578 18.8089 18.543 18.9632C17.9583 18.9898 17.3913 19.6101 16.8311 19.7299C16.5174 19.7732 13.7337 19.6618 13.1761 19.9931C12.7877 20.1926 12.437 20.5613 12.5512 21.0307C12.7334 21.5994 12.1671 20.984 10.9858 21.591C8.57697 23.0383 10.0164 24.9745 10.0802 25.0345C8.57697 27.1268 7.26308 28.8242 6.65516 31.3816C6.26117 33.2803 6.30552 35.2404 5.97541 37.1488C5.85886 37.8105 5.68005 38.4496 5.48656 39.0922C5.27685 39.9332 5.17489 42.0293 5.0593 42.048C4.84875 42.1003 5.18098 42.5328 5.40408 42.5331C11.5895 43.5595 17.8724 42.5757 24.091 42.4149C25.8435 42.3539 27.5979 42.3399 29.3504 42.4124Z" fill="#D08B5B"/>
<path fill-rule="evenodd" clip-rule="evenodd" d="M16.8389 21.5719C16.8389 22.2305 19.1246 24.6775 19.9135 24.5161C20.4394 24.4084 21.2339 23.7066 22.2972 22.4104V21.5719L22.0676 20.6591C23.3683 20.705 24.3887 21.7365 24.6401 22.8397C26.6608 23.7531 28.4341 29.3844 28.711 32.231L28.7189 32.3164C28.8458 33.7046 28.9965 35.0895 29.1139 36.4787C29.3022 37.9668 29.1897 39.5159 29.6686 40.9356L29.6714 40.9597C29.7214 41.3663 29.9432 42.3834 29.3504 42.4121C27.5979 42.3395 25.8435 42.3536 24.091 42.4145C17.8724 42.5753 11.5895 43.5592 5.40408 42.5328C5.18098 42.5324 4.84875 42.0999 5.0593 42.0476C5.17489 42.0289 5.27685 39.9328 5.48656 39.0918L5.52636 38.9589C5.70441 38.361 5.86689 37.7645 5.97541 37.1484C6.30552 35.24 6.26117 33.2799 6.65516 31.3813C7.26308 28.8239 8.57697 27.1264 10.0802 25.0341C10.0164 24.9741 8.57697 23.0379 10.9858 21.5906C12.1671 20.9837 12.7334 21.599 12.5512 21.0303C12.437 20.5609 12.7877 20.1922 13.1761 19.9927C13.7337 19.6614 16.5174 19.7728 16.8311 19.7295C16.9768 19.6984 17.123 19.6333 17.2698 19.5537L17.2444 19.6386C16.974 20.5449 16.8389 21.1893 16.8389 21.5719Z" fill="#9FD8E5"/>
<path fill-rule="evenodd" clip-rule="evenodd" d="M19.9751 25.2189C19.978 25.1906 20.0162 25.1906 20.0191 25.2189L20.0628 25.6406C20.1159 26.1557 20.1671 26.6698 20.2042 27.1873C20.2504 27.8326 20.2813 28.4777 20.2962 29.1244C20.3482 31.3768 20.3585 33.6305 20.3629 35.8835C20.6674 35.8624 20.972 35.842 21.2768 35.8224C21.4836 35.809 21.6903 35.7962 21.8971 35.7836L22.4244 35.7516L22.6415 35.7383C22.7882 35.7292 22.9549 35.6922 23.0575 35.8223C23.0985 35.8743 23.1191 35.9419 23.0808 36.0037C22.9925 36.1462 22.8569 36.1412 22.7035 36.1474C22.5588 36.1532 22.4141 36.159 22.2694 36.1645C21.9592 36.1766 21.6491 36.188 21.3389 36.1967C21.0133 36.2058 20.6879 36.2132 20.3624 36.2188C20.3591 37.1699 20.3198 38.1198 20.2773 39.0699L20.258 39.4975C20.206 40.6537 20.15 41.8109 20.0704 42.9655C20.0639 43.06 19.9302 43.0599 19.9237 42.9655C19.8342 41.6652 19.7751 40.3621 19.7165 39.06C19.674 38.1159 19.6493 37.1716 19.6375 36.2272C19.5945 36.2275 19.5514 36.2281 19.5084 36.2282C18.2869 36.2336 17.0658 36.2389 15.8442 36.2274C15.8463 36.2298 15.8483 36.2322 15.8496 36.2354C15.938 36.4442 15.9464 36.7106 15.9443 36.9346C15.9418 37.1915 15.9072 37.4454 15.8481 37.6952C15.6361 38.5904 15.0895 39.3921 14.4669 40.0549L14.4465 40.0765C14.2997 40.2317 14.1312 40.3877 14.041 40.5854C13.9489 40.7873 13.9169 41.0235 13.8715 41.2404L13.8662 41.2654L13.6885 42.0865C13.632 42.3473 13.616 42.7277 13.4096 42.9159C13.217 43.0915 12.962 42.9998 12.8714 42.7737C12.8006 42.5973 12.8711 42.4035 12.913 42.2272L13.2413 40.8463C13.2953 40.6212 13.3543 40.3945 13.4707 40.1922C13.59 39.985 13.7648 39.8348 13.9433 39.6812C14.2811 39.3902 14.5913 39.057 14.8536 38.6963C15.1159 38.3357 15.34 37.9383 15.4971 37.5203C15.5758 37.3111 15.6403 37.0937 15.6847 36.8746C15.727 36.6667 15.7267 36.4513 15.7719 36.2456C15.775 36.2314 15.787 36.2217 15.8007 36.2173C15.7975 36.2082 15.8024 36.1958 15.8153 36.1949L16.8142 36.1307C17.7023 36.0734 18.5902 36.0146 19.4774 35.9475L19.6342 35.9362C19.622 34.676 19.6324 33.4157 19.6551 32.1551C19.676 30.9991 19.6764 29.8428 19.7108 28.687C19.7278 28.1133 19.7647 27.541 19.8057 26.9686C19.8476 26.3831 19.9148 25.8026 19.9751 25.2189ZM10.5951 31.9215C10.5844 31.8574 10.6652 31.8176 10.7024 31.8763C11.1278 32.547 11.3329 33.2756 11.4193 34.0606C11.4957 34.7533 11.4732 35.4561 11.4351 36.1506C11.3946 36.8915 11.3473 37.6321 11.2994 38.3725L11.2259 39.508L11.0414 42.3544C11.0282 42.558 10.982 42.7432 10.8067 42.8378C10.7845 42.8564 10.7614 42.873 10.7344 42.8874C10.6398 42.938 10.5142 42.9124 10.4595 42.8153L10.4814 42.8297C10.5005 42.8417 10.4791 42.8249 10.417 42.7793L10.3643 42.7111C10.326 42.6536 10.3016 42.597 10.2918 42.5286C10.2765 42.4223 10.2963 42.3057 10.3032 42.1988L10.4242 40.3323C10.5182 38.8813 10.628 37.4306 10.7108 35.9788C10.7494 35.3022 10.7764 34.6249 10.7581 33.9471C10.7399 33.273 10.7056 32.5875 10.5951 31.9215ZM14.275 19.4267L14.2986 19.4227C15.1435 19.2823 16.0623 19.3086 16.8344 19.716C16.8408 19.7194 16.8379 19.73 16.8308 19.7297L16.5822 19.7197C15.7954 19.6889 15.011 19.6707 14.2374 19.8556L14.1582 19.8747C13.8795 19.9427 13.5886 20.0259 13.3648 20.21C13.1509 20.386 13.0444 20.6574 12.942 20.9073L12.9283 20.9403C12.8244 21.1871 12.6929 21.4211 12.4651 21.5755C12.1701 21.7753 11.8154 21.7508 11.4771 21.778C10.8816 21.8259 10.3946 22.2576 10.1524 22.786C10.0057 23.106 9.94312 23.4647 9.93073 23.8145C9.92437 23.9927 9.92346 24.1777 9.94719 24.3547C9.95476 24.4113 10.0247 24.6174 10.0603 24.6124C10.1396 24.6014 10.212 24.6428 10.2367 24.7061C10.4324 24.517 10.6337 24.3333 10.8415 24.1563C11.3594 23.715 11.9173 23.315 12.5049 22.9714C12.9533 22.7091 13.4263 22.4492 13.9161 22.2527C13.8773 22.2519 13.839 22.2596 13.802 22.2788C13.7857 22.2873 13.7696 22.267 13.7824 22.2535C13.9367 22.0911 14.1215 22.068 14.3078 22.1113C14.3475 22.0987 14.3873 22.0864 14.4273 22.0748C14.4471 22.069 14.457 22.0964 14.4408 22.107L14.395 22.1362C14.5983 22.2043 14.7978 22.3382 14.9558 22.4438C15.4095 22.7472 15.8089 23.1181 16.2138 23.482L16.2874 23.548C16.6438 23.8663 17.0093 24.1757 17.4142 24.4311C17.6262 24.5647 17.8488 24.6884 18.0823 24.7803C18.2826 24.8593 18.6087 24.909 18.7025 25.1207C18.7859 25.2221 18.751 25.3514 18.6534 25.4196C18.4887 25.6009 18.1592 25.4838 17.963 25.4082C17.7264 25.3172 17.4972 25.2077 17.2786 25.0794C16.8542 24.8302 16.4629 24.5203 16.0984 24.1906C15.7177 23.8463 15.3586 23.4806 14.9884 23.1255C14.8279 22.9716 14.6712 22.8142 14.5105 22.6605L14.4298 22.5841C14.3478 22.5071 14.231 22.3872 14.1061 22.3146C13.8708 22.4551 13.6318 22.5897 13.3986 22.7338C13.073 22.9348 12.7571 23.1504 12.446 23.3731C11.8471 23.8018 11.2796 24.2819 10.7528 24.7965C9.7865 25.7403 8.96328 26.818 8.24412 27.9592L8.18951 28.0462C7.78085 28.6993 7.39438 29.3736 7.12037 30.0953C6.81886 30.8895 6.67223 31.7247 6.59257 32.5677C6.51351 33.4048 6.48684 34.246 6.39849 35.0822C6.30788 35.9399 6.12935 36.7786 5.92628 37.6157L5.87785 37.8142C5.69411 38.5639 5.50446 39.3136 5.41001 40.081C5.35958 40.491 5.32925 40.9065 5.33611 41.3197C5.34299 41.7354 5.40828 42.1418 5.46096 42.5531C5.48115 42.7107 5.32616 42.8422 5.18747 42.8631C5.02797 42.887 4.89094 42.7852 4.84137 42.637C4.68681 42.1749 4.65874 41.6642 4.66359 41.1792C4.66847 40.6868 4.73129 40.1977 4.81968 39.7138C4.99351 38.762 5.26177 37.8299 5.48619 36.8895C5.68396 36.0606 5.8167 35.2303 5.88825 34.3812C5.96253 33.5002 6.007 32.6163 6.14249 31.7417C6.27623 30.8783 6.52788 30.0535 6.90738 29.2662C7.25292 28.5494 7.68365 27.8746 8.13523 27.2206C8.68362 26.4265 9.28591 25.6708 9.95914 24.9823C9.89867 24.9796 9.83658 24.9601 9.77955 24.9245C9.60509 24.8157 9.52384 24.6027 9.49886 24.4083C9.4404 23.9534 9.45451 23.4786 9.57144 23.0338C9.76008 22.3164 10.2497 21.679 10.9592 21.4204C11.1418 21.3538 11.336 21.3295 11.5295 21.3248C11.7132 21.3202 11.9138 21.3441 12.091 21.2859C12.3731 21.1931 12.494 20.8608 12.5999 20.6089L12.6048 20.5973C12.7406 20.2763 12.9036 20.0011 13.1977 19.8007C13.5116 19.5867 13.9048 19.4895 14.275 19.4267ZM22.3031 20.6963C22.557 20.6082 22.8744 20.6881 23.1227 20.7651C23.3993 20.8509 23.655 21.0089 23.8741 21.1965C24.1053 21.3944 24.2964 21.6388 24.4314 21.9117L24.4443 21.938C24.5676 22.1912 24.708 22.5389 24.6459 22.817C24.6441 22.8249 24.642 22.8325 24.6397 22.8399C25.1435 23.088 25.6087 23.3987 26.0138 23.7925C26.4856 24.2511 26.885 24.7729 27.223 25.3366C28.5656 27.5756 28.8019 30.2646 28.9604 32.818L29 33.4654C29.0861 34.8634 29.1868 36.2581 29.4485 37.6368L29.4676 37.7364C29.7474 39.1799 30.1479 40.6344 30.1073 42.1152C30.0952 42.5589 29.4397 42.5559 29.4207 42.1152C29.3491 40.4566 28.9622 38.8552 28.7002 37.2224C28.2392 34.3499 28.4702 31.3885 27.817 28.5448C27.5607 27.4288 27.1636 26.3463 26.5965 25.3501C26.3164 24.858 25.996 24.3825 25.6206 23.9579C25.2976 23.5926 24.9619 23.241 24.5845 22.9339C24.4639 23.0548 24.2229 22.9932 24.1599 22.817C24.1167 22.6959 24.1293 22.5544 24.1015 22.4275C24.0757 22.3098 24.0402 22.1932 23.9929 22.0823C23.8986 21.8614 23.7601 21.6493 23.6003 21.4705C23.4276 21.2772 23.2291 21.1167 23.007 20.9841C22.7834 20.8506 22.5389 20.8108 22.3031 20.7132C22.2952 20.7099 22.2944 20.6993 22.3031 20.6963ZM23.2895 36.048C23.2899 36.0363 23.3036 36.0308 23.3121 36.0386C23.4011 36.1205 23.4549 36.2381 23.5204 36.3389C23.596 36.4552 23.6753 36.569 23.7585 36.6799C23.9252 36.9021 24.1108 37.1115 24.2978 37.3167C24.4718 37.5075 24.6572 37.6903 24.8495 37.8625C25.0579 38.0492 25.2914 38.2158 25.4808 38.4225C25.8758 38.8538 25.9397 39.4459 26.023 40.0017L26.0321 40.0619C26.083 40.3918 26.1285 40.7225 26.1696 41.0538C26.1895 41.2149 26.2094 41.3762 26.2257 41.5377L26.2307 41.5889C26.2452 41.747 26.2491 41.9075 26.1583 42.0456C26.0611 42.1935 25.8402 42.2453 25.7088 42.1035C25.4831 41.86 25.5255 41.4275 25.4961 41.1142C25.4719 40.8552 25.4443 40.5965 25.4135 40.3381L25.3979 40.209C25.3615 39.9151 25.3321 39.6154 25.2649 39.3266C25.2056 39.0723 25.0927 38.8803 24.9075 38.6961C24.7209 38.5105 24.527 38.3373 24.3548 38.1374C24.1721 37.9254 24.0073 37.6981 23.8588 37.4609C23.7318 37.258 23.63 37.0372 23.5367 36.8167L23.5213 36.7799C23.4311 36.5649 23.2825 36.2849 23.2895 36.048ZM26.5481 26.8098C26.5501 26.7798 26.5944 26.7793 26.5951 26.8098C26.6007 27.0678 26.6061 27.3258 26.6114 27.5838C26.6545 29.6629 26.6279 31.747 26.8365 33.819C26.9348 34.7959 27.1159 35.7585 27.3254 36.717C27.4327 37.2075 27.5452 37.6969 27.652 38.1874C27.7562 38.6655 27.8679 39.1459 27.9505 39.6284C28.0317 40.1027 28.1045 40.5806 28.1371 41.0609L28.1411 41.1236C28.1552 41.3563 28.2222 41.6985 28.0942 41.9048C27.9554 42.1282 27.6897 42.1322 27.541 41.9189C27.4014 41.7187 27.4361 41.3625 27.4114 41.1236C27.3863 40.8802 27.3598 40.6367 27.3297 40.3938C27.271 39.9202 27.1936 39.4476 27.1131 38.9772C26.9454 37.9975 26.7022 37.0302 26.5227 36.0521C26.3387 35.0499 26.208 34.0405 26.2025 33.02C26.197 31.9909 26.3059 30.9638 26.3608 29.937C26.4167 28.8941 26.4802 27.8519 26.5481 26.8098ZM16.7303 20.343C16.7861 20.155 16.983 20.0375 17.1751 20.0903C17.3512 20.1387 17.4965 20.3525 17.4277 20.5353C17.3526 20.7349 17.2213 20.9051 17.1107 21.0865C17.0084 21.2541 16.8593 21.3861 16.7552 21.5507L16.8699 21.6745C16.9274 21.7362 16.9849 21.7976 17.0431 21.8579L17.2433 22.0653C17.3992 22.2264 17.556 22.3868 17.7173 22.5424C18.1915 23 18.6733 23.4426 19.2044 23.8344C19.3253 23.9236 19.4472 24.0123 19.5724 24.0953L19.6191 24.1263C19.7051 24.1826 19.8009 24.2379 19.9047 24.2284C20.157 24.2052 20.3849 23.9372 20.5583 23.7704L20.5673 23.7617C20.9969 23.3528 21.3947 22.9058 21.7425 22.4251C21.8197 22.3183 21.8944 22.2096 21.9672 22.0997C21.7991 21.9033 21.8393 21.5197 21.83 21.2815C21.8235 21.1139 21.823 20.9463 21.822 20.7787L21.8216 20.7449C21.8195 20.6363 21.8147 20.5322 21.8851 20.4429C21.8892 20.4378 21.8976 20.4379 21.9029 20.4407C21.9993 20.4912 22.029 20.5758 22.0701 20.6708L22.0744 20.6806C22.1245 20.7946 22.1725 20.9096 22.221 21.0242C22.2718 21.1442 22.3184 21.2659 22.3656 21.3873C22.3875 21.4438 22.4085 21.5005 22.429 21.5575C22.4415 21.5939 22.4544 21.6302 22.4677 21.6663L22.4708 21.6691C22.4883 21.684 22.5032 21.6997 22.516 21.7159C22.5698 21.7429 22.6126 21.7919 22.6326 21.864C22.6763 22.0209 22.5859 22.1488 22.5053 22.2734C22.1779 22.7794 21.8047 23.2615 21.3899 23.6989C21.1838 23.9162 20.9671 24.1237 20.7414 24.3206L20.702 24.3548C20.4993 24.529 20.2792 24.6941 20.0084 24.7349C19.6916 24.7826 19.4338 24.625 19.1912 24.4434L19.167 24.4252C18.9371 24.251 18.7118 24.0708 18.4935 23.8823C18.0485 23.4979 17.6251 23.0852 17.2494 22.6324C16.8839 22.192 16.5226 21.6995 16.2973 21.1696C16.2836 21.1373 16.3197 21.1035 16.348 21.1305C16.458 21.2353 16.5639 21.3458 16.6685 21.4577C16.6714 21.2929 16.641 21.1268 16.6579 20.961C16.6786 20.7596 16.6726 20.537 16.7303 20.343Z" fill="black"/>
<path fill-rule="evenodd" clip-rule="evenodd" d="M24.0583 13.2681C23.9841 12.3055 24.0991 11.2965 23.7289 10.3815C23.0834 8.8634 21.2732 8.35723 19.8699 7.77926C19.3077 7.61272 17.416 7.58945 16.7577 7.36904C15.2679 6.87019 14.9119 6.27583 13.7282 7.22564C13.5283 7.3879 13.4033 7.56424 13.3121 7.80518L13.3158 7.80622C13.2898 7.90666 13.3177 8.00689 13.3764 8.08344C12.8631 8.60941 12.6483 9.39795 12.9117 10.0981C13.7711 11.9201 13.7307 12.9052 13.4538 14.8639C13.0922 16.6925 13.9185 17.3604 15.287 18.3554C15.2313 18.4637 15.2197 18.6076 15.2924 18.7032C16.8749 20.9325 19.8586 21.9969 22.4151 20.8654C23.4529 20.4024 23.9161 19.2945 24.1805 18.2948C24.4885 17.1755 24.5831 15.996 24.3324 14.8557C24.2313 14.3284 24.0995 13.8049 24.0583 13.2681Z" fill="#D08B5B"/>
<path fill-rule="evenodd" clip-rule="evenodd" d="M12.7246 10.5373L13.6656 11.1657L17.0337 7.60607L15.9128 6.72168C15.9128 6.72168 13.8794 8.22832 13.4795 8.62596C13.0797 9.0236 12.7246 10.5373 12.7246 10.5373Z" fill="#9FD8E5"/>
<path fill-rule="evenodd" clip-rule="evenodd" d="M14.9309 2.60296C15.123 2.57404 15.268 2.69351 15.337 2.86191L15.3406 2.87098C15.3628 2.92828 15.3875 2.98401 15.414 3.03881C15.8947 2.80241 16.5806 2.86315 16.8848 3.3419C17.1019 3.68382 16.9694 4.08961 16.8876 4.45219L16.8339 4.6911C16.9377 4.75734 17.016 4.87598 17.0124 4.99882L17.0119 5.00828L16.9901 5.34143C17.0594 5.27098 17.1228 5.19427 17.1793 5.11255C17.2184 5.04084 17.2605 4.97039 17.3058 4.90213C17.5722 4.50041 18.1703 4.84953 17.9505 5.27975C17.9083 5.36272 17.8608 5.44131 17.8099 5.51709C17.7524 5.62887 17.7053 5.74378 17.6691 5.86182C17.7731 5.90722 17.853 6.00804 17.8615 6.16022C17.8811 6.5156 17.695 6.81211 17.3989 6.99842C17.3118 7.05321 17.2218 7.06386 17.1403 7.0435C17.1259 7.06292 17.1116 7.08233 17.0978 7.10206C17.2159 7.19818 17.3224 7.30777 17.4139 7.42926C17.6894 7.38793 17.9664 7.36851 18.2434 7.36789C18.582 7.20163 18.9874 7.20507 19.3513 7.26738C19.5855 7.30746 19.8104 7.38542 20.0409 7.44147C20.2839 7.50033 20.5306 7.50253 20.7764 7.5426C21.0862 7.59301 21.358 7.73642 21.5288 7.9653C21.7165 7.97094 21.9139 8.04797 22.0776 8.15255C22.4586 8.39615 22.8375 8.64319 23.2176 8.88836C23.3635 8.98248 23.418 9.13274 23.3912 9.30034L23.3894 9.31106L23.3766 9.38057L23.4066 9.42335C23.5229 9.58803 23.6495 9.76052 23.7248 9.94229C23.8641 10.1436 23.99 10.3547 24.1015 10.5723C24.2517 10.8647 24.3757 11.1747 24.4597 11.4928C24.4806 11.5733 24.5016 11.6544 24.5153 11.7364C24.535 11.8523 24.5047 11.9421 24.4881 12.0533C24.4675 12.1942 24.46 12.337 24.4382 12.4782C24.4235 12.5718 24.3441 12.6178 24.2611 12.6203C24.2923 12.8586 24.3148 13.0985 24.3363 13.3364C24.3666 13.6765 24.3872 14.0174 24.405 14.3584C24.4969 14.4921 24.6846 14.5979 24.8201 14.6346C25.0078 14.685 25.2046 14.6302 25.382 14.566C25.4935 14.5256 25.585 14.6662 25.5307 14.7601C25.3598 15.0551 24.9944 15.0538 24.7177 14.9233C24.6006 14.8682 24.4978 14.7883 24.4216 14.6844C24.4263 14.7833 24.4313 14.8823 24.4363 14.9815L24.4409 15.0714C24.4972 16.1213 24.6187 17.2074 24.4219 18.247C24.0812 20.0477 22.5947 21.4188 20.7789 21.5252C19.8261 21.5811 19.0326 21.299 18.638 21.1416C18.2434 20.9842 18.3968 20.6633 18.6707 20.755C19.1426 20.913 20.0094 21.1485 20.7852 21.0468C22.6135 20.8072 24.1639 19.891 24.0046 15.9453C23.9821 15.3857 23.9125 14.8259 23.8975 14.2664C23.8831 13.7194 23.8885 13.172 23.8644 12.6253L23.8564 12.4388C23.847 12.2209 23.837 12.0019 23.8207 11.7837C23.801 11.6992 23.7848 11.6134 23.7607 11.5304C23.6954 11.3046 23.6102 11.0851 23.5043 10.8757C23.4809 10.8935 23.4546 10.9064 23.4262 10.9114C23.2104 10.9502 23.008 10.9392 22.8059 10.8491C22.7116 10.8074 22.6285 10.752 22.5511 10.6834C22.5142 10.6512 22.4895 10.6199 22.4702 10.5873C22.3724 10.5889 22.2747 10.5594 22.2134 10.489C22.1436 10.4087 22.132 10.3257 22.1594 10.249L22.1622 10.2413L22.1553 10.2388C22.0729 10.4527 21.9086 10.6408 21.7284 10.768C21.4435 10.9696 21.0872 11.0278 20.7455 11.0332C20.3682 11.0388 19.9703 10.9806 19.598 10.9211C19.4996 10.9054 19.4019 10.8876 19.306 10.8635C19.3022 10.8672 19.2985 10.8716 19.2944 10.8754C18.9749 11.1819 18.5255 11.2608 18.1201 11.0858C17.8858 10.9846 17.6894 10.8218 17.5157 10.6352C17.5132 10.7329 17.5082 10.8306 17.4998 10.9273L17.4963 10.9658C17.479 11.146 17.4457 11.3371 17.3099 11.4671C17.0903 11.6779 16.7717 11.5933 16.5184 11.4562C16.5188 11.4628 16.5188 11.4696 16.5188 11.4765C16.5872 11.7095 16.6559 11.9428 16.7246 12.176L16.7394 12.2257C16.7893 12.3914 16.8441 12.5572 16.8592 12.7305C16.8879 13.0618 16.668 13.389 16.3007 13.2779C16.1081 13.2198 15.9537 13.0574 15.8056 12.9273L15.7123 12.8464C15.9537 13.6376 16.1212 14.457 16.1368 15.2827C16.1377 15.3275 16.0993 15.3613 16.0568 15.3629C15.9575 15.3669 15.8507 15.3472 15.7507 15.3075C15.7451 15.3071 15.7395 15.3068 15.7336 15.3059C15.563 15.2812 15.4047 15.2195 15.2651 15.1284C15.2972 15.2307 15.3116 15.3406 15.3032 15.4556C15.301 15.4834 15.2576 15.4931 15.2513 15.4624C15.1707 15.0651 14.7069 14.7648 14.3072 14.8409C13.878 14.9226 13.5619 15.2927 13.4845 15.7139C13.4014 16.1663 13.5604 16.6895 13.8549 17.0387C13.9904 17.1996 14.1688 17.3339 14.3805 17.3677C14.4774 17.3831 14.5779 17.3778 14.672 17.3502C14.7119 17.3383 14.7494 17.3217 14.7875 17.306C14.8431 17.2835 14.9081 17.2801 14.9605 17.2563C15.0795 17.2027 15.1992 17.3126 15.1389 17.4351C15.0864 17.5418 15.0392 17.6138 14.9521 17.6689C15.0227 17.7554 15.0867 17.8756 15.1105 17.9078C15.2316 18.0719 15.3547 18.2269 15.4928 18.3769C15.6333 18.5291 15.7867 18.6681 15.9488 18.7968L16.0169 18.8507C16.173 18.9749 16.309 19.0899 16.4191 19.268C16.5059 19.4086 16.3935 19.5993 16.2308 19.5971C15.7217 19.5899 15.3516 19.1415 15.088 18.7498C15.0505 18.6938 15.0152 18.6346 14.9824 18.5738C14.9705 18.5929 14.9574 18.6108 14.9427 18.6271L14.9718 18.7053C15.058 18.9358 14.6866 19.0864 14.5789 18.8713C14.5005 18.7154 14.4096 18.5669 14.3084 18.4267C14.2487 18.4182 14.1903 18.3819 14.1579 18.3349C14.0757 18.2156 13.9836 18.0951 13.9058 17.968C13.8627 17.9269 13.8184 17.8875 13.7731 17.849C13.76 17.8606 13.7465 17.8722 13.7337 17.8844C13.6769 18.0143 13.6066 18.133 13.5195 18.2448L13.5008 18.2686C13.3338 18.4795 13.1164 18.6954 12.8473 18.747C12.7652 18.7626 12.6862 18.6603 12.7589 18.5948C12.9473 18.4251 13.17 18.3096 13.3436 18.1201C13.4292 18.0268 13.5077 17.924 13.5753 17.8163L13.5907 17.7914C13.6019 17.7729 13.6135 17.7544 13.6253 17.7356C13.5469 17.6821 13.4685 17.6282 13.3902 17.5744C13.1743 17.7592 12.8933 17.8438 12.6546 17.9969L12.6309 18.0124C12.4151 18.1571 12.1877 17.8371 12.3607 17.6614C12.5515 17.4685 12.7107 17.2385 12.8797 17.0241C12.8002 16.8773 12.7626 16.7038 12.7485 16.5285C12.7429 16.4789 12.7386 16.4292 12.7343 16.3796C12.6131 16.3814 12.4913 16.3398 12.3882 16.2681L12.3492 16.2402C12.2239 16.2803 12.0924 16.2997 11.9666 16.2963C11.6705 16.2875 11.5493 15.9484 11.7345 15.7339C11.9235 15.5147 12.2542 15.4668 12.5163 15.5733C12.5247 15.5689 12.5334 15.5642 12.5419 15.5595C12.5294 15.5019 12.5322 15.4496 12.5464 15.4037L12.5422 15.3757C12.4846 15.2871 12.4467 15.1859 12.4324 15.079C12.421 14.9943 12.4233 14.9103 12.4429 14.8267C12.4494 14.7989 12.4629 14.77 12.4732 14.741C12.4519 14.6871 12.4394 14.6314 12.4355 14.5753C12.4296 14.5682 12.4236 14.5609 12.418 14.553C12.288 14.37 12.3142 14.1495 12.438 14.0014C12.4386 13.992 12.4394 13.9825 12.4407 13.9732C12.4335 13.9568 12.4268 13.9403 12.4207 13.9236C12.2998 13.8014 12.2111 13.6542 12.2276 13.4719C12.2373 13.3646 12.2813 13.2681 12.3479 13.1959C12.3361 13.1609 12.335 13.1203 12.3493 13.0865C12.243 12.8033 12.2565 12.4621 12.3329 12.1453C12.3161 12.0971 12.3073 12.0448 12.3092 11.9894C12.3179 11.7543 12.5209 11.5382 12.7614 11.541C12.7904 11.5413 12.8175 11.5451 12.8435 11.5506L12.8439 11.545C12.8531 11.4744 12.8725 11.4092 12.9007 11.3507C12.8868 11.3457 12.874 11.3384 12.8627 11.3288C12.7086 11.4112 12.5455 11.4742 12.3746 11.5171C12.2488 11.5487 12.1201 11.4055 12.1982 11.2872C12.2345 11.2323 12.2745 11.183 12.3176 11.138C12.2563 11.1383 12.1941 11.1425 12.1312 11.1506C12.0181 11.1653 11.8919 11.088 11.8185 10.9834C11.7273 11.0723 11.6358 11.1609 11.5443 11.2495C11.3125 11.4747 10.9624 11.309 10.9259 11.0122C10.8569 10.9937 10.7925 10.9624 10.736 10.9176C10.3706 11.0767 9.97734 11.1641 9.57537 11.1806C9.28678 11.1925 9.11812 10.8556 9.25305 10.6177C9.34362 10.458 9.45606 10.3146 9.58568 10.19C9.38454 10.2516 9.17684 10.2961 8.96477 10.3246C8.85014 10.3399 8.68805 10.2448 8.64213 10.1392C8.4666 9.73345 8.4816 9.31043 8.68367 8.9156C8.69148 8.89994 8.70023 8.88491 8.70866 8.86988C8.72959 8.81759 8.75239 8.76593 8.77706 8.71521C8.52845 8.45532 8.50689 8.06894 8.64088 7.7455C8.58716 7.65814 8.56655 7.55294 8.60309 7.45775C8.7071 7.18378 8.85702 6.93078 9.04629 6.71348C9.02817 6.67842 9.01224 6.64116 8.99881 6.60108C8.89231 6.27701 9.01568 5.88593 9.2646 5.66018C9.42108 5.51802 9.60098 5.43286 9.79306 5.37838C9.87396 5.23497 9.97796 5.10566 10.0991 4.99669C10.1038 4.98636 10.1085 4.97603 10.1138 4.9657C10.3025 4.60937 10.646 4.41838 11.0143 4.37423C11.0286 4.23489 11.1223 4.10182 11.2585 4.05861C11.296 3.93806 11.3519 3.82284 11.4287 3.71826C11.5496 3.55356 11.7504 3.47591 11.9397 3.58393C12.0434 3.64311 12.1427 3.71106 12.2358 3.7862C12.2776 3.76655 12.325 3.75383 12.3785 3.74978L12.392 3.74894L12.6999 3.73329C12.8289 3.67599 12.9576 3.61587 13.0866 3.55732C13.164 3.49313 13.2505 3.43959 13.3449 3.39982C13.4517 3.35505 13.561 3.32969 13.6706 3.32123C13.7596 3.29211 13.8493 3.26644 13.9405 3.2464C14.1547 3.19943 14.379 3.17313 14.6014 3.17532C14.6059 3.11762 14.6082 3.05923 14.6077 3.00015L14.6073 2.97055C14.6023 2.78112 14.7532 2.62988 14.9309 2.60296ZM14.7151 17.7591C14.6844 17.7657 14.6535 17.771 14.6226 17.7748C14.632 17.7979 14.6413 17.8211 14.6504 17.8443C14.6754 17.8584 14.7007 17.8718 14.726 17.8844C14.7185 17.8418 14.7141 17.7989 14.7151 17.7591ZM13.1104 17.2811L13.0896 17.3194C13.0863 17.3257 13.083 17.3319 13.0797 17.338C13.1237 17.3345 13.1681 17.3355 13.2118 17.3405L13.2117 17.3358C13.2061 17.3339 13.2004 17.3322 13.1951 17.3295C13.1649 17.315 13.1369 17.2987 13.1104 17.2811ZM13.9776 15.5323C14.254 15.5484 14.4881 15.5909 14.7394 15.7121L14.761 15.7226C14.983 15.8332 15.3503 16.0373 15.3194 16.3301C15.3107 16.4134 15.2504 16.501 15.1554 16.4945C14.8953 16.4766 14.7466 16.2136 14.5704 16.0495C14.3927 15.8842 14.1744 15.7142 13.9592 15.6005C13.9288 15.5845 13.9408 15.5339 13.9739 15.5322L13.9776 15.5323ZM12.7246 11.675C12.6584 11.6772 12.6805 11.7417 12.7146 11.6879C12.7174 11.6835 12.7208 11.6791 12.7246 11.675ZM16.2987 7.36908C15.6717 7.38561 15.0405 7.7568 14.5708 8.132C14.1621 8.45842 13.8092 8.84668 13.4967 9.26516C13.4163 9.47356 13.3473 9.68632 13.289 9.90065C13.2505 10.0422 13.2265 10.1853 13.1943 10.328L13.1843 10.3718C13.1591 10.4192 13.1403 10.4701 13.1266 10.5227C13.1835 10.58 13.2574 10.621 13.3387 10.6404C13.3649 10.6467 13.3867 10.6602 13.4039 10.6782C13.4694 10.5687 13.5266 10.4531 13.5599 10.3305L13.5611 10.3249C13.687 10.1182 13.8236 9.91802 13.9701 9.72468C14.3743 9.19082 14.8194 8.70425 15.3544 8.29939C15.7601 7.99255 16.2136 7.75208 16.6958 7.59583C16.5778 7.50036 16.4438 7.42484 16.2987 7.36908Z" fill="black"/>
<path fill-rule="evenodd" clip-rule="evenodd" d="M21.2085 19.0034C20.9981 18.9175 20.8103 18.7743 20.6731 18.5913C20.6254 18.5277 20.613 18.4606 20.623 18.3991C20.6343 18.33 20.6751 18.2674 20.7308 18.2254C20.7867 18.1833 20.8566 18.1625 20.9242 18.1731C20.9829 18.1823 21.0414 18.2145 21.0876 18.2812L21.0973 18.2946C21.1789 18.405 21.2852 18.4956 21.4064 18.554C21.5232 18.6103 21.6538 18.6366 21.7889 18.6213C22.0463 18.5922 22.2237 18.4529 22.4123 18.2638C22.4357 18.24 22.459 18.2153 22.4825 18.1903C22.4974 18.1676 22.518 18.153 22.5408 18.1454C22.5662 18.1369 22.595 18.1374 22.6213 18.1466C22.6466 18.1554 22.6693 18.1722 22.6845 18.1946C22.699 18.2158 22.7072 18.242 22.7045 18.2722C22.6873 18.4682 22.5849 18.6431 22.4394 18.7804C22.2778 18.933 22.0636 19.0385 21.862 19.0755C21.6398 19.1163 21.4134 19.087 21.2085 19.0034ZM21.9668 15.98C22.2031 16.1237 22.5632 16.4588 22.309 16.8151C22.0097 17.1293 21.5788 16.7691 21.3664 16.6062C21.1695 16.4799 20.9483 16.8047 21.131 16.9521C22.6654 18.0885 23.2881 16.0176 22.0863 15.811C21.954 15.7883 21.9048 15.9355 21.9668 15.98ZM19.2171 14.658C19.2432 14.3338 19.7369 14.2601 19.786 14.581C19.83 14.8684 19.7782 15.1325 19.6488 15.3913C19.5251 15.6385 19.2143 15.5232 19.1908 15.298C19.1593 14.9963 19.2009 14.8597 19.2171 14.658ZM22.975 14.5145C23.0438 14.4243 23.1432 14.3627 23.2622 14.3975C23.6342 14.5063 23.5246 15.0346 23.3939 15.2917C23.323 15.4314 23.0935 15.4668 22.9898 15.3438C22.8208 15.1433 22.7399 14.7429 22.9547 14.5454C22.9605 14.5352 22.967 14.5249 22.975 14.5145ZM19.6435 13.2391L19.7023 13.2288C19.8841 13.1974 20.1101 13.1672 20.2387 13.3134C20.3069 13.3909 20.3304 13.535 20.2387 13.6092C20.0774 13.7398 19.8992 13.6892 19.7059 13.7002C19.5467 13.7094 19.3936 13.7357 19.2402 13.7796C18.9037 13.8758 18.6295 14.0515 18.3421 14.2443C18.3044 14.2696 18.2659 14.2214 18.2839 14.1861C18.4498 13.861 18.7713 13.5939 19.0934 13.4312C19.2653 13.3443 19.4534 13.2722 19.6435 13.2391ZM22.6359 13.0935L22.6809 13.1027C23.1703 13.2051 23.8062 13.4095 24.0379 13.8904C24.0468 13.9584 24.0374 13.973 24.0298 13.9825L24.0273 13.9857C24.0211 13.9938 24.0161 14.005 23.9866 14.0143C23.9784 14.0123 23.9702 14.0103 23.9618 14.0081C23.8556 13.9802 23.7715 13.9419 23.6902 13.902L23.6019 13.8586C23.4996 13.8083 23.3963 13.76 23.2869 13.7242C23.0533 13.648 22.8131 13.5943 22.5691 13.5657C22.5162 13.5595 22.4653 13.5416 22.4252 13.511C22.387 13.482 22.3579 13.4418 22.3446 13.3883C22.3274 13.3192 22.3324 13.2668 22.3695 13.2044C22.3973 13.1575 22.4373 13.1251 22.4831 13.1064C22.5298 13.0874 22.583 13.0829 22.6359 13.0935Z" fill="black"/>
<path fill-rule="evenodd" clip-rule="evenodd" d="M19.1778 19.1994C19.4312 18.6055 19.9843 18.169 20.6211 18.0094C21.0887 17.8925 21.5794 17.8963 22.0561 17.9427C22.3058 17.9668 22.5737 17.9866 22.8091 18.0793C23.0101 18.1586 23.1739 18.3084 23.297 18.4843C23.4436 18.6927 23.5433 18.9313 23.6133 19.1758C23.6233 19.2105 23.6326 19.2455 23.6413 19.2807C23.6109 19.4652 23.5463 19.6222 23.3755 19.7382C23.2088 19.8514 23.0099 19.8977 22.8117 19.9142C22.7923 19.9049 22.7735 19.8953 22.7563 19.8854C22.4473 19.7085 22.2299 19.2904 21.84 19.347C21.4921 19.3975 21.263 19.8355 21.0561 20.0924C20.3919 20.1698 19.7281 19.9701 19.1877 19.5902C19.1603 19.4601 19.1587 19.329 19.1778 19.1994ZM24.0928 18.7488C24.0397 18.5997 23.9727 18.4552 23.8934 18.3191C23.6312 17.869 23.2286 17.5104 22.7506 17.3054C21.6201 16.8211 20.1572 17.1625 19.2442 17.9568C18.9323 18.2283 18.6169 18.6273 18.5216 19.0564C18.4931 19.0621 18.4662 19.0769 18.4441 19.0978C17.7844 18.6823 17.1051 18.2826 16.5735 17.7066C16.1875 17.2882 15.919 16.793 15.7546 16.2488C15.7412 16.204 15.669 16.2105 15.6711 16.2601C15.6718 16.2717 15.6724 16.2833 15.673 16.2949C15.6661 16.2736 15.6336 16.2845 15.6311 16.3052C15.5427 16.9663 15.432 17.6671 15.5339 18.3316C15.5949 18.7282 15.7749 19.0184 16.0156 19.3319C16.2735 19.6679 16.5654 19.9804 16.8639 20.2801C17.0533 20.4703 17.2512 20.6897 17.4831 20.8292C17.7529 20.9912 18.0589 21.1144 18.3468 21.2395C18.6397 21.3671 18.9369 21.4849 19.2398 21.5871C19.8453 21.7921 20.471 21.9338 21.1077 21.9958C21.6176 22.0454 22.2002 22.0993 22.6887 21.9074C23.0632 21.7604 23.3655 21.4947 23.6052 21.1749C23.8662 20.8267 24.0725 20.43 24.1866 20.0117C24.3051 19.5772 24.1178 18.8189 24.0928 18.7488Z" fill="black"/>
</svg>
