<svg width="36" height="48" viewBox="0 0 36 48" fill="none" xmlns="http://www.w3.org/2000/svg">
<path fill-rule="evenodd" clip-rule="evenodd" d="M27.6224 27.1414C27.1879 25.0823 25.6471 23.4845 23.5749 22.6886C23.1766 22.4632 22.7904 21.4961 22.2551 21.319C22.1693 21.2906 22.3047 21.5166 22.2551 21.53C22.0781 21.5782 21.8797 21.5832 21.6842 21.4094C21.3349 21.0988 21.2253 20.1913 21.0129 19.7811C19.8927 17.618 17.0957 18.4643 16.721 20.8557C16.4597 21.026 16.0904 21.1761 15.806 21.3134C15.5131 21.4547 15.2555 21.7971 14.9537 21.9195C14.6844 22.0288 14.2407 21.9514 13.9694 22.0466C12.7214 22.4846 11.6644 23.0372 10.8357 24.1569C10.661 24.393 10.4642 24.6833 10.3053 24.9219C9.48607 25.8653 8.91706 26.9228 8.39299 28.0573C6.92676 31.3872 6.52795 35.0742 6.17014 38.6621C6.17828 39.2898 5.76188 41.0305 6.37775 41.3315C6.34094 41.3697 6.35427 41.4463 6.42257 41.4457C7.98416 41.4299 9.54213 41.5697 11.0795 41.8415C11.8213 41.9727 12.559 42.1525 13.3146 42.1821C14.883 42.1713 16.4458 41.9083 18.0121 42.1571C19.8952 42.1571 22.1836 42.1022 24.2784 42.0217C26.2362 41.9464 28.2046 42.1164 30.1381 41.7834C30.2912 41.7591 30.3659 41.5724 30.3338 41.4386C30.107 40.6117 29.9956 39.7606 29.8683 38.9142C29.8937 38.3713 29.8483 37.8046 29.6476 37.2989C29.1231 33.8855 28.4505 30.4942 27.6224 27.1414Z" fill="#D08B5B"/>
<path fill-rule="evenodd" clip-rule="evenodd" d="M22.2551 21.5426C22.3047 21.5291 22.1693 21.3032 22.2551 21.3316C22.7904 21.5087 23.1766 22.4757 23.5749 22.7011C25.6471 23.4971 27.1879 25.0949 27.6224 27.154C28.4505 30.5068 29.1231 33.898 29.6476 37.3115C29.8483 37.8171 29.8937 38.3839 29.8683 38.9267L29.8883 39.0604C30.0077 39.8626 30.1189 40.6677 30.3338 41.4511C30.3659 41.585 30.2912 41.7717 30.1381 41.7959C28.2265 42.1252 26.281 41.9628 24.3452 42.0318L23.9417 42.0469C21.9406 42.1205 19.7947 42.1697 18.0121 42.1697C16.4458 41.9209 14.883 42.1838 13.3146 42.1947C12.559 42.1651 11.8213 41.9852 11.0795 41.8541C9.54213 41.5823 7.98416 41.4425 6.42257 41.4583C6.35427 41.4589 6.34094 41.3822 6.37775 41.3441C5.76188 41.0431 6.17828 39.3024 6.17014 38.6746L6.20248 38.3515C6.55284 34.8659 6.97075 31.2999 8.39299 28.0698L8.43559 27.978C8.948 26.8782 9.50821 25.8524 10.3053 24.9344L10.354 24.8614C10.5033 24.6384 10.6785 24.382 10.8357 24.1694C11.6644 23.0498 12.7214 22.4971 13.9694 22.0592C14.2407 21.964 14.6844 22.0413 14.9537 21.9321C15.236 21.8176 15.4796 21.5107 15.7496 21.3558L15.7496 22.5112L19.6557 26.3605L21.8711 22.9621L22.0965 21.5703C22.1507 21.5669 22.2038 21.5566 22.2551 21.5426Z" fill="#8FA7DF"/>
<path fill-rule="evenodd" clip-rule="evenodd" d="M26.9909 31.6278C26.9496 31.8285 26.8917 32.0292 26.8147 32.2193C26.7405 32.4028 26.6288 32.5671 26.5518 32.7484C26.5415 32.7729 26.5246 32.7913 26.5042 32.8054L26.5106 32.8547L26.5164 32.904C26.5548 33.2368 26.598 33.5687 26.6354 33.9015L26.6535 34.0679C26.7271 34.7627 26.8432 35.454 26.9333 36.1469C27.0216 36.8255 27.1114 37.504 27.2075 38.1815C27.3067 38.8801 27.4078 39.5777 27.5258 40.2734C27.5756 40.5673 27.6276 40.8609 27.6818 41.1542L27.7236 41.3787C28.1543 41.4824 28.272 42.0829 27.8335 42.3046C27.6344 42.4048 27.3787 42.3807 27.2147 42.2232C27.0442 42.0591 27.0371 41.7632 26.9976 41.5409L26.9595 41.3343C26.6743 39.7812 26.4268 38.2102 26.3111 36.6351C26.2814 36.2284 26.2563 35.8213 26.24 35.4139C26.2246 35.0308 26.232 34.6476 26.226 34.2644L26.2241 34.1599C26.215 33.7513 26.2225 33.3433 26.2332 32.9347C26.2344 32.8849 26.2366 32.8352 26.2391 32.7851C26.2247 32.7682 26.2144 32.7481 26.21 32.7287L26.2044 32.703C26.1903 32.637 26.2062 32.5596 26.257 32.5123C26.2789 32.234 26.3076 31.9559 26.3155 31.6779C26.3161 31.655 26.349 31.6557 26.3509 31.6779C26.3693 31.9146 26.4062 32.152 26.4432 32.389C26.6807 32.198 26.8563 31.883 26.9599 31.6194C26.9674 31.6003 26.9953 31.6071 26.9909 31.6278ZM21.3702 20.5618C21.4097 20.7422 21.4876 20.9041 21.5921 21.0547C21.6419 21.1267 21.6986 21.1937 21.7665 21.2497C21.8247 21.2976 21.8911 21.3289 21.953 21.3706C22.0432 21.3565 22.1374 21.3906 22.2006 21.457L22.1906 21.36C22.1875 21.3286 22.2394 21.3224 22.2454 21.3527C22.5192 22.7342 22.7689 24.1166 22.9851 25.5081L23.0799 26.1226L23.169 26.6995C23.3171 27.6608 23.4602 28.6217 23.5681 29.5901C23.7117 30.8823 23.8325 32.178 23.9208 33.4755C24.0094 34.7821 24.0639 36.0896 24.1027 37.3988C24.1123 37.7288 24.1227 38.0585 24.1327 38.3885L24.1995 37.9939C24.2663 37.5993 24.3317 37.2043 24.3878 36.8079C24.589 35.3892 24.7499 33.9605 24.8285 32.5296C24.9005 31.2201 24.8764 29.8847 24.5434 28.6091C24.4594 28.2881 24.3568 27.9722 24.2329 27.6644C24.1126 27.3651 23.9487 27.0877 23.8194 26.7927C23.6691 26.4496 23.6241 26.1258 23.7014 25.7564C23.769 25.4345 23.8876 25.1317 23.9089 24.8004C23.9487 24.1855 23.7486 23.5899 23.466 23.0517C23.3915 22.9099 23.313 22.7699 23.231 22.6312C22.9828 22.2119 22.7029 21.808 22.4125 21.4207C22.3969 21.4 22.43 21.3772 22.447 21.3941C22.7117 21.6558 23.0012 21.9132 23.2394 22.1991C23.3552 22.3381 23.4682 22.4799 23.5752 22.6255C24.7496 22.8219 25.7587 23.5536 26.4485 24.5199C27.2313 25.6164 27.6272 26.9362 27.9202 28.2358C28.246 29.6803 28.5208 31.1378 28.8135 32.5894C29.1164 34.0914 29.4178 35.5934 29.7227 37.0951C29.8741 37.8405 30.0257 38.5861 30.1768 39.3319C30.2535 39.7095 30.334 40.0862 30.4181 40.4626C30.4613 40.6555 30.5077 40.848 30.5477 41.0415C30.5928 41.2598 30.5508 41.3994 30.4031 41.5597C30.3486 41.6192 30.2626 41.6183 30.195 41.5866L30.1738 41.5767L30.1534 41.5668C30.0697 41.5257 30.0042 41.4831 29.9521 41.3915C29.8948 41.2911 29.8857 41.1796 29.866 41.0678C29.8297 40.8621 29.7937 40.6564 29.7574 40.4504C29.7032 40.1423 29.6442 39.835 29.5842 39.5279L29.2829 37.9929C29.2026 37.5837 29.1222 37.1744 29.0413 36.7654C28.7524 35.3025 28.4632 33.84 28.174 32.3774C27.8964 30.9731 27.6507 29.5591 27.3346 28.1629L27.3166 28.0842L27.2983 28.0057C27.0157 26.8021 26.6208 25.6378 25.9042 24.6179C25.3527 23.8335 24.5869 23.1331 23.6848 22.7786C23.7484 22.8701 23.8094 22.9634 23.8676 23.0586C24.2332 23.656 24.5001 24.3652 24.4375 25.0766C24.4069 25.4241 24.2748 25.7657 24.2873 26.1161C24.2989 26.4273 24.4914 26.7007 24.6244 26.9715C24.9264 27.5852 25.1449 28.2374 25.2858 28.9065C25.5684 30.2501 25.5674 31.6325 25.4701 32.9964C25.3643 34.479 25.1634 35.9613 24.9346 37.4294C24.8172 38.1825 24.661 38.9293 24.5414 39.681C24.4823 40.0517 24.4018 40.4216 24.3314 40.7904L24.2979 40.9666C24.2791 41.0644 24.2596 41.1619 24.2371 41.2583L24.2232 41.3161V41.3264C24.2225 41.3975 24.2031 41.4564 24.1718 41.5034C24.129 41.6408 24.0757 41.7748 24.005 41.9035C23.9687 41.9693 23.9161 42.0062 23.8588 42.0197C23.8012 42.1515 23.6707 42.2529 23.5149 42.2523L21.4651 42.2445C20.2745 42.2398 19.0839 42.2319 17.8932 42.2254C17.5928 42.2238 17.2926 42.2182 16.9925 42.2104C16.7111 42.2025 16.4413 42.1687 16.1631 42.1336C15.8488 42.0942 15.6786 41.8716 15.7255 41.5575C15.7358 41.4883 15.7471 41.4194 15.7577 41.3506C15.6952 41.3712 15.6207 41.3615 15.5703 41.3124L15.523 41.2661C15.4575 41.2013 15.399 41.1377 15.3574 41.0512C15.3146 40.9623 15.2798 40.8684 15.2419 40.7776C15.1602 40.5822 15.0808 40.3862 15.0034 40.1892C14.8485 39.7953 14.6936 39.3999 14.5496 39.0019C14.2645 38.2138 14.0122 37.4138 13.7928 36.6047C13.4016 35.1613 13.1186 33.69 12.9402 32.2055L12.8975 31.8517L12.8851 31.7472C12.8175 31.1718 12.7605 30.5875 12.7875 30.0134C12.8041 29.6539 12.8598 29.2917 12.9941 28.956C13.118 28.6464 13.3092 28.3815 13.4911 28.1047L13.5119 28.0727L13.5328 28.04C13.6918 27.7886 13.8184 27.5258 13.8247 27.2205C13.8311 26.9106 13.7409 26.6091 13.64 26.319L13.6149 26.2475L13.598 26.2002C13.3834 25.6007 13.1391 25.0097 13.2197 24.3574C13.3387 23.3967 13.9208 22.6224 14.6532 22.0253C14.0018 22.1543 13.3571 22.4092 12.7881 22.7323C12.1161 23.1143 11.5111 23.6184 10.9893 24.1873C10.0034 25.2625 9.2995 26.5526 8.72332 27.8846C8.12016 29.2785 7.6729 30.7392 7.33584 32.219C6.99687 33.7072 6.76996 35.2192 6.61499 36.7372C6.53772 37.4927 6.47697 38.2501 6.42661 39.0079C6.40094 39.3961 6.38154 39.785 6.35149 40.1726C6.32144 40.56 6.30795 40.9532 6.21343 41.3302C6.1693 41.5059 5.87165 41.5237 5.83975 41.3302C5.76897 40.8981 5.78875 40.4512 5.80851 40.0136L5.8103 39.9738C5.82974 39.538 5.85509 39.1024 5.8851 38.6669C5.94648 37.7767 6.02845 36.8878 6.1355 36.0017C6.51077 32.8912 7.20282 29.7971 8.56025 26.9578C9.19938 25.6205 10.0197 24.321 11.1609 23.3554C11.7042 22.896 12.3167 22.5294 12.9768 22.2639C13.5671 22.0263 14.1668 21.9138 14.7941 21.9142C15.1086 21.6731 15.4463 21.463 15.7837 21.2835C15.804 21.2726 15.8253 21.2989 15.8085 21.3158C15.7997 21.3243 15.7912 21.333 15.7825 21.3412C15.8207 21.3437 15.8601 21.3615 15.8954 21.3988C16.0194 21.5287 16.1239 21.6912 16.2175 21.86C16.3599 22.0378 16.4957 22.2216 16.6379 22.3976C16.8654 22.6794 17.0982 22.9571 17.334 23.2326C17.7298 23.6957 18.1386 24.15 18.5648 24.586L18.636 24.6585C18.8569 24.8825 19.0808 25.1504 19.3421 25.3277L19.356 25.337C19.4663 25.4088 19.5445 25.4219 19.6385 25.3145C19.7239 25.2169 19.7951 25.1035 19.8682 24.9958L19.8851 24.9711C20.2585 24.4284 20.6047 23.8658 20.918 23.2865C21.0608 23.0229 21.1967 22.7555 21.3255 22.4851L21.364 22.4039C21.4341 22.2548 21.5102 22.1086 21.568 21.9551C21.5815 21.9192 21.5946 21.8832 21.6075 21.8475C21.4103 21.7182 21.2576 21.4382 21.2022 21.2191C21.1446 20.9914 21.1737 20.7578 21.2763 20.5496C21.2957 20.5105 21.3608 20.5202 21.3702 20.5618ZM11.6429 29.8121C11.6156 30.6775 11.5991 31.5439 11.5583 32.4087L11.5443 32.704C11.6078 32.7748 11.645 32.8564 11.6153 32.9686C11.6038 33.0115 11.5696 33.0503 11.527 33.0647L11.5138 33.3392C11.4534 34.5743 11.3826 35.8068 11.2532 37.0387C11.0914 38.5805 10.9042 40.1197 10.7174 41.6587C10.6908 41.8766 10.5393 42.0494 10.3036 42.0175C10.0651 41.9852 9.96839 41.7776 9.99969 41.5613C10.1227 40.7124 10.241 39.8629 10.3446 39.0113L10.4626 38.041C10.6106 36.8281 10.762 35.6154 10.9365 34.4063C11.0094 33.901 11.0851 33.396 11.1612 32.8909L11.1346 32.8564C11.026 32.7153 10.9136 32.5772 10.8025 32.4382C10.5891 32.1701 10.3784 31.9043 10.1828 31.6237C10.1731 31.6096 10.1928 31.589 10.2069 31.5996C10.481 31.8022 10.7405 32.0189 11.0016 32.239L11.2301 32.4325C11.3615 31.5598 11.4917 30.6869 11.6078 29.8121C11.6106 29.7902 11.6435 29.7886 11.6429 29.8121ZM15.5869 21.5297C15.4219 21.6852 15.2532 21.8374 15.087 21.9921L15.0261 22.049L14.9655 22.1062C14.6734 22.3834 14.3935 22.6719 14.1603 23.0032C13.7321 23.6115 13.477 24.3533 13.6551 25.096C13.8028 25.7112 14.1418 26.2689 14.2329 26.8995C14.2785 27.2154 14.2563 27.5329 14.1374 27.8313C14.0159 28.1357 13.8219 28.3965 13.6475 28.6711C13.2688 29.2679 13.2172 29.9229 13.2548 30.6143C13.2942 31.3363 13.3771 32.0586 13.4795 32.7741C13.6867 34.2238 13.999 35.6585 14.4125 37.0634C14.6194 37.767 14.8638 38.4555 15.107 39.1469C15.2281 39.491 15.3693 39.827 15.5148 40.1613C15.5915 40.3373 15.6701 40.5123 15.7499 40.687C15.7205 40.4403 15.7205 40.187 15.7061 39.9419C15.6854 39.5906 15.6591 39.2399 15.635 38.8889C15.5859 38.1765 15.5421 37.4636 15.503 36.7506C15.3643 34.2082 15.2623 31.6635 15.2698 29.117C15.2736 27.8436 15.2995 26.5701 15.3543 25.2979C15.38 24.6988 15.4297 24.1003 15.4746 23.5021L15.4842 23.3739C15.5239 22.8369 15.5715 22.2987 15.6532 21.7664C15.629 21.7118 15.608 21.6565 15.5924 21.5998L15.5869 21.5785L15.5909 21.5791C15.5872 21.5625 15.5859 21.5459 15.5869 21.5297ZM17.0135 19.3416C17.0169 19.3269 17.0378 19.3282 17.0416 19.3416C17.1346 19.6547 17.1017 19.9992 17.0216 20.3142C16.9784 20.4848 16.9171 20.6504 16.8429 20.8101L16.8169 20.866C16.7534 21.002 16.6818 21.1421 16.558 21.2269C16.5064 21.2623 16.4141 21.2644 16.3624 21.2269L16.3361 21.2069C16.3317 21.2035 16.3275 21.2 16.3233 21.1965C16.2751 21.1561 16.2513 21.0669 16.2735 21.008C16.3308 20.8561 16.4607 20.7447 16.5505 20.6094C16.6301 20.4892 16.7005 20.3624 16.759 20.2306C16.8851 19.9453 16.9418 19.6425 17.0135 19.3416Z" fill="black"/>
<path fill-rule="evenodd" clip-rule="evenodd" d="M25.038 11.7293C24.4226 7.99771 19.7233 7.32493 16.6611 8.11034C16.6047 7.39256 16.1536 6.75832 15.5907 6.34113C13.1996 4.61623 10.3689 7.54476 10.9356 10.0687C11.0373 10.8333 11.6469 11.7058 12.4999 11.5749C11.4277 13.6091 11.0088 17.711 13.3711 18.9789C13.599 19.1415 13.6368 19.4718 13.8122 19.6835C14.097 20.025 15.3135 20.4601 15.9717 20.1114C16.1785 20.3019 16.4171 20.4873 16.696 20.5532C18.137 21.7096 20.243 21.9705 21.9977 21.4934C23.0788 21.3094 24.1995 20.8205 24.7557 19.8217C25.227 19.0615 25.0098 18.1708 24.7937 17.3662C24.7003 16.9236 24.6396 16.4774 24.6021 16.0275C24.6788 15.9378 24.6831 15.8132 24.7022 15.6998C24.7852 15.2977 24.9665 14.9246 25.0572 14.5237C25.2601 13.6136 25.2249 12.6412 25.038 11.7293Z" fill="#D08B5B"/>
<path fill-rule="evenodd" clip-rule="evenodd" d="M11.6766 7.6861C12.2082 6.67117 13.2504 6.09854 14.2927 6.17707C15.359 6.25742 16.1751 6.99444 16.3641 8.18449L16.3696 8.22069L16.3809 8.29794L16.3706 8.30147L16.3756 8.31025L16.3845 8.32524C16.3951 8.34251 16.4081 8.36218 16.4259 8.38786L16.4496 8.42178L16.5294 8.53405L16.535 8.5421L16.552 8.56665L16.5863 8.55451C18.2571 7.96961 20.1182 7.97563 21.7818 8.59756L21.8321 8.61659L21.8785 8.63453L21.9047 8.64136C22.9246 8.91175 23.7396 9.56202 24.2975 10.4931L24.3144 10.5214L24.3314 10.5504C24.8406 11.4272 25.1018 12.5111 25.0834 13.5992L25.0828 13.6325L25.0825 13.6378L25.0797 13.6706C25.0554 13.9318 24.9899 14.1652 24.8543 14.5211L24.8369 14.5662L24.8101 14.6351L24.7265 14.8474L24.706 14.9002L24.4661 15.5316L24.5106 14.8979C24.5155 14.8274 24.5183 14.7656 24.5206 14.6711L24.521 14.6541L24.5264 14.3859L24.528 14.326C24.5289 14.2982 24.5298 14.273 24.5308 14.2485L24.5326 14.2119L24.5358 14.155L24.5365 14.1432L24.535 14.1304C24.4839 13.7277 24.2995 13.3838 23.9821 13.058L23.9656 13.0412L23.9488 13.0244L23.9288 13.0046C23.6949 12.7754 23.4585 12.6001 22.9687 12.2784L22.9476 12.2645L22.663 12.0789L22.5564 12.0089C22.3216 11.8538 22.1785 11.7534 22.0272 11.6362L21.9946 11.6108L21.969 11.5907C21.707 11.3828 21.5024 11.1785 21.3452 10.9581L21.3306 10.9374L21.2997 10.893L21.3218 10.8455L21.3214 10.8461L21.3214 10.8459L21.3225 10.8409L21.324 10.8324L21.3255 10.8221C21.3283 10.8017 21.3306 10.7751 21.3323 10.745C21.3329 10.7342 21.3335 10.723 21.3339 10.7118L21.3344 10.6948L21.3347 10.6802L21.3288 10.6974C21.0254 11.5753 20.3064 12.3078 19.293 12.8484L19.2622 12.8647L19.2274 12.8829C18.2285 13.4011 17.0066 13.6986 15.9472 13.7071L15.9131 13.7072L15.8794 13.7073L15.8534 13.6858C15.7561 13.6055 15.5772 13.7055 15.6098 13.8485C15.9109 15.1717 15.974 16.5413 15.7902 17.861L15.7836 17.907L15.7829 17.9113L15.7759 17.9487C15.7698 17.982 15.764 18.0161 15.7577 18.0554L15.7478 18.1188L15.7095 18.3757L15.6921 18.4858L15.6845 18.5304C15.6198 18.905 15.5378 19.1598 15.3887 19.3795L15.3744 19.4003L15.3598 19.4143L15.3454 19.4287C15.3161 19.459 15.2976 19.4836 15.2886 19.5007L15.2867 19.5045L15.2856 19.5069L15.2882 19.5079C15.3356 19.525 15.4325 19.5215 15.5133 19.4993L15.5233 19.4964L15.5328 19.4935L15.5982 19.4722L15.6438 19.5365L15.6574 19.5554C15.6824 19.5901 15.7086 19.6251 15.7412 19.6678L15.7797 19.7178L15.8687 19.8324L15.787 19.8889C15.5115 20.0797 15.1263 20.0418 14.7171 19.8629L14.7011 19.8559L14.6953 19.853C14.5002 19.7495 14.3724 19.6244 14.1619 19.3577L14.1372 19.3263L14.0435 19.2058L14.0079 19.1607C13.9829 19.1295 13.9616 19.1036 13.9403 19.0787L13.9332 19.0704L13.9082 19.0418L13.9027 19.0308C13.7997 18.8229 13.6524 18.6847 13.3946 18.536L13.3583 18.5153L13.335 18.4993C12.6808 18.0446 12.2947 17.3274 12.1324 16.3972C12.0055 15.67 12.0186 14.8519 12.1349 13.9331L12.1405 13.8893L12.1465 13.8437C12.2471 13.0704 12.4773 12.3484 12.8261 11.6911L12.8443 11.6572L12.8607 11.627L12.7788 11.5619L12.7452 11.5357C12.7174 11.5143 12.6971 11.4995 12.6787 11.4874L12.6688 11.481L12.6597 11.4754L12.6572 11.48L12.5947 11.4733C12.331 11.445 12.071 11.3308 11.8594 11.1548L11.8419 11.1401L11.825 11.123C11.4159 10.706 11.215 10.1278 11.2148 9.46759C11.2147 8.88401 11.3744 8.26297 11.6476 7.74047L11.6611 7.71485L11.6766 7.6861Z" fill="#E8E1E1"/>
<path fill-rule="evenodd" clip-rule="evenodd" d="M24.9887 13.63C24.9532 14.08 24.763 14.4848 24.6037 14.9041C24.6211 14.656 24.6129 14.3978 24.6303 14.1402C24.445 12.527 22.2566 12.1031 21.4071 10.8833C21.4393 10.8144 21.4509 10.1985 21.3242 10.3717C20.8328 12.5273 17.9122 13.6088 15.9126 13.6129C15.7614 13.488 15.4614 13.62 15.5181 13.869C15.8171 15.1832 15.8826 16.5579 15.6906 17.8932C15.6001 18.3647 15.5848 18.9321 15.3026 19.3384C15.0031 19.624 15.3632 19.6469 15.5613 19.5824C15.6166 19.6603 15.6749 19.7359 15.7334 19.8112C15.4488 20.0084 15.0335 19.9009 14.7388 19.7696C14.4111 19.5957 14.2238 19.2587 13.9863 18.9886C13.8567 18.727 13.66 18.5766 13.4072 18.435C12.0008 17.4767 12.0372 15.3747 12.239 13.8554C12.8273 9.33453 17.8326 7.15318 21.8495 8.72374C24.0188 9.27986 25.0352 11.5284 24.9887 13.63ZM11.9051 11.0705C11.0473 10.2141 11.2199 8.71676 11.7592 7.7294C12.8398 5.6664 15.909 5.73343 16.2766 8.23401C14.7114 8.77152 13.3907 9.92412 12.6043 11.3795C12.3483 11.3521 12.1008 11.2377 11.9051 11.0705ZM25.038 11.7303C24.4226 7.9987 19.7233 7.32592 16.6611 8.11136C16.6047 7.39355 16.1536 6.75931 15.5907 6.34209C13.1996 4.61722 10.3689 7.54576 10.9356 10.0697C11.0373 10.8343 11.6469 11.7068 12.4999 11.5759C11.4277 13.6101 11.0088 17.712 13.3711 18.9799C13.599 19.1426 13.6368 19.4728 13.8122 19.6845C14.097 20.026 15.3135 20.4611 15.9717 20.1124C16.1282 20.3049 17.0163 20.8902 16.9516 20.3164C16.8862 20.1619 16.6844 20.1215 16.5499 20.0451C16.2674 19.8888 16.0219 19.6684 15.8291 19.4096C16.4348 17.6972 16.3887 15.7906 16.0493 14.0274C18.0773 13.9252 20.4635 13.0341 21.358 11.0773C21.9627 12.5013 23.8378 12.6846 24.3115 14.2767C24.3401 15.1129 24.1612 15.9368 24.2909 16.7734C24.329 17.5929 24.7611 18.4069 24.5113 19.221C23.8134 20.9963 21.3009 21.2568 19.641 21.1826C19.2467 21.15 18.9194 20.9363 18.5953 20.7335C18.401 20.6411 18.1698 20.8345 18.2888 21.0408C18.7433 21.6766 19.6781 21.7322 20.3959 21.7093C22.2587 21.5985 24.9508 21.0468 25.0475 18.7408C24.9861 17.8267 24.6283 16.9518 24.6022 16.0285C24.6788 15.9388 24.6831 15.8142 24.7022 15.7008C24.7852 15.2987 24.9665 14.9256 25.0572 14.5247C25.2601 13.6146 25.2249 12.6423 25.038 11.7303Z" fill="black"/>
<path fill-rule="evenodd" clip-rule="evenodd" d="M20.6201 19.1838C20.6201 19.1838 21.0636 19.5263 21.8906 19.5263C22.7176 19.5263 23.1979 19.2199 23.1979 19.2199C23.1979 19.2199 22.473 18.7794 21.8906 18.7437C21.3081 18.708 20.6201 19.1838 20.6201 19.1838Z" fill="#FF6C6C"/>
<path fill-rule="evenodd" clip-rule="evenodd" d="M19.6338 18.3135C19.6371 17.9685 19.9359 17.909 20.2198 17.955C20.7004 18.0328 21.1828 18.0875 21.6699 18.0974L21.7538 18.0988C21.7674 18.0791 21.79 18.0641 21.8206 18.0609C22.0907 18.0317 22.3665 18.0364 22.638 18.0284C22.8748 18.0214 23.1182 17.9977 23.355 18.0163L23.3739 18.018C23.6633 18.046 23.9687 18.1938 23.9338 18.5336C23.9016 18.8482 23.601 19.1268 23.3609 19.3016C23.3123 19.3367 23.2627 19.3695 23.2116 19.3994C23.1956 19.4199 23.1722 19.4341 23.1452 19.437C22.9087 19.5648 22.6479 19.6404 22.3778 19.6656C21.8053 19.7188 21.1397 19.6612 20.5898 19.413C20.4111 19.3323 20.2443 19.2315 20.0969 19.1078C19.8696 18.9169 19.6313 18.6274 19.6338 18.3135ZM21.9209 18.9349C21.6914 18.928 21.4622 18.9601 21.2436 19.0309C21.0955 19.0788 20.9605 19.1707 20.8185 19.2346C21.2969 19.4171 21.8527 19.4569 22.3434 19.4237C22.5587 19.4091 22.7675 19.3595 22.962 19.274C22.9317 19.2522 22.901 19.2299 22.8689 19.2105C22.7718 19.1517 22.6704 19.1017 22.5646 19.0619C22.3584 18.9846 22.1409 18.9419 21.9209 18.9349ZM21.9665 15.9807C21.9046 15.9362 21.9537 15.789 22.0861 15.8117C23.2878 16.0183 22.6652 18.0892 21.1308 16.9528C20.9481 16.8054 21.1693 16.4806 21.3662 16.6069L21.4361 16.6608C21.6634 16.8351 22.0394 17.0986 22.3087 16.8159C22.563 16.4596 22.2029 16.1244 21.9665 15.9807ZM22.7801 14.4133C23.0356 14.1953 23.356 14.356 23.5441 14.5768L23.5772 14.6163C23.6148 14.6614 23.6565 14.7139 23.6815 14.77C23.89 14.5924 24.1726 14.4675 24.443 14.5486C24.7053 14.6275 24.8549 14.878 24.8099 15.147C24.7588 15.4528 24.5275 15.6583 24.2789 15.8173L24.2085 15.8621C23.9098 16.0525 23.6303 16.2444 23.3845 16.5062C23.3444 16.5488 23.2578 16.5431 23.2315 16.4865L23.2103 16.4409L23.1889 16.3953C23.0145 16.0234 22.8277 15.6539 22.6743 15.2732C22.5607 14.991 22.5238 14.6319 22.7801 14.4133ZM19.9069 14.5658C20.094 14.3479 20.4111 14.202 20.6612 14.4134C20.9275 14.6385 20.8753 15.0108 20.7566 15.2979C20.6138 15.6442 20.447 15.9829 20.2867 16.3225L20.2524 16.3954C20.238 16.4257 20.2239 16.4561 20.2099 16.4865C20.1836 16.5431 20.0966 16.5488 20.0568 16.5062C19.8186 16.2526 19.5492 16.0649 19.2614 15.8805L19.1745 15.8252C18.9219 15.6649 18.6831 15.4579 18.6311 15.147C18.5867 14.8786 18.7354 14.6266 18.998 14.5486C19.269 14.4682 19.551 14.5921 19.7598 14.77C19.7847 14.7125 19.8275 14.6583 19.868 14.6109L19.9069 14.5658ZM20.2104 13.0474C20.3019 13.1662 20.2042 13.3602 20.0707 13.3909C19.9054 13.4289 19.7384 13.4058 19.5761 13.453C19.4274 13.4962 19.2849 13.5829 19.1574 13.6692C19.012 13.7676 18.8781 13.8776 18.7551 14.0028C18.6819 14.0773 18.5897 14.2537 18.4768 14.257C18.3646 14.2603 18.5153 13.9093 18.5277 13.8789C18.6162 13.6627 18.7405 13.4637 18.8959 13.2895C19.2027 12.9456 19.8524 12.5827 20.2104 13.0474ZM23.6361 12.9524L23.7127 12.9737C23.9022 13.0264 24.1045 13.0911 24.2671 13.2048L24.2798 13.2138L24.2995 13.2282C24.5036 13.3804 24.7923 13.6841 24.6477 13.9491C24.6377 13.9673 24.6166 13.9692 24.5996 13.9617C24.4073 13.8774 24.2647 13.7092 24.0601 13.6388L24.0224 13.6259C23.8243 13.5592 23.5793 13.489 23.366 13.4954C23.2161 13.5441 23.0136 13.5038 22.9746 13.3212L22.9729 13.3122L22.9695 13.2933C22.947 13.1686 22.9804 13.0096 23.1093 12.9494C23.286 12.8671 23.4583 12.9037 23.6361 12.9524Z" fill="black"/>
</svg>
