<svg width="36" height="48" viewBox="0 0 36 48" fill="none" xmlns="http://www.w3.org/2000/svg">
<path fill-rule="evenodd" clip-rule="evenodd" d="M28.8345 37.3236C28.7083 36.6108 28.5926 35.8961 28.4875 35.1799C28.4376 34.8399 28.389 34.4996 28.3452 34.1587C28.3146 33.9198 28.2679 33.6467 28.4304 33.4698C28.6589 33.2208 28.8666 33.0077 28.8945 32.651C28.9209 32.3155 28.8074 31.9497 28.7365 31.6239C28.5878 30.9409 28.4026 30.2662 28.198 29.598C27.9902 28.9191 27.7622 28.2465 27.531 27.5753C27.3149 26.9477 27.1071 26.3144 26.8256 25.7123C26.2913 24.5696 25.3874 23.7233 24.2702 23.1583C23.9924 23.0177 23.4257 22.5161 23.1354 22.4038C22.8686 22.3005 22.8695 22.6021 22.6069 22.4885C22.397 22.3977 22.2015 22.2766 22.0839 22.0738C21.9563 21.8536 21.6362 21.5456 21.5875 21.2893C21.4842 20.746 21.5961 20.2836 21.2084 19.8747C20.8643 19.5116 20.4018 19.2628 19.9233 19.1293C18.8705 18.8355 17.4665 19.0409 16.8313 20.0195C16.5279 20.4869 16.4219 21.0518 16.0126 21.4332C15.6551 21.7662 15.7351 21.9939 15.2721 22.1656C15.2459 22.1753 14.5352 22.0228 14.509 22.0325C14.0025 21.9241 13.5184 22.2276 13.0537 22.4038C12.361 22.6663 11.7015 23.008 11.0818 23.4141C9.83242 24.2331 8.76231 25.2965 7.88009 26.4999C6.99057 27.7132 6.3004 29.0731 5.80898 30.4945C5.68963 30.8397 5.58244 31.1891 5.48788 31.542C5.43495 31.7394 5.3784 31.9443 5.44284 32.1464C5.49555 32.3118 5.61279 32.435 5.75048 32.5342C5.93711 32.6688 6.31148 32.7562 6.30419 33.0268C6.29862 33.2325 6.22885 33.449 6.1948 33.6523C6.15427 33.8944 6.12096 34.138 6.08766 34.3811C5.93618 35.488 5.81827 36.6011 5.76613 37.7173C5.7148 38.8164 5.6722 39.9379 5.74841 41.0367C5.75345 41.1092 5.77505 41.1757 5.80988 41.2319C5.77736 41.2443 5.77486 41.305 5.81533 41.3136C5.84369 41.3196 5.87198 41.3256 5.90034 41.3316C5.95924 41.3762 6.0327 41.4035 6.11724 41.4062C6.17455 41.408 6.23182 41.4106 6.28907 41.4135C6.89317 41.5398 7.49718 41.6592 8.10916 41.7495C8.85308 41.8594 9.59918 41.9489 10.3476 42.0217C11.8855 42.1713 13.4112 42.1217 14.9511 42.041C16.4887 41.9605 18.0253 41.9417 19.5644 41.9818C21.1049 42.0219 22.6448 42.0889 24.1856 42.1163C25.907 42.1469 27.6258 42.0999 29.3422 41.963C29.5776 41.9443 29.7232 41.757 29.6767 41.5231C29.3986 40.1222 29.0835 38.7306 28.8345 37.3236Z" fill="#D08B5B"/>
<path fill-rule="evenodd" clip-rule="evenodd" d="M13.0537 22.4038L13.0874 22.3909C13.5417 22.2133 14.0147 21.9268 14.509 22.0326C14.5264 22.0261 14.8481 22.0917 15.0684 22.1333L14.8593 22.3516L14.4902 22.4226C15.7633 24.5245 17.2689 25.5754 19.0071 25.5754C20.7454 25.5754 22.0643 24.5245 22.9641 22.4226L23.0869 22.3886C23.102 22.3922 23.1182 22.3971 23.1354 22.4038C23.4257 22.5161 23.9924 23.0178 24.2702 23.1583C25.3873 23.7234 26.2913 24.5696 26.8256 25.7123C27.0977 26.2944 27.301 26.9055 27.5095 27.5125L27.531 27.5753C27.7622 28.2466 27.9902 28.9191 28.198 29.598C28.3937 30.2372 28.5716 30.8823 28.7169 31.5349L28.7365 31.624C28.8074 31.9497 28.9209 32.3155 28.8945 32.6511C28.8846 32.7782 28.8518 32.887 28.8034 32.9857L26.2855 33.8921L27.4851 42.0766C26.3863 42.1238 25.2865 42.1359 24.1856 42.1164C22.6448 42.0889 21.1049 42.0219 19.5644 41.9818C18.0719 41.943 16.5818 41.9595 15.0909 42.0339L14.7123 42.0533C13.2534 42.1263 11.8059 42.1636 10.3476 42.0217L10.2482 42.012L10.2482 40.8148L10.7605 34.1483L8.1644 33.6594L5.61599 32.4212C5.53899 32.3442 5.4772 32.2543 5.44284 32.1465C5.38315 31.9592 5.42726 31.7697 5.47615 31.5859L5.48788 31.542C5.58244 31.1892 5.68963 30.8397 5.80898 30.4945C6.3004 29.0732 6.99057 27.7132 7.88009 26.5C8.76231 25.2966 9.83242 24.2331 11.0818 23.4142C11.7015 23.0081 12.361 22.6663 13.0537 22.4038Z" fill="#EC7495"/>
<path fill-rule="evenodd" clip-rule="evenodd" d="M14.029 21.9984C14.1882 21.9915 14.3505 22.0172 14.5093 22.0329C14.5231 22.0342 14.5284 22.0556 14.5128 22.0588C14.2286 22.1182 13.9475 22.1995 13.6683 22.282L13.5488 22.3174C13.234 22.4105 12.9285 22.5066 12.6238 22.6309C12.0164 22.8785 11.4396 23.2127 10.9088 23.5967C8.86459 25.0752 7.38509 27.3138 6.45144 29.6314C6.19789 30.2609 5.98305 30.9059 5.80903 31.5619C5.76671 31.7215 5.7269 31.8817 5.68916 32.0424C5.67808 32.0895 5.62978 32.2102 5.65626 32.2584C5.67967 32.301 5.77069 32.3274 5.81297 32.3495L5.95573 32.4236C6.23419 32.5672 6.69804 32.8032 6.74455 32.8262L6.8171 32.8619C8.00366 33.4438 9.27149 33.9373 10.6067 33.9714L10.6172 33.8574C10.6767 33.2267 10.7549 32.5927 10.9254 31.9815C10.9345 31.9486 10.9763 31.9597 10.9801 31.9889C11.0751 32.7125 11.0448 33.4418 11.0116 34.1688C10.9529 35.4564 10.875 36.7432 10.8057 38.0303C10.7711 38.6741 10.7262 39.3175 10.6858 39.9611C10.6452 40.6058 10.6321 41.2661 10.5396 41.9056C10.519 42.0481 10.3521 42.1257 10.2257 42.1106C10.0858 42.094 9.97826 41.9708 9.97761 41.8295C9.97591 41.457 10.0227 41.0801 10.0487 40.7085C10.0734 40.3554 10.0999 40.0025 10.1271 39.6496C10.2264 38.3618 10.3406 37.0754 10.4462 35.7881C10.4836 35.3315 10.5241 34.8754 10.5657 34.4192C9.15122 34.3736 7.82975 33.8495 6.56909 33.2371C6.55085 33.6516 6.50678 34.0653 6.46412 34.478C6.34502 35.6298 6.24002 36.7812 6.16142 37.9366C6.12174 38.5201 6.09285 39.1044 6.06768 39.6887C6.05532 39.9759 6.04524 40.2632 6.03751 40.5505C6.03492 40.6463 6.03259 40.7421 6.03052 40.8379L6.02622 41.0573C6.0227 41.1963 6.00857 41.3251 5.89163 41.4264C5.77285 41.5291 5.61241 41.5346 5.49485 41.4264C5.33748 41.2814 5.36531 41.0839 5.36997 40.8892C5.37385 40.725 5.37851 40.5608 5.38393 40.3966C5.39479 40.0682 5.40865 39.74 5.42552 39.4119C5.48456 38.2647 5.60251 37.1222 5.75666 35.9843L5.81683 35.545C5.9292 34.7284 6.05257 33.8932 6.30377 33.1066C6.20596 33.0579 6.10844 33.0089 6.01128 32.9597C5.83895 32.8724 5.66077 32.7905 5.49326 32.6942C5.36036 32.6177 5.24574 32.5129 5.20875 32.3582C5.16749 32.1858 5.23058 31.9973 5.27249 31.8292L5.27613 31.8144C5.31723 31.6451 5.36149 31.4765 5.40818 31.3086C5.59754 30.628 5.83169 29.9606 6.10571 29.3094C6.65438 28.0059 7.36258 26.7675 8.22765 25.6478C9.00634 24.6399 9.92621 23.7258 11.0043 23.0403C11.5314 22.7052 12.0931 22.43 12.6871 22.2354C12.9648 22.1445 13.2669 22.0654 13.5576 22.0328C13.7144 22.0153 13.8714 22.0052 14.029 21.9984ZM16.8494 19.9328C17.0386 19.7296 17.4144 19.9399 17.3236 20.209C17.11 20.842 16.7697 21.4195 16.2388 21.8355C15.7397 22.2266 15.1445 22.4805 14.5036 22.4263C14.4987 22.4259 14.4944 22.4247 14.4906 22.4229L14.5458 22.4978C14.9795 23.0846 15.4369 23.6633 15.9883 24.143C17.1117 25.1202 18.6413 25.6473 20.1183 25.2723C21.2803 24.9774 22.3041 24.0581 22.6052 22.8866C22.5621 22.9059 22.5108 22.9125 22.4545 22.9003C22.2136 22.848 21.9751 22.5945 21.8197 22.4128C21.6516 22.2162 21.5203 22.0039 21.4241 21.7639C21.248 21.3247 21.1916 20.7593 21.432 20.3339C21.4617 20.2814 21.5301 20.3108 21.5359 20.362L21.5451 20.4419C21.5914 20.8406 21.6492 21.2263 21.8371 21.5897C21.929 21.7676 22.0393 21.9412 22.1735 22.0901C22.2453 22.1698 22.3231 22.246 22.4071 22.3128C22.489 22.3779 22.5881 22.425 22.6615 22.4996L22.675 22.514L22.6754 22.5114C22.6939 22.3536 22.8046 22.284 22.9128 22.2884C23.0176 22.2926 23.1407 22.3387 23.1883 22.3608L23.1928 22.363C23.9237 22.714 24.5969 23.1714 25.2304 23.679C26.5404 24.7287 27.522 26.1009 27.9976 27.7168C28.231 28.5099 28.3649 29.3271 28.5063 30.1405L28.5934 30.6388C28.7253 31.3897 28.8727 32.1554 29.1706 32.8539C29.2477 33.0346 29.1883 33.204 28.9993 33.2751C28.7634 33.3638 28.5266 33.4497 28.2894 33.5346C28.4059 34.0344 28.4769 34.5515 28.5642 35.0538C28.7496 36.1215 28.9769 37.1824 29.1718 38.2486C29.2714 38.7938 29.3613 39.3408 29.4608 39.8861C29.5087 40.1486 29.5588 40.4109 29.6074 40.6733C29.6336 40.8148 29.6573 40.9568 29.6824 41.0985L29.6867 41.122C29.701 41.1968 29.719 41.2741 29.6985 41.3489C29.675 41.4343 29.6085 41.4945 29.549 41.5557C29.5001 41.6061 29.4294 41.6064 29.3695 41.5789L29.3497 41.5698C29.2427 41.5197 29.1588 41.4697 29.1208 41.3489C29.0968 41.2724 29.0881 41.1863 29.0724 41.1075C29.0423 40.9564 29.0137 40.8051 28.9867 40.6534C28.9328 40.3499 28.8801 40.0462 28.8286 39.7422L28.7805 39.4576C28.6156 38.4767 28.4589 37.4897 28.3798 36.4984C28.3446 36.0586 28.3074 35.6192 28.2698 35.1798L28.2416 34.8501C28.2059 34.4329 28.1623 34.0051 28.1562 33.5823L28.0143 33.6326L27.3223 33.8774C27.1507 33.938 26.9322 34.0623 26.7476 34.0397C26.6572 34.0286 26.5883 34.0002 26.5351 33.9484C26.5988 34.8481 26.685 35.7462 26.8 36.6397C26.9046 37.4528 27.0206 38.2647 27.1575 39.0729C27.2254 39.4731 27.2951 39.873 27.3708 40.2718C27.4086 40.4712 27.4477 40.6703 27.4879 40.8693C27.508 40.9685 27.5319 41.0679 27.5475 41.168C27.5654 41.2826 27.5339 41.3531 27.4699 41.4473C27.4173 41.5248 27.3122 41.5645 27.2269 41.5111C27.1141 41.4402 27.0552 41.3789 27.022 41.2498C26.9918 41.1326 26.9735 41.0103 26.9501 40.8916C26.907 40.6725 26.8654 40.4531 26.8252 40.2334C26.7411 39.774 26.6635 39.3135 26.5943 38.8516C26.3503 37.2244 26.1955 35.5835 26.1173 33.9401C26.0788 33.1292 26.0668 32.3176 26.0737 31.5059C26.0772 31.0898 26.0908 30.6726 26.1202 30.2576C26.15 29.8374 26.212 29.4257 26.2673 29.0097C26.2692 28.995 26.2899 28.9942 26.2908 29.0097C26.317 29.4761 26.358 29.9421 26.3782 30.4098C26.3974 30.8561 26.4058 31.303 26.4211 31.7495C26.4411 32.3363 26.469 32.9235 26.5058 33.5102C26.5725 33.4373 26.673 33.3952 26.7736 33.4116C26.9193 33.381 27.0762 33.3045 27.2152 33.2581L27.7389 33.0831C28.0142 32.9911 28.2896 32.8997 28.5659 32.8111C28.3188 31.9797 28.1496 31.1359 28.0051 30.2798L27.9407 29.8948C27.8131 29.1369 27.6756 28.3787 27.4445 27.6448C27.2016 26.8732 26.8381 26.1559 26.3559 25.5063C25.8805 24.8661 25.3022 24.3023 24.7068 23.775C24.197 23.3237 23.6517 22.9161 23.1318 22.4771C23.1372 22.5062 23.1384 22.5383 23.1336 22.5734C23.023 23.3828 22.601 24.1366 22.0128 24.6972C20.8311 25.8235 19.0819 26.0572 17.5695 25.529C16.1065 25.0182 14.813 23.8082 14.356 22.311C14.3481 22.2854 14.3824 22.2752 14.3962 22.2941C14.4216 22.3288 14.447 22.3636 14.4726 22.3983C14.4708 22.3845 14.478 22.3695 14.495 22.3629C15.0282 22.1569 15.5518 21.8648 15.9515 21.4516C16.1463 21.2502 16.3163 21.022 16.4506 20.7759C16.5148 20.658 16.5726 20.5359 16.6187 20.4098L16.6304 20.3771C16.6862 20.2191 16.7329 20.058 16.8494 19.9328Z" fill="black"/>
<path fill-rule="evenodd" clip-rule="evenodd" d="M24.526 13.4706C24.4903 12.7854 24.4589 12.0774 24.3279 11.4027C24.2636 11.072 24.1351 10.7666 23.9273 10.5011C23.7371 10.2582 23.4978 10.0698 23.2551 9.88262C22.7672 9.50648 22.2981 9.09004 21.7521 8.7991C21.2281 8.51993 20.6616 8.35141 20.0746 8.27573C18.944 8.12998 17.7565 8.37258 16.7748 8.95462C15.8225 9.51922 15.0569 10.3954 14.5832 11.3943C14.3478 11.8907 14.1709 12.4146 14.0757 12.9564C13.9622 13.6022 13.9724 14.2499 13.9765 14.9029C13.9779 15.1224 13.976 15.3418 13.9651 15.5607C13.9473 15.667 13.9375 15.7746 13.9376 15.89C13.7221 16.1743 13.6344 16.5543 13.7694 16.9044C13.9849 17.4629 14.5963 17.7169 15.1514 17.6194C15.1762 17.7646 15.2361 17.9077 15.3106 18.0469C15.4381 18.2849 15.5806 18.518 15.7318 18.7415C16.0447 19.2038 16.4017 19.623 16.8277 19.9846C17.6721 20.7014 18.7418 21.1711 19.8512 21.2391C20.8612 21.301 21.9264 21.013 22.75 20.4191C23.1775 20.1108 23.5474 19.7331 23.8223 19.2807C24.1434 18.7522 24.3177 18.1438 24.4081 17.5357C24.6065 16.2006 24.5959 14.8156 24.526 13.4706Z" fill="#D08B5B"/>
<path fill-rule="evenodd" clip-rule="evenodd" d="M16.5618 6.38988C16.5237 5.95866 16.9201 5.63421 17.288 5.75498C17.3555 5.7634 17.4211 5.78476 17.4798 5.82067C17.6491 5.92434 17.6861 6.09154 17.6419 6.23607C17.7214 6.29622 17.784 6.37776 17.8155 6.47611C17.8479 6.57743 17.8445 6.67571 17.814 6.76135C17.9294 6.83778 18.0166 6.9531 18.0369 7.09597C18.0465 7.16382 18.0426 7.23111 18.0266 7.29295C18.2013 7.35241 18.3439 7.48561 18.3417 7.68716C18.4432 7.69367 18.5448 7.69511 18.6482 7.68935C18.663 7.64761 18.681 7.60691 18.7079 7.56943C18.762 7.49393 18.839 7.44206 18.9242 7.40971L18.9359 7.40542L18.9357 7.3825C18.8704 7.31002 18.8399 7.21859 18.9094 7.11902C18.9213 7.10195 18.9358 7.08786 18.9521 7.07578C18.9578 7.03257 18.9671 6.9898 18.9785 6.94775C18.9209 6.86728 18.9272 6.73377 19.0238 6.69381C19.0103 6.61535 19.0096 6.53397 19.0241 6.45197C19.0837 6.116 19.4071 5.88717 19.7404 5.90001C19.7822 5.90161 19.8228 5.9079 19.862 5.91792C19.9431 5.92644 20.0239 5.94463 20.1033 5.97168C20.1949 6.00293 20.2185 6.07964 20.1983 6.14449C20.3227 6.31128 20.3581 6.53788 20.2328 6.74153C20.228 6.74926 20.2227 6.75662 20.2176 6.76404C20.2427 6.78299 20.2646 6.80797 20.2808 6.84007C20.3216 6.92085 20.3116 7.02336 20.2493 7.09078C20.2328 7.10875 20.2113 7.12224 20.1879 7.13092L20.1875 7.13755C20.1793 7.24573 20.1622 7.3542 20.1298 7.45636C20.2617 7.5792 20.3493 7.74637 20.3649 7.9265C20.414 7.93107 20.4632 7.93643 20.5122 7.942C20.5195 7.89262 20.5494 7.84816 20.5947 7.81372C20.6327 7.78491 20.6732 7.76187 20.7148 7.74462C20.7348 7.64107 20.7839 7.54188 20.8667 7.46316C20.8975 7.43398 20.931 7.40824 20.9668 7.3861C20.9648 7.27385 20.9897 7.1617 21.0518 7.05549C21.1034 6.96716 21.1785 6.9031 21.2641 6.86233C21.3266 6.73646 21.4422 6.63376 21.6106 6.57539C21.7363 6.5318 21.8694 6.58361 21.9651 6.66507L21.9864 6.68386C22.0742 6.76148 22.1059 6.9041 22.0735 7.01413C22.0583 7.06582 22.0329 7.12622 21.9961 7.17528C22.035 7.3474 21.9575 7.49099 21.8388 7.57168C21.8794 7.62955 21.9135 7.69373 21.9423 7.76227C21.9921 7.88079 21.9361 8.02836 21.8463 8.12173C21.8856 8.18454 21.9111 8.2578 21.9205 8.33139C21.9606 8.33373 22.0003 8.34087 22.0396 8.35205C22.0608 8.27966 22.1009 8.21237 22.1621 8.15742C22.1889 8.10491 22.2208 8.05604 22.2564 8.0133C22.3126 7.94585 22.3853 7.89726 22.4648 7.87747C22.4753 7.85245 22.4903 7.8285 22.5091 7.80661C22.4902 7.58718 22.6352 7.36061 22.8586 7.36043C22.8744 7.30926 22.8937 7.25867 22.9168 7.20904C22.962 7.11169 23.0579 7.05339 23.162 7.03423C23.2231 6.885 23.3431 6.77647 23.5491 6.75838C24.0092 6.71798 24.2987 7.27733 24.1863 7.67892C24.1529 7.79822 24.0746 7.908 23.9708 7.97541C23.9436 7.99304 23.9162 8.00584 23.8885 8.01643C23.8608 8.05522 23.8235 8.0897 23.7756 8.11778C23.765 8.12401 23.754 8.12962 23.7428 8.13463C23.7439 8.31385 23.6205 8.45961 23.4673 8.50598C23.4772 8.61898 23.4483 8.73226 23.3627 8.81981L23.3566 8.82569L23.3442 8.83687L23.3432 8.84182C23.3736 8.92047 23.3704 9.00711 23.3267 9.07841C23.3306 9.14391 23.3421 9.20794 23.3641 9.26881C23.4486 9.33741 23.5233 9.41622 23.59 9.50177C23.6346 9.46131 23.7019 9.44306 23.7601 9.46516C23.7762 9.45965 23.7928 9.45608 23.8088 9.45449C23.8353 9.45179 23.8614 9.45189 23.8869 9.45377C23.8987 9.43658 23.9122 9.42023 23.9277 9.40492C24.0364 9.29724 24.1941 9.29946 24.3192 9.36635C24.3416 9.34997 24.3669 9.3355 24.3955 9.32339C24.7146 9.18853 24.9238 9.59448 24.9549 9.8475C24.9718 9.98555 24.8533 10.0707 24.7317 10.0779C24.707 10.1616 24.6277 10.2218 24.5391 10.2422C24.5548 10.3456 24.4864 10.4512 24.3933 10.4905C24.3517 10.508 24.3115 10.5128 24.2736 10.5077L24.2754 10.5322C24.2828 10.6293 24.2338 10.6911 24.1668 10.7185C24.1549 10.7666 24.1222 10.8015 24.0812 10.8194C24.2379 11.1833 24.3616 11.5646 24.4614 11.9407C24.6261 12.5616 24.7369 13.1937 24.8112 13.8316C24.9418 14.9529 24.9469 16.0973 24.8161 17.2191C24.7496 17.79 24.6389 18.348 24.4127 18.8781C24.224 19.3204 23.9615 19.7042 23.6593 20.0755C23.0591 20.8131 22.2 21.3564 21.2531 21.4914C20.756 21.5623 20.2462 21.5392 19.7612 21.4035C19.2782 21.2683 18.7633 21.0365 18.4591 20.6248C18.3767 20.5134 18.4168 20.3326 18.5085 20.2406C18.6132 20.1357 18.7639 20.129 18.8917 20.1911C19.1185 20.3013 19.3223 20.452 19.5529 20.5572C19.761 20.6522 19.9859 20.713 20.2099 20.756C20.6536 20.8411 21.1361 20.8193 21.5785 20.7006C22.3808 20.4854 23.0876 19.966 23.5363 19.2657C24.0664 18.4383 24.2556 17.4686 24.3423 16.5023C24.4371 15.4447 24.4272 14.3725 24.3014 13.3179C24.2391 12.7949 24.1431 12.2766 24.0295 11.7626C23.9487 11.3966 23.8575 11.033 23.7716 10.6683C23.6937 10.5938 23.6185 10.5169 23.5459 10.4372L23.5437 10.437C23.5345 10.4393 23.525 10.441 23.5147 10.4418C23.0839 10.4747 22.6169 10.4314 22.2493 10.1824C22.0999 10.0813 21.9736 9.95321 21.8795 9.80577C21.7475 9.71399 21.6271 9.5982 21.5367 9.46441C21.4726 9.3939 21.4119 9.32022 21.3541 9.24386C21.2104 9.05355 21.134 8.85381 21.0482 8.63423C21.0462 8.62919 21.0449 8.62424 21.0439 8.61939C21.0275 8.59249 21.0159 8.56303 21.0103 8.53328C20.819 8.51052 20.6269 8.49543 20.4368 8.48634C20.3694 8.48315 20.3019 8.48062 20.2343 8.47842C20.2521 8.54458 20.2628 8.61322 20.2651 8.6837C20.3196 8.68614 20.3752 8.6925 20.4321 8.70161C20.699 8.74422 20.8702 8.88124 21.0323 9.09594C21.1901 9.30491 21.3159 9.55625 21.4093 9.80069C21.4666 9.95036 21.3902 10.1158 21.2646 10.2122C20.9384 10.2399 20.618 10.3102 20.3178 10.4494C20.3073 10.4543 20.2996 10.4629 20.2946 10.4731C20.0549 10.5446 19.8134 10.6101 19.5721 10.6657C19.3392 10.7194 19.1039 10.7417 18.8697 10.6825C18.769 10.657 18.6705 10.6193 18.5736 10.5771C18.5216 10.5834 18.4653 10.5734 18.4079 10.5405C18.3212 10.4907 18.2339 10.4362 18.1479 10.3776C17.996 10.3046 17.8467 10.2261 17.704 10.1365L17.7032 10.1354C17.5894 9.99701 17.4271 9.85605 17.2454 9.74931C17.2253 9.71853 17.2075 9.68616 17.1934 9.65156C17.1152 9.4609 17.1479 9.2303 17.3128 9.09917C17.3152 9.05392 17.3348 9.00962 17.3784 8.97408C17.4129 8.94593 17.4484 8.91919 17.4848 8.8937C17.4772 8.88804 17.4695 8.88256 17.4619 8.87676C17.4469 8.8654 17.4325 8.85316 17.4185 8.84054C17.3084 8.90103 17.1973 8.96024 17.0837 9.01297C17.0808 9.01507 17.0781 9.01729 17.0751 9.01926C16.8615 9.15982 16.6593 9.32126 16.4431 9.45671C16.3913 9.48912 16.3397 9.52055 16.2885 9.55208C16.2693 9.57835 16.2505 9.605 16.2324 9.63215C16.2247 9.67391 16.2129 9.71562 16.1983 9.75623C16.2266 9.77881 16.2496 9.80855 16.2652 9.84381C16.3325 9.86945 16.3957 9.90198 16.4547 9.94078L16.507 9.96404C16.5743 9.91 16.6453 9.86116 16.7216 9.82054C16.9612 9.83614 17.2202 10.0063 17.4022 10.1798C17.4149 10.1942 17.4274 10.2087 17.4393 10.2235C17.4508 10.2328 17.4624 10.2427 17.474 10.2525C17.4929 10.2728 17.5104 10.2929 17.5266 10.3125C17.5446 10.3345 17.5651 10.3466 17.5858 10.3517C17.6973 10.4566 17.8018 10.5747 17.8732 10.6974C17.988 10.8945 17.9076 11.14 17.8236 11.3333C17.8098 11.3649 17.7954 11.396 17.7802 11.4267C17.6196 11.6436 17.4673 11.8665 17.3152 12.0896C17.2126 12.1889 17.1108 12.2889 17.0134 12.3929C16.9974 12.4036 16.9807 12.4138 16.9622 12.4233C16.6788 12.5696 16.4046 12.405 16.1345 12.3024L16.1043 12.2912C15.826 12.1903 15.4795 12.124 15.462 11.7607C15.4596 11.7112 15.4615 11.6605 15.4664 11.6092C15.5349 11.4272 15.6134 11.2485 15.701 11.0744C15.6833 11.0553 15.6675 11.0341 15.6541 11.0104C15.6259 10.9746 15.6024 10.936 15.5844 10.8952C15.4551 11.1434 15.332 11.4096 15.1658 11.6273C15.0743 11.7473 14.9602 11.7905 14.8392 11.7903C14.7881 11.8161 14.7309 11.8248 14.6759 11.8183L14.6817 11.8847C14.6868 11.9401 14.6926 11.9954 14.7012 12.0497C14.8182 12.0478 14.9405 12.08 15.0495 12.1232C15.3695 12.25 15.6779 12.4257 15.9866 12.578C16.1357 12.6515 16.3405 12.7131 16.4623 12.8279C16.5556 12.916 16.5449 13.0251 16.5095 13.1386C16.5034 13.1579 16.4968 13.1771 16.4905 13.1964L16.4901 13.2027C16.3905 13.3284 16.3223 13.4784 16.2729 13.6332C16.192 13.771 16.1357 13.9256 16.0972 14.0771C16.0661 14.2002 16.044 14.3259 16.0296 14.4527L16.0258 14.4873L16.0238 14.4914L16.0227 14.5213C16.0022 14.7445 16.0047 14.9706 16.0232 15.1921C16.0284 15.2538 16.0348 15.3155 16.0429 15.377C16.0081 15.4861 15.8429 15.5013 15.7573 15.4344C15.663 15.3607 15.564 15.2937 15.4612 15.2333C15.3211 15.2973 15.1591 15.3082 15.0025 15.2558C14.9913 15.2521 14.9807 15.2476 14.97 15.2433C14.8526 15.2579 14.7365 15.2853 14.6253 15.3178L14.5919 15.3277C14.4145 15.3812 14.2455 15.4481 14.1119 15.584C13.8746 15.8255 13.7982 16.2157 13.8466 16.5424C13.8937 16.8602 14.0777 17.2235 14.4091 17.3159C14.5448 17.3537 14.691 17.3526 14.8229 17.2997C14.873 17.2797 14.9159 17.2506 14.9582 17.2187C15.0101 17.1795 15.0511 17.1354 15.1127 17.1106C15.169 17.0879 15.2661 17.0897 15.2936 17.0884C15.3793 17.0842 15.4519 17.1515 15.4771 17.2285C15.5541 17.4633 15.4385 17.6358 15.2528 17.7513C15.3309 17.8698 15.4042 17.9937 15.4815 18.1057C15.626 18.3149 15.7785 18.5172 15.9367 18.7162C16.099 18.9206 16.272 19.1151 16.4606 19.2955C16.5458 19.3769 16.6336 19.4556 16.7239 19.5312L16.7737 19.5726C16.858 19.6432 16.9318 19.715 16.9288 19.8382C16.9273 19.9072 16.8816 19.9712 16.8139 19.9896C16.5745 20.0546 16.3235 19.7399 16.1676 19.5785L16.1553 19.5659C15.9666 19.3745 15.791 19.1688 15.6322 18.9517C15.4686 18.7279 15.3346 18.4807 15.2266 18.2258C15.1764 18.1073 15.1219 17.9719 15.0833 17.8348C14.8753 17.9157 14.6337 17.9446 14.4683 17.9256C14.3157 17.9081 14.1764 17.8641 14.0505 17.8C14.0248 17.8578 13.9902 17.9116 13.9481 17.9563C13.7922 18.1222 13.5653 18.1695 13.3455 18.1675C13.0641 18.1649 12.8115 17.987 12.8013 17.6868C12.7946 17.4922 12.8952 17.3251 13.042 17.2113C13.0964 17.0766 13.1998 16.9656 13.3495 16.9296C13.2504 16.6224 13.233 16.284 13.3074 15.9739C13.3812 15.667 13.5494 15.3762 13.7982 15.1846L13.8124 15.1739L13.8064 15.1771C13.7476 15.2095 13.6903 15.2446 13.6321 15.2781L13.606 15.2931C13.3477 15.4393 13.0486 15.5649 12.7478 15.4867C12.2705 15.3626 12.2292 14.7657 12.6399 14.5302C12.7818 14.4488 12.9458 14.4181 13.1077 14.3977C13.1333 14.3643 13.1637 14.3344 13.1973 14.3102C13.2023 14.2005 13.2573 14.0909 13.3547 14.022C13.4539 13.9517 13.5654 13.9448 13.6692 13.977C13.7079 13.9479 13.7499 13.9224 13.796 13.9025C13.836 13.8852 13.8766 13.8726 13.9173 13.8639C13.9166 13.8311 13.9163 13.7984 13.9158 13.7656C13.9092 13.7351 13.9053 13.7031 13.9012 13.6698C13.8939 13.6685 13.8864 13.6673 13.8792 13.6658C13.7735 13.6426 13.6779 13.595 13.5947 13.5309C13.4617 13.6152 13.3002 13.6471 13.1083 13.5901C12.93 13.5371 12.762 13.3709 12.679 13.1799C12.5651 13.1569 12.4546 13.1236 12.3578 13.0603C12.1786 13.103 11.9854 13.0339 11.9128 12.848C11.8589 12.7101 11.9237 12.5434 12.0392 12.4579C12.0728 12.433 12.1092 12.4377 12.1381 12.4569C12.145 12.4345 12.153 12.4124 12.1629 12.3907C12.1668 12.382 12.1711 12.3734 12.1755 12.365C12.1712 12.1823 12.2373 12.0057 12.4027 11.9077C12.5255 11.8349 12.6719 11.827 12.8039 11.869C12.8764 11.8013 12.9682 11.7496 13.0822 11.7212C13.2828 11.6712 13.4939 11.7282 13.6366 11.879C13.6675 11.8699 13.6995 11.8634 13.7322 11.8593C13.7441 11.7752 13.7726 11.6943 13.8322 11.6312C13.8749 11.5859 13.9261 11.5498 13.9815 11.5245C14.0068 11.4292 14.0482 11.3439 14.1176 11.2725C14.0837 11.2438 14.0529 11.2115 14.0266 11.1756C13.9974 11.1707 13.9685 11.1644 13.9402 11.1553C13.7894 11.1067 13.6854 11.0114 13.6148 10.8926C13.4842 10.9262 13.3458 10.9139 13.2099 10.8284C13.1116 10.7665 13.0375 10.6677 12.9983 10.5572L12.8867 10.518C12.7815 10.4806 12.7059 10.4109 12.6628 10.328C12.608 10.3478 12.5476 10.347 12.4984 10.309C12.2102 10.0859 12.407 9.71631 12.7156 9.64292C12.8411 9.61308 12.9507 9.63008 13.0482 9.67557C13.1175 9.6086 13.2045 9.55831 13.304 9.53564C13.4201 9.50922 13.5425 9.5286 13.6496 9.57995L13.6773 9.57957C13.7851 9.49926 13.9236 9.46328 14.0928 9.50208C14.2843 9.54601 14.4149 9.6535 14.5034 9.79349C14.5319 9.76772 14.5639 9.74502 14.5988 9.72595C14.6979 9.67191 14.8037 9.65857 14.9051 9.67548C14.9392 9.62676 14.9742 9.5787 15.0102 9.53148C14.9246 9.46444 14.8661 9.36046 14.863 9.24508C14.8371 9.22892 14.8121 9.21054 14.7881 9.19363C14.6709 9.11088 14.5715 9.00711 14.5263 8.86762C14.5038 8.79805 14.4956 8.72553 14.4982 8.65283C14.4856 8.65007 14.473 8.64713 14.4605 8.64356C13.9624 8.4999 13.7559 7.81159 14.1496 7.44218C14.3564 7.24818 14.6706 7.35805 14.8752 7.5013C15.0146 7.59899 15.1254 7.72044 15.2258 7.85464C15.2305 7.85561 15.2351 7.85593 15.2398 7.85708C15.384 7.89125 15.4987 7.98396 15.5834 8.1025C15.733 8.07645 15.8922 8.10541 16.0342 8.20952C16.1376 8.28542 16.2026 8.37935 16.2364 8.48143C16.3708 8.4111 16.5091 8.34945 16.6505 8.295C16.6598 8.27268 16.6695 8.25032 16.6807 8.22812C16.7025 8.18501 16.7309 8.14753 16.7639 8.11584C16.728 8.07551 16.6961 8.03045 16.6705 7.98033C16.5487 7.74255 16.5927 7.50189 16.7272 7.31982C16.6684 7.18706 16.6503 7.03651 16.6851 6.8933C16.6916 6.86671 16.6998 6.84116 16.7093 6.81658C16.6277 6.68905 16.5754 6.54227 16.5618 6.38988ZM14.3775 16.0084C14.4638 15.9873 14.4842 15.9597 14.5813 15.9676C14.6565 15.9738 14.7333 15.9867 14.8062 16.0056C14.9802 16.0508 15.1425 16.142 15.2854 16.2494C15.4881 16.4018 15.2455 16.685 15.084 16.5225L15.0791 16.5174C14.9706 16.4008 14.8488 16.3098 14.7125 16.2285C14.6434 16.1874 14.572 16.1577 14.4998 16.1231C14.4498 16.0992 14.421 16.0601 14.374 16.0352C14.3629 16.0293 14.3655 16.0113 14.3775 16.0084ZM14.8423 13.7133C14.7946 13.6965 14.7398 13.7325 14.7271 13.7789C14.7134 13.829 14.7424 13.8742 14.7875 13.8925L14.7925 13.8945C14.8536 13.9161 14.9095 13.952 14.957 13.996L14.967 14.0056C15.0536 14.0899 15.1862 13.9572 15.0996 13.8727C15.026 13.8011 14.9389 13.7475 14.8423 13.7133ZM17.0841 10.2937C17.0348 10.1856 16.8774 10.2764 16.9202 10.3835L16.9223 10.3886C16.9667 10.486 16.9485 10.599 16.9001 10.6907L16.8953 10.6995C16.8364 10.8052 16.9982 10.9 17.0572 10.7944C17.1445 10.6375 17.159 10.458 17.0841 10.2937ZM18.445 8.94733L18.4428 8.93651C18.4207 8.8178 18.24 8.86806 18.2621 8.98642C18.2989 9.18321 18.4415 9.31249 18.6244 9.37668C18.7385 9.41669 18.7875 9.23528 18.6742 9.19551C18.553 9.15298 18.472 9.0724 18.445 8.94733ZM21.3981 8.75725L21.3662 8.75587L21.3905 8.78793C21.3928 8.77763 21.3953 8.76739 21.3981 8.75725Z" fill="black"/>
<path fill-rule="evenodd" clip-rule="evenodd" d="M21.2085 19.0034C20.9981 18.9175 20.8103 18.7743 20.6731 18.5913C20.6254 18.5277 20.613 18.4606 20.623 18.3991C20.6343 18.33 20.6751 18.2674 20.7308 18.2254C20.7867 18.1833 20.8566 18.1625 20.9242 18.1731C20.9829 18.1823 21.0414 18.2145 21.0876 18.2812L21.0973 18.2946C21.1789 18.405 21.2852 18.4956 21.4064 18.554C21.5232 18.6103 21.6538 18.6366 21.7889 18.6213C22.0463 18.5922 22.2237 18.4529 22.4123 18.2638C22.4357 18.24 22.459 18.2153 22.4825 18.1903C22.4974 18.1676 22.518 18.153 22.5408 18.1454C22.5662 18.1369 22.595 18.1374 22.6213 18.1466C22.6466 18.1554 22.6693 18.1722 22.6845 18.1946C22.699 18.2158 22.7072 18.242 22.7045 18.2722C22.6873 18.4682 22.5849 18.6431 22.4394 18.7804C22.2778 18.933 22.0636 19.0385 21.862 19.0755C21.6398 19.1163 21.4134 19.087 21.2085 19.0034ZM21.9668 15.98C22.2031 16.1237 22.5632 16.4588 22.309 16.8151C22.0097 17.1293 21.5788 16.7691 21.3664 16.6062C21.1695 16.4799 20.9483 16.8047 21.131 16.9521C22.6654 18.0885 23.2881 16.0176 22.0863 15.811C21.954 15.7883 21.9048 15.9355 21.9668 15.98ZM19.2171 14.658C19.2432 14.3338 19.7369 14.2601 19.786 14.581C19.83 14.8684 19.7782 15.1325 19.6488 15.3913C19.5251 15.6385 19.2143 15.5232 19.1908 15.298C19.1593 14.9963 19.2009 14.8597 19.2171 14.658ZM22.975 14.5145C23.0438 14.4243 23.1432 14.3627 23.2622 14.3975C23.6342 14.5063 23.5246 15.0346 23.3939 15.2917C23.323 15.4314 23.0935 15.4668 22.9898 15.3438C22.8208 15.1433 22.7399 14.7429 22.9547 14.5454C22.9605 14.5352 22.967 14.5249 22.975 14.5145ZM19.6435 13.2391L19.7023 13.2288C19.8841 13.1974 20.1101 13.1672 20.2387 13.3134C20.3069 13.3909 20.3304 13.535 20.2387 13.6092C20.0774 13.7398 19.8992 13.6892 19.7059 13.7002C19.5467 13.7094 19.3936 13.7357 19.2402 13.7796C18.9037 13.8758 18.6295 14.0515 18.3421 14.2443C18.3044 14.2696 18.2659 14.2214 18.2839 14.1861C18.4498 13.861 18.7713 13.5939 19.0934 13.4312C19.2653 13.3443 19.4534 13.2722 19.6435 13.2391ZM22.6359 13.0935L22.6809 13.1027C23.1703 13.2051 23.8062 13.4095 24.0379 13.8904C24.0468 13.9584 24.0374 13.973 24.0298 13.9825L24.0273 13.9857C24.0211 13.9938 24.0161 14.005 23.9866 14.0143C23.9784 14.0123 23.9702 14.0103 23.9618 14.0081C23.8556 13.9802 23.7715 13.9419 23.6902 13.902L23.6019 13.8586C23.4996 13.8083 23.3963 13.76 23.2869 13.7242C23.0533 13.648 22.8131 13.5943 22.5691 13.5657C22.5162 13.5595 22.4653 13.5416 22.4252 13.511C22.387 13.482 22.3579 13.4418 22.3446 13.3883C22.3274 13.3192 22.3324 13.2668 22.3695 13.2044C22.3973 13.1575 22.4373 13.1251 22.4831 13.1064C22.5298 13.0874 22.583 13.0829 22.6359 13.0935Z" fill="black"/>
<path fill-rule="evenodd" clip-rule="evenodd" d="M24.7071 17.243C24.6654 17.1183 24.4507 17.1292 24.4639 17.276C24.479 17.4436 24.4217 17.6306 24.2611 17.712C24.093 17.7973 23.9038 17.7206 23.8012 17.5744C23.7121 17.4473 23.6506 17.3091 23.5384 17.1982C23.434 17.0952 23.3071 17.0157 23.1683 16.9685C23.0602 16.9318 22.9481 16.922 22.8393 16.934C22.5683 16.8728 22.2542 17.0121 22.0853 17.2235C22.0744 17.2372 22.0643 17.2512 22.0545 17.2653C22.0378 17.2425 22.0203 17.2199 22.0017 17.1976C21.9538 17.1403 21.8944 17.128 21.8408 17.1436C21.5353 16.9163 21.1071 16.8862 20.7602 17.0913C20.4822 17.2557 20.2522 17.4979 19.9104 17.5167C19.6396 17.5317 19.3447 17.3771 19.3256 17.0794C19.3156 16.924 19.1039 16.7945 18.9851 16.9384C18.7354 17.2409 18.6854 17.6429 18.8236 18.0088C18.9694 18.3948 19.2664 18.6667 19.6425 18.8267C20.0486 18.9994 20.5245 19.0594 20.9639 19.0458C21.4019 19.0321 21.8001 18.8636 22.0641 18.5052C22.0957 18.4624 22.1234 18.419 22.1476 18.375C22.404 18.7015 22.8058 18.8388 23.2151 18.8486C23.6432 18.8589 24.1494 18.7837 24.4521 18.4511C24.7439 18.1304 24.8445 17.6536 24.7071 17.243Z" fill="black"/>
</svg>
