<svg width="36" height="48" viewBox="0 0 36 48" fill="none" xmlns="http://www.w3.org/2000/svg">
<path fill-rule="evenodd" clip-rule="evenodd" d="M8.17774 42.3066C8.55243 42.3297 8.92709 42.348 9.30172 42.362C14.201 42.5446 19.0962 41.9859 23.9924 41.8636C25.6975 41.8187 27.3938 41.8412 29.0945 41.9781C29.2612 41.9915 29.4517 41.8122 29.4312 41.6413C29.117 38.928 28.7239 36.222 28.5202 33.4976C28.5201 33.3535 28.5387 33.2097 28.5882 33.0739C28.5975 33.0632 28.6459 32.9439 28.6889 32.9365C28.6749 32.9469 28.7386 32.9286 28.698 32.9317C28.9439 32.8915 29.185 32.6259 29.0066 32.3719C27.1684 29.5533 24.659 26.9808 23.8517 23.6331C23.6609 22.728 22.972 22.672 22.238 22.2987C22.009 22.1624 21.4491 21.785 21.3579 21.5226C21.1402 20.5769 21.5236 19.6505 20.4036 19.2678C19.6643 19.0627 18.3575 18.8892 17.6094 19.1055C16.6969 19.4093 16.7652 20.438 16.2359 21.1457C15.9622 21.5551 15.4955 22.1156 15.0646 22.1783C14.8557 22.2087 14.7019 21.7861 14.4933 21.8151C11.2428 22.6049 6.81421 27.9925 5.41715 30.9749C5.10231 31.9135 6.11767 31.6303 6.05529 32.5737C5.97839 34.3635 5.8102 36.6547 5.90995 38.4466C6.00338 39.4867 5.93424 40.5764 6.2574 41.5773C6.17042 41.683 6.2954 41.7897 6.39737 41.8356C6.52585 42.0542 7.79008 42.2763 8.17774 42.3066Z" fill="#D08B5B"/>
<path d="M14.4933 21.8154C14.6878 21.7883 14.7005 22.3603 14.8888 22.3851C15.7629 23.6126 17.1174 24.0201 18.6839 24.0201C20.3468 24.0201 21.6953 23.5198 22.7291 22.5192L22.8239 22.5592C23.3132 22.7673 23.7134 22.9771 23.8517 23.6333C24.659 26.981 27.1684 29.5536 29.0066 32.3721C29.185 32.6262 28.9439 32.8917 28.698 32.932C28.7386 32.9288 28.6749 32.9471 28.6889 32.9367C28.6459 32.9441 28.5975 33.0635 28.5882 33.0741C28.5642 33.1398 28.5475 33.2074 28.5366 33.276C28.5366 33.276 26.4773 33.7125 25.9237 33.7245C20.3645 33.8448 10.1981 33.673 10.1981 33.673L5.94002 32.0617C5.69649 31.6959 5.18025 31.6814 5.41715 30.9751C6.81421 27.9927 11.2428 22.6051 14.4933 21.8154Z" fill="#E86BBB"/>
<path fill-rule="evenodd" clip-rule="evenodd" d="M16.641 20.0183C16.7255 19.6379 17.3306 19.8011 17.227 20.1799C17.0664 20.7658 16.7334 21.3193 16.2633 21.7079C15.9002 22.0079 15.4054 22.2756 14.9146 22.325C14.9606 22.3698 15.0047 22.4177 15.0511 22.4634C15.1556 22.5674 15.2667 22.6638 15.3813 22.7565C15.6167 22.9469 15.8614 23.1181 16.1287 23.2615C17.1963 23.8346 18.4023 23.9667 19.5947 23.8333C20.1606 23.77 20.7349 23.6627 21.267 23.4557C21.5137 23.3599 21.7534 23.234 21.965 23.075L22.0204 23.0334C22.1316 22.9493 22.2801 22.8307 22.3496 22.7011C22.1381 22.7487 21.8705 22.5232 21.7237 22.3921C21.5631 22.248 21.4279 22.0623 21.328 21.872C21.1324 21.4984 21.0288 21.0166 21.1929 20.6161C21.2038 20.5894 21.2388 20.5939 21.242 20.6227C21.2905 21.0895 21.4163 21.5272 21.7512 21.8729C21.8999 22.026 22.078 22.1544 22.2723 22.2436L22.2997 22.2562C22.3825 22.2945 22.4697 22.3395 22.5046 22.4215C22.5181 22.4199 22.5315 22.4211 22.5443 22.4246C22.5559 22.4277 22.5665 22.4312 22.5769 22.435C22.5537 22.3896 22.5415 22.336 22.5437 22.2727C22.5519 22.0276 22.8883 22.0201 22.9349 22.2383C22.9265 22.2095 22.9152 22.2374 22.9365 22.2462C22.9362 22.2436 22.9356 22.2408 22.9349 22.2383L22.9356 22.2406L22.9368 22.2461L22.9365 22.2462C22.9374 22.2501 22.938 22.2542 22.9385 22.2584L22.9389 22.2638L22.9387 22.2592C22.9384 22.2559 22.938 22.2528 22.9375 22.2501L22.9368 22.2462C22.9399 22.2477 22.9443 22.2487 22.9493 22.2487L22.9514 22.2495C22.9592 22.2529 22.9869 22.2658 22.9951 22.269C23.0511 22.2897 23.1137 22.2962 23.1709 22.3141C23.2952 22.3523 23.4048 22.4155 23.4805 22.5232C23.535 22.6006 23.5653 22.6892 23.5778 22.7812C24.1277 23.0458 24.6482 23.3896 25.0843 23.8152C26.0573 24.7645 26.7359 25.9527 27.2927 27.1827C27.5761 27.8088 27.8286 28.4482 28.0756 29.0894L28.1146 29.1907C28.3794 29.8798 28.6135 30.5765 28.6711 31.3173C28.6764 31.3837 28.6545 31.446 28.6166 31.4977C28.6301 31.5534 28.637 31.6091 28.6351 31.6636C28.6348 31.6721 28.6342 31.6805 28.6335 31.689C28.7224 31.6874 28.8094 31.7247 28.8921 31.8292C28.9255 31.8186 28.9619 31.8173 28.9975 31.8289C29.2151 31.8984 29.2501 32.1373 29.2911 32.3374C29.3334 32.5441 29.3518 32.7557 29.3521 32.9664C29.3521 33.0419 29.309 33.1371 29.2357 33.1694C29.098 33.2301 28.9497 33.2699 28.8072 33.325C28.7002 33.3663 28.5928 33.4054 28.4845 33.4421C28.5446 33.5469 28.564 33.6929 28.5966 33.8034C28.6476 33.9759 28.6886 34.1491 28.7231 34.3257C28.9565 35.5265 29.1183 36.7401 29.3368 37.9434C29.446 38.5461 29.5732 39.1448 29.7027 39.7434C29.7665 40.0378 29.8345 40.3314 29.9074 40.6239C29.9462 40.7798 29.9866 40.9358 30.0282 41.0907C30.0403 41.136 30.0525 41.1812 30.0649 41.2263L30.0867 41.3052C30.1343 41.3316 30.175 41.3713 30.2032 41.4258C30.3062 41.6249 30.247 41.8494 30.0495 41.9615C29.8348 42.0836 29.5785 41.9684 29.4601 41.7702C29.3769 41.6303 29.3496 41.4449 29.3086 41.2892C29.2623 41.1146 29.2182 40.9389 29.1756 40.7633C28.8865 39.5699 28.6928 38.3556 28.5468 37.1368L28.5365 37.0498C28.4623 36.4223 28.3906 35.7932 28.3443 35.1629C28.3215 34.8533 28.3033 34.5436 28.2921 34.2333C28.2864 34.0736 28.2955 33.913 28.3046 33.7536C28.3086 33.6838 28.3146 33.6136 28.3168 33.5438L28.3175 33.5339C28.3181 33.5268 28.3189 33.5175 28.3195 33.5078L28.3202 33.4959C28.1043 33.5636 27.8852 33.6199 27.6639 33.6675C27.1931 33.7692 26.7115 33.826 26.231 33.7971C26.298 34.5931 26.3853 35.3871 26.5074 36.1758C26.6251 36.9355 26.7609 37.6935 26.9143 38.4469C26.991 38.8254 27.0739 39.203 27.1612 39.5794C27.2082 39.7804 27.2617 39.9801 27.304 40.1821C27.329 40.3023 27.3368 40.4028 27.2864 40.5153C27.3419 40.6664 27.3912 40.8183 27.4397 40.9614L27.4542 41.004C27.5399 41.2545 27.7027 41.5106 27.5327 41.7568C27.4448 41.8839 27.3015 41.9565 27.1572 41.9609C27.1547 41.9624 27.1518 41.9643 27.149 41.9659C27.0714 42.0075 26.9819 42.0157 26.8967 41.9979C26.7675 42.0232 26.6379 42.0476 26.508 42.0699C26.1872 42.1253 25.8648 42.171 25.5418 42.2095C24.9268 42.2828 24.3077 42.3229 23.689 42.3451C21.4235 42.4268 19.1556 42.2834 16.8893 42.3247C15.7346 42.3457 14.58 42.3977 13.4273 42.4666C12.852 42.501 12.2764 42.538 11.7008 42.5665L11.5227 42.5751C11.0079 42.5998 10.4928 42.6188 9.97844 42.5812C9.96842 42.5805 9.9606 42.5765 9.95528 42.5708C9.77781 42.5508 9.59944 42.3873 9.61725 42.1986C9.69393 41.3945 9.77062 40.5904 9.84761 39.786C9.98439 38.3529 10.1224 36.9198 10.262 35.487L10.2822 35.2801C10.3291 34.7973 10.3739 34.3134 10.3966 33.8287C10.282 33.8206 10.1678 33.8103 10.0536 33.7977C8.81551 33.6622 7.62866 33.2876 6.48909 32.7955L6.44292 32.7755C6.34026 32.7307 6.22789 32.6859 6.11271 32.638C6.11462 32.8568 6.10739 33.076 6.10645 33.2927C6.10489 33.6525 6.1077 34.0123 6.10864 34.3717C6.11083 35.1125 6.139 35.8536 6.17594 36.5932C6.24072 37.8995 6.31678 39.2039 6.43196 40.5071C6.46107 40.8349 6.50054 41.1621 6.52836 41.49C6.54498 41.6831 6.5052 41.8441 6.32839 41.9456C6.24135 41.9957 6.17406 41.9747 6.08767 41.9343C5.87672 41.8353 5.87077 41.6015 5.85074 41.3979C5.83543 41.2445 5.82132 41.0911 5.80755 40.9373C5.77816 40.6095 5.75277 40.2817 5.73212 39.9532C5.65046 38.6482 5.62664 37.3444 5.68298 36.0378C5.70913 35.4266 5.7469 34.8141 5.79701 34.204L5.8088 34.0633C5.85011 33.5757 5.87672 33.0642 5.96216 32.5735C5.61756 32.4207 5.27609 32.2263 5.11772 31.9031C4.91243 31.4835 5.13806 31.1247 5.4595 30.8777C5.45637 30.836 5.4595 30.7947 5.46827 30.7571C5.5606 30.3573 5.71522 29.9621 5.86451 29.5808C6.01506 29.1975 6.18126 28.8202 6.36404 28.4511C7.09769 26.9722 8.09988 25.6209 9.29456 24.4824C9.88799 23.9169 10.5374 23.3943 11.2307 22.9559C11.5744 22.739 11.9268 22.5386 12.2917 22.3601L12.3457 22.3338C12.5998 22.2105 12.8847 22.0794 13.1672 22.0107C13.1966 21.9888 13.2263 21.9681 13.2564 21.9484C13.3675 21.8745 13.5183 21.928 13.5841 22.0335C13.616 22.0088 13.6529 21.9869 13.6952 21.9671L13.7369 21.9481C13.9904 21.8339 14.2948 21.7271 14.57 21.8022C14.7409 21.8488 14.8755 21.9747 14.9359 22.135C15.0745 22.0617 15.2107 21.9863 15.3437 21.8939C15.5575 21.7461 15.7512 21.5626 15.9252 21.37C16.2742 20.9827 16.5277 20.529 16.641 20.0183ZM28.7503 32.2297C28.7265 32.2366 28.7014 32.2391 28.6755 32.2359C28.7224 32.2415 28.6284 32.2692 28.6026 32.2825L28.6007 32.2836C28.5537 32.3105 28.5065 32.3365 28.4586 32.3615C28.3468 32.4204 28.2326 32.4733 28.1165 32.5231C27.8877 32.6205 27.6514 32.6953 27.4088 32.7501C27.1716 32.8036 26.9227 32.8349 26.6795 32.8399C26.5168 32.8431 26.3237 32.8356 26.1553 32.7876C26.1747 33.0829 26.1963 33.3779 26.2204 33.6725L26.5529 33.5962C26.8855 33.5199 27.2177 33.4417 27.5459 33.3465C27.7922 33.2752 28.0351 33.1916 28.2752 33.1014C28.401 33.0541 28.5259 33.004 28.6492 32.9502C28.7105 32.9234 28.7681 32.8915 28.8249 32.8592L28.8736 32.8315C28.8623 32.6997 28.8417 32.5704 28.8116 32.4401C28.796 32.3712 28.7694 32.3005 28.7503 32.2297ZM5.97781 30.8392C5.93556 30.9763 5.87077 31.1044 5.72304 31.1354C5.67077 31.1463 5.62698 31.1404 5.59065 31.1226L5.58193 31.1401C5.46047 31.3895 5.4248 31.6528 5.70426 31.8449C5.83043 31.9316 5.9678 32.0068 6.10989 32.0741C6.364 32.195 6.63462 32.2923 6.88976 32.3912L6.94057 32.411C7.39691 32.5901 7.86044 32.7532 8.33118 32.8897C8.80883 33.0278 9.29487 33.1386 9.78692 33.2091C9.9944 33.2386 10.2035 33.2592 10.4129 33.2727C10.4163 32.9909 10.4147 32.7088 10.4138 32.427C10.3393 32.4175 10.2655 32.4076 10.1941 32.3991C9.97687 32.3737 9.76029 32.3427 9.54495 32.3042C9.09518 32.2238 8.65011 32.1126 8.216 31.9705C7.41162 31.7065 6.66326 31.3292 5.97781 30.8392ZM14.7969 22.2073C14.6141 22.0138 14.2645 22.0836 14.0439 22.1776C13.9772 22.2061 13.9099 22.2349 13.846 22.2696L13.8337 22.2766C13.7593 22.3194 13.7597 22.3449 13.796 22.4302C13.8432 22.5427 13.909 22.6513 13.9716 22.7556C14.2395 23.203 14.5922 23.5925 14.995 23.9216C16.4216 25.0864 18.4711 25.4972 20.2551 25.1071C21.1113 24.92 21.9372 24.5425 22.5675 23.9232L22.6249 23.8661C22.8791 23.6117 23.2279 23.2435 23.2035 22.8664C23.1919 22.6851 23.0439 22.6748 22.8927 22.6397C22.8307 22.6253 22.7716 22.6049 22.7202 22.5762C22.7615 22.7543 22.5415 23.0192 22.4279 23.1304C22.1897 23.3636 21.903 23.5458 21.5998 23.6821C21.0226 23.9416 20.3947 24.0644 19.7697 24.142C19.0604 24.2303 18.3359 24.2225 17.632 24.0919C17.0194 23.9783 16.4157 23.7632 15.8886 23.4281C15.647 23.2747 15.4088 23.0997 15.2072 22.8959L15.1644 22.8525C15.0189 22.705 14.8495 22.5268 14.7625 22.3332C14.7293 22.3335 14.6964 22.3325 14.6636 22.3303C14.6404 22.3291 14.6279 22.2962 14.6511 22.284C14.677 22.2702 14.703 22.2565 14.729 22.243C14.7246 22.2286 14.7208 22.2145 14.7177 22.2001C14.7152 22.1879 14.728 22.1766 14.7393 22.1835C14.755 22.1929 14.77 22.2029 14.7847 22.2136C14.7888 22.2117 14.7928 22.2095 14.7969 22.2073Z" fill="black"/>
<path fill-rule="evenodd" clip-rule="evenodd" d="M16.3126 7.63544C21.0466 7.40205 24.2586 11.1448 24.3967 12.6372C24.4927 13.6732 24.4276 15.0549 24.4276 15.9807C24.4276 16.4532 24.6654 17.8896 24.3967 18.5783C23.7987 20.1113 23.1231 21.312 21.2511 21.312C19.3791 21.312 16.5253 20.3393 15.5454 19.0848C15.3664 18.8557 13.1431 17.179 13.1431 15.861C13.1431 13.0491 12.9347 7.80197 16.3126 7.63544Z" fill="#D08B5B"/>
<path fill-rule="evenodd" clip-rule="evenodd" d="M13.0828 4.59862C13.3526 4.51408 13.5248 4.63579 13.6476 4.82435C13.6747 4.81905 13.7009 4.8194 13.7301 4.82644C13.7373 4.8282 13.7547 4.8348 13.7679 4.84C13.7782 4.84429 13.7874 4.84949 13.7962 4.855L13.8015 4.85221C13.8218 4.83008 13.843 4.80988 13.866 4.7936C13.9176 4.75703 13.9707 4.74638 14.0212 4.7539L14.0445 4.74529C14.2442 4.67552 14.4607 4.7079 14.5961 4.88036C14.6223 4.91368 14.6435 4.95078 14.6616 4.98992C14.7022 5.00326 14.7403 5.02255 14.7731 5.04628C14.7962 5.03541 14.8205 5.02627 14.8466 5.01954C14.994 4.98165 15.1487 5.01741 15.2688 5.10796C15.3273 5.15202 15.3703 5.20719 15.4029 5.27019C15.44 5.27892 15.4767 5.29464 15.5111 5.31574C15.5407 5.301 15.5707 5.28716 15.6014 5.27767C15.7139 5.24304 15.8346 5.2303 15.9516 5.23903C16.2039 5.25779 16.4478 5.54662 16.2792 5.79466L16.274 5.80216C16.2526 5.83206 16.234 5.86297 16.2168 5.89437C16.2771 5.92071 16.3353 5.95593 16.389 6.00008C16.6518 6.21598 16.6754 6.54881 16.6263 6.86278L16.6242 6.87585H16.6248C16.7644 6.88914 16.885 7.03532 16.8025 7.17282L16.7985 7.17926C16.6868 7.35219 16.5911 7.54322 16.4844 7.7252C16.1893 7.83188 15.9046 7.96326 15.6366 8.12244C15.4697 8.26904 15.3107 8.42403 15.1709 8.59646C15.1011 8.68257 15.037 8.77372 14.9781 8.86821C15.0252 8.89091 15.0835 8.88976 15.1327 8.84404C15.5705 8.43728 16.0995 8.15181 16.6628 7.9605C16.7034 7.94669 16.73 7.92071 16.7449 7.88996C16.9949 7.81854 17.2494 7.76315 17.5064 7.72395C17.5772 7.65628 17.6514 7.5916 17.722 7.52421C17.812 7.43823 17.9248 7.43949 18.009 7.4935C18.0509 7.47437 18.0937 7.45748 18.1372 7.44231L18.1641 7.4331C18.1754 7.4294 18.1861 7.42511 18.1972 7.42173C18.4987 7.32932 18.7745 7.36363 19.0711 7.43956L19.1091 7.44947C19.2473 7.48625 19.3344 7.48037 19.4683 7.44652L19.4833 7.44265C19.6256 7.40545 19.7778 7.3779 19.9232 7.41707C20.0753 7.45806 20.1763 7.54923 20.2799 7.65939L20.2903 7.67047C20.3387 7.72233 20.3666 7.72799 20.4299 7.72673L20.4977 7.72471C20.7537 7.71768 21.0043 7.7285 21.196 7.92694C21.2668 8.00032 21.3429 8.10419 21.3885 8.19898L21.3951 8.21312C21.3972 8.21772 21.3991 8.22158 21.4008 8.22502C21.4283 8.22057 21.4711 8.20313 21.4915 8.19916C21.7704 8.14493 22.0031 8.2285 22.1822 8.44883C22.2214 8.49705 22.2806 8.59174 22.3216 8.64378C22.336 8.65599 22.3495 8.66907 22.3624 8.68282C22.4296 8.72587 22.5249 8.72315 22.6003 8.73824C22.8058 8.77926 23.0254 8.8576 23.1299 9.05364C23.1735 9.13545 23.1897 9.22497 23.2081 9.3144C23.2772 9.35989 23.3313 9.42546 23.3734 9.49644C23.4245 9.58261 23.4462 9.68816 23.505 9.76954C23.5478 9.82865 23.6131 9.86021 23.6752 9.89635L23.6989 9.91032C23.883 10.0202 24.0272 10.1422 24.0878 10.3575L24.093 10.3767C24.1029 10.4096 24.1374 10.5038 24.1073 10.4896C24.1332 10.5039 24.1772 10.509 24.2008 10.5168C24.3285 10.5592 24.4395 10.6276 24.5075 10.7478C24.5593 10.8393 24.5687 10.9347 24.5835 11.0355L24.5898 11.0762C24.5915 11.0861 24.5934 11.0975 24.5954 11.1086L24.5974 11.1195L24.5977 11.1198C24.6209 11.1298 24.6436 11.1407 24.6659 11.1524C24.7718 11.2149 24.8441 11.3233 24.8441 11.4488C24.8441 11.5097 24.8252 11.5572 24.7975 11.5996C24.8199 11.6335 24.8372 11.6697 24.8503 11.71C24.8759 11.7887 24.8777 11.8747 24.8691 11.9561C24.8587 12.0538 24.8337 12.1428 24.8043 12.2361C24.7929 12.2721 24.7883 12.3224 24.7712 12.3568C24.8028 12.3971 24.8216 12.4463 24.8157 12.4949C24.8074 12.5644 24.7757 12.6457 24.7129 12.6847C24.6822 12.8365 24.6161 12.9917 24.5511 13.1159C24.5436 13.1303 24.5345 13.1431 24.5245 13.1537C24.5336 13.6494 24.4974 14.1485 24.4949 14.6435C24.4921 15.1824 24.5033 15.7216 24.522 16.2598C24.5536 17.1519 24.6663 18.0743 24.4037 18.9441C24.1888 19.6561 23.7584 20.2673 23.1812 20.7307C22.5903 21.2048 21.8779 21.4791 21.1214 21.522C20.7366 21.5436 20.3453 21.4997 19.973 21.3998L19.9332 21.389C19.573 21.2898 19.1558 21.1383 18.8908 20.8729C18.7508 20.7326 18.8923 20.4355 19.0975 20.5172C19.3008 20.5983 19.4833 20.7182 19.685 20.8027C19.8652 20.8782 20.0533 20.9361 20.2438 20.9787C20.6257 21.0648 21.0308 21.0836 21.4191 21.0301C22.8208 20.8378 23.913 19.6709 24.1285 18.2872C24.1882 17.904 24.187 17.5145 24.183 17.1274L24.1786 16.7031C24.1752 16.3482 24.1739 15.9931 24.1869 15.6383C24.2035 15.1818 24.2356 14.7256 24.2787 14.271L24.3012 14.0344C24.3278 13.7576 24.3579 13.4787 24.4096 13.2057C24.3672 13.2079 24.0328 12.6344 23.8472 12.314C23.7795 12.2601 23.7223 12.1932 23.7002 12.1066C23.6956 12.0886 23.6932 12.0703 23.6918 12.0521C23.6515 11.9886 23.609 11.9268 23.5642 11.8668L23.5544 11.8624C23.5468 11.859 23.541 11.8561 23.5375 11.8541C23.4397 11.7985 23.3579 11.7142 23.302 11.6165C23.2831 11.5836 23.2677 11.5492 23.2551 11.514C23.1753 11.4355 23.0918 11.3606 23.0041 11.2904C22.9955 11.2835 22.9866 11.2771 22.9779 11.2703C22.8663 11.2285 22.7683 11.1656 22.6968 11.0749C22.6669 11.0564 22.6369 11.0382 22.6065 11.0204C22.5155 11.0196 22.4236 10.9983 22.3341 10.9615C22.1705 10.8941 22.0397 10.7609 21.8753 10.6992C21.7015 10.634 21.5183 10.7822 21.3335 10.7555C21.2864 10.7487 21.2396 10.7343 21.1961 10.7134C21.0921 10.8239 20.9817 10.928 20.86 11.0192C20.6833 11.1515 20.5027 11.212 20.2979 11.2718C20.1964 11.3683 20.0828 11.4619 19.9457 11.4756C19.6286 11.7297 19.2895 11.9441 18.9326 12.1431C18.8752 12.1751 18.8181 12.1895 18.764 12.1899C18.652 12.2604 18.5299 12.3146 18.4008 12.3521C18.3603 12.3638 18.3186 12.3663 18.2776 12.3613L18.1656 12.4527C18.0877 12.5163 18.0045 12.5467 17.925 12.5487C17.8766 12.5859 17.8264 12.621 17.7748 12.6549C17.7195 12.6911 17.6477 12.7062 17.5756 12.7018C17.4655 12.8098 17.3228 12.8211 17.2032 12.7714C17.1868 12.781 17.1699 12.7902 17.1509 12.7991C17.1251 12.8114 17.0982 12.8217 17.0707 12.8301C16.946 12.9648 16.7635 13.0354 16.5807 13.0169C16.4441 13.1008 16.2852 13.1444 16.1298 13.1346C16.1061 13.254 16.0865 13.3738 16.0699 13.494L16.0682 13.582C16.068 13.5963 16.068 13.6074 16.0682 13.6147L16.0683 13.6176C16.0835 14.0037 16.0918 14.3899 16.1068 14.776L16.1082 14.8065C16.1253 15.1438 16.2081 15.7588 15.7135 15.7454C15.5292 15.7404 15.3463 15.6044 15.2028 15.4925L15.1826 15.4767C15.1716 15.4681 15.1603 15.4593 15.149 15.4504C15.0417 15.4364 14.936 15.4102 14.8277 15.4063C14.694 15.4016 14.5534 15.4153 14.4232 15.4457C14.1933 15.4993 13.971 15.6042 13.821 15.7942C13.8079 15.8108 13.7957 15.8283 13.7842 15.8459C13.7736 15.8819 13.7554 15.9151 13.7314 15.9439C13.5896 16.2636 13.6715 16.686 13.8282 16.9784C14.015 17.3267 14.3106 17.5675 14.6822 17.6888L14.7009 17.6948C14.9548 17.7743 15.0519 17.9284 15.19 18.1425C15.3193 18.3436 15.4676 18.5308 15.6269 18.7087C15.9352 19.0528 16.3678 19.3368 16.547 19.7723C16.5833 19.86 16.4796 19.9426 16.3993 19.9201C16.0848 19.8315 15.8643 19.607 15.6357 19.3838C15.4774 19.2291 15.3253 19.0683 15.1825 18.8994C15.1526 18.9133 15.1196 18.9226 15.0853 18.9268C14.9338 18.9453 14.7776 18.9376 14.645 18.8558C14.5838 18.8614 14.5202 18.8401 14.4729 18.7967C14.4295 18.7567 14.3921 18.7135 14.3605 18.6675C14.3124 18.6717 14.2653 18.673 14.2203 18.6655C14.1985 18.6635 14.1775 18.6578 14.1583 18.6484C14.1225 18.6342 14.0885 18.6123 14.0573 18.5788C13.9942 18.5109 13.97 18.4149 13.9816 18.3236C13.9691 18.321 13.9567 18.3178 13.9445 18.3136C13.8604 18.2851 13.7957 18.2284 13.7544 18.1513C13.6804 18.1097 13.6137 18.0533 13.5633 17.9934C13.5019 17.9205 13.4555 17.8383 13.4283 17.7475C13.4001 17.7344 13.3728 17.7192 13.3466 17.7014C13.1591 17.5742 13.0517 17.3353 13.1254 17.1145L13.1279 17.1076C13.1316 17.0976 13.1384 17.0807 13.1467 17.0616C13.1455 17.046 13.1442 17.0304 13.1434 17.0148L13.1408 16.9678L13.1032 16.9518C12.9158 16.8771 12.7891 16.7763 12.7666 16.5649C12.7619 16.5212 12.7789 16.4766 12.8056 16.4393L12.8054 16.4276C12.7933 16.4213 12.7817 16.4148 12.7715 16.4083C12.6693 16.3429 12.6065 16.2256 12.6135 16.1044C12.62 15.9939 12.6811 15.9058 12.7497 15.8243L12.7693 15.8015C12.771 15.7996 12.7728 15.7976 12.7747 15.7953L12.7293 15.781C12.6999 15.7716 12.6729 15.7623 12.6535 15.7514C12.5784 15.7092 12.5148 15.6522 12.4755 15.5797C12.4698 15.5707 12.464 15.5619 12.4588 15.5523C12.4081 15.4596 12.4014 15.3408 12.4341 15.2413C12.438 15.2295 12.443 15.2185 12.4481 15.2075C12.3101 15.1587 12.2038 15.0579 12.191 14.8721C12.186 14.799 12.2019 14.7262 12.2366 14.6639C12.2289 14.6219 12.2273 14.5784 12.2323 14.5353C12.1837 14.4893 12.146 14.4339 12.1291 14.3663C12.0973 14.2386 12.1556 14.1171 12.2424 14.0056C12.2103 13.9175 12.2086 13.8181 12.2453 13.7294C12.2312 13.6851 12.2232 13.6383 12.2227 13.5902C12.2218 13.4838 12.2545 13.3949 12.3073 13.3193C12.233 13.2283 12.1978 13.1074 12.2416 12.9941C12.2728 12.9136 12.3085 12.8399 12.3496 12.7716C12.328 12.7197 12.3155 12.6616 12.3155 12.5965C12.3155 12.4794 12.3592 12.3866 12.4262 12.3107C12.3972 12.172 12.4563 12.0031 12.5851 11.942C12.6337 11.919 12.6987 11.8949 12.7704 11.8762C12.7973 11.792 12.8254 11.7081 12.855 11.6248C12.9017 11.4937 12.9519 11.3644 13.0051 11.2367C12.9745 11.2635 12.9424 11.2886 12.9091 11.3114C12.804 11.4453 12.6647 11.5613 12.5476 11.6308C12.3155 11.7684 12.05 11.6868 11.9354 11.4565C11.8277 11.5371 11.6985 11.5848 11.5606 11.5685C11.4042 11.55 11.2613 11.4484 11.2222 11.2901C11.2166 11.2672 11.2132 11.2424 11.2128 11.2175C11.1232 11.2815 11.0293 11.3404 10.9264 11.3741C10.7953 11.4171 10.6615 11.314 10.6442 11.1856C10.6374 11.1348 10.6469 11.0898 10.6671 11.0518L10.6543 11.0468C10.6522 11.0459 10.6501 11.045 10.648 11.044C10.5792 11.0117 10.5258 10.9525 10.5005 10.8842C10.3516 10.942 10.1812 10.8743 10.134 10.7102C10.0778 10.5151 10.0744 10.3176 10.1184 10.1275C9.96065 10.0126 9.85789 9.81945 9.8404 9.61749C9.82763 9.47252 9.86214 9.3387 9.92295 9.21495C9.77378 9.15903 9.7225 8.96302 9.7934 8.82181C9.69923 8.76777 9.63783 8.6532 9.63645 8.54167C9.59438 8.47779 9.58092 8.39554 9.61581 8.30336C9.66182 8.1819 9.75551 8.0803 9.8628 8.00061C9.81601 7.91895 9.78125 7.8299 9.75967 7.73788C9.67078 7.7118 9.59904 7.63972 9.58442 7.53148C9.56612 7.39578 9.65522 7.28074 9.77516 7.25037C9.78846 7.20904 9.80471 7.16861 9.82479 7.12979C9.76545 6.98889 9.77419 6.81073 9.85071 6.65668C9.91849 6.52047 10.0287 6.43718 10.1615 6.37957C10.1277 6.26372 10.1724 6.14818 10.2848 6.06208C10.4221 5.95684 10.5727 5.8764 10.7309 5.81957C10.7168 5.63098 10.7954 5.43786 10.9813 5.3721C11.031 5.35454 11.0827 5.34806 11.1353 5.34828C11.1735 5.26508 11.2371 5.19745 11.3202 5.13758C11.446 5.04703 11.681 5.10235 11.7508 5.24435L11.7542 5.25165C11.7578 5.2597 11.7616 5.26705 11.7653 5.27485C11.7793 5.2059 11.8122 5.14078 11.865 5.08739C11.997 4.95391 12.1364 4.95141 12.2705 5.00849C12.2952 4.94731 12.3249 4.88913 12.3612 4.83593C12.4927 4.64293 12.71 4.61835 12.8691 4.72287C12.9329 4.66666 13.004 4.62333 13.0828 4.59862ZM14.0231 16.2047C14.288 16.1007 14.6093 16.1315 14.8711 16.2313L14.8903 16.2388C15.1214 16.3304 15.497 16.5342 15.5423 16.7949C15.5657 16.9299 15.4377 17.0467 15.3077 16.9756C15.1946 16.9139 15.1312 16.7896 15.0413 16.6994C14.9523 16.6102 14.8526 16.5385 14.744 16.4755C14.5172 16.3443 14.2789 16.2933 14.0231 16.2555C13.9944 16.2514 14.0022 16.2128 14.0231 16.2047Z" fill="black"/>
<path fill-rule="evenodd" clip-rule="evenodd" d="M22.3086 18.1238C22.3303 18.1179 22.3495 18.1471 22.3315 18.163C22.2578 18.2285 22.211 18.3503 22.1572 18.4334C22.1061 18.5124 22.0568 18.5906 22.0118 18.6734C21.9614 18.7661 21.9127 18.8584 21.8734 18.9565L21.8657 18.9763C21.8774 19.0043 21.8866 19.0319 21.8934 19.05L21.8953 19.0552C21.9624 19.2264 21.8217 19.4168 21.663 19.4647C21.3915 19.5465 21.1585 19.3235 21.1521 19.0583C21.147 18.8496 21.2883 18.6637 21.432 18.5258C21.5577 18.4051 21.6984 18.3024 21.8558 18.2272C21.9252 18.194 21.9974 18.1663 22.0728 18.1502C22.1499 18.1337 22.2331 18.1442 22.3086 18.1238ZM21.7969 18.88C21.8168 18.8893 21.8338 18.9123 21.8481 18.9391C21.841 18.9164 21.8263 18.8938 21.7969 18.88ZM21.9668 15.9807C22.2032 16.1245 22.5633 16.4596 22.309 16.8159C22.0097 17.1301 21.5788 16.7698 21.3665 16.6069C21.1696 16.4807 20.9484 16.8054 21.1311 16.9528C22.6654 18.0893 23.2881 16.0183 22.0863 15.8118C21.954 15.789 21.9049 15.9363 21.9668 15.9807ZM20.024 14.6007L20.0657 14.5972C20.2469 14.5812 20.4303 14.5569 20.6089 14.5979C20.8489 14.653 20.8313 15.0022 20.6089 15.0665C20.4129 15.123 20.1957 15.0986 19.9934 15.1005C19.9616 15.1008 19.9298 15.1016 19.898 15.1022C19.8917 15.1778 19.8669 15.2431 19.8289 15.3083C19.8017 15.3551 19.767 15.3995 19.7328 15.441C19.6515 15.5398 19.4599 15.5376 19.3779 15.441C19.3172 15.3696 19.2689 15.2874 19.2681 15.1907C19.268 15.1659 19.271 15.1396 19.2769 15.1137L19.1664 15.1157C18.8962 15.1198 18.6238 15.118 18.3585 15.075C18.2641 15.0946 18.1868 14.9242 18.3171 14.8732C18.6713 14.7346 19.067 14.6938 19.4429 14.6522C19.6361 14.6307 19.8303 14.616 20.024 14.6007ZM23.0416 14.4575L23.0512 14.4565C23.2856 14.4325 23.544 14.3909 23.7788 14.4149C24.1295 14.4505 24.1289 14.9248 23.7788 14.9602C23.6503 14.9733 23.5149 14.9669 23.3799 14.9545C23.4489 15.101 23.367 15.2759 23.2007 15.2983C23.0462 15.319 22.886 15.1688 22.9367 15.0077L22.9391 15.0005C22.949 14.9726 22.9579 14.9413 22.9684 14.9105L22.9125 14.9058C22.7454 14.891 22.5133 14.8608 22.4518 14.7288C22.4333 14.689 22.4375 14.652 22.4661 14.618C22.5833 14.4785 22.8722 14.4739 23.0416 14.4575ZM20.549 13.3717C20.7187 13.31 20.895 13.4543 20.917 13.6169C20.9423 13.8043 20.8072 13.9277 20.636 13.95L20.6274 13.9511C20.2495 13.9927 19.8743 14.0689 19.4959 14.1119C19.324 14.1314 19.1508 14.1443 18.9778 14.1489L18.8541 14.1517C18.7026 14.1555 18.54 14.159 18.4001 14.1068L18.4007 14.1058C18.3635 14.0951 18.3464 14.0415 18.3878 14.0122C18.5367 13.9068 18.7375 13.867 18.9109 13.8169C19.0852 13.7665 19.2608 13.7201 19.4369 13.6765C19.8067 13.585 20.1908 13.5019 20.549 13.3717ZM22.1136 13.4155C22.1585 13.1784 22.4942 13.153 22.6175 13.3255C22.6972 13.3529 22.814 13.3814 22.8864 13.4029C23.0125 13.4403 23.1388 13.4775 23.2653 13.5136C23.5272 13.5882 23.7829 13.6828 24.0405 13.771C24.067 13.7801 24.0597 13.8138 24.0342 13.8172C23.6747 13.864 23.3213 13.8858 22.9596 13.8708L22.8854 13.8674C22.5668 13.855 22.0258 13.8787 22.1136 13.4155Z" fill="black"/>
</svg>
