<svg width="36" height="48" viewBox="0 0 36 48" fill="none" xmlns="http://www.w3.org/2000/svg">
<path fill-rule="evenodd" clip-rule="evenodd" d="M16.6967 20.748L16.3138 21.6951L16.5247 24.6969L16.6817 24.7214C18.3398 24.9785 19.4665 25.1084 20.0618 25.111L20.0802 25.111C20.6797 25.111 21.398 24.9771 22.2353 24.7092L22.2734 24.6969L22.37 22.4492H22.1421L21.7298 21.4822L21.7302 21.4819C21.7347 21.4897 21.7395 21.4972 21.7444 21.5045C21.9163 21.7588 22.0159 21.5534 22.4197 21.6434C22.9033 21.7511 23.1179 22.2399 23.5436 22.6053C23.7412 22.7749 24.156 22.8549 24.3545 22.9715L24.5631 23.094C25.2164 23.4796 25.9674 23.9479 26.3617 24.558C26.8239 25.2732 27.1426 25.9519 27.4368 26.7475C28.0709 28.4624 28.5111 30.2123 28.8257 32.012C29.1445 33.836 29.336 35.6826 29.4824 37.5277C29.5501 38.3828 29.6076 39.2386 29.6553 40.095L29.6671 40.3091C29.6921 40.7751 29.6703 41.231 29.2468 41.518C28.9434 41.7235 28.5407 41.7548 28.1847 41.7759L28.1653 41.7771C25.5333 41.9315 22.9012 42.0848 20.2691 42.2384L16.3211 42.4693C15.6641 42.5078 15.0072 42.546 14.3503 42.584L12.7467 42.6767C11.991 42.7197 11.2343 42.7569 10.4775 42.7525C9.52543 42.747 8.57735 42.6766 7.63401 42.5497L7.55079 42.5383C6.9573 42.4564 6.09676 42.2489 5.99016 41.5369C5.97486 41.4347 6.06481 41.3708 6.14033 41.3855C6.11548 41.2696 6.10005 41.1535 6.08531 41.0527C6.02205 40.6219 5.98234 40.1883 5.96271 39.7533C5.92334 38.8829 5.95651 38.0085 6.04349 37.1419C6.18739 35.7082 6.3891 34.277 6.59753 32.8509L6.64393 32.534C6.86562 31.023 7.12957 29.5145 7.54259 28.0427C7.92412 26.683 8.51933 25.2686 9.33832 24.4088C10.1573 23.5491 11.325 22.8021 12.5249 22.3446C12.6288 22.3049 14.6932 21.8527 14.8323 21.9186L14.8573 21.899C15.2689 21.5739 15.8561 21.0029 16.4606 21.1827L16.462 21.1805C16.4763 21.1542 16.5321 20.9788 16.6092 20.7481L16.6967 20.748Z" fill="#8FA7DF"/>
<path fill-rule="evenodd" clip-rule="evenodd" d="M17.133 19.4875C17.633 18.8533 18.1601 18.6517 18.939 18.699C19.4671 18.6801 19.9939 18.8172 20.4411 19.1202C20.8509 19.3344 21.2143 19.6292 21.4736 20.0088C21.6955 20.3333 21.5269 21.1352 21.7295 21.4821C21.7276 21.5199 21.7266 21.5543 21.7266 21.5854C21.7266 21.8856 21.9354 22.2207 22.3532 22.5905L22.3698 22.6052V24.7869C21.6675 25.0029 20.798 25.1109 19.7613 25.1109C18.74 25.1109 17.6778 24.9394 16.5746 24.5963L16.5245 24.5806L16.3135 22.2095L16.5245 21.5533L16.5244 21.0037L16.606 20.7579C16.7503 20.3257 16.9713 19.6926 17.133 19.4875Z" fill="#D08B5B"/>
<path fill-rule="evenodd" clip-rule="evenodd" d="M16.5254 24.5811C16.5254 24.5811 18.3797 25.1212 19.6456 25.1212C20.9114 25.1212 22.2741 24.5811 22.2741 24.5811L22.053 42.363L18.4951 42.4065L16.5254 24.5811Z" fill="#9FD8E5"/>
<path fill-rule="evenodd" clip-rule="evenodd" d="M10.4209 32.3452C10.4072 32.3195 10.439 32.2964 10.4601 32.3149C10.9394 32.7357 11.1903 33.4114 11.2429 34.036C11.2987 34.6983 11.2197 35.3841 11.1894 36.0461C11.1558 36.7835 11.1256 37.5213 11.0846 38.2584C11.0429 39.0062 10.9981 39.7538 10.9596 40.5018L10.873 42.1844C10.8638 42.3637 10.8838 42.5842 10.815 42.7516C10.7084 43.011 10.3917 42.9708 10.3252 42.754L10.3231 42.7469L10.317 42.7516C10.2583 42.5562 10.3023 42.3241 10.3122 42.122L10.4029 40.2837C10.4669 38.9842 10.5241 37.6848 10.5929 36.3856L10.6163 35.9526C10.6484 35.3696 10.6731 34.7882 10.6929 34.2054L10.6993 34.0111C10.7182 33.4259 10.7032 32.8735 10.4209 32.3452ZM22.0394 21.558C22.3064 21.5327 22.508 21.6212 22.7504 21.7145C22.856 21.7552 22.956 21.8021 23.0574 21.8507C23.1842 21.9115 23.2658 22.0191 23.3439 22.1328L23.3856 22.1941C23.7108 22.6708 23.9296 23.2207 24.1765 23.7397C24.4652 24.3468 24.7569 24.9526 25.0395 25.5626L25.179 25.8631C25.2487 26.0134 25.3182 26.1637 25.3867 26.3145L25.505 26.5771C25.6238 26.8433 25.7304 27.1249 25.561 27.3996C25.4035 27.655 25.1242 27.8527 24.9031 28.0501C24.7186 28.2149 24.5341 28.3796 24.3495 28.5443C24.731 28.9265 24.9871 29.4077 25.1377 29.9238C25.3516 29.8346 25.6126 29.8175 25.8338 29.779C26.1434 29.725 26.1813 30.1938 25.8891 30.1881C25.6734 30.1839 25.4202 30.2059 25.1989 30.1605C25.2373 30.33 25.2652 30.5022 25.283 30.6748C25.376 31.5795 25.1728 32.4895 24.9608 33.3649L24.9433 33.4368C24.7131 34.3843 24.4949 35.3342 24.2996 36.2895C24.1039 37.2469 23.9278 38.2083 23.7715 39.1729C23.6125 40.1548 23.4999 41.142 23.379 42.129C23.3606 42.2784 23.2667 42.4064 23.1017 42.4064C22.9642 42.4064 22.8071 42.2781 22.8244 42.129C22.9492 41.0542 23.1262 39.985 23.3021 38.9175C23.605 37.0791 23.9863 35.2567 24.4249 33.4463L24.5015 33.131C24.6988 32.3134 24.8778 31.4708 24.7789 30.6274C24.6982 29.9406 24.4112 29.2083 23.8439 28.7818L23.8266 28.7689C23.6941 28.6717 23.6431 28.4858 23.7736 28.3577C23.8567 28.2763 23.9398 28.1949 24.023 28.1135L24.5224 27.6258L24.6231 27.5273C24.7071 27.4453 24.7914 27.3638 24.8783 27.2848C24.9309 27.237 25.0734 27.1459 25.0839 27.0673C25.0906 27.016 25.0299 26.9259 25.0053 26.8786L24.8926 26.651C24.8286 26.5212 24.7666 26.3905 24.7041 26.26C24.5745 25.9896 24.4432 25.72 24.3165 25.4482L23.5552 23.8166C23.3405 23.3562 23.1492 22.8702 22.8684 22.4447L22.8131 22.3617C22.7669 22.2919 22.7261 22.2246 22.6969 22.1392C22.6688 22.057 22.6335 21.9668 22.5816 21.8966C22.4601 21.732 22.2276 21.6387 22.0332 21.6042C22.0051 21.5992 22.0153 21.5603 22.0394 21.558ZM16.1848 21.1295C16.2017 21.1295 16.2043 21.1536 16.1887 21.1583C15.9541 21.2289 15.7299 21.3428 15.547 21.5071C15.4595 21.5858 15.3714 21.6751 15.3173 21.7809C15.2967 21.8215 15.2852 21.8643 15.2768 21.9087L15.2742 21.9235C15.2602 22.0037 15.2403 22.0483 15.1995 22.1125L15.1926 22.1234C14.9601 22.4825 14.7972 22.8814 14.6482 23.2808L14.3239 24.1516L13.9997 25.0225C13.8952 25.3031 13.7907 25.5837 13.6863 25.8643C13.6286 26.0193 13.5692 26.1735 13.5099 26.3278C13.4842 26.3947 13.4566 26.461 13.4332 26.5287C13.4299 26.5379 13.4197 26.5936 13.412 26.6072L13.4146 26.6118C13.48 26.7218 13.6543 26.8137 13.7532 26.8937L14.0935 27.1689C14.3362 27.3652 14.5851 27.556 14.8204 27.761C14.9683 27.8898 14.8763 28.1204 14.7114 28.1741C14.4351 28.2642 14.1644 28.3719 13.8922 28.4738C13.7823 28.515 13.6678 28.5508 13.5592 28.5962L13.493 28.6248C13.4672 28.6364 13.4796 28.6363 13.4806 28.684C13.4817 28.734 13.4958 28.7861 13.504 28.8353C13.5957 29.3898 13.6928 29.9434 13.7954 30.496C14.1582 32.4502 14.5917 34.39 15.086 36.315C15.3357 37.2871 15.6035 38.2545 15.8587 39.2251C16.1133 40.1932 16.4482 41.1474 16.768 42.0956C16.8583 42.3629 16.4344 42.4781 16.3464 42.2118C15.9778 41.0967 15.6407 39.9719 15.2925 38.8504C14.6738 36.8578 14.1863 34.8219 13.7551 32.781C13.5414 31.7696 13.346 30.7542 13.1689 29.7356C13.1354 29.5428 13.1025 29.3499 13.0703 29.1568L13.0234 28.8729C12.9913 28.6704 12.9729 28.4596 13.1302 28.2994C13.2838 28.1431 13.5474 28.0877 13.7495 28.0144L13.7641 28.009C13.8927 27.961 14.0222 27.9147 14.1512 27.867C13.9612 27.7174 13.7735 27.5644 13.5839 27.4148C13.431 27.2941 13.2757 27.1759 13.1249 27.0525C13.0006 26.9506 12.8993 26.8199 12.8863 26.6543C12.8731 26.4851 12.9456 26.3281 13.0041 26.1729L13.0097 26.1579C13.0671 26.0029 13.1246 25.848 13.1837 25.6937L13.5489 24.7381C13.781 24.1309 14.0034 23.5188 14.2475 22.9163C14.3441 22.6778 14.4493 22.4431 14.5737 22.2178C14.6337 22.1091 14.698 22.0027 14.7679 21.9002C14.8462 21.7851 14.9173 21.729 15.0386 21.6656C15.2327 21.5641 15.3849 21.3939 15.5798 21.2893C15.771 21.1866 15.9677 21.1318 16.1848 21.1295ZM16.8147 20.0461C16.8221 20.0334 16.8418 20.0391 16.842 20.0536C16.8471 20.3553 16.7754 20.6637 16.7313 20.9621C16.687 21.2616 16.6728 21.5777 16.6088 21.8739C16.6074 21.8877 16.6048 21.9013 16.601 21.9147L16.5979 21.9248C16.5709 22.0078 16.5006 22.0782 16.4143 22.1002C16.4414 22.2506 16.467 22.4013 16.4885 22.5528C16.5254 22.8131 16.5591 23.0739 16.5923 23.3347L16.6319 23.6478C16.6694 23.9428 16.7058 24.2379 16.7419 24.5331C16.8335 24.5714 16.927 24.603 17.0227 24.6304C17.2432 24.6936 17.4691 24.7192 17.6966 24.7416C18.16 24.787 18.6269 24.8081 19.092 24.8339L19.1916 24.8395C19.7144 24.8695 20.2401 24.8748 20.7616 24.8212C21.0202 24.7945 21.2767 24.7499 21.5289 24.6866C21.657 24.6545 21.7816 24.6064 21.9095 24.575C21.9519 24.5646 21.9898 24.5405 22.0323 24.5148C22.0512 24.491 22.0776 24.4729 22.1121 24.4659L22.1215 24.4643L22.1307 24.463L22.1339 24.4615L22.1337 24.4625C22.1598 24.459 22.1847 24.459 22.2081 24.4622C22.2175 24.2321 22.2276 24.0019 22.2402 23.7719C22.2743 23.1539 22.3682 22.5093 22.2428 21.8967C22.2386 21.8761 22.2666 21.8688 22.2739 21.8881C22.52 22.5366 22.4923 23.2457 22.5047 23.9282C22.5168 24.5957 22.5095 25.2636 22.5062 25.9312C22.554 25.9516 22.5966 25.9792 22.6304 26.0179C22.6978 26.0952 22.7172 26.2297 22.6304 26.3043C22.5919 26.3374 22.5493 26.3604 22.5041 26.3763C22.5017 26.9563 22.4976 27.5363 22.4918 28.1163C22.602 28.2015 22.6123 28.4038 22.4876 28.4879C22.4668 30.3662 22.4327 32.2446 22.4044 34.1226L22.3452 38.0627C22.3373 38.5877 22.3242 39.1126 22.3195 39.6375L22.3232 39.639L22.3363 39.6451C22.3584 39.6554 22.3913 39.6722 22.3981 39.6894C22.3999 39.6939 22.4004 39.697 22.4001 39.6993C22.4363 39.7043 22.4722 39.7214 22.5032 39.7509C22.5797 39.8236 22.5642 39.9333 22.5032 40.0074L22.4869 40.0273C22.4488 40.0734 22.3766 40.0912 22.3177 40.0818C22.3183 40.4094 22.3204 40.7371 22.3193 41.0647C22.319 41.1648 22.3175 41.2649 22.3158 41.3649L22.3116 41.6049C22.3089 41.7418 22.2968 41.9158 22.1566 41.9773C21.9984 42.0467 21.8566 41.9898 21.7926 41.8292C21.7752 41.7856 21.779 41.7451 21.7853 41.7021C21.7833 41.6374 21.7732 41.5625 21.7745 41.5025L21.7797 41.2523C21.7805 41.2138 21.7821 41.1752 21.7832 41.1366L21.7786 41.1371C21.2166 41.1644 20.6507 41.1511 20.0879 41.1508L19.8375 41.1511C19.6286 41.1513 19.4193 41.1502 19.2108 41.1422L19.1326 41.1389C18.9764 41.1315 18.8122 41.1292 18.6503 41.1152C18.6709 41.2815 18.6902 41.4478 18.7074 41.6143C18.7237 41.7722 18.5608 41.9064 18.4155 41.9064C18.2429 41.9064 18.1442 41.7707 18.1235 41.6143C18.026 40.8768 17.9861 40.1323 17.8929 39.3943C17.8094 38.7332 17.7371 38.0707 17.6635 37.4084L17.6389 37.1876C17.3697 34.7774 17.1084 32.3663 16.8584 29.954L16.742 28.8263C16.6245 27.6897 16.5062 26.5531 16.4065 25.4148C16.3495 24.764 16.297 24.1131 16.2475 23.4617C16.2112 22.9832 16.1884 22.5073 16.1736 22.0297C16.1151 21.9695 16.0858 21.8815 16.1117 21.7907C16.1268 21.7378 16.1445 21.6851 16.1631 21.6325C16.1619 21.5808 16.1607 21.5291 16.1597 21.4773C16.1587 21.4284 16.2084 21.4032 16.2482 21.4113C16.3205 21.2362 16.4001 21.0625 16.4666 20.8891C16.5741 20.6084 16.6628 20.3059 16.8147 20.0461ZM10.8086 23.0802C11.9328 22.3754 13.271 21.8682 14.6113 21.9228C14.6418 21.9241 14.6504 21.9706 14.6188 21.9776C13.9038 22.1373 13.1811 22.3318 12.5042 22.6149C11.8254 22.8988 11.18 23.2811 10.6051 23.7406C9.54443 24.5882 8.72002 25.6908 8.17717 26.9336C7.8592 27.6616 7.63632 28.4303 7.44171 29.1992C7.23576 30.0129 7.06603 30.8354 6.9249 31.6629C6.64615 33.2974 6.48387 34.9499 6.39751 36.6052C6.30966 38.289 6.34587 39.9741 6.28321 41.6582C6.27238 41.95 5.85548 41.9443 5.83429 41.6582C5.69232 39.7435 5.77097 37.7982 5.90227 35.8848C6.02033 34.1648 6.2265 32.4483 6.55848 30.756L6.5874 30.6093C6.89776 29.0435 7.2721 27.4398 8.0224 26.0219C8.66296 24.8113 9.65188 23.8055 10.8086 23.0802ZM26.4201 30.5635C26.426 30.5467 26.4482 30.5469 26.4541 30.5635C26.5822 30.9224 26.5868 31.3274 26.6209 31.7057L26.6236 31.7347C26.6563 32.0798 26.6809 32.4253 26.7037 32.7711L26.7122 32.9007C26.804 34.3113 26.9188 35.7203 27.0917 37.1234C27.264 38.5213 27.497 39.9094 27.7489 41.2948C27.777 41.449 27.7087 41.6061 27.547 41.6506C27.4044 41.6897 27.2215 41.6019 27.1913 41.4486C27.0349 40.6534 26.9084 39.8572 26.7956 39.0551C26.597 37.6427 26.4488 36.2239 26.3535 34.8008C26.3056 34.086 26.2762 33.3716 26.2645 32.6553C26.2591 32.323 26.2677 31.9899 26.2854 31.6579L26.2896 31.5813C26.3092 31.242 26.3072 30.8871 26.4201 30.5635ZM14.2722 39.548C14.2872 39.5399 14.3058 39.5566 14.2963 39.5721C14.0786 39.926 13.7841 40.2312 13.4995 40.532C13.2019 40.8464 12.9117 41.1702 12.6082 41.4785C12.3888 41.7011 12.036 41.342 12.2675 41.1376C12.593 40.8505 12.9331 40.5776 13.2644 40.2968L13.4093 40.1739C13.6809 39.9444 13.9606 39.7169 14.2722 39.548ZM24.6115 39.3708C24.5953 39.3398 24.6324 39.3147 24.6576 39.3352C24.8332 39.478 24.9906 39.6484 25.1601 39.7992C25.328 39.9485 25.5022 40.0878 25.6812 40.2236C25.8608 40.36 26.0444 40.4909 26.233 40.6148C26.3894 40.7176 26.5506 40.7999 26.7144 40.8852C26.7902 40.895 26.8604 40.9322 26.9167 41.0028C27.0055 41.1145 27.015 41.325 26.8917 41.422L26.8696 41.4393C26.7257 41.5525 26.5549 41.5662 26.4133 41.4393C26.2551 41.2977 26.1056 41.1418 25.9538 40.992L25.9081 40.9473C25.7449 40.7887 25.5857 40.6248 25.4356 40.4537L25.2997 40.299C25.0476 40.0114 24.7852 39.7015 24.6115 39.3708ZM23.8027 22.7904C23.7735 22.7711 23.7915 22.719 23.8275 22.7314L23.8937 22.7543C24.17 22.8503 24.4544 22.9569 24.7052 23.1047C24.9748 23.2636 25.2237 23.453 25.4615 23.656C25.9538 24.0764 26.3725 24.5933 26.7284 25.1321C27.4426 26.2132 27.8842 27.4514 28.2407 28.6903C28.6209 30.0112 28.9136 31.3606 29.1526 32.7138C29.3955 34.089 29.5828 35.4767 29.706 36.8678C29.7666 37.5531 29.8074 38.2387 29.8278 38.9264C29.8384 39.2801 29.838 39.6337 29.8351 39.9875C29.8343 40.0785 29.8349 40.1695 29.836 40.2605L29.8394 40.5334C29.8413 40.7059 29.8619 40.8873 29.8209 41.0558C29.755 41.3272 29.3064 41.2766 29.3212 40.9992C29.3077 40.907 29.3071 40.8116 29.3106 40.716C29.3085 40.7037 29.3062 40.6912 29.3036 40.6783C29.2963 40.6417 29.3025 40.6077 29.3169 40.5786C29.3192 40.5327 29.3213 40.4872 29.3221 40.4424C29.325 40.2602 29.3248 40.0787 29.3198 39.8966C29.3092 39.5125 29.2939 39.1284 29.2785 38.7446C29.2477 37.9774 29.2048 37.21 29.1426 36.4447C28.9263 33.7811 28.4697 31.1023 27.7026 28.5397C27.3463 27.3497 26.8551 26.1815 26.1507 25.1532C25.8381 24.6966 25.4853 24.275 25.0942 23.8836C24.7007 23.4898 24.267 23.098 23.8027 22.7904ZM18.4948 39.9615L18.5479 40.3461C18.5745 40.5385 18.6008 40.7309 18.6258 40.9234C18.7955 40.9002 18.9691 40.8905 19.1326 40.876C19.4188 40.8506 19.707 40.8383 19.9941 40.8265C20.5877 40.802 21.1843 40.7595 21.7786 40.7625C21.7847 40.7625 21.7904 40.7629 21.7962 40.7634L21.8257 40.0044L21.4082 40.0038C21.0544 40.0032 20.7007 40.0002 20.347 39.9972C20.0284 39.9944 19.7097 39.994 19.3912 39.9874L19.2547 39.9841C19.0131 39.9776 18.7464 39.991 18.4948 39.9615ZM21.8607 38.8599C21.8437 38.8619 21.8263 38.8635 21.8079 38.8643C21.7252 38.8678 21.6419 38.8654 21.5591 38.8661C21.3829 38.8676 21.2067 38.8688 21.0305 38.8688C20.678 38.8687 20.3257 38.8709 19.9733 38.8751C19.6105 38.8795 19.248 38.8858 18.8852 38.8865C18.7095 38.8868 18.5343 38.8822 18.3585 38.8773C18.387 39.1271 18.4167 39.3767 18.4495 39.6257C18.7223 39.5888 19.0158 39.6074 19.2825 39.6049L19.3171 39.6044C19.6811 39.5982 20.0454 39.6028 20.4094 39.6032C20.784 39.6037 21.1585 39.6049 21.533 39.6079L21.8407 39.6105L21.8413 39.595C21.8503 39.3502 21.8561 39.1051 21.8607 38.8599ZM18.2232 37.6648C18.2573 37.9597 18.2893 38.255 18.322 38.5503C18.3436 38.547 18.3656 38.5441 18.388 38.5417C18.564 38.5233 18.7397 38.5075 18.9163 38.4966C19.2685 38.4748 19.6206 38.4632 19.9733 38.4538C20.336 38.444 20.6987 38.4366 21.0616 38.4315C21.2378 38.429 21.4139 38.4292 21.5902 38.4305C21.6729 38.431 21.7565 38.4284 21.839 38.434C21.8488 38.4346 21.8582 38.4356 21.8676 38.4367L21.8738 37.9934C21.8748 37.9195 21.8759 37.8457 21.8771 37.7718C21.6047 37.7886 21.3277 37.7822 21.0555 37.7823L20.9928 37.7824C20.6507 37.784 20.3085 37.7793 19.9665 37.7722C19.6137 37.7648 19.2616 37.7533 18.9093 37.7307C18.7667 37.7216 18.625 37.7094 18.4831 37.6938L18.4121 37.6857C18.3503 37.6784 18.2867 37.6725 18.2232 37.6648ZM21.9052 36.4138C21.2491 36.4659 20.5965 36.4877 19.9386 36.4942L19.8399 36.495C19.2586 36.4994 18.6724 36.5234 18.0897 36.508C18.1246 36.8102 18.1593 37.1124 18.1943 37.4145C18.2778 37.4106 18.3616 37.4106 18.4432 37.4076C18.6091 37.4017 18.7744 37.4002 18.9405 37.3998C19.2825 37.399 19.6245 37.402 19.9665 37.4013C20.319 37.4005 20.6714 37.3946 21.0238 37.3879C21.3096 37.3826 21.5983 37.3611 21.8848 37.3619L21.9052 36.4138ZM21.933 35.1246C21.857 35.1499 21.7672 35.1515 21.6688 35.156L21.4148 35.1687C21.2971 35.1744 21.1794 35.1799 21.0616 35.1842C20.669 35.1985 20.2765 35.212 19.8839 35.2245C19.4816 35.2372 19.0774 35.2447 18.6751 35.232C18.478 35.2258 18.2826 35.2154 18.0861 35.199C18.0375 35.1949 17.988 35.1923 17.9384 35.1887C17.9841 35.5891 18.03 35.9894 18.0761 36.3897C18.656 36.3185 19.2404 36.2742 19.8196 36.2006L20.3434 36.1337C20.8669 36.0668 21.3899 36.0013 21.9153 35.946L21.933 35.1246ZM21.961 33.8212C21.8494 33.8487 21.7223 33.8473 21.6151 33.8541L21.5953 33.8555C21.3923 33.8709 21.1888 33.8786 20.9854 33.8836C20.5866 33.8934 20.1876 33.8984 19.7888 33.9008L19.5489 33.9023C19.2291 33.9042 18.9096 33.905 18.5897 33.8975C18.3846 33.8927 18.1799 33.8827 17.9749 33.8724C17.9134 33.8693 17.8507 33.8673 17.7877 33.8641C17.8305 34.2432 17.8738 34.6221 17.917 35.0011C17.9844 34.9904 18.052 34.9823 18.1165 34.9714C18.2818 34.9435 18.4467 34.9212 18.6131 34.9012C18.9735 34.858 19.3359 34.8269 19.698 34.8007C20.0698 34.7737 20.4418 34.7509 20.8137 34.7248L21.077 34.7063C21.1648 34.7002 21.2526 34.6943 21.3404 34.6889C21.4904 34.6797 21.6647 34.6901 21.8135 34.6574C21.8538 34.6406 21.8985 34.6368 21.9433 34.6464L21.961 33.8212ZM21.9947 32.2955C21.9561 32.3445 21.8985 32.3702 21.8298 32.3791C21.4717 32.4256 21.1045 32.433 20.7434 32.4549L20.6798 32.4589C20.307 32.4835 19.9339 32.5028 19.5609 32.5226C19.1776 32.543 18.7944 32.5596 18.4108 32.5729C18.248 32.5786 18.0844 32.5793 17.9213 32.5772L17.8514 32.5761C17.7844 32.575 17.7143 32.5752 17.644 32.5729C17.6829 32.9273 17.7222 33.2817 17.762 33.6361C17.8337 33.6283 17.9053 33.6223 17.9749 33.615C18.1797 33.5933 18.3844 33.5719 18.5897 33.5557C18.9788 33.525 19.3682 33.5066 19.758 33.4873C20.1569 33.4675 20.556 33.4544 20.9549 33.4357C21.1483 33.4267 21.3416 33.4154 21.5344 33.3977C21.6696 33.3852 21.8301 33.3392 21.9711 33.3561C21.9788 33.0025 21.9868 32.649 21.9947 32.2955ZM22.0262 30.9287C22.0201 30.9382 22.0129 30.9473 22.0043 30.9559C21.8466 31.1116 21.6524 31.0996 21.4435 31.116L21.4307 31.117C21.226 31.1342 21.0211 31.1506 20.8162 31.1654C20.4065 31.195 19.996 31.2157 19.5858 31.2341C19.1659 31.253 18.7433 31.266 18.3231 31.2574C18.0539 31.2519 17.772 31.2529 17.4975 31.2266C17.5397 31.617 17.5821 32.0073 17.6248 32.3976C17.702 32.383 17.7797 32.3719 17.8533 32.3603C18.0387 32.3311 18.2243 32.3018 18.4108 32.2803C18.7836 32.2374 19.1564 32.1972 19.5298 32.161C19.8491 32.13 20.1684 32.0986 20.488 32.0703L20.6798 32.0537C21.0611 32.0216 21.4472 31.9687 21.8298 31.9609C21.8928 31.9596 21.9641 31.9939 22.0002 32.0481C22.0087 31.6749 22.0174 31.3018 22.0262 30.9287ZM22.0527 29.8223C21.9553 29.8341 21.8504 29.8274 21.7605 29.8303C21.5333 29.8378 21.3061 29.8447 21.0789 29.8514L19.7155 29.8916C19.2513 29.9053 18.7854 29.9156 18.3211 29.909C18.1168 29.9061 17.9116 29.9058 17.7074 29.8947L17.6394 29.8906C17.5553 29.8849 17.4522 29.8842 17.3515 29.8739L17.4704 30.9757C17.7436 30.9362 18.0251 30.9214 18.296 30.8983L18.3539 30.8932C18.7534 30.8568 19.1548 30.8327 19.555 30.8056C19.9655 30.7778 20.3755 30.744 20.7855 30.7095C20.9904 30.6922 21.1953 30.6751 21.4 30.6562L21.4253 30.6537C21.6187 30.6335 21.8006 30.5905 21.9719 30.7046C21.997 30.7213 22.0166 30.7436 22.03 30.7685C22.0375 30.4531 22.0448 30.1377 22.0527 29.8223ZM22.0844 28.5365C21.2541 28.5699 20.4237 28.5953 19.5927 28.6065C19.125 28.6127 18.6578 28.6083 18.1902 28.5985C17.9874 28.5943 17.7829 28.5846 17.5803 28.569L17.5044 28.5629C17.408 28.5548 17.3068 28.5489 17.206 28.5392C17.2477 28.918 17.289 29.2969 17.33 29.6758C17.4291 29.6574 17.5328 29.6489 17.6196 29.6378L17.6394 29.6351C17.8552 29.6054 18.0731 29.5881 18.2901 29.569C18.7125 29.5318 19.137 29.5078 19.5605 29.4874C19.9942 29.4665 20.4282 29.4488 20.8619 29.4296L21.2957 29.4101C21.368 29.4069 21.4403 29.4038 21.5126 29.4007C21.616 29.3964 21.7192 29.3922 21.8225 29.3879C21.8735 29.3858 21.9264 29.3789 21.9775 29.3815L21.992 29.3796C21.9987 29.3787 22.0046 29.378 22.01 29.3775C22.0239 29.3669 22.0388 29.3581 22.0546 29.3515L22.0642 29.3477L22.0844 28.5365ZM17.0699 27.318C17.1084 27.659 17.1466 28.0001 17.1842 28.3412C17.3026 28.3277 17.4225 28.3202 17.5355 28.3101C17.7636 28.2896 17.9926 28.2717 18.2213 28.2612L18.6784 28.2399C18.9831 28.2259 19.2878 28.2122 19.5927 28.2011C20.4272 28.1706 21.2616 28.1357 22.0956 28.0931C22.1015 27.8617 22.1076 27.6304 22.1138 27.399C22.0738 27.4419 22.0159 27.4701 21.9399 27.47C21.0644 27.4676 20.1881 27.4727 19.3127 27.4583C18.8744 27.451 18.4367 27.4404 17.999 27.4179C17.7848 27.407 17.5695 27.3845 17.3569 27.3551C17.2663 27.3425 17.1671 27.3336 17.0699 27.318ZM16.9298 26.1028C16.9709 26.4522 17.0113 26.8016 17.051 27.1511C17.1597 27.1317 17.2721 27.1213 17.3735 27.1075C17.5915 27.0779 17.8108 27.0543 18.0303 27.0419C18.4575 27.0177 18.8849 27.0055 19.3127 26.9964C20.1881 26.9778 21.0643 26.978 21.9399 26.971C22.0222 26.9704 22.0832 27.0029 22.1233 27.0515C22.1294 26.8334 22.1358 26.6153 22.1424 26.3971C22.0579 26.3882 21.974 26.3755 21.8964 26.3701C21.658 26.3534 21.4194 26.3382 21.1807 26.3245C20.6827 26.2959 20.1842 26.2715 19.6858 26.2498C19.1873 26.2282 18.6887 26.207 18.19 26.1885L17.972 26.1805C17.6252 26.1676 17.2725 26.1513 16.9298 26.1028ZM16.7729 24.7872C16.8158 25.141 16.858 25.4949 16.9001 25.8488L16.9129 25.9583C17.3299 25.8772 17.7695 25.8535 18.19 25.8356C18.6888 25.8143 19.1867 25.8034 19.6858 25.8049C20.1845 25.8065 20.6825 25.8183 21.1807 25.8389C21.4297 25.8491 21.6787 25.861 21.9275 25.8746C21.9959 25.8782 22.0761 25.8763 22.1587 25.8775C22.1605 25.8219 22.162 25.7662 22.1639 25.7107C22.1715 25.4854 22.1789 25.2602 22.1867 25.0349C22.0184 25.1214 21.7995 25.1563 21.6304 25.1932L21.6111 25.1974C21.3318 25.2602 21.0467 25.3008 20.7616 25.3257C20.2018 25.3745 19.6361 25.3563 19.0769 25.309L18.9789 25.3006C18.4878 25.258 17.9786 25.204 17.5025 25.0824C17.2757 25.0245 17.0412 24.9435 16.838 24.826C16.8169 24.8138 16.7951 24.8009 16.7729 24.7872ZM21.5018 20.5829C21.5067 20.5638 21.5353 20.5594 21.5447 20.5773C21.6109 20.703 21.6355 20.8538 21.6814 20.9885C21.7308 21.1333 21.7769 21.2791 21.8314 21.4222C21.9453 21.721 22.0797 22.0082 22.2399 22.285C22.3985 22.5591 21.9543 22.7547 21.8376 22.4547C21.717 22.145 21.618 21.8248 21.558 21.4976C21.5288 21.3379 21.5027 21.1761 21.4942 21.0138C21.4869 20.8745 21.4674 20.7188 21.5018 20.5829Z" fill="black"/>
<path fill-rule="evenodd" clip-rule="evenodd" d="M24.7168 14.5032C24.7044 13.8017 24.6907 13.0863 24.5867 12.3917C24.485 11.7126 24.2052 11.0988 23.7245 10.6057C22.7034 9.55821 21.2233 9.30236 19.8455 9.06791L17.49 8.66703C16.7713 8.54476 16.0047 8.34932 15.2786 8.52272C14.9208 8.60816 14.617 8.80668 14.3393 9.04154C14.0716 9.26792 13.7838 9.51102 13.6025 9.81559C13.4208 10.1206 13.3583 10.4771 13.2992 10.8221C13.2326 11.211 13.1809 11.603 13.1441 11.9958C13.0704 12.783 13.0604 13.5761 13.1138 14.3649C13.1397 14.7475 13.1809 15.129 13.2335 15.5088C13.2596 15.6971 13.289 15.885 13.3223 16.0722C13.3321 16.1274 13.3396 16.1885 13.3497 16.2502C13.2754 16.4621 13.2331 16.6815 13.2365 16.9C13.2466 17.5435 13.7884 17.9486 14.3346 18.1661C14.6513 18.2922 14.9824 18.3779 15.2935 18.5188C15.6209 18.667 15.8437 18.9073 16.0675 19.1813C16.4944 19.7041 16.9761 20.1738 17.5261 20.5658C18.6923 21.3968 20.1694 21.7899 21.5843 21.4915C21.9238 21.42 22.2663 21.3088 22.5715 21.1413C22.8937 20.9645 23.136 20.7083 23.3394 20.4054C23.7172 19.843 23.9881 19.2097 24.1931 18.5653C24.4021 17.908 24.5505 17.2494 24.6314 16.564C24.7121 15.8808 24.7291 15.1906 24.7168 14.5032Z" fill="#D08B5B"/>
<path fill-rule="evenodd" clip-rule="evenodd" d="M17.2001 6.22315C18.1749 6.08873 19.5203 6.52562 20.0058 7.40652C22.3235 6.85877 25.2466 6.84083 27.1569 8.66429C29.1501 10.8273 26.6465 13.6793 24.9864 14.3223C25.1073 14.9112 24.9188 18.6837 23.5853 20.3665C22.527 21.7922 20.0625 22.4502 18.9221 20.7473L18.9132 20.7332C18.791 20.5365 18.8963 20.5429 19.0217 20.6892C20.1384 21.6736 21.6567 21.6905 22.8267 20.6515C25.0195 18.7525 24.7934 14.0962 23.75 11.4025C20.7788 11.0753 17.5976 11.9781 15.5455 14.2203L15.6842 15.0578C15.7079 15.2005 15.7347 15.343 15.7552 15.4862C15.7683 15.578 15.7698 15.6692 15.7064 15.7435C15.4971 15.9886 15.1442 15.6202 14.8539 15.4737C14.7682 15.4616 14.6823 15.4569 14.5981 15.4629C13.2033 15.643 13.4782 18.3555 15.0111 17.88C15.1399 17.7996 15.2506 17.8241 15.3006 17.9408C15.666 18.2764 15.9069 18.8748 16.514 19.4512C16.7282 19.6674 16.9231 19.8483 17.164 20.0217C17.3055 20.1652 17.7325 20.3114 17.5972 20.557C17.3412 21.1156 15.8317 19.3608 15.5648 18.8755C14.7286 19.2065 13.8019 19.0941 12.9354 19.0132C8.36381 18.7749 8.9741 13.9439 12.7213 10.8938C13.4267 10.3733 14.2049 9.94858 15.0138 9.62179C15.1243 9.57717 15.076 9.39538 14.964 9.44062C14.4288 9.65689 13.907 9.9143 13.4095 10.2122L13.4088 10.0341C13.4081 9.73411 13.4128 9.42178 13.4647 9.14767C13.4907 8.95774 13.5344 8.75488 13.6017 8.60227C13.6849 8.13438 14.9877 6.52837 17.2001 6.22315ZM14.5371 16.0856C14.6077 16.0184 14.7395 16.0986 14.8023 16.0965C14.963 16.1186 15.1157 16.1866 15.2347 16.2706C15.3134 16.3148 15.3685 16.3562 15.4145 16.3943L15.4157 16.394C15.4154 16.394 15.415 16.3943 15.4146 16.3944L15.4189 16.3974C15.486 16.4451 15.7313 16.7141 15.5763 16.6417C15.5648 16.6267 15.5529 16.6122 15.541 16.598C15.5397 16.6 15.5379 16.6019 15.5358 16.6037L15.5445 16.6167C15.6763 16.8154 15.4488 16.606 15.4138 16.5504C15.4121 16.5518 15.4102 16.5527 15.4084 16.5537L15.454 16.6093C15.4604 16.6172 15.4654 16.6235 15.4695 16.6288L15.4791 16.6381C15.6315 16.7882 15.6362 16.9233 15.4592 16.7014C15.4662 16.7118 15.4718 16.7229 15.4726 16.7328L15.4831 16.7462C15.622 16.9257 15.509 16.8619 15.44 16.7853L15.4342 16.7787L15.4354 16.7805C15.4996 16.8797 15.3721 16.8101 15.3496 16.757L15.3487 16.7546C15.3241 16.7345 15.309 16.712 15.3038 16.7063L15.3029 16.7053C15.1834 16.5826 15.0102 16.4787 14.863 16.4315C14.8417 16.4275 14.8201 16.4242 14.7983 16.4219C14.7098 16.4021 14.6204 16.3886 14.53 16.3812C14.5189 16.3799 14.5077 16.3718 14.4993 16.3613C14.3627 16.3566 14.4048 16.3005 14.4616 16.29L14.4625 16.2899L14.4513 16.2889C14.3636 16.2803 14.3037 16.2488 14.3924 16.2294L14.4036 16.2272C14.4022 16.225 14.401 16.2229 14.3998 16.2207C14.3239 16.2123 14.3734 16.1383 14.4156 16.1562C14.3979 16.0981 14.4789 16.1271 14.4891 16.1185C14.4968 16.1099 14.5064 16.1023 14.5119 16.1019C14.5363 16.0846 14.5245 16.0862 14.5371 16.0856ZM15.0019 15.1442L14.9841 15.1547C14.9697 15.1631 14.9549 15.1687 14.94 15.172C14.961 15.1809 14.9817 15.1906 15.0023 15.2009C15.0019 15.1883 15.0017 15.1757 15.0017 15.1631L15.0019 15.1442Z" fill="black"/>
<path fill-rule="evenodd" clip-rule="evenodd" d="M21.9738 18.9793C21.7433 19.0461 21.4958 19.0521 21.2607 18.9831C21.0476 18.9205 20.8287 18.7828 20.6718 18.6005C20.5324 18.4386 20.4422 18.2419 20.4457 18.0319C20.4461 18.0079 20.4547 17.9879 20.4679 17.9723C20.4821 17.9556 20.5019 17.9441 20.5231 17.9391C20.545 17.934 20.5681 17.9358 20.5878 17.9447C20.6056 17.9528 20.6208 17.9666 20.6303 17.9867C20.6545 18.0183 20.6785 18.0496 20.7026 18.0799C20.8965 18.3194 21.0842 18.4984 21.3757 18.5625C21.5339 18.5974 21.6918 18.5819 21.8368 18.5288C21.9919 18.4719 22.1322 18.3719 22.2421 18.2439C22.2918 18.186 22.3504 18.1624 22.4077 18.162C22.4727 18.1615 22.5369 18.1918 22.5853 18.24C22.6329 18.2875 22.6647 18.352 22.6676 18.4194C22.6702 18.4786 22.6509 18.5405 22.5995 18.5956C22.4303 18.7774 22.2111 18.9105 21.9738 18.9793ZM21.9667 15.9799C22.2031 16.1236 22.5632 16.4588 22.3089 16.8151C22.0096 17.1292 21.5787 16.769 21.3664 16.6061C21.1695 16.4799 20.9483 16.8046 21.131 16.952C22.6653 18.0884 23.288 16.0175 22.0862 15.8109C21.9539 15.7882 21.9048 15.9355 21.9667 15.9799ZM19.7558 15.3475C19.6798 15.2989 19.5904 15.2823 19.4914 15.3273C19.414 15.3625 19.2783 15.4799 19.1838 15.6342C19.1192 15.7398 19.0734 15.8636 19.0829 15.9926C19.0851 16.0225 19.0741 16.0446 19.0566 16.0609C19.0428 16.0738 19.0229 16.0833 18.9995 16.0863C18.9797 16.0888 18.9575 16.0865 18.9394 16.0809C18.905 16.0702 18.8868 16.0479 18.88 16.0296C18.8138 15.8539 18.8423 15.6578 18.9164 15.4809C19.0165 15.2422 19.1982 15.0422 19.3172 14.9777C19.5209 14.8673 19.7612 14.8622 19.9651 14.9747C20.1388 15.0704 20.2473 15.2249 20.3553 15.3824C20.3783 15.4159 20.401 15.4491 20.4246 15.4818C20.4718 15.5472 20.4765 15.6121 20.4582 15.6677C20.438 15.7293 20.3863 15.7814 20.3218 15.8086C20.2621 15.8337 20.1929 15.8373 20.1316 15.8114C20.0799 15.7896 20.0324 15.747 20.0023 15.6748C19.9517 15.5531 19.8673 15.4189 19.7558 15.3475ZM23.6139 15.6182C23.5618 15.6453 23.5211 15.6535 23.4634 15.6362C23.4315 15.6266 23.4 15.6082 23.3753 15.5835C23.3508 15.559 23.3331 15.5286 23.3263 15.4948C23.3094 15.4115 23.2638 15.3334 23.1988 15.2826C23.1433 15.2391 23.0732 15.216 22.9955 15.229C22.9116 15.243 22.8316 15.2969 22.7766 15.3603C22.7582 15.3816 22.7438 15.4057 22.7293 15.4296C22.7021 15.4744 22.6758 15.5161 22.6384 15.549C22.6242 15.5615 22.6028 15.5702 22.5821 15.5702C22.5737 15.5702 22.5652 15.5688 22.557 15.5662C22.4735 15.4824 22.4575 15.4188 22.4602 15.3557C22.463 15.2896 22.4891 15.2226 22.5312 15.1601C22.63 15.0135 22.8177 14.8933 22.9443 14.8661C23.1177 14.8288 23.2899 14.8735 23.428 14.9704C23.5701 15.0701 23.6753 15.2249 23.7082 15.3994C23.7161 15.4414 23.7127 15.4867 23.6967 15.526C23.6811 15.5645 23.6539 15.5974 23.6139 15.6182ZM20.1382 13.7846C20.0342 13.886 19.911 13.9017 19.7864 13.9157C19.7171 13.9235 19.6619 13.9298 19.6075 13.9421C19.458 13.9759 19.3102 14.0267 19.1754 14.0999C19.0345 14.1765 18.8809 14.2688 18.7704 14.3871C18.7441 14.4152 18.7194 14.4447 18.6946 14.4743C18.6719 14.5013 18.6502 14.5273 18.6272 14.5524C18.6008 14.5811 18.5758 14.6113 18.5509 14.6414C18.5355 14.6667 18.5324 14.673 18.5293 14.6795C18.5247 14.6892 18.5192 14.7002 18.513 14.7119C18.5046 14.728 18.4946 14.7455 18.4842 14.7615C18.4669 14.7906 18.4576 14.7986 18.4495 14.8022C18.4362 14.8081 18.4235 14.8111 18.4113 14.8095C18.3998 14.808 18.3889 14.8025 18.3782 14.7934C18.3248 14.7483 18.309 14.6741 18.3107 14.5955C18.3131 14.4761 18.3571 14.3439 18.3977 14.2627C18.492 14.0739 18.6229 13.8776 18.7802 13.7367C18.9598 13.5758 19.1562 13.4541 19.3818 13.3702C19.522 13.318 19.6843 13.2701 19.837 13.2762C19.947 13.2805 20.0519 13.3132 20.1386 13.3949C20.1918 13.445 20.2174 13.5163 20.2174 13.5875C20.2174 13.6602 20.1908 13.7333 20.1382 13.7846ZM23.8255 14.7134C23.8189 14.7243 23.8097 14.7317 23.7995 14.7362C23.7889 14.7409 23.7769 14.7423 23.7655 14.7404C23.7541 14.7384 23.7432 14.7333 23.7347 14.7254C23.7264 14.7178 23.7201 14.7078 23.7173 14.6955C23.6482 14.3919 23.5141 14.166 23.2277 14.0204C23.0869 13.9487 22.9249 13.9032 22.7716 13.8669C22.727 13.8563 22.6799 13.8495 22.6325 13.8426C22.4839 13.8209 22.3342 13.796 22.2374 13.6759C22.179 13.6035 22.1545 13.5109 22.1683 13.4262C22.1814 13.3465 22.2279 13.2734 22.3126 13.2296C22.5233 13.1206 22.7852 13.2276 22.998 13.3187C23.0137 13.3255 23.0292 13.3321 23.0444 13.3385C23.2525 13.4264 23.4423 13.5424 23.5983 13.7082C23.7221 13.8398 23.8368 14.0344 23.883 14.2345C23.9214 14.401 23.9124 14.571 23.8255 14.7134Z" fill="black"/>
<path fill-rule="evenodd" clip-rule="evenodd" d="M22.0005 17.1999C21.6524 17.043 21.0274 17.1799 20.8005 17.2343C20.2729 17.3609 19.7422 17.6344 19.5782 18.0629C19.3934 18.5458 19.7622 18.6978 19.8164 18.673C20.1816 18.6987 20.6165 18.469 20.9992 18.4098C21.3099 18.3612 21.6376 18.3189 21.9287 18.1537C22.1412 18.2707 22.6212 18.3339 23.0086 18.4361C23.3385 18.5232 23.4815 18.712 23.7873 18.6718C24.1539 18.6237 24.0038 17.8524 23.5953 17.54C23.1481 17.198 22.3919 17.0594 22.0005 17.1999ZM22.6897 20.4977C22.3852 20.572 22.3647 19.9043 22.3306 19.6684C22.304 19.4841 22.1536 19.0088 21.7726 19.0293C21.3915 19.0498 21.2482 19.448 21.2675 19.6957C21.2801 19.8563 21.428 20.6698 20.9558 20.7727C20.6547 20.7717 20.3065 20.7513 19.9899 20.6929C19.6173 20.6085 19.1328 20.313 19.0049 20.895C18.9588 21.1045 20.6 21.7269 21.3283 21.7832C22.0669 21.9329 22.9311 21.7027 23.457 21.1374C23.5766 21.0088 23.9135 20.4751 23.9376 20.3443C23.988 20.0695 23.8712 19.8927 23.5314 19.9896C23.2913 20.1178 22.8855 20.4499 22.6897 20.4977Z" fill="black"/>
<path fill-rule="evenodd" clip-rule="evenodd" d="M24.1623 16.5129C23.6925 16.7392 23.0372 16.4054 22.7213 16.0557C22.6064 15.9284 22.5177 15.5642 22.5619 15.3332C22.6817 14.7075 23.1318 14.3321 23.6069 14.2038C24.2656 14.0261 24.9284 14.4764 24.8511 15.0079C24.7779 15.5116 24.6669 16.2423 24.1623 16.5129ZM20.965 15.3111C20.9274 15.9929 20.3801 16.5897 19.7259 16.7665C18.672 17.0607 18.1511 16.3195 17.9152 15.521C17.8917 15.4417 17.8366 15.1995 17.9845 14.9918C18.5661 14.1748 19.9812 14.314 20.688 14.5383C20.8949 14.7363 20.9795 15.0219 20.965 15.3111ZM24.6726 14.1351C24.6723 14.1355 24.6719 14.1359 24.6716 14.1363C24.6692 14.1348 24.6668 14.1333 24.6644 14.1319C24.6671 14.133 24.67 14.134 24.6726 14.1351ZM25.5544 14.214C25.4932 13.5198 23.316 13.7856 23.0614 13.8425C22.3667 14.0469 21.7667 14.603 20.99 14.3585C20.1852 13.461 17.475 13.7184 16.9069 14.1756C16.7993 14.1334 16.6686 14.156 16.53 14.1959C15.8185 14.1701 12.5701 14.4155 13.2346 15.324C13.3354 15.394 13.4362 15.3228 13.4389 15.1786C16.9026 13.9279 16.5668 15.0994 16.9776 14.9626C17.0403 14.9807 17.1058 14.9921 17.163 15.0041C17.4809 15.1064 17.5889 15.0748 17.6308 15.4319C17.9185 18.1888 21.5885 17.2373 21.2874 14.9759C21.5855 14.9595 21.8462 14.8306 22.1613 14.9564C22.3801 17.0868 24.0938 17.1727 24.6095 16.4343C24.9984 15.9217 24.8442 15.1482 25.3787 14.745C25.5897 14.9216 25.6033 14.3254 25.5544 14.214Z" fill="black"/>
</svg>
