<svg width="36" height="48" viewBox="0 0 36 48" fill="none" xmlns="http://www.w3.org/2000/svg">
<path fill-rule="evenodd" clip-rule="evenodd" d="M25.2562 26.8324C24.9844 26.7355 24.7225 26.6235 24.4838 26.4588C23.7957 25.9465 23.3471 25.1755 22.9232 24.4449C22.3261 23.3825 21.9007 22.2503 21.6066 21.0692C21.4803 20.5618 21.4374 19.9735 21.1503 19.5236C20.4995 18.5816 18.5913 18.7037 17.578 18.869C16.8994 18.9891 16.7592 19.7488 16.605 20.3109C16.4767 20.778 16.3927 21.2504 16.3222 21.729C16.1544 21.8394 15.965 21.929 15.7845 22.007C13.8171 22.6106 13.4713 23.7294 12.7198 25.4578C11.4506 27.9698 8.00666 28.9534 7.48645 31.9264C7.15127 33.8891 8.10441 35.7356 9.0871 37.3673C10.0023 39.1496 11.2799 40.005 13.3146 39.5839C15.2231 39.1556 17.0572 38.4392 18.9321 37.8856C19.8402 37.6622 20.7468 37.0813 21.702 37.2839C23.6702 37.7261 25.6925 37.934 27.7096 37.8766C30.5416 37.9911 30.5412 35.2719 30.2505 33.1662C30.0469 29.8891 28.3946 27.7849 25.2562 26.8324Z" fill="#D08B5B"/>
<path fill-rule="evenodd" clip-rule="evenodd" d="M25.445 31.575C25.6817 31.7315 25.8807 31.9689 26.0405 32.2187C25.3734 32.1493 24.7075 32.0692 24.0431 31.9781C24.1301 31.9225 24.2179 31.8681 24.3077 31.8168C24.6353 31.6321 25.0792 31.333 25.445 31.575ZM14.3625 33.5475C14.2403 33.4996 14.193 33.3132 14.1454 33.2063C13.996 32.8712 13.8597 32.5304 13.7179 32.192C14.2564 32.0385 14.78 31.8681 15.3378 31.7862C15.9376 31.6983 16.5462 31.677 17.1516 31.6968C18.3777 31.7368 19.5924 31.9373 20.7978 32.1522C22.0019 32.3669 23.2058 32.5732 24.4183 32.7351C25.6062 32.8937 26.7978 33.0097 27.9917 33.1116C28.2236 33.1314 28.6104 33.2149 28.7969 33.0323C28.9446 32.8876 28.9494 32.6209 28.7646 32.5033C28.6495 32.43 28.4827 32.429 28.3512 32.4121C28.1855 32.3907 28.0193 32.3766 27.8526 32.3655C27.7847 32.361 27.7168 32.3569 27.6489 32.3528C28.1941 32.1471 28.7634 32.035 29.3544 32.0663C29.3878 32.2694 29.5384 32.4783 29.6208 32.6459C29.7647 32.9383 29.8769 33.2343 29.9506 33.5523C30.1045 34.217 30.1112 34.9068 30.0677 35.5847C30.0278 36.15 29.942 36.7752 29.4988 37.1755C29.1632 37.4786 28.6898 37.5908 28.2506 37.6261C27.7401 37.6671 27.2217 37.6233 26.7155 37.5549C26.0055 37.4588 25.2922 37.3318 24.5962 37.1616C23.2481 36.832 21.956 36.3075 20.7639 35.5963C20.1825 35.2495 19.6277 34.8594 19.0384 34.5258C18.4378 34.1858 17.7988 33.9221 17.1279 33.7583C16.377 33.5751 15.592 33.4969 14.8202 33.5421C14.6863 33.5499 14.4928 33.5985 14.3625 33.5475ZM13.4924 33.2072C13.5713 33.4634 13.6316 33.7558 13.8001 33.9711C13.9669 34.1844 14.2186 34.2596 14.4793 34.2786C14.7937 34.3014 15.1117 34.2868 15.4268 34.2985C16.0729 34.3225 16.7102 34.4275 17.328 34.6201C17.9036 34.7996 18.438 35.0796 18.9527 35.3902C19.4287 35.6775 19.8907 35.9859 20.3669 36.2722C20.2402 36.3303 20.1149 36.3932 19.9889 36.4479C19.7247 36.5627 19.4588 36.6735 19.1918 36.7815C18.6652 36.9944 18.1363 37.2021 17.6021 37.3951C16.5249 37.7843 15.4299 38.1243 14.3218 38.4139C13.7932 38.5521 13.2572 38.7134 12.7081 38.7364C12.2213 38.7568 11.7703 38.6191 11.3776 38.3295C10.5631 37.7288 9.91515 36.8618 9.39134 36.0066C9.08013 35.4985 8.80855 34.9647 8.58392 34.4127C8.4703 34.1335 8.36727 33.8501 8.27453 33.5634C8.23102 33.4287 8.18977 33.2933 8.15071 33.1573C8.13353 33.0975 8.11706 33.0375 8.10076 32.9775C8.93359 32.7232 9.77631 32.4937 10.6388 32.3663C11.0993 32.2983 11.566 32.2638 12.0315 32.2688C12.2626 32.2713 12.4935 32.2838 12.7234 32.3077C12.8471 32.3205 12.9703 32.337 13.093 32.3575C13.1437 32.3659 13.1958 32.3784 13.2481 32.3876C13.328 32.6613 13.4085 32.9347 13.4924 33.2072ZM30.7081 32.119C30.753 32.0282 30.7719 31.9388 30.788 31.8399C30.8003 31.7645 30.8328 31.6583 30.8043 31.5604C30.7724 31.4507 30.6854 31.3526 30.6229 31.2591C30.554 31.1557 30.4851 31.0522 30.4163 30.9487C30.2787 30.7417 30.1414 30.5345 30.0043 30.3272C29.4444 29.4805 28.8884 28.6314 28.3315 27.7828C27.8373 27.0297 27.3514 26.2699 26.8422 25.5269C26.4067 24.8916 25.9321 24.2668 25.336 23.7727C24.5824 23.148 23.6849 22.8537 22.7476 22.6241C22.6452 22.5178 22.5085 22.4597 22.3623 22.4715C22.1558 22.2372 21.9916 22.0735 21.9172 21.7756C21.8816 21.6329 21.8928 21.2319 21.7538 21.1474C21.5888 21.0471 21.5026 21.1799 21.4571 21.3295C21.3048 21.8302 21.4796 22.5033 21.8818 23.0048C21.7123 23.5907 21.4877 24.4233 21.0869 24.8927C20.6577 25.3952 20.0642 25.5517 19.4238 25.562C18.2026 25.5816 16.9827 25.1276 16.0512 24.3407C15.768 24.1015 15.5051 23.8344 15.2672 23.5503C15.0888 23.3372 14.8777 23.0083 14.7381 22.7596C14.7381 22.6628 14.6238 22.5614 15.7879 22.4832C16.952 22.4049 17.0403 20.8103 17.0661 20.5933C17.0872 20.4171 17.1766 20.1435 17.0525 19.9999C16.9998 19.9388 16.8917 19.929 16.8249 19.9705C16.699 20.0487 16.6576 20.2488 16.618 20.3846C16.5625 20.575 16.3812 21.7563 16.0377 21.893C15.8768 21.957 15.6923 21.9582 15.5222 21.9701C15.3121 21.9848 15.1015 21.9955 14.8923 22.02C14.8151 22.029 14.7309 22.054 14.6547 22.0547C14.6052 22.0551 14.5541 22.0311 14.5062 22.0142C14.3446 21.957 14.1831 21.9999 14.0166 22.0223C12.5444 22.2202 11.0285 22.6719 9.77284 23.4847C8.66605 24.2011 7.8863 25.2314 7.37177 26.436C6.8468 27.6654 6.54589 28.9947 6.29371 30.3034C6.20924 30.7419 6.13547 31.1824 6.07209 31.6244C6.01083 32.0515 5.93421 32.4882 5.91587 32.9196C5.90861 33.0904 5.94939 33.2489 6.01215 33.4049C6.08282 33.5804 6.24986 33.6496 6.41008 33.7315C6.76179 33.9115 7.13281 34.0511 7.51506 34.1499C7.74858 34.5749 7.94511 35.0165 8.10304 35.4748C8.04445 35.5909 8.04323 35.7644 8.03196 35.8772C8.00401 36.1583 7.99206 36.4409 7.98955 36.7232C7.98451 37.2892 8.01853 37.8546 8.0452 38.4196C8.07224 38.9928 8.16213 41.254 8.17678 41.5302C8.18817 41.7447 8.17284 42.0447 8.2858 42.2352C8.45938 42.5279 8.8878 42.518 9.08623 42.2807C14.0166 43.341 23.2842 43.0216 27.0167 42.4881C27.5024 42.4187 27.3499 42.4957 27.4734 42.373C27.566 42.2808 27.6449 42.123 27.6706 41.9961C27.7048 41.8268 27.6495 41.6736 27.5526 41.5365C27.4507 41.3925 27.4322 41.1592 27.3943 40.988C27.3049 40.5831 27.2604 38.8049 27.2186 38.6079C27.2055 38.5465 27.1929 38.4816 27.1777 38.4166C27.8624 38.4815 28.5758 38.4815 29.2271 38.2524C29.5965 38.1225 29.941 37.9185 30.2061 37.6271C30.5272 37.2743 30.7058 36.8302 30.7977 36.3667C30.9162 35.7689 30.9414 35.1497 30.9181 34.5421C30.8857 33.8239 30.7667 33.0956 30.4711 32.4363C30.5684 32.3459 30.6499 32.2369 30.7081 32.119Z" fill="black"/>
<path fill-rule="evenodd" clip-rule="evenodd" d="M19.773 8.92912C24.4739 9.07832 24.7575 11.3168 24.7575 15.0709C24.7575 18.8249 22.3188 21.1905 21.4209 21.6036C20.5229 22.0166 18.1585 23.7909 16.0247 22.9733C13.891 22.1556 14.5089 18.7013 14.5089 17.2171C14.5089 15.7328 15.072 8.77992 19.773 8.92912Z" fill="#D08B5B"/>
<path fill-rule="evenodd" clip-rule="evenodd" d="M15.2295 14.8865C16.2015 10.9132 17.9759 8.9746 20.5527 9.07079C24.4179 9.21509 24.3771 13.1646 24.1346 12.8045C23.9762 12.5692 22.867 11.7473 20.807 10.3388L20.6797 10.2518L15.2295 14.8865Z" fill="#9FD8E5"/>
<path fill-rule="evenodd" clip-rule="evenodd" d="M21.68 20.3701C20.8168 20.8532 19.8283 20.872 18.8997 20.568C18.3428 20.3861 17.8322 20.1049 17.3543 19.7686C16.9386 19.4758 16.5675 19.1511 16.1999 18.8064C15.8973 18.1373 15.6278 17.4694 15.5015 16.7414C15.3885 16.088 15.3735 15.4094 15.5047 14.7572C16.4748 13.9572 17.439 13.1507 18.4018 12.3416C18.8922 11.9295 19.3838 11.5197 19.8813 11.1164C20.134 10.9116 20.3842 10.7037 20.6359 10.498C20.6775 10.4642 20.7187 10.4303 20.7603 10.3965C21.2799 10.7779 21.8371 11.1048 22.3531 11.4924C22.6233 11.6956 22.8859 11.912 23.1361 12.1396C23.2673 12.2589 23.3954 12.382 23.5203 12.5081C23.6346 12.6234 23.7448 12.7887 23.907 12.8322C23.9291 12.8382 23.95 12.8394 23.9697 12.8366C24.1865 14.7391 24.3404 16.7934 23.4119 18.5211C23.0068 19.2748 22.4325 19.9486 21.68 20.3701ZM16.0641 21.0693C15.9452 20.9601 16.1224 20.7834 16.2407 20.8921C16.9843 21.5749 17.9563 21.9368 18.9381 22.1043C19.0965 22.1314 19.029 22.3727 18.8717 22.3459C17.8466 22.171 16.8391 21.7809 16.0641 21.0693ZM15.1719 22.1169C15.03 22.0405 15.1563 21.8244 15.298 21.9006C15.8772 22.212 16.5126 22.3738 17.1571 22.4831C17.3156 22.51 17.248 22.7513 17.0907 22.7246C16.4243 22.6117 15.7705 22.4387 15.1719 22.1169ZM17.5295 11.5641C18.0102 11.1317 18.5268 10.7202 19.0724 10.373C19.6246 10.0217 20.2277 9.81163 20.8795 9.80662C20.8339 9.84325 20.7905 9.88396 20.7465 9.92181C20.6235 10.0274 20.5007 10.1335 20.3779 10.2393C20.1324 10.4513 19.8863 10.6629 19.644 10.8784C19.1667 11.303 18.6879 11.7254 18.2116 12.1509C17.2962 12.9687 16.4005 13.8044 15.524 14.6642C15.5287 14.6433 15.5337 14.6223 15.5387 14.6013C15.8289 13.3864 16.6181 12.3842 17.5295 11.5641ZM21.2974 9.85954C21.3006 9.85014 21.3028 9.84103 21.304 9.8323C22.5549 9.99574 23.5996 10.9184 23.945 12.1334C23.9151 12.1753 23.8985 12.2251 23.9047 12.278C23.9079 12.3046 23.911 12.3316 23.9141 12.3582C23.8713 12.3156 23.8273 12.2758 23.7898 12.2379C23.6652 12.1114 23.5375 11.9884 23.4063 11.8684C23.138 11.6233 22.8594 11.3941 22.5658 11.1802C22.0552 10.8083 21.5023 10.4663 20.8936 10.2879C20.9336 10.255 20.9736 10.2221 21.0139 10.1896C21.1341 10.0915 21.2456 10.0108 21.2974 9.85954ZM23.54 8.56044C22.772 7.71911 21.7085 7.1029 20.5885 6.88873C19.519 6.68396 18.4118 6.81891 17.4015 7.21687C15.2873 8.04975 13.6191 9.88117 12.838 12.0034C12.3826 13.2399 12.2333 14.5953 12.3702 15.9042C12.5063 17.207 12.8977 18.5525 13.6098 19.6609C13.675 19.7623 13.7466 19.8597 13.8215 19.9539C13.7881 20.3366 13.6607 20.7117 13.4602 21.0379C13.4494 21.0554 13.438 21.0726 13.4268 21.0898C13.2215 21.2439 13.0085 21.3886 12.8006 21.5379C12.6204 21.6673 12.442 21.8 12.2726 21.9433C12.1127 22.0786 11.9269 22.2293 11.8186 22.4119C11.7299 22.5614 11.6937 22.7648 11.8148 22.9075C11.9607 23.0793 12.208 23.0187 12.4057 23.0187C12.4227 23.0187 12.4396 23.0191 12.4565 23.0193C12.5158 23.0567 12.577 23.0905 12.6362 23.122C13.235 23.4401 13.8359 23.7548 14.4374 24.0679C15.6356 24.6919 16.8287 25.3411 18.0514 25.9156C18.618 26.182 19.2245 26.415 19.8592 26.4141C20.4545 26.4131 20.9926 26.1761 21.4573 25.8157C21.9871 25.4052 22.43 24.8839 22.8597 24.3729C23.0315 24.1684 23.1998 23.9615 23.365 23.7517C23.6824 23.6455 23.9972 23.6145 24.2802 23.8193C24.5072 23.9837 24.8064 23.7601 24.8118 23.5134C24.8136 23.4258 24.8099 23.3393 24.8005 23.2541C24.7437 22.7281 24.4869 22.2522 24.1977 21.8107C24.0397 21.5693 23.8732 21.3322 23.7058 21.0974C23.6664 21.042 23.6277 20.9866 23.5902 20.9302C24.2627 19.9377 24.7961 18.8371 25.1241 17.687C25.4686 16.4768 25.5857 15.2219 25.5089 13.9679C25.3908 12.046 24.8649 10.012 23.54 8.56044Z" fill="black"/>
<path fill-rule="evenodd" clip-rule="evenodd" d="M21.2085 19.0034C20.9981 18.9175 20.8103 18.7743 20.6731 18.5913C20.6254 18.5277 20.613 18.4606 20.623 18.3991C20.6343 18.33 20.6751 18.2674 20.7308 18.2254C20.7867 18.1833 20.8566 18.1625 20.9242 18.1731C20.9829 18.1823 21.0414 18.2145 21.0876 18.2812L21.0973 18.2946C21.1789 18.405 21.2852 18.4956 21.4064 18.554C21.5232 18.6103 21.6538 18.6366 21.7889 18.6213C22.0463 18.5922 22.2237 18.4529 22.4123 18.2638C22.4357 18.24 22.459 18.2153 22.4825 18.1903C22.4974 18.1676 22.518 18.153 22.5408 18.1454C22.5662 18.1369 22.595 18.1374 22.6213 18.1466C22.6466 18.1554 22.6693 18.1722 22.6845 18.1946C22.699 18.2158 22.7072 18.242 22.7045 18.2722C22.6873 18.4682 22.5849 18.6431 22.4394 18.7804C22.2778 18.933 22.0636 19.0385 21.862 19.0755C21.6398 19.1163 21.4134 19.087 21.2085 19.0034ZM21.9668 15.98C22.2031 16.1237 22.5632 16.4588 22.309 16.8151C22.0097 17.1293 21.5788 16.7691 21.3664 16.6062C21.1695 16.4799 20.9483 16.8047 21.131 16.9521C22.6654 18.0885 23.2881 16.0176 22.0863 15.811C21.954 15.7883 21.9048 15.9355 21.9668 15.98ZM19.2171 14.658C19.2432 14.3338 19.7369 14.2601 19.786 14.581C19.83 14.8684 19.7782 15.1325 19.6488 15.3913C19.5251 15.6385 19.2143 15.5232 19.1908 15.298C19.1593 14.9963 19.2009 14.8597 19.2171 14.658ZM22.975 14.5145C23.0438 14.4243 23.1432 14.3627 23.2622 14.3975C23.6342 14.5063 23.5246 15.0346 23.3939 15.2917C23.323 15.4314 23.0935 15.4668 22.9898 15.3438C22.8208 15.1433 22.7399 14.7429 22.9547 14.5454C22.9605 14.5352 22.967 14.5249 22.975 14.5145ZM19.6435 13.2391L19.7023 13.2288C19.8841 13.1974 20.1101 13.1672 20.2387 13.3134C20.3069 13.3909 20.3304 13.535 20.2387 13.6092C20.0774 13.7398 19.8992 13.6892 19.7059 13.7002C19.5467 13.7094 19.3936 13.7357 19.2402 13.7796C18.9037 13.8758 18.6295 14.0515 18.3421 14.2443C18.3044 14.2696 18.2659 14.2214 18.2839 14.1861C18.4498 13.861 18.7713 13.5939 19.0934 13.4312C19.2653 13.3443 19.4534 13.2722 19.6435 13.2391ZM22.6359 13.0935L22.6809 13.1027C23.1703 13.2051 23.8062 13.4095 24.0379 13.8904C24.0468 13.9584 24.0374 13.973 24.0298 13.9825L24.0273 13.9857C24.0211 13.9938 24.0161 14.005 23.9866 14.0143C23.9784 14.0123 23.9702 14.0103 23.9618 14.0081C23.8556 13.9802 23.7715 13.9419 23.6902 13.902L23.6019 13.8586C23.4996 13.8083 23.3963 13.76 23.2869 13.7242C23.0533 13.648 22.8131 13.5943 22.5691 13.5657C22.5162 13.5595 22.4653 13.5416 22.4252 13.511C22.387 13.482 22.3579 13.4418 22.3446 13.3883C22.3274 13.3192 22.3324 13.2668 22.3695 13.2044C22.3973 13.1575 22.4373 13.1251 22.4831 13.1064C22.5298 13.0874 22.583 13.0829 22.6359 13.0935Z" fill="black"/>
<path fill-rule="evenodd" clip-rule="evenodd" d="M24.7675 16.17C24.3875 16.5628 23.7531 16.6756 23.2476 16.4649C21.9494 15.9223 22.5848 14.2299 23.586 13.7755C23.711 13.7443 23.8781 13.6703 24.0304 13.6535C24.0442 13.6467 24.0742 13.6663 24.1105 13.6478C25.2144 13.7711 25.4658 15.4855 24.7675 16.17ZM20.5804 16.2706C20.1542 16.8361 19.3618 17.0106 18.7144 16.7477C17.4355 16.2438 17.8891 14.7431 18.7641 14.1548C20.6126 13.4599 21.3758 15.2279 20.5804 16.2706ZM17.8079 15.0176C17.8067 15.017 17.8055 15.0167 17.8043 15.0162C17.8111 15.0132 17.8178 15.0102 17.8246 15.0072C17.8224 15.0129 17.82 15.0186 17.8179 15.0243C17.8146 15.022 17.8117 15.0194 17.8079 15.0176ZM25.6474 14.4063C25.543 14.4065 25.3923 14.4237 25.3059 14.4961C25.0929 13.7774 24.3066 13.1123 23.6228 13.5973C23.0843 13.7705 22.6847 14.1547 22.4576 14.6655C22.0481 14.4219 21.4042 14.5259 21.0491 14.8482C20.8166 14.0794 20.2442 13.8103 19.563 13.7705C18.8195 13.6487 18.0784 14.3711 17.8471 14.9506C17.6549 14.9287 17.3676 14.8675 17.1867 14.9862C16.0128 14.6782 13.9604 14.5084 13.7217 14.6795C13.5516 14.7448 13.4583 15.1464 13.6958 15.1681C13.9029 15.1387 13.6717 14.8738 13.8804 14.8449C14.9922 14.776 16.0715 15 17.1716 15.0939C17.2698 15.2261 17.5871 15.2703 17.7564 15.2172C17.4898 16.2003 18.0654 16.8691 18.9278 17.0694C20.2633 17.3763 21.4251 16.1812 21.0759 14.9381C21.4804 14.7368 21.9458 14.7455 22.3865 14.8515C21.6501 17.5627 26.0149 17.4411 25.3332 14.589C25.7869 14.8147 25.8854 14.4518 25.6474 14.4063Z" fill="black"/>
</svg>
