<svg width="39" height="48" viewBox="0 0 39 48" fill="none" xmlns="http://www.w3.org/2000/svg">
<path fill-rule="evenodd" clip-rule="evenodd" d="M20.407 19.0902C22.0864 18.9699 24.3889 19.3029 24.8746 21.2185C25.0252 21.9155 25.322 22.2215 25.8207 22.6774C28.9859 26.7302 17.9425 27.4114 17.3748 23.4594C16.1788 23.8951 14.8769 23.9874 13.6802 24.4278C13.0311 24.6677 12.4426 25.0462 11.8786 25.4419C9.57878 27.076 7.31152 28.7567 5.01991 30.4025C5.9067 30.811 7.59271 32.3708 6.9057 33.4189C6.74566 33.623 6.5081 33.7638 6.29796 33.913L6.18715 33.9922C5.94876 34.1631 5.54746 34.4544 5.32554 34.6127L5.28462 34.6425C5.26857 34.6541 5.25047 34.6671 5.23412 34.6788C6.83443 37.0194 8.70733 39.1791 10.7848 41.1073C10.9617 41.2718 10.8893 41.6397 10.6332 41.6825L10.3282 41.7273C9.34336 41.8708 8.33978 41.9999 7.3473 41.922C6.38069 41.8168 5.79822 40.9608 5.13744 40.3408C3.81791 38.9915 2.58958 37.5523 1.47077 36.0319L1.44748 35.9998C1.09927 35.5238 0.637085 35.0373 0.60326 34.4226C0.54157 34.2378 0.703917 33.973 0.859911 33.847L0.913166 33.7701C1.74983 32.5663 2.69673 31.4055 3.88307 30.5337C3.87866 30.4038 3.93869 30.2673 4.05756 30.1812L9.01556 26.5918C10.2948 25.7111 11.4838 24.6761 12.8704 23.9649C14.2883 23.282 15.8883 23.2551 17.3413 22.6852C17.3721 22.2744 18.2354 22.1695 18.2081 22.233C19.119 21.683 19.588 21.0285 19.7326 20.4271C19.8772 19.8256 19.6975 19.2771 20.407 19.0902ZM32.6678 31.9769C34.2008 29.6692 35.6622 32.2225 36.3004 33.7613C37.0545 35.8672 35.4929 38.4578 34.484 40.2732C34.1124 40.7774 33.6237 41.8409 32.9688 41.918C31.3187 41.9112 29.6663 41.795 28.0153 41.7604C26.9492 41.4958 28.4449 39.893 29.4782 40.4785C29.7912 40.5956 29.9476 40.9512 30.2529 41.0653C30.3641 41.089 30.3718 41.0394 30.417 40.9286L30.4234 40.9131C30.5041 40.7214 30.5823 40.5286 30.6617 40.3364C31.334 38.6803 32.0446 37.0389 32.7512 35.3982C32.9022 35.0419 32.6904 34.7484 32.4152 34.5364C32.2045 34.3629 31.2986 33.9393 32.1521 34.1257C31.8235 33.3626 32.2184 32.588 32.6678 31.9769ZM28.8615 28.8179C29.0091 28.7995 29.1987 28.9483 29.2214 29.0924C29.4097 30.2875 29.1999 31.4689 28.9484 32.6379L28.9022 32.8519C28.8094 33.2783 28.7057 33.713 28.4744 34.0867C28.2383 34.4681 27.8812 34.7555 27.4711 34.9303C26.1558 35.4546 24.52 34.9361 23.5524 33.9557C22.9334 33.1075 23.4776 32.0419 23.5814 31.1122C23.4832 30.8617 23.447 30.572 23.3903 30.3137L23.3833 30.2829L23.1627 29.3194C23.1141 29.1068 23.2689 28.816 23.5233 28.8452C25.2971 29.0487 27.0899 29.0396 28.8615 28.8179Z" fill="#D08B5B"/>
<rect x="23.0625" y="28.8691" width="6.22848" height="6.26223" fill="#FDEA6B"/>
<path fill-rule="evenodd" clip-rule="evenodd" d="M35.0558 31.6755C35.0504 31.6518 35.0789 31.6336 35.0974 31.6514C35.4094 31.9523 35.6298 32.3368 35.8717 32.6931C36.1021 33.0325 36.3528 33.3588 36.5246 33.7333C36.6842 34.0815 36.7872 34.4347 36.8179 34.8173C36.8486 35.1971 36.8088 35.5779 36.7418 35.952C36.6101 36.6891 36.3284 37.387 36.0191 38.0649C35.7185 38.7239 35.3788 39.3642 35.02 39.9928L34.8915 40.2172C34.7346 40.4904 34.5761 40.7632 34.4063 41.0279C34.195 41.3573 34.0022 41.6973 33.7237 41.9722C33.5259 42.1679 33.1531 41.9722 33.2432 41.6926C33.2824 41.5708 33.313 41.4562 33.3738 41.3431C33.4198 41.257 33.4717 41.1734 33.5206 41.0886C33.6182 40.9189 33.7149 40.7486 33.8126 40.5789C34.0176 40.2222 34.2335 39.8722 34.4367 39.5143C34.7891 38.8937 35.1218 38.2615 35.416 37.6109L35.4506 37.5341C35.7214 36.9316 35.9779 36.3075 36.0968 35.6558C36.222 34.9692 36.1099 34.322 35.8661 33.6766C35.74 33.3428 35.5982 33.0166 35.4508 32.6916L35.4224 32.6295C35.2801 32.3193 35.1291 32.0107 35.0558 31.6755ZM19.9024 19.7986C19.9052 19.7864 19.9259 19.7854 19.9277 19.7986C20.0154 20.3816 19.8204 20.9984 19.5027 21.4834C19.3293 21.7483 19.1155 21.9875 18.8636 22.1798L18.844 22.1946C18.5866 22.3871 18.2388 22.573 17.9193 22.4482C17.9093 22.4443 17.8999 22.44 17.8911 22.435C17.9271 22.4907 17.9603 22.5493 17.9941 22.6078C18.0946 22.7822 18.1847 22.9629 18.2827 23.1389C18.458 23.4535 18.6667 23.735 18.9306 23.9814C19.9856 24.9666 21.4671 25.2007 22.8584 25.1895L22.9567 25.1886C23.5678 25.1843 24.3671 25.2155 24.8389 24.773C25.0924 24.5354 25.232 24.1975 25.3581 23.8803C25.4821 23.5694 25.5669 23.2484 25.6698 22.9322C25.4548 22.7848 25.2576 22.6047 25.1027 22.3943C24.9412 22.1751 24.8191 21.9284 24.7487 21.665L24.7383 21.6257C24.6839 21.4157 24.6291 21.1379 24.7168 20.9396C24.7268 20.9167 24.7644 20.9183 24.775 20.9396C24.8223 21.0344 24.8313 21.1415 24.8605 21.243C24.8943 21.361 24.9324 21.4784 24.9828 21.5902C25.0802 21.8069 25.2088 22.0129 25.3631 22.1933C25.4905 22.3426 25.6285 22.4798 25.7863 22.595C25.8792 22.4344 26.0949 22.4128 26.2755 22.4657C26.5176 22.5364 26.7563 22.6272 26.9897 22.7232L27.0364 22.7425C27.267 22.8383 27.5277 22.9263 27.7437 23.0568C27.8749 23.1194 28.0007 23.1824 28.119 23.2381C28.7085 23.5152 29.2893 23.8091 29.8674 24.1088L29.9913 24.1731C30.2335 24.2993 30.4736 24.4267 30.6842 24.6027C30.8986 24.7818 31.0652 25.0266 31.2216 25.2561C31.5794 25.7809 31.9165 26.3207 32.2702 26.8483C32.9844 27.9129 33.6986 28.9775 34.417 30.0395C34.5907 30.2966 34.7866 30.5474 34.9425 30.8154C35.0918 31.0716 35.0877 31.3346 35.0586 31.6204L35.0531 31.6729C34.9973 32.1973 34.9014 32.7009 34.6073 33.1506C34.1443 33.8576 33.4151 34.2978 32.6436 34.6009C32.7378 34.6711 32.8263 34.7468 32.9387 34.7951C33.1115 34.869 33.2958 34.9072 33.4827 34.9225C33.6821 34.9385 33.9068 34.8887 34.0683 35.0243C34.1331 35.0784 34.1349 35.2087 34.0683 35.2629C33.913 35.3896 33.7123 35.3533 33.5231 35.3321L33.5118 35.3308C33.3362 35.3114 33.1631 35.2788 32.9982 35.2143C32.9575 35.1983 32.9171 35.1805 32.878 35.1608C32.8792 35.1642 32.8799 35.1683 32.8792 35.1727C32.8511 35.3884 32.79 35.5924 32.7255 35.7985L32.6846 35.9292C32.6013 36.1959 32.5174 36.4621 32.431 36.7282C32.2666 37.2349 32.0876 37.7367 31.9079 38.238L31.7528 38.6705C31.5935 39.1142 31.4321 39.5573 31.2539 39.9937C31.1437 40.2629 31.0329 40.5322 30.9224 40.8012C30.8144 41.0639 30.7246 41.3475 30.5907 41.5977C30.4805 41.8038 30.18 41.6562 30.2282 41.4446C30.2914 41.1669 30.4107 40.8913 30.5018 40.6211C30.5944 40.3468 30.6852 40.0722 30.7794 39.7986C30.9432 39.3232 31.1247 38.8541 31.3071 38.3854L31.4879 37.9209C31.6652 37.4657 31.8446 37.011 32.0364 36.5617L32.0573 36.5124C32.2565 36.0425 32.4622 35.514 32.8241 35.1499C32.8288 35.1448 32.8354 35.1423 32.842 35.1417C32.7531 35.0935 32.6698 35.0349 32.5966 34.9657L32.593 34.9621C32.5641 34.9314 32.4445 34.7803 32.406 34.6899C32.3559 34.7077 32.3058 34.7249 32.2558 34.7418C32.1684 34.7713 32.0961 34.75 32.0451 34.7033L31.9479 34.7635C31.844 34.8269 31.7323 34.8872 31.6176 34.8902C31.473 34.894 31.3594 34.8142 31.2821 34.6964C31.2126 34.5912 31.1713 34.4776 31.0833 34.3833C30.9968 34.2907 30.8967 34.2125 30.7945 34.1379L30.6739 34.0501C30.4528 33.8886 30.2385 33.7255 30.0605 33.5122C29.9709 33.4045 29.8511 33.2768 29.7966 33.1474C29.786 33.1225 29.7794 33.099 29.7781 33.0761C29.7662 33.1569 29.754 33.238 29.7418 33.3187C29.5709 34.4557 29.4329 35.6004 29.3888 36.7501C29.3672 37.3171 29.3575 37.8848 29.3828 38.4522C29.3954 38.7356 29.416 39.0186 29.4445 39.3011C29.4586 39.4426 29.4733 39.5838 29.4905 39.7247L29.4945 39.7573C29.4995 39.8005 29.5027 39.8423 29.499 39.8819C29.6367 39.9498 29.7159 40.1214 29.7709 40.2554C29.8129 40.3575 29.7803 40.4567 29.7127 40.5284C29.7935 40.602 29.8655 40.6884 29.9259 40.7874C29.9381 40.8074 29.9118 40.8231 29.8961 40.8106C29.7969 40.7317 29.6902 40.6668 29.5788 40.6171C29.5202 40.6393 29.4564 40.6452 29.3975 40.629C29.3337 40.6114 29.2786 40.5688 29.2389 40.5147C28.9224 40.4627 28.5935 40.5263 28.3087 40.7245C28.2495 40.7658 28.196 40.8124 28.145 40.8631C28.1362 40.872 28.1271 40.8832 28.118 40.8942L28.1802 40.918C28.2059 40.9278 28.2271 40.9355 28.2351 40.9371C28.2894 40.9481 28.3444 40.954 28.3995 40.9588L28.4821 40.9656C28.7991 40.9919 29.1152 41.0006 29.4101 41.1334C29.472 41.1612 29.4504 41.2567 29.3919 41.2727C29.1766 41.3311 28.963 41.3266 28.7438 41.311L28.6968 41.3075C28.493 41.2918 28.2742 41.2928 28.0755 41.2364C28.1231 41.3666 28.0583 41.5367 27.8595 41.5633C27.2626 41.6428 26.662 41.6053 26.0645 41.5526C25.4611 41.4994 24.858 41.449 24.2529 41.4174C22.2959 41.3144 20.3359 41.3342 18.3772 41.3621L17.2703 41.3782C16.3875 41.3906 15.5046 41.4003 14.6219 41.3936L14.2087 41.3897C14.0341 41.388 13.8594 41.3859 13.6849 41.3808L13.5803 41.3773C13.3725 41.3698 13.0974 41.4011 12.9168 41.278C12.7678 41.1766 12.7346 40.9906 12.8245 40.8407C12.8504 40.7974 12.8861 40.7589 12.9234 40.7213C12.9997 40.0685 13.0426 39.4125 13.0864 38.7569C13.2385 36.4624 13.1497 34.1798 12.7988 31.9085C11.8573 32.1963 10.9303 32.5573 10.027 32.9446C9.53839 33.154 9.05232 33.3713 8.57188 33.5993C8.13338 33.8075 7.69301 34.0677 7.22446 34.203C7.18187 34.2408 7.12232 34.2588 7.0695 34.242L7.06265 34.2396H7.06234C7.01414 34.2509 6.96061 34.244 6.90803 34.2124C6.89739 34.2059 6.88675 34.1994 6.87611 34.1928L6.86014 34.1826C6.6952 34.0787 6.52931 33.9506 6.41257 33.794C6.27079 33.9256 6.11836 34.0461 5.96844 34.1682C5.80568 34.301 5.64356 34.4344 5.48268 34.569C5.41883 34.6225 5.34841 34.6736 5.29207 34.7353L5.28389 34.7443C5.28258 34.7458 5.28132 34.7473 5.28018 34.7487C5.52399 34.9065 5.73745 35.1461 5.92869 35.3543C6.13404 35.5777 6.33229 35.8083 6.52893 36.0398L6.71928 36.2644C8.06533 37.8545 9.42515 39.5022 11.1678 40.6709C11.4432 40.8557 11.1806 41.3056 10.9071 41.1168C10.3894 40.7602 9.89958 40.3641 9.42916 39.9473C8.60474 39.2175 7.86296 38.3987 7.16844 37.5454C6.81695 37.1136 6.47579 36.6713 6.14152 36.226L6.02807 36.075C5.87688 35.8735 5.7265 35.6715 5.58252 35.4648L5.5524 35.4215C5.42611 35.2392 5.29181 35.0344 5.21038 34.8245C5.17908 34.8561 5.14371 34.8827 5.09207 34.9028C5.00381 34.9372 4.89551 34.8649 4.87392 34.7788C4.82133 34.5699 5.00287 34.4456 5.1506 34.3348C5.32994 34.2008 5.51273 34.0715 5.69583 33.9428L5.76123 33.8965C5.9902 33.7341 6.22037 33.5673 6.46985 33.439C6.47736 33.429 6.48644 33.4196 6.49676 33.4114C6.50866 33.402 6.52024 33.393 6.53213 33.3839C6.23417 32.9004 5.90741 32.4358 5.54277 31.9968C5.2686 31.6665 4.97752 31.3511 4.66953 31.0524L4.53118 30.9184C4.3219 30.7162 4.1043 30.5112 3.87204 30.3354L3.79933 30.4179C3.70224 30.5277 3.60418 30.6368 3.50052 30.74C3.29645 30.9429 3.0952 31.1498 2.89489 31.3568C2.56222 31.7011 2.24083 32.056 1.92045 32.4115L1.7603 32.5892C1.42666 32.9596 1.06922 33.3231 0.765935 33.7189L0.750789 33.7389C0.618381 33.9166 0.524126 34.1132 0.585654 34.3389C0.645021 34.5564 0.786169 34.7494 0.907829 34.9372L0.919926 34.956C1.41664 35.73 1.94872 36.4843 2.51867 37.2061C3.66014 38.6517 4.96218 40.0218 6.51586 41.0269C6.73119 41.1663 6.52994 41.5126 6.31429 41.3717C5.40694 40.7783 4.57345 40.0657 3.80662 39.3004C3.10271 38.5981 2.46484 37.8247 1.86703 37.031C1.57564 36.6437 1.29645 36.2482 1.02885 35.844C0.769378 35.4517 0.469222 35.0481 0.281115 34.6153C0.182531 34.3877 0.146217 34.1413 0.226968 33.9014C0.301023 33.681 0.447478 33.498 0.599837 33.3258L0.614136 33.3097C0.96437 32.9161 1.32086 32.5272 1.68049 32.1421C2.04137 31.7557 2.41883 31.3831 2.80412 31.0214C3.10678 30.7368 3.42227 30.486 3.75968 30.2537C3.72932 30.2321 3.69896 30.2114 3.66797 30.1914C3.57376 30.13 3.54997 29.9988 3.6326 29.9155C3.85827 29.6876 4.11836 29.4894 4.36312 29.2818C4.59316 29.0867 4.82321 28.8913 5.05326 28.696C5.52149 28.2989 5.98972 27.9016 6.45795 27.5043C7.29895 26.7907 8.13526 26.0721 8.97345 25.3554C9.32295 25.0566 9.67572 24.7616 10.0276 24.4657L10.6527 23.9394L10.9585 23.6826C11.1151 23.5513 11.2751 23.4215 11.4533 23.3214C11.8724 23.0859 12.3764 22.9839 12.8382 22.8592L12.8689 22.8508C13.3869 22.709 13.9077 22.5756 14.4313 22.4566C14.9556 22.3376 15.4821 22.2293 16.0107 22.1312C16.4858 22.043 16.9722 21.9672 17.4567 21.9559C17.5769 21.9102 17.7277 21.8942 17.8461 21.9431C17.8949 21.9634 17.9459 21.9932 17.9913 22.0308C18.2282 21.9475 18.462 21.9077 18.6833 21.7668C18.9043 21.6262 19.0999 21.4415 19.2645 21.238C19.6047 20.8165 19.7828 20.3187 19.9024 19.7986ZM25.3487 34.0699C25.1609 34.0568 24.9919 34.1344 24.8242 34.2171C24.9187 34.2581 25.0132 34.2988 25.1077 34.3392L25.7368 34.6078C25.9447 34.6964 26.1647 34.7735 26.3622 34.8827C26.3763 34.8905 26.3875 34.9 26.396 34.9109C26.6013 34.7794 26.8185 34.662 27.0267 34.5371C27.0742 34.5086 27.1221 34.4801 27.17 34.4516C26.9221 34.5346 26.668 34.5762 26.3988 34.4982C26.0398 34.3946 25.7281 34.0965 25.3487 34.0699ZM25.8633 33.4399L25.8295 33.417C25.6474 33.292 25.43 33.1313 25.2088 33.2436C25.1046 33.2965 25.0191 33.382 24.9165 33.439C24.8132 33.4966 24.6996 33.5407 24.5844 33.5674C24.3932 33.6115 24.1741 33.6181 23.9684 33.5755L23.9716 33.8535C24.1271 33.9177 24.2817 33.9835 24.4364 34.0499C24.5367 34.0155 24.6334 33.9743 24.7349 33.929L24.8035 33.8983C24.9991 33.8103 25.1966 33.7515 25.4129 33.7793C25.8201 33.8316 26.1277 34.1344 26.5171 34.2352C26.9944 34.3592 27.4251 34.0029 27.8761 33.9149C27.9505 33.9003 28.0271 33.8917 28.1033 33.8903L28.1287 33.8902L28.14 33.8836C28.237 33.8266 28.3822 33.7722 28.4498 33.6763C28.5234 33.5724 28.5296 33.3983 28.5537 33.2762C28.5562 33.2639 28.5587 33.2514 28.5609 33.2392C28.5184 33.2392 28.4752 33.2414 28.4313 33.2495C28.2936 33.2749 28.1641 33.3238 28.0357 33.3783C27.7932 33.4812 27.5559 33.5987 27.3005 33.6672C27.0504 33.7345 26.7891 33.7665 26.5315 33.7292C26.2802 33.6929 26.0714 33.5796 25.8633 33.4399ZM25.9025 32.4623L25.8648 32.438C25.7653 32.3746 25.6512 32.3088 25.5293 32.3321C25.4204 32.3531 25.3268 32.4398 25.232 32.4934C25.0238 32.6108 24.7903 32.675 24.5522 32.6913C24.354 32.7047 24.1484 32.6806 23.9578 32.6218L23.9644 33.2374C24.0342 33.2596 24.1065 33.2755 24.1825 33.2812C24.4135 33.2984 24.6389 33.243 24.8326 33.1155L24.9306 33.0504C25.0983 32.9402 25.2557 32.8527 25.4777 32.8929C25.6974 32.933 25.8817 33.0739 26.0614 33.1966L26.0909 33.2164C26.2972 33.3527 26.5063 33.4406 26.7594 33.4427C27.0326 33.4449 27.3027 33.3688 27.5572 33.2752C27.8098 33.1826 28.0498 33.0714 28.3199 33.0373C28.4026 33.0269 28.5033 33.0238 28.5982 33.0401C28.6107 32.9702 28.6226 32.9008 28.6339 32.8309C28.6583 32.6809 28.6792 32.5313 28.6974 32.3813C28.2182 32.2523 27.7756 32.6697 27.3306 32.7983C27.0724 32.8729 26.7913 32.872 26.5331 32.7999C26.2941 32.7332 26.1063 32.5948 25.9025 32.4623ZM25.9036 31.4257C25.8013 31.4059 25.7002 31.4532 25.6132 31.5018C25.3913 31.6248 25.1997 31.7961 24.9484 31.8609C24.6251 31.9442 24.2714 31.8725 23.9503 31.7363C23.9515 31.9263 23.9531 32.1164 23.9547 32.3065C24.0151 32.3293 24.077 32.3478 24.1403 32.3625C24.365 32.4138 24.6032 32.407 24.8245 32.3421C25.0501 32.276 25.2232 32.0976 25.4495 32.0419C25.6809 31.9847 25.899 32.0959 26.0855 32.2224L26.1416 32.2607C26.3548 32.4054 26.5615 32.5311 26.8282 32.5557C27.1102 32.5817 27.3553 32.4934 27.6072 32.3763L27.6659 32.3491C27.9849 32.2026 28.399 32.0357 28.7174 32.2025C28.7425 31.9658 28.7606 31.7291 28.7728 31.492C28.729 31.4758 28.6836 31.4639 28.6313 31.4636C28.5065 31.463 28.3753 31.5024 28.2589 31.5434C28.0044 31.6333 27.7675 31.7672 27.5155 31.8634C27.2767 31.9548 27.0123 32.0024 26.7575 31.9614C26.5215 31.9235 26.3443 31.8002 26.1813 31.6311L26.1576 31.6061C26.0861 31.53 26.0096 31.4462 25.9036 31.4257ZM26.0905 30.5468C25.9725 30.4845 25.8288 30.4265 25.6924 30.4447C25.5622 30.4619 25.4754 30.5502 25.3952 30.6447L25.3518 30.6964C25.2084 30.8661 25.0672 31.0089 24.8461 31.0787C24.6169 31.1508 24.3741 31.1226 24.1609 31.0171C24.0852 30.9795 24.0148 30.9328 23.944 30.8868L23.9478 31.3862C24.0893 31.4566 24.2332 31.5202 24.3913 31.5587C24.683 31.6298 24.9309 31.5772 25.1803 31.4163L25.2065 31.3992C25.3944 31.2758 25.5871 31.1288 25.8191 31.1151C26.0456 31.1015 26.2156 31.2271 26.3648 31.3808L26.3822 31.3991C26.5703 31.5975 26.7603 31.6943 27.0401 31.6715C27.3114 31.6493 27.5653 31.5295 27.8138 31.4262L27.8364 31.4169C28.0636 31.3236 28.3256 31.2275 28.575 31.2632C28.6348 31.2716 28.7121 31.2901 28.781 31.3223C28.791 31.0887 28.7957 30.8549 28.7966 30.6207C28.6548 30.4976 28.4342 30.4773 28.2567 30.5277C27.9788 30.6066 27.7512 30.8101 27.4858 30.9206C27.2504 31.0186 27.0051 31.0405 26.765 30.9478C26.5171 30.852 26.3227 30.6695 26.0905 30.5468ZM28.781 29.563C28.3656 29.5774 27.9594 29.8476 27.5628 29.9506C27.1198 30.0656 26.7583 29.9088 26.3637 29.7348L26.3127 29.7124C26.1102 29.6234 25.8927 29.5436 25.6683 29.5799C25.4495 29.6156 25.2561 29.7367 25.068 29.8463L25.0319 29.8671C24.6892 30.0623 24.3403 30.1959 23.9403 30.1625C23.9425 30.2881 23.9415 30.4134 23.9418 30.5361C24.0076 30.5737 24.0708 30.6163 24.1309 30.6551L24.1524 30.6688C24.3432 30.7881 24.5398 30.8665 24.7672 30.7929C24.9869 30.7215 25.0902 30.5302 25.2411 30.3727C25.3797 30.228 25.5606 30.1401 25.7634 30.1485C25.9816 30.1572 26.1878 30.2534 26.3681 30.3708C26.5484 30.4882 26.7227 30.64 26.9337 30.6989C27.4069 30.8304 27.8123 30.3298 28.2598 30.2518C28.4476 30.2189 28.6548 30.2606 28.7966 30.3739C28.795 30.104 28.7891 29.8335 28.781 29.563ZM25.206 29.4496C25.1475 29.4518 25.0889 29.4543 25.0304 29.4568C24.8138 29.4662 24.5972 29.4769 24.3806 29.4891C24.2307 29.4972 24.0464 29.5432 23.8993 29.4975C23.8955 29.5126 23.8905 29.527 23.8839 29.5411C23.9062 29.6519 23.9199 29.7665 23.9284 29.8823C24.0642 29.8971 24.2022 29.892 24.3362 29.8642C24.6576 29.7975 24.9187 29.5946 25.206 29.4496ZM28.7747 29.3566C27.9838 29.4111 27.1868 29.3924 26.3946 29.4095L26.2996 29.4117C26.2958 29.4117 26.2921 29.4121 26.2883 29.4121C26.3792 29.4473 26.4693 29.4876 26.5591 29.5287L26.6489 29.5699C26.8611 29.6675 27.077 29.7474 27.3146 29.7302C27.5691 29.7117 27.8088 29.6078 28.0467 29.5238C28.2736 29.4437 28.5349 29.3898 28.7769 29.4249C28.7763 29.402 28.7756 29.3795 28.7747 29.3566Z" fill="black"/>
<path fill-rule="evenodd" clip-rule="evenodd" d="M27.526 13.4706C27.4903 12.7854 27.4589 12.0774 27.3279 11.4027C27.2636 11.072 27.1351 10.7666 26.9273 10.5011C26.7371 10.2582 26.4978 10.0698 26.2551 9.88262C25.7672 9.50648 25.2981 9.09004 24.7521 8.7991C24.2281 8.51993 23.6616 8.35141 23.0746 8.27573C21.944 8.12998 20.7565 8.37258 19.7748 8.95462C18.8225 9.51922 18.0569 10.3954 17.5832 11.3943C17.3478 11.8907 17.1709 12.4146 17.0757 12.9564C16.9622 13.6022 16.9724 14.2499 16.9765 14.9029C16.9779 15.1224 16.976 15.3418 16.9651 15.5607C16.9473 15.667 16.9375 15.7746 16.9376 15.89C16.7221 16.1743 16.6344 16.5543 16.7694 16.9044C16.9849 17.4629 17.5963 17.7169 18.1514 17.6194C18.1762 17.7646 18.2361 17.9077 18.3106 18.0469C18.4381 18.2849 18.5806 18.518 18.7318 18.7415C19.0447 19.2038 19.4017 19.623 19.8277 19.9846C20.6721 20.7014 21.7418 21.1711 22.8512 21.2391C23.8612 21.301 24.9264 21.013 25.75 20.4191C26.1775 20.1108 26.5474 19.7331 26.8223 19.2807C27.1434 18.7522 27.3177 18.1438 27.4081 17.5357C27.6065 16.2006 27.5959 14.8156 27.526 13.4706Z" fill="#D08B5B"/>
<path fill-rule="evenodd" clip-rule="evenodd" d="M19.5618 6.38988C19.5237 5.95866 19.9201 5.63421 20.288 5.75498C20.3555 5.7634 20.4211 5.78476 20.4798 5.82067C20.6491 5.92434 20.6861 6.09154 20.6419 6.23607C20.7214 6.29622 20.784 6.37776 20.8155 6.47611C20.8479 6.57743 20.8445 6.67571 20.814 6.76135C20.9294 6.83778 21.0166 6.9531 21.0369 7.09597C21.0465 7.16382 21.0426 7.23111 21.0266 7.29295C21.2013 7.35241 21.3439 7.48561 21.3417 7.68716C21.4432 7.69367 21.5448 7.69511 21.6482 7.68935C21.663 7.64761 21.681 7.60691 21.7079 7.56943C21.762 7.49393 21.839 7.44206 21.9242 7.40971L21.9359 7.40542L21.9357 7.3825C21.8704 7.31002 21.8399 7.21859 21.9094 7.11902C21.9213 7.10195 21.9358 7.08786 21.9521 7.07578C21.9578 7.03257 21.9671 6.9898 21.9785 6.94775C21.9209 6.86728 21.9272 6.73377 22.0238 6.69381C22.0103 6.61535 22.0096 6.53397 22.0241 6.45197C22.0837 6.116 22.4071 5.88717 22.7404 5.90001C22.7822 5.90161 22.8228 5.9079 22.862 5.91792C22.9431 5.92644 23.0239 5.94463 23.1033 5.97168C23.1949 6.00293 23.2185 6.07964 23.1983 6.14449C23.3227 6.31128 23.3581 6.53788 23.2328 6.74153C23.228 6.74926 23.2227 6.75662 23.2176 6.76404C23.2427 6.78299 23.2646 6.80797 23.2808 6.84007C23.3216 6.92085 23.3116 7.02336 23.2493 7.09078C23.2328 7.10875 23.2113 7.12224 23.1879 7.13092L23.1875 7.13755C23.1793 7.24573 23.1622 7.3542 23.1298 7.45636C23.2617 7.5792 23.3493 7.74637 23.3649 7.9265C23.414 7.93107 23.4632 7.93643 23.5122 7.942C23.5195 7.89262 23.5494 7.84816 23.5947 7.81372C23.6327 7.78491 23.6732 7.76187 23.7148 7.74462C23.7348 7.64107 23.7839 7.54188 23.8667 7.46316C23.8975 7.43398 23.931 7.40824 23.9668 7.3861C23.9648 7.27385 23.9897 7.1617 24.0518 7.05549C24.1034 6.96716 24.1785 6.9031 24.2641 6.86233C24.3266 6.73646 24.4422 6.63376 24.6106 6.57539C24.7363 6.5318 24.8694 6.58361 24.9651 6.66507L24.9864 6.68386C25.0742 6.76148 25.1059 6.9041 25.0735 7.01413C25.0583 7.06582 25.0329 7.12622 24.9961 7.17528C25.035 7.3474 24.9575 7.49099 24.8388 7.57168C24.8794 7.62955 24.9135 7.69373 24.9423 7.76227C24.9921 7.88079 24.9361 8.02836 24.8463 8.12173C24.8856 8.18454 24.9111 8.2578 24.9205 8.33139C24.9606 8.33373 25.0003 8.34087 25.0396 8.35205C25.0608 8.27966 25.1009 8.21237 25.1621 8.15742C25.1889 8.10491 25.2208 8.05604 25.2564 8.0133C25.3126 7.94585 25.3853 7.89726 25.4648 7.87747C25.4753 7.85245 25.4903 7.8285 25.5091 7.80661C25.4902 7.58718 25.6352 7.36061 25.8586 7.36043C25.8744 7.30926 25.8937 7.25867 25.9168 7.20904C25.962 7.11169 26.0579 7.05339 26.162 7.03423C26.2231 6.885 26.3431 6.77647 26.5491 6.75838C27.0092 6.71798 27.2987 7.27733 27.1863 7.67892C27.1529 7.79822 27.0746 7.908 26.9708 7.97541C26.9436 7.99304 26.9162 8.00584 26.8885 8.01643C26.8608 8.05522 26.8235 8.0897 26.7756 8.11778C26.765 8.12401 26.754 8.12962 26.7428 8.13463C26.7439 8.31385 26.6205 8.45961 26.4673 8.50598C26.4772 8.61898 26.4483 8.73226 26.3627 8.81981L26.3566 8.82569L26.3442 8.83687L26.3432 8.84182C26.3736 8.92047 26.3704 9.00711 26.3267 9.07841C26.3306 9.14391 26.3421 9.20794 26.3641 9.26881C26.4486 9.33741 26.5233 9.41622 26.59 9.50177C26.6346 9.46131 26.7019 9.44306 26.7601 9.46516C26.7762 9.45965 26.7928 9.45608 26.8088 9.45449C26.8353 9.45179 26.8614 9.45189 26.8869 9.45377C26.8987 9.43658 26.9122 9.42023 26.9277 9.40492C27.0364 9.29724 27.1941 9.29946 27.3192 9.36635C27.3416 9.34997 27.3669 9.3355 27.3955 9.32339C27.7146 9.18853 27.9238 9.59448 27.9549 9.8475C27.9718 9.98555 27.8533 10.0707 27.7317 10.0779C27.707 10.1616 27.6277 10.2218 27.5391 10.2422C27.5548 10.3456 27.4864 10.4512 27.3933 10.4905C27.3517 10.508 27.3115 10.5128 27.2736 10.5077L27.2754 10.5322C27.2828 10.6293 27.2338 10.6911 27.1668 10.7185C27.1549 10.7666 27.1222 10.8015 27.0812 10.8194C27.2379 11.1833 27.3616 11.5646 27.4614 11.9407C27.6261 12.5616 27.7369 13.1937 27.8112 13.8316C27.9418 14.9529 27.9469 16.0973 27.8161 17.2191C27.7496 17.79 27.6389 18.348 27.4127 18.8781C27.224 19.3204 26.9615 19.7042 26.6593 20.0755C26.0591 20.8131 25.2 21.3564 24.2531 21.4914C23.756 21.5623 23.2462 21.5392 22.7612 21.4035C22.2782 21.2683 21.7633 21.0365 21.4591 20.6248C21.3767 20.5134 21.4168 20.3326 21.5085 20.2406C21.6132 20.1357 21.7639 20.129 21.8917 20.1911C22.1185 20.3013 22.3223 20.452 22.5529 20.5572C22.761 20.6522 22.9859 20.713 23.2099 20.756C23.6536 20.8411 24.1361 20.8193 24.5785 20.7006C25.3808 20.4854 26.0876 19.966 26.5363 19.2657C27.0664 18.4383 27.2556 17.4686 27.3423 16.5023C27.4371 15.4447 27.4272 14.3725 27.3014 13.3179C27.2391 12.7949 27.1431 12.2766 27.0295 11.7626C26.9487 11.3966 26.8575 11.033 26.7716 10.6683C26.6937 10.5938 26.6185 10.5169 26.5459 10.4372L26.5437 10.437C26.5345 10.4393 26.525 10.441 26.5147 10.4418C26.0839 10.4747 25.6169 10.4314 25.2493 10.1824C25.0999 10.0813 24.9736 9.95321 24.8795 9.80577C24.7475 9.71399 24.6271 9.5982 24.5367 9.46441C24.4726 9.3939 24.4119 9.32022 24.3541 9.24386C24.2104 9.05355 24.134 8.85381 24.0482 8.63423C24.0462 8.62919 24.0449 8.62424 24.0439 8.61939C24.0275 8.59249 24.0159 8.56303 24.0103 8.53328C23.819 8.51052 23.6269 8.49543 23.4368 8.48634C23.3694 8.48315 23.3019 8.48062 23.2343 8.47842C23.2521 8.54458 23.2628 8.61322 23.2651 8.6837C23.3196 8.68614 23.3752 8.6925 23.4321 8.70161C23.699 8.74422 23.8702 8.88124 24.0323 9.09594C24.1901 9.30491 24.3159 9.55625 24.4093 9.80069C24.4666 9.95036 24.3902 10.1158 24.2646 10.2122C23.9384 10.2399 23.618 10.3102 23.3178 10.4494C23.3073 10.4543 23.2996 10.4629 23.2946 10.4731C23.0549 10.5446 22.8134 10.6101 22.5721 10.6657C22.3392 10.7194 22.1039 10.7417 21.8697 10.6825C21.769 10.657 21.6705 10.6193 21.5736 10.5771C21.5216 10.5834 21.4653 10.5734 21.4079 10.5405C21.3212 10.4907 21.2339 10.4362 21.1479 10.3776C20.996 10.3046 20.8467 10.2261 20.704 10.1365L20.7032 10.1354C20.5894 9.99701 20.4271 9.85605 20.2454 9.74931C20.2253 9.71853 20.2075 9.68616 20.1934 9.65156C20.1152 9.4609 20.1479 9.2303 20.3128 9.09917C20.3152 9.05392 20.3348 9.00962 20.3784 8.97408C20.4129 8.94593 20.4484 8.91919 20.4848 8.8937C20.4772 8.88804 20.4695 8.88256 20.4619 8.87676C20.4469 8.8654 20.4325 8.85316 20.4185 8.84054C20.3084 8.90103 20.1973 8.96024 20.0837 9.01297C20.0808 9.01507 20.0781 9.01729 20.0751 9.01926C19.8615 9.15982 19.6593 9.32126 19.4431 9.45671C19.3913 9.48912 19.3397 9.52055 19.2885 9.55208C19.2693 9.57835 19.2505 9.605 19.2324 9.63215C19.2247 9.67391 19.2129 9.71562 19.1983 9.75623C19.2266 9.77881 19.2496 9.80855 19.2652 9.84381C19.3325 9.86945 19.3957 9.90198 19.4547 9.94078L19.507 9.96404C19.5743 9.91 19.6453 9.86116 19.7216 9.82054C19.9612 9.83614 20.2202 10.0063 20.4022 10.1798C20.4149 10.1942 20.4274 10.2087 20.4393 10.2235C20.4508 10.2328 20.4624 10.2427 20.474 10.2525C20.4929 10.2728 20.5104 10.2929 20.5266 10.3125C20.5446 10.3345 20.5651 10.3466 20.5858 10.3517C20.6973 10.4566 20.8018 10.5747 20.8732 10.6974C20.988 10.8945 20.9076 11.14 20.8236 11.3333C20.8098 11.3649 20.7954 11.396 20.7802 11.4267C20.6196 11.6436 20.4673 11.8665 20.3152 12.0896C20.2126 12.1889 20.1108 12.2889 20.0134 12.3929C19.9974 12.4036 19.9807 12.4138 19.9622 12.4233C19.6788 12.5696 19.4046 12.405 19.1345 12.3024L19.1043 12.2912C18.826 12.1903 18.4795 12.124 18.462 11.7607C18.4596 11.7112 18.4615 11.6605 18.4664 11.6092C18.5349 11.4272 18.6134 11.2485 18.701 11.0744C18.6833 11.0553 18.6675 11.0341 18.6541 11.0104C18.6259 10.9746 18.6024 10.936 18.5844 10.8952C18.4551 11.1434 18.332 11.4096 18.1658 11.6273C18.0743 11.7473 17.9602 11.7905 17.8392 11.7903C17.7881 11.8161 17.7309 11.8248 17.6759 11.8183L17.6817 11.8847C17.6868 11.9401 17.6926 11.9954 17.7012 12.0497C17.8182 12.0478 17.9405 12.08 18.0495 12.1232C18.3695 12.25 18.6779 12.4257 18.9866 12.578C19.1357 12.6515 19.3405 12.7131 19.4623 12.8279C19.5556 12.916 19.5449 13.0251 19.5095 13.1386C19.5034 13.1579 19.4968 13.1771 19.4905 13.1964L19.4901 13.2027C19.3905 13.3284 19.3223 13.4784 19.2729 13.6332C19.192 13.771 19.1357 13.9256 19.0972 14.0771C19.0661 14.2002 19.044 14.3259 19.0296 14.4527L19.0258 14.4873L19.0238 14.4914L19.0227 14.5213C19.0022 14.7445 19.0047 14.9706 19.0232 15.1921C19.0284 15.2538 19.0348 15.3155 19.0429 15.377C19.0081 15.4861 18.8429 15.5013 18.7573 15.4344C18.663 15.3607 18.564 15.2937 18.4612 15.2333C18.3211 15.2973 18.1591 15.3082 18.0025 15.2558C17.9913 15.2521 17.9807 15.2476 17.97 15.2433C17.8526 15.2579 17.7365 15.2853 17.6253 15.3178L17.5919 15.3277C17.4145 15.3812 17.2455 15.4481 17.1119 15.584C16.8746 15.8255 16.7982 16.2157 16.8466 16.5424C16.8937 16.8602 17.0777 17.2235 17.4091 17.3159C17.5448 17.3537 17.691 17.3526 17.8229 17.2997C17.873 17.2797 17.9159 17.2506 17.9582 17.2187C18.0101 17.1795 18.0511 17.1354 18.1127 17.1106C18.169 17.0879 18.2661 17.0897 18.2936 17.0884C18.3793 17.0842 18.4519 17.1515 18.4771 17.2285C18.5541 17.4633 18.4385 17.6358 18.2528 17.7513C18.3309 17.8698 18.4042 17.9937 18.4815 18.1057C18.626 18.3149 18.7785 18.5172 18.9367 18.7162C19.099 18.9206 19.272 19.1151 19.4606 19.2955C19.5458 19.3769 19.6336 19.4556 19.7239 19.5312L19.7737 19.5726C19.858 19.6432 19.9318 19.715 19.9288 19.8382C19.9273 19.9072 19.8816 19.9712 19.8139 19.9896C19.5745 20.0546 19.3235 19.7399 19.1676 19.5785L19.1553 19.5659C18.9666 19.3745 18.791 19.1688 18.6322 18.9517C18.4686 18.7279 18.3346 18.4807 18.2266 18.2258C18.1764 18.1073 18.1219 17.9719 18.0833 17.8348C17.8753 17.9157 17.6337 17.9446 17.4683 17.9256C17.3157 17.9081 17.1764 17.8641 17.0505 17.8C17.0248 17.8578 16.9902 17.9116 16.9481 17.9563C16.7922 18.1222 16.5653 18.1695 16.3455 18.1675C16.0641 18.1649 15.8115 17.987 15.8013 17.6868C15.7946 17.4922 15.8952 17.3251 16.042 17.2113C16.0964 17.0766 16.1998 16.9656 16.3495 16.9296C16.2504 16.6224 16.233 16.284 16.3074 15.9739C16.3812 15.667 16.5494 15.3762 16.7982 15.1846L16.8124 15.1739L16.8064 15.1771C16.7476 15.2095 16.6903 15.2446 16.6321 15.2781L16.606 15.2931C16.3477 15.4393 16.0486 15.5649 15.7478 15.4867C15.2705 15.3626 15.2292 14.7657 15.6399 14.5302C15.7818 14.4488 15.9458 14.4181 16.1077 14.3977C16.1333 14.3643 16.1637 14.3344 16.1973 14.3102C16.2023 14.2005 16.2573 14.0909 16.3547 14.022C16.4539 13.9517 16.5654 13.9448 16.6692 13.977C16.7079 13.9479 16.7499 13.9224 16.796 13.9025C16.836 13.8852 16.8766 13.8726 16.9173 13.8639C16.9166 13.8311 16.9163 13.7984 16.9158 13.7656C16.9092 13.7351 16.9053 13.7031 16.9012 13.6698C16.8939 13.6685 16.8864 13.6673 16.8792 13.6658C16.7735 13.6426 16.6779 13.595 16.5947 13.5309C16.4617 13.6152 16.3002 13.6471 16.1083 13.5901C15.93 13.5371 15.762 13.3709 15.679 13.1799C15.5651 13.1569 15.4546 13.1236 15.3578 13.0603C15.1786 13.103 14.9854 13.0339 14.9128 12.848C14.8589 12.7101 14.9237 12.5434 15.0392 12.4579C15.0728 12.433 15.1092 12.4377 15.1381 12.4569C15.145 12.4345 15.153 12.4124 15.1629 12.3907C15.1668 12.382 15.1711 12.3734 15.1755 12.365C15.1712 12.1823 15.2373 12.0057 15.4027 11.9077C15.5255 11.8349 15.6719 11.827 15.8039 11.869C15.8764 11.8013 15.9682 11.7496 16.0822 11.7212C16.2828 11.6712 16.4939 11.7282 16.6366 11.879C16.6675 11.8699 16.6995 11.8634 16.7322 11.8593C16.7441 11.7752 16.7726 11.6943 16.8322 11.6312C16.8749 11.5859 16.9261 11.5498 16.9815 11.5245C17.0068 11.4292 17.0482 11.3439 17.1176 11.2725C17.0837 11.2438 17.0529 11.2115 17.0266 11.1756C16.9974 11.1707 16.9685 11.1644 16.9402 11.1553C16.7894 11.1067 16.6854 11.0114 16.6148 10.8926C16.4842 10.9262 16.3458 10.9139 16.2099 10.8284C16.1116 10.7665 16.0375 10.6677 15.9983 10.5572L15.8867 10.518C15.7815 10.4806 15.7059 10.4109 15.6628 10.328C15.608 10.3478 15.5476 10.347 15.4984 10.309C15.2102 10.0859 15.407 9.71631 15.7156 9.64292C15.8411 9.61308 15.9507 9.63008 16.0482 9.67557C16.1175 9.6086 16.2045 9.55831 16.304 9.53564C16.4201 9.50922 16.5425 9.5286 16.6496 9.57995L16.6773 9.57957C16.7851 9.49926 16.9236 9.46328 17.0928 9.50208C17.2843 9.54601 17.4149 9.6535 17.5034 9.79349C17.5319 9.76772 17.5639 9.74502 17.5988 9.72595C17.6979 9.67191 17.8037 9.65857 17.9051 9.67548C17.9392 9.62676 17.9742 9.5787 18.0102 9.53148C17.9246 9.46444 17.8661 9.36046 17.863 9.24508C17.8371 9.22892 17.8121 9.21054 17.7881 9.19363C17.6709 9.11088 17.5715 9.00711 17.5263 8.86762C17.5038 8.79805 17.4956 8.72553 17.4982 8.65283C17.4856 8.65007 17.473 8.64713 17.4605 8.64356C16.9624 8.4999 16.7559 7.81159 17.1496 7.44218C17.3564 7.24818 17.6706 7.35805 17.8752 7.5013C18.0146 7.59899 18.1254 7.72044 18.2258 7.85464C18.2305 7.85561 18.2351 7.85593 18.2398 7.85708C18.384 7.89125 18.4987 7.98396 18.5834 8.1025C18.733 8.07645 18.8922 8.10541 19.0342 8.20952C19.1376 8.28542 19.2026 8.37935 19.2364 8.48143C19.3708 8.4111 19.5091 8.34945 19.6505 8.295C19.6598 8.27268 19.6695 8.25032 19.6807 8.22812C19.7025 8.18501 19.7309 8.14753 19.7639 8.11584C19.728 8.07551 19.6961 8.03045 19.6705 7.98033C19.5487 7.74255 19.5927 7.50189 19.7272 7.31982C19.6684 7.18706 19.6503 7.03651 19.6851 6.8933C19.6916 6.86671 19.6998 6.84116 19.7093 6.81658C19.6277 6.68905 19.5754 6.54227 19.5618 6.38988ZM17.3775 16.0084C17.4638 15.9873 17.4842 15.9597 17.5813 15.9676C17.6565 15.9738 17.7333 15.9867 17.8062 16.0056C17.9802 16.0508 18.1425 16.142 18.2854 16.2494C18.4881 16.4018 18.2455 16.685 18.084 16.5225L18.0791 16.5174C17.9706 16.4008 17.8488 16.3098 17.7125 16.2285C17.6434 16.1874 17.572 16.1577 17.4998 16.1231C17.4498 16.0992 17.421 16.0601 17.374 16.0352C17.3629 16.0293 17.3655 16.0113 17.3775 16.0084ZM17.8423 13.7133C17.7946 13.6965 17.7398 13.7325 17.7271 13.7789C17.7134 13.829 17.7424 13.8742 17.7875 13.8925L17.7925 13.8945C17.8536 13.9161 17.9095 13.952 17.957 13.996L17.967 14.0056C18.0536 14.0899 18.1862 13.9572 18.0996 13.8727C18.026 13.8011 17.9389 13.7475 17.8423 13.7133ZM20.0841 10.2937C20.0348 10.1856 19.8774 10.2764 19.9202 10.3835L19.9223 10.3886C19.9667 10.486 19.9485 10.599 19.9001 10.6907L19.8953 10.6995C19.8364 10.8052 19.9982 10.9 20.0572 10.7944C20.1445 10.6375 20.159 10.458 20.0841 10.2937ZM21.445 8.94733L21.4428 8.93651C21.4207 8.8178 21.24 8.86806 21.2621 8.98642C21.2989 9.18321 21.4415 9.31249 21.6244 9.37668C21.7385 9.41669 21.7875 9.23528 21.6742 9.19551C21.553 9.15298 21.472 9.0724 21.445 8.94733ZM24.3981 8.75725L24.3662 8.75587L24.3905 8.78793C24.3928 8.77763 24.3953 8.76739 24.3981 8.75725Z" fill="black"/>
<path fill-rule="evenodd" clip-rule="evenodd" d="M22.7734 18.6979C22.7734 18.122 23.6206 17.998 24.3519 17.998C25.0832 17.998 25.9049 18.1669 25.9049 18.6979C25.9049 19.2289 25.0433 19.3136 24.5068 19.3136C23.9703 19.3136 22.7734 19.2737 22.7734 18.6979Z" fill="white"/>
<path fill-rule="evenodd" clip-rule="evenodd" d="M22.7812 16.0625C23.438 16.0625 23.9705 15.6139 23.9705 15.0606C23.9705 14.5072 23.438 14.0586 22.7812 14.0586C22.1243 14.0586 21.5918 14.5072 21.5918 15.0606C21.5918 15.6139 22.1243 16.0625 22.7812 16.0625Z" fill="white"/>
<path fill-rule="evenodd" clip-rule="evenodd" d="M26.2398 16.0625C26.7843 16.0625 27.2257 15.6139 27.2257 15.0606C27.2257 14.5072 26.7843 14.0586 26.2398 14.0586C25.6953 14.0586 25.2539 14.5072 25.2539 15.0606C25.2539 15.6139 25.6953 16.0625 26.2398 16.0625Z" fill="white"/>
<path fill-rule="evenodd" clip-rule="evenodd" d="M24.374 17.9021C24.6658 17.7975 24.9755 17.8368 25.2698 17.9455L25.2962 17.9553C25.5666 18.0585 25.897 18.2375 26.0076 18.5173C26.0295 18.5727 26.0398 18.6294 26.0411 18.6859C26.0773 18.6895 26.1131 18.6942 26.1487 18.7004C26.2218 18.7133 26.2183 18.8295 26.1487 18.8448C26.1045 18.8544 26.0596 18.8615 26.0142 18.8668C25.9723 18.9973 25.8855 19.1156 25.7759 19.1987C25.5193 19.393 25.1657 19.4296 24.8555 19.4593C24.5125 19.4922 24.1678 19.4842 23.8261 19.4426L23.7058 19.4272C23.426 19.3909 23.114 19.3441 22.876 19.1943C22.6521 19.0534 22.4989 18.7813 22.5937 18.517C22.6908 18.2463 23.0235 18.1315 23.2704 18.0446C23.6253 17.9197 24.0029 17.8707 24.374 17.9021ZM23.879 18.8091C23.8825 18.8882 23.8854 18.9674 23.8886 19.0465C23.8895 19.0708 23.8825 19.0927 23.8706 19.1117C24.0403 19.1316 24.2115 19.141 24.3823 19.1409C24.351 19.0465 24.3494 18.9381 24.3476 18.8373C24.1913 18.8296 24.0351 18.8206 23.879 18.8091ZM24.5073 18.8447L24.521 18.8958C24.5421 18.9759 24.5612 19.0584 24.5584 19.1374C24.638 19.1344 24.7173 19.1297 24.7962 19.1228L24.8969 19.1143C24.9198 19.1123 24.9429 19.1102 24.9663 19.108C24.9714 19.0261 24.9811 18.943 24.9897 18.861C24.8288 18.8567 24.6681 18.8515 24.5073 18.8447ZM25.1452 18.8646C25.1526 18.937 25.1594 19.0111 25.1623 19.0844C25.2915 19.0643 25.4182 19.0329 25.5265 18.9776C25.5809 18.9497 25.6246 18.916 25.6571 18.8787C25.5478 18.8761 25.4387 18.8706 25.3329 18.8688C25.3121 18.8685 25.2912 18.8681 25.2704 18.8676L25.1452 18.8646ZM22.901 18.698C22.9094 18.8491 23.1483 18.957 23.2712 18.9925C23.3886 19.0264 23.508 19.0539 23.6287 19.0758C23.6264 19.0656 23.6252 19.0557 23.6261 19.0465C23.6337 18.9612 23.6413 18.876 23.6493 18.7908L23.5846 18.7856C23.357 18.7681 23.1203 18.7541 22.901 18.698ZM24.3914 18.1221C24.4106 18.3115 24.4371 18.4998 24.4725 18.6868L24.5372 18.6882C24.6927 18.6906 24.8482 18.6916 25.0037 18.6918C25.0041 18.6842 25.0045 18.6766 25.0048 18.669C25.0106 18.5108 25.0084 18.3526 25.0026 18.1945C24.8051 18.1509 24.5983 18.1367 24.3914 18.1221ZM25.0837 18.2144C25.101 18.3731 25.1155 18.5322 25.1286 18.6914L25.2648 18.6912C25.2875 18.6911 25.3102 18.691 25.3329 18.6908C25.4606 18.6897 25.5917 18.6813 25.7226 18.6778C25.7129 18.6094 25.6726 18.5399 25.5984 18.4766C25.4414 18.3427 25.2673 18.2636 25.0837 18.2144ZM24.27 18.0858C24.1199 18.1018 23.9709 18.1282 23.8241 18.1651C23.8624 18.2763 23.8551 18.4036 23.8632 18.5197C23.8668 18.5708 23.8698 18.622 23.8724 18.6731C24.0295 18.677 24.1866 18.6807 24.3436 18.684C24.3386 18.4957 24.3418 18.3075 24.3524 18.1194L24.3353 18.1181C24.3099 18.1163 24.2872 18.1036 24.27 18.0858ZM23.7246 18.1918C23.656 18.2115 23.5878 18.2333 23.5204 18.2577L23.4468 18.2843C23.2695 18.3489 23.0348 18.4425 22.9359 18.5871C22.9193 18.6114 22.9093 18.6349 22.9044 18.6576C23.153 18.6347 23.4108 18.6578 23.6616 18.6673C23.6651 18.6345 23.6686 18.6017 23.6723 18.5689L23.6781 18.5197C23.6909 18.4135 23.6908 18.2956 23.7246 18.1918ZM24.9666 15.918C25.203 16.0617 25.5631 16.3969 25.3088 16.7532C25.0095 17.0673 24.5786 16.7071 24.3663 16.5442C24.1694 16.4179 23.9482 16.7427 24.1309 16.8901C25.6652 18.0265 26.2879 15.9556 25.0861 15.749C24.9538 15.7263 24.9047 15.8735 24.9666 15.918ZM22.0697 14.1754C22.4055 13.5915 23.2365 13.5847 23.7119 14.0307C24.1658 14.4565 24.2219 15.1829 23.8594 15.6809C23.473 16.2116 22.7224 16.3584 22.1138 16.1693C21.5432 15.992 21.2365 15.3727 21.4321 14.8052C21.5379 14.4983 21.7814 14.2861 22.0697 14.1754ZM21.7567 13.1973C22.0405 12.946 22.5563 12.7032 22.9391 12.8269C23.1591 12.898 23.2551 13.2527 23.0094 13.3652C22.7249 13.4954 22.397 13.4424 22.1074 13.5773C21.9858 13.634 21.8714 13.7049 21.7868 13.8088C21.7201 13.8907 21.6522 13.9985 21.5558 14.0457C21.5304 14.0582 21.4961 14.0585 21.4758 14.0354C21.2643 13.7961 21.5721 13.3608 21.7567 13.1973ZM25.8113 12.8144C25.9867 12.7652 26.1813 12.7662 26.3595 12.7971C26.5377 12.8281 26.7186 12.9019 26.864 13.0097L26.8809 13.0223C27.0397 13.142 27.2292 13.3161 27.219 13.5282C27.2105 13.7052 27.0243 13.825 26.8636 13.7322C26.7325 13.6565 26.6709 13.5049 26.5599 13.404C26.4684 13.3206 26.3608 13.2549 26.2461 13.2089C26.1186 13.1578 25.991 13.1338 25.8542 13.1316C25.7489 13.1298 25.6429 13.1644 25.5396 13.1754C25.5481 13.1929 25.4664 13.1847 25.4196 13.1693C25.3849 13.1545 25.3847 13.1106 25.3967 13.0821C25.4563 12.9411 25.6733 12.8531 25.8113 12.8144ZM26.0023 13.8052C26.2961 13.7469 26.6228 13.8108 26.8688 13.9831C27.3098 14.2921 27.5076 14.9312 27.3027 15.431C27.0993 15.9271 26.5434 16.2427 26.0133 16.1479C25.4722 16.0511 25.0536 15.506 25.112 14.9568C25.1368 14.723 25.2387 14.5123 25.3896 14.353C25.3907 14.3475 25.392 14.342 25.3942 14.3363C25.5002 14.0539 25.7012 13.8651 26.0023 13.8052ZM23.3132 14.2542C22.9763 14.0513 22.4809 14.1646 22.1915 14.4096C22.134 14.4582 22.0692 14.444 22.0339 14.4015C21.8375 14.5601 21.6988 14.782 21.6765 15.0522C21.6366 15.5369 21.9816 15.8557 22.4465 15.8923C22.9215 15.9298 23.4132 15.7972 23.6369 15.3418C23.8301 14.9487 23.6883 14.4801 23.3132 14.2542ZM26.5029 14.2752C26.2391 14.1717 25.8607 14.2329 25.6303 14.41C25.455 14.6361 25.3696 14.9465 25.437 15.2007C25.5344 15.5678 25.8865 15.8537 26.2734 15.8131C26.6314 15.7754 26.9548 15.4887 26.9932 15.1248C27.0302 14.7747 26.8382 14.4067 26.5029 14.2752ZM26.279 14.8245C26.3392 14.7816 26.4109 14.8299 26.4329 14.8871L26.4455 14.9131C26.4522 14.9269 26.459 14.9413 26.4592 14.9418L26.4616 14.9487C26.4648 14.9547 26.4686 14.9603 26.4722 14.966C26.4751 14.9679 26.4984 14.9972 26.5016 15.001C26.5393 15.0476 26.5593 15.0902 26.5581 15.1515C26.5558 15.2727 26.4428 15.3581 26.3256 15.3287C26.1995 15.2972 26.1458 15.1667 26.1573 15.047C26.1664 14.9521 26.201 14.8802 26.279 14.8245ZM22.8562 14.8477C22.9118 14.7971 22.9977 14.7928 23.0526 14.8477C23.0827 14.8778 23.0949 14.9114 23.1165 14.9464L23.1268 14.9625C23.1493 14.9971 23.1728 15.0303 23.1789 15.0727C23.1932 15.1725 23.1623 15.2655 23.0639 15.307C22.9661 15.3483 22.8755 15.3061 22.816 15.2257C22.7455 15.1305 22.7669 14.9289 22.8562 14.8477Z" fill="black"/>
</svg>
