<svg width="36" height="48" viewBox="0 0 36 48" fill="none" xmlns="http://www.w3.org/2000/svg">
<path fill-rule="evenodd" clip-rule="evenodd" d="M17.3025 18.9652C17.9888 18.4864 20.2168 18.8471 21.1352 18.9652C21.6178 19.0272 21.9026 19.6535 22.1561 20.6058C23.4786 20.2814 25.214 19.9742 26.4607 20.8533C26.8457 21.1887 26.9177 21.7603 26.4736 22.0792C26.3288 22.1768 26.0499 22.2597 26.0058 22.3443C25.8272 22.7991 25.6279 23.4002 25.6596 23.8839C26.2273 28.9626 27.3654 34.0551 28.166 39.1013L28.1872 39.2923C28.281 40.1509 28.357 41.1638 27.7739 41.8474C27.3819 42.1798 26.8243 42.134 26.3453 42.2298C21.8293 42.835 17.2693 42.2565 12.735 42.4411C11.9623 42.4846 11.1855 42.5408 10.411 42.5466L10.4106 42.5376C10.4941 42.537 10.5776 42.5358 10.6612 42.5341C10.5756 40.0112 10.3989 37.4917 10.3419 34.9677C10.3239 34.1722 10.3186 33.3763 10.3343 32.5807C10.3375 32.4194 10.0871 32.4194 10.084 32.5807C10.0787 32.8447 10.0764 33.1086 10.0753 33.3726C9.88777 33.2255 9.67923 33.1088 9.4791 32.9775C9.34395 32.8889 9.21838 33.1057 9.35272 33.1938C9.59009 33.3495 9.84273 33.4802 10.0485 33.6792C10.0568 33.6873 10.0655 33.6935 10.0744 33.6987C10.079 36.2346 10.2526 38.7686 10.3628 41.3012C10.3791 41.676 10.3939 42.0508 10.4069 42.4257L10.4109 42.5466C9.5725 42.5528 8.73675 42.4999 7.91179 42.3076C7.77242 42.5019 7.44779 42.5405 7.28275 42.2896C7.20018 42.195 7.18356 42.0339 7.05577 41.9978C7.0214 41.971 7.07445 41.9519 7.09874 41.9645C5.97013 38.7293 7.00005 32.7004 7.91001 29.3859C8.3081 27.677 9.26497 26.0949 9.36459 24.3259C9.37508 23.4921 8.77739 22.4877 9.53517 21.8178C9.4234 21.2054 10.0021 20.6951 10.5864 20.6548C11.3056 18.0571 14.4887 21.0867 16.2123 21.1173C16.4486 20.7241 16.9742 19.1942 17.3025 18.9652ZM26.9923 35.9713C26.9922 35.8101 26.7418 35.8098 26.7419 35.9713C26.7436 37.6855 26.8908 39.7377 27.1025 41.4377C27.1222 41.5956 27.3728 41.5975 27.3529 41.4377C27.1412 39.7377 26.994 37.6855 26.9923 35.9713ZM15.2481 38.1715C15.3902 38.0954 15.2639 37.8791 15.1217 37.9552C14.0782 38.5143 13.103 39.1824 12.1651 39.903C12.0391 39.9998 12.1636 40.2176 12.2915 40.1193C13.2294 39.3987 14.2045 38.7306 15.2481 38.1715ZM24.3036 37.8515C24.2049 37.733 23.9935 37.8562 24.0909 37.9823C24.3175 38.2759 24.599 38.5073 24.929 38.6765C25.0704 38.749 25.196 38.539 25.0604 38.4629L25.0554 38.4602C24.7738 38.3158 24.5199 38.1244 24.3225 37.8756L24.3036 37.8515ZM11.7721 30.5219C11.8071 30.3648 11.5657 30.2978 11.5307 30.4553C11.457 30.7864 11.5105 31.1386 11.5872 31.4666L11.5923 31.4884L11.6028 31.5319C11.6166 31.5883 11.6693 31.6198 11.7235 31.6238C12.6446 31.692 13.5555 31.3789 14.4386 31.1479L14.5039 31.1309L14.5692 31.1143C14.7253 31.075 14.6592 30.8333 14.5026 30.8728L14.4329 30.8906C13.5839 31.1094 12.7096 31.4179 11.8238 31.3791L11.8145 31.3383C11.7564 31.0789 11.7153 30.8014 11.7678 30.5423L11.7721 30.5219ZM25.9107 29.9115C25.9118 29.7502 25.6615 29.7501 25.6603 29.9115L25.66 29.9431C25.657 30.1972 25.6361 30.5582 25.3871 30.6929C25.1657 30.8127 24.8716 30.7228 24.6371 30.6311L24.5895 30.6122L24.5207 30.5842C24.3717 30.5232 24.3068 30.7654 24.4542 30.8258L24.491 30.8407C24.8099 30.9682 25.2196 31.0896 25.5344 30.897C25.8422 30.7086 25.9015 30.3095 25.9097 29.9742L25.9102 29.9485L25.9107 29.9115Z" fill="#D08B5B"/>
<path fill-rule="evenodd" clip-rule="evenodd" d="M25.2159 20.2518L25.2416 20.2565L25.95 20.3883L25.2314 20.4425C25.1982 20.4451 25.1648 20.4482 25.1312 20.4519C25.0622 20.4594 24.9944 20.469 24.9278 20.4805L24.8847 20.4882L24.9032 20.4873C25.1656 20.4751 25.4284 20.4965 25.6874 20.5509C25.9428 20.6045 26.1695 20.6774 26.3723 20.7766L26.3966 20.7886L26.4278 20.8047L26.4429 20.8119L26.4548 20.8174C26.5104 20.8431 26.533 20.8563 26.5565 20.8882C26.603 20.9513 26.5831 21.0226 26.5231 21.0767C26.4781 21.1173 26.42 21.1374 26.3438 21.149C26.3326 21.1507 26.3211 21.1522 26.3086 21.1536L26.2412 21.1602C26.1156 21.1733 26.0327 21.2413 26.0202 21.3469C26.0078 21.4502 26.0684 21.5551 26.1553 21.5809L26.1617 21.5826L26.1699 21.5845C26.1811 21.587 26.1911 21.5898 26.2007 21.5933L26.2079 21.596L26.2235 21.6024L26.2243 21.6026L26.2248 21.6029L26.2397 21.6091L26.2437 21.6167L26.246 21.6185C26.2549 21.6257 26.2586 21.6308 26.2644 21.6419L26.2695 21.6518L26.2736 21.6661L26.2748 21.6707L26.2755 21.6745L26.2756 21.6757L26.2797 21.7018L26.2808 21.7107L26.2812 21.7165L26.2812 22.1181L26.1783 21.9121L26.1747 21.9151C26.1248 21.9552 26.0609 21.9882 25.9796 22.0203L25.963 22.0267L25.9201 22.0426L25.8354 22.0729L25.8159 22.0801L25.7985 22.0868C25.7848 22.0922 25.773 22.0972 25.7623 22.1021C25.7461 22.1096 25.7319 22.118 25.7195 22.1273L25.7123 22.133L25.6715 22.1667L25.571 22.1316C25.5593 22.1275 25.5485 22.1236 25.5383 22.1199L25.4408 22.0836L25.3574 22.0529C25.2491 22.0133 25.1518 21.9789 25.0571 21.9469L24.9422 21.9086L24.8583 21.8813C24.8292 21.8719 24.7985 21.862 24.7646 21.8512L24.2909 21.7015L24.1997 21.6722C24.1485 21.6557 24.1024 21.6406 24.0547 21.6247L23.9663 21.5949L23.8805 21.5654C23.6015 21.4684 23.3346 21.3646 22.8593 21.1726L22.9624 21.2314L23.039 21.2747C23.1308 21.3263 23.2313 21.3824 23.3438 21.4446L23.8552 21.7273L23.9576 21.7846L24.1868 21.9134L24.3078 21.981C24.5245 22.1013 24.6784 22.1827 24.8423 22.2627C24.9691 22.3246 25.0994 22.3841 25.2351 22.442L25.2862 22.4636L25.3646 22.4963L25.4265 22.5231L25.4683 22.5415L25.4959 22.5533C25.644 22.6152 25.7307 22.6313 25.8272 22.6061L25.8339 22.6042L25.8405 22.6019L26.0283 22.5298L25.963 22.7201C25.9555 22.7418 25.9481 22.7637 25.9408 22.7859L25.9276 22.8263L25.9169 22.8474C25.854 22.9725 25.7919 23.1014 25.7293 23.2365L25.6958 23.3093L25.6764 23.3237C25.6694 23.3289 25.6629 23.3366 25.6575 23.3471C25.6326 23.3957 25.6085 23.4441 25.5852 23.4925L25.5607 23.544L25.5354 23.5984C25.4248 23.8365 25.3245 24.0809 25.1943 24.4218L25.0228 24.8764L24.9972 24.9442C24.7866 25.4999 24.5881 26.057 24.4019 26.6152C24.0337 27.7164 23.7081 28.834 23.4259 29.9647C22.8593 32.2359 22.4813 34.5413 22.296 36.8617C22.261 37.299 22.2358 37.7342 22.2204 38.1681L22.2166 38.2807L22.2046 38.3803C22.1953 38.4589 22.1865 38.5352 22.1782 38.6098L22.1733 38.6544C22.1131 39.2068 22.0841 39.6414 22.0872 40.0575C22.0887 40.264 22.095 40.4564 22.1067 40.6416L22.1095 40.6843L22.1561 41.3657L21.9274 40.7222C21.9112 40.6767 21.8955 40.6304 21.8779 40.5764L21.8556 40.5076L21.8449 40.473C21.8353 40.4414 21.8261 40.4086 21.8146 40.3657L21.7741 40.2127L21.7641 40.1759C21.7536 40.138 21.7449 40.1088 21.7347 40.0776L21.7226 40.0413L21.7138 40.0159C21.6975 39.9705 21.6783 39.922 21.6482 39.8486L21.6017 39.7357L21.5924 39.7127V39.6944L21.5939 39.6337C21.5971 39.4888 21.5963 39.3362 21.5921 39.165L21.5882 39.0309L21.5841 38.9159C21.5836 38.904 21.5831 38.8918 21.5826 38.8792L21.5612 38.3621L21.5197 37.2139L21.5132 37.02C21.5086 36.8757 21.5048 36.7452 21.5016 36.6179L21.4987 36.5016L21.4979 36.462C21.4726 35.3227 21.4821 34.1507 21.5241 32.9317L21.5283 32.8136L21.5325 32.6973C21.6031 30.8036 21.7252 29.1918 22.0147 26.0187L22.0629 25.4936L22.135 24.7166L22.1516 24.5342C22.185 24.1628 22.2091 23.8733 22.2294 23.5896L22.2383 23.4632C22.2724 22.9619 22.293 22.4414 22.303 21.8697L22.3047 21.7669L22.2596 21.9239L22.2205 21.4016C22.2086 21.2435 22.1887 21.0973 22.1592 20.9611L22.1528 20.9321L22.1401 20.8766L22.1302 20.8398C22.1134 20.7776 22.2186 20.4915 22.2186 20.4915L22.2782 20.4772L22.3503 20.4602C23.4988 20.192 24.3934 20.104 25.2159 20.2518ZM13.8951 19.7869L13.9297 19.7965L13.9516 19.8027C14.1273 19.8532 14.3138 19.9247 14.529 20.0202L14.5906 20.0478C14.6181 20.0602 14.7771 20.1231 14.8403 20.1501L14.8511 20.1547C15.0844 20.2573 15.2236 20.3649 15.2542 20.5234L15.2561 20.5342C15.3242 20.5995 15.4031 20.6622 15.4929 20.7224L15.5156 20.7374L15.5371 20.7513C15.6336 20.8127 15.7251 20.867 15.8111 20.9138L15.8344 20.9264L15.8505 20.9349L16.0054 20.9881L16.1969 21.0545L16.2353 21.0677C16.435 21.1357 16.5527 21.1714 16.6937 21.206L16.7728 21.2254C17.0729 21.2982 17.3387 21.3549 17.5949 21.3994C17.8557 21.4445 18.1235 21.484 18.4004 21.5186L18.4939 21.53C18.5861 21.5409 18.6765 21.5491 18.8173 21.5601L19.045 21.5778L19.1989 21.5902L19.117 21.7212C18.9024 22.0644 18.7367 22.4467 18.5514 22.9874L18.5307 23.0482C18.3627 23.5451 18.2444 23.9928 18.0409 24.852C17.7326 26.1556 17.4788 27.4716 17.2802 28.7948C17.1434 29.7068 17.0324 30.6167 16.9479 31.5236L16.9359 31.6531L16.7489 31.6529C16.7243 31.3742 16.6937 31.0873 16.6569 30.7856C16.5413 29.846 16.3749 28.9234 16.1574 28.0231L16.1368 27.9388L16.1279 27.9025L16.1464 27.8699C16.1575 27.8504 16.1619 27.8284 16.1588 27.8092C16.136 27.6673 16.0943 27.5378 16.0147 27.3424L15.9335 27.1461L15.9153 27.1011L15.9139 27.0964C15.8279 26.7943 15.7361 26.4956 15.6387 26.2006L15.606 26.1024L15.6046 26.0978C15.4631 25.592 15.3241 25.1744 15.1608 24.7831C15.0329 24.4774 14.8875 24.1777 14.7255 23.8851L14.6949 23.8303L14.6921 23.825C14.4868 23.398 14.2685 22.9944 14.0366 22.6162L13.9994 22.5559L13.996 22.546C13.988 22.5232 13.9761 22.5028 13.9603 22.4856L13.9542 22.4793L13.9464 22.4717L13.9294 22.445L13.7937 22.411C13.4117 22.3154 13.0142 22.3071 12.5705 22.3732L12.5408 22.3778L12.5111 22.3825C12.1853 22.4355 11.9054 22.5077 11.397 22.6622L10.8968 22.8154L10.8257 22.8366L10.7585 22.8565C10.5147 22.9275 10.3012 22.9811 10.0939 23.0214L10.0657 23.0268L9.98898 23.0412L9.95103 23.0481C9.72265 23.0888 9.56273 23.0998 9.41153 23.0709L9.3978 23.0681L9.38099 23.0644L9.36598 23.0606C9.18947 23.0135 9.12424 22.8856 9.20549 22.7074C9.27268 22.5598 9.41846 22.4551 9.6327 22.3634L9.66377 22.3504L9.67149 22.3472L9.67964 22.3455C9.73064 22.3345 9.77948 22.3151 9.82597 22.2868C9.91971 22.2299 9.9589 22.1123 9.91644 22.0152C9.87264 21.9157 9.75281 21.8502 9.66939 21.8838L9.60643 21.9088L9.53754 21.9359L9.49509 21.8752C9.49272 21.8719 9.49048 21.8683 9.4883 21.8645L9.48507 21.8585L9.48301 21.8542L9.47781 21.8497L9.47264 21.8445C9.4597 21.8304 9.45276 21.8152 9.44929 21.7995C9.44797 21.7936 9.44728 21.7882 9.44697 21.7829L9.44677 21.7775C9.44658 21.7664 9.4474 21.7575 9.45084 21.7264C9.466 21.5912 9.55443 21.482 9.70757 21.3565L9.73229 21.3365L9.73967 21.3307C10.0327 21.0984 10.4044 20.9788 10.7202 21.0522C10.7356 21.0557 10.7508 21.0596 10.7662 21.0641L10.7818 21.0689L10.8002 21.0751C10.8973 21.1087 10.9732 21.0674 11.0086 20.9749C11.0442 20.8818 11.0202 20.7791 10.9449 20.7236L10.9381 20.7188L10.9151 20.7035L10.8882 20.685L10.8585 20.664L10.8449 20.6542L10.8252 20.6395C10.6739 20.5251 10.5909 20.4183 10.6152 20.292L10.6169 20.2839L10.619 20.2744L10.6231 20.2656L10.6358 20.2383L10.649 20.2112L10.6527 20.2037L10.6577 20.197C10.7097 20.1269 10.7969 20.0736 10.9218 20.022L10.9364 20.0161C10.9886 19.9951 11.1343 19.9439 11.1561 19.9355L11.1577 19.9349C11.5892 19.7598 12.058 19.6588 12.5294 19.6381C12.9922 19.618 13.4559 19.668 13.8951 19.7869Z" fill="white"/>
<path d="M21.9771 24.6123L21.9715 24.6549L21.9661 24.6974C21.8128 25.9186 21.6835 27.4553 21.5708 28.6805C21.3461 31.1231 21.2084 33.5757 21.2275 36.0292C21.2325 36.6637 21.2554 37.2962 21.2847 37.9297L21.291 38.0654C21.3239 38.7558 21.3743 39.4854 21.5665 40.1514C21.5877 40.2249 21.635 40.2672 21.6895 40.2826C21.6917 40.3602 21.6962 40.4381 21.7014 40.5152L21.7054 40.5728C21.7277 40.8844 21.7912 41.5316 21.927 41.814C22.0594 42.0895 22.2801 42.3081 22.5615 42.4284C22.6403 42.462 22.7206 42.4861 22.8018 42.5029C21.0933 42.5379 18.8492 42.4827 17.1374 42.4414C17.3153 42.4134 17.4162 42.2726 17.4397 42.0933C17.4866 41.7332 17.3984 41.3609 17.1987 41.0581C17.178 41.0268 17.1536 40.999 17.1264 40.9752L17.1312 40.776C17.1345 40.6265 17.1361 40.477 17.1276 40.3277C17.1095 39.9983 17.0823 39.6689 17.0585 39.3398C17.0103 38.6807 16.973 38.0203 16.9583 37.3597C16.9283 36.0383 16.9502 34.7158 17.025 33.3963C17.1749 30.7602 17.5239 27.8279 18.0951 25.2495C18.1367 25.0616 18.1787 24.8737 18.2222 24.6862C18.6663 24.9169 19.4569 24.9999 19.9424 25.003C20.5508 25.0068 21.4275 24.8668 21.9771 24.6123Z" fill="#E86BBB"/>
<path fill-rule="evenodd" clip-rule="evenodd" d="M27.0987 41.4475C26.8871 39.7475 26.7399 37.6953 26.7382 35.9811C26.738 35.8196 26.9884 35.8199 26.9886 35.9811C26.9903 37.6953 27.1375 39.7475 27.3491 41.4475C27.369 41.6073 27.1184 41.6053 27.0987 41.4475ZM25.5307 30.9067C25.2036 31.1069 24.7741 30.9681 24.4504 30.8355C24.303 30.7752 24.3679 30.533 24.5169 30.594C24.7633 30.6949 25.1233 30.8433 25.3833 30.7027C25.6428 30.5623 25.6545 30.1761 25.6565 29.9213C25.6577 29.7599 25.9081 29.76 25.9069 29.9213C25.9042 30.268 25.8579 30.7065 25.5307 30.9067ZM24.9252 38.6862C24.5953 38.517 24.3137 38.2857 24.0871 37.9921C23.9886 37.8644 24.2062 37.7398 24.3033 37.8656C24.5027 38.1241 24.7626 38.3218 25.0516 38.47C25.1952 38.5436 25.0684 38.7597 24.9252 38.6862ZM23.3391 29.9441C22.7729 32.2139 22.393 34.5243 22.2067 36.8564C22.1689 37.3298 22.1423 37.8026 22.1272 38.2757C22.1122 38.3991 22.0978 38.5227 22.0844 38.6464C22.0334 39.1142 21.9942 39.5895 21.9977 40.0604C21.9992 40.2718 22.0058 40.4822 22.0202 40.6929C21.9952 40.6224 21.972 40.5517 21.9495 40.4813C21.9035 40.3369 21.8731 40.1872 21.8262 40.0438C21.7873 39.9252 21.7373 39.8115 21.6906 39.6966V39.6963C21.7047 39.2257 21.6728 38.7507 21.6565 38.2823C21.6355 37.6755 21.6096 37.0693 21.5961 36.4622C21.5692 35.2479 21.5826 34.0327 21.6265 32.8191C21.7144 30.3737 21.9366 27.9399 22.1607 25.5045C22.223 24.8272 22.29 24.1503 22.3363 23.4718C22.383 22.7861 22.4017 22.0991 22.4071 21.4115C22.4074 21.362 22.3323 21.3489 22.3185 21.3968C22.3063 21.2337 22.2847 21.0708 22.2487 20.9133C22.7886 21.2578 23.3579 21.5555 23.916 21.8687C24.2099 22.0337 24.5025 22.2015 24.8055 22.3493C24.972 22.4307 25.1401 22.5055 25.3116 22.5763C25.4894 22.6496 25.6593 22.7504 25.8549 22.6993C25.8718 22.695 25.8878 22.6887 25.9031 22.6806C25.8809 22.7228 25.8587 22.7648 25.8374 22.8074C25.7636 22.9542 25.6931 23.1017 25.6249 23.2504C25.6067 23.2639 25.5908 23.2824 25.5783 23.3065C25.5451 23.3713 25.5129 23.4367 25.4816 23.5031C25.4753 23.4971 25.469 23.4912 25.4628 23.4852C25.4365 23.4605 25.4002 23.4977 25.4233 23.5247C25.434 23.5369 25.4443 23.5488 25.4546 23.561C25.2506 24.0003 25.0847 24.4622 24.9138 24.9131C24.7038 25.4672 24.5047 26.0255 24.3172 26.5876C23.9476 27.6932 23.6215 28.8132 23.3391 29.9441ZM15.2443 38.1813C14.2008 38.7404 13.2256 39.4085 12.2877 40.1291C12.1599 40.2273 12.0353 40.0096 12.1613 39.9128C13.0992 39.1922 14.0744 38.5241 15.118 37.965C15.2601 37.8888 15.3864 38.1051 15.2443 38.1813ZM11.7197 31.6336C11.6655 31.6295 11.6128 31.5981 11.599 31.5416C11.5145 31.1954 11.4483 30.8182 11.5269 30.4651C11.562 30.3075 11.8033 30.3746 11.7683 30.5316C11.7063 30.8101 11.7556 31.1111 11.82 31.3888C12.7301 31.4287 13.6281 31.102 14.4988 30.8826C14.6554 30.8431 14.7216 31.0848 14.5654 31.1241C13.6417 31.3568 12.6863 31.7051 11.7197 31.6336ZM29.8387 40.8692C29.8396 40.867 29.8406 40.8645 29.8412 40.8623C29.8947 40.7001 29.896 40.5116 29.9019 40.3416C29.9122 40.0391 29.9013 39.7361 29.874 39.4345C29.8165 38.7998 29.6925 38.1755 29.5445 37.5565C29.2512 36.3303 28.8368 35.1374 28.6118 33.8946C28.1701 31.4552 28.275 28.9152 27.4083 26.5622C27.0481 25.584 26.5335 24.6438 25.8343 23.8666C25.8853 23.7113 25.9351 23.5557 25.9836 23.3995C26.0684 23.1277 26.1551 22.8471 26.2074 22.5672C26.2086 22.5597 26.2102 22.5519 26.2111 22.544C26.5088 22.4157 26.7795 22.1736 26.8258 21.8517C26.8459 21.7127 26.8227 21.5587 26.7626 21.4243C26.8853 21.311 26.9642 21.1638 26.9454 20.9666C26.9103 20.5952 26.4769 20.4997 26.1751 20.4271C25.8321 20.3447 25.4762 20.3219 25.1254 20.3607C24.9482 20.3801 24.7729 20.4127 24.6017 20.4615C24.4531 20.5038 24.2913 20.5473 24.172 20.6494C24.1579 20.6613 24.1695 20.6845 24.1864 20.6845C24.4277 20.6836 24.6681 20.5949 24.9119 20.5833C25.1673 20.5714 25.4221 20.5924 25.6725 20.645C25.9172 20.6964 26.1614 20.7715 26.3839 20.8877C26.4465 20.9206 26.5382 20.9428 26.4647 21.0092C26.4108 21.0577 26.305 21.0618 26.2359 21.069C26.0828 21.0849 25.9507 21.1745 25.9313 21.3379C25.9141 21.4823 26.0002 21.6457 26.1535 21.6783C26.162 21.6802 26.1698 21.6824 26.1767 21.6852C26.1808 21.693 26.187 21.6996 26.1864 21.6889C26.1864 21.6889 26.1867 21.6886 26.1867 21.6889C26.1905 21.7118 26.1917 21.7208 26.1917 21.7224C26.1908 21.7206 26.1892 21.7127 26.188 21.7065C26.1889 21.7121 26.1908 21.7212 26.1933 21.7346C26.1898 21.7199 26.1927 21.756 26.1898 21.7616C26.1085 21.9119 25.8678 21.9542 25.7276 22.0189C25.7003 22.0314 25.6769 22.0462 25.6568 22.0628C25.6236 22.0512 25.5898 22.0396 25.5557 22.0268C25.3877 21.9638 25.2199 21.9028 25.0496 21.8461C24.721 21.7362 24.3883 21.6382 24.0596 21.528C23.4374 21.3195 22.8359 21.0561 22.2252 20.8175C22.2058 20.7455 22.1833 20.6751 22.1567 20.6065C22.1514 20.5921 22.1257 20.5874 22.1229 20.6065C22.1135 20.6672 22.106 20.7283 22.0997 20.7897C22.0972 20.7953 22.0966 20.8016 22.0978 20.8075C22.0625 21.1645 22.0718 21.5299 22.0537 21.8865C22.0312 22.3311 21.9683 22.7726 21.9504 23.2175V23.2257C21.8847 23.6055 21.8252 23.9865 21.7714 24.3688C21.711 24.3501 21.6418 24.3538 21.5711 24.3917C21.0709 24.6588 20.5088 24.8075 19.9432 24.8407C19.6584 24.8573 19.3764 24.8479 19.0931 24.815C18.9069 24.7937 18.7235 24.7549 18.5398 24.718C18.6365 24.3125 18.7404 23.9089 18.8578 23.5094C18.9545 23.1809 19.0621 22.854 19.1952 22.5381C19.3294 22.219 19.4966 21.9144 19.6521 21.605C19.7238 21.4619 19.6393 21.2431 19.4531 21.2581C19.398 21.2625 19.3429 21.2659 19.2875 21.2684C18.7485 21.2941 18.188 21.234 17.6559 21.1804C17.0503 21.1191 16.4365 21.0555 15.8362 20.9556C15.7917 20.9484 15.7736 21.0088 15.8174 21.0236C16.1022 21.1194 16.3836 21.2277 16.6756 21.2994C16.9761 21.3736 17.2784 21.4413 17.5833 21.4942C17.8753 21.5446 18.1686 21.5869 18.4628 21.6225C18.6546 21.646 18.8487 21.6579 19.0418 21.6736C18.7817 22.0894 18.6024 22.5584 18.4462 23.0202C18.2456 23.6133 18.0981 24.2236 17.9539 24.8326C17.6452 26.1379 17.3908 27.4564 17.1917 28.7831C17.049 29.7343 16.9335 30.6893 16.8468 31.6468C16.8211 31.3559 16.7898 31.066 16.7545 30.7764C16.6362 29.8148 16.4634 28.8595 16.2324 27.9186C16.2531 27.8823 16.2628 27.8388 16.2559 27.7965C16.2143 27.5379 16.1047 27.3127 16.0086 27.0729C15.9132 26.7379 15.8102 26.405 15.6994 26.0747C15.5736 25.6247 15.4324 25.1817 15.2518 24.749C15.1138 24.4193 14.9564 24.098 14.7811 23.7865C14.5717 23.3509 14.3416 22.9248 14.0891 22.5174C14.0759 22.4795 14.0546 22.4442 14.0243 22.4144C13.9783 22.3418 13.9316 22.2701 13.8841 22.199C13.8531 22.1526 13.7642 22.1808 13.7877 22.2397C13.7986 22.2673 13.8096 22.2948 13.8208 22.3221C12.792 22.0647 11.7833 22.4582 10.8033 22.7488C10.556 22.8224 10.3063 22.8888 10.0528 22.9367C9.85338 22.9742 9.62115 23.02 9.4224 22.9786C9.28938 22.9511 9.23054 22.8906 9.29533 22.7485C9.3623 22.6014 9.54509 22.5046 9.70378 22.4395C9.76356 22.4266 9.8224 22.4038 9.87905 22.3693C10.0111 22.2892 10.069 22.122 10.0067 21.9795C9.9501 21.8508 9.78484 21.74 9.63867 21.7988C9.6177 21.8073 9.59705 21.8154 9.57639 21.8236C9.5742 21.8204 9.57169 21.8161 9.5695 21.8098C9.54853 21.7525 9.53946 21.8211 9.54853 21.739C9.56356 21.605 9.70534 21.4832 9.80237 21.4065C10.0437 21.2152 10.3924 21.0737 10.7038 21.146C10.7273 21.1513 10.7507 21.1579 10.7739 21.166C11.0947 21.2772 11.2509 20.815 10.9945 20.6428C10.9789 20.6325 10.9592 20.6193 10.9376 20.604C10.8308 20.5298 10.6747 20.4049 10.7172 20.2922C10.7698 20.1522 11.08 20.0717 11.1974 20.0241C11.6218 19.8519 12.0803 19.7542 12.5379 19.7342C12.9983 19.7141 13.4647 19.7649 13.9088 19.8891C14.1266 19.9499 14.3504 20.0423 14.5564 20.1356C14.7413 20.2192 15.1438 20.3297 15.1695 20.5639C15.1751 20.6156 15.2487 20.6331 15.2647 20.5768C15.3908 20.1271 14.9013 19.8369 14.5783 19.6512C14.3664 19.5291 14.126 19.453 13.8934 19.3782C13.6706 19.3061 13.4431 19.2532 13.2108 19.2213C12.7122 19.153 12.2077 19.1618 11.7132 19.2576C11.2628 19.345 10.7617 19.494 10.3977 19.784C10.1742 19.9618 10.0731 20.2449 10.1629 20.521C10.1661 20.5301 10.1692 20.5395 10.1723 20.5486C9.77013 20.6206 9.38953 20.851 9.13508 21.1723C8.926 21.4362 8.81645 21.8035 9.00362 22.1107C8.9958 22.1163 8.98797 22.1223 8.98046 22.1285C8.80205 22.2713 8.66935 22.4786 8.62991 22.7053C8.5526 23.1524 8.82271 23.4652 9.20049 23.5848C9.10691 23.6763 9.01708 23.7733 8.92913 23.8704C8.73226 24.088 8.54415 24.325 8.37827 24.5667C8.04212 25.0564 7.75479 25.5897 7.50346 26.127C6.98672 27.2304 6.6609 28.418 6.48813 29.6222C6.40112 30.229 6.3429 30.839 6.32068 31.4514C6.29501 32.1497 6.32099 32.8482 6.30753 33.5468C6.29439 34.2181 6.22021 34.8731 6.07029 35.5275C5.92662 36.1534 5.73508 36.7668 5.56168 37.3846C5.36606 38.0803 5.15072 38.7729 5.04744 39.4903C4.99517 39.8553 4.95761 40.2214 4.98672 40.5905C5.01614 40.9666 5.1526 41.2881 5.27842 41.6379C5.31035 41.7272 5.40769 41.7631 5.48562 41.744C5.50315 41.9116 5.56637 42.075 5.66058 42.2165C5.86058 42.5165 6.16857 42.7078 6.5213 42.7773C6.9188 42.8553 7.3285 42.8368 7.73101 42.8224C8.16763 42.8067 8.60456 42.7926 9.04118 42.7745C9.4983 42.7556 9.95539 42.7362 10.4125 42.7167C10.3974 42.248 10.3794 41.7794 10.359 41.311C10.2488 38.7784 10.0752 36.2443 10.0706 33.7084C10.0618 33.7032 10.0531 33.6971 10.0447 33.689C9.83896 33.49 9.58631 33.3593 9.34894 33.2036C9.21461 33.1154 9.34018 32.8986 9.47533 32.9873C9.67545 33.1186 9.884 33.2353 10.0715 33.3824C10.0726 33.1184 10.0749 32.8545 10.0802 32.5904C10.0834 32.4292 10.3338 32.4292 10.3306 32.5904C10.3149 33.3861 10.3201 34.1819 10.3381 34.9775C10.3964 37.5556 10.5795 40.1289 10.6628 42.706C11.8898 42.6535 13.1167 42.6007 14.3438 42.5559C15.342 42.5196 16.3401 42.4833 17.3382 42.447C17.5476 42.4395 17.6653 42.2898 17.6909 42.0941C17.7379 41.734 17.6496 41.3617 17.4499 41.0589C17.4293 41.0276 17.4049 40.9998 17.3776 40.976C17.3823 40.7602 17.3911 40.5442 17.3789 40.3285C17.3607 39.9991 17.3335 39.6697 17.3097 39.3406C17.2615 38.6815 17.2243 38.0211 17.2096 37.3605C17.1795 36.0391 17.2014 34.7166 17.2762 33.3971C17.4262 30.761 17.7751 28.1418 18.3463 25.5634C18.388 25.3755 18.4299 25.1876 18.4734 25.0001C18.9175 25.2308 19.4578 25.3138 19.9432 25.317C20.5517 25.3207 21.1467 25.1807 21.6963 24.9262C21.6925 24.9547 21.6888 24.9829 21.6853 25.0114C21.5319 26.2325 21.4027 27.4561 21.29 28.6813C21.0653 31.1239 20.9276 33.5765 20.9467 36.03C20.952 36.7098 20.978 37.3874 21.0102 38.0662C21.0431 38.7566 21.0934 39.4862 21.2856 40.1522C21.3069 40.2257 21.3542 40.268 21.4086 40.2834C21.4114 40.3804 21.4177 40.4778 21.4246 40.5736C21.4468 40.8852 21.5103 41.5324 21.6462 41.8148C21.7786 42.0903 21.9992 42.3089 22.2806 42.4292C22.638 42.5816 23.0246 42.5378 23.4021 42.5134C25.0434 42.4063 26.6834 42.2629 28.3238 42.137C28.5523 42.1195 28.7808 42.1022 29.0089 42.0844C29.2121 42.0687 29.4221 42.0549 29.6024 41.9494C29.8074 41.8295 29.9673 41.2406 29.8966 40.997C29.8837 40.9525 29.8643 40.9087 29.8387 40.8692Z" fill="black"/>
<path fill-rule="evenodd" clip-rule="evenodd" d="M24.1005 11.6502C23.0017 8.75218 21.021 6.63032 17.6819 7.96304C17.5861 7.89767 17.4611 7.88013 17.3413 7.95669C15.5223 9.10171 14.2124 10.9374 13.6448 13.0075C13.2993 13.0733 12.9636 13.1882 12.6638 13.3765C12.0122 13.7858 11.5737 14.4372 11.1628 15.0715C11.0392 15.2622 11.1536 15.578 11.3859 15.6213C11.4868 15.6401 11.5867 15.6513 11.6861 15.6543C11.6619 15.7424 11.6301 15.8275 11.5895 15.9055C11.4426 16.1881 11.7201 16.4881 11.9802 16.4108C12.0091 16.4261 12.0393 16.4387 12.0706 16.4482C12.0742 16.6082 12.1562 16.8225 12.3186 16.8548C12.5812 16.9113 12.9302 16.7098 12.8682 16.4154C12.9476 16.4294 13.0266 16.4311 13.1037 16.4214C13.1123 16.5748 13.1096 16.7348 13.1307 16.8762C13.1998 17.5428 13.8641 17.9905 14.4976 17.7877C14.5365 17.9954 14.5821 18.2872 14.7861 18.3999C15.0247 19.0708 15.4366 19.8365 16.1113 20.1421C16.0512 20.2964 16.0838 20.4841 16.2647 20.5873C17.4997 21.2932 18.982 21.532 20.3783 21.2696C20.9363 21.2363 21.4799 21.1099 22.0018 20.8406C22.3823 20.6442 22.7321 20.3948 23.0736 20.1377C23.4153 19.8805 23.7807 19.6301 24.0534 19.2961C24.3496 18.9335 24.4875 18.5068 24.577 18.0526C24.987 15.9911 24.8454 13.9669 24.1005 12.0032C23.1785 9.57231 25.0222 14.0812 24.1005 11.6502Z" fill="#D08B5B"/>
<path fill-rule="evenodd" clip-rule="evenodd" d="M12.6605 13.2576C13.6862 12.6511 14.9942 12.8081 15.6104 13.7476C15.7168 13.9098 15.7902 14.0882 15.8421 14.2948L15.8505 14.3291L15.8588 14.3652C15.8857 14.4846 15.9033 14.597 15.9272 14.7881L15.9536 15.0049L15.9612 15.0639C15.9869 15.2602 16.0094 15.3841 16.0445 15.5104L16.0514 15.5349L16.0919 15.6749L15.939 15.7315C15.6458 15.8377 15.5844 15.8472 15.4153 15.7585C15.2832 15.6893 15.2142 15.5961 15.1225 15.4073L15.1092 15.3796L15.0799 15.318L15.0641 15.2856C15.0043 15.1659 14.9564 15.0383 14.8887 14.9919C14.7969 14.929 14.5073 14.9039 14.3059 14.9288L14.2954 14.9301L14.2867 14.9319L14.2718 14.9353C13.9332 15.0155 13.6245 15.2896 13.4209 15.5792C13.257 15.8124 13.1628 16.1061 13.1512 16.4114L13.1506 16.4318L13.1466 16.5876L12.8183 16.5805L12.8215 16.5199L12.8166 16.5307C12.7132 16.7493 12.4533 16.8948 12.2359 16.7501L12.2282 16.7448L12.2203 16.7392C12.0368 16.6038 12.0147 16.3296 12.1653 16.1631L12.1723 16.1556L12.179 16.1487L12.1776 16.148L12.1761 16.1475L12.1751 16.1474C12.1238 16.1569 12.0787 16.1833 12.0177 16.2394L12.0021 16.2541L11.9706 16.2883L11.938 16.3232L11.924 16.3376C11.915 16.3466 11.9068 16.3546 11.8991 16.3616C11.8887 16.3711 11.879 16.3791 11.8685 16.3864C11.8588 16.3932 11.8488 16.3991 11.8367 16.4043C11.8068 16.4173 11.7748 16.4235 11.7339 16.4134C11.6778 16.3996 11.6462 16.3656 11.627 16.3256C11.6196 16.31 11.6153 16.2957 11.6123 16.2806C11.6092 16.2648 11.6076 16.2486 11.6068 16.2301C11.6063 16.2179 11.6061 16.2046 11.6062 16.1901L11.6066 16.1674L11.6073 16.1427L11.6082 16.123L11.6119 16.05C11.6252 15.8103 11.688 15.5748 11.7956 15.3525L11.8065 15.3303L11.8106 15.3223L11.7994 15.3374C11.726 15.4344 11.6551 15.5016 11.5667 15.546L11.5545 15.5519L11.5426 15.5573C11.4199 15.6113 11.2963 15.5904 11.2216 15.4902C11.1699 15.4209 11.1547 15.3296 11.1653 15.2336C11.1858 15.0474 11.2593 14.8769 11.4031 14.6282L11.4233 14.5935L11.5022 14.4593C11.8065 13.946 12.1976 13.5313 12.6605 13.2576Z" fill="#E8E1E1"/>
<path fill-rule="evenodd" clip-rule="evenodd" d="M18.7883 7.39768C19.3507 7.35789 19.9233 7.45292 20.4588 7.62291C21.3129 7.89394 22.0973 8.37224 22.7417 8.99493C23.4059 9.63665 23.8971 10.4279 24.1957 11.3017C24.5559 12.3556 24.6098 13.4808 24.7112 14.581C24.7624 15.1368 24.8468 15.6841 24.9345 16.2346L24.9484 16.3215C25.0341 16.8578 25.0823 17.4002 24.9639 17.9357C24.7671 18.8256 24.1771 19.581 23.4767 20.1392C22.0379 21.2859 19.798 21.985 18.1228 20.9298C17.8636 20.7665 18.1092 20.3491 18.3622 20.5192C18.5403 20.639 18.7289 20.7439 18.9312 20.8164C19.7764 21.1192 20.7047 21.0114 21.5401 20.7297C22.3633 20.4521 23.1532 19.9831 23.7606 19.3573C24.3986 18.6999 24.7522 17.8879 24.7011 16.964C24.6707 16.4142 24.5457 15.8747 24.4764 15.3294C24.415 14.8465 24.3781 14.361 24.3357 13.8761L24.3201 13.7017C24.2301 12.7138 24.1009 11.6988 23.6525 10.8021C23.2754 10.0477 22.7232 9.37652 22.0592 8.85819C21.364 8.31554 20.5336 7.93602 19.6624 7.79446C18.6379 7.62801 17.6572 7.93069 16.8026 8.49417C16.0446 8.9939 15.393 9.6617 14.8933 10.4194C14.651 10.7868 14.4446 11.1792 14.2664 11.5816C14.0984 11.9607 13.9826 12.358 13.8475 12.7488C13.9587 12.7455 14.0717 12.7498 14.1864 12.7625C14.775 12.8279 15.3233 13.1336 15.6724 13.6158C16.099 14.205 15.9837 14.9282 16.1503 15.5983C16.1632 15.6503 16.1413 15.7012 16.0969 15.73C15.8442 15.8937 15.5061 15.8991 15.2616 15.7148C15.0493 15.5548 14.9497 15.2656 15.0356 15.0129C15.0468 14.9799 15.0947 14.9858 15.096 15.0211C15.1122 15.4511 15.5102 15.7823 15.9003 15.5777C15.733 14.9999 15.821 14.3546 15.4788 13.8327C14.8729 12.909 13.6193 12.8708 12.7387 13.3915C12.2753 13.6655 11.9085 14.0775 11.6353 14.5384L11.5567 14.6721C11.452 14.8509 11.3411 15.0531 11.3194 15.2499C11.3068 15.3635 11.3487 15.4703 11.4786 15.413C11.5838 15.3667 11.6652 15.2588 11.7277 15.1659C11.8342 15.0076 12.079 15.1444 11.991 15.313L11.9881 15.3185C11.86 15.546 11.7811 15.7966 11.7667 16.0578L11.763 16.1301C11.7606 16.1828 11.7588 16.2577 11.77 16.2604C11.7833 16.2637 11.876 16.1565 11.8914 16.1416C11.9657 16.0701 12.0423 16.0116 12.1457 15.9925C12.2818 15.9675 12.419 16.1362 12.3009 16.2468L12.296 16.2513C12.1906 16.3431 12.1953 16.5263 12.3117 16.6122C12.476 16.7334 12.6783 16.5355 12.7021 16.3726L12.7029 16.3666C12.724 16.1906 12.9678 16.1844 12.9811 16.3666C13.0098 16.7621 12.5402 17.0935 12.1829 16.894C12.0416 16.8152 11.9517 16.6708 11.9236 16.5161C11.8785 16.5399 11.8298 16.5565 11.7784 16.5611C11.6109 16.576 11.4919 16.4579 11.4648 16.2995C11.4332 16.1149 11.4519 15.9173 11.5004 15.7256C11.4095 15.7476 11.3138 15.7392 11.2177 15.6835C10.9267 15.5152 11.0103 15.1409 11.1201 14.8881C11.5891 13.8093 12.5607 12.8305 13.7644 12.7527C13.771 12.5624 13.7967 12.3825 13.8388 12.1919C14.2505 10.3276 15.5843 8.60138 17.3207 7.79455C17.7847 7.57894 18.2768 7.43391 18.7883 7.39768ZM14.2348 14.8446L14.2513 14.8409C14.4389 14.8004 14.9325 14.7528 14.873 15.0692C14.8702 15.0841 14.8487 15.0823 14.8448 15.0692C14.7865 14.8702 14.3906 15.0294 14.275 15.0773C14.1157 15.1433 13.9585 15.2407 13.8284 15.3538C13.5435 15.6017 13.3525 15.951 13.3235 16.3304C13.2947 16.7067 13.4036 17.1132 13.6744 17.3854C13.8071 17.5188 13.9766 17.6094 14.1669 17.6161C14.3379 17.622 14.5268 17.4886 14.6846 17.5667C14.7157 17.5821 14.7404 17.6244 14.7376 17.6593C14.7322 17.7252 14.7028 17.7765 14.659 17.8163C14.9232 18.2989 15.1394 18.8097 15.4764 19.2485C15.6455 19.4687 15.8371 19.6726 16.0541 19.8461C16.1572 19.9287 16.2693 20.0011 16.3849 20.0648C16.5204 20.1394 16.6377 20.1862 16.7344 20.3127C16.8168 20.4205 16.7343 20.6291 16.5984 20.6477C16.2783 20.6914 15.9672 20.4319 15.7322 20.2376C15.4975 20.0434 15.2945 19.8039 15.1268 19.5497C14.8048 19.0617 14.5845 18.4859 14.4965 17.9034C14.3942 17.9359 14.2791 17.9459 14.1925 17.9461C13.962 17.9466 13.742 17.8635 13.5609 17.7231C12.898 17.209 12.8243 16.1536 13.2921 15.4881C13.516 15.1696 13.8562 14.9343 14.2348 14.8446ZM14.2389 16.0687C14.3927 16.0552 14.5463 16.0795 14.6907 16.132L14.7503 16.1537C14.8761 16.1998 15.01 16.254 15.1009 16.3486C15.2398 16.4931 15.1015 16.7435 14.9037 16.6881C14.6851 16.6269 14.5074 16.4423 14.2888 16.3648C14.0934 16.2957 13.8721 16.3055 13.6987 16.4246C13.6758 16.4404 13.6457 16.4093 13.6606 16.3865C13.7933 16.184 14.0027 16.0894 14.2389 16.0687Z" fill="black"/>
<path fill-rule="evenodd" clip-rule="evenodd" d="M20.5688 17.6062C20.7439 17.3181 21.1171 18.0239 21.1568 18.1453C21.1919 18.2528 21.2151 18.3629 21.2269 18.4743C21.3626 18.5048 21.5036 18.5048 21.6427 18.4781C21.8494 18.4385 21.9757 18.3273 22.1554 18.2318C22.2795 18.1659 22.4359 18.2432 22.5004 18.3526C22.5763 18.4814 22.528 18.615 22.4281 18.711C22.2388 18.8931 21.8663 18.9349 21.6192 18.8865C21.4776 18.8589 21.3478 18.8057 21.2332 18.7285C21.2324 18.7429 21.2319 18.7574 21.2308 18.7717L21.2286 18.7967C21.2096 18.9986 21.1542 19.2524 20.9974 19.3838C20.7403 19.5993 20.423 19.1849 20.6728 18.9696L20.6806 18.9632C20.8358 18.8377 20.8697 18.5009 20.8614 18.3154C20.8559 18.1944 20.8338 18.0717 20.7956 17.9564L20.7878 17.9335C20.7763 17.9009 20.6509 17.592 20.6055 17.6313L20.6034 17.6335C20.5847 17.6558 20.5545 17.6298 20.5688 17.6062ZM21.9668 15.9804C22.2031 16.1241 22.5633 16.4592 22.309 16.8155C22.0097 17.1297 21.5788 16.7695 21.3665 16.6066C21.1696 16.4803 20.9484 16.805 21.131 16.9525C22.6654 18.0889 23.2881 16.018 22.0863 15.8114C21.954 15.7886 21.9049 15.9359 21.9668 15.9804ZM19.443 14.652C19.674 14.611 19.9106 14.6684 20.1017 14.8036L20.1162 14.814C20.3004 14.9488 20.5064 15.1853 20.4007 15.4176C20.3583 15.5108 20.2313 15.5254 20.1507 15.4832C20.0165 15.4128 19.9922 15.2396 19.8725 15.1438C19.7743 15.0652 19.6421 15.0175 19.5157 15.029C19.2186 15.056 19.0359 15.3491 18.9436 15.6017C18.9318 15.634 18.8844 15.6466 18.8659 15.6119C18.6483 15.2051 19.0334 14.7247 19.443 14.652ZM23.1429 14.4984C23.5853 14.462 24.1032 14.9209 23.9867 15.3881C23.9309 15.6123 23.5984 15.6058 23.5393 15.3881C23.5068 15.2683 23.5101 15.1622 23.4239 15.0627C23.3527 14.9806 23.2516 14.9328 23.1429 14.9402C23.023 14.9483 22.9125 15.0081 22.8285 15.0923C22.7527 15.1684 22.7074 15.2796 22.6288 15.3469C22.6095 15.3634 22.5836 15.3645 22.5645 15.3469C22.4293 15.2222 22.5104 14.9626 22.5962 14.8324C22.7188 14.6461 22.9186 14.5169 23.1429 14.4984ZM18.6004 13.8233C18.8842 13.5719 19.4 13.3292 19.7828 13.4529C20.0028 13.524 20.0988 13.8787 19.8531 13.9912C19.5686 14.1213 19.2406 14.0684 18.9511 14.2033C18.8295 14.26 18.7151 14.3309 18.6305 14.4348C18.5638 14.5167 18.4959 14.6245 18.3995 14.6717C18.3741 14.6841 18.3398 14.6844 18.3195 14.6614C18.108 14.4221 18.4158 13.9868 18.6004 13.8233ZM22.655 13.4404C22.8304 13.3912 23.025 13.3922 23.2032 13.4231C23.3814 13.454 23.5623 13.5279 23.7077 13.6356L23.7246 13.6482C23.8834 13.7679 24.0729 13.9421 24.0627 14.1541C24.0542 14.3312 23.868 14.451 23.7073 14.3582C23.5762 14.2825 23.5146 14.1309 23.4036 14.0299C23.3121 13.9466 23.2045 13.8809 23.0898 13.8349C22.9623 13.7838 22.8347 13.7598 22.6979 13.7575C22.5926 13.7558 22.4866 13.7903 22.3833 13.8014C22.3918 13.8189 22.3101 13.8107 22.2633 13.7952C22.2286 13.7804 22.2284 13.7366 22.2404 13.7081C22.3 13.5671 22.517 13.4791 22.655 13.4404Z" fill="black"/>
<path fill-rule="evenodd" clip-rule="evenodd" d="M24.7071 17.243C24.6654 17.1183 24.4507 17.1292 24.4639 17.276C24.479 17.4436 24.4217 17.6306 24.2611 17.712C24.093 17.7973 23.9038 17.7206 23.8012 17.5744C23.7121 17.4473 23.6506 17.3091 23.5384 17.1982C23.434 17.0952 23.3071 17.0157 23.1683 16.9685C23.0602 16.9318 22.9481 16.922 22.8393 16.934C22.5683 16.8728 22.2542 17.0121 22.0853 17.2235C22.0744 17.2372 22.0643 17.2512 22.0545 17.2653C22.0378 17.2425 22.0203 17.2199 22.0017 17.1976C21.9538 17.1403 21.8944 17.128 21.8408 17.1436C21.5353 16.9163 21.1071 16.8862 20.7602 17.0913C20.4822 17.2557 20.2522 17.4979 19.9104 17.5167C19.6396 17.5317 19.3447 17.3771 19.3256 17.0794C19.3156 16.924 19.1039 16.7945 18.9851 16.9384C18.7354 17.2409 18.6854 17.6429 18.8236 18.0088C18.9694 18.3948 19.2664 18.6667 19.6425 18.8267C20.0486 18.9994 20.5245 19.0594 20.9639 19.0458C21.4019 19.0321 21.8001 18.8636 22.0641 18.5052C22.0957 18.4624 22.1234 18.419 22.1476 18.375C22.404 18.7015 22.8058 18.8388 23.2151 18.8486C23.6432 18.8589 24.1494 18.7837 24.4521 18.4511C24.7439 18.1304 24.8445 17.6536 24.7071 17.243Z" fill="black"/>
<path fill-rule="evenodd" clip-rule="evenodd" d="M24.1623 16.5129C23.6925 16.7392 23.0372 16.4054 22.7213 16.0557C22.6064 15.9284 22.5177 15.5642 22.5619 15.3332C22.6817 14.7075 23.1318 14.3321 23.6069 14.2038C24.2656 14.0261 24.9284 14.4764 24.8511 15.0079C24.7779 15.5116 24.6669 16.2423 24.1623 16.5129ZM20.965 15.3111C20.9274 15.9929 20.3801 16.5897 19.7259 16.7665C18.672 17.0607 18.1511 16.3195 17.9152 15.521C17.8917 15.4417 17.8366 15.1995 17.9845 14.9918C18.5661 14.1748 19.9812 14.314 20.688 14.5383C20.8949 14.7363 20.9795 15.0219 20.965 15.3111ZM24.6726 14.1351C24.6723 14.1355 24.6719 14.1359 24.6716 14.1363C24.6692 14.1348 24.6668 14.1333 24.6644 14.1319C24.6671 14.133 24.67 14.134 24.6726 14.1351ZM25.5544 14.214C25.4932 13.5198 23.316 13.7856 23.0614 13.8425C22.3667 14.0469 21.7667 14.603 20.99 14.3585C20.1852 13.461 17.475 13.7184 16.9069 14.1756C16.7993 14.1334 16.6686 14.156 16.53 14.1959C15.8185 14.1701 12.5701 14.4155 13.2346 15.324C13.3354 15.394 13.4362 15.3228 13.4389 15.1786C16.9026 13.9279 16.5668 15.0994 16.9776 14.9626C17.0403 14.9807 17.1058 14.9921 17.163 15.0041C17.4809 15.1064 17.5889 15.0748 17.6308 15.4319C17.9185 18.1888 21.5885 17.2373 21.2874 14.9759C21.5855 14.9595 21.8462 14.8306 22.1613 14.9564C22.3801 17.0868 24.0938 17.1727 24.6095 16.4343C24.9984 15.9217 24.8442 15.1482 25.3787 14.745C25.5897 14.9216 25.6033 14.3254 25.5544 14.214Z" fill="black"/>
</svg>
