<svg width="36" height="48" viewBox="0 0 36 48" fill="none" xmlns="http://www.w3.org/2000/svg">
<path fill-rule="evenodd" clip-rule="evenodd" d="M6.10303 30.995L28.5278 32.7759L28.5513 32.9283C28.9271 35.3766 29.1169 37.0375 29.1207 37.9112L29.1208 37.9379C29.1208 38.8042 29.3866 40.1819 29.9183 42.0711L29.9511 42.1875L6.07173 42.2291L5.79004 36.5426L6.10303 30.995ZM19.3791 18.7928C20.2909 18.8379 21.2098 19.2289 21.2808 19.4788C21.4389 20.0354 21.6931 22.4181 22.5291 22.7842C23.365 23.1503 25.1498 22.8165 25.66 23.6907C26.1703 24.5649 27.8461 28.1285 27.8461 28.9589C27.8461 29.5124 22.385 29.7046 11.4628 29.5353C11.6022 25.0766 12.1835 22.7327 13.2067 22.5039L13.298 22.4837C14.7777 22.1603 15.662 22.1499 16.1668 21.6286C16.6818 21.0968 16.7753 20.1838 16.989 19.4788C17.1067 19.0904 18.2602 18.7376 19.3791 18.7928Z" fill="#D08B5B"/>
<path fill-rule="evenodd" clip-rule="evenodd" d="M21.3782 20.186C21.3817 20.1834 21.3851 20.1826 21.3889 20.1845C21.4599 20.2186 21.4746 20.2869 21.499 20.3579C21.5347 20.4619 21.576 20.5633 21.6142 20.6664C21.6903 20.873 21.7629 21.0794 21.8477 21.2826C21.9347 21.4917 22.0249 21.6971 22.1281 21.8991C22.1779 21.9968 22.2314 22.0926 22.2859 22.1878C22.3235 22.2538 22.3585 22.3446 22.408 22.4066C22.4117 22.3869 22.417 22.3681 22.4233 22.3506C22.4168 22.3537 22.4105 22.3572 22.4045 22.3609C22.392 22.3687 22.377 22.3531 22.3845 22.3409C22.4114 22.2964 22.4465 22.2664 22.4865 22.246C22.5973 22.123 25.0395 22.7102 25.7072 23.3698C26.9164 24.5643 27.7325 26.0412 28.2693 27.6124C28.5657 28.4794 28.8386 29.3549 29.1206 30.2266C29.4186 31.1484 29.7297 32.0661 30.0283 32.9873C30.0937 33.1899 29.951 33.374 29.7707 33.4407C29.4349 33.5647 29.0965 33.6815 28.7554 33.7895C28.9209 34.4254 29.0368 35.0748 29.12 35.7261C29.2918 37.069 29.3134 38.4392 29.5842 39.768C29.6464 40.073 29.725 40.3737 29.8081 40.6736L29.8274 40.7428C29.8768 40.9187 29.9219 41.0963 29.9826 41.2685C30.0349 41.4166 30.1025 41.5659 30.1391 41.7187C30.182 41.8985 30.1188 42.0948 29.9507 42.1871C29.8158 42.2614 29.6227 42.2307 29.5413 42.0913C29.5247 42.0628 29.5147 42.0318 29.5106 42.0005C29.4984 41.9745 29.4871 41.9479 29.4771 41.9207C29.4732 41.9102 29.4698 41.8993 29.4665 41.8884L29.4568 41.8559C29.433 41.7782 29.4111 41.6999 29.3892 41.6217C29.3535 41.4961 29.3176 41.3709 29.2779 41.2464L29.2577 41.1842C29.1594 40.8849 29.0715 40.5831 28.9948 40.2775C28.7204 39.1817 28.6622 38.0472 28.5868 36.9242L28.5829 36.8661C28.5147 35.8598 28.474 34.8556 28.5576 33.8515L28.5461 33.8552L28.5347 33.8587C28.4261 33.8919 28.3172 33.9244 28.208 33.9561C28.2045 33.9573 28.2014 33.9586 28.1979 33.9595C28.128 33.9812 28.0562 34.0017 27.9831 34.0209L27.9391 34.0322L27.9081 34.0406L27.8755 34.0499C27.772 34.0799 27.6665 34.1145 27.5591 34.1111C27.3814 34.1395 27.2004 34.1568 27.0227 34.1574C27.0774 35.0532 27.1407 35.9484 27.2161 36.8426C27.2918 37.7416 27.3923 38.6371 27.4965 39.5326C27.5479 39.975 27.603 40.4165 27.6637 40.8574C27.6943 41.0809 27.7263 41.3032 27.767 41.5249C27.8089 41.7516 27.8831 41.994 27.8383 42.2232C27.8374 42.2228 27.8364 42.2225 27.8355 42.2225C27.8205 42.2889 27.7804 42.3484 27.7106 42.3894C27.5826 42.4642 27.4036 42.4204 27.33 42.2895C27.3238 42.2786 27.3178 42.2673 27.3122 42.2557C27.2368 42.288 27.1541 42.3005 27.0527 42.3014L25.6774 42.3152C25.0524 42.3215 24.4274 42.328 23.802 42.3371C21.8387 42.3661 19.8753 42.3995 17.912 42.4232L17.1757 42.4317C16.0715 42.4433 14.9666 42.4661 13.8624 42.4658C13.31 42.4658 12.7582 42.4639 12.2058 42.4505C11.9382 42.4439 11.6712 42.4336 11.4039 42.4226L11.3567 42.4204C11.1433 42.4099 10.9168 42.3901 10.7081 42.4379C10.6505 42.55 10.5034 42.5732 10.4264 42.4586C10.2505 42.1964 10.2025 41.8305 10.17 41.5101L10.1585 41.3947C10.1225 41.0355 10.0909 40.6764 10.0674 40.3166C9.98417 39.0419 9.95381 37.766 9.992 36.4888C10.0114 35.8379 10.0712 35.1907 10.1419 34.5435C10.1641 34.3415 10.1873 34.1399 10.2123 33.9385L10.2128 33.8669C10.2128 33.8441 10.2127 33.8222 10.212 33.8017L10.2058 33.6074C10.2006 33.4455 10.1958 33.2835 10.1938 33.1215L10.1929 33.0242L10.192 32.8433C10.0374 32.8286 9.87244 32.7772 9.7391 32.7525C9.52286 32.7121 9.30718 32.6686 9.09215 32.6225C8.66148 32.5298 8.2355 32.4203 7.81234 32.2991L7.72235 32.2732C7.33188 32.1607 6.93604 32.0407 6.56665 31.8723C6.42205 31.8062 6.27776 31.7317 6.151 31.634C6.14349 31.7367 6.1319 31.8391 6.12502 31.9409C6.11128 32.1422 6.09497 32.3429 6.08151 32.5442L6.06864 32.7358C6.0475 33.055 6.02846 33.3738 6.01985 33.694C5.98167 35.0905 5.9751 36.4929 6.04896 37.8884C6.08558 38.587 6.13785 39.2855 6.21328 39.9813C6.25021 40.3235 6.28934 40.6667 6.33754 41.0077C6.3873 41.358 6.47713 41.7062 6.50467 42.0591C6.53097 42.3994 6.01078 42.4489 5.92533 42.1377C5.82302 41.7645 5.79695 41.3619 5.74302 40.9782L5.73691 40.9356C5.67713 40.528 5.62924 40.1187 5.58793 39.7089C5.44529 38.2952 5.40827 36.8743 5.48308 35.4552C5.51864 34.7756 5.60297 34.0986 5.70503 33.4262L5.71688 33.3486C5.76334 33.0475 5.80684 32.7463 5.85945 32.4465L5.87964 32.3341C5.9269 32.0765 5.9632 31.7962 6.03989 31.5385L6.01709 31.5175C5.97448 31.4778 5.92829 31.4318 5.89466 31.3823C5.77885 31.3666 5.68026 31.2833 5.69247 31.1321C5.73222 30.6352 5.91375 30.1298 6.07557 29.6608C6.23801 29.1893 6.42643 28.7265 6.63989 28.2756C7.39075 26.6909 8.47212 25.2522 9.7945 24.0996C10.4959 23.4881 11.2646 22.9458 12.1141 22.5597C12.5328 22.3691 12.966 22.2216 13.4199 22.1421C13.6446 22.1026 13.8715 22.0719 14.1 22.0653C14.2853 21.9559 14.5054 22.0019 14.6849 22.122L14.6947 22.1286H14.695L14.741 22.1377C14.7522 22.1399 14.7519 22.1577 14.741 22.1602C14.7404 22.1602 14.7394 22.1605 14.7388 22.1608C14.7682 22.184 14.7961 22.2087 14.822 22.2354C14.9078 22.323 14.9075 22.4289 14.8634 22.5143C15.126 22.7579 15.2918 23.0707 15.4656 23.386C15.6518 23.7236 15.8956 24.0154 16.1923 24.2615C17.2799 25.1639 18.8796 25.5631 20.2424 25.137C21.2446 24.8239 22.1006 23.9763 22.3372 22.9558C22.2812 22.9759 22.2205 22.979 22.1629 22.9583C21.8925 22.8619 21.7893 22.5662 21.6859 22.319L21.6809 22.3071C21.5798 22.0675 21.495 21.8242 21.428 21.5731C21.3604 21.3195 21.3206 21.0518 21.304 20.79C21.2976 20.6865 21.3005 20.583 21.3058 20.4795L21.3106 20.394C21.3142 20.3164 21.3131 20.2372 21.3782 20.186ZM16.9779 19.4881C16.9817 19.4787 16.9964 19.4737 17.002 19.485C17.2414 19.9791 17.0843 20.656 16.858 21.1273C16.6211 21.6201 16.2643 21.994 15.8415 22.3174C15.7832 22.3619 15.7234 22.4057 15.6627 22.4486C15.31 22.6978 14.9957 22.0259 15.403 21.8975C15.8274 21.6818 16.1723 21.2973 16.412 20.8934C16.5416 20.6751 16.6565 20.4478 16.7444 20.2092C16.8321 19.9713 16.8847 19.7236 16.9779 19.4881Z" fill="black"/>
<path fill-rule="evenodd" clip-rule="evenodd" d="M13.7663 8.84178C13.9283 8.66753 14.1355 8.53771 14.362 8.49623C14.1549 8.5999 13.9526 8.70795 13.7663 8.84178ZM13.4491 10.3442C13.4204 10.2114 13.4012 10.0773 13.3951 9.9433C13.4313 9.99847 13.4892 10.0353 13.5541 10.0544C13.5121 10.1485 13.4765 10.2455 13.4491 10.3442ZM24.2875 12.4262C24.1006 11.646 23.2283 10.1454 23.0221 9.85653C22.7982 9.14135 24.0193 8.5678 23.3552 8.00856C23.0546 7.75622 22.6572 7.66692 22.2845 7.57743C19.7037 6.95609 16.9309 7.26946 14.5374 8.41203C14.1733 8.33523 13.794 8.48533 13.5292 8.74897C12.2853 10.0023 13.9805 12.2636 14.3512 13.6766C14.9871 15.2521 13.6771 15.5171 13.8176 16.8501C13.9267 17.5388 14.6225 17.7208 15.2096 17.8249C15.3038 17.8469 15.4296 17.8502 15.4599 17.95C15.5551 18.5321 15.8812 19.0868 16.319 19.4633C16.2807 19.577 16.31 19.7151 16.445 19.815C17.6683 20.7263 19.2108 21.1824 20.7366 21.1004C22.5549 21.0027 23.4953 19.9579 23.7222 19.6889C24.9768 17.9904 24.8269 15.7493 24.5709 13.7251C24.3926 12.3149 24.6187 13.8083 24.2875 12.4262Z" fill="#D08B5B"/>
<path fill-rule="evenodd" clip-rule="evenodd" d="M18.6811 5.93446C18.7383 5.75536 18.9 5.64765 19.0853 5.66988C19.2492 5.6893 19.4248 5.85243 19.4048 6.03247C19.401 6.06722 19.396 6.09978 19.3901 6.13047L19.3909 6.13074L19.3917 6.13078L19.3876 6.14268C19.3754 6.19998 19.3585 6.25133 19.3336 6.29986C19.3017 6.39286 19.2711 6.48616 19.2408 6.57978C19.2845 6.57791 19.3292 6.58041 19.3745 6.58886C19.4213 6.46863 19.4685 6.34871 19.5153 6.22816C19.5656 6.09947 19.6009 5.93415 19.7002 5.83458C19.8273 5.70746 20.0479 5.68115 20.2028 5.77196C20.3664 5.86777 20.4248 6.0381 20.3892 6.22065C20.3711 6.31376 20.3091 6.37856 20.2323 6.41927L20.224 6.42354L20.165 6.56382C20.1831 6.55599 20.2018 6.54879 20.2221 6.54284C20.254 6.53344 20.2852 6.52749 20.3158 6.52499C20.4002 6.37188 20.4929 6.22315 20.5888 6.07724C20.6991 5.90941 20.9146 5.83802 21.0954 5.94417C21.2572 6.03904 21.344 6.28828 21.2281 6.45204C21.1401 6.57634 21.0567 6.70315 20.9745 6.83121C20.9886 6.83372 21.0026 6.83685 21.0161 6.84092C21.0223 6.83247 21.0289 6.82401 21.0357 6.81556C21.1254 6.70409 21.2297 6.62049 21.3368 6.52781C21.4371 6.44076 21.4833 6.30393 21.6151 6.23787C21.781 6.15489 21.9809 6.19466 22.0796 6.35998C22.2913 6.71411 21.9359 6.97274 21.7085 7.18722C21.9062 7.06354 22.112 6.95051 22.3232 6.85282C22.4419 6.79802 22.5624 6.74511 22.6848 6.69939C22.8663 6.63176 23.0131 6.6534 23.1621 6.77924C23.2286 6.8356 23.2617 6.95868 23.2311 7.04068C23.1718 7.19787 23.0781 7.29337 22.9138 7.33877C22.7982 7.3707 22.6798 7.39231 22.5643 7.42581C22.3706 7.48155 22.1826 7.54949 22.0002 7.63434C22.0133 7.64249 22.0258 7.65125 22.0374 7.66127C22.1736 7.61712 22.3122 7.57892 22.4515 7.54636C22.6826 7.49205 22.9177 7.45536 23.1539 7.43241L23.2323 7.42509C23.5155 7.39785 23.856 7.34758 24.0297 7.61931C24.0869 7.70886 24.0931 7.85665 24.0297 7.94526C23.9085 8.1156 23.788 8.14941 23.5875 8.15254C23.7849 8.17352 23.9819 8.19951 24.1781 8.22988C24.3133 8.25055 24.4485 8.27397 24.5831 8.29996L24.6503 8.31317C24.8143 8.34605 24.9973 8.36515 25.1382 8.46033C25.4455 8.66824 25.3012 9.07309 24.9608 9.1163C24.7962 9.13697 24.6135 9.06714 24.452 9.03458C24.2952 9.00295 24.1378 8.97509 23.9798 8.95067C23.8979 8.93783 23.8161 8.92656 23.734 8.91622C23.9011 8.94033 24.0669 8.97446 24.2284 9.02268L24.2732 9.03625C24.5854 9.13163 25.0068 9.28353 25.1041 9.61791C25.1632 9.82112 25.0017 9.99834 24.8062 10.0102C24.6244 10.0212 24.4729 9.91254 24.3186 9.83239C24.2062 9.77415 24.0919 9.73063 23.9707 9.69337C23.8455 9.65485 23.7177 9.62292 23.589 9.59693C23.6978 9.65699 23.8037 9.723 23.9054 9.79685L23.9521 9.83146C24.2223 10.0333 24.6343 10.3458 24.5391 10.7241C24.5092 10.8434 24.3764 10.9574 24.249 10.9452C23.9173 10.9142 23.7343 10.5601 23.4841 10.3703C23.4188 10.3208 23.3473 10.272 23.2723 10.2244C23.6515 10.6778 23.9532 11.2019 24.1828 11.7433C24.6873 12.9343 24.8421 14.0373 24.8458 15.3179L24.8458 15.3576C24.8465 16.0639 24.8305 16.7832 24.7618 17.4864C24.6981 18.1361 24.5813 18.7774 24.2874 19.3657C23.7949 20.3523 22.8351 21.1207 21.7766 21.4131C20.5988 21.7388 19.2823 21.4842 18.3176 20.7327C18.0714 20.5411 18.3978 20.125 18.6492 20.3019C19.6534 21.008 20.952 21.2315 22.1045 20.7537C23.0187 20.3749 23.7549 19.5598 24.0669 18.6214C24.2655 18.0244 24.3233 17.3879 24.3942 16.7657L24.3989 16.7243C24.4739 16.0736 24.5173 15.4186 24.5167 14.7636C24.5157 13.5471 24.3414 12.5458 23.8077 11.4424C23.5566 10.9226 23.2308 10.442 22.8416 10.0203C22.7236 10.0444 22.598 10.0105 22.4787 9.99771C22.4178 9.99113 22.3569 9.98487 22.296 9.97924C22.3582 10.0196 22.4192 10.0615 22.4792 10.1044L22.5579 10.1613C22.804 10.338 23.1164 10.5393 23.0531 10.881C23.0359 10.9734 22.9441 11.0582 22.8551 11.0792C22.5324 11.1562 22.3107 10.8419 22.0927 10.6552C21.9031 10.4931 21.7048 10.3478 21.5027 10.2022C21.4568 10.1693 21.4105 10.1364 21.364 10.1039C21.4077 10.155 21.4503 10.2069 21.4917 10.2592L21.5531 10.3372C21.7387 10.57 22.0062 10.8726 21.8409 11.1744C21.7941 11.2595 21.6941 11.3162 21.5973 11.3143C21.2644 11.3075 21.1319 10.9286 20.9758 10.6894C20.8415 10.4843 20.6956 10.2911 20.5448 10.0979C20.5032 10.045 20.4614 9.99207 20.4189 9.93916C19.7196 9.97548 19.0228 10.0682 18.3382 10.2163C17.8678 10.318 17.4052 10.4499 16.9461 10.5942L16.908 10.6064C16.6595 10.6866 16.4035 10.7892 16.2243 10.9652C16.1988 11.0865 16.2184 11.2144 16.2428 11.3355L16.2619 11.4282C16.3405 11.8159 16.394 12.1963 16.3539 12.5943C16.3124 13.0048 16.189 13.374 16.0385 13.7554C15.9673 13.9351 15.8936 13.9025 15.8683 14.0954C15.8489 14.2423 15.8609 14.394 15.8741 14.5421L15.8852 14.6677C15.9129 14.9967 15.9269 15.3554 15.7118 15.6268C15.6784 15.6685 15.6069 15.6519 15.5831 15.6102C15.5737 15.5936 15.5637 15.5777 15.5528 15.5623C15.4491 15.4117 15.2901 15.3259 15.1084 15.2927C15.0853 15.2887 15.0943 15.2577 15.1137 15.2552C15.2673 15.237 15.4129 15.2755 15.5366 15.355C15.4779 15.1517 15.0239 15.2506 14.8746 15.2901L14.8694 15.2915C14.6833 15.3416 14.5071 15.423 14.3519 15.5382C14.0396 15.7699 13.8591 16.1313 13.8681 16.5204C13.8772 16.9031 14.0743 17.2566 14.4128 17.4397C14.5762 17.528 14.762 17.5706 14.9469 17.5687C15.1399 17.5669 15.3117 17.482 15.505 17.4939C15.6168 17.5008 15.7024 17.621 15.6378 17.7259C15.5947 17.7961 15.5385 17.8512 15.4735 17.8934C15.6318 18.2595 15.8339 18.6086 16.0669 18.9308C16.1959 19.1096 16.3421 19.2746 16.5029 19.4252C16.6285 19.5429 16.9005 19.6791 16.8852 19.8754C16.8799 19.9462 16.8434 19.9894 16.779 20.0157C16.579 20.0977 16.3358 19.8154 16.202 19.6793L16.1912 19.6685C16.0244 19.5019 15.8723 19.3178 15.7399 19.1224C15.505 18.7755 15.3592 18.3844 15.2989 17.9736C14.9781 18.0704 14.5534 17.9796 14.2916 17.8609C13.469 17.4883 13.2 16.3777 13.7001 15.6381C13.7969 15.495 13.9181 15.3726 14.0561 15.2736C14.0258 15.257 13.9974 15.2358 13.9721 15.2088C13.8322 15.0598 13.7332 14.8653 13.635 14.6861L13.6233 14.6646C13.5361 14.5068 13.4538 14.3465 13.3768 14.1838L13.3481 14.1226C13.176 13.7516 13.0251 13.5894 12.9024 13.1993C12.7843 12.8229 12.6913 12.4394 12.631 12.0492L12.615 11.946C12.5801 11.7196 12.5471 11.4775 12.5726 11.2477C12.3974 11.305 12.2212 11.3403 12.0479 11.2542C11.9336 11.1976 11.8705 11.0322 11.9095 10.9136C11.9379 10.8262 11.9854 10.7576 12.0457 10.7038C12.0098 10.6856 11.976 10.6624 11.9464 10.6368L11.9204 10.6143C11.8155 10.5228 11.808 10.349 11.8717 10.2344C11.878 10.2235 11.8842 10.2122 11.8901 10.2012C11.9507 10.0926 12.076 10.0215 12.1997 10.0234C12.2196 10.0237 12.2396 10.0237 12.2599 10.0234C12.2022 10.0105 12.1456 9.99082 12.0919 9.95763C11.8495 9.80828 11.8801 9.40342 12.1734 9.33204C12.2965 9.30229 12.4323 9.3145 12.5679 9.34644C12.5629 9.34362 12.5579 9.3408 12.5529 9.33767C12.4505 9.27474 12.3646 9.15168 12.3742 9.0255C12.3849 8.88585 12.4298 8.78628 12.5529 8.71301C12.6597 8.64977 12.8109 8.64382 12.9171 8.71301C13.0092 8.77344 13.0995 8.84014 13.1863 8.91184C13.0992 8.80444 13.0236 8.68765 12.993 8.56366C12.9552 8.4093 13.0183 8.24115 13.1569 8.15975C13.2675 8.09493 13.3843 8.10213 13.4886 8.15223C13.483 8.07113 13.5027 7.98847 13.5564 7.91521C13.6664 7.76494 13.8662 7.67849 14.0402 7.78808C14.063 7.80249 14.0936 7.82722 14.1233 7.85759C14.0655 7.67317 14.1177 7.47967 14.3147 7.39638C14.435 7.34534 14.5977 7.37102 14.702 7.459C14.6358 7.09986 15.1646 6.83591 15.3701 7.20695C15.4167 7.291 15.4629 7.37951 15.5042 7.47005L15.5194 7.50409L15.521 7.50346L15.5105 7.47857L15.4997 7.45368C15.4426 7.32061 15.3698 7.18221 15.3498 7.03787C15.3204 6.82432 15.4154 6.62174 15.6471 6.59043C15.7668 6.57415 15.8998 6.62863 15.9801 6.72385C15.9367 6.39254 16.3058 6.15176 16.5716 6.39912C16.6975 6.51622 16.7647 6.68749 16.8446 6.83779C16.8899 6.92264 16.9361 7.00718 16.9814 7.09235C16.993 7.07857 17.0055 7.06479 17.0186 7.05133C16.9514 6.84969 16.8993 6.64303 16.8552 6.43513C16.8134 6.23912 16.9111 6.0356 17.1129 5.98021C17.2962 5.92945 17.5258 6.04283 17.5667 6.23852C17.5954 6.37626 17.6295 6.5125 17.667 6.64804C17.6926 6.64178 17.7179 6.6374 17.7429 6.63427C17.7449 6.6088 17.7473 6.58319 17.7499 6.55773L17.7598 6.46715C17.7816 6.2602 17.8036 6.02396 17.9115 5.84804C18.0955 5.54746 18.5671 5.67207 18.5721 6.02746C18.5749 6.21125 18.5003 6.39348 18.4743 6.5754C18.4631 6.65462 18.4565 6.73477 18.4528 6.81493C18.5031 6.54879 18.5721 6.28609 18.6521 6.02746C18.6614 5.99646 18.6714 5.96546 18.6811 5.93446ZM14.6121 16.1976C15.0259 16.1335 15.4041 16.3648 15.6493 16.6889C15.694 16.7481 15.6646 16.8317 15.6243 16.8815C15.5953 16.9181 15.5563 16.9225 15.5122 16.9281C15.4616 16.9347 15.3976 16.8937 15.3754 16.8495C15.2177 16.5339 14.9363 16.3345 14.6121 16.2117C14.6061 16.2095 14.6043 16.1989 14.6121 16.1976ZM15.1858 10.5427L15.1983 10.5292C15.282 10.4421 15.1497 10.3091 15.0658 10.3964C14.9774 10.4883 14.9187 10.5999 14.8622 10.713C14.8084 10.8208 14.97 10.916 15.024 10.8078L15.0487 10.7586C15.0873 10.6821 15.1284 10.6065 15.1858 10.5427ZM14.0236 10.364C14.1422 10.3439 14.0919 10.1629 13.9737 10.1829C13.8206 10.2087 13.6681 10.2381 13.515 10.264C13.3963 10.2841 13.4467 10.4651 13.5648 10.4452C13.7179 10.4193 13.8705 10.3899 14.0236 10.364ZM21.0937 9.12779C20.979 9.08944 20.9298 9.27082 21.0439 9.30896C21.2014 9.36166 21.3577 9.41567 21.5072 9.48884C21.6152 9.54169 21.7103 9.37972 21.6018 9.32662C21.4377 9.24631 21.2667 9.18566 21.0937 9.12779ZM13.9966 8.88432C13.8846 8.83942 13.836 9.02105 13.9468 9.06548L14.3515 9.22777C14.4635 9.27267 14.5121 9.09106 14.4014 9.04663L13.9966 8.88432ZM22.5071 8.44322L22.4923 8.43387C22.3908 8.36793 22.2968 8.5305 22.3977 8.5961C22.457 8.63459 22.529 8.66069 22.5833 8.70654L22.5946 8.71668C22.6823 8.79965 22.8151 8.66708 22.7272 8.58382C22.6629 8.52297 22.5815 8.48909 22.5071 8.44322Z" fill="black"/>
<path fill-rule="evenodd" clip-rule="evenodd" d="M19.9695 16.595C20.9202 16.595 21.6909 15.9993 21.6909 15.2643C21.6909 14.5294 20.9202 13.9336 19.9695 13.9336C19.0188 13.9336 18.248 14.5294 18.248 15.2643C18.248 15.9993 19.0188 16.595 19.9695 16.595Z" fill="white"/>
<path fill-rule="evenodd" clip-rule="evenodd" d="M22.7236 16.0941C23.4669 16.0941 24.1946 15.6104 24.1946 15.0138C24.1946 14.4172 23.5921 13.9336 22.8488 13.9336C22.1055 13.9336 21.5029 14.4172 21.5029 15.0138C21.5029 15.3411 21.6109 15.1288 21.8973 15.3269C22.133 15.4899 22.388 16.0941 22.7236 16.0941Z" fill="white"/>
<path fill-rule="evenodd" clip-rule="evenodd" d="M22.871 17.908L22.8969 17.9066C23.0731 17.8966 23.2442 17.8708 23.4017 17.9696C23.6109 18.1009 23.6119 18.3995 23.4017 18.5305C23.2363 18.6337 23.0566 18.5998 22.871 18.595C22.7182 18.591 22.5654 18.5883 22.4126 18.5866C22.1071 18.5834 21.8019 18.5827 21.4964 18.5842C21.2208 18.5856 20.945 18.5824 20.6694 18.5757L20.5514 18.5727C20.2688 18.5649 19.9729 18.5747 19.6945 18.5196L19.6825 18.5176L19.6829 18.517C19.6347 18.5007 19.6091 18.4238 19.6668 18.3971C19.943 18.269 20.2588 18.2153 20.5554 18.1543C20.8558 18.0927 21.1613 18.0482 21.4659 18.0133C21.7701 17.9786 22.0765 17.954 22.382 17.9345C22.5449 17.9241 22.708 17.9154 22.871 17.908ZM21.9467 13.9715L21.9668 13.958C22.188 13.8119 22.5059 13.6711 22.7608 13.7821C22.7752 13.7883 22.7874 13.7965 22.798 13.8059C22.8606 13.8071 22.9235 13.8123 22.9867 13.8218C23.4857 13.8971 23.9468 14.2247 24.1722 14.6757C24.4285 15.1884 24.3068 15.7286 23.8533 16.0773C23.6305 16.2486 23.3687 16.372 23.0869 16.3998C22.9947 16.4088 22.8971 16.4106 22.8086 16.3827C22.8505 16.4719 22.8824 16.5651 22.8988 16.6634C22.9549 17 22.8214 17.2775 22.508 17.4229C22.2326 17.5507 21.8515 17.5996 21.5791 17.4383C21.3489 17.3021 21.4243 16.851 21.7272 16.8914C21.9317 16.9186 22.1161 16.9869 22.3182 16.8997C22.4829 16.8287 22.383 16.5888 22.3333 16.4627C22.2503 16.2519 22.1281 16.0534 22.029 15.8487L22.0107 15.8102C21.9484 15.6768 21.871 15.5357 21.8117 15.3919C21.7791 15.5608 21.7206 15.7266 21.6517 15.8801C21.4881 16.2443 21.1715 16.4672 20.7942 16.5715C20.4064 16.6788 19.9512 16.7037 19.5513 16.6905C19.1446 16.6771 18.7165 16.5705 18.4189 16.2756C17.8738 15.7354 18.0304 14.7902 18.604 14.3387C18.975 14.0466 19.4978 13.8464 19.978 13.8983C20.2185 13.8441 20.4874 13.8749 20.7281 13.9294C21.0536 14.0032 21.3645 14.1612 21.5773 14.4128C21.5931 14.3732 21.6113 14.3353 21.6321 14.2991C21.6228 14.2948 21.6169 14.2809 21.6262 14.2725C21.6432 14.2573 21.6606 14.2427 21.678 14.228C21.7474 14.1308 21.8369 14.0461 21.9467 13.9715ZM18.0024 16.5034C17.9828 16.4756 18.0212 16.4395 18.0486 16.4572C18.2738 16.6024 18.5095 16.7345 18.7677 16.8114C19.0199 16.8866 19.2821 16.8788 19.5354 16.9431C19.6306 16.9672 19.6155 17.0911 19.5354 17.1214C19.2566 17.2271 18.942 17.1384 18.6771 17.0262C18.4084 16.9124 18.1719 16.7432 18.0024 16.5034ZM19.5136 14.183L19.5203 14.1749L19.504 14.1804C19.1884 14.2866 18.9286 14.4618 18.7174 14.7176C18.3574 15.1535 18.3531 15.8466 18.8914 16.1412C19.1815 16.2999 19.5241 16.3074 19.8463 16.2906L19.9114 16.2871C20.1943 16.2715 20.4829 16.2484 20.7558 16.1718C21.0535 16.0884 21.2603 15.9084 21.3742 15.6184L21.3837 15.5939C21.4973 15.2954 21.5565 14.9634 21.3455 14.6932C20.9882 14.2355 20.1626 14.1441 19.6523 14.3628C19.5301 14.4152 19.432 14.2874 19.5136 14.183ZM22.7885 14.0602C22.78 14.0685 22.7709 14.076 22.7608 14.0821C22.6584 14.1436 22.5432 14.1442 22.4296 14.1724C22.325 14.1984 22.2227 14.2301 22.1264 14.2791C21.9751 14.3559 21.8192 14.4479 21.6762 14.5482C21.7069 14.5971 21.7343 14.6488 21.7578 14.7036C21.8227 14.8548 21.8446 15.0141 21.8377 15.1741C21.9374 15.2603 22.0207 15.3675 22.1088 15.4644L22.1866 15.55C22.2773 15.6501 22.3674 15.7513 22.4518 15.8564C22.502 15.9188 22.5529 15.9828 22.6018 16.0486C22.6082 16.0289 22.6173 16.0097 22.63 15.9915C22.6776 15.9227 22.7512 15.888 22.8353 15.9079C22.9089 15.9253 22.9581 15.9586 23.035 15.9591C23.1292 15.9598 23.22 15.9395 23.3091 15.9104C23.4843 15.8532 23.656 15.7505 23.7842 15.6174C24.0734 15.317 23.9208 14.8936 23.6952 14.6074C23.4667 14.3175 23.1385 14.1293 22.7885 14.0602ZM20.2128 14.7818C20.3057 14.755 20.4438 14.7973 20.4846 14.8925L20.5139 14.9618C20.513 14.9597 20.5123 14.9581 20.5115 14.9562C20.5218 14.9808 20.5317 15.0045 20.5397 15.0296L20.5671 15.0509C20.5906 15.077 20.6123 15.1044 20.6322 15.1334C20.6792 15.2139 20.6929 15.3169 20.6688 15.4071C20.629 15.5561 20.4922 15.6517 20.3405 15.6527C19.8963 15.6553 19.7875 14.9047 20.2128 14.7818ZM22.8923 14.647C23.0976 14.6378 23.2342 14.8191 23.2506 15.0054C23.2599 15.1114 23.2385 15.2273 23.2081 15.3287C23.1628 15.48 23.0187 15.5747 22.8633 15.5539C22.7397 15.5373 22.6304 15.4432 22.5996 15.3223C22.559 15.2226 22.536 15.1129 22.5341 15.0054C22.5303 14.8045 22.7012 14.6555 22.8923 14.647ZM20.1841 12.9709C20.3922 12.9373 20.5911 13.0385 20.6213 13.2623C20.6518 13.488 20.4857 13.6372 20.2772 13.6594C19.8843 13.7011 19.4831 13.711 19.0883 13.7283C18.9236 13.7355 18.7588 13.7385 18.5939 13.74L18.5115 13.7406C18.3582 13.7415 18.1583 13.7718 18.0198 13.6963C18.0108 13.6914 18.0111 13.6803 18.0169 13.6733C18.1142 13.5533 18.3155 13.5022 18.4593 13.4494L18.4715 13.4449C18.6537 13.3762 18.8378 13.3118 19.0244 13.2561L19.1193 13.228C19.4679 13.1253 19.8266 13.0286 20.1841 12.9709ZM21.5053 12.8611C21.6339 12.8127 21.7609 12.8429 21.8484 12.9247C22.1409 13.0062 22.442 13.0686 22.7365 13.1399L22.8166 13.1596C23.1857 13.2518 23.5914 13.3228 23.9347 13.4917C23.9711 13.5097 23.9482 13.5562 23.9161 13.5601C23.5337 13.6066 23.1217 13.5327 22.7415 13.4883C22.352 13.4427 21.9605 13.3676 21.5699 13.3381C21.2895 13.317 21.2487 12.9576 21.5053 12.8611Z" fill="black"/>
</svg>
