<svg width="36" height="48" viewBox="0 0 36 48" fill="none" xmlns="http://www.w3.org/2000/svg">
<path fill-rule="evenodd" clip-rule="evenodd" d="M26.8257 26.1625C26.5529 25.1042 26.302 24.6555 25.8174 24.2876C25.3641 23.9436 24.7024 23.6546 23.7369 23.4435C22.7313 23.2676 22.7028 22.7449 22.4506 21.9047C22.3771 21.6521 22.0126 21.5849 21.8553 21.7669C21.8331 21.743 21.81 21.7211 21.786 21.7012C21.8074 21.5808 21.6321 21.2355 21.6379 21.1203C21.6991 19.9175 21.3058 19.3136 20.324 19.089C20.1106 19.0402 18.6604 19.0114 18.4522 19.069C17.5422 19.3207 16.6463 20.1197 16.7834 21.0822C16.4978 21.4556 16.2182 21.6835 15.7775 21.8038C15.0911 21.891 15.4359 31.6162 16.6279 37.4427C17.1393 39.9426 29.3681 35.6877 28.8155 34.4356C28.8939 34.2061 28.7511 33.9539 28.8155 33.7169C28.8622 33.5454 28.9816 33.4745 29.0417 33.3046C29.1263 33.0656 29.0343 32.745 28.9391 32.5012C28.9001 32.3796 29.0109 32.2488 29.0417 32.1248C29.1879 31.5398 28.8532 31.5913 28.612 31.2003C28.6156 31.1991 28.6783 30.9199 28.678 30.9213C28.715 30.7219 28.6224 30.4666 28.5417 30.3002C28.4872 30.1878 28.3703 30.1174 28.2542 30.1303C28.3711 29.7332 28.519 29.4028 28.678 29.0203C28.9593 28.346 29.2268 27.6406 29.6306 27.0302C29.796 26.7803 29.6624 26.5504 29.3948 26.5334C28.5285 26.4784 27.6717 26.3536 26.8257 26.1625Z" fill="#D08B5B"/>
<path fill-rule="evenodd" clip-rule="evenodd" d="M25.4735 26.2441L23.4961 29.5916C23.4961 29.5916 23.9652 29.6384 24.1551 29.7296C24.3449 29.8209 25.2166 30.9293 25.2166 30.9293L25.3551 31.5397L25.0269 32.0318L25.1549 32.3407C25.1549 32.3407 25.2462 32.1314 25.4735 31.9689C25.7009 31.8064 26.2023 31.5397 26.2023 31.5397C26.2023 31.5397 26.0356 31.4505 26.0356 31.3458C26.0356 31.2411 25.8889 30.7946 26.2023 30.6259C26.5156 30.4572 28.135 30.0624 28.135 30.0624L29.7762 26.5997L25.4735 26.2441Z" fill="#EC7495"/>
<path fill-rule="evenodd" clip-rule="evenodd" d="M16.6521 21.8262L22.9311 22.9285L25.8174 24.2873L26.2886 24.6503L23.496 29.5913L19.1839 30.3783L18.0853 33.2326L18.3095 36.45L25.3244 35.6134L28.3503 35.2537L29.0616 38.1261L28.9331 39.3078L28.7462 39.907L21.2448 41.9328C21.2448 41.9328 17.425 41.5624 16.7479 41.5624C16.0708 41.5624 11.1062 42.0556 11.1062 42.0556L9.95753 41.9328C9.95753 41.9328 7.41611 39.2535 7.02193 38.2999C6.62776 37.3464 5.77539 31.5499 5.77539 31.5499L5.86924 30.6592L8.06498 25.0071C8.06498 25.0071 8.35819 24.7407 8.72785 24.2873C9.09751 23.8338 16.6521 21.8262 16.6521 21.8262Z" fill="#9DDADB"/>
<path fill-rule="evenodd" clip-rule="evenodd" d="M28.0171 29.9908C27.4496 30.0197 26.8816 30.1546 26.3683 30.3991C26.1582 30.4993 25.9679 30.644 25.9122 30.8819C25.8841 31.0035 25.8909 31.129 25.9059 31.2518C25.9172 31.3447 25.9201 31.4634 26.0008 31.5263C26.0146 31.537 26.0293 31.5451 26.0446 31.5511C25.8553 31.6365 25.675 31.7393 25.5147 31.8451C25.3683 31.9418 25.2177 32.0909 25.1501 32.259C25.1445 32.2399 25.1388 32.2221 25.1332 32.2052C25.018 31.8645 24.8406 31.5855 24.5611 31.398C24.5293 31.2823 24.1887 30.7843 23.8723 30.8031C23.5258 30.8234 23.2471 30.8488 22.9338 31.0081C22.8196 31.0056 22.7056 31.0072 22.593 31.0122C22.5736 31.0128 22.5745 31.0392 22.593 31.0413C22.6844 31.0529 22.7758 31.0657 22.8672 31.0808C23.0844 31.1156 23.301 31.1597 23.5128 31.2145C23.767 31.2803 24.0299 31.3463 24.2675 31.4612C24.7282 31.6845 25.0133 32.2681 24.9548 32.776C24.9451 32.8592 24.9129 33.111 24.7973 33.085C24.6997 33.0631 24.6609 32.8592 24.6268 32.7838C24.5354 32.5834 24.3708 32.4525 24.1733 32.3639C23.9413 32.2596 23.6931 32.1892 23.4527 32.1072C23.3166 32.0605 23.1805 32.0138 23.044 31.9675C22.9044 31.9196 22.7717 31.8535 22.623 31.887C22.5332 31.9074 22.5229 32.0145 22.5733 32.0759C22.6499 32.1695 22.7639 32.197 22.8744 32.2355C23.0202 32.2863 23.1658 32.337 23.3113 32.3877C23.5363 32.466 23.772 32.532 23.9914 32.6279L23.9845 32.6435C23.9667 32.6385 23.9457 32.6564 23.9492 32.6783C23.982 32.8809 24.0277 33.1151 23.977 33.318C23.937 33.4789 23.7958 33.6571 23.6124 33.6098C23.6412 33.5835 23.6518 33.5381 23.6324 33.4961C23.5598 33.3408 22.6083 32.7277 22.5235 32.9554C22.5207 32.9635 22.5294 32.9695 22.5363 32.9682C22.6086 32.9532 22.7298 33.0765 22.7876 33.1157C22.8712 33.1721 22.956 33.2272 23.0387 33.2851C23.1291 33.3484 23.2174 33.4147 23.3035 33.4833C23.3711 33.5372 23.4221 33.5932 23.4997 33.6205C23.459 33.6398 23.4268 33.6758 23.413 33.7219C23.378 33.8418 23.3104 33.9436 23.193 33.9965C23.07 34.0516 22.9313 34.0168 22.8017 34.0303C22.6252 34.0481 22.4712 34.1321 22.3426 34.252C22.0725 34.5043 21.937 34.949 21.5592 35.0683C21.3335 35.1394 21.0831 35.0946 20.8546 35.0623C20.5996 35.0263 20.351 34.9978 20.0941 35.0354C19.8481 35.0714 19.6155 35.1565 19.3908 35.2605C19.1802 35.3579 18.9473 35.4681 18.7604 35.6134C18.7219 35.4947 18.6831 35.3773 18.6537 35.2561C18.5842 34.9697 18.5467 34.6778 18.5376 34.3835C18.5291 34.1033 18.5448 33.8218 18.5689 33.5428C18.5808 33.4034 18.5996 33.2647 18.6114 33.1254C18.6145 33.0903 18.6208 33.0528 18.6255 33.0152C18.9592 32.8182 19.3097 32.6673 19.6631 32.512C19.664 32.5117 19.665 32.5111 19.6659 32.5108C19.6769 32.5057 19.6875 32.5011 19.6985 32.4964C19.6981 32.4957 19.6978 32.4951 19.6972 32.4945C19.7376 32.4698 19.7658 32.4369 19.7827 32.3999C20.2919 32.0621 20.7176 31.6009 21.0349 31.0629C21.1679 30.8375 21.296 30.6036 21.47 30.4061C21.6553 30.1953 21.8753 30.0701 22.1476 30.0049C22.4659 29.9286 22.7939 29.8828 23.1201 29.8568C23.2981 29.8428 23.4972 29.8208 23.6913 29.8218C23.8265 29.8227 23.9588 29.8343 24.0803 29.8678C24.2603 29.9173 24.3654 30.0541 24.4784 30.1925C24.5864 30.3253 24.6938 30.4583 24.7945 30.5967C24.89 30.7279 24.9802 30.8635 25.0584 31.0056C25.1053 31.0908 25.1489 31.1785 25.1855 31.269C25.1983 31.3009 25.2152 31.3372 25.223 31.3704C25.2309 31.4039 25.2165 31.4393 25.254 31.4393C25.0991 31.4415 24.9961 31.8279 25.1501 31.8189C25.3666 31.8063 25.4755 31.5466 25.433 31.3162C25.3574 30.9052 24.9486 30.4088 24.8678 30.3036C24.689 30.0713 24.5047 29.7682 24.2186 29.6602C24.2146 29.6586 24.2102 29.6571 24.2061 29.6558C24.2894 29.5769 24.3551 29.4824 24.418 29.3862C24.4828 29.2873 24.5601 29.1739 24.5814 29.0565C24.5949 28.9817 24.5019 28.9391 24.4578 29.0045C24.3936 29.1 24.3626 29.2209 24.3147 29.3258C24.2659 29.4322 24.2064 29.5328 24.1595 29.6401C24.0465 29.6054 23.9244 29.5895 23.8002 29.5841C23.957 29.3718 24.2249 28.9623 24.2571 28.9097C24.4055 28.6661 24.5467 28.415 24.6816 28.1635C24.8274 27.8911 24.9523 27.6074 25.0919 27.3319C25.1711 27.1757 25.2509 27.0182 25.3388 26.8666C25.3692 26.8146 25.4017 26.7627 25.4387 26.7154C25.4459 26.706 25.455 26.6982 25.4634 26.6894C25.4731 26.6841 25.4831 26.6781 25.4888 26.675C25.5394 26.6459 25.5573 26.5783 25.593 26.5353C25.6499 26.4662 25.7169 26.458 25.8027 26.4571C25.9854 26.4552 26.1689 26.4624 26.3514 26.4674C26.6196 26.4749 26.8875 26.4856 27.1554 26.4996C27.2365 26.504 27.3172 26.5084 27.3983 26.5134C27.788 26.5366 28.1773 26.567 28.5658 26.6043C28.9094 26.6371 29.2531 26.6907 29.597 26.7163C29.1313 27.8232 28.6149 28.91 28.0302 29.9589C28.0243 29.9695 28.0199 29.9802 28.0171 29.9908ZM25.433 32.8423C25.3579 32.8768 25.285 32.9197 25.2171 32.9686C25.2283 32.8925 25.2312 32.8123 25.228 32.7318C25.2841 32.7919 25.3557 32.8264 25.433 32.8423ZM28.6396 30.9383C28.6343 30.9389 28.6293 30.9418 28.6268 30.9471C28.5229 31.1616 28.5663 31.4011 28.736 31.5692C28.8249 31.6569 29.0186 31.7558 29.0124 31.8999C29.007 32.0164 28.8803 32.114 28.8262 32.2102C28.7758 32.2997 28.757 32.398 28.7974 32.4951C28.849 32.6194 28.9933 32.6689 29.0427 32.791C29.1053 32.946 29.0036 33.1329 28.9323 33.2679C28.8659 33.3928 28.7801 33.5177 28.7232 33.6499C28.3417 33.8475 27.4759 34.2063 27.3717 34.2263C27.2446 34.251 27.1172 34.2745 26.9895 34.2965C26.7444 34.339 26.4988 34.3785 26.2525 34.4132C26.1122 34.4329 25.9717 34.4524 25.8312 34.4677C25.7085 34.4809 25.5701 34.4987 25.4712 34.4064C25.2719 34.2197 25.3836 33.9069 25.5097 33.7184C25.5122 33.7147 25.5122 33.7112 25.5113 33.7081C25.6302 33.6802 25.7489 33.6477 25.8672 33.6248C26.0947 33.581 26.3238 33.5441 26.5532 33.5112C27.0246 33.4438 27.4991 33.3994 27.9729 33.3546C28.0903 33.3433 28.0915 33.1586 27.9729 33.1696C27.2922 33.2319 26.608 33.291 25.9363 33.4223C25.7679 33.4548 25.6008 33.4917 25.4346 33.5334C25.3561 33.5528 25.2719 33.5832 25.1895 33.5841C25.1845 33.5841 25.1795 33.5841 25.1745 33.5838C25.0133 33.5788 24.9899 33.4407 25.0784 33.3258C25.0894 33.3117 25.1007 33.2976 25.1122 33.2842C25.2687 33.0975 25.4637 32.9729 25.6646 32.8439C25.8897 32.8132 26.1141 32.745 26.3345 32.6949C26.8784 32.5709 27.4224 32.4469 27.9667 32.3232C28.0734 32.2988 28.028 32.1347 27.9213 32.1588C27.5082 32.2525 27.095 32.3461 26.6818 32.4397L26.0772 32.5769C25.9564 32.6041 25.8055 32.6589 25.6634 32.6786C25.5933 32.6883 25.5254 32.6895 25.464 32.6752C25.2659 32.6282 25.2559 32.3805 25.3413 32.2333C25.4371 32.068 25.618 31.9647 25.7786 31.8711C26.0568 31.7086 26.3529 31.5918 26.6421 31.4571C26.6935 31.4459 26.7448 31.4346 26.7961 31.4233C27.0947 31.3576 27.4359 31.3253 27.7169 31.2048C27.8011 31.1691 27.7551 31.0363 27.6719 31.0382C27.4537 31.0429 27.2255 31.1205 27.0124 31.1666C26.7817 31.2167 26.5507 31.2665 26.3201 31.3162C26.2969 31.3212 26.1598 31.3651 26.1391 31.3554C26.126 31.3491 26.1213 31.3034 26.1169 31.2733C26.1028 31.1744 26.0925 31.0705 26.1079 30.9712C26.1417 30.7486 26.3273 30.644 26.515 30.5585C26.9332 30.3684 27.3917 30.2495 27.8481 30.2019C27.9532 30.1909 28.0584 30.1841 28.1642 30.1806C28.2884 30.1768 28.3908 30.1549 28.4537 30.2773C28.5526 30.4702 28.6071 30.7182 28.6396 30.9383ZM28.0589 37.9315C27.9678 37.6163 27.9926 37.2797 27.9302 36.9581C27.898 36.7922 27.854 36.6277 27.806 36.4657C27.7672 36.3349 27.7026 36.1958 27.6953 36.0592C27.6948 36.0501 27.7056 36.0449 27.7129 36.0491C27.8415 36.1227 27.9402 36.2819 28.0135 36.4069C28.1013 36.5564 28.1683 36.7129 28.2223 36.8775C28.3301 37.2055 28.4185 37.601 28.2796 37.9315C28.2382 38.0299 28.093 38.0496 28.0589 37.9315ZM24.5031 40.3179C24.3673 40.2231 24.2684 40.0906 24.1532 39.9737C24.04 39.8587 24.217 39.6815 24.3303 39.7966C24.4285 39.8963 24.5138 40.0209 24.6294 40.1016C24.6851 40.1404 24.7109 40.2106 24.6744 40.273C24.6422 40.3281 24.5586 40.3566 24.5031 40.3179ZM23.7459 36.675C23.9938 36.5677 24.2375 36.451 24.4969 36.3738C24.6519 36.3276 24.7176 36.5694 24.5635 36.6153C24.3246 36.6864 24.1005 36.7925 23.8723 36.8912C23.7258 36.9546 23.5984 36.7387 23.7459 36.675ZM21.1284 36.5999C21.0678 36.4503 21.3101 36.3859 21.3698 36.5334C21.4386 36.7031 21.5174 36.8685 21.5862 37.0383C21.6467 37.1879 21.4044 37.2524 21.3447 37.1049C21.276 36.9351 21.1971 36.7697 21.1284 36.5999ZM18.5448 39.5876C18.5044 39.6415 18.4371 39.6706 18.3735 39.6326C18.3202 39.6006 18.2877 39.5157 18.3286 39.4612C18.4479 39.3021 18.5689 39.1449 18.7087 39.003C18.8221 38.888 18.9991 39.0652 18.8858 39.1801C18.7609 39.3068 18.6514 39.4455 18.5448 39.5876ZM18.1754 22.8239C18.2903 22.9024 18.391 22.9978 18.4892 23.096C18.6033 23.2101 18.4263 23.3872 18.3121 23.2731C18.2294 23.1904 18.1459 23.1064 18.049 23.0402C17.993 23.0019 17.9679 22.9308 18.0041 22.8688C18.0366 22.8133 18.1195 22.7858 18.1754 22.8239ZM21.9341 26.8548C21.8691 26.985 21.8106 27.1126 21.8069 27.2605C21.803 27.4217 21.5526 27.4218 21.5566 27.2605C21.5614 27.0669 21.6327 26.899 21.7179 26.7284C21.7899 26.5839 22.0058 26.711 21.9341 26.8548ZM23.3132 23.6174C23.4478 23.5277 23.573 23.7448 23.4396 23.8337C23.3314 23.9059 23.2232 23.978 23.1151 24.0502C22.9805 24.1399 22.8553 23.9229 22.9887 23.8339C23.0969 23.7617 23.205 23.6896 23.3132 23.6174ZM17.3315 29.2777C17.3085 29.4368 17.0673 29.3687 17.09 29.2111C17.1253 28.9674 17.1682 28.727 17.2343 28.4897C17.2776 28.3343 17.519 28.4007 17.4757 28.5563C17.4097 28.7936 17.3667 29.034 17.3315 29.2777ZM16.4536 32.147C16.2924 32.1436 16.2924 31.8931 16.4536 31.8965C16.5995 31.8996 16.7428 31.938 16.8835 31.9731C17.04 32.0123 16.9733 32.2538 16.817 32.2147C16.698 32.185 16.5769 32.1496 16.4536 32.147ZM16.1295 37.9271C16.0742 37.954 16.0174 37.9783 15.9614 38.0039C15.8493 38.0551 15.7373 38.1065 15.6253 38.1579C15.392 38.2651 15.1588 38.3726 14.9259 38.4804C14.4595 38.6964 13.9896 38.9047 13.5221 39.1183C13.0454 39.3362 12.5699 39.5569 12.095 39.7788C11.8713 39.8833 11.6459 39.9839 11.4209 40.0857C11.2286 40.1727 10.9908 40.3248 10.7796 40.3391C10.7688 40.3398 10.7651 40.3261 10.7713 40.319C10.8511 40.2283 10.9784 40.1755 11.0832 40.1165C11.1903 40.0562 11.2994 39.9995 11.408 39.942C11.6345 39.8219 11.8612 39.7029 12.0898 39.5871C12.547 39.3556 13.0052 39.1258 13.4634 38.8963C13.9308 38.6621 14.3976 38.4265 14.869 38.2007C15.091 38.0944 15.3132 37.9884 15.5355 37.8827C15.6559 37.8255 15.7764 37.7683 15.8969 37.7113C15.949 37.6866 16.0005 37.66 16.0537 37.638C16.1244 37.6087 16.1781 37.6147 16.2511 37.5967C16.37 37.5673 16.4215 37.7186 16.3302 37.7845C16.255 37.8387 16.2155 37.8851 16.1295 37.9271ZM14.458 40.4955C14.4323 40.4331 14.4861 40.3571 14.5454 40.3415C14.6165 40.3227 14.6735 40.3659 14.6994 40.4289C14.7681 40.596 14.8658 40.7493 14.9917 40.8787C15.1042 40.9944 14.9272 41.1715 14.8146 41.0558C14.6569 40.8936 14.5436 40.7039 14.458 40.4955ZM13.2282 36.4748C13.114 36.3607 13.2911 36.1836 13.4053 36.2977L13.7298 36.6223C13.8439 36.7365 13.6668 36.9136 13.5527 36.7995L13.2282 36.4748ZM9.89893 35.9456C9.66563 36.014 9.39351 36.077 9.23445 36.2761C9.22669 36.2858 9.21364 36.2733 9.2183 36.2636C9.42193 35.8413 10.0059 35.6932 10.4102 35.5452C10.6962 35.4405 10.9896 35.3537 11.2855 35.2762C11.256 34.9385 11.3375 34.5766 11.3659 34.2406C11.3961 33.8818 11.4208 33.5221 11.4334 33.1622C11.4463 32.7951 11.4495 32.4255 11.4374 32.0583C11.4254 31.6924 11.3779 31.331 11.3571 30.9664C11.3551 30.9311 11.4042 30.9294 11.4148 30.9586C11.5376 31.2969 11.5901 31.6718 11.6301 32.0286C11.6713 32.3961 11.685 32.7626 11.6797 33.1323C11.6743 33.5124 11.6522 33.8916 11.6219 34.2705C11.6075 34.4501 11.5908 34.6295 11.5751 34.809C11.5631 34.9459 11.5575 35.0818 11.5296 35.2144C11.708 35.1706 11.8869 35.1291 12.0652 35.0888C12.6338 34.9605 13.2048 34.8414 13.7709 34.7026C14.0489 34.6345 14.3228 34.5529 14.5995 34.4804C14.8601 34.4122 15.135 34.3295 15.4025 34.299C15.498 34.2881 15.5101 34.4188 15.4469 34.4631C15.2295 34.6158 14.9408 34.7221 14.6897 34.8076C14.4377 34.8934 14.1757 34.9551 13.9174 35.0186C13.3787 35.1512 12.8349 35.2595 12.2919 35.3724C11.7497 35.4852 11.2065 35.5971 10.6704 35.7362C10.4122 35.8032 10.1549 35.8704 9.89893 35.9456ZM8.62046 29.2443C8.48106 29.3262 8.3552 29.1096 8.49411 29.028C8.67586 28.9213 8.86957 28.8411 9.06485 28.7629C9.2147 28.7029 9.27918 28.9452 9.13142 29.0044C8.95592 29.0747 8.78378 29.1484 8.62046 29.2443ZM8.11567 38.5504C7.97589 38.6315 7.84995 38.415 7.98932 38.3342C8.18506 38.2207 8.39943 38.1449 8.60228 38.0456C8.7466 37.9749 8.87336 38.191 8.72863 38.2619C8.52582 38.3612 8.31142 38.4369 8.11567 38.5504ZM7.88863 33.2678C8.02378 33.3963 8.20416 33.4567 8.37423 33.5242C8.52253 33.583 8.45749 33.8251 8.30766 33.7657C8.09577 33.6817 7.87993 33.6049 7.71157 33.4449C7.59445 33.3336 7.77182 33.1568 7.88863 33.2678ZM9.38381 26.0937C9.53239 26.152 9.46732 26.3941 9.31724 26.3352C9.15079 26.2699 8.9789 26.2202 8.81245 26.1549C8.66391 26.0966 8.72895 25.8544 8.87902 25.9133C9.04547 25.9786 9.21736 26.0283 9.38381 26.0937ZM12.0215 23.2441C12.1793 23.2175 12.2466 23.4589 12.088 23.4857C11.8914 23.5189 11.6977 23.5577 11.5111 23.6299C11.3605 23.6882 11.2959 23.446 11.4446 23.3884C11.6311 23.3162 11.8248 23.2773 12.0215 23.2441ZM12.893 30.1821C12.7482 30.1109 12.8752 29.895 13.0193 29.9658C13.1712 30.0405 13.3285 30.0983 13.4942 30.1336C13.652 30.1672 13.5848 30.4086 13.4277 30.3751C13.2412 30.3354 13.0637 30.2661 12.893 30.1821ZM13.7161 26.274C13.872 26.2313 13.9379 26.473 13.7827 26.5156C13.5096 26.5904 13.2284 26.6293 12.9534 26.6959C12.7966 26.7339 12.7303 26.4923 12.8868 26.4544C13.1619 26.3878 13.4431 26.3489 13.7161 26.274ZM17.208 25.0476C17.3665 25.077 17.299 25.3183 17.1415 25.2892C16.9738 25.2582 16.8039 25.2577 16.6339 25.2576C16.4725 25.2575 16.4728 25.007 16.6339 25.0071C16.827 25.0072 17.0176 25.0124 17.208 25.0476ZM28.5964 26.3563C28.1873 26.3171 27.7776 26.2858 27.3673 26.2623C27.3482 26.2614 27.3294 26.2601 27.3103 26.2592C27.3082 26.2548 27.3053 26.2507 27.3025 26.2463C27.1686 26.0497 27.07 25.8531 26.9845 25.6308C26.9028 25.4191 26.8237 25.2009 26.6978 25.0099C26.5543 24.7923 26.3606 24.622 26.1483 24.4744C26.0195 24.5611 25.8999 24.6625 25.7906 24.77C25.6755 24.8832 25.4984 24.7061 25.6135 24.5929C25.7107 24.4974 25.8144 24.4091 25.9241 24.3293C25.7975 24.2524 25.6683 24.18 25.5423 24.1081C25.0699 23.8385 24.5864 23.5893 24.0928 23.3614C23.8634 23.2552 23.6312 23.1609 23.3974 23.0654C23.2715 23.0141 23.1473 22.948 23.0215 22.8886C23.0305 22.7996 23.0039 22.7 22.9357 22.6415C22.8853 22.5986 22.8462 22.5826 22.7861 22.5523C22.7726 22.5475 22.7645 22.5447 22.7607 22.5432C22.7636 22.5438 22.7717 22.5463 22.7851 22.5507C22.8171 22.5654 22.8196 22.561 22.7927 22.5378C22.7911 22.4871 22.6912 22.3801 22.6684 22.3278C22.5889 22.1483 22.5642 21.9586 22.4468 21.7951C22.285 21.57 22.0133 21.4849 21.7601 21.5612C21.7338 21.2904 21.7269 21.0077 21.6249 20.7659C21.6221 20.7594 21.613 20.7565 21.6089 20.7638C21.5025 20.9451 21.4935 21.147 21.4853 21.3562C21.4775 21.5525 21.485 21.7532 21.5107 21.9483C21.4944 21.9608 21.4778 21.9727 21.4606 21.9843C21.3798 22.0375 21.2928 22.0785 21.2014 22.1089C21.0274 22.1665 20.8449 22.1915 20.6625 22.2003C20.1914 22.2229 19.706 22.1753 19.2427 22.0945C18.7742 22.0128 18.0559 21.89 17.639 21.6555C17.3638 21.5008 17.11 21.312 16.8527 21.1292C16.946 20.8286 16.9698 20.5054 16.8759 20.2515C16.8647 20.2211 16.8171 20.2155 16.808 20.2515C16.7492 20.4938 16.7319 20.7374 16.6537 20.977C16.6525 20.9804 16.6512 20.9842 16.6499 20.9876C16.6255 20.9711 16.6011 20.9547 16.5767 20.9385C16.5204 20.9012 16.4437 20.9291 16.4099 20.9823C15.8693 21.8343 15.0133 21.8831 14.1144 22.0353C13.1307 22.2019 12.142 22.3816 11.1961 22.7075C10.2916 23.0194 9.4271 23.4734 8.74228 24.1516C8.58726 24.3052 8.44228 24.4688 8.30544 24.6396C8.43783 24.6563 8.56913 24.6823 8.69874 24.723C8.8522 24.7712 8.78625 25.013 8.63217 24.9645C8.4656 24.9122 8.29718 24.8863 8.12704 24.8734C7.66172 25.5102 7.2989 26.2323 6.98516 26.943C6.38337 28.3057 5.99167 29.7569 5.81142 31.2344C5.91039 31.1751 6.01114 31.1185 6.11439 31.066C6.25787 30.993 6.38441 31.2092 6.24078 31.2823C6.08128 31.3634 5.92635 31.4529 5.77624 31.5499C5.71067 32.1966 5.68525 32.8475 5.70065 33.4974C5.73727 35.0466 5.94635 36.6413 6.41927 38.1195C6.6512 38.845 6.95855 39.5646 7.41646 40.1776C7.62366 40.4553 7.85902 40.7058 8.13633 40.9147C8.2706 41.0161 8.4127 41.1066 8.56262 41.183C8.75574 41.282 9.00738 41.3145 9.17389 41.4545C9.22866 41.5005 9.27092 41.5612 9.30284 41.6298C9.28438 41.7601 9.28218 41.8906 9.31787 42.0209C9.32913 42.0616 9.35981 42.0948 9.39768 42.1108C9.3983 42.122 9.3983 42.133 9.3983 42.1436C9.3983 42.1486 9.40582 42.1499 9.40675 42.1449C9.40832 42.1352 9.40988 42.1255 9.41145 42.1155C9.42366 42.1195 9.43649 42.1214 9.44963 42.1214C9.92506 42.1232 10.4011 42.1116 10.8771 42.0955C10.8403 41.9827 10.8005 41.8708 10.7622 41.758C10.7102 41.6048 10.9521 41.5396 11.0036 41.6914C11.0484 41.8233 11.0952 41.954 11.1369 42.0864C11.647 42.0674 12.1569 42.0446 12.6659 42.0278C13.7485 41.9918 14.8309 41.9799 15.9138 41.9571C17.5955 41.9214 19.2894 41.8484 20.9738 41.9198C21.032 41.7961 21.0972 41.6753 21.159 41.5533C21.232 41.4093 21.4479 41.5362 21.3752 41.6797C21.3323 41.7645 21.2878 41.8482 21.2455 41.9328C21.5866 41.9505 21.9274 41.9739 22.2674 42.0059C22.8477 42.0603 23.4224 42.1571 24.0021 42.2172C24.5914 42.2786 25.1679 42.2677 25.7526 42.1703C25.8578 42.1527 25.9197 42.0892 25.9454 42.0103C25.9463 42.0099 25.947 42.0093 25.9476 42.0084C25.9776 41.9733 26.0058 41.9442 26.0349 41.9188C26.0697 41.8963 26.1072 41.8772 26.1514 41.8603C26.2337 41.829 26.3194 41.8099 26.4064 41.797C26.5022 41.7826 26.5992 41.7814 26.695 41.7695C26.7757 41.7592 26.8546 41.7438 26.9335 41.725C27.0753 41.6912 27.2099 41.6471 27.3438 41.5885C27.4606 41.5375 27.566 41.4642 27.6656 41.3843C27.8715 41.2337 28.0499 41.0415 28.2058 40.8417C28.2966 40.7249 28.382 40.6038 28.4597 40.4776C28.5949 40.259 28.71 40.032 28.8265 39.8031C28.8687 39.7353 28.9073 39.6659 28.9425 39.5949C28.715 39.5279 28.4853 39.4732 28.244 39.4693C28.0828 39.4667 28.0828 39.2162 28.244 39.2188C28.5207 39.2232 28.7824 39.2879 29.0424 39.3649C29.055 39.3313 29.0672 39.2974 29.0784 39.263C29.1094 39.1913 29.1351 39.1177 29.1564 39.0432C29.1689 39.0094 29.1814 38.9756 29.1939 38.9418C29.2221 38.8247 29.2503 38.7072 29.2787 38.5898C29.3354 38.402 29.3801 38.2113 29.413 38.0181C29.4406 37.891 29.4618 37.7629 29.4762 37.6333C29.5201 37.3192 29.5557 37.0058 29.5582 36.6883C29.5545 36.4926 29.542 36.2972 29.5207 36.1028C29.5116 35.9706 29.4963 35.8391 29.4756 35.7086C29.4487 35.5144 29.4221 35.3222 29.3773 35.1306C29.3438 35.001 29.3104 34.8713 29.2769 34.7417C29.1933 34.4715 29.0947 34.2066 28.9811 33.9476C28.9748 33.9314 28.9432 33.8956 28.9241 33.8953C28.9097 33.895 28.8897 33.9082 28.8962 33.9257C28.8969 33.9273 28.8975 33.9292 28.8981 33.9307C28.8916 33.916 28.8853 33.901 28.8787 33.8863C28.8731 33.8725 28.8512 33.845 28.8343 33.8453C28.8334 33.8453 28.8324 33.8453 28.8312 33.8456C28.8356 33.8425 28.8396 33.8384 28.8437 33.8337C28.9561 33.7006 29.029 33.5256 29.1094 33.3715C29.1761 33.2444 29.239 33.1104 29.2571 32.9666C29.2731 32.8405 29.2515 32.7162 29.1723 32.6141C29.0822 32.4979 28.9125 32.4434 29.0068 32.2756C29.1138 32.0846 29.2712 31.919 29.1144 31.702C29.0346 31.5915 28.9082 31.5307 28.8143 31.4346C28.7063 31.3234 28.6549 31.1747 28.6578 31.0229C28.6643 31.0266 28.6731 31.0248 28.6762 31.0153C28.767 30.7411 28.7013 30.4399 28.6083 30.1728C28.5576 30.0278 28.4502 29.988 28.3254 29.9808C28.8662 28.9241 29.3723 27.8504 29.8233 26.752C29.8384 26.716 29.8531 26.68 29.8678 26.644C29.8897 26.5901 29.8434 26.5185 29.7899 26.5065C29.3999 26.4211 28.9936 26.3938 28.5964 26.3563Z" fill="black"/>
<path fill-rule="evenodd" clip-rule="evenodd" d="M24.4026 14.2445C24.1882 11.6245 23.5355 9.30402 20.4683 9.20508C19.0841 9.21748 17.6711 9.51227 16.3983 10.0577C13.3045 11.6128 12.3228 17.2952 15.0486 19.5826C15.0324 19.5918 15.0285 19.6185 15.0476 19.6314C15.6107 20.0112 16.2367 20.3237 16.8636 20.5863C18.5335 21.2941 20.4993 21.6015 22.2023 20.8338C24.8013 19.7251 24.8403 16.6402 24.4026 14.2445Z" fill="#D08B5B"/>
<path fill-rule="evenodd" clip-rule="evenodd" d="M29.5187 13.0229C29.6255 12.9265 29.7051 12.8 29.7454 12.6582C29.7823 12.5288 29.7848 12.3876 29.7457 12.2586C29.7039 12.1202 29.6136 12.01 29.6339 11.866C29.6361 11.8519 29.6389 11.8372 29.6433 11.8225C29.7214 11.5513 29.9135 11.3556 29.8447 11.055C29.8254 10.9702 29.7888 10.8938 29.7379 10.8337C29.7436 10.7685 29.7485 10.7028 29.7526 10.637C29.8654 10.3724 29.8613 10.0581 29.7411 9.79757C29.7264 9.66418 29.7042 9.53205 29.673 9.40211C29.6873 9.28719 29.6673 9.1607 29.6305 9.06019C29.5657 8.88334 29.4857 8.70906 29.3989 8.53767C29.4091 8.49079 29.4045 8.44126 29.3787 8.39721C29.3318 8.31714 29.2698 8.24676 29.2064 8.17796C29.1616 8.09771 29.1165 8.01812 29.0717 7.93956C29.051 7.90346 29.0281 7.86341 29.0029 7.82099C29.0716 7.69305 29.1084 7.56837 29.0356 7.41792C29.0083 7.3614 28.9331 7.31973 28.8713 7.32342C28.8037 7.32746 28.7354 7.3305 28.6668 7.3331C28.5386 7.17786 28.3932 7.03849 28.2375 6.95827C28.0798 6.82426 27.9199 6.69275 27.7643 6.55843C27.7203 6.52023 27.6759 6.48203 27.6319 6.44383C27.6316 6.44289 27.6313 6.44164 27.631 6.4407C27.5985 6.32203 27.5619 6.20492 27.5254 6.08719C27.5026 6.01424 27.4957 5.93784 27.4248 5.89807C27.2768 5.8151 27.0491 5.80195 26.8792 5.78786C26.8623 5.77283 26.8455 5.75811 26.8286 5.74308C26.9057 5.53706 26.892 5.31819 26.7949 5.11185C26.7617 5.04171 26.6468 5.01009 26.5837 5.05643C26.4382 5.16351 26.2655 5.2014 26.0946 5.18575C25.8435 4.99224 24.8306 4.11722 24.6741 4.02485C24.6722 4.02153 24.6706 4.01822 24.6686 4.01493C24.5806 3.87409 24.4737 3.76099 24.3536 3.67032C24.3365 3.65238 24.3193 3.6344 24.3022 3.61643C24.3172 3.50906 24.3569 3.40539 24.4208 3.31866C24.4277 3.30864 24.4355 3.29894 24.4433 3.28954C24.5551 3.15616 24.4187 2.98457 24.2625 3.0544C24.2512 3.0594 24.24 3.06441 24.2288 3.06974C24.1087 3.1234 23.9759 3.18174 23.8375 3.23096C23.7869 3.21195 23.7353 3.19473 23.6882 3.17576L23.1843 2.97264C23.1013 2.9392 23.0136 2.91086 22.9334 2.87157C22.9054 2.68499 22.7189 2.56262 22.5252 2.56901C22.5363 2.53319 22.553 2.4984 22.5765 2.46543C22.5834 2.45573 22.5909 2.44633 22.5987 2.43725C22.6984 2.32109 22.5653 2.10567 22.4229 2.20899C22.4129 2.2162 22.4026 2.2234 22.3926 2.2306C22.353 2.25843 22.3125 2.28455 22.2716 2.30985C22.206 2.28117 22.1322 2.27462 22.0549 2.30496C21.8838 2.37213 21.7261 2.44041 21.5754 2.54568C21.5693 2.54997 21.563 2.55357 21.5568 2.55761C21.482 2.46706 21.3633 2.4065 21.2564 2.40716C21.2542 2.40716 21.2525 2.40713 21.2506 2.4071C21.1707 2.28502 21.0241 2.21407 20.8827 2.23132C20.8922 2.05613 20.7173 1.8998 20.558 1.88079C20.3719 1.85862 20.2042 1.96693 20.1484 2.14891C20.1328 2.19957 20.1173 2.25026 20.1017 2.30095C19.9573 2.22784 19.8048 2.17183 19.6455 2.14387C19.2828 2.08018 18.9281 2.148 18.5786 2.24895C18.5437 2.25903 18.5088 2.26939 18.4739 2.27973C18.4241 2.22183 18.3773 2.16256 18.3326 2.10723C18.2555 2.01173 18.0703 2.08813 18.0828 2.21087C18.0914 2.29557 18.0571 2.3565 18.0019 2.3998C17.9412 2.4087 17.8825 2.41139 17.7941 2.4096C17.6772 2.40722 17.624 2.40356 17.5017 2.35578C17.4448 2.33355 17.3738 2.27509 17.3406 2.22261C17.2134 2.02138 16.8901 1.96718 16.7361 2.15905C16.5741 2.08795 16.3695 2.18601 16.2795 2.32428C16.2325 2.39658 16.1343 2.437 16.0106 2.47176C15.9179 2.49781 15.823 2.51753 15.7276 2.53479C15.6852 2.47702 15.5957 2.43829 15.5301 2.48672C15.4856 2.51963 15.4425 2.55342 15.3999 2.58805C15.0717 2.63339 14.7451 2.63501 14.4321 2.5067C14.1672 2.39805 13.9238 2.69479 13.9676 2.9439C13.8908 2.98395 13.8076 3.01059 13.7318 3.05255C13.5664 3.14416 13.4306 3.28898 13.3478 3.45912C13.333 3.48959 13.3196 3.52052 13.3068 3.55162C13.245 3.60206 13.1839 3.65385 13.1242 3.70849C13.0249 3.65745 12.9259 3.60641 12.8266 3.55537C12.7522 3.51717 12.627 3.54379 12.6123 3.64273C12.5883 3.80555 12.5299 3.9405 12.4465 4.05353C12.1754 4.19631 11.9146 4.35663 11.665 4.53479C11.378 4.62496 11.0729 4.67757 10.8221 4.73674C10.7362 4.7571 10.6893 4.8695 10.7377 4.94434C10.7889 5.02355 10.8402 5.10277 10.8911 5.18199C10.7483 5.32164 10.6144 5.46755 10.4879 5.61847C10.1359 6.03803 9.84134 6.498 9.57773 6.9852C9.47342 7.02747 9.3691 7.06942 9.26478 7.11169C9.16421 7.1524 9.11892 7.2695 9.20044 7.35561C9.23917 7.39663 9.27384 7.43984 9.30351 7.48524C9.15578 7.7304 8.98181 7.95396 8.73851 8.1005C8.66448 8.14496 8.60889 8.21479 8.57922 8.294C8.55392 8.31091 8.52893 8.32907 8.50426 8.34755C8.43555 8.39952 8.39401 8.51287 8.47459 8.58019C8.53112 8.62778 8.58422 8.68414 8.62919 8.74645C8.63887 8.78183 8.64887 8.81753 8.65886 8.85291C8.43274 9.06144 8.24471 9.30379 8.10354 9.57557C8.07012 9.57025 8.03577 9.57369 8.00797 9.59436C7.75561 9.78128 7.74811 10.0791 7.84962 10.3452C7.7884 10.7463 7.82776 11.1574 7.94582 11.546C7.79059 11.7013 7.6972 11.9255 7.6591 12.1415C7.59195 12.521 7.58726 13.1046 7.56977 13.492C7.40049 13.6557 7.27993 13.8677 7.21278 14.0956C7.15625 14.1238 7.09972 14.152 7.04319 14.1802C6.9929 14.2052 6.95605 14.2713 6.95917 14.327C6.97354 14.5966 7.08441 14.8095 7.23152 15.0024C7.28368 15.1511 7.36082 15.2883 7.46202 15.4198C7.53198 15.51 7.60038 15.5964 7.66066 15.6938C7.66691 15.7035 7.67065 15.7126 7.67346 15.7188C7.64973 15.7445 7.63005 15.7871 7.61287 15.8174C7.46858 16.0723 7.46639 16.371 7.67128 16.593C7.59413 16.6563 7.59163 16.784 7.65972 16.8623C8.10292 17.3699 8.4724 17.987 9.08738 18.2566C9.09019 18.2613 9.09269 18.266 9.09487 18.2707C8.97025 18.5713 8.95339 18.7275 9.05521 19.0381C9.05583 19.0409 9.05677 19.0434 9.05771 19.0463C9.11205 19.2091 9.212 19.4699 9.39221 19.5206C9.44905 19.5366 9.50496 19.5438 9.56024 19.5435C9.70329 19.6816 9.84602 19.82 9.98876 19.9583C10.0013 20.0269 10.0091 20.0961 10.0116 20.1659C10.0156 20.2827 10.1252 20.3773 10.2433 20.3428C10.2848 20.3306 10.5147 20.1068 10.5569 20.108C10.5781 20.1293 10.5987 20.1506 10.6193 20.1722C10.6952 20.252 10.8005 20.3779 10.8092 20.4615C10.8261 20.619 10.9292 20.7994 11.0957 20.8313C11.1581 20.8949 11.2581 20.914 11.3346 20.831C11.3396 20.8257 11.3446 20.8203 11.3499 20.8156C11.358 20.8147 11.3658 20.8138 11.3739 20.8128C11.4108 20.923 11.4476 21.0333 11.4848 21.1432C11.5576 21.3598 11.8356 21.4992 12.0329 21.3727C12.0648 21.3918 12.096 21.4121 12.1273 21.4325C12.1747 21.4628 12.2228 21.4938 12.2722 21.523C12.275 21.5311 12.2778 21.5392 12.2803 21.5471C12.3122 21.6445 12.4446 21.6967 12.5261 21.6407C12.5514 21.6488 12.5773 21.6554 12.6036 21.6607C12.7413 21.688 12.88 21.6805 13.013 21.6344C13.1083 21.6019 13.1992 21.5396 13.3016 21.5311C13.308 21.5306 13.3146 21.531 13.3211 21.5308C13.4047 21.7025 13.5957 21.8504 13.7462 21.9006C13.9433 21.9665 14.1451 21.9429 14.3246 21.8623C14.3731 21.9594 14.4339 22.0513 14.5066 22.1364C14.5469 22.1833 14.6197 22.1733 14.6612 22.1364C14.7401 22.0662 14.8185 21.9958 14.8968 21.9253C14.9534 21.9034 15.0106 21.8771 15.0703 21.8527C15.2568 21.7763 15.4614 21.7446 15.6339 21.6342C15.7159 21.5818 15.7929 21.5149 15.8564 21.4374C15.9759 21.3682 16.0858 21.282 16.1847 21.1832C16.2341 21.1836 16.2856 21.172 16.3356 21.1466C16.5445 21.0401 16.6545 20.8235 16.6642 20.6018C16.8334 20.2026 16.9334 19.7767 16.9609 19.3409C16.9696 19.1978 16.9712 19.0535 16.9602 18.9104C16.9528 18.8095 16.9275 18.7422 16.8893 18.6511C16.8765 18.6214 16.865 18.5941 16.8559 18.5641C16.8581 18.4676 16.8594 18.3712 16.8606 18.2751C16.8865 18.194 16.9328 18.1185 16.9971 18.0549C17.0967 17.9566 17.1423 17.7525 17.0518 17.631C16.9927 17.5524 16.934 17.4738 16.875 17.3952C16.8915 17.058 16.9721 16.5213 16.7935 16.465C16.8006 16.4149 16.816 16.3654 16.8247 16.3156C16.8665 16.0764 16.8416 15.8625 16.7148 15.6534C16.6882 15.6099 16.6657 15.5713 16.6473 15.5338C16.6357 15.4649 16.6242 15.396 16.6126 15.3271C16.5948 15.221 16.5773 15.1139 16.5623 15.0062C16.5545 14.869 16.5473 14.7319 16.5395 14.5944C16.5324 14.4679 16.5242 14.3414 16.5158 14.2146C16.5192 14.158 16.5242 14.1013 16.5314 14.0446C16.5742 13.7068 16.7119 13.5818 16.9506 13.347C16.988 13.341 17.0252 13.3345 17.0618 13.327C17.232 13.2916 17.41 13.2368 17.5852 13.2565C17.7754 13.2778 17.9456 13.3601 18.1305 13.2549C18.1849 13.2236 18.3045 13.1372 18.3148 13.0686C18.3154 13.0643 18.3164 13.0605 18.3176 13.0577C18.3304 13.0558 18.347 13.0542 18.3573 13.0539C18.5041 13.0489 18.6443 13.1068 18.7924 13.0909C18.9676 13.0721 19.1244 12.9941 19.2274 12.8786C19.3596 12.9111 19.4945 12.9259 19.6316 12.9077C19.7465 12.8927 19.8496 12.8551 19.9514 12.7994C20.0254 12.7593 20.002 12.7477 20.0826 12.7803C20.2659 12.8548 20.4318 12.9531 20.6382 12.9021C20.7454 12.8758 20.8378 12.8178 20.9156 12.7399C20.934 12.7217 20.9652 12.6945 20.9862 12.6688C21.0842 12.7186 21.331 12.831 21.3716 12.841C21.4865 12.8692 21.6083 12.8648 21.7201 12.8272C21.8023 12.7997 21.9028 12.7245 21.975 12.7092C22.0684 12.6892 22.2758 12.8194 22.3873 12.8642C22.5828 12.9428 22.7899 12.9622 22.9879 12.8811C23.056 12.8532 23.1884 12.7421 23.2393 12.743C23.3221 12.8454 23.5532 13.4055 23.6225 13.61C23.9033 14.4366 23.9761 17.0176 23.8465 17.6761C23.8415 17.6955 23.8362 17.7146 23.8309 17.734C23.6716 18.3067 23.5057 18.8891 23.2393 19.4226C22.9879 19.9255 22.6403 20.3782 22.1415 20.6528C21.6243 20.9378 21.0171 21.0126 20.4355 20.9741C20.061 20.9497 19.6928 20.8742 19.3305 20.7796C19.1412 20.7305 18.9535 20.6757 18.7668 20.6187C18.6852 20.594 18.6025 20.5708 18.5225 20.542C18.3813 20.491 18.3073 20.4869 18.1721 20.5523C18.049 20.6118 18.0175 20.7875 18.0815 20.898C18.1858 21.0783 18.377 21.0909 18.5616 21.1435C18.7496 21.197 18.9382 21.2484 19.1281 21.2944C19.492 21.3821 19.8618 21.4494 20.2347 21.4804C20.9025 21.5364 21.5905 21.45 22.1983 21.1579C22.267 21.1247 22.3332 21.0893 22.3973 21.0511C22.3735 21.0843 22.3495 21.1175 22.3251 21.1504C22.2577 21.2415 22.3076 21.3965 22.4023 21.4463C22.4322 21.4619 22.4622 21.4769 22.4925 21.4917C22.4966 21.5014 22.501 21.5111 22.506 21.5208C22.5925 21.6949 22.7736 21.7976 22.9582 21.842C23.1775 21.8946 23.423 21.8574 23.646 21.8508C23.8527 21.8445 24.0595 21.8383 24.2659 21.832C24.3147 21.8308 24.3634 21.8292 24.4121 21.8276C24.6576 21.8201 24.9028 21.8129 25.1479 21.8054C25.3666 21.7988 25.3563 21.8157 25.5615 21.7281C25.653 21.6886 25.7279 21.6329 25.791 21.5587C25.8304 21.5411 25.8685 21.5211 25.905 21.4982C26.0225 21.425 26.1268 21.3266 26.223 21.2183C26.3863 21.27 26.6153 21.2221 26.6471 21.0164C26.6983 20.6873 27.125 20.5467 27.3243 20.3087C27.4851 20.1168 27.6 19.8654 27.5941 19.6239C27.9995 19.4273 28.22 18.9091 28.2715 18.4695C28.2956 18.2657 28.2918 18.0474 28.3265 17.8401C28.3418 17.8236 28.3556 17.806 28.3671 17.7872C28.4689 17.6222 28.5576 17.4522 28.6357 17.2781C28.7419 17.2014 28.8697 17.1541 29.0033 17.1463C29.3319 17.1272 29.3937 16.6829 29.0805 16.5758C29.0789 16.5752 29.0777 16.5749 29.0761 16.5742C29.1611 16.3613 29.1539 16.1093 29.0508 15.9076C29.0552 15.8857 29.0592 15.8641 29.0633 15.8422C29.2391 15.6528 29.34 15.3894 29.3288 15.133C29.409 15.0763 29.499 15.0325 29.5974 15.0052C29.7495 14.9633 29.7504 14.7773 29.638 14.694C29.5927 14.6605 29.5552 14.6214 29.524 14.5782C29.6018 14.3439 29.5711 14.0731 29.4122 13.8809C29.5131 13.7512 29.6139 13.6216 29.7148 13.492C29.7817 13.4062 29.8169 13.2606 29.7148 13.1792C29.6495 13.1269 29.5843 13.0749 29.5187 13.0229Z" fill="black"/>
<path fill-rule="evenodd" clip-rule="evenodd" d="M22.177 17.8896C22.2844 17.7 22.6048 17.7308 22.6538 17.9519C22.7532 18.4001 22.219 18.814 21.8132 18.8243C21.41 18.8346 20.9575 18.4912 21.0159 18.0576C21.0303 17.9503 21.1736 17.9633 21.2224 18.0306L21.2414 18.0564C21.374 18.2346 21.549 18.4191 21.7951 18.3756C21.8971 18.3577 21.9897 18.2939 22.0514 18.2118C22.1257 18.1128 22.1176 17.9945 22.177 17.8896ZM19.613 14.6107C19.6677 14.5956 19.7228 14.6014 19.7713 14.622C19.8794 14.6419 19.9697 14.732 20.0014 14.835C20.0039 14.8439 20.0067 14.8527 20.0098 14.8614L20.0146 14.8744L20.0017 14.8414C20.0076 14.8739 20.0341 14.9081 20.0436 14.9407C20.0553 14.9808 20.0581 15.0264 20.0542 15.0705C20.0886 15.0709 20.1229 15.072 20.1572 15.075L20.1904 15.078C20.3758 15.0952 20.5793 15.1268 20.6892 15.2871C20.7509 15.3771 20.693 15.5392 20.5796 15.5566C20.405 15.5833 20.2547 15.4867 20.0807 15.4673C19.9163 15.449 19.7442 15.4595 19.5819 15.4892C19.2468 15.5505 18.9388 15.6864 18.6122 15.7716L18.5678 15.7829L18.5678 15.7827C18.5119 15.7962 18.4484 15.7184 18.5037 15.6729C18.7653 15.4579 19.1003 15.2836 19.4303 15.1775C19.3822 15.101 19.3673 15.0002 19.4002 14.9181C19.4053 14.9011 19.4116 14.8845 19.4183 14.868L19.4322 14.8341C19.4335 14.8181 19.4366 14.8023 19.441 14.7868L19.4417 14.7821L19.4422 14.7824C19.4667 14.7025 19.5309 14.6333 19.613 14.6107ZM22.9509 14.623C23.0225 14.5514 23.123 14.562 23.1977 14.6184L23.2076 14.6261C23.278 14.6574 23.3362 14.7258 23.3745 14.7891C23.4142 14.8549 23.4406 14.9219 23.4416 14.9943C23.6148 14.9949 23.7807 15.0469 23.9079 15.1868C23.949 15.2319 23.977 15.3015 23.9544 15.3628L23.941 15.3992C23.8983 15.5148 23.7063 15.5813 23.641 15.4454L23.638 15.4388C23.5687 15.2773 23.3026 15.2943 23.1611 15.3108C23.0625 15.3223 22.9652 15.3468 22.8699 15.3743C22.8364 15.384 22.8032 15.3945 22.7699 15.4052L22.7367 15.416C22.719 15.4217 22.6268 15.4718 22.6842 15.4599C22.6996 15.4568 22.7112 15.4792 22.6955 15.4868C22.627 15.5195 22.554 15.4543 22.5586 15.3808C22.5665 15.2532 22.7691 15.1832 22.8666 15.1392L22.8724 15.1366C22.9098 15.1193 22.9489 15.1027 22.9894 15.0873C22.9666 15.0535 22.9478 15.016 22.9322 14.9756C22.9175 14.9376 22.9076 14.9005 22.9022 14.8601C22.8969 14.8403 22.8969 14.8205 22.9022 14.8007L22.903 14.795C22.9002 14.7819 22.8989 14.7684 22.8991 14.7548L22.8986 14.7495H22.8991C22.901 14.7018 22.92 14.654 22.9509 14.623ZM21.8076 15.9821C22.0825 16.0671 22.536 16.2985 22.3928 16.6558C22.1928 16.984 21.6623 16.7428 21.4052 16.6368C21.1743 16.5603 21.054 16.8841 21.2773 16.9817C23.1227 17.712 23.1159 15.7845 21.8745 15.8128C21.7379 15.8159 21.7336 15.9538 21.8076 15.9821ZM19.3662 13.4688L19.413 13.4551C19.6567 13.3845 19.9054 13.2626 20.1218 13.4529C20.2067 13.5276 20.2242 13.6828 20.1634 13.776C20.025 13.9883 19.8196 13.9559 19.596 13.974C19.4257 13.9877 19.258 14.0378 19.0991 14.1003C18.9692 14.1514 18.8487 14.2234 18.735 14.3037C18.6232 14.3826 18.5469 14.506 18.4323 14.5771C18.3903 14.6031 18.3417 14.5763 18.3267 14.5341C18.2732 14.3843 18.3635 14.1976 18.44 14.07C18.5333 13.9142 18.675 13.7869 18.8274 13.6905C18.9943 13.5849 19.1788 13.524 19.3662 13.4688ZM22.9166 13.3076C23.3285 13.3075 23.7248 13.5367 23.9552 13.8726C24.0334 13.9867 23.9761 14.1558 23.8637 14.2215C23.7377 14.2953 23.6029 14.2422 23.5198 14.1365L23.5149 14.1301C23.3828 13.9541 23.2125 13.8155 23.0106 13.7252C22.9121 13.6812 22.8032 13.6454 22.6966 13.6273L22.6622 13.6214C22.6139 13.6133 22.558 13.6056 22.5143 13.6132C22.4909 13.6162 22.4695 13.624 22.4497 13.6357C22.4592 13.6565 22.4346 13.6816 22.4119 13.6691C22.3096 13.6129 22.3221 13.5125 22.4067 13.4346C22.5263 13.3243 22.7622 13.3076 22.9166 13.3076Z" fill="black"/>
<path fill-rule="evenodd" clip-rule="evenodd" d="M22.0005 17.1999C21.6524 17.043 21.0274 17.1799 20.8005 17.2343C20.2729 17.3609 19.7422 17.6344 19.5782 18.0629C19.3934 18.5458 19.7622 18.6978 19.8164 18.673C20.1816 18.6987 20.6165 18.469 20.9992 18.4098C21.3099 18.3612 21.6376 18.3189 21.9287 18.1537C22.1412 18.2707 22.6212 18.3339 23.0086 18.4361C23.3385 18.5232 23.4815 18.712 23.7873 18.6718C24.1539 18.6237 24.0038 17.8524 23.5953 17.54C23.1481 17.198 22.3919 17.0594 22.0005 17.1999ZM22.6897 20.4977C22.3852 20.572 22.3647 19.9043 22.3306 19.6684C22.304 19.4841 22.1536 19.0088 21.7726 19.0293C21.3915 19.0498 21.2482 19.448 21.2675 19.6957C21.2801 19.8563 21.428 20.6698 20.9558 20.7727C20.6547 20.7717 20.3065 20.7513 19.9899 20.6929C19.6173 20.6085 19.1328 20.313 19.0049 20.895C18.9588 21.1045 20.6 21.7269 21.3283 21.7832C22.0669 21.9329 22.9311 21.7027 23.457 21.1374C23.5766 21.0088 23.9135 20.4751 23.9376 20.3443C23.988 20.0695 23.8712 19.8927 23.5314 19.9896C23.2913 20.1178 22.8855 20.4499 22.6897 20.4977Z" fill="black"/>
<path fill-rule="evenodd" clip-rule="evenodd" d="M24.7675 16.17C24.3875 16.5628 23.7531 16.6756 23.2476 16.4649C21.9494 15.9223 22.5848 14.2299 23.586 13.7755C23.711 13.7443 23.8781 13.6703 24.0304 13.6535C24.0442 13.6467 24.0742 13.6663 24.1105 13.6478C25.2144 13.7711 25.4658 15.4855 24.7675 16.17ZM20.5804 16.2706C20.1542 16.8361 19.3618 17.0106 18.7144 16.7477C17.4355 16.2438 17.8891 14.7431 18.7641 14.1548C20.6126 13.4599 21.3758 15.2279 20.5804 16.2706ZM17.8079 15.0176C17.8067 15.017 17.8055 15.0167 17.8043 15.0162C17.8111 15.0132 17.8178 15.0102 17.8246 15.0072C17.8224 15.0129 17.82 15.0186 17.8179 15.0243C17.8146 15.022 17.8117 15.0194 17.8079 15.0176ZM25.6474 14.4063C25.543 14.4065 25.3923 14.4237 25.3059 14.4961C25.0929 13.7774 24.3066 13.1123 23.6228 13.5973C23.0843 13.7705 22.6847 14.1547 22.4576 14.6655C22.0481 14.4219 21.4042 14.5259 21.0491 14.8482C20.8166 14.0794 20.2442 13.8103 19.563 13.7705C18.8195 13.6487 18.0784 14.3711 17.8471 14.9506C17.6549 14.9287 17.3676 14.8675 17.1867 14.9862C16.0128 14.6782 13.9604 14.5084 13.7217 14.6795C13.5516 14.7448 13.4583 15.1464 13.6958 15.1681C13.9029 15.1387 13.6717 14.8738 13.8804 14.8449C14.9922 14.776 16.0715 15 17.1716 15.0939C17.2698 15.2261 17.5871 15.2703 17.7564 15.2172C17.4898 16.2003 18.0654 16.8691 18.9278 17.0694C20.2633 17.3763 21.4251 16.1812 21.0759 14.9381C21.4804 14.7368 21.9458 14.7455 22.3865 14.8515C21.6501 17.5627 26.0149 17.4411 25.3332 14.589C25.7869 14.8147 25.8854 14.4518 25.6474 14.4063Z" fill="black"/>
</svg>
