<svg width="36" height="48" viewBox="0 0 36 48" fill="none" xmlns="http://www.w3.org/2000/svg">
<rect x="19.0293" y="28.7432" width="7.16745" height="8.82975" fill="#FDEA6B"/>
<path fill-rule="evenodd" clip-rule="evenodd" d="M16.9384 20.1072C17.711 19.5186 19.6507 19.2539 20.4753 19.8206C21.2897 20.3897 21.3785 21.31 21.7581 22.1566C22.1161 21.9877 22.7075 22.2296 22.8113 22.562C22.9401 22.7188 22.9459 23.1592 23.0347 23.37C26.8983 23.9852 27.4848 26.9986 27.9499 30.4196C28.5651 33.891 29.9617 37.3549 29.3554 40.927C29.4344 41.0414 29.4967 41.1525 29.5542 41.2845C29.6922 41.5194 29.5145 41.8519 29.2362 41.8391C28.8759 41.8074 28.5192 41.7642 28.1572 41.7507C27.1538 41.7158 26.1494 41.72 25.1456 41.7328L25.0087 41.7345C19.9498 41.7975 14.8911 41.9217 9.83196 41.9546C9.64843 41.9549 9.55857 41.7902 9.58307 41.6278C9.63243 41.3007 9.67822 40.9735 9.72602 40.6463C8.5294 40.9625 7.25728 41.0421 6.06404 40.6796C5.98057 40.5945 6.25853 40.6406 6.30264 40.6277C5.20448 39.877 5.53243 38.2956 5.62971 37.1565C6.23459 33.2536 6.44783 28.9352 8.78489 25.6047C9.79594 24.2456 11.2782 23.1695 12.9815 22.9273L13.0287 22.9209C13.5268 22.8544 14.0818 22.833 14.5173 22.562C15.007 22.1709 15.2157 21.4482 15.7309 21.4414C15.901 21.4392 16.1325 21.6545 16.3815 21.8007C16.4001 21.4791 16.5734 21.2077 16.6116 20.9584L16.6147 20.9371C16.6546 20.6464 16.6 20.3848 16.9384 20.1072ZM25.2416 30.5227C24.1558 29.7681 21.351 30.1472 21.2868 30.1895C21.1455 30.2825 21.0846 30.2908 21.0081 30.4116C20.9326 30.4216 20.8572 30.432 20.7818 30.4427C20.6306 30.4921 20.7427 30.6781 20.9173 30.6118C20.8123 31.065 21.1214 31.3873 21.2445 31.8353C21.2844 31.9808 21.2459 32.2424 21.2445 32.3911C21.2564 32.5806 21.4659 32.8045 21.431 32.9946C21.3069 33.6706 20.6334 34.33 20.9173 34.9856C21.1054 35.3558 21.6712 35.5446 22.0473 35.6705C22.8266 35.9697 24.1845 35.6592 24.6373 34.9856C24.8788 34.6262 25.1586 33.7198 25.3027 33.4387L25.3346 32.9927C25.4133 31.8841 25.4833 30.6907 25.2416 30.5227Z" fill="#D08B5B"/>
<path fill-rule="evenodd" clip-rule="evenodd" d="M15.6907 21.4434L16.0015 21.6341L17.8061 22.5265C18.156 22.6245 18.3309 22.742 18.3309 22.8789V24.2728C18.3309 24.4594 18.6592 24.8821 19.3158 25.5411L19.9225 24.9361L19.9089 24.8569C19.8512 24.5156 19.8223 24.2873 19.8223 24.172C19.8223 24.048 20.4158 23.5772 21.6027 22.7597L22.122 22.2706L22.0667 22.1022C22.3868 22.1173 22.7341 22.3146 22.8113 22.5619C22.9401 22.7187 22.9459 23.1592 23.0347 23.3699C26.8983 23.9851 27.4848 26.9985 27.9499 30.4195C28.5651 33.8909 29.9617 37.3548 29.3554 40.9269C29.4344 41.0413 29.4967 41.1524 29.5542 41.2844C29.6922 41.5193 29.5145 41.8518 29.2362 41.839C28.8759 41.8073 28.5192 41.7641 28.1572 41.7506C27.1538 41.7157 26.1494 41.7199 25.1456 41.7327L25.0087 41.7344C19.9498 41.7974 14.8911 41.9216 9.83196 41.9545C9.64843 41.9548 9.55857 41.7901 9.58307 41.6277C9.63243 41.3006 9.67822 40.9734 9.72602 40.6462C8.5294 40.9624 7.25728 41.042 6.06404 40.6795C5.98057 40.5944 6.25853 40.6405 6.30264 40.6276C5.20448 39.8769 5.53243 38.2955 5.62971 37.1564C6.23459 33.2535 6.44783 28.9351 8.78489 25.6046C9.79594 24.2455 11.2782 23.1694 12.9815 22.9272L13.0287 22.9208L13.0763 22.9146C13.5619 22.8527 14.0956 22.8243 14.5173 22.5619C14.9941 22.1811 15.2045 21.486 15.6907 21.4434ZM20.0149 29.6251C19.8379 29.6251 19.4754 29.9001 18.9274 30.4501L18.8791 30.4724C18.2167 30.7802 17.7779 31.0472 17.5626 31.2734L17.5549 31.2816C17.3375 31.515 16.9068 32.1356 16.263 33.1434L15.3308 33.6949H14.978L14.7269 35.5173L15.3308 36.8186L16.6986 36.3577L18.9274 35.77L20.2063 34.4719L20.9278 34.2297C20.8403 34.4826 20.8085 34.7343 20.9173 34.9855C21.1054 35.3557 21.6712 35.5445 22.0473 35.6704C22.8266 35.9696 24.1845 35.6591 24.6373 34.9855C24.8788 34.6261 25.1586 33.7198 25.3027 33.4386L25.344 32.8593C25.4184 31.7902 25.4736 30.6838 25.2416 30.5226C24.1558 29.768 21.351 30.1472 21.2868 30.1894C21.1455 30.2824 21.0846 30.2907 21.0081 30.4115L20.9685 30.4168L21.1911 30.1148L21.1123 30.0727C20.5499 29.7743 20.1841 29.6251 20.0149 29.6251ZM20.9173 30.6117C20.8167 31.0455 21.0958 31.3595 21.2278 31.7786L20.8906 31.1328L20.8906 30.62C20.8993 30.6179 20.9082 30.6151 20.9173 30.6117Z" fill="#9DDADB"/>
<path fill-rule="evenodd" clip-rule="evenodd" d="M15.542 21.3756C15.617 21.3092 15.7279 21.3927 15.6802 21.4824C15.5732 21.684 15.4634 21.875 15.3197 22.0532C15.2326 22.1613 15.1393 22.2635 15.0448 22.3646C15.2874 22.5746 15.4956 22.8353 15.6921 23.0796C15.9434 23.3922 16.181 23.7179 16.4631 24.0039C16.7413 24.2859 17.0489 24.4831 17.4208 24.6145L17.496 24.6406C17.8696 24.7719 18.269 24.9491 18.4796 25.303C18.5211 25.3728 18.4375 25.459 18.3672 25.4155C18.0012 25.1888 17.5712 25.1432 17.1728 24.9934C16.788 24.8487 16.4525 24.626 16.1561 24.3418C15.8602 24.0581 15.6118 23.7352 15.3526 23.4192C15.0964 23.1068 14.8204 22.8399 14.5173 22.5756C14.0495 22.8904 13.5156 23.0274 12.9726 23.1619L12.9134 23.1766C12.3698 23.3112 11.8291 23.4676 11.3191 23.7021C10.8695 23.9087 10.4272 24.1556 10.0609 24.4919C9.67214 24.8489 9.36954 25.3047 9.09258 25.7506C8.47305 26.748 8.03749 27.8408 7.65405 28.9468C7.25524 30.0973 6.92166 31.2707 6.65236 32.4582C6.5154 33.0621 6.40416 33.6704 6.31274 34.283C6.26873 34.578 6.22964 34.8736 6.1953 35.1699C6.15865 35.4863 6.15023 35.8118 6.05321 36.116C6.01161 36.2464 5.91339 36.3005 5.81508 36.2959L5.79512 36.5458C5.76864 36.8788 5.74395 37.212 5.73562 37.5472C5.72178 38.1045 5.72806 38.6601 5.76813 39.2162L5.7738 39.2921C5.80529 39.6979 5.87565 40.1539 6.18072 40.4511C6.49665 40.7589 6.9825 40.8557 7.40832 40.8612C8.40009 40.8742 9.35477 40.4054 10.2324 39.9941C11.1362 39.5705 12.0154 39.1004 12.8735 38.5905C13.3105 38.3309 13.7428 38.0626 14.1695 37.7864C14.3789 37.6509 14.5869 37.5131 14.7933 37.373C14.9115 37.2928 15.0235 37.2048 15.1438 37.1337C15.0849 37.0787 15.0586 36.9924 15.1079 36.917C14.7601 36.6149 14.6153 36.0758 14.5983 35.6396C14.5847 35.2875 14.6365 34.9364 14.6773 34.5877C14.698 34.4118 14.7234 34.2362 14.7499 34.0611C14.7603 33.992 14.7683 33.918 14.7805 33.845C13.8412 34.3614 12.8755 34.8213 11.8842 35.2298C11.3761 35.4393 10.8615 35.6276 10.3397 35.8001L10.234 35.835C9.73967 35.9968 9.23351 36.1497 8.72247 36.2423C8.69515 36.2472 8.67296 36.2069 8.70213 36.194C9.20015 35.9742 9.71543 35.7888 10.2209 35.5863L10.304 35.5524C10.2945 35.5519 10.2846 35.5506 10.2742 35.5481C9.97778 35.4765 9.68363 35.3662 9.39286 35.2734C9.123 35.1872 8.81981 35.133 8.56757 35.0029C8.54817 34.9929 8.55903 34.9659 8.57793 34.9646C8.86144 34.9449 9.1692 35.0276 9.44717 35.0762L9.55159 35.0945C9.72652 35.1254 9.90533 35.1586 10.0794 35.2018C10.0857 35.1435 10.1183 35.0849 10.1646 35.0506C10.6747 34.6727 10.6229 33.9094 10.6775 33.3466L10.7179 32.9288C10.7891 32.1975 10.8643 31.4663 10.9787 30.7405C10.9848 30.7017 11.0448 30.7128 11.045 30.7494C11.0509 31.6492 10.983 32.5447 10.949 33.443L10.9437 33.5904C10.9249 34.1447 10.9102 34.7203 10.5612 35.1468C10.61 35.1183 10.676 35.1183 10.7155 35.1653C10.7641 35.2231 10.7921 35.2881 10.7912 35.3518C11.1066 35.2195 11.4205 35.0838 11.733 34.9454C12.7374 34.5002 13.7208 34.002 14.6782 33.4629C14.7813 33.4049 14.8792 33.4505 14.9302 33.527L14.9375 33.5259C14.9388 33.5258 14.94 33.5256 14.9413 33.5256L14.9486 33.5253C14.9489 33.5253 14.9491 33.5253 14.9494 33.5253C15.0842 33.4513 15.2678 33.504 15.3834 33.6121C15.3868 33.6153 15.3897 33.6188 15.3928 33.6223C15.5392 33.5565 15.6759 33.4678 15.8 33.3552C16.0539 33.125 16.2689 32.8404 16.4564 32.555C16.8017 32.0293 17.0949 31.4446 17.5613 31.0119C17.9402 30.6603 18.41 30.4414 18.9029 30.304C18.9008 30.2896 18.9064 30.2742 18.9163 30.264C18.9416 30.2381 18.9597 30.2291 18.9924 30.2448C18.995 30.2461 18.9966 30.2479 18.9976 30.2497L19.0457 30.1675C19.072 30.1229 19.0989 30.078 19.1083 30.0662C19.1642 29.9957 19.2218 29.9258 19.2803 29.8573C19.3794 29.7413 19.4924 29.6269 19.6232 29.5465C19.9095 29.3705 20.2106 29.4701 20.505 29.5663C20.6829 29.6245 20.8602 29.6845 21.0378 29.7435L21.0562 29.7495C21.1886 29.7921 21.3435 29.8293 21.4028 29.9696C21.4262 30.0252 21.4298 30.0828 21.4189 30.1387C22.6766 29.8188 24.0735 29.9658 25.3009 30.3414C25.348 30.3558 25.395 30.3946 25.4049 30.4455C25.5456 31.1669 25.6082 31.9068 25.5446 32.6405C25.4897 33.2739 25.3494 33.8946 25.085 34.4744L25.07 34.5071C24.8216 35.0445 24.4278 35.707 23.8265 35.8754C23.4634 35.9771 23.0618 35.9171 22.6915 35.8985C22.3315 35.8804 21.9637 35.8777 21.6072 35.8211C21.2897 35.7707 21.0115 35.6283 20.8153 35.3701C20.646 35.1473 20.5569 34.878 20.4838 34.6101C20.4504 34.6208 20.4172 34.6321 20.3845 34.6449C20.2466 34.6988 20.1297 34.7858 20.0241 34.8881C19.8009 35.1043 19.6279 35.3668 19.3944 35.5731C19.1831 35.7599 18.9423 35.9051 18.6839 36.0167C18.1487 36.2481 17.5745 36.3406 17.0083 36.4632L16.9688 36.4718C16.5426 36.5653 16.1075 36.6802 15.7313 36.9022C15.724 36.9676 15.6942 37.0291 15.6465 37.0693C15.7129 37.1317 15.741 37.2304 15.6827 37.323C15.5198 37.5816 15.2392 37.7287 14.9874 37.8941L14.971 37.9049C14.7232 38.0692 14.4733 38.2303 14.2213 38.388C13.7091 38.7089 13.1862 39.012 12.6559 39.3018C11.803 39.768 10.9318 40.2077 10.0448 40.6065C10.098 40.8685 10.0785 41.1387 10.1186 41.4025L10.1247 41.4401C10.1418 41.538 10.1187 41.6199 10.0513 41.6839L10.0442 41.6904L10.0443 41.6896L10.038 41.6954L10.0359 41.6971L10.0366 41.6966C10.0288 41.7037 10.0208 41.7103 10.0126 41.716L10.0022 41.7227C9.93727 41.7622 9.85368 41.7617 9.78721 41.7269L9.77962 41.7227L9.76685 41.7154C9.67903 41.6648 9.61846 41.5396 9.6549 41.4401C9.74444 41.1957 9.77828 40.9347 9.86097 40.6886L9.79537 40.718L9.7089 40.7557C8.77375 41.1602 7.735 41.5009 6.71609 41.2251C6.26588 41.1032 5.8451 40.8454 5.61984 40.4252C5.39818 40.0117 5.36685 39.5315 5.35508 39.0716C5.34056 38.5039 5.37098 37.9275 5.44582 37.3647C5.49605 36.9869 5.55681 36.6019 5.65051 36.228C5.60231 36.1855 5.56688 36.1245 5.55753 36.0489C5.5133 35.6918 5.5907 35.3205 5.63809 34.9653C5.68438 34.6184 5.73552 34.2722 5.79336 33.9271C5.91014 33.2302 6.04582 32.5347 6.20379 31.8459C6.48491 30.62 6.85615 29.416 7.3031 28.2407L7.34224 28.1383C7.75524 27.064 8.23344 26.0127 8.89931 25.069C9.21784 24.6175 9.55455 24.2081 10.0046 23.8827C10.4263 23.5779 10.9019 23.3584 11.3927 23.1906C11.8841 23.0228 12.3891 22.9103 12.9031 22.8403C13.4251 22.7692 13.976 22.7256 14.4629 22.5114C14.4013 22.401 14.4542 22.2518 14.5579 22.1833C14.9067 21.9528 15.2293 21.6528 15.542 21.3756ZM26.7096 31.4021C26.7242 31.3799 26.759 31.394 26.7525 31.4202C26.5829 32.1156 26.4236 32.8124 26.3196 33.5211C26.1318 34.8001 26.1664 36.0959 26.1817 37.3844L26.1825 37.451C26.1904 38.1451 26.2013 38.8392 26.2243 39.533C26.2359 39.8836 26.2588 40.2376 26.2463 40.5885C26.2395 40.7788 26.1888 40.9588 26.1709 41.1468C26.1551 41.3112 26.1691 41.4782 26.177 41.6428C26.1822 41.7523 26.0207 41.7476 26.0098 41.6428L25.9957 41.5072C25.9775 41.3357 25.9549 41.1652 25.8987 41.001C25.8311 40.8035 25.7987 40.6096 25.7753 40.4022C25.7394 40.0845 25.7234 39.7636 25.7095 39.4437L25.7001 39.2223C25.6422 37.8852 25.6442 36.5418 25.7379 35.2061L25.7447 35.1107C25.8375 33.8481 25.9985 32.4839 26.7096 31.4021ZM23.0929 23.4445C23.0486 23.4263 23.0641 23.3592 23.1132 23.3709L23.2024 23.3922C23.8564 23.5489 24.4985 23.7187 25.1089 24.0103C25.7197 24.3021 26.2368 24.7376 26.6477 25.2732C27.4465 26.3144 27.7784 27.5796 28.0404 28.8437C28.3316 30.2484 28.5968 31.6582 28.8905 33.0624L28.9451 33.3239C29.2169 34.6318 29.4735 35.9404 29.6626 37.2637L29.6761 37.3597C29.8668 38.7206 29.9815 40.1285 29.7735 41.4929C29.7323 41.7628 29.2833 41.6956 29.3008 41.4289C29.3515 40.6579 29.3878 39.891 29.3528 39.1183C29.3176 38.3455 29.2452 37.576 29.1372 36.8099C29.0463 36.1652 28.9108 35.5285 28.7909 34.8889L28.7721 34.7879C28.6717 34.2439 28.5682 33.7005 28.4649 33.157L28.3105 32.3433C28.0792 31.1249 27.8433 29.9054 27.5768 28.6946L27.561 28.6234C27.3002 27.4585 26.9157 26.2384 26.1334 25.3134C25.3395 24.3746 24.203 23.9019 23.0929 23.4445ZM20.2082 35.7998C20.2273 35.7573 20.294 35.7619 20.3146 35.7998C20.395 35.9483 20.404 36.1378 20.4192 36.3055L20.4208 36.3227C20.4401 36.5273 20.4572 36.7325 20.4677 36.9378C20.4876 37.3272 20.4971 37.7162 20.4959 38.1062C20.4946 38.5058 20.4866 38.905 20.4651 39.3041L20.4592 39.411C20.4396 39.7578 20.4066 40.1446 20.2419 40.4478C20.182 40.558 20.0191 40.5256 19.9845 40.4142C19.8709 40.0492 19.9292 39.6165 19.9583 39.2427L19.981 38.951C20.0034 38.6593 20.0247 38.3675 20.0417 38.0755C20.0649 37.6759 20.0841 37.276 20.1025 36.8763C20.1085 36.7464 20.115 36.6165 20.1218 36.4867L20.1323 36.292C20.1413 36.1291 20.1406 35.9504 20.2082 35.7998ZM7.43358 36.3171L7.48388 36.2685C7.63828 36.1173 7.83339 35.8845 8.06163 35.8989C8.15265 35.9047 8.21065 35.9803 8.19178 36.0699C8.15146 36.2614 7.95619 36.3608 7.81563 36.4777C7.66163 36.6057 7.5165 36.7426 7.37165 36.8807C7.24314 37.0033 7.11956 37.1293 6.99894 37.2592L6.95384 37.3081C6.9106 37.3553 6.60271 37.6339 6.636 37.7062L6.63782 37.7094C6.64708 37.7233 6.63165 37.7423 6.61628 37.7374C6.48333 37.6954 6.49162 37.5814 6.54189 37.4659C6.63847 37.244 6.80761 37.0387 6.95531 36.8491C7.10261 36.6601 7.26204 36.484 7.43358 36.3171ZM20.6899 30.7514C20.5871 30.5083 20.2084 30.5134 19.9934 30.5279C19.4519 30.5645 18.866 30.7016 18.3843 30.9548C17.8848 31.2173 17.5483 31.6378 17.2473 32.1029L17.2332 32.1247C16.9397 32.581 16.6571 33.1212 16.1977 33.4349C15.9637 33.5947 15.6904 33.7407 15.4064 33.8039C15.3869 33.8382 15.3554 33.8653 15.314 33.8752L15.2947 33.8796C15.2138 33.8975 15.0882 33.9172 14.9797 33.9054C14.9804 33.9585 14.9798 34.0112 14.9812 34.0615C14.985 34.2057 14.9866 34.3505 14.9866 34.4948C14.9867 34.7971 14.9705 35.1 14.9831 35.4023C14.9942 35.6697 15.032 35.949 15.1603 36.188C15.2544 36.3634 15.3787 36.4794 15.5286 36.5902C15.8975 36.3653 16.3146 36.2282 16.738 36.1251C17.25 36.0005 17.7742 35.9173 18.2745 35.7483C18.5153 35.6669 18.7469 35.5604 18.9566 35.4158C19.1792 35.2622 19.3493 35.0544 19.5243 34.8512L19.5516 34.8196C19.7302 34.6147 19.925 34.4187 20.1773 34.3076C20.3946 34.212 20.6811 34.1949 20.8711 34.0469C20.9704 33.9694 20.9787 33.857 20.9892 33.7419C20.8675 33.7593 20.7387 33.7314 20.6174 33.7172L20.5546 33.7098C20.4399 33.6962 20.3278 33.6812 20.2149 33.652C20.194 33.6466 20.194 33.615 20.2149 33.6096C20.3484 33.5751 20.4806 33.5604 20.6174 33.5444L20.6495 33.5404C20.7733 33.5241 20.9034 33.4996 21.0248 33.5269C21.0466 33.444 21.078 33.3648 21.1222 33.2855C21.1841 33.1741 21.3013 33.0479 21.3171 32.9178C21.3219 32.8789 21.3128 32.8331 21.2945 32.7988L21.2882 32.787C21.2805 32.7732 21.2714 32.7593 21.2581 32.7507C21.2566 32.7524 21.2535 32.7544 21.2467 32.7565C21.1532 32.786 21.0717 32.7402 21.0285 32.6697C20.8448 32.6925 20.6444 32.6848 20.4722 32.6924L20.2981 32.7008C20.1121 32.7094 19.9176 32.7131 19.7428 32.6755C19.7183 32.6703 19.711 32.6296 19.7354 32.6192C19.9503 32.5272 20.211 32.4979 20.4412 32.4626C20.5697 32.4428 20.6991 32.4278 20.828 32.4104C20.9138 32.3988 21.0049 32.3797 21.0938 32.3751C21.3168 32.0974 21.1966 31.6595 20.8864 31.5399C20.7734 31.5896 20.6717 31.5607 20.5483 31.5501C20.425 31.5395 20.3014 31.5323 20.1777 31.5329C19.9297 31.534 19.6669 31.5992 19.4213 31.5711C19.3814 31.5665 19.3443 31.5134 19.384 31.4809C19.572 31.3275 19.8414 31.2774 20.08 31.2447L20.1294 31.2381C20.2094 31.2276 20.3067 31.2123 20.4076 31.2032C20.4305 31.1587 20.4714 31.125 20.5329 31.1167C20.5512 31.1142 20.5695 31.1127 20.5879 31.1111L20.5876 31.1093C20.7376 31.1021 20.7311 30.8487 20.6899 30.7514ZM10.4218 35.4927C10.4191 35.4968 10.4162 35.5007 10.4131 35.5044L10.4084 35.51L10.433 35.4999L10.4218 35.4927ZM23.3072 30.2082C22.6759 30.1403 22.0437 30.1547 21.4105 30.1729C21.3599 30.3386 21.1836 30.4798 21.0128 30.4851C21.1466 30.6888 21.1604 30.9645 21.0666 31.1805C21.2658 31.2598 21.4373 31.4022 21.5415 31.6051C21.6859 31.8864 21.667 32.1994 21.5243 32.4593C21.6461 32.5697 21.718 32.7489 21.7108 32.9178C21.7028 33.1061 21.5906 33.267 21.4973 33.4229C21.3966 33.5916 21.3932 33.74 21.3623 33.9289C21.317 34.2053 21.1306 34.373 20.8908 34.4777L20.9036 34.5278C20.9654 34.7685 21.0423 35.0225 21.219 35.1986C21.4463 35.425 21.7989 35.4229 22.0992 35.4373L22.1137 35.438C22.3887 35.4517 22.6635 35.4678 22.9384 35.4834L23.1446 35.495C23.4611 35.5124 23.765 35.5145 24.0234 35.3052C24.4452 34.9635 24.7344 34.398 24.9174 33.8975C25.3016 32.8468 25.3062 31.6938 25.1298 30.5995C24.5384 30.4088 23.9248 30.2746 23.3072 30.2082ZM18.0572 31.9513L18.0618 31.9517C18.1918 31.9665 18.2811 32.0718 18.3129 32.1967C18.3591 32.3783 18.3364 32.5424 18.4476 32.7063C18.5619 32.8748 18.6322 33.0097 18.6488 33.2179C18.6557 33.3036 18.6525 33.389 18.6716 33.4729L18.6854 33.5316C18.7001 33.5943 18.7121 33.6546 18.7048 33.7218C18.6981 33.7832 18.6683 33.831 18.6068 33.8506C18.4064 33.9148 18.2516 33.767 18.1999 33.5802C18.1551 33.4188 18.2148 33.2265 18.1517 33.075C18.1168 32.991 18.0523 32.9207 18.0159 32.8361C17.9798 32.7523 17.9617 32.6647 17.9559 32.5736C17.9449 32.4013 18.0973 32.1942 18.0123 32.0381C17.9941 32.0047 18.0146 31.9503 18.0572 31.9513ZM15.3951 30.1729C15.5308 30.1453 15.6848 30.0821 15.8186 30.1347C15.8874 30.1617 15.9214 30.2456 15.8633 30.304C15.7624 30.4052 15.6157 30.4108 15.4798 30.4347L15.4678 30.4368C15.3071 30.4666 15.1461 30.4948 14.9849 30.5215C14.6816 30.5718 14.3775 30.6162 14.0724 30.654C13.7591 30.6927 13.4448 30.7273 13.1302 30.7533L13.0083 30.7633C12.7425 30.7845 12.4659 30.8006 12.2051 30.7598C12.1672 30.7539 12.1733 30.6987 12.2051 30.6891C12.4908 30.6025 12.8043 30.5793 13.0997 30.5427C13.4137 30.5038 13.7272 30.4626 14.04 30.4137C14.3522 30.365 14.664 30.3126 14.9746 30.2547C15.115 30.2286 15.2552 30.2014 15.3951 30.1729ZM20.292 29.8951C20.1729 29.853 20.0419 29.7905 19.9128 29.8114C19.6903 29.8475 19.4922 30.0644 19.3161 30.2072L19.4045 30.19C19.8571 30.103 20.4564 30.0092 20.8363 30.2971C20.8373 30.2954 20.838 30.2938 20.8391 30.2921C20.8698 30.2455 20.9053 30.2092 20.9441 30.1693C20.9478 30.1658 20.9514 30.1622 20.9549 30.1585L20.9758 30.1362L20.928 30.1197C20.8255 30.0834 20.7041 30.0366 20.6849 30.0298L20.6835 30.0293C20.5529 29.985 20.422 29.9413 20.292 29.8951ZM16.5736 20.4055C16.555 20.1659 16.9278 20.1679 16.9463 20.4055C16.9865 20.9244 16.8698 21.4383 16.6186 21.8931C16.6168 21.8965 16.6147 21.8994 16.6128 21.9025C16.7699 21.9843 16.9288 22.0628 17.0913 22.1329C17.2991 22.2227 17.5108 22.3044 17.7263 22.3737C17.9212 22.4364 18.1614 22.4612 18.3252 22.5918C18.6708 22.8671 18.541 23.4384 18.4745 23.8087L18.4641 23.8671C18.431 24.0577 18.4071 24.2532 18.4874 24.4361C18.5732 24.6315 18.7466 24.7764 18.9013 24.9161L18.9325 24.9445C19.0696 25.0694 19.2262 25.2212 19.3267 25.3905C19.4185 25.2007 19.5436 25.0456 19.6759 24.871C19.7702 24.7463 19.7031 24.7053 19.6353 24.5835C19.57 24.4663 19.5382 24.3414 19.5586 24.2078C19.5962 23.9609 19.7934 23.7826 19.9897 23.6486C20.2216 23.4905 20.4803 23.3733 20.72 23.2262C21.2124 22.9239 21.692 22.5783 22.1241 22.1944C22.136 22.1838 22.1567 22.1977 22.1471 22.2122C21.8058 22.7316 21.4056 23.1804 20.9137 23.5613C20.7143 23.7158 20.5048 23.8439 20.2939 23.9786L20.2332 24.0175C20.1486 24.0724 20.0429 24.1457 20.0046 24.2392C19.9661 24.3331 20.0483 24.4041 20.0925 24.4819C20.2329 24.7291 20.1652 24.9597 19.9987 25.1694L19.9909 25.179C19.8255 25.383 19.7001 25.5727 19.6401 25.8332C19.5113 26.393 19.6908 26.976 19.8786 27.5015L19.886 27.5222C19.9877 27.8055 20.0957 28.0866 20.184 28.3744L20.2083 28.454C20.2883 28.7188 20.3538 28.9799 20.264 29.2521C20.2335 29.3447 20.1073 29.3666 20.0549 29.2795C19.8699 28.9722 19.8238 28.6024 19.7079 28.2645C19.5949 27.9353 19.4652 27.612 19.356 27.2813C19.2155 26.8557 19.1214 26.3975 19.1725 25.951C19.171 25.9484 19.1693 25.9459 19.1681 25.9432L19.1323 25.8649C19.0348 25.6529 18.9405 25.4678 18.7631 25.2988C18.5781 25.1226 18.3773 24.9666 18.2316 24.7532C17.9154 24.2898 18.111 23.7742 18.1492 23.2675L18.1536 23.2054C18.1605 23.1002 18.1643 22.9572 18.0956 22.8844C18.0183 22.8024 17.8371 22.7815 17.7346 22.7452C17.4696 22.6514 17.2085 22.5421 16.9598 22.4108C16.723 22.2859 16.4937 22.1479 16.2802 21.9862L16.1719 21.9047C16.0012 21.7758 15.8241 21.6351 15.7097 21.4596C15.6965 21.4394 15.7189 21.4068 15.7428 21.4165C15.9339 21.4941 16.1084 21.6174 16.2872 21.7248C16.29 21.7182 16.2932 21.7116 16.2968 21.705C16.518 21.3046 16.609 20.861 16.5736 20.4055ZM22.6764 23.1489C22.7525 22.9401 23.0994 22.9562 23.0856 23.2043C23.075 23.3949 22.9941 23.5669 22.9201 23.74L22.9122 23.7586C22.8359 23.9389 22.7477 24.1082 22.6421 24.2734C22.4405 24.5894 22.2042 24.8826 21.9519 25.1593C21.7232 25.4101 21.423 25.5635 21.077 25.538C20.9313 25.5273 20.7842 25.4902 20.6564 25.4174C20.5047 25.3308 20.34 25.071 20.1464 25.1339C20.1277 25.14 20.1102 25.1126 20.1264 25.0996C20.3498 24.9196 20.6035 25.1987 20.8174 25.2659C21.1397 25.3672 21.4705 25.2552 21.678 24.9945C21.8946 24.7223 22.094 24.4176 22.2761 24.1212C22.3685 23.9707 22.4529 23.8145 22.5257 23.6536C22.5993 23.4911 22.616 23.3145 22.6764 23.1489ZM22.1568 21.8638C22.1474 21.835 22.1832 21.8075 22.2085 21.824C22.3553 21.9196 22.4826 22.046 22.618 22.1567C22.7683 22.2796 22.9196 22.3999 23.0733 22.5184C23.2974 22.6912 23.0375 23.0094 22.8403 22.8206C22.5704 22.5624 22.2748 22.2247 22.1568 21.8638ZM21.3507 20.8531C21.4103 20.623 21.7631 20.7179 21.7117 20.9453L21.71 20.9522C21.6126 21.3278 21.7513 21.7103 22.0474 21.9538L22.0583 21.9626C22.2456 22.1126 21.9802 22.3747 21.7948 22.2262C21.3899 21.9021 21.2215 21.3515 21.3507 20.8531Z" fill="black"/>
<path fill-rule="evenodd" clip-rule="evenodd" d="M24.3893 13.5284C24.2733 12.601 23.9092 11.6163 23.5262 10.7516C22.6649 8.92346 20.6933 8.67176 18.9258 8.29484C17.1816 8.04028 15.3347 7.81042 13.6168 8.31832C12.6511 8.5555 12.2739 9.70857 12.4263 10.6185C12.5133 11.1855 12.7707 11.7222 12.9903 12.2477C13.4266 13.3268 13.7035 14.4822 13.7039 15.6506C13.674 16.4141 13.5665 17.2856 14.4417 17.6091C15.2746 18.0243 15.345 19.1499 16.3879 19.7885C16.8096 20.6448 17.9583 20.7202 18.7851 20.9188C19.3076 21.0191 19.8361 21.0929 20.366 21.1405C21.9003 21.3376 23.1278 20.8919 23.931 19.5217C24.4685 18.6878 24.8687 17.7249 24.7698 16.7142C24.6713 15.65 24.5073 14.5913 24.3893 13.5284Z" fill="#D08B5B"/>
<path fill-rule="evenodd" clip-rule="evenodd" d="M18.9385 6.07305C19.0261 5.97354 19.161 6.00767 19.2429 6.08635C19.2962 6.1021 19.3479 6.12552 19.3967 6.15652C19.5069 6.14234 19.6225 6.14234 19.7307 6.14631C19.7569 6.13157 19.785 6.11845 19.8156 6.10718C20.0342 6.02705 20.2279 6.06775 20.3876 6.17503C20.4645 6.10207 20.5615 6.05629 20.6856 6.06321C20.7963 6.06941 20.8752 6.12164 20.9428 6.19043C21.0102 6.09296 21.1192 6.02342 21.255 6.01374C21.4448 6.00022 21.6273 6.07652 21.7785 6.19466C21.8666 6.09334 21.9868 6.0351 22.1206 6.03453C22.2087 6.0185 22.3017 6.02483 22.3856 6.05025C22.5076 6.08717 22.6146 6.15633 22.6999 6.2461C22.8348 6.1166 22.9999 6.02342 23.1903 6.03701C23.4368 6.05485 23.641 6.23649 23.736 6.46005C23.9028 6.52703 24.0567 6.62256 24.1854 6.75876C24.1923 6.76593 24.1988 6.77345 24.2057 6.78099C24.275 6.80664 24.3403 6.84299 24.3978 6.89086C24.5799 7.04275 24.6205 7.26256 24.5602 7.47795C24.5686 7.51242 24.5758 7.54749 24.5824 7.58253C24.7529 7.60851 24.9078 7.70718 24.9959 7.8678C25.1165 8.08823 25.0927 8.37877 24.9622 8.58921C24.906 8.67973 24.8348 8.75601 24.7548 8.8227C24.8453 9.02873 24.8019 9.27458 24.656 9.44122C24.6204 9.49867 24.5768 9.55053 24.5277 9.59746C24.5819 9.81047 24.4855 10.0302 24.2931 10.1441L24.2766 10.1854C24.2739 10.1922 24.2711 10.199 24.2682 10.2058C24.2661 10.2146 24.2634 10.2231 24.2608 10.2316C24.2562 10.3072 24.2314 10.3814 24.1821 10.4513C24.0812 10.5945 23.9562 10.6879 23.8898 10.8551L23.8832 10.8726C23.8547 10.9518 23.7626 11.0076 23.6842 10.9832C24.1198 11.88 24.3481 12.8778 24.5049 13.8557C24.5831 14.3436 24.6434 14.8331 24.6924 15.3246L24.7404 15.8139C24.7826 16.2489 24.8201 16.6854 24.8204 17.1218C24.821 18.1091 24.5393 19.0587 23.9346 19.8443C23.3627 20.587 22.5535 21.1252 21.6393 21.3372C20.6954 21.5558 19.5882 21.4697 18.7418 20.9693C18.4923 20.8222 18.7109 20.4683 18.9648 20.5867C19.4455 20.8109 19.934 20.9775 20.4668 21.0147C20.9862 21.0513 21.5069 20.9862 21.9994 20.8159C22.8143 20.5338 23.5077 19.943 23.9533 19.2071C24.1729 18.8445 24.3319 18.451 24.4165 18.0351C24.5219 17.5168 24.506 16.9811 24.4673 16.4562L24.4646 16.4204C24.3881 15.4091 24.2872 14.3914 24.1242 13.3902C23.9801 12.5047 23.7585 11.6372 23.4708 10.7889C23.3581 10.6894 23.2321 10.6072 23.0972 10.5447C22.1094 10.5033 21.1198 10.5154 20.1333 10.5837C19.2919 10.6423 18.4546 10.7416 17.6237 10.8862L17.5347 10.9019C17.3507 10.9347 17.1465 10.9535 16.9731 11.0277C16.8244 11.0916 16.7642 11.2143 16.7267 11.3652C16.6324 11.7469 16.618 12.1646 16.6021 12.556C16.5864 12.9386 16.6217 13.3244 16.5911 13.7057C16.5652 14.0248 16.4837 14.3514 16.2479 14.5822C16.1245 14.703 15.9727 14.7691 15.8303 14.8608C15.7382 14.92 15.6991 14.981 15.711 15.0906C15.7366 15.3305 15.9293 15.6326 15.7129 15.838C15.6748 15.874 15.6089 15.8787 15.5714 15.838C15.4821 15.7407 15.3587 15.6664 15.2528 15.5878C15.2085 15.5553 15.2453 15.4921 15.2956 15.5146C15.3618 15.5444 15.4293 15.5794 15.4983 15.6101C15.3459 15.4842 15.1291 15.4225 14.9486 15.3859C14.8577 15.3677 14.7621 15.3624 14.6675 15.3709C14.5975 15.4044 14.526 15.4354 14.4545 15.4657C14.3636 15.504 14.2718 15.5387 14.1793 15.5716C13.8586 15.8336 13.7055 16.2598 13.7724 16.6766C13.8089 16.9067 13.9148 17.1569 14.1144 17.2912C14.3508 17.4503 14.6675 17.382 14.923 17.5001C15.1622 17.6105 15.3078 17.8338 15.4168 18.0649L15.4622 18.1611C15.5634 18.3741 15.6674 18.5815 15.8056 18.7753C15.9655 18.9998 16.1614 19.2015 16.375 19.3747C16.4786 19.4585 16.5891 19.5339 16.7033 19.6025L16.7345 19.6211C16.8501 19.689 16.9328 19.7538 16.9406 19.8975C16.9431 19.9476 16.9116 19.9933 16.871 20.0193C16.6961 20.1305 16.5221 19.9915 16.3766 19.8944C16.2195 19.7898 16.0692 19.6721 15.9302 19.5437C15.666 19.3001 15.4374 19.0108 15.2616 18.6967C15.1276 18.4575 15.0514 18.121 14.8396 17.9356C14.7103 17.8225 14.5276 17.8216 14.3661 17.8009C14.2159 17.7815 14.0738 17.7502 13.9401 17.676C13.3963 17.3732 13.2427 16.6402 13.3717 16.0738C13.3935 15.9783 13.4241 15.8853 13.4619 15.7958C13.2595 15.8296 13.0321 15.6198 13.1143 15.4081C13.1205 15.3922 13.1277 15.3772 13.1346 15.3618C13.0012 15.2738 12.896 15.1404 12.846 14.966C12.8204 14.8758 12.8166 14.7847 12.8301 14.6967C12.7654 14.6532 12.712 14.5934 12.6777 14.5198C12.5702 14.47 12.475 14.3956 12.4181 14.2891C12.3394 14.1422 12.3494 14.0069 12.4094 13.8851C12.4009 13.8698 12.3928 13.8542 12.385 13.8382C12.1648 13.6983 12.0111 13.4571 12.0286 13.1897C12.0343 13.1011 12.0561 13.0213 12.0899 12.9493C12.087 12.9402 12.0842 12.9308 12.0817 12.9217C11.8975 12.8278 11.745 12.6734 11.6907 12.4674C11.6364 12.2601 11.7004 12.0534 11.8284 11.8944C11.641 11.757 11.5283 11.565 11.5967 11.2747C11.6245 11.1567 11.6804 11.0493 11.756 10.9588C11.7557 10.956 11.755 10.9532 11.7544 10.9504L11.7369 10.9367C11.5055 10.7537 11.3725 10.5205 11.5145 10.2336C11.5783 10.1047 11.6691 10.0148 11.776 9.9556L11.7813 9.93869C11.7048 9.77431 11.6788 9.59176 11.7316 9.39983C11.7747 9.24173 11.8768 9.11583 12.0074 9.03226C11.9987 8.96147 11.9999 8.88604 12.014 8.80429C12.0374 8.66624 12.1058 8.54569 12.2057 8.46021C12.2095 8.44202 12.2142 8.4242 12.2195 8.40632C12.2532 8.29708 12.3163 8.17841 12.3894 8.09039C12.4497 8.01744 12.5171 7.99082 12.5996 7.98801C12.5946 7.92072 12.598 7.85243 12.6118 7.78323C12.6539 7.56972 12.7895 7.36898 12.9903 7.27787C13.0728 7.24061 13.1596 7.22968 13.2433 7.23873C13.3145 7.08844 13.4535 6.9795 13.6243 6.95602C13.6909 6.94663 13.7527 6.94722 13.8095 6.95571C13.8417 6.94065 13.8751 6.92721 13.9101 6.91497C13.9332 6.90683 13.9566 6.89932 13.9801 6.89183C14.0591 6.79352 14.1631 6.71489 14.2846 6.66764C14.4248 6.61285 14.5676 6.61845 14.6941 6.66448L14.7343 6.65603C14.7974 6.54644 14.898 6.46159 15.0526 6.42307C15.2281 6.37955 15.4083 6.44029 15.5464 6.55085C15.547 6.55085 15.5476 6.55085 15.5486 6.55051C15.6207 6.38863 15.7441 6.27591 15.9512 6.28374C16.0802 6.28875 16.1967 6.35297 16.2866 6.4444C16.3366 6.4381 16.3866 6.43247 16.4368 6.42686C16.4899 6.36452 16.549 6.30631 16.6142 6.25402C16.7211 6.1682 16.86 6.17512 16.9388 6.29595C16.9559 6.32225 16.9719 6.34887 16.9878 6.37548L17.0599 6.37047C17.1449 6.25556 17.2608 6.17791 17.4194 6.17168C17.565 6.1657 17.6687 6.23712 17.7477 6.33697C17.812 6.3354 17.8767 6.33418 17.9413 6.33321C18.0166 6.24585 18.1053 6.16883 18.2065 6.10495C18.284 6.05611 18.3983 6.07273 18.461 6.13786C18.5035 6.18213 18.5429 6.22835 18.5796 6.27619C18.6742 6.16986 18.802 6.09982 18.9385 6.07305ZM14.3417 16.0159C14.4876 15.9326 14.6837 16.0228 14.8249 16.0935C14.997 16.1796 15.1679 16.3096 15.2731 16.4724C15.4165 16.6941 15.0795 16.8732 14.9286 16.6744C14.8358 16.5519 14.7618 16.4286 14.6494 16.3215C14.5466 16.2232 14.3977 16.1574 14.3386 16.0278C14.3364 16.0234 14.3371 16.0184 14.3417 16.0159ZM14.4442 10.635L14.4469 10.6272C14.4884 10.5135 14.3074 10.4644 14.2663 10.5773C14.2039 10.7482 14.2758 10.9341 14.4442 11.008C14.4909 11.0284 14.5443 11.0213 14.5724 10.9743C14.5961 10.9347 14.5851 10.866 14.5388 10.8458C14.444 10.8042 14.4123 10.7309 14.4442 10.635ZM12.8847 10.317C12.9753 10.2368 12.8423 10.1043 12.7522 10.1841C12.668 10.2586 12.6056 10.3597 12.6218 10.4761C12.6384 10.5946 12.7275 10.6783 12.8251 10.7374C12.9286 10.8002 13.0229 10.6378 12.9197 10.5752L12.9081 10.5681C12.8648 10.5411 12.8141 10.5041 12.8068 10.451C12.799 10.3947 12.8466 10.3507 12.8847 10.317ZM13.399 8.90258L13.4054 8.89784C13.5028 8.82821 13.4093 8.6652 13.3108 8.73562C13.2206 8.80022 13.1482 8.88413 13.1406 8.99986C13.1332 9.11233 13.1902 9.20983 13.2649 9.28895C13.3479 9.37697 13.4803 9.24396 13.3974 9.15613C13.3166 9.07053 13.3009 8.97713 13.399 8.90258Z" fill="black"/>
<path fill-rule="evenodd" clip-rule="evenodd" d="M21.8456 18.3912C21.8936 18.3077 22.0042 18.2304 22.1053 18.2422C22.5585 18.2954 22.5577 18.845 22.3827 19.1659C22.2276 19.4504 21.9065 19.6174 21.5851 19.593C21.2475 19.5674 20.9598 19.3688 20.8332 19.0529C20.7495 18.8439 20.7108 18.458 20.9335 18.3176C20.9377 18.315 20.9445 18.3156 20.9478 18.3194C21.0546 18.4437 21.0588 18.6303 21.1523 18.7686C21.2392 18.8973 21.3743 19.0036 21.5325 19.02C21.6507 19.0323 21.7703 18.9896 21.8165 18.8835C21.8415 18.8261 21.8387 18.7949 21.8293 18.7554L21.8207 18.721C21.7911 18.6008 21.7778 18.5092 21.8456 18.3912ZM21.9668 15.9807C22.2031 16.1245 22.5632 16.4596 22.309 16.8159C22.0097 17.1301 21.5788 16.7698 21.3665 16.6069C21.1696 16.4807 20.9483 16.8054 21.131 16.9528C22.6654 18.0893 23.2881 16.0183 22.0863 15.8118C21.954 15.789 21.9048 15.9363 21.9668 15.9807ZM19.4709 14.9952C19.616 14.7775 19.9471 14.8096 20.027 15.0679C20.0703 15.2079 20.0105 15.3337 20.0136 15.4735C20.0162 15.5916 20.0085 15.7231 19.9723 15.8375C19.8898 16.0982 19.6554 16.2824 19.378 16.2748C19.1016 16.2672 18.8581 16.0921 18.7424 15.8456C18.6262 15.5982 18.6508 15.3421 18.7356 15.0905C18.7397 15.0784 18.7555 15.0725 18.7651 15.0827C18.8653 15.1893 18.9387 15.3018 19.0147 15.4212L19.0925 15.5435C19.152 15.6356 19.2384 15.7533 19.3495 15.7459L19.3661 15.7443C19.397 15.7416 19.3923 15.7477 19.4161 15.7057C19.4271 15.6862 19.4251 15.65 19.4304 15.627L19.4323 15.6192L19.4312 15.6151C19.4289 15.6039 19.4266 15.583 19.4247 15.5466L19.4243 15.5385C19.4162 15.3683 19.3681 15.1495 19.4709 14.9952ZM23.1483 15.1402C23.1223 14.8617 23.5136 14.7999 23.6437 15.0059C23.7116 15.1134 23.7313 15.2484 23.7464 15.3763L23.7534 15.437C23.7688 15.5683 23.7749 15.705 23.7179 15.8275C23.6281 16.0204 23.4329 16.1225 23.2223 16.1063C23.0212 16.0908 22.8378 15.9742 22.741 15.7971C22.6548 15.6391 22.5691 15.3307 22.6738 15.1659C22.6801 15.1559 22.6928 15.1546 22.7014 15.1623C22.8004 15.2502 22.8165 15.4105 22.8754 15.525C22.9361 15.6431 23.0281 15.7582 23.1676 15.7762C23.3011 15.7933 23.3521 15.7204 23.318 15.5931C23.2741 15.4288 23.1648 15.317 23.1483 15.1402ZM19.5766 13.3396L19.6406 13.3151C19.8599 13.2322 20.161 13.1364 20.3392 13.3148C20.4492 13.4248 20.4702 13.5868 20.3917 13.7211C20.2966 13.8837 20.1259 13.8877 19.9612 13.9116C19.7738 13.9389 19.5832 13.9907 19.4088 14.0645C19.2122 14.1477 19.0299 14.2514 18.8512 14.3672C18.6813 14.4773 18.5121 14.6572 18.3088 14.6911C18.3005 14.6924 18.2911 14.6889 18.289 14.6798C18.2428 14.4809 18.3711 14.2853 18.4856 14.1302C18.6241 13.9424 18.792 13.7882 18.9796 13.65C19.1606 13.5166 19.3675 13.4202 19.5766 13.3396ZM23.5599 14.0465L23.5795 14.0431C23.7125 14.0209 23.833 14.026 23.9332 14.1314C24.0097 14.2118 24.0392 14.3159 24.0027 14.4222C23.9691 14.5203 23.8938 14.6199 23.7846 14.6404C23.4159 14.7098 23.0076 14.6983 22.6371 14.6458C22.4675 14.6217 22.2965 14.5923 22.1314 14.5459L22.0554 14.5239C21.9176 14.4845 21.7598 14.4433 21.6596 14.3419C21.6236 14.3055 21.6444 14.2533 21.6875 14.2364C21.8622 14.168 22.1016 14.2044 22.2879 14.199C22.5046 14.1928 22.7217 14.1766 22.9374 14.1542C23.1481 14.1323 23.3521 14.0846 23.5599 14.0465Z" fill="black"/>
<path fill-rule="evenodd" clip-rule="evenodd" d="M19.1778 19.1994C19.4312 18.6055 19.9843 18.169 20.6211 18.0094C21.0887 17.8925 21.5794 17.8963 22.0561 17.9427C22.3058 17.9668 22.5737 17.9866 22.8091 18.0793C23.0101 18.1586 23.1739 18.3084 23.297 18.4843C23.4436 18.6927 23.5433 18.9313 23.6133 19.1758C23.6233 19.2105 23.6326 19.2455 23.6413 19.2807C23.6109 19.4652 23.5463 19.6222 23.3755 19.7382C23.2088 19.8514 23.0099 19.8977 22.8117 19.9142C22.7923 19.9049 22.7735 19.8953 22.7563 19.8854C22.4473 19.7085 22.2299 19.2904 21.84 19.347C21.4921 19.3975 21.263 19.8355 21.0561 20.0924C20.3919 20.1698 19.7281 19.9701 19.1877 19.5902C19.1603 19.4601 19.1587 19.329 19.1778 19.1994ZM24.0928 18.7488C24.0397 18.5997 23.9727 18.4552 23.8934 18.3191C23.6312 17.869 23.2286 17.5104 22.7506 17.3054C21.6201 16.8211 20.1572 17.1625 19.2442 17.9568C18.9323 18.2283 18.6169 18.6273 18.5216 19.0564C18.4931 19.0621 18.4662 19.0769 18.4441 19.0978C17.7844 18.6823 17.1051 18.2826 16.5735 17.7066C16.1875 17.2882 15.919 16.793 15.7546 16.2488C15.7412 16.204 15.669 16.2105 15.6711 16.2601C15.6718 16.2717 15.6724 16.2833 15.673 16.2949C15.6661 16.2736 15.6336 16.2845 15.6311 16.3052C15.5427 16.9663 15.432 17.6671 15.5339 18.3316C15.5949 18.7282 15.7749 19.0184 16.0156 19.3319C16.2735 19.6679 16.5654 19.9804 16.8639 20.2801C17.0533 20.4703 17.2512 20.6897 17.4831 20.8292C17.7529 20.9912 18.0589 21.1144 18.3468 21.2395C18.6397 21.3671 18.9369 21.4849 19.2398 21.5871C19.8453 21.7921 20.471 21.9338 21.1077 21.9958C21.6176 22.0454 22.2002 22.0993 22.6887 21.9074C23.0632 21.7604 23.3655 21.4947 23.6052 21.1749C23.8662 20.8267 24.0725 20.43 24.1866 20.0117C24.3051 19.5772 24.1178 18.8189 24.0928 18.7488Z" fill="black"/>
</svg>
