<svg width="36" height="48" viewBox="0 0 36 48" fill="none" xmlns="http://www.w3.org/2000/svg">
<path fill-rule="evenodd" clip-rule="evenodd" d="M7.03189 42.3639C11.1209 42.9853 15.2841 43.0165 19.4072 42.7909C21.0389 42.6687 22.6756 42.6467 24.3061 42.8029C25.2695 42.8746 29.4936 43.1976 29.8387 42.3344C29.6215 37.7377 29.1816 33.102 27.832 28.6812C27.2769 27.1114 26.8002 25.8086 25.717 24.5096C25.3756 24.1549 24.6393 23.4111 24.2174 23.1685C23.8519 22.9584 23.6992 23.0333 23.4893 22.6784C23.2807 22.2863 23.1269 21.6315 22.8308 21.3548C22.5293 21.0731 22.0824 21.1739 21.5286 21.2646C21.6304 19.8891 20.9957 19.5388 20.1213 19.2772C18.5844 18.6904 17.0665 18.9852 16.6797 20.8569C15.9624 20.8569 15.5595 21.1656 15.124 21.4623C14.9459 21.5836 15.0698 21.8926 14.8571 21.9879C14.4636 22.1281 13.7683 22.0938 13.3895 22.2662C11.6667 23.0506 10.1322 24.188 9.1245 25.8491C6.86534 29.3956 5.31348 36.8663 5.58202 41.0697C5.46436 41.2543 5.62706 41.5189 5.66842 41.7174C5.72062 41.8901 5.88967 42.0049 6.06609 41.9853C6.31228 42.2502 6.69308 42.3091 7.03189 42.3639Z" fill="#D08B5B"/>
<path fill-rule="evenodd" clip-rule="evenodd" d="M15.5389 21.138C15.7909 20.8751 16.1859 20.7181 16.5601 20.7269L16.5776 20.7275L16.7046 20.7331L16.6197 21.1497L16.6154 21.1694L16.5981 21.2417L16.5751 21.3364L16.5669 21.3712L16.5582 21.4097C16.5569 21.416 16.5555 21.4222 16.5542 21.4283L16.5505 21.4465L16.5143 21.6235L16.521 21.6392L16.5191 21.6794C16.5135 21.8248 16.5448 21.9047 16.6137 21.9303L16.6193 21.9322L16.6586 21.9449L16.6907 22.0146C16.7646 22.1739 16.8335 22.3132 16.9043 22.4443C17.1106 22.8267 17.3569 23.209 17.6407 23.5931C17.9104 23.9582 18.1914 24.3066 18.4835 24.6374C18.6149 24.7862 18.7536 24.9356 18.9013 25.0876L19.0284 25.2179L19.0689 25.2588L19.0961 25.2859L19.13 25.3192L19.1789 25.3658L19.2143 25.4007L19.2258 25.4116C19.2402 25.425 19.2514 25.4341 19.2615 25.4406L19.2652 25.4429L19.2764 25.4495L19.8657 26.0696L20.0739 26.1841L20.1727 26.2389L20.1928 26.199L20.1968 26.1862L20.4159 25.705L20.5496 25.4102C20.8241 24.8039 21.0377 24.3215 21.2331 23.8622L21.2574 23.8049L21.3294 23.634L21.3675 23.5428C21.5421 23.1243 21.6711 22.8013 21.7865 22.4875L21.8029 22.4427L21.8272 22.3757L21.8633 22.2746L21.8699 22.2573C21.9012 22.177 21.8242 21.8852 21.7483 21.7253L21.7441 21.7164L21.7243 21.6768L21.703 21.635C21.6528 21.5371 21.6165 21.4284 21.586 21.2969C21.581 21.2756 21.5764 21.2541 21.572 21.2325L21.5656 21.1999L21.5616 21.1785L21.556 21.1486L21.5479 21.1057L21.7177 21.0773L21.8108 21.0621L21.8514 21.0558C21.904 21.0476 21.9509 21.041 21.9949 21.0354L22.0113 21.0333L22.0409 21.0298L22.0419 21.0357L22.1025 21.0416L22.1474 21.0463C22.3689 21.0697 22.5398 21.0955 22.6611 21.1242L22.6731 21.127L22.6947 21.1325L22.7046 21.1351C22.815 21.1648 22.9 21.229 22.9673 21.3237C23.0134 21.3887 23.0434 21.4509 23.0908 21.5688L23.1078 21.6114L23.1642 21.7509C23.1708 21.7679 23.181 21.795 23.1948 21.8323L23.2427 21.9627L23.4827 22.6257L23.7283 22.7549C23.8424 22.8147 23.9259 22.8578 23.9672 22.8781L23.9818 22.8853L23.9922 22.89L24.0769 22.9236L24.0678 22.95L24.078 22.9559C25.089 23.5377 25.8687 24.4327 26.4757 25.6209L26.4941 25.657L26.5129 25.6944C26.9966 26.6623 27.3432 27.7424 27.6817 29.1844L27.7026 29.274L27.7191 29.3453L27.8073 29.7302C28.1388 31.1831 28.3666 32.2665 28.5552 33.3296L28.5674 33.3989L28.5988 33.5795C28.8356 34.9555 29.0338 36.3191 29.1924 37.6692L29.2188 37.8965C29.2849 38.4766 29.3447 39.0763 29.4096 39.7965L29.4183 39.8932L29.4469 40.2167C29.4773 40.5652 29.5051 40.9131 29.5302 41.2602L29.5426 41.4337L29.568 41.8109L29.5829 42.0259L29.5847 42.055L29.5907 42.167L29.5924 42.1933C29.5947 42.227 29.5973 42.2554 29.6005 42.2816L29.6031 42.301L29.606 42.3198C29.6143 42.3711 29.6309 42.4171 29.6583 42.4685L29.6653 42.4814L29.7123 42.5655L29.6271 42.6103C29.183 42.8444 28.3087 42.9473 27.1092 42.9527L27.0728 42.9528H26.9978C26.4149 42.9525 25.7972 42.93 25.1527 42.8916L25.0069 42.8827L24.8853 42.8749C24.8328 42.8715 24.7818 42.8681 24.7289 42.8644L24.6478 42.8587L24.3089 42.8339C22.7844 42.6878 21.1857 42.6902 19.4241 42.8222C14.8314 43.0735 10.8673 42.9674 7.14144 42.4111L7.02861 42.3941L6.94546 42.3806L6.89587 42.3723C6.50066 42.3048 6.25251 42.2183 6.05887 42.0367L6.04873 42.0271L6.04028 42.0188L6.03662 42.0189C5.84165 42.018 5.66316 41.8904 5.59694 41.7023L5.5935 41.6922L5.58913 41.6781L5.58611 41.6641C5.58303 41.6506 5.57917 41.636 5.57449 41.6201L5.57082 41.6078L5.54004 41.5069L5.64373 41.488C5.65267 41.4863 5.66196 41.4801 5.67097 41.467L5.67961 41.4547L5.69456 41.4339L5.73068 41.3844C5.76915 41.3304 5.78808 41.2966 5.79746 41.2625C5.80576 41.2324 5.80887 41.1938 5.80797 41.14L5.80727 41.1138L5.80319 41.0186C5.80292 41.011 5.80274 41.0043 5.80262 40.9979L5.80249 40.9883L5.80242 40.8543L5.80276 40.7071C5.80299 40.6428 5.80336 40.5802 5.80385 40.5186L5.80469 40.4271L5.80552 40.3534C5.81051 39.9455 5.82248 39.5379 5.84142 39.1311C5.87845 38.3366 5.94196 37.5434 6.03181 36.7531C6.21733 35.1216 6.5015 33.5393 6.88807 32.0102L6.9269 31.8575C7.34487 30.2233 7.74787 28.9635 8.26008 27.7984C8.91155 26.3167 9.70588 25.0972 10.706 24.1222C11.2559 23.5862 11.8649 23.1337 12.512 22.7867C12.8096 22.6271 13.126 22.4855 13.4652 22.3581L13.5138 22.34L13.5923 22.3113L13.6525 22.2891L13.8464 22.2166C13.8872 22.2013 13.9316 22.1842 13.9841 22.1635L14.0165 22.1507L14.3639 22.0121L14.4216 21.9894L14.4857 21.9644L14.5329 21.9463C14.6099 21.9169 14.6797 21.8913 14.7445 21.8686L14.7828 21.8554L14.8176 21.8437L14.9658 21.7924L14.9629 21.9273C14.961 22.017 14.9841 22.0848 15.0354 22.1335L15.0371 22.135L15.0389 22.1365L15.0405 22.1375L15.0495 22.1373L15.0845 22.1371C15.0881 22.1351 15.0915 22.1328 15.0947 22.1301C15.1445 22.0877 15.1677 22.0309 15.1902 21.9007L15.1962 21.8644L15.2066 21.7965L15.2107 21.7708C15.2257 21.6804 15.2388 21.6305 15.2642 21.5734C15.3009 21.4909 15.3494 21.4105 15.4065 21.3366L15.4198 21.3197L15.4732 21.2555L15.4814 21.2454C15.5001 21.2214 15.5096 21.2045 15.5137 21.189L15.5146 21.1848L15.5199 21.1579L15.5389 21.138Z" fill="#FFCF77"/>
<path fill-rule="evenodd" clip-rule="evenodd" d="M23.9564 23.0646C23.9313 23.0506 23.9534 23.0147 23.9786 23.0265C25.1913 23.5957 26.1216 24.5941 26.7762 25.7478C27.454 26.9424 27.8403 28.2986 28.1734 29.6243L28.1854 29.6722C28.5405 31.0902 28.8425 32.523 29.1144 33.9592C29.3897 35.4136 29.6107 36.8771 29.7885 38.3466C29.8764 39.0732 29.9548 39.801 30.016 40.5304C30.0465 40.8948 30.0743 41.2596 30.0992 41.6245C30.1092 41.7704 30.1186 41.9163 30.1266 42.0624L30.1324 42.172C30.1374 42.2714 30.1492 42.371 30.1246 42.469C30.1035 42.5535 30.0587 42.6301 30.0194 42.7076C29.9416 42.861 29.7283 42.8357 29.6444 42.7076L29.6201 42.6703C29.5645 42.5844 29.5183 42.5045 29.5008 42.3975C29.484 42.2939 29.4833 42.1853 29.4758 42.0807C29.4618 41.8881 29.45 41.6954 29.4364 41.5028C29.4081 41.0974 29.3762 40.6922 29.3409 40.2874C29.271 39.4881 29.1961 38.6896 29.1041 37.8926C28.9407 36.476 28.7356 35.0633 28.4938 33.658C28.2576 32.2853 27.9589 30.9265 27.6474 29.5693L27.6151 29.429C27.0696 27.0595 26.2288 24.3308 23.9564 23.0646ZM11.0397 32.3428C11.0486 32.3191 11.087 32.3136 11.0935 32.3428C11.1752 32.7107 11.1833 33.0897 11.1957 33.4664C11.2081 33.838 11.2075 34.2113 11.2021 34.5831C11.1822 35.9496 11.1447 37.3149 11.1122 38.6812C11.096 39.3647 11.0808 40.0482 11.0691 40.7317C11.0647 40.9881 11.061 41.2444 11.0579 41.5008L11.0542 41.8389C11.0523 41.9884 11.0484 42.1361 11.0301 42.2854C11.0181 42.3836 10.9925 42.4773 10.9383 42.5615C10.8998 42.6213 10.845 42.6516 10.7916 42.6922L10.7816 42.7C10.7134 42.7539 10.6416 42.7542 10.5741 42.7L10.5545 42.6845C10.49 42.634 10.4343 42.5946 10.3931 42.5148C10.3358 42.4039 10.3266 42.2834 10.3169 42.1611C10.3021 41.9758 10.3119 41.7877 10.3138 41.6018C10.3177 41.2289 10.3228 40.856 10.3294 40.4831C10.3534 39.1157 10.4008 37.7481 10.4873 36.3831C10.528 35.7402 10.5833 35.0952 10.6574 34.4549L10.6715 34.3349C10.694 34.1465 10.7145 33.9547 10.7376 33.7623C10.3927 33.5197 10.0896 33.2253 9.83118 32.8914C9.81215 32.8668 9.84348 32.8323 9.86645 32.8561C10.1306 33.1297 10.4334 33.3478 10.7686 33.5192C10.8235 33.1165 10.8991 32.716 11.0397 32.3428ZM16.8004 20.1538C16.8051 20.1501 16.8125 20.1485 16.817 20.1538C16.8911 20.2402 16.8761 20.3724 16.8785 20.4819L16.8787 20.4921C16.8841 20.6523 16.8851 20.8119 16.8845 20.9722L16.8829 21.4823C16.8826 21.5524 16.877 21.6254 16.8806 21.696L16.8824 21.7233C16.9214 21.7632 16.9395 21.8208 16.9263 21.8787C16.9239 21.953 16.8851 22.0149 16.8284 22.0539L16.9498 22.2261L17.0713 22.3982C17.3216 22.7535 17.5747 23.1055 17.8385 23.451C18.1075 23.8032 18.3945 24.1421 18.6947 24.468C18.8414 24.6273 18.9906 24.7843 19.1433 24.9378C19.2054 25.0002 19.2689 25.0611 19.3318 25.1226L19.3944 25.1844C19.4314 25.2214 19.4779 25.258 19.5024 25.3049C19.5168 25.3325 19.5201 25.4006 19.5253 25.4119C19.5716 25.5138 19.4926 25.6762 19.3612 25.6254L19.3672 25.6214C19.3911 25.6048 19.3758 25.6045 19.3212 25.6207C19.2868 25.6206 19.2545 25.6126 19.2243 25.597L19.2154 25.592C19.1729 25.5704 19.135 25.5286 19.1005 25.4952L19.0919 25.4871C19.013 25.4131 18.9378 25.3347 18.8622 25.2574C18.7043 25.0961 18.5501 24.9313 18.4007 24.7622C18.1027 24.4247 17.8203 24.0736 17.5528 23.7115C17.2803 23.3428 17.027 22.9551 16.8092 22.5515C16.7265 22.3983 16.6508 22.2422 16.5781 22.0843C16.4367 22.0389 16.4039 21.8884 16.4137 21.7189C16.3616 21.5974 16.3145 21.4733 16.2868 21.3466C16.283 21.3292 16.3053 21.3128 16.3186 21.328C16.3639 21.3794 16.4057 21.4341 16.446 21.4903C16.4703 21.3715 16.501 21.2621 16.5155 21.1924L16.5782 20.8846C16.2249 20.8662 15.8378 21.0114 15.5943 21.2656C15.5812 21.3318 15.5303 21.3792 15.4806 21.441C15.4239 21.5118 15.3744 21.5911 15.3375 21.6741C15.2557 21.8581 15.3019 22.1292 15.143 22.2642C15.1265 22.2783 15.108 22.2881 15.0889 22.2941C15.1643 22.6638 15.13 23.0712 15.1284 23.4463L15.1283 23.4793C15.1287 23.8991 15.1147 24.3192 15.0985 24.7387L15.082 25.1538C15.0606 25.7074 15.0467 26.2613 15.1005 26.8119C15.3461 26.5944 15.6 26.3867 15.8626 26.189C16.0353 26.0589 16.2114 25.9334 16.3908 25.8127L16.5365 25.7153C16.7111 25.5981 16.89 25.4776 17.0812 25.3937C17.3313 25.284 17.5691 25.3217 17.8105 25.4342C18.0509 25.5463 18.2842 25.6764 18.5201 25.7979C18.7599 25.9214 19.0003 26.0438 19.2405 26.1666C19.3996 26.2479 19.6328 26.3214 19.7495 26.4711C19.757 26.438 19.7657 26.4049 19.7758 26.372C19.7642 26.3218 19.7687 26.2676 19.7968 26.2159C20.189 25.495 20.5519 24.7569 20.9122 24.0198C21.0945 23.6467 21.2679 23.2692 21.4507 22.8963L21.6283 22.5332C21.658 22.4727 21.6877 22.4123 21.7177 22.3519C21.7625 22.2615 21.8092 22.172 21.8545 22.0819C21.8736 22.0438 21.8976 22.006 21.9163 21.9675L21.9251 21.9483C21.9256 21.9473 21.9686 21.8119 21.9353 21.8248L21.9325 21.8262C21.9155 21.8358 21.9019 21.8144 21.9129 21.8008C21.9599 21.7426 22.0254 21.7942 22.0522 21.848C22.1261 21.9961 21.9907 22.2286 21.9386 22.3705L21.9358 22.3784C21.7741 22.8361 21.5911 23.2853 21.4035 23.7329C21.0439 24.591 20.6576 25.436 20.2722 26.2824L20.2676 26.297C20.3498 26.234 20.4376 26.1767 20.5127 26.1211C20.7023 25.9806 20.8974 25.847 21.0922 25.7139C21.4495 25.4697 21.8164 25.2416 22.1894 25.0226L22.2641 24.9789C22.4504 24.8703 22.635 24.7822 22.8561 24.8148C23.0616 24.8451 23.2526 24.9555 23.4382 25.0452L23.4574 25.0544L24.031 25.3272C23.9697 25.0826 23.9033 24.8392 23.834 24.5967C23.6989 24.1237 23.5503 23.6546 23.3891 23.1898C23.2386 22.7555 23.0758 22.3259 22.9037 21.8997L22.8518 21.7718C22.7816 21.5964 22.7119 21.405 22.5113 21.351C22.3108 21.297 22.0808 21.3771 21.8976 21.2628C21.881 21.2524 21.883 21.2249 21.9032 21.2198L22.0163 21.1913C22.2285 21.1385 22.4774 21.0854 22.6781 21.1367C22.8966 21.1927 23.0773 21.3761 23.1833 21.5668C23.3011 21.7789 23.3842 22.0162 23.4736 22.2424L23.4878 22.278C23.5904 22.5339 23.6891 22.7914 23.7836 23.0505C23.9724 23.5684 24.1444 24.0925 24.3 24.6213C24.375 24.8762 24.4461 25.1323 24.5145 25.389C24.5342 25.4629 24.5666 25.5524 24.5932 25.6457C24.6237 25.6755 24.6525 25.7087 24.6796 25.7465C24.7245 25.8093 24.6923 25.883 24.6365 25.9206C24.6343 25.9848 24.62 26.0453 24.5859 26.0971C24.4527 26.2993 24.1006 26.2472 24.115 25.9753C24.1171 25.9337 24.1333 25.894 24.1579 25.8604L24.1572 25.855L24.1544 25.845C24.0933 25.8157 24.0319 25.783 23.9672 25.7511L23.3652 25.4535C23.1909 25.3673 22.9977 25.2342 22.8038 25.2013C22.6231 25.1707 22.4324 25.3054 22.2771 25.3867L22.267 25.3919C21.8916 25.5844 21.5189 25.7833 21.1478 25.9838C20.9666 26.0817 20.7877 26.1837 20.6072 26.2828C20.4563 26.3656 20.2934 26.4845 20.1238 26.5313C20.0513 26.5876 19.9652 26.5801 19.8961 26.5375C19.9277 26.7333 19.9257 26.9343 19.9355 27.1346C19.9485 27.4022 19.9505 27.6707 19.9548 27.9387L19.9565 28.0392C19.9679 28.6318 19.974 29.2246 19.9763 29.8173C19.9843 31.9279 19.961 34.0392 19.9555 36.1498C19.9528 37.2102 19.9318 38.2716 19.9042 39.3316C19.8926 39.7808 19.8682 40.2294 19.8418 40.6779L19.8273 40.9226C19.7966 41.4387 19.7785 41.9606 19.6829 42.4698C19.6705 42.5362 19.5581 42.5379 19.5471 42.4698C19.4592 41.9242 19.4543 41.3666 19.4374 40.8145L19.4338 40.7042C19.4135 40.1115 19.4039 39.5191 19.4059 38.9261C19.4134 36.8146 19.4683 34.7045 19.5132 32.5936C19.5358 31.5331 19.5509 30.472 19.586 29.4118C19.6035 28.8813 19.6234 28.3511 19.6469 27.8208C19.6574 27.5841 19.6675 27.3475 19.6833 27.1111L19.6904 27.0098C19.6952 26.9437 19.6992 26.8784 19.704 26.8137C19.4904 26.8918 19.2951 26.7473 19.103 26.6484C18.8816 26.5345 18.6603 26.4204 18.4388 26.3067L18.2171 26.1931L17.7734 25.9667C17.5737 25.8647 17.4198 25.7632 17.2068 25.8828C16.4392 26.3136 15.7339 26.8868 15.0947 27.4882C14.9721 27.6036 14.7131 27.5726 14.6821 27.3793C14.5495 26.5534 14.6301 25.7156 14.6978 24.8873L14.7228 24.5797C14.753 24.2124 14.786 23.8451 14.8299 23.4793C14.8495 23.3156 14.8691 23.1521 14.8907 22.9888L14.9073 22.8663C14.9344 22.6727 14.952 22.4803 15.0097 22.2946C14.9915 22.2887 14.974 22.2791 14.9584 22.2642C14.785 22.0997 14.8686 21.8143 14.9477 21.6186C15.0258 21.4254 15.1449 21.2568 15.294 21.1117C15.3265 21.08 15.3724 21.0597 15.4185 21.0586C15.7801 20.8189 16.1767 20.6993 16.5896 20.8301C16.6012 20.7747 16.613 20.7193 16.6255 20.6641L16.6381 20.6089C16.6703 20.4718 16.6822 20.2454 16.8004 20.1538ZM20.5063 41.7966C20.6185 41.7657 20.7414 41.7983 20.8236 41.8805C20.9058 41.9628 20.9384 42.0857 20.9074 42.1979C20.892 42.2532 20.864 42.3011 20.8236 42.3419C20.7858 42.3794 20.7418 42.4062 20.6914 42.4222L20.6797 42.4258L20.6614 42.4334C20.6051 42.4485 20.5488 42.4485 20.4926 42.4334C20.4389 42.4183 20.3922 42.3911 20.3526 42.3518C20.3132 42.3121 20.286 42.2654 20.2709 42.2116C20.2558 42.1554 20.2558 42.0991 20.2709 42.0428L20.2786 42.0245C20.2941 41.9692 20.322 41.9212 20.3624 41.8805C20.4031 41.8401 20.4511 41.8121 20.5063 41.7966ZM27.1689 30.6111C27.1873 30.5899 27.2172 30.617 27.2058 30.6395C27.031 30.9823 26.8362 31.3226 26.6447 31.6567C26.6601 31.7493 26.6753 31.8411 26.6928 31.9306C26.7674 32.3122 26.8587 32.6868 26.9183 33.072C27.1324 34.4566 27.2435 35.8562 27.3389 37.2531C27.4345 38.6551 27.4468 40.0577 27.4611 41.4625C27.4624 41.5842 27.3688 41.7257 27.2433 41.7487C27.1859 41.7592 27.1429 41.7571 27.0856 41.7487C26.9551 41.7294 26.8734 41.5798 26.8678 41.4625C26.8304 40.6774 26.78 39.8933 26.7217 39.1094C26.6183 37.7197 26.5551 36.3264 26.4715 34.9352L26.4421 34.449C26.4105 33.9221 26.3817 33.3949 26.3723 32.8673C26.366 32.5178 26.3847 32.1683 26.3732 31.8191C26.3626 31.4968 26.3299 31.1463 26.401 30.8296C26.4036 30.8177 26.4223 30.8147 26.4278 30.8261C26.5016 30.9816 26.5484 31.1507 26.5845 31.3233C26.7748 31.0825 26.9687 30.8411 27.1689 30.6111ZM14.6995 22.0961C14.7263 22.0941 14.7252 22.1343 14.6995 22.1373C14.326 22.1806 13.9651 22.3327 13.6123 22.462L13.5821 22.473C13.2257 22.6024 12.8783 22.7528 12.5439 22.9321C11.8902 23.2826 11.2899 23.7346 10.7591 24.2521C8.64 26.3177 7.67428 29.2965 6.96664 32.0958C6.57346 33.651 6.29387 35.2326 6.11265 36.8263C6.02304 37.6144 5.95969 38.4056 5.92276 39.198C5.90385 39.6041 5.89193 40.0106 5.88695 40.4171C5.88439 40.6253 5.88363 40.8336 5.88388 41.0418C5.88401 41.1372 5.90104 41.2574 5.87553 41.35C5.85187 41.4359 5.78514 41.5114 5.73578 41.583C5.67728 41.6678 5.57215 41.6633 5.51284 41.583L5.49096 41.5537C5.42771 41.4698 5.36582 41.3895 5.35678 41.2798C5.34711 41.1622 5.35393 41.041 5.35349 40.9228C5.35249 40.6848 5.35543 40.4468 5.36019 40.2089C5.36936 39.7528 5.38733 39.2969 5.41403 38.8415C5.46823 37.9174 5.55747 36.9951 5.68523 36.0782C5.91234 34.4485 6.25274 32.8343 6.69863 31.2504C7.11928 29.7563 7.61762 28.2666 8.32755 26.8826C8.9867 25.5976 9.85143 24.4021 10.9925 23.5041C11.5231 23.0864 12.1007 22.7384 12.7234 22.4763C13.0375 22.3441 13.3674 22.2361 13.7028 22.1746C14.0345 22.1138 14.3648 22.1223 14.6995 22.0961ZM20.5706 39.1556C20.6299 39.1552 20.696 39.1682 20.7468 39.201L20.8147 39.2535C20.8331 39.2772 20.8514 39.3009 20.8697 39.3247C20.9121 39.38 20.9178 39.4696 20.9089 39.5356C20.9069 39.5797 20.8938 39.6206 20.8697 39.6586L20.818 39.7256C20.7683 39.7661 20.7268 39.795 20.6666 39.8146C20.6352 39.8247 20.6049 39.8269 20.5747 39.8253L20.5646 39.8247L20.5706 39.8255L20.5601 39.8243C20.5502 39.8234 20.5404 39.8224 20.5305 39.821C20.5238 39.8202 20.517 39.8197 20.5103 39.8187C20.5038 39.8182 20.4975 39.818 20.491 39.8186C20.4145 39.8258 20.3376 39.7824 20.2833 39.7325C20.2344 39.6876 20.1905 39.5923 20.1973 39.5248L20.2002 39.4965C20.2053 39.4489 20.2096 39.4302 20.2297 39.3824C20.2493 39.3358 20.2767 39.2948 20.314 39.2601C20.3854 39.1937 20.4727 39.1563 20.5706 39.1556ZM20.3339 35.6712C20.4354 35.5605 20.6098 35.5524 20.7357 35.6194C20.7663 35.6357 20.7945 35.6619 20.8216 35.6838C20.8897 35.7389 20.9165 35.8383 20.9202 35.922C20.9239 36.0049 20.8803 36.1032 20.8216 36.1604L20.8073 36.1742C20.7722 36.2083 20.722 36.238 20.6729 36.247C20.5937 36.2616 20.5273 36.2611 20.4535 36.23C20.3902 36.2033 20.3356 36.1603 20.2985 36.102L20.2925 36.0921C20.2899 36.0881 20.2875 36.0839 20.2853 36.0796L20.282 36.0732C20.2114 35.9375 20.2304 35.7839 20.3339 35.6712ZM20.3864 32.1685C20.4322 32.1541 20.478 32.1521 20.5238 32.1623C20.5549 32.1624 20.5838 32.1703 20.6107 32.1858C20.6399 32.194 20.6652 32.2088 20.6867 32.2302C20.7125 32.2454 20.7332 32.266 20.7485 32.2919C20.7789 32.3252 20.7995 32.3643 20.8101 32.4091L20.8224 32.5007L20.8101 32.5923L20.7754 32.6746C20.7658 32.6871 20.7562 32.6995 20.7465 32.7119C20.7312 32.7379 20.7105 32.7586 20.6846 32.7739C20.6677 32.7907 20.6484 32.8033 20.6268 32.812C20.5501 32.867 20.4479 32.8849 20.3571 32.8599C20.3031 32.8448 20.2562 32.8174 20.2165 32.7779C20.1771 32.7382 20.1497 32.6913 20.1346 32.6374L20.1284 32.5943C20.1204 32.5365 20.1191 32.5045 20.1355 32.431C20.1427 32.3987 20.1635 32.3531 20.1744 32.3339C20.2209 32.252 20.297 32.1959 20.3864 32.1685ZM24.3624 29.6485C24.4939 29.6476 24.6254 29.6478 24.7569 29.6493L24.8554 29.6506C25.0205 29.6532 25.162 29.6361 25.2918 29.7507C25.386 29.8339 25.3445 29.9734 25.255 30.0361C25.1195 30.131 24.9496 30.0832 24.7938 30.0728C24.6296 30.0618 24.4652 30.0526 24.3008 30.0452C23.9824 30.031 23.6638 30.0219 23.3451 30.0205C23.0271 30.0191 22.7086 30.0222 22.3906 30.0273C22.067 30.0325 21.7301 30.0627 21.4084 30.0292C21.3642 30.0246 21.3542 29.9664 21.3979 29.9513C21.701 29.8464 22.0421 29.8124 22.3599 29.7723C22.6876 29.7309 23.0153 29.7016 23.3451 29.6825C23.6839 29.6631 24.0231 29.6509 24.3624 29.6485ZM20.3858 28.6179L20.3967 28.6181C20.4546 28.6183 20.5087 28.6319 20.5592 28.659L20.57 28.665L20.6395 28.7187C20.682 28.7616 20.7115 28.8121 20.7277 28.8702L20.74 28.9615C20.7418 29.0088 20.7319 29.0529 20.7105 29.0939C20.6966 29.1364 20.6729 29.1733 20.6395 29.2044C20.6084 29.2379 20.5715 29.2615 20.529 29.2754C20.4912 29.2952 20.4507 29.3052 20.4075 29.3052L20.3967 29.305C20.3348 29.3048 20.277 29.2892 20.2235 29.2581L20.1539 29.2044C20.1114 29.1615 20.0819 29.111 20.0657 29.0528L20.0534 28.9615C20.0516 28.9143 20.0614 28.8701 20.083 28.8292C20.0968 28.7866 20.1205 28.7498 20.1539 28.7187C20.185 28.6852 20.2219 28.6615 20.2645 28.6477C20.3022 28.6278 20.3427 28.6179 20.3858 28.6179ZM21.4036 20.5499C21.4776 20.4428 21.6117 20.5381 21.5925 20.6243C21.5975 20.8663 21.6099 21.1011 21.665 21.3382C21.6902 21.4467 21.7232 21.5554 21.7741 21.6548L21.7955 21.6966C21.8614 21.8269 21.9126 21.9498 21.8238 22.0927C21.782 22.1601 21.7063 22.2107 21.6244 22.2071C21.2608 22.1914 21.2109 21.6852 21.1888 21.4026C21.166 21.1116 21.2368 20.7918 21.4036 20.5499Z" fill="black"/>
<path fill-rule="evenodd" clip-rule="evenodd" d="M25.1327 14.0915C25.0143 12.1439 24.3839 9.93577 22.5286 8.97953C18.4383 7.33387 13.0605 11.4781 12.7758 15.7117C12.6766 17.1609 13.4792 18.7445 14.9459 19.1474C15.272 19.5805 15.7652 19.8451 16.2519 20.0746C22.0496 23.0901 25.7946 20.6389 25.1327 14.0915Z" fill="#D08B5B"/>
<path fill-rule="evenodd" clip-rule="evenodd" d="M26.4534 12.8799C26.2485 12.3094 26.032 11.7433 25.8043 11.1816C25.5826 10.6349 25.3823 10.0764 25.1069 9.55562C23.4622 6.44517 20.4713 6.44517 18.9253 6.85159C18.1236 6.50528 16.6219 6.60297 15.787 6.91546C14.4355 7.42136 12.788 9.41143 12.2247 10.3056C10.9811 12.2797 10.2049 14.9072 11.031 17.1884C11.139 17.4866 11.2767 17.7627 11.4318 18.0288C11.3341 18.1615 11.2217 18.2872 11.0972 18.4107C10.7271 18.7777 10.3571 19.1327 10.0374 19.5466C9.71972 19.958 9.45637 20.3955 9.26032 20.8779C8.89064 21.7875 8.87284 22.8175 9.36157 23.6855C9.78678 24.4407 10.54 25.0031 11.3887 25.0567C11.4322 25.0628 11.4759 25.0684 11.5197 25.0728C11.6321 25.2585 11.7692 25.4294 11.9257 25.5785C12.4051 26.0356 13.5479 26.2701 14.1998 26.2852C14.2332 26.3121 14.2669 26.339 14.3006 26.3656C14.6995 26.6803 15.118 26.9978 15.5759 27.2217C15.886 27.3735 16.2927 27.5004 16.6163 27.3908C16.763 27.4891 17.0039 27.4684 17.1494 27.3879C17.3886 27.2558 17.5832 27.0178 17.7016 26.7742C17.9886 26.1828 17.9196 25.5356 17.8459 24.9037C17.7647 24.2058 17.6866 23.5076 17.6073 22.8096C17.5451 22.2639 17.4802 21.709 17.3146 21.1833C17.229 20.9109 17.1169 20.6492 16.972 20.4031C16.9757 20.3824 16.9751 20.3617 16.9692 20.3423C16.9217 20.1876 16.8236 20.1065 16.7075 20.0013C16.6925 19.9879 16.6775 19.9741 16.6628 19.96C16.6047 19.8936 16.5425 19.8319 16.476 19.7796C16.4504 19.7537 16.4251 19.7274 16.3998 19.7011C16.1896 19.4803 15.991 19.2483 15.8145 18.9997C15.6433 18.7586 15.4887 18.5069 15.3416 18.2504C15.192 17.9896 15.093 17.7018 14.9437 17.4429C14.9309 17.4207 14.8984 17.4163 14.8803 17.4348C14.8341 17.4827 14.8044 17.5359 14.8101 17.5919L14.7869 17.5954C14.7782 17.5108 14.7004 17.442 14.5949 17.4604C14.4368 17.488 14.3069 17.4983 14.1701 17.4457C14.1941 17.2857 14.2163 17.1254 14.2382 16.9648C14.2782 16.6692 14.3153 16.3727 14.3472 16.0762C14.4243 16.0946 14.5009 16.1213 14.5758 16.1551C14.6826 16.203 14.7835 16.2675 14.8697 16.3467C14.9547 16.425 15.0134 16.5305 15.1171 16.585C15.2364 16.6473 15.3804 16.5443 15.3454 16.409C15.2745 16.1357 14.8731 15.9791 14.6248 15.9274C14.5396 15.9096 14.4524 15.9021 14.3653 15.904C14.385 15.7136 14.4025 15.5232 14.4168 15.3325C14.4237 15.2423 14.43 15.1522 14.4359 15.0617C14.6289 15.0031 14.8357 14.9856 15.0365 15.0132C15.1027 15.0661 15.1689 15.1184 15.2329 15.1713C15.4363 15.3397 15.6387 15.5091 15.8386 15.6816C15.8567 15.697 15.8745 15.7123 15.8926 15.728C16.0113 15.8304 16.1593 15.7289 16.1393 15.584C15.9763 14.396 16.7021 13.451 17.552 12.719C18.4927 11.9083 20.203 11.8139 21.3218 10.4098C21.837 10.5149 22.9874 10.8272 23.4622 11.5855C24.1268 12.6482 24.04 13.6004 24.0906 14.8059C24.1412 16.0123 24.2699 17.2707 23.9966 18.4602C23.7445 19.557 23.0621 20.4942 22.0033 20.925C21.9771 20.9357 21.9505 20.946 21.924 20.956C21.3765 21.163 20.779 21.2215 20.203 21.1126C19.5656 20.9917 19.0334 20.6993 18.503 20.3395C18.4724 20.3191 18.4278 20.3611 18.4509 20.3918C19.1499 21.3205 20.5229 21.6308 21.612 21.3856C21.6629 21.374 21.7135 21.3615 21.7637 21.3477C21.5201 22.05 21.5692 22.8209 21.8865 23.5047C22.0773 23.9162 22.3684 24.2722 22.7229 24.553C23.1136 24.8624 23.5984 25.1123 23.8695 25.5465C24.1178 25.9445 24.0441 26.3916 23.619 26.6214C23.5118 26.6797 23.4706 26.8679 23.5768 26.9505C23.6174 26.9818 23.658 27.0138 23.6996 27.0451C23.9376 27.2251 24.5913 27.5633 24.6971 27.5758C25.6372 27.6876 26.2694 26.9956 26.6745 26.1793C27.1502 25.2212 27.0265 24.0536 26.5024 23.1412C26.082 22.4092 25.254 21.6878 25.5832 20.7613C25.7006 20.4303 25.9408 20.1482 26.1741 19.8933C26.4402 19.6031 26.7263 19.3313 26.9815 19.0307C27.2351 18.7323 27.46 18.4076 27.5856 18.0331C27.7689 17.4858 27.6777 16.894 27.54 16.3476C27.2448 15.1747 26.8616 14.0175 26.4534 12.8799Z" fill="black"/>
<path fill-rule="evenodd" clip-rule="evenodd" d="M21.2085 19.0034C20.9981 18.9175 20.8103 18.7743 20.6731 18.5913C20.6254 18.5277 20.613 18.4606 20.623 18.3991C20.6343 18.33 20.6751 18.2674 20.7308 18.2254C20.7867 18.1833 20.8566 18.1625 20.9242 18.1731C20.9829 18.1823 21.0414 18.2145 21.0876 18.2812L21.0973 18.2946C21.1789 18.405 21.2852 18.4956 21.4064 18.554C21.5232 18.6103 21.6538 18.6366 21.7889 18.6213C22.0463 18.5922 22.2237 18.4529 22.4123 18.2638C22.4357 18.24 22.459 18.2153 22.4825 18.1903C22.4974 18.1676 22.518 18.153 22.5408 18.1454C22.5662 18.1369 22.595 18.1374 22.6213 18.1466C22.6466 18.1554 22.6693 18.1722 22.6845 18.1946C22.699 18.2158 22.7072 18.242 22.7045 18.2722C22.6873 18.4682 22.5849 18.6431 22.4394 18.7804C22.2778 18.933 22.0636 19.0385 21.862 19.0755C21.6398 19.1163 21.4134 19.087 21.2085 19.0034ZM21.9668 15.98C22.2031 16.1237 22.5632 16.4588 22.309 16.8151C22.0097 17.1293 21.5788 16.7691 21.3664 16.6062C21.1695 16.4799 20.9483 16.8047 21.131 16.9521C22.6654 18.0885 23.2881 16.0176 22.0863 15.811C21.954 15.7883 21.9048 15.9355 21.9668 15.98ZM19.2171 14.658C19.2432 14.3338 19.7369 14.2601 19.786 14.581C19.83 14.8684 19.7782 15.1325 19.6488 15.3913C19.5251 15.6385 19.2143 15.5232 19.1908 15.298C19.1593 14.9963 19.2009 14.8597 19.2171 14.658ZM22.975 14.5145C23.0438 14.4243 23.1432 14.3627 23.2622 14.3975C23.6342 14.5063 23.5246 15.0346 23.3939 15.2917C23.323 15.4314 23.0935 15.4668 22.9898 15.3438C22.8208 15.1433 22.7399 14.7429 22.9547 14.5454C22.9605 14.5352 22.967 14.5249 22.975 14.5145ZM19.6435 13.2391L19.7023 13.2288C19.8841 13.1974 20.1101 13.1672 20.2387 13.3134C20.3069 13.3909 20.3304 13.535 20.2387 13.6092C20.0774 13.7398 19.8992 13.6892 19.7059 13.7002C19.5467 13.7094 19.3936 13.7357 19.2402 13.7796C18.9037 13.8758 18.6295 14.0515 18.3421 14.2443C18.3044 14.2696 18.2659 14.2214 18.2839 14.1861C18.4498 13.861 18.7713 13.5939 19.0934 13.4312C19.2653 13.3443 19.4534 13.2722 19.6435 13.2391ZM22.6359 13.0935L22.6809 13.1027C23.1703 13.2051 23.8062 13.4095 24.0379 13.8904C24.0468 13.9584 24.0374 13.973 24.0298 13.9825L24.0273 13.9857C24.0211 13.9938 24.0161 14.005 23.9866 14.0143C23.9784 14.0123 23.9702 14.0103 23.9618 14.0081C23.8556 13.9802 23.7715 13.9419 23.6902 13.902L23.6019 13.8586C23.4996 13.8083 23.3963 13.76 23.2869 13.7242C23.0533 13.648 22.8131 13.5943 22.5691 13.5657C22.5162 13.5595 22.4653 13.5416 22.4252 13.511C22.387 13.482 22.3579 13.4418 22.3446 13.3883C22.3274 13.3192 22.3324 13.2668 22.3695 13.2044C22.3973 13.1575 22.4373 13.1251 22.4831 13.1064C22.5298 13.0874 22.583 13.0829 22.6359 13.0935Z" fill="black"/>
</svg>
