<svg width="36" height="48" viewBox="0 0 36 48" fill="none" xmlns="http://www.w3.org/2000/svg">
<path fill-rule="evenodd" clip-rule="evenodd" d="M6.3716 40.4812C6.329 40.4825 6.34243 40.4701 6.35808 40.4671C6.36258 40.4718 6.36709 40.4765 6.3716 40.4812ZM7.62934 41.4165C8.81955 41.5577 10.0112 41.4285 11.1956 41.2991C13.5949 41.1211 15.9775 41.6395 18.3816 41.4814C21.386 41.3548 24.3986 41.1169 27.3931 41.5177C28.2213 41.5368 29.5424 41.7604 29.242 40.4777C28.8475 37.1801 28.32 33.899 27.7549 30.6268C27.276 28.7923 27.2414 25.6192 25.93 24.3435C25.7383 24.1684 25.0506 23.6019 24.8688 23.5258C23.9649 23.1892 22.3354 22.9265 21.6631 22.2128C21.1186 21.2911 21.3719 20.0333 20.5252 19.2912C19.7831 18.6851 18.1634 18.8132 17.37 19.2684C16.744 19.6744 16.6459 20.4631 16.2559 21.0463C16.1597 21.1861 15.9311 21.5229 15.8021 21.6316C15.4879 21.9342 14.3846 22.252 14.066 22.3104C12.268 22.679 11.3714 22.9068 9.95726 24.102C6.26218 27.8758 6.78596 34.5504 5.76352 39.4852C5.72168 40.0277 5.39201 40.7639 5.98017 41.1132C6.48675 41.356 7.08237 41.3295 7.62934 41.4165Z" fill="#D08B5B"/>
<path fill-rule="evenodd" clip-rule="evenodd" d="M21.2505 20.9579C21.2549 20.9451 21.2755 20.9429 21.2787 20.9579C21.3291 21.1887 21.4236 21.4417 21.5194 21.658C21.6167 21.8772 21.7497 22.0786 21.9178 22.2495C22.2699 22.6077 22.7228 22.7712 23.2195 22.7715L23.2314 22.7718C23.2337 22.7551 23.2363 22.7384 23.2387 22.7217L23.2421 22.6966C23.2874 22.3535 23.6946 22.3635 23.7741 22.6224C23.8145 22.6353 23.8549 22.6481 23.895 22.6616L23.903 22.6644C23.9704 22.6901 24.1989 22.8039 24.2408 22.7737C24.3331 22.7072 24.4386 22.7834 24.4737 22.8682C24.531 23.0071 24.5405 23.1789 24.5591 23.3296L24.5616 23.3491L24.5644 23.3726C25.8712 23.7124 26.6045 25.0202 26.9788 26.2251C27.1816 26.8782 27.3144 27.5521 27.4477 28.2221C27.5904 28.9388 27.7219 29.6574 27.8611 30.3744C28.1356 31.7875 28.3954 33.2037 28.6211 34.6252L28.6865 35.0381C28.8933 36.3452 29.0946 37.6516 29.264 38.9647C29.3554 39.6726 29.4411 40.3812 29.5237 41.0904C29.5386 41.2168 29.5532 41.3434 29.5678 41.4699L29.5895 41.6599C29.6089 41.8303 29.6417 41.9987 29.5575 42.1581C29.3751 42.5037 28.8223 42.5012 28.791 42.0585C28.7848 41.9705 28.8145 41.9032 28.8637 41.8562L28.863 41.8488C28.8625 41.8444 28.862 41.8411 28.8618 41.8396C28.8455 41.7517 28.8411 41.6587 28.8311 41.5697C28.8092 41.38 28.7879 41.1903 28.7663 41.0002C28.7247 40.6382 28.6827 40.2763 28.6392 39.9146C28.5513 39.181 28.4583 38.4483 28.3598 37.7163L28.2621 36.9925C27.9353 34.5797 27.5947 32.1675 27.1466 29.7739C27.0245 29.1223 26.8991 28.4717 26.7704 27.8213C26.6483 27.2054 26.5112 26.5924 26.3065 25.9978C25.9723 25.0265 25.3879 24.1169 24.5766 23.4794C24.5892 23.6012 24.5982 23.7236 24.6098 23.8454C24.6396 24.1582 24.6712 24.4707 24.7031 24.7832C24.8192 25.9154 24.9766 27.0458 25.2452 28.1529C25.3782 28.7015 25.5403 29.2429 25.7378 29.7717C25.8352 30.0322 25.9413 30.2893 26.0577 30.5416C26.1729 30.7912 26.3748 31.058 26.387 31.336C26.3926 31.4647 26.258 31.579 26.1335 31.5652C26.1917 32.0775 26.2245 32.595 26.2593 33.106C26.31 33.8462 26.3503 34.5877 26.4095 35.3272C26.5153 36.652 26.648 37.9749 26.787 39.2966C26.8145 39.5586 26.8445 39.8204 26.8741 40.0822L26.8989 40.3019C26.9156 40.4444 26.9408 40.6152 26.8652 40.7416C26.9328 40.9047 26.9791 41.0722 27.0061 41.2469C27.0402 41.4642 26.916 41.7078 26.6624 41.6984C26.6336 41.6975 26.6048 41.695 26.576 41.6919C26.341 41.7463 26.1065 41.7942 25.8624 41.7958C25.5507 41.798 25.2383 41.7917 24.9266 41.7896C24.3235 41.7855 23.7203 41.7814 23.1172 41.7764C20.9338 41.7589 18.7494 41.7598 16.5663 41.7247L15.6928 41.7109C14.8921 41.698 14.0912 41.6831 13.2909 41.654C12.7397 41.6339 12.1886 41.6136 11.6377 41.5914L11.5255 41.5871C11.0395 41.5694 10.5528 41.5603 10.0721 41.4858C10.0601 41.4838 10.0548 41.4713 10.0567 41.4603L10.0574 41.4573L10.0364 41.4526C10.0242 41.5052 9.7707 41.2842 9.77257 41.1373C9.66741 41.0005 9.71655 40.782 9.72782 40.6235C9.73877 40.4692 9.75254 40.3145 9.76475 40.1601C9.79073 39.8304 9.81295 39.5004 9.83955 39.1707C9.94691 37.8412 10.0396 36.5083 10.0996 35.176C10.13 34.5044 10.1544 33.8324 10.1801 33.1608C10.1916 32.855 10.2077 32.549 10.2377 32.2446L10.2455 32.1685C10.2784 31.8598 10.2752 31.5279 10.3888 31.237C10.3904 31.233 10.3957 31.233 10.3973 31.237C10.5122 31.5201 10.5231 31.8492 10.5463 32.1598C10.5504 32.1586 10.5544 32.1579 10.5588 32.157C10.7175 32.0815 10.8777 32.0136 11.028 31.9203C11.0483 31.9078 11.068 31.8946 11.0881 31.8818C11.3244 31.1585 11.5982 30.4471 11.8502 29.7285C12.6643 27.4049 13.1137 24.9303 13.2133 22.4699C12.5923 22.8704 11.916 23.182 11.2586 23.5165L11.197 23.548C10.5494 23.8793 9.92938 24.2553 9.46835 24.8299C9.06647 25.3302 8.80387 25.9398 8.55818 26.5276C8.29433 27.1591 8.05645 27.8019 7.83893 28.4507C7.39761 29.767 7.05583 31.1156 6.78916 32.4779C6.52594 33.8224 6.33783 35.1769 6.21201 36.5409C6.14785 37.2366 6.08932 37.933 6.04018 38.6303C6.01514 38.9831 5.99292 39.3363 5.97226 39.6898C5.96225 39.8614 5.95473 40.0333 5.94347 40.2049C5.93658 40.3038 5.93533 40.4059 5.90278 40.4998C5.87555 40.5781 5.82735 40.6436 5.78228 40.7128C5.69996 40.8389 5.49214 40.8618 5.41483 40.7128L5.38135 40.6482C5.33704 40.5622 5.29658 40.4757 5.29057 40.3765C5.28494 40.2825 5.29652 40.1845 5.30184 40.0903C5.31217 39.8996 5.32406 39.7086 5.33595 39.5179C5.36099 39.1168 5.38885 38.7157 5.42015 38.315C5.48243 37.5121 5.56256 36.7115 5.66334 35.9124C6.01796 33.106 6.53001 30.3143 7.50716 27.651C7.74879 26.9925 8.01827 26.3393 8.3225 25.7072C8.6167 25.096 8.98885 24.5189 9.52907 24.0981C10.0263 23.7107 10.6044 23.4513 11.1787 23.1996L11.2505 23.1682C11.8943 22.8867 12.5369 22.5836 13.2092 22.3744C13.1942 22.3763 13.1795 22.3782 13.1667 22.3826C13.1519 22.3873 13.1432 22.3682 13.1523 22.3578C13.1904 22.3156 13.2064 22.2721 13.2502 22.2304C13.2805 22.2016 13.312 22.1744 13.3444 22.1482L13.391 22.111C13.4763 22.0433 13.566 21.9741 13.6734 21.9505C13.8252 21.9173 13.8997 22.0554 13.8571 22.1634C13.879 22.1349 13.9378 22.1434 13.9532 22.1825C14.4527 23.4713 14.7807 24.8355 15.453 26.0532C15.9494 26.9528 16.6155 27.7834 17.4993 28.3267C17.9741 28.6185 18.5175 28.8427 19.0787 28.8781C19.5826 28.9097 20.0674 28.7816 20.4959 28.5171C21.3266 28.0045 21.869 27.1046 22.2558 26.2326C22.6812 25.2726 22.9848 24.2497 23.1632 23.2126C22.5979 23.2205 22.0014 22.9625 21.6255 22.542C21.4277 22.3206 21.2802 22.051 21.2054 21.7636C21.13 21.4736 21.1541 21.2353 21.2505 20.9579ZM16.5084 20.2049C16.5773 20.0818 16.73 20.0411 16.8549 20.0912C16.9935 20.147 17.0352 20.2816 17.0155 20.4184C16.9926 20.5787 16.8896 20.7519 16.8095 20.8918C16.7256 21.0384 16.6177 21.1734 16.5059 21.2995C16.2956 21.5375 16.0705 21.752 15.8036 21.9273C15.5379 22.1017 15.2374 22.2323 14.9285 22.3052L14.855 22.3224C14.6147 22.3773 14.2729 22.4403 14.0727 22.3097C14.063 22.3034 14.0633 22.2905 14.0727 22.2843C14.181 22.2088 14.326 22.1953 14.4505 22.1597C14.5863 22.1205 14.7225 22.0761 14.8524 22.0203C15.1087 21.9101 15.3541 21.7648 15.5726 21.5913C15.792 21.4173 16.0042 21.2097 16.151 20.9701C16.2249 20.8499 16.2878 20.7237 16.3482 20.5966C16.4092 20.4691 16.4399 20.3276 16.5084 20.2049Z" fill="black"/>
<path fill-rule="evenodd" clip-rule="evenodd" d="M24.4026 14.2445C24.1882 11.6245 23.5355 9.30402 20.4683 9.20508C19.0841 9.21748 17.6711 9.51227 16.3983 10.0577C13.3045 11.6128 12.3228 17.2952 15.0486 19.5826C15.0324 19.5918 15.0285 19.6185 15.0476 19.6314C15.6107 20.0112 16.2367 20.3237 16.8636 20.5863C18.5335 21.2941 20.4993 21.6015 22.2023 20.8338C24.8013 19.7251 24.8403 16.6402 24.4026 14.2445Z" fill="#D08B5B"/>
<path fill-rule="evenodd" clip-rule="evenodd" d="M29.5187 13.0229C29.6255 12.9265 29.7051 12.8 29.7454 12.6582C29.7823 12.5288 29.7848 12.3876 29.7457 12.2586C29.7039 12.1202 29.6136 12.01 29.6339 11.866C29.6361 11.8519 29.6389 11.8372 29.6433 11.8225C29.7214 11.5513 29.9135 11.3556 29.8447 11.055C29.8254 10.9702 29.7888 10.8938 29.7379 10.8337C29.7436 10.7685 29.7485 10.7028 29.7526 10.637C29.8654 10.3724 29.8613 10.0581 29.7411 9.79757C29.7264 9.66418 29.7042 9.53205 29.673 9.40211C29.6873 9.28719 29.6673 9.1607 29.6305 9.06019C29.5657 8.88334 29.4857 8.70906 29.3989 8.53767C29.4091 8.49079 29.4045 8.44126 29.3787 8.39721C29.3318 8.31714 29.2698 8.24676 29.2064 8.17796C29.1616 8.09771 29.1165 8.01812 29.0717 7.93956C29.051 7.90346 29.0281 7.86341 29.0029 7.82099C29.0716 7.69305 29.1084 7.56837 29.0356 7.41792C29.0083 7.3614 28.9331 7.31973 28.8713 7.32342C28.8037 7.32746 28.7354 7.3305 28.6668 7.3331C28.5386 7.17786 28.3932 7.03849 28.2375 6.95827C28.0798 6.82426 27.9199 6.69275 27.7643 6.55843C27.7203 6.52023 27.6759 6.48203 27.6319 6.44383C27.6316 6.44289 27.6313 6.44164 27.631 6.4407C27.5985 6.32203 27.5619 6.20492 27.5254 6.08719C27.5026 6.01424 27.4957 5.93784 27.4248 5.89807C27.2768 5.8151 27.0491 5.80195 26.8792 5.78786C26.8623 5.77283 26.8455 5.75811 26.8286 5.74308C26.9057 5.53706 26.892 5.31819 26.7949 5.11185C26.7617 5.04171 26.6468 5.01009 26.5837 5.05643C26.4382 5.16351 26.2655 5.2014 26.0946 5.18575C25.8435 4.99224 24.8306 4.11722 24.6741 4.02485C24.6722 4.02153 24.6706 4.01822 24.6686 4.01493C24.5806 3.87409 24.4737 3.76099 24.3536 3.67032C24.3365 3.65238 24.3193 3.6344 24.3022 3.61643C24.3172 3.50906 24.3569 3.40539 24.4208 3.31866C24.4277 3.30864 24.4355 3.29894 24.4433 3.28954C24.5551 3.15616 24.4187 2.98457 24.2625 3.0544C24.2512 3.0594 24.24 3.06441 24.2288 3.06974C24.1087 3.1234 23.9759 3.18174 23.8375 3.23096C23.7869 3.21195 23.7353 3.19473 23.6882 3.17576L23.1843 2.97264C23.1013 2.9392 23.0136 2.91086 22.9334 2.87157C22.9054 2.68499 22.7189 2.56262 22.5252 2.56901C22.5363 2.53319 22.553 2.4984 22.5765 2.46543C22.5834 2.45573 22.5909 2.44633 22.5987 2.43725C22.6984 2.32109 22.5653 2.10567 22.4229 2.20899C22.4129 2.2162 22.4026 2.2234 22.3926 2.2306C22.353 2.25843 22.3125 2.28455 22.2716 2.30985C22.206 2.28117 22.1322 2.27462 22.0549 2.30496C21.8838 2.37213 21.7261 2.44041 21.5754 2.54568C21.5693 2.54997 21.563 2.55357 21.5568 2.55761C21.482 2.46706 21.3633 2.4065 21.2564 2.40716C21.2542 2.40716 21.2525 2.40713 21.2506 2.4071C21.1707 2.28502 21.0241 2.21407 20.8827 2.23132C20.8922 2.05613 20.7173 1.8998 20.558 1.88079C20.3719 1.85862 20.2042 1.96693 20.1484 2.14891C20.1328 2.19957 20.1173 2.25026 20.1017 2.30095C19.9573 2.22784 19.8048 2.17183 19.6455 2.14387C19.2828 2.08018 18.9281 2.148 18.5786 2.24895C18.5437 2.25903 18.5088 2.26939 18.4739 2.27973C18.4241 2.22183 18.3773 2.16256 18.3326 2.10723C18.2555 2.01173 18.0703 2.08813 18.0828 2.21087C18.0914 2.29557 18.0571 2.3565 18.0019 2.3998C17.9412 2.4087 17.8825 2.41139 17.7941 2.4096C17.6772 2.40722 17.624 2.40356 17.5017 2.35578C17.4448 2.33355 17.3738 2.27509 17.3406 2.22261C17.2134 2.02138 16.8901 1.96718 16.7361 2.15905C16.5741 2.08795 16.3695 2.18601 16.2795 2.32428C16.2325 2.39658 16.1343 2.437 16.0106 2.47176C15.9179 2.49781 15.823 2.51753 15.7276 2.53479C15.6852 2.47702 15.5957 2.43829 15.5301 2.48672C15.4856 2.51963 15.4425 2.55342 15.3999 2.58805C15.0717 2.63339 14.7451 2.63501 14.4321 2.5067C14.1672 2.39805 13.9238 2.69479 13.9676 2.9439C13.8908 2.98395 13.8076 3.01059 13.7318 3.05255C13.5664 3.14416 13.4306 3.28898 13.3478 3.45912C13.333 3.48959 13.3196 3.52052 13.3068 3.55162C13.245 3.60206 13.1839 3.65385 13.1242 3.70849C13.0249 3.65745 12.9259 3.60641 12.8266 3.55537C12.7522 3.51717 12.627 3.54379 12.6123 3.64273C12.5883 3.80555 12.5299 3.9405 12.4465 4.05353C12.1754 4.19631 11.9146 4.35663 11.665 4.53479C11.378 4.62496 11.0729 4.67757 10.8221 4.73674C10.7362 4.7571 10.6893 4.8695 10.7377 4.94434C10.7889 5.02355 10.8402 5.10277 10.8911 5.18199C10.7483 5.32164 10.6144 5.46755 10.4879 5.61847C10.1359 6.03803 9.84134 6.498 9.57773 6.9852C9.47342 7.02747 9.3691 7.06942 9.26478 7.11169C9.16421 7.1524 9.11892 7.2695 9.20044 7.35561C9.23917 7.39663 9.27384 7.43984 9.30351 7.48524C9.15578 7.7304 8.98181 7.95396 8.73851 8.1005C8.66448 8.14496 8.60889 8.21479 8.57922 8.294C8.55392 8.31091 8.52893 8.32907 8.50426 8.34755C8.43555 8.39952 8.39401 8.51287 8.47459 8.58019C8.53112 8.62778 8.58422 8.68414 8.62919 8.74645C8.63887 8.78183 8.64887 8.81753 8.65886 8.85291C8.43274 9.06144 8.24471 9.30379 8.10354 9.57557C8.07012 9.57025 8.03577 9.57369 8.00797 9.59436C7.75561 9.78128 7.74811 10.0791 7.84962 10.3452C7.7884 10.7463 7.82776 11.1574 7.94582 11.546C7.79059 11.7013 7.6972 11.9255 7.6591 12.1415C7.59195 12.521 7.58726 13.1046 7.56977 13.492C7.40049 13.6557 7.27993 13.8677 7.21278 14.0956C7.15625 14.1238 7.09972 14.152 7.04319 14.1802C6.9929 14.2052 6.95605 14.2713 6.95917 14.327C6.97354 14.5966 7.08441 14.8095 7.23152 15.0024C7.28368 15.1511 7.36082 15.2883 7.46202 15.4198C7.53198 15.51 7.60038 15.5964 7.66066 15.6938C7.66691 15.7035 7.67065 15.7126 7.67346 15.7188C7.64973 15.7445 7.63005 15.7871 7.61287 15.8174C7.46858 16.0723 7.46639 16.371 7.67128 16.593C7.59413 16.6563 7.59163 16.784 7.65972 16.8623C8.10292 17.3699 8.4724 17.987 9.08738 18.2566C9.09019 18.2613 9.09269 18.266 9.09487 18.2707C8.97025 18.5713 8.95339 18.7275 9.05521 19.0381C9.05583 19.0409 9.05677 19.0434 9.05771 19.0463C9.11205 19.2091 9.212 19.4699 9.39221 19.5206C9.44905 19.5366 9.50496 19.5438 9.56024 19.5435C9.70329 19.6816 9.84602 19.82 9.98876 19.9583C10.0013 20.0269 10.0091 20.0961 10.0116 20.1659C10.0156 20.2827 10.1252 20.3773 10.2433 20.3428C10.2848 20.3306 10.5147 20.1068 10.5569 20.108C10.5781 20.1293 10.5987 20.1506 10.6193 20.1722C10.6952 20.252 10.8005 20.3779 10.8092 20.4615C10.8261 20.619 10.9292 20.7994 11.0957 20.8313C11.1581 20.8949 11.2581 20.914 11.3346 20.831C11.3396 20.8257 11.3446 20.8203 11.3499 20.8156C11.358 20.8147 11.3658 20.8138 11.3739 20.8128C11.4108 20.923 11.4476 21.0333 11.4848 21.1432C11.5576 21.3598 11.8356 21.4992 12.0329 21.3727C12.0648 21.3918 12.096 21.4121 12.1273 21.4325C12.1747 21.4628 12.2228 21.4938 12.2722 21.523C12.275 21.5311 12.2778 21.5392 12.2803 21.5471C12.3122 21.6445 12.4446 21.6967 12.5261 21.6407C12.5514 21.6488 12.5773 21.6554 12.6036 21.6607C12.7413 21.688 12.88 21.6805 13.013 21.6344C13.1083 21.6019 13.1992 21.5396 13.3016 21.5311C13.308 21.5306 13.3146 21.531 13.3211 21.5308C13.4047 21.7025 13.5957 21.8504 13.7462 21.9006C13.9433 21.9665 14.1451 21.9429 14.3246 21.8623C14.3731 21.9594 14.4339 22.0513 14.5066 22.1364C14.5469 22.1833 14.6197 22.1733 14.6612 22.1364C14.7401 22.0662 14.8185 21.9958 14.8968 21.9253C14.9534 21.9034 15.0106 21.8771 15.0703 21.8527C15.2568 21.7763 15.4614 21.7446 15.6339 21.6342C15.7159 21.5818 15.7929 21.5149 15.8564 21.4374C15.9759 21.3682 16.0858 21.282 16.1847 21.1832C16.2341 21.1836 16.2856 21.172 16.3356 21.1466C16.5445 21.0401 16.6545 20.8235 16.6642 20.6018C16.8334 20.2026 16.9334 19.7767 16.9609 19.3409C16.9696 19.1978 16.9712 19.0535 16.9602 18.9104C16.9528 18.8095 16.9275 18.7422 16.8893 18.6511C16.8765 18.6214 16.865 18.5941 16.8559 18.5641C16.8581 18.4676 16.8594 18.3712 16.8606 18.2751C16.8865 18.194 16.9328 18.1185 16.9971 18.0549C17.0967 17.9566 17.1423 17.7525 17.0518 17.631C16.9927 17.5524 16.934 17.4738 16.875 17.3952C16.8915 17.058 16.9721 16.5213 16.7935 16.465C16.8006 16.4149 16.816 16.3654 16.8247 16.3156C16.8665 16.0764 16.8416 15.8625 16.7148 15.6534C16.6882 15.6099 16.6657 15.5713 16.6473 15.5338C16.6357 15.4649 16.6242 15.396 16.6126 15.3271C16.5948 15.221 16.5773 15.1139 16.5623 15.0062C16.5545 14.869 16.5473 14.7319 16.5395 14.5944C16.5324 14.4679 16.5242 14.3414 16.5158 14.2146C16.5192 14.158 16.5242 14.1013 16.5314 14.0446C16.5742 13.7068 16.7119 13.5818 16.9506 13.347C16.988 13.341 17.0252 13.3345 17.0618 13.327C17.232 13.2916 17.41 13.2368 17.5852 13.2565C17.7754 13.2778 17.9456 13.3601 18.1305 13.2549C18.1849 13.2236 18.3045 13.1372 18.3148 13.0686C18.3154 13.0643 18.3164 13.0605 18.3176 13.0577C18.3304 13.0558 18.347 13.0542 18.3573 13.0539C18.5041 13.0489 18.6443 13.1068 18.7924 13.0909C18.9676 13.0721 19.1244 12.9941 19.2274 12.8786C19.3596 12.9111 19.4945 12.9259 19.6316 12.9077C19.7465 12.8927 19.8496 12.8551 19.9514 12.7994C20.0254 12.7593 20.002 12.7477 20.0826 12.7803C20.2659 12.8548 20.4318 12.9531 20.6382 12.9021C20.7454 12.8758 20.8378 12.8178 20.9156 12.7399C20.934 12.7217 20.9652 12.6945 20.9862 12.6688C21.0842 12.7186 21.331 12.831 21.3716 12.841C21.4865 12.8692 21.6083 12.8648 21.7201 12.8272C21.8023 12.7997 21.9028 12.7245 21.975 12.7092C22.0684 12.6892 22.2758 12.8194 22.3873 12.8642C22.5828 12.9428 22.7899 12.9622 22.9879 12.8811C23.056 12.8532 23.1884 12.7421 23.2393 12.743C23.3221 12.8454 23.5532 13.4055 23.6225 13.61C23.9033 14.4366 23.9761 17.0176 23.8465 17.6761C23.8415 17.6955 23.8362 17.7146 23.8309 17.734C23.6716 18.3067 23.5057 18.8891 23.2393 19.4226C22.9879 19.9255 22.6403 20.3782 22.1415 20.6528C21.6243 20.9378 21.0171 21.0126 20.4355 20.9741C20.061 20.9497 19.6928 20.8742 19.3305 20.7796C19.1412 20.7305 18.9535 20.6757 18.7668 20.6187C18.6852 20.594 18.6025 20.5708 18.5225 20.542C18.3813 20.491 18.3073 20.4869 18.1721 20.5523C18.049 20.6118 18.0175 20.7875 18.0815 20.898C18.1858 21.0783 18.377 21.0909 18.5616 21.1435C18.7496 21.197 18.9382 21.2484 19.1281 21.2944C19.492 21.3821 19.8618 21.4494 20.2347 21.4804C20.9025 21.5364 21.5905 21.45 22.1983 21.1579C22.267 21.1247 22.3332 21.0893 22.3973 21.0511C22.3735 21.0843 22.3495 21.1175 22.3251 21.1504C22.2577 21.2415 22.3076 21.3965 22.4023 21.4463C22.4322 21.4619 22.4622 21.4769 22.4925 21.4917C22.4966 21.5014 22.501 21.5111 22.506 21.5208C22.5925 21.6949 22.7736 21.7976 22.9582 21.842C23.1775 21.8946 23.423 21.8574 23.646 21.8508C23.8527 21.8445 24.0595 21.8383 24.2659 21.832C24.3147 21.8308 24.3634 21.8292 24.4121 21.8276C24.6576 21.8201 24.9028 21.8129 25.1479 21.8054C25.3666 21.7988 25.3563 21.8157 25.5615 21.7281C25.653 21.6886 25.7279 21.6329 25.791 21.5587C25.8304 21.5411 25.8685 21.5211 25.905 21.4982C26.0225 21.425 26.1268 21.3266 26.223 21.2183C26.3863 21.27 26.6153 21.2221 26.6471 21.0164C26.6983 20.6873 27.125 20.5467 27.3243 20.3087C27.4851 20.1168 27.6 19.8654 27.5941 19.6239C27.9995 19.4273 28.22 18.9091 28.2715 18.4695C28.2956 18.2657 28.2918 18.0474 28.3265 17.8401C28.3418 17.8236 28.3556 17.806 28.3671 17.7872C28.4689 17.6222 28.5576 17.4522 28.6357 17.2781C28.7419 17.2014 28.8697 17.1541 29.0033 17.1463C29.3319 17.1272 29.3937 16.6829 29.0805 16.5758C29.0789 16.5752 29.0777 16.5749 29.0761 16.5742C29.1611 16.3613 29.1539 16.1093 29.0508 15.9076C29.0552 15.8857 29.0592 15.8641 29.0633 15.8422C29.2391 15.6528 29.34 15.3894 29.3288 15.133C29.409 15.0763 29.499 15.0325 29.5974 15.0052C29.7495 14.9633 29.7504 14.7773 29.638 14.694C29.5927 14.6605 29.5552 14.6214 29.524 14.5782C29.6018 14.3439 29.5711 14.0731 29.4122 13.8809C29.5131 13.7512 29.6139 13.6216 29.7148 13.492C29.7817 13.4062 29.8169 13.2606 29.7148 13.1792C29.6495 13.1269 29.5843 13.0749 29.5187 13.0229Z" fill="black"/>
<path fill-rule="evenodd" clip-rule="evenodd" d="M22.324 18.5351L22.3456 18.5301C22.5186 18.4893 22.6849 18.4338 22.846 18.541C22.9995 18.6431 23.0208 18.832 22.9012 18.9698C22.7783 19.1114 22.6151 19.1035 22.4428 19.1054L22.432 19.1056C22.2889 19.1075 22.1435 19.1054 22.001 19.0927C21.8681 19.0809 21.7344 19.062 21.6031 19.0372L21.5254 19.0219C21.4461 19.0059 21.3679 18.985 21.3271 18.9082C21.2558 18.7742 21.7857 18.6692 21.8501 18.6508C22.0063 18.6062 22.1655 18.571 22.324 18.5351ZM22.6179 16.9204C22.5334 17.008 22.4218 17.0679 22.2966 17.1052C21.9818 17.1988 21.5801 17.1489 21.3229 17.0535C21.2696 17.0337 21.2198 16.9934 21.1911 16.9429C21.1649 16.8968 21.1561 16.8426 21.176 16.7873C21.1817 16.7716 21.1886 16.7562 21.1955 16.741C21.2144 16.6997 21.2528 16.6676 21.298 16.6492C21.3448 16.6301 21.3982 16.6262 21.4409 16.6397C21.4467 16.6415 21.4526 16.6434 21.4586 16.6453C21.6215 16.6966 21.8887 16.7817 22.1101 16.7652C22.2429 16.7553 22.3598 16.7084 22.4202 16.5868C22.452 16.5227 22.4432 16.4592 22.415 16.4012C22.3724 16.3136 22.2871 16.2375 22.2152 16.185C22.1139 16.111 22.0059 16.0814 21.8941 16.0502C21.852 16.0385 21.8093 16.0266 21.7663 16.0123C21.7521 16.0076 21.7397 15.9984 21.7303 15.9864C21.7211 15.9746 21.7151 15.9602 21.7132 15.9457C21.7113 15.9307 21.7137 15.9158 21.7206 15.9029C21.7271 15.8909 21.7374 15.8804 21.7528 15.8735C21.9714 15.7755 22.2542 15.8403 22.4677 15.9945C22.5744 16.0715 22.6633 16.1705 22.7182 16.2811C22.7691 16.3838 22.7907 16.4964 22.7708 16.6112C22.7484 16.7398 22.694 16.8414 22.6179 16.9204ZM19.0342 14.7336C19.0957 14.7065 19.1462 14.8333 19.1588 14.8679L19.185 14.9396C19.2276 15.0552 19.2766 15.1728 19.3663 15.2586C19.4414 15.3305 19.5617 15.3914 19.6488 15.3073C19.7314 15.2276 19.6911 15.1377 19.7033 15.0399C19.7253 14.8629 19.9665 14.686 20.1115 14.8707C20.4392 15.288 19.9323 15.8682 19.4653 15.7664C19.2279 15.7146 19.0367 15.5242 18.9582 15.2977L18.9542 15.2857C18.9072 15.1422 18.8596 14.8107 19.0342 14.7336ZM23.2622 15.0242L23.2599 15.0189C23.1039 14.6638 23.6606 14.5112 23.7078 14.8301L23.7108 14.8516C23.7567 15.2055 23.6599 15.6815 23.2266 15.7168C22.7401 15.7564 22.5376 15.2135 22.581 14.815C22.5888 14.7437 22.6753 14.7338 22.702 14.7986L22.7077 14.8128C22.7863 15.013 22.8609 15.3981 23.1376 15.3977C23.3225 15.3974 23.3137 15.1478 23.2622 15.0242ZM23.6151 13.9963C23.8948 13.9863 23.8944 14.4241 23.6151 14.4307C22.6824 14.4527 21.7489 14.4818 20.8158 14.4868L20.6462 14.4879C19.7698 14.4938 18.8904 14.5057 18.0165 14.4321C17.9419 14.4259 17.9558 14.3211 18.0181 14.3253C18.9343 14.1949 19.8616 14.1568 20.7847 14.1072C21.7274 14.0566 22.6718 14.0298 23.6151 13.9963Z" fill="black"/>
<path fill-rule="evenodd" clip-rule="evenodd" d="M25.2924 15.1635C24.994 17.1827 22.911 17.406 22.5409 15.4014C22.6003 15.3754 22.643 15.3241 22.6341 15.2247C22.632 14.7879 22.7675 14.3261 23.1614 14.0832C23.5685 13.8325 24.0449 13.8077 24.516 13.814C25.415 13.7926 25.3961 14.5443 25.2924 15.1635ZM22.2147 14.2853C21.9326 14.2734 21.5757 14.2833 21.3229 14.4553C21.2535 14.2681 21.0729 14.0683 20.8905 13.9614C21.5685 13.9812 22.2664 13.9145 22.9495 13.8627C22.786 13.9742 22.6339 14.1417 22.535 14.3353C22.4433 14.2864 22.3119 14.291 22.2147 14.2853ZM20.9712 15.3775C20.1889 18.0714 18.2361 16.8973 18.0232 16.552C17.6392 15.9807 17.567 14.5919 17.9014 14.2206C18.3803 13.8848 19.0581 13.9713 19.6237 13.963C20.6629 13.9771 21.4009 14.288 20.9712 15.3775ZM26.2162 14.1385C26.0036 14.1107 25.7765 14.1051 25.5788 14.1987C25.518 13.94 25.327 13.7237 25.1113 13.6285C25.0852 13.5958 25.0891 13.5782 24.9999 13.5831C24.4524 13.4185 23.8396 13.5056 23.3134 13.6744C22.4824 13.7444 21.6105 13.7996 20.7725 13.8961C19.9874 13.5434 17.6183 13.4917 17.4711 14.361C17.2859 14.3333 16.9705 14.1875 16.8149 14.3853C15.6734 14.1917 14.4939 14.4607 13.3474 14.5805C13.0589 14.6337 12.9102 15.2066 13.2378 15.1988C13.4219 15.1488 13.2321 14.8421 13.4801 14.819C14.5862 14.6981 15.6682 14.5267 16.7856 14.5066C16.7468 14.6996 17.5247 14.7122 17.5362 14.5995C17.5379 14.6003 17.5396 14.6009 17.5413 14.6016C17.3491 15.3183 17.5226 16.3498 17.87 16.7942C18.3568 17.3762 19.5789 17.5431 20.1207 17.1687C20.8197 16.8231 21.5469 15.0884 21.3426 14.5121C21.7133 14.3946 22.0798 14.4298 22.4645 14.4897C22.3765 14.7386 22.2244 15.3513 22.4432 15.4044C22.403 16.6209 23.5096 17.3799 24.5298 16.8809C25.4128 16.4662 25.7216 15.1537 25.6135 14.3571C25.7235 14.5696 26.6464 14.3382 26.2162 14.1385Z" fill="black"/>
</svg>
