<svg width="36" height="48" viewBox="0 0 36 48" fill="none" xmlns="http://www.w3.org/2000/svg">
<path fill-rule="evenodd" clip-rule="evenodd" d="M26.8257 26.1625C26.5529 25.1042 26.302 24.6555 25.8174 24.2876C25.3641 23.9436 24.7024 23.6546 23.7369 23.4435C22.7313 23.2676 22.7028 22.7449 22.4506 21.9047C22.3771 21.6521 22.0126 21.5849 21.8553 21.7669C21.8331 21.743 21.81 21.7211 21.786 21.7012C21.8074 21.5808 21.6321 21.2355 21.6379 21.1203C21.6991 19.9175 21.3058 19.3136 20.324 19.089C20.1106 19.0402 18.6604 19.0114 18.4522 19.069C17.5422 19.3207 16.6463 20.1197 16.7834 21.0822C16.4978 21.4556 16.2182 21.6835 15.7775 21.8038C15.0911 21.891 15.4359 31.6162 16.6279 37.4427C17.1393 39.9426 29.3681 35.6877 28.8155 34.4356C28.8939 34.2061 28.7511 33.9539 28.8155 33.7169C28.8622 33.5454 28.9816 33.4745 29.0417 33.3046C29.1263 33.0656 29.0343 32.745 28.9391 32.5012C28.9001 32.3796 29.0109 32.2488 29.0417 32.1248C29.1879 31.5398 28.8532 31.5913 28.612 31.2003C28.6156 31.1991 28.6783 30.9199 28.678 30.9213C28.715 30.7219 28.6224 30.4666 28.5417 30.3002C28.4872 30.1878 28.3703 30.1174 28.2542 30.1303C28.3711 29.7332 28.519 29.4028 28.678 29.0203C28.9593 28.346 29.2268 27.6406 29.6306 27.0302C29.796 26.7803 29.6624 26.5504 29.3948 26.5334C28.5285 26.4784 27.6717 26.3536 26.8257 26.1625Z" fill="#D08B5B"/>
<path fill-rule="evenodd" clip-rule="evenodd" d="M25.4735 26.2441L23.4961 29.5916C23.4961 29.5916 23.9652 29.6384 24.1551 29.7296C24.3449 29.8209 25.2166 30.9293 25.2166 30.9293L25.3551 31.5397L25.0269 32.0318L25.1549 32.3407C25.1549 32.3407 25.2462 32.1314 25.4735 31.9689C25.7009 31.8064 26.2023 31.5397 26.2023 31.5397C26.2023 31.5397 26.0356 31.4505 26.0356 31.3458C26.0356 31.2411 25.8889 30.7946 26.2023 30.6259C26.5156 30.4572 28.135 30.0624 28.135 30.0624L29.7762 26.5997L25.4735 26.2441Z" fill="#EC7495"/>
<path fill-rule="evenodd" clip-rule="evenodd" d="M16.6521 21.8262L22.9311 22.9285L25.8174 24.2873L26.2886 24.6503L23.496 29.5913L19.1839 30.3783L18.0853 33.2326L18.3095 36.45L25.3244 35.6134L28.3503 35.2537L29.0616 38.1261L28.9331 39.3078L28.7462 39.907L21.2448 41.9328C21.2448 41.9328 17.425 41.5624 16.7479 41.5624C16.0708 41.5624 11.1062 42.0556 11.1062 42.0556L9.95753 41.9328C9.95753 41.9328 7.41611 39.2535 7.02193 38.2999C6.62776 37.3464 5.77539 31.5499 5.77539 31.5499L5.86924 30.6592L8.06498 25.0071C8.06498 25.0071 8.35819 24.7407 8.72785 24.2873C9.09751 23.8338 16.6521 21.8262 16.6521 21.8262Z" fill="#9DDADB"/>
<path fill-rule="evenodd" clip-rule="evenodd" d="M28.0171 29.9908C27.4496 30.0197 26.8816 30.1546 26.3683 30.3991C26.1582 30.4993 25.9679 30.644 25.9122 30.8819C25.8841 31.0035 25.8909 31.129 25.9059 31.2518C25.9172 31.3447 25.9201 31.4634 26.0008 31.5263C26.0146 31.537 26.0293 31.5451 26.0446 31.5511C25.8553 31.6365 25.675 31.7393 25.5147 31.8451C25.3683 31.9418 25.2177 32.0909 25.1501 32.259C25.1445 32.2399 25.1388 32.2221 25.1332 32.2052C25.018 31.8645 24.8406 31.5855 24.5611 31.398C24.5293 31.2823 24.1887 30.7843 23.8723 30.8031C23.5258 30.8234 23.2471 30.8488 22.9338 31.0081C22.8196 31.0056 22.7056 31.0072 22.593 31.0122C22.5736 31.0128 22.5745 31.0392 22.593 31.0413C22.6844 31.0529 22.7758 31.0657 22.8672 31.0808C23.0844 31.1156 23.301 31.1597 23.5128 31.2145C23.767 31.2803 24.0299 31.3463 24.2675 31.4612C24.7282 31.6845 25.0133 32.2681 24.9548 32.776C24.9451 32.8592 24.9129 33.111 24.7973 33.085C24.6997 33.0631 24.6609 32.8592 24.6268 32.7838C24.5354 32.5834 24.3708 32.4525 24.1733 32.3639C23.9413 32.2596 23.6931 32.1892 23.4527 32.1072C23.3166 32.0605 23.1805 32.0138 23.044 31.9675C22.9044 31.9196 22.7717 31.8535 22.623 31.887C22.5332 31.9074 22.5229 32.0145 22.5733 32.0759C22.6499 32.1695 22.7639 32.197 22.8744 32.2355C23.0202 32.2863 23.1658 32.337 23.3113 32.3877C23.5363 32.466 23.772 32.532 23.9914 32.6279L23.9845 32.6435C23.9667 32.6385 23.9457 32.6564 23.9492 32.6783C23.982 32.8809 24.0277 33.1151 23.977 33.318C23.937 33.4789 23.7958 33.6571 23.6124 33.6098C23.6412 33.5835 23.6518 33.5381 23.6324 33.4961C23.5598 33.3408 22.6083 32.7277 22.5235 32.9554C22.5207 32.9635 22.5294 32.9695 22.5363 32.9682C22.6086 32.9532 22.7298 33.0765 22.7876 33.1157C22.8712 33.1721 22.956 33.2272 23.0387 33.2851C23.1291 33.3484 23.2174 33.4147 23.3035 33.4833C23.3711 33.5372 23.4221 33.5932 23.4997 33.6205C23.459 33.6398 23.4268 33.6758 23.413 33.7219C23.378 33.8418 23.3104 33.9436 23.193 33.9965C23.07 34.0516 22.9313 34.0168 22.8017 34.0303C22.6252 34.0481 22.4712 34.1321 22.3426 34.252C22.0725 34.5043 21.937 34.949 21.5592 35.0683C21.3335 35.1394 21.0831 35.0946 20.8546 35.0623C20.5996 35.0263 20.351 34.9978 20.0941 35.0354C19.8481 35.0714 19.6155 35.1565 19.3908 35.2605C19.1802 35.3579 18.9473 35.4681 18.7604 35.6134C18.7219 35.4947 18.6831 35.3773 18.6537 35.2561C18.5842 34.9697 18.5467 34.6778 18.5376 34.3835C18.5291 34.1033 18.5448 33.8218 18.5689 33.5428C18.5808 33.4034 18.5996 33.2647 18.6114 33.1254C18.6145 33.0903 18.6208 33.0528 18.6255 33.0152C18.9592 32.8182 19.3097 32.6673 19.6631 32.512C19.664 32.5117 19.665 32.5111 19.6659 32.5108C19.6769 32.5057 19.6875 32.5011 19.6985 32.4964C19.6981 32.4957 19.6978 32.4951 19.6972 32.4945C19.7376 32.4698 19.7658 32.4369 19.7827 32.3999C20.2919 32.0621 20.7176 31.6009 21.0349 31.0629C21.1679 30.8375 21.296 30.6036 21.47 30.4061C21.6553 30.1953 21.8753 30.0701 22.1476 30.0049C22.4659 29.9286 22.7939 29.8828 23.1201 29.8568C23.2981 29.8428 23.4972 29.8208 23.6913 29.8218C23.8265 29.8227 23.9588 29.8343 24.0803 29.8678C24.2603 29.9173 24.3654 30.0541 24.4784 30.1925C24.5864 30.3253 24.6938 30.4583 24.7945 30.5967C24.89 30.7279 24.9802 30.8635 25.0584 31.0056C25.1053 31.0908 25.1489 31.1785 25.1855 31.269C25.1983 31.3009 25.2152 31.3372 25.223 31.3704C25.2309 31.4039 25.2165 31.4393 25.254 31.4393C25.0991 31.4415 24.9961 31.8279 25.1501 31.8189C25.3666 31.8063 25.4755 31.5466 25.433 31.3162C25.3574 30.9052 24.9486 30.4088 24.8678 30.3036C24.689 30.0713 24.5047 29.7682 24.2186 29.6602C24.2146 29.6586 24.2102 29.6571 24.2061 29.6558C24.2894 29.5769 24.3551 29.4824 24.418 29.3862C24.4828 29.2873 24.5601 29.1739 24.5814 29.0565C24.5949 28.9817 24.5019 28.9391 24.4578 29.0045C24.3936 29.1 24.3626 29.2209 24.3147 29.3258C24.2659 29.4322 24.2064 29.5328 24.1595 29.6401C24.0465 29.6054 23.9244 29.5895 23.8002 29.5841C23.957 29.3718 24.2249 28.9623 24.2571 28.9097C24.4055 28.6661 24.5467 28.415 24.6816 28.1635C24.8274 27.8911 24.9523 27.6074 25.0919 27.3319C25.1711 27.1757 25.2509 27.0182 25.3388 26.8666C25.3692 26.8146 25.4017 26.7627 25.4387 26.7154C25.4459 26.706 25.455 26.6982 25.4634 26.6894C25.4731 26.6841 25.4831 26.6781 25.4888 26.675C25.5394 26.6459 25.5573 26.5783 25.593 26.5353C25.6499 26.4662 25.7169 26.458 25.8027 26.4571C25.9854 26.4552 26.1689 26.4624 26.3514 26.4674C26.6196 26.4749 26.8875 26.4856 27.1554 26.4996C27.2365 26.504 27.3172 26.5084 27.3983 26.5134C27.788 26.5366 28.1773 26.567 28.5658 26.6043C28.9094 26.6371 29.2531 26.6907 29.597 26.7163C29.1313 27.8232 28.6149 28.91 28.0302 29.9589C28.0243 29.9695 28.0199 29.9802 28.0171 29.9908ZM25.433 32.8423C25.3579 32.8768 25.285 32.9197 25.2171 32.9686C25.2283 32.8925 25.2312 32.8123 25.228 32.7318C25.2841 32.7919 25.3557 32.8264 25.433 32.8423ZM28.6396 30.9383C28.6343 30.9389 28.6293 30.9418 28.6268 30.9471C28.5229 31.1616 28.5663 31.4011 28.736 31.5692C28.8249 31.6569 29.0186 31.7558 29.0124 31.8999C29.007 32.0164 28.8803 32.114 28.8262 32.2102C28.7758 32.2997 28.757 32.398 28.7974 32.4951C28.849 32.6194 28.9933 32.6689 29.0427 32.791C29.1053 32.946 29.0036 33.1329 28.9323 33.2679C28.8659 33.3928 28.7801 33.5177 28.7232 33.6499C28.3417 33.8475 27.4759 34.2063 27.3717 34.2263C27.2446 34.251 27.1172 34.2745 26.9895 34.2965C26.7444 34.339 26.4988 34.3785 26.2525 34.4132C26.1122 34.4329 25.9717 34.4524 25.8312 34.4677C25.7085 34.4809 25.5701 34.4987 25.4712 34.4064C25.2719 34.2197 25.3836 33.9069 25.5097 33.7184C25.5122 33.7147 25.5122 33.7112 25.5113 33.7081C25.6302 33.6802 25.7489 33.6477 25.8672 33.6248C26.0947 33.581 26.3238 33.5441 26.5532 33.5112C27.0246 33.4438 27.4991 33.3994 27.9729 33.3546C28.0903 33.3433 28.0915 33.1586 27.9729 33.1696C27.2922 33.2319 26.608 33.291 25.9363 33.4223C25.7679 33.4548 25.6008 33.4917 25.4346 33.5334C25.3561 33.5528 25.2719 33.5832 25.1895 33.5841C25.1845 33.5841 25.1795 33.5841 25.1745 33.5838C25.0133 33.5788 24.9899 33.4407 25.0784 33.3258C25.0894 33.3117 25.1007 33.2976 25.1122 33.2842C25.2687 33.0975 25.4637 32.9729 25.6646 32.8439C25.8897 32.8132 26.1141 32.745 26.3345 32.6949C26.8784 32.5709 27.4224 32.4469 27.9667 32.3232C28.0734 32.2988 28.028 32.1347 27.9213 32.1588C27.5082 32.2525 27.095 32.3461 26.6818 32.4397L26.0772 32.5769C25.9564 32.6041 25.8055 32.6589 25.6634 32.6786C25.5933 32.6883 25.5254 32.6895 25.464 32.6752C25.2659 32.6282 25.2559 32.3805 25.3413 32.2333C25.4371 32.068 25.618 31.9647 25.7786 31.8711C26.0568 31.7086 26.3529 31.5918 26.6421 31.4571C26.6935 31.4459 26.7448 31.4346 26.7961 31.4233C27.0947 31.3576 27.4359 31.3253 27.7169 31.2048C27.8011 31.1691 27.7551 31.0363 27.6719 31.0382C27.4537 31.0429 27.2255 31.1205 27.0124 31.1666C26.7817 31.2167 26.5507 31.2665 26.3201 31.3162C26.2969 31.3212 26.1598 31.3651 26.1391 31.3554C26.126 31.3491 26.1213 31.3034 26.1169 31.2733C26.1028 31.1744 26.0925 31.0705 26.1079 30.9712C26.1417 30.7486 26.3273 30.644 26.515 30.5585C26.9332 30.3684 27.3917 30.2495 27.8481 30.2019C27.9532 30.1909 28.0584 30.1841 28.1642 30.1806C28.2884 30.1768 28.3908 30.1549 28.4537 30.2773C28.5526 30.4702 28.6071 30.7182 28.6396 30.9383ZM28.0589 37.9315C27.9678 37.6163 27.9926 37.2797 27.9302 36.9581C27.898 36.7922 27.854 36.6277 27.806 36.4657C27.7672 36.3349 27.7026 36.1958 27.6953 36.0592C27.6948 36.0501 27.7056 36.0449 27.7129 36.0491C27.8415 36.1227 27.9402 36.2819 28.0135 36.4069C28.1013 36.5564 28.1683 36.7129 28.2223 36.8775C28.3301 37.2055 28.4185 37.601 28.2796 37.9315C28.2382 38.0299 28.093 38.0496 28.0589 37.9315ZM24.5031 40.3179C24.3673 40.2231 24.2684 40.0906 24.1532 39.9737C24.04 39.8587 24.217 39.6815 24.3303 39.7966C24.4285 39.8963 24.5138 40.0209 24.6294 40.1016C24.6851 40.1404 24.7109 40.2106 24.6744 40.273C24.6422 40.3281 24.5586 40.3566 24.5031 40.3179ZM23.7459 36.675C23.9938 36.5677 24.2375 36.451 24.4969 36.3738C24.6519 36.3276 24.7176 36.5694 24.5635 36.6153C24.3246 36.6864 24.1005 36.7925 23.8723 36.8912C23.7258 36.9546 23.5984 36.7387 23.7459 36.675ZM21.1284 36.5999C21.0678 36.4503 21.3101 36.3859 21.3698 36.5334C21.4386 36.7031 21.5174 36.8685 21.5862 37.0383C21.6467 37.1879 21.4044 37.2524 21.3447 37.1049C21.276 36.9351 21.1971 36.7697 21.1284 36.5999ZM18.5448 39.5876C18.5044 39.6415 18.4371 39.6706 18.3735 39.6326C18.3202 39.6006 18.2877 39.5157 18.3286 39.4612C18.4479 39.3021 18.5689 39.1449 18.7087 39.003C18.8221 38.888 18.9991 39.0652 18.8858 39.1801C18.7609 39.3068 18.6514 39.4455 18.5448 39.5876ZM18.1754 22.8239C18.2903 22.9024 18.391 22.9978 18.4892 23.096C18.6033 23.2101 18.4263 23.3872 18.3121 23.2731C18.2294 23.1904 18.1459 23.1064 18.049 23.0402C17.993 23.0019 17.9679 22.9308 18.0041 22.8688C18.0366 22.8133 18.1195 22.7858 18.1754 22.8239ZM21.9341 26.8548C21.8691 26.985 21.8106 27.1126 21.8069 27.2605C21.803 27.4217 21.5526 27.4218 21.5566 27.2605C21.5614 27.0669 21.6327 26.899 21.7179 26.7284C21.7899 26.5839 22.0058 26.711 21.9341 26.8548ZM23.3132 23.6174C23.4478 23.5277 23.573 23.7448 23.4396 23.8337C23.3314 23.9059 23.2232 23.978 23.1151 24.0502C22.9805 24.1399 22.8553 23.9229 22.9887 23.8339C23.0969 23.7617 23.205 23.6896 23.3132 23.6174ZM17.3315 29.2777C17.3085 29.4368 17.0673 29.3687 17.09 29.2111C17.1253 28.9674 17.1682 28.727 17.2343 28.4897C17.2776 28.3343 17.519 28.4007 17.4757 28.5563C17.4097 28.7936 17.3667 29.034 17.3315 29.2777ZM16.4536 32.147C16.2924 32.1436 16.2924 31.8931 16.4536 31.8965C16.5995 31.8996 16.7428 31.938 16.8835 31.9731C17.04 32.0123 16.9733 32.2538 16.817 32.2147C16.698 32.185 16.5769 32.1496 16.4536 32.147ZM16.1295 37.9271C16.0742 37.954 16.0174 37.9783 15.9614 38.0039C15.8493 38.0551 15.7373 38.1065 15.6253 38.1579C15.392 38.2651 15.1588 38.3726 14.9259 38.4804C14.4595 38.6964 13.9896 38.9047 13.5221 39.1183C13.0454 39.3362 12.5699 39.5569 12.095 39.7788C11.8713 39.8833 11.6459 39.9839 11.4209 40.0857C11.2286 40.1727 10.9908 40.3248 10.7796 40.3391C10.7688 40.3398 10.7651 40.3261 10.7713 40.319C10.8511 40.2283 10.9784 40.1755 11.0832 40.1165C11.1903 40.0562 11.2994 39.9995 11.408 39.942C11.6345 39.8219 11.8612 39.7029 12.0898 39.5871C12.547 39.3556 13.0052 39.1258 13.4634 38.8963C13.9308 38.6621 14.3976 38.4265 14.869 38.2007C15.091 38.0944 15.3132 37.9884 15.5355 37.8827C15.6559 37.8255 15.7764 37.7683 15.8969 37.7113C15.949 37.6866 16.0005 37.66 16.0537 37.638C16.1244 37.6087 16.1781 37.6147 16.2511 37.5967C16.37 37.5673 16.4215 37.7186 16.3302 37.7845C16.255 37.8387 16.2155 37.8851 16.1295 37.9271ZM14.458 40.4955C14.4323 40.4331 14.4861 40.3571 14.5454 40.3415C14.6165 40.3227 14.6735 40.3659 14.6994 40.4289C14.7681 40.596 14.8658 40.7493 14.9917 40.8787C15.1042 40.9944 14.9272 41.1715 14.8146 41.0558C14.6569 40.8936 14.5436 40.7039 14.458 40.4955ZM13.2282 36.4748C13.114 36.3607 13.2911 36.1836 13.4053 36.2977L13.7298 36.6223C13.8439 36.7365 13.6668 36.9136 13.5527 36.7995L13.2282 36.4748ZM9.89893 35.9456C9.66563 36.014 9.39351 36.077 9.23445 36.2761C9.22669 36.2858 9.21364 36.2733 9.2183 36.2636C9.42193 35.8413 10.0059 35.6932 10.4102 35.5452C10.6962 35.4405 10.9896 35.3537 11.2855 35.2762C11.256 34.9385 11.3375 34.5766 11.3659 34.2406C11.3961 33.8818 11.4208 33.5221 11.4334 33.1622C11.4463 32.7951 11.4495 32.4255 11.4374 32.0583C11.4254 31.6924 11.3779 31.331 11.3571 30.9664C11.3551 30.9311 11.4042 30.9294 11.4148 30.9586C11.5376 31.2969 11.5901 31.6718 11.6301 32.0286C11.6713 32.3961 11.685 32.7626 11.6797 33.1323C11.6743 33.5124 11.6522 33.8916 11.6219 34.2705C11.6075 34.4501 11.5908 34.6295 11.5751 34.809C11.5631 34.9459 11.5575 35.0818 11.5296 35.2144C11.708 35.1706 11.8869 35.1291 12.0652 35.0888C12.6338 34.9605 13.2048 34.8414 13.7709 34.7026C14.0489 34.6345 14.3228 34.5529 14.5995 34.4804C14.8601 34.4122 15.135 34.3295 15.4025 34.299C15.498 34.2881 15.5101 34.4188 15.4469 34.4631C15.2295 34.6158 14.9408 34.7221 14.6897 34.8076C14.4377 34.8934 14.1757 34.9551 13.9174 35.0186C13.3787 35.1512 12.8349 35.2595 12.2919 35.3724C11.7497 35.4852 11.2065 35.5971 10.6704 35.7362C10.4122 35.8032 10.1549 35.8704 9.89893 35.9456ZM8.62046 29.2443C8.48106 29.3262 8.3552 29.1096 8.49411 29.028C8.67586 28.9213 8.86957 28.8411 9.06485 28.7629C9.2147 28.7029 9.27918 28.9452 9.13142 29.0044C8.95592 29.0747 8.78378 29.1484 8.62046 29.2443ZM8.11567 38.5504C7.97589 38.6315 7.84995 38.415 7.98932 38.3342C8.18506 38.2207 8.39943 38.1449 8.60228 38.0456C8.7466 37.9749 8.87336 38.191 8.72863 38.2619C8.52582 38.3612 8.31142 38.4369 8.11567 38.5504ZM7.88863 33.2678C8.02378 33.3963 8.20416 33.4567 8.37423 33.5242C8.52253 33.583 8.45749 33.8251 8.30766 33.7657C8.09577 33.6817 7.87993 33.6049 7.71157 33.4449C7.59445 33.3336 7.77182 33.1568 7.88863 33.2678ZM9.38381 26.0937C9.53239 26.152 9.46732 26.3941 9.31724 26.3352C9.15079 26.2699 8.9789 26.2202 8.81245 26.1549C8.66391 26.0966 8.72895 25.8544 8.87902 25.9133C9.04547 25.9786 9.21736 26.0283 9.38381 26.0937ZM12.0215 23.2441C12.1793 23.2175 12.2466 23.4589 12.088 23.4857C11.8914 23.5189 11.6977 23.5577 11.5111 23.6299C11.3605 23.6882 11.2959 23.446 11.4446 23.3884C11.6311 23.3162 11.8248 23.2773 12.0215 23.2441ZM12.893 30.1821C12.7482 30.1109 12.8752 29.895 13.0193 29.9658C13.1712 30.0405 13.3285 30.0983 13.4942 30.1336C13.652 30.1672 13.5848 30.4086 13.4277 30.3751C13.2412 30.3354 13.0637 30.2661 12.893 30.1821ZM13.7161 26.274C13.872 26.2313 13.9379 26.473 13.7827 26.5156C13.5096 26.5904 13.2284 26.6293 12.9534 26.6959C12.7966 26.7339 12.7303 26.4923 12.8868 26.4544C13.1619 26.3878 13.4431 26.3489 13.7161 26.274ZM17.208 25.0476C17.3665 25.077 17.299 25.3183 17.1415 25.2892C16.9738 25.2582 16.8039 25.2577 16.6339 25.2576C16.4725 25.2575 16.4728 25.007 16.6339 25.0071C16.827 25.0072 17.0176 25.0124 17.208 25.0476ZM28.5964 26.3563C28.1873 26.3171 27.7776 26.2858 27.3673 26.2623C27.3482 26.2614 27.3294 26.2601 27.3103 26.2592C27.3082 26.2548 27.3053 26.2507 27.3025 26.2463C27.1686 26.0497 27.07 25.8531 26.9845 25.6308C26.9028 25.4191 26.8237 25.2009 26.6978 25.0099C26.5543 24.7923 26.3606 24.622 26.1483 24.4744C26.0195 24.5611 25.8999 24.6625 25.7906 24.77C25.6755 24.8832 25.4984 24.7061 25.6135 24.5929C25.7107 24.4974 25.8144 24.4091 25.9241 24.3293C25.7975 24.2524 25.6683 24.18 25.5423 24.1081C25.0699 23.8385 24.5864 23.5893 24.0928 23.3614C23.8634 23.2552 23.6312 23.1609 23.3974 23.0654C23.2715 23.0141 23.1473 22.948 23.0215 22.8886C23.0305 22.7996 23.0039 22.7 22.9357 22.6415C22.8853 22.5986 22.8462 22.5826 22.7861 22.5523C22.7726 22.5475 22.7645 22.5447 22.7607 22.5432C22.7636 22.5438 22.7717 22.5463 22.7851 22.5507C22.8171 22.5654 22.8196 22.561 22.7927 22.5378C22.7911 22.4871 22.6912 22.3801 22.6684 22.3278C22.5889 22.1483 22.5642 21.9586 22.4468 21.7951C22.285 21.57 22.0133 21.4849 21.7601 21.5612C21.7338 21.2904 21.7269 21.0077 21.6249 20.7659C21.6221 20.7594 21.613 20.7565 21.6089 20.7638C21.5025 20.9451 21.4935 21.147 21.4853 21.3562C21.4775 21.5525 21.485 21.7532 21.5107 21.9483C21.4944 21.9608 21.4778 21.9727 21.4606 21.9843C21.3798 22.0375 21.2928 22.0785 21.2014 22.1089C21.0274 22.1665 20.8449 22.1915 20.6625 22.2003C20.1914 22.2229 19.706 22.1753 19.2427 22.0945C18.7742 22.0128 18.0559 21.89 17.639 21.6555C17.3638 21.5008 17.11 21.312 16.8527 21.1292C16.946 20.8286 16.9698 20.5054 16.8759 20.2515C16.8647 20.2211 16.8171 20.2155 16.808 20.2515C16.7492 20.4938 16.7319 20.7374 16.6537 20.977C16.6525 20.9804 16.6512 20.9842 16.6499 20.9876C16.6255 20.9711 16.6011 20.9547 16.5767 20.9385C16.5204 20.9012 16.4437 20.9291 16.4099 20.9823C15.8693 21.8343 15.0133 21.8831 14.1144 22.0353C13.1307 22.2019 12.142 22.3816 11.1961 22.7075C10.2916 23.0194 9.4271 23.4734 8.74228 24.1516C8.58726 24.3052 8.44228 24.4688 8.30544 24.6396C8.43783 24.6563 8.56913 24.6823 8.69874 24.723C8.8522 24.7712 8.78625 25.013 8.63217 24.9645C8.4656 24.9122 8.29718 24.8863 8.12704 24.8734C7.66172 25.5102 7.2989 26.2323 6.98516 26.943C6.38337 28.3057 5.99167 29.7569 5.81142 31.2344C5.91039 31.1751 6.01114 31.1185 6.11439 31.066C6.25787 30.993 6.38441 31.2092 6.24078 31.2823C6.08128 31.3634 5.92635 31.4529 5.77624 31.5499C5.71067 32.1966 5.68525 32.8475 5.70065 33.4974C5.73727 35.0466 5.94635 36.6413 6.41927 38.1195C6.6512 38.845 6.95855 39.5646 7.41646 40.1776C7.62366 40.4553 7.85902 40.7058 8.13633 40.9147C8.2706 41.0161 8.4127 41.1066 8.56262 41.183C8.75574 41.282 9.00738 41.3145 9.17389 41.4545C9.22866 41.5005 9.27092 41.5612 9.30284 41.6298C9.28438 41.7601 9.28218 41.8906 9.31787 42.0209C9.32913 42.0616 9.35981 42.0948 9.39768 42.1108C9.3983 42.122 9.3983 42.133 9.3983 42.1436C9.3983 42.1486 9.40582 42.1499 9.40675 42.1449C9.40832 42.1352 9.40988 42.1255 9.41145 42.1155C9.42366 42.1195 9.43649 42.1214 9.44963 42.1214C9.92506 42.1232 10.4011 42.1116 10.8771 42.0955C10.8403 41.9827 10.8005 41.8708 10.7622 41.758C10.7102 41.6048 10.9521 41.5396 11.0036 41.6914C11.0484 41.8233 11.0952 41.954 11.1369 42.0864C11.647 42.0674 12.1569 42.0446 12.6659 42.0278C13.7485 41.9918 14.8309 41.9799 15.9138 41.9571C17.5955 41.9214 19.2894 41.8484 20.9738 41.9198C21.032 41.7961 21.0972 41.6753 21.159 41.5533C21.232 41.4093 21.4479 41.5362 21.3752 41.6797C21.3323 41.7645 21.2878 41.8482 21.2455 41.9328C21.5866 41.9505 21.9274 41.9739 22.2674 42.0059C22.8477 42.0603 23.4224 42.1571 24.0021 42.2172C24.5914 42.2786 25.1679 42.2677 25.7526 42.1703C25.8578 42.1527 25.9197 42.0892 25.9454 42.0103C25.9463 42.0099 25.947 42.0093 25.9476 42.0084C25.9776 41.9733 26.0058 41.9442 26.0349 41.9188C26.0697 41.8963 26.1072 41.8772 26.1514 41.8603C26.2337 41.829 26.3194 41.8099 26.4064 41.797C26.5022 41.7826 26.5992 41.7814 26.695 41.7695C26.7757 41.7592 26.8546 41.7438 26.9335 41.725C27.0753 41.6912 27.2099 41.6471 27.3438 41.5885C27.4606 41.5375 27.566 41.4642 27.6656 41.3843C27.8715 41.2337 28.0499 41.0415 28.2058 40.8417C28.2966 40.7249 28.382 40.6038 28.4597 40.4776C28.5949 40.259 28.71 40.032 28.8265 39.8031C28.8687 39.7353 28.9073 39.6659 28.9425 39.5949C28.715 39.5279 28.4853 39.4732 28.244 39.4693C28.0828 39.4667 28.0828 39.2162 28.244 39.2188C28.5207 39.2232 28.7824 39.2879 29.0424 39.3649C29.055 39.3313 29.0672 39.2974 29.0784 39.263C29.1094 39.1913 29.1351 39.1177 29.1564 39.0432C29.1689 39.0094 29.1814 38.9756 29.1939 38.9418C29.2221 38.8247 29.2503 38.7072 29.2787 38.5898C29.3354 38.402 29.3801 38.2113 29.413 38.0181C29.4406 37.891 29.4618 37.7629 29.4762 37.6333C29.5201 37.3192 29.5557 37.0058 29.5582 36.6883C29.5545 36.4926 29.542 36.2972 29.5207 36.1028C29.5116 35.9706 29.4963 35.8391 29.4756 35.7086C29.4487 35.5144 29.4221 35.3222 29.3773 35.1306C29.3438 35.001 29.3104 34.8713 29.2769 34.7417C29.1933 34.4715 29.0947 34.2066 28.9811 33.9476C28.9748 33.9314 28.9432 33.8956 28.9241 33.8953C28.9097 33.895 28.8897 33.9082 28.8962 33.9257C28.8969 33.9273 28.8975 33.9292 28.8981 33.9307C28.8916 33.916 28.8853 33.901 28.8787 33.8863C28.8731 33.8725 28.8512 33.845 28.8343 33.8453C28.8334 33.8453 28.8324 33.8453 28.8312 33.8456C28.8356 33.8425 28.8396 33.8384 28.8437 33.8337C28.9561 33.7006 29.029 33.5256 29.1094 33.3715C29.1761 33.2444 29.239 33.1104 29.2571 32.9666C29.2731 32.8405 29.2515 32.7162 29.1723 32.6141C29.0822 32.4979 28.9125 32.4434 29.0068 32.2756C29.1138 32.0846 29.2712 31.919 29.1144 31.702C29.0346 31.5915 28.9082 31.5307 28.8143 31.4346C28.7063 31.3234 28.6549 31.1747 28.6578 31.0229C28.6643 31.0266 28.6731 31.0248 28.6762 31.0153C28.767 30.7411 28.7013 30.4399 28.6083 30.1728C28.5576 30.0278 28.4502 29.988 28.3254 29.9808C28.8662 28.9241 29.3723 27.8504 29.8233 26.752C29.8384 26.716 29.8531 26.68 29.8678 26.644C29.8897 26.5901 29.8434 26.5185 29.7899 26.5065C29.3999 26.4211 28.9936 26.3938 28.5964 26.3563Z" fill="black"/>
<path fill-rule="evenodd" clip-rule="evenodd" d="M16.454 7.49316L16.7238 7.81478C16.5744 7.9203 16.4334 8.02634 16.3008 8.13288L16.3006 8.13256C16.915 7.7307 17.5954 7.49316 18.3305 7.49316C19.7462 7.49316 22.6219 8.71232 23.272 9.59171C23.5946 10.0281 24.1941 11.3678 24.505 12.8244C24.7549 13.9947 25.1265 17.3009 24.7549 18.5433C24.2793 20.1333 22.7145 21.6028 21.101 21.6028C19.4875 21.6028 16.9825 20.435 15.1996 17.8759C15.1181 17.7589 14.182 17.6233 13.5141 17.184L13.6895 19.1206L13.8227 20.2471L13.7933 20.3272C13.315 21.6241 12.936 22.3006 12.6562 22.3569C12.3708 22.4143 11.7894 21.9452 10.9122 20.9496L10.8001 20.4779C10.5154 19.2748 10.373 18.629 10.373 18.5405L10.3732 18.5244C10.3774 18.3207 10.4474 17.1682 10.4489 16.8581L10.4489 12.2095C11.3923 9.06527 12.2926 7.49316 13.1497 7.49316H16.454Z" fill="#D08B5B"/>
<path fill-rule="evenodd" clip-rule="evenodd" d="M14.2185 6.42242C14.4959 6.31471 14.8172 6.33506 15.0805 6.49726C15.5975 6.47502 16.1116 6.77812 16.3811 7.22054C16.3867 7.22681 16.3927 7.23307 16.398 7.23933L16.4551 7.30607C16.5092 7.3698 16.5662 7.44005 16.6114 7.51258C16.39 7.51765 16.2056 7.60811 16.0769 7.79081C15.985 7.92118 16.1954 8.04505 16.2893 7.92176L16.2926 7.91725C16.3699 7.80756 16.4866 7.76508 16.6165 7.76285C16.6538 7.76223 16.6821 7.74792 16.7021 7.72681C16.71 7.7559 16.7172 7.7853 16.7237 7.81483C17.3778 7.5598 18.0829 7.49226 18.7852 7.55275C18.7544 7.60273 18.7286 7.65627 18.7088 7.71254C18.6864 7.77632 18.7343 7.84955 18.7961 7.86659C18.8629 7.885 18.9233 7.84573 18.9475 7.78504L18.9497 7.7791C18.9767 7.70245 19.0208 7.63667 19.08 7.58566C19.4106 7.63059 19.7388 7.70205 20.059 7.79416C20.4439 7.90497 20.8252 8.04021 21.198 8.19504C21.1349 8.21987 21.0803 8.26183 21.0421 8.33187C20.9659 8.47168 21.1755 8.59691 21.2551 8.46325L21.2579 8.4583C21.2657 8.44397 21.2726 8.43535 21.2777 8.43045L21.2795 8.42878L21.2905 8.42371L21.311 8.41782L21.3188 8.41588C21.3258 8.41432 21.3286 8.41442 21.3469 8.4134C21.3712 8.41203 21.3955 8.41215 21.4199 8.41212C21.4771 8.41209 21.5136 8.38012 21.5301 8.33923C21.7141 8.42248 21.8958 8.51016 22.0742 8.60199L22.1166 8.62401C22.6674 8.9125 23.1892 9.29135 23.4919 9.8488C23.5119 9.88606 23.5181 9.92677 23.5131 9.96559C23.5777 10.0432 23.6402 10.1234 23.7002 10.2048C23.8832 10.454 24.0172 10.7374 24.144 11.0183C24.3992 11.5831 24.5709 12.1633 24.7049 12.7683C24.8346 13.3513 24.9392 13.9405 25.0363 14.5298C25.1441 15.1845 25.2337 15.8449 25.2525 16.509C25.2856 17.6929 25.0547 18.8836 24.3917 19.8803C23.8002 20.7695 22.9094 21.4756 21.8531 21.7016C20.7787 21.9315 19.6418 21.7073 18.7951 20.9896C18.6586 20.8741 18.6773 20.6408 18.7951 20.5225C18.9284 20.3891 19.1252 20.4075 19.261 20.5225C20.0584 21.1985 21.219 21.3027 22.1798 20.9583C23.0681 20.6396 23.7639 19.9044 24.1908 19.0787C24.7118 18.0717 24.7996 16.9151 24.7196 15.8011C24.6759 15.1892 24.585 14.5824 24.4913 13.9766L24.4347 13.6118C24.373 13.2168 24.3082 12.8223 24.2237 12.4313L24.2039 12.3403C24.1005 11.8687 23.9795 11.3851 23.7923 10.9419C23.6942 10.7092 23.5762 10.485 23.4553 10.2637C23.4319 10.2208 23.4078 10.1773 23.3832 10.1334C23.3501 10.145 23.3123 10.1469 23.2726 10.1344C22.9312 10.0279 22.5805 9.95651 22.2235 9.93272C22.0609 9.92182 21.898 9.92013 21.7353 9.92648C21.4568 9.91023 21.1705 9.93478 20.9052 10.0204C20.8793 9.99806 20.853 9.97621 20.8267 9.95435C20.8196 9.95379 20.8125 9.95304 20.8054 9.95163C20.7377 9.93829 20.6901 9.89007 20.6614 9.82917C20.6599 9.82594 20.6586 9.82272 20.6573 9.81949C20.6233 9.79347 20.5891 9.76786 20.5546 9.74259C20.4704 9.76448 20.3966 9.69425 20.3767 9.61729C20.358 9.60461 20.3389 9.59233 20.32 9.5799C20.3052 9.58353 20.2904 9.58654 20.2761 9.5876C20.2141 9.59208 20.1542 9.58256 20.0992 9.55291C20.0297 9.51537 19.9852 9.45481 19.9555 9.38602C19.8503 9.3925 19.7439 9.35828 19.6498 9.29641C19.5735 9.24622 19.515 9.17693 19.4569 9.10776C18.7486 8.79105 17.9787 8.60406 17.2069 8.55615C17.1309 8.57081 17.0554 8.58825 16.9808 8.60854C16.9632 8.61336 16.9381 8.62281 16.9093 8.63415C17.0814 8.61329 17.2556 8.61123 17.4324 8.63675C18.2711 8.75833 18.9244 9.38787 19.4866 9.98212C19.6203 9.95504 19.7555 10.1287 19.6317 10.2436L18.6667 11.1401C18.6904 11.2404 18.5757 11.3392 18.4752 11.3151C18.3068 11.2745 18.138 11.2351 17.9691 11.1963C17.793 11.2817 17.5715 11.2671 17.4117 11.1432C17.4043 11.1375 17.3881 11.1283 17.3741 11.1191C17.361 11.13 17.3433 11.1409 17.3363 11.1455C17.2795 11.1832 17.2103 11.1943 17.1439 11.1837C17.0757 11.1729 17.014 11.1381 16.9609 11.0949C16.9271 11.0673 16.8483 10.9524 16.8044 10.944L16.8001 10.9435C16.8294 10.9443 16.7353 11.032 16.7101 11.0501C16.6511 11.0923 16.5859 11.1144 16.5126 11.1064C16.3847 11.0922 16.2748 10.9754 16.2122 10.8676L16.2075 10.8593L16.2055 10.8541L16.2039 10.8597C16.2036 10.8607 16.2032 10.8617 16.2028 10.8629C16.1934 10.8883 16.164 10.9172 16.144 10.9349C16.087 10.9854 16.0165 11.0076 15.9412 10.9944C15.8774 10.9833 15.8238 10.9447 15.7807 10.898L15.774 10.8905C15.7612 10.8761 15.6772 10.763 15.6905 10.7358L15.692 10.7336L15.6878 10.7327C15.6368 10.7453 15.5939 10.7327 15.5624 10.7063C15.3871 10.6677 15.214 10.6229 15.0465 10.5658C15.0334 10.6028 15.0206 10.6397 15.0081 10.677C15.0996 10.7337 15.1842 10.8144 15.262 10.8721C15.4094 10.981 15.5568 11.09 15.7039 11.1993L16.2868 11.6303L16.3535 11.6123C16.4386 11.5894 16.5117 11.6391 16.543 11.7151L16.5455 11.7217C16.5579 11.755 16.5729 11.7857 16.5904 11.8152C16.7361 11.8094 16.8595 11.8991 16.8994 12.0277C16.9354 12.0269 16.9717 12.0282 17.0089 12.0323C17.1107 12.0436 17.1793 12.1193 17.1608 12.2234L17.1594 12.2305L17.157 12.2421C17.216 12.2672 17.2588 12.3157 17.2683 12.389C17.2841 12.4129 17.2968 12.4388 17.305 12.4677C17.3475 12.6175 17.2647 12.8026 17.2206 12.9461L17.2172 12.9574C17.1889 13.0517 17.1596 13.1455 17.1299 13.2394L17.0561 13.4723C16.8513 14.1214 16.6517 14.8058 16.8174 15.4864C16.8527 15.6304 16.669 15.6955 16.5894 15.5828C16.3963 15.3099 16.1877 15.0527 15.9687 14.8059L15.958 14.8042C15.8047 14.7733 15.7451 14.6647 15.6747 14.554C15.6332 14.5662 15.5886 14.5691 15.5455 14.5608C15.4831 14.5487 15.4272 14.513 15.3831 14.4679C15.3457 14.4296 15.3114 14.3315 15.2672 14.3071C15.212 14.2767 15.1008 14.3202 15.0348 14.3104C14.9811 14.3025 14.931 14.284 14.8824 14.2608C14.793 14.383 14.7337 14.5266 14.7192 14.6814C14.7135 14.7402 14.696 14.79 14.6708 14.8313C14.7638 14.8279 14.8572 14.8345 14.9494 14.8517C15.2904 14.9153 15.535 15.1263 15.6724 15.4407C15.6783 15.4544 15.6605 15.4657 15.6524 15.4526C15.4485 15.1379 15.0046 15.1219 14.6823 15.2328C14.34 15.3505 14.1479 15.6526 14.0795 15.9974C14.0046 16.3753 14.1008 16.7827 14.306 17.1045C14.4012 17.2542 14.5312 17.3907 14.7039 17.4458C14.9091 17.5113 15.0986 17.3942 15.3088 17.4546C15.4519 17.4956 15.515 17.6343 15.4891 17.773C15.4787 17.8275 15.4597 17.8751 15.4341 17.9164C15.5097 18.0667 15.5796 18.2214 15.6686 18.3636C15.8061 18.583 15.9723 18.7647 16.1534 18.9478C16.3405 19.1369 16.531 19.3223 16.7312 19.4976C16.923 19.6658 17.1429 19.7854 17.344 19.9394C17.4852 20.0475 17.5551 20.199 17.4855 20.3725C17.428 20.5159 17.2343 20.638 17.0776 20.5732C16.7774 20.4492 16.5147 20.2382 16.2755 20.0209C16.0538 19.8192 15.8607 19.5781 15.7149 19.3164C15.5773 19.0696 15.4759 18.7893 15.3903 18.5194L15.3797 18.4857C15.3394 18.3573 15.297 18.2129 15.2695 18.0674C15.1049 18.1575 14.8816 18.1707 14.7055 18.1463C14.4209 18.1071 14.1613 17.9634 13.9652 17.7539C13.8738 17.6565 13.793 17.5453 13.7232 17.4248C13.7295 17.4981 13.7333 17.5691 13.7374 17.6337C13.9005 17.8127 13.9659 18.0711 13.908 18.3069C14.0444 18.4476 14.0826 18.6589 14.0114 18.8389C14.1607 18.9873 14.1551 19.2236 14.0906 19.4382C14.2671 19.636 14.2838 19.9441 14.146 20.1673L14.1418 20.1833C14.281 20.4168 14.2496 20.7185 14.0752 20.9247C14.1943 21.1562 14.1759 21.4677 13.8783 21.5576C13.7698 21.5903 13.6647 21.5624 13.586 21.5014C13.6578 21.8596 13.69 22.2232 13.5942 22.583C13.556 22.7258 13.4168 22.8301 13.2703 22.8301C13.1478 22.8301 13.0588 22.7684 12.9973 22.6776C13.0045 22.8583 12.9936 23.0399 12.9552 23.223C12.932 23.3337 12.8296 23.4199 12.721 23.4466C12.7602 23.4909 12.7758 23.555 12.7382 23.6218C12.5789 23.9045 12.194 23.7872 12.1679 23.5164C12.0592 23.435 12.0087 23.3015 11.9878 23.1571C11.9573 22.9467 11.9462 22.7397 11.9117 22.5319L11.8985 22.5443L11.8916 22.5502L11.8895 22.5652C11.8697 22.6679 11.8119 22.7398 11.7369 22.7827C11.7532 22.9619 11.723 23.1443 11.6096 23.2804C11.5341 23.3711 11.4055 23.4068 11.2952 23.3871C11.2883 23.3874 11.2812 23.3874 11.2738 23.3864C11.024 23.3531 10.8795 23.1157 10.9453 22.8977C10.8447 22.7741 10.8023 22.6173 10.8321 22.4624C10.6375 22.3332 10.6415 22.0495 10.7089 21.8216C10.5048 21.6602 10.4281 21.3584 10.5306 21.1186C10.3467 20.8897 10.3212 20.5707 10.4461 20.31C10.2438 20.1434 10.245 19.8217 10.4456 19.6514C10.3388 19.4387 10.2743 19.1839 10.3811 18.9893C10.3058 18.906 10.2644 18.7872 10.2731 18.6724C10.2859 18.5038 10.3972 18.3874 10.5352 18.3097L10.5448 18.257C10.5772 18.261 10.6117 18.252 10.6422 18.2227C10.6723 18.1936 10.7033 18.1702 10.7354 18.151C10.7717 18.1505 10.803 18.1343 10.825 18.1093C10.8851 18.0888 10.9498 18.0798 11.0216 18.079C11.1765 18.0773 11.182 17.845 11.0378 17.8299C11.015 17.8069 10.9836 17.7924 10.9496 17.7924L10.923 17.7925C10.8607 17.7931 10.7979 17.797 10.7401 17.8218C10.7026 17.8379 10.6736 17.8621 10.6524 17.8918C10.6484 17.9367 10.6241 17.9815 10.5713 18.0185C10.5104 18.0612 10.427 18.0662 10.3618 18.0275C10.2705 17.9734 10.2696 17.889 10.2801 17.7972C10.3032 17.5963 10.188 17.4073 10.2154 17.2019C10.2276 17.111 10.2577 17.0326 10.3069 16.9693C10.2032 16.8136 10.1849 16.6127 10.2648 16.4418C10.0984 16.2624 10.0696 15.9858 10.1757 15.7698C10.1772 15.7646 10.1784 15.7593 10.1801 15.7541C10.1921 15.7174 10.2086 15.6843 10.2268 15.6526C10.1337 15.4909 10.1344 15.2924 10.229 15.1313C10.0856 14.9638 10.0811 14.6971 10.2086 14.5165C10.2094 14.5016 10.2109 14.4866 10.2122 14.4716C10.1537 14.3193 10.1677 14.1461 10.242 14.0045C10.2155 13.9433 10.195 13.8774 10.182 13.8072C10.1485 13.6262 10.1658 13.4502 10.2157 13.2736C10.2238 13.2457 10.2329 13.2179 10.2426 13.19C10.2442 13.0691 10.2488 12.9486 10.2548 12.8284C10.2311 12.7267 10.2273 12.6149 10.2267 12.511L10.2266 12.4437C10.2254 12.2724 10.2135 12.0216 10.3215 11.876C10.2522 11.7187 10.2807 11.5205 10.3965 11.3958C10.3152 11.2557 10.2981 11.0836 10.3798 10.9282C10.3929 10.9031 10.4082 10.8798 10.4248 10.8578C10.4181 10.7154 10.448 10.5686 10.5237 10.4271C10.5728 10.335 10.6462 10.2553 10.7335 10.1914C10.7321 10.1726 10.7312 10.1537 10.7315 10.1351C10.733 10.0523 10.7513 9.9691 10.7822 9.89148C10.7268 9.79673 10.7011 9.68993 10.7335 9.57483C10.7698 9.44457 10.8651 9.33248 10.984 9.26923C10.9936 9.14643 11.0128 9.02435 11.0401 8.90389C10.967 8.74067 11.0252 8.52525 11.1905 8.42909C11.1689 8.29865 11.1883 8.16338 11.283 8.0615C11.3189 8.02289 11.3612 7.99362 11.4067 7.9742C11.3848 7.84304 11.4095 7.70659 11.5 7.59978C11.5739 7.51258 11.6834 7.4596 11.7949 7.45181C11.8378 7.22367 12.0552 7.05309 12.2846 7.06668C12.3132 6.96623 12.3817 6.87866 12.488 6.83426C12.5152 6.82289 12.5427 6.81541 12.5701 6.81124C12.7566 6.62263 13.0343 6.49478 13.2747 6.42931C13.5158 6.3639 13.7603 6.35757 13.9673 6.43362L13.9824 6.43933L13.9992 6.43714C14.0724 6.429 14.1454 6.4243 14.2185 6.42242ZM12.3861 21.8819C12.3217 21.8617 12.2498 21.9057 12.2324 21.9693C12.2139 22.0366 12.255 22.1032 12.3196 22.1234C12.4002 22.1486 12.4848 22.1549 12.5687 22.1549C12.6362 22.155 12.6937 22.0973 12.6937 22.0297C12.6937 21.9617 12.6365 21.9045 12.5687 21.9044C12.5005 21.9044 12.4501 21.9019 12.3861 21.8819ZM11.8132 20.5518C11.7169 20.5519 11.6343 20.5749 11.5629 20.6426C11.5153 20.6877 11.5141 20.7748 11.5629 20.8197C11.6122 20.865 11.6837 20.8677 11.7342 20.8245L11.744 20.8158C11.7452 20.8147 11.7461 20.8139 11.7468 20.8132C11.7509 20.8105 11.7549 20.8078 11.7593 20.8056L11.7511 20.8109C11.7449 20.8154 11.7593 20.8081 11.7674 20.8046L11.7699 20.8036L11.7707 20.8034L11.7772 20.8029C11.7891 20.8023 11.8012 20.8023 11.8132 20.8023C11.8785 20.8022 11.9411 20.7447 11.9381 20.677C11.935 20.6092 11.8832 20.5517 11.8132 20.5518ZM13.6302 19.7572C13.7655 19.6741 13.6447 19.4614 13.509 19.538L13.5041 19.5409C13.4346 19.5837 13.3491 19.5779 13.2703 19.5779C13.1096 19.578 13.1093 19.8285 13.2703 19.8284L13.2969 19.8283C13.4124 19.8274 13.5292 19.8193 13.6302 19.7572ZM12.566 18.8429C12.4638 18.8236 12.3493 18.8064 12.2418 18.8182L12.224 18.8204H12.1909C12.1622 18.8204 12.1344 18.832 12.112 18.8502C12.0767 18.8649 12.0432 18.8847 12.0126 18.9112C11.8909 19.017 12.0683 19.1935 12.1893 19.0883C12.1961 19.0825 12.2039 19.0777 12.2125 19.0737L12.2192 19.0709H12.3528C12.365 19.0709 12.3768 19.0684 12.3883 19.0647C12.4317 19.0707 12.4721 19.0793 12.4995 19.0845C12.6567 19.1141 12.724 18.8727 12.566 18.8429ZM12.4519 16.4389C12.256 16.3478 12.0392 16.3485 11.858 16.4749C11.7285 16.5653 11.8488 16.7785 11.9795 16.6943L11.9841 16.6912C12.0004 16.6799 12.0171 16.6704 12.0339 16.6618C12.1259 16.6884 12.2184 16.6897 12.3073 16.6569L12.3189 16.6524L12.3258 16.6551C12.4707 16.7225 12.5978 16.5067 12.4519 16.4389ZM14.5844 16.0464C14.3865 16.0242 14.3849 15.7109 14.5844 15.7333C15.0054 15.7806 15.3875 15.9683 15.6673 16.2905C15.7974 16.4404 15.5831 16.6597 15.4505 16.5165L15.4464 16.5119C15.2239 16.2557 14.9236 16.0845 14.5844 16.0464ZM12.3681 14.4379C12.3241 14.433 12.2802 14.4306 12.2371 14.4327C12.1333 14.4377 12.0069 14.5071 12.0525 14.6325C12.089 14.7329 12.2087 14.7369 12.2678 14.6833C12.2923 14.6839 12.3169 14.6856 12.3413 14.6881C12.4066 14.6948 12.4712 14.7073 12.5355 14.72C12.6926 14.7509 12.7598 14.5096 12.6019 14.4784L12.5321 14.4646C12.5086 14.4599 12.4848 14.4554 12.461 14.4513C12.4467 14.4442 12.4314 14.4394 12.4151 14.4382L12.4068 14.4379H12.3681ZM11.1268 12.4945L11.1121 12.4925C10.9011 12.4655 10.5624 12.4904 10.5368 12.7596C10.5227 12.9087 10.7376 12.9181 10.78 12.7906C10.9358 12.7624 11.0928 12.757 11.2476 12.7741C11.3066 12.714 11.3071 12.5985 11.2088 12.5696C11.1949 12.5322 11.166 12.5002 11.1268 12.4945ZM15.9493 12.0398C15.9005 11.9949 15.8206 11.989 15.7726 12.0398C15.7449 12.069 15.7219 12.1015 15.7036 12.1373L15.6914 12.1614C15.6894 12.1655 15.6873 12.1694 15.6851 12.1734C15.681 12.1807 15.6764 12.1876 15.6719 12.1947L15.6689 12.1977C15.6677 12.1989 15.6663 12.2003 15.6646 12.2021C15.6197 12.2497 15.614 12.3326 15.6646 12.3792C15.7134 12.4241 15.7933 12.4301 15.8413 12.3792C15.8689 12.35 15.892 12.3175 15.9103 12.2817L15.9225 12.2576C15.9245 12.2536 15.9266 12.2496 15.9288 12.2457C15.9329 12.2384 15.9375 12.2314 15.942 12.2243L15.9469 12.2194C15.9476 12.2186 15.9484 12.2178 15.9493 12.2169C15.9942 12.1693 15.9999 12.0864 15.9493 12.0398ZM13.3874 11.7136C13.2113 11.5886 13.002 11.5828 12.8402 11.7332C12.7234 11.8418 12.895 12.0158 13.0127 11.914L13.0169 11.9103C13.0212 11.9063 13.0255 11.9028 13.0298 11.8995C13.0509 11.9175 13.0777 11.9289 13.1084 11.929C13.1164 11.929 13.1244 11.929 13.1324 11.9291L13.1444 11.9296L13.1509 11.9301L13.1517 11.9302L13.1573 11.9326C13.1676 11.9373 13.1818 11.9445 13.1623 11.9322C13.1666 11.9345 13.1707 11.9372 13.1748 11.9399L13.182 11.9464C13.2291 11.991 13.3106 11.9969 13.3573 11.9476C13.4401 11.9195 13.4841 11.7823 13.3874 11.7136ZM15.1084 11.3033L15.1116 11.3023C15.2659 11.2581 15.2003 11.0164 15.0451 11.0607C14.8805 11.1079 14.8019 11.2614 14.769 11.4187C14.7551 11.4849 14.7883 11.5541 14.8562 11.5728C14.9183 11.5899 14.996 11.5518 15.0099 11.4853C15.0197 11.4386 15.031 11.3989 15.0488 11.3621L15.0596 11.3411C15.0646 11.3315 15.0664 11.3299 15.0834 11.315C15.0863 11.3125 15.0993 11.3064 15.1084 11.3033ZM12.494 10.0417L12.4699 10.0362C12.3195 10.0032 12.1199 9.98595 12.0291 10.1354C11.9463 10.2715 12.1551 10.3955 12.2411 10.2668C12.2424 10.2667 12.2439 10.2667 12.2457 10.2669L12.2485 10.2672L12.2871 10.2641C12.3351 10.2637 12.381 10.2723 12.4276 10.2833C12.5839 10.3204 12.6507 10.0789 12.494 10.0417ZM17.8922 9.0788C18.006 8.96467 17.8294 8.78748 17.7155 8.9017C17.6255 8.99197 17.5386 9.08287 17.4801 9.19756C17.4494 9.25774 17.4644 9.33345 17.5249 9.36893C17.5807 9.40165 17.665 9.38443 17.6958 9.324C17.7466 9.22458 17.8106 9.16065 17.8922 9.0788ZM16.4556 8.77921C16.3432 8.84597 16.2704 8.95593 16.2262 9.08321C16.204 9.14709 16.2514 9.2202 16.3134 9.23726C16.3801 9.25561 16.441 9.21649 16.4649 9.15573L16.4671 9.14978C16.4789 9.11575 16.4979 9.07554 16.5213 9.0452C16.5413 9.01931 16.5723 8.99338 16.5958 8.98477C16.6521 8.96404 16.692 8.91288 16.6868 8.85314C16.5942 8.88523 16.5082 8.84663 16.4556 8.77921ZM13.0888 8.2344C12.9754 8.12882 12.8231 8.11482 12.6856 8.17873C12.6243 8.20716 12.609 8.29567 12.6408 8.35009C12.6775 8.41306 12.7502 8.42358 12.8117 8.39502C12.7959 8.40235 12.8244 8.39268 12.8367 8.38914C12.8383 8.38987 12.8589 8.38893 12.866 8.38903L12.8746 8.38957C12.8746 8.38963 12.8725 8.38959 12.8683 8.38945C12.8743 8.39081 12.8802 8.39243 12.886 8.3943L12.8935 8.39688C12.8897 8.3961 12.9066 8.40713 12.9113 8.41079L12.9122 8.41149C13.0299 8.52105 13.207 8.34433 13.0888 8.2344Z" fill="black"/>
<path fill-rule="evenodd" clip-rule="evenodd" d="M22.177 17.8896C22.2844 17.7 22.6048 17.7308 22.6538 17.9519C22.7532 18.4001 22.219 18.814 21.8132 18.8243C21.41 18.8346 20.9575 18.4912 21.0159 18.0576C21.0303 17.9503 21.1736 17.9633 21.2224 18.0306L21.2414 18.0564C21.374 18.2346 21.549 18.4191 21.7951 18.3756C21.8971 18.3577 21.9897 18.2939 22.0514 18.2118C22.1257 18.1128 22.1176 17.9945 22.177 17.8896ZM19.613 14.6107C19.6677 14.5956 19.7228 14.6014 19.7713 14.622C19.8794 14.6419 19.9697 14.732 20.0014 14.835C20.0039 14.8439 20.0067 14.8527 20.0098 14.8614L20.0146 14.8744L20.0017 14.8414C20.0076 14.8739 20.0341 14.9081 20.0436 14.9407C20.0553 14.9808 20.0581 15.0264 20.0542 15.0705C20.0886 15.0709 20.1229 15.072 20.1572 15.075L20.1904 15.078C20.3758 15.0952 20.5793 15.1268 20.6892 15.2871C20.7509 15.3771 20.693 15.5392 20.5796 15.5566C20.405 15.5833 20.2547 15.4867 20.0807 15.4673C19.9163 15.449 19.7442 15.4595 19.5819 15.4892C19.2468 15.5505 18.9388 15.6864 18.6122 15.7716L18.5678 15.7829L18.5678 15.7827C18.5119 15.7962 18.4484 15.7184 18.5037 15.6729C18.7653 15.4579 19.1003 15.2836 19.4303 15.1775C19.3822 15.101 19.3673 15.0002 19.4002 14.9181C19.4053 14.9011 19.4116 14.8845 19.4183 14.868L19.4322 14.8341C19.4335 14.8181 19.4366 14.8023 19.441 14.7868L19.4417 14.7821L19.4422 14.7824C19.4667 14.7025 19.5309 14.6333 19.613 14.6107ZM22.9509 14.623C23.0225 14.5514 23.123 14.562 23.1977 14.6184L23.2076 14.6261C23.278 14.6574 23.3362 14.7258 23.3745 14.7891C23.4142 14.8549 23.4406 14.9219 23.4416 14.9943C23.6148 14.9949 23.7807 15.0469 23.9079 15.1868C23.949 15.2319 23.977 15.3015 23.9544 15.3628L23.941 15.3992C23.8983 15.5148 23.7063 15.5813 23.641 15.4454L23.638 15.4388C23.5687 15.2773 23.3026 15.2943 23.1611 15.3108C23.0625 15.3223 22.9652 15.3468 22.8699 15.3743C22.8364 15.384 22.8032 15.3945 22.7699 15.4052L22.7367 15.416C22.719 15.4217 22.6268 15.4718 22.6842 15.4599C22.6996 15.4568 22.7112 15.4792 22.6955 15.4868C22.627 15.5195 22.554 15.4543 22.5586 15.3808C22.5665 15.2532 22.7691 15.1832 22.8666 15.1392L22.8724 15.1366C22.9098 15.1193 22.9489 15.1027 22.9894 15.0873C22.9666 15.0535 22.9478 15.016 22.9322 14.9756C22.9175 14.9376 22.9076 14.9005 22.9022 14.8601C22.8969 14.8403 22.8969 14.8205 22.9022 14.8007L22.903 14.795C22.9002 14.7819 22.8989 14.7684 22.8991 14.7548L22.8986 14.7495H22.8991C22.901 14.7018 22.92 14.654 22.9509 14.623ZM21.8076 15.9821C22.0825 16.0671 22.536 16.2985 22.3928 16.6558C22.1928 16.984 21.6623 16.7428 21.4052 16.6368C21.1743 16.5603 21.054 16.8841 21.2773 16.9817C23.1227 17.712 23.1159 15.7845 21.8745 15.8128C21.7379 15.8159 21.7336 15.9538 21.8076 15.9821ZM19.3662 13.4688L19.413 13.4551C19.6567 13.3845 19.9054 13.2626 20.1218 13.4529C20.2067 13.5276 20.2242 13.6828 20.1634 13.776C20.025 13.9883 19.8196 13.9559 19.596 13.974C19.4257 13.9877 19.258 14.0378 19.0991 14.1003C18.9692 14.1514 18.8487 14.2234 18.735 14.3037C18.6232 14.3826 18.5469 14.506 18.4323 14.5771C18.3903 14.6031 18.3417 14.5763 18.3267 14.5341C18.2732 14.3843 18.3635 14.1976 18.44 14.07C18.5333 13.9142 18.675 13.7869 18.8274 13.6905C18.9943 13.5849 19.1788 13.524 19.3662 13.4688ZM22.9166 13.3076C23.3285 13.3075 23.7248 13.5367 23.9552 13.8726C24.0334 13.9867 23.9761 14.1558 23.8637 14.2215C23.7377 14.2953 23.6029 14.2422 23.5198 14.1365L23.5149 14.1301C23.3828 13.9541 23.2125 13.8155 23.0106 13.7252C22.9121 13.6812 22.8032 13.6454 22.6966 13.6273L22.6622 13.6214C22.6139 13.6133 22.558 13.6056 22.5143 13.6132C22.4909 13.6162 22.4695 13.624 22.4497 13.6357C22.4592 13.6565 22.4346 13.6816 22.4119 13.6691C22.3096 13.6129 22.3221 13.5125 22.4067 13.4346C22.5263 13.3243 22.7622 13.3076 22.9166 13.3076Z" fill="black"/>
<path fill-rule="evenodd" clip-rule="evenodd" d="M22.0005 17.1999C21.6524 17.043 21.0274 17.1799 20.8005 17.2343C20.2729 17.3609 19.7422 17.6344 19.5782 18.0629C19.3934 18.5458 19.7622 18.6978 19.8164 18.673C20.1816 18.6987 20.6165 18.469 20.9992 18.4098C21.3099 18.3612 21.6376 18.3189 21.9287 18.1537C22.1412 18.2707 22.6212 18.3339 23.0086 18.4361C23.3385 18.5232 23.4815 18.712 23.7873 18.6718C24.1539 18.6237 24.0038 17.8524 23.5953 17.54C23.1481 17.198 22.3919 17.0594 22.0005 17.1999ZM22.6897 20.4977C22.3852 20.572 22.3647 19.9043 22.3306 19.6684C22.304 19.4841 22.1536 19.0088 21.7726 19.0293C21.3915 19.0498 21.2482 19.448 21.2675 19.6957C21.2801 19.8563 21.428 20.6698 20.9558 20.7727C20.6547 20.7717 20.3065 20.7513 19.9899 20.6929C19.6173 20.6085 19.1328 20.313 19.0049 20.895C18.9588 21.1045 20.6 21.7269 21.3283 21.7832C22.0669 21.9329 22.9311 21.7027 23.457 21.1374C23.5766 21.0088 23.9135 20.4751 23.9376 20.3443C23.988 20.0695 23.8712 19.8927 23.5314 19.9896C23.2913 20.1178 22.8855 20.4499 22.6897 20.4977Z" fill="black"/>
<path fill-rule="evenodd" clip-rule="evenodd" d="M24.7675 16.17C24.3875 16.5628 23.7531 16.6756 23.2476 16.4649C21.9494 15.9223 22.5848 14.2299 23.586 13.7755C23.711 13.7443 23.8781 13.6703 24.0304 13.6535C24.0442 13.6467 24.0742 13.6663 24.1105 13.6478C25.2144 13.7711 25.4658 15.4855 24.7675 16.17ZM20.5804 16.2706C20.1542 16.8361 19.3618 17.0106 18.7144 16.7477C17.4355 16.2438 17.8891 14.7431 18.7641 14.1548C20.6126 13.4599 21.3758 15.2279 20.5804 16.2706ZM17.8079 15.0176C17.8067 15.017 17.8055 15.0167 17.8043 15.0162C17.8111 15.0132 17.8178 15.0102 17.8246 15.0072C17.8224 15.0129 17.82 15.0186 17.8179 15.0243C17.8146 15.022 17.8117 15.0194 17.8079 15.0176ZM25.6474 14.4063C25.543 14.4065 25.3923 14.4237 25.3059 14.4961C25.0929 13.7774 24.3066 13.1123 23.6228 13.5973C23.0843 13.7705 22.6847 14.1547 22.4576 14.6655C22.0481 14.4219 21.4042 14.5259 21.0491 14.8482C20.8166 14.0794 20.2442 13.8103 19.563 13.7705C18.8195 13.6487 18.0784 14.3711 17.8471 14.9506C17.6549 14.9287 17.3676 14.8675 17.1867 14.9862C16.0128 14.6782 13.9604 14.5084 13.7217 14.6795C13.5516 14.7448 13.4583 15.1464 13.6958 15.1681C13.9029 15.1387 13.6717 14.8738 13.8804 14.8449C14.9922 14.776 16.0715 15 17.1716 15.0939C17.2698 15.2261 17.5871 15.2703 17.7564 15.2172C17.4898 16.2003 18.0654 16.8691 18.9278 17.0694C20.2633 17.3763 21.4251 16.1812 21.0759 14.9381C21.4804 14.7368 21.9458 14.7455 22.3865 14.8515C21.6501 17.5627 26.0149 17.4411 25.3332 14.589C25.7869 14.8147 25.8854 14.4518 25.6474 14.4063Z" fill="black"/>
</svg>
