<svg width="39" height="48" viewBox="0 0 39 48" fill="none" xmlns="http://www.w3.org/2000/svg">
<path fill-rule="evenodd" clip-rule="evenodd" d="M36.4238 28.8804C36.7444 28.713 37.0574 28.5311 37.3655 28.3418C37.5825 28.2119 37.3904 27.8849 37.1679 28.0031C37.0541 28.0635 36.9408 28.1246 36.827 28.1846C36.9165 28.1075 36.9995 28.0235 37.0739 27.932L37.0688 27.9269C37.3556 27.6698 36.9872 27.1847 36.661 27.3959C36.3733 27.6045 36.083 27.8174 35.7528 27.9547C35.0689 28.2449 34.3145 28.2929 33.5804 28.3012C33.3118 28.2811 33.0552 28.3276 32.7945 28.3795C32.8967 27.9694 33.1524 27.6597 33.2881 27.2625C33.3882 26.8614 32.8095 26.5883 32.6045 26.9737C32.5541 27.0684 32.5061 27.1642 32.4592 27.2604C32.016 27.6637 31.2758 27.6282 30.8288 28.0612C30.5741 28.2873 30.4495 28.5941 30.4003 28.902C30.3669 29.1111 30.4188 29.3207 30.2925 29.5059C29.6815 30.3703 28.7162 31.7366 28.226 32.688C27.8789 30.4274 26.9521 27.6313 25.9946 25.5642C25.678 24.9032 25.3158 24.2572 24.8403 23.6969C24.8942 23.51 24.704 23.1783 24.583 23.2804C24.2106 22.8253 23.5524 22.7075 23.0231 22.4813C22.3087 22.1757 21.7159 21.5404 21.4245 20.8184C21.0501 19.4435 20.1285 19.2688 18.8503 19.3296C17.627 19.328 16.7219 19.8515 16.455 21.0972C15.9127 22.0427 14.6324 21.8864 13.7113 22.1367C13.0363 22.2909 12.3811 22.5295 11.7585 22.8323C11.0659 22.175 8.58534 24.9334 8.35986 25.6432C8.4926 25.669 8.62452 25.7 8.75526 25.7377C8.87169 25.7714 8.8228 25.9473 8.70537 25.9192C8.55923 25.8841 8.41216 25.8599 8.2644 25.8431C8.25989 25.8572 8.25595 25.8713 8.25301 25.8852C8.23642 25.8841 8.21986 25.8826 8.20327 25.8815C8.24005 25.9007 8.27545 25.9229 8.30994 25.9516C8.39332 26.0208 8.28477 26.1545 8.19617 26.0993C8.11269 26.0368 8.00337 26.0467 7.90324 26.0257C7.89729 26.2317 7.16261 26.0013 7.0485 25.933C6.5413 25.8695 6.01952 25.9376 5.54603 25.6929C4.91601 25.5602 4.28127 25.4134 3.65833 25.2444C3.49341 25.3087 3.33842 25.5389 3.46941 25.7077C3.54308 25.7846 3.44837 25.9101 3.3556 25.8555C3.04446 25.6722 2.80384 25.3863 2.59983 25.0782C2.5038 24.9812 2.33335 25.0021 2.20434 24.9619C2.18709 24.9929 2.17692 25.0274 2.17708 25.0629C1.62981 25.153 2.02021 25.7509 2.29532 25.9372C2.14938 26.0323 2.14384 26.2185 2.15661 26.3739C2.12568 26.4293 2.11535 26.4979 2.14227 26.56C2.24518 26.7972 2.46775 26.997 2.63698 27.1892C2.82384 27.4015 2.99044 27.6149 3.2178 27.787C4.0844 28.4479 5.13019 28.8173 6.20305 28.9618C6.58399 29.0204 7.13194 29.1099 7.36781 29.4322C7.30994 29.8146 7.20368 30.1814 7.10728 30.5543C6.97247 31.0493 6.98164 31.5676 6.97986 32.0722C6.96102 32.0571 6.92484 32.0602 6.91945 32.0891C6.88809 32.2983 6.86477 32.5122 6.73767 32.688C6.62625 33.0148 6.5521 33.3635 6.51044 33.7069C6.34355 35.3349 6.30371 37.011 6.67999 38.6136C6.82518 39.2082 7.06133 39.7733 7.38308 40.2936C7.47902 40.4488 7.63326 40.4942 7.77175 40.4637C8.23529 40.7046 8.81923 40.7819 9.31886 40.7207C11.0222 40.2383 10.4287 41.3999 12.8169 41.0442C16.9392 40.5188 21.1052 41.5512 25.2187 40.9451C25.32 41.7279 26.6463 41.5034 27.107 41.1724C28.4883 40.1451 29.1742 36.8926 29.8674 35.2427C30.344 33.9422 31.1419 31.6388 32.1869 30.7662C32.5002 30.521 32.879 30.392 33.2579 30.2878C34.6723 29.9232 36.092 29.5784 37.5091 29.2239C37.7494 29.1647 37.7062 28.7547 37.4492 28.781C37.1082 28.8159 36.766 28.8475 36.4238 28.8804Z" fill="#D08B5B"/>
<path fill-rule="evenodd" clip-rule="evenodd" d="M4.9389 28.6358C4.84312 28.624 4.74923 28.5898 4.65596 28.5629C4.51355 28.5213 4.37395 28.4727 4.23655 28.4173C3.95298 28.3037 3.67787 28.1693 3.41996 28.0049C3.00337 27.7391 2.6353 27.3984 2.35768 26.9883L2.33862 26.9597C2.18013 26.7181 1.88777 26.1819 2.21558 25.9985C2.0043 25.8219 1.80462 25.5047 1.81588 25.2599C1.83185 24.9136 2.25626 24.9183 2.47567 25.0651C2.61933 25.1612 2.727 25.2959 2.83498 25.4284C2.95454 25.5755 3.08224 25.7158 3.21495 25.8507C3.25016 25.8864 3.28572 25.9214 3.3219 25.9558L3.35829 25.99C3.35266 25.9766 3.34765 25.9628 3.34327 25.9487C3.27003 25.7205 3.35736 25.4233 3.58553 25.3188C3.72516 25.2547 3.87017 25.2938 4.00548 25.3482L4.02621 25.3566C4.20837 25.4321 4.39272 25.4988 4.5824 25.5523C5.35548 25.7706 6.16236 25.8069 6.95454 25.9159C7.2597 25.9581 7.5705 26.0113 7.8741 26.0896C7.9899 25.5977 8.27378 25.1262 8.58176 24.7383C10.0566 22.8824 12.4888 22.2691 14.7138 21.872C14.9167 21.836 15.0847 22.1047 15.2027 22.0411C15.4265 21.9209 15.6234 21.7505 15.7962 21.5655C16.1646 21.1706 16.4259 20.7063 16.7329 20.2664C16.8847 20.0491 17.234 20.2435 17.0932 20.4768L17.0242 20.5908C16.7401 21.0578 16.4255 21.539 16.0181 21.9011C15.8015 22.0934 15.5611 22.2452 15.2863 22.3401C15.0782 22.4118 14.7862 22.4723 14.5583 22.4027L14.531 22.3629C14.54 22.3762 14.5491 22.3895 14.5583 22.4027C15.153 23.2647 15.8991 23.9943 16.6854 24.6828C17.479 25.3774 18.3351 25.9994 19.1964 26.6076L19.2681 26.6582C20.6713 25.6344 21.8566 24.2989 22.6882 22.7732C22.5139 22.7522 22.3414 22.6404 22.1924 22.5571C22.0131 22.4563 21.8444 22.336 21.7129 22.1757C21.4265 21.8266 21.4638 21.3767 21.4121 20.953C21.409 20.9267 21.4437 20.9202 21.4597 20.9333C21.615 21.0623 21.6694 21.2737 21.7342 21.4562C21.8056 21.6569 21.8863 21.8223 22.05 21.9634C22.2024 22.095 22.3883 22.1917 22.5689 22.2778C22.6621 22.322 23.1244 22.4355 23.1771 22.5296C23.9758 22.342 24.7539 22.6661 25.3458 23.2128C25.9176 23.741 26.3373 24.4276 26.7079 25.1055C27.1032 25.8288 27.4272 26.5828 27.7063 27.3577C27.9893 28.1443 28.2062 28.948 28.3254 29.7759C28.4261 30.4739 28.4878 31.1828 28.5278 31.8886L28.5326 31.9768C29.1236 31.049 29.7292 30.131 30.3473 29.2211C30.2068 28.8456 30.3624 28.4624 30.6256 28.1724C30.9173 27.8515 31.3207 27.7025 31.7066 27.529L31.7574 27.506C31.9434 27.4212 32.1288 27.3277 32.2894 27.2005C32.4441 27.0778 32.5577 26.9087 32.7204 26.7957C32.957 26.631 33.3865 26.6661 33.3974 27.0258C33.403 27.2234 33.3182 27.4401 33.2406 27.6176C33.1527 27.8183 33.034 28.0002 32.8932 28.1674C32.8867 28.1752 32.8796 28.1814 32.8723 28.1862L32.8669 28.1897C33.0616 28.2219 33.2578 28.2479 33.4578 28.257C33.8613 28.2755 34.2691 28.2457 34.6641 28.1605C35.0685 28.0735 35.4603 27.932 35.824 27.7347C36.1348 27.5663 36.4228 27.3483 36.7758 27.297C36.8084 27.292 36.8412 27.2888 36.875 27.287C36.9314 27.2838 36.9877 27.3502 36.9655 27.4059C36.9533 27.4366 36.9405 27.467 36.9264 27.4977C36.8043 27.7666 36.6171 28.0276 36.3835 28.2256L36.3655 28.2407C36.4478 28.2122 36.5289 28.1803 36.6087 28.1443C37.0779 27.9329 37.5035 27.6135 38.0065 27.4852C38.0303 27.4789 38.0544 27.4733 38.0785 27.4679C38.234 27.4344 38.3161 27.6035 38.2247 27.7194C38.2099 27.7382 38.1952 27.7566 38.1799 27.7751C37.9555 28.0538 37.7079 28.3124 37.435 28.5447C37.3414 28.6243 37.245 28.7013 37.1467 28.7749C37.1053 28.8061 37.0637 28.8366 37.0216 28.8666L37.0009 28.8813C37.05 28.8466 37.0985 28.8112 37.1467 28.7749C37.4547 28.6816 37.7583 28.571 38.0553 28.4486C38.1733 28.4001 38.265 28.5197 38.2775 28.618C38.3195 28.9474 37.9539 29.1857 37.716 29.3441C37.4775 29.5032 37.2149 29.6241 36.9461 29.7211C36.4292 29.908 35.8862 29.9928 35.3441 30.0689L35.0808 30.1056C34.0387 30.2514 32.9502 30.4257 32.2024 31.2369C31.7833 31.6915 31.4998 32.2563 31.2403 32.8121C30.9811 33.3673 30.7536 33.9372 30.5376 34.5102C30.3138 35.1032 30.1189 35.7071 29.9117 36.3061C29.7214 36.8561 29.4941 37.3991 29.2689 37.9365L29.2334 38.0214C28.7555 39.1636 28.1846 40.2394 27.389 41.1932C27.2578 41.3507 27.0459 41.1271 27.1671 40.9712C27.9993 39.8978 28.5783 38.6313 29.0563 37.3679C29.2738 36.7931 29.4559 36.2044 29.665 35.6264L29.7894 35.283C29.9556 34.8253 30.1231 34.3681 30.2979 33.914C30.5192 33.3394 30.7624 32.7717 31.0406 32.2225L31.0701 32.1647C31.3425 31.6349 31.6662 31.1127 32.1117 30.7118C32.9134 29.9898 33.9804 29.8166 35.0119 29.6794L35.3365 29.6366C35.7726 29.5786 36.2099 29.5146 36.634 29.398C36.8788 29.331 37.1179 29.2452 37.3426 29.1268C37.4322 29.0798 37.5195 29.0282 37.604 28.9718C37.363 29.0426 37.1185 29.1005 36.8697 29.1459C36.748 29.1681 36.6275 29.1848 36.5073 29.1963C36.1977 29.227 35.8907 29.2257 35.5736 29.2092C35.5467 29.2076 35.538 29.1653 35.5668 29.16C35.7876 29.1207 36.0086 29.0716 36.2288 29.0183L36.2948 29.0022C36.296 28.9656 36.3104 28.9267 36.3405 28.8898C36.45 28.7564 36.6581 28.6881 36.8024 28.5939C36.9536 28.4953 37.1001 28.3888 37.2397 28.2748C37.3674 28.1706 37.4901 28.0603 37.6081 27.9451L37.6434 27.9104C37.6317 27.922 37.6199 27.9336 37.6081 27.9451C37.2894 28.0923 36.9874 28.2811 36.6547 28.3976C36.3902 28.4906 36.1129 28.5532 35.8331 28.5754L35.8157 28.5768L35.7984 28.5779C35.5063 28.5989 35.2124 28.5905 34.9248 28.6537C34.8926 28.6609 34.8826 28.6177 34.9114 28.6055C35.1627 28.5009 35.424 28.4605 35.6882 28.4117C35.6938 28.391 35.7082 28.3725 35.7333 28.3606L35.8008 28.3283C36.0021 28.2316 36.1897 28.134 36.357 27.9771C36.5048 27.8383 36.6278 27.6762 36.7201 27.4964C36.3505 27.5775 36.0259 27.8578 35.6898 28.0153C35.3236 28.1872 34.9361 28.3105 34.5379 28.3807L34.4926 28.3885C33.7486 28.5126 32.8539 28.4968 32.1874 28.1098C32.1661 28.0973 32.1815 28.0688 32.2034 28.0722C32.3924 28.1032 32.5796 28.1399 32.7667 28.1724C32.7301 28.1389 32.7138 28.0788 32.7561 28.0306C32.9242 27.8379 33.0571 27.6176 33.1421 27.3766L33.1584 27.3294C33.1975 27.2176 33.2636 27.044 33.1962 26.9432C33.1317 26.847 32.9799 26.8602 32.8891 26.9009C32.7004 26.9861 32.5749 27.1987 32.4159 27.327C32.2425 27.4673 32.0453 27.5713 31.8434 27.6643L31.8008 27.6836C31.4516 27.8408 31.0785 27.973 30.804 28.2504C30.6563 28.3994 30.5292 28.5857 30.4866 28.7946C30.4672 28.8904 30.4672 28.989 30.4929 29.0839C30.5132 29.1581 30.5558 29.2039 30.5314 29.2793C30.4995 29.3767 30.3865 29.4931 30.3282 29.5799C30.2606 29.6801 30.1933 29.7806 30.1261 29.8811C29.9918 30.0821 29.8581 30.2838 29.7245 30.4851C29.4572 30.8884 29.1927 31.2935 28.9304 31.7C28.8451 31.8323 28.76 31.9648 28.6752 32.0974L28.5483 32.2964L28.4812 32.4014L28.3667 32.5813C28.3708 32.598 28.3705 32.6155 28.3652 32.6308C28.3457 32.6864 28.3091 32.7244 28.2637 32.752L28.2556 32.7567C27.5877 33.8128 26.9304 34.8758 26.2666 35.9345C26.2312 36.2576 26.198 36.581 26.1692 36.9045C26.1038 37.6365 26.0591 38.3705 26.0447 39.1054C26.0378 39.4611 26.0663 39.8189 26.0816 40.1743C26.0891 40.3439 26.0994 40.5133 26.1128 40.6827L26.1227 40.8027C26.1359 40.9677 26.1434 41.1315 26.0841 41.2887C26.0315 41.4268 25.8713 41.4578 25.7764 41.3526C24.5392 41.3028 23.301 41.2649 22.0628 41.2414C19.8466 41.1988 17.6293 41.2054 15.4128 41.2483C14.2995 41.2699 13.1858 41.3003 12.0728 41.3378C11.5245 41.356 10.9758 41.3817 10.4272 41.3892C10.1315 41.3932 9.6663 41.2856 9.64245 40.9529L9.64186 40.9427C9.60493 40.9527 9.56675 40.9609 9.52762 40.9668C9.5102 40.9695 9.49348 40.9687 9.47802 40.9651L9.47035 40.9631C9.0297 41.0974 8.4723 40.9057 8.05359 40.794L8.01902 40.7849C7.61933 40.6806 7.29821 40.5316 7.03624 40.2003C6.57771 39.6201 6.42121 38.8411 6.33984 38.1231C6.26347 37.4474 6.25908 36.7592 6.35204 36.0848C6.29727 35.5353 6.35079 34.9682 6.41307 34.4218C6.44374 34.1516 6.47974 33.8817 6.52293 33.6131C6.54703 33.4631 6.57864 33.3147 6.61088 33.1666C6.62375 33.1074 6.63447 33.0437 6.65078 32.9821L6.65814 32.9558C6.60806 32.9624 6.55329 32.9515 6.50039 32.9224C6.37457 32.8532 6.33795 32.7132 6.33576 32.5792C6.32887 32.1753 6.37707 31.7598 6.41964 31.3584C6.46252 30.9576 6.52136 30.5552 6.59836 30.1594L6.61828 30.0574C6.67662 29.7613 6.74338 29.4557 6.86096 29.1775C6.41934 29.1024 5.97896 29.0226 5.55048 28.8866C5.3414 28.8199 5.13546 28.737 4.9389 28.6358ZM27.9893 32.8394C27.9824 32.8409 27.9758 32.8428 27.9692 32.8447C27.7927 32.8942 27.6143 32.9361 27.4365 32.9812C27.1292 33.0586 26.8287 33.145 26.543 33.2793C26.4831 34.0352 26.3944 34.7886 26.31 35.5423L26.2932 35.6931C26.4228 35.4526 26.5555 35.214 26.6941 34.9783C27.1164 34.2596 27.5483 33.5467 27.9893 32.8394ZM6.76581 32.9142C6.76675 33.0041 6.74797 33.0974 6.73795 33.1838C6.72168 33.3241 6.70853 33.465 6.69194 33.6052C6.65814 33.887 6.62935 34.1691 6.60838 34.4522C6.59492 34.6329 6.58615 34.8142 6.57833 34.9955C6.7558 34.332 6.99085 33.6829 7.21433 33.0329C7.17697 33.0289 7.13879 33.0198 7.0994 33.0093L7.03308 32.9915C6.99398 32.9814 6.86714 32.9502 6.76581 32.9142ZM28.5483 32.2964L28.5495 32.3262C28.5542 32.4317 28.491 32.4912 28.4143 32.5065C28.4588 32.4364 28.5035 32.3663 28.5483 32.2964ZM8.24155 27.2954C8.4284 27.312 8.6115 27.3518 8.78615 27.4207L8.803 27.4273C8.93218 27.4771 9.12105 27.5398 9.1633 27.6777C9.1752 27.7169 9.14327 27.7491 9.10665 27.7523C8.96643 27.7635 8.80117 27.6132 8.67128 27.5625C8.52668 27.5061 8.3752 27.4642 8.22183 27.4419C7.87723 27.3915 7.51792 27.4298 7.19366 27.5553C7.17457 27.5628 7.16268 27.5324 7.17989 27.5234C7.50665 27.3455 7.87003 27.2626 8.24155 27.2954ZM4.28193 28.1909C4.26033 28.1718 4.23873 28.1518 4.21745 28.1318C4.04964 27.9729 3.90104 27.7876 3.79101 27.5839L3.76206 27.5288C3.67244 27.3553 3.5624 27.108 3.773 26.9829C3.89882 26.9081 4.05031 26.9269 4.19053 26.9723C4.19961 26.9751 4.20868 26.9783 4.21776 26.9814C4.28036 27.0033 4.34076 27.0296 4.3946 27.0546C4.6284 27.162 4.83466 27.3183 5.05062 27.4561C5.28463 27.6054 5.51568 27.7009 5.78575 27.7568L5.81119 27.7619C6.06471 27.8121 6.33951 27.8443 6.51635 28.0528C6.5608 28.1055 6.52011 28.2041 6.44342 28.1781C5.95454 28.0131 5.43716 27.9767 4.98834 27.7059C4.80242 27.5938 4.62652 27.4651 4.43654 27.359C4.33576 27.3026 4.2317 27.2533 4.12081 27.2194L4.06023 27.2016C4.02475 27.1912 3.98239 27.181 3.95391 27.1912C3.89969 27.21 3.917 27.239 3.93377 27.2896L3.93544 27.2948C4.06721 27.7025 4.4428 28.0437 4.79084 28.2695C4.87065 28.3215 4.95234 28.3691 5.0356 28.4133C5.59915 28.7137 6.22972 28.8536 6.84904 29.0196C6.84904 29.0196 7.20713 29.1196 7.32575 29.1572C7.45783 29.1462 7.60838 29.1929 7.70791 29.2486C7.80462 29.3028 7.88256 29.3754 7.9414 29.4609C7.9414 29.4609 7.99805 29.5082 8.00838 29.5815C8.03811 29.6494 8.05814 29.7226 8.06816 29.7991C8.07379 29.8438 8.06253 29.8783 8.04124 29.9027C8.10526 30.8856 7.83986 31.863 7.54065 32.7972L7.511 32.8893L7.49195 32.9477C7.16926 33.9381 6.79899 34.9213 6.63373 35.9539C6.52325 36.6437 6.52669 37.3576 6.60775 38.0505L6.61347 38.0983C6.69334 38.7534 6.84702 39.4883 7.26346 40.0156C7.47588 40.2847 7.72754 40.4042 8.04929 40.4909L8.06691 40.4956C8.35799 40.5723 8.65846 40.681 8.95861 40.7138C9.23717 40.7442 9.47066 40.6406 9.72137 40.5435L9.72167 40.5432C10.2497 40.0757 10.4894 39.395 10.6666 38.708C11.1257 36.9302 11.0688 35.0847 10.8084 33.2809C10.6725 32.3384 10.4879 31.4041 10.3038 30.4701C10.2118 30.0032 10.1126 29.5373 10.0303 29.0689L9.9814 28.7932C9.95442 28.6401 9.92833 28.4868 9.90603 28.3328C9.87598 28.1258 9.8669 27.9223 9.85658 27.7141C9.60368 27.2948 9.23654 26.9494 8.81119 26.7018C8.50665 26.5242 8.18428 26.4012 7.85157 26.3119C6.90039 26.0555 5.86346 26.0737 4.90634 25.8764C4.5848 25.8102 4.27959 25.7119 3.97454 25.5942L3.93294 25.578C3.79304 25.5235 3.65031 25.4932 3.58083 25.6582C3.53138 25.7756 3.5608 25.8977 3.63498 25.9963C3.81682 26.238 4.18239 26.3501 4.45751 26.4372C4.62308 26.4898 4.7921 26.5314 4.96299 26.5624C5.13388 26.5934 5.3054 26.6013 5.46941 26.6617C5.53263 26.6849 5.54515 26.7854 5.46941 26.8032C5.26158 26.8517 5.0525 26.8101 4.84593 26.7697C4.61901 26.7249 4.39554 26.6614 4.17833 26.5809C4.13826 26.5661 4.0968 26.5505 4.05457 26.534L4.02277 26.5214C4.05563 26.5452 4.0885 26.5687 4.12167 26.5922C4.13044 26.5984 4.12512 26.615 4.11354 26.6109C3.6028 26.4203 3.13809 26.0764 2.77809 25.6695L2.76017 25.6491C2.63341 25.5038 2.34452 25.0642 2.10102 25.1866C1.87236 25.3014 2.26214 25.7441 2.41027 25.925L2.42747 25.9462C2.59586 25.9506 2.75893 26.0555 2.89539 26.14C3.13232 26.2869 3.3799 26.4134 3.63217 26.5317C4.13357 26.7675 4.66597 26.9338 5.16206 27.1814C5.16863 27.1849 5.16362 27.1933 5.15736 27.1924C4.84156 27.142 4.52919 27.0615 4.22403 26.9617L4.21041 26.9574L4.1968 26.9529C4.00619 26.8902 3.81808 26.8195 3.63311 26.744C3.42747 26.6601 3.22653 26.5659 3.03154 26.4591C2.85501 26.3627 2.65908 26.1889 2.45439 26.1632C2.43248 26.1604 2.41307 26.1601 2.39617 26.1617C2.16112 26.1814 2.35549 26.5709 2.42121 26.6874C2.52857 26.8787 2.65815 27.0553 2.80682 27.2165C3.10823 27.544 3.47348 27.8036 3.86879 28.0056C4.00369 28.0744 4.14172 28.1352 4.28193 28.1909Z" fill="black"/>
<path fill-rule="evenodd" clip-rule="evenodd" d="M16.454 7.49316L16.7238 7.81478C16.5744 7.9203 16.4334 8.02634 16.3008 8.13288L16.3006 8.13256C16.915 7.7307 17.5954 7.49316 18.3305 7.49316C19.7462 7.49316 22.6219 8.71232 23.272 9.59171C23.5946 10.0281 24.1941 11.3678 24.505 12.8244C24.7549 13.9947 25.1265 17.3009 24.7549 18.5433C24.2793 20.1333 22.7145 21.6028 21.101 21.6028C19.4875 21.6028 16.9825 20.435 15.1996 17.8759C15.1181 17.7589 14.182 17.6233 13.5141 17.184L13.6895 19.1206L13.8227 20.2471L13.7933 20.3272C13.315 21.6241 12.936 22.3006 12.6562 22.3569C12.3708 22.4143 11.7894 21.9452 10.9122 20.9496L10.8001 20.4779C10.5154 19.2748 10.373 18.629 10.373 18.5405L10.3732 18.5244C10.3774 18.3207 10.4474 17.1682 10.4489 16.8581L10.4489 12.2095C11.3923 9.06527 12.2926 7.49316 13.1497 7.49316H16.454Z" fill="#D08B5B"/>
<path fill-rule="evenodd" clip-rule="evenodd" d="M14.2185 6.42242C14.4959 6.31471 14.8172 6.33506 15.0805 6.49726C15.5975 6.47502 16.1116 6.77812 16.3811 7.22054C16.3867 7.22681 16.3927 7.23307 16.398 7.23933L16.4551 7.30607C16.5092 7.3698 16.5662 7.44005 16.6114 7.51258C16.39 7.51765 16.2056 7.60811 16.0769 7.79081C15.985 7.92118 16.1954 8.04505 16.2893 7.92176L16.2926 7.91725C16.3699 7.80756 16.4866 7.76508 16.6165 7.76285C16.6538 7.76223 16.6821 7.74792 16.7021 7.72681C16.71 7.7559 16.7172 7.7853 16.7237 7.81483C17.3778 7.5598 18.0829 7.49226 18.7852 7.55275C18.7544 7.60273 18.7286 7.65627 18.7088 7.71254C18.6864 7.77632 18.7343 7.84955 18.7961 7.86659C18.8629 7.885 18.9233 7.84573 18.9475 7.78504L18.9497 7.7791C18.9767 7.70245 19.0208 7.63667 19.08 7.58566C19.4106 7.63059 19.7388 7.70205 20.059 7.79416C20.4439 7.90497 20.8252 8.04021 21.198 8.19504C21.1349 8.21987 21.0803 8.26183 21.0421 8.33187C20.9659 8.47168 21.1755 8.59691 21.2551 8.46325L21.2579 8.4583C21.2657 8.44397 21.2726 8.43535 21.2777 8.43045L21.2795 8.42878L21.2905 8.42371L21.311 8.41782L21.3188 8.41588C21.3258 8.41432 21.3286 8.41442 21.3469 8.4134C21.3712 8.41203 21.3955 8.41215 21.4199 8.41212C21.4771 8.41209 21.5136 8.38012 21.5301 8.33923C21.7141 8.42248 21.8958 8.51016 22.0742 8.60199L22.1166 8.62401C22.6674 8.9125 23.1892 9.29135 23.4919 9.8488C23.5119 9.88606 23.5181 9.92677 23.5131 9.96559C23.5777 10.0432 23.6402 10.1234 23.7002 10.2048C23.8832 10.454 24.0172 10.7374 24.144 11.0183C24.3992 11.5831 24.5709 12.1633 24.7049 12.7683C24.8346 13.3513 24.9392 13.9405 25.0363 14.5298C25.1441 15.1845 25.2337 15.8449 25.2525 16.509C25.2856 17.6929 25.0547 18.8836 24.3917 19.8803C23.8002 20.7695 22.9094 21.4756 21.8531 21.7016C20.7787 21.9315 19.6418 21.7073 18.7951 20.9896C18.6586 20.8741 18.6773 20.6408 18.7951 20.5225C18.9284 20.3891 19.1252 20.4075 19.261 20.5225C20.0584 21.1985 21.219 21.3027 22.1798 20.9583C23.0681 20.6396 23.7639 19.9044 24.1908 19.0787C24.7118 18.0717 24.7996 16.9151 24.7196 15.8011C24.6759 15.1892 24.585 14.5824 24.4913 13.9766L24.4347 13.6118C24.373 13.2168 24.3082 12.8223 24.2237 12.4313L24.2039 12.3403C24.1005 11.8687 23.9795 11.3851 23.7923 10.9419C23.6942 10.7092 23.5762 10.485 23.4553 10.2637C23.4319 10.2208 23.4078 10.1773 23.3832 10.1334C23.3501 10.145 23.3123 10.1469 23.2726 10.1344C22.9312 10.0279 22.5805 9.95651 22.2235 9.93272C22.0609 9.92182 21.898 9.92013 21.7353 9.92648C21.4568 9.91023 21.1705 9.93478 20.9052 10.0204C20.8793 9.99806 20.853 9.97621 20.8267 9.95435C20.8196 9.95379 20.8125 9.95304 20.8054 9.95163C20.7377 9.93829 20.6901 9.89007 20.6614 9.82917C20.6599 9.82594 20.6586 9.82272 20.6573 9.81949C20.6233 9.79347 20.5891 9.76786 20.5546 9.74259C20.4704 9.76448 20.3966 9.69425 20.3767 9.61729C20.358 9.60461 20.3389 9.59233 20.32 9.5799C20.3052 9.58353 20.2904 9.58654 20.2761 9.5876C20.2141 9.59208 20.1542 9.58256 20.0992 9.55291C20.0297 9.51537 19.9852 9.45481 19.9555 9.38602C19.8503 9.3925 19.7439 9.35828 19.6498 9.29641C19.5735 9.24622 19.515 9.17693 19.4569 9.10776C18.7486 8.79105 17.9787 8.60406 17.2069 8.55615C17.1309 8.57081 17.0554 8.58825 16.9808 8.60854C16.9632 8.61336 16.9381 8.62281 16.9093 8.63415C17.0814 8.61329 17.2556 8.61123 17.4324 8.63675C18.2711 8.75833 18.9244 9.38787 19.4866 9.98212C19.6203 9.95504 19.7555 10.1287 19.6317 10.2436L18.6667 11.1401C18.6904 11.2404 18.5757 11.3392 18.4752 11.3151C18.3068 11.2745 18.138 11.2351 17.9691 11.1963C17.793 11.2817 17.5715 11.2671 17.4117 11.1432C17.4043 11.1375 17.3881 11.1283 17.3741 11.1191C17.361 11.13 17.3433 11.1409 17.3363 11.1455C17.2795 11.1832 17.2103 11.1943 17.1439 11.1837C17.0757 11.1729 17.014 11.1381 16.9609 11.0949C16.9271 11.0673 16.8483 10.9524 16.8044 10.944L16.8001 10.9435C16.8294 10.9443 16.7353 11.032 16.7101 11.0501C16.6511 11.0923 16.5859 11.1144 16.5126 11.1064C16.3847 11.0922 16.2748 10.9754 16.2122 10.8676L16.2075 10.8593L16.2055 10.8541L16.2039 10.8597C16.2036 10.8607 16.2032 10.8617 16.2028 10.8629C16.1934 10.8883 16.164 10.9172 16.144 10.9349C16.087 10.9854 16.0165 11.0076 15.9412 10.9944C15.8774 10.9833 15.8238 10.9447 15.7807 10.898L15.774 10.8905C15.7612 10.8761 15.6772 10.763 15.6905 10.7358L15.692 10.7336L15.6878 10.7327C15.6368 10.7453 15.5939 10.7327 15.5624 10.7063C15.3871 10.6677 15.214 10.6229 15.0465 10.5658C15.0334 10.6028 15.0206 10.6397 15.0081 10.677C15.0996 10.7337 15.1842 10.8144 15.262 10.8721C15.4094 10.981 15.5568 11.09 15.7039 11.1993L16.2868 11.6303L16.3535 11.6123C16.4386 11.5894 16.5117 11.6391 16.543 11.7151L16.5455 11.7217C16.5579 11.755 16.5729 11.7857 16.5904 11.8152C16.7361 11.8094 16.8595 11.8991 16.8994 12.0277C16.9354 12.0269 16.9717 12.0282 17.0089 12.0323C17.1107 12.0436 17.1793 12.1193 17.1608 12.2234L17.1594 12.2305L17.157 12.2421C17.216 12.2672 17.2588 12.3157 17.2683 12.389C17.2841 12.4129 17.2968 12.4388 17.305 12.4677C17.3475 12.6175 17.2647 12.8026 17.2206 12.9461L17.2172 12.9574C17.1889 13.0517 17.1596 13.1455 17.1299 13.2394L17.0561 13.4723C16.8513 14.1214 16.6517 14.8058 16.8174 15.4864C16.8527 15.6304 16.669 15.6955 16.5894 15.5828C16.3963 15.3099 16.1877 15.0527 15.9687 14.8059L15.958 14.8042C15.8047 14.7733 15.7451 14.6647 15.6747 14.554C15.6332 14.5662 15.5886 14.5691 15.5455 14.5608C15.4831 14.5487 15.4272 14.513 15.3831 14.4679C15.3457 14.4296 15.3114 14.3315 15.2672 14.3071C15.212 14.2767 15.1008 14.3202 15.0348 14.3104C14.9811 14.3025 14.931 14.284 14.8824 14.2608C14.793 14.383 14.7337 14.5266 14.7192 14.6814C14.7135 14.7402 14.696 14.79 14.6708 14.8313C14.7638 14.8279 14.8572 14.8345 14.9494 14.8517C15.2904 14.9153 15.535 15.1263 15.6724 15.4407C15.6783 15.4544 15.6605 15.4657 15.6524 15.4526C15.4485 15.1379 15.0046 15.1219 14.6823 15.2328C14.34 15.3505 14.1479 15.6526 14.0795 15.9974C14.0046 16.3753 14.1008 16.7827 14.306 17.1045C14.4012 17.2542 14.5312 17.3907 14.7039 17.4458C14.9091 17.5113 15.0986 17.3942 15.3088 17.4546C15.4519 17.4956 15.515 17.6343 15.4891 17.773C15.4787 17.8275 15.4597 17.8751 15.4341 17.9164C15.5097 18.0667 15.5796 18.2214 15.6686 18.3636C15.8061 18.583 15.9723 18.7647 16.1534 18.9478C16.3405 19.1369 16.531 19.3223 16.7312 19.4976C16.923 19.6658 17.1429 19.7854 17.344 19.9394C17.4852 20.0475 17.5551 20.199 17.4855 20.3725C17.428 20.5159 17.2343 20.638 17.0776 20.5732C16.7774 20.4492 16.5147 20.2382 16.2755 20.0209C16.0538 19.8192 15.8607 19.5781 15.7149 19.3164C15.5773 19.0696 15.4759 18.7893 15.3903 18.5194L15.3797 18.4857C15.3394 18.3573 15.297 18.2129 15.2695 18.0674C15.1049 18.1575 14.8816 18.1707 14.7055 18.1463C14.4209 18.1071 14.1613 17.9634 13.9652 17.7539C13.8738 17.6565 13.793 17.5453 13.7232 17.4248C13.7295 17.4981 13.7333 17.5691 13.7374 17.6337C13.9005 17.8127 13.9659 18.0711 13.908 18.3069C14.0444 18.4476 14.0826 18.6589 14.0114 18.8389C14.1607 18.9873 14.1551 19.2236 14.0906 19.4382C14.2671 19.636 14.2838 19.9441 14.146 20.1673L14.1418 20.1833C14.281 20.4168 14.2496 20.7185 14.0752 20.9247C14.1943 21.1562 14.1759 21.4677 13.8783 21.5576C13.7698 21.5903 13.6647 21.5624 13.586 21.5014C13.6578 21.8596 13.69 22.2232 13.5942 22.583C13.556 22.7258 13.4168 22.8301 13.2703 22.8301C13.1478 22.8301 13.0588 22.7684 12.9973 22.6776C13.0045 22.8583 12.9936 23.0399 12.9552 23.223C12.932 23.3337 12.8296 23.4199 12.721 23.4466C12.7602 23.4909 12.7758 23.555 12.7382 23.6218C12.5789 23.9045 12.194 23.7872 12.1679 23.5164C12.0592 23.435 12.0087 23.3015 11.9878 23.1571C11.9573 22.9467 11.9462 22.7397 11.9117 22.5319L11.8985 22.5443L11.8916 22.5502L11.8895 22.5652C11.8697 22.6679 11.8119 22.7398 11.7369 22.7827C11.7532 22.9619 11.723 23.1443 11.6096 23.2804C11.5341 23.3711 11.4055 23.4068 11.2952 23.3871C11.2883 23.3874 11.2812 23.3874 11.2738 23.3864C11.024 23.3531 10.8795 23.1157 10.9453 22.8977C10.8447 22.7741 10.8023 22.6173 10.8321 22.4624C10.6375 22.3332 10.6415 22.0495 10.7089 21.8216C10.5048 21.6602 10.4281 21.3584 10.5306 21.1186C10.3467 20.8897 10.3212 20.5707 10.4461 20.31C10.2438 20.1434 10.245 19.8217 10.4456 19.6514C10.3388 19.4387 10.2743 19.1839 10.3811 18.9893C10.3058 18.906 10.2644 18.7872 10.2731 18.6724C10.2859 18.5038 10.3972 18.3874 10.5352 18.3097L10.5448 18.257C10.5772 18.261 10.6117 18.252 10.6422 18.2227C10.6723 18.1936 10.7033 18.1702 10.7354 18.151C10.7717 18.1505 10.803 18.1343 10.825 18.1093C10.8851 18.0888 10.9498 18.0798 11.0216 18.079C11.1765 18.0773 11.182 17.845 11.0378 17.8299C11.015 17.8069 10.9836 17.7924 10.9496 17.7924L10.923 17.7925C10.8607 17.7931 10.7979 17.797 10.7401 17.8218C10.7026 17.8379 10.6736 17.8621 10.6524 17.8918C10.6484 17.9367 10.6241 17.9815 10.5713 18.0185C10.5104 18.0612 10.427 18.0662 10.3618 18.0275C10.2705 17.9734 10.2696 17.889 10.2801 17.7972C10.3032 17.5963 10.188 17.4073 10.2154 17.2019C10.2276 17.111 10.2577 17.0326 10.3069 16.9693C10.2032 16.8136 10.1849 16.6127 10.2648 16.4418C10.0984 16.2624 10.0696 15.9858 10.1757 15.7698C10.1772 15.7646 10.1784 15.7593 10.1801 15.7541C10.1921 15.7174 10.2086 15.6843 10.2268 15.6526C10.1337 15.4909 10.1344 15.2924 10.229 15.1313C10.0856 14.9638 10.0811 14.6971 10.2086 14.5165C10.2094 14.5016 10.2109 14.4866 10.2122 14.4716C10.1537 14.3193 10.1677 14.1461 10.242 14.0045C10.2155 13.9433 10.195 13.8774 10.182 13.8072C10.1485 13.6262 10.1658 13.4502 10.2157 13.2736C10.2238 13.2457 10.2329 13.2179 10.2426 13.19C10.2442 13.0691 10.2488 12.9486 10.2548 12.8284C10.2311 12.7267 10.2273 12.6149 10.2267 12.511L10.2266 12.4437C10.2254 12.2724 10.2135 12.0216 10.3215 11.876C10.2522 11.7187 10.2807 11.5205 10.3965 11.3958C10.3152 11.2557 10.2981 11.0836 10.3798 10.9282C10.3929 10.9031 10.4082 10.8798 10.4248 10.8578C10.4181 10.7154 10.448 10.5686 10.5237 10.4271C10.5728 10.335 10.6462 10.2553 10.7335 10.1914C10.7321 10.1726 10.7312 10.1537 10.7315 10.1351C10.733 10.0523 10.7513 9.9691 10.7822 9.89148C10.7268 9.79673 10.7011 9.68993 10.7335 9.57483C10.7698 9.44457 10.8651 9.33248 10.984 9.26923C10.9936 9.14643 11.0128 9.02435 11.0401 8.90389C10.967 8.74067 11.0252 8.52525 11.1905 8.42909C11.1689 8.29865 11.1883 8.16338 11.283 8.0615C11.3189 8.02289 11.3612 7.99362 11.4067 7.9742C11.3848 7.84304 11.4095 7.70659 11.5 7.59978C11.5739 7.51258 11.6834 7.4596 11.7949 7.45181C11.8378 7.22367 12.0552 7.05309 12.2846 7.06668C12.3132 6.96623 12.3817 6.87866 12.488 6.83426C12.5152 6.82289 12.5427 6.81541 12.5701 6.81124C12.7566 6.62263 13.0343 6.49478 13.2747 6.42931C13.5158 6.3639 13.7603 6.35757 13.9673 6.43362L13.9824 6.43933L13.9992 6.43714C14.0724 6.429 14.1454 6.4243 14.2185 6.42242ZM12.3861 21.8819C12.3217 21.8617 12.2498 21.9057 12.2324 21.9693C12.2139 22.0366 12.255 22.1032 12.3196 22.1234C12.4002 22.1486 12.4848 22.1549 12.5687 22.1549C12.6362 22.155 12.6937 22.0973 12.6937 22.0297C12.6937 21.9617 12.6365 21.9045 12.5687 21.9044C12.5005 21.9044 12.4501 21.9019 12.3861 21.8819ZM11.8132 20.5518C11.7169 20.5519 11.6343 20.5749 11.5629 20.6426C11.5153 20.6877 11.5141 20.7748 11.5629 20.8197C11.6122 20.865 11.6837 20.8677 11.7342 20.8245L11.744 20.8158C11.7452 20.8147 11.7461 20.8139 11.7468 20.8132C11.7509 20.8105 11.7549 20.8078 11.7593 20.8056L11.7511 20.8109C11.7449 20.8154 11.7593 20.8081 11.7674 20.8046L11.7699 20.8036L11.7707 20.8034L11.7772 20.8029C11.7891 20.8023 11.8012 20.8023 11.8132 20.8023C11.8785 20.8022 11.9411 20.7447 11.9381 20.677C11.935 20.6092 11.8832 20.5517 11.8132 20.5518ZM13.6302 19.7572C13.7655 19.6741 13.6447 19.4614 13.509 19.538L13.5041 19.5409C13.4346 19.5837 13.3491 19.5779 13.2703 19.5779C13.1096 19.578 13.1093 19.8285 13.2703 19.8284L13.2969 19.8283C13.4124 19.8274 13.5292 19.8193 13.6302 19.7572ZM12.566 18.8429C12.4638 18.8236 12.3493 18.8064 12.2418 18.8182L12.224 18.8204H12.1909C12.1622 18.8204 12.1344 18.832 12.112 18.8502C12.0767 18.8649 12.0432 18.8847 12.0126 18.9112C11.8909 19.017 12.0683 19.1935 12.1893 19.0883C12.1961 19.0825 12.2039 19.0777 12.2125 19.0737L12.2192 19.0709H12.3528C12.365 19.0709 12.3768 19.0684 12.3883 19.0647C12.4317 19.0707 12.4721 19.0793 12.4995 19.0845C12.6567 19.1141 12.724 18.8727 12.566 18.8429ZM12.4519 16.4389C12.256 16.3478 12.0392 16.3485 11.858 16.4749C11.7285 16.5653 11.8488 16.7785 11.9795 16.6943L11.9841 16.6912C12.0004 16.6799 12.0171 16.6704 12.0339 16.6618C12.1259 16.6884 12.2184 16.6897 12.3073 16.6569L12.3189 16.6524L12.3258 16.6551C12.4707 16.7225 12.5978 16.5067 12.4519 16.4389ZM14.5844 16.0464C14.3865 16.0242 14.3849 15.7109 14.5844 15.7333C15.0054 15.7806 15.3875 15.9683 15.6673 16.2905C15.7974 16.4404 15.5831 16.6597 15.4505 16.5165L15.4464 16.5119C15.2239 16.2557 14.9236 16.0845 14.5844 16.0464ZM12.3681 14.4379C12.3241 14.433 12.2802 14.4306 12.2371 14.4327C12.1333 14.4377 12.0069 14.5071 12.0525 14.6325C12.089 14.7329 12.2087 14.7369 12.2678 14.6833C12.2923 14.6839 12.3169 14.6856 12.3413 14.6881C12.4066 14.6948 12.4712 14.7073 12.5355 14.72C12.6926 14.7509 12.7598 14.5096 12.6019 14.4784L12.5321 14.4646C12.5086 14.4599 12.4848 14.4554 12.461 14.4513C12.4467 14.4442 12.4314 14.4394 12.4151 14.4382L12.4068 14.4379H12.3681ZM11.1268 12.4945L11.1121 12.4925C10.9011 12.4655 10.5624 12.4904 10.5368 12.7596C10.5227 12.9087 10.7376 12.9181 10.78 12.7906C10.9358 12.7624 11.0928 12.757 11.2476 12.7741C11.3066 12.714 11.3071 12.5985 11.2088 12.5696C11.1949 12.5322 11.166 12.5002 11.1268 12.4945ZM15.9493 12.0398C15.9005 11.9949 15.8206 11.989 15.7726 12.0398C15.7449 12.069 15.7219 12.1015 15.7036 12.1373L15.6914 12.1614C15.6894 12.1655 15.6873 12.1694 15.6851 12.1734C15.681 12.1807 15.6764 12.1876 15.6719 12.1947L15.6689 12.1977C15.6677 12.1989 15.6663 12.2003 15.6646 12.2021C15.6197 12.2497 15.614 12.3326 15.6646 12.3792C15.7134 12.4241 15.7933 12.4301 15.8413 12.3792C15.8689 12.35 15.892 12.3175 15.9103 12.2817L15.9225 12.2576C15.9245 12.2536 15.9266 12.2496 15.9288 12.2457C15.9329 12.2384 15.9375 12.2314 15.942 12.2243L15.9469 12.2194C15.9476 12.2186 15.9484 12.2178 15.9493 12.2169C15.9942 12.1693 15.9999 12.0864 15.9493 12.0398ZM13.3874 11.7136C13.2113 11.5886 13.002 11.5828 12.8402 11.7332C12.7234 11.8418 12.895 12.0158 13.0127 11.914L13.0169 11.9103C13.0212 11.9063 13.0255 11.9028 13.0298 11.8995C13.0509 11.9175 13.0777 11.9289 13.1084 11.929C13.1164 11.929 13.1244 11.929 13.1324 11.9291L13.1444 11.9296L13.1509 11.9301L13.1517 11.9302L13.1573 11.9326C13.1676 11.9373 13.1818 11.9445 13.1623 11.9322C13.1666 11.9345 13.1707 11.9372 13.1748 11.9399L13.182 11.9464C13.2291 11.991 13.3106 11.9969 13.3573 11.9476C13.4401 11.9195 13.4841 11.7823 13.3874 11.7136ZM15.1084 11.3033L15.1116 11.3023C15.2659 11.2581 15.2003 11.0164 15.0451 11.0607C14.8805 11.1079 14.8019 11.2614 14.769 11.4187C14.7551 11.4849 14.7883 11.5541 14.8562 11.5728C14.9183 11.5899 14.996 11.5518 15.0099 11.4853C15.0197 11.4386 15.031 11.3989 15.0488 11.3621L15.0596 11.3411C15.0646 11.3315 15.0664 11.3299 15.0834 11.315C15.0863 11.3125 15.0993 11.3064 15.1084 11.3033ZM12.494 10.0417L12.4699 10.0362C12.3195 10.0032 12.1199 9.98595 12.0291 10.1354C11.9463 10.2715 12.1551 10.3955 12.2411 10.2668C12.2424 10.2667 12.2439 10.2667 12.2457 10.2669L12.2485 10.2672L12.2871 10.2641C12.3351 10.2637 12.381 10.2723 12.4276 10.2833C12.5839 10.3204 12.6507 10.0789 12.494 10.0417ZM17.8922 9.0788C18.006 8.96467 17.8294 8.78748 17.7155 8.9017C17.6255 8.99197 17.5386 9.08287 17.4801 9.19756C17.4494 9.25774 17.4644 9.33345 17.5249 9.36893C17.5807 9.40165 17.665 9.38443 17.6958 9.324C17.7466 9.22458 17.8106 9.16065 17.8922 9.0788ZM16.4556 8.77921C16.3432 8.84597 16.2704 8.95593 16.2262 9.08321C16.204 9.14709 16.2514 9.2202 16.3134 9.23726C16.3801 9.25561 16.441 9.21649 16.4649 9.15573L16.4671 9.14978C16.4789 9.11575 16.4979 9.07554 16.5213 9.0452C16.5413 9.01931 16.5723 8.99338 16.5958 8.98477C16.6521 8.96404 16.692 8.91288 16.6868 8.85314C16.5942 8.88523 16.5082 8.84663 16.4556 8.77921ZM13.0888 8.2344C12.9754 8.12882 12.8231 8.11482 12.6856 8.17873C12.6243 8.20716 12.609 8.29567 12.6408 8.35009C12.6775 8.41306 12.7502 8.42358 12.8117 8.39502C12.7959 8.40235 12.8244 8.39268 12.8367 8.38914C12.8383 8.38987 12.8589 8.38893 12.866 8.38903L12.8746 8.38957C12.8746 8.38963 12.8725 8.38959 12.8683 8.38945C12.8743 8.39081 12.8802 8.39243 12.886 8.3943L12.8935 8.39688C12.8897 8.3961 12.9066 8.40713 12.9113 8.41079L12.9122 8.41149C13.0299 8.52105 13.207 8.34433 13.0888 8.2344Z" fill="black"/>
<path fill-rule="evenodd" clip-rule="evenodd" d="M22.7714 17.2808C22.8177 17.2203 22.9304 17.4837 22.9534 17.5159L22.9545 17.5174C23.0548 17.6388 23.1366 17.8247 23.1482 17.9805C23.1486 17.9852 23.1486 17.9897 23.1486 17.9942C23.3093 17.9721 23.4701 17.9496 23.6308 17.925C23.693 17.8782 23.78 17.8927 23.8641 17.9353C24.0518 18.0301 23.9605 18.3312 23.7582 18.3264C23.2114 18.3133 22.653 18.3836 22.1108 18.4468C21.8318 18.4793 21.5535 18.5138 21.276 18.5579C21.0169 18.5991 20.7519 18.6573 20.4895 18.6686C20.4752 18.6692 20.4693 18.6479 20.4821 18.6412C20.7134 18.5224 20.9776 18.4505 21.2273 18.3809C21.4975 18.3056 21.7697 18.2349 22.0438 18.1752C22.2898 18.1216 22.537 18.0815 22.7849 18.0454C22.783 18.0406 22.7811 18.0356 22.7796 18.0304C22.7481 17.9249 22.7489 17.8039 22.7422 17.6927L22.7383 17.6337C22.7322 17.532 22.7261 17.34 22.7714 17.2808ZM21.966 15.9799C22.2023 16.1236 22.5625 16.4587 22.3082 16.815C22.0089 17.1292 21.578 16.769 21.3657 16.6061C21.1688 16.4798 20.9476 16.8046 21.1302 16.952C22.6646 18.0884 23.2873 16.0175 22.0855 15.8109C21.9532 15.7882 21.9041 15.9354 21.966 15.9799ZM18.1659 14.7149C18.5592 14.6549 18.962 14.648 19.3594 14.6679C19.566 14.6782 19.7724 14.6935 19.9782 14.7139C20.0857 14.7246 20.1931 14.7366 20.3003 14.75C20.3771 14.7596 20.4958 14.8037 20.5689 14.7836C20.7921 14.7225 21.004 14.9338 20.9425 15.1574C20.8814 15.3793 20.6197 15.4378 20.4514 15.3045C20.3716 15.2764 20.2913 15.2497 20.2105 15.2248C20.2044 15.2502 20.1953 15.2754 20.1826 15.2997C20.1682 15.327 20.1544 15.3544 20.1413 15.3822C20.1442 15.3778 20.1225 15.4297 20.1219 15.4312L20.1046 15.4764C20.0745 15.5543 20.0407 15.6281 19.9589 15.6685C19.8464 15.724 19.6699 15.6934 19.6244 15.561C19.5533 15.4218 19.6004 15.2273 19.6411 15.0831L19.6442 15.072C19.1534 14.9552 18.6545 14.8677 18.1659 14.7489C18.1499 14.745 18.1483 14.7176 18.1659 14.7149ZM24.0029 14.1912C24.0285 14.1401 24.0864 14.1399 24.1208 14.1879C24.1974 14.2945 24.0259 14.4472 23.9543 14.5182L23.9471 14.5254C23.7862 14.6887 23.59 14.8203 23.3954 14.9393C23.3546 14.9643 23.3132 14.9881 23.2716 15.0115C23.2793 15.027 23.2863 15.0428 23.292 15.059C23.3215 15.1422 23.322 15.2416 23.2955 15.3257C23.2402 15.5011 23.0932 15.6412 22.9024 15.641C22.8018 15.6409 22.6827 15.5458 22.6964 15.4348C22.7012 15.3954 22.7052 15.3533 22.7112 15.3114C22.5771 15.356 22.4123 15.3037 22.327 15.1931C22.2084 15.0393 22.241 14.7873 22.4227 14.6918C22.5563 14.6216 22.7037 14.6039 22.8484 14.5667C22.992 14.53 23.1346 14.4877 23.2752 14.4406C23.4138 14.394 23.5517 14.3442 23.6895 14.2949C23.7576 14.2705 23.8251 14.2481 23.8944 14.2274C23.9254 14.2182 23.97 14.194 24.0029 14.1912Z" fill="black"/>
</svg>
