<svg width="36" height="48" viewBox="0 0 36 48" fill="none" xmlns="http://www.w3.org/2000/svg">
<path fill-rule="evenodd" clip-rule="evenodd" d="M17.4163 18.38C17.8369 18.2635 18.3204 18.277 18.752 18.3068C19.1902 18.3371 19.6605 18.389 20.0717 18.5527C20.4292 18.695 20.7307 18.9343 20.9144 19.2772C21.0654 19.5591 21.1362 19.8683 21.1806 20.1823C21.1988 20.3108 21.214 20.4397 21.2284 20.5686L21.2581 20.8368C21.2698 20.9394 21.2799 21.0163 21.3003 21.1307C21.3568 21.4473 21.4354 21.7117 21.6108 21.942C22.0357 22.4995 22.7296 22.6862 23.3605 22.9241C23.7643 23.0764 24.084 23.3503 24.1727 23.7904C24.2583 24.215 27.5122 27.7774 27.8317 28.0777L27.8404 28.0858C28.0882 28.3089 28.059 28.7285 28.0937 29.0348C28.1309 29.3632 28.1663 29.6919 28.1998 30.0207C28.268 30.6886 28.3288 31.3573 28.3821 32.0266C28.5905 34.644 28.685 37.2705 28.6649 39.8961L28.6637 40.0447C28.6606 40.3779 28.663 40.7126 28.6481 41.0455C28.6337 41.3654 28.537 41.6857 28.2406 41.8528C27.9661 42.0076 27.6189 41.994 27.3121 42.0094L27.2937 42.0104C26.9645 42.0284 26.6351 42.0432 26.3056 42.0554C24.9665 42.105 23.6261 42.1103 22.2862 42.1042C19.6279 42.0919 16.9671 42.0335 14.3114 42.1824C13.6344 42.2203 11.4762 41.9897 10.8014 42.0554C10.1564 42.1182 10.7098 42.4347 10.3113 42.4138C9.00089 42.3452 7.75789 42.0527 6.50237 41.7004C6.34553 41.6564 6.22559 41.5041 6.22756 41.3395C6.25088 39.5317 6.3019 37.7243 6.38162 35.9181C6.45263 34.3091 6.54622 32.7012 6.66231 31.0949C6.71278 30.3966 6.76749 29.6987 6.82645 29.0011L6.85198 28.7022C6.88528 28.3167 6.90443 27.9241 6.98021 27.544C7.05517 27.168 7.22522 26.842 7.47179 26.5506C7.69304 26.2893 10.198 24.2433 10.8014 23.8559C11.3788 23.4852 11.9852 23.1724 12.578 22.8287C12.8247 22.6857 13.0616 22.7372 13.2723 22.5617C13.3833 22.4692 14.9951 21.8459 15.43 21.6402L15.4428 21.6341C15.7756 21.4743 16.0819 21.3011 16.3119 21.0249C16.389 20.9323 16.5402 20.3489 16.5405 20.1625C16.541 19.8296 16.5158 19.4788 16.6162 19.1563C16.7363 18.7706 17.0257 18.4881 17.4163 18.38ZM18.1294 26.9652L15.5539 31.9829H17.2286L16.0281 34.7707H18.6644L17.7292 38.6757L23.0772 31.9829H21.0704L23.0772 29.3477H21.6853L23.0772 27.1162L18.1294 26.9652Z" fill="#D08B5B"/>
<path fill-rule="evenodd" clip-rule="evenodd" d="M24.078 26.6704L23.0773 38.071L14.7422 38.2776V26.1113L24.078 26.6704Z" fill="#FDEA6B"/>
<path fill-rule="evenodd" clip-rule="evenodd" d="M26.7813 29.7867C26.7754 29.7927 26.7691 29.7986 26.7632 29.8049C26.77 29.7952 26.776 29.7852 26.7813 29.7752V29.7867ZM21.776 28.3251C21.5447 28.6207 21.2999 29.2222 21.0752 29.5231C21.043 29.5663 21.0114 29.6095 20.9801 29.653C20.8868 29.7836 21.0114 29.9834 21.1647 29.9749C21.4711 29.9586 21.7772 29.9358 22.0833 29.9126C21.4545 30.6136 20.9325 31.4844 20.355 32.2271C20.3159 32.2769 20.2774 32.327 20.2389 32.3771C20.0927 32.5678 20.2392 32.6542 20.4389 32.6028C20.4802 32.5922 20.5215 32.5816 20.5628 32.5712C20.8533 32.4967 21.1434 32.4222 21.4339 32.348C21.5945 32.3066 21.756 32.2556 21.9187 32.224C21.9857 32.2112 22.0499 32.2218 22.1131 32.2253C22.0827 32.2716 22.0401 32.3552 22.0317 32.368C21.9369 32.5158 21.8414 32.663 21.7453 32.8095C21.5581 33.0945 21.37 33.379 21.175 33.6587C20.4145 34.7489 19.5941 35.7897 18.781 36.8402C18.5763 37.1044 18.3688 37.3659 18.1578 37.6249C18.1588 37.6233 18.1594 37.6217 18.1603 37.6202C18.3503 37.25 18.5403 36.8803 18.7303 36.5102C19.0915 35.8069 19.4492 35.1018 19.8142 34.4004C19.833 34.3638 19.852 34.3275 19.8711 34.2909C19.9469 34.1455 19.8226 33.9947 19.6671 34.0253C18.9082 34.1749 18.1567 34.3587 17.4145 34.5763C17.3811 34.6119 17.332 34.6223 17.2881 34.6137C17.2583 34.6227 17.2284 34.6312 17.1985 34.6403C17.2076 34.6215 17.2169 34.603 17.226 34.5843C17.1957 34.5579 17.1806 34.5171 17.2003 34.4662C17.6274 33.3638 18.213 32.2995 18.9067 31.3249C18.8788 31.3254 18.8509 31.3258 18.8229 31.3266C18.0614 31.3473 17.3143 31.4566 16.5804 31.6641C16.5769 31.5962 16.6179 31.491 16.6402 31.4409C16.729 31.2408 16.8311 31.0454 16.9265 30.8485C17.1218 30.4439 17.3171 30.0397 17.5125 29.6352C17.7034 29.24 17.8927 28.8437 18.0724 28.4429C18.1666 28.2327 18.2608 28.0223 18.3547 27.812C18.4314 27.6406 18.4918 27.4681 18.5553 27.2928C18.7419 27.3476 21.1372 27.3595 21.7193 27.3999C21.8621 27.4099 22.0051 27.419 22.1481 27.4268C22.2621 27.4334 22.4226 27.4585 22.5012 27.3554L22.5309 27.3805C22.2724 27.6898 22.0245 28.0076 21.776 28.3251ZM12.4242 22.5777C12.4361 22.5723 12.4477 22.567 12.4592 22.5617C12.4652 22.5702 12.4724 22.578 12.4799 22.5858C12.4987 22.6049 12.5171 22.6255 12.5366 22.6444C12.499 22.6224 12.4614 22.6002 12.4242 22.5777ZM29.1641 40.1742C29.1425 39.718 29.1184 39.2618 29.0927 38.8056C29.042 37.9139 28.9898 37.0221 28.92 36.1316C28.7782 34.3272 28.6461 32.5233 28.4336 30.7254C28.3444 29.9718 28.2198 29.2238 28.0949 28.4754C28.1109 28.461 28.1272 28.4466 28.1431 28.4325C28.1259 28.6373 28.4038 28.7669 28.5416 28.5628C28.5519 28.5475 28.5619 28.5321 28.5719 28.5161C28.6912 28.3233 28.966 27.377 28.9469 27.2969C28.9124 27.1525 28.8167 27.0242 28.7419 26.897C28.6765 26.7859 28.6104 26.6747 28.5434 26.5645C28.4098 26.3437 28.2721 26.1252 28.1278 25.9113C27.8289 25.4686 27.5021 25.0434 27.1171 24.6718C26.7187 24.2866 26.2614 23.97 25.7891 23.683C25.5622 23.5452 25.3281 23.4203 25.0896 23.3037C24.8542 23.1891 24.5966 23.0623 24.3431 22.9972C24.3287 22.9934 24.314 23.0135 24.3272 23.0242C24.3945 23.0774 24.4649 23.1275 24.5365 23.1757C24.3425 23.1084 24.1425 23.0598 23.9409 23.0426C23.5506 22.9055 23.1556 22.7799 22.7672 22.6368C22.3854 22.4959 22.0092 22.3375 21.7553 22.0037C21.5384 21.7185 21.4013 21.3694 21.2959 21.0293C21.1801 20.6545 21.134 20.265 21.027 19.8896C21.0186 19.8592 20.9688 19.8558 20.9622 19.8896C20.8858 20.2835 20.8893 20.7262 20.9328 21.1239C20.9785 21.5409 21.0959 21.9502 21.3513 22.2893C21.648 22.6835 22.0505 22.903 22.5034 23.078C22.8686 23.2195 23.2386 23.3635 23.6126 23.49C23.5638 23.522 23.5143 23.5539 23.4633 23.5843C23.2605 23.7049 23.0495 23.812 22.8339 23.9081C22.4401 24.0837 22.0254 24.2152 21.6082 24.322C20.8317 24.5199 20.0355 24.6204 19.2348 24.6336C17.633 24.6602 16.0132 24.3245 14.5481 23.6764C14.1356 23.4938 13.7328 23.2931 13.334 23.0824C13.2095 23.0166 13.0843 22.9502 12.9597 22.882C12.97 22.8814 12.9807 22.8804 12.991 22.8795C13.2693 22.8532 13.5441 22.7997 13.8132 22.7239C14.3644 22.5683 14.8927 22.3256 15.4117 22.0867C15.8517 21.8841 16.3049 21.6533 16.5738 21.2313C16.7175 21.0055 16.7835 20.7406 16.837 20.4814C16.8968 20.1927 16.9672 19.9027 17.0107 19.6112C17.0261 19.5092 17.0032 19.3711 16.8937 19.3229C16.8499 19.3037 16.8139 19.2881 16.7647 19.2881C16.6561 19.2881 16.5447 19.367 16.5187 19.4754C16.4545 19.7456 16.4157 20.0233 16.3653 20.2963C16.3218 20.5324 16.2821 20.7788 16.1547 20.9864C15.9322 21.35 15.4959 21.5359 15.1272 21.7129C14.6599 21.937 14.1923 22.1556 13.7068 22.3375C13.493 22.4176 13.2755 22.4903 13.0549 22.5498C13.0636 22.4956 13.0561 22.4386 13.0242 22.3957C12.971 22.325 12.9106 22.278 12.842 22.2239C12.7675 22.165 12.6674 22.1343 12.5794 22.1603C12.5794 22.1606 12.5791 22.1603 12.5791 22.1603C12.5434 22.1525 12.504 22.1556 12.4633 22.174C12.3375 22.2317 12.212 22.2899 12.0865 22.3491C10.2808 23.1989 8.52654 24.197 7.1979 25.7172C7.00635 25.9364 6.82701 26.1669 6.65893 26.4045C6.49555 26.6353 6.29336 26.8858 6.24829 27.1719C6.24453 27.1957 6.27927 27.2067 6.28522 27.1823C6.29586 27.1381 6.31026 27.0949 6.3281 27.0529C6.29085 27.1832 6.29305 27.3216 6.34563 27.4578C6.40791 27.6181 6.52215 27.7243 6.66644 27.7665C6.52153 28.4019 6.42419 29.0456 6.34594 29.6965C6.23358 30.6343 6.15377 31.5743 6.09367 32.5167C5.97348 34.3976 5.91996 36.2879 5.95877 38.1722C5.96973 38.7048 5.98788 39.2374 6.01542 39.7697C6.0292 40.0358 6.04422 40.3016 6.06143 40.5678C6.07834 40.8296 6.06456 41.1179 6.29273 41.256C6.29555 41.2664 6.29868 41.2763 6.3015 41.2867C6.3569 41.4799 6.60384 41.4179 6.62701 41.2425C6.62732 41.2407 6.62763 41.2385 6.62794 41.2366C6.81449 41.0941 6.78632 40.8568 6.77255 40.6291C6.75783 40.3834 6.74219 40.1379 6.72904 39.8924C6.704 39.4215 6.68272 38.9506 6.66362 38.4793C6.62638 37.5475 6.60541 36.6145 6.59852 35.682C6.58475 33.8168 6.69242 31.9544 6.82012 30.0945C6.87364 29.3164 6.93624 28.5418 6.95533 27.764C7.05517 27.712 7.08585 27.5643 7.03577 27.4647C8.21824 28.2719 9.31558 29.2369 10.1966 30.3585C10.3438 30.5457 10.4843 30.7386 10.6189 30.9349C10.6627 30.9988 10.7043 31.0652 10.7463 31.1315C10.7056 31.3166 10.674 31.5048 10.6326 31.6823C10.5475 32.049 10.5115 32.4294 10.4627 32.802C10.3635 33.5588 10.2937 34.3224 10.2345 35.0833C10.1181 36.5859 10.0317 38.0883 10.0045 39.5953C9.98945 40.4475 9.96941 41.3051 10.007 42.1572C9.97912 42.3237 10.129 42.4866 10.2858 42.5075C10.4232 42.526 10.5516 42.4546 10.6117 42.3397C11.0398 42.3929 11.4793 42.4174 11.9046 42.4205C12.4777 42.4245 13.0508 42.4239 13.6239 42.4117C14.7704 42.3866 15.9165 42.3572 17.0627 42.3231C19.355 42.2555 21.6473 42.1875 23.94 42.1196C24.5757 42.1008 25.2114 42.082 25.847 42.0632C26.1337 42.0548 26.4912 42.1374 26.7171 41.9161C26.756 41.8778 26.786 41.8331 26.8073 41.7852C26.8749 41.8021 26.9578 41.7855 27.0023 41.7332C27.0852 41.6352 27.1463 41.5444 27.1431 41.4085C27.1403 41.2814 27.1052 41.1474 27.0871 41.0215C27.0527 40.7851 27.0195 40.5487 26.9879 40.312C26.9256 39.8442 26.8674 39.3758 26.8139 38.907C26.7043 37.9486 26.6048 36.988 26.5272 36.0264C26.3732 34.1249 26.3297 32.2134 26.335 30.3059C26.3356 30.1352 26.3365 29.9646 26.3375 29.7939C26.3447 29.803 26.3525 29.8115 26.361 29.8187C26.3678 29.8246 26.3747 29.8306 26.3816 29.8368C26.4617 29.9073 26.5951 29.9436 26.6912 29.8769C26.8092 29.8005 26.8905 29.6859 26.9826 29.5823C27.0793 29.4736 27.1788 29.3678 27.2793 29.2626C27.474 29.0591 27.6752 28.864 27.8805 28.6711C27.8971 28.6558 27.9137 28.6401 27.9303 28.6251C27.9315 29.2322 27.9309 29.839 27.9472 30.4458C27.9716 31.3473 28.0204 32.2478 28.0652 33.148C28.1541 34.9305 28.2461 36.7124 28.3347 38.4947C28.3594 38.9922 28.3829 39.49 28.4076 39.9876C28.4201 40.2365 28.4323 40.4854 28.4442 40.7344C28.4505 40.869 28.4567 41.004 28.463 41.1386C28.4699 41.2833 28.4608 41.4379 28.5096 41.5754C28.6207 41.8897 29.1009 41.9342 29.1932 41.5754C29.2511 41.3503 29.2067 41.0897 29.1963 40.8587C29.1857 40.6307 29.175 40.4025 29.1641 40.1742Z" fill="black"/>
<path fill-rule="evenodd" clip-rule="evenodd" d="M24.32 11.9974C23.9983 10.833 22.7685 10.325 21.6609 10.2443C18.6621 9.93183 15.6097 11.6077 14.2803 14.3253C13.2161 16.3888 13.1827 18.5564 15.4703 19.7346C15.5952 19.8037 15.7257 19.8775 15.8589 19.9445C15.9747 20.0524 16.0939 20.156 16.224 20.2431C17.4697 21.0643 18.9986 21.4194 20.4802 21.3424C22.6678 21.2982 23.4487 19.8101 23.9266 17.9017C24.4306 16.0017 24.7125 13.9402 24.32 11.9974Z" fill="#D08B5B"/>
<path fill-rule="evenodd" clip-rule="evenodd" d="M25.7556 22.9723C25.6535 22.6626 25.5255 22.3623 25.4058 22.0589C25.3805 21.9077 25.3637 21.7552 25.3593 21.6015C25.3427 21.0523 25.4452 20.4984 25.5601 19.9636C25.7937 18.8768 26.0414 17.8013 26.1657 16.6944C26.3878 14.7146 26.2557 12.6559 25.3574 10.8486C24.5791 9.28305 23.2601 8.00274 21.5564 7.52305C21.0527 7.38118 20.5343 7.30293 20.0124 7.27168C19.9478 7.26138 19.8833 7.2513 19.819 7.24159C19.0931 7.13188 18.3582 7.07721 17.6244 7.12452C16.4075 7.20302 15.2021 7.55358 14.1886 8.24693C13.1683 8.94508 12.4433 9.92399 12.106 11.118C11.755 12.3601 11.7848 13.7053 11.1788 14.8698C10.9998 15.2139 10.7908 15.541 10.5915 15.8735C10.0627 16.465 9.48856 17.1225 9.36275 17.9359C9.20752 18.941 9.7844 19.7904 10.3303 20.5748C10.8238 21.2831 11.4935 22.2612 10.9856 23.1332C10.7461 23.5447 10.3622 23.8524 10.0739 24.2276C9.77503 24.6171 9.54172 25.0642 9.42116 25.542C9.19472 26.4393 9.40304 27.3746 10.0086 28.076C10.3241 28.4411 10.7292 28.6825 11.1677 28.8707C11.6165 29.0629 12.055 29.2455 12.4261 29.5727C12.5957 29.722 12.7509 29.8858 12.8977 30.0574C13.0345 30.2719 13.1938 30.4722 13.3734 30.6557C13.5711 30.8577 13.9584 30.5812 13.7769 30.3436C13.7635 30.326 13.7503 30.3088 13.7369 30.2913C13.6042 30.1178 13.4708 29.9443 13.3312 29.7765C12.9149 29.1152 12.7546 28.3055 12.9617 27.5331C13.0154 27.3324 13.091 27.142 13.1851 26.9623C13.205 27.0146 13.2269 27.0662 13.25 27.1173C13.3399 27.3151 13.4662 27.5496 13.6267 27.7501C13.6329 27.8875 13.6536 28.0237 13.6935 28.1571C13.9409 28.984 14.7679 29.392 15.5138 29.7095C15.5868 29.7408 15.659 29.7709 15.7299 29.8006C15.9248 29.8823 16.1309 29.604 16.0094 29.4361C15.9776 29.392 15.9466 29.3469 15.9173 29.3012C15.5675 28.7583 15.401 28.1089 15.4953 27.462C15.5946 26.7778 15.9969 26.2117 16.3964 25.6685C16.7887 25.1343 17.21 24.5892 17.3855 23.9376C17.5798 23.2178 17.403 22.5001 17.1032 21.8376C16.8287 21.2313 16.463 20.6725 16.1563 20.0829C16.2613 20.1879 16.3696 20.2894 16.4813 20.3874C16.6068 20.4975 16.7357 20.6236 16.8845 20.7012C16.9945 20.7586 17.1047 20.6212 17.0176 20.5283C16.9031 20.4063 16.7566 20.312 16.6294 20.203C16.5074 20.0985 16.3888 19.9897 16.2732 19.8781C16.1309 19.7406 15.9955 19.5966 15.865 19.4483C15.7605 19.1815 15.6744 18.9075 15.6043 18.6294C15.5091 18.2531 15.421 17.8526 15.4279 17.4625C15.4347 17.0623 15.6421 16.7821 15.9182 16.5134C16.0352 16.3997 16.1532 16.2873 16.2711 16.1746C16.522 15.9899 16.7588 15.7836 16.9888 15.5778C17.3985 15.2111 17.7949 14.8235 18.1734 14.4246C18.2749 14.3176 18.3756 14.2094 18.4751 14.0999C18.8225 13.7424 19.1539 13.3692 19.4663 12.9831C19.7767 12.8697 20.075 12.7198 20.3548 12.5432C20.233 12.6668 20.11 12.789 19.9875 12.912C19.7149 13.1863 19.4316 13.4618 19.1155 13.6854C19.083 13.7086 19.1027 13.7577 19.1427 13.7499C19.5447 13.6694 19.9207 13.5354 20.2718 13.3219C20.6288 13.1046 20.9433 12.8093 21.2369 12.5131C21.403 12.438 21.5633 12.3412 21.7097 12.246C21.7175 12.241 21.7253 12.2357 21.7332 12.2307C21.5889 12.6891 21.3771 13.2082 20.9258 13.3717C20.9111 13.377 20.912 13.4014 20.9295 13.4005C21.3098 13.3781 21.6153 13.2066 21.8566 12.9567C22.0506 12.8167 22.2358 12.6684 22.4124 12.5069C22.5836 12.3505 22.7457 12.1827 22.8997 12.009C22.6845 12.4364 22.4435 12.8542 22.2057 13.2674C22.1932 13.2893 22.2195 13.3191 22.2419 13.3037C22.7439 12.9631 23.1246 12.5234 23.436 12.0036C23.4819 11.9271 23.5258 11.8493 23.5686 11.771C23.5363 11.8936 23.5011 12.0155 23.4633 12.1367C23.3949 12.3562 23.3276 12.5761 23.2591 12.7955C23.2222 12.9137 23.1772 13.0293 23.1278 13.1429C23.0925 13.2242 23.0462 13.3053 23.039 13.3945C23.0385 13.4004 23.045 13.4043 23.0501 13.403C23.2503 13.3528 23.4366 13.124 23.5792 12.9822C23.6587 12.9033 23.7331 12.8167 23.8015 12.7253C23.8142 13.2516 23.8229 13.7779 23.8114 14.3057C23.7899 15.2751 23.7274 16.2441 23.6474 17.2104C23.5768 18.0646 23.5247 18.961 23.0493 19.7034C22.6814 20.278 22.0848 20.6756 21.4368 20.8682C21.3796 20.8854 21.3221 20.9007 21.2643 20.9145C20.3261 21.1378 19.3916 20.8848 18.5621 20.4376C18.3128 20.3033 18.0998 20.6678 18.3403 20.8177C19.2405 21.3795 20.3814 21.5708 21.4002 21.3191C21.3681 22.5254 21.9612 23.6699 22.5511 24.6931C22.8813 25.2658 23.2117 25.8348 23.4451 26.4557C23.643 26.9829 23.7777 27.5299 23.8229 28.0926C23.8767 28.7558 23.8239 29.4227 23.7314 30.0802C23.7264 30.1159 23.7214 30.1519 23.7161 30.1876C23.6955 30.3288 23.822 30.4472 23.9591 30.3749C24.5654 30.0555 24.8268 29.3748 24.9857 28.7454C25.1344 28.1558 25.2353 27.5547 25.2915 26.9494C25.374 27.1777 25.4408 27.4116 25.4927 27.6501C25.4999 27.6843 25.5067 27.7184 25.5136 27.7526C25.5529 27.952 25.854 27.9379 25.9021 27.7526C25.9109 27.7191 25.9193 27.6856 25.9271 27.6517C26.1754 26.6451 26.2422 25.5952 26.1111 24.566C26.042 24.0247 25.9268 23.4905 25.7556 22.9723Z" fill="black"/>
<path fill-rule="evenodd" clip-rule="evenodd" d="M21.2085 19.0034C20.9981 18.9175 20.8103 18.7743 20.6731 18.5913C20.6254 18.5277 20.613 18.4606 20.623 18.3991C20.6343 18.33 20.6751 18.2674 20.7308 18.2254C20.7867 18.1833 20.8566 18.1625 20.9242 18.1731C20.9829 18.1823 21.0414 18.2145 21.0876 18.2812L21.0973 18.2946C21.1789 18.405 21.2852 18.4956 21.4064 18.554C21.5232 18.6103 21.6538 18.6366 21.7889 18.6213C22.0463 18.5922 22.2237 18.4529 22.4123 18.2638C22.4357 18.24 22.459 18.2153 22.4825 18.1903C22.4974 18.1676 22.518 18.153 22.5408 18.1454C22.5662 18.1369 22.595 18.1374 22.6213 18.1466C22.6466 18.1554 22.6693 18.1722 22.6845 18.1946C22.699 18.2158 22.7072 18.242 22.7045 18.2722C22.6873 18.4682 22.5849 18.6431 22.4394 18.7804C22.2778 18.933 22.0636 19.0385 21.862 19.0755C21.6398 19.1163 21.4134 19.087 21.2085 19.0034ZM21.9668 15.98C22.2031 16.1237 22.5632 16.4588 22.309 16.8151C22.0097 17.1293 21.5788 16.7691 21.3664 16.6062C21.1695 16.4799 20.9483 16.8047 21.131 16.9521C22.6654 18.0885 23.2881 16.0176 22.0863 15.811C21.954 15.7883 21.9048 15.9355 21.9668 15.98ZM19.2171 14.658C19.2432 14.3338 19.7369 14.2601 19.786 14.581C19.83 14.8684 19.7782 15.1325 19.6488 15.3913C19.5251 15.6385 19.2143 15.5232 19.1908 15.298C19.1593 14.9963 19.2009 14.8597 19.2171 14.658ZM22.975 14.5145C23.0438 14.4243 23.1432 14.3627 23.2622 14.3975C23.6342 14.5063 23.5246 15.0346 23.3939 15.2917C23.323 15.4314 23.0935 15.4668 22.9898 15.3438C22.8208 15.1433 22.7399 14.7429 22.9547 14.5454C22.9605 14.5352 22.967 14.5249 22.975 14.5145ZM19.6435 13.2391L19.7023 13.2288C19.8841 13.1974 20.1101 13.1672 20.2387 13.3134C20.3069 13.3909 20.3304 13.535 20.2387 13.6092C20.0774 13.7398 19.8992 13.6892 19.7059 13.7002C19.5467 13.7094 19.3936 13.7357 19.2402 13.7796C18.9037 13.8758 18.6295 14.0515 18.3421 14.2443C18.3044 14.2696 18.2659 14.2214 18.2839 14.1861C18.4498 13.861 18.7713 13.5939 19.0934 13.4312C19.2653 13.3443 19.4534 13.2722 19.6435 13.2391ZM22.6359 13.0935L22.6809 13.1027C23.1703 13.2051 23.8062 13.4095 24.0379 13.8904C24.0468 13.9584 24.0374 13.973 24.0298 13.9825L24.0273 13.9857C24.0211 13.9938 24.0161 14.005 23.9866 14.0143C23.9784 14.0123 23.9702 14.0103 23.9618 14.0081C23.8556 13.9802 23.7715 13.9419 23.6902 13.902L23.6019 13.8586C23.4996 13.8083 23.3963 13.76 23.2869 13.7242C23.0533 13.648 22.8131 13.5943 22.5691 13.5657C22.5162 13.5595 22.4653 13.5416 22.4252 13.511C22.387 13.482 22.3579 13.4418 22.3446 13.3883C22.3274 13.3192 22.3324 13.2668 22.3695 13.2044C22.3973 13.1575 22.4373 13.1251 22.4831 13.1064C22.5298 13.0874 22.583 13.0829 22.6359 13.0935Z" fill="black"/>
</svg>
