<svg width="36" height="48" viewBox="0 0 36 48" fill="none" xmlns="http://www.w3.org/2000/svg">
<path fill-rule="evenodd" clip-rule="evenodd" d="M7.03189 42.3639C11.1209 42.9853 15.2841 43.0165 19.4072 42.7909C21.0389 42.6687 22.6756 42.6467 24.3061 42.8029C25.2695 42.8746 29.4936 43.1976 29.8387 42.3344C29.6215 37.7377 29.1816 33.102 27.832 28.6812C27.2769 27.1114 26.8002 25.8086 25.717 24.5096C25.3756 24.1549 24.6393 23.4111 24.2174 23.1685C23.8519 22.9584 23.6992 23.0333 23.4893 22.6784C23.2807 22.2863 23.1269 21.6315 22.8308 21.3548C22.5293 21.0731 22.0824 21.1739 21.5286 21.2646C21.6304 19.8891 20.9957 19.5388 20.1213 19.2772C18.5844 18.6904 17.0665 18.9852 16.6797 20.8569C15.9624 20.8569 15.5595 21.1656 15.124 21.4623C14.9459 21.5836 15.0698 21.8926 14.8571 21.9879C14.4636 22.1281 13.7683 22.0938 13.3895 22.2662C11.6667 23.0506 10.1322 24.188 9.1245 25.8491C6.86534 29.3956 5.31348 36.8663 5.58202 41.0697C5.46436 41.2543 5.62706 41.5189 5.66842 41.7174C5.72062 41.8901 5.88967 42.0049 6.06609 41.9853C6.31228 42.2502 6.69308 42.3091 7.03189 42.3639Z" fill="#D08B5B"/>
<path fill-rule="evenodd" clip-rule="evenodd" d="M15.5389 21.138C15.7909 20.8751 16.1859 20.7181 16.5601 20.7269L16.5776 20.7275L16.7046 20.7331L16.6197 21.1497L16.6154 21.1694L16.5981 21.2417L16.5751 21.3364L16.5669 21.3712L16.5582 21.4097C16.5569 21.416 16.5555 21.4222 16.5542 21.4283L16.5505 21.4465L16.5143 21.6235L16.521 21.6392L16.5191 21.6794C16.5135 21.8248 16.5448 21.9047 16.6137 21.9303L16.6193 21.9322L16.6586 21.9449L16.6907 22.0146C16.7646 22.1739 16.8335 22.3132 16.9043 22.4443C17.1106 22.8267 17.3569 23.209 17.6407 23.5931C17.9104 23.9582 18.1914 24.3066 18.4835 24.6374C18.6149 24.7862 18.7536 24.9356 18.9013 25.0876L19.0284 25.2179L19.0689 25.2588L19.0961 25.2859L19.13 25.3192L19.1789 25.3658L19.2143 25.4007L19.2258 25.4116C19.2402 25.425 19.2514 25.4341 19.2615 25.4406L19.2652 25.4429L19.2764 25.4495L19.8657 26.0696L20.0739 26.1841L20.1727 26.2389L20.1928 26.199L20.1968 26.1862L20.4159 25.705L20.5496 25.4102C20.8241 24.8039 21.0377 24.3215 21.2331 23.8622L21.2574 23.8049L21.3294 23.634L21.3675 23.5428C21.5421 23.1243 21.6711 22.8013 21.7865 22.4875L21.8029 22.4427L21.8272 22.3757L21.8633 22.2746L21.8699 22.2573C21.9012 22.177 21.8242 21.8852 21.7483 21.7253L21.7441 21.7164L21.7243 21.6768L21.703 21.635C21.6528 21.5371 21.6165 21.4284 21.586 21.2969C21.581 21.2756 21.5764 21.2541 21.572 21.2325L21.5656 21.1999L21.5616 21.1785L21.556 21.1486L21.5479 21.1057L21.7177 21.0773L21.8108 21.0621L21.8514 21.0558C21.904 21.0476 21.9509 21.041 21.9949 21.0354L22.0113 21.0333L22.0409 21.0298L22.0419 21.0357L22.1025 21.0416L22.1474 21.0463C22.3689 21.0697 22.5398 21.0955 22.6611 21.1242L22.6731 21.127L22.6947 21.1325L22.7046 21.1351C22.815 21.1648 22.9 21.229 22.9673 21.3237C23.0134 21.3887 23.0434 21.4509 23.0908 21.5688L23.1078 21.6114L23.1642 21.7509C23.1708 21.7679 23.181 21.795 23.1948 21.8323L23.2427 21.9627L23.4827 22.6257L23.7283 22.7549C23.8424 22.8147 23.9259 22.8578 23.9672 22.8781L23.9818 22.8853L23.9922 22.89L24.0769 22.9236L24.0678 22.95L24.078 22.9559C25.089 23.5377 25.8687 24.4327 26.4757 25.6209L26.4941 25.657L26.5129 25.6944C26.9966 26.6623 27.3432 27.7424 27.6817 29.1844L27.7026 29.274L27.7191 29.3453L27.8073 29.7302C28.1388 31.1831 28.3666 32.2665 28.5552 33.3296L28.5674 33.3989L28.5988 33.5795C28.8356 34.9555 29.0338 36.3191 29.1924 37.6692L29.2188 37.8965C29.2849 38.4766 29.3447 39.0763 29.4096 39.7965L29.4183 39.8932L29.4469 40.2167C29.4773 40.5652 29.5051 40.9131 29.5302 41.2602L29.5426 41.4337L29.568 41.8109L29.5829 42.0259L29.5847 42.055L29.5907 42.167L29.5924 42.1933C29.5947 42.227 29.5973 42.2554 29.6005 42.2816L29.6031 42.301L29.606 42.3198C29.6143 42.3711 29.6309 42.4171 29.6583 42.4685L29.6653 42.4814L29.7123 42.5655L29.6271 42.6103C29.183 42.8444 28.3087 42.9473 27.1092 42.9527L27.0728 42.9528H26.9978C26.4149 42.9525 25.7972 42.93 25.1527 42.8916L25.0069 42.8827L24.8853 42.8749C24.8328 42.8715 24.7818 42.8681 24.7289 42.8644L24.6478 42.8587L24.3089 42.8339C22.7844 42.6878 21.1857 42.6902 19.4241 42.8222C14.8314 43.0735 10.8673 42.9674 7.14144 42.4111L7.02861 42.3941L6.94546 42.3806L6.89587 42.3723C6.50066 42.3048 6.25251 42.2183 6.05887 42.0367L6.04873 42.0271L6.04028 42.0188L6.03662 42.0189C5.84165 42.018 5.66316 41.8904 5.59694 41.7023L5.5935 41.6922L5.58913 41.6781L5.58611 41.6641C5.58303 41.6506 5.57917 41.636 5.57449 41.6201L5.57082 41.6078L5.54004 41.5069L5.64373 41.488C5.65267 41.4863 5.66196 41.4801 5.67097 41.467L5.67961 41.4547L5.69456 41.4339L5.73068 41.3844C5.76915 41.3304 5.78808 41.2966 5.79746 41.2625C5.80576 41.2324 5.80887 41.1938 5.80797 41.14L5.80727 41.1138L5.80319 41.0186C5.80292 41.011 5.80274 41.0043 5.80262 40.9979L5.80249 40.9883L5.80242 40.8543L5.80276 40.7071C5.80299 40.6428 5.80336 40.5802 5.80385 40.5186L5.80469 40.4271L5.80552 40.3534C5.81051 39.9455 5.82248 39.5379 5.84142 39.1311C5.87845 38.3366 5.94196 37.5434 6.03181 36.7531C6.21733 35.1216 6.5015 33.5393 6.88807 32.0102L6.9269 31.8575C7.34487 30.2233 7.74787 28.9635 8.26008 27.7984C8.91155 26.3167 9.70588 25.0972 10.706 24.1222C11.2559 23.5862 11.8649 23.1337 12.512 22.7867C12.8096 22.6271 13.126 22.4855 13.4652 22.3581L13.5138 22.34L13.5923 22.3113L13.6525 22.2891L13.8464 22.2166C13.8872 22.2013 13.9316 22.1842 13.9841 22.1635L14.0165 22.1507L14.3639 22.0121L14.4216 21.9894L14.4857 21.9644L14.5329 21.9463C14.6099 21.9169 14.6797 21.8913 14.7445 21.8686L14.7828 21.8554L14.8176 21.8437L14.9658 21.7924L14.9629 21.9273C14.961 22.017 14.9841 22.0848 15.0354 22.1335L15.0371 22.135L15.0389 22.1365L15.0405 22.1375L15.0495 22.1373L15.0845 22.1371C15.0881 22.1351 15.0915 22.1328 15.0947 22.1301C15.1445 22.0877 15.1677 22.0309 15.1902 21.9007L15.1962 21.8644L15.2066 21.7965L15.2107 21.7708C15.2257 21.6804 15.2388 21.6305 15.2642 21.5734C15.3009 21.4909 15.3494 21.4105 15.4065 21.3366L15.4198 21.3197L15.4732 21.2555L15.4814 21.2454C15.5001 21.2214 15.5096 21.2045 15.5137 21.189L15.5146 21.1848L15.5199 21.1579L15.5389 21.138Z" fill="#FFCF77"/>
<path fill-rule="evenodd" clip-rule="evenodd" d="M23.9564 23.0646C23.9313 23.0506 23.9534 23.0147 23.9786 23.0265C25.1913 23.5957 26.1216 24.5941 26.7762 25.7478C27.454 26.9424 27.8403 28.2986 28.1734 29.6243L28.1854 29.6722C28.5405 31.0902 28.8425 32.523 29.1144 33.9592C29.3897 35.4136 29.6107 36.8771 29.7885 38.3466C29.8764 39.0732 29.9548 39.801 30.016 40.5304C30.0465 40.8948 30.0743 41.2596 30.0992 41.6245C30.1092 41.7704 30.1186 41.9163 30.1266 42.0624L30.1324 42.172C30.1374 42.2714 30.1492 42.371 30.1246 42.469C30.1035 42.5535 30.0587 42.6301 30.0194 42.7076C29.9416 42.861 29.7283 42.8357 29.6444 42.7076L29.6201 42.6703C29.5645 42.5844 29.5183 42.5045 29.5008 42.3975C29.484 42.2939 29.4833 42.1853 29.4758 42.0807C29.4618 41.8881 29.45 41.6954 29.4364 41.5028C29.4081 41.0974 29.3762 40.6922 29.3409 40.2874C29.271 39.4881 29.1961 38.6896 29.1041 37.8926C28.9407 36.476 28.7356 35.0633 28.4938 33.658C28.2576 32.2853 27.9589 30.9265 27.6474 29.5693L27.6151 29.429C27.0696 27.0595 26.2288 24.3308 23.9564 23.0646ZM11.0397 32.3428C11.0486 32.3191 11.087 32.3136 11.0935 32.3428C11.1752 32.7107 11.1833 33.0897 11.1957 33.4664C11.2081 33.838 11.2075 34.2113 11.2021 34.5831C11.1822 35.9496 11.1447 37.3149 11.1122 38.6812C11.096 39.3647 11.0808 40.0482 11.0691 40.7317C11.0647 40.9881 11.061 41.2444 11.0579 41.5008L11.0542 41.8389C11.0523 41.9884 11.0484 42.1361 11.0301 42.2854C11.0181 42.3836 10.9925 42.4773 10.9383 42.5615C10.8998 42.6213 10.845 42.6516 10.7916 42.6922L10.7816 42.7C10.7134 42.7539 10.6416 42.7542 10.5741 42.7L10.5545 42.6845C10.49 42.634 10.4343 42.5946 10.3931 42.5148C10.3358 42.4039 10.3266 42.2834 10.3169 42.1611C10.3021 41.9758 10.3119 41.7877 10.3138 41.6018C10.3177 41.2289 10.3228 40.856 10.3294 40.4831C10.3534 39.1157 10.4008 37.7481 10.4873 36.3831C10.528 35.7402 10.5833 35.0952 10.6574 34.4549L10.6715 34.3349C10.694 34.1465 10.7145 33.9547 10.7376 33.7623C10.3927 33.5197 10.0896 33.2253 9.83118 32.8914C9.81215 32.8668 9.84348 32.8323 9.86645 32.8561C10.1306 33.1297 10.4334 33.3478 10.7686 33.5192C10.8235 33.1165 10.8991 32.716 11.0397 32.3428ZM16.8004 20.1538C16.8051 20.1501 16.8125 20.1485 16.817 20.1538C16.8911 20.2402 16.8761 20.3724 16.8785 20.4819L16.8787 20.4921C16.8841 20.6523 16.8851 20.8119 16.8845 20.9722L16.8829 21.4823C16.8826 21.5524 16.877 21.6254 16.8806 21.696L16.8824 21.7233C16.9214 21.7632 16.9395 21.8208 16.9263 21.8787C16.9239 21.953 16.8851 22.0149 16.8284 22.0539L16.9498 22.2261L17.0713 22.3982C17.3216 22.7535 17.5747 23.1055 17.8385 23.451C18.1075 23.8032 18.3945 24.1421 18.6947 24.468C18.8414 24.6273 18.9906 24.7843 19.1433 24.9378C19.2054 25.0002 19.2689 25.0611 19.3318 25.1226L19.3944 25.1844C19.4314 25.2214 19.4779 25.258 19.5024 25.3049C19.5168 25.3325 19.5201 25.4006 19.5253 25.4119C19.5716 25.5138 19.4926 25.6762 19.3612 25.6254L19.3672 25.6214C19.3911 25.6048 19.3758 25.6045 19.3212 25.6207C19.2868 25.6206 19.2545 25.6126 19.2243 25.597L19.2154 25.592C19.1729 25.5704 19.135 25.5286 19.1005 25.4952L19.0919 25.4871C19.013 25.4131 18.9378 25.3347 18.8622 25.2574C18.7043 25.0961 18.5501 24.9313 18.4007 24.7622C18.1027 24.4247 17.8203 24.0736 17.5528 23.7115C17.2803 23.3428 17.027 22.9551 16.8092 22.5515C16.7265 22.3983 16.6508 22.2422 16.5781 22.0843C16.4367 22.0389 16.4039 21.8884 16.4137 21.7189C16.3616 21.5974 16.3145 21.4733 16.2868 21.3466C16.283 21.3292 16.3053 21.3128 16.3186 21.328C16.3639 21.3794 16.4057 21.4341 16.446 21.4903C16.4703 21.3715 16.501 21.2621 16.5155 21.1924L16.5782 20.8846C16.2249 20.8662 15.8378 21.0114 15.5943 21.2656C15.5812 21.3318 15.5303 21.3792 15.4806 21.441C15.4239 21.5118 15.3744 21.5911 15.3375 21.6741C15.2557 21.8581 15.3019 22.1292 15.143 22.2642C15.1265 22.2783 15.108 22.2881 15.0889 22.2941C15.1643 22.6638 15.13 23.0712 15.1284 23.4463L15.1283 23.4793C15.1287 23.8991 15.1147 24.3192 15.0985 24.7387L15.082 25.1538C15.0606 25.7074 15.0467 26.2613 15.1005 26.8119C15.3461 26.5944 15.6 26.3867 15.8626 26.189C16.0353 26.0589 16.2114 25.9334 16.3908 25.8127L16.5365 25.7153C16.7111 25.5981 16.89 25.4776 17.0812 25.3937C17.3313 25.284 17.5691 25.3217 17.8105 25.4342C18.0509 25.5463 18.2842 25.6764 18.5201 25.7979C18.7599 25.9214 19.0003 26.0438 19.2405 26.1666C19.3996 26.2479 19.6328 26.3214 19.7495 26.4711C19.757 26.438 19.7657 26.4049 19.7758 26.372C19.7642 26.3218 19.7687 26.2676 19.7968 26.2159C20.189 25.495 20.5519 24.7569 20.9122 24.0198C21.0945 23.6467 21.2679 23.2692 21.4507 22.8963L21.6283 22.5332C21.658 22.4727 21.6877 22.4123 21.7177 22.3519C21.7625 22.2615 21.8092 22.172 21.8545 22.0819C21.8736 22.0438 21.8976 22.006 21.9163 21.9675L21.9251 21.9483C21.9256 21.9473 21.9686 21.8119 21.9353 21.8248L21.9325 21.8262C21.9155 21.8358 21.9019 21.8144 21.9129 21.8008C21.9599 21.7426 22.0254 21.7942 22.0522 21.848C22.1261 21.9961 21.9907 22.2286 21.9386 22.3705L21.9358 22.3784C21.7741 22.8361 21.5911 23.2853 21.4035 23.7329C21.0439 24.591 20.6576 25.436 20.2722 26.2824L20.2676 26.297C20.3498 26.234 20.4376 26.1767 20.5127 26.1211C20.7023 25.9806 20.8974 25.847 21.0922 25.7139C21.4495 25.4697 21.8164 25.2416 22.1894 25.0226L22.2641 24.9789C22.4504 24.8703 22.635 24.7822 22.8561 24.8148C23.0616 24.8451 23.2526 24.9555 23.4382 25.0452L23.4574 25.0544L24.031 25.3272C23.9697 25.0826 23.9033 24.8392 23.834 24.5967C23.6989 24.1237 23.5503 23.6546 23.3891 23.1898C23.2386 22.7555 23.0758 22.3259 22.9037 21.8997L22.8518 21.7718C22.7816 21.5964 22.7119 21.405 22.5113 21.351C22.3108 21.297 22.0808 21.3771 21.8976 21.2628C21.881 21.2524 21.883 21.2249 21.9032 21.2198L22.0163 21.1913C22.2285 21.1385 22.4774 21.0854 22.6781 21.1367C22.8966 21.1927 23.0773 21.3761 23.1833 21.5668C23.3011 21.7789 23.3842 22.0162 23.4736 22.2424L23.4878 22.278C23.5904 22.5339 23.6891 22.7914 23.7836 23.0505C23.9724 23.5684 24.1444 24.0925 24.3 24.6213C24.375 24.8762 24.4461 25.1323 24.5145 25.389C24.5342 25.4629 24.5666 25.5524 24.5932 25.6457C24.6237 25.6755 24.6525 25.7087 24.6796 25.7465C24.7245 25.8093 24.6923 25.883 24.6365 25.9206C24.6343 25.9848 24.62 26.0453 24.5859 26.0971C24.4527 26.2993 24.1006 26.2472 24.115 25.9753C24.1171 25.9337 24.1333 25.894 24.1579 25.8604L24.1572 25.855L24.1544 25.845C24.0933 25.8157 24.0319 25.783 23.9672 25.7511L23.3652 25.4535C23.1909 25.3673 22.9977 25.2342 22.8038 25.2013C22.6231 25.1707 22.4324 25.3054 22.2771 25.3867L22.267 25.3919C21.8916 25.5844 21.5189 25.7833 21.1478 25.9838C20.9666 26.0817 20.7877 26.1837 20.6072 26.2828C20.4563 26.3656 20.2934 26.4845 20.1238 26.5313C20.0513 26.5876 19.9652 26.5801 19.8961 26.5375C19.9277 26.7333 19.9257 26.9343 19.9355 27.1346C19.9485 27.4022 19.9505 27.6707 19.9548 27.9387L19.9565 28.0392C19.9679 28.6318 19.974 29.2246 19.9763 29.8173C19.9843 31.9279 19.961 34.0392 19.9555 36.1498C19.9528 37.2102 19.9318 38.2716 19.9042 39.3316C19.8926 39.7808 19.8682 40.2294 19.8418 40.6779L19.8273 40.9226C19.7966 41.4387 19.7785 41.9606 19.6829 42.4698C19.6705 42.5362 19.5581 42.5379 19.5471 42.4698C19.4592 41.9242 19.4543 41.3666 19.4374 40.8145L19.4338 40.7042C19.4135 40.1115 19.4039 39.5191 19.4059 38.9261C19.4134 36.8146 19.4683 34.7045 19.5132 32.5936C19.5358 31.5331 19.5509 30.472 19.586 29.4118C19.6035 28.8813 19.6234 28.3511 19.6469 27.8208C19.6574 27.5841 19.6675 27.3475 19.6833 27.1111L19.6904 27.0098C19.6952 26.9437 19.6992 26.8784 19.704 26.8137C19.4904 26.8918 19.2951 26.7473 19.103 26.6484C18.8816 26.5345 18.6603 26.4204 18.4388 26.3067L18.2171 26.1931L17.7734 25.9667C17.5737 25.8647 17.4198 25.7632 17.2068 25.8828C16.4392 26.3136 15.7339 26.8868 15.0947 27.4882C14.9721 27.6036 14.7131 27.5726 14.6821 27.3793C14.5495 26.5534 14.6301 25.7156 14.6978 24.8873L14.7228 24.5797C14.753 24.2124 14.786 23.8451 14.8299 23.4793C14.8495 23.3156 14.8691 23.1521 14.8907 22.9888L14.9073 22.8663C14.9344 22.6727 14.952 22.4803 15.0097 22.2946C14.9915 22.2887 14.974 22.2791 14.9584 22.2642C14.785 22.0997 14.8686 21.8143 14.9477 21.6186C15.0258 21.4254 15.1449 21.2568 15.294 21.1117C15.3265 21.08 15.3724 21.0597 15.4185 21.0586C15.7801 20.8189 16.1767 20.6993 16.5896 20.8301C16.6012 20.7747 16.613 20.7193 16.6255 20.6641L16.6381 20.6089C16.6703 20.4718 16.6822 20.2454 16.8004 20.1538ZM20.5063 41.7966C20.6185 41.7657 20.7414 41.7983 20.8236 41.8805C20.9058 41.9628 20.9384 42.0857 20.9074 42.1979C20.892 42.2532 20.864 42.3011 20.8236 42.3419C20.7858 42.3794 20.7418 42.4062 20.6914 42.4222L20.6797 42.4258L20.6614 42.4334C20.6051 42.4485 20.5488 42.4485 20.4926 42.4334C20.4389 42.4183 20.3922 42.3911 20.3526 42.3518C20.3132 42.3121 20.286 42.2654 20.2709 42.2116C20.2558 42.1554 20.2558 42.0991 20.2709 42.0428L20.2786 42.0245C20.2941 41.9692 20.322 41.9212 20.3624 41.8805C20.4031 41.8401 20.4511 41.8121 20.5063 41.7966ZM27.1689 30.6111C27.1873 30.5899 27.2172 30.617 27.2058 30.6395C27.031 30.9823 26.8362 31.3226 26.6447 31.6567C26.6601 31.7493 26.6753 31.8411 26.6928 31.9306C26.7674 32.3122 26.8587 32.6868 26.9183 33.072C27.1324 34.4566 27.2435 35.8562 27.3389 37.2531C27.4345 38.6551 27.4468 40.0577 27.4611 41.4625C27.4624 41.5842 27.3688 41.7257 27.2433 41.7487C27.1859 41.7592 27.1429 41.7571 27.0856 41.7487C26.9551 41.7294 26.8734 41.5798 26.8678 41.4625C26.8304 40.6774 26.78 39.8933 26.7217 39.1094C26.6183 37.7197 26.5551 36.3264 26.4715 34.9352L26.4421 34.449C26.4105 33.9221 26.3817 33.3949 26.3723 32.8673C26.366 32.5178 26.3847 32.1683 26.3732 31.8191C26.3626 31.4968 26.3299 31.1463 26.401 30.8296C26.4036 30.8177 26.4223 30.8147 26.4278 30.8261C26.5016 30.9816 26.5484 31.1507 26.5845 31.3233C26.7748 31.0825 26.9687 30.8411 27.1689 30.6111ZM14.6995 22.0961C14.7263 22.0941 14.7252 22.1343 14.6995 22.1373C14.326 22.1806 13.9651 22.3327 13.6123 22.462L13.5821 22.473C13.2257 22.6024 12.8783 22.7528 12.5439 22.9321C11.8902 23.2826 11.2899 23.7346 10.7591 24.2521C8.64 26.3177 7.67428 29.2965 6.96664 32.0958C6.57346 33.651 6.29387 35.2326 6.11265 36.8263C6.02304 37.6144 5.95969 38.4056 5.92276 39.198C5.90385 39.6041 5.89193 40.0106 5.88695 40.4171C5.88439 40.6253 5.88363 40.8336 5.88388 41.0418C5.88401 41.1372 5.90104 41.2574 5.87553 41.35C5.85187 41.4359 5.78514 41.5114 5.73578 41.583C5.67728 41.6678 5.57215 41.6633 5.51284 41.583L5.49096 41.5537C5.42771 41.4698 5.36582 41.3895 5.35678 41.2798C5.34711 41.1622 5.35393 41.041 5.35349 40.9228C5.35249 40.6848 5.35543 40.4468 5.36019 40.2089C5.36936 39.7528 5.38733 39.2969 5.41403 38.8415C5.46823 37.9174 5.55747 36.9951 5.68523 36.0782C5.91234 34.4485 6.25274 32.8343 6.69863 31.2504C7.11928 29.7563 7.61762 28.2666 8.32755 26.8826C8.9867 25.5976 9.85143 24.4021 10.9925 23.5041C11.5231 23.0864 12.1007 22.7384 12.7234 22.4763C13.0375 22.3441 13.3674 22.2361 13.7028 22.1746C14.0345 22.1138 14.3648 22.1223 14.6995 22.0961ZM20.5706 39.1556C20.6299 39.1552 20.696 39.1682 20.7468 39.201L20.8147 39.2535C20.8331 39.2772 20.8514 39.3009 20.8697 39.3247C20.9121 39.38 20.9178 39.4696 20.9089 39.5356C20.9069 39.5797 20.8938 39.6206 20.8697 39.6586L20.818 39.7256C20.7683 39.7661 20.7268 39.795 20.6666 39.8146C20.6352 39.8247 20.6049 39.8269 20.5747 39.8253L20.5646 39.8247L20.5706 39.8255L20.5601 39.8243C20.5502 39.8234 20.5404 39.8224 20.5305 39.821C20.5238 39.8202 20.517 39.8197 20.5103 39.8187C20.5038 39.8182 20.4975 39.818 20.491 39.8186C20.4145 39.8258 20.3376 39.7824 20.2833 39.7325C20.2344 39.6876 20.1905 39.5923 20.1973 39.5248L20.2002 39.4965C20.2053 39.4489 20.2096 39.4302 20.2297 39.3824C20.2493 39.3358 20.2767 39.2948 20.314 39.2601C20.3854 39.1937 20.4727 39.1563 20.5706 39.1556ZM20.3339 35.6712C20.4354 35.5605 20.6098 35.5524 20.7357 35.6194C20.7663 35.6357 20.7945 35.6619 20.8216 35.6838C20.8897 35.7389 20.9165 35.8383 20.9202 35.922C20.9239 36.0049 20.8803 36.1032 20.8216 36.1604L20.8073 36.1742C20.7722 36.2083 20.722 36.238 20.6729 36.247C20.5937 36.2616 20.5273 36.2611 20.4535 36.23C20.3902 36.2033 20.3356 36.1603 20.2985 36.102L20.2925 36.0921C20.2899 36.0881 20.2875 36.0839 20.2853 36.0796L20.282 36.0732C20.2114 35.9375 20.2304 35.7839 20.3339 35.6712ZM20.3864 32.1685C20.4322 32.1541 20.478 32.1521 20.5238 32.1623C20.5549 32.1624 20.5838 32.1703 20.6107 32.1858C20.6399 32.194 20.6652 32.2088 20.6867 32.2302C20.7125 32.2454 20.7332 32.266 20.7485 32.2919C20.7789 32.3252 20.7995 32.3643 20.8101 32.4091L20.8224 32.5007L20.8101 32.5923L20.7754 32.6746C20.7658 32.6871 20.7562 32.6995 20.7465 32.7119C20.7312 32.7379 20.7105 32.7586 20.6846 32.7739C20.6677 32.7907 20.6484 32.8033 20.6268 32.812C20.5501 32.867 20.4479 32.8849 20.3571 32.8599C20.3031 32.8448 20.2562 32.8174 20.2165 32.7779C20.1771 32.7382 20.1497 32.6913 20.1346 32.6374L20.1284 32.5943C20.1204 32.5365 20.1191 32.5045 20.1355 32.431C20.1427 32.3987 20.1635 32.3531 20.1744 32.3339C20.2209 32.252 20.297 32.1959 20.3864 32.1685ZM24.3624 29.6485C24.4939 29.6476 24.6254 29.6478 24.7569 29.6493L24.8554 29.6506C25.0205 29.6532 25.162 29.6361 25.2918 29.7507C25.386 29.8339 25.3445 29.9734 25.255 30.0361C25.1195 30.131 24.9496 30.0832 24.7938 30.0728C24.6296 30.0618 24.4652 30.0526 24.3008 30.0452C23.9824 30.031 23.6638 30.0219 23.3451 30.0205C23.0271 30.0191 22.7086 30.0222 22.3906 30.0273C22.067 30.0325 21.7301 30.0627 21.4084 30.0292C21.3642 30.0246 21.3542 29.9664 21.3979 29.9513C21.701 29.8464 22.0421 29.8124 22.3599 29.7723C22.6876 29.7309 23.0153 29.7016 23.3451 29.6825C23.6839 29.6631 24.0231 29.6509 24.3624 29.6485ZM20.3858 28.6179L20.3967 28.6181C20.4546 28.6183 20.5087 28.6319 20.5592 28.659L20.57 28.665L20.6395 28.7187C20.682 28.7616 20.7115 28.8121 20.7277 28.8702L20.74 28.9615C20.7418 29.0088 20.7319 29.0529 20.7105 29.0939C20.6966 29.1364 20.6729 29.1733 20.6395 29.2044C20.6084 29.2379 20.5715 29.2615 20.529 29.2754C20.4912 29.2952 20.4507 29.3052 20.4075 29.3052L20.3967 29.305C20.3348 29.3048 20.277 29.2892 20.2235 29.2581L20.1539 29.2044C20.1114 29.1615 20.0819 29.111 20.0657 29.0528L20.0534 28.9615C20.0516 28.9143 20.0614 28.8701 20.083 28.8292C20.0968 28.7866 20.1205 28.7498 20.1539 28.7187C20.185 28.6852 20.2219 28.6615 20.2645 28.6477C20.3022 28.6278 20.3427 28.6179 20.3858 28.6179ZM21.4036 20.5499C21.4776 20.4428 21.6117 20.5381 21.5925 20.6243C21.5975 20.8663 21.6099 21.1011 21.665 21.3382C21.6902 21.4467 21.7232 21.5554 21.7741 21.6548L21.7955 21.6966C21.8614 21.8269 21.9126 21.9498 21.8238 22.0927C21.782 22.1601 21.7063 22.2107 21.6244 22.2071C21.2608 22.1914 21.2109 21.6852 21.1888 21.4026C21.166 21.1116 21.2368 20.7918 21.4036 20.5499Z" fill="black"/>
<path fill-rule="evenodd" clip-rule="evenodd" d="M19.289 7.47363C20.6874 7.47363 22.3651 8.15323 22.5078 8.16682L22.5116 8.16703C22.5867 8.16703 22.8799 8.391 23.3914 8.83895L22.8374 9.92213L22.8822 9.96505C23.0968 10.1712 23.2799 10.3592 23.4245 10.5073C24.6048 11.717 24.817 16.4666 24.5388 18.1229C24.2606 19.7793 23.7454 21.4 21.3468 21.4C18.9481 21.4 16.2796 19.9542 15.8685 19.5039C15.5945 19.2037 15.2866 19.0599 14.945 19.0725C14.931 19.0547 14.9171 19.037 14.9033 19.0193L14.853 19.0122C14.3802 18.9436 14.0415 18.8512 13.8367 18.7351C13.4369 18.5083 12.9974 17.3159 12.9974 17.0533C12.9974 16.7933 12.3411 14.9017 12.3279 14.7015L12.3277 14.696C12.3277 14.5286 11.4704 13.7594 11.4704 13.5151C11.4704 13.2708 11.2975 13.2856 11.4704 12.4248L11.5206 12.1719C11.7045 11.2553 12.0644 9.73763 13.4369 9.07815C14.945 8.35344 17.8766 7.47363 19.289 7.47363Z" fill="#D08B5B"/>
<path fill-rule="evenodd" clip-rule="evenodd" d="M22.8711 9.86522C22.5474 9.87694 22.1964 9.89233 21.8329 9.91255C21.072 9.95489 20.2649 10.0179 19.5428 10.1112C18.8056 10.2064 18.2124 10.3266 17.8488 10.4649C17.6378 10.5452 17.3823 10.7777 17.1195 11.2389C16.8654 11.6848 16.6586 12.2497 16.4965 12.8291C16.3359 13.4032 16.2273 13.9617 16.1588 14.3793C16.1247 14.5872 16.1009 14.7581 16.0857 14.8758C16.0782 14.9347 16.0728 14.9801 16.0693 15.0101L16.0656 15.0433L16.0648 15.0507L16.0647 15.0518L16.0647 15.052L16.0647 15.052L16.0647 15.0521L16.0219 15.4721L15.6411 15.6529C15.6412 15.6529 15.6412 15.6529 15.641 15.653L15.6408 15.6531L15.6405 15.6532L15.6404 15.6533L15.6402 15.6533L15.6383 15.6543L15.6229 15.6618C15.6083 15.6691 15.5853 15.6806 15.5551 15.6962C15.4947 15.7275 15.406 15.7749 15.2987 15.8366C15.0823 15.961 14.7981 16.1389 14.5182 16.3559L14.4886 16.379L14.4887 16.4338C14.4891 16.5295 14.4916 16.66 14.4994 16.8006C14.5074 16.9429 14.5203 17.0853 14.5397 17.208C14.5465 17.251 14.5536 17.2886 14.5608 17.3205C14.623 17.3461 14.7099 17.3727 14.8164 17.3968C14.94 17.4246 15.0632 17.443 15.1578 17.4545C15.2043 17.4601 15.2421 17.4638 15.2671 17.466L15.2942 17.4682L15.2985 17.4685L15.2987 17.4686L15.2989 17.4686L15.2993 17.4686L15.2994 17.4686L15.2997 17.4686L15.8202 17.5019L15.9694 18.0029L16.1642 18.6566L16.2051 18.7941L16.1924 18.9371L16.1226 19.723C16.0061 19.6406 15.9198 19.569 15.8685 19.5129C15.5945 19.2127 15.2866 19.0689 14.945 19.0815L14.9033 19.0284L14.853 19.0212C14.7937 19.0126 14.7365 19.0036 14.6814 18.9943L14.6856 18.9473L14.6708 18.8974C14.6117 18.8867 14.5498 18.8743 14.4867 18.8601C14.304 18.8189 14.0802 18.7556 13.8725 18.6553C13.7865 18.6137 13.676 18.5531 13.5664 18.4662C13.3302 18.1268 13.1185 17.593 13.035 17.275C13.0189 17.1395 13.0085 17.0053 13.0018 16.8841C12.9949 16.7608 12.9914 16.6456 12.9898 16.5485C12.9415 16.4476 12.9111 16.3275 12.9132 16.1869C12.9178 15.8827 13.0856 15.6638 13.1709 15.5631C13.2783 15.4362 13.4227 15.3071 13.5993 15.1703C13.9493 14.899 14.2951 14.6833 14.5511 14.5362C14.5761 14.5218 14.6003 14.508 14.6237 14.4949C14.6384 14.3913 14.6566 14.2707 14.6786 14.1365C14.7528 13.684 14.8721 13.0682 15.052 12.425C15.2304 11.7873 15.4768 11.092 15.8162 10.4964C16.1468 9.91606 16.625 9.32559 17.3154 9.06292C17.8533 8.85828 18.5941 8.72124 19.3507 8.62352C20.1226 8.52385 20.9694 8.45828 21.7496 8.41487C22.1237 8.39406 22.4844 8.37824 22.8166 8.36621C22.9604 8.47774 23.152 8.63833 23.3914 8.84797L22.8711 9.86522ZM14.4894 17.2846C14.4896 17.2845 14.4926 17.2862 14.4974 17.2901C14.4916 17.2866 14.4892 17.2847 14.4894 17.2846Z" fill="#9DDADB"/>
<path fill-rule="evenodd" clip-rule="evenodd" d="M13.2042 9.04419C13.9564 8.24382 18.2266 7.00584 20.387 7.26827L20.4518 7.27668C20.6242 7.2986 20.7941 7.33179 20.9618 7.37687C21.5038 7.50378 22.0637 7.69594 22.5116 8.01691C22.8854 8.27948 24.0649 8.70829 23.7173 9.39519C23.8462 9.64001 23.8943 9.94248 23.8072 10.1836C23.7962 10.2669 23.7706 10.3436 23.7378 10.4231C24.0132 10.8305 24.2312 11.2912 24.4077 11.7294C24.7162 12.8322 24.9081 13.9799 24.9362 15.1051C25.0297 17.2428 24.7959 19.7962 22.9387 21.1786C21.8168 22.0545 20.0594 22.0839 18.7986 20.9979C18.7271 20.913 18.3906 20.6839 18.5029 20.6437C18.5363 20.6791 18.5707 20.7135 18.6056 20.7474C18.604 20.7436 18.6037 20.7399 18.6044 20.7358L18.5715 20.7059C18.5095 20.6484 18.4293 20.5651 18.5207 20.5814C18.5247 20.5861 18.5291 20.5902 18.5335 20.5949C18.5528 20.6065 18.5674 20.6166 18.5788 20.6255L18.5847 20.6302L18.5829 20.6283C18.5302 20.572 18.4986 20.5146 18.5774 20.5513L18.5878 20.5564C18.6228 20.5933 18.6584 20.6287 18.6946 20.6631C18.694 20.6591 18.6946 20.655 18.6968 20.6506L18.6631 20.6179C18.6301 20.5855 18.6351 20.5854 18.6512 20.5592C18.5811 20.4607 18.712 20.5192 18.7212 20.5576C18.803 20.5382 18.8749 20.6923 18.9276 20.711C21.2388 22.4923 24.5928 20.9118 24.5385 15.9482L24.5377 15.8511C24.5218 14.2639 24.3886 12.6326 23.7337 11.1959C23.67 11.0575 23.5988 10.9229 23.5204 10.7926C23.4664 10.6949 23.4086 10.5997 23.3465 10.5071C23.1725 10.493 23.0007 10.461 22.8314 10.4116C22.7733 10.3968 22.7158 10.3806 22.6584 10.3615C21.8189 10.4074 20.998 10.4573 20.1562 10.5046L19.8932 10.5211C19.18 10.567 18.4425 10.6406 17.8669 11.0829C17.3023 11.4855 17.2997 12.2794 16.8163 12.7214C16.127 13.1904 16.122 13.6133 15.9892 14.3045C15.9991 14.8255 16.3594 15.5825 15.6981 15.8018C15.8097 15.9612 15.6542 15.8846 15.6419 15.8287C15.6407 15.829 15.6394 15.8293 15.6385 15.8293C15.7379 16.0146 15.5918 15.8979 15.5789 15.8384C15.571 15.8362 15.5632 15.8306 15.5554 15.8227C15.6556 15.9851 15.4937 15.8714 15.5033 15.8418C15.3097 15.5436 14.9114 15.4973 14.6306 15.5763C14.6272 15.587 14.6147 15.5879 14.6069 15.5823C13.4129 15.8417 13.721 18.3195 14.9445 18.08C14.9969 18.0693 14.9956 18.0945 15.006 18.0969C14.9778 18.0225 15.0575 18.0528 15.0566 18.0684L15.0615 18.0681C15.0653 18.0678 15.0637 18.0674 15.0666 18.0684C15.0393 17.9162 15.1931 18.1367 15.1809 18.1457C15.1856 18.1429 15.1909 18.1413 15.1956 18.1407L15.1903 18.1263C15.1648 18.0581 15.167 18.0864 15.1672 18.0474C15.148 17.9992 15.1466 18.0203 15.1511 17.9888C15.2185 17.9365 15.2384 18.0953 15.2609 18.1069C15.2223 18.053 15.253 18.009 15.2893 18.0383C15.5649 18.6194 15.9209 19.1653 16.3809 19.5954C16.4312 19.6352 16.4821 19.6743 16.5349 19.7113C16.7305 19.8821 17.0307 19.992 17.2139 20.1434C17.2139 20.1459 17.2126 20.149 17.2108 20.1521L17.215 20.1559L17.2192 20.16L17.2829 20.1907C17.3017 20.2066 17.3185 20.2245 17.3335 20.2442C17.3494 20.2627 17.3635 20.283 17.3754 20.3046C17.3813 20.3309 17.3682 20.3419 17.3432 20.3306C17.3322 20.3269 17.3213 20.3225 17.3104 20.3184C17.311 20.3193 17.3113 20.32 17.312 20.3206C17.3155 20.326 17.3398 20.3824 17.3119 20.3732L17.3085 20.3719C17.2932 20.3663 17.2779 20.36 17.2629 20.3541C17.2807 20.3763 17.2969 20.4004 17.3113 20.4208C17.3266 20.4368 17.336 20.4555 17.3398 20.4768C17.3391 20.4887 17.3326 20.4937 17.3207 20.4922C17.3026 20.4862 17.2848 20.48 17.267 20.4734L17.272 20.4831C17.2846 20.5079 17.3025 20.5496 17.2707 20.5357C17.2435 20.5272 17.2173 20.5175 17.1911 20.5069C17.1889 20.5113 17.1845 20.5128 17.1758 20.5088C17.0924 20.479 17.0118 20.4427 16.9347 20.3998C16.8669 20.3503 16.7985 20.3018 16.7304 20.2526C16.6664 20.2141 16.6045 20.1712 16.5455 20.123C16.1505 19.8673 15.8048 19.5424 15.5304 19.1806C15.0717 19.5789 14.1544 19.1983 13.587 18.8865C13.0851 18.6079 12.8878 18.0926 12.8368 17.5371C12.7308 16.7892 12.1211 16.5332 12.1635 14.8922C12.1626 14.8925 12.1616 14.8925 12.1604 14.8925C12.1382 14.8859 12.1167 14.8772 12.0964 14.8659C12.0755 14.8559 12.0558 14.844 12.0373 14.8296L12.0145 14.7979C12.0027 14.7914 11.9921 14.7845 11.984 14.7776L11.9797 14.783C11.9664 14.7992 11.9754 14.7749 11.9761 14.7701L11.9365 14.7161C11.8426 14.5875 11.7396 14.4433 11.6557 14.328L11.653 14.3326C11.6511 14.3362 11.6501 14.3387 11.651 14.3399C11.4513 14.0522 11.2634 13.7047 11.2112 13.3683C11.1496 13.1091 11.1737 12.8421 11.2275 12.6021C11.4579 11.7615 12.2129 9.85944 13.2042 9.04419ZM18.6246 20.6686L18.6121 20.6574L18.6231 20.6712C18.6288 20.6783 18.6347 20.6848 18.6444 20.6913C18.6437 20.6891 18.6437 20.6869 18.644 20.6844C18.6376 20.6795 18.6311 20.6742 18.6246 20.6686ZM20.3774 7.69061C18.9124 7.56433 17.4714 7.8879 16.0733 8.27958L15.9769 8.30736C15.1819 8.53476 14.3414 8.73939 13.6696 9.22611C12.731 9.9468 12.2463 11.0933 11.8234 12.1518C11.4541 12.9383 11.6429 13.8251 12.1994 14.3743C12.2573 13.8286 12.3561 13.2988 12.5103 12.7733C12.5426 12.6912 12.5182 12.6643 12.5876 12.6536C12.6924 14.0698 12.1762 15.1161 13.1978 16.7944C13.6411 17.5863 13.1279 18.1658 14.3797 18.5825L14.4136 18.5955C14.6744 18.6941 14.9592 18.772 15.2146 18.7168L15.1918 18.6795C15.1684 18.6411 15.1613 18.6224 15.1953 18.606C15.1944 18.6041 15.1931 18.6022 15.1918 18.6C15.1644 18.5481 15.1378 18.4955 15.1125 18.4422C15.1022 18.4457 15.0919 18.4482 15.0813 18.451C15.0882 18.4638 15.0891 18.4767 15.0698 18.4811C15.0009 18.5047 14.9303 18.5142 14.8579 18.5098L14.8424 18.5086C14.7606 18.5036 14.7091 18.4887 14.6631 18.4748C14.6478 18.4723 14.6325 18.4698 14.6175 18.4667C14.4693 18.4337 14.3124 18.3499 14.2109 18.2669C13.0534 17.6079 13.173 15.3644 14.5997 15.1524C14.629 13.7399 15.2991 11.3568 16.4113 10.0109C17.4167 8.77279 20.1612 8.23618 22.0707 8.42539C22.0985 8.43463 22.1263 8.44396 22.1542 8.45338C22.4487 8.47962 22.7295 8.61119 23.0243 8.67231C22.8126 8.51328 22.5725 8.40736 22.3252 8.31734C21.8324 8.01515 21.2675 7.85165 20.7217 7.73633C20.6086 7.70846 20.494 7.69312 20.3774 7.69061ZM14.5344 16.2871C14.6111 16.2453 14.6023 16.2856 14.62 16.2739C15.1717 16.2288 15.7667 16.7131 16.0751 17.1168C16.0508 17.1422 15.9849 17.067 15.9733 17.0552C15.9717 17.0567 15.9699 17.058 15.968 17.0586L15.9766 17.0707C16.1016 17.2506 15.8538 17.039 15.8306 16.9953C15.8265 16.9975 15.8224 16.9988 15.8178 16.9979C15.8374 17.0172 15.8974 17.0675 15.9077 17.1034L15.9236 17.1166C16.0736 17.2454 16.0612 17.3423 15.8909 17.1594C15.8949 17.1679 15.8965 17.1757 15.8937 17.182L15.8995 17.1859C15.9833 17.2445 16.0521 17.4081 15.8771 17.2402C15.8953 17.3628 15.7037 17.1258 15.6975 17.1275C15.3659 16.8665 14.8776 16.6127 14.4616 16.5786L14.4473 16.5769C14.371 16.5671 14.3349 16.5444 14.3617 16.4944C14.2677 16.4719 14.2897 16.4255 14.3342 16.427C14.2679 16.3833 14.3276 16.3415 14.3661 16.3579C14.3396 16.2844 14.4457 16.3333 14.4554 16.3231C14.5104 16.238 14.5253 16.309 14.5344 16.2871ZM13.3779 11.736C13.6429 11.6387 14.4257 11.93 14.363 12.3158C14.3257 12.4044 14.2029 12.4552 14.1165 12.4052L14.0038 12.3293C13.8076 12.1976 13.6307 12.0821 13.4201 11.9672C13.3055 11.9102 13.2562 11.7892 13.3779 11.736ZM14.8856 11.1627L14.7833 11.0959C14.231 10.7335 13.4502 10.1844 14.8349 10.7525C14.9927 10.8204 15.2024 10.8605 15.2885 11.0112C15.4238 11.2889 15.0678 11.3075 14.8856 11.1627ZM14.9477 9.53671C14.9034 9.3681 15.4548 9.56595 15.6154 9.61812L15.6398 9.62738C15.796 9.68571 15.975 9.73983 16.0684 9.87493C16.1779 10.0616 15.9564 10.1003 15.8191 10.016C15.5378 9.83166 15.2294 9.69261 14.9477 9.53671ZM16.35 8.75127C16.0396 8.41144 16.8704 8.73699 16.9948 8.82735L16.9984 8.83002C17.0912 8.89555 17.0724 9.0367 16.9852 9.07816C16.737 9.08289 16.5543 8.87548 16.35 8.75127ZM17.7626 8.37894C17.2691 8.02341 17.9192 8.19252 18.1449 8.33185C18.2988 8.4679 18.1403 8.69757 17.7626 8.37894Z" fill="black"/>
<path fill-rule="evenodd" clip-rule="evenodd" d="M19.0992 17.6529C19.441 17.4469 20.7188 17.5979 21.7225 17.6529C22.5195 17.6965 23.0888 17.61 23.271 17.7327C23.6827 18.0099 23.4827 19.3501 22.7734 19.5334C22.064 19.7167 19.4345 19.9727 18.9811 19.5334C18.5278 19.0941 18.4859 18.0223 19.0992 17.6529Z" fill="white"/>
<path fill-rule="evenodd" clip-rule="evenodd" d="M19.5422 17.2987C20.0788 17.2336 20.5988 17.3979 21.1233 17.4807C21.4003 17.5244 21.6776 17.5571 21.9578 17.5692C22.0142 17.5717 22.0706 17.5731 22.127 17.5742C22.1322 17.5246 22.16 17.479 22.2202 17.4516C22.3437 17.3957 22.4424 17.3704 22.578 17.3758C22.702 17.3807 22.8265 17.3935 22.9486 17.4159C23.1705 17.4565 23.3933 17.5489 23.5555 17.7092C23.931 18.0804 23.8739 18.6765 23.5837 19.0808C22.9843 19.9161 21.8902 19.9548 20.9532 19.9439L20.8667 19.9428C20.0135 19.9306 18.7929 20.0579 18.4053 19.0868C18.2627 18.7297 18.2825 18.3158 18.457 17.9733C18.6652 17.5648 19.1034 17.352 19.5422 17.2987ZM22.2073 18.6895L22.1997 18.6898C21.8063 18.705 21.413 18.7156 21.0194 18.7226C21.0312 18.8237 21.0432 18.9249 21.0569 19.0258C21.0677 19.1052 21.0793 19.1845 21.0913 19.2637C21.0964 19.2972 21.1151 19.3493 21.1098 19.3825L21.1079 19.3956C21.1281 19.4048 21.1464 19.4195 21.1601 19.4409C21.1648 19.4483 21.1683 19.4557 21.1717 19.4632C21.4773 19.4656 21.8061 19.4596 22.1176 19.4041L22.1182 19.3973C22.1239 19.3575 22.1404 19.3307 22.1624 19.3123C22.1843 19.1854 22.1823 19.0501 22.1908 18.9241C22.1961 18.8459 22.2018 18.7677 22.2073 18.6895ZM20.7188 18.728C20.4353 18.7328 20.1516 18.7365 19.8682 18.733L19.7395 18.7311C19.7666 18.8769 19.7962 19.0223 19.8208 19.1691C19.8464 19.3221 19.7118 19.4194 19.5953 19.4155C19.6084 19.4176 19.6214 19.4198 19.6345 19.4217C19.9986 19.4732 20.3766 19.4595 20.7461 19.4591C20.7262 19.343 20.7342 19.2121 20.7313 19.1152L20.7307 19.1002C20.725 18.9761 20.7211 18.852 20.7188 18.728ZM18.7929 18.7012C18.8028 18.777 18.8219 18.8513 18.8506 18.9204C18.9716 19.2123 19.249 19.3486 19.5426 19.4059C19.4917 19.3883 19.4512 19.3461 19.441 19.2737C19.4156 19.0936 19.4064 18.9106 19.4057 18.7277C19.2011 18.7258 18.9952 18.7215 18.7929 18.7012ZM23.2743 18.6389C23.1286 18.6732 22.9593 18.6575 22.8164 18.664C22.6825 18.6701 22.5486 18.6754 22.4147 18.6808C22.421 18.7722 22.4271 18.8636 22.4338 18.955C22.4424 19.0731 22.4433 19.198 22.4659 19.3156C22.7353 19.2236 22.9768 19.076 23.1579 18.8401C23.2031 18.7813 23.2435 18.7124 23.2743 18.6389ZM19.4807 17.7777C19.2382 17.8352 19.0087 17.9565 18.8854 18.1785C18.8122 18.3102 18.78 18.4663 18.7862 18.6201C18.9911 18.5963 19.1996 18.5872 19.407 18.5797C19.4077 18.5424 19.4086 18.505 19.4097 18.4678L19.4129 18.3723C19.4186 18.1902 19.4214 17.9615 19.4807 17.7777ZM20.7358 17.7999L20.629 17.7879C20.3325 17.7541 20.0362 17.7187 19.7397 17.739C19.6968 17.742 19.6532 17.7466 19.6095 17.753C19.662 17.9422 19.6576 18.1644 19.6794 18.3517C19.6879 18.4241 19.6986 18.4959 19.7104 18.5675L19.7619 18.5651C20.08 18.5478 20.3985 18.5372 20.7169 18.5246C20.7169 18.4648 20.7172 18.4049 20.7182 18.3451L20.7193 18.2852C20.723 18.1323 20.7131 17.96 20.7358 17.7999ZM22.2246 17.7757C21.9141 17.8258 21.5932 17.8365 21.2881 17.8368C21.1663 17.837 21.0445 17.8295 20.9228 17.8187C20.9307 17.8835 20.9349 17.9491 20.9408 18.0131C20.9528 18.1422 20.9666 18.2712 20.9815 18.4001L20.9948 18.5128C21.3862 18.4951 21.7775 18.4759 22.1688 18.456L22.224 18.4531L22.2395 18.2364C22.25 18.0919 22.2616 17.9474 22.278 17.8036L22.2657 17.7991C22.2513 17.7932 22.2376 17.785 22.2246 17.7757ZM22.3595 17.8294C22.3766 18.0338 22.3861 18.2389 22.3987 18.4436L22.6566 18.4298C22.6996 18.4275 22.7426 18.4251 22.7856 18.4226C22.9527 18.413 23.1675 18.3623 23.3327 18.4096C23.3454 18.2593 23.3024 18.1129 23.1668 18.0119C22.9288 17.8346 22.6257 17.8977 22.3595 17.8294ZM21.4782 16.003C21.8623 15.7829 22.826 15.558 22.8871 16.2495C22.9151 16.5677 22.6787 16.8314 22.4025 16.949L22.3921 16.9534C22.1331 17.0599 21.6741 17.1802 21.45 16.9492C21.2634 16.757 21.5108 16.4123 21.7426 16.5698C21.8618 16.6507 22.1125 16.591 22.2454 16.5525L22.2537 16.5501C22.3972 16.5079 22.5884 16.373 22.5291 16.1963C22.4766 16.04 22.2533 16.0114 22.1134 16.0063C21.9046 15.9989 21.7014 16.0474 21.4945 16.0631C21.4618 16.0656 21.4516 16.0182 21.4782 16.003ZM23.0693 14.891C23.5906 14.8666 23.9149 15.436 23.795 15.9026C23.7743 15.9831 23.6843 16.0621 23.5974 16.0531L23.5755 16.0511C23.5644 16.05 23.5532 16.0486 23.5429 16.0457C23.4604 16.0229 23.3865 15.937 23.3925 15.848L23.3941 15.8221C23.4062 15.6017 23.3824 15.3478 23.1205 15.2944C22.8985 15.2491 22.7745 15.4629 22.7719 15.6598C22.7714 15.6947 22.7321 15.7191 22.7012 15.7003C22.5407 15.6026 22.5129 15.4082 22.5742 15.2408C22.6519 15.0286 22.8464 14.9014 23.0693 14.891ZM19.2007 15.0131C19.58 14.8865 19.9893 15.0888 20.173 15.4244C20.2375 15.443 20.3018 15.4927 20.2929 15.5688C20.2799 15.6783 20.2605 15.7473 20.1846 15.8303C20.0659 15.9601 19.8437 15.8937 19.7944 15.7339L19.7923 15.7267C19.7362 15.52 19.5089 15.3837 19.3018 15.456C19.0598 15.5405 19.0669 15.7961 18.8971 15.9451C18.8772 15.9626 18.8533 15.9653 18.8294 15.9538C18.6491 15.8667 18.6815 15.6044 18.7458 15.4543C18.8301 15.2573 18.9939 15.0821 19.2007 15.0131ZM18.684 13.8607C18.9914 13.5469 19.793 13.2432 20.0033 13.8227C20.0434 13.9331 19.9581 14.0819 19.8432 14.1048C19.6551 14.1422 19.4882 14.0605 19.3014 14.0752C19.1501 14.0871 18.9923 14.1377 18.8714 14.2314C18.5364 14.4911 18.4628 14.9302 18.2294 15.2606C18.218 15.2767 18.1959 15.27 18.1938 15.251C18.1407 14.7699 18.3473 14.2043 18.684 13.8607ZM22.6932 13.5517C22.8972 13.4797 23.1283 13.4858 23.3333 13.5498C23.5399 13.6142 23.7295 13.7366 23.8756 13.8965C23.9419 13.969 24.0033 14.0491 24.0525 14.1344C24.0786 14.1796 24.1061 14.2729 24.1358 14.3285C24.2965 14.4213 24.3652 14.6328 24.2213 14.7833L24.2148 14.7899L24.1956 14.809C24.1182 14.8856 24.0016 14.9188 23.896 14.8882C23.6598 14.8198 23.6311 14.6336 23.5493 14.4361C23.4953 14.3056 23.4027 14.1901 23.2905 14.1053C23.0253 13.9049 22.5905 13.841 22.2712 13.9355C22.2542 13.9405 22.2343 13.9188 22.2464 13.9031C22.3069 13.8247 22.3417 13.7604 22.4227 13.6971C22.505 13.6329 22.5947 13.5866 22.6932 13.5517Z" fill="black"/>
<path fill-rule="evenodd" clip-rule="evenodd" d="M19.1778 19.1994C19.4312 18.6055 19.9843 18.169 20.6211 18.0094C21.0887 17.8925 21.5794 17.8963 22.0561 17.9427C22.3058 17.9668 22.5737 17.9866 22.8091 18.0793C23.0101 18.1586 23.1739 18.3084 23.297 18.4843C23.4436 18.6927 23.5433 18.9313 23.6133 19.1758C23.6233 19.2105 23.6326 19.2455 23.6413 19.2807C23.6109 19.4652 23.5463 19.6222 23.3755 19.7382C23.2088 19.8514 23.0099 19.8977 22.8117 19.9142C22.7923 19.9049 22.7735 19.8953 22.7563 19.8854C22.4473 19.7085 22.2299 19.2904 21.84 19.347C21.4921 19.3975 21.263 19.8355 21.0561 20.0924C20.3919 20.1698 19.7281 19.9701 19.1877 19.5902C19.1603 19.4601 19.1587 19.329 19.1778 19.1994ZM24.0928 18.7488C24.0397 18.5997 23.9727 18.4552 23.8934 18.3191C23.6312 17.869 23.2286 17.5104 22.7506 17.3054C21.6201 16.8211 20.1572 17.1625 19.2442 17.9568C18.9323 18.2283 18.6169 18.6273 18.5216 19.0564C18.4931 19.0621 18.4662 19.0769 18.4441 19.0978C17.7844 18.6823 17.1051 18.2826 16.5735 17.7066C16.1875 17.2882 15.919 16.793 15.7546 16.2488C15.7412 16.204 15.669 16.2105 15.6711 16.2601C15.6718 16.2717 15.6724 16.2833 15.673 16.2949C15.6661 16.2736 15.6336 16.2845 15.6311 16.3052C15.5427 16.9663 15.432 17.6671 15.5339 18.3316C15.5949 18.7282 15.7749 19.0184 16.0156 19.3319C16.2735 19.6679 16.5654 19.9804 16.8639 20.2801C17.0533 20.4703 17.2512 20.6897 17.4831 20.8292C17.7529 20.9912 18.0589 21.1144 18.3468 21.2395C18.6397 21.3671 18.9369 21.4849 19.2398 21.5871C19.8453 21.7921 20.471 21.9338 21.1077 21.9958C21.6176 22.0454 22.2002 22.0993 22.6887 21.9074C23.0632 21.7604 23.3655 21.4947 23.6052 21.1749C23.8662 20.8267 24.0725 20.43 24.1866 20.0117C24.3051 19.5772 24.1178 18.8189 24.0928 18.7488Z" fill="black"/>
<path fill-rule="evenodd" clip-rule="evenodd" d="M25.2924 15.1635C24.994 17.1827 22.911 17.406 22.5409 15.4014C22.6003 15.3754 22.643 15.3241 22.6341 15.2247C22.632 14.7879 22.7675 14.3261 23.1614 14.0832C23.5685 13.8325 24.0449 13.8077 24.516 13.814C25.415 13.7926 25.3961 14.5443 25.2924 15.1635ZM22.2147 14.2853C21.9326 14.2734 21.5757 14.2833 21.3229 14.4553C21.2535 14.2681 21.0729 14.0683 20.8905 13.9614C21.5685 13.9812 22.2664 13.9145 22.9495 13.8627C22.786 13.9742 22.6339 14.1417 22.535 14.3353C22.4433 14.2864 22.3119 14.291 22.2147 14.2853ZM20.9712 15.3775C20.1889 18.0714 18.2361 16.8973 18.0232 16.552C17.6392 15.9807 17.567 14.5919 17.9014 14.2206C18.3803 13.8848 19.0581 13.9713 19.6237 13.963C20.6629 13.9771 21.4009 14.288 20.9712 15.3775ZM26.2162 14.1385C26.0036 14.1107 25.7765 14.1051 25.5788 14.1987C25.518 13.94 25.327 13.7237 25.1113 13.6285C25.0852 13.5958 25.0891 13.5782 24.9999 13.5831C24.4524 13.4185 23.8396 13.5056 23.3134 13.6744C22.4824 13.7444 21.6105 13.7996 20.7725 13.8961C19.9874 13.5434 17.6183 13.4917 17.4711 14.361C17.2859 14.3333 16.9705 14.1875 16.8149 14.3853C15.6734 14.1917 14.4939 14.4607 13.3474 14.5805C13.0589 14.6337 12.9102 15.2066 13.2378 15.1988C13.4219 15.1488 13.2321 14.8421 13.4801 14.819C14.5862 14.6981 15.6682 14.5267 16.7856 14.5066C16.7468 14.6996 17.5247 14.7122 17.5362 14.5995C17.5379 14.6003 17.5396 14.6009 17.5413 14.6016C17.3491 15.3183 17.5226 16.3498 17.87 16.7942C18.3568 17.3762 19.5789 17.5431 20.1207 17.1687C20.8197 16.8231 21.5469 15.0884 21.3426 14.5121C21.7133 14.3946 22.0798 14.4298 22.4645 14.4897C22.3765 14.7386 22.2244 15.3513 22.4432 15.4044C22.403 16.6209 23.5096 17.3799 24.5298 16.8809C25.4128 16.4662 25.7216 15.1537 25.6135 14.3571C25.7235 14.5696 26.6464 14.3382 26.2162 14.1385Z" fill="black"/>
</svg>
