<svg width="36" height="48" viewBox="0 0 36 48" fill="none" xmlns="http://www.w3.org/2000/svg">
<path fill-rule="evenodd" clip-rule="evenodd" d="M29.3504 42.4124C29.9553 42.3832 29.712 41.3247 29.6686 40.936C29.1897 39.5162 29.3022 37.9672 29.1139 36.4791C28.9965 35.0898 28.8458 33.7049 28.7189 32.3168C28.4699 29.499 26.6812 23.7627 24.6401 22.8401C24.3829 21.7115 23.3209 20.6579 21.9773 20.6579C21.0609 19.5727 19.9578 18.8089 18.543 18.9632C17.9583 18.9898 17.3913 19.6101 16.8311 19.7299C16.5174 19.7732 13.7337 19.6618 13.1761 19.9931C12.7877 20.1926 12.437 20.5613 12.5512 21.0307C12.7334 21.5994 12.1671 20.984 10.9858 21.591C8.57697 23.0383 10.0164 24.9745 10.0802 25.0345C8.57697 27.1268 7.26308 28.8242 6.65516 31.3816C6.26117 33.2803 6.30552 35.2404 5.97541 37.1488C5.85886 37.8105 5.68005 38.4496 5.48656 39.0922C5.27685 39.9332 5.17489 42.0293 5.0593 42.048C4.84875 42.1003 5.18098 42.5328 5.40408 42.5331C11.5895 43.5595 17.8724 42.5757 24.091 42.4149C25.8435 42.3539 27.5979 42.3399 29.3504 42.4124Z" fill="#D08B5B"/>
<path fill-rule="evenodd" clip-rule="evenodd" d="M16.8389 21.5719C16.8389 22.2305 19.1246 24.6775 19.9135 24.5161C20.4394 24.4084 21.2339 23.7066 22.2972 22.4104V21.5719L22.0676 20.6591C23.3683 20.705 24.3887 21.7365 24.6401 22.8397C26.6608 23.7531 28.4341 29.3844 28.711 32.231L28.7189 32.3164C28.8458 33.7046 28.9965 35.0895 29.1139 36.4787C29.3022 37.9668 29.1897 39.5159 29.6686 40.9356L29.6714 40.9597C29.7214 41.3663 29.9432 42.3834 29.3504 42.4121C27.5979 42.3395 25.8435 42.3536 24.091 42.4145C17.8724 42.5753 11.5895 43.5592 5.40408 42.5328C5.18098 42.5324 4.84875 42.0999 5.0593 42.0476C5.17489 42.0289 5.27685 39.9328 5.48656 39.0918L5.52636 38.9589C5.70441 38.361 5.86689 37.7645 5.97541 37.1484C6.30552 35.24 6.26117 33.2799 6.65516 31.3813C7.26308 28.8239 8.57697 27.1264 10.0802 25.0341C10.0164 24.9741 8.57697 23.0379 10.9858 21.5906C12.1671 20.9837 12.7334 21.599 12.5512 21.0303C12.437 20.5609 12.7877 20.1922 13.1761 19.9927C13.7337 19.6614 16.5174 19.7728 16.8311 19.7295C16.9768 19.6984 17.123 19.6333 17.2698 19.5537L17.2444 19.6386C16.974 20.5449 16.8389 21.1893 16.8389 21.5719Z" fill="#9FD8E5"/>
<path fill-rule="evenodd" clip-rule="evenodd" d="M19.9751 25.2189C19.978 25.1906 20.0162 25.1906 20.0191 25.2189L20.0628 25.6406C20.1159 26.1557 20.1671 26.6698 20.2042 27.1873C20.2504 27.8326 20.2813 28.4777 20.2962 29.1244C20.3482 31.3768 20.3585 33.6305 20.3629 35.8835C20.6674 35.8624 20.972 35.842 21.2768 35.8224C21.4836 35.809 21.6903 35.7962 21.8971 35.7836L22.4244 35.7516L22.6415 35.7383C22.7882 35.7292 22.9549 35.6922 23.0575 35.8223C23.0985 35.8743 23.1191 35.9419 23.0808 36.0037C22.9925 36.1462 22.8569 36.1412 22.7035 36.1474C22.5588 36.1532 22.4141 36.159 22.2694 36.1645C21.9592 36.1766 21.6491 36.188 21.3389 36.1967C21.0133 36.2058 20.6879 36.2132 20.3624 36.2188C20.3591 37.1699 20.3198 38.1198 20.2773 39.0699L20.258 39.4975C20.206 40.6537 20.15 41.8109 20.0704 42.9655C20.0639 43.06 19.9302 43.0599 19.9237 42.9655C19.8342 41.6652 19.7751 40.3621 19.7165 39.06C19.674 38.1159 19.6493 37.1716 19.6375 36.2272C19.5945 36.2275 19.5514 36.2281 19.5084 36.2282C18.2869 36.2336 17.0658 36.2389 15.8442 36.2274C15.8463 36.2298 15.8483 36.2322 15.8496 36.2354C15.938 36.4442 15.9464 36.7106 15.9443 36.9346C15.9418 37.1915 15.9072 37.4454 15.8481 37.6952C15.6361 38.5904 15.0895 39.3921 14.4669 40.0549L14.4465 40.0765C14.2997 40.2317 14.1312 40.3877 14.041 40.5854C13.9489 40.7873 13.9169 41.0235 13.8715 41.2404L13.8662 41.2654L13.6885 42.0865C13.632 42.3473 13.616 42.7277 13.4096 42.9159C13.217 43.0915 12.962 42.9998 12.8714 42.7737C12.8006 42.5973 12.8711 42.4035 12.913 42.2272L13.2413 40.8463C13.2953 40.6212 13.3543 40.3945 13.4707 40.1922C13.59 39.985 13.7648 39.8348 13.9433 39.6812C14.2811 39.3902 14.5913 39.057 14.8536 38.6963C15.1159 38.3357 15.34 37.9383 15.4971 37.5203C15.5758 37.3111 15.6403 37.0937 15.6847 36.8746C15.727 36.6667 15.7267 36.4513 15.7719 36.2456C15.775 36.2314 15.787 36.2217 15.8007 36.2173C15.7975 36.2082 15.8024 36.1958 15.8153 36.1949L16.8142 36.1307C17.7023 36.0734 18.5902 36.0146 19.4774 35.9475L19.6342 35.9362C19.622 34.676 19.6324 33.4157 19.6551 32.1551C19.676 30.9991 19.6764 29.8428 19.7108 28.687C19.7278 28.1133 19.7647 27.541 19.8057 26.9686C19.8476 26.3831 19.9148 25.8026 19.9751 25.2189ZM10.5951 31.9215C10.5844 31.8574 10.6652 31.8176 10.7024 31.8763C11.1278 32.547 11.3329 33.2756 11.4193 34.0606C11.4957 34.7533 11.4732 35.4561 11.4351 36.1506C11.3946 36.8915 11.3473 37.6321 11.2994 38.3725L11.2259 39.508L11.0414 42.3544C11.0282 42.558 10.982 42.7432 10.8067 42.8378C10.7845 42.8564 10.7614 42.873 10.7344 42.8874C10.6398 42.938 10.5142 42.9124 10.4595 42.8153L10.4814 42.8297C10.5005 42.8417 10.4791 42.8249 10.417 42.7793L10.3643 42.7111C10.326 42.6536 10.3016 42.597 10.2918 42.5286C10.2765 42.4223 10.2963 42.3057 10.3032 42.1988L10.4242 40.3323C10.5182 38.8813 10.628 37.4306 10.7108 35.9788C10.7494 35.3022 10.7764 34.6249 10.7581 33.9471C10.7399 33.273 10.7056 32.5875 10.5951 31.9215ZM14.275 19.4267L14.2986 19.4227C15.1435 19.2823 16.0623 19.3086 16.8344 19.716C16.8408 19.7194 16.8379 19.73 16.8308 19.7297L16.5822 19.7197C15.7954 19.6889 15.011 19.6707 14.2374 19.8556L14.1582 19.8747C13.8795 19.9427 13.5886 20.0259 13.3648 20.21C13.1509 20.386 13.0444 20.6574 12.942 20.9073L12.9283 20.9403C12.8244 21.1871 12.6929 21.4211 12.4651 21.5755C12.1701 21.7753 11.8154 21.7508 11.4771 21.778C10.8816 21.8259 10.3946 22.2576 10.1524 22.786C10.0057 23.106 9.94312 23.4647 9.93073 23.8145C9.92437 23.9927 9.92346 24.1777 9.94719 24.3547C9.95476 24.4113 10.0247 24.6174 10.0603 24.6124C10.1396 24.6014 10.212 24.6428 10.2367 24.7061C10.4324 24.517 10.6337 24.3333 10.8415 24.1563C11.3594 23.715 11.9173 23.315 12.5049 22.9714C12.9533 22.7091 13.4263 22.4492 13.9161 22.2527C13.8773 22.2519 13.839 22.2596 13.802 22.2788C13.7857 22.2873 13.7696 22.267 13.7824 22.2535C13.9367 22.0911 14.1215 22.068 14.3078 22.1113C14.3475 22.0987 14.3873 22.0864 14.4273 22.0748C14.4471 22.069 14.457 22.0964 14.4408 22.107L14.395 22.1362C14.5983 22.2043 14.7978 22.3382 14.9558 22.4438C15.4095 22.7472 15.8089 23.1181 16.2138 23.482L16.2874 23.548C16.6438 23.8663 17.0093 24.1757 17.4142 24.4311C17.6262 24.5647 17.8488 24.6884 18.0823 24.7803C18.2826 24.8593 18.6087 24.909 18.7025 25.1207C18.7859 25.2221 18.751 25.3514 18.6534 25.4196C18.4887 25.6009 18.1592 25.4838 17.963 25.4082C17.7264 25.3172 17.4972 25.2077 17.2786 25.0794C16.8542 24.8302 16.4629 24.5203 16.0984 24.1906C15.7177 23.8463 15.3586 23.4806 14.9884 23.1255C14.8279 22.9716 14.6712 22.8142 14.5105 22.6605L14.4298 22.5841C14.3478 22.5071 14.231 22.3872 14.1061 22.3146C13.8708 22.4551 13.6318 22.5897 13.3986 22.7338C13.073 22.9348 12.7571 23.1504 12.446 23.3731C11.8471 23.8018 11.2796 24.2819 10.7528 24.7965C9.7865 25.7403 8.96328 26.818 8.24412 27.9592L8.18951 28.0462C7.78085 28.6993 7.39438 29.3736 7.12037 30.0953C6.81886 30.8895 6.67223 31.7247 6.59257 32.5677C6.51351 33.4048 6.48684 34.246 6.39849 35.0822C6.30788 35.9399 6.12935 36.7786 5.92628 37.6157L5.87785 37.8142C5.69411 38.5639 5.50446 39.3136 5.41001 40.081C5.35958 40.491 5.32925 40.9065 5.33611 41.3197C5.34299 41.7354 5.40828 42.1418 5.46096 42.5531C5.48115 42.7107 5.32616 42.8422 5.18747 42.8631C5.02797 42.887 4.89094 42.7852 4.84137 42.637C4.68681 42.1749 4.65874 41.6642 4.66359 41.1792C4.66847 40.6868 4.73129 40.1977 4.81968 39.7138C4.99351 38.762 5.26177 37.8299 5.48619 36.8895C5.68396 36.0606 5.8167 35.2303 5.88825 34.3812C5.96253 33.5002 6.007 32.6163 6.14249 31.7417C6.27623 30.8783 6.52788 30.0535 6.90738 29.2662C7.25292 28.5494 7.68365 27.8746 8.13523 27.2206C8.68362 26.4265 9.28591 25.6708 9.95914 24.9823C9.89867 24.9796 9.83658 24.9601 9.77955 24.9245C9.60509 24.8157 9.52384 24.6027 9.49886 24.4083C9.4404 23.9534 9.45451 23.4786 9.57144 23.0338C9.76008 22.3164 10.2497 21.679 10.9592 21.4204C11.1418 21.3538 11.336 21.3295 11.5295 21.3248C11.7132 21.3202 11.9138 21.3441 12.091 21.2859C12.3731 21.1931 12.494 20.8608 12.5999 20.6089L12.6048 20.5973C12.7406 20.2763 12.9036 20.0011 13.1977 19.8007C13.5116 19.5867 13.9048 19.4895 14.275 19.4267ZM22.3031 20.6963C22.557 20.6082 22.8744 20.6881 23.1227 20.7651C23.3993 20.8509 23.655 21.0089 23.8741 21.1965C24.1053 21.3944 24.2964 21.6388 24.4314 21.9117L24.4443 21.938C24.5676 22.1912 24.708 22.5389 24.6459 22.817C24.6441 22.8249 24.642 22.8325 24.6397 22.8399C25.1435 23.088 25.6087 23.3987 26.0138 23.7925C26.4856 24.2511 26.885 24.7729 27.223 25.3366C28.5656 27.5756 28.8019 30.2646 28.9604 32.818L29 33.4654C29.0861 34.8634 29.1868 36.2581 29.4485 37.6368L29.4676 37.7364C29.7474 39.1799 30.1479 40.6344 30.1073 42.1152C30.0952 42.5589 29.4397 42.5559 29.4207 42.1152C29.3491 40.4566 28.9622 38.8552 28.7002 37.2224C28.2392 34.3499 28.4702 31.3885 27.817 28.5448C27.5607 27.4288 27.1636 26.3463 26.5965 25.3501C26.3164 24.858 25.996 24.3825 25.6206 23.9579C25.2976 23.5926 24.9619 23.241 24.5845 22.9339C24.4639 23.0548 24.2229 22.9932 24.1599 22.817C24.1167 22.6959 24.1293 22.5544 24.1015 22.4275C24.0757 22.3098 24.0402 22.1932 23.9929 22.0823C23.8986 21.8614 23.7601 21.6493 23.6003 21.4705C23.4276 21.2772 23.2291 21.1167 23.007 20.9841C22.7834 20.8506 22.5389 20.8108 22.3031 20.7132C22.2952 20.7099 22.2944 20.6993 22.3031 20.6963ZM23.2895 36.048C23.2899 36.0363 23.3036 36.0308 23.3121 36.0386C23.4011 36.1205 23.4549 36.2381 23.5204 36.3389C23.596 36.4552 23.6753 36.569 23.7585 36.6799C23.9252 36.9021 24.1108 37.1115 24.2978 37.3167C24.4718 37.5075 24.6572 37.6903 24.8495 37.8625C25.0579 38.0492 25.2914 38.2158 25.4808 38.4225C25.8758 38.8538 25.9397 39.4459 26.023 40.0017L26.0321 40.0619C26.083 40.3918 26.1285 40.7225 26.1696 41.0538C26.1895 41.2149 26.2094 41.3762 26.2257 41.5377L26.2307 41.5889C26.2452 41.747 26.2491 41.9075 26.1583 42.0456C26.0611 42.1935 25.8402 42.2453 25.7088 42.1035C25.4831 41.86 25.5255 41.4275 25.4961 41.1142C25.4719 40.8552 25.4443 40.5965 25.4135 40.3381L25.3979 40.209C25.3615 39.9151 25.3321 39.6154 25.2649 39.3266C25.2056 39.0723 25.0927 38.8803 24.9075 38.6961C24.7209 38.5105 24.527 38.3373 24.3548 38.1374C24.1721 37.9254 24.0073 37.6981 23.8588 37.4609C23.7318 37.258 23.63 37.0372 23.5367 36.8167L23.5213 36.7799C23.4311 36.5649 23.2825 36.2849 23.2895 36.048ZM26.5481 26.8098C26.5501 26.7798 26.5944 26.7793 26.5951 26.8098C26.6007 27.0678 26.6061 27.3258 26.6114 27.5838C26.6545 29.6629 26.6279 31.747 26.8365 33.819C26.9348 34.7959 27.1159 35.7585 27.3254 36.717C27.4327 37.2075 27.5452 37.6969 27.652 38.1874C27.7562 38.6655 27.8679 39.1459 27.9505 39.6284C28.0317 40.1027 28.1045 40.5806 28.1371 41.0609L28.1411 41.1236C28.1552 41.3563 28.2222 41.6985 28.0942 41.9048C27.9554 42.1282 27.6897 42.1322 27.541 41.9189C27.4014 41.7187 27.4361 41.3625 27.4114 41.1236C27.3863 40.8802 27.3598 40.6367 27.3297 40.3938C27.271 39.9202 27.1936 39.4476 27.1131 38.9772C26.9454 37.9975 26.7022 37.0302 26.5227 36.0521C26.3387 35.0499 26.208 34.0405 26.2025 33.02C26.197 31.9909 26.3059 30.9638 26.3608 29.937C26.4167 28.8941 26.4802 27.8519 26.5481 26.8098ZM16.7303 20.343C16.7861 20.155 16.983 20.0375 17.1751 20.0903C17.3512 20.1387 17.4965 20.3525 17.4277 20.5353C17.3526 20.7349 17.2213 20.9051 17.1107 21.0865C17.0084 21.2541 16.8593 21.3861 16.7552 21.5507L16.8699 21.6745C16.9274 21.7362 16.9849 21.7976 17.0431 21.8579L17.2433 22.0653C17.3992 22.2264 17.556 22.3868 17.7173 22.5424C18.1915 23 18.6733 23.4426 19.2044 23.8344C19.3253 23.9236 19.4472 24.0123 19.5724 24.0953L19.6191 24.1263C19.7051 24.1826 19.8009 24.2379 19.9047 24.2284C20.157 24.2052 20.3849 23.9372 20.5583 23.7704L20.5673 23.7617C20.9969 23.3528 21.3947 22.9058 21.7425 22.4251C21.8197 22.3183 21.8944 22.2096 21.9672 22.0997C21.7991 21.9033 21.8393 21.5197 21.83 21.2815C21.8235 21.1139 21.823 20.9463 21.822 20.7787L21.8216 20.7449C21.8195 20.6363 21.8147 20.5322 21.8851 20.4429C21.8892 20.4378 21.8976 20.4379 21.9029 20.4407C21.9993 20.4912 22.029 20.5758 22.0701 20.6708L22.0744 20.6806C22.1245 20.7946 22.1725 20.9096 22.221 21.0242C22.2718 21.1442 22.3184 21.2659 22.3656 21.3873C22.3875 21.4438 22.4085 21.5005 22.429 21.5575C22.4415 21.5939 22.4544 21.6302 22.4677 21.6663L22.4708 21.6691C22.4883 21.684 22.5032 21.6997 22.516 21.7159C22.5698 21.7429 22.6126 21.7919 22.6326 21.864C22.6763 22.0209 22.5859 22.1488 22.5053 22.2734C22.1779 22.7794 21.8047 23.2615 21.3899 23.6989C21.1838 23.9162 20.9671 24.1237 20.7414 24.3206L20.702 24.3548C20.4993 24.529 20.2792 24.6941 20.0084 24.7349C19.6916 24.7826 19.4338 24.625 19.1912 24.4434L19.167 24.4252C18.9371 24.251 18.7118 24.0708 18.4935 23.8823C18.0485 23.4979 17.6251 23.0852 17.2494 22.6324C16.8839 22.192 16.5226 21.6995 16.2973 21.1696C16.2836 21.1373 16.3197 21.1035 16.348 21.1305C16.458 21.2353 16.5639 21.3458 16.6685 21.4577C16.6714 21.2929 16.641 21.1268 16.6579 20.961C16.6786 20.7596 16.6726 20.537 16.7303 20.343Z" fill="black"/>
<path fill-rule="evenodd" clip-rule="evenodd" d="M24.2012 12.6567C23.9185 11.4621 23.3005 10.3503 22.3111 9.45186C19.3337 6.50091 13.866 8.10263 13.8908 12.5495C13.784 13.0689 13.7407 13.6029 13.776 14.1326C13.7906 14.3586 13.8882 14.674 13.7571 14.8774C13.4614 15.258 13.2896 15.5384 13.3902 16.0446C13.4743 16.4866 13.7743 16.7997 14.1792 16.9661C14.4221 17.036 14.6525 17.1882 14.7424 17.4201C15.2829 18.4122 15.6834 19.2373 16.5355 19.9135C16.7554 20.0875 19.0106 21.1315 19.7536 21.1315C21.929 21.1315 24.6708 20.3415 24.7163 17.9055C24.7242 17.3705 24.6306 16.8292 24.5718 16.2984C24.4288 15.087 24.4792 13.8318 24.2012 12.6567Z" fill="#D08B5B"/>
<path fill-rule="evenodd" clip-rule="evenodd" d="M24.1521 12.0587C24.1528 12.044 24.1739 12.0406 24.178 12.0552C24.2588 12.3428 24.3047 12.6358 24.3679 12.9279C24.4288 13.2092 24.4863 13.4914 24.5342 13.7752C24.6245 14.3108 24.7005 14.8478 24.7713 15.3862L24.7889 15.5208C24.9119 16.4682 25.115 17.4552 24.9374 18.4081C24.7858 19.2212 24.2776 19.8766 23.6227 20.357C23.0026 20.812 22.2507 21.1039 21.5042 21.2699C20.703 21.4481 19.7532 21.5012 19.1013 20.9122C18.8403 20.6764 19.1961 20.2084 19.4792 20.4212C20.144 20.9209 20.9898 20.7736 21.7399 20.5748L21.7627 20.5687C22.4211 20.3929 23.0839 20.1264 23.6066 19.6769C24.1845 19.1798 24.4702 18.49 24.5032 17.7334C24.5218 17.3083 24.4822 16.8837 24.4396 16.4611L24.4348 16.4142C24.3859 15.9309 24.3346 15.4479 24.2872 14.9644C24.2439 14.5236 24.2066 14.0802 24.1869 13.6374L24.1777 13.414C24.1586 12.9637 24.1328 12.5069 24.1521 12.0587ZM16.355 8.31731C17.4369 7.75268 18.6802 7.5506 19.8842 7.74009C21.0416 7.92226 22.1038 8.52099 22.8978 9.37951C23.2854 9.79867 23.6295 10.2835 23.8494 10.8132C23.9586 11.0764 24.0441 11.3509 24.0896 11.6328C24.1131 11.7777 24.1361 11.9279 24.1405 12.0748C24.1445 12.2109 24.1047 12.3385 24.1094 12.4768C24.1101 12.4984 24.0771 12.5026 24.072 12.4819C24.0344 12.3276 23.9438 12.211 23.887 12.0646C23.8445 11.9552 23.7963 11.8484 23.7472 11.742L23.7051 11.6508C23.5827 11.3856 23.4364 11.1314 23.2917 10.8781C23.0004 10.3679 22.6265 9.90429 22.1887 9.51305C21.4201 8.82615 20.4341 8.38275 19.4049 8.30291C18.3367 8.22 17.2533 8.47525 16.341 9.04066C15.4288 9.60605 14.7391 10.485 14.381 11.4969C14.2003 12.0076 14.1005 12.5396 14.0773 13.0806C14.0655 13.3545 14.0765 13.6306 14.0957 13.9039L14.1052 14.0342C14.1163 14.1905 14.1239 14.3462 14.1006 14.4988C14.2652 14.4473 14.4377 14.426 14.6107 14.4514C14.8679 14.4893 15.0216 14.595 15.137 14.8254C15.143 14.8374 15.1309 14.8494 15.119 14.8434C14.9694 14.7686 14.7274 14.808 14.569 14.8472C14.4041 14.8881 14.2557 14.9591 14.1156 15.0551C13.8564 15.2326 13.6533 15.5076 13.6035 15.8232C13.5553 16.1281 13.6801 16.4367 13.8898 16.6552C13.9977 16.7678 14.1268 16.865 14.2712 16.9257C14.4465 16.9993 14.6201 16.997 14.7752 17.1185C14.871 17.1936 14.8479 17.3222 14.7828 17.4056C15.1101 17.7653 15.4002 18.1588 15.7274 18.5199C15.8791 18.6873 16.0296 18.8549 16.1749 19.0276L16.2291 19.0927C16.3742 19.2682 16.6051 19.4537 16.6714 19.6745C16.7127 19.8119 16.566 19.9915 16.4176 19.9289C16.1901 19.8329 16.0277 19.583 15.8739 19.3914L15.8639 19.3789C15.7027 19.1803 15.5596 18.9707 15.4287 18.751L15.3857 18.6786C15.149 18.2796 14.9144 17.8658 14.7635 17.4275C14.7536 17.4378 14.743 17.4471 14.7319 17.4551C14.5145 17.61 14.1985 17.4909 13.9814 17.3903C13.7765 17.2953 13.5886 17.1524 13.4421 16.9801C13.1236 16.6056 12.9768 16.1205 13.0831 15.6344C13.1733 15.2226 13.4579 14.8221 13.8312 14.6138C13.6589 14.415 13.5876 14.147 13.5401 13.8849C13.4795 13.5504 13.4674 13.2076 13.4839 12.8685C13.5167 12.1929 13.6901 11.5269 13.9582 10.9082C14.4379 9.80131 15.2859 8.87537 16.355 8.31731ZM14.0781 15.704C14.3052 15.6613 14.5168 15.651 14.7358 15.7473C14.9733 15.8519 15.1405 16.0245 15.296 16.2267C15.4728 16.4567 15.0196 16.7079 14.9053 16.4026L14.902 16.3932C14.8713 16.3028 14.8165 16.2154 14.7471 16.135C14.7263 16.167 14.6984 16.1951 14.6657 16.2113C14.626 16.2308 14.5655 16.2173 14.556 16.1665C14.5454 16.1102 14.5571 16.0419 14.5895 15.9942L14.594 15.9877C14.4364 15.8606 14.2469 15.7678 14.0781 15.7379C14.0613 15.7349 14.0614 15.7071 14.0781 15.704Z" fill="black"/>
<path fill-rule="evenodd" clip-rule="evenodd" d="M21.2085 19.0034C20.9981 18.9175 20.8103 18.7743 20.6731 18.5913C20.6254 18.5277 20.613 18.4606 20.623 18.3991C20.6343 18.33 20.6751 18.2674 20.7308 18.2254C20.7867 18.1833 20.8566 18.1625 20.9242 18.1731C20.9829 18.1823 21.0414 18.2145 21.0876 18.2812L21.0973 18.2946C21.1789 18.405 21.2852 18.4956 21.4064 18.554C21.5232 18.6103 21.6538 18.6366 21.7889 18.6213C22.0463 18.5922 22.2237 18.4529 22.4123 18.2638C22.4357 18.24 22.459 18.2153 22.4825 18.1903C22.4974 18.1676 22.518 18.153 22.5408 18.1454C22.5662 18.1369 22.595 18.1374 22.6213 18.1466C22.6466 18.1554 22.6693 18.1722 22.6845 18.1946C22.699 18.2158 22.7072 18.242 22.7045 18.2722C22.6873 18.4682 22.5849 18.6431 22.4394 18.7804C22.2778 18.933 22.0636 19.0385 21.862 19.0755C21.6398 19.1163 21.4134 19.087 21.2085 19.0034ZM21.9668 15.98C22.2031 16.1237 22.5632 16.4588 22.309 16.8151C22.0097 17.1293 21.5788 16.7691 21.3664 16.6062C21.1695 16.4799 20.9483 16.8047 21.131 16.9521C22.6654 18.0885 23.2881 16.0176 22.0863 15.811C21.954 15.7883 21.9048 15.9355 21.9668 15.98ZM19.2171 14.658C19.2432 14.3338 19.7369 14.2601 19.786 14.581C19.83 14.8684 19.7782 15.1325 19.6488 15.3913C19.5251 15.6385 19.2143 15.5232 19.1908 15.298C19.1593 14.9963 19.2009 14.8597 19.2171 14.658ZM22.975 14.5145C23.0438 14.4243 23.1432 14.3627 23.2622 14.3975C23.6342 14.5063 23.5246 15.0346 23.3939 15.2917C23.323 15.4314 23.0935 15.4668 22.9898 15.3438C22.8208 15.1433 22.7399 14.7429 22.9547 14.5454C22.9605 14.5352 22.967 14.5249 22.975 14.5145ZM19.6435 13.2391L19.7023 13.2288C19.8841 13.1974 20.1101 13.1672 20.2387 13.3134C20.3069 13.3909 20.3304 13.535 20.2387 13.6092C20.0774 13.7398 19.8992 13.6892 19.7059 13.7002C19.5467 13.7094 19.3936 13.7357 19.2402 13.7796C18.9037 13.8758 18.6295 14.0515 18.3421 14.2443C18.3044 14.2696 18.2659 14.2214 18.2839 14.1861C18.4498 13.861 18.7713 13.5939 19.0934 13.4312C19.2653 13.3443 19.4534 13.2722 19.6435 13.2391ZM22.6359 13.0935L22.6809 13.1027C23.1703 13.2051 23.8062 13.4095 24.0379 13.8904C24.0468 13.9584 24.0374 13.973 24.0298 13.9825L24.0273 13.9857C24.0211 13.9938 24.0161 14.005 23.9866 14.0143C23.9784 14.0123 23.9702 14.0103 23.9618 14.0081C23.8556 13.9802 23.7715 13.9419 23.6902 13.902L23.6019 13.8586C23.4996 13.8083 23.3963 13.76 23.2869 13.7242C23.0533 13.648 22.8131 13.5943 22.5691 13.5657C22.5162 13.5595 22.4653 13.5416 22.4252 13.511C22.387 13.482 22.3579 13.4418 22.3446 13.3883C22.3274 13.3192 22.3324 13.2668 22.3695 13.2044C22.3973 13.1575 22.4373 13.1251 22.4831 13.1064C22.5298 13.0874 22.583 13.0829 22.6359 13.0935Z" fill="black"/>
<path fill-rule="evenodd" clip-rule="evenodd" d="M22.6294 19.4845C22.3379 19.2247 22.0112 18.7025 21.5924 19.1157C21.4888 19.2325 21.4469 19.4942 21.2885 19.5456C21.0782 19.6139 20.8698 19.3912 20.7981 19.2203C20.5048 18.2704 21.7171 18.0098 22.4078 18.1633C22.7452 18.3019 22.9937 18.8599 23.0087 19.1511C23.0184 19.3468 22.8529 19.6345 22.6294 19.4845ZM24.8284 18.0204C24.8256 18.0078 24.8216 17.9964 24.8168 17.986C24.6879 17.9373 24.5859 17.987 24.5229 18.0799C24.5249 18.103 24.5318 18.1264 24.5362 18.1492C24.4875 18.2518 24.4437 18.3786 24.3777 18.4672C24.3647 18.4682 24.3512 18.4668 24.3383 18.463C23.2455 18.5772 23.779 17.4334 22.6707 17.1494C21.8139 17.008 20.2655 17.1699 19.8613 18.062C19.5426 19.4869 17.9218 18.494 17.3897 17.753C16.8219 17.0786 16.4547 16.2545 16.1007 15.4548C16.0259 15.2856 15.7925 15.4066 15.8179 15.569C15.4907 16.2256 15.5016 17.0143 15.4205 17.7336C15.2827 19.1688 15.1484 21.1814 16.4813 22.0577C18.218 24.0215 22.5547 24.7144 24.5578 22.9101C25.2512 21.4188 25.1657 19.5994 24.8284 18.0204Z" fill="black"/>
</svg>
