<svg width="36" height="48" viewBox="0 0 36 48" fill="none" xmlns="http://www.w3.org/2000/svg">
<path fill-rule="evenodd" clip-rule="evenodd" d="M25.2562 26.8324C24.9844 26.7355 24.7225 26.6235 24.4838 26.4588C23.7957 25.9465 23.3471 25.1755 22.9232 24.4449C22.3261 23.3825 21.9007 22.2503 21.6066 21.0692C21.4803 20.5618 21.4374 19.9735 21.1503 19.5236C20.4995 18.5816 18.5913 18.7037 17.578 18.869C16.8994 18.9891 16.7592 19.7488 16.605 20.3109C16.4767 20.778 16.3927 21.2504 16.3222 21.729C16.1544 21.8394 15.965 21.929 15.7845 22.007C13.8171 22.6106 13.4713 23.7294 12.7198 25.4578C11.4506 27.9698 8.00666 28.9534 7.48645 31.9264C7.15127 33.8891 8.10441 35.7356 9.0871 37.3673C10.0023 39.1496 11.2799 40.005 13.3146 39.5839C15.2231 39.1556 17.0572 38.4392 18.9321 37.8856C19.8402 37.6622 20.7468 37.0813 21.702 37.2839C23.6702 37.7261 25.6925 37.934 27.7096 37.8766C30.5416 37.9911 30.5412 35.2719 30.2505 33.1662C30.0469 29.8891 28.3946 27.7849 25.2562 26.8324Z" fill="#D08B5B"/>
<path fill-rule="evenodd" clip-rule="evenodd" d="M25.445 31.575C25.6817 31.7315 25.8807 31.9689 26.0405 32.2187C25.3734 32.1493 24.7075 32.0692 24.0431 31.9781C24.1301 31.9225 24.2179 31.8681 24.3077 31.8168C24.6353 31.6321 25.0792 31.333 25.445 31.575ZM14.3625 33.5475C14.2403 33.4996 14.193 33.3132 14.1454 33.2063C13.996 32.8712 13.8597 32.5304 13.7179 32.192C14.2564 32.0385 14.78 31.8681 15.3378 31.7862C15.9376 31.6983 16.5462 31.677 17.1516 31.6968C18.3777 31.7368 19.5924 31.9373 20.7978 32.1522C22.0019 32.3669 23.2058 32.5732 24.4183 32.7351C25.6062 32.8937 26.7978 33.0097 27.9917 33.1116C28.2236 33.1314 28.6104 33.2149 28.7969 33.0323C28.9446 32.8876 28.9494 32.6209 28.7646 32.5033C28.6495 32.43 28.4827 32.429 28.3512 32.4121C28.1855 32.3907 28.0193 32.3766 27.8526 32.3655C27.7847 32.361 27.7168 32.3569 27.6489 32.3528C28.1941 32.1471 28.7634 32.035 29.3544 32.0663C29.3878 32.2694 29.5384 32.4783 29.6208 32.6459C29.7647 32.9383 29.8769 33.2343 29.9506 33.5523C30.1045 34.217 30.1112 34.9068 30.0677 35.5847C30.0278 36.15 29.942 36.7752 29.4988 37.1755C29.1632 37.4786 28.6898 37.5908 28.2506 37.6261C27.7401 37.6671 27.2217 37.6233 26.7155 37.5549C26.0055 37.4588 25.2922 37.3318 24.5962 37.1616C23.2481 36.832 21.956 36.3075 20.7639 35.5963C20.1825 35.2495 19.6277 34.8594 19.0384 34.5258C18.4378 34.1858 17.7988 33.9221 17.1279 33.7583C16.377 33.5751 15.592 33.4969 14.8202 33.5421C14.6863 33.5499 14.4928 33.5985 14.3625 33.5475ZM13.4924 33.2072C13.5713 33.4634 13.6316 33.7558 13.8001 33.9711C13.9669 34.1844 14.2186 34.2596 14.4793 34.2786C14.7937 34.3014 15.1117 34.2868 15.4268 34.2985C16.0729 34.3225 16.7102 34.4275 17.328 34.6201C17.9036 34.7996 18.438 35.0796 18.9527 35.3902C19.4287 35.6775 19.8907 35.9859 20.3669 36.2722C20.2402 36.3303 20.1149 36.3932 19.9889 36.4479C19.7247 36.5627 19.4588 36.6735 19.1918 36.7815C18.6652 36.9944 18.1363 37.2021 17.6021 37.3951C16.5249 37.7843 15.4299 38.1243 14.3218 38.4139C13.7932 38.5521 13.2572 38.7134 12.7081 38.7364C12.2213 38.7568 11.7703 38.6191 11.3776 38.3295C10.5631 37.7288 9.91515 36.8618 9.39134 36.0066C9.08013 35.4985 8.80855 34.9647 8.58392 34.4127C8.4703 34.1335 8.36727 33.8501 8.27453 33.5634C8.23102 33.4287 8.18977 33.2933 8.15071 33.1573C8.13353 33.0975 8.11706 33.0375 8.10076 32.9775C8.93359 32.7232 9.77631 32.4937 10.6388 32.3663C11.0993 32.2983 11.566 32.2638 12.0315 32.2688C12.2626 32.2713 12.4935 32.2838 12.7234 32.3077C12.8471 32.3205 12.9703 32.337 13.093 32.3575C13.1437 32.3659 13.1958 32.3784 13.2481 32.3876C13.328 32.6613 13.4085 32.9347 13.4924 33.2072ZM30.7081 32.119C30.753 32.0282 30.7719 31.9388 30.788 31.8399C30.8003 31.7645 30.8328 31.6583 30.8043 31.5604C30.7724 31.4507 30.6854 31.3526 30.6229 31.2591C30.554 31.1557 30.4851 31.0522 30.4163 30.9487C30.2787 30.7417 30.1414 30.5345 30.0043 30.3272C29.4444 29.4805 28.8884 28.6314 28.3315 27.7828C27.8373 27.0297 27.3514 26.2699 26.8422 25.5269C26.4067 24.8916 25.9321 24.2668 25.336 23.7727C24.5824 23.148 23.6849 22.8537 22.7476 22.6241C22.6452 22.5178 22.5085 22.4597 22.3623 22.4715C22.1558 22.2372 21.9916 22.0735 21.9172 21.7756C21.8816 21.6329 21.8928 21.2319 21.7538 21.1474C21.5888 21.0471 21.5026 21.1799 21.4571 21.3295C21.3048 21.8302 21.4796 22.5033 21.8818 23.0048C21.7123 23.5907 21.4877 24.4233 21.0869 24.8927C20.6577 25.3952 20.0642 25.5517 19.4238 25.562C18.2026 25.5816 16.9827 25.1276 16.0512 24.3407C15.768 24.1015 15.5051 23.8344 15.2672 23.5503C15.0888 23.3372 14.8777 23.0083 14.7381 22.7596C14.7381 22.6628 14.6238 22.5614 15.7879 22.4832C16.952 22.4049 17.0403 20.8103 17.0661 20.5933C17.0872 20.4171 17.1766 20.1435 17.0525 19.9999C16.9998 19.9388 16.8917 19.929 16.8249 19.9705C16.699 20.0487 16.6576 20.2488 16.618 20.3846C16.5625 20.575 16.3812 21.7563 16.0377 21.893C15.8768 21.957 15.6923 21.9582 15.5222 21.9701C15.3121 21.9848 15.1015 21.9955 14.8923 22.02C14.8151 22.029 14.7309 22.054 14.6547 22.0547C14.6052 22.0551 14.5541 22.0311 14.5062 22.0142C14.3446 21.957 14.1831 21.9999 14.0166 22.0223C12.5444 22.2202 11.0285 22.6719 9.77284 23.4847C8.66605 24.2011 7.8863 25.2314 7.37177 26.436C6.8468 27.6654 6.54589 28.9947 6.29371 30.3034C6.20924 30.7419 6.13547 31.1824 6.07209 31.6244C6.01083 32.0515 5.93421 32.4882 5.91587 32.9196C5.90861 33.0904 5.94939 33.2489 6.01215 33.4049C6.08282 33.5804 6.24986 33.6496 6.41008 33.7315C6.76179 33.9115 7.13281 34.0511 7.51506 34.1499C7.74858 34.5749 7.94511 35.0165 8.10304 35.4748C8.04445 35.5909 8.04323 35.7644 8.03196 35.8772C8.00401 36.1583 7.99206 36.4409 7.98955 36.7232C7.98451 37.2892 8.01853 37.8546 8.0452 38.4196C8.07224 38.9928 8.16213 41.254 8.17678 41.5302C8.18817 41.7447 8.17284 42.0447 8.2858 42.2352C8.45938 42.5279 8.8878 42.518 9.08623 42.2807C14.0166 43.341 23.2842 43.0216 27.0167 42.4881C27.5024 42.4187 27.3499 42.4957 27.4734 42.373C27.566 42.2808 27.6449 42.123 27.6706 41.9961C27.7048 41.8268 27.6495 41.6736 27.5526 41.5365C27.4507 41.3925 27.4322 41.1592 27.3943 40.988C27.3049 40.5831 27.2604 38.8049 27.2186 38.6079C27.2055 38.5465 27.1929 38.4816 27.1777 38.4166C27.8624 38.4815 28.5758 38.4815 29.2271 38.2524C29.5965 38.1225 29.941 37.9185 30.2061 37.6271C30.5272 37.2743 30.7058 36.8302 30.7977 36.3667C30.9162 35.7689 30.9414 35.1497 30.9181 34.5421C30.8857 33.8239 30.7667 33.0956 30.4711 32.4363C30.5684 32.3459 30.6499 32.2369 30.7081 32.119Z" fill="black"/>
<path fill-rule="evenodd" clip-rule="evenodd" d="M13.7663 8.84178C13.9283 8.66753 14.1355 8.53771 14.362 8.49623C14.1549 8.5999 13.9526 8.70795 13.7663 8.84178ZM13.4491 10.3442C13.4204 10.2114 13.4012 10.0773 13.3951 9.9433C13.4313 9.99847 13.4892 10.0353 13.5541 10.0544C13.5121 10.1485 13.4765 10.2455 13.4491 10.3442ZM24.2875 12.4262C24.1006 11.646 23.2283 10.1454 23.0221 9.85653C22.7982 9.14135 24.0193 8.5678 23.3552 8.00856C23.0546 7.75622 22.6572 7.66692 22.2845 7.57743C19.7037 6.95609 16.9309 7.26946 14.5374 8.41203C14.1733 8.33523 13.794 8.48533 13.5292 8.74897C12.2853 10.0023 13.9805 12.2636 14.3512 13.6766C14.9871 15.2521 13.6771 15.5171 13.8176 16.8501C13.9267 17.5388 14.6225 17.7208 15.2096 17.8249C15.3038 17.8469 15.4296 17.8502 15.4599 17.95C15.5551 18.5321 15.8812 19.0868 16.319 19.4633C16.2807 19.577 16.31 19.7151 16.445 19.815C17.6683 20.7263 19.2108 21.1824 20.7366 21.1004C22.5549 21.0027 23.4953 19.9579 23.7222 19.6889C24.9768 17.9904 24.8269 15.7493 24.5709 13.7251C24.3926 12.3149 24.6187 13.8083 24.2875 12.4262Z" fill="#D08B5B"/>
<path fill-rule="evenodd" clip-rule="evenodd" d="M18.6811 5.93446C18.7383 5.75536 18.9 5.64765 19.0853 5.66988C19.2492 5.6893 19.4248 5.85243 19.4048 6.03247C19.401 6.06722 19.396 6.09978 19.3901 6.13047L19.3909 6.13074L19.3917 6.13078L19.3876 6.14268C19.3754 6.19998 19.3585 6.25133 19.3336 6.29986C19.3017 6.39286 19.2711 6.48616 19.2408 6.57978C19.2845 6.57791 19.3292 6.58041 19.3745 6.58886C19.4213 6.46863 19.4685 6.34871 19.5153 6.22816C19.5656 6.09947 19.6009 5.93415 19.7002 5.83458C19.8273 5.70746 20.0479 5.68115 20.2028 5.77196C20.3664 5.86777 20.4248 6.0381 20.3892 6.22065C20.3711 6.31376 20.3091 6.37856 20.2323 6.41927L20.224 6.42354L20.165 6.56382C20.1831 6.55599 20.2018 6.54879 20.2221 6.54284C20.254 6.53344 20.2852 6.52749 20.3158 6.52499C20.4002 6.37188 20.4929 6.22315 20.5888 6.07724C20.6991 5.90941 20.9146 5.83802 21.0954 5.94417C21.2572 6.03904 21.344 6.28828 21.2281 6.45204C21.1401 6.57634 21.0567 6.70315 20.9745 6.83121C20.9886 6.83372 21.0026 6.83685 21.0161 6.84092C21.0223 6.83247 21.0289 6.82401 21.0357 6.81556C21.1254 6.70409 21.2297 6.62049 21.3368 6.52781C21.4371 6.44076 21.4833 6.30393 21.6151 6.23787C21.781 6.15489 21.9809 6.19466 22.0796 6.35998C22.2913 6.71411 21.9359 6.97274 21.7085 7.18722C21.9062 7.06354 22.112 6.95051 22.3232 6.85282C22.4419 6.79802 22.5624 6.74511 22.6848 6.69939C22.8663 6.63176 23.0131 6.6534 23.1621 6.77924C23.2286 6.8356 23.2617 6.95868 23.2311 7.04068C23.1718 7.19787 23.0781 7.29337 22.9138 7.33877C22.7982 7.3707 22.6798 7.39231 22.5643 7.42581C22.3706 7.48155 22.1826 7.54949 22.0002 7.63434C22.0133 7.64249 22.0258 7.65125 22.0374 7.66127C22.1736 7.61712 22.3122 7.57892 22.4515 7.54636C22.6826 7.49205 22.9177 7.45536 23.1539 7.43241L23.2323 7.42509C23.5155 7.39785 23.856 7.34758 24.0297 7.61931C24.0869 7.70886 24.0931 7.85665 24.0297 7.94526C23.9085 8.1156 23.788 8.14941 23.5875 8.15254C23.7849 8.17352 23.9819 8.19951 24.1781 8.22988C24.3133 8.25055 24.4485 8.27397 24.5831 8.29996L24.6503 8.31317C24.8143 8.34605 24.9973 8.36515 25.1382 8.46033C25.4455 8.66824 25.3012 9.07309 24.9608 9.1163C24.7962 9.13697 24.6135 9.06714 24.452 9.03458C24.2952 9.00295 24.1378 8.97509 23.9798 8.95067C23.8979 8.93783 23.8161 8.92656 23.734 8.91622C23.9011 8.94033 24.0669 8.97446 24.2284 9.02268L24.2732 9.03625C24.5854 9.13163 25.0068 9.28353 25.1041 9.61791C25.1632 9.82112 25.0017 9.99834 24.8062 10.0102C24.6244 10.0212 24.4729 9.91254 24.3186 9.83239C24.2062 9.77415 24.0919 9.73063 23.9707 9.69337C23.8455 9.65485 23.7177 9.62292 23.589 9.59693C23.6978 9.65699 23.8037 9.723 23.9054 9.79685L23.9521 9.83146C24.2223 10.0333 24.6343 10.3458 24.5391 10.7241C24.5092 10.8434 24.3764 10.9574 24.249 10.9452C23.9173 10.9142 23.7343 10.5601 23.4841 10.3703C23.4188 10.3208 23.3473 10.272 23.2723 10.2244C23.6515 10.6778 23.9532 11.2019 24.1828 11.7433C24.6873 12.9343 24.8421 14.0373 24.8458 15.3179L24.8458 15.3576C24.8465 16.0639 24.8305 16.7832 24.7618 17.4864C24.6981 18.1361 24.5813 18.7774 24.2874 19.3657C23.7949 20.3523 22.8351 21.1207 21.7766 21.4131C20.5988 21.7388 19.2823 21.4842 18.3176 20.7327C18.0714 20.5411 18.3978 20.125 18.6492 20.3019C19.6534 21.008 20.952 21.2315 22.1045 20.7537C23.0187 20.3749 23.7549 19.5598 24.0669 18.6214C24.2655 18.0244 24.3233 17.3879 24.3942 16.7657L24.3989 16.7243C24.4739 16.0736 24.5173 15.4186 24.5167 14.7636C24.5157 13.5471 24.3414 12.5458 23.8077 11.4424C23.5566 10.9226 23.2308 10.442 22.8416 10.0203C22.7236 10.0444 22.598 10.0105 22.4787 9.99771C22.4178 9.99113 22.3569 9.98487 22.296 9.97924C22.3582 10.0196 22.4192 10.0615 22.4792 10.1044L22.5579 10.1613C22.804 10.338 23.1164 10.5393 23.0531 10.881C23.0359 10.9734 22.9441 11.0582 22.8551 11.0792C22.5324 11.1562 22.3107 10.8419 22.0927 10.6552C21.9031 10.4931 21.7048 10.3478 21.5027 10.2022C21.4568 10.1693 21.4105 10.1364 21.364 10.1039C21.4077 10.155 21.4503 10.2069 21.4917 10.2592L21.5531 10.3372C21.7387 10.57 22.0062 10.8726 21.8409 11.1744C21.7941 11.2595 21.6941 11.3162 21.5973 11.3143C21.2644 11.3075 21.1319 10.9286 20.9758 10.6894C20.8415 10.4843 20.6956 10.2911 20.5448 10.0979C20.5032 10.045 20.4614 9.99207 20.4189 9.93916C19.7196 9.97548 19.0228 10.0682 18.3382 10.2163C17.8678 10.318 17.4052 10.4499 16.9461 10.5942L16.908 10.6064C16.6595 10.6866 16.4035 10.7892 16.2243 10.9652C16.1988 11.0865 16.2184 11.2144 16.2428 11.3355L16.2619 11.4282C16.3405 11.8159 16.394 12.1963 16.3539 12.5943C16.3124 13.0048 16.189 13.374 16.0385 13.7554C15.9673 13.9351 15.8936 13.9025 15.8683 14.0954C15.8489 14.2423 15.8609 14.394 15.8741 14.5421L15.8852 14.6677C15.9129 14.9967 15.9269 15.3554 15.7118 15.6268C15.6784 15.6685 15.6069 15.6519 15.5831 15.6102C15.5737 15.5936 15.5637 15.5777 15.5528 15.5623C15.4491 15.4117 15.2901 15.3259 15.1084 15.2927C15.0853 15.2887 15.0943 15.2577 15.1137 15.2552C15.2673 15.237 15.4129 15.2755 15.5366 15.355C15.4779 15.1517 15.0239 15.2506 14.8746 15.2901L14.8694 15.2915C14.6833 15.3416 14.5071 15.423 14.3519 15.5382C14.0396 15.7699 13.8591 16.1313 13.8681 16.5204C13.8772 16.9031 14.0743 17.2566 14.4128 17.4397C14.5762 17.528 14.762 17.5706 14.9469 17.5687C15.1399 17.5669 15.3117 17.482 15.505 17.4939C15.6168 17.5008 15.7024 17.621 15.6378 17.7259C15.5947 17.7961 15.5385 17.8512 15.4735 17.8934C15.6318 18.2595 15.8339 18.6086 16.0669 18.9308C16.1959 19.1096 16.3421 19.2746 16.5029 19.4252C16.6285 19.5429 16.9005 19.6791 16.8852 19.8754C16.8799 19.9462 16.8434 19.9894 16.779 20.0157C16.579 20.0977 16.3358 19.8154 16.202 19.6793L16.1912 19.6685C16.0244 19.5019 15.8723 19.3178 15.7399 19.1224C15.505 18.7755 15.3592 18.3844 15.2989 17.9736C14.9781 18.0704 14.5534 17.9796 14.2916 17.8609C13.469 17.4883 13.2 16.3777 13.7001 15.6381C13.7969 15.495 13.9181 15.3726 14.0561 15.2736C14.0258 15.257 13.9974 15.2358 13.9721 15.2088C13.8322 15.0598 13.7332 14.8653 13.635 14.6861L13.6233 14.6646C13.5361 14.5068 13.4538 14.3465 13.3768 14.1838L13.3481 14.1226C13.176 13.7516 13.0251 13.5894 12.9024 13.1993C12.7843 12.8229 12.6913 12.4394 12.631 12.0492L12.615 11.946C12.5801 11.7196 12.5471 11.4775 12.5726 11.2477C12.3974 11.305 12.2212 11.3403 12.0479 11.2542C11.9336 11.1976 11.8705 11.0322 11.9095 10.9136C11.9379 10.8262 11.9854 10.7576 12.0457 10.7038C12.0098 10.6856 11.976 10.6624 11.9464 10.6368L11.9204 10.6143C11.8155 10.5228 11.808 10.349 11.8717 10.2344C11.878 10.2235 11.8842 10.2122 11.8901 10.2012C11.9507 10.0926 12.076 10.0215 12.1997 10.0234C12.2196 10.0237 12.2396 10.0237 12.2599 10.0234C12.2022 10.0105 12.1456 9.99082 12.0919 9.95763C11.8495 9.80828 11.8801 9.40342 12.1734 9.33204C12.2965 9.30229 12.4323 9.3145 12.5679 9.34644C12.5629 9.34362 12.5579 9.3408 12.5529 9.33767C12.4505 9.27474 12.3646 9.15168 12.3742 9.0255C12.3849 8.88585 12.4298 8.78628 12.5529 8.71301C12.6597 8.64977 12.8109 8.64382 12.9171 8.71301C13.0092 8.77344 13.0995 8.84014 13.1863 8.91184C13.0992 8.80444 13.0236 8.68765 12.993 8.56366C12.9552 8.4093 13.0183 8.24115 13.1569 8.15975C13.2675 8.09493 13.3843 8.10213 13.4886 8.15223C13.483 8.07113 13.5027 7.98847 13.5564 7.91521C13.6664 7.76494 13.8662 7.67849 14.0402 7.78808C14.063 7.80249 14.0936 7.82722 14.1233 7.85759C14.0655 7.67317 14.1177 7.47967 14.3147 7.39638C14.435 7.34534 14.5977 7.37102 14.702 7.459C14.6358 7.09986 15.1646 6.83591 15.3701 7.20695C15.4167 7.291 15.4629 7.37951 15.5042 7.47005L15.5194 7.50409L15.521 7.50346L15.5105 7.47857L15.4997 7.45368C15.4426 7.32061 15.3698 7.18221 15.3498 7.03787C15.3204 6.82432 15.4154 6.62174 15.6471 6.59043C15.7668 6.57415 15.8998 6.62863 15.9801 6.72385C15.9367 6.39254 16.3058 6.15176 16.5716 6.39912C16.6975 6.51622 16.7647 6.68749 16.8446 6.83779C16.8899 6.92264 16.9361 7.00718 16.9814 7.09235C16.993 7.07857 17.0055 7.06479 17.0186 7.05133C16.9514 6.84969 16.8993 6.64303 16.8552 6.43513C16.8134 6.23912 16.9111 6.0356 17.1129 5.98021C17.2962 5.92945 17.5258 6.04283 17.5667 6.23852C17.5954 6.37626 17.6295 6.5125 17.667 6.64804C17.6926 6.64178 17.7179 6.6374 17.7429 6.63427C17.7449 6.6088 17.7473 6.58319 17.7499 6.55773L17.7598 6.46715C17.7816 6.2602 17.8036 6.02396 17.9115 5.84804C18.0955 5.54746 18.5671 5.67207 18.5721 6.02746C18.5749 6.21125 18.5003 6.39348 18.4743 6.5754C18.4631 6.65462 18.4565 6.73477 18.4528 6.81493C18.5031 6.54879 18.5721 6.28609 18.6521 6.02746C18.6614 5.99646 18.6714 5.96546 18.6811 5.93446ZM14.6121 16.1976C15.0259 16.1335 15.4041 16.3648 15.6493 16.6889C15.694 16.7481 15.6646 16.8317 15.6243 16.8815C15.5953 16.9181 15.5563 16.9225 15.5122 16.9281C15.4616 16.9347 15.3976 16.8937 15.3754 16.8495C15.2177 16.5339 14.9363 16.3345 14.6121 16.2117C14.6061 16.2095 14.6043 16.1989 14.6121 16.1976ZM15.1858 10.5427L15.1983 10.5292C15.282 10.4421 15.1497 10.3091 15.0658 10.3964C14.9774 10.4883 14.9187 10.5999 14.8622 10.713C14.8084 10.8208 14.97 10.916 15.024 10.8078L15.0487 10.7586C15.0873 10.6821 15.1284 10.6065 15.1858 10.5427ZM14.0236 10.364C14.1422 10.3439 14.0919 10.1629 13.9737 10.1829C13.8206 10.2087 13.6681 10.2381 13.515 10.264C13.3963 10.2841 13.4467 10.4651 13.5648 10.4452C13.7179 10.4193 13.8705 10.3899 14.0236 10.364ZM21.0937 9.12779C20.979 9.08944 20.9298 9.27082 21.0439 9.30896C21.2014 9.36166 21.3577 9.41567 21.5072 9.48884C21.6152 9.54169 21.7103 9.37972 21.6018 9.32662C21.4377 9.24631 21.2667 9.18566 21.0937 9.12779ZM13.9966 8.88432C13.8846 8.83942 13.836 9.02105 13.9468 9.06548L14.3515 9.22777C14.4635 9.27267 14.5121 9.09106 14.4014 9.04663L13.9966 8.88432ZM22.5071 8.44322L22.4923 8.43387C22.3908 8.36793 22.2968 8.5305 22.3977 8.5961C22.457 8.63459 22.529 8.66069 22.5833 8.70654L22.5946 8.71668C22.6823 8.79965 22.8151 8.66708 22.7272 8.58382C22.6629 8.52297 22.5815 8.48909 22.5071 8.44322Z" fill="black"/>
<path fill-rule="evenodd" clip-rule="evenodd" d="M19.5568 18.497C19.8072 17.996 22.1042 18.2212 22.1042 18.2212L22.2982 19.8136C22.2982 19.8136 21.1899 20.17 20.5302 20.0953C19.8705 20.0207 19.3063 18.998 19.5568 18.497Z" fill="white"/>
<path fill-rule="evenodd" clip-rule="evenodd" d="M19.7186 19.3336C19.6393 19.1638 21.2814 18.7007 21.7898 19.0172C22.2982 19.3336 22.1393 19.7653 22.1393 19.7653C22.1393 19.7653 20.0008 20.2532 19.7186 19.3336Z" fill="#FF8181"/>
<path fill-rule="evenodd" clip-rule="evenodd" d="M19.4144 18.2013C19.7977 17.7557 20.4432 17.7247 20.978 17.8361C21.3211 17.9076 21.6553 18.0267 22.0038 18.0709C22.1666 18.0915 22.3311 18.0977 22.4951 18.0946C22.6562 18.0917 22.8175 18.0592 22.978 18.0652C23.0026 18.0661 23.012 18.0985 22.9906 18.1117C22.7704 18.247 22.4738 18.2904 22.2137 18.3169C22.2145 18.3361 22.2157 18.3549 22.2183 18.3709C22.2254 18.4133 22.2319 18.4556 22.2371 18.4983C22.2489 18.5948 22.2621 18.691 22.2753 18.7872C22.3013 18.9767 22.3095 19.1722 22.3551 19.3584L22.3631 19.3893C22.3737 19.4285 22.3761 19.4638 22.3726 19.4956L22.3831 19.4908L22.4166 19.4746L22.4385 19.4643C22.5184 19.4272 22.5947 19.4002 22.6887 19.4092C22.7602 19.416 22.8203 19.4648 22.8207 19.5413C22.8225 19.8843 22.3604 19.9946 22.0961 20.0603L22.0186 20.0794C21.6821 20.1614 21.3386 20.2334 20.9926 20.2506C20.4373 20.2782 19.8133 20.125 19.45 19.6744C19.1111 19.254 19.0489 18.6261 19.4144 18.2013ZM21.9362 19.6425C21.8779 19.126 21.2435 19.0976 21.0611 19.4251C20.9801 18.9686 19.7821 19.3857 19.8758 19.4764C20.2308 19.8204 20.7696 19.8514 21.2328 19.7877C21.4687 19.7553 21.7048 19.7026 21.9362 19.6425ZM21.2322 18.2889L21.0727 18.2659L21.0099 18.2573C20.6145 18.2043 20.1698 18.1769 19.8447 18.4305C19.7261 18.5231 19.6593 18.6438 19.6343 18.7735C19.9419 18.7279 20.2506 18.6931 20.5603 18.6641L20.6447 18.6564C20.8385 18.6389 21.0321 18.6205 21.2257 18.6012L21.3632 18.5873L21.5007 18.573C21.5491 18.5679 21.8752 18.5512 21.9365 18.5624C21.9431 18.5073 21.9516 18.388 21.9655 18.3344C21.7338 18.3423 21.5031 18.3251 21.2728 18.2944L21.2322 18.2889ZM21.9663 15.9806C22.2027 16.1243 22.5628 16.4595 22.3085 16.8158C22.0093 17.1299 21.5783 16.7697 21.366 16.6068C21.1691 16.4805 20.9479 16.8053 21.1306 16.9527C22.665 18.0891 23.2876 16.0182 22.0859 15.8116C21.9535 15.7889 21.9044 15.9361 21.9663 15.9806ZM22.3893 16.5861L22.4006 16.5799L22.4045 16.5776C22.4111 16.5733 22.4069 16.5737 22.3918 16.579L22.3805 16.583V16.591C22.3834 16.5893 22.3865 16.5879 22.3893 16.5861ZM19.3623 15.3092L19.3623 15.3021C19.3627 15.1025 19.479 14.6466 19.7663 14.6466C19.9458 14.6466 20.0548 14.9569 20.0737 15.2767L20.0743 15.2897C20.0826 15.4886 20.0281 15.9232 19.7663 15.9232C19.5018 15.9232 19.3651 15.5115 19.3623 15.3092ZM23.5926 15.2466L23.5926 15.2395C23.5922 15.0399 23.4759 14.584 23.1886 14.584C23.0136 14.584 22.9056 14.8789 22.8828 15.1901L22.8812 15.2141C22.8699 15.4062 22.9209 15.8606 23.1886 15.8606C23.4531 15.8606 23.5898 15.4489 23.5926 15.2466ZM19.5263 13.2853C19.7608 13.2496 20.0713 13.3174 20.1806 13.5559C20.2293 13.6622 20.1716 13.7797 20.0488 13.7856C19.7521 13.7998 19.486 13.7337 19.2255 13.9267C19.1134 14.0098 19.0192 14.1249 18.9401 14.2396L18.9102 14.2833L18.8854 14.3193C18.8317 14.3983 18.7808 14.4841 18.7888 14.5794C18.7911 14.6076 18.7623 14.6343 18.7349 14.6332C18.5642 14.6262 18.5458 14.4121 18.5683 14.2835C18.61 14.0448 18.7255 13.8208 18.8855 13.6404C19.0536 13.4509 19.2755 13.3234 19.5263 13.2853ZM22.756 13.5749C22.9177 13.4709 23.1245 13.431 23.3139 13.4463C23.6874 13.4764 24.314 13.794 24.2315 14.2504C24.2061 14.3911 24.0104 14.4654 23.8951 14.3873C23.7711 14.3033 23.7409 14.1729 23.6487 14.0632C23.5751 13.9755 23.4818 13.9121 23.3818 13.8581C23.2834 13.8048 23.1694 13.7725 23.0577 13.7608L23.0391 13.759C22.9718 13.7533 22.6322 13.7548 22.682 13.8816C22.6918 13.9065 22.6549 13.9261 22.6379 13.9073C22.5338 13.7921 22.6517 13.642 22.756 13.5749Z" fill="black"/>
</svg>
