<svg width="36" height="48" viewBox="0 0 36 48" fill="none" xmlns="http://www.w3.org/2000/svg">
<path fill-rule="evenodd" clip-rule="evenodd" d="M17.3025 18.9652C17.9888 18.4864 20.2168 18.8471 21.1352 18.9652C21.6178 19.0272 21.9026 19.6535 22.1561 20.6058C23.4786 20.2814 25.214 19.9742 26.4607 20.8533C26.8457 21.1887 26.9177 21.7603 26.4736 22.0792C26.3288 22.1768 26.0499 22.2597 26.0058 22.3443C25.8272 22.7991 25.6279 23.4002 25.6596 23.8839C26.2273 28.9626 27.3654 34.0551 28.166 39.1013L28.1872 39.2923C28.281 40.1509 28.357 41.1638 27.7739 41.8474C27.3819 42.1798 26.8243 42.134 26.3453 42.2298C21.8293 42.835 17.2693 42.2565 12.735 42.4411C11.9623 42.4846 11.1855 42.5408 10.411 42.5466L10.4106 42.5376C10.4941 42.537 10.5776 42.5358 10.6612 42.5341C10.5756 40.0112 10.3989 37.4917 10.3419 34.9677C10.3239 34.1722 10.3186 33.3763 10.3343 32.5807C10.3375 32.4194 10.0871 32.4194 10.084 32.5807C10.0787 32.8447 10.0764 33.1086 10.0753 33.3726C9.88777 33.2255 9.67923 33.1088 9.4791 32.9775C9.34395 32.8889 9.21838 33.1057 9.35272 33.1938C9.59009 33.3495 9.84273 33.4802 10.0485 33.6792C10.0568 33.6873 10.0655 33.6935 10.0744 33.6987C10.079 36.2346 10.2526 38.7686 10.3628 41.3012C10.3791 41.676 10.3939 42.0508 10.4069 42.4257L10.4109 42.5466C9.5725 42.5528 8.73675 42.4999 7.91179 42.3076C7.77242 42.5019 7.44779 42.5405 7.28275 42.2896C7.20018 42.195 7.18356 42.0339 7.05577 41.9978C7.0214 41.971 7.07445 41.9519 7.09874 41.9645C5.97013 38.7293 7.00005 32.7004 7.91001 29.3859C8.3081 27.677 9.26497 26.0949 9.36459 24.3259C9.37508 23.4921 8.77739 22.4877 9.53517 21.8178C9.4234 21.2054 10.0021 20.6951 10.5864 20.6548C11.3056 18.0571 14.4887 21.0867 16.2123 21.1173C16.4486 20.7241 16.9742 19.1942 17.3025 18.9652ZM26.9923 35.9713C26.9922 35.8101 26.7418 35.8098 26.7419 35.9713C26.7436 37.6855 26.8908 39.7377 27.1025 41.4377C27.1222 41.5956 27.3728 41.5975 27.3529 41.4377C27.1412 39.7377 26.994 37.6855 26.9923 35.9713ZM15.2481 38.1715C15.3902 38.0954 15.2639 37.8791 15.1217 37.9552C14.0782 38.5143 13.103 39.1824 12.1651 39.903C12.0391 39.9998 12.1636 40.2176 12.2915 40.1193C13.2294 39.3987 14.2045 38.7306 15.2481 38.1715ZM24.3036 37.8515C24.2049 37.733 23.9935 37.8562 24.0909 37.9823C24.3175 38.2759 24.599 38.5073 24.929 38.6765C25.0704 38.749 25.196 38.539 25.0604 38.4629L25.0554 38.4602C24.7738 38.3158 24.5199 38.1244 24.3225 37.8756L24.3036 37.8515ZM11.7721 30.5219C11.8071 30.3648 11.5657 30.2978 11.5307 30.4553C11.457 30.7864 11.5105 31.1386 11.5872 31.4666L11.5923 31.4884L11.6028 31.5319C11.6166 31.5883 11.6693 31.6198 11.7235 31.6238C12.6446 31.692 13.5555 31.3789 14.4386 31.1479L14.5039 31.1309L14.5692 31.1143C14.7253 31.075 14.6592 30.8333 14.5026 30.8728L14.4329 30.8906C13.5839 31.1094 12.7096 31.4179 11.8238 31.3791L11.8145 31.3383C11.7564 31.0789 11.7153 30.8014 11.7678 30.5423L11.7721 30.5219ZM25.9107 29.9115C25.9118 29.7502 25.6615 29.7501 25.6603 29.9115L25.66 29.9431C25.657 30.1972 25.6361 30.5582 25.3871 30.6929C25.1657 30.8127 24.8716 30.7228 24.6371 30.6311L24.5895 30.6122L24.5207 30.5842C24.3717 30.5232 24.3068 30.7654 24.4542 30.8258L24.491 30.8407C24.8099 30.9682 25.2196 31.0896 25.5344 30.897C25.8422 30.7086 25.9015 30.3095 25.9097 29.9742L25.9102 29.9485L25.9107 29.9115Z" fill="#D08B5B"/>
<path fill-rule="evenodd" clip-rule="evenodd" d="M25.2159 20.2518L25.2416 20.2565L25.95 20.3883L25.2314 20.4425C25.1982 20.4451 25.1648 20.4482 25.1312 20.4519C25.0622 20.4594 24.9944 20.469 24.9278 20.4805L24.8847 20.4882L24.9032 20.4873C25.1656 20.4751 25.4284 20.4965 25.6874 20.5509C25.9428 20.6045 26.1695 20.6774 26.3723 20.7766L26.3966 20.7886L26.4278 20.8047L26.4429 20.8119L26.4548 20.8174C26.5104 20.8431 26.533 20.8563 26.5565 20.8882C26.603 20.9513 26.5831 21.0226 26.5231 21.0767C26.4781 21.1173 26.42 21.1374 26.3438 21.149C26.3326 21.1507 26.3211 21.1522 26.3086 21.1536L26.2412 21.1602C26.1156 21.1733 26.0327 21.2413 26.0202 21.3469C26.0078 21.4502 26.0684 21.5551 26.1553 21.5809L26.1617 21.5826L26.1699 21.5845C26.1811 21.587 26.1911 21.5898 26.2007 21.5933L26.2079 21.596L26.2235 21.6024L26.2243 21.6026L26.2248 21.6029L26.2397 21.6091L26.2437 21.6167L26.246 21.6185C26.2549 21.6257 26.2586 21.6308 26.2644 21.6419L26.2695 21.6518L26.2736 21.6661L26.2748 21.6707L26.2755 21.6745L26.2756 21.6757L26.2797 21.7018L26.2808 21.7107L26.2812 21.7165L26.2812 22.1181L26.1783 21.9121L26.1747 21.9151C26.1248 21.9552 26.0609 21.9882 25.9796 22.0203L25.963 22.0267L25.9201 22.0426L25.8354 22.0729L25.8159 22.0801L25.7985 22.0868C25.7848 22.0922 25.773 22.0972 25.7623 22.1021C25.7461 22.1096 25.7319 22.118 25.7195 22.1273L25.7123 22.133L25.6715 22.1667L25.571 22.1316C25.5593 22.1275 25.5485 22.1236 25.5383 22.1199L25.4408 22.0836L25.3574 22.0529C25.2491 22.0133 25.1518 21.9789 25.0571 21.9469L24.9422 21.9086L24.8583 21.8813C24.8292 21.8719 24.7985 21.862 24.7646 21.8512L24.2909 21.7015L24.1997 21.6722C24.1485 21.6557 24.1024 21.6406 24.0547 21.6247L23.9663 21.5949L23.8805 21.5654C23.6015 21.4684 23.3346 21.3646 22.8593 21.1726L22.9624 21.2314L23.039 21.2747C23.1308 21.3263 23.2313 21.3824 23.3438 21.4446L23.8552 21.7273L23.9576 21.7846L24.1868 21.9134L24.3078 21.981C24.5245 22.1013 24.6784 22.1827 24.8423 22.2627C24.9691 22.3246 25.0994 22.3841 25.2351 22.442L25.2862 22.4636L25.3646 22.4963L25.4265 22.5231L25.4683 22.5415L25.4959 22.5533C25.644 22.6152 25.7307 22.6313 25.8272 22.6061L25.8339 22.6042L25.8405 22.6019L26.0283 22.5298L25.963 22.7201C25.9555 22.7418 25.9481 22.7637 25.9408 22.7859L25.9276 22.8263L25.9169 22.8474C25.854 22.9725 25.7919 23.1014 25.7293 23.2365L25.6958 23.3093L25.6764 23.3237C25.6694 23.3289 25.6629 23.3366 25.6575 23.3471C25.6326 23.3957 25.6085 23.4441 25.5852 23.4925L25.5607 23.544L25.5354 23.5984C25.4248 23.8365 25.3245 24.0809 25.1943 24.4218L25.0228 24.8764L24.9972 24.9442C24.7866 25.4999 24.5881 26.057 24.4019 26.6152C24.0337 27.7164 23.7081 28.834 23.4259 29.9647C22.8593 32.2359 22.4813 34.5413 22.296 36.8617C22.261 37.299 22.2358 37.7342 22.2204 38.1681L22.2166 38.2807L22.2046 38.3803C22.1953 38.4589 22.1865 38.5352 22.1782 38.6098L22.1733 38.6544C22.1131 39.2068 22.0841 39.6414 22.0872 40.0575C22.0887 40.264 22.095 40.4564 22.1067 40.6416L22.1095 40.6843L22.1561 41.3657L21.9274 40.7222C21.9112 40.6767 21.8955 40.6304 21.8779 40.5764L21.8556 40.5076L21.8449 40.473C21.8353 40.4414 21.8261 40.4086 21.8146 40.3657L21.7741 40.2127L21.7641 40.1759C21.7536 40.138 21.7449 40.1088 21.7347 40.0776L21.7226 40.0413L21.7138 40.0159C21.6975 39.9705 21.6783 39.922 21.6482 39.8486L21.6017 39.7357L21.5924 39.7127V39.6944L21.5939 39.6337C21.5971 39.4888 21.5963 39.3362 21.5921 39.165L21.5882 39.0309L21.5841 38.9159C21.5836 38.904 21.5831 38.8918 21.5826 38.8792L21.5612 38.3621L21.5197 37.2139L21.5132 37.02C21.5086 36.8757 21.5048 36.7452 21.5016 36.6179L21.4987 36.5016L21.4979 36.462C21.4726 35.3227 21.4821 34.1507 21.5241 32.9317L21.5283 32.8136L21.5325 32.6973C21.6031 30.8036 21.7252 29.1918 22.0147 26.0187L22.0629 25.4936L22.135 24.7166L22.1516 24.5342C22.185 24.1628 22.2091 23.8733 22.2294 23.5896L22.2383 23.4632C22.2724 22.9619 22.293 22.4414 22.303 21.8697L22.3047 21.7669L22.2596 21.9239L22.2205 21.4016C22.2086 21.2435 22.1887 21.0973 22.1592 20.9611L22.1528 20.9321L22.1401 20.8766L22.1302 20.8398C22.1134 20.7776 22.2186 20.4915 22.2186 20.4915L22.2782 20.4772L22.3503 20.4602C23.4988 20.192 24.3934 20.104 25.2159 20.2518ZM13.8951 19.7869L13.9297 19.7965L13.9516 19.8027C14.1273 19.8532 14.3138 19.9247 14.529 20.0202L14.5906 20.0478C14.6181 20.0602 14.7771 20.1231 14.8403 20.1501L14.8511 20.1547C15.0844 20.2573 15.2236 20.3649 15.2542 20.5234L15.2561 20.5342C15.3242 20.5995 15.4031 20.6622 15.4929 20.7224L15.5156 20.7374L15.5371 20.7513C15.6336 20.8127 15.7251 20.867 15.8111 20.9138L15.8344 20.9264L15.8505 20.9349L16.0054 20.9881L16.1969 21.0545L16.2353 21.0677C16.435 21.1357 16.5527 21.1714 16.6937 21.206L16.7728 21.2254C17.0729 21.2982 17.3387 21.3549 17.5949 21.3994C17.8557 21.4445 18.1235 21.484 18.4004 21.5186L18.4939 21.53C18.5861 21.5409 18.6765 21.5491 18.8173 21.5601L19.045 21.5778L19.1989 21.5902L19.117 21.7212C18.9024 22.0644 18.7367 22.4467 18.5514 22.9874L18.5307 23.0482C18.3627 23.5451 18.2444 23.9928 18.0409 24.852C17.7326 26.1556 17.4788 27.4716 17.2802 28.7948C17.1434 29.7068 17.0324 30.6167 16.9479 31.5236L16.9359 31.6531L16.7489 31.6529C16.7243 31.3742 16.6937 31.0873 16.6569 30.7856C16.5413 29.846 16.3749 28.9234 16.1574 28.0231L16.1368 27.9388L16.1279 27.9025L16.1464 27.8699C16.1575 27.8504 16.1619 27.8284 16.1588 27.8092C16.136 27.6673 16.0943 27.5378 16.0147 27.3424L15.9335 27.1461L15.9153 27.1011L15.9139 27.0964C15.8279 26.7943 15.7361 26.4956 15.6387 26.2006L15.606 26.1024L15.6046 26.0978C15.4631 25.592 15.3241 25.1744 15.1608 24.7831C15.0329 24.4774 14.8875 24.1777 14.7255 23.8851L14.6949 23.8303L14.6921 23.825C14.4868 23.398 14.2685 22.9944 14.0366 22.6162L13.9994 22.5559L13.996 22.546C13.988 22.5232 13.9761 22.5028 13.9603 22.4856L13.9542 22.4793L13.9464 22.4717L13.9294 22.445L13.7937 22.411C13.4117 22.3154 13.0142 22.3071 12.5705 22.3732L12.5408 22.3778L12.5111 22.3825C12.1853 22.4355 11.9054 22.5077 11.397 22.6622L10.8968 22.8154L10.8257 22.8366L10.7585 22.8565C10.5147 22.9275 10.3012 22.9811 10.0939 23.0214L10.0657 23.0268L9.98898 23.0412L9.95103 23.0481C9.72265 23.0888 9.56273 23.0998 9.41153 23.0709L9.3978 23.0681L9.38099 23.0644L9.36598 23.0606C9.18947 23.0135 9.12424 22.8856 9.20549 22.7074C9.27268 22.5598 9.41846 22.4551 9.6327 22.3634L9.66377 22.3504L9.67149 22.3472L9.67964 22.3455C9.73064 22.3345 9.77948 22.3151 9.82597 22.2868C9.91971 22.2299 9.9589 22.1123 9.91644 22.0152C9.87264 21.9157 9.75281 21.8502 9.66939 21.8838L9.60643 21.9088L9.53754 21.9359L9.49509 21.8752C9.49272 21.8719 9.49048 21.8683 9.4883 21.8645L9.48507 21.8585L9.48301 21.8542L9.47781 21.8497L9.47264 21.8445C9.4597 21.8304 9.45276 21.8152 9.44929 21.7995C9.44797 21.7936 9.44728 21.7882 9.44697 21.7829L9.44677 21.7775C9.44658 21.7664 9.4474 21.7575 9.45084 21.7264C9.466 21.5912 9.55443 21.482 9.70757 21.3565L9.73229 21.3365L9.73967 21.3307C10.0327 21.0984 10.4044 20.9788 10.7202 21.0522C10.7356 21.0557 10.7508 21.0596 10.7662 21.0641L10.7818 21.0689L10.8002 21.0751C10.8973 21.1087 10.9732 21.0674 11.0086 20.9749C11.0442 20.8818 11.0202 20.7791 10.9449 20.7236L10.9381 20.7188L10.9151 20.7035L10.8882 20.685L10.8585 20.664L10.8449 20.6542L10.8252 20.6395C10.6739 20.5251 10.5909 20.4183 10.6152 20.292L10.6169 20.2839L10.619 20.2744L10.6231 20.2656L10.6358 20.2383L10.649 20.2112L10.6527 20.2037L10.6577 20.197C10.7097 20.1269 10.7969 20.0736 10.9218 20.022L10.9364 20.0161C10.9886 19.9951 11.1343 19.9439 11.1561 19.9355L11.1577 19.9349C11.5892 19.7598 12.058 19.6588 12.5294 19.6381C12.9922 19.618 13.4559 19.668 13.8951 19.7869Z" fill="white"/>
<path d="M21.9771 24.6123L21.9715 24.6549L21.9661 24.6974C21.8128 25.9186 21.6835 27.4553 21.5708 28.6805C21.3461 31.1231 21.2084 33.5757 21.2275 36.0292C21.2325 36.6637 21.2554 37.2962 21.2847 37.9297L21.291 38.0654C21.3239 38.7558 21.3743 39.4854 21.5665 40.1514C21.5877 40.2249 21.635 40.2672 21.6895 40.2826C21.6917 40.3602 21.6962 40.4381 21.7014 40.5152L21.7054 40.5728C21.7277 40.8844 21.7912 41.5316 21.927 41.814C22.0594 42.0895 22.2801 42.3081 22.5615 42.4284C22.6403 42.462 22.7206 42.4861 22.8018 42.5029C21.0933 42.5379 18.8492 42.4827 17.1374 42.4414C17.3153 42.4134 17.4162 42.2726 17.4397 42.0933C17.4866 41.7332 17.3984 41.3609 17.1987 41.0581C17.178 41.0268 17.1536 40.999 17.1264 40.9752L17.1312 40.776C17.1345 40.6265 17.1361 40.477 17.1276 40.3277C17.1095 39.9983 17.0823 39.6689 17.0585 39.3398C17.0103 38.6807 16.973 38.0203 16.9583 37.3597C16.9283 36.0383 16.9502 34.7158 17.025 33.3963C17.1749 30.7602 17.5239 27.8279 18.0951 25.2495C18.1367 25.0616 18.1787 24.8737 18.2222 24.6862C18.6663 24.9169 19.4569 24.9999 19.9424 25.003C20.5508 25.0068 21.4275 24.8668 21.9771 24.6123Z" fill="#E86BBB"/>
<path fill-rule="evenodd" clip-rule="evenodd" d="M27.0987 41.4475C26.8871 39.7475 26.7399 37.6953 26.7382 35.9811C26.738 35.8196 26.9884 35.8199 26.9886 35.9811C26.9903 37.6953 27.1375 39.7475 27.3491 41.4475C27.369 41.6073 27.1184 41.6053 27.0987 41.4475ZM25.5307 30.9067C25.2036 31.1069 24.7741 30.9681 24.4504 30.8355C24.303 30.7752 24.3679 30.533 24.5169 30.594C24.7633 30.6949 25.1233 30.8433 25.3833 30.7027C25.6428 30.5623 25.6545 30.1761 25.6565 29.9213C25.6577 29.7599 25.9081 29.76 25.9069 29.9213C25.9042 30.268 25.8579 30.7065 25.5307 30.9067ZM24.9252 38.6862C24.5953 38.517 24.3137 38.2857 24.0871 37.9921C23.9886 37.8644 24.2062 37.7398 24.3033 37.8656C24.5027 38.1241 24.7626 38.3218 25.0516 38.47C25.1952 38.5436 25.0684 38.7597 24.9252 38.6862ZM23.3391 29.9441C22.7729 32.2139 22.393 34.5243 22.2067 36.8564C22.1689 37.3298 22.1423 37.8026 22.1272 38.2757C22.1122 38.3991 22.0978 38.5227 22.0844 38.6464C22.0334 39.1142 21.9942 39.5895 21.9977 40.0604C21.9992 40.2718 22.0058 40.4822 22.0202 40.6929C21.9952 40.6224 21.972 40.5517 21.9495 40.4813C21.9035 40.3369 21.8731 40.1872 21.8262 40.0438C21.7873 39.9252 21.7373 39.8115 21.6906 39.6966V39.6963C21.7047 39.2257 21.6728 38.7507 21.6565 38.2823C21.6355 37.6755 21.6096 37.0693 21.5961 36.4622C21.5692 35.2479 21.5826 34.0327 21.6265 32.8191C21.7144 30.3737 21.9366 27.9399 22.1607 25.5045C22.223 24.8272 22.29 24.1503 22.3363 23.4718C22.383 22.7861 22.4017 22.0991 22.4071 21.4115C22.4074 21.362 22.3323 21.3489 22.3185 21.3968C22.3063 21.2337 22.2847 21.0708 22.2487 20.9133C22.7886 21.2578 23.3579 21.5555 23.916 21.8687C24.2099 22.0337 24.5025 22.2015 24.8055 22.3493C24.972 22.4307 25.1401 22.5055 25.3116 22.5763C25.4894 22.6496 25.6593 22.7504 25.8549 22.6993C25.8718 22.695 25.8878 22.6887 25.9031 22.6806C25.8809 22.7228 25.8587 22.7648 25.8374 22.8074C25.7636 22.9542 25.6931 23.1017 25.6249 23.2504C25.6067 23.2639 25.5908 23.2824 25.5783 23.3065C25.5451 23.3713 25.5129 23.4367 25.4816 23.5031C25.4753 23.4971 25.469 23.4912 25.4628 23.4852C25.4365 23.4605 25.4002 23.4977 25.4233 23.5247C25.434 23.5369 25.4443 23.5488 25.4546 23.561C25.2506 24.0003 25.0847 24.4622 24.9138 24.9131C24.7038 25.4672 24.5047 26.0255 24.3172 26.5876C23.9476 27.6932 23.6215 28.8132 23.3391 29.9441ZM15.2443 38.1813C14.2008 38.7404 13.2256 39.4085 12.2877 40.1291C12.1599 40.2273 12.0353 40.0096 12.1613 39.9128C13.0992 39.1922 14.0744 38.5241 15.118 37.965C15.2601 37.8888 15.3864 38.1051 15.2443 38.1813ZM11.7197 31.6336C11.6655 31.6295 11.6128 31.5981 11.599 31.5416C11.5145 31.1954 11.4483 30.8182 11.5269 30.4651C11.562 30.3075 11.8033 30.3746 11.7683 30.5316C11.7063 30.8101 11.7556 31.1111 11.82 31.3888C12.7301 31.4287 13.6281 31.102 14.4988 30.8826C14.6554 30.8431 14.7216 31.0848 14.5654 31.1241C13.6417 31.3568 12.6863 31.7051 11.7197 31.6336ZM29.8387 40.8692C29.8396 40.867 29.8406 40.8645 29.8412 40.8623C29.8947 40.7001 29.896 40.5116 29.9019 40.3416C29.9122 40.0391 29.9013 39.7361 29.874 39.4345C29.8165 38.7998 29.6925 38.1755 29.5445 37.5565C29.2512 36.3303 28.8368 35.1374 28.6118 33.8946C28.1701 31.4552 28.275 28.9152 27.4083 26.5622C27.0481 25.584 26.5335 24.6438 25.8343 23.8666C25.8853 23.7113 25.9351 23.5557 25.9836 23.3995C26.0684 23.1277 26.1551 22.8471 26.2074 22.5672C26.2086 22.5597 26.2102 22.5519 26.2111 22.544C26.5088 22.4157 26.7795 22.1736 26.8258 21.8517C26.8459 21.7127 26.8227 21.5587 26.7626 21.4243C26.8853 21.311 26.9642 21.1638 26.9454 20.9666C26.9103 20.5952 26.4769 20.4997 26.1751 20.4271C25.8321 20.3447 25.4762 20.3219 25.1254 20.3607C24.9482 20.3801 24.7729 20.4127 24.6017 20.4615C24.4531 20.5038 24.2913 20.5473 24.172 20.6494C24.1579 20.6613 24.1695 20.6845 24.1864 20.6845C24.4277 20.6836 24.6681 20.5949 24.9119 20.5833C25.1673 20.5714 25.4221 20.5924 25.6725 20.645C25.9172 20.6964 26.1614 20.7715 26.3839 20.8877C26.4465 20.9206 26.5382 20.9428 26.4647 21.0092C26.4108 21.0577 26.305 21.0618 26.2359 21.069C26.0828 21.0849 25.9507 21.1745 25.9313 21.3379C25.9141 21.4823 26.0002 21.6457 26.1535 21.6783C26.162 21.6802 26.1698 21.6824 26.1767 21.6852C26.1808 21.693 26.187 21.6996 26.1864 21.6889C26.1864 21.6889 26.1867 21.6886 26.1867 21.6889C26.1905 21.7118 26.1917 21.7208 26.1917 21.7224C26.1908 21.7206 26.1892 21.7127 26.188 21.7065C26.1889 21.7121 26.1908 21.7212 26.1933 21.7346C26.1898 21.7199 26.1927 21.756 26.1898 21.7616C26.1085 21.9119 25.8678 21.9542 25.7276 22.0189C25.7003 22.0314 25.6769 22.0462 25.6568 22.0628C25.6236 22.0512 25.5898 22.0396 25.5557 22.0268C25.3877 21.9638 25.2199 21.9028 25.0496 21.8461C24.721 21.7362 24.3883 21.6382 24.0596 21.528C23.4374 21.3195 22.8359 21.0561 22.2252 20.8175C22.2058 20.7455 22.1833 20.6751 22.1567 20.6065C22.1514 20.5921 22.1257 20.5874 22.1229 20.6065C22.1135 20.6672 22.106 20.7283 22.0997 20.7897C22.0972 20.7953 22.0966 20.8016 22.0978 20.8075C22.0625 21.1645 22.0718 21.5299 22.0537 21.8865C22.0312 22.3311 21.9683 22.7726 21.9504 23.2175V23.2257C21.8847 23.6055 21.8252 23.9865 21.7714 24.3688C21.711 24.3501 21.6418 24.3538 21.5711 24.3917C21.0709 24.6588 20.5088 24.8075 19.9432 24.8407C19.6584 24.8573 19.3764 24.8479 19.0931 24.815C18.9069 24.7937 18.7235 24.7549 18.5398 24.718C18.6365 24.3125 18.7404 23.9089 18.8578 23.5094C18.9545 23.1809 19.0621 22.854 19.1952 22.5381C19.3294 22.219 19.4966 21.9144 19.6521 21.605C19.7238 21.4619 19.6393 21.2431 19.4531 21.2581C19.398 21.2625 19.3429 21.2659 19.2875 21.2684C18.7485 21.2941 18.188 21.234 17.6559 21.1804C17.0503 21.1191 16.4365 21.0555 15.8362 20.9556C15.7917 20.9484 15.7736 21.0088 15.8174 21.0236C16.1022 21.1194 16.3836 21.2277 16.6756 21.2994C16.9761 21.3736 17.2784 21.4413 17.5833 21.4942C17.8753 21.5446 18.1686 21.5869 18.4628 21.6225C18.6546 21.646 18.8487 21.6579 19.0418 21.6736C18.7817 22.0894 18.6024 22.5584 18.4462 23.0202C18.2456 23.6133 18.0981 24.2236 17.9539 24.8326C17.6452 26.1379 17.3908 27.4564 17.1917 28.7831C17.049 29.7343 16.9335 30.6893 16.8468 31.6468C16.8211 31.3559 16.7898 31.066 16.7545 30.7764C16.6362 29.8148 16.4634 28.8595 16.2324 27.9186C16.2531 27.8823 16.2628 27.8388 16.2559 27.7965C16.2143 27.5379 16.1047 27.3127 16.0086 27.0729C15.9132 26.7379 15.8102 26.405 15.6994 26.0747C15.5736 25.6247 15.4324 25.1817 15.2518 24.749C15.1138 24.4193 14.9564 24.098 14.7811 23.7865C14.5717 23.3509 14.3416 22.9248 14.0891 22.5174C14.0759 22.4795 14.0546 22.4442 14.0243 22.4144C13.9783 22.3418 13.9316 22.2701 13.8841 22.199C13.8531 22.1526 13.7642 22.1808 13.7877 22.2397C13.7986 22.2673 13.8096 22.2948 13.8208 22.3221C12.792 22.0647 11.7833 22.4582 10.8033 22.7488C10.556 22.8224 10.3063 22.8888 10.0528 22.9367C9.85338 22.9742 9.62115 23.02 9.4224 22.9786C9.28938 22.9511 9.23054 22.8906 9.29533 22.7485C9.3623 22.6014 9.54509 22.5046 9.70378 22.4395C9.76356 22.4266 9.8224 22.4038 9.87905 22.3693C10.0111 22.2892 10.069 22.122 10.0067 21.9795C9.9501 21.8508 9.78484 21.74 9.63867 21.7988C9.6177 21.8073 9.59705 21.8154 9.57639 21.8236C9.5742 21.8204 9.57169 21.8161 9.5695 21.8098C9.54853 21.7525 9.53946 21.8211 9.54853 21.739C9.56356 21.605 9.70534 21.4832 9.80237 21.4065C10.0437 21.2152 10.3924 21.0737 10.7038 21.146C10.7273 21.1513 10.7507 21.1579 10.7739 21.166C11.0947 21.2772 11.2509 20.815 10.9945 20.6428C10.9789 20.6325 10.9592 20.6193 10.9376 20.604C10.8308 20.5298 10.6747 20.4049 10.7172 20.2922C10.7698 20.1522 11.08 20.0717 11.1974 20.0241C11.6218 19.8519 12.0803 19.7542 12.5379 19.7342C12.9983 19.7141 13.4647 19.7649 13.9088 19.8891C14.1266 19.9499 14.3504 20.0423 14.5564 20.1356C14.7413 20.2192 15.1438 20.3297 15.1695 20.5639C15.1751 20.6156 15.2487 20.6331 15.2647 20.5768C15.3908 20.1271 14.9013 19.8369 14.5783 19.6512C14.3664 19.5291 14.126 19.453 13.8934 19.3782C13.6706 19.3061 13.4431 19.2532 13.2108 19.2213C12.7122 19.153 12.2077 19.1618 11.7132 19.2576C11.2628 19.345 10.7617 19.494 10.3977 19.784C10.1742 19.9618 10.0731 20.2449 10.1629 20.521C10.1661 20.5301 10.1692 20.5395 10.1723 20.5486C9.77013 20.6206 9.38953 20.851 9.13508 21.1723C8.926 21.4362 8.81645 21.8035 9.00362 22.1107C8.9958 22.1163 8.98797 22.1223 8.98046 22.1285C8.80205 22.2713 8.66935 22.4786 8.62991 22.7053C8.5526 23.1524 8.82271 23.4652 9.20049 23.5848C9.10691 23.6763 9.01708 23.7733 8.92913 23.8704C8.73226 24.088 8.54415 24.325 8.37827 24.5667C8.04212 25.0564 7.75479 25.5897 7.50346 26.127C6.98672 27.2304 6.6609 28.418 6.48813 29.6222C6.40112 30.229 6.3429 30.839 6.32068 31.4514C6.29501 32.1497 6.32099 32.8482 6.30753 33.5468C6.29439 34.2181 6.22021 34.8731 6.07029 35.5275C5.92662 36.1534 5.73508 36.7668 5.56168 37.3846C5.36606 38.0803 5.15072 38.7729 5.04744 39.4903C4.99517 39.8553 4.95761 40.2214 4.98672 40.5905C5.01614 40.9666 5.1526 41.2881 5.27842 41.6379C5.31035 41.7272 5.40769 41.7631 5.48562 41.744C5.50315 41.9116 5.56637 42.075 5.66058 42.2165C5.86058 42.5165 6.16857 42.7078 6.5213 42.7773C6.9188 42.8553 7.3285 42.8368 7.73101 42.8224C8.16763 42.8067 8.60456 42.7926 9.04118 42.7745C9.4983 42.7556 9.95539 42.7362 10.4125 42.7167C10.3974 42.248 10.3794 41.7794 10.359 41.311C10.2488 38.7784 10.0752 36.2443 10.0706 33.7084C10.0618 33.7032 10.0531 33.6971 10.0447 33.689C9.83896 33.49 9.58631 33.3593 9.34894 33.2036C9.21461 33.1154 9.34018 32.8986 9.47533 32.9873C9.67545 33.1186 9.884 33.2353 10.0715 33.3824C10.0726 33.1184 10.0749 32.8545 10.0802 32.5904C10.0834 32.4292 10.3338 32.4292 10.3306 32.5904C10.3149 33.3861 10.3201 34.1819 10.3381 34.9775C10.3964 37.5556 10.5795 40.1289 10.6628 42.706C11.8898 42.6535 13.1167 42.6007 14.3438 42.5559C15.342 42.5196 16.3401 42.4833 17.3382 42.447C17.5476 42.4395 17.6653 42.2898 17.6909 42.0941C17.7379 41.734 17.6496 41.3617 17.4499 41.0589C17.4293 41.0276 17.4049 40.9998 17.3776 40.976C17.3823 40.7602 17.3911 40.5442 17.3789 40.3285C17.3607 39.9991 17.3335 39.6697 17.3097 39.3406C17.2615 38.6815 17.2243 38.0211 17.2096 37.3605C17.1795 36.0391 17.2014 34.7166 17.2762 33.3971C17.4262 30.761 17.7751 28.1418 18.3463 25.5634C18.388 25.3755 18.4299 25.1876 18.4734 25.0001C18.9175 25.2308 19.4578 25.3138 19.9432 25.317C20.5517 25.3207 21.1467 25.1807 21.6963 24.9262C21.6925 24.9547 21.6888 24.9829 21.6853 25.0114C21.5319 26.2325 21.4027 27.4561 21.29 28.6813C21.0653 31.1239 20.9276 33.5765 20.9467 36.03C20.952 36.7098 20.978 37.3874 21.0102 38.0662C21.0431 38.7566 21.0934 39.4862 21.2856 40.1522C21.3069 40.2257 21.3542 40.268 21.4086 40.2834C21.4114 40.3804 21.4177 40.4778 21.4246 40.5736C21.4468 40.8852 21.5103 41.5324 21.6462 41.8148C21.7786 42.0903 21.9992 42.3089 22.2806 42.4292C22.638 42.5816 23.0246 42.5378 23.4021 42.5134C25.0434 42.4063 26.6834 42.2629 28.3238 42.137C28.5523 42.1195 28.7808 42.1022 29.0089 42.0844C29.2121 42.0687 29.4221 42.0549 29.6024 41.9494C29.8074 41.8295 29.9673 41.2406 29.8966 40.997C29.8837 40.9525 29.8643 40.9087 29.8387 40.8692Z" fill="black"/>
<path fill-rule="evenodd" clip-rule="evenodd" d="M25.0866 10.1402C25.0761 9.76577 24.5328 9.61031 24.3759 9.98113C24.3661 9.99105 24.3556 10.0006 24.3456 10.0092C24.3948 9.96691 24.292 10.0368 24.2753 10.0454C24.261 10.0528 24.2464 10.0595 24.2318 10.0664C24.1309 9.11785 23.7882 8.09529 22.9027 7.61917C21.6676 7.01875 20.2405 6.90155 18.8855 6.9612C18.1991 7.00203 17.4065 7.11205 16.7966 6.76394C16.6066 6.65547 16.4543 6.48474 16.2396 6.4177C15.5617 6.23387 15.2543 6.93167 15.3466 7.50551C15.0575 7.5078 14.7707 7.66827 14.6459 7.93247C14.5726 8.08884 14.5739 8.25757 14.5107 8.4145C14.3168 8.81247 14.0395 9.09853 14.1963 9.58103C13.9205 9.89568 14.0777 10.372 14.3003 10.6733C14.4102 10.8299 14.5411 10.9804 14.6216 11.1557C14.6998 11.3237 14.5818 11.5228 14.5161 11.682C14.0308 12.8358 14.0585 14.1064 14.3197 15.3099C13.7956 15.5379 13.6383 16.2505 13.9801 16.6992C14.0977 16.8578 14.2411 16.9167 14.4038 17.0143C14.6097 17.1279 14.4415 17.5829 14.5075 17.8027C14.597 18.3391 15.0843 18.6695 15.566 18.3211C15.8717 18.2747 16.1183 19.1664 16.3403 19.3903C16.4771 19.5706 16.629 19.7325 16.7941 19.882C17.286 21.1509 19.8066 21.7943 21.0529 21.7209C22.358 21.5839 23.2384 20.4728 23.9715 19.4867C24.3479 18.9612 24.5928 18.3731 24.6818 17.7317C24.7713 17.0871 24.7321 16.4413 24.6717 15.7959C24.5446 14.4246 24.3443 12.449 24.2149 11.0629C24.6825 11.0243 25.1007 10.6251 25.0866 10.1402Z" fill="#D08B5B"/>
<path fill-rule="evenodd" clip-rule="evenodd" d="M15.7638 6.59967C15.8547 6.50984 16.0035 6.60201 16.1019 6.67419L16.1237 6.6904L16.1861 6.73794C16.3275 6.84725 16.4599 6.96605 16.6126 7.0606C16.7794 7.16386 16.9605 7.24596 17.1444 7.31328C17.5011 7.44382 17.8848 7.5024 18.2629 7.5209C19.8101 7.59661 21.6108 6.78168 23.015 7.75483C23.3479 7.9855 23.5776 8.32278 23.6961 8.70854C23.8298 9.14354 23.784 9.59405 23.8934 10.0306C23.9408 10.22 24.2679 10.2463 24.3044 10.0381L24.3068 10.022L24.3354 10.004L24.3467 9.99721C24.3584 9.99051 24.3637 9.98859 24.3536 9.99802L24.3514 10L24.3558 9.99616C24.3592 9.99311 24.3626 9.98998 24.366 9.98678L24.376 9.977C24.4457 9.81229 24.5916 9.75141 24.7332 9.76743L24.7292 9.77723L24.6871 9.88614L24.6736 9.92032C24.6241 10.0451 24.5695 10.1632 24.4752 10.2701C24.3417 10.4213 24.1757 10.5446 23.9887 10.6205C23.9503 10.6361 23.9561 10.6884 23.9985 10.6926C24.4162 10.7343 24.8867 10.4799 25.0832 10.0943C25.0851 10.1079 25.0863 10.1218 25.0867 10.1361C25.088 10.183 25.0854 10.2292 25.079 10.2743C25.0557 10.283 25.0332 10.2958 25.0123 10.3132C24.8766 10.4263 24.81 10.611 24.6825 10.737C24.5488 10.8692 24.3847 10.9917 24.2066 11.0531C24.2038 11.054 24.2014 11.0554 24.1994 11.057C24.186 11.0059 24.1717 10.9551 24.1555 10.9051C24.1491 10.8854 24.123 10.8903 24.121 10.9098C24.1174 10.9445 23.6274 10.595 23.25 10.6515C22.5405 10.7576 22.3767 11.1729 21.3573 11.1115C20.8598 11.0816 19.8091 10.6144 18.8899 10.5793C18.056 10.5474 16.5658 11.0245 16.1726 11.2994C15.9682 11.4423 16.5454 11.9143 16.4409 12.1288C16.1443 12.7375 16.2645 13.5426 15.9544 14.0239L15.9424 14.042C15.7438 14.3346 15.8678 15.1129 15.7905 15.3529C15.6508 15.7861 15.4196 15.5963 15.4545 15.6544C15.4656 15.6728 15.4951 15.6609 15.4893 15.6397C15.394 15.2922 15.1331 15.0298 14.8014 14.934C14.8158 14.8517 14.7896 14.7482 14.7385 14.6807L14.7176 14.5829L14.6983 14.4914C14.6539 14.2778 14.6141 14.0645 14.5927 13.8452C14.5606 13.5162 14.5595 13.1848 14.5806 12.855C14.6082 12.4217 14.6973 12.0043 14.7952 11.5871L14.8057 11.5424L14.8827 11.218C15.0751 11.2729 15.2724 11.3075 15.4643 11.3247C15.6877 11.3447 15.9088 11.3429 16.1283 11.3252C16.3228 11.8548 16.3154 12.4579 16.075 12.9752C15.7938 13.5802 15.1047 14.1582 15.2938 14.892C15.3763 15.2119 15.8589 15.1466 15.8704 14.8236L15.8706 14.8137C15.8724 14.4946 15.9806 14.2318 16.1236 13.9575L16.1433 13.92L16.1759 13.8588C16.3471 13.538 16.492 13.2214 16.5402 12.8564C16.6101 12.3261 16.5005 11.7786 16.2385 11.315C17.1716 11.2174 18.0747 10.8471 18.9858 10.6481L19.0276 10.6392L19.0695 10.6305C19.7426 10.4945 20.4844 10.4784 21.0946 10.8336C21.1062 10.8404 21.1155 10.8234 21.1049 10.8159C20.2193 10.1755 19.0723 10.2664 18.0568 10.4921L17.9983 10.5052L17.9408 10.5184C17.0015 10.7359 16.0174 11.0554 15.0572 10.7739C14.8076 10.7008 14.5654 10.5807 14.37 10.4067L14.3537 10.392C14.2711 10.3173 14.1768 10.2205 14.1609 10.107C14.1553 10.0671 14.157 10.0397 14.1805 10.0081C14.205 9.97514 14.2478 9.97529 14.2232 9.96339C14.5108 10.1024 14.7573 9.70305 14.4872 9.53005L14.4681 9.51825C14.1225 9.29874 14.2952 8.79919 14.6917 8.80152L14.7119 8.80189C14.9365 8.80256 15.0053 8.53667 14.8845 8.38104L14.8729 8.36651C14.6495 8.07797 15.0256 7.72992 15.3183 7.89304L15.3343 7.90227C15.4733 7.9793 15.6193 7.89354 15.6719 7.75752C15.7847 7.46566 15.727 7.16432 15.7203 6.86225L15.7199 6.84255L15.7195 6.80969L15.7194 6.78374L15.7196 6.76654C15.7211 6.70287 15.7293 6.63381 15.7638 6.59967ZM24.21 11.0986L24.2128 11.0992L24.2188 11.0995L24.2243 11.1582L24.2173 11.1284L24.21 11.0986ZM14.6152 11.1376L14.6084 11.1238L14.6303 11.1326L14.6197 11.1474L14.6152 11.1376ZM20.7416 9.45808C20.7184 9.45144 20.7016 9.48773 20.7247 9.49831C21.2992 9.76177 21.735 10.1822 22.0751 10.7091C22.1074 10.7589 22.156 10.7736 22.212 10.7648C22.2394 10.7606 22.2549 10.7472 22.2695 10.7289L22.2732 10.7242L22.2844 10.7091C22.3086 10.6757 22.3054 10.6202 22.2844 10.5864C21.9391 10.0337 21.3613 9.63549 20.7416 9.45808ZM22.1092 9.28552C22.0839 9.28561 22.0705 9.32437 22.0898 9.34084C22.2548 9.48162 22.4159 9.63764 22.533 9.82181C22.5899 9.9112 22.6375 10.0065 22.6719 10.1069C22.7094 10.2164 22.7216 10.33 22.7751 10.4335C22.8649 10.6071 23.1054 10.5102 23.1175 10.3405C23.1358 10.0847 22.9226 9.79701 22.7537 9.62267C22.5823 9.44575 22.3721 9.32372 22.1295 9.28808L22.1126 9.28573L22.1092 9.28552ZM15.7765 9.08524C15.706 9.06739 15.6484 9.1575 15.7038 9.21036C16.008 9.50082 16.419 9.63555 16.8283 9.69438L16.8491 9.69731C17.2323 9.74997 17.7896 9.77984 18.0785 9.46739C18.1397 9.40123 18.1206 9.27442 18.0224 9.25397C17.8879 9.22596 17.7498 9.23628 17.6134 9.25313L17.5745 9.2581L17.4778 9.27098C17.2867 9.29599 17.0949 9.31124 16.902 9.30557C16.5158 9.29418 16.1479 9.17952 15.7765 9.08524ZM22.4694 8.16099C22.4289 8.1453 22.3861 8.2011 22.4115 8.23645C22.5281 8.39845 22.6677 8.54013 22.7871 8.69966C22.9068 8.85969 23.0068 9.02787 23.1485 9.17024C23.2245 9.24664 23.354 9.16892 23.3271 9.066C23.2254 8.6764 22.8385 8.30402 22.4694 8.16099ZM16.4059 8.33683C16.3634 8.32174 16.3336 8.38079 16.3632 8.41044C16.7554 8.80296 17.4609 9.00855 17.9804 8.78182C18.0973 8.73079 18.0257 8.56678 17.9205 8.5603C17.6606 8.54423 17.3995 8.57436 17.1409 8.53472C16.8884 8.49598 16.6463 8.42215 16.4059 8.33683ZM17.0652 7.81069C17.009 7.78724 16.9855 7.87128 17.0268 7.9019C17.2487 8.06634 17.521 8.13764 17.7925 8.07843C17.881 8.05914 17.8619 7.91621 17.7712 7.91987C17.5255 7.9297 17.2941 7.90622 17.0652 7.81069ZM18.8856 6.95707C19.2218 6.94227 19.5624 6.93836 19.9035 6.95001L19.7521 6.97015L19.6512 6.98335C19.2644 7.03337 18.8769 7.07568 18.4864 7.07397C18.2224 7.07281 17.9588 7.05148 17.701 6.99932C18.0958 7.02319 18.5069 6.9796 18.8856 6.95707Z" fill="#ECDCBF"/>
<path fill-rule="evenodd" clip-rule="evenodd" d="M14.8921 9.31565C14.8917 9.31759 14.8924 9.31906 14.8928 9.32113C14.8929 9.32053 14.893 9.32022 14.8931 9.3195C14.8928 9.31794 14.8925 9.3169 14.8921 9.31565Z" fill="#4F66AF"/>
<path fill-rule="evenodd" clip-rule="evenodd" d="M14.892 9.33553C14.8903 9.33371 14.8879 9.33237 14.8854 9.33055C14.8854 9.33061 14.8853 9.33067 14.8853 9.33074C14.8876 9.33224 14.8898 9.33396 14.892 9.33553Z" fill="#4F66AF"/>
<path fill-rule="evenodd" clip-rule="evenodd" d="M25.0119 10.3169C25.1655 10.189 25.4075 10.3068 25.3555 10.5174C25.2988 10.7468 25.0536 10.9035 24.8511 10.9978C24.6428 11.0948 24.4398 11.1135 24.2124 11.1029L24.2096 11.1022C24.2727 11.356 24.3085 11.6197 24.3568 11.8749C24.4181 12.1988 24.4784 12.5227 24.5378 12.8469C24.5952 13.1602 24.6678 13.4739 24.7119 13.7887C24.7564 14.1066 24.7992 14.4246 24.8429 14.7426C24.9159 15.2736 24.9748 15.807 25.0369 16.3396L25.0665 16.5916C25.1287 17.1252 25.1788 17.6593 25.0609 18.1903C24.9504 18.6879 24.7015 19.152 24.4129 19.5674C24.1302 19.9741 23.8144 20.3652 23.4677 20.719C22.7991 21.4013 21.9745 21.9478 21.0077 22.0491C20.5914 22.0928 20.1468 22.0442 19.7554 21.8925L19.7294 21.8823C19.3332 21.7255 18.848 21.457 18.7449 21.0164C18.6816 20.7461 18.9594 20.5351 19.203 20.6634C19.3159 20.7228 19.4007 20.7907 19.4934 20.8759L19.5098 20.8911C19.5855 20.9616 19.6147 20.9832 19.702 21.0384C19.8812 21.1514 20.0155 21.2049 20.219 21.2562C20.5943 21.3508 20.9992 21.3359 21.3801 21.224C22.1889 20.9864 22.8163 20.3664 23.3538 19.7448C23.6456 19.4072 23.9226 19.0531 24.1363 18.6597C24.3604 18.2469 24.4639 17.8135 24.4577 17.3439C24.4506 16.8139 24.3776 16.2819 24.3296 15.7545C24.2808 15.2168 24.2356 14.6793 24.1958 14.1408C24.1586 13.6359 24.155 13.1286 24.1419 12.6221L24.1394 12.5271C24.1317 12.2582 24.1264 11.9892 24.1203 11.7203C24.1143 11.4521 24.0931 11.1805 24.1207 10.9134C24.1226 10.894 24.1488 10.8891 24.1552 10.9087C24.1714 10.9588 24.1856 11.0096 24.199 11.0607C24.2011 11.0591 24.2034 11.0577 24.2062 11.0568C24.3844 10.9954 24.5484 10.8729 24.6821 10.7407C24.8097 10.6146 24.8763 10.4299 25.0119 10.3169ZM15.2649 6.55967C15.3768 6.0989 15.8804 5.99598 16.2528 6.21788C16.4319 6.32459 16.5753 6.47848 16.7426 6.60078C16.909 6.7224 17.0928 6.82006 17.2868 6.88903C17.6722 7.02605 18.0787 7.07587 18.486 7.07765C19.4773 7.08201 20.4484 6.80271 21.4412 6.83386C22.2094 6.85797 23.0248 7.08557 23.582 7.64229C23.8822 7.94219 24.0756 8.32775 24.1794 8.73708C24.2279 8.92839 24.264 9.12434 24.2925 9.31983L24.2995 9.36869C24.3154 9.48294 24.3411 9.6039 24.3434 9.71937C24.3456 9.82308 24.3194 9.9316 24.3052 10.0342C24.2753 10.2506 23.9411 10.226 23.893 10.0342C23.7836 9.59773 23.8294 9.14723 23.6958 8.71222C23.5772 8.32647 23.3475 7.98918 23.0147 7.75851C21.6105 6.78536 19.8097 7.6003 18.2626 7.52459C17.8844 7.50608 17.5007 7.4475 17.1441 7.31696C16.9601 7.24964 16.779 7.16755 16.6123 7.06428C16.4595 6.96973 16.3271 6.85094 16.1857 6.74162L16.1233 6.69408C16.0264 6.62095 15.8613 6.50662 15.7635 6.60335C15.7209 6.64546 15.7183 6.74067 15.7191 6.81337L15.7196 6.84623C15.724 7.1549 15.7868 7.463 15.6716 7.76121C15.619 7.89723 15.4729 7.98298 15.334 7.90596L15.3268 7.90182C15.0329 7.72656 14.6468 8.07873 14.8726 8.37019L14.8796 8.37901C15.0066 8.53375 14.9389 8.80626 14.7116 8.80557L14.7034 8.80543C14.2984 8.79276 14.1187 9.30021 14.4678 9.52193L14.4785 9.52856C14.762 9.69862 14.5134 10.1074 14.2229 9.96708C14.2475 9.97898 14.2047 9.97882 14.1802 10.0118C14.1567 10.0434 14.1549 10.0707 14.1605 10.1107C14.1775 10.2318 14.2837 10.3338 14.3697 10.4103C14.5651 10.5843 14.8073 10.7045 15.0569 10.7776C16.0566 11.0706 17.0823 10.7122 18.0564 10.4958C19.0719 10.2701 20.2189 10.1792 21.1046 10.8196C21.1151 10.8271 21.1059 10.8441 21.0942 10.8373C20.4587 10.4673 19.6802 10.5001 18.9854 10.6518C18.0744 10.8508 17.1713 11.2211 16.2382 11.3187C16.5001 11.7822 16.6098 12.3298 16.5398 12.86C16.4916 13.2251 16.3467 13.5417 16.1756 13.8625L16.1429 13.9237C15.9903 14.2117 15.8721 14.4838 15.8702 14.8174C15.8684 15.1489 15.3768 15.2188 15.2935 14.8957C15.1043 14.1619 15.7935 13.5839 16.0747 12.9788C16.315 12.4616 16.3224 11.8585 16.1279 11.3289C15.9085 11.3466 15.6873 11.3484 15.464 11.3284C15.2721 11.3112 15.0747 11.2766 14.8823 11.2217L14.8053 11.5461C14.7034 11.9782 14.6089 12.4099 14.5803 12.8587C14.5592 13.1885 14.5603 13.5199 14.5924 13.8488C14.6201 14.133 14.6786 14.407 14.7382 14.6844C14.7893 14.7519 14.8154 14.8553 14.801 14.9377C15.1327 15.0335 15.3936 15.2959 15.4889 15.6434C15.4948 15.6645 15.4652 15.6764 15.4541 15.6581C15.228 15.2819 14.6456 15.1435 14.2772 15.392C13.9254 15.6293 13.7867 16.1084 13.9858 16.4876C14.0905 16.687 14.2458 16.8271 14.4461 16.9236L14.4864 16.9426C14.5913 16.9924 14.6876 17.0466 14.7551 17.1466C14.8427 17.2763 14.8456 17.4134 14.8373 17.5616L14.8338 17.6216C14.8282 17.721 14.827 17.8232 14.8565 17.9188L14.8632 17.94C14.871 17.9639 14.8792 17.9849 14.8934 18.0077C14.8976 18.0144 14.9375 18.0536 14.9505 18.0678L14.9669 18.0728L14.9852 18.0735C15.0055 18.0738 15.0321 18.065 15.0234 18.0711L15.0258 18.0697C15.0335 18.0649 15.0406 18.0598 15.0465 18.0553L15.0579 18.0465C15.0844 18.008 15.1176 17.9763 15.1584 17.9521L15.1973 17.9347C15.2985 17.8276 15.4718 17.8839 15.5443 17.9906C15.5965 18.0673 15.6246 18.1453 15.6269 18.2222C15.6351 18.2091 15.6532 18.2019 15.6647 18.2166L15.7335 18.3044C15.9966 18.6414 16.2551 18.9805 16.5541 19.2877C16.7188 19.457 16.8959 19.616 17.0811 19.7626C17.2392 19.8876 17.5391 20.008 17.5437 20.2359C17.5451 20.3098 17.4927 20.3622 17.4287 20.3873C17.2201 20.469 16.9623 20.1911 16.8117 20.0559L16.7993 20.045C16.6149 19.8831 16.4467 19.7054 16.2914 19.5153C15.9898 19.1461 15.7376 18.7212 15.6264 18.2538C15.6212 18.3353 15.5863 18.4153 15.5183 18.4907C15.4278 18.5911 15.304 18.6615 15.1717 18.6905C14.872 18.7561 14.5794 18.648 14.4011 18.3977C14.2504 18.186 14.206 17.9066 14.2255 17.6509L14.2279 17.6202C14.2306 17.5792 14.2341 17.504 14.2447 17.472L14.1503 17.42C14.0346 17.3583 13.9274 17.2774 13.8312 17.1885C13.4444 16.831 13.2504 16.2501 13.4272 15.7418C13.5378 15.4238 13.7702 15.1471 14.0678 15.0033C14.018 14.888 14.0014 14.7512 13.9826 14.6301L13.9795 14.6101C13.9477 14.4114 13.921 14.2103 13.9109 14.0093C13.8919 13.6338 13.915 13.2549 13.9738 12.8838C14.0694 12.2811 14.2672 11.6419 14.6299 11.1363C14.3532 11.0262 14.0985 10.8667 13.902 10.6453C13.6965 10.4139 13.5656 10.0826 13.7244 9.78876C13.7649 9.71386 13.8177 9.6509 13.8783 9.60089C13.7732 9.40188 13.7392 9.16667 13.804 8.94186C13.8815 8.67308 14.092 8.46345 14.3463 8.36557C14.2845 8.11092 14.335 7.83701 14.5237 7.62478C14.7108 7.41425 15.0015 7.33757 15.2704 7.38569C15.285 7.11485 15.2 6.82679 15.2649 6.55967ZM14.5104 16.0689C14.7571 15.9479 15.0493 15.9671 15.2957 16.0818L15.3124 16.0897C15.5813 16.2204 15.9375 16.5259 15.852 16.8508C15.802 17.0408 15.5914 17.1057 15.4281 17.0237C15.2917 16.9551 15.2606 16.8326 15.1922 16.7095C15.1438 16.6225 15.084 16.5544 15.0138 16.4845C14.8657 16.337 14.6994 16.2275 14.5104 16.1398C14.4832 16.1272 14.4841 16.0818 14.5104 16.0689ZM20.7244 9.502C20.7013 9.49141 20.718 9.45512 20.7413 9.46176C21.361 9.63917 21.9388 10.0374 22.284 10.5901C22.3051 10.6238 22.3083 10.6794 22.284 10.7127L22.2728 10.7279C22.257 10.7486 22.2414 10.7639 22.2116 10.7685C22.1556 10.7772 22.107 10.7626 22.0748 10.7127C21.7347 10.1859 21.2989 9.76545 20.7244 9.502ZM24.8729 9.60632C24.9254 9.51718 25.0646 9.53512 25.0923 9.63506L25.0963 9.64376C25.1113 9.67783 25.1045 9.68481 25.0766 9.66553C25.1456 9.72258 25.1769 9.80756 25.1558 9.89892C25.0417 10.3924 24.4842 10.7448 23.9981 10.6963C23.9557 10.692 23.95 10.6398 23.9884 10.6242C24.1754 10.5483 24.3414 10.425 24.4748 10.2737C24.6045 10.1267 24.6591 9.95848 24.7289 9.78091C24.755 9.71425 24.7958 9.66625 24.8531 9.64004C24.8607 9.62952 24.8674 9.61831 24.8729 9.60632ZM22.1089 9.2892L22.1122 9.28942C22.362 9.32176 22.578 9.44531 22.7534 9.62636C22.9223 9.8007 23.1354 10.0884 23.1172 10.3442C23.1051 10.5138 22.8645 10.6108 22.7748 10.4372C22.7212 10.3336 22.7091 10.2201 22.6715 10.1106C22.6371 10.0102 22.5896 9.91489 22.5327 9.8255C22.4155 9.64132 22.2544 9.4853 22.0895 9.34452C22.0701 9.32805 22.0836 9.28929 22.1089 9.2892ZM15.7035 9.21404C15.6481 9.16119 15.7057 9.07107 15.7761 9.08892C16.1476 9.1832 16.5154 9.29786 16.9016 9.30926C17.0945 9.31493 17.2863 9.29968 17.4774 9.27466L17.5741 9.26178C17.7232 9.24228 17.8747 9.22697 18.022 9.25766C18.1202 9.2781 18.1394 9.40491 18.0782 9.47107C17.7893 9.78353 17.2319 9.75366 16.8487 9.70099C16.4326 9.64376 16.0128 9.50943 15.7035 9.21404ZM22.4112 8.24013C22.3858 8.20478 22.4286 8.14898 22.469 8.16467C22.8382 8.3077 23.2251 8.68008 23.3268 9.06969C23.3536 9.17261 23.2242 9.25032 23.1481 9.17392C23.0065 9.03155 22.9065 8.86338 22.7867 8.70335C22.6674 8.54382 22.5277 8.40213 22.4112 8.24013ZM16.3629 8.41413C16.3333 8.38447 16.3631 8.32542 16.4056 8.34051C16.6459 8.42584 16.8881 8.49967 17.1406 8.5384C17.3992 8.57804 17.6602 8.54792 17.9202 8.56398C18.0253 8.57046 18.0969 8.73447 17.98 8.78551C17.4606 9.01223 16.755 8.80664 16.3629 8.41413ZM17.0265 7.90558C16.9852 7.87496 17.0087 7.79092 17.0648 7.81437C17.2937 7.9099 17.5252 7.93339 17.7708 7.92356C17.8615 7.91989 17.8806 8.06283 17.7922 8.08211C17.5207 8.14132 17.2483 8.07003 17.0265 7.90558Z" fill="black"/>
<path fill-rule="evenodd" clip-rule="evenodd" d="M20.6201 19.1838C20.6201 19.1838 21.0636 19.5263 21.8906 19.5263C22.7176 19.5263 23.1979 19.2199 23.1979 19.2199C23.1979 19.2199 22.473 18.7794 21.8906 18.7437C21.3081 18.708 20.6201 19.1838 20.6201 19.1838Z" fill="#FF6C6C"/>
<path fill-rule="evenodd" clip-rule="evenodd" d="M19.6338 18.3135C19.6371 17.9685 19.9359 17.909 20.2198 17.955C20.7004 18.0328 21.1828 18.0875 21.6699 18.0974L21.7538 18.0988C21.7674 18.0791 21.79 18.0641 21.8206 18.0609C22.0907 18.0317 22.3665 18.0364 22.638 18.0284C22.8748 18.0214 23.1182 17.9977 23.355 18.0163L23.3739 18.018C23.6633 18.046 23.9687 18.1938 23.9338 18.5336C23.9016 18.8482 23.601 19.1268 23.3609 19.3016C23.3123 19.3367 23.2627 19.3695 23.2116 19.3994C23.1956 19.4199 23.1722 19.4341 23.1452 19.437C22.9087 19.5648 22.6479 19.6404 22.3778 19.6656C21.8053 19.7188 21.1397 19.6612 20.5898 19.413C20.4111 19.3323 20.2443 19.2315 20.0969 19.1078C19.8696 18.9169 19.6313 18.6274 19.6338 18.3135ZM21.9209 18.9349C21.6914 18.928 21.4622 18.9601 21.2436 19.0309C21.0955 19.0788 20.9605 19.1707 20.8185 19.2346C21.2969 19.4171 21.8527 19.4569 22.3434 19.4237C22.5587 19.4091 22.7675 19.3595 22.962 19.274C22.9317 19.2522 22.901 19.2299 22.8689 19.2105C22.7718 19.1517 22.6704 19.1017 22.5646 19.0619C22.3584 18.9846 22.1409 18.9419 21.9209 18.9349ZM21.9665 15.9807C21.9046 15.9362 21.9537 15.789 22.0861 15.8117C23.2878 16.0183 22.6652 18.0892 21.1308 16.9528C20.9481 16.8054 21.1693 16.4806 21.3662 16.6069L21.4361 16.6608C21.6634 16.8351 22.0394 17.0986 22.3087 16.8159C22.563 16.4596 22.2029 16.1244 21.9665 15.9807ZM22.7801 14.4133C23.0356 14.1953 23.356 14.356 23.5441 14.5768L23.5772 14.6163C23.6148 14.6614 23.6565 14.7139 23.6815 14.77C23.89 14.5924 24.1726 14.4675 24.443 14.5486C24.7053 14.6275 24.8549 14.878 24.8099 15.147C24.7588 15.4528 24.5275 15.6583 24.2789 15.8173L24.2085 15.8621C23.9098 16.0525 23.6303 16.2444 23.3845 16.5062C23.3444 16.5488 23.2578 16.5431 23.2315 16.4865L23.2103 16.4409L23.1889 16.3953C23.0145 16.0234 22.8277 15.6539 22.6743 15.2732C22.5607 14.991 22.5238 14.6319 22.7801 14.4133ZM19.9069 14.5658C20.094 14.3479 20.4111 14.202 20.6612 14.4134C20.9275 14.6385 20.8753 15.0108 20.7566 15.2979C20.6138 15.6442 20.447 15.9829 20.2867 16.3225L20.2524 16.3954C20.238 16.4257 20.2239 16.4561 20.2099 16.4865C20.1836 16.5431 20.0966 16.5488 20.0568 16.5062C19.8186 16.2526 19.5492 16.0649 19.2614 15.8805L19.1745 15.8252C18.9219 15.6649 18.6831 15.4579 18.6311 15.147C18.5867 14.8786 18.7354 14.6266 18.998 14.5486C19.269 14.4682 19.551 14.5921 19.7598 14.77C19.7847 14.7125 19.8275 14.6583 19.868 14.6109L19.9069 14.5658ZM20.2104 13.0474C20.3019 13.1662 20.2042 13.3602 20.0707 13.3909C19.9054 13.4289 19.7384 13.4058 19.5761 13.453C19.4274 13.4962 19.2849 13.5829 19.1574 13.6692C19.012 13.7676 18.8781 13.8776 18.7551 14.0028C18.6819 14.0773 18.5897 14.2537 18.4768 14.257C18.3646 14.2603 18.5153 13.9093 18.5277 13.8789C18.6162 13.6627 18.7405 13.4637 18.8959 13.2895C19.2027 12.9456 19.8524 12.5827 20.2104 13.0474ZM23.6361 12.9524L23.7127 12.9737C23.9022 13.0264 24.1045 13.0911 24.2671 13.2048L24.2798 13.2138L24.2995 13.2282C24.5036 13.3804 24.7923 13.6841 24.6477 13.9491C24.6377 13.9673 24.6166 13.9692 24.5996 13.9617C24.4073 13.8774 24.2647 13.7092 24.0601 13.6388L24.0224 13.6259C23.8243 13.5592 23.5793 13.489 23.366 13.4954C23.2161 13.5441 23.0136 13.5038 22.9746 13.3212L22.9729 13.3122L22.9695 13.2933C22.947 13.1686 22.9804 13.0096 23.1093 12.9494C23.286 12.8671 23.4583 12.9037 23.6361 12.9524Z" fill="black"/>
<path fill-rule="evenodd" clip-rule="evenodd" d="M19.1778 19.1994C19.4312 18.6055 19.9843 18.169 20.6211 18.0094C21.0887 17.8925 21.5794 17.8963 22.0561 17.9427C22.3058 17.9668 22.5737 17.9866 22.8091 18.0793C23.0101 18.1586 23.1739 18.3084 23.297 18.4843C23.4436 18.6927 23.5433 18.9313 23.6133 19.1758C23.6233 19.2105 23.6326 19.2455 23.6413 19.2807C23.6109 19.4652 23.5463 19.6222 23.3755 19.7382C23.2088 19.8514 23.0099 19.8977 22.8117 19.9142C22.7923 19.9049 22.7735 19.8953 22.7563 19.8854C22.4473 19.7085 22.2299 19.2904 21.84 19.347C21.4921 19.3975 21.263 19.8355 21.0561 20.0924C20.3919 20.1698 19.7281 19.9701 19.1877 19.5902C19.1603 19.4601 19.1587 19.329 19.1778 19.1994ZM24.0928 18.7488C24.0397 18.5997 23.9727 18.4552 23.8934 18.3191C23.6312 17.869 23.2286 17.5104 22.7506 17.3054C21.6201 16.8211 20.1572 17.1625 19.2442 17.9568C18.9323 18.2283 18.6169 18.6273 18.5216 19.0564C18.4931 19.0621 18.4662 19.0769 18.4441 19.0978C17.7844 18.6823 17.1051 18.2826 16.5735 17.7066C16.1875 17.2882 15.919 16.793 15.7546 16.2488C15.7412 16.204 15.669 16.2105 15.6711 16.2601C15.6718 16.2717 15.6724 16.2833 15.673 16.2949C15.6661 16.2736 15.6336 16.2845 15.6311 16.3052C15.5427 16.9663 15.432 17.6671 15.5339 18.3316C15.5949 18.7282 15.7749 19.0184 16.0156 19.3319C16.2735 19.6679 16.5654 19.9804 16.8639 20.2801C17.0533 20.4703 17.2512 20.6897 17.4831 20.8292C17.7529 20.9912 18.0589 21.1144 18.3468 21.2395C18.6397 21.3671 18.9369 21.4849 19.2398 21.5871C19.8453 21.7921 20.471 21.9338 21.1077 21.9958C21.6176 22.0454 22.2002 22.0993 22.6887 21.9074C23.0632 21.7604 23.3655 21.4947 23.6052 21.1749C23.8662 20.8267 24.0725 20.43 24.1866 20.0117C24.3051 19.5772 24.1178 18.8189 24.0928 18.7488Z" fill="black"/>
</svg>
