<svg width="36" height="48" viewBox="0 0 36 48" fill="none" xmlns="http://www.w3.org/2000/svg">
<path fill-rule="evenodd" clip-rule="evenodd" d="M20.7462 42.4832C18.2063 42.4904 16.685 42.4606 13.812 42.419C10.4868 42.331 9.59064 42.4893 7.72779 42.1234C7.44297 42.0628 7.22629 41.9712 7.00651 41.8433C6.92773 41.9324 6.79418 42.0648 6.66735 41.9771C6.43374 41.8227 6.54084 41.2832 6.48291 40.9785C6.38701 38.2956 6.23361 35.5327 6.758 32.8823C6.44009 32.7789 4.57731 32.0123 4.47559 31.7555C6.16012 27.3491 9.85546 22.1926 14.7174 22.3868C14.8152 22.5074 14.9022 22.6859 15.0107 22.8087C15.6717 22.5611 16.5893 22.3129 16.6346 21.3595C16.749 20.7233 16.8315 20.1292 16.8866 19.5444C16.8966 19.4775 16.9768 19.4546 17.0261 19.4261C17.047 19.2749 17.0951 19.1203 17.1994 19.0166C18.0515 18.9401 19.9966 19.2916 20.507 19.4364C21.2033 19.5556 21.1309 20.3032 21.2606 20.8699C21.4663 21.5705 21.6094 22.2976 21.915 22.9821C21.9841 22.9916 22.1778 23.0253 22.2492 23.0378C22.2529 22.9603 22.2166 22.7301 22.2876 22.6831C22.4194 22.5507 22.4498 22.8026 22.479 22.8848C25.3564 22.3412 27.238 24.7838 27.8685 27.5123C28.3251 28.8844 28.9302 30.2731 29.7201 31.7623C30.2155 32.687 28.7924 32.8588 28.1958 33.2279C28.8114 35.624 28.8855 38.0642 28.9865 40.4792C29.0132 40.8507 29.0494 41.3558 28.9179 41.5407C28.8555 41.5892 28.8121 41.5879 28.7488 41.5914C28.6267 41.7232 28.4173 41.7145 28.241 41.7521C27.6836 41.8535 27.1124 41.9213 26.5758 41.9315C25.0696 42.8641 22.7474 42.3426 20.7462 42.4832Z" fill="#D08B5B"/>
<rect x="11.9248" y="26.1758" width="13.7089" height="9.01761" fill="white"/>
<path fill-rule="evenodd" clip-rule="evenodd" d="M16.6765 19.543C16.7556 19.1468 17.4094 19.2386 17.3797 19.6382C17.0496 21.1255 17.2505 22.936 15.1646 22.7896C16.4887 25.1197 20.5777 26.5368 21.8994 23.4777C21.2482 23.3999 21.1193 21.8598 21.0407 21.3209L21.0374 21.2727C21.02 20.9956 21.0258 20.7387 21.1924 20.5016C21.3586 20.6261 21.4254 20.8515 21.4817 21.0571L21.5229 21.2217C21.6606 21.7703 21.8048 22.3165 22.0234 22.8401L22.0311 22.8413C22.0202 22.4862 22.476 22.3239 22.5889 22.7043C25.6725 22.2795 27.3592 24.8251 28.0247 27.4873C28.5101 28.9446 29.1429 30.3467 29.8617 31.7019C30.4042 32.7608 29.0869 33.0032 28.39 33.3555C28.926 35.5035 29.0312 37.7288 29.1305 39.9319C29.0976 40.402 29.31 41.3665 29.0263 41.7037C28.606 42.0326 28.3796 41.4688 28.4443 41.1072C28.5046 38.5509 28.2385 36.0059 28.1621 33.4536C27.636 33.676 27.1035 33.8808 26.565 34.0712C26.5924 36.4662 26.8771 38.8612 26.9786 41.2439C27.1118 41.349 27.1854 41.531 27.0717 41.6897C26.4625 42.5396 25.3611 42.6665 24.392 42.6787C22.0858 42.7076 19.7772 42.6987 17.4709 42.6918C15.2054 42.6405 12.9202 42.7856 10.6667 42.5259C10.225 42.8577 10.1347 42.1424 10.1939 41.8373L10.2163 41.2261C10.2314 40.8186 10.2475 40.4112 10.268 40.0041L10.3194 39.0112C10.4054 37.3567 10.4965 35.703 10.641 34.0516C9.33199 33.8726 8.04175 33.5548 6.79265 33.1259C6.89546 35.9926 6.68454 38.8901 7.03625 41.7422C7.26833 42.0572 6.80288 42.353 6.53118 42.1557C6.19421 41.8986 6.33872 41.3958 6.27143 41.0257L6.26279 40.7865C6.16848 38.2066 6.03963 35.5725 6.52032 33.0281L6.31355 32.9478C5.68327 32.7016 4.06237 32.0433 4.27493 31.7186C5.96711 27.2829 9.75243 21.9775 14.7658 22.2296C14.8928 22.3178 14.9577 22.4896 15.0519 22.6127L15.201 22.5586C15.7786 22.347 16.4059 22.0789 16.423 21.3676C16.5324 20.7616 16.6191 20.1554 16.6765 19.543ZM24.9383 30.5991C25.6565 29.5943 20.6756 31.1824 20.3215 31.2872L20.1882 31.3358C18.0066 32.1292 15.6548 32.8964 13.9153 34.4778C13.8787 34.5178 13.9242 34.5732 13.9715 34.5507L13.9776 34.5471C14.0468 34.5086 14.3464 34.4016 14.1341 34.4421C16.6476 32.8565 19.5677 31.9854 22.421 31.2236C22.8356 31.1233 23.2523 31.0311 23.6705 30.9471C24.0924 30.8446 24.5685 30.8457 24.9383 30.5991ZM17.0677 30.2721C17.1292 30.0216 17.5419 27.7196 16.8564 28.3511C16.6736 28.6824 16.6034 29.0662 16.5705 29.4392C16.4821 29.874 16.7053 30.3427 16.4883 30.7435C16.294 31.2671 15.58 31.8788 15.5323 30.906C16.7005 30.8661 16.3498 29.3853 15.5544 29.8431C15.1189 30.216 15.0436 30.9182 15.2616 31.4326C14.9095 31.0492 14.3386 31.0479 13.9311 30.7586C13.1952 29.9628 14.4313 29.1346 15.1044 28.848C15.1423 28.8063 15.6941 28.6139 15.5771 28.5906C15.0487 28.5955 14.5192 28.708 14.0632 28.986C13.1194 29.4466 12.7982 30.8727 13.8778 31.3725C14.1113 31.4851 14.3668 31.5456 14.5979 31.6618C15.1804 31.9638 14.9922 32.3434 14.3909 32.3545C14.1436 32.4086 13.3274 32.1821 13.4188 32.6157C13.5664 32.8868 13.8879 32.9272 14.1696 32.9348C14.9224 32.9864 15.8585 32.561 15.433 31.6751C15.9466 32.1128 16.5879 31.5009 16.808 31.0254C17.0762 31.5515 17.7503 31.3931 18.1308 31.0818C18.7121 31.5397 19.4416 31.0307 19.7006 30.4621C19.7059 30.5804 19.7111 30.6987 19.7169 30.817C19.7286 31.0594 20.1042 31.1373 20.1597 30.8769C20.2441 30.4812 20.3606 30.0898 20.5207 29.7178C20.8892 28.7399 21.1145 29.1808 21.1273 29.9472C21.1727 30.2349 21.3167 30.4927 21.6346 30.5121C21.7232 30.5175 21.8388 30.4387 21.8526 30.346L21.871 30.2235C21.9097 29.9667 21.9545 29.7023 22.0515 29.4611C22.1448 30.2597 23.1903 30.2558 23.4818 29.5936C24.0866 29.9567 24.7212 29.4495 25.0031 28.9249L25.0115 28.909C25.1101 28.7296 24.8597 28.5126 24.7166 28.6813L24.6669 28.7331C24.397 29.0125 23.9675 29.4178 23.6126 29.0726C23.6244 28.917 23.6196 28.758 23.61 28.6049C23.5986 28.4223 23.3466 28.2598 23.2034 28.4231C23.0014 28.2515 22.7506 28.2762 22.5394 28.3959C21.9923 28.5506 21.6477 29.0834 21.529 29.6129C21.5164 29.1898 21.378 28.7308 20.9134 28.691C20.4373 28.6869 20.2551 29.2193 20.0928 29.5776C20.0834 29.4171 20.0743 29.2567 20.0661 29.0962C20.0521 28.8201 19.6692 28.8229 19.6378 29.088L19.637 29.0962C19.5767 29.6691 19.2595 31.0415 18.459 30.7729C18.7966 30.401 19.4071 29.2676 18.8267 28.9145C17.9334 28.6896 17.4752 30.0993 17.8561 30.7553L17.8363 30.7692C17.6187 30.9194 17.2591 31.0866 17.1376 30.7499L17.1238 30.7189C17.0614 30.5765 17.0063 30.4224 17.0677 30.2721ZM15.7899 30.1132C15.959 30.0144 16.0192 30.3415 15.976 30.4513C15.9069 30.6274 15.7182 30.7255 15.5302 30.7926L15.5308 30.7727C15.5391 30.5716 15.6061 30.2206 15.7899 30.1132ZM18.637 29.2968C18.6408 29.3203 18.6346 29.3491 18.6338 29.371C18.6049 29.7565 18.4334 30.1267 18.1949 30.4276C18.0577 30.0188 18.2346 29.4786 18.637 29.2968ZM22.7034 28.8146C22.813 28.7857 22.9292 28.7938 23.0422 28.8244C23.034 28.9529 23.0619 29.0814 23.1178 29.1994C22.8261 30.0756 22.1404 29.4011 22.7034 28.8146Z" fill="black"/>
<path fill-rule="evenodd" clip-rule="evenodd" d="M19.289 7.47363C20.6874 7.47363 22.3651 8.15323 22.5078 8.16682L22.5116 8.16703C22.5867 8.16703 22.8799 8.391 23.3914 8.83895L22.8374 9.92213L22.8822 9.96505C23.0968 10.1712 23.2799 10.3592 23.4245 10.5073C24.6048 11.717 24.817 16.4666 24.5388 18.1229C24.2606 19.7793 23.7454 21.4 21.3468 21.4C18.9481 21.4 16.2796 19.9542 15.8685 19.5039C15.5945 19.2037 15.2866 19.0599 14.945 19.0725C14.931 19.0547 14.9171 19.037 14.9033 19.0193L14.853 19.0122C14.3802 18.9436 14.0415 18.8512 13.8367 18.7351C13.4369 18.5083 12.9974 17.3159 12.9974 17.0533C12.9974 16.7933 12.3411 14.9017 12.3279 14.7015L12.3277 14.696C12.3277 14.5286 11.4704 13.7594 11.4704 13.5151C11.4704 13.2708 11.2975 13.2856 11.4704 12.4248L11.5206 12.1719C11.7045 11.2553 12.0644 9.73763 13.4369 9.07815C14.945 8.35344 17.8766 7.47363 19.289 7.47363Z" fill="#D08B5B"/>
<path fill-rule="evenodd" clip-rule="evenodd" d="M22.8711 9.86522C22.5474 9.87694 22.1964 9.89233 21.8329 9.91255C21.072 9.95489 20.2649 10.0179 19.5428 10.1112C18.8056 10.2064 18.2124 10.3266 17.8488 10.4649C17.6378 10.5452 17.3823 10.7777 17.1195 11.2389C16.8654 11.6848 16.6586 12.2497 16.4965 12.8291C16.3359 13.4032 16.2273 13.9617 16.1588 14.3793C16.1247 14.5872 16.1009 14.7581 16.0857 14.8758C16.0782 14.9347 16.0728 14.9801 16.0693 15.0101L16.0656 15.0433L16.0648 15.0507L16.0647 15.0518L16.0647 15.052L16.0647 15.052L16.0647 15.0521L16.0219 15.4721L15.6411 15.6529C15.6412 15.6529 15.6412 15.6529 15.641 15.653L15.6408 15.6531L15.6405 15.6532L15.6404 15.6533L15.6402 15.6533L15.6383 15.6543L15.6229 15.6618C15.6083 15.6691 15.5853 15.6806 15.5551 15.6962C15.4947 15.7275 15.406 15.7749 15.2987 15.8366C15.0823 15.961 14.7981 16.1389 14.5182 16.3559L14.4886 16.379L14.4887 16.4338C14.4891 16.5295 14.4916 16.66 14.4994 16.8006C14.5074 16.9429 14.5203 17.0853 14.5397 17.208C14.5465 17.251 14.5536 17.2886 14.5608 17.3205C14.623 17.3461 14.7099 17.3727 14.8164 17.3968C14.94 17.4246 15.0632 17.443 15.1578 17.4545C15.2043 17.4601 15.2421 17.4638 15.2671 17.466L15.2942 17.4682L15.2985 17.4685L15.2987 17.4686L15.2989 17.4686L15.2993 17.4686L15.2994 17.4686L15.2997 17.4686L15.8202 17.5019L15.9694 18.0029L16.1642 18.6566L16.2051 18.7941L16.1924 18.9371L16.1226 19.723C16.0061 19.6406 15.9198 19.569 15.8685 19.5129C15.5945 19.2127 15.2866 19.0689 14.945 19.0815L14.9033 19.0284L14.853 19.0212C14.7937 19.0126 14.7365 19.0036 14.6814 18.9943L14.6856 18.9473L14.6708 18.8974C14.6117 18.8867 14.5498 18.8743 14.4867 18.8601C14.304 18.8189 14.0802 18.7556 13.8725 18.6553C13.7865 18.6137 13.676 18.5531 13.5664 18.4662C13.3302 18.1268 13.1185 17.593 13.035 17.275C13.0189 17.1395 13.0085 17.0053 13.0018 16.8841C12.9949 16.7608 12.9914 16.6456 12.9898 16.5485C12.9415 16.4476 12.9111 16.3275 12.9132 16.1869C12.9178 15.8827 13.0856 15.6638 13.1709 15.5631C13.2783 15.4362 13.4227 15.3071 13.5993 15.1703C13.9493 14.899 14.2951 14.6833 14.5511 14.5362C14.5761 14.5218 14.6003 14.508 14.6237 14.4949C14.6384 14.3913 14.6566 14.2707 14.6786 14.1365C14.7528 13.684 14.8721 13.0682 15.052 12.425C15.2304 11.7873 15.4768 11.092 15.8162 10.4964C16.1468 9.91606 16.625 9.32559 17.3154 9.06292C17.8533 8.85828 18.5941 8.72124 19.3507 8.62352C20.1226 8.52385 20.9694 8.45828 21.7496 8.41487C22.1237 8.39406 22.4844 8.37824 22.8166 8.36621C22.9604 8.47774 23.152 8.63833 23.3914 8.84797L22.8711 9.86522ZM14.4894 17.2846C14.4896 17.2845 14.4926 17.2862 14.4974 17.2901C14.4916 17.2866 14.4892 17.2847 14.4894 17.2846Z" fill="#9DDADB"/>
<path fill-rule="evenodd" clip-rule="evenodd" d="M13.2042 9.04419C13.9564 8.24382 18.2266 7.00584 20.387 7.26827L20.4518 7.27668C20.6242 7.2986 20.7941 7.33179 20.9618 7.37687C21.5038 7.50378 22.0637 7.69594 22.5116 8.01691C22.8854 8.27948 24.0649 8.70829 23.7173 9.39519C23.8462 9.64001 23.8943 9.94248 23.8072 10.1836C23.7962 10.2669 23.7706 10.3436 23.7378 10.4231C24.0132 10.8305 24.2312 11.2912 24.4077 11.7294C24.7162 12.8322 24.9081 13.9799 24.9362 15.1051C25.0297 17.2428 24.7959 19.7962 22.9387 21.1786C21.8168 22.0545 20.0594 22.0839 18.7986 20.9979C18.7271 20.913 18.3906 20.6839 18.5029 20.6437C18.5363 20.6791 18.5707 20.7135 18.6056 20.7474C18.604 20.7436 18.6037 20.7399 18.6044 20.7358L18.5715 20.7059C18.5095 20.6484 18.4293 20.5651 18.5207 20.5814C18.5247 20.5861 18.5291 20.5902 18.5335 20.5949C18.5528 20.6065 18.5674 20.6166 18.5788 20.6255L18.5847 20.6302L18.5829 20.6283C18.5302 20.572 18.4986 20.5146 18.5774 20.5513L18.5878 20.5564C18.6228 20.5933 18.6584 20.6287 18.6946 20.6631C18.694 20.6591 18.6946 20.655 18.6968 20.6506L18.6631 20.6179C18.6301 20.5855 18.6351 20.5854 18.6512 20.5592C18.5811 20.4607 18.712 20.5192 18.7212 20.5576C18.803 20.5382 18.8749 20.6923 18.9276 20.711C21.2388 22.4923 24.5928 20.9118 24.5385 15.9482L24.5377 15.8511C24.5218 14.2639 24.3886 12.6326 23.7337 11.1959C23.67 11.0575 23.5988 10.9229 23.5204 10.7926C23.4664 10.6949 23.4086 10.5997 23.3465 10.5071C23.1725 10.493 23.0007 10.461 22.8314 10.4116C22.7733 10.3968 22.7158 10.3806 22.6584 10.3615C21.8189 10.4074 20.998 10.4573 20.1562 10.5046L19.8932 10.5211C19.18 10.567 18.4425 10.6406 17.8669 11.0829C17.3023 11.4855 17.2997 12.2794 16.8163 12.7214C16.127 13.1904 16.122 13.6133 15.9892 14.3045C15.9991 14.8255 16.3594 15.5825 15.6981 15.8018C15.8097 15.9612 15.6542 15.8846 15.6419 15.8287C15.6407 15.829 15.6394 15.8293 15.6385 15.8293C15.7379 16.0146 15.5918 15.8979 15.5789 15.8384C15.571 15.8362 15.5632 15.8306 15.5554 15.8227C15.6556 15.9851 15.4937 15.8714 15.5033 15.8418C15.3097 15.5436 14.9114 15.4973 14.6306 15.5763C14.6272 15.587 14.6147 15.5879 14.6069 15.5823C13.4129 15.8417 13.721 18.3195 14.9445 18.08C14.9969 18.0693 14.9956 18.0945 15.006 18.0969C14.9778 18.0225 15.0575 18.0528 15.0566 18.0684L15.0615 18.0681C15.0653 18.0678 15.0637 18.0674 15.0666 18.0684C15.0393 17.9162 15.1931 18.1367 15.1809 18.1457C15.1856 18.1429 15.1909 18.1413 15.1956 18.1407L15.1903 18.1263C15.1648 18.0581 15.167 18.0864 15.1672 18.0474C15.148 17.9992 15.1466 18.0203 15.1511 17.9888C15.2185 17.9365 15.2384 18.0953 15.2609 18.1069C15.2223 18.053 15.253 18.009 15.2893 18.0383C15.5649 18.6194 15.9209 19.1653 16.3809 19.5954C16.4312 19.6352 16.4821 19.6743 16.5349 19.7113C16.7305 19.8821 17.0307 19.992 17.2139 20.1434C17.2139 20.1459 17.2126 20.149 17.2108 20.1521L17.215 20.1559L17.2192 20.16L17.2829 20.1907C17.3017 20.2066 17.3185 20.2245 17.3335 20.2442C17.3494 20.2627 17.3635 20.283 17.3754 20.3046C17.3813 20.3309 17.3682 20.3419 17.3432 20.3306C17.3322 20.3269 17.3213 20.3225 17.3104 20.3184C17.311 20.3193 17.3113 20.32 17.312 20.3206C17.3155 20.326 17.3398 20.3824 17.3119 20.3732L17.3085 20.3719C17.2932 20.3663 17.2779 20.36 17.2629 20.3541C17.2807 20.3763 17.2969 20.4004 17.3113 20.4208C17.3266 20.4368 17.336 20.4555 17.3398 20.4768C17.3391 20.4887 17.3326 20.4937 17.3207 20.4922C17.3026 20.4862 17.2848 20.48 17.267 20.4734L17.272 20.4831C17.2846 20.5079 17.3025 20.5496 17.2707 20.5357C17.2435 20.5272 17.2173 20.5175 17.1911 20.5069C17.1889 20.5113 17.1845 20.5128 17.1758 20.5088C17.0924 20.479 17.0118 20.4427 16.9347 20.3998C16.8669 20.3503 16.7985 20.3018 16.7304 20.2526C16.6664 20.2141 16.6045 20.1712 16.5455 20.123C16.1505 19.8673 15.8048 19.5424 15.5304 19.1806C15.0717 19.5789 14.1544 19.1983 13.587 18.8865C13.0851 18.6079 12.8878 18.0926 12.8368 17.5371C12.7308 16.7892 12.1211 16.5332 12.1635 14.8922C12.1626 14.8925 12.1616 14.8925 12.1604 14.8925C12.1382 14.8859 12.1167 14.8772 12.0964 14.8659C12.0755 14.8559 12.0558 14.844 12.0373 14.8296L12.0145 14.7979C12.0027 14.7914 11.9921 14.7845 11.984 14.7776L11.9797 14.783C11.9664 14.7992 11.9754 14.7749 11.9761 14.7701L11.9365 14.7161C11.8426 14.5875 11.7396 14.4433 11.6557 14.328L11.653 14.3326C11.6511 14.3362 11.6501 14.3387 11.651 14.3399C11.4513 14.0522 11.2634 13.7047 11.2112 13.3683C11.1496 13.1091 11.1737 12.8421 11.2275 12.6021C11.4579 11.7615 12.2129 9.85944 13.2042 9.04419ZM18.6246 20.6686L18.6121 20.6574L18.6231 20.6712C18.6288 20.6783 18.6347 20.6848 18.6444 20.6913C18.6437 20.6891 18.6437 20.6869 18.644 20.6844C18.6376 20.6795 18.6311 20.6742 18.6246 20.6686ZM20.3774 7.69061C18.9124 7.56433 17.4714 7.8879 16.0733 8.27958L15.9769 8.30736C15.1819 8.53476 14.3414 8.73939 13.6696 9.22611C12.731 9.9468 12.2463 11.0933 11.8234 12.1518C11.4541 12.9383 11.6429 13.8251 12.1994 14.3743C12.2573 13.8286 12.3561 13.2988 12.5103 12.7733C12.5426 12.6912 12.5182 12.6643 12.5876 12.6536C12.6924 14.0698 12.1762 15.1161 13.1978 16.7944C13.6411 17.5863 13.1279 18.1658 14.3797 18.5825L14.4136 18.5955C14.6744 18.6941 14.9592 18.772 15.2146 18.7168L15.1918 18.6795C15.1684 18.6411 15.1613 18.6224 15.1953 18.606C15.1944 18.6041 15.1931 18.6022 15.1918 18.6C15.1644 18.5481 15.1378 18.4955 15.1125 18.4422C15.1022 18.4457 15.0919 18.4482 15.0813 18.451C15.0882 18.4638 15.0891 18.4767 15.0698 18.4811C15.0009 18.5047 14.9303 18.5142 14.8579 18.5098L14.8424 18.5086C14.7606 18.5036 14.7091 18.4887 14.6631 18.4748C14.6478 18.4723 14.6325 18.4698 14.6175 18.4667C14.4693 18.4337 14.3124 18.3499 14.2109 18.2669C13.0534 17.6079 13.173 15.3644 14.5997 15.1524C14.629 13.7399 15.2991 11.3568 16.4113 10.0109C17.4167 8.77279 20.1612 8.23618 22.0707 8.42539C22.0985 8.43463 22.1263 8.44396 22.1542 8.45338C22.4487 8.47962 22.7295 8.61119 23.0243 8.67231C22.8126 8.51328 22.5725 8.40736 22.3252 8.31734C21.8324 8.01515 21.2675 7.85165 20.7217 7.73633C20.6086 7.70846 20.494 7.69312 20.3774 7.69061ZM14.5344 16.2871C14.6111 16.2453 14.6023 16.2856 14.62 16.2739C15.1717 16.2288 15.7667 16.7131 16.0751 17.1168C16.0508 17.1422 15.9849 17.067 15.9733 17.0552C15.9717 17.0567 15.9699 17.058 15.968 17.0586L15.9766 17.0707C16.1016 17.2506 15.8538 17.039 15.8306 16.9953C15.8265 16.9975 15.8224 16.9988 15.8178 16.9979C15.8374 17.0172 15.8974 17.0675 15.9077 17.1034L15.9236 17.1166C16.0736 17.2454 16.0612 17.3423 15.8909 17.1594C15.8949 17.1679 15.8965 17.1757 15.8937 17.182L15.8995 17.1859C15.9833 17.2445 16.0521 17.4081 15.8771 17.2402C15.8953 17.3628 15.7037 17.1258 15.6975 17.1275C15.3659 16.8665 14.8776 16.6127 14.4616 16.5786L14.4473 16.5769C14.371 16.5671 14.3349 16.5444 14.3617 16.4944C14.2677 16.4719 14.2897 16.4255 14.3342 16.427C14.2679 16.3833 14.3276 16.3415 14.3661 16.3579C14.3396 16.2844 14.4457 16.3333 14.4554 16.3231C14.5104 16.238 14.5253 16.309 14.5344 16.2871ZM13.3779 11.736C13.6429 11.6387 14.4257 11.93 14.363 12.3158C14.3257 12.4044 14.2029 12.4552 14.1165 12.4052L14.0038 12.3293C13.8076 12.1976 13.6307 12.0821 13.4201 11.9672C13.3055 11.9102 13.2562 11.7892 13.3779 11.736ZM14.8856 11.1627L14.7833 11.0959C14.231 10.7335 13.4502 10.1844 14.8349 10.7525C14.9927 10.8204 15.2024 10.8605 15.2885 11.0112C15.4238 11.2889 15.0678 11.3075 14.8856 11.1627ZM14.9477 9.53671C14.9034 9.3681 15.4548 9.56595 15.6154 9.61812L15.6398 9.62738C15.796 9.68571 15.975 9.73983 16.0684 9.87493C16.1779 10.0616 15.9564 10.1003 15.8191 10.016C15.5378 9.83166 15.2294 9.69261 14.9477 9.53671ZM16.35 8.75127C16.0396 8.41144 16.8704 8.73699 16.9948 8.82735L16.9984 8.83002C17.0912 8.89555 17.0724 9.0367 16.9852 9.07816C16.737 9.08289 16.5543 8.87548 16.35 8.75127ZM17.7626 8.37894C17.2691 8.02341 17.9192 8.19252 18.1449 8.33185C18.2988 8.4679 18.1403 8.69757 17.7626 8.37894Z" fill="black"/>
<path fill-rule="evenodd" clip-rule="evenodd" d="M22.537 18.6339C22.7348 18.5877 22.8902 18.7553 22.8513 18.9483C22.8101 19.1526 22.5906 19.2226 22.4065 19.2162C22.1977 19.2089 21.9892 19.1658 21.7794 19.1571C21.5639 19.1483 21.3476 19.1466 21.132 19.1524C20.9325 19.1578 20.7278 19.193 20.53 19.1614C20.4529 19.1491 20.4602 19.0474 20.5103 19.0112C20.6592 18.9038 20.8521 18.86 21.0276 18.815C21.2065 18.769 21.3894 18.7338 21.5728 18.7123C21.7589 18.6906 21.9464 18.6797 22.1336 18.6776C22.2189 18.6766 22.3234 18.6956 22.4065 18.6802C22.4488 18.6724 22.4919 18.6444 22.537 18.6339ZM21.9659 15.9804C22.2023 16.1242 22.5624 16.4593 22.3081 16.8156C22.0089 17.1297 21.578 16.7695 21.3656 16.6066C21.1687 16.4804 20.9475 16.8051 21.1302 16.9525C22.6646 18.089 23.2873 16.018 22.0855 15.8115C21.9532 15.7887 21.904 15.936 21.9659 15.9804ZM20.2522 14.9072C20.5683 14.8546 20.6236 15.3055 20.3103 15.337C20.2445 15.3436 20.1791 15.3494 20.1139 15.3551C20.1202 15.3755 20.1245 15.3965 20.1268 15.4181C20.1297 15.4365 20.132 15.456 20.1339 15.4782C20.1439 15.5892 20.0652 15.7045 19.9734 15.7583C19.8779 15.8142 19.7409 15.8216 19.6461 15.7583C19.5972 15.7256 19.5484 15.6888 19.5214 15.6347C19.4853 15.5792 19.4656 15.5149 19.4636 15.449C19.3194 15.4865 19.1727 15.5371 19.0271 15.5639C19.0324 15.5692 19.0377 15.5748 19.0428 15.581C19.0467 15.5857 19.0414 15.5945 19.0357 15.5902L18.9627 15.574C18.9402 15.5769 18.9177 15.5794 18.8953 15.5808L18.8959 15.5788C18.8584 15.5781 18.8277 15.5338 18.8612 15.4984C18.9898 15.3624 19.1905 15.272 19.3735 15.1964L19.5498 15.1241C19.7752 15.0325 20.0131 14.947 20.2522 14.9072ZM22.7955 15.0467C23.0026 15.0231 23.2076 15.0325 23.415 15.0451C23.7641 15.0664 23.6177 15.5756 23.3375 15.458C23.3404 15.4767 23.3412 15.4953 23.339 15.5127C23.328 15.6022 23.2989 15.6779 23.2167 15.726C23.1405 15.7706 23.0438 15.7705 22.9675 15.726C22.8858 15.6783 22.849 15.6112 22.8281 15.5239C22.812 15.4562 22.8185 15.3996 22.8278 15.3326C22.8309 15.3104 22.8406 15.2897 22.854 15.2711C22.8344 15.2662 22.8149 15.2615 22.7953 15.2571C22.6211 15.2175 22.4492 15.2254 22.2755 15.2003C22.257 15.1976 22.254 15.1677 22.2702 15.1601C22.4263 15.0867 22.6247 15.0662 22.7955 15.0467ZM20.2202 13.4739C20.3397 13.4283 20.4898 13.5042 20.5508 13.6085C20.6201 13.727 20.5905 13.8637 20.5051 13.9634C20.374 14.1165 20.1244 14.2108 19.9404 14.2982L19.9256 14.3052C19.7367 14.3964 19.5426 14.4801 19.3459 14.5531C19.1524 14.6249 18.9512 14.6811 18.7506 14.7294C18.6449 14.7549 18.5369 14.7759 18.4288 14.7892C18.3435 14.7996 18.2777 14.7762 18.196 14.7762C18.1841 14.7763 18.1804 14.7604 18.1901 14.7544C18.2664 14.7064 18.323 14.6432 18.4062 14.5988C18.4929 14.5526 18.5798 14.5071 18.6671 14.4621C18.8435 14.3711 19.0134 14.2698 19.1836 14.1679C19.363 14.0605 19.5383 13.9474 19.7088 13.8262C19.8757 13.7077 20.0295 13.5467 20.2202 13.4739ZM22.3497 13.3765C22.499 13.3475 22.6467 13.4182 22.6909 13.5703C22.7333 13.7161 22.689 13.7473 22.8019 13.8516C22.892 13.9347 22.989 14.0089 23.087 14.082L23.2312 14.1892C23.4924 14.3826 23.7558 14.5655 24.0561 14.696C24.0815 14.7071 24.0668 14.7448 24.0428 14.7453C23.5653 14.7545 23.1075 14.6898 22.6766 14.476C22.4753 14.3761 22.273 14.2498 22.1564 14.0504C22.0212 13.8195 22.0252 13.4394 22.3497 13.3765Z" fill="black"/>
</svg>
