<svg width="36" height="48" viewBox="0 0 36 48" fill="none" xmlns="http://www.w3.org/2000/svg">
<path fill-rule="evenodd" clip-rule="evenodd" d="M22.8154 22.2386C22.2357 21.8165 21.9482 21.1254 21.7319 21.0077C21.5728 20.9212 21.5757 20.324 21.2567 20.1126C20.8286 19.829 19.4645 19.618 18.9683 19.5786C18.4919 19.5407 17.6634 19.6203 17.2165 19.7948C16.4712 20.0857 16.1739 20.6408 15.8457 21.3559C15.8457 21.3559 23.2137 22.5286 22.8154 22.2386Z" fill="#D08B5B"/>
<path fill-rule="evenodd" clip-rule="evenodd" d="M12.0041 22.7314H23.7838L27.8612 26.3601L29.6709 41.6121L27.0968 42.4139L11.1922 42.6798L6.22497 41.2749L5.91504 30.6583L12.0041 22.7314Z" fill="#78E185"/>
<path fill-rule="evenodd" clip-rule="evenodd" d="M28.0143 38.8421C27.9322 38.8011 27.8467 38.7542 27.753 38.751C27.592 38.7454 27.5918 38.4948 27.753 38.5005C27.8935 38.5054 28.017 38.564 28.1407 38.6258C28.285 38.6979 28.158 38.9139 28.0143 38.8421ZM27.753 31.7914C27.8628 31.7915 27.9735 31.8053 28.0579 31.8822C28.108 31.9279 28.104 32.0131 28.0579 32.0593C28.0084 32.1087 27.9308 32.1048 27.8808 32.0593C27.8971 32.0741 27.8809 32.0594 27.875 32.0561C27.8736 32.0554 27.8728 32.0549 27.8724 32.0545C27.8712 32.0542 27.8699 32.054 27.8679 32.0534C27.8548 32.0501 27.8419 32.0469 27.8287 32.0445C27.8284 32.0452 27.8007 32.0427 27.7942 32.0424C27.7804 32.0419 27.7667 32.0419 27.753 32.0419C27.6851 32.0418 27.6278 31.9846 27.6278 31.9166C27.6278 31.849 27.6853 31.7913 27.753 31.7914ZM26.5757 34.6011C26.5398 34.7585 26.2985 34.6915 26.3342 34.5345C26.3862 34.3064 26.3768 34.0726 26.3342 33.8436C26.3049 33.6858 26.5463 33.6188 26.5757 33.777C26.6267 34.0517 26.6381 34.3273 26.5757 34.6011ZM26.2594 25.5988C26.0729 25.5545 25.8885 25.5493 25.6978 25.5492C25.5364 25.5492 25.5366 25.2987 25.6978 25.2987C25.9105 25.2988 26.1182 25.3079 26.326 25.3573C26.4829 25.3946 26.4161 25.636 26.2594 25.5988ZM25.6346 31.7001C25.5264 31.646 25.4182 31.5919 25.3101 31.5378C25.1657 31.4656 25.2927 31.2497 25.4364 31.3215L25.761 31.4839C25.9052 31.556 25.7783 31.772 25.6346 31.7001ZM25.5895 36.6329C25.4523 36.8308 25.2595 36.9537 25.028 37.0151C24.8718 37.0565 24.8057 36.8148 24.9614 36.7736C25.1269 36.7297 25.274 36.6497 25.3733 36.5065C25.4646 36.3748 25.6816 36.5002 25.5895 36.6329ZM24.7243 27.8137C24.6872 27.7443 24.6313 27.715 24.562 27.7134C24.4009 27.7098 24.4008 27.4593 24.562 27.463C24.72 27.4665 24.865 27.5459 24.9405 27.6873C25.0165 27.8295 24.8003 27.956 24.7243 27.8137ZM23.1362 29.5163C23.0913 29.5653 23.0042 29.564 22.9591 29.5163C22.9315 29.4872 22.9082 29.4546 22.89 29.4188C22.883 29.4053 22.8765 29.3915 22.8688 29.3783C22.8654 29.3724 22.8616 29.3666 22.8578 29.361C22.8564 29.3598 22.8537 29.357 22.8509 29.354C22.8028 29.3031 22.804 29.228 22.8509 29.1769C22.8958 29.128 22.9829 29.1292 23.028 29.1769C23.0556 29.2061 23.0789 29.2387 23.0971 29.2744C23.1041 29.288 23.1106 29.3018 23.1183 29.315C23.1217 29.3208 23.1255 29.3266 23.1293 29.3323C23.1307 29.3334 23.1334 29.3362 23.1362 29.3392C23.1843 29.3901 23.1831 29.4652 23.1362 29.5163ZM23.0026 33.2151C22.8396 33.2897 22.6607 33.2897 22.4977 33.2151C22.4359 33.1868 22.4213 33.0976 22.4528 33.0437C22.4893 32.9813 22.5626 32.9707 22.6241 32.9988C22.698 33.0326 22.8024 33.0326 22.8763 32.9988C22.938 32.9706 23.0106 32.9806 23.0476 33.0437C23.0793 33.098 23.0641 33.1869 23.0026 33.2151ZM22.5579 35.8332C22.5298 35.8995 22.4693 35.9348 22.3986 35.9375C22.3285 35.9401 22.2764 35.878 22.2734 35.8122C22.2715 35.7698 22.2945 35.7335 22.3274 35.711C22.3275 35.7087 22.3275 35.7064 22.3275 35.704C22.3276 35.6338 22.3849 35.5818 22.4527 35.5788C22.5203 35.5757 22.5779 35.6385 22.5779 35.704C22.5779 35.7482 22.5752 35.7921 22.5579 35.8332ZM21.9118 39.9954C21.712 39.9986 21.5168 40.0463 21.3169 40.0495C21.1555 40.0521 21.156 39.8016 21.3169 39.799C21.5168 39.7958 21.712 39.7481 21.9118 39.7449C22.0733 39.7423 22.0728 39.9928 21.9118 39.9954ZM21.0809 23.9435C20.964 24.0549 20.8195 24.1098 20.677 24.1795C20.5327 24.25 20.4059 24.0339 20.5506 23.9632C20.6713 23.9042 20.8049 23.8606 20.9039 23.7664C21.0206 23.6551 21.1979 23.8321 21.0809 23.9435ZM20.767 26.8307C20.6849 26.7897 20.5994 26.7428 20.5057 26.7395C20.3447 26.7339 20.3445 26.4834 20.5057 26.4891C20.6462 26.4939 20.7697 26.5526 20.8934 26.6144C21.0377 26.6864 20.9108 26.9024 20.767 26.8307ZM19.2618 38.4184C19.2247 38.349 19.1688 38.3197 19.0995 38.3181C18.9383 38.3145 18.9383 38.064 19.0995 38.0676C19.2575 38.0712 19.4025 38.1506 19.478 38.292C19.554 38.4343 19.3378 38.5606 19.2618 38.4184ZM18.7405 32.9791C18.6907 32.9333 18.6942 32.8483 18.7405 32.802C18.7946 32.7479 18.8487 32.6938 18.9028 32.6397C18.9523 32.5902 19.0298 32.5938 19.0798 32.6397C19.1297 32.6854 19.1262 32.7704 19.0798 32.8168C19.0257 32.8709 18.9717 32.925 18.9176 32.9791C18.8681 33.0286 18.7905 33.025 18.7405 32.9791ZM18.1259 41.4563C17.9453 41.452 17.776 41.4002 17.6059 41.3436C17.4535 41.2928 17.5192 41.051 17.6725 41.102C17.8203 41.1512 17.9688 41.2021 18.1259 41.2058C18.2871 41.2095 18.2872 41.46 18.1259 41.4563ZM17.3147 36.0998C17.1515 36.0953 17.0161 36.0121 16.9016 35.9008C16.7859 35.7882 16.9631 35.6112 17.0787 35.7237C17.1442 35.7874 17.2198 35.8467 17.3147 35.8493C17.4758 35.8538 17.4759 36.1043 17.3147 36.0998ZM17.8185 29.2113C17.8204 29.278 17.8486 29.3495 17.89 29.3933C18.0006 29.5105 17.8238 29.6879 17.7129 29.5704C17.6215 29.4736 17.5719 29.3439 17.5681 29.2113C17.5634 29.0498 17.8139 29.0505 17.8185 29.2113ZM15.9086 23.7558C15.8562 23.6532 15.7875 23.5328 15.6831 23.4761C15.5412 23.3991 15.6677 23.1829 15.8094 23.2598C15.9514 23.3369 16.053 23.4888 16.1248 23.6294C16.198 23.7728 15.9819 23.8994 15.9086 23.7558ZM15.584 26.3608C15.5259 26.3591 15.4682 26.3492 15.4122 26.334C15.3883 26.3275 15.3646 26.32 15.3406 26.3135C15.3304 26.3107 15.2868 26.3053 15.3136 26.3067C15.2458 26.3031 15.1884 26.2523 15.1884 26.1815C15.1884 26.1164 15.246 26.0526 15.3136 26.0562C15.4065 26.0612 15.491 26.1077 15.584 26.1103C15.745 26.1149 15.7451 26.3653 15.584 26.3608ZM14.7727 30.3646H14.5023C14.3409 30.3646 14.3412 30.1141 14.5023 30.1141H14.7727C14.9341 30.1141 14.9338 30.3646 14.7727 30.3646ZM14.4573 41.4391C14.3753 41.4802 14.2786 41.5191 14.2122 41.5819C14.0951 41.6927 13.9178 41.5157 14.0352 41.4048C14.1198 41.3248 14.2279 41.2744 14.3309 41.2229C14.3916 41.1925 14.4662 41.2062 14.5022 41.2678C14.5348 41.3235 14.5178 41.4089 14.4573 41.4391ZM13.8531 38.2742C13.8426 38.2713 13.8315 38.2693 13.8209 38.2678C13.7783 38.262 13.7338 38.2641 13.691 38.264C13.5297 38.2639 13.5299 38.0134 13.691 38.0135C13.818 38.0136 13.9502 38.0154 14.05 38.1043C14.1007 38.1495 14.0958 38.2357 14.05 38.2814C14.0002 38.3312 13.9234 38.3264 13.8729 38.2814C13.8783 38.2862 13.86 38.2761 13.8531 38.2742ZM13.6911 34.0176C13.7275 33.9426 13.728 33.8937 13.7281 33.8103C13.7282 33.6489 13.9786 33.6491 13.9785 33.8103C13.9784 33.9314 13.9604 34.0344 13.9073 34.1441C13.8777 34.2052 13.7909 34.2211 13.736 34.189C13.6745 34.153 13.6616 34.0785 13.6911 34.0176ZM12.9671 28.1418C12.8219 28.1912 12.6923 28.2612 12.5644 28.3456C12.4294 28.4347 12.3041 28.2177 12.438 28.1293C12.5839 28.033 12.7349 27.9566 12.9005 27.9002C13.0537 27.8481 13.1189 28.0902 12.9671 28.1418ZM12.1226 23.926C12.0147 23.9291 11.9033 23.9704 11.8072 24.0172C11.6627 24.0874 11.5359 23.8713 11.6808 23.8009C11.8182 23.7341 11.9684 23.6799 12.1226 23.6756C12.2841 23.671 12.2834 23.9215 12.1226 23.926ZM11.744 35.18C11.7016 35.1819 11.6653 35.159 11.6428 35.126C11.6405 35.126 11.6381 35.1259 11.6358 35.1259C11.5657 35.1259 11.5137 35.0685 11.5106 35.0006C11.5076 34.933 11.5703 34.8754 11.6358 34.8754C11.68 34.8754 11.7239 34.8781 11.7649 34.8955C11.8313 34.9235 11.8665 34.984 11.8692 35.0548C11.8718 35.1249 11.8097 35.1771 11.744 35.18ZM11.1282 26.5186C10.9745 26.5689 10.9092 26.327 11.0617 26.2771C11.2407 26.2186 11.4236 26.1733 11.6026 26.1148C11.7563 26.0645 11.8216 26.3065 11.6691 26.3563C11.4902 26.4148 11.3072 26.4601 11.1282 26.5186ZM10.5667 31.2466C10.519 31.4003 10.2774 31.3343 10.3252 31.18C10.3714 31.031 10.3748 30.8811 10.3749 30.7263C10.3749 30.5649 10.6253 30.5651 10.6252 30.7263C10.6252 30.9025 10.6192 31.077 10.5667 31.2466ZM8.89263 36.9094C8.88352 36.9717 8.83407 37.0167 8.76934 37.0196C8.70346 37.0225 8.64177 36.9599 8.64415 36.8943C8.64875 36.7683 8.7515 36.6655 8.87751 36.6609C8.94762 36.6583 8.99977 36.7203 9.00271 36.7861C9.00559 36.8501 8.95219 36.9 8.89263 36.9094ZM8.04543 29.7109C7.91313 29.7551 7.77175 29.7971 7.66803 29.8951C7.55082 30.0057 7.37354 29.8289 7.49097 29.718C7.62775 29.5888 7.80368 29.5278 7.97889 29.4693C8.13232 29.4181 8.19751 29.6601 8.04543 29.7109ZM7.47125 34.5769C7.43488 34.6391 7.36124 34.6503 7.29999 34.6218C7.21786 34.5836 7.12718 34.5849 7.03864 34.5848C6.87729 34.5847 6.87754 34.3342 7.03864 34.3343C7.17523 34.3345 7.30124 34.3473 7.42637 34.4055C7.48794 34.4342 7.50293 34.5227 7.47125 34.5769ZM7.14681 40.4824C7.0767 40.4849 7.02456 40.4229 7.02161 40.3571C7.01873 40.2931 7.0721 40.2432 7.13172 40.2339C7.1408 40.1715 7.19028 40.1265 7.25498 40.1237C7.32089 40.1207 7.38258 40.1833 7.38017 40.2489C7.37557 40.375 7.27288 40.4777 7.14681 40.4824ZM29.9583 41.4295C29.9157 41.2763 29.8184 41.1527 29.7448 41.0149C29.7202 40.9685 29.7116 40.9396 29.6982 40.9056C29.6801 40.9419 29.6448 40.9693 29.5918 40.9693C29.4902 40.9693 29.3713 40.9628 29.2764 41.0063C29.2147 41.0346 29.1421 41.0245 29.1052 40.9614C29.0734 40.9071 29.0886 40.8182 29.1501 40.79C29.2899 40.7259 29.4402 40.7189 29.5918 40.7188C29.6293 40.7188 29.6577 40.7326 29.6777 40.7533C29.7357 39.9593 29.7342 39.1647 29.6794 38.37C29.6209 37.5209 29.4863 36.6886 29.3454 35.8504C29.2772 35.444 29.1887 35.0335 29.2059 34.6196C29.2231 34.2085 29.3993 33.8252 29.2744 33.4129C29.2243 33.2475 29.1386 33.096 29.0829 32.9325C29.0231 32.7566 29.0284 32.5828 29.0556 32.4006C29.1117 32.0295 29.2046 31.6629 29.0559 31.3006C28.9902 31.14 28.8838 30.9966 28.8325 30.8306C28.7686 30.6243 28.7774 30.396 28.7667 30.1822C28.7452 29.7507 28.7395 29.3164 28.7038 28.8859C28.6879 28.693 28.6531 28.5102 28.5739 28.3333C28.4979 28.1629 28.3849 28.0079 28.3345 27.8273C28.2844 27.6494 28.2801 27.4619 28.2531 27.2799C28.225 27.0877 28.1808 26.8983 28.1214 26.7135C27.8916 25.9984 27.4707 25.3559 26.9733 24.7988C26.4447 24.2068 25.8128 23.7609 25.142 23.3454C24.7893 23.1269 24.4366 22.9084 24.0842 22.6899C24.0767 22.7309 24.0505 22.7686 24.0004 22.7854C23.868 22.8296 23.7267 22.8716 23.6229 22.9696C23.5057 23.0802 23.3284 22.9033 23.4459 22.7925C23.5684 22.6767 23.7223 22.6158 23.879 22.5623C23.7184 22.4611 23.5561 22.3562 23.3749 22.2977C23.2162 22.2464 22.9821 22.2911 22.8534 22.1747C22.7523 22.0829 22.7204 21.9129 22.6816 21.7883C22.6331 21.6336 22.5912 21.4705 22.5295 21.3202C22.4876 21.2175 22.4265 21.1188 22.3495 21.0393C22.3157 20.9091 22.2537 20.7901 22.1442 20.7178C21.8575 20.528 21.5054 20.7165 21.3793 20.987C21.275 20.9867 21.1652 21.0096 21.0638 21.0158C20.8553 21.029 20.6466 21.0349 20.4378 21.0343C20.0293 21.0331 19.6206 21.0064 19.2156 20.9523C18.4913 20.8552 17.7887 20.6595 17.0766 20.507C17.0725 20.4976 17.0678 20.4882 17.0622 20.4788C16.9088 20.2215 16.5267 20.265 16.286 20.3624C16.1827 20.404 16.0775 20.4566 16.0184 20.5543C15.9558 20.5966 15.9016 20.6479 15.8657 20.7021C15.7912 20.8139 15.7336 21.0393 15.5824 21.0581C15.4829 21.0703 15.3818 21.0512 15.2807 21.0656C15.1542 21.0832 15.0409 21.1276 14.9242 21.1783C14.0353 21.5644 13.1164 21.9937 12.1517 22.1433C11.9254 22.1784 11.6951 22.2147 11.4985 22.3415C11.3389 22.4446 11.2155 22.5861 11.0838 22.7204C10.9555 22.8513 10.8497 22.9092 10.6666 22.9327C10.4444 22.9612 10.2519 23.0226 10.0894 23.1841C9.95454 23.3185 9.86659 23.49 9.7608 23.646C9.6531 23.805 9.49507 23.8946 9.33107 23.9869C8.94327 24.2055 8.58208 24.4695 8.26753 24.786C7.60493 25.4536 7.20368 26.3115 6.7993 27.1475C6.36205 28.0518 5.95329 28.967 5.66972 29.9326C5.39179 30.8807 5.22653 31.8561 5.15016 32.8405C5.06972 33.8734 5.05845 34.9105 4.99147 35.9441C4.95798 36.4604 4.93263 36.9773 4.90697 37.494C4.88193 38.0043 4.84531 38.5156 4.85122 39.0266C4.86252 40.0145 5.05999 41.0055 5.40524 41.9304C5.49132 42.1606 5.58675 42.3876 5.68847 42.6111C5.7777 42.8075 6.08287 42.7855 6.17864 42.6111C6.20055 42.5711 6.21776 42.5297 6.23216 42.4878C6.48255 42.49 6.73545 42.4706 6.98427 42.4937C7.42371 42.5347 7.86406 42.5576 8.30474 42.5848C9.17676 42.639 10.0503 42.675 10.9226 42.7248C11.0072 42.7296 11.0919 42.7345 11.1765 42.7395C10.5549 40.8147 10.6355 38.7338 10.5371 36.732C10.5292 36.5707 10.7796 36.5716 10.7875 36.732C10.8863 38.7424 10.8022 40.8286 11.4458 42.7565C11.6955 42.7735 11.9448 42.7941 12.1934 42.8244C12.3943 42.8485 12.5962 42.877 12.799 42.867C13.029 42.856 13.2538 42.8034 13.4782 42.7577C13.886 42.6747 14.2788 42.7123 14.6882 42.7633C15.1261 42.8181 15.5655 42.8485 16.0062 42.8676C17.7708 42.9449 19.5473 43.0154 21.3113 42.8973C21.7383 42.8688 22.1642 42.8288 22.5883 42.7743C23.0253 42.7182 23.4575 42.624 23.8941 42.5704C24.3245 42.5178 24.7201 42.6622 25.1455 42.6888C25.5792 42.716 26.0247 42.6255 26.4544 42.5736C26.5946 42.5566 26.7349 42.54 26.8753 42.5236C26.6946 41.2845 26.5918 40.036 26.492 38.788C26.4791 38.6271 26.7296 38.6285 26.7424 38.788C26.8414 40.0263 26.9419 41.2654 27.1223 42.4948C27.8664 42.4082 28.6113 42.3206 29.3477 42.1856C29.5574 42.1474 29.7658 42.0851 29.8913 41.8979C29.9842 41.7592 30.0031 41.5891 29.9583 41.4295Z" fill="black"/>
<path fill-rule="evenodd" clip-rule="evenodd" d="M24.241 12.0665C24.8071 11.7025 25.5797 10.7736 25.1406 10.0693C24.9623 9.79382 24.7192 9.69027 24.4522 9.68198C24.3886 9.60195 24.2829 9.57849 24.1842 9.57793L24.1848 9.5737C23.8241 9.58034 23.4697 9.70699 23.1796 9.91847C22.9925 9.75374 22.7603 9.66006 22.5353 9.55877C22.6296 9.08299 22.7736 8.6189 22.9371 8.16282C23.0253 7.90022 22.7458 7.62358 22.4823 7.70292C22.5471 7.41824 22.3982 7.0876 22.0736 7.09126C21.9001 7.09126 21.7038 7.18451 21.536 7.22652C21.4118 7.25765 21.2894 7.28959 21.1694 7.3302C21.1689 7.32694 21.1685 7.32365 21.1682 7.32033C21.4825 7.09971 21.4716 6.59178 21.0097 6.64104C20.8126 6.65848 20.6123 6.79293 20.4301 6.87503C20.1297 6.89315 19.8412 6.98884 19.5493 7.05751C18.7504 7.25618 17.8957 7.45582 17.2375 7.95993C16.0975 8.40035 14.6797 9.08121 14.5384 10.4271C12.5306 9.64829 11.0139 12.1351 12.8347 13.1136C13.192 13.2806 13.605 13.3671 13.9959 13.2868C13.9035 13.6292 13.8153 13.9728 13.7327 14.3177C13.0373 15.9193 12.4751 17.6119 12.6774 19.3698C12.6803 19.6887 13.0889 19.8726 13.3147 19.6344C13.5015 19.4085 13.7281 19.6726 13.6672 19.8907C13.6095 20.133 13.7797 20.3555 14.0272 20.3645C14.3235 20.3801 14.5588 20.1809 14.7684 19.9969C14.7644 20.0009 14.774 19.9949 14.7879 19.9854C15.3052 21.2086 15.7898 20.2575 16.4274 20.8079C16.5764 20.9458 16.6809 21.1093 16.8718 21.199C17.3194 21.4264 17.6728 21.0211 18.1004 20.9743C18.4957 20.9451 18.8865 21.0823 19.2655 21.1746C19.7081 21.2824 20.1544 21.3388 20.609 21.2882C21.1903 21.2235 22.3502 20.9602 22.6935 20.7434C23.1141 21.0264 23.5468 20.6907 23.778 20.3043C23.9397 20.4603 24.2456 20.4842 24.3756 20.2436C24.5048 19.9752 24.7464 19.565 25.0242 19.6258C25.049 19.6334 25.0635 19.6382 25.0786 19.6492C25.3383 19.8705 25.6735 19.7025 25.7114 19.3809C25.9575 17.2972 25.4555 15.207 24.788 13.2461C24.6422 12.836 24.5213 12.4098 24.241 12.0665Z" fill="#D08B5B"/>
<path fill-rule="evenodd" clip-rule="evenodd" d="M24.0114 12.0094C24.0009 11.9805 24.045 11.9639 24.0596 11.989C24.5367 12.8112 24.918 13.6845 25.2442 14.5766C25.5329 15.3663 25.7889 16.1712 25.9713 16.9926L25.9837 17.0492C26.1553 17.8418 26.2399 18.6804 26.0148 19.4712L26.004 19.5088C25.9522 19.6847 25.8837 19.8634 25.7236 19.9678C25.5892 20.0556 25.4371 20.0666 25.2823 20.0422C25.1519 20.0216 25.0276 19.9646 24.8969 19.9488C24.7984 19.937 24.7727 19.9844 24.7439 20.0642L24.7201 20.1318C24.6177 20.4182 24.4926 20.6847 24.1585 20.7451C23.9785 20.7776 23.783 20.7439 23.6272 20.649C23.6253 20.6551 23.6235 20.6612 23.622 20.667L23.6147 20.6952C23.582 20.8177 23.5401 20.9421 23.4537 21.0373C23.333 21.1702 23.1599 21.2172 22.9855 21.182C22.9062 21.166 22.8317 21.1299 22.7565 21.0998C22.7381 21.2109 22.6108 21.3014 22.4944 21.274C22.4314 21.2593 22.3828 21.2305 22.3467 21.1935C22.1668 21.3326 21.9242 21.4038 21.714 21.4577C21.4097 21.5358 21.0859 21.5678 20.7721 21.5584C20.4536 21.5489 20.1296 21.4874 19.83 21.3793L19.7832 21.3621C19.5247 21.2666 19.2526 21.1456 19.0433 20.9669C19.0017 20.9464 19.026 20.8706 19.0756 20.8867C19.36 20.9789 19.6253 21.0872 19.9238 21.1315C20.2054 21.1734 20.4883 21.1803 20.7721 21.1631C21.0599 21.1456 21.3391 21.0867 21.6138 20.9997C21.8527 20.924 22.0882 20.7872 22.342 20.7693C22.3552 20.7509 22.3696 20.7332 22.3861 20.717C22.6057 20.5032 22.8281 20.6102 23.0751 20.688C23.0833 20.6906 23.0855 20.6949 23.0856 20.6991L23.0886 20.6948L23.0905 20.6922L23.0891 20.694C23.0788 20.7057 23.0994 20.6625 23.103 20.6536L23.1034 20.6527C23.1318 20.575 23.1428 20.4915 23.1668 20.4125C23.2241 20.2238 23.3312 20.0512 23.5363 20.0061C23.6376 19.9837 23.7756 20.0178 23.8225 20.1228C23.8611 20.2092 23.9243 20.253 24.0216 20.2507C24.1232 20.2483 24.1605 20.1889 24.1959 20.0994C24.2535 19.9538 24.2846 19.8024 24.3791 19.6739C24.4855 19.5295 24.6444 19.4451 24.824 19.4382C24.9624 19.4329 25.098 19.4733 25.2296 19.5108L25.2417 19.5144C25.3018 19.5333 25.4092 19.5759 25.4561 19.5445C25.5265 19.4975 25.5628 19.223 25.5832 19.1203L25.5845 19.1139C25.6208 18.939 25.6418 18.7627 25.6504 18.5842C25.6861 17.8379 25.5326 17.0954 25.3629 16.373C25.0127 14.8833 24.5335 13.4462 24.0114 12.0094ZM14.0354 13.8308C14.0448 13.8166 14.0655 13.8289 14.0581 13.8442C14.0238 13.915 14.0112 13.9893 13.9881 14.0631C13.9624 14.1447 13.9189 14.2238 13.8865 14.3031C13.8342 14.4313 13.7835 14.5604 13.7324 14.6892C13.6296 14.9481 13.534 15.211 13.4434 15.4745C13.2616 16.0038 13.1129 16.5481 13.0042 17.0973C12.8974 17.6369 12.8079 18.201 12.8113 18.7526C12.8128 19.0034 12.8402 19.2617 12.9395 19.4946C12.955 19.5312 12.9733 19.567 12.9927 19.6018L13.0044 19.6225C13.0061 19.6255 13.0078 19.6284 13.0096 19.6313L13.0203 19.6485C13.0517 19.6024 13.142 19.5414 13.1793 19.5091L13.1845 19.5044L13.3595 19.3422C13.4357 19.2715 13.5456 19.2545 13.6377 19.3062C13.9176 19.4632 13.9086 19.7549 13.9685 20.0302L13.9711 20.0422C13.9972 20.1579 14.0423 20.2541 14.1806 20.2314C14.3248 20.2076 14.4081 20.0607 14.4552 19.9343L14.4613 19.9176C14.5445 19.6823 14.8438 19.6916 14.93 19.9176L14.9623 20.0031C15.0291 20.1785 15.1202 20.39 15.2926 20.4595C15.4376 20.5178 15.6038 20.4305 15.7357 20.3764C15.8082 20.3466 15.8929 20.4087 15.9122 20.4768C15.9174 20.4954 15.921 20.5131 15.9237 20.5305C16.0616 20.5171 16.1936 20.5501 16.3292 20.6129C16.5067 20.695 16.7299 20.8723 16.7633 21.0777C16.8028 21.3206 16.5222 21.4352 16.3774 21.2408C16.2862 21.1183 16.2532 20.9696 16.1442 20.8533C16.0802 20.7849 16.0006 20.7256 15.917 20.6752C15.8424 20.9398 15.4232 21.016 15.1734 20.9377C14.9335 20.8626 14.7745 20.6853 14.6558 20.4781C14.4338 20.6956 14.1257 20.8009 13.817 20.6111C13.6383 20.5012 13.5549 20.309 13.5226 20.1093C13.5129 20.0493 13.5124 19.9507 13.4952 19.864L13.4785 19.881C13.3277 20.0338 13.1525 20.1776 12.9549 20.1446C12.6958 20.1013 12.5729 19.8123 12.4921 19.5922C12.3241 19.1347 12.3551 18.6259 12.412 18.1509C12.4743 17.6309 12.5787 17.1158 12.7167 16.6107C12.8513 16.118 13.0257 15.6399 13.2307 15.1724C13.3353 14.9341 13.4558 14.7017 13.5854 14.4762C13.6505 14.363 13.7214 14.2528 13.7926 14.1434C13.8661 14.0304 13.9616 13.9414 14.0354 13.8308ZM12.4836 10.6115C12.864 10.2577 13.3725 10.0964 13.8854 10.1691C14.1274 10.2034 14.3579 10.2911 14.5623 10.4265C14.7696 10.5638 14.9039 10.7338 15.0279 10.9463C15.0366 10.9611 15.0169 10.9752 15.0049 10.9641C14.6742 10.6586 14.1735 10.4956 13.7285 10.5128C12.9354 10.5434 12.2778 11.2469 12.3271 12.0486C12.3514 12.4434 12.5728 12.8422 12.9151 13.0454C13.2779 13.2607 13.6908 13.1892 14.0795 13.0944C14.2199 13.0602 14.2906 13.2184 14.2106 13.3201C13.8163 13.8216 13.0056 13.6905 12.5504 13.3455C11.6708 12.6791 11.7009 11.3397 12.4836 10.6115ZM13.7608 11.4011L13.7945 11.3953C14.0783 11.3484 14.6824 11.2942 14.7713 11.6413C14.8166 11.8181 14.6414 11.9133 14.4881 11.9054C14.3617 11.899 14.2392 11.8593 14.1144 11.8324C14.0786 11.9565 14.0664 12.0862 14.049 12.214C14.0337 12.3259 13.8542 12.2955 13.8563 12.1879C13.8593 12.0382 13.9287 11.9109 14.0379 11.818C14.0124 11.8141 13.9868 11.8107 13.9609 11.809C13.6507 11.7881 13.3442 11.8458 13.0544 11.9525L13.0851 11.9697C13.0997 11.9748 13.0934 11.9944 13.0788 11.9924L12.9347 11.9996C12.8744 12.0138 12.8388 11.9447 12.8768 11.8999C13.1001 11.6362 13.4223 11.4617 13.7608 11.4011ZM24.107 9.54286C24.5403 9.49082 24.9707 9.65089 25.2033 10.033C25.419 10.3875 25.4377 10.8363 25.2847 11.2172C25.1977 11.4336 25.0664 11.6277 24.9038 11.7946C24.8234 11.8771 24.7312 11.9622 24.6293 12.0168C24.5107 12.0804 24.4224 12.0748 24.2972 12.0515C24.2166 12.0365 24.1609 11.9328 24.1867 11.8565L24.2059 11.7987C24.2268 11.7366 24.2464 11.6906 24.3038 11.6321C24.3538 11.581 24.4137 11.5396 24.4687 11.4941C24.587 11.3961 24.6969 11.2868 24.7791 11.1561C24.9293 10.9172 24.9814 10.6426 24.8966 10.3701C24.8056 10.0774 24.5645 9.88791 24.2625 9.85259C24.0909 9.83259 23.9169 9.85068 23.7478 9.88068L23.6446 9.89936C23.5008 9.92606 23.3834 9.95709 23.2841 10.0894C23.2758 10.1005 23.2596 10.0995 23.2547 10.0855C23.205 9.94183 23.3569 9.81361 23.4645 9.74567C23.6514 9.62778 23.8899 9.56895 24.107 9.54286ZM22.2188 9.36792C22.1976 9.34083 22.2158 9.28591 22.2572 9.3017C22.7398 9.4854 23.1463 9.93268 23.4245 10.3553C23.5087 10.4831 23.5842 10.6159 23.6524 10.7523C23.7497 10.6338 23.8951 10.548 24.0311 10.4897L24.0461 10.4834C24.203 10.4181 24.5422 10.3063 24.6383 10.5156C24.6692 10.5829 24.6568 10.652 24.6026 10.7042C24.5189 10.7849 24.3852 10.7543 24.2807 10.7534C24.0696 10.7516 23.9019 10.8184 23.7151 10.8834C23.7491 10.9577 23.7812 11.033 23.8112 11.1092C23.852 11.213 23.8821 11.3223 23.9316 11.4223C23.9786 11.5174 24.0525 11.6023 24.1155 11.6867C24.2006 11.8005 24.0868 11.9928 23.9481 11.9791C23.661 11.9508 23.5466 11.713 23.4676 11.4609L23.4245 11.323C23.3599 11.1171 23.2934 10.9152 23.1964 10.7193C23.0717 10.4674 22.9228 10.2214 22.7517 9.99843C22.5838 9.77982 22.388 9.58465 22.2188 9.36792ZM21.4716 6.39954C21.6499 6.33291 21.7998 6.56239 21.7111 6.71184C21.633 6.8431 21.5866 6.97864 21.5684 7.12086L22.3547 6.93305C22.511 6.89573 22.6589 7.03422 22.6157 7.19475L22.4943 7.64579C22.6511 7.59322 22.8151 7.56206 22.9837 7.55107C23.1281 7.54168 23.2079 7.69116 23.1842 7.8149C23.1346 8.0727 23.0657 8.32579 22.9739 8.57162L22.9068 8.74857C22.8279 8.95459 22.7359 9.1625 22.5457 9.27857C22.4538 9.33465 22.3346 9.26213 22.3342 9.15696C22.3331 8.90231 22.4899 8.68473 22.577 8.44992C22.63 8.30739 22.6748 8.16239 22.7129 8.01554C22.5653 8.05738 22.4265 8.12373 22.2953 8.21123L22.2757 8.22451C22.1206 8.33108 21.9259 8.15791 21.9644 7.9917L21.9659 7.98577L22.1141 7.4288L21.4093 7.59929C21.264 7.63446 21.1525 7.53269 21.1387 7.39267C21.1241 7.24382 21.1335 7.09568 21.1644 6.95222C20.6986 7.09926 20.2232 7.21367 19.7464 7.32055L19.6749 7.33653C18.6284 7.56948 17.5592 7.77517 16.5991 8.27377C16.1751 8.49391 15.7864 8.75455 15.4328 9.0769C15.2581 9.23618 15.0982 9.41146 14.9583 9.60224C14.8927 9.69174 14.8313 9.78437 14.7751 9.88007L14.73 9.95797C14.7084 9.99558 14.6874 10.0343 14.6745 10.0748L14.6681 10.0951C14.6577 10.1293 14.6464 10.1744 14.6559 10.2044C14.6696 10.2477 14.7477 10.3188 14.8029 10.2993C14.8105 10.2967 14.8143 10.3065 14.81 10.3116C14.7614 10.3704 14.6928 10.3809 14.6231 10.3514C14.5129 10.3047 14.4854 10.198 14.4976 10.0866C14.5278 9.81105 14.719 9.50718 14.8703 9.28224C15.493 8.35583 16.5178 7.8015 17.5515 7.4542C18.8367 7.02235 20.199 6.87491 21.4716 6.39954Z" fill="black"/>
<path fill-rule="evenodd" clip-rule="evenodd" d="M21.2085 19.0034C20.9981 18.9175 20.8103 18.7743 20.6731 18.5913C20.6254 18.5277 20.613 18.4606 20.623 18.3991C20.6343 18.33 20.6751 18.2674 20.7308 18.2254C20.7867 18.1833 20.8566 18.1625 20.9242 18.1731C20.9829 18.1823 21.0414 18.2145 21.0876 18.2812L21.0973 18.2946C21.1789 18.405 21.2852 18.4956 21.4064 18.554C21.5232 18.6103 21.6538 18.6366 21.7889 18.6213C22.0463 18.5922 22.2237 18.4529 22.4123 18.2638C22.4357 18.24 22.459 18.2153 22.4825 18.1903C22.4974 18.1676 22.518 18.153 22.5408 18.1454C22.5662 18.1369 22.595 18.1374 22.6213 18.1466C22.6466 18.1554 22.6693 18.1722 22.6845 18.1946C22.699 18.2158 22.7072 18.242 22.7045 18.2722C22.6873 18.4682 22.5849 18.6431 22.4394 18.7804C22.2778 18.933 22.0636 19.0385 21.862 19.0755C21.6398 19.1163 21.4134 19.087 21.2085 19.0034ZM21.9668 15.98C22.2031 16.1237 22.5632 16.4588 22.309 16.8151C22.0097 17.1293 21.5788 16.7691 21.3664 16.6062C21.1695 16.4799 20.9483 16.8047 21.131 16.9521C22.6654 18.0885 23.2881 16.0176 22.0863 15.811C21.954 15.7883 21.9048 15.9355 21.9668 15.98ZM19.2171 14.658C19.2432 14.3338 19.7369 14.2601 19.786 14.581C19.83 14.8684 19.7782 15.1325 19.6488 15.3913C19.5251 15.6385 19.2143 15.5232 19.1908 15.298C19.1593 14.9963 19.2009 14.8597 19.2171 14.658ZM22.975 14.5145C23.0438 14.4243 23.1432 14.3627 23.2622 14.3975C23.6342 14.5063 23.5246 15.0346 23.3939 15.2917C23.323 15.4314 23.0935 15.4668 22.9898 15.3438C22.8208 15.1433 22.7399 14.7429 22.9547 14.5454C22.9605 14.5352 22.967 14.5249 22.975 14.5145ZM19.6435 13.2391L19.7023 13.2288C19.8841 13.1974 20.1101 13.1672 20.2387 13.3134C20.3069 13.3909 20.3304 13.535 20.2387 13.6092C20.0774 13.7398 19.8992 13.6892 19.7059 13.7002C19.5467 13.7094 19.3936 13.7357 19.2402 13.7796C18.9037 13.8758 18.6295 14.0515 18.3421 14.2443C18.3044 14.2696 18.2659 14.2214 18.2839 14.1861C18.4498 13.861 18.7713 13.5939 19.0934 13.4312C19.2653 13.3443 19.4534 13.2722 19.6435 13.2391ZM22.6359 13.0935L22.6809 13.1027C23.1703 13.2051 23.8062 13.4095 24.0379 13.8904C24.0468 13.9584 24.0374 13.973 24.0298 13.9825L24.0273 13.9857C24.0211 13.9938 24.0161 14.005 23.9866 14.0143C23.9784 14.0123 23.9702 14.0103 23.9618 14.0081C23.8556 13.9802 23.7715 13.9419 23.6902 13.902L23.6019 13.8586C23.4996 13.8083 23.3963 13.76 23.2869 13.7242C23.0533 13.648 22.8131 13.5943 22.5691 13.5657C22.5162 13.5595 22.4653 13.5416 22.4252 13.511C22.387 13.482 22.3579 13.4418 22.3446 13.3883C22.3274 13.3192 22.3324 13.2668 22.3695 13.2044C22.3973 13.1575 22.4373 13.1251 22.4831 13.1064C22.5298 13.0874 22.583 13.0829 22.6359 13.0935Z" fill="black"/>
<path fill-rule="evenodd" clip-rule="evenodd" d="M23.5879 17.4296C23.3815 17.3908 23.1682 17.4017 22.9632 17.3566C22.7632 17.3125 22.6043 17.1814 22.4111 17.1204C22.241 17.0666 22.0417 17.103 21.9093 17.2072C21.7863 17.1503 21.6465 17.138 21.5065 17.1567C21.2942 17.1852 21.0962 17.2751 20.9071 17.3723C20.8852 17.3836 20.8632 17.3943 20.8413 17.4052C20.492 17.3964 20.1338 17.3971 19.791 17.472C19.4874 17.5384 19.2004 17.6928 19.0194 17.9507C18.8168 18.2395 18.7802 18.6071 18.749 18.9483C18.7291 19.1648 19.0298 19.2088 19.1316 19.0519C19.2373 18.8894 19.3472 18.7264 19.488 18.5917C19.6479 18.4387 19.8423 18.3785 20.0603 18.3645C20.5413 18.3337 21.0254 18.3595 21.5069 18.3382C21.786 18.3258 22.0967 18.2185 22.2092 17.9757C22.3293 18.164 22.6013 18.2759 22.8251 18.2928C23.0616 18.3108 23.3017 18.2678 23.5358 18.3171C23.7594 18.3642 24.0253 18.5308 23.9756 18.7974C23.9463 18.9539 24.1442 19.0462 24.2352 18.9069C24.607 18.3375 24.2407 17.5524 23.5879 17.4296Z" fill="black"/>
</svg>
