<svg width="36" height="48" viewBox="0 0 36 48" fill="none" xmlns="http://www.w3.org/2000/svg">
<path fill-rule="evenodd" clip-rule="evenodd" d="M27.8784 29.2424C27.7801 28.9723 27.9237 28.7029 28.0033 28.4416C28.2863 27.5355 27.5123 25.2498 26.971 25.2164C26.773 24.704 26.2447 24.4915 25.8288 24.1964C25.3569 23.9018 24.8979 23.5634 24.4071 23.3051C24.3798 23.061 24.084 23.0005 23.9031 23.1751C23.4062 22.8659 22.8104 22.9233 22.2778 22.7207C21.8731 22.0663 21.8427 21.3782 21.7355 20.7468C21.6888 20.4716 21.7385 20.2061 21.5505 19.9608C20.919 19.0723 18.424 18.6871 17.5041 19.2136C17.0089 18.9046 16.997 19.4642 16.9183 19.8095C16.8309 19.9823 16.7836 20.1779 16.7982 20.3841C16.5638 20.8739 16.365 21.4866 15.8724 21.8524C15.2472 22.3166 14.2855 22.4931 13.676 22.7207C13.5393 22.5891 13.4975 22.3989 13.4975 22.3989C12.5529 22.6043 11.6361 22.9654 10.8447 23.5293C9.94554 23.7923 9.3123 24.5239 8.85439 25.3084C8.80394 25.391 8.79205 25.4754 8.80679 25.5528C7.39868 27.6177 6.72663 30.0897 6.63223 32.5863C5.72672 33.13 7.06262 38.0139 7.37361 39.0278C7.37392 39.0276 7.37424 39.0275 7.37455 39.0274C7.5763 39.3847 7.80538 40.4043 8.31029 40.3254C8.65665 40.7172 9.2086 40.6402 9.67862 40.6703C9.60206 40.964 9.63968 41.3001 9.73079 41.5904C9.83856 41.936 10.3674 41.9477 10.4424 41.571C15.1229 42.4807 19.9254 41.7548 24.6586 41.8914C26.0271 41.9011 27.3955 41.9434 28.7607 42.041C28.953 42.0547 29.1479 41.8582 29.1348 41.6667C28.8412 38.5427 28.5656 34.4331 28.2374 31.3397C28.1595 30.6343 28.098 29.921 27.8784 29.2424Z" fill="#D08B5B"/>
<path fill-rule="evenodd" clip-rule="evenodd" d="M13.5024 22.4192C13.5007 22.4123 13.499 22.4054 13.4975 22.3984C12.5529 22.6039 11.6361 22.965 10.8447 23.5288C9.94554 23.7919 9.3123 24.5235 8.85439 25.3079L8.84829 25.3183C8.80299 25.3976 8.79266 25.4782 8.80679 25.5524C7.39868 27.6173 6.72663 30.0892 6.63223 32.5859C5.72672 33.1296 7.06262 38.0134 7.37361 39.0274L7.37455 39.0269C7.42482 39.116 7.47679 39.2461 7.53431 39.3902C7.70759 39.8242 7.9312 40.3842 8.31029 40.325C8.59188 40.6435 9.00935 40.6522 9.40821 40.6604C9.49996 40.6623 9.59072 40.6642 9.67862 40.6698C9.60206 40.9636 9.63968 41.4876 9.73079 41.7779C9.83856 42.1234 24.7888 42.4049 28.7607 42.0406C28.9525 42.023 29.1479 41.8578 29.1348 41.6663C29.0115 40.3543 28.8914 38.8685 28.7692 37.3572C28.6004 35.2697 28.4278 33.1336 28.2374 31.3393C28.2299 31.2718 28.2226 31.2043 28.2153 31.1367C28.1463 30.4977 28.077 29.8557 27.8784 29.242C27.7999 29.0263 27.8756 28.8111 27.9499 28.6C27.9686 28.5468 27.9873 28.4938 28.0033 28.4412C28.2863 27.535 27.5653 25.2548 27.0484 25.2209L26.971 25.216C26.8189 24.8224 26.4719 24.6058 26.1307 24.3927C26.0379 24.3348 25.9456 24.2771 25.8577 24.2162L25.8288 24.196C25.668 24.0956 25.5086 23.9901 25.349 23.8844C25.0403 23.68 24.7306 23.4749 24.4071 23.3046C24.3798 23.0606 24.084 23.0001 23.9031 23.1747C23.824 23.1255 23.7425 23.0856 23.6591 23.0524L23.6261 23.5069C23.062 25.61 21.4925 26.7803 18.9176 27.0175C15.0553 27.3734 13.3144 23.5011 13.3144 23.1097C13.3144 22.9381 13.3711 22.7215 13.4845 22.4598L13.5024 22.4192ZM21.142 30.5033C21.2547 30.4354 21.4141 30.3524 21.6268 30.2707L21.8947 31.255L21.8947 31.255L21.8947 31.255L21.8947 31.255L21.8949 31.255L21.8957 31.2549L21.8989 31.2547L21.9123 31.2536L21.9643 31.2492C22.0096 31.2455 22.0754 31.2402 22.1568 31.2338C22.3196 31.2209 22.5441 31.2038 22.7911 31.1867C22.8792 31.1806 22.9693 31.1746 23.0598 31.1688L23.1576 32.2792L23.6336 32.2958C23.5804 32.377 23.5425 32.4007 23.5357 32.4049C23.5345 32.4057 23.5343 32.4058 23.5353 32.4054C23.3958 32.4496 23.2517 32.4774 23.0739 32.5117C23.0012 32.5257 22.9228 32.5408 22.8367 32.5586C22.7089 32.5849 22.554 32.6201 22.4098 32.6718C22.2843 32.7169 22.055 32.8118 21.8811 33.0206C21.8114 33.1044 21.7412 33.2109 21.6945 33.2817L21.6845 33.2969C21.6269 33.3842 21.5773 33.4588 21.5259 33.5269C21.4859 33.5798 21.455 33.6147 21.4333 33.6362C21.1787 33.6917 20.665 33.8266 20.2288 33.9432C20.0818 33.9825 19.9386 34.021 19.8096 34.0559L19.8071 34.0513C19.6566 33.7686 19.5365 33.466 19.5119 33.2285C19.4745 32.8669 19.4555 32.5193 19.446 32.2605L19.4455 32.2475L19.5183 32.2004L19.5838 32.1285L20.9223 30.6588C20.9273 30.6543 20.9354 30.6473 20.9468 30.638C20.9809 30.6101 21.0447 30.5619 21.142 30.5033ZM25.8509 30.1219C25.851 30.1219 25.8501 30.1226 25.8481 30.1239L25.8509 30.1219ZM26.6547 31.3886L26.6359 31.4004C26.6471 31.42 26.658 31.4406 26.6684 31.4619C26.7214 31.5704 26.8422 31.8635 26.7068 32.2013C26.5577 32.5736 26.2238 32.7046 26.0285 32.7483C25.8527 32.7877 25.4952 32.8655 25.1842 32.933L24.9726 32.9789C24.9585 33.0039 24.9436 33.0295 24.9277 33.0555C24.7796 33.2981 24.4863 33.6777 23.9881 33.8355C23.7571 33.9086 23.4847 33.9608 23.2858 33.999L23.2857 33.999C23.2308 34.0096 23.1814 34.019 23.1401 34.0276C23.0679 34.0425 23.0141 34.0551 22.9743 34.0659L22.9364 34.1232L22.9322 34.1295C22.8786 34.2107 22.8051 34.3221 22.7223 34.4317C22.6381 34.5429 22.5265 34.6767 22.3886 34.7942C22.2532 34.9096 22.0518 35.0445 21.7879 35.0945C21.6438 35.1218 21.1333 35.2541 20.6161 35.3923C20.367 35.4589 20.1287 35.5234 19.9527 35.5714L19.742 35.6289L19.6838 35.6448L19.6687 35.6489L19.6648 35.65L19.6639 35.6503L19.6637 35.6503L19.6636 35.6503L19.4648 34.9272C18.8575 35.3672 18.8574 35.3671 18.8573 35.3669L18.8571 35.3667L18.8567 35.3661L18.8557 35.3648L18.8531 35.3611L18.8453 35.3501C18.8424 35.346 18.839 35.3411 18.8351 35.3356C18.8306 35.3292 18.8255 35.3219 18.8199 35.3136C18.799 35.2832 18.7703 35.2405 18.7362 35.1875C18.6682 35.0821 18.5772 34.9331 18.4831 34.7562C18.3039 34.4197 18.0746 33.9115 18.0199 33.3829C17.978 32.9783 17.9573 32.5956 17.947 32.3157C17.9418 32.1752 17.9392 32.0592 17.9379 31.9777C17.9372 31.9369 17.9369 31.9046 17.9367 31.8821L17.9366 31.8559L17.9366 31.8485L17.9366 31.8463L17.9366 31.8456V31.8453V31.8452L18.6866 31.8451H17.9366V31.437L18.2793 31.2154L18.5403 31.0465L19.8292 29.6314L19.8384 29.6212L20.3813 30.1341C19.8385 29.6213 19.8387 29.6211 19.839 29.6208L19.8395 29.6203L19.8406 29.6192L19.8428 29.6168L19.8478 29.6116L19.8601 29.5992C19.8693 29.5901 19.8805 29.5792 19.8937 29.5669C19.9202 29.5422 19.9549 29.5113 19.9984 29.4759C20.0854 29.4048 20.2072 29.3153 20.3677 29.2186C20.6895 29.0246 21.1619 28.8047 21.8137 28.6456C22.4018 28.5019 23.1069 28.3485 23.698 28.2504C23.9911 28.2018 24.2743 28.1636 24.508 28.1495C24.623 28.1426 24.7481 28.1401 24.8664 28.1508L24.8679 28.1509C24.9423 28.1576 25.1853 28.1796 25.3958 28.3429C25.5991 28.5006 25.7358 28.6964 25.8118 28.8195C25.8531 28.8864 25.8851 28.9461 25.9074 28.9902C25.9186 29.0125 25.9277 29.0315 25.9345 29.0462L25.9431 29.0651L25.9462 29.0721L25.9474 29.0749L25.948 29.0762L25.9482 29.0768L25.9483 29.0771C25.9484 29.0772 25.9485 29.0773 25.2597 29.3741C25.9822 29.5753 25.9821 29.5755 25.9821 29.5758L25.9819 29.5762L25.9817 29.5772L25.9811 29.5792L25.9798 29.5837L25.9765 29.5949C25.974 29.6032 25.9709 29.6133 25.9671 29.6249C25.9629 29.6377 25.9579 29.6526 25.9519 29.6693C26.0784 29.682 26.2008 29.6987 26.3101 29.721C26.4055 29.7406 26.5435 29.7744 26.6749 29.8411C26.7523 29.8803 27.1499 30.0928 27.1499 30.5829C27.1499 30.8733 27.0029 31.0738 26.9205 31.1666C26.8307 31.2678 26.7301 31.3403 26.6547 31.3886ZM19.4648 34.9272L19.6636 35.6503L19.1624 35.7881L18.8575 35.3672L19.4648 34.9272ZM25.9822 29.5753L25.2597 29.3741L25.9485 29.0773L26.0532 29.3204L25.9822 29.5753ZM22.8976 34.0915C22.8974 34.0914 22.9004 34.0898 22.9076 34.087C22.9014 34.0902 22.8978 34.0916 22.8976 34.0915ZM21.408 33.6586L21.4107 33.6567C21.4089 33.6581 21.408 33.6587 21.408 33.6586Z" fill="#FFCF77"/>
<path fill-rule="evenodd" clip-rule="evenodd" d="M23.2013 28.9878L24.577 25.8705C24.577 25.8705 24.7849 25.3408 25.1379 25.3408C25.4908 25.3408 28.6915 25.4411 28.6915 25.4411C28.6915 25.4411 29.3465 25.5247 29.135 25.8705C28.9235 26.2163 25.7786 32.6512 25.7786 32.6512H24.4447V32.326L25.9297 31.9107C25.9297 31.9107 26.2 31.6239 25.7786 31.6239C25.3571 31.6239 22.9055 31.53 22.9055 31.53L25.2432 31.1869L26.3996 30.742L26.2295 30.5081L25.2432 30.3672L22.0312 30.5081L22.9055 30.2123L24.859 29.7976C24.859 29.7976 25.2432 29.5269 25.2432 29.2614C25.2432 28.996 24.2139 28.8939 24.2139 28.8939L23.2013 28.9878Z" fill="white"/>
<path fill-rule="evenodd" clip-rule="evenodd" d="M16.9949 19.4066C17.0083 19.3699 17.063 19.3748 17.0641 19.4159C17.0856 20.2943 16.867 21.3677 16.1644 21.961C15.8038 22.2656 15.3269 22.4049 14.8891 22.5651L14.8397 22.5833L14.066 22.8716C13.8608 22.9481 13.6395 23.0657 13.4582 22.9577C13.6049 23.3216 13.728 23.6954 13.9066 24.0461C14.129 24.4826 14.3978 24.8819 14.7268 25.2452C16.0303 26.6842 18.0932 27.1232 19.9444 26.7015C20.8977 26.4844 21.8253 26.0729 22.4757 25.3224C22.9699 24.7519 23.2539 23.9862 23.3208 23.2309C23.3013 23.2341 23.2808 23.2339 23.2597 23.2293C23.0255 23.1782 22.789 23.0526 22.5829 22.9294L22.5631 22.9175C22.3648 22.7981 22.1581 22.6612 22.0157 22.4757C21.8744 22.2914 21.7261 21.6903 21.7261 21.6903C21.6857 21.4644 21.6477 21.0144 21.6542 20.786C21.6548 20.7645 21.7504 20.7518 21.7606 20.7742C21.8489 20.968 21.8774 21.394 21.9456 21.5957L21.9593 21.636C22.0321 21.8467 22.0945 22.1032 22.2454 22.2736C22.5287 22.5934 22.9561 22.7288 23.3376 22.8892C23.365 22.5277 23.9422 22.5361 23.9348 22.9132C23.9344 22.9336 23.9335 22.954 23.9328 22.9743C23.9783 22.9994 24.0221 23.028 24.063 23.0556L24.1029 23.0827C24.254 23.1856 24.4063 23.2833 24.5672 23.3705C24.8787 23.5394 25.2085 23.6734 25.5277 23.8267C25.8506 23.9818 26.1526 24.1667 26.4346 24.3879C26.567 24.4918 26.694 24.6024 26.8145 24.72L26.8472 24.7522C26.9618 24.8664 27.111 24.9941 27.1763 25.1442C27.1907 25.1773 27.2628 25.2543 27.302 25.2569C27.9084 25.2967 28.5136 25.3528 29.1162 25.437C29.2722 25.4588 29.3339 25.5393 29.2762 25.6694C29.0781 26.1164 28.3022 27.9018 28.0959 28.381C28.12 28.733 28.0874 29.1474 28.1091 29.4995C28.1409 30.0133 28.1825 30.5269 28.2324 31.0393C28.4108 32.8721 28.6812 34.6961 28.9256 36.5209C29.0479 37.4342 29.1594 38.3488 29.2695 39.2637C29.3251 39.726 29.3723 40.1887 29.4086 40.653C29.4237 40.8465 29.4374 41.0401 29.4495 41.2337L29.4599 41.4055C29.4744 41.6217 29.5074 41.8282 29.3737 42.0137C29.313 42.0979 29.1746 42.1453 29.0949 42.0497C28.9946 41.9295 28.9574 41.8397 28.9478 41.6818C28.9405 41.5609 28.9387 41.4395 28.9332 41.3185C28.9213 41.0562 28.9064 40.7941 28.8889 40.5321C28.8539 40.0084 28.814 39.4848 28.7678 38.9619C28.6057 37.1286 28.2978 35.309 28.0929 33.4802C27.9896 32.5582 27.9162 31.6345 27.8774 30.7074C27.8579 30.2444 27.8509 29.7815 27.8555 29.3181C27.8572 29.145 27.8654 28.9727 27.8772 28.8008C27.5703 29.4985 27.2475 30.1894 26.9101 30.8711L26.8302 31.0326C26.6163 31.4635 26.3968 31.896 26.1398 32.3022L26.0956 32.3715C25.9915 32.5365 25.8493 32.7967 25.6594 32.8487C25.5272 32.885 25.3656 32.8595 25.23 32.8569C25.0955 32.8543 24.9607 32.8537 24.8263 32.8483C24.6755 32.8422 24.5315 32.8224 24.3858 32.7831C24.3616 32.7766 24.3386 32.7695 24.3178 32.7605C24.1709 33.0009 23.9214 33.184 23.6663 33.2907C23.4619 33.3761 23.2478 33.4347 23.0332 33.4889L22.9575 33.5079C22.7275 33.5652 22.4644 33.5925 22.3347 33.8146L22.3046 33.8661C22.2082 34.03 22.1157 34.174 21.9561 34.2915C21.7843 34.418 21.5807 34.4976 21.378 34.5595C21.1704 34.6229 20.9579 34.6714 20.7471 34.7234L20.6897 34.7377C20.5505 34.7725 20.4101 34.8045 20.2718 34.8424C20.2128 34.8586 20.1527 34.8752 20.0948 34.8951C20.027 34.9184 19.9777 34.9548 19.9243 34.9944C19.8762 35.1624 19.6707 35.2536 19.5017 35.2419C19.413 35.2358 19.3334 35.2057 19.261 35.1615C19.1346 35.2692 18.9954 35.3656 18.8665 35.4653C18.6861 35.605 18.5049 35.7437 18.3228 35.8811C17.9472 36.1643 17.5688 36.4437 17.1864 36.7177C16.5077 37.2039 15.8143 37.6679 15.109 38.1147C14.815 38.301 14.5189 38.487 14.22 38.6686L14.2519 38.6804L14.3152 38.7043C14.4648 38.7602 14.6314 38.8504 14.6604 39.025C14.6834 39.1635 14.6061 39.2589 14.4694 39.2758C14.307 39.2959 14.1806 39.1811 14.0795 39.0715C14.0349 39.0232 13.9849 38.9783 13.9422 38.9285C13.9247 38.9082 13.9113 38.8848 13.8995 38.8602C13.6045 39.0342 13.3064 39.2022 13.0035 39.3594L12.9277 39.3984C12.1766 39.7826 11.4455 40.2036 10.6881 40.5769C10.4905 40.6743 10.2496 40.7796 9.99846 40.8515C10.0651 41.1099 10.0641 41.3935 10.0658 41.6558C10.0674 41.9113 9.66137 41.9101 9.66995 41.6558L9.67408 41.533C9.68147 41.3264 9.69355 41.112 9.74253 40.911C9.00267 41.0338 8.26356 40.767 8.12594 40.6869C7.97405 40.5985 7.83618 40.4571 7.72144 40.326C7.4759 40.0452 7.30551 39.7087 7.15433 39.3701C6.83051 38.6451 6.60109 37.8701 6.43336 37.095C5.81499 34.2373 6.08097 31.1788 7.08519 28.4395C7.33609 27.7551 7.6323 27.0858 7.97174 26.4406L8.01388 26.3609C8.3526 25.7229 8.72906 25.0874 9.20726 24.5445C9.70535 23.9791 10.3198 23.5393 10.9888 23.198C11.3152 23.0314 11.6512 22.887 11.9945 22.7591C12.0497 22.7385 12.1052 22.7201 12.1608 22.7025C12.5187 22.4743 12.9529 22.256 13.3873 22.2646C13.4168 22.2651 13.4407 22.2763 13.4586 22.2932C13.4795 22.2969 13.5004 22.3013 13.5214 22.3074C13.5677 22.3208 13.6166 22.3716 13.61 22.4237L13.6077 22.4411C13.6065 22.4496 13.6049 22.4577 13.6023 22.4657C13.6178 22.468 13.633 22.4717 13.648 22.4768C14.0636 22.3594 14.4725 22.1799 14.8781 22.035L14.9705 22.0024C15.3101 21.8833 15.6586 21.7666 15.9373 21.5309C16.2145 21.2964 16.4229 20.9928 16.5736 20.6645C16.7593 20.26 16.8424 19.8218 16.9949 19.4066ZM25.316 40.7395C25.3983 40.6783 25.4956 40.7493 25.5264 40.8251C25.6275 41.0739 25.5775 41.4605 25.435 41.6804C25.2874 41.9083 24.9339 41.8184 24.9254 41.5423C24.9164 41.2545 25.0837 40.9125 25.316 40.7395ZM26.166 33.8702C26.1734 33.8379 26.2236 33.8382 26.2311 33.8702C26.2996 34.1621 26.298 34.4765 26.3181 34.7758L26.3205 34.809C26.3446 35.139 26.3649 35.47 26.3794 35.8006C26.4077 36.4511 26.4417 37.1016 26.4797 37.7516C26.4986 38.0739 26.5188 38.3962 26.5404 38.7184C26.6079 38.6807 26.6775 38.6477 26.7496 38.6185C26.8576 38.5748 26.9628 38.5698 27.0789 38.571C27.2203 38.5724 27.3267 38.6968 27.308 38.8354C27.2876 38.9863 27.1548 39.0509 27.0169 39.0294C26.8642 39.0054 26.7108 38.9684 26.5566 38.9531C26.5737 39.2022 26.5915 39.4512 26.6103 39.7001C26.6353 40.0297 26.6678 40.3588 26.6906 40.6885C26.6928 40.7199 26.6952 40.7514 26.6976 40.783C26.7895 40.7352 26.8872 40.7107 26.9979 40.6805L27.0266 40.6725C27.1873 40.6263 27.3592 40.5625 27.508 40.6705C27.6079 40.7432 27.6279 40.8628 27.5451 40.9587C27.4195 41.1041 27.2337 41.0759 27.0603 41.0685L26.967 41.0651C26.879 41.0616 26.7979 41.056 26.7166 41.0338C26.7315 41.2485 26.7394 41.4641 26.7131 41.6758C26.6988 41.7901 26.5483 41.8202 26.5085 41.7034C26.4044 41.3985 26.3829 41.0696 26.3448 40.7502C26.3092 40.4519 26.2876 40.1514 26.2643 39.8518L26.2573 39.7619C26.2049 39.1027 26.163 38.4431 26.1323 37.7826C26.1017 37.1221 26.0833 36.4617 26.076 35.8006C26.0726 35.5004 26.0776 35.1991 26.0894 34.899L26.0931 34.809C26.1066 34.5003 26.0972 34.1727 26.166 33.8702ZM12.4125 40.7882C12.4165 40.746 12.4503 40.6936 12.5006 40.7001C12.5468 40.7061 12.5945 40.7032 12.6403 40.7109C12.7008 40.7209 12.7494 40.7566 12.8056 40.7791C12.897 40.8157 12.9966 40.8345 13.0903 40.8644C13.2662 40.9206 13.362 41.1058 13.2892 41.2787C13.2126 41.4606 13.0201 41.5018 12.8539 41.4255C12.7228 41.3654 12.6251 41.2693 12.5369 41.158L12.512 41.1263C12.474 41.0785 12.4309 41.0252 12.415 40.9673C12.3995 40.9109 12.4071 40.8456 12.4125 40.7882ZM20.9571 39.9334C21.1761 39.9025 21.3632 39.9774 21.5659 40.0481L21.5824 40.0538C21.7887 40.125 22.0897 40.1743 22.1954 40.3855C22.2592 40.5129 22.2096 40.6821 22.0595 40.7198C21.8218 40.7794 21.6086 40.6056 21.4121 40.4886L21.4017 40.4825C21.212 40.3713 21.0162 40.2778 20.895 40.086C20.8627 40.0349 20.8907 39.9427 20.9571 39.9334ZM13.3101 22.5058C13.2224 22.5255 13.1346 22.5428 13.0469 22.5596C12.7135 22.7384 12.3898 22.9239 12.0454 23.0832C11.6801 23.2523 11.3161 23.4269 10.9691 23.6314C10.2681 24.0445 9.69014 24.5817 9.21258 25.2401C8.38767 26.3775 7.77405 27.6892 7.3349 29.0201C7.22206 29.362 7.12109 29.7077 7.03177 30.0564C7.1897 29.9103 7.37668 29.8205 7.58635 29.7435C7.67521 29.7109 7.78582 29.7661 7.83086 29.8431C7.85111 29.8776 7.86253 29.9118 7.86044 29.9524C7.85577 30.0419 7.79756 30.1435 7.70147 30.1613C7.47746 30.2026 7.25965 30.283 7.04366 30.3537C7.01092 30.3645 6.98278 30.3604 6.96031 30.3477C6.74588 31.2564 6.61174 32.1837 6.56422 33.1166C6.52404 33.9064 6.54882 34.7024 6.63627 35.4911C6.70347 35.4609 6.7692 35.4325 6.84288 35.4154C6.93843 35.3931 7.03242 35.3661 7.12563 35.3355C7.39461 35.2473 7.51731 35.6915 7.24238 35.7592C7.14006 35.7844 7.03712 35.8053 6.93286 35.8206C6.842 35.834 6.76163 35.8281 6.67596 35.8141C6.74141 36.3062 6.8308 36.7947 6.94466 37.2762L6.96979 37.3816C7.1177 37.9966 7.29008 38.6174 7.53937 39.1986C7.66166 39.4837 7.82357 39.7545 8.02347 39.9922C8.12169 40.1091 8.2307 40.2093 8.34958 40.3042C8.44854 40.3833 8.78495 40.5547 9.18338 40.5547C9.5818 40.5547 9.68966 40.517 9.89067 40.4478C10.2882 40.3109 10.6656 40.0924 11.0384 39.8977L11.077 39.8777C11.2418 39.7923 11.4061 39.7058 11.5699 39.6184C11.5492 39.4514 11.5854 39.3111 11.6724 39.1568C11.7664 38.9899 11.9995 39.073 12.0168 39.2437L12.0174 39.2503C12.02 39.2887 12.0264 39.328 12.0345 39.3671C13.1296 38.7669 14.2016 38.1247 15.2566 37.4556C15.9361 37.0245 16.6084 36.5805 17.2709 36.1236C17.602 35.8952 17.9303 35.6627 18.2554 35.4256C18.4256 35.3014 18.5951 35.1762 18.7638 35.0499C18.8341 34.9973 18.903 34.9421 18.9734 34.8892C18.9563 34.8678 18.9396 34.8464 18.9235 34.8252C18.6605 34.4808 18.4899 34.0703 18.4049 33.6467C18.3536 33.3912 18.3288 33.1259 18.3212 32.8653L18.3179 32.752C18.3127 32.5611 18.3113 32.3613 18.3465 32.1764C18.2987 32.2027 18.2498 32.2285 18.201 32.2561C18.0262 32.3552 17.8511 32.4541 17.6758 32.5525C17.3248 32.7495 16.9727 32.9442 16.6161 33.1311C15.9793 33.4649 15.3361 33.7824 14.6756 34.0669L14.3543 34.2055C13.7965 34.4455 13.2341 34.6812 12.6542 34.8596C12.3271 34.9602 11.8366 35.0847 11.5048 35.1615C11.5048 35.1615 11.9047 35.5384 11.6153 35.6681C11.3259 35.7978 11.0862 35.3004 11.0766 35.2554C10.9238 35.2873 10.4873 35.3647 10.4873 35.3647C10.0725 35.4448 9.67038 35.6033 9.29963 35.8063C9.17074 35.8768 9.13483 35.7398 9.27139 35.6443C9.67069 35.365 10.1364 35.207 10.617 35.0744L10.6406 35.0679C10.8169 35.0196 10.9929 34.9692 11.1685 34.9171C11.1492 34.8472 11.1381 34.7747 11.1403 34.6947C11.1453 34.5166 11.161 34.3378 11.1705 34.1598C11.1903 33.7862 11.2156 33.4138 11.2453 33.0409C11.2567 32.8972 11.2695 32.7532 11.2841 32.6092C11.1899 32.5587 11.1087 32.4917 11.0037 32.4587L10.9859 32.4535C10.8736 32.4232 10.9115 32.2785 11.0113 32.2661C11.1017 32.2549 11.1916 32.26 11.2807 32.2792C11.2945 32.2822 11.3075 32.2855 11.32 32.2893C11.3363 32.156 11.3545 32.023 11.3751 31.8908C11.4297 31.5414 11.4683 31.1733 11.5818 30.8376C11.5902 30.8128 11.6271 30.8039 11.6408 30.8299C11.806 31.1443 11.8117 31.53 11.8304 31.88L11.8327 31.9219C11.8546 32.3038 11.8559 32.6895 11.8488 33.0719C11.8415 33.4661 11.828 33.8592 11.8104 34.253C11.8033 34.4116 11.8035 34.5761 11.7765 34.7277C12.7596 34.4081 13.7252 34.0254 14.6508 33.5723C15.3038 33.2527 15.951 32.9203 16.591 32.5754C16.9116 32.4026 17.2337 32.2326 17.554 32.0592C17.6662 31.9984 17.7783 31.9374 17.8904 31.8764L18.0585 31.7847C18.2158 31.6988 18.3471 31.6133 18.5304 31.6073C18.585 31.6055 18.634 31.6311 18.6687 31.6699C18.7672 31.6 18.881 31.5571 19.0004 31.5581C19.1802 31.3097 19.3628 31.0633 19.5525 30.8223L19.6928 30.6438C19.9355 30.3359 20.1925 30.0234 20.502 29.789C20.6401 29.6845 20.792 29.606 20.9505 29.5412C20.9132 29.5321 20.8767 29.5138 20.8442 29.4836C20.6929 29.3433 20.672 29.0825 20.6413 28.8866C20.6094 28.6835 20.6217 28.5017 20.6532 28.2993C20.6654 28.2206 20.7957 28.2042 20.8275 28.2765C20.8945 28.4289 20.9655 28.5749 21.0265 28.729L21.0444 28.7755C21.1099 28.9489 21.2493 29.1314 21.2401 29.3196C21.2376 29.3712 21.2203 29.4161 21.1936 29.4522C21.3266 29.408 21.4615 29.3686 21.5944 29.3276C22.0124 29.1983 22.4321 29.0728 22.8582 28.9725C22.9716 28.9458 23.0856 28.9211 23.2001 28.8983C23.26 28.6135 23.3474 28.334 23.4505 28.0595C23.3529 28.0095 23.2897 27.9256 23.2057 27.8511C23.1271 27.7813 23.0731 27.6963 23.006 27.6161C22.9449 27.5432 22.9792 27.4114 23.089 27.4157L23.1201 27.417C23.2338 27.4223 23.3439 27.434 23.4469 27.4871L23.4837 27.506C23.534 27.5322 23.5892 27.5622 23.6383 27.5976C23.7025 27.4498 23.7692 27.3035 23.8367 27.1586L23.9242 26.9713C24.1512 26.4837 24.3776 25.9776 24.6626 25.5236C24.7893 25.3217 24.9579 25.1957 25.1999 25.1762C25.4491 25.1561 25.7082 25.1821 25.9577 25.191C26.247 25.2014 26.5362 25.2136 26.8252 25.2288C26.7511 25.1512 26.6835 25.0648 26.6091 24.9903C26.4856 24.8668 26.3551 24.7497 26.218 24.6414C25.9465 24.4272 25.6481 24.2507 25.3381 24.0987C25.028 23.9467 24.7088 23.8142 24.4177 23.6264C24.2335 23.5075 24.0689 23.358 23.9187 23.1962C23.8241 24.2166 23.3316 25.1647 22.5916 25.8769C21.823 26.6166 20.7609 27.0231 19.7219 27.1959C18.6622 27.3723 17.5561 27.3076 16.5423 26.9391C16.0196 26.749 15.5182 26.4776 15.0711 26.1371C15.0662 26.1667 15.0603 26.196 15.0487 26.2235C15.0331 26.2605 15.014 26.292 14.9922 26.3244L14.9532 26.3815C14.9286 26.4173 14.9035 26.4528 14.8756 26.4861C14.8081 26.5666 14.7123 26.6018 14.6092 26.6015C14.4117 26.6008 14.2622 26.4071 14.3153 26.2156C14.3487 26.0952 14.4202 26.0227 14.5317 25.9756C14.567 25.9607 14.6029 25.9482 14.6391 25.9359L14.6662 25.9267C14.7027 25.9142 14.739 25.9023 14.7766 25.8954C14.5648 25.7084 14.3684 25.5052 14.1925 25.2858C13.6408 24.5979 13.0966 23.6344 13.2811 22.7208C13.2843 22.7051 13.2984 22.6952 13.3136 22.6927C13.3243 22.6286 13.3584 22.5665 13.4052 22.5248C13.3737 22.5166 13.342 22.5102 13.3101 22.5058ZM19.0391 38.3021C19.1483 38.2413 19.2612 38.3858 19.1724 38.475L19.0398 38.6077C18.9168 38.7314 18.797 38.8564 18.6917 38.9974L18.6662 39.0318C18.524 39.2253 18.3724 39.4495 18.1395 39.5218C17.8577 39.6092 17.587 39.2659 17.7501 39.0151C17.8927 38.7959 18.1671 38.7132 18.4037 38.6226C18.6276 38.5369 18.8298 38.4185 19.0391 38.3021ZM9.94982 37.2907C10.014 37.2066 10.1814 37.2509 10.1376 37.3699C9.99511 37.7562 9.93705 38.283 9.5773 38.5396C9.46125 38.6224 9.27893 38.5843 9.18338 38.4888C9.0748 38.3802 9.07045 38.2272 9.13255 38.0947C9.20828 37.933 9.39455 37.8158 9.52512 37.6927L9.53683 37.6815C9.6773 37.545 9.82923 37.4486 9.94982 37.2907ZM24.9854 37.7353C25.1 37.6859 25.3986 37.5898 25.4871 37.7035C25.4913 37.7077 25.4948 37.7122 25.4976 37.7173C25.5193 37.755 25.5226 37.8082 25.4976 37.8457C25.3945 38.0007 25.2871 38.1164 25.1405 38.2268L25.124 38.239C24.9644 38.3564 24.8145 38.4943 24.62 38.5472C24.3504 38.6206 24.1621 38.283 24.3514 38.0858C24.5039 37.927 24.7368 37.8445 24.9389 37.7559L24.9854 37.7353ZM14.1596 35.5279C14.1145 35.4464 14.2067 35.3463 14.2901 35.3974C14.5281 35.5429 14.8054 35.6521 15.0728 35.7305C15.181 35.7623 15.2786 35.872 15.2705 35.9904L15.2693 36.0083C15.2661 36.0501 15.2603 36.0916 15.2338 36.1264C15.1407 36.2482 15.0075 36.2952 14.8652 36.2231C14.5482 36.0624 14.3312 35.838 14.1596 35.5279ZM21.1167 35.281C21.1109 35.2467 21.1359 35.2202 21.1708 35.2268C21.3719 35.265 21.5577 35.3622 21.7305 35.4739C21.8231 35.5338 21.9125 35.5996 22.0049 35.6602C22.1191 35.7349 22.1618 35.7966 22.1787 35.9337C22.1898 36.0242 22.1054 36.1069 22.0279 36.1319C21.8168 36.2 21.5749 35.9765 21.4318 35.8313L21.4254 35.8247C21.2757 35.6721 21.1522 35.4915 21.1167 35.281ZM27.1583 35.0438C27.1125 34.9199 27.2705 34.8172 27.3738 34.8781C27.4712 34.9353 27.5767 34.9828 27.6685 35.0485C27.7529 35.1088 27.8298 35.1803 27.9107 35.2457L27.9507 35.2773C28.099 35.3966 28.3439 35.6917 28.1318 35.8629C27.9299 36.0258 27.6622 35.8177 27.5267 35.6656L27.5173 35.6549C27.4393 35.5648 27.3432 35.4669 27.2866 35.3617C27.2334 35.2626 27.1973 35.1489 27.1583 35.0438ZM25.1674 25.4548C24.9145 25.5039 24.8115 25.8162 24.705 26.0197C24.4537 26.5 24.2226 26.9891 23.9904 27.4789C23.919 27.6295 23.8494 27.7813 23.7792 27.9328C23.7749 27.9447 23.7694 27.9564 23.7629 27.9679C23.6191 28.2777 23.471 28.5854 23.2979 28.8794C23.4563 28.8498 23.6156 28.8245 23.7754 28.8045C23.7674 28.654 23.8704 28.4525 23.9214 28.3257L23.9256 28.3151C23.9892 28.1526 24.0558 27.8967 24.2195 27.8125C24.274 27.7844 24.3323 27.8196 24.3365 27.8796C24.3489 28.0584 24.1741 28.263 24.0886 28.4148C24.037 28.5066 23.9866 28.5988 23.9375 28.692C23.9191 28.7269 23.9038 28.7611 23.8849 28.7919C23.9673 28.783 24.0499 28.775 24.1326 28.7692L24.1865 28.7655C24.4933 28.7453 24.8192 28.7395 25.0964 28.8909C25.3535 29.0312 25.485 29.3309 25.3437 29.6038C25.1677 29.9437 24.7801 29.9888 24.4392 30.0163C24.0135 30.0507 23.5868 30.1127 23.1641 30.1732C22.7269 30.2358 22.3151 30.397 21.8844 30.4799C21.8443 30.4876 21.8194 30.4352 21.8561 30.4128C22.1959 30.2059 22.6089 30.0921 22.9888 29.9761L23.0195 29.9667C23.2256 29.9034 23.4269 29.831 23.6401 29.7951C23.847 29.7603 24.0552 29.732 24.2639 29.7106L24.2842 29.7087C24.514 29.6894 25.1002 29.696 25.0754 29.3557C25.059 29.1304 24.693 29.0915 24.5259 29.0888C23.7599 29.0765 22.9884 29.2799 22.2604 29.4979L22.0979 29.5466C21.7998 29.6363 21.5013 29.7287 21.2088 29.8338C20.8773 29.953 20.6162 30.1388 20.3748 30.3932C20.1071 30.6752 19.8479 30.9636 19.5702 31.2361C19.3951 31.4079 19.2178 31.5766 19.0391 31.744C18.9987 31.7963 18.9664 31.8532 18.944 31.927C18.9062 32.0516 18.9149 32.1675 18.9292 32.2956C18.9652 32.619 18.9731 32.9458 19.0182 33.2682C19.0601 33.5668 19.1185 33.8765 19.2425 34.1536C19.2916 34.2633 19.3555 34.3711 19.4282 34.4674L19.487 34.5438C19.5126 34.577 19.5412 34.6133 19.5713 34.6474C19.6154 34.5936 19.6792 34.5585 19.7535 34.5673C19.9112 34.5859 20.0351 34.5814 20.1899 34.5452C20.3096 34.5171 20.4284 34.4843 20.5476 34.4539C20.7817 34.3941 21.018 34.3398 21.2497 34.2712L21.2895 34.2592C21.4622 34.2062 21.6349 34.1398 21.7787 34.0283C21.9456 33.8987 21.997 33.7118 22.1207 33.5501C22.3848 33.2049 22.9555 33.2121 23.3419 33.1176C23.6703 33.0372 23.9863 32.9104 24.2136 32.6721L24.2268 32.6579C24.2168 32.6154 24.2331 32.5674 24.2726 32.5453L24.2812 32.5405C24.2966 32.5319 24.3132 32.5283 24.3295 32.5287C24.3506 32.4977 24.3709 32.4657 24.3894 32.4316C24.4046 32.4035 24.4427 32.4242 24.4377 32.452C24.4347 32.4685 24.4306 32.4847 24.4267 32.5009C24.6468 32.4442 24.8886 32.455 25.1121 32.4552L25.4021 32.4542C25.4523 32.4535 25.5271 32.451 25.5338 32.448L25.5406 32.445C25.5587 32.4371 25.533 32.4501 25.5457 32.4333C25.5596 32.4148 25.5732 32.3961 25.5867 32.3772C25.6348 32.3099 25.6802 32.2406 25.7248 32.1707C25.2391 32.2944 24.7359 32.3714 24.24 32.4357C23.7079 32.5046 23.1688 32.5525 22.632 32.553C22.484 32.5531 22.4853 32.3296 22.632 32.324C23.2004 32.3023 23.7659 32.2722 24.3305 32.1994C24.6225 32.1616 24.9133 32.1143 25.2024 32.059C25.314 32.0376 25.4254 32.015 25.5365 31.991L25.6197 31.9729C25.672 31.9613 25.8196 31.9447 25.8916 31.8964C25.9057 31.872 25.9199 31.8478 25.9339 31.8235C25.927 31.7381 25.7102 31.7496 25.6593 31.7495C25.5152 31.7492 25.371 31.7503 25.2269 31.7507C24.9386 31.7516 24.6503 31.749 24.362 31.7467C23.786 31.742 23.2078 31.7219 22.6322 31.7465C22.4925 31.7525 22.4191 31.5283 22.5572 31.4694C23.1668 31.209 23.8436 31.1524 24.4945 31.0723C24.8368 31.0303 25.1793 30.9817 25.514 30.8965L25.5967 30.8755C25.8069 30.8216 26.0391 30.7558 26.2161 30.6274C25.95 30.5197 25.6193 30.532 25.3435 30.5168L25.3224 30.5155C24.9362 30.4918 24.5493 30.4797 24.1624 30.4791C23.3707 30.478 22.5788 30.5061 21.788 30.5436C21.7682 30.5445 21.7641 30.5132 21.7833 30.509C22.5961 30.3316 23.4222 30.2461 24.254 30.233C24.6414 30.2268 25.029 30.2323 25.416 30.2494L25.5581 30.256C25.8881 30.2702 26.2543 30.2741 26.5304 30.4734C26.5725 30.5038 26.5946 30.5426 26.5981 30.5836C26.9684 29.8452 27.3104 29.0914 27.6538 28.3425C27.9207 27.7603 28.1777 27.1731 28.4544 26.5954L28.544 26.4085C28.6639 26.1591 28.7868 25.9097 28.9233 25.6694C28.413 25.6011 27.9 25.5538 27.3866 25.5175C26.9189 25.4844 25.3926 25.4112 25.1674 25.4548ZM24.9415 33.4578C24.9996 33.4255 25.0888 33.4518 25.1031 33.5236C25.1138 33.5771 25.132 33.6364 25.132 33.6911C25.132 33.7566 25.1086 33.8277 25.0961 33.8918C25.0674 34.0391 25.0321 34.1589 24.9572 34.2901C24.9103 34.3723 24.8157 34.428 24.7206 34.4258C24.6453 34.4241 24.5786 34.4039 24.5269 34.3456C24.465 34.2757 24.4225 34.173 24.4564 34.0789C24.5454 33.8325 24.7089 33.587 24.9415 33.4578ZM12.6004 33.212C12.7365 32.9734 13.0593 32.7602 13.3409 32.7813C13.7638 32.813 13.8501 33.3826 13.4406 33.5185C13.1959 33.5998 12.8592 33.5164 12.6452 33.3827C12.5874 33.3467 12.5663 33.2718 12.6004 33.212ZM8.25426 32.397C8.22333 32.352 8.27445 32.3006 8.32052 32.3107C8.42271 32.3332 8.53288 32.343 8.63297 32.3735C8.73548 32.4047 8.8347 32.4564 8.93623 32.492C9.14894 32.5665 9.37614 32.6039 9.58199 32.6939C9.66427 32.7299 9.729 32.8491 9.72139 32.937L9.71945 32.9576C9.7149 33.0012 9.70734 33.0392 9.68296 33.0791C9.61745 33.1861 9.48765 33.2414 9.36515 33.2085C9.13789 33.1474 8.91582 32.9905 8.72205 32.8602L8.68624 32.8364C8.60159 32.7806 8.51055 32.7222 8.44233 32.6504C8.37113 32.5754 8.3126 32.4819 8.25426 32.397ZM16.0664 31.5294C16.0402 31.4351 16.1574 31.3728 16.2258 31.4365C16.3623 31.5638 16.505 31.6818 16.6388 31.8122L16.6477 31.8211C16.7435 31.9174 16.8828 32.1029 16.7582 32.2274C16.5987 32.387 16.3765 32.1502 16.2909 32.0268C16.1823 31.8702 16.1172 31.7124 16.0664 31.5294ZM26.5141 30.7501C26.3116 30.9647 25.9995 31.0634 25.7248 31.1451C25.399 31.242 25.0634 31.2999 24.7274 31.3474C24.4027 31.3934 24.0806 31.4345 23.7611 31.4873C24.0028 31.4903 24.2444 31.4921 24.4855 31.4964C24.7636 31.5014 25.0416 31.5074 25.3196 31.5155C25.522 31.5214 25.7596 31.4936 25.952 31.5689C25.9867 31.5824 26.0191 31.6012 26.0474 31.6241C26.2091 31.3364 26.3641 31.0447 26.5141 30.7501ZM14.0214 28.7433C14.2328 28.6761 14.4316 28.587 14.6557 28.6101C14.7153 28.6162 14.7579 28.6742 14.7254 28.7315C14.6192 28.9185 14.4465 29.024 14.2765 29.1491L14.2615 29.1602C14.0755 29.2986 13.8757 29.4248 13.6733 29.5384C13.3249 29.734 13.0127 29.1742 13.3646 29.01C13.5763 28.9111 13.7987 28.8141 14.0214 28.7433ZM17.8274 28.2573C18.1508 28.2786 18.474 28.2931 18.7978 28.3062C19.1729 28.3213 19.0468 28.8987 18.7335 28.7819C18.4239 28.6664 18.1144 28.5524 17.802 28.4447C17.707 28.4119 17.7146 28.2557 17.8213 28.2571L17.8274 28.2573ZM9.53234 27.2301C9.61616 27.2242 9.7007 27.2425 9.78464 27.2506L9.87396 27.2593C10.0581 27.2776 10.2307 27.3002 10.4063 27.3752C10.7303 27.5135 10.5563 28.0346 10.2311 28.0226C9.99065 28.0138 9.78508 27.9105 9.58208 27.7903C9.40461 27.6851 9.29582 27.5536 9.17597 27.3886C9.13629 27.3339 9.19159 27.2726 9.24564 27.2671C9.34086 27.2574 9.4371 27.2367 9.53234 27.2301ZM25.7739 26.166C25.7203 26.5007 25.5872 26.8144 25.3867 27.0875C25.2859 27.2247 25.1089 27.2299 25.0091 27.0875C24.8678 26.886 24.9549 26.6551 25.0613 26.4616L25.0928 26.4049C25.1405 26.3199 25.2137 26.196 25.2973 26.1104L25.2987 26.1017C25.3436 25.7513 25.8291 25.8212 25.7739 26.166ZM12.693 24.0181C12.7736 23.9455 12.9221 23.9673 12.9483 24.0855C12.9849 24.2511 13.0072 24.4377 12.9832 24.6057C12.9702 24.6968 12.9653 24.7991 12.9295 24.884C12.891 24.9753 12.817 25.0455 12.7472 25.1141C12.6079 25.2511 12.3143 25.2058 12.277 24.9899L12.2723 24.9634C12.2535 24.8613 12.2295 24.7521 12.2573 24.6509C12.2783 24.5745 12.3251 24.4965 12.3639 24.4257L12.3721 24.4106C12.4498 24.2659 12.5709 24.1281 12.693 24.0181ZM24.0261 24.3704L24.0552 24.3707C24.2803 24.3751 24.6917 24.4299 24.6939 24.7081C24.6944 24.7737 24.6459 24.8416 24.5808 24.8567C24.4463 24.8879 24.3593 24.8084 24.2635 24.7281C24.1851 24.6624 24.0937 24.6099 23.9987 24.5722C23.8962 24.5314 23.9029 24.3702 24.0261 24.3704Z" fill="black"/>
<path fill-rule="evenodd" clip-rule="evenodd" d="M17.7467 8.22451C22.4806 7.99113 24.6169 11.3326 24.755 12.8251C24.851 13.8611 24.2404 15.0552 24.2404 15.981C24.2404 16.4535 24.8175 17.468 24.5488 18.1567C23.9508 19.6897 22.6846 21.391 21.0711 21.391C19.4576 21.391 17.3578 21.8383 15.5749 19.2792C15.4076 19.0391 13.2918 17.6744 13.0863 16.3776C12.5742 13.1474 14.3688 8.39104 17.7467 8.22451Z" fill="#D08B5B"/>
<path fill-rule="evenodd" clip-rule="evenodd" d="M17.5236 6.14431C17.6928 5.95018 17.9786 5.87253 18.2325 5.88756C18.6014 5.90948 18.9222 6.13773 19.2892 6.15464C19.6739 6.17249 20.0453 6.03879 20.431 6.10079C20.6675 6.13899 20.9017 6.24889 21.0532 6.43425C21.5779 6.28364 22.1476 6.4831 22.4818 6.91863C22.894 6.85445 23.3426 7.12814 23.4687 7.52638C23.9925 7.54329 24.4869 7.96505 24.5453 8.49359C24.7546 8.54901 24.9364 8.69369 25.0479 8.88497C25.1775 9.10666 25.199 9.3609 25.1756 9.61077C25.422 9.73695 25.5473 10.0081 25.5801 10.2949C25.8053 10.4634 25.903 10.7661 25.8571 11.052C26.0295 11.1494 26.1186 11.3761 26.1176 11.5784C26.1167 11.7672 26.0667 11.9344 26.137 12.1166C26.1996 12.2789 26.2221 12.4141 26.1876 12.5841L26.1841 12.6007C26.178 12.6284 26.1729 12.655 26.1683 12.6812C26.2149 12.7222 26.2544 12.7736 26.284 12.8334C26.392 13.052 26.3759 13.3012 26.2936 13.5229C26.3296 13.664 26.325 13.8131 26.2717 13.9488C26.3716 14.093 26.4241 14.2698 26.4087 14.4533C26.3913 14.6588 26.2978 14.8427 26.1559 14.9787C26.1937 15.2593 26.0799 15.5625 25.8741 15.7601C25.9033 15.9281 25.8781 16.1041 25.7864 16.2634C25.7211 16.3769 25.6331 16.4614 25.5316 16.5204C25.535 16.6141 25.5223 16.7099 25.4912 16.8059C25.448 16.9392 25.3749 17.062 25.2786 17.1609C25.3361 17.529 25.1162 17.9375 24.7292 18.0408C24.6967 18.0495 24.6656 18.0535 24.6359 18.0541C24.5975 18.4082 24.5135 18.7574 24.3835 19.089C24.0531 19.9334 23.4522 20.6717 22.6685 21.1323C22.2809 21.36 21.8456 21.5159 21.4011 21.581C21.0813 21.628 20.7736 21.6164 20.4526 21.5845C20.0497 21.5441 19.6449 21.4836 19.2532 21.3797L19.1902 21.3629C19.0279 21.3193 18.8567 21.269 18.716 21.1812C18.5586 21.0829 18.4768 20.9313 18.4406 20.7528C18.4204 20.6535 18.4831 20.5467 18.5916 20.5446L18.5986 20.5446C18.6223 20.5451 18.6459 20.5442 18.6697 20.5427L18.6876 20.5415H18.6885C18.6898 20.5412 18.6904 20.5412 18.6917 20.5412C18.7023 20.5396 18.7126 20.5365 18.7229 20.5349C18.8422 20.5148 18.9466 20.5347 19.0587 20.5721L19.0727 20.5769C19.2614 20.642 19.4484 20.7024 19.6433 20.7472C19.8448 20.7932 20.0487 20.8299 20.2533 20.8587L20.2736 20.8612L20.2799 20.8621L20.283 20.8624C20.2836 20.8624 20.2842 20.8624 20.2849 20.8627L20.3451 20.8703C20.3926 20.8759 20.4401 20.8809 20.4876 20.8859C20.575 20.8947 20.6625 20.9016 20.7499 20.9066C22.2594 20.9917 23.5271 19.8004 23.9097 18.3719C24.0484 17.855 24.0575 17.3393 24.0166 16.8233C24.0034 16.7857 23.9956 16.7441 23.9959 16.6984C23.9959 16.6746 23.9972 16.6511 23.9988 16.6273C23.9479 16.1282 23.8595 15.6288 23.8042 15.1278C23.7396 14.5426 23.7036 13.954 23.7167 13.365C23.7233 13.0741 23.7542 12.786 23.7948 12.498L23.8095 12.3945C23.626 12.3586 23.4554 12.2714 23.3196 12.1451C23.0248 12.3157 22.6433 12.3309 22.3523 12.1507C22.0262 12.3557 21.5707 12.3743 21.2423 12.1738C21.0439 12.3159 20.7938 12.3771 20.5484 12.3232C20.438 12.299 20.3282 12.2465 20.2342 12.1739C20.167 12.1858 20.099 12.1904 20.0314 12.1869L20.0175 12.1947C19.8616 12.277 19.689 12.3312 19.5113 12.3252C19.3797 12.3207 19.2442 12.2947 19.1187 12.2455C18.9847 12.3266 18.8381 12.382 18.6811 12.4018C18.452 12.4308 18.2047 12.38 18.0141 12.2496C17.6658 12.4485 17.2374 12.4792 16.8615 12.3455C16.7845 12.4762 16.678 12.589 16.5532 12.6758C16.5756 12.7561 16.5827 12.8416 16.575 12.9239C16.5624 13.0593 16.5285 13.1806 16.4732 13.2897C16.5315 13.4114 16.5491 13.5609 16.5164 13.7109C16.4699 13.9249 16.3457 14.1111 16.1849 14.256C16.1707 14.5975 15.9839 14.9177 15.6799 15.0956C15.6645 15.1046 15.6492 15.1119 15.6339 15.1185C15.6205 15.1369 15.6044 15.1531 15.5861 15.1667C15.3928 15.3458 15.0868 15.3316 14.8445 15.2304C14.8398 15.2306 14.8351 15.231 14.8304 15.2311C14.7438 15.2333 14.6848 15.1995 14.6498 15.1497C14.6146 15.1516 14.5795 15.1553 14.5443 15.1619C14.4156 15.186 14.2744 15.2324 14.1579 15.2925C13.8556 15.4484 13.7156 15.724 13.6738 16.0552C13.6282 16.4166 13.7319 16.7848 14.0108 17.0293C14.1463 17.1483 14.3197 17.2228 14.4958 17.2541C14.6904 17.2889 14.8984 17.2034 15.0421 17.3709C15.0708 17.4041 15.0905 17.4505 15.0749 17.4952C15.0262 17.6349 14.9459 17.6884 14.8203 17.7078C15.0018 17.9236 15.188 18.1321 15.3941 18.3259C15.6171 18.536 15.8476 18.7395 16.0488 18.9712C16.2614 19.2164 16.4535 19.4763 16.5869 19.7737C16.6631 19.9447 16.7243 20.121 16.7902 20.296L16.802 20.3265C16.8755 20.5125 16.9733 20.6917 16.8602 20.8859C16.8152 20.9623 16.7134 21.0362 16.6197 21.024C16.3558 20.9902 16.2674 20.8114 16.1862 20.5784C16.1249 20.4025 16.0781 20.2215 16.0122 20.0471C15.9999 20.0148 15.9865 19.9828 15.9724 19.9511C15.8202 19.9936 15.6529 19.9598 15.5171 19.8728C15.372 19.9373 15.2112 19.9695 15.056 19.9667C14.8481 19.9631 14.6582 19.9052 14.4949 19.8008C14.4819 19.7973 14.4688 19.794 14.4559 19.7903C14.2075 19.8856 13.9166 19.8686 13.6917 19.714C13.546 19.6139 13.4464 19.4803 13.3899 19.3316C13.2017 19.328 13.0155 19.2611 12.8807 19.1273C12.7569 19.0044 12.6845 18.8459 12.663 18.6811C12.5011 18.649 12.3492 18.5705 12.2301 18.4383C12.1307 18.3278 12.0702 18.1872 12.0498 18.0411C11.8525 17.9847 11.6746 17.8556 11.5775 17.6756C11.4871 17.5079 11.474 17.3261 11.5182 17.1607L11.5068 17.1442C11.3036 17.0376 11.1485 16.8631 11.1326 16.6138C11.1281 16.5428 11.1357 16.4718 11.1549 16.4046C11.148 16.3295 11.1524 16.2544 11.172 16.1817C10.8987 15.9153 10.7997 15.4872 10.9481 15.1334C10.6811 14.8454 10.6105 14.3898 10.8063 14.0479C10.672 13.8851 10.603 13.6775 10.6145 13.4558C10.6289 13.179 10.7554 12.9373 10.9069 12.7134C10.7944 12.5888 10.7345 12.415 10.7389 12.2472C10.7451 12.0039 10.8741 11.7944 11.0356 11.6209C10.8947 11.1926 11.0521 10.7279 11.3979 10.4568C11.3279 10.3413 11.302 10.1982 11.3248 10.0532C11.3647 9.79989 11.5543 9.62736 11.7589 9.49085C11.7161 9.35123 11.7274 9.20059 11.7954 9.05625C11.8863 8.86368 12.0578 8.74157 12.2368 8.63824C12.283 8.21116 12.759 7.84638 13.1581 8.06681C13.0591 7.74901 13.3443 7.40584 13.6723 7.36951C13.8328 6.88169 14.3865 6.57421 14.8844 6.69539C15.1389 6.34658 15.6127 6.21229 16.015 6.36192C16.4573 6.0222 17.006 5.97178 17.5236 6.14431ZM14.3731 15.7227C14.6839 15.7058 14.9169 15.9601 15.0805 16.1927C15.2342 16.4109 14.84 16.6414 14.7251 16.4009C14.6839 16.3151 14.637 16.2243 14.5742 16.1492C14.5637 16.164 14.5544 16.1793 14.5451 16.195L14.5358 16.2109C14.5289 16.2224 14.5218 16.2343 14.5158 16.2466C14.5165 16.2487 14.5071 16.2776 14.5068 16.2788C14.4812 16.3568 14.4253 16.4069 14.3491 16.4338C14.2507 16.4682 14.1576 16.394 14.126 16.307C14.0758 16.168 14.1926 16.0468 14.3141 15.9917C14.1948 15.9723 14.0773 16.013 13.9911 16.105C13.9793 16.1179 13.9593 16.1075 13.9587 16.0916C13.9486 15.8733 14.1763 15.7334 14.3731 15.7227Z" fill="black"/>
<path fill-rule="evenodd" clip-rule="evenodd" d="M22.7714 17.2808C22.8177 17.2203 22.9304 17.4837 22.9534 17.5159L22.9545 17.5174C23.0548 17.6388 23.1366 17.8247 23.1482 17.9805C23.1486 17.9852 23.1486 17.9897 23.1486 17.9942C23.3093 17.9721 23.4701 17.9496 23.6308 17.925C23.693 17.8782 23.78 17.8927 23.8641 17.9353C24.0518 18.0301 23.9605 18.3312 23.7582 18.3264C23.2114 18.3133 22.653 18.3836 22.1108 18.4468C21.8318 18.4793 21.5535 18.5138 21.276 18.5579C21.0169 18.5991 20.7519 18.6573 20.4895 18.6686C20.4752 18.6692 20.4693 18.6479 20.4821 18.6412C20.7134 18.5224 20.9776 18.4505 21.2273 18.3809C21.4975 18.3056 21.7697 18.2349 22.0438 18.1752C22.2898 18.1216 22.537 18.0815 22.7849 18.0454C22.783 18.0406 22.7811 18.0356 22.7796 18.0304C22.7481 17.9249 22.7489 17.8039 22.7422 17.6927L22.7383 17.6337C22.7322 17.532 22.7261 17.34 22.7714 17.2808ZM21.966 15.9799C22.2023 16.1236 22.5625 16.4587 22.3082 16.815C22.0089 17.1292 21.578 16.769 21.3657 16.6061C21.1688 16.4798 20.9476 16.8046 21.1302 16.952C22.6646 18.0884 23.2873 16.0175 22.0855 15.8109C21.9532 15.7882 21.9041 15.9354 21.966 15.9799ZM18.1659 14.7149C18.5592 14.6549 18.962 14.648 19.3594 14.6679C19.566 14.6782 19.7724 14.6935 19.9782 14.7139C20.0857 14.7246 20.1931 14.7366 20.3003 14.75C20.3771 14.7596 20.4958 14.8037 20.5689 14.7836C20.7921 14.7225 21.004 14.9338 20.9425 15.1574C20.8814 15.3793 20.6197 15.4378 20.4514 15.3045C20.3716 15.2764 20.2913 15.2497 20.2105 15.2248C20.2044 15.2502 20.1953 15.2754 20.1826 15.2997C20.1682 15.327 20.1544 15.3544 20.1413 15.3822C20.1442 15.3778 20.1225 15.4297 20.1219 15.4312L20.1046 15.4764C20.0745 15.5543 20.0407 15.6281 19.9589 15.6685C19.8464 15.724 19.6699 15.6934 19.6244 15.561C19.5533 15.4218 19.6004 15.2273 19.6411 15.0831L19.6442 15.072C19.1534 14.9552 18.6545 14.8677 18.1659 14.7489C18.1499 14.745 18.1483 14.7176 18.1659 14.7149ZM24.0029 14.1912C24.0285 14.1401 24.0864 14.1399 24.1208 14.1879C24.1974 14.2945 24.0259 14.4472 23.9543 14.5182L23.9471 14.5254C23.7862 14.6887 23.59 14.8203 23.3954 14.9393C23.3546 14.9643 23.3132 14.9881 23.2716 15.0115C23.2793 15.027 23.2863 15.0428 23.292 15.059C23.3215 15.1422 23.322 15.2416 23.2955 15.3257C23.2402 15.5011 23.0932 15.6412 22.9024 15.641C22.8018 15.6409 22.6827 15.5458 22.6964 15.4348C22.7012 15.3954 22.7052 15.3533 22.7112 15.3114C22.5771 15.356 22.4123 15.3037 22.327 15.1931C22.2084 15.0393 22.241 14.7873 22.4227 14.6918C22.5563 14.6216 22.7037 14.6039 22.8484 14.5667C22.992 14.53 23.1346 14.4877 23.2752 14.4406C23.4138 14.394 23.5517 14.3442 23.6895 14.2949C23.7576 14.2705 23.8251 14.2481 23.8944 14.2274C23.9254 14.2182 23.97 14.194 24.0029 14.1912Z" fill="black"/>
<path fill-rule="evenodd" clip-rule="evenodd" d="M23.2595 19.717C23.1502 19.6813 23.0429 19.6397 22.9351 19.5995C22.384 19.3226 21.7182 19.2724 21.1402 19.5056C20.8565 19.6201 20.592 19.8258 20.3073 19.9606C20.2397 19.9858 20.1716 20.0087 20.1027 20.0279C20.0604 20.0132 20.0181 19.9976 19.9762 19.9819C19.6743 19.8681 19.3903 19.7276 19.1145 19.5731C19.0851 19.5317 19.0546 19.4915 19.0218 19.4528C19.2213 19.4245 19.4167 19.3774 19.5934 19.3288C20.1361 19.18 20.6476 18.9377 21.1884 18.7824C21.692 18.6374 22.2385 18.5582 22.7443 18.7382C22.9843 18.8237 23.1956 18.9734 23.4291 19.0742C23.5499 19.1262 23.6948 19.1772 23.836 19.1847C23.7449 19.403 23.6297 19.6068 23.4723 19.7765C23.4003 19.7612 23.3289 19.7396 23.2595 19.717ZM24.4338 18.0077C24.3855 18.0479 24.1861 18.1775 24.1214 18.2548C24.1047 18.2484 24.088 18.2419 24.0715 18.2352C24.0431 18.2002 24.0011 18.1849 23.9584 18.1858C23.6602 18.0471 23.3947 17.851 23.1577 17.6051C22.9893 17.4307 22.8169 17.2481 22.5919 17.147C22.3268 17.0274 22.066 17.0825 21.7875 17.1007C21.4911 17.1204 21.1984 17.0362 20.9023 17.0766C20.6858 17.1063 20.4829 17.198 20.3077 17.3274C19.9499 17.5913 19.7033 17.962 19.4009 18.2817C19.0579 18.6443 18.636 18.876 18.1668 18.9944C18.1612 18.9906 18.1552 18.9868 18.1493 18.9834C17.8034 18.6703 17.4911 18.3168 17.2147 17.9401C16.9449 17.5722 16.2335 15.9162 16.0617 15.7709C15.9903 15.7104 15.912 15.6845 15.8372 15.6867C15.7017 15.6898 15.5765 15.784 15.5205 15.9324C15.4253 16.1848 15.4729 16.5111 15.4804 16.775C15.4898 17.0982 15.5111 17.421 15.5449 17.7425C15.5784 18.0603 15.6228 18.3772 15.6782 18.6919C15.7061 18.851 15.7371 19.0097 15.7712 19.1678C15.7818 19.2176 15.7953 19.2621 15.8116 19.3034C15.8282 19.3814 15.846 19.459 15.8651 19.536C15.9897 20.0405 16.1862 20.5455 16.5615 20.9178C16.9521 21.3058 17.4829 21.5634 17.9759 21.7939C18.4454 22.0134 18.9374 22.2085 19.4422 22.3613C19.8807 22.5601 20.3502 22.7173 20.8216 22.7999C21.3405 22.891 21.8861 22.8967 22.3872 22.7163C22.6335 22.6277 22.8663 22.504 23.0776 22.35C23.3771 22.1944 23.6466 21.9805 23.8673 21.6975C24.2625 21.1902 24.4511 20.5746 24.5337 19.9398C24.5548 19.7773 24.6342 19.1546 24.6405 19.0577C24.6607 18.7446 24.6808 18.4315 24.701 18.1184C24.7105 17.9706 24.5292 17.9285 24.4338 18.0077Z" fill="black"/>
</svg>
