<svg width="36" height="48" viewBox="0 0 36 48" fill="none" xmlns="http://www.w3.org/2000/svg">
<path fill-rule="evenodd" clip-rule="evenodd" d="M6.3716 40.4812C6.329 40.4825 6.34243 40.4701 6.35808 40.4671C6.36258 40.4718 6.36709 40.4765 6.3716 40.4812ZM7.62934 41.4165C8.81955 41.5577 10.0112 41.4285 11.1956 41.2991C13.5949 41.1211 15.9775 41.6395 18.3816 41.4814C21.386 41.3548 24.3986 41.1169 27.3931 41.5177C28.2213 41.5368 29.5424 41.7604 29.242 40.4777C28.8475 37.1801 28.32 33.899 27.7549 30.6268C27.276 28.7923 27.2414 25.6192 25.93 24.3435C25.7383 24.1684 25.0506 23.6019 24.8688 23.5258C23.9649 23.1892 22.3354 22.9265 21.6631 22.2128C21.1186 21.2911 21.3719 20.0333 20.5252 19.2912C19.7831 18.6851 18.1634 18.8132 17.37 19.2684C16.744 19.6744 16.6459 20.4631 16.2559 21.0463C16.1597 21.1861 15.9311 21.5229 15.8021 21.6316C15.4879 21.9342 14.3846 22.252 14.066 22.3104C12.268 22.679 11.3714 22.9068 9.95726 24.102C6.26218 27.8758 6.78596 34.5504 5.76352 39.4852C5.72168 40.0277 5.39201 40.7639 5.98017 41.1132C6.48675 41.356 7.08237 41.3295 7.62934 41.4165Z" fill="#D08B5B"/>
<path fill-rule="evenodd" clip-rule="evenodd" d="M21.2505 20.9579C21.2549 20.9451 21.2755 20.9429 21.2787 20.9579C21.3291 21.1887 21.4236 21.4417 21.5194 21.658C21.6167 21.8772 21.7497 22.0786 21.9178 22.2495C22.2699 22.6077 22.7228 22.7712 23.2195 22.7715L23.2314 22.7718C23.2337 22.7551 23.2363 22.7384 23.2387 22.7217L23.2421 22.6966C23.2874 22.3535 23.6946 22.3635 23.7741 22.6224C23.8145 22.6353 23.8549 22.6481 23.895 22.6616L23.903 22.6644C23.9704 22.6901 24.1989 22.8039 24.2408 22.7737C24.3331 22.7072 24.4386 22.7834 24.4737 22.8682C24.531 23.0071 24.5405 23.1789 24.5591 23.3296L24.5616 23.3491L24.5644 23.3726C25.8712 23.7124 26.6045 25.0202 26.9788 26.2251C27.1816 26.8782 27.3144 27.5521 27.4477 28.2221C27.5904 28.9388 27.7219 29.6574 27.8611 30.3744C28.1356 31.7875 28.3954 33.2037 28.6211 34.6252L28.6865 35.0381C28.8933 36.3452 29.0946 37.6516 29.264 38.9647C29.3554 39.6726 29.4411 40.3812 29.5237 41.0904C29.5386 41.2168 29.5532 41.3434 29.5678 41.4699L29.5895 41.6599C29.6089 41.8303 29.6417 41.9987 29.5575 42.1581C29.3751 42.5037 28.8223 42.5012 28.791 42.0585C28.7848 41.9705 28.8145 41.9032 28.8637 41.8562L28.863 41.8488C28.8625 41.8444 28.862 41.8411 28.8618 41.8396C28.8455 41.7517 28.8411 41.6587 28.8311 41.5697C28.8092 41.38 28.7879 41.1903 28.7663 41.0002C28.7247 40.6382 28.6827 40.2763 28.6392 39.9146C28.5513 39.181 28.4583 38.4483 28.3598 37.7163L28.2621 36.9925C27.9353 34.5797 27.5947 32.1675 27.1466 29.7739C27.0245 29.1223 26.8991 28.4717 26.7704 27.8213C26.6483 27.2054 26.5112 26.5924 26.3065 25.9978C25.9723 25.0265 25.3879 24.1169 24.5766 23.4794C24.5892 23.6012 24.5982 23.7236 24.6098 23.8454C24.6396 24.1582 24.6712 24.4707 24.7031 24.7832C24.8192 25.9154 24.9766 27.0458 25.2452 28.1529C25.3782 28.7015 25.5403 29.2429 25.7378 29.7717C25.8352 30.0322 25.9413 30.2893 26.0577 30.5416C26.1729 30.7912 26.3748 31.058 26.387 31.336C26.3926 31.4647 26.258 31.579 26.1335 31.5652C26.1917 32.0775 26.2245 32.595 26.2593 33.106C26.31 33.8462 26.3503 34.5877 26.4095 35.3272C26.5153 36.652 26.648 37.9749 26.787 39.2966C26.8145 39.5586 26.8445 39.8204 26.8741 40.0822L26.8989 40.3019C26.9156 40.4444 26.9408 40.6152 26.8652 40.7416C26.9328 40.9047 26.9791 41.0722 27.0061 41.2469C27.0402 41.4642 26.916 41.7078 26.6624 41.6984C26.6336 41.6975 26.6048 41.695 26.576 41.6919C26.341 41.7463 26.1065 41.7942 25.8624 41.7958C25.5507 41.798 25.2383 41.7917 24.9266 41.7896C24.3235 41.7855 23.7203 41.7814 23.1172 41.7764C20.9338 41.7589 18.7494 41.7598 16.5663 41.7247L15.6928 41.7109C14.8921 41.698 14.0912 41.6831 13.2909 41.654C12.7397 41.6339 12.1886 41.6136 11.6377 41.5914L11.5255 41.5871C11.0395 41.5694 10.5528 41.5603 10.0721 41.4858C10.0601 41.4838 10.0548 41.4713 10.0567 41.4603L10.0574 41.4573L10.0364 41.4526C10.0242 41.5052 9.7707 41.2842 9.77257 41.1373C9.66741 41.0005 9.71655 40.782 9.72782 40.6235C9.73877 40.4692 9.75254 40.3145 9.76475 40.1601C9.79073 39.8304 9.81295 39.5004 9.83955 39.1707C9.94691 37.8412 10.0396 36.5083 10.0996 35.176C10.13 34.5044 10.1544 33.8324 10.1801 33.1608C10.1916 32.855 10.2077 32.549 10.2377 32.2446L10.2455 32.1685C10.2784 31.8598 10.2752 31.5279 10.3888 31.237C10.3904 31.233 10.3957 31.233 10.3973 31.237C10.5122 31.5201 10.5231 31.8492 10.5463 32.1598C10.5504 32.1586 10.5544 32.1579 10.5588 32.157C10.7175 32.0815 10.8777 32.0136 11.028 31.9203C11.0483 31.9078 11.068 31.8946 11.0881 31.8818C11.3244 31.1585 11.5982 30.4471 11.8502 29.7285C12.6643 27.4049 13.1137 24.9303 13.2133 22.4699C12.5923 22.8704 11.916 23.182 11.2586 23.5165L11.197 23.548C10.5494 23.8793 9.92938 24.2553 9.46835 24.8299C9.06647 25.3302 8.80387 25.9398 8.55818 26.5276C8.29433 27.1591 8.05645 27.8019 7.83893 28.4507C7.39761 29.767 7.05583 31.1156 6.78916 32.4779C6.52594 33.8224 6.33783 35.1769 6.21201 36.5409C6.14785 37.2366 6.08932 37.933 6.04018 38.6303C6.01514 38.9831 5.99292 39.3363 5.97226 39.6898C5.96225 39.8614 5.95473 40.0333 5.94347 40.2049C5.93658 40.3038 5.93533 40.4059 5.90278 40.4998C5.87555 40.5781 5.82735 40.6436 5.78228 40.7128C5.69996 40.8389 5.49214 40.8618 5.41483 40.7128L5.38135 40.6482C5.33704 40.5622 5.29658 40.4757 5.29057 40.3765C5.28494 40.2825 5.29652 40.1845 5.30184 40.0903C5.31217 39.8996 5.32406 39.7086 5.33595 39.5179C5.36099 39.1168 5.38885 38.7157 5.42015 38.315C5.48243 37.5121 5.56256 36.7115 5.66334 35.9124C6.01796 33.106 6.53001 30.3143 7.50716 27.651C7.74879 26.9925 8.01827 26.3393 8.3225 25.7072C8.6167 25.096 8.98885 24.5189 9.52907 24.0981C10.0263 23.7107 10.6044 23.4513 11.1787 23.1996L11.2505 23.1682C11.8943 22.8867 12.5369 22.5836 13.2092 22.3744C13.1942 22.3763 13.1795 22.3782 13.1667 22.3826C13.1519 22.3873 13.1432 22.3682 13.1523 22.3578C13.1904 22.3156 13.2064 22.2721 13.2502 22.2304C13.2805 22.2016 13.312 22.1744 13.3444 22.1482L13.391 22.111C13.4763 22.0433 13.566 21.9741 13.6734 21.9505C13.8252 21.9173 13.8997 22.0554 13.8571 22.1634C13.879 22.1349 13.9378 22.1434 13.9532 22.1825C14.4527 23.4713 14.7807 24.8355 15.453 26.0532C15.9494 26.9528 16.6155 27.7834 17.4993 28.3267C17.9741 28.6185 18.5175 28.8427 19.0787 28.8781C19.5826 28.9097 20.0674 28.7816 20.4959 28.5171C21.3266 28.0045 21.869 27.1046 22.2558 26.2326C22.6812 25.2726 22.9848 24.2497 23.1632 23.2126C22.5979 23.2205 22.0014 22.9625 21.6255 22.542C21.4277 22.3206 21.2802 22.051 21.2054 21.7636C21.13 21.4736 21.1541 21.2353 21.2505 20.9579ZM16.5084 20.2049C16.5773 20.0818 16.73 20.0411 16.8549 20.0912C16.9935 20.147 17.0352 20.2816 17.0155 20.4184C16.9926 20.5787 16.8896 20.7519 16.8095 20.8918C16.7256 21.0384 16.6177 21.1734 16.5059 21.2995C16.2956 21.5375 16.0705 21.752 15.8036 21.9273C15.5379 22.1017 15.2374 22.2323 14.9285 22.3052L14.855 22.3224C14.6147 22.3773 14.2729 22.4403 14.0727 22.3097C14.063 22.3034 14.0633 22.2905 14.0727 22.2843C14.181 22.2088 14.326 22.1953 14.4505 22.1597C14.5863 22.1205 14.7225 22.0761 14.8524 22.0203C15.1087 21.9101 15.3541 21.7648 15.5726 21.5913C15.792 21.4173 16.0042 21.2097 16.151 20.9701C16.2249 20.8499 16.2878 20.7237 16.3482 20.5966C16.4092 20.4691 16.4399 20.3276 16.5084 20.2049Z" fill="black"/>
<path fill-rule="evenodd" clip-rule="evenodd" d="M25.0907 15.5571C25.2841 14.1574 24.871 12.8066 24.3357 11.5274C24.3063 11.4495 24.2597 11.382 24.1998 11.334C22.6893 8.28189 20.4698 8.00551 17.3734 8.2157C17.2819 8.21367 17.2764 8.21529 17.207 8.18414C17.1955 6.94428 15.783 6.28753 14.7081 6.69661C9.94097 8.91748 11.44 15.1698 12.3886 19.2517C12.727 20.8318 13.0656 22.4119 13.4041 23.9919C13.4154 24.0448 13.4394 24.0905 13.4713 24.129C13.4221 24.1477 13.3729 24.1652 13.3246 24.1817C13.2145 24.2192 13.2583 24.3838 13.3729 24.3572C13.4852 24.331 13.5935 24.296 13.7006 24.2578C13.8676 24.2941 14.0076 24.1848 14.1386 24.0975C15.6736 23.489 16.318 21.4892 16.7117 20.0159C18.3124 21.1481 20.8702 21.9961 22.7004 20.9779C24.4153 19.9426 25.0329 17.7829 24.9111 15.8767C25.0363 15.819 25.0868 15.6931 25.09 15.5619H25.0908C25.0908 15.5603 25.0907 15.5587 25.0907 15.5571Z" fill="#D08B5B"/>
<path fill-rule="evenodd" clip-rule="evenodd" d="M14.268 6.81334C14.6219 6.58352 15.0761 6.49798 15.4931 6.51473C15.7154 6.52365 15.9231 6.57923 16.1281 6.66271C16.3181 6.74011 16.4856 6.85129 16.6706 6.93602C16.6819 6.94116 16.6734 6.95697 16.6628 6.95481C16.4437 6.91048 16.1864 6.93726 15.9643 6.969L15.9422 6.97219C15.7238 7.00397 15.5016 7.02041 15.2864 7.07085C14.8899 7.16375 14.5212 7.36617 14.3036 7.71827C14.0194 8.1781 13.9466 8.77333 13.977 9.30387C13.9924 9.5723 14.0451 9.83637 14.1273 10.0923C14.1767 10.2459 14.2914 10.4004 14.3449 10.5615C14.3857 10.4853 14.4277 10.4097 14.4713 10.3351C14.2728 10.2414 14.2172 9.98072 14.2069 9.74551C14.1763 9.71589 14.1566 9.67302 14.156 9.63367C14.1542 9.52787 14.1791 9.43208 14.2213 9.34444C14.2454 9.09621 14.2965 8.84873 14.3845 8.61612C14.7297 7.70286 15.6404 6.87976 16.6732 6.96107C16.957 6.98343 17.2332 7.10426 17.38 7.36113C17.4979 7.56741 17.4987 7.81624 17.4173 8.03564C17.3932 8.10077 17.3619 8.15957 17.325 8.2132C17.4366 8.18484 17.5484 8.15763 17.66 8.13067C18.0471 8.03711 18.4363 7.96381 18.8327 7.92304C19.3725 7.86756 19.9235 7.95151 20.4182 8.16752C20.5539 8.2025 20.6889 8.24007 20.8231 8.28021C21.4137 8.45674 22.0196 8.68732 22.4966 9.09026C22.7161 9.27565 22.8732 9.49133 23.0007 9.72816C23.4782 10.155 23.9348 10.6388 24.2571 11.1922C24.9212 12.3326 25.0798 13.7431 25.1071 15.0395C25.1322 16.2304 25.0279 17.4335 24.8052 18.6036C24.7042 19.1346 24.5408 19.6282 24.2103 20.0637C23.8422 20.5486 23.3514 20.9307 22.8005 21.1871C21.6791 21.7091 20.2912 21.785 19.2011 21.1383C18.8733 20.9438 19.1685 20.4369 19.4997 20.6264C20.5758 21.242 21.9492 21.1013 22.9846 20.4487C23.422 20.173 23.799 19.796 24.0384 19.3343C24.2133 18.9971 24.2883 18.6104 24.3533 18.2339L24.3878 18.0325C24.5885 16.8747 24.6792 15.6871 24.6309 14.5125C24.5827 13.3408 24.3974 12.0718 23.7354 11.0757C23.3862 10.5503 22.9409 10.09 22.4732 9.6703C22.4403 9.6408 22.4074 9.61143 22.3745 9.58216C22.1916 9.47204 22.0022 9.37588 21.8158 9.29381L21.7761 9.27662C21.6689 9.2308 21.5189 9.1716 21.3797 9.12426C21.1809 9.0566 20.9787 8.99648 20.7758 8.94232C20.6694 8.91392 20.5625 8.88787 20.4554 8.86297C20.4927 8.89732 20.5299 8.93198 20.5663 8.96752C20.7392 9.13588 20.8763 9.33596 21.0402 9.51249C21.0587 9.53241 21.0353 9.56146 21.0118 9.54934C20.7626 9.42116 20.4862 9.33818 20.226 9.23432C19.98 9.13613 19.7409 9.0231 19.4993 8.91476C19.4387 8.88758 19.3784 8.85856 19.3182 8.82985C19.0806 8.83229 18.8429 8.83789 18.6058 8.85145C18.8925 9.05601 19.1542 9.29776 19.3711 9.56287C19.389 9.5847 19.3727 9.61967 19.3426 9.61194C18.8887 9.49541 18.457 9.32416 18.0255 9.14469L17.8191 9.05854C17.6673 9.05084 17.5154 9.04724 17.3634 9.04949L17.2898 9.05072C17.1302 9.05377 16.971 9.06011 16.8128 9.08434C16.7752 9.09007 16.7384 9.09552 16.7018 9.10053C16.4792 9.19158 16.2651 9.30136 16.0724 9.44605L16.1226 9.44307C16.4273 9.4257 16.7379 9.452 17.0329 9.53084C17.6062 9.68411 18.0953 10.0532 18.4512 10.5237C18.4619 10.5378 18.4412 10.5574 18.4272 10.5479C17.9794 10.2405 17.4601 10.0857 16.9279 10.0017C16.6707 9.96099 16.4058 9.947 16.1462 9.96725C15.9312 9.98401 15.7088 10.0599 15.4948 10.0231C15.4365 10.0959 15.3805 10.1709 15.3266 10.2475C15.355 10.2457 15.3834 10.244 15.4121 10.2427C15.7193 10.2282 16.0321 10.248 16.3321 10.3189C16.9312 10.4606 17.4319 10.8211 17.8899 11.217C17.8989 11.2248 17.8873 11.2388 17.8774 11.2332C17.3808 10.9458 16.8034 10.8599 16.2408 10.8081C15.9574 10.7819 15.6709 10.7701 15.3869 10.7928C15.2569 10.8031 15.1282 10.8246 14.9985 10.838C14.988 10.8391 14.9771 10.8394 14.9663 10.8399C14.8723 11.0176 14.7871 11.1985 14.7102 11.3789C14.9448 11.3158 15.198 11.2827 15.4403 11.299C15.9325 11.3322 16.4207 11.5585 16.8136 11.8478C16.8259 11.8569 16.819 11.881 16.8023 11.8746C16.3746 11.7127 15.9507 11.7113 15.5044 11.7738C15.2952 11.8032 15.0881 11.8429 14.886 11.9053C14.7843 11.9367 14.6839 11.9709 14.5874 12.0159C14.5436 12.0364 14.501 12.0602 14.4579 12.0826C14.4234 12.2 14.3926 12.3184 14.3648 12.4376C15.0943 12.4788 15.7815 12.824 16.3796 13.2201C16.394 13.2297 16.385 13.2564 16.3671 13.2496C16.0101 13.1146 15.6217 13.0522 15.243 13.0158C14.9119 12.984 14.5869 13.0013 14.2577 13.0106C14.2401 13.136 14.2258 13.2618 14.2155 13.3878C14.2684 13.4027 14.3203 13.4187 14.3703 13.4337C14.5345 13.4832 14.6985 13.5498 14.8517 13.627C15.1631 13.7839 15.4153 13.9959 15.6692 14.2316C15.6824 14.2439 15.6686 14.2707 15.6506 14.2634C15.356 14.144 15.0341 14.0676 14.724 13.9999C14.5635 13.9649 14.4029 13.9326 14.2413 13.9029C14.2256 13.9001 14.2097 13.8976 14.1938 13.8953C14.1923 14.1826 14.2085 14.47 14.2443 14.7551L14.2512 14.8085C14.2706 14.9528 14.2547 15.0923 14.1594 15.192C14.2912 15.1042 14.442 15.0433 14.6091 15.02C15.0493 14.9586 15.4568 15.1349 15.7337 15.4759C15.7467 15.4918 15.7267 15.5127 15.7109 15.4987C15.4422 15.2589 15.028 15.2165 14.6942 15.3294C14.3852 15.4339 14.1529 15.6833 14.0598 15.9955C13.9608 16.3272 14.0062 16.6934 14.1866 16.9891C14.2765 17.1364 14.4063 17.2681 14.5688 17.3329C14.5888 17.3409 14.6093 17.3476 14.6299 17.3534C14.728 17.3174 14.8335 17.3337 14.9344 17.3793L14.9475 17.3854C15.0118 17.3851 15.0759 17.3831 15.1381 17.3836C15.2593 17.3848 15.3175 17.5137 15.2667 17.6097C15.2955 17.6627 15.3166 17.7222 15.3419 17.774C15.3877 17.8677 15.4356 17.9607 15.4838 18.0531C15.5519 18.1315 15.6169 18.2125 15.6611 18.3071C15.6792 18.3459 15.6963 18.3879 15.7095 18.4301C15.7473 18.4871 15.7858 18.5439 15.8252 18.6004C15.9526 18.7829 16.0868 18.9557 16.2357 19.1214C16.3251 19.221 16.428 19.3099 16.5227 19.4053C16.5514 19.4091 16.5796 19.4287 16.5884 19.4569L16.5962 19.4839C16.6267 19.5183 16.6559 19.5539 16.6822 19.5917C16.7405 19.6756 16.7245 19.7607 16.6733 19.822C16.7545 20.3297 16.6992 20.8699 16.5906 21.3623C16.5204 21.6804 16.4384 21.9982 16.3284 22.3051C16.2724 22.4611 16.2047 22.6109 16.1111 22.748C16.0598 22.8231 15.9929 22.9105 15.918 22.982C15.9066 23.0651 15.8918 23.1476 15.8705 23.2284C15.6191 24.1865 14.5898 24.4781 13.7279 24.6005C13.5616 24.6241 13.397 24.5838 13.3064 24.4285C13.2854 24.3926 13.2714 24.3539 13.2638 24.3142C13.2263 24.3042 13.1902 24.2866 13.1578 24.2612C13.1524 24.3213 13.1461 24.3815 13.1382 24.4424C13.1185 24.5946 12.9135 24.6404 12.8622 24.4798C12.6453 23.8022 12.5276 23.0877 12.379 22.3914C12.2307 21.6965 12.0652 21.0054 11.912 20.3116L11.718 19.436C11.2447 17.2919 10.8014 15.1204 10.9102 12.9153C10.9696 11.7115 11.1899 10.5109 11.6615 9.39858C12.0543 8.47193 12.7172 7.43086 13.7882 7.2414C13.7955 7.24012 13.8021 7.24087 13.8082 7.24243C13.9354 7.07664 14.0873 6.93064 14.268 6.81334ZM14.9142 18.4681C15.0006 18.7554 15.0622 19.0498 15.0958 19.3503C15.1516 19.8511 15.1239 20.3642 15.0997 20.8663C15.0773 21.3277 15.0243 21.793 14.9341 22.246C14.8475 22.681 14.7117 23.1075 14.51 23.5031C14.4773 23.5671 14.4422 23.6294 14.4054 23.6906C14.517 23.6533 14.6177 23.6099 14.7227 23.5497C14.8548 23.4739 14.9756 23.3762 15.0418 23.2732C15.1479 23.1079 15.1835 22.9243 15.199 22.7272C15.2389 22.2206 15.2574 21.7124 15.2828 21.2049L15.2885 21.0943C15.3297 20.3014 15.3836 19.4881 15.303 18.6943C15.1896 18.6644 15.0873 18.6058 14.9929 18.5322C14.9668 18.5119 14.9405 18.4904 14.9142 18.4681ZM14.0517 17.5079C14.0755 17.7491 14.0983 17.9904 14.119 18.2318C14.1922 19.0888 14.2375 19.9506 14.1958 20.8106C14.1742 21.2584 14.1306 21.7075 14.0554 22.1497C14.0214 22.349 13.9804 22.5482 13.9346 22.7453L13.9192 22.811C13.8726 23.0062 13.843 23.2503 13.6941 23.3923L13.6952 23.4217C13.7997 23.2627 13.8964 23.0838 13.9657 22.9174C14.2742 22.1756 14.3306 21.3682 14.3864 20.5773C14.4207 20.0899 14.4462 19.6018 14.4859 19.1148L14.5052 18.8804C14.5274 18.6077 14.5465 18.337 14.5439 18.0644C14.4844 17.9756 14.4361 17.8822 14.4062 17.7863C14.4014 17.7709 14.398 17.7553 14.3957 17.7397C14.2701 17.68 14.1517 17.5985 14.0517 17.5079ZM15.7406 19.205C15.8026 19.4119 15.8532 19.6213 15.8893 19.8316C15.9467 20.1664 15.9811 20.5033 15.9963 20.8413L16.0279 20.7219C16.1077 20.4232 16.1924 20.1241 16.2974 19.8342C16.1313 19.7176 15.9925 19.5345 15.8718 19.3815C15.8266 19.3243 15.7829 19.2653 15.7406 19.205ZM13.3616 10.0077C13.2978 10.2143 13.242 10.4233 13.1843 10.6316C13.0488 11.1208 12.9609 11.6235 12.8998 12.1271C12.6563 14.1378 12.8591 16.1567 13.1244 18.1543C13.2343 18.982 13.3538 19.8084 13.4564 20.6371C13.4591 20.5558 13.4614 20.4745 13.4628 20.3932C13.494 18.6344 13.1987 16.9001 13.0805 15.1503L13.0734 15.0437C13.0198 14.2256 12.987 13.3921 13.084 12.577C13.1339 12.1574 13.2218 11.7468 13.3389 11.3414L13.4085 11.1032C13.4556 10.9431 13.5057 10.7787 13.5651 10.6193C13.5571 10.604 13.5496 10.5886 13.5425 10.5732C13.4604 10.3921 13.4032 10.2017 13.3616 10.0077ZM13.5673 7.63752C12.9544 8.42978 12.44 9.2714 12.1288 10.2394C11.4166 12.4549 11.5756 14.8239 11.9883 17.0821C12.1828 18.1461 12.4336 19.1978 12.6624 20.2544C12.4175 18.357 12.1016 16.4637 12.0513 14.548C12.0238 13.5025 12.0778 12.452 12.2699 11.4227L12.2813 11.3621C12.3636 10.9271 12.4656 10.4662 12.6744 10.0752C12.7878 9.86293 12.9129 9.66482 13.0613 9.4752C13.1239 9.39523 13.1942 9.33111 13.2688 9.27246C13.2469 8.7263 13.3293 8.13405 13.5673 7.63752ZM14.5674 16.0789C14.8724 16.0909 15.1771 16.1762 15.4172 16.3749C15.6051 16.5303 15.3372 16.7929 15.1508 16.6419C14.9482 16.4777 14.7664 16.2912 14.5504 16.1418C14.5247 16.124 14.5318 16.0775 14.5674 16.0789ZM14.0615 15.2644C13.9937 15.2994 13.9263 15.3065 13.8495 15.2876C13.8467 15.2869 13.844 15.2861 13.8414 15.2853L13.8257 15.2801C13.8324 15.353 13.8394 15.4259 13.8464 15.4988C13.9084 15.4113 13.9803 15.3321 14.0615 15.2644ZM13.758 10.8654C13.731 11.0915 13.7134 11.3186 13.704 11.5462C13.6949 11.7678 13.6911 11.9901 13.6901 12.2125L13.6898 12.3078L13.6902 12.306C13.7951 11.8576 13.9434 11.4162 14.1328 10.9939C14.1001 10.9994 14.067 10.9985 14.0344 10.9945C13.9598 10.9855 13.8883 10.9523 13.8243 10.9135C13.801 10.8994 13.7791 10.8829 13.758 10.8654ZM16.8686 8.24514C16.7383 8.30419 16.6124 8.37208 16.4816 8.42978C16.2222 8.54426 15.9684 8.67733 15.7283 8.82841C15.4854 8.9813 15.2514 9.14227 15.0362 9.33295C15.011 9.35531 14.986 9.37792 14.961 9.40049C14.956 9.44981 14.9523 9.49931 14.9507 9.54922C14.9498 9.57605 14.9497 9.60411 14.9501 9.63295C15.3562 9.12862 15.8472 8.73071 16.4701 8.48041C16.5781 8.43702 16.6879 8.39838 16.7986 8.36262C16.825 8.32592 16.8486 8.28697 16.8686 8.24514ZM16.857 7.76135C16.7846 7.66498 16.5764 7.67284 16.4451 7.69432C16.2329 7.72907 16.0459 7.80347 15.864 7.91118C15.6489 8.03843 15.4634 8.21082 15.3183 8.4136C15.3897 8.3732 15.4625 8.3351 15.5368 8.29972L15.5877 8.27562C15.8691 8.14336 16.174 8.01762 16.4818 7.97662C16.6242 7.95764 16.7774 7.93018 16.9213 7.94565C16.9142 7.87554 16.8934 7.80979 16.857 7.76135Z" fill="black"/>
<path fill-rule="evenodd" clip-rule="evenodd" d="M21.2085 19.0034C20.9981 18.9175 20.8103 18.7743 20.6731 18.5913C20.6254 18.5277 20.613 18.4606 20.623 18.3991C20.6343 18.33 20.6751 18.2674 20.7308 18.2254C20.7867 18.1833 20.8566 18.1625 20.9242 18.1731C20.9829 18.1823 21.0414 18.2145 21.0876 18.2812L21.0973 18.2946C21.1789 18.405 21.2852 18.4956 21.4064 18.554C21.5232 18.6103 21.6538 18.6366 21.7889 18.6213C22.0463 18.5922 22.2237 18.4529 22.4123 18.2638C22.4357 18.24 22.459 18.2153 22.4825 18.1903C22.4974 18.1676 22.518 18.153 22.5408 18.1454C22.5662 18.1369 22.595 18.1374 22.6213 18.1466C22.6466 18.1554 22.6693 18.1722 22.6845 18.1946C22.699 18.2158 22.7072 18.242 22.7045 18.2722C22.6873 18.4682 22.5849 18.6431 22.4394 18.7804C22.2778 18.933 22.0636 19.0385 21.862 19.0755C21.6398 19.1163 21.4134 19.087 21.2085 19.0034ZM21.9668 15.98C22.2031 16.1237 22.5632 16.4588 22.309 16.8151C22.0097 17.1293 21.5788 16.7691 21.3664 16.6062C21.1695 16.4799 20.9483 16.8047 21.131 16.9521C22.6654 18.0885 23.2881 16.0176 22.0863 15.811C21.954 15.7883 21.9048 15.9355 21.9668 15.98ZM19.2171 14.658C19.2432 14.3338 19.7369 14.2601 19.786 14.581C19.83 14.8684 19.7782 15.1325 19.6488 15.3913C19.5251 15.6385 19.2143 15.5232 19.1908 15.298C19.1593 14.9963 19.2009 14.8597 19.2171 14.658ZM22.975 14.5145C23.0438 14.4243 23.1432 14.3627 23.2622 14.3975C23.6342 14.5063 23.5246 15.0346 23.3939 15.2917C23.323 15.4314 23.0935 15.4668 22.9898 15.3438C22.8208 15.1433 22.7399 14.7429 22.9547 14.5454C22.9605 14.5352 22.967 14.5249 22.975 14.5145ZM19.6435 13.2391L19.7023 13.2288C19.8841 13.1974 20.1101 13.1672 20.2387 13.3134C20.3069 13.3909 20.3304 13.535 20.2387 13.6092C20.0774 13.7398 19.8992 13.6892 19.7059 13.7002C19.5467 13.7094 19.3936 13.7357 19.2402 13.7796C18.9037 13.8758 18.6295 14.0515 18.3421 14.2443C18.3044 14.2696 18.2659 14.2214 18.2839 14.1861C18.4498 13.861 18.7713 13.5939 19.0934 13.4312C19.2653 13.3443 19.4534 13.2722 19.6435 13.2391ZM22.6359 13.0935L22.6809 13.1027C23.1703 13.2051 23.8062 13.4095 24.0379 13.8904C24.0468 13.9584 24.0374 13.973 24.0298 13.9825L24.0273 13.9857C24.0211 13.9938 24.0161 14.005 23.9866 14.0143C23.9784 14.0123 23.9702 14.0103 23.9618 14.0081C23.8556 13.9802 23.7715 13.9419 23.6902 13.902L23.6019 13.8586C23.4996 13.8083 23.3963 13.76 23.2869 13.7242C23.0533 13.648 22.8131 13.5943 22.5691 13.5657C22.5162 13.5595 22.4653 13.5416 22.4252 13.511C22.387 13.482 22.3579 13.4418 22.3446 13.3883C22.3274 13.3192 22.3324 13.2668 22.3695 13.2044C22.3973 13.1575 22.4373 13.1251 22.4831 13.1064C22.5298 13.0874 22.583 13.0829 22.6359 13.0935Z" fill="black"/>
<path fill-rule="evenodd" clip-rule="evenodd" d="M25.0479 16.6258C24.9442 16.4865 24.7578 16.3036 24.5692 16.3135C24.545 16.3147 24.536 16.3409 24.5505 16.3586C24.6122 16.4339 24.6964 16.4875 24.7583 16.5645C24.8314 16.6555 24.8842 16.7653 24.9185 16.8764C24.9684 17.0377 24.9822 17.2203 24.9377 17.3844C24.8594 17.6736 24.6116 17.8856 24.3412 17.9938C24.0736 18.101 23.7516 18.1376 23.4985 17.9806C23.125 17.7488 22.8081 17.4147 22.3386 17.4081C22.2288 17.4066 22.1514 17.4569 22.1053 17.5287C22.0589 17.4595 21.9825 17.4105 21.8754 17.4092C21.3491 17.4033 20.9562 17.7658 20.5144 17.9918C20.2159 18.1445 19.8296 18.0971 19.5215 17.9962C19.231 17.901 18.9156 17.71 18.806 17.4082C18.7455 17.2416 18.759 17.047 18.8212 16.8827C18.862 16.7747 18.9251 16.6704 19.0031 16.5855C19.084 16.4974 19.1904 16.4421 19.2733 16.3586C19.2902 16.3415 19.2768 16.315 19.2546 16.3135C18.9026 16.2896 18.5847 16.71 18.5183 17.0151C18.4528 17.3155 18.5504 17.6151 18.748 17.8443C19.1496 18.3103 19.8933 18.4641 20.4722 18.3271C20.9407 18.2163 21.3857 17.961 21.8754 17.9977C21.9828 18.0057 22.0599 17.9609 22.1064 17.8931C22.1529 17.9629 22.2305 18.0086 22.3386 17.9981C22.7951 17.9539 23.2025 18.2773 23.6456 18.3562C23.9983 18.4191 24.3794 18.3343 24.6817 18.1442C24.9976 17.9455 25.22 17.6267 25.2347 17.2466C25.2431 17.028 25.179 16.8018 25.0479 16.6258Z" fill="black"/>
<path fill-rule="evenodd" clip-rule="evenodd" d="M23.6873 13.6514C24.422 13.6514 24.8412 13.8094 24.9948 13.8217L24.9994 13.8221C25.0633 13.8261 25.1207 13.8315 25.1808 13.8548C25.4019 13.94 25.438 14.172 25.3089 14.3182C25.2999 14.6208 25.3396 14.9743 25.2714 15.2779C25.1872 16.5576 24.5856 16.7736 24.2436 16.8524C24.072 16.892 23.8685 16.9077 23.6861 16.866C23.375 16.8544 23.0674 16.7569 22.8043 16.5873C22.4378 16.3508 22.1656 15.9874 22.0773 15.556C22.0354 15.3504 22.0158 15.1364 22.0386 14.9274L22.042 14.8986C21.9229 14.8416 21.7848 14.8309 21.6425 14.8258C21.5746 14.8234 21.5076 14.8212 21.4425 14.8241C21.3789 14.8312 21.316 14.8407 21.2529 14.8536C21.1841 14.8744 21.1191 14.9087 21.059 14.963L21.0549 15.0423C21.0436 15.2404 21.0176 15.439 20.9775 15.6334C20.9183 15.9201 20.8231 16.1939 20.6204 16.3973C20.5518 16.4998 20.4669 16.5913 20.3639 16.6706C19.9895 16.9589 19.4809 17.0648 19.0142 17.0249C18.0665 16.944 17.5188 16.1914 17.3925 15.8698L17.385 15.8503C17.2938 15.6111 17.2211 15.3009 16.933 15.2495L16.8717 15.2385C16.7402 15.2138 16.6189 15.1794 16.5418 15.0511C16.508 14.995 16.4906 14.9324 16.4864 14.8685C16.4414 14.8719 16.3965 14.8752 16.3517 14.8785C15.9946 14.954 13.8529 15.018 13.682 15.018C13.682 15.018 13.3534 15.1564 13.2146 15.0492C13.1185 14.9747 13.0868 14.8753 13.1398 14.7628C13.2196 14.5934 13.5881 14.4915 13.7518 14.4593C13.7518 14.4593 16.3923 14.4812 16.5823 14.4452C16.6999 14.3239 16.9103 14.3405 17.086 14.3213C17.2315 14.2175 17.435 14.148 17.5958 14.1015C17.6286 14.089 17.661 14.077 17.6926 14.0657C17.9873 13.9607 18.2937 13.9051 18.6048 13.8752C18.9255 13.8447 19.2472 13.8585 19.5661 13.9022C19.7005 13.9205 19.8336 13.944 19.9658 13.9749C20.2025 14.0061 20.4378 14.0575 20.6745 14.1185L20.7219 14.1308C20.9712 14.1962 21.2275 14.2528 21.4856 14.2085C21.6957 14.1726 21.8978 14.0917 22.0915 14.0042L22.1167 13.9928C22.5427 13.7982 23.208 13.6514 23.6873 13.6514ZM19.9401 14.3628C19.783 14.3282 19.7158 14.5707 19.8735 14.6054C19.9852 14.6299 20.0798 14.6862 20.1437 14.7817L20.1505 14.7921C20.2363 14.9286 20.4532 14.8026 20.3668 14.6651C20.2696 14.5104 20.1186 14.4021 19.9401 14.3628ZM24.5438 14.2125C24.4884 14.1735 24.4045 14.2025 24.3723 14.2576C24.3369 14.3184 24.3601 14.386 24.412 14.4258L24.4173 14.4297C24.4649 14.4632 24.5113 14.5234 24.5171 14.585L24.5176 14.5928C24.5239 14.7541 24.7745 14.7549 24.7682 14.5928C24.7621 14.4341 24.6703 14.3016 24.5438 14.2125Z" fill="black"/>
</svg>
