<svg width="36" height="48" viewBox="0 0 36 48" fill="none" xmlns="http://www.w3.org/2000/svg">
<path fill-rule="evenodd" clip-rule="evenodd" d="M27.6224 27.1414C27.1879 25.0823 25.6471 23.4845 23.5749 22.6886C23.1766 22.4632 22.7904 21.4961 22.2551 21.319C22.1693 21.2906 22.3047 21.5166 22.2551 21.53C22.0781 21.5782 21.8797 21.5832 21.6842 21.4094C21.3349 21.0988 21.2253 20.1913 21.0129 19.7811C19.8927 17.618 17.0957 18.4643 16.721 20.8557C16.4597 21.026 16.0904 21.1761 15.806 21.3134C15.5131 21.4547 15.2555 21.7971 14.9537 21.9195C14.6844 22.0288 14.2407 21.9514 13.9694 22.0466C12.7214 22.4846 11.6644 23.0372 10.8357 24.1569C10.661 24.393 10.4642 24.6833 10.3053 24.9219C9.48607 25.8653 8.91706 26.9228 8.39299 28.0573C6.92676 31.3872 6.52795 35.0742 6.17014 38.6621C6.17828 39.2898 5.76188 41.0305 6.37775 41.3315C6.34094 41.3697 6.35427 41.4463 6.42257 41.4457C7.98416 41.4299 9.54213 41.5697 11.0795 41.8415C11.8213 41.9727 12.559 42.1525 13.3146 42.1821C14.883 42.1713 16.4458 41.9083 18.0121 42.1571C19.8952 42.1571 22.1836 42.1022 24.2784 42.0217C26.2362 41.9464 28.2046 42.1164 30.1381 41.7834C30.2912 41.7591 30.3659 41.5724 30.3338 41.4386C30.107 40.6117 29.9956 39.7606 29.8683 38.9142C29.8937 38.3713 29.8483 37.8046 29.6476 37.2989C29.1231 33.8855 28.4505 30.4942 27.6224 27.1414Z" fill="#D08B5B"/>
<path fill-rule="evenodd" clip-rule="evenodd" d="M22.2551 21.5426C22.3047 21.5291 22.1693 21.3032 22.2551 21.3316C22.7904 21.5087 23.1766 22.4757 23.5749 22.7011C25.6471 23.4971 27.1879 25.0949 27.6224 27.154C28.4505 30.5068 29.1231 33.898 29.6476 37.3115C29.8483 37.8171 29.8937 38.3839 29.8683 38.9267L29.8883 39.0604C30.0077 39.8626 30.1189 40.6677 30.3338 41.4511C30.3659 41.585 30.2912 41.7717 30.1381 41.7959C28.2265 42.1252 26.281 41.9628 24.3452 42.0318L23.9417 42.0469C21.9406 42.1205 19.7947 42.1697 18.0121 42.1697C16.4458 41.9209 14.883 42.1838 13.3146 42.1947C12.559 42.1651 11.8213 41.9852 11.0795 41.8541C9.54213 41.5823 7.98416 41.4425 6.42257 41.4583C6.35427 41.4589 6.34094 41.3822 6.37775 41.3441C5.76188 41.0431 6.17828 39.3024 6.17014 38.6746L6.20248 38.3515C6.55284 34.8659 6.97075 31.2999 8.39299 28.0698L8.43559 27.978C8.948 26.8782 9.50821 25.8524 10.3053 24.9344L10.354 24.8614C10.5033 24.6384 10.6785 24.382 10.8357 24.1694C11.6644 23.0498 12.7214 22.4971 13.9694 22.0592C14.2407 21.964 14.6844 22.0413 14.9537 21.9321C15.236 21.8176 15.4796 21.5107 15.7496 21.3558L15.7496 22.5112L19.6557 26.3605L21.8711 22.9621L22.0965 21.5703C22.1507 21.5669 22.2038 21.5566 22.2551 21.5426Z" fill="#8FA7DF"/>
<path fill-rule="evenodd" clip-rule="evenodd" d="M26.9909 31.6278C26.9496 31.8285 26.8917 32.0292 26.8147 32.2193C26.7405 32.4028 26.6288 32.5671 26.5518 32.7484C26.5415 32.7729 26.5246 32.7913 26.5042 32.8054L26.5106 32.8547L26.5164 32.904C26.5548 33.2368 26.598 33.5687 26.6354 33.9015L26.6535 34.0679C26.7271 34.7627 26.8432 35.454 26.9333 36.1469C27.0216 36.8255 27.1114 37.504 27.2075 38.1815C27.3067 38.8801 27.4078 39.5777 27.5258 40.2734C27.5756 40.5673 27.6276 40.8609 27.6818 41.1542L27.7236 41.3787C28.1543 41.4824 28.272 42.0829 27.8335 42.3046C27.6344 42.4048 27.3787 42.3807 27.2147 42.2232C27.0442 42.0591 27.0371 41.7632 26.9976 41.5409L26.9595 41.3343C26.6743 39.7812 26.4268 38.2102 26.3111 36.6351C26.2814 36.2284 26.2563 35.8213 26.24 35.4139C26.2246 35.0308 26.232 34.6476 26.226 34.2644L26.2241 34.1599C26.215 33.7513 26.2225 33.3433 26.2332 32.9347C26.2344 32.8849 26.2366 32.8352 26.2391 32.7851C26.2247 32.7682 26.2144 32.7481 26.21 32.7287L26.2044 32.703C26.1903 32.637 26.2062 32.5596 26.257 32.5123C26.2789 32.234 26.3076 31.9559 26.3155 31.6779C26.3161 31.655 26.349 31.6557 26.3509 31.6779C26.3693 31.9146 26.4062 32.152 26.4432 32.389C26.6807 32.198 26.8563 31.883 26.9599 31.6194C26.9674 31.6003 26.9953 31.6071 26.9909 31.6278ZM21.3702 20.5618C21.4097 20.7422 21.4876 20.9041 21.5921 21.0547C21.6419 21.1267 21.6986 21.1937 21.7665 21.2497C21.8247 21.2976 21.8911 21.3289 21.953 21.3706C22.0432 21.3565 22.1374 21.3906 22.2006 21.457L22.1906 21.36C22.1875 21.3286 22.2394 21.3224 22.2454 21.3527C22.5192 22.7342 22.7689 24.1166 22.9851 25.5081L23.0799 26.1226L23.169 26.6995C23.3171 27.6608 23.4602 28.6217 23.5681 29.5901C23.7117 30.8823 23.8325 32.178 23.9208 33.4755C24.0094 34.7821 24.0639 36.0896 24.1027 37.3988C24.1123 37.7288 24.1227 38.0585 24.1327 38.3885L24.1995 37.9939C24.2663 37.5993 24.3317 37.2043 24.3878 36.8079C24.589 35.3892 24.7499 33.9605 24.8285 32.5296C24.9005 31.2201 24.8764 29.8847 24.5434 28.6091C24.4594 28.2881 24.3568 27.9722 24.2329 27.6644C24.1126 27.3651 23.9487 27.0877 23.8194 26.7927C23.6691 26.4496 23.6241 26.1258 23.7014 25.7564C23.769 25.4345 23.8876 25.1317 23.9089 24.8004C23.9487 24.1855 23.7486 23.5899 23.466 23.0517C23.3915 22.9099 23.313 22.7699 23.231 22.6312C22.9828 22.2119 22.7029 21.808 22.4125 21.4207C22.3969 21.4 22.43 21.3772 22.447 21.3941C22.7117 21.6558 23.0012 21.9132 23.2394 22.1991C23.3552 22.3381 23.4682 22.4799 23.5752 22.6255C24.7496 22.8219 25.7587 23.5536 26.4485 24.5199C27.2313 25.6164 27.6272 26.9362 27.9202 28.2358C28.246 29.6803 28.5208 31.1378 28.8135 32.5894C29.1164 34.0914 29.4178 35.5934 29.7227 37.0951C29.8741 37.8405 30.0257 38.5861 30.1768 39.3319C30.2535 39.7095 30.334 40.0862 30.4181 40.4626C30.4613 40.6555 30.5077 40.848 30.5477 41.0415C30.5928 41.2598 30.5508 41.3994 30.4031 41.5597C30.3486 41.6192 30.2626 41.6183 30.195 41.5866L30.1738 41.5767L30.1534 41.5668C30.0697 41.5257 30.0042 41.4831 29.9521 41.3915C29.8948 41.2911 29.8857 41.1796 29.866 41.0678C29.8297 40.8621 29.7937 40.6564 29.7574 40.4504C29.7032 40.1423 29.6442 39.835 29.5842 39.5279L29.2829 37.9929C29.2026 37.5837 29.1222 37.1744 29.0413 36.7654C28.7524 35.3025 28.4632 33.84 28.174 32.3774C27.8964 30.9731 27.6507 29.5591 27.3346 28.1629L27.3166 28.0842L27.2983 28.0057C27.0157 26.8021 26.6208 25.6378 25.9042 24.6179C25.3527 23.8335 24.5869 23.1331 23.6848 22.7786C23.7484 22.8701 23.8094 22.9634 23.8676 23.0586C24.2332 23.656 24.5001 24.3652 24.4375 25.0766C24.4069 25.4241 24.2748 25.7657 24.2873 26.1161C24.2989 26.4273 24.4914 26.7007 24.6244 26.9715C24.9264 27.5852 25.1449 28.2374 25.2858 28.9065C25.5684 30.2501 25.5674 31.6325 25.4701 32.9964C25.3643 34.479 25.1634 35.9613 24.9346 37.4294C24.8172 38.1825 24.661 38.9293 24.5414 39.681C24.4823 40.0517 24.4018 40.4216 24.3314 40.7904L24.2979 40.9666C24.2791 41.0644 24.2596 41.1619 24.2371 41.2583L24.2232 41.3161V41.3264C24.2225 41.3975 24.2031 41.4564 24.1718 41.5034C24.129 41.6408 24.0757 41.7748 24.005 41.9035C23.9687 41.9693 23.9161 42.0062 23.8588 42.0197C23.8012 42.1515 23.6707 42.2529 23.5149 42.2523L21.4651 42.2445C20.2745 42.2398 19.0839 42.2319 17.8932 42.2254C17.5928 42.2238 17.2926 42.2182 16.9925 42.2104C16.7111 42.2025 16.4413 42.1687 16.1631 42.1336C15.8488 42.0942 15.6786 41.8716 15.7255 41.5575C15.7358 41.4883 15.7471 41.4194 15.7577 41.3506C15.6952 41.3712 15.6207 41.3615 15.5703 41.3124L15.523 41.2661C15.4575 41.2013 15.399 41.1377 15.3574 41.0512C15.3146 40.9623 15.2798 40.8684 15.2419 40.7776C15.1602 40.5822 15.0808 40.3862 15.0034 40.1892C14.8485 39.7953 14.6936 39.3999 14.5496 39.0019C14.2645 38.2138 14.0122 37.4138 13.7928 36.6047C13.4016 35.1613 13.1186 33.69 12.9402 32.2055L12.8975 31.8517L12.8851 31.7472C12.8175 31.1718 12.7605 30.5875 12.7875 30.0134C12.8041 29.6539 12.8598 29.2917 12.9941 28.956C13.118 28.6464 13.3092 28.3815 13.4911 28.1047L13.5119 28.0727L13.5328 28.04C13.6918 27.7886 13.8184 27.5258 13.8247 27.2205C13.8311 26.9106 13.7409 26.6091 13.64 26.319L13.6149 26.2475L13.598 26.2002C13.3834 25.6007 13.1391 25.0097 13.2197 24.3574C13.3387 23.3967 13.9208 22.6224 14.6532 22.0253C14.0018 22.1543 13.3571 22.4092 12.7881 22.7323C12.1161 23.1143 11.5111 23.6184 10.9893 24.1873C10.0034 25.2625 9.2995 26.5526 8.72332 27.8846C8.12016 29.2785 7.6729 30.7392 7.33584 32.219C6.99687 33.7072 6.76996 35.2192 6.61499 36.7372C6.53772 37.4927 6.47697 38.2501 6.42661 39.0079C6.40094 39.3961 6.38154 39.785 6.35149 40.1726C6.32144 40.56 6.30795 40.9532 6.21343 41.3302C6.1693 41.5059 5.87165 41.5237 5.83975 41.3302C5.76897 40.8981 5.78875 40.4512 5.80851 40.0136L5.8103 39.9738C5.82974 39.538 5.85509 39.1024 5.8851 38.6669C5.94648 37.7767 6.02845 36.8878 6.1355 36.0017C6.51077 32.8912 7.20282 29.7971 8.56025 26.9578C9.19938 25.6205 10.0197 24.321 11.1609 23.3554C11.7042 22.896 12.3167 22.5294 12.9768 22.2639C13.5671 22.0263 14.1668 21.9138 14.7941 21.9142C15.1086 21.6731 15.4463 21.463 15.7837 21.2835C15.804 21.2726 15.8253 21.2989 15.8085 21.3158C15.7997 21.3243 15.7912 21.333 15.7825 21.3412C15.8207 21.3437 15.8601 21.3615 15.8954 21.3988C16.0194 21.5287 16.1239 21.6912 16.2175 21.86C16.3599 22.0378 16.4957 22.2216 16.6379 22.3976C16.8654 22.6794 17.0982 22.9571 17.334 23.2326C17.7298 23.6957 18.1386 24.15 18.5648 24.586L18.636 24.6585C18.8569 24.8825 19.0808 25.1504 19.3421 25.3277L19.356 25.337C19.4663 25.4088 19.5445 25.4219 19.6385 25.3145C19.7239 25.2169 19.7951 25.1035 19.8682 24.9958L19.8851 24.9711C20.2585 24.4284 20.6047 23.8658 20.918 23.2865C21.0608 23.0229 21.1967 22.7555 21.3255 22.4851L21.364 22.4039C21.4341 22.2548 21.5102 22.1086 21.568 21.9551C21.5815 21.9192 21.5946 21.8832 21.6075 21.8475C21.4103 21.7182 21.2576 21.4382 21.2022 21.2191C21.1446 20.9914 21.1737 20.7578 21.2763 20.5496C21.2957 20.5105 21.3608 20.5202 21.3702 20.5618ZM11.6429 29.8121C11.6156 30.6775 11.5991 31.5439 11.5583 32.4087L11.5443 32.704C11.6078 32.7748 11.645 32.8564 11.6153 32.9686C11.6038 33.0115 11.5696 33.0503 11.527 33.0647L11.5138 33.3392C11.4534 34.5743 11.3826 35.8068 11.2532 37.0387C11.0914 38.5805 10.9042 40.1197 10.7174 41.6587C10.6908 41.8766 10.5393 42.0494 10.3036 42.0175C10.0651 41.9852 9.96839 41.7776 9.99969 41.5613C10.1227 40.7124 10.241 39.8629 10.3446 39.0113L10.4626 38.041C10.6106 36.8281 10.762 35.6154 10.9365 34.4063C11.0094 33.901 11.0851 33.396 11.1612 32.8909L11.1346 32.8564C11.026 32.7153 10.9136 32.5772 10.8025 32.4382C10.5891 32.1701 10.3784 31.9043 10.1828 31.6237C10.1731 31.6096 10.1928 31.589 10.2069 31.5996C10.481 31.8022 10.7405 32.0189 11.0016 32.239L11.2301 32.4325C11.3615 31.5598 11.4917 30.6869 11.6078 29.8121C11.6106 29.7902 11.6435 29.7886 11.6429 29.8121ZM15.5869 21.5297C15.4219 21.6852 15.2532 21.8374 15.087 21.9921L15.0261 22.049L14.9655 22.1062C14.6734 22.3834 14.3935 22.6719 14.1603 23.0032C13.7321 23.6115 13.477 24.3533 13.6551 25.096C13.8028 25.7112 14.1418 26.2689 14.2329 26.8995C14.2785 27.2154 14.2563 27.5329 14.1374 27.8313C14.0159 28.1357 13.8219 28.3965 13.6475 28.6711C13.2688 29.2679 13.2172 29.9229 13.2548 30.6143C13.2942 31.3363 13.3771 32.0586 13.4795 32.7741C13.6867 34.2238 13.999 35.6585 14.4125 37.0634C14.6194 37.767 14.8638 38.4555 15.107 39.1469C15.2281 39.491 15.3693 39.827 15.5148 40.1613C15.5915 40.3373 15.6701 40.5123 15.7499 40.687C15.7205 40.4403 15.7205 40.187 15.7061 39.9419C15.6854 39.5906 15.6591 39.2399 15.635 38.8889C15.5859 38.1765 15.5421 37.4636 15.503 36.7506C15.3643 34.2082 15.2623 31.6635 15.2698 29.117C15.2736 27.8436 15.2995 26.5701 15.3543 25.2979C15.38 24.6988 15.4297 24.1003 15.4746 23.5021L15.4842 23.3739C15.5239 22.8369 15.5715 22.2987 15.6532 21.7664C15.629 21.7118 15.608 21.6565 15.5924 21.5998L15.5869 21.5785L15.5909 21.5791C15.5872 21.5625 15.5859 21.5459 15.5869 21.5297ZM17.0135 19.3416C17.0169 19.3269 17.0378 19.3282 17.0416 19.3416C17.1346 19.6547 17.1017 19.9992 17.0216 20.3142C16.9784 20.4848 16.9171 20.6504 16.8429 20.8101L16.8169 20.866C16.7534 21.002 16.6818 21.1421 16.558 21.2269C16.5064 21.2623 16.4141 21.2644 16.3624 21.2269L16.3361 21.2069C16.3317 21.2035 16.3275 21.2 16.3233 21.1965C16.2751 21.1561 16.2513 21.0669 16.2735 21.008C16.3308 20.8561 16.4607 20.7447 16.5505 20.6094C16.6301 20.4892 16.7005 20.3624 16.759 20.2306C16.8851 19.9453 16.9418 19.6425 17.0135 19.3416Z" fill="black"/>
<path fill-rule="evenodd" clip-rule="evenodd" d="M24.3825 10.1586C24.3131 9.98311 24.1904 9.76252 23.9854 9.75372C23.8268 9.26762 23.4324 8.77256 22.8839 8.78571C21.2739 7.13517 19.247 7.21298 17.1279 7.56238C16.0099 7.77025 14.8746 8.1773 14.0408 8.98056C13.0421 9.92622 12.6532 11.5763 13.4353 12.7721C12.7594 13.1352 12.7462 13.9969 13.0353 14.6187C12.6878 14.8596 12.6667 15.4442 13.058 15.6279C13.0372 15.7134 13.0519 15.8017 13.0916 15.8776C12.8976 16.0394 12.6451 16.159 12.4364 16.2618C12.3441 16.3072 12.2909 16.3814 12.2688 16.4651C11.5834 16.9158 9.87439 18.0174 9.89475 18.8942C9.88469 19.3516 10.2231 19.6526 10.6344 19.7724C10.3897 20.2629 10.204 20.8357 10.4382 21.3647C10.5029 21.5246 10.9881 21.9944 11.0125 22.003C11.0552 22.0397 11.7511 21.7194 12.0894 21.556C12.155 21.9837 12.6112 22.2078 13.0045 22.0613C13.3773 21.9486 13.6066 21.6321 13.8417 21.3442C14.1539 22.0269 15.0724 22.0348 15.666 21.7404C16.1991 21.4936 16.6044 21.041 16.8301 20.4958C18.0289 21.0841 19.4314 21.2556 20.7338 21.0206C20.8174 21.1689 21.0024 21.2685 21.1673 21.2111C21.8598 21.0024 22.6255 20.9907 23.2126 20.5125C24.4363 19.632 24.5393 18.0087 24.454 16.6249C24.3783 15.2453 24.4446 13.8541 24.1944 12.4893C24.3029 12.0875 24.4835 11.7323 24.6506 11.3548C24.8322 10.959 24.8283 10.3706 24.3825 10.1586Z" fill="#D08B5B"/>
<path fill-rule="evenodd" clip-rule="evenodd" d="M18.8275 7.4209L18.875 7.42109C18.9537 7.42161 19.0322 7.42316 19.1105 7.42575C19.5243 7.4394 19.9559 7.49322 20.4418 7.58535L20.5157 7.59958C20.6366 7.6233 20.7448 7.6471 20.9175 7.68754L21.2603 7.76851C21.4348 7.80927 21.5632 7.83748 21.6817 7.86017L21.6972 7.86311C21.6972 7.86311 22.6105 8.30196 22.9055 8.59068L22.9349 8.61971L22.9474 8.63226L23.0757 8.63632L23.0769 8.65255L23.078 8.65272C23.2053 8.67258 23.3205 8.73869 23.4276 8.84162L23.4391 8.85279L23.4501 8.86385C23.5336 8.94895 23.6001 9.03962 23.6918 9.18335L23.7126 9.21618L23.7499 9.27546L23.7801 9.32307C23.7997 9.35421 23.8185 9.38501 23.8366 9.41554L23.8545 9.44596L23.8673 9.46833L24.1984 9.66196C24.2461 9.68986 24.2895 9.72597 24.3293 9.76921L24.34 9.78118L24.3506 9.79349L24.4408 9.90111L24.4226 9.92009L24.4314 9.93169L24.4471 9.95331L24.4625 9.97524L24.4775 9.99745L24.4839 10.0072L24.4936 10.0283L24.4984 10.0388L24.5021 10.0475L24.5134 10.0533L24.5364 10.0949C24.6558 10.3108 24.7201 10.556 24.7245 10.808C24.7275 10.9818 24.7061 11.1396 24.6553 11.2919C24.6202 11.3972 24.5731 11.4799 24.4917 11.5938L24.4273 11.6823L24.4142 11.7005L24.3985 11.7227C24.396 11.7263 24.3936 11.7298 24.3912 11.7332C24.2866 11.8851 23.3927 12.1726 22.8432 12.1865L22.8267 12.1868L22.8055 12.187C22.7531 12.1873 22.7024 12.1854 22.6536 12.1813C22.4422 12.1636 22.2446 12.119 22.0151 12.0461L21.9674 12.0306L21.7145 11.9455C21.7064 11.9428 21.6999 11.9406 21.6954 11.9392L21.6723 11.932C21.6166 11.9148 21.5762 11.905 21.5486 11.9014L21.5429 11.9007L21.5424 11.9112L21.5422 11.9211L21.5422 11.9292C21.5438 12.0459 21.4731 12.1309 21.3635 12.1851C21.2936 12.2197 21.2037 12.2443 21.0907 12.2628L21.0727 12.2657C20.8881 12.2943 20.6679 12.3065 20.2996 12.3149C20.2855 12.3152 20.2714 12.315 20.2572 12.3144C20.1781 12.3107 20.1159 12.2972 20.0004 12.264L19.9458 12.2483L19.9162 12.2401C19.8612 12.2252 19.8306 12.2192 19.8017 12.2176L19.7933 12.2173L19.785 12.2171C19.7502 12.2171 19.7252 12.2248 19.7005 12.2437L19.6878 12.2538L19.518 12.3964C19.4959 12.4149 19.4761 12.4313 19.4616 12.4429L19.4557 12.4475C19.2226 12.6307 19.0004 12.7354 18.7386 12.7453L18.7211 12.7458L18.7029 12.746C18.6896 12.7461 18.6762 12.7458 18.6629 12.7453C18.5526 12.7411 18.4382 12.7001 18.282 12.6212L18.2496 12.6045L18.2269 12.5927C18.2153 12.5866 18.2033 12.5802 18.1902 12.5732L18.0736 12.5106L18.014 12.4794C17.9428 12.4427 17.9032 12.425 17.8765 12.4177L17.8721 12.4166L17.8696 12.419C17.8078 12.4795 17.7547 12.5556 17.6976 12.6608L17.689 12.6768L17.6765 12.7006L17.5954 12.8624L17.5801 12.8925C17.5199 13.0093 17.4723 13.084 17.41 13.1495C17.3196 13.2445 17.21 13.2997 17.0758 13.3086L17.0623 13.3093L17.0463 13.3097C16.9831 13.3103 16.9162 13.3006 16.8436 13.2803L16.8267 13.2755L16.8103 13.2704C16.7021 13.2362 16.5311 13.2575 16.3953 13.3298C16.2478 13.4083 16.1665 13.528 16.1701 13.6811C16.1719 13.7571 16.1806 13.8386 16.196 13.9269L16.2003 13.9511C16.2205 14.0603 16.2477 14.1699 16.2898 14.316L16.3802 14.6217L16.3904 14.6574L16.4006 14.6941C16.4153 14.7475 16.427 14.7941 16.4366 14.838C16.4735 15.0056 16.4797 15.1316 16.4427 15.2388C16.2796 15.7118 15.9967 15.9631 15.6746 15.9737L15.6635 15.974L15.6497 15.974C15.4023 15.9713 15.1781 15.8097 15.1808 15.6003C15.181 15.5783 15.1852 15.5579 15.1925 15.5394L15.1958 15.5316L15.1973 15.5283L15.1948 15.522C15.1187 15.3395 14.9429 15.2063 14.7363 15.1801L14.7246 15.1788L14.713 15.1777C14.7017 15.1767 14.6904 15.176 14.6797 15.1756L14.6692 15.1754L14.6566 15.1753C14.3814 15.1757 14.109 15.3594 13.8947 15.6598C13.8501 15.7225 13.8086 15.7909 13.7713 15.8632L13.7591 15.8874L13.6995 16.0096L13.6593 16.1278C13.4376 16.7784 13.5498 17.4592 13.9825 17.8112L13.9958 17.8217C14.1517 17.9443 14.335 18.0188 14.5308 18.0388C14.5533 18.0411 14.5759 18.0426 14.5978 18.0432L14.6139 18.0435L14.6325 18.0434C14.6963 18.0426 14.7573 18.0346 14.8121 18.0198C14.8568 18.0077 14.8879 17.993 14.9096 17.9743C14.9153 17.9694 14.9198 17.9649 14.9238 17.9605L14.9271 17.9565L14.9284 17.9548L15.2241 17.9988C15.2744 18.3189 15.4197 18.6506 15.6561 19.031L15.671 19.0548L15.697 19.0959L15.7235 19.1369C16.0016 19.5658 16.3118 19.927 16.6529 20.2041L16.6767 20.2233L16.7086 20.2487L16.738 20.2718C16.795 20.3161 16.8424 20.3506 16.8899 20.3814L16.9018 20.389L17.014 20.4603L16.9619 20.5827C16.8404 20.8683 16.6728 21.128 16.4662 21.3491L16.4467 21.3697L16.3031 21.5182L16.1927 21.3772C16.1919 21.3761 16.1894 21.3748 16.1864 21.3742L16.1844 21.374H16.1833L16.1818 21.3741L16.18 21.3746L16.1782 21.3754C16.0955 21.4204 16.0501 21.4547 15.9849 21.522L15.9754 21.5318L15.9644 21.5434L15.9492 21.5593C15.8815 21.6289 15.809 21.6882 15.7301 21.7375C15.5477 21.8515 15.3453 21.9148 15.1357 21.9205L15.116 21.9209L15.0962 21.9209C15.0891 21.9208 15.082 21.9207 15.0749 21.9205C14.6376 21.9083 14.2457 21.6275 14.0531 21.2158C14.0455 21.1995 14.0384 21.1942 14.0255 21.1931L14.0218 21.1929L14.0172 21.1928C13.985 21.193 13.9457 21.2122 13.9237 21.2379L13.9198 21.2428L13.8461 21.3421L13.8178 21.3796C13.5548 21.7257 13.3389 21.9151 13.0489 21.9726C13.0261 21.9771 13.0019 21.9798 12.9763 21.981L12.9607 21.9816H12.9516C12.8269 21.982 12.6832 21.9457 12.5712 21.8819C12.423 21.7976 12.3314 21.6678 12.343 21.507L12.3438 21.4967L12.3459 21.4795C12.3556 21.3937 12.287 21.347 12.2346 21.3891L12.231 21.3922L12.2267 21.3961C12.0106 21.5992 11.7621 21.7551 11.4945 21.8513L11.4708 21.8596L11.4356 21.8716C11.2668 21.9287 11.1478 21.9571 11.0224 21.9593C10.914 21.9611 10.8238 21.9219 10.7585 21.8465C10.715 21.7962 10.6885 21.7403 10.6619 21.6588L10.6575 21.6449L10.6478 21.6132L10.6418 21.5926C10.5641 21.3187 10.5624 21.0258 10.6234 20.7026C10.669 20.4612 10.7415 20.228 10.8634 19.9011L10.887 19.8381L10.9359 19.7095C10.9408 19.6966 10.9115 19.6516 10.8933 19.6465L10.8912 19.6462L10.8746 19.6479C10.863 19.649 10.8513 19.6498 10.8393 19.6503L10.821 19.6507H10.8091C10.413 19.6466 10.1106 19.2573 10.1134 18.8449C10.1164 18.4586 10.3102 18.1264 10.6802 17.7321L10.7124 17.6981L10.7472 17.662L10.7815 17.6268C11.1103 17.2911 11.4465 16.9982 11.7965 16.7469L11.8255 16.7262L11.8578 16.7034C11.9757 16.6205 12.0903 16.5453 12.2488 16.4465L12.3422 16.3887L12.7206 15.9411C12.7297 15.9359 12.7386 15.9308 12.7475 15.9256L12.7523 15.7703L13.1168 15.7779C13.0243 15.7303 12.9477 15.6726 12.8854 15.5986C12.6785 15.3526 12.7045 15.0109 12.9561 14.843L12.9649 14.8372L13.071 14.7715L13.1578 14.8479C13.2334 14.9143 13.3136 14.9584 13.3972 14.9788L13.4104 14.9818L13.4758 14.9957L13.4886 15.0164L13.4959 15.0057C13.4959 15.0046 13.4957 15.0035 13.4953 15.0025L13.4947 15.001L13.4933 14.9988L13.4851 14.9887L13.476 14.9778C13.4469 14.9435 13.4142 14.9102 13.3549 14.8529L13.3132 14.8128L13.2808 14.7812C13.1958 14.6975 13.1505 14.6456 13.1024 14.5736C12.9826 14.3944 12.9149 14.1924 12.9121 13.9872C12.9062 13.5605 13.171 13.1571 13.5633 12.973C13.577 12.9665 13.5871 12.9207 13.5707 12.8904C13.1908 12.1917 13.0854 11.3542 13.2762 10.5751C13.4543 9.8482 13.8972 9.20659 14.5313 8.7151C15.6199 7.87132 17.13 7.43621 18.7323 7.42122L18.7808 7.4209H18.8275Z" fill="#ECDCBF"/>
<path fill-rule="evenodd" clip-rule="evenodd" d="M13.0056 16.0152C13.0777 15.997 13.1164 16.0942 13.0552 16.1332C12.6666 16.3811 12.2651 16.6024 11.8896 16.8721C11.5325 17.1284 11.2027 17.4204 10.8951 17.7343L10.861 17.7693C10.583 18.0561 10.275 18.4209 10.2719 18.844C10.2695 19.1728 10.5224 19.5317 10.8752 19.4885C11.0081 19.4722 11.1303 19.6413 11.0839 19.7632L11.0351 19.8917C10.8388 20.4116 10.6391 21.0007 10.7941 21.5477L10.7998 21.5672C10.8373 21.6924 10.8769 21.8031 11.0219 21.8006C11.1565 21.7982 11.2965 21.7528 11.4225 21.7093C11.684 21.6192 11.9209 21.4689 12.122 21.2798C12.2999 21.1126 12.5272 21.2825 12.5032 21.495L12.5024 21.5018C12.4696 21.7402 12.8486 21.8509 13.0208 21.8168C13.361 21.7494 13.6035 21.4077 13.7967 21.1473C13.8895 21.0221 14.1151 20.9728 14.1967 21.1473C14.3583 21.4928 14.6915 21.751 15.0814 21.7619C15.2838 21.7675 15.4781 21.7097 15.6496 21.6026C15.7196 21.5588 15.7822 21.5068 15.8396 21.4478L15.8539 21.4329C15.9388 21.3426 15.9975 21.2946 16.106 21.2357C16.2129 21.1776 16.3512 21.2496 16.3505 21.3763C16.3496 21.5405 16.3017 21.6496 16.1888 21.7686C16.0953 21.8672 15.9843 21.9538 15.8676 22.0229C15.6332 22.1618 15.3544 22.24 15.0814 22.2309C14.651 22.2167 14.2403 22.0016 13.974 21.6672C13.7022 21.9931 13.365 22.2925 12.9267 22.2844C12.5987 22.2784 12.2929 22.1072 12.1464 21.842C11.9396 21.9849 11.7127 22.0966 11.4699 22.1696L11.4482 22.176C11.1046 22.2763 10.709 22.3162 10.4878 21.9741C10.2801 21.653 10.2646 21.2083 10.3122 20.8412C10.3547 20.5133 10.4554 20.2019 10.5709 19.8948C10.242 19.7963 9.98665 19.4866 9.89895 19.1527C9.76627 18.6478 10.0237 18.1581 10.3419 17.7829C10.6875 17.3754 11.1226 17.0307 11.5609 16.7289C11.998 16.4281 12.4877 16.1453 13.0056 16.0152ZM24.2454 12.0659C24.2462 12.0518 24.2691 12.0469 24.2712 12.0623C24.4222 13.1606 24.5096 14.2568 24.582 15.3626C24.6187 15.9229 24.6604 16.4826 24.706 17.0421C24.7497 17.5787 24.8225 18.1296 24.8061 18.6683C24.7803 19.512 24.3717 20.198 23.7016 20.6916C23.0595 21.1647 22.263 21.3986 21.4816 21.4974C21.0277 21.5548 20.5676 21.5576 20.1132 21.5036C19.8772 21.4756 19.6416 21.4384 19.4104 21.3824L19.3105 21.3573C19.1285 21.3107 18.9253 21.2475 18.8993 21.0313C18.8867 20.9267 18.9422 20.8494 19.0318 20.7969C19.1486 20.7284 19.2825 20.7687 19.4028 20.7999C19.6056 20.8525 19.8105 20.8977 20.0178 20.9289C20.463 20.996 20.9206 21 21.368 20.9536C22.1207 20.8753 22.9146 20.6306 23.4949 20.1252C23.7471 19.9056 23.9664 19.638 24.0818 19.32C24.2301 18.9113 24.2081 18.4654 24.2031 18.0374C24.1916 17.0421 24.2018 16.0469 24.188 15.0516C24.1741 14.0532 24.1862 13.0627 24.2454 12.0659ZM16.6766 7.41475C17.556 7.18737 18.4486 7.12829 19.352 7.19673C20.2039 7.26123 21.1744 7.45233 21.8702 7.97763C21.904 8.00312 21.8838 8.05137 21.842 8.0447C21.3768 7.97037 20.9233 7.83517 20.4602 7.74571C20.0147 7.65967 19.5611 7.59507 19.1075 7.58011C17.5733 7.52941 15.8661 7.87794 14.629 8.83684C14.0489 9.28644 13.6062 9.89099 13.43 10.6103C13.2493 11.3481 13.3471 12.146 13.7099 12.8134C13.7622 12.9095 13.7406 13.0615 13.6316 13.1126C13.3009 13.2679 13.0653 13.6118 13.0704 13.9829C13.0729 14.1629 13.1348 14.3356 13.2342 14.4843C13.3394 14.6417 13.4996 14.7518 13.6172 14.8987C13.6635 14.9566 13.6653 15.0363 13.6286 15.0896C13.6974 15.1198 13.7716 15.136 13.8394 15.1717C13.8968 15.202 13.8984 15.2965 13.8394 15.3263C13.6901 15.4017 13.5286 15.3217 13.4279 15.2001C13.4099 15.1784 13.3943 15.1559 13.3802 15.1328C13.2595 15.1072 13.1514 15.0465 13.0569 14.9634C12.877 15.0714 12.8524 15.3118 13.0069 15.4955C13.0859 15.5893 13.198 15.6472 13.3113 15.6888L13.3249 15.6937C13.4352 15.733 13.5362 15.7549 13.6079 15.8434C13.6551 15.7446 13.7094 15.6515 13.7698 15.5667C13.9897 15.2584 14.3276 14.9849 14.7286 15.0196C15.0427 15.0467 15.3149 15.2722 15.3792 15.5832C15.384 15.6062 15.3494 15.6242 15.3391 15.6002C15.1884 15.2479 14.7115 15.235 14.4275 15.4185C14.0935 15.6345 13.9109 16.0414 13.8377 16.4203C13.7656 16.7936 13.8072 17.2476 14.0859 17.5315C14.2 17.6477 14.3551 17.7281 14.517 17.7493C14.5962 17.7596 14.666 17.7494 14.7417 17.7341L14.7918 17.7236C14.8266 17.7164 14.8612 17.7106 14.8977 17.7138L14.9521 17.7212L14.983 17.7357C15.0098 17.7477 15.0074 17.7444 14.9757 17.7257C15.0681 17.7181 15.1159 17.7866 15.1209 17.8616C15.1239 17.8635 15.1267 17.8655 15.1291 17.8685C15.4797 18.2986 15.74 18.793 16.1121 19.2091L16.221 19.331C16.501 19.6432 16.8207 19.9818 17.2011 20.1438L17.2464 20.1626C17.357 20.2094 17.4681 20.2736 17.4823 20.4073C17.4949 20.5271 17.4007 20.6172 17.2921 20.6452C17.0448 20.7088 16.7629 20.4884 16.5818 20.3439C16.1923 20.0331 15.865 19.637 15.5947 19.2202L15.5679 19.1786C15.3457 18.8307 15.1369 18.4339 15.072 18.021L15.0603 18.0401C15.0594 18.0414 15.0587 18.0424 15.0583 18.043C15.045 18.0611 15.0304 18.0763 15.0135 18.0909C14.968 18.1302 14.9126 18.1532 14.8549 18.1688C14.7468 18.1981 14.6282 18.2039 14.517 18.1925C14.2912 18.1693 14.0801 18.0832 13.9015 17.9428C13.358 17.5154 13.2938 16.7202 13.5136 16.075C13.3332 16.1182 13.1277 15.9965 12.9869 15.8922C12.8253 15.7725 12.6921 15.5998 12.6603 15.3966C12.6287 15.1949 12.7569 14.9279 12.9472 14.8501C12.7498 14.6126 12.6349 14.2754 12.623 14.0055C12.6024 13.536 12.8512 13.0922 13.2333 12.836C12.874 12.0641 12.8048 11.1686 13.0467 10.3491C13.5267 8.72284 15.1347 7.81341 16.6766 7.41475ZM15.3079 19.7709L15.3124 19.7566C15.3507 19.6308 15.4001 19.3806 15.5875 19.4759C15.7666 19.5668 15.6523 19.8361 15.5896 19.9672C15.5147 20.124 15.3853 20.2497 15.2115 20.2834C15.0702 20.3108 14.915 20.2756 14.8161 20.1661C14.7872 20.1342 14.771 20.0992 14.7539 20.0606C14.7472 20.0456 14.7442 20.0353 14.743 20.0286C14.7414 20.0359 14.7367 20.0469 14.7249 20.0598C14.646 20.1462 14.5715 20.2468 14.5143 20.349C14.5007 20.3732 14.458 20.3563 14.4688 20.3298C14.5355 20.1663 14.5243 19.9135 14.6729 19.7952C14.8039 19.6909 14.927 19.773 14.9963 19.8944L14.9998 19.9007C15.1011 20.0851 15.2625 19.91 15.3079 19.7709ZM13.8828 19.1801L13.8965 19.161C14.0366 18.9691 14.2728 18.7382 14.5092 18.9167C14.5844 18.9735 14.5872 19.0682 14.5092 19.1246L14.4797 19.1457C14.3764 19.2191 14.2736 19.2884 14.1978 19.3937C14.1153 19.5081 14.0413 19.6293 13.9305 19.719C13.7345 19.8778 13.4178 19.9091 13.2477 19.6951L13.231 19.6739C13.2168 19.6555 13.2004 19.6334 13.1872 19.6113L13.1769 19.6256C13.1758 19.6271 13.1749 19.6284 13.174 19.6297L13.1717 19.6334C13.1018 19.7453 13.0135 19.8376 12.9035 19.9103C12.6945 20.0486 12.459 20.0678 12.2225 19.9946C12.1993 19.9874 12.2056 19.9563 12.228 19.9543C12.5081 19.928 12.7812 19.7285 12.8951 19.4715L12.908 19.4427C12.9541 19.3404 13.0058 19.2433 13.1197 19.2032C13.2306 19.1641 13.3471 19.2054 13.4231 19.2895C13.4867 19.3598 13.5031 19.4995 13.6178 19.4687C13.7434 19.4349 13.8141 19.2772 13.8828 19.1801ZM13.0803 17.4729C13.1423 17.4256 13.2395 17.4763 13.2566 17.5449C13.334 17.855 13.0125 18.2205 12.7034 18.2301C12.6239 18.2326 12.5474 18.2133 12.4769 18.1764C12.4223 18.1477 12.3576 18.0746 12.2976 18.0625C12.2201 18.0469 12.1514 18.1503 12.0969 18.2034C12.0292 18.2693 11.9622 18.3305 11.8864 18.3867C11.8561 18.4091 11.8091 18.3714 11.8219 18.337L11.8475 18.2684C11.9404 18.0245 12.1003 17.6683 12.3996 17.7695C12.5463 17.8191 12.6566 17.9864 12.811 17.854C12.9347 17.7479 12.9462 17.575 13.0803 17.4729ZM14.4008 16.2242C14.6798 15.9032 15.3356 16.0728 15.46 16.4634C15.4875 16.5496 15.4588 16.6617 15.3916 16.7228C15.303 16.8032 15.1767 16.8276 15.0692 16.7645C14.9767 16.7102 14.9387 16.6215 14.8707 16.5453C14.771 16.4336 14.6354 16.3717 14.4956 16.3273C14.4607 16.3457 14.4281 16.3699 14.399 16.3991C14.384 16.414 14.3558 16.3935 14.3691 16.3759C14.3871 16.352 14.4091 16.3295 14.4341 16.3087L14.4221 16.3052C14.3853 16.2949 14.3773 16.2513 14.4008 16.2242ZM16.2141 12.6794C16.2766 12.6795 16.3494 12.7383 16.3414 12.8071L16.339 12.8261C16.321 12.957 16.2791 13.0311 16.1484 13.0919C16.0376 13.1434 15.9211 13.1718 15.7997 13.1831C15.7537 13.1874 15.705 13.1876 15.6557 13.1839L15.6453 13.244C15.6247 13.3641 15.6056 13.4843 15.602 13.6068C15.5953 13.8337 15.6798 14.0208 15.7704 14.2234C15.9444 14.6127 15.9639 15.0013 15.7745 15.39C15.7468 15.4468 15.6684 15.4931 15.6051 15.4874C15.5231 15.4799 15.4835 15.4561 15.4357 15.39C15.3956 15.3344 15.4048 15.2559 15.4326 15.1978L15.4357 15.1914C15.5311 15.0061 15.5612 14.7967 15.5125 14.593C15.4667 14.4015 15.363 14.2295 15.3167 14.0386C15.2412 13.7277 15.3216 13.4192 15.4786 13.1525C15.3601 13.1183 15.2505 13.0573 15.1773 12.9643L15.1776 12.9641C15.1497 12.9342 15.1649 12.8718 15.2139 12.8755L15.2694 12.88C15.4279 12.8933 15.5738 12.9071 15.7341 12.8628C15.8163 12.8401 15.8872 12.8022 15.9578 12.7563L15.9729 12.7463C16.0612 12.6875 16.1101 12.6792 16.2141 12.6794ZM16.5934 10.3814C16.9909 10.3587 17.3301 10.6216 17.4951 10.9716C17.6742 11.3516 17.5991 11.7876 17.4409 12.1614L17.396 12.2661C17.3174 12.4474 17.2141 12.6629 17.0531 12.7602C16.8722 12.8695 16.7158 12.7428 16.7691 12.5414C16.8009 12.4214 16.887 12.3289 16.9566 12.2299C17.0216 12.1374 17.0822 12.0417 17.1353 11.9419C17.2395 11.7461 17.3172 11.528 17.3164 11.3037C17.3149 10.8944 17.0451 10.4253 16.5934 10.4313C16.5612 10.4316 16.5617 10.3831 16.5934 10.3814ZM18.6034 9.72082C18.5786 9.70198 18.6008 9.66005 18.6285 9.67774C19.0893 9.97156 19.4334 10.5235 19.5027 11.0657C19.5411 11.3665 19.5118 11.688 19.3839 11.9657C19.3106 12.125 19.1848 12.2771 19.0089 12.3207C18.8472 12.3609 18.6805 12.2683 18.6303 12.11C18.6109 12.0486 18.6444 11.9844 18.6949 11.9509C18.8589 11.8422 18.9909 11.705 19.0682 11.5206C19.1485 11.3287 19.1806 11.1252 19.1815 10.9183C19.1839 10.4337 18.991 10.0162 18.6034 9.72082ZM24.2328 9.93083C24.2115 9.90713 24.2383 9.87219 24.2665 9.88703C24.5997 10.0627 24.8114 10.3992 24.872 10.7677C24.9315 11.1284 24.8515 11.6196 24.573 11.8805C24.4158 12.0278 24.1342 11.8319 24.2648 11.6422C24.357 11.5084 24.4566 11.3982 24.5093 11.2401C24.5564 11.0991 24.573 10.9568 24.5705 10.8086C24.5649 10.4852 24.4496 10.1719 24.2328 9.93083ZM20.1595 9.47907C20.7287 9.45189 21.0737 10.1033 21.1527 10.5889C21.2015 10.8889 21.1648 11.1978 20.9996 11.458L20.9898 11.4732C20.8535 11.681 20.6056 11.9203 20.3386 11.8219C20.2255 11.7803 20.1955 11.6589 20.2714 11.5668C20.3876 11.4259 20.5672 11.3684 20.6764 11.2179C20.799 11.0491 20.8391 10.8376 20.8321 10.6324L20.8311 10.6097C20.8121 10.2321 20.6324 9.50735 20.1595 9.52018C20.133 9.52087 20.1333 9.48029 20.1595 9.47907ZM21.94 9.37083C22.4905 9.30029 22.8258 9.94962 22.9292 10.3969C22.9938 10.6766 23.0079 10.9885 22.9253 11.2661L22.9192 11.2858C22.8519 11.493 22.6535 11.8479 22.3945 11.742C22.3236 11.713 22.2511 11.634 22.2851 11.5489C22.3285 11.44 22.3911 11.4118 22.4746 11.3421C22.5389 11.2885 22.5837 11.2115 22.6168 11.1356C22.7048 10.9335 22.7244 10.6974 22.7124 10.4796L22.7107 10.4538C22.6796 10.0284 22.4495 9.3944 21.94 9.40606C21.9167 9.40659 21.9183 9.37359 21.94 9.37083ZM22.948 8.76038C23.2544 8.6434 23.5054 8.93713 23.6816 9.14676C23.9022 9.40943 24.1024 9.69239 24.2156 10.0194C24.3164 10.3107 24.3341 10.6347 24.2433 10.9312C24.1984 11.0781 24.1283 11.2143 24.0328 11.3341L24.0206 11.3492C23.9211 11.4708 23.8251 11.5455 23.6621 11.502C23.5958 11.4843 23.5678 11.4185 23.5793 11.3557C23.6038 11.2215 23.6728 11.1867 23.7622 11.093C23.841 11.0104 23.8994 10.9086 23.9388 10.8016C24.0198 10.5809 24.024 10.3418 23.9696 10.1144C23.9087 9.85985 23.7888 9.62479 23.6501 9.40452L23.6202 9.35734C23.4733 9.12446 23.2638 8.76583 22.9538 8.80362C22.9272 8.80688 22.9269 8.7684 22.948 8.76038Z" fill="black"/>
<path fill-rule="evenodd" clip-rule="evenodd" d="M20.5688 17.6062C20.7439 17.3181 21.1171 18.0239 21.1568 18.1453C21.1919 18.2528 21.2151 18.3629 21.2269 18.4743C21.3626 18.5048 21.5036 18.5048 21.6427 18.4781C21.8494 18.4385 21.9757 18.3273 22.1554 18.2318C22.2795 18.1659 22.4359 18.2432 22.5004 18.3526C22.5763 18.4814 22.528 18.615 22.4281 18.711C22.2388 18.8931 21.8663 18.9349 21.6192 18.8865C21.4776 18.8589 21.3478 18.8057 21.2332 18.7285C21.2324 18.7429 21.2319 18.7574 21.2308 18.7717L21.2286 18.7967C21.2096 18.9986 21.1542 19.2524 20.9974 19.3838C20.7403 19.5993 20.423 19.1849 20.6728 18.9696L20.6806 18.9632C20.8358 18.8377 20.8697 18.5009 20.8614 18.3154C20.8559 18.1944 20.8338 18.0717 20.7956 17.9564L20.7878 17.9335C20.7763 17.9009 20.6509 17.592 20.6055 17.6313L20.6034 17.6335C20.5847 17.6558 20.5545 17.6298 20.5688 17.6062ZM21.9668 15.9804C22.2031 16.1241 22.5633 16.4592 22.309 16.8155C22.0097 17.1297 21.5788 16.7695 21.3665 16.6066C21.1696 16.4803 20.9484 16.805 21.131 16.9525C22.6654 18.0889 23.2881 16.018 22.0863 15.8114C21.954 15.7886 21.9049 15.9359 21.9668 15.9804ZM19.443 14.652C19.674 14.611 19.9106 14.6684 20.1017 14.8036L20.1162 14.814C20.3004 14.9488 20.5064 15.1853 20.4007 15.4176C20.3583 15.5108 20.2313 15.5254 20.1507 15.4832C20.0165 15.4128 19.9922 15.2396 19.8725 15.1438C19.7743 15.0652 19.6421 15.0175 19.5157 15.029C19.2186 15.056 19.0359 15.3491 18.9436 15.6017C18.9318 15.634 18.8844 15.6466 18.8659 15.6119C18.6483 15.2051 19.0334 14.7247 19.443 14.652ZM23.1429 14.4984C23.5853 14.462 24.1032 14.9209 23.9867 15.3881C23.9309 15.6123 23.5984 15.6058 23.5393 15.3881C23.5068 15.2683 23.5101 15.1622 23.4239 15.0627C23.3527 14.9806 23.2516 14.9328 23.1429 14.9402C23.023 14.9483 22.9125 15.0081 22.8285 15.0923C22.7527 15.1684 22.7074 15.2796 22.6288 15.3469C22.6095 15.3634 22.5836 15.3645 22.5645 15.3469C22.4293 15.2222 22.5104 14.9626 22.5962 14.8324C22.7188 14.6461 22.9186 14.5169 23.1429 14.4984ZM18.6004 13.8233C18.8842 13.5719 19.4 13.3292 19.7828 13.4529C20.0028 13.524 20.0988 13.8787 19.8531 13.9912C19.5686 14.1213 19.2406 14.0684 18.9511 14.2033C18.8295 14.26 18.7151 14.3309 18.6305 14.4348C18.5638 14.5167 18.4959 14.6245 18.3995 14.6717C18.3741 14.6841 18.3398 14.6844 18.3195 14.6614C18.108 14.4221 18.4158 13.9868 18.6004 13.8233ZM22.655 13.4404C22.8304 13.3912 23.025 13.3922 23.2032 13.4231C23.3814 13.454 23.5623 13.5279 23.7077 13.6356L23.7246 13.6482C23.8834 13.7679 24.0729 13.9421 24.0627 14.1541C24.0542 14.3312 23.868 14.451 23.7073 14.3582C23.5762 14.2825 23.5146 14.1309 23.4036 14.0299C23.3121 13.9466 23.2045 13.8809 23.0898 13.8349C22.9623 13.7838 22.8347 13.7598 22.6979 13.7575C22.5926 13.7558 22.4866 13.7903 22.3833 13.8014C22.3918 13.8189 22.3101 13.8107 22.2633 13.7952C22.2286 13.7804 22.2284 13.7366 22.2404 13.7081C22.3 13.5671 22.517 13.4791 22.655 13.4404Z" fill="black"/>
<path fill-rule="evenodd" clip-rule="evenodd" d="M22.0005 17.1999C21.6524 17.043 21.0274 17.1799 20.8005 17.2343C20.2729 17.3609 19.7422 17.6344 19.5782 18.0629C19.3934 18.5458 19.7622 18.6978 19.8164 18.673C20.1816 18.6987 20.6165 18.469 20.9992 18.4098C21.3099 18.3612 21.6376 18.3189 21.9287 18.1537C22.1412 18.2707 22.6212 18.3339 23.0086 18.4361C23.3385 18.5232 23.4815 18.712 23.7873 18.6718C24.1539 18.6237 24.0038 17.8524 23.5953 17.54C23.1481 17.198 22.3919 17.0594 22.0005 17.1999ZM22.6897 20.4977C22.3852 20.572 22.3647 19.9043 22.3306 19.6684C22.304 19.4841 22.1536 19.0088 21.7726 19.0293C21.3915 19.0498 21.2482 19.448 21.2675 19.6957C21.2801 19.8563 21.428 20.6698 20.9558 20.7727C20.6547 20.7717 20.3065 20.7513 19.9899 20.6929C19.6173 20.6085 19.1328 20.313 19.0049 20.895C18.9588 21.1045 20.6 21.7269 21.3283 21.7832C22.0669 21.9329 22.9311 21.7027 23.457 21.1374C23.5766 21.0088 23.9135 20.4751 23.9376 20.3443C23.988 20.0695 23.8712 19.8927 23.5314 19.9896C23.2913 20.1178 22.8855 20.4499 22.6897 20.4977Z" fill="black"/>
<path fill-rule="evenodd" clip-rule="evenodd" d="M24.1623 16.5129C23.6925 16.7392 23.0372 16.4054 22.7213 16.0557C22.6064 15.9284 22.5177 15.5642 22.5619 15.3332C22.6817 14.7075 23.1318 14.3321 23.6069 14.2038C24.2656 14.0261 24.9284 14.4764 24.8511 15.0079C24.7779 15.5116 24.6669 16.2423 24.1623 16.5129ZM20.965 15.3111C20.9274 15.9929 20.3801 16.5897 19.7259 16.7665C18.672 17.0607 18.1511 16.3195 17.9152 15.521C17.8917 15.4417 17.8366 15.1995 17.9845 14.9918C18.5661 14.1748 19.9812 14.314 20.688 14.5383C20.8949 14.7363 20.9795 15.0219 20.965 15.3111ZM24.6726 14.1351C24.6723 14.1355 24.6719 14.1359 24.6716 14.1363C24.6692 14.1348 24.6668 14.1333 24.6644 14.1319C24.6671 14.133 24.67 14.134 24.6726 14.1351ZM25.5544 14.214C25.4932 13.5198 23.316 13.7856 23.0614 13.8425C22.3667 14.0469 21.7667 14.603 20.99 14.3585C20.1852 13.461 17.475 13.7184 16.9069 14.1756C16.7993 14.1334 16.6686 14.156 16.53 14.1959C15.8185 14.1701 12.5701 14.4155 13.2346 15.324C13.3354 15.394 13.4362 15.3228 13.4389 15.1786C16.9026 13.9279 16.5668 15.0994 16.9776 14.9626C17.0403 14.9807 17.1058 14.9921 17.163 15.0041C17.4809 15.1064 17.5889 15.0748 17.6308 15.4319C17.9185 18.1888 21.5885 17.2373 21.2874 14.9759C21.5855 14.9595 21.8462 14.8306 22.1613 14.9564C22.3801 17.0868 24.0938 17.1727 24.6095 16.4343C24.9984 15.9217 24.8442 15.1482 25.3787 14.745C25.5897 14.9216 25.6033 14.3254 25.5544 14.214Z" fill="black"/>
</svg>
