<svg width="36" height="48" viewBox="0 0 36 48" fill="none" xmlns="http://www.w3.org/2000/svg">
<path fill-rule="evenodd" clip-rule="evenodd" d="M29.3504 42.4124C29.9553 42.3832 29.712 41.3247 29.6686 40.936C29.1897 39.5162 29.3022 37.9672 29.1139 36.4791C28.9965 35.0898 28.8458 33.7049 28.7189 32.3168C28.4699 29.499 26.6812 23.7627 24.6401 22.8401C24.3829 21.7115 23.3209 20.6579 21.9773 20.6579C21.0609 19.5727 19.9578 18.8089 18.543 18.9632C17.9583 18.9898 17.3913 19.6101 16.8311 19.7299C16.5174 19.7732 13.7337 19.6618 13.1761 19.9931C12.7877 20.1926 12.437 20.5613 12.5512 21.0307C12.7334 21.5994 12.1671 20.984 10.9858 21.591C8.57697 23.0383 10.0164 24.9745 10.0802 25.0345C8.57697 27.1268 7.26308 28.8242 6.65516 31.3816C6.26117 33.2803 6.30552 35.2404 5.97541 37.1488C5.85886 37.8105 5.68005 38.4496 5.48656 39.0922C5.27685 39.9332 5.17489 42.0293 5.0593 42.048C4.84875 42.1003 5.18098 42.5328 5.40408 42.5331C11.5895 43.5595 17.8724 42.5757 24.091 42.4149C25.8435 42.3539 27.5979 42.3399 29.3504 42.4124Z" fill="#D08B5B"/>
<path fill-rule="evenodd" clip-rule="evenodd" d="M16.8389 21.5719C16.8389 22.2305 19.1246 24.6775 19.9135 24.5161C20.4394 24.4084 21.2339 23.7066 22.2972 22.4104V21.5719L22.0676 20.6591C23.3683 20.705 24.3887 21.7365 24.6401 22.8397C26.6608 23.7531 28.4341 29.3844 28.711 32.231L28.7189 32.3164C28.8458 33.7046 28.9965 35.0895 29.1139 36.4787C29.3022 37.9668 29.1897 39.5159 29.6686 40.9356L29.6714 40.9597C29.7214 41.3663 29.9432 42.3834 29.3504 42.4121C27.5979 42.3395 25.8435 42.3536 24.091 42.4145C17.8724 42.5753 11.5895 43.5592 5.40408 42.5328C5.18098 42.5324 4.84875 42.0999 5.0593 42.0476C5.17489 42.0289 5.27685 39.9328 5.48656 39.0918L5.52636 38.9589C5.70441 38.361 5.86689 37.7645 5.97541 37.1484C6.30552 35.24 6.26117 33.2799 6.65516 31.3813C7.26308 28.8239 8.57697 27.1264 10.0802 25.0341C10.0164 24.9741 8.57697 23.0379 10.9858 21.5906C12.1671 20.9837 12.7334 21.599 12.5512 21.0303C12.437 20.5609 12.7877 20.1922 13.1761 19.9927C13.7337 19.6614 16.5174 19.7728 16.8311 19.7295C16.9768 19.6984 17.123 19.6333 17.2698 19.5537L17.2444 19.6386C16.974 20.5449 16.8389 21.1893 16.8389 21.5719Z" fill="#9FD8E5"/>
<path fill-rule="evenodd" clip-rule="evenodd" d="M19.9751 25.2189C19.978 25.1906 20.0162 25.1906 20.0191 25.2189L20.0628 25.6406C20.1159 26.1557 20.1671 26.6698 20.2042 27.1873C20.2504 27.8326 20.2813 28.4777 20.2962 29.1244C20.3482 31.3768 20.3585 33.6305 20.3629 35.8835C20.6674 35.8624 20.972 35.842 21.2768 35.8224C21.4836 35.809 21.6903 35.7962 21.8971 35.7836L22.4244 35.7516L22.6415 35.7383C22.7882 35.7292 22.9549 35.6922 23.0575 35.8223C23.0985 35.8743 23.1191 35.9419 23.0808 36.0037C22.9925 36.1462 22.8569 36.1412 22.7035 36.1474C22.5588 36.1532 22.4141 36.159 22.2694 36.1645C21.9592 36.1766 21.6491 36.188 21.3389 36.1967C21.0133 36.2058 20.6879 36.2132 20.3624 36.2188C20.3591 37.1699 20.3198 38.1198 20.2773 39.0699L20.258 39.4975C20.206 40.6537 20.15 41.8109 20.0704 42.9655C20.0639 43.06 19.9302 43.0599 19.9237 42.9655C19.8342 41.6652 19.7751 40.3621 19.7165 39.06C19.674 38.1159 19.6493 37.1716 19.6375 36.2272C19.5945 36.2275 19.5514 36.2281 19.5084 36.2282C18.2869 36.2336 17.0658 36.2389 15.8442 36.2274C15.8463 36.2298 15.8483 36.2322 15.8496 36.2354C15.938 36.4442 15.9464 36.7106 15.9443 36.9346C15.9418 37.1915 15.9072 37.4454 15.8481 37.6952C15.6361 38.5904 15.0895 39.3921 14.4669 40.0549L14.4465 40.0765C14.2997 40.2317 14.1312 40.3877 14.041 40.5854C13.9489 40.7873 13.9169 41.0235 13.8715 41.2404L13.8662 41.2654L13.6885 42.0865C13.632 42.3473 13.616 42.7277 13.4096 42.9159C13.217 43.0915 12.962 42.9998 12.8714 42.7737C12.8006 42.5973 12.8711 42.4035 12.913 42.2272L13.2413 40.8463C13.2953 40.6212 13.3543 40.3945 13.4707 40.1922C13.59 39.985 13.7648 39.8348 13.9433 39.6812C14.2811 39.3902 14.5913 39.057 14.8536 38.6963C15.1159 38.3357 15.34 37.9383 15.4971 37.5203C15.5758 37.3111 15.6403 37.0937 15.6847 36.8746C15.727 36.6667 15.7267 36.4513 15.7719 36.2456C15.775 36.2314 15.787 36.2217 15.8007 36.2173C15.7975 36.2082 15.8024 36.1958 15.8153 36.1949L16.8142 36.1307C17.7023 36.0734 18.5902 36.0146 19.4774 35.9475L19.6342 35.9362C19.622 34.676 19.6324 33.4157 19.6551 32.1551C19.676 30.9991 19.6764 29.8428 19.7108 28.687C19.7278 28.1133 19.7647 27.541 19.8057 26.9686C19.8476 26.3831 19.9148 25.8026 19.9751 25.2189ZM10.5951 31.9215C10.5844 31.8574 10.6652 31.8176 10.7024 31.8763C11.1278 32.547 11.3329 33.2756 11.4193 34.0606C11.4957 34.7533 11.4732 35.4561 11.4351 36.1506C11.3946 36.8915 11.3473 37.6321 11.2994 38.3725L11.2259 39.508L11.0414 42.3544C11.0282 42.558 10.982 42.7432 10.8067 42.8378C10.7845 42.8564 10.7614 42.873 10.7344 42.8874C10.6398 42.938 10.5142 42.9124 10.4595 42.8153L10.4814 42.8297C10.5005 42.8417 10.4791 42.8249 10.417 42.7793L10.3643 42.7111C10.326 42.6536 10.3016 42.597 10.2918 42.5286C10.2765 42.4223 10.2963 42.3057 10.3032 42.1988L10.4242 40.3323C10.5182 38.8813 10.628 37.4306 10.7108 35.9788C10.7494 35.3022 10.7764 34.6249 10.7581 33.9471C10.7399 33.273 10.7056 32.5875 10.5951 31.9215ZM14.275 19.4267L14.2986 19.4227C15.1435 19.2823 16.0623 19.3086 16.8344 19.716C16.8408 19.7194 16.8379 19.73 16.8308 19.7297L16.5822 19.7197C15.7954 19.6889 15.011 19.6707 14.2374 19.8556L14.1582 19.8747C13.8795 19.9427 13.5886 20.0259 13.3648 20.21C13.1509 20.386 13.0444 20.6574 12.942 20.9073L12.9283 20.9403C12.8244 21.1871 12.6929 21.4211 12.4651 21.5755C12.1701 21.7753 11.8154 21.7508 11.4771 21.778C10.8816 21.8259 10.3946 22.2576 10.1524 22.786C10.0057 23.106 9.94312 23.4647 9.93073 23.8145C9.92437 23.9927 9.92346 24.1777 9.94719 24.3547C9.95476 24.4113 10.0247 24.6174 10.0603 24.6124C10.1396 24.6014 10.212 24.6428 10.2367 24.7061C10.4324 24.517 10.6337 24.3333 10.8415 24.1563C11.3594 23.715 11.9173 23.315 12.5049 22.9714C12.9533 22.7091 13.4263 22.4492 13.9161 22.2527C13.8773 22.2519 13.839 22.2596 13.802 22.2788C13.7857 22.2873 13.7696 22.267 13.7824 22.2535C13.9367 22.0911 14.1215 22.068 14.3078 22.1113C14.3475 22.0987 14.3873 22.0864 14.4273 22.0748C14.4471 22.069 14.457 22.0964 14.4408 22.107L14.395 22.1362C14.5983 22.2043 14.7978 22.3382 14.9558 22.4438C15.4095 22.7472 15.8089 23.1181 16.2138 23.482L16.2874 23.548C16.6438 23.8663 17.0093 24.1757 17.4142 24.4311C17.6262 24.5647 17.8488 24.6884 18.0823 24.7803C18.2826 24.8593 18.6087 24.909 18.7025 25.1207C18.7859 25.2221 18.751 25.3514 18.6534 25.4196C18.4887 25.6009 18.1592 25.4838 17.963 25.4082C17.7264 25.3172 17.4972 25.2077 17.2786 25.0794C16.8542 24.8302 16.4629 24.5203 16.0984 24.1906C15.7177 23.8463 15.3586 23.4806 14.9884 23.1255C14.8279 22.9716 14.6712 22.8142 14.5105 22.6605L14.4298 22.5841C14.3478 22.5071 14.231 22.3872 14.1061 22.3146C13.8708 22.4551 13.6318 22.5897 13.3986 22.7338C13.073 22.9348 12.7571 23.1504 12.446 23.3731C11.8471 23.8018 11.2796 24.2819 10.7528 24.7965C9.7865 25.7403 8.96328 26.818 8.24412 27.9592L8.18951 28.0462C7.78085 28.6993 7.39438 29.3736 7.12037 30.0953C6.81886 30.8895 6.67223 31.7247 6.59257 32.5677C6.51351 33.4048 6.48684 34.246 6.39849 35.0822C6.30788 35.9399 6.12935 36.7786 5.92628 37.6157L5.87785 37.8142C5.69411 38.5639 5.50446 39.3136 5.41001 40.081C5.35958 40.491 5.32925 40.9065 5.33611 41.3197C5.34299 41.7354 5.40828 42.1418 5.46096 42.5531C5.48115 42.7107 5.32616 42.8422 5.18747 42.8631C5.02797 42.887 4.89094 42.7852 4.84137 42.637C4.68681 42.1749 4.65874 41.6642 4.66359 41.1792C4.66847 40.6868 4.73129 40.1977 4.81968 39.7138C4.99351 38.762 5.26177 37.8299 5.48619 36.8895C5.68396 36.0606 5.8167 35.2303 5.88825 34.3812C5.96253 33.5002 6.007 32.6163 6.14249 31.7417C6.27623 30.8783 6.52788 30.0535 6.90738 29.2662C7.25292 28.5494 7.68365 27.8746 8.13523 27.2206C8.68362 26.4265 9.28591 25.6708 9.95914 24.9823C9.89867 24.9796 9.83658 24.9601 9.77955 24.9245C9.60509 24.8157 9.52384 24.6027 9.49886 24.4083C9.4404 23.9534 9.45451 23.4786 9.57144 23.0338C9.76008 22.3164 10.2497 21.679 10.9592 21.4204C11.1418 21.3538 11.336 21.3295 11.5295 21.3248C11.7132 21.3202 11.9138 21.3441 12.091 21.2859C12.3731 21.1931 12.494 20.8608 12.5999 20.6089L12.6048 20.5973C12.7406 20.2763 12.9036 20.0011 13.1977 19.8007C13.5116 19.5867 13.9048 19.4895 14.275 19.4267ZM22.3031 20.6963C22.557 20.6082 22.8744 20.6881 23.1227 20.7651C23.3993 20.8509 23.655 21.0089 23.8741 21.1965C24.1053 21.3944 24.2964 21.6388 24.4314 21.9117L24.4443 21.938C24.5676 22.1912 24.708 22.5389 24.6459 22.817C24.6441 22.8249 24.642 22.8325 24.6397 22.8399C25.1435 23.088 25.6087 23.3987 26.0138 23.7925C26.4856 24.2511 26.885 24.7729 27.223 25.3366C28.5656 27.5756 28.8019 30.2646 28.9604 32.818L29 33.4654C29.0861 34.8634 29.1868 36.2581 29.4485 37.6368L29.4676 37.7364C29.7474 39.1799 30.1479 40.6344 30.1073 42.1152C30.0952 42.5589 29.4397 42.5559 29.4207 42.1152C29.3491 40.4566 28.9622 38.8552 28.7002 37.2224C28.2392 34.3499 28.4702 31.3885 27.817 28.5448C27.5607 27.4288 27.1636 26.3463 26.5965 25.3501C26.3164 24.858 25.996 24.3825 25.6206 23.9579C25.2976 23.5926 24.9619 23.241 24.5845 22.9339C24.4639 23.0548 24.2229 22.9932 24.1599 22.817C24.1167 22.6959 24.1293 22.5544 24.1015 22.4275C24.0757 22.3098 24.0402 22.1932 23.9929 22.0823C23.8986 21.8614 23.7601 21.6493 23.6003 21.4705C23.4276 21.2772 23.2291 21.1167 23.007 20.9841C22.7834 20.8506 22.5389 20.8108 22.3031 20.7132C22.2952 20.7099 22.2944 20.6993 22.3031 20.6963ZM23.2895 36.048C23.2899 36.0363 23.3036 36.0308 23.3121 36.0386C23.4011 36.1205 23.4549 36.2381 23.5204 36.3389C23.596 36.4552 23.6753 36.569 23.7585 36.6799C23.9252 36.9021 24.1108 37.1115 24.2978 37.3167C24.4718 37.5075 24.6572 37.6903 24.8495 37.8625C25.0579 38.0492 25.2914 38.2158 25.4808 38.4225C25.8758 38.8538 25.9397 39.4459 26.023 40.0017L26.0321 40.0619C26.083 40.3918 26.1285 40.7225 26.1696 41.0538C26.1895 41.2149 26.2094 41.3762 26.2257 41.5377L26.2307 41.5889C26.2452 41.747 26.2491 41.9075 26.1583 42.0456C26.0611 42.1935 25.8402 42.2453 25.7088 42.1035C25.4831 41.86 25.5255 41.4275 25.4961 41.1142C25.4719 40.8552 25.4443 40.5965 25.4135 40.3381L25.3979 40.209C25.3615 39.9151 25.3321 39.6154 25.2649 39.3266C25.2056 39.0723 25.0927 38.8803 24.9075 38.6961C24.7209 38.5105 24.527 38.3373 24.3548 38.1374C24.1721 37.9254 24.0073 37.6981 23.8588 37.4609C23.7318 37.258 23.63 37.0372 23.5367 36.8167L23.5213 36.7799C23.4311 36.5649 23.2825 36.2849 23.2895 36.048ZM26.5481 26.8098C26.5501 26.7798 26.5944 26.7793 26.5951 26.8098C26.6007 27.0678 26.6061 27.3258 26.6114 27.5838C26.6545 29.6629 26.6279 31.747 26.8365 33.819C26.9348 34.7959 27.1159 35.7585 27.3254 36.717C27.4327 37.2075 27.5452 37.6969 27.652 38.1874C27.7562 38.6655 27.8679 39.1459 27.9505 39.6284C28.0317 40.1027 28.1045 40.5806 28.1371 41.0609L28.1411 41.1236C28.1552 41.3563 28.2222 41.6985 28.0942 41.9048C27.9554 42.1282 27.6897 42.1322 27.541 41.9189C27.4014 41.7187 27.4361 41.3625 27.4114 41.1236C27.3863 40.8802 27.3598 40.6367 27.3297 40.3938C27.271 39.9202 27.1936 39.4476 27.1131 38.9772C26.9454 37.9975 26.7022 37.0302 26.5227 36.0521C26.3387 35.0499 26.208 34.0405 26.2025 33.02C26.197 31.9909 26.3059 30.9638 26.3608 29.937C26.4167 28.8941 26.4802 27.8519 26.5481 26.8098ZM16.7303 20.343C16.7861 20.155 16.983 20.0375 17.1751 20.0903C17.3512 20.1387 17.4965 20.3525 17.4277 20.5353C17.3526 20.7349 17.2213 20.9051 17.1107 21.0865C17.0084 21.2541 16.8593 21.3861 16.7552 21.5507L16.8699 21.6745C16.9274 21.7362 16.9849 21.7976 17.0431 21.8579L17.2433 22.0653C17.3992 22.2264 17.556 22.3868 17.7173 22.5424C18.1915 23 18.6733 23.4426 19.2044 23.8344C19.3253 23.9236 19.4472 24.0123 19.5724 24.0953L19.6191 24.1263C19.7051 24.1826 19.8009 24.2379 19.9047 24.2284C20.157 24.2052 20.3849 23.9372 20.5583 23.7704L20.5673 23.7617C20.9969 23.3528 21.3947 22.9058 21.7425 22.4251C21.8197 22.3183 21.8944 22.2096 21.9672 22.0997C21.7991 21.9033 21.8393 21.5197 21.83 21.2815C21.8235 21.1139 21.823 20.9463 21.822 20.7787L21.8216 20.7449C21.8195 20.6363 21.8147 20.5322 21.8851 20.4429C21.8892 20.4378 21.8976 20.4379 21.9029 20.4407C21.9993 20.4912 22.029 20.5758 22.0701 20.6708L22.0744 20.6806C22.1245 20.7946 22.1725 20.9096 22.221 21.0242C22.2718 21.1442 22.3184 21.2659 22.3656 21.3873C22.3875 21.4438 22.4085 21.5005 22.429 21.5575C22.4415 21.5939 22.4544 21.6302 22.4677 21.6663L22.4708 21.6691C22.4883 21.684 22.5032 21.6997 22.516 21.7159C22.5698 21.7429 22.6126 21.7919 22.6326 21.864C22.6763 22.0209 22.5859 22.1488 22.5053 22.2734C22.1779 22.7794 21.8047 23.2615 21.3899 23.6989C21.1838 23.9162 20.9671 24.1237 20.7414 24.3206L20.702 24.3548C20.4993 24.529 20.2792 24.6941 20.0084 24.7349C19.6916 24.7826 19.4338 24.625 19.1912 24.4434L19.167 24.4252C18.9371 24.251 18.7118 24.0708 18.4935 23.8823C18.0485 23.4979 17.6251 23.0852 17.2494 22.6324C16.8839 22.192 16.5226 21.6995 16.2973 21.1696C16.2836 21.1373 16.3197 21.1035 16.348 21.1305C16.458 21.2353 16.5639 21.3458 16.6685 21.4577C16.6714 21.2929 16.641 21.1268 16.6579 20.961C16.6786 20.7596 16.6726 20.537 16.7303 20.343Z" fill="black"/>
<path fill-rule="evenodd" clip-rule="evenodd" d="M23.9536 12.1836C23.9876 11.8666 23.6175 11.0208 23.6264 11.1924C23.0329 10.275 21.8747 9.91425 20.8754 9.61141C18.754 8.90935 17.0975 9.75722 15.607 11.2599C14.7271 12.084 13.8898 13.0044 13.448 14.1451C12.579 16.3212 13.8816 18.8025 15.8625 19.842C16.0223 19.9287 16.1965 20.0111 16.3488 20.1158C17.1676 20.5901 18.1292 20.7542 19.0417 20.9606C20.7487 21.3518 22.8926 21.1654 23.8986 19.536C24.581 18.3797 24.3997 16.978 24.3463 15.6947C24.2661 14.5703 24.1252 13.2997 23.9536 12.1836Z" fill="#D08B5B"/>
<path fill-rule="evenodd" clip-rule="evenodd" d="M14.8294 8.97544C15.9353 7.93898 17.57 7.43662 19.0645 7.52448C19.874 7.57207 20.6541 7.77541 21.3857 8.12475C21.6144 8.23399 21.8374 8.36187 22.043 8.51244C22.1816 8.57732 22.3172 8.64752 22.4486 8.72385C23.1063 9.10585 23.6148 9.68445 23.9402 10.3708C24.0956 10.6984 24.2182 11.0438 24.2876 11.3997L24.2988 11.4583C24.3342 11.6369 24.4043 11.8723 24.3157 12.0394C24.2569 12.1502 24.1339 12.2201 24.0174 12.2107C24.0427 12.3134 24.073 12.416 24.0923 12.5194L24.1451 12.8012C24.1538 12.8482 24.1625 12.8951 24.171 12.9421C24.222 13.222 24.2688 13.5016 24.3063 13.7837C24.3847 14.3711 24.4556 14.9598 24.518 15.5494C24.5628 15.971 24.6048 16.3931 24.6455 16.8151L24.6698 17.0683C24.7117 17.5041 24.7445 17.9437 24.716 18.3815C24.6732 19.0381 24.4718 19.6372 24.0808 20.1245C24.118 20.2144 24.1306 20.3155 24.1586 20.4272C24.1974 20.5817 24.248 20.7331 24.3018 20.8831C24.327 20.942 24.3522 21.001 24.3772 21.0601L24.4428 21.2167L24.494 21.3194C24.5495 21.4311 24.6031 21.5444 24.6372 21.66C24.8582 21.7783 25.0386 21.9712 25.0474 22.2356C25.0553 22.4745 24.9316 22.7275 24.7226 22.8492C24.5165 22.9696 24.3042 22.9222 24.1068 22.8303C23.9346 22.8805 23.7504 22.8869 23.5799 22.8333C23.4486 22.9524 23.2793 23.0346 23.0916 23.0568C22.8087 23.0905 22.5401 23.0111 22.2805 22.9067L22.2624 22.8994C22.2543 22.8962 22.2462 22.8927 22.2384 22.8893C21.9398 22.8749 21.6424 22.7565 21.4306 22.5468C21.3617 22.4788 21.302 22.4012 21.2539 22.3141C21.0793 21.9976 21.0521 21.609 21.2239 21.295C21.1871 21.2965 21.1499 21.2981 21.113 21.299C20.6216 21.3131 20.1293 21.2879 19.6391 21.2556L19.5235 21.2477C19.2064 21.2248 18.7386 21.1709 18.7297 20.7768C18.7284 20.7264 18.7803 20.6885 18.8277 20.7019C19.0079 20.7529 19.185 20.8331 19.3718 20.8619C19.616 20.8998 19.869 20.9039 20.1158 20.9177L20.1867 20.9216C20.6843 20.9489 21.1998 20.9656 21.6893 20.8666C22.0547 20.7931 22.4354 20.659 22.7703 20.4931C23.0916 20.3334 23.3837 20.1246 23.6192 19.8518C24.1379 19.2519 24.2067 18.4056 24.1814 17.6466C24.1507 16.7401 24.0445 15.8349 23.9846 14.9297L23.9575 14.5231C23.9351 14.1839 23.9147 13.8443 23.9062 13.5051C23.8999 13.2574 23.904 13.0091 23.9052 12.7614C23.9058 12.6377 23.9043 12.5134 23.9071 12.3898C23.9087 12.3203 23.9168 12.2523 23.9227 12.1843C23.8953 12.17 23.8696 12.1499 23.8465 12.1233C23.8284 12.1023 23.8144 12.0801 23.8047 12.0576C23.6882 12.0234 23.6342 11.978 23.5586 11.875C23.4949 11.7883 23.4227 11.7081 23.3456 11.633C23.1813 11.4733 22.9936 11.3427 22.7952 11.229C22.3852 10.9939 21.936 10.8367 21.4831 10.7077C20.7897 10.5105 20.0695 10.409 19.3659 10.2506C19.1719 10.5217 18.9664 10.7848 18.7515 11.0393C18.0809 11.8334 17.312 12.5413 16.488 13.1725C16.3204 13.3012 16.1504 13.428 15.978 13.5511C15.7509 13.8982 15.5214 14.2437 15.2885 14.5868L15.1885 14.7337L15.1869 14.7365C15.1732 14.7575 15.16 14.7785 15.1469 14.7995C15.1191 14.8439 15.0879 14.8868 15.0548 14.9285C15.0332 14.9601 15.0114 14.9917 14.9892 15.0233C15.0317 15.0462 15.0704 15.0719 15.1007 15.1004C15.1625 15.1589 15.1522 15.2519 15.1007 15.3114C14.9346 15.5037 14.6716 15.2532 14.4804 15.1865C14.2734 15.2497 14.1006 15.4968 14.0147 15.6855C13.8911 15.9577 13.8414 16.2858 13.8973 16.5804C13.9485 16.8497 14.0866 17.0824 14.3161 17.2283C14.3243 17.2333 14.333 17.2386 14.3414 17.2433C14.3418 17.2439 14.3418 17.2439 14.3421 17.2436C14.3499 17.2486 14.358 17.2533 14.3661 17.2577C14.4739 17.3172 14.5922 17.3523 14.715 17.3607C14.7852 17.3657 14.8587 17.3619 14.9289 17.3704C15.0011 17.3789 15.0604 17.4121 15.1298 17.4296C15.2063 17.4493 15.2556 17.5523 15.2075 17.6215C15.1838 17.6556 15.1613 17.6882 15.1372 17.7174C15.2163 17.8107 15.285 17.9137 15.3471 18.0117C15.4321 18.146 15.5074 18.2885 15.5761 18.4338C15.6395 18.5174 15.7001 18.6025 15.7588 18.6896C16.0914 19.1837 16.346 19.7341 16.5024 20.3093C16.6574 20.8782 16.7542 21.5172 16.6108 22.0981C16.4787 22.6323 16.093 23.0747 15.522 23.1032C15.4029 23.1091 15.2857 23.0957 15.1755 23.0654C14.9335 23.2153 14.6335 23.2907 14.365 23.2995C14.1479 23.3066 13.9101 23.2608 13.7327 23.1291C13.5223 23.2209 13.2941 23.273 13.0956 23.2849C12.8735 23.2982 12.6411 23.2375 12.46 23.1173C12.2877 23.2653 12.1018 23.3901 11.8906 23.4758C11.5274 23.6229 11.0951 23.6048 10.7625 23.3847C10.4292 23.1642 10.2596 22.7685 10.3614 22.3758C10.4551 22.0139 10.7497 21.7484 11.0264 21.5198L11.0811 21.4748C11.3548 21.2509 11.6312 21.0341 11.8069 20.7185C11.9934 20.3838 12.0614 19.9949 12.0799 19.6161C12.1198 18.7819 11.9506 17.9553 11.899 17.1256C11.8459 16.2686 11.8756 15.4091 11.9921 14.5583C12.2185 12.9058 12.8145 11.2857 13.8926 9.99756C14.0486 9.81117 14.2156 9.63351 14.3915 9.46511C14.526 9.28877 14.6714 9.12348 14.8294 8.97544ZM29.1708 18.4112C29.1767 18.4115 29.1823 18.4118 29.1877 18.414C29.1912 18.4155 29.1942 18.4179 29.197 18.4206L29.2233 18.4469C29.2326 18.4563 29.232 18.4707 29.2233 18.4801C29.2156 18.4886 29.2017 18.4889 29.1927 18.4823L29.1902 18.4801L29.1629 18.4528C29.16 18.4496 29.1574 18.4461 29.1561 18.4416C29.1549 18.4372 29.1549 18.4322 29.1545 18.4275C29.1542 18.419 29.1624 18.4112 29.1708 18.4112ZM14.517 15.8531C14.7674 15.777 15.0679 15.958 15.2172 16.149C15.2922 16.2448 15.3134 16.376 15.2172 16.4702C15.1354 16.5504 14.9755 16.5651 14.8964 16.4702C14.8068 16.3622 14.7337 16.2125 14.6057 16.1433C14.4667 16.0682 14.2805 16.087 14.2477 16.2701C14.2421 16.3012 14.1978 16.2908 14.1959 16.263C14.1837 16.0776 14.3458 15.9047 14.517 15.8531Z" fill="black"/>
<path fill-rule="evenodd" clip-rule="evenodd" d="M21.2085 19.0034C20.9981 18.9175 20.8103 18.7743 20.6731 18.5913C20.6254 18.5277 20.613 18.4606 20.623 18.3991C20.6343 18.33 20.6751 18.2674 20.7308 18.2254C20.7867 18.1833 20.8566 18.1625 20.9242 18.1731C20.9829 18.1823 21.0414 18.2145 21.0876 18.2812L21.0973 18.2946C21.1789 18.405 21.2852 18.4956 21.4064 18.554C21.5232 18.6103 21.6538 18.6366 21.7889 18.6213C22.0463 18.5922 22.2237 18.4529 22.4123 18.2638C22.4357 18.24 22.459 18.2153 22.4825 18.1903C22.4974 18.1676 22.518 18.153 22.5408 18.1454C22.5662 18.1369 22.595 18.1374 22.6213 18.1466C22.6466 18.1554 22.6693 18.1722 22.6845 18.1946C22.699 18.2158 22.7072 18.242 22.7045 18.2722C22.6873 18.4682 22.5849 18.6431 22.4394 18.7804C22.2778 18.933 22.0636 19.0385 21.862 19.0755C21.6398 19.1163 21.4134 19.087 21.2085 19.0034ZM21.9668 15.98C22.2031 16.1237 22.5632 16.4588 22.309 16.8151C22.0097 17.1293 21.5788 16.7691 21.3664 16.6062C21.1695 16.4799 20.9483 16.8047 21.131 16.9521C22.6654 18.0885 23.2881 16.0176 22.0863 15.811C21.954 15.7883 21.9048 15.9355 21.9668 15.98ZM19.2171 14.658C19.2432 14.3338 19.7369 14.2601 19.786 14.581C19.83 14.8684 19.7782 15.1325 19.6488 15.3913C19.5251 15.6385 19.2143 15.5232 19.1908 15.298C19.1593 14.9963 19.2009 14.8597 19.2171 14.658ZM22.975 14.5145C23.0438 14.4243 23.1432 14.3627 23.2622 14.3975C23.6342 14.5063 23.5246 15.0346 23.3939 15.2917C23.323 15.4314 23.0935 15.4668 22.9898 15.3438C22.8208 15.1433 22.7399 14.7429 22.9547 14.5454C22.9605 14.5352 22.967 14.5249 22.975 14.5145ZM19.6435 13.2391L19.7023 13.2288C19.8841 13.1974 20.1101 13.1672 20.2387 13.3134C20.3069 13.3909 20.3304 13.535 20.2387 13.6092C20.0774 13.7398 19.8992 13.6892 19.7059 13.7002C19.5467 13.7094 19.3936 13.7357 19.2402 13.7796C18.9037 13.8758 18.6295 14.0515 18.3421 14.2443C18.3044 14.2696 18.2659 14.2214 18.2839 14.1861C18.4498 13.861 18.7713 13.5939 19.0934 13.4312C19.2653 13.3443 19.4534 13.2722 19.6435 13.2391ZM22.6359 13.0935L22.6809 13.1027C23.1703 13.2051 23.8062 13.4095 24.0379 13.8904C24.0468 13.9584 24.0374 13.973 24.0298 13.9825L24.0273 13.9857C24.0211 13.9938 24.0161 14.005 23.9866 14.0143C23.9784 14.0123 23.9702 14.0103 23.9618 14.0081C23.8556 13.9802 23.7715 13.9419 23.6902 13.902L23.6019 13.8586C23.4996 13.8083 23.3963 13.76 23.2869 13.7242C23.0533 13.648 22.8131 13.5943 22.5691 13.5657C22.5162 13.5595 22.4653 13.5416 22.4252 13.511C22.387 13.482 22.3579 13.4418 22.3446 13.3883C22.3274 13.3192 22.3324 13.2668 22.3695 13.2044C22.3973 13.1575 22.4373 13.1251 22.4831 13.1064C22.5298 13.0874 22.583 13.0829 22.6359 13.0935Z" fill="black"/>
<path fill-rule="evenodd" clip-rule="evenodd" d="M22.0517 20.5413C22.0517 20.5413 20.6624 20.7455 20.0405 20.4569C19.4204 20.1691 18.8173 19.8907 18.2549 19.5096C17.6787 19.1191 17.1898 18.6554 16.8408 18.0618C16.5162 17.5095 16.2464 16.9235 15.9747 16.342C15.9589 16.308 15.8029 15.9702 15.7478 15.8569C15.663 15.6812 15.4151 15.7364 15.4151 16.009C15.4151 16.2817 15.4029 18.3467 15.8793 19.159C16.309 19.8927 17.0373 20.4053 17.761 20.8528C18.5616 21.3475 19.6251 21.8823 20.5804 22.0236C21.4449 22.1514 22.4314 21.7925 23.0574 21.2011C23.7118 20.5825 23.8971 19.7422 24.2348 18.9374C24.3103 18.7575 24.0429 18.649 23.9644 18.8259C23.8167 19.159 22.0517 20.5413 22.0517 20.5413Z" fill="black"/>
</svg>
