<svg width="36" height="48" viewBox="0 0 36 48" fill="none" xmlns="http://www.w3.org/2000/svg">
<path fill-rule="evenodd" clip-rule="evenodd" d="M30.3667 20.9824C30.0438 20.0926 30.2864 18.9661 29.6208 18.2298C29.4239 18.1101 29.3195 18.1767 29.2385 18.3854C29.1896 18.6601 29.0749 19.6058 29.4872 19.6054C29.539 20.196 29.5066 20.7909 29.3796 21.3705C29.0754 21.3217 28.8537 21.4781 28.6317 21.5944C28.4663 21.6812 28.3007 21.7456 28.1009 21.6861C27.2759 21.5406 27.0407 22.4073 27.0307 23.1147C27.0186 23.4599 26.9862 24.2645 26.8342 24.5995C26.1463 23.1743 24.7016 22.5254 23.3251 22.2051C23.1093 22.1453 22.9252 22.0637 22.7867 21.9243C21.6269 21.4662 22.1841 19.9652 21.6505 19.1026C20.8154 18.0771 19.8124 17.782 18.5488 17.9578C17.4432 18.0801 16.6917 19.2036 16.7598 20.264C16.7803 20.4804 16.6504 20.708 16.5741 20.9307C15.8109 21.8442 14.6235 22.2529 13.6022 22.8049C10.1957 24.4705 9.01517 25.7433 7.69138 29.2874C7.0721 30.6209 6.33098 31.915 6.08484 33.3836C5.79561 35.1142 5.7947 36.8857 5.89539 38.6333C5.70741 38.6559 5.91198 39.9993 6.07686 40.4647C6.13335 40.6242 6.26872 40.7392 6.43739 40.7365C6.77667 40.9015 7.57326 41.5663 7.92813 41.5442C9.0747 41.4736 10.1892 41.5828 11.2939 41.5263C12.489 41.4652 13.6725 41.2422 14.8727 41.2711C16.9657 41.3216 15.4672 41.4459 17.6327 41.5442C18.9996 41.6073 23.9867 40.8604 25.3498 40.9824C26.4586 41.2157 26.9644 40.8223 26.7953 39.6636C26.7327 39.2194 26.533 38.2316 27.1899 38.1897C27.5007 38.2257 27.7579 38.5364 27.9907 38.7179C30.047 40.2494 32.1477 39.1466 32.3132 36.6289C32.6249 34.5172 33.0618 34.0183 32.1119 31.9096C29.1067 24.0594 33.6345 25.126 30.5774 21.449C30.3387 21.657 30.3994 21.102 30.3667 20.9824Z" fill="#D08B5B"/>
<path fill-rule="evenodd" clip-rule="evenodd" d="M15.9373 22.6572C17.896 23.6566 19.4449 24.1563 20.5841 24.1563C21.7234 24.1563 23.7299 24.389 26.6037 24.8544L28.0228 27.9742L31.1541 28.5862L31.168 28.6677C31.3205 29.5432 31.612 30.6027 32.1122 31.9092C33.0621 34.018 32.6251 34.5168 32.3135 36.6285C32.1479 39.1463 30.0472 40.249 27.991 38.7175C27.7581 38.536 27.5009 38.2254 27.1902 38.1893C26.5464 38.2304 26.7253 39.1799 26.7916 39.6359L26.7955 39.6632C26.9646 40.8219 26.4588 41.2153 25.3501 40.982C23.987 40.86 18.9999 41.6069 17.6329 41.5438C15.4675 41.4455 16.966 41.3212 14.873 41.2707C13.6728 41.2418 12.4892 41.4648 11.2941 41.526C10.2475 41.5795 9.19216 41.4842 8.10904 41.5341L6.43763 40.7361C5.81947 36.3082 5.91339 33.4049 6.71938 32.0262C7.52133 30.6544 8.59518 28.3992 9.94093 25.2608C9.96154 25.2387 9.98236 25.2169 10.0033 25.1952L15.9373 22.6572Z" fill="#78E185"/>
<path fill-rule="evenodd" clip-rule="evenodd" d="M29.2255 18.1707C29.3895 18.0095 29.6502 18.0496 29.8101 18.1929C29.9729 18.3385 30.0708 18.5674 30.1544 18.7647C30.5294 19.6518 30.442 20.623 30.6317 21.5511C30.9788 21.7386 31.2922 21.9835 31.514 22.3129C31.8511 22.8132 32.0111 23.3959 31.842 23.9889C31.7547 24.2958 31.6064 24.5801 31.5006 24.8804C31.3876 25.2001 31.3184 25.5323 31.2852 25.8698C31.2527 26.2011 31.2483 26.5342 31.2577 26.8668C31.2627 27.039 31.2718 27.2109 31.2809 27.3828C31.289 27.5368 31.3163 27.6976 31.2794 27.8486L31.2749 27.8659C31.2893 27.8637 31.3034 27.8609 31.3175 27.8578C31.4383 27.8308 31.5447 27.7889 31.6708 27.8055C31.7691 27.8183 31.8201 27.9003 31.7785 27.993C31.7604 28.0334 31.7362 28.0672 31.7071 28.096C31.9607 29.9716 32.4035 31.817 32.6949 33.6866C32.827 34.5349 32.9075 35.3856 32.8621 36.2444L32.8573 36.3296C32.811 37.1181 32.6974 37.9871 32.2968 38.6767C32.1096 38.9995 31.8524 39.286 31.5406 39.4924C31.3979 39.5869 31.2449 39.6608 31.0787 39.6978C30.2173 40.0409 29.3065 39.9567 28.4943 39.503C28.1291 39.2992 27.7647 39.0615 27.4665 38.7666C27.3215 38.6232 27.1817 38.4406 27.0959 38.2412C27.0962 38.2859 27.0881 38.3317 27.0971 38.3758L27.1152 38.4631C27.2505 39.1112 27.766 41.5065 27.7729 41.7076C27.7766 41.8161 26.8637 41.8135 26.7647 41.8168L26.7619 41.8169C25.2835 41.8786 23.8041 41.8456 22.3265 41.7845L22.2098 41.7796C20.7768 41.719 19.2174 41.6374 17.7828 41.5956L17.7858 41.5716C17.803 41.4426 17.8865 40.8694 17.8959 40.8255L17.8962 40.824C17.9369 40.6601 18.0153 40.1502 17.974 39.9811C17.8677 39.5454 17.3885 39.6449 17.0513 39.6911L16.9803 39.7004C16.9257 39.708 16.7929 39.7275 16.7942 39.7288C16.7584 39.6914 16.8436 39.5855 16.8646 39.5572L16.8814 39.5338C16.972 39.407 17.0539 39.2753 17.045 39.1119C17.0232 38.7127 16.453 38.7352 16.1728 38.7629C16.1531 38.7648 16.145 38.7957 16.1677 38.8003L16.223 38.8119C16.4008 38.85 16.7956 38.9473 16.7867 39.0945C16.7816 39.1781 16.6926 39.2397 16.6383 39.2923C16.5783 39.3504 16.5188 39.4129 16.4745 39.4842C16.3894 39.6215 16.3701 39.8066 16.4543 39.9495C16.5514 40.1143 16.7238 40.1335 16.8964 40.1185L16.9061 40.1176C16.9441 40.1141 16.9821 40.1104 17.0201 40.1067L17.248 40.0844C17.3044 40.0789 17.4857 40.0314 17.5387 40.0642C17.6137 40.1106 17.5235 40.3166 17.5065 40.3844L17.5056 40.3892C17.4911 40.4874 17.4824 41.5164 17.4809 41.5844C16.3629 41.5584 15.2448 41.3098 14.1269 41.3682C13.2387 41.4146 12.353 41.4948 11.4665 41.5645L11.4441 41.3741C11.1985 39.3012 10.8132 36.5659 10.9981 34.5155C11.0126 34.355 10.7621 34.356 10.7477 34.5155C10.5565 36.6357 10.975 39.4838 11.2184 41.5836C10.841 41.6123 10.4635 41.6383 10.0855 41.6582L9.98917 41.6631C8.70301 41.7274 7.37552 41.7312 6.11685 41.4361C6.07804 41.4271 6.06489 41.3882 6.07303 41.356C6.06051 41.3632 6.04173 41.3591 6.03641 41.3416C5.88978 40.8581 5.81531 39.627 5.74886 39.0942L5.74439 39.0594C5.67616 38.5417 5.63704 38.0183 5.60887 37.4975C5.5519 36.4558 5.55879 35.4128 5.63578 34.3724C5.88085 31.0537 6.85675 27.7009 8.90495 25.0338C9.4001 24.3891 9.9638 23.7992 10.6402 23.343C11.3037 22.8953 12.048 22.5799 12.8032 22.3239C13.3024 22.1544 13.8095 22.0095 14.3165 21.8648C14.3357 21.8552 14.3549 21.8457 14.3742 21.8364L14.4032 21.8226C14.5835 21.737 14.761 21.6434 14.9456 21.5673L14.9865 21.5507C15.254 21.4434 15.5658 21.3483 15.8555 21.3516C16.3247 21.1152 16.7187 20.758 16.6805 20.185C16.6649 19.9495 17.0342 19.9498 17.0474 20.185C17.0818 20.8106 16.6965 21.2542 16.2054 21.552L16.2078 21.5544L16.2101 21.557C16.2868 21.6441 16.3688 21.7248 16.4574 21.8C16.9876 22.2515 17.6583 22.6263 18.3287 22.873C19.1153 23.1626 19.9012 23.2494 20.7147 23.0152C21.14 22.8927 21.5416 22.7039 21.9106 22.4597C22.0233 22.3852 22.1312 22.3054 22.2348 22.2199C22.1369 22.0859 22.0586 21.9415 21.9929 21.7884C21.8609 21.4803 21.7516 21.0629 21.8865 20.7376C21.9197 20.6574 22.0514 20.608 22.0974 20.71C22.2242 20.9893 22.2771 21.2912 22.4248 21.5642C22.4812 21.6682 22.546 21.7668 22.6186 21.8598C22.6186 21.8648 23.1732 21.9597 23.1732 21.9597C23.8436 21.9594 24.4749 22.217 25.068 22.5389C25.4186 22.7293 25.7632 22.9316 26.1067 23.1343L26.7782 23.5306C26.8276 23.5597 26.883 23.5879 26.9384 23.6179C26.8737 23.2979 26.842 22.9716 26.8633 22.6482C26.8956 22.1604 27.0852 21.6269 27.5876 21.4531C27.8251 21.3707 28.0999 21.3961 28.3306 21.4875C28.437 21.5298 28.5528 21.5858 28.6517 21.6607C28.6997 21.4452 28.9015 21.2837 29.1043 21.2123C29.1701 21.1891 29.2373 21.1744 29.3056 21.1672C29.3036 21.1326 29.3034 21.0977 29.3039 21.0616L29.3043 21.0344C29.3075 20.8747 29.3062 20.7151 29.3028 20.5557C29.2965 20.2535 29.2821 19.9576 29.2514 19.6564C29.2258 19.4071 29.1813 19.1606 29.1483 18.9122L29.1346 18.8055C29.1067 18.5952 29.06 18.3333 29.2255 18.1707ZM9.05816 38.5602L9.0022 38.5269C8.81892 38.4187 8.63012 38.3189 8.40808 38.369C8.19657 38.4167 8.04652 38.5885 7.96768 38.7821C7.93043 38.8736 7.911 38.9658 7.89663 39.0633C7.88855 39.1178 7.88311 39.1728 7.87353 39.2271L7.87033 39.244C7.86599 39.2656 7.85935 39.2957 7.85331 39.3219C7.7956 39.2964 7.73747 39.2561 7.69024 39.2322L7.65215 39.2131C7.56276 39.1685 7.46975 39.1262 7.37234 39.1056C7.16132 39.0609 6.92724 39.1255 6.80661 39.3146C6.70344 39.4763 6.70555 39.6669 6.74502 39.8482L6.74783 39.8608C6.76495 39.936 6.85344 40.2372 6.98214 40.1933C7.1073 40.1505 7.12402 39.9841 7.1335 39.8732L7.1342 39.8626C7.13847 39.7789 7.1219 39.6032 7.21657 39.5715C7.33484 39.5318 7.56242 39.713 7.66542 39.7603C7.84962 39.8449 8.05197 39.8699 8.20186 39.7053C8.33625 39.5577 8.34758 39.3416 8.38237 39.1544L8.39135 39.1073C8.4098 39.0122 8.4455 38.8602 8.55071 38.8641C8.63669 38.8673 8.73109 38.9564 8.80195 38.9987C8.88017 39.0454 8.96139 39.0843 9.04627 39.1175C9.24436 39.195 9.46461 39.2197 9.67535 39.1968C9.79744 39.1836 9.87694 39.1253 9.9201 39.0104C9.93472 38.9767 9.94586 38.9419 9.95356 38.906C10.022 38.6488 9.64815 38.4652 9.51031 38.6953C9.35128 38.6893 9.20323 38.6464 9.05816 38.5602ZM32.0658 36.8405C31.9518 36.7591 31.797 36.7766 31.6951 36.8683L31.6891 36.874C31.6608 36.9013 31.5971 36.9723 31.5559 37.0347L31.543 37.0247C31.5409 37.0231 31.5389 37.0215 31.537 37.0199L31.5314 37.0153C31.4471 36.944 31.3591 36.8787 31.2507 36.8497C30.9682 36.7737 30.7114 36.9629 30.5881 37.2055C30.5296 37.3206 30.5045 37.4394 30.4754 37.5635L30.4729 37.5749C30.4611 37.6328 30.4458 37.75 30.3952 37.7786C30.3765 37.7892 30.3343 37.7684 30.2925 37.7442C30.1971 37.6892 30.1115 37.619 30.018 37.561C29.7988 37.4248 29.5496 37.3686 29.3033 37.4667C29.0595 37.5638 28.8849 37.793 28.8808 38.0601C28.8778 38.2569 29.0095 38.6005 29.2575 38.5765C29.3072 38.5716 29.3711 38.5411 29.3792 38.4838C29.4005 38.3318 29.2807 38.1451 29.4181 38.0196C29.551 37.8982 29.6886 38.0003 29.8089 38.0844L29.8951 38.1449C30.0351 38.2422 30.1792 38.3313 30.3565 38.3419C30.5807 38.3553 30.7877 38.2314 30.9005 38.0405C31.0025 37.8679 31.004 37.6726 31.0838 37.4954C31.1012 37.4567 31.1462 37.421 31.1312 37.4031C31.1917 37.4346 31.2696 37.5254 31.3073 37.5508C31.4947 37.6773 31.7454 37.6764 31.9097 37.5086C31.9752 37.4419 32.0169 37.3595 32.0654 37.2808C32.0829 37.2524 32.1048 37.2261 32.1208 37.1969C32.1267 37.1861 32.1363 37.1462 32.1442 37.1106L32.1563 37.054L32.1576 37.0448C32.168 36.9592 32.1378 36.8918 32.0658 36.8405ZM24.8447 36.093C24.6293 35.9799 24.3638 36.0229 24.1698 36.16C23.9522 36.3137 23.8455 36.5498 23.7728 36.7994C23.72 36.9811 23.6947 37.2316 23.5429 37.3632C23.3661 37.5163 23.0699 37.3538 22.8834 37.2934C22.6577 37.2204 22.3865 37.1905 22.1662 37.2985C21.9504 37.4044 21.8464 37.6203 21.8241 37.8516C21.8033 38.0674 21.8342 38.3517 21.9573 38.5323C21.9695 38.5501 21.9926 38.5455 22.0003 38.5267C22.0812 38.3274 22.0656 38.0994 22.1313 37.8931C22.2014 37.673 22.3658 37.6264 22.5745 37.6856C22.7922 37.7474 22.9915 37.863 23.2154 37.9041C23.4541 37.948 23.6904 37.9028 23.8786 37.745C24.0369 37.6122 24.1328 37.4188 24.1976 37.2262C24.2607 37.0383 24.271 36.7869 24.4055 36.631C24.4394 36.5916 24.4985 36.5441 24.5534 36.539C24.635 36.5315 24.6645 36.5921 24.7303 36.6386C24.9041 36.7613 25.1816 36.7638 25.288 36.548C25.3228 36.4773 25.3401 36.377 25.288 36.3078C25.1966 36.1866 25.1216 36.1876 25.001 36.2138C24.9972 36.2106 24.9929 36.2064 24.9881 36.2008L24.9844 36.1963C24.9525 36.1559 24.8906 36.1172 24.8447 36.093ZM16.3146 34.8194C16.3074 34.6572 16.1122 34.5015 15.9582 34.6148C15.9334 34.6329 15.9089 34.6514 15.885 34.6707L15.8751 34.6813C15.8465 34.6812 15.8198 34.6737 15.7915 34.6646L15.742 34.6487C15.612 34.6075 15.4871 34.5743 15.3484 34.6047C15.1097 34.6571 14.9583 34.8631 14.8806 35.0817C14.8081 35.2855 14.8319 35.4934 14.7979 35.7023C14.7657 35.9003 14.6639 35.9777 14.4729 35.9352L14.4631 35.933C14.0831 35.8419 13.6501 35.5874 13.317 35.9364C12.9571 36.3134 13.1925 36.9122 13.5865 37.1544C13.6037 37.165 13.6227 37.1476 13.6188 37.1296C13.5665 36.886 13.4138 36.6538 13.465 36.3953C13.5004 36.2161 13.6249 36.1313 13.8024 36.1599C14.176 36.22 14.5253 36.5178 14.9084 36.3017C15.0998 36.1936 15.2052 35.9908 15.2529 35.783C15.2958 35.596 15.2837 35.3851 15.366 35.2087C15.456 35.0157 15.6076 35.1556 15.771 35.182C16.0021 35.2193 16.3269 35.098 16.3146 34.8194ZM28.8459 29.0508C28.8467 28.8896 28.5963 28.8895 28.5955 29.0508C28.5863 31.093 27.6313 32.9806 27.4598 35.0025C27.4462 35.1631 27.6966 35.1622 27.7101 35.0025C27.8818 32.98 28.8367 31.0963 28.8459 29.0508ZM8.16984 32.3936C8.03801 32.2443 7.84489 32.2906 7.68802 32.3655C7.4524 32.4778 7.22693 32.6042 7.01078 32.7502C6.9576 32.7861 6.99112 32.8642 7.05372 32.8522C7.21225 32.8217 7.36655 32.7875 7.52035 32.738C7.63594 32.7009 7.75625 32.647 7.87679 32.6278C7.86924 32.6556 7.86007 32.6827 7.84927 32.7094C7.82949 32.7641 7.80652 32.8177 7.78702 32.8726C7.74823 32.982 7.71327 33.0929 7.67938 33.2039L7.66251 33.2594C7.59206 33.4921 7.52361 33.8308 7.84874 33.9024C7.96937 33.929 8.08894 33.8764 8.20115 33.8351L8.22427 33.8267L8.63359 33.6816C8.68236 33.6643 8.77268 33.6522 8.81312 33.6219L8.80666 33.653C8.79828 33.6943 8.79006 33.7347 8.77231 33.7758L8.7624 33.7985C8.66073 34.0291 8.53254 34.2598 8.65112 34.5148C8.75272 34.7332 8.99287 34.8368 9.2243 34.7748C9.44423 34.7159 9.60339 34.4681 9.48952 34.2526C9.4471 34.1723 9.32295 34.133 9.24406 34.1832L9.22288 34.1973C9.19803 34.2135 9.15526 34.2413 9.15422 34.2465C9.14833 34.248 9.14217 34.2495 9.13591 34.2511C9.14918 34.212 9.15813 34.152 9.16977 34.1253L9.21261 34.028C9.2923 33.8452 9.36137 33.6591 9.30057 33.454C9.12646 32.8668 8.536 33.2007 8.10045 33.3682C8.1068 33.3434 8.11309 33.3189 8.11841 33.2949C8.13719 33.2099 8.15773 33.1253 8.17805 33.0407L8.21972 32.866C8.25722 32.705 8.28642 32.5258 8.16984 32.3936ZM30.4543 31.7382C30.4547 31.7243 30.4376 31.7136 30.4256 31.7217C30.1471 31.909 29.9608 32.3 30.0655 32.6331C30.1163 32.7949 30.2243 32.9367 30.376 33.0153C30.5646 33.1128 30.7728 33.0757 30.9709 33.0339L31.0551 33.0159C31.1144 33.0035 31.1729 32.9943 31.2333 33.011C31.254 33.0167 31.278 33.0348 31.2977 33.0387C31.2896 33.0525 31.2809 33.0765 31.2766 33.0854L31.2622 33.1143C31.2478 33.1436 31.2337 33.174 31.2249 33.2048C31.1953 33.308 31.2026 33.4187 31.2506 33.515C31.3399 33.6944 31.5273 33.7955 31.7223 33.8126C31.8385 33.8229 32.1313 33.7211 32.2006 33.8445C32.338 34.0893 32.7292 33.9246 32.6532 33.6536C32.6018 33.4703 32.4559 33.3519 32.2751 33.3023C32.1788 33.2759 32.0791 33.2795 31.9812 33.2903C31.9428 33.2945 31.9046 33.3005 31.8662 33.3046L31.8373 33.3072C31.8449 33.3066 31.7578 33.3045 31.7228 33.3022L31.7302 33.2821C31.7313 33.2793 31.7323 33.2768 31.7332 33.2749C31.7722 33.1916 31.801 33.1086 31.7987 33.0155C31.7944 32.8476 31.6858 32.7012 31.5431 32.6204C31.4115 32.5458 31.2549 32.5161 31.1053 32.5327C30.9409 32.551 30.7073 32.6812 30.5457 32.6126C30.4239 32.5609 30.3825 32.3805 30.3807 32.2623C30.3778 32.0843 30.4493 31.9155 30.4543 31.7382ZM19.1122 30.5705C18.6642 30.3693 18.2795 30.7129 18.0166 31.0416C18.003 31.0586 18.0201 31.0871 18.0415 31.0739L18.0764 31.0521C18.2911 30.9175 18.5291 30.7583 18.7951 30.8042C19.0359 30.8457 19.0955 31.0034 19.0476 31.2182L19.0335 31.2786C18.9826 31.4998 18.9435 31.7288 19.0704 31.9345C19.1902 32.1288 19.4239 32.2137 19.6428 32.2189C19.8952 32.2248 20.1132 32.1074 20.344 32.0254L20.3623 32.019C20.4603 31.9852 20.8179 31.8967 20.8229 32.0982C20.8252 32.1903 20.7266 32.2986 20.6887 32.3813C20.6391 32.4897 20.6061 32.6035 20.6067 32.7238C20.6081 33.0238 20.8583 33.2674 21.1544 33.1219C21.2695 33.0653 21.2992 32.9029 21.2391 32.7986C21.1546 32.6515 21.1204 32.6592 21.1796 32.5048L21.1967 32.4613C21.2696 32.2752 21.3276 32.0837 21.2457 31.8884C21.0822 31.4984 20.5917 31.4511 20.2413 31.5803L20.2285 31.5851C20.0104 31.6696 19.3573 32.0083 19.4023 31.5294C19.42 31.3407 19.4772 31.1598 19.4372 30.9691C19.4 30.792 19.2765 30.6442 19.1122 30.5705ZM16.9535 28.9686C16.8717 28.8246 16.5971 28.8761 16.6199 29.059L16.6272 29.1159C16.6365 29.1938 16.6385 29.267 16.5847 29.3363C16.5194 29.4204 16.4076 29.4459 16.3062 29.433C16.0914 29.4058 15.9545 29.2066 15.7181 29.2531C15.5262 29.2909 15.3937 29.4479 15.317 29.6192C15.2358 29.8005 15.2375 29.9971 15.177 30.1839C15.1074 30.3986 14.9588 30.3887 14.7732 30.3136L14.7333 30.2972C14.5558 30.2233 14.3777 30.1413 14.1799 30.1766C13.8515 30.2352 13.5686 30.7405 13.8763 30.9845C13.9319 31.0285 14.029 31.0055 14.0266 30.9222L14.0263 30.9065C14.0248 30.7549 14.063 30.5593 14.2366 30.5236C14.4208 30.4857 14.6288 30.6538 14.7998 30.7022C15.2426 30.8275 15.4949 30.4941 15.5701 30.0997L15.5729 30.0846C15.5969 29.9465 15.6158 29.6911 15.7602 29.6265C15.8371 29.592 15.9192 29.6768 15.9835 29.711C16.0835 29.764 16.1907 29.7977 16.3038 29.8063C16.722 29.8382 17.1972 29.3982 16.9535 28.9686ZM27.419 28.4239C27.2812 28.3642 27.0757 28.3974 27.042 28.5773L27.0216 28.6906C26.9816 28.9092 26.9178 29.1827 26.7029 29.2614C26.5685 29.3107 26.4142 29.2244 26.2937 29.1717C26.1489 29.1084 26.0078 29.0542 25.8492 29.0392C25.5276 29.0087 25.288 29.1948 25.1742 29.4858L25.1643 29.5117C25.0725 29.7562 24.9485 30.2237 25.1494 30.422C25.1788 30.451 25.2379 30.4651 25.2739 30.4381C25.3926 30.349 25.4226 30.2025 25.4634 30.0652L25.4669 30.0535C25.5101 29.9109 25.5456 29.7538 25.6237 29.6253C25.7689 29.3865 26.1476 29.6592 26.3298 29.7221C26.629 29.8256 26.9393 29.7651 27.1679 29.5439C27.3123 29.4042 27.3977 29.2273 27.4564 29.0401C27.4939 29.0595 27.5328 29.0763 27.5747 29.0876C27.7343 29.1308 27.9237 29.108 28.0452 28.9871C28.2733 28.76 28.1496 28.3528 27.8018 28.4186C27.7333 28.4316 27.6884 28.497 27.6803 28.5639L27.6756 28.5744C27.5881 28.5455 27.4924 28.4557 27.419 28.4239ZM11.3027 26.3955C10.9778 26.061 10.4138 26.2423 10.1916 26.5971C10.1455 26.6706 10.2216 26.7639 10.3026 26.7415C10.496 26.6882 10.769 26.4783 10.9735 26.6119C11.125 26.7109 11.0426 26.9698 11.0287 27.1146L11.0267 27.1362C11.0092 27.3333 11.0052 27.603 11.1587 27.7506C11.247 27.8355 11.3825 27.824 11.499 27.8119L11.536 27.8081C11.6734 27.7943 11.8098 27.77 11.9414 27.7277C12.0623 27.6889 12.1769 27.6362 12.2905 27.5803L12.3189 27.5662C12.3692 27.5413 12.5369 27.4423 12.5872 27.5045C12.6134 27.5369 12.5485 27.679 12.535 27.7107C12.484 27.8299 12.4192 27.9421 12.3725 28.0634C12.2901 28.2771 12.2833 28.5182 12.3989 28.7221C12.511 28.9197 12.7537 29.0798 12.9689 28.928C13.0921 28.8411 13.0918 28.683 12.9689 28.596C12.9039 28.55 12.8384 28.5196 12.8115 28.4424C12.7765 28.3417 12.8216 28.235 12.8652 28.1418L12.9175 28.0309C13.0333 27.7833 13.149 27.4986 12.9872 27.2455C12.8202 26.9842 12.4806 26.9801 12.2237 27.0889C12.0771 27.1511 11.9434 27.2344 11.7906 27.2824C11.6849 27.3157 11.5788 27.338 11.4705 27.3501C11.4464 27.2198 11.4805 27.0739 11.4809 26.9445C11.4814 26.7478 11.4448 26.5417 11.3027 26.3955ZM28.0589 21.7433C27.5106 21.6628 27.2452 22.1535 27.2073 22.626C27.1732 23.0549 27.2427 23.4852 27.3513 23.9022C27.392 24.0569 27.4377 24.2097 27.4855 24.36C27.5625 24.6014 27.6461 24.8425 27.7478 25.0748C27.7788 25.145 27.8101 25.2154 27.8452 25.283C27.9652 25.3815 28.068 25.5142 28.1614 25.6417L28.2228 25.7259L28.2392 25.7486C28.3979 25.9659 28.5334 26.1914 28.6442 26.4365C28.7498 26.67 28.8283 26.9135 28.8894 27.162L28.9044 27.224C28.9513 27.4152 29.0206 27.6435 28.9369 27.8215C29.1012 27.8722 29.2646 27.9182 29.4392 27.9426C29.6802 27.9764 29.9309 27.9786 30.1741 27.9698C30.4091 27.9612 30.6438 27.9429 30.8778 27.9179L31.0463 27.8994C31.0638 27.8974 31.0813 27.8953 31.0987 27.8931C31.0921 27.885 31.0865 27.8759 31.0824 27.8659C31.0224 27.7219 31.0301 27.5549 31.0234 27.3999L31.0226 27.3828C31.0139 27.2109 31.0086 27.039 31.0064 26.8668C31.0023 26.5436 31.0111 26.2196 31.0464 25.898C31.0771 25.6165 31.125 25.335 31.1998 25.0617C31.2752 24.7846 31.3904 24.5244 31.4968 24.2582C31.602 23.9952 31.6887 23.725 31.6793 23.4382C31.6733 23.256 31.6333 23.0787 31.5654 22.9112C31.5622 22.9137 31.5582 22.9156 31.5535 22.9153C31.3403 22.9075 31.1384 22.8458 30.9325 22.7938C30.714 22.7384 30.4902 22.693 30.2668 22.6661L30.2193 22.6605C30.033 22.6396 29.8301 22.6294 29.658 22.7093C29.4718 22.796 29.3544 22.9889 29.2837 23.1739L29.2758 23.1952C29.1501 23.546 29.1789 24.0143 29.5676 24.1803C29.6881 24.2319 29.9632 24.2635 30.0251 24.1001C30.053 24.0256 29.9957 23.9154 29.9741 23.8449C29.9488 23.761 29.9322 23.6783 29.9341 23.5907C29.9356 23.5138 29.9943 23.4558 30.069 23.4496L30.0758 23.4491C30.2117 23.4432 30.4918 23.2867 30.519 23.5121C30.5244 23.5559 30.4909 23.6019 30.4555 23.6233C30.3841 23.6655 30.3096 23.6937 30.232 23.7109C30.2427 23.7579 30.2577 23.8039 30.2724 23.8496C30.2812 23.8452 30.2909 23.8424 30.3012 23.8415C30.4161 23.8321 30.5297 23.8503 30.6445 23.8515L30.7073 23.8519C30.7965 23.8528 30.8742 23.8576 30.9607 23.9038C31.0405 23.9464 31.0264 24.0531 30.9607 24.0988C30.7882 24.2185 30.4962 24.1483 30.3165 24.0268C30.3244 24.0885 30.3206 24.1515 30.2943 24.2175C30.2167 24.4136 29.9942 24.5112 29.7951 24.5197C29.6183 24.5272 29.4492 24.4715 29.3081 24.3738C29.2793 24.4768 29.233 24.5757 29.2129 24.6825C29.1866 24.8228 29.2179 24.9868 29.1691 25.1187C29.1203 25.2514 28.9316 25.3403 28.8223 25.2101C28.6624 25.0197 28.7122 24.7182 28.8527 24.5253C28.9275 24.4232 29.0633 24.3061 29.2017 24.2877C29.1056 24.1972 29.0286 24.0854 28.9801 23.962C28.9766 23.9636 28.9726 23.9639 28.9682 23.9626C28.5184 23.8396 28.2737 23.4319 28.2586 23.0039C28.2255 23.0277 28.1911 23.049 28.155 23.0681C28.069 23.1145 27.9585 23.0737 27.9319 22.9776C27.9075 22.888 27.9785 22.7776 28.0783 22.785C28.1353 22.7897 28.1926 22.79 28.2492 22.7807C28.2571 22.7794 28.2646 22.7779 28.2724 22.7763C28.2774 22.7434 28.284 22.7105 28.2921 22.6779C28.1222 22.6974 27.9444 22.6695 27.7801 22.6332C27.6386 22.6022 27.6715 22.377 27.8139 22.3824L27.8368 22.3834C28.0236 22.3923 28.2994 22.4225 28.4596 22.3041C28.4877 22.2634 28.519 22.2249 28.5528 22.1886C28.5572 22.1795 28.561 22.1698 28.5644 22.1597C28.6505 21.9118 28.2427 21.7702 28.0589 21.7433ZM23.1365 25.232C22.923 25.1749 22.6983 25.2527 22.5515 25.4139C22.4282 25.5495 22.3643 25.7159 22.3071 25.8861L22.2746 25.9839C22.2271 26.1225 22.1726 26.2325 22.003 26.1797C21.7855 26.1119 21.5971 25.994 21.3607 26.0033C21.1458 26.0117 20.9355 26.1042 20.7859 26.2592C20.6329 26.4177 20.5598 26.6386 20.5923 26.8562L20.5944 26.8695C20.6113 26.9698 20.7579 27.3276 20.9133 27.1629C20.9826 27.0894 20.9689 27.0081 20.9854 26.9148C21.001 26.8259 21.0345 26.7387 21.0894 26.6666C21.1867 26.5387 21.3431 26.4889 21.4961 26.5341C21.6978 26.5938 21.876 26.7167 22.0934 26.7196C22.322 26.7227 22.5161 26.6041 22.6422 26.4179C22.744 26.2676 22.7804 26.0916 22.852 25.9282L22.8589 25.9126C22.919 25.7781 22.9601 25.7295 23.0978 25.7938L23.146 25.8169C23.3522 25.915 23.5843 26.0047 23.7976 25.8665C23.9957 25.7381 24.0802 25.48 23.9135 25.2921C23.8216 25.1884 23.6087 25.206 23.549 25.3391C23.5385 25.362 23.5287 25.3852 23.5192 25.4085C23.5009 25.4029 23.4832 25.3961 23.4663 25.3867C23.3545 25.3363 23.2574 25.2643 23.1365 25.232ZM16.9043 23.7128C16.6608 23.5815 16.4575 23.8397 16.4964 24.0728L16.4983 24.0831C16.4997 24.0901 16.503 24.1055 16.5071 24.1231C16.4947 24.1216 16.4824 24.1194 16.4701 24.1162L16.4135 24.1093C16.3246 24.099 16.2384 24.0936 16.1493 24.1221C15.9392 24.1896 15.8359 24.3939 15.8308 24.6033C15.8258 24.8119 15.9337 24.9802 15.9654 25.1796C15.9979 25.3834 15.7869 25.3252 15.6493 25.3103L15.6439 25.3097C15.4523 25.2903 15.2509 25.29 15.0917 25.4149C14.9273 25.5439 14.8545 25.7667 14.8777 25.9708C14.8987 26.1551 15.014 26.4387 15.2228 26.4679C15.2434 26.4707 15.2669 26.4662 15.2775 26.4456C15.3619 26.2813 15.2444 26.0999 15.2577 25.9266C15.2723 25.736 15.3938 25.7043 15.5613 25.7167C15.7238 25.7286 15.8859 25.7631 16.0465 25.7146C16.2206 25.662 16.347 25.5125 16.3827 25.3361C16.4221 25.1418 16.3497 24.961 16.3027 24.7763C16.2871 24.7149 16.2794 24.6532 16.2902 24.5905C16.2925 24.5769 16.3043 24.5644 16.3086 24.5591C16.3353 24.5541 16.3753 24.5669 16.3982 24.5693L16.4306 24.5725C16.607 24.5884 16.7769 24.5778 16.9029 24.432C16.9675 24.3573 16.9914 24.266 16.9849 24.1696L16.9817 24.1307C16.9782 24.0933 16.9716 24.0439 16.9522 24.0233L16.9519 24.0223C16.9585 24.0135 16.9647 24.0045 16.9703 23.9952L16.9758 23.9857C17.0298 23.8956 16.9985 23.7635 16.9043 23.7128ZM29.3804 21.4274C29.1378 21.4274 28.9087 21.5066 28.7253 21.7223C28.7907 21.7846 28.843 21.857 28.8718 21.9418C28.9616 21.8927 29.0568 21.8542 29.1541 21.8269C29.4511 21.7439 29.8574 21.7452 30.1071 21.949C30.238 22.0555 30.0943 22.2465 29.9535 22.2136C29.8273 22.1842 29.7178 22.1297 29.5854 22.1234C29.4705 22.1178 29.3578 22.1328 29.2477 22.166C29.0796 22.2168 28.9269 22.3129 28.8145 22.4453C28.7769 22.4898 28.7441 22.538 28.7165 22.59C28.5068 22.9882 28.6649 23.5594 28.9544 23.8872C28.8408 23.5096 28.9541 23.0643 29.1804 22.7516C29.4528 22.375 29.8603 22.3323 30.2896 22.391L30.3037 22.393C30.719 22.4516 31.2333 22.554 31.5438 22.8592C31.5128 22.7888 31.4771 22.7205 31.437 22.6545C31.2017 22.2668 30.8114 21.9644 30.4064 21.7486C30.3384 21.712 30.2699 21.6782 30.2017 21.6469C29.9422 21.5276 29.653 21.4274 29.3804 21.4274ZM29.5131 18.4691L29.5121 18.4735C29.5119 18.4743 29.5117 18.4752 29.5115 18.476C29.4972 18.6033 29.531 18.7495 29.5483 18.878L29.5506 18.8962C29.587 19.1886 29.6348 19.4814 29.6505 19.776C29.6657 20.0594 29.6599 20.3533 29.6258 20.6354L29.6208 20.6756C29.6007 20.8293 29.5888 21.0097 29.5369 21.1675C29.7366 21.1866 29.9363 21.2508 30.1178 21.3191C30.1829 21.3438 30.2477 21.3698 30.3122 21.3974C30.2314 20.968 30.1882 20.5325 30.1006 20.1045L30.0833 20.0193C29.9881 19.5458 29.8986 19.0693 29.6524 18.6457C29.6195 18.5893 29.5841 18.5421 29.5441 18.4916C29.5353 18.4801 29.525 18.4726 29.5131 18.4691Z" fill="black"/>
<path fill-rule="evenodd" clip-rule="evenodd" d="M24.0583 13.2681C23.9841 12.3055 24.0991 11.2965 23.7289 10.3815C23.0834 8.8634 21.2732 8.35723 19.8699 7.77926C19.3077 7.61272 17.416 7.58945 16.7577 7.36904C15.2679 6.87019 14.9119 6.27583 13.7282 7.22564C13.5283 7.3879 13.4033 7.56424 13.3121 7.80518L13.3158 7.80622C13.2898 7.90666 13.3177 8.00689 13.3764 8.08344C12.8631 8.60941 12.6483 9.39795 12.9117 10.0981C13.7711 11.9201 13.7307 12.9052 13.4538 14.8639C13.0922 16.6925 13.9185 17.3604 15.287 18.3554C15.2313 18.4637 15.2197 18.6076 15.2924 18.7032C16.8749 20.9325 19.8586 21.9969 22.4151 20.8654C23.4528 20.4024 23.9161 19.2945 24.1805 18.2948C24.4885 17.1755 24.5831 15.996 24.3324 14.8557C24.2313 14.3284 24.0995 13.8049 24.0583 13.2681Z" fill="#D08B5B"/>
<path fill-rule="evenodd" clip-rule="evenodd" d="M12.7246 10.5373L13.6656 11.1657L17.0337 7.60607L15.9128 6.72168C15.9128 6.72168 13.8794 8.22832 13.4795 8.62596C13.0797 9.0236 12.7246 10.5373 12.7246 10.5373Z" fill="#9FD8E5"/>
<path fill-rule="evenodd" clip-rule="evenodd" d="M14.9309 2.60296C15.123 2.57404 15.268 2.69351 15.337 2.86191L15.3406 2.87098C15.3628 2.92828 15.3875 2.98401 15.414 3.03881C15.8947 2.80241 16.5806 2.86315 16.8848 3.3419C17.1019 3.68382 16.9694 4.08961 16.8876 4.45219L16.8339 4.6911C16.9377 4.75734 17.016 4.87598 17.0124 4.99882L17.0119 5.00828L16.9901 5.34143C17.0594 5.27098 17.1228 5.19427 17.1793 5.11255C17.2184 5.04084 17.2605 4.97039 17.3058 4.90213C17.5722 4.50041 18.1703 4.84953 17.9505 5.27975C17.9083 5.36272 17.8608 5.44131 17.8099 5.51709C17.7524 5.62887 17.7053 5.74378 17.6691 5.86182C17.7731 5.90722 17.853 6.00804 17.8615 6.16022C17.8811 6.5156 17.695 6.81211 17.3989 6.99842C17.3118 7.05321 17.2218 7.06386 17.1403 7.0435C17.1259 7.06292 17.1116 7.08233 17.0978 7.10206C17.2159 7.19818 17.3224 7.30777 17.4139 7.42926C17.6894 7.38793 17.9664 7.36851 18.2434 7.36789C18.582 7.20163 18.9874 7.20507 19.3513 7.26738C19.5855 7.30746 19.8104 7.38542 20.0409 7.44147C20.2839 7.50033 20.5306 7.50253 20.7764 7.5426C21.0862 7.59301 21.358 7.73642 21.5288 7.9653C21.7165 7.97094 21.9139 8.04797 22.0776 8.15255C22.4586 8.39615 22.8375 8.64319 23.2176 8.88836C23.3635 8.98248 23.418 9.13274 23.3912 9.30034L23.3894 9.31106L23.3766 9.38057L23.4066 9.42335C23.5229 9.58803 23.6495 9.76052 23.7248 9.94229C23.8641 10.1436 23.99 10.3547 24.1015 10.5723C24.2517 10.8647 24.3757 11.1747 24.4597 11.4928C24.4806 11.5733 24.5016 11.6544 24.5153 11.7364C24.535 11.8523 24.5047 11.9421 24.4881 12.0533C24.4675 12.1942 24.46 12.337 24.4382 12.4782C24.4235 12.5718 24.3441 12.6178 24.2611 12.6203C24.2923 12.8586 24.3148 13.0985 24.3363 13.3364C24.3666 13.6765 24.3872 14.0174 24.4051 14.3584C24.4969 14.4921 24.6846 14.5979 24.8201 14.6346C25.0078 14.685 25.2046 14.6302 25.382 14.566C25.4935 14.5256 25.585 14.6662 25.5307 14.7601C25.3598 15.0551 24.9944 15.0538 24.7177 14.9233C24.6006 14.8682 24.4978 14.7883 24.4216 14.6844C24.4263 14.7833 24.4313 14.8823 24.4363 14.9815L24.4409 15.0714C24.4972 16.1213 24.6187 17.2074 24.4219 18.247C24.0812 20.0477 22.5947 21.4188 20.7789 21.5252C19.8261 21.5811 19.0326 21.299 18.638 21.1416C18.2434 20.9842 18.3968 20.6633 18.6707 20.755C19.1426 20.913 20.0094 21.1485 20.7852 21.0468C22.6135 20.8072 24.1639 19.891 24.0046 15.9453C23.9821 15.3857 23.9125 14.8259 23.8975 14.2664C23.8832 13.7194 23.8885 13.172 23.8644 12.6253L23.8564 12.4388C23.847 12.2209 23.837 12.0019 23.8207 11.7837C23.801 11.6992 23.7848 11.6134 23.7607 11.5304C23.6954 11.3046 23.6102 11.0851 23.5043 10.8757C23.4809 10.8935 23.4546 10.9064 23.4262 10.9114C23.2104 10.9502 23.008 10.9392 22.8059 10.8491C22.7116 10.8074 22.6285 10.752 22.5511 10.6834C22.5142 10.6512 22.4895 10.6199 22.4702 10.5873C22.3724 10.5889 22.2747 10.5594 22.2134 10.489C22.1436 10.4087 22.132 10.3257 22.1594 10.249L22.1622 10.2413L22.1553 10.2388C22.0729 10.4527 21.9086 10.6408 21.7284 10.768C21.4436 10.9696 21.0872 11.0278 20.7455 11.0332C20.3682 11.0388 19.9703 10.9806 19.598 10.9211C19.4996 10.9054 19.4019 10.8876 19.306 10.8635C19.3022 10.8672 19.2985 10.8716 19.2944 10.8754C18.9749 11.1819 18.5255 11.2608 18.1201 11.0858C17.8858 10.9846 17.6894 10.8218 17.5157 10.6352C17.5132 10.7329 17.5082 10.8306 17.4998 10.9273L17.4963 10.9658C17.479 11.146 17.4457 11.3371 17.3099 11.4671C17.0903 11.6779 16.7717 11.5933 16.5184 11.4562C16.5188 11.4628 16.5188 11.4696 16.5188 11.4765C16.5872 11.7095 16.6559 11.9428 16.7246 12.176L16.7394 12.2257C16.7893 12.3914 16.8441 12.5572 16.8592 12.7305C16.8879 13.0618 16.668 13.389 16.3007 13.2779C16.1081 13.2198 15.9537 13.0574 15.8056 12.9273L15.7123 12.8464C15.9537 13.6376 16.1212 14.457 16.1368 15.2827C16.1377 15.3275 16.0993 15.3613 16.0568 15.3629C15.9575 15.3669 15.8507 15.3472 15.7507 15.3075C15.7451 15.3071 15.7395 15.3068 15.7336 15.3059C15.563 15.2812 15.4047 15.2195 15.2651 15.1284C15.2972 15.2307 15.3116 15.3406 15.3032 15.4556C15.301 15.4834 15.2576 15.4931 15.2513 15.4624C15.1707 15.0651 14.7069 14.7648 14.3072 14.8409C13.878 14.9226 13.5619 15.2927 13.4845 15.7139C13.4014 16.1663 13.5604 16.6895 13.8549 17.0387C13.9905 17.1996 14.1688 17.3339 14.3805 17.3677C14.4774 17.3831 14.5779 17.3778 14.672 17.3502C14.7119 17.3383 14.7494 17.3217 14.7875 17.306C14.8431 17.2835 14.9081 17.2801 14.9605 17.2563C15.0795 17.2027 15.1992 17.3126 15.1389 17.4351C15.0864 17.5418 15.0393 17.6138 14.9521 17.6689C15.0227 17.7554 15.0867 17.8756 15.1105 17.9078C15.2316 18.0719 15.3547 18.2269 15.4928 18.3769C15.6333 18.5291 15.7867 18.6681 15.9488 18.7968L16.0169 18.8507C16.173 18.9749 16.309 19.0899 16.4191 19.268C16.5059 19.4086 16.3935 19.5993 16.2308 19.5971C15.7217 19.5899 15.3516 19.1415 15.088 18.7498C15.0505 18.6938 15.0152 18.6346 14.9824 18.5738C14.9705 18.5929 14.9574 18.6108 14.9427 18.6271L14.9718 18.7053C15.058 18.9358 14.6866 19.0864 14.5789 18.8713C14.5005 18.7154 14.4096 18.5669 14.3084 18.4267C14.2487 18.4182 14.1903 18.3819 14.1579 18.3349C14.0757 18.2156 13.9836 18.0951 13.9058 17.968C13.8627 17.9269 13.8184 17.8875 13.7731 17.849C13.76 17.8606 13.7465 17.8722 13.7337 17.8844C13.6769 18.0143 13.6066 18.133 13.5195 18.2448L13.5008 18.2686C13.3338 18.4795 13.1164 18.6954 12.8473 18.747C12.7652 18.7626 12.6862 18.6603 12.7589 18.5948C12.9473 18.4251 13.17 18.3096 13.3436 18.1201C13.4292 18.0268 13.5077 17.924 13.5753 17.8163L13.5907 17.7914C13.6019 17.7729 13.6135 17.7544 13.6253 17.7356C13.5469 17.6821 13.4685 17.6282 13.3902 17.5744C13.1743 17.7592 12.8933 17.8438 12.6546 17.9969L12.6309 18.0124C12.4151 18.1571 12.1877 17.8371 12.3607 17.6614C12.5515 17.4685 12.7107 17.2385 12.8797 17.0241C12.8002 16.8773 12.7626 16.7038 12.7485 16.5285C12.7429 16.4789 12.7386 16.4292 12.7343 16.3796C12.6131 16.3814 12.4913 16.3398 12.3882 16.2681L12.3492 16.2402C12.2239 16.2803 12.0924 16.2997 11.9666 16.2963C11.6705 16.2875 11.5493 15.9484 11.7345 15.7339C11.9235 15.5147 12.2542 15.4668 12.5163 15.5733C12.5247 15.5689 12.5334 15.5642 12.5419 15.5595C12.5294 15.5019 12.5322 15.4496 12.5464 15.4037L12.5422 15.3757C12.4846 15.2871 12.4467 15.1859 12.4324 15.079C12.421 14.9943 12.4233 14.9103 12.4429 14.8267C12.4494 14.7989 12.4629 14.77 12.4732 14.741C12.4519 14.6871 12.4394 14.6314 12.4355 14.5753C12.4296 14.5682 12.4236 14.5609 12.418 14.553C12.288 14.37 12.3142 14.1495 12.438 14.0014C12.4386 13.992 12.4394 13.9825 12.4407 13.9732C12.4335 13.9568 12.4268 13.9403 12.4207 13.9236C12.2998 13.8014 12.2111 13.6542 12.2276 13.4719C12.2373 13.3646 12.2813 13.2681 12.3479 13.1959C12.3361 13.1609 12.335 13.1203 12.3493 13.0865C12.243 12.8033 12.2565 12.4621 12.3329 12.1453C12.3161 12.0971 12.3073 12.0448 12.3092 11.9894C12.3179 11.7543 12.5209 11.5382 12.7614 11.541C12.7904 11.5413 12.8175 11.5451 12.8435 11.5506L12.8439 11.545C12.8531 11.4744 12.8725 11.4092 12.9007 11.3507C12.8868 11.3457 12.874 11.3384 12.8627 11.3288C12.7086 11.4112 12.5455 11.4742 12.3746 11.5171C12.2488 11.5487 12.1201 11.4055 12.1982 11.2872C12.2345 11.2323 12.2745 11.183 12.3176 11.138C12.2563 11.1383 12.1941 11.1425 12.1312 11.1506C12.0181 11.1653 11.8919 11.088 11.8185 10.9834C11.7273 11.0723 11.6358 11.1609 11.5443 11.2495C11.3125 11.4747 10.9624 11.309 10.9259 11.0122C10.8569 10.9937 10.7925 10.9624 10.736 10.9176C10.3706 11.0767 9.97734 11.1641 9.57537 11.1806C9.28678 11.1925 9.11812 10.8556 9.25305 10.6177C9.34362 10.458 9.45606 10.3146 9.58568 10.19C9.38454 10.2516 9.17684 10.2961 8.96477 10.3246C8.85014 10.3399 8.68805 10.2448 8.64213 10.1392C8.4666 9.73345 8.4816 9.31043 8.68367 8.9156C8.69148 8.89994 8.70023 8.88491 8.70866 8.86988C8.72959 8.81759 8.75239 8.76593 8.77706 8.71521C8.52845 8.45532 8.50689 8.06894 8.64088 7.7455C8.58716 7.65814 8.56655 7.55294 8.60309 7.45775C8.7071 7.18378 8.85702 6.93078 9.04629 6.71348C9.02817 6.67842 9.01224 6.64116 8.99881 6.60108C8.89231 6.27701 9.01568 5.88593 9.2646 5.66018C9.42108 5.51802 9.60098 5.43286 9.79306 5.37838C9.87396 5.23497 9.97796 5.10566 10.0991 4.99669C10.1038 4.98636 10.1085 4.97603 10.1138 4.9657C10.3025 4.60937 10.646 4.41838 11.0143 4.37423C11.0286 4.23489 11.1223 4.10182 11.2585 4.05861C11.296 3.93806 11.3519 3.82284 11.4287 3.71826C11.5496 3.55356 11.7504 3.47591 11.9397 3.58393C12.0434 3.64311 12.1427 3.71106 12.2358 3.7862C12.2776 3.76655 12.325 3.75383 12.3785 3.74978L12.392 3.74894L12.6999 3.73329C12.8289 3.67599 12.9576 3.61587 13.0866 3.55732C13.164 3.49313 13.2505 3.43959 13.3449 3.39982C13.4517 3.35505 13.561 3.32969 13.6706 3.32123C13.7596 3.29211 13.8493 3.26644 13.9405 3.2464C14.1547 3.19943 14.379 3.17313 14.6014 3.17532C14.6059 3.11762 14.6082 3.05923 14.6077 3.00015L14.6073 2.97055C14.6023 2.78112 14.7532 2.62988 14.9309 2.60296ZM14.7151 17.7591C14.6844 17.7657 14.6535 17.771 14.6226 17.7748C14.632 17.7979 14.6413 17.8211 14.6504 17.8443C14.6754 17.8584 14.7007 17.8718 14.726 17.8844C14.7185 17.8418 14.7141 17.7989 14.7151 17.7591ZM13.1104 17.2811L13.0896 17.3194C13.0863 17.3257 13.083 17.3319 13.0797 17.338C13.1237 17.3345 13.1681 17.3355 13.2118 17.3405L13.2117 17.3358C13.2061 17.3339 13.2004 17.3322 13.1951 17.3295C13.1649 17.315 13.1369 17.2987 13.1104 17.2811ZM13.9776 15.5323C14.254 15.5484 14.4881 15.5909 14.7394 15.7121L14.761 15.7226C14.983 15.8332 15.3503 16.0373 15.3194 16.3301C15.3107 16.4134 15.2504 16.501 15.1554 16.4945C14.8953 16.4766 14.7466 16.2136 14.5704 16.0495C14.3927 15.8842 14.1744 15.7142 13.9592 15.6005C13.9288 15.5845 13.9408 15.5339 13.9739 15.5322L13.9776 15.5323ZM12.7246 11.675C12.6584 11.6772 12.6805 11.7417 12.7146 11.6879C12.7174 11.6835 12.7208 11.6791 12.7246 11.675ZM16.2987 7.36908C15.6717 7.38561 15.0405 7.7568 14.5708 8.132C14.1621 8.45842 13.8092 8.84668 13.4967 9.26516C13.4163 9.47356 13.3473 9.68632 13.289 9.90065C13.2505 10.0422 13.2265 10.1853 13.1943 10.328L13.1843 10.3718C13.1591 10.4192 13.1403 10.4701 13.1266 10.5227C13.1835 10.58 13.2574 10.621 13.3387 10.6404C13.3649 10.6467 13.3867 10.6602 13.4039 10.6782C13.4694 10.5687 13.5266 10.4531 13.5599 10.3305L13.5611 10.3249C13.687 10.1182 13.8236 9.91802 13.9701 9.72468C14.3743 9.19082 14.8194 8.70425 15.3544 8.29939C15.7601 7.99255 16.2136 7.75208 16.6958 7.59583C16.5778 7.50036 16.4438 7.42484 16.2987 7.36908Z" fill="black"/>
<path fill-rule="evenodd" clip-rule="evenodd" d="M21.9722 16.814C22.8538 16.814 23.5685 16.085 23.5685 15.1858C23.5685 14.2866 22.8538 13.5576 21.9722 13.5576C21.0906 13.5576 20.376 14.2866 20.376 15.1858C20.376 16.085 21.0906 16.814 21.9722 16.814Z" fill="white"/>
<path fill-rule="evenodd" clip-rule="evenodd" d="M22.9785 17.3413C22.9861 17.3176 23.019 17.3176 23.0266 17.3413C23.0954 17.5558 23.1358 17.7659 23.2385 17.9676C23.2639 17.9937 23.2821 18.0266 23.2918 18.0622C23.3398 18.1419 23.3933 18.2176 23.4531 18.2893C23.5283 18.3795 23.5831 18.4642 23.5432 18.5873C23.5235 18.6479 23.4728 18.6867 23.4088 18.6896C23.2332 18.6976 23.1331 18.53 23.071 18.3553C22.6363 18.4997 22.1577 18.5814 21.7021 18.5455C21.3317 18.5163 20.9283 18.4235 20.5968 18.2343C20.5987 18.3057 20.6015 18.3773 20.604 18.4488C20.6086 18.5811 20.6442 18.7259 20.6304 18.8559C20.6168 18.9848 20.5436 19.0846 20.411 19.1046C20.2968 19.1217 20.1555 19.0455 20.1333 18.9232C20.1075 18.7812 20.1553 18.682 20.1945 18.548C20.2292 18.4296 20.2565 18.3086 20.2864 18.1889C20.3166 18.0681 20.3413 17.9462 20.3636 17.8237C20.38 17.7341 20.3682 17.6331 20.3999 17.5486C20.4025 17.542 20.4089 17.5373 20.4162 17.5394C20.5851 17.5879 20.5946 17.8599 20.594 18.0058L20.5939 18.013C20.5937 18.0428 20.5939 18.0725 20.5943 18.1022L20.6588 18.1164C21.013 18.193 21.357 18.2513 21.7294 18.2301C22.1663 18.2054 22.5505 18.0456 22.9651 17.9361C22.9306 17.7391 22.92 17.5242 22.9785 17.3413ZM21.5176 13.4597C21.7114 13.3933 21.921 13.3619 22.1249 13.372C22.5619 13.3936 22.9782 13.593 23.2647 13.9252C23.5352 14.2388 23.6822 14.6322 23.6803 15.0472C23.6782 15.4735 23.5663 15.9536 23.3556 16.3267C22.9127 17.1108 21.8783 17.1162 21.135 16.8036C20.3417 16.47 20.019 15.6287 20.21 14.8154C20.3537 14.2037 20.8438 13.4697 21.5176 13.4597ZM22.81 14.0652C22.5759 13.8773 22.2812 13.7928 21.9833 13.8142C21.8354 13.8248 21.6851 13.8637 21.5508 13.9268C21.4794 13.9604 21.4156 14.0073 21.3453 14.0422C21.2826 14.0733 21.2147 14.0915 21.1501 14.1177L21.126 14.1279C21.0198 14.1754 20.9128 14.1075 20.9075 14.0085C20.6765 14.3327 20.5669 14.7724 20.5687 15.1625C20.57 15.4498 20.6384 15.7482 20.8032 15.9873C20.9864 16.2531 21.2904 16.3933 21.5952 16.4678C21.8872 16.5391 22.2055 16.5638 22.4982 16.4828C22.8019 16.3988 22.9981 16.1682 23.1098 15.8807C23.352 15.2571 23.372 14.5167 22.81 14.0652ZM21.7669 14.8385C21.8994 14.6575 22.1372 14.6479 22.2681 14.8385C22.3505 14.9585 22.3384 15.0741 22.3318 15.2121L22.3306 15.2432C22.3267 15.3525 22.3272 15.4675 22.2863 15.5685C22.2337 15.6982 22.1316 15.7813 21.9869 15.7641C21.9018 15.7539 21.8304 15.703 21.7891 15.6329L21.7876 15.6337C21.7296 15.5178 21.7146 15.4002 21.7048 15.2737L21.6981 15.181C21.6899 15.059 21.6894 14.9442 21.7669 14.8385Z" fill="black"/>
</svg>
