<svg width="36" height="48" viewBox="0 0 36 48" fill="none" xmlns="http://www.w3.org/2000/svg">
<path fill-rule="evenodd" clip-rule="evenodd" d="M7.62953 42.2057C9.54603 42.2594 11.3564 42.3186 13.2692 42.2057C16.3301 42.0163 25.3129 42.3578 27.2874 42.2057C27.4364 42.1943 27.9488 42.3578 27.9595 42.2057C28.0463 41.1472 28.1025 30.4376 27.8447 29.7007C27.5868 28.9638 26.3139 25.4215 24.6921 23.7697C24.2398 23.3235 23.5516 23.1506 23.1715 22.6349C22.8437 22.0726 22.8692 21.7425 22.5455 21.4467C22.405 21.3183 22.0737 21.2662 21.8275 21.088C21.58 20.842 21.8144 20.3003 21.7128 19.9576C21.5034 19.102 20.732 18.5531 19.8888 18.4237C18.7169 18.1432 17.4797 18.4084 16.9184 19.3293C16.7095 19.6721 16.8207 20.0888 16.5637 20.638C16.582 21.0531 16.0976 21.1534 15.8081 21.3179L15.233 21.8992C13.4615 22.8964 11.3775 23.4348 9.82534 24.7745C8.50565 26.1138 7.19304 27.6617 6.6075 29.4737C6.48628 29.9675 6.44671 30.4778 6.39648 30.9823C6.25307 32.4567 5.85372 33.8877 5.51006 35.3238C5.1182 37.1333 4.75292 39.0541 5.28106 40.8806C5.43333 41.2672 7.2829 42.1877 7.62953 42.2057Z" fill="#D08B5B"/>
<path fill-rule="evenodd" clip-rule="evenodd" d="M16.556 20.6338L16.7057 20.6498V21.8026L18.6629 23.8393L19.0205 24.2484C18.8073 25.009 19.022 25.3893 19.6647 25.3893C20.6286 25.3893 19.8834 25.1091 20.0646 24.7298L20.0723 24.7143C20.2037 24.4546 20.6534 23.9039 21.4213 23.0622L22.3022 21.5892V21.3202L22.332 21.3324C22.4152 21.3671 22.4869 21.4024 22.5357 21.447C22.8594 21.7429 22.8339 22.0729 23.1617 22.6352C23.5419 23.1509 24.2301 23.3238 24.6823 23.77C26.3042 25.4218 27.577 28.9642 27.8349 29.7011C28.0928 30.438 28.0365 41.1475 27.9497 42.2061C27.939 42.3581 27.4266 42.1946 27.2776 42.2061C25.3031 42.3581 16.3204 42.0167 13.2595 42.2061C11.3467 42.3189 9.53626 42.2597 7.61977 42.2061C7.27313 42.188 5.42356 41.2676 5.27129 40.881C4.74316 39.0544 5.10844 37.1336 5.5003 35.3242L5.53427 35.1829C5.86418 33.8177 6.2352 32.4556 6.37946 31.0551L6.38671 30.9826C6.43695 30.4781 6.47651 29.9678 6.59773 29.474C7.18327 27.6621 8.49588 26.1141 9.81557 24.7748C11.3523 23.4486 13.4101 22.9076 15.17 21.9294L15.2233 21.8996L15.7983 21.3182L15.8159 21.3084C16.107 21.1496 16.5719 21.0451 16.5539 20.6384L16.556 20.6338Z" fill="#FDEA6B"/>
<path fill-rule="evenodd" clip-rule="evenodd" d="M16.8164 19.4768C16.8318 19.4267 16.8978 19.4408 16.9028 19.4884C16.9526 19.9606 16.89 20.454 16.8299 20.9231C16.8011 21.1494 16.7845 21.3849 16.7407 21.6081C16.735 21.6319 16.7297 21.656 16.7247 21.6799C16.7391 21.7055 16.7817 21.7343 16.802 21.754L16.8904 21.84L17.0674 22.0114C17.4139 22.3471 17.7604 22.683 18.1069 23.0187L18.6155 23.5119C18.7898 23.6809 18.988 23.8428 19.141 24.0313C19.224 24.1337 19.2427 24.2592 19.161 24.3688C19.1206 24.423 19.0481 24.4624 18.9745 24.4706C19.0033 24.5107 19.0255 24.5561 19.0396 24.6065C19.0684 24.7092 18.9645 24.8354 18.854 24.7925C18.7285 24.7442 18.6249 24.6578 18.4972 24.6165C18.3682 24.5745 18.228 24.5664 18.0944 24.5889C18.033 24.5993 17.9729 24.6146 17.9144 24.6341C18.5407 24.9224 19.2183 25.0881 19.9094 25.1118C20.0502 25.1166 20.1908 25.1147 20.3307 25.1053C20.5661 25.0899 20.7998 25.0543 21.0296 24.9966C21.2102 24.9512 21.3889 24.8942 21.5623 24.8253C21.6474 24.7915 21.7316 24.7543 21.813 24.712L21.8201 24.7078C21.8385 24.6963 22.1786 24.5034 22.1845 24.4744C22.1905 24.4454 22.1905 24.4353 22.1794 24.41C22.1683 24.3848 22.1376 24.3674 22.1376 24.3674C22.0326 24.3225 21.9237 24.2807 21.8089 24.2799C21.5447 24.2783 21.2565 24.4737 21.038 24.6068C20.798 24.753 20.5773 24.924 20.3463 25.0824C20.341 25.0862 20.3351 25.0878 20.3294 25.0878C20.305 25.0878 20.2825 25.0577 20.2981 25.0342C20.4637 24.7903 20.6871 24.5873 20.9208 24.41L21.015 24.3394C21.2291 24.1797 21.4795 24.0028 21.7398 23.9643C22.0587 23.9173 22.3917 24.1162 22.6762 24.2326L23.1801 24.439C23.2699 24.4756 23.3676 24.5069 23.458 24.5486L23.2469 23.8876C23.1414 23.5571 23.0361 23.2265 22.9319 22.8957L22.9117 22.8309C22.8079 22.495 22.7126 22.1457 22.5397 21.8389C22.4984 21.7653 22.4512 21.6961 22.4045 21.6263C22.356 21.554 22.3379 21.4741 22.2769 21.4096C22.156 21.2815 21.9829 21.2064 21.8177 21.1573C21.7773 21.1454 21.7892 21.0921 21.8271 21.0881C21.9967 21.0702 22.1584 21.1098 22.3116 21.1813L22.3753 21.2117C22.5203 21.2803 22.6616 21.3441 22.7692 21.4672C23.0145 21.7484 23.1419 22.1024 23.259 22.4518L23.2903 22.5456C23.3341 22.5312 23.6318 22.622 23.669 22.6436C24.7848 23.1155 25.6443 23.994 26.2728 25.0235C26.9614 26.1517 27.3363 27.4408 27.6458 28.7164C27.7414 29.1101 27.8327 29.505 27.9205 29.9008C27.5295 30.0513 27.1139 30.13 26.7478 30.3421C26.6084 30.4228 26.7344 30.6394 26.8742 30.5584C27.217 30.3598 27.6076 30.2864 27.9745 30.147C28.1735 31.0632 28.3505 31.9845 28.4987 32.9096C28.9542 35.7489 29.2418 38.6345 29.2236 41.5126C29.2233 41.5762 29.2046 41.6473 29.1698 41.7083C29.1902 41.6983 29.2061 41.6864 29.2152 41.672C29.3307 41.4907 29.6202 41.6589 29.5041 41.8411L29.4871 41.8675C29.4 42.0019 29.3186 42.1046 29.1654 42.1805C29.0111 42.2569 28.844 42.2698 28.6737 42.2741C28.095 42.2894 27.5159 42.2993 26.9366 42.3065C26.8571 41.6866 26.8248 41.0607 26.7154 40.4445C26.6872 40.286 26.4459 40.3532 26.4739 40.5111C26.5796 41.1062 26.6135 41.7103 26.6872 42.3095C25.4488 42.3228 24.2096 42.323 22.972 42.3264C21.2949 42.3314 19.6179 42.3279 17.9408 42.3269L17.2221 42.3267C15.2847 42.3267 13.3472 42.3204 11.4099 42.3076L10.9491 42.3044C10.7658 41.2235 10.6411 40.1333 10.6388 39.0349C10.6384 38.8738 10.388 38.8735 10.3884 39.0349C10.3907 40.1321 10.5141 41.2224 10.6957 42.3029C10.237 42.3009 9.77845 42.3026 9.31971 42.3189L9.08622 42.3272C8.61905 42.3432 8.15094 42.3531 7.68465 42.3158C7.16697 42.2741 6.64337 42.179 6.17921 41.935C5.97016 41.825 5.78609 41.6843 5.62878 41.5189C5.78869 41.4258 5.95088 41.3366 6.10578 41.2352C6.24008 41.1473 6.11479 40.9303 5.97939 41.0189C5.81248 41.1282 5.63702 41.2233 5.46515 41.3244C5.34071 41.1583 5.23858 40.9739 5.16102 40.775C5.03864 40.4609 4.99138 40.123 4.95038 39.7905C4.9019 39.3988 4.88184 39.004 4.88184 38.6095C4.88184 37.7797 4.96916 36.9525 5.09094 36.1328C5.2074 35.3475 5.36135 34.5685 5.52407 33.792L5.54631 33.6861C5.70687 32.9227 5.85993 32.1572 6.04396 31.3991C6.21414 30.6982 6.41079 30.0005 6.64515 29.3163C6.85376 29.4453 7.07207 29.5582 7.27742 29.6926C7.41267 29.7812 7.53827 29.5644 7.40381 29.4764C7.18472 29.3329 6.95104 29.2137 6.72994 29.0736C6.99201 28.341 7.29961 27.6254 7.66841 26.9401C8.40703 25.5678 9.40237 24.34 10.6772 23.4339C11.3153 22.9805 12.0155 22.6095 12.7507 22.3395C13.5003 22.064 14.2771 21.9131 15.0715 21.8511C15.0942 21.8493 15.1069 21.8703 15.106 21.8897L15.1057 21.8934L15.137 21.8984C15.1485 21.8198 15.1723 21.7437 15.2177 21.6739C15.321 21.5148 15.5169 21.4128 15.6734 21.3151L15.7105 21.292C15.8967 21.1765 16.0932 21.0628 16.3097 21.0223C16.3172 21.021 16.3219 21.0289 16.3169 21.0348C16.1741 21.1986 15.9915 21.3238 15.8241 21.4623L15.7857 21.4944C15.647 21.6086 15.4535 21.7382 15.4483 21.9291C15.4424 22.1539 15.4884 22.3878 15.505 22.612C15.5216 22.8355 15.5332 23.0588 15.5391 23.283C15.5607 24.0861 15.5348 24.8896 15.4637 25.6896L15.7779 25.4791C16.2669 25.1516 16.7575 24.8251 17.2584 24.5185C17.5614 24.3328 17.9019 24.1741 18.2649 24.1813C18.3667 24.1831 18.4815 24.1979 18.5917 24.2292C18.4731 24.1168 18.3595 23.9972 18.2434 23.8842C18.0521 23.6978 17.8609 23.5116 17.6697 23.3256L17.1183 22.7883L16.5667 22.2509C16.3958 22.084 16.1954 21.9303 16.2136 21.6673C16.2283 21.4575 16.335 21.2487 16.408 21.0464C16.4183 21.0173 16.4277 20.9885 16.4365 20.96C16.5836 20.4709 16.6671 19.964 16.8164 19.4768ZM23.9429 40.4613C23.8288 40.3472 23.6518 40.5243 23.7659 40.6384L23.8262 40.6986C23.927 40.7991 24.0269 40.9028 24.0966 41.0272L24.1069 41.046C24.182 41.1886 24.3982 41.0622 24.3231 40.9195C24.2301 40.7432 24.0823 40.6009 23.9429 40.4613ZM19.0561 40.4291C18.693 40.3598 18.3431 40.3598 17.98 40.4291C17.8219 40.4593 17.8888 40.7008 18.0466 40.6707C18.3641 40.61 18.672 40.61 18.9896 40.6707C19.147 40.7008 19.2145 40.4594 19.0561 40.4291ZM14.1525 37.9042C13.9962 37.8646 13.9296 38.1061 14.0859 38.1457L14.1629 38.1651C14.4246 38.2298 14.6739 38.278 14.9457 38.2179C15.1009 38.1836 15.0382 37.9479 14.8853 37.9751L14.8791 37.9763C14.6276 38.0319 14.3959 37.9659 14.1525 37.9042ZM22.8612 36.2772C22.7456 36.1647 22.5684 36.3417 22.6842 36.4543C22.8287 36.5949 22.999 36.7017 23.2054 36.7074C23.3642 36.7118 23.3664 36.4688 23.2125 36.4573L23.2054 36.4569C23.0671 36.4531 22.9569 36.3702 22.8612 36.2772ZM8.12493 35.6082C8.2691 35.5361 8.14243 35.32 7.99858 35.3919L7.13323 35.8247C6.98907 35.8968 7.11573 36.113 7.25958 36.041L8.12493 35.6082ZM25.2245 35.6634C25.0633 35.6588 25.0635 35.9093 25.2245 35.9139C25.376 35.9181 25.5312 35.9755 25.6661 36.041C25.8105 36.1112 25.9376 35.8952 25.7925 35.8247C25.6161 35.7391 25.4225 35.6689 25.2245 35.6634ZM17.139 34.454C17.2715 34.3639 17.1464 34.1467 17.0126 34.2377C16.8301 34.3617 16.6647 34.5083 16.4851 34.6361L16.4357 34.6705C16.3032 34.7606 16.4283 34.9777 16.5621 34.8868C16.7612 34.7514 16.9399 34.5893 17.139 34.454ZM26.4504 32.6334C26.2893 32.6334 26.2891 32.8839 26.4504 32.8839L26.481 32.8838C26.614 32.8831 26.7542 32.8794 26.8778 32.9326L26.892 32.939C27.037 33.0073 27.1642 32.7914 27.0184 32.7227C26.8371 32.6373 26.6475 32.6335 26.4504 32.6334ZM12.545 32.4545L12.566 32.4466C12.7165 32.3925 12.6516 32.1504 12.4994 32.2051C12.2701 32.2875 12.0916 32.4433 11.8927 32.5784C11.7601 32.6685 11.8852 32.8856 12.019 32.7947C12.1905 32.6782 12.35 32.5308 12.545 32.4545ZM21.9368 31.8028L21.9705 31.7847C22.1139 31.7109 21.9873 31.4947 21.8442 31.5684C21.7305 31.6269 21.6288 31.7048 21.5174 31.7668L21.4836 31.7849C21.3403 31.8586 21.4668 32.0748 21.61 32.0012C21.7236 31.9426 21.8253 31.8648 21.9368 31.8028ZM18.1276 29.3766L18.1018 29.3517C17.9866 29.2388 17.8094 29.4158 17.9247 29.5288C18.2129 29.8109 18.5535 30.0251 18.8972 30.2322L18.9597 30.2698C19.0982 30.3529 19.2242 30.1364 19.0861 30.0535L18.9943 29.9983C18.6888 29.814 18.3868 29.6237 18.1276 29.3766ZM11.1986 29.1427C11.2957 29.0166 11.0845 28.8932 10.9858 29.012L10.9824 29.0163C10.8813 29.1476 10.7614 29.2664 10.636 29.3748L10.6125 29.395C10.5379 29.4585 10.4021 29.5946 10.2972 29.6035C10.1379 29.6171 10.1364 29.8677 10.2972 29.854C10.4594 29.8402 10.599 29.726 10.7215 29.6282C10.8999 29.4858 11.0594 29.3235 11.1986 29.1427ZM24.5198 28.2302C24.6361 28.1209 24.4643 27.9469 24.3469 28.0494L24.3428 28.0531C24.1253 28.2575 23.8126 28.3123 23.5327 28.3816C23.3763 28.4204 23.4426 28.662 23.5992 28.6232L23.7268 28.5917C24.0128 28.5203 24.2998 28.4371 24.5198 28.2302ZM19.5609 26.6502C19.4047 26.6105 19.338 26.8521 19.4944 26.8918C19.76 26.9593 20.0115 27.0466 20.2577 27.1677C20.4018 27.2386 20.5288 27.0227 20.3841 26.9514C20.1192 26.8211 19.8469 26.723 19.5609 26.6502ZM22.1188 21.3699C22.115 21.3586 22.1269 21.3458 22.1385 21.3498C22.4195 21.4546 22.2701 21.8228 22.1828 22.0432L22.167 22.0834C22.0302 22.4366 21.839 22.7804 21.6305 23.0967C21.4124 23.4276 21.1701 23.7445 20.9078 24.042C20.7941 24.1711 20.676 24.2965 20.5541 24.4182L20.5081 24.4637C20.3848 24.5849 20.2258 24.7978 20.0346 24.7743C19.8286 24.7496 19.7138 24.5295 19.864 24.3623C19.9701 24.2439 20.1172 24.1496 20.2358 24.042C20.3535 23.9355 20.4675 23.8256 20.5785 23.7126C20.8058 23.4806 21.0211 23.2354 21.218 22.9771C21.4084 22.7273 21.5906 22.4706 21.7563 22.2037L21.7892 22.1501C21.9153 21.9425 22.2064 21.6373 22.1188 21.3699ZM12.1632 23.9937C12.0298 23.9024 11.9045 24.1194 12.0369 24.21C12.2803 24.3764 12.4945 24.578 12.758 24.7149C12.8991 24.7883 13.0245 24.5781 12.8894 24.5014L12.8844 24.4987C12.6211 24.3618 12.4066 24.16 12.1632 23.9937Z" fill="black"/>
<path fill-rule="evenodd" clip-rule="evenodd" d="M17.7467 8.22451C22.4806 7.99113 24.6169 11.3326 24.755 12.8251C24.851 13.8611 24.2404 15.0552 24.2404 15.981C24.2404 16.4535 24.8175 17.468 24.5488 18.1567C23.9508 19.6897 22.6846 21.391 21.0711 21.391C19.4576 21.391 17.3578 21.8383 15.5749 19.2792C15.4076 19.0391 13.2918 17.6744 13.0863 16.3776C12.5742 13.1474 14.3688 8.39104 17.7467 8.22451Z" fill="#D08B5B"/>
<path fill-rule="evenodd" clip-rule="evenodd" d="M17.5236 6.14431C17.6928 5.95018 17.9786 5.87253 18.2325 5.88756C18.6014 5.90948 18.9222 6.13773 19.2892 6.15464C19.6739 6.17249 20.0453 6.03879 20.431 6.10079C20.6675 6.13899 20.9017 6.24889 21.0532 6.43425C21.5779 6.28364 22.1476 6.4831 22.4818 6.91863C22.894 6.85445 23.3426 7.12814 23.4687 7.52638C23.9925 7.54329 24.4869 7.96505 24.5453 8.49359C24.7546 8.54901 24.9364 8.69369 25.0479 8.88497C25.1775 9.10666 25.199 9.3609 25.1756 9.61077C25.422 9.73695 25.5473 10.0081 25.5801 10.2949C25.8053 10.4634 25.903 10.7661 25.8571 11.052C26.0295 11.1494 26.1186 11.3761 26.1176 11.5784C26.1167 11.7672 26.0667 11.9344 26.137 12.1166C26.1996 12.2789 26.2221 12.4141 26.1876 12.5841L26.1841 12.6007C26.178 12.6284 26.1729 12.655 26.1683 12.6812C26.2149 12.7222 26.2544 12.7736 26.284 12.8334C26.392 13.052 26.3759 13.3012 26.2936 13.5229C26.3296 13.664 26.325 13.8131 26.2717 13.9488C26.3716 14.093 26.4241 14.2698 26.4087 14.4533C26.3913 14.6588 26.2978 14.8427 26.1559 14.9787C26.1937 15.2593 26.0799 15.5625 25.8741 15.7601C25.9033 15.9281 25.8781 16.1041 25.7864 16.2634C25.7211 16.3769 25.6331 16.4614 25.5316 16.5204C25.535 16.6141 25.5223 16.7099 25.4912 16.8059C25.448 16.9392 25.3749 17.062 25.2786 17.1609C25.3361 17.529 25.1162 17.9375 24.7292 18.0408C24.6967 18.0495 24.6656 18.0535 24.6359 18.0541C24.5975 18.4082 24.5135 18.7574 24.3835 19.089C24.0531 19.9334 23.4522 20.6717 22.6685 21.1323C22.2809 21.36 21.8456 21.5159 21.4011 21.581C21.0813 21.628 20.7736 21.6164 20.4526 21.5845C20.0497 21.5441 19.6449 21.4836 19.2532 21.3797L19.1902 21.3629C19.0279 21.3193 18.8567 21.269 18.716 21.1812C18.5586 21.0829 18.4768 20.9313 18.4406 20.7528C18.4204 20.6535 18.4831 20.5467 18.5916 20.5446L18.5986 20.5446C18.6223 20.5451 18.6459 20.5442 18.6697 20.5427L18.6876 20.5415H18.6885C18.6898 20.5412 18.6904 20.5412 18.6917 20.5412C18.7023 20.5396 18.7126 20.5365 18.7229 20.5349C18.8422 20.5148 18.9466 20.5347 19.0587 20.5721L19.0727 20.5769C19.2614 20.642 19.4484 20.7024 19.6433 20.7472C19.8448 20.7932 20.0487 20.8299 20.2533 20.8587L20.2736 20.8612L20.2799 20.8621L20.283 20.8624C20.2836 20.8624 20.2842 20.8624 20.2849 20.8627L20.3451 20.8703C20.3926 20.8759 20.4401 20.8809 20.4876 20.8859C20.575 20.8947 20.6625 20.9016 20.7499 20.9066C22.2594 20.9917 23.5271 19.8004 23.9097 18.3719C24.0484 17.855 24.0575 17.3393 24.0166 16.8233C24.0034 16.7857 23.9956 16.7441 23.9959 16.6984C23.9959 16.6746 23.9972 16.6511 23.9988 16.6273C23.9479 16.1282 23.8595 15.6288 23.8042 15.1278C23.7396 14.5426 23.7036 13.954 23.7167 13.365C23.7233 13.0741 23.7542 12.786 23.7948 12.498L23.8095 12.3945C23.626 12.3586 23.4554 12.2714 23.3196 12.1451C23.0248 12.3157 22.6433 12.3309 22.3523 12.1507C22.0262 12.3557 21.5707 12.3743 21.2423 12.1738C21.0439 12.3159 20.7938 12.3771 20.5484 12.3232C20.438 12.299 20.3282 12.2465 20.2342 12.1739C20.167 12.1858 20.099 12.1904 20.0314 12.1869L20.0175 12.1947C19.8616 12.277 19.689 12.3312 19.5113 12.3252C19.3797 12.3207 19.2442 12.2947 19.1187 12.2455C18.9847 12.3266 18.8381 12.382 18.6811 12.4018C18.452 12.4308 18.2047 12.38 18.0141 12.2496C17.6658 12.4485 17.2374 12.4792 16.8615 12.3455C16.7845 12.4762 16.678 12.589 16.5532 12.6758C16.5756 12.7561 16.5827 12.8416 16.575 12.9239C16.5624 13.0593 16.5285 13.1806 16.4732 13.2897C16.5315 13.4114 16.5491 13.5609 16.5164 13.7109C16.4699 13.9249 16.3457 14.1111 16.1849 14.256C16.1707 14.5975 15.9839 14.9177 15.6799 15.0956C15.6645 15.1046 15.6492 15.1119 15.6339 15.1185C15.6205 15.1369 15.6044 15.1531 15.5861 15.1667C15.3928 15.3458 15.0868 15.3316 14.8445 15.2304C14.8398 15.2306 14.8351 15.231 14.8304 15.2311C14.7438 15.2333 14.6848 15.1995 14.6498 15.1497C14.6146 15.1516 14.5795 15.1553 14.5443 15.1619C14.4156 15.186 14.2744 15.2324 14.1579 15.2925C13.8556 15.4484 13.7156 15.724 13.6738 16.0552C13.6282 16.4166 13.7319 16.7848 14.0108 17.0293C14.1463 17.1483 14.3197 17.2228 14.4958 17.2541C14.6904 17.2889 14.8984 17.2034 15.0421 17.3709C15.0708 17.4041 15.0905 17.4505 15.0749 17.4952C15.0262 17.6349 14.9459 17.6884 14.8203 17.7078C15.0018 17.9236 15.188 18.1321 15.3941 18.3259C15.6171 18.536 15.8476 18.7395 16.0488 18.9712C16.2614 19.2164 16.4535 19.4763 16.5869 19.7737C16.6631 19.9447 16.7243 20.121 16.7902 20.296L16.802 20.3265C16.8755 20.5125 16.9733 20.6917 16.8602 20.8859C16.8152 20.9623 16.7134 21.0362 16.6197 21.024C16.3558 20.9902 16.2674 20.8114 16.1862 20.5784C16.1249 20.4025 16.0781 20.2215 16.0122 20.0471C15.9999 20.0148 15.9865 19.9828 15.9724 19.9511C15.8202 19.9936 15.6529 19.9598 15.5171 19.8728C15.372 19.9373 15.2112 19.9695 15.056 19.9667C14.8481 19.9631 14.6582 19.9052 14.4949 19.8008C14.4819 19.7973 14.4688 19.794 14.4559 19.7903C14.2075 19.8856 13.9166 19.8686 13.6917 19.714C13.546 19.6139 13.4464 19.4803 13.3899 19.3316C13.2017 19.328 13.0155 19.2611 12.8807 19.1273C12.7569 19.0044 12.6845 18.8459 12.663 18.6811C12.5011 18.649 12.3492 18.5705 12.2301 18.4383C12.1307 18.3278 12.0702 18.1872 12.0498 18.0411C11.8525 17.9847 11.6746 17.8556 11.5775 17.6756C11.4871 17.5079 11.474 17.3261 11.5182 17.1607L11.5068 17.1442C11.3036 17.0376 11.1485 16.8631 11.1326 16.6138C11.1281 16.5428 11.1357 16.4718 11.1549 16.4046C11.148 16.3295 11.1524 16.2544 11.172 16.1817C10.8987 15.9153 10.7997 15.4872 10.9481 15.1334C10.6811 14.8454 10.6105 14.3898 10.8063 14.0479C10.672 13.8851 10.603 13.6775 10.6145 13.4558C10.6289 13.179 10.7554 12.9373 10.9069 12.7134C10.7944 12.5888 10.7345 12.415 10.7389 12.2472C10.7451 12.0039 10.8741 11.7944 11.0356 11.6209C10.8947 11.1926 11.0521 10.7279 11.3979 10.4568C11.3279 10.3413 11.302 10.1982 11.3248 10.0532C11.3647 9.79989 11.5543 9.62736 11.7589 9.49085C11.7161 9.35123 11.7274 9.20059 11.7954 9.05625C11.8863 8.86368 12.0578 8.74157 12.2368 8.63824C12.283 8.21116 12.759 7.84638 13.1581 8.06681C13.0591 7.74901 13.3443 7.40584 13.6723 7.36951C13.8328 6.88169 14.3865 6.57421 14.8844 6.69539C15.1389 6.34658 15.6127 6.21229 16.015 6.36192C16.4573 6.0222 17.006 5.97178 17.5236 6.14431ZM14.3731 15.7227C14.6839 15.7058 14.9169 15.9601 15.0805 16.1927C15.2342 16.4109 14.84 16.6414 14.7251 16.4009C14.6839 16.3151 14.637 16.2243 14.5742 16.1492C14.5637 16.164 14.5544 16.1793 14.5451 16.195L14.5358 16.2109C14.5289 16.2224 14.5218 16.2343 14.5158 16.2466C14.5165 16.2487 14.5071 16.2776 14.5068 16.2788C14.4812 16.3568 14.4253 16.4069 14.3491 16.4338C14.2507 16.4682 14.1576 16.394 14.126 16.307C14.0758 16.168 14.1926 16.0468 14.3141 15.9917C14.1948 15.9723 14.0773 16.013 13.9911 16.105C13.9793 16.1179 13.9593 16.1075 13.9587 16.0916C13.9486 15.8733 14.1763 15.7334 14.3731 15.7227Z" fill="black"/>
<path fill-rule="evenodd" clip-rule="evenodd" d="M21.2085 19.0034C20.9981 18.9175 20.8103 18.7743 20.6731 18.5913C20.6254 18.5277 20.613 18.4606 20.623 18.3991C20.6343 18.33 20.6751 18.2674 20.7308 18.2254C20.7867 18.1833 20.8566 18.1625 20.9242 18.1731C20.9829 18.1823 21.0414 18.2145 21.0876 18.2812L21.0973 18.2946C21.1789 18.405 21.2852 18.4956 21.4064 18.554C21.5232 18.6103 21.6538 18.6366 21.7889 18.6213C22.0463 18.5922 22.2237 18.4529 22.4123 18.2638C22.4357 18.24 22.459 18.2153 22.4825 18.1903C22.4974 18.1676 22.518 18.153 22.5408 18.1454C22.5662 18.1369 22.595 18.1374 22.6213 18.1466C22.6466 18.1554 22.6693 18.1722 22.6845 18.1946C22.699 18.2158 22.7072 18.242 22.7045 18.2722C22.6873 18.4682 22.5849 18.6431 22.4394 18.7804C22.2778 18.933 22.0636 19.0385 21.862 19.0755C21.6398 19.1163 21.4134 19.087 21.2085 19.0034ZM21.9668 15.98C22.2031 16.1237 22.5632 16.4588 22.309 16.8151C22.0097 17.1293 21.5788 16.7691 21.3664 16.6062C21.1695 16.4799 20.9483 16.8047 21.131 16.9521C22.6654 18.0885 23.2881 16.0176 22.0863 15.811C21.954 15.7883 21.9048 15.9355 21.9668 15.98ZM19.2171 14.658C19.2432 14.3338 19.7369 14.2601 19.786 14.581C19.83 14.8684 19.7782 15.1325 19.6488 15.3913C19.5251 15.6385 19.2143 15.5232 19.1908 15.298C19.1593 14.9963 19.2009 14.8597 19.2171 14.658ZM22.975 14.5145C23.0438 14.4243 23.1432 14.3627 23.2622 14.3975C23.6342 14.5063 23.5246 15.0346 23.3939 15.2917C23.323 15.4314 23.0935 15.4668 22.9898 15.3438C22.8208 15.1433 22.7399 14.7429 22.9547 14.5454C22.9605 14.5352 22.967 14.5249 22.975 14.5145ZM19.6435 13.2391L19.7023 13.2288C19.8841 13.1974 20.1101 13.1672 20.2387 13.3134C20.3069 13.3909 20.3304 13.535 20.2387 13.6092C20.0774 13.7398 19.8992 13.6892 19.7059 13.7002C19.5467 13.7094 19.3936 13.7357 19.2402 13.7796C18.9037 13.8758 18.6295 14.0515 18.3421 14.2443C18.3044 14.2696 18.2659 14.2214 18.2839 14.1861C18.4498 13.861 18.7713 13.5939 19.0934 13.4312C19.2653 13.3443 19.4534 13.2722 19.6435 13.2391ZM22.6359 13.0935L22.6809 13.1027C23.1703 13.2051 23.8062 13.4095 24.0379 13.8904C24.0468 13.9584 24.0374 13.973 24.0298 13.9825L24.0273 13.9857C24.0211 13.9938 24.0161 14.005 23.9866 14.0143C23.9784 14.0123 23.9702 14.0103 23.9618 14.0081C23.8556 13.9802 23.7715 13.9419 23.6902 13.902L23.6019 13.8586C23.4996 13.8083 23.3963 13.76 23.2869 13.7242C23.0533 13.648 22.8131 13.5943 22.5691 13.5657C22.5162 13.5595 22.4653 13.5416 22.4252 13.511C22.387 13.482 22.3579 13.4418 22.3446 13.3883C22.3274 13.3192 22.3324 13.2668 22.3695 13.2044C22.3973 13.1575 22.4373 13.1251 22.4831 13.1064C22.5298 13.0874 22.583 13.0829 22.6359 13.0935Z" fill="black"/>
<path fill-rule="evenodd" clip-rule="evenodd" d="M23.2595 19.717C23.1502 19.6813 23.0429 19.6397 22.9351 19.5995C22.384 19.3226 21.7182 19.2724 21.1402 19.5056C20.8565 19.6201 20.592 19.8258 20.3073 19.9606C20.2397 19.9858 20.1716 20.0087 20.1027 20.0279C20.0604 20.0132 20.0181 19.9976 19.9762 19.9819C19.6743 19.8681 19.3903 19.7276 19.1145 19.5731C19.0851 19.5317 19.0546 19.4915 19.0218 19.4528C19.2213 19.4245 19.4167 19.3774 19.5934 19.3288C20.1361 19.18 20.6476 18.9377 21.1884 18.7824C21.692 18.6374 22.2385 18.5582 22.7443 18.7382C22.9843 18.8237 23.1956 18.9734 23.4291 19.0742C23.5499 19.1262 23.6948 19.1772 23.836 19.1847C23.7449 19.403 23.6297 19.6068 23.4723 19.7765C23.4003 19.7612 23.3289 19.7396 23.2595 19.717ZM24.4338 18.0077C24.3855 18.0479 24.1861 18.1775 24.1214 18.2548C24.1047 18.2484 24.088 18.2419 24.0715 18.2352C24.0431 18.2002 24.0011 18.1849 23.9584 18.1858C23.6602 18.0471 23.3947 17.851 23.1577 17.6051C22.9893 17.4307 22.8169 17.2481 22.5919 17.147C22.3268 17.0274 22.066 17.0825 21.7875 17.1007C21.4911 17.1204 21.1984 17.0362 20.9023 17.0766C20.6858 17.1063 20.4829 17.198 20.3077 17.3274C19.9499 17.5913 19.7033 17.962 19.4009 18.2817C19.0579 18.6443 18.636 18.876 18.1668 18.9944C18.1612 18.9906 18.1552 18.9868 18.1493 18.9834C17.8034 18.6703 17.4911 18.3168 17.2147 17.9401C16.9449 17.5722 16.2335 15.9162 16.0617 15.7709C15.9903 15.7104 15.912 15.6845 15.8372 15.6867C15.7017 15.6898 15.5765 15.784 15.5205 15.9324C15.4253 16.1848 15.4729 16.5111 15.4804 16.775C15.4898 17.0982 15.5111 17.421 15.5449 17.7425C15.5784 18.0603 15.6228 18.3772 15.6782 18.6919C15.7061 18.851 15.7371 19.0097 15.7712 19.1678C15.7818 19.2176 15.7953 19.2621 15.8116 19.3034C15.8282 19.3814 15.846 19.459 15.8651 19.536C15.9897 20.0405 16.1862 20.5455 16.5615 20.9178C16.9521 21.3058 17.4829 21.5634 17.9759 21.7939C18.4454 22.0134 18.9374 22.2085 19.4422 22.3613C19.8807 22.5601 20.3502 22.7173 20.8216 22.7999C21.3405 22.891 21.8861 22.8967 22.3872 22.7163C22.6335 22.6277 22.8663 22.504 23.0776 22.35C23.3771 22.1944 23.6466 21.9805 23.8673 21.6975C24.2625 21.1902 24.4511 20.5746 24.5337 19.9398C24.5548 19.7773 24.6342 19.1546 24.6405 19.0577C24.6607 18.7446 24.6808 18.4315 24.701 18.1184C24.7105 17.9706 24.5292 17.9285 24.4338 18.0077Z" fill="black"/>
</svg>
