<svg width="36" height="48" viewBox="0 0 36 48" fill="none" xmlns="http://www.w3.org/2000/svg">
<path fill-rule="evenodd" clip-rule="evenodd" d="M28.8345 37.3236C28.7083 36.6108 28.5926 35.8961 28.4875 35.1799C28.4376 34.8399 28.389 34.4996 28.3452 34.1587C28.3146 33.9198 28.2679 33.6467 28.4304 33.4698C28.6589 33.2208 28.8666 33.0077 28.8945 32.651C28.9209 32.3155 28.8074 31.9497 28.7365 31.6239C28.5878 30.9409 28.4026 30.2662 28.198 29.598C27.9902 28.9191 27.7622 28.2465 27.531 27.5753C27.3149 26.9477 27.1071 26.3144 26.8256 25.7123C26.2913 24.5696 25.3874 23.7233 24.2702 23.1583C23.9924 23.0177 23.4257 22.5161 23.1354 22.4038C22.8686 22.3005 22.8695 22.6021 22.6069 22.4885C22.397 22.3977 22.2015 22.2766 22.0839 22.0738C21.9563 21.8536 21.6362 21.5456 21.5875 21.2893C21.4842 20.746 21.5961 20.2836 21.2084 19.8747C20.8643 19.5116 20.4018 19.2628 19.9233 19.1293C18.8705 18.8355 17.4665 19.0409 16.8313 20.0195C16.5279 20.4869 16.4219 21.0518 16.0126 21.4332C15.6551 21.7662 15.7351 21.9939 15.2721 22.1656C15.2459 22.1753 14.5352 22.0228 14.509 22.0325C14.0025 21.9241 13.5184 22.2276 13.0537 22.4038C12.361 22.6663 11.7015 23.008 11.0818 23.4141C9.83242 24.2331 8.76231 25.2965 7.88009 26.4999C6.99057 27.7132 6.3004 29.0731 5.80898 30.4945C5.68963 30.8397 5.58244 31.1891 5.48788 31.542C5.43495 31.7394 5.3784 31.9443 5.44284 32.1464C5.49555 32.3118 5.61279 32.435 5.75048 32.5342C5.93711 32.6688 6.31148 32.7562 6.30419 33.0268C6.29862 33.2325 6.22885 33.449 6.1948 33.6523C6.15427 33.8944 6.12096 34.138 6.08766 34.3811C5.93618 35.488 5.81827 36.6011 5.76613 37.7173C5.7148 38.8164 5.6722 39.9379 5.74841 41.0367C5.75345 41.1092 5.77505 41.1757 5.80988 41.2319C5.77736 41.2443 5.77486 41.305 5.81533 41.3136C5.84369 41.3196 5.87198 41.3256 5.90034 41.3316C5.95924 41.3762 6.0327 41.4035 6.11724 41.4062C6.17455 41.408 6.23182 41.4106 6.28907 41.4135C6.89317 41.5398 7.49718 41.6592 8.10916 41.7495C8.85308 41.8594 9.59918 41.9489 10.3476 42.0217C11.8855 42.1713 13.4112 42.1217 14.9511 42.041C16.4887 41.9605 18.0253 41.9417 19.5644 41.9818C21.1049 42.0219 22.6448 42.0889 24.1856 42.1163C25.907 42.1469 27.6258 42.0999 29.3422 41.963C29.5776 41.9443 29.7232 41.757 29.6767 41.5231C29.3986 40.1222 29.0835 38.7306 28.8345 37.3236Z" fill="#D08B5B"/>
<path fill-rule="evenodd" clip-rule="evenodd" d="M13.0537 22.4038L13.0874 22.3909C13.5417 22.2133 14.0147 21.9268 14.509 22.0326C14.5264 22.0261 14.8481 22.0917 15.0684 22.1333L14.8593 22.3516L14.4902 22.4226C15.7633 24.5245 17.2689 25.5754 19.0071 25.5754C20.7454 25.5754 22.0643 24.5245 22.9641 22.4226L23.0869 22.3886C23.102 22.3922 23.1182 22.3971 23.1354 22.4038C23.4257 22.5161 23.9924 23.0178 24.2702 23.1583C25.3873 23.7234 26.2913 24.5696 26.8256 25.7123C27.0977 26.2944 27.301 26.9055 27.5095 27.5125L27.531 27.5753C27.7622 28.2466 27.9902 28.9191 28.198 29.598C28.3937 30.2372 28.5716 30.8823 28.7169 31.5349L28.7365 31.624C28.8074 31.9497 28.9209 32.3155 28.8945 32.6511C28.8846 32.7782 28.8518 32.887 28.8034 32.9857L26.2855 33.8921L27.4851 42.0766C26.3863 42.1238 25.2865 42.1359 24.1856 42.1164C22.6448 42.0889 21.1049 42.0219 19.5644 41.9818C18.0719 41.943 16.5818 41.9595 15.0909 42.0339L14.7123 42.0533C13.2534 42.1263 11.8059 42.1636 10.3476 42.0217L10.2482 42.012L10.2482 40.8148L10.7605 34.1483L8.1644 33.6594L5.61599 32.4212C5.53899 32.3442 5.4772 32.2543 5.44284 32.1465C5.38315 31.9592 5.42726 31.7697 5.47615 31.5859L5.48788 31.542C5.58244 31.1892 5.68963 30.8397 5.80898 30.4945C6.3004 29.0732 6.99057 27.7132 7.88009 26.5C8.76231 25.2966 9.83242 24.2331 11.0818 23.4142C11.7015 23.0081 12.361 22.6663 13.0537 22.4038Z" fill="#EC7495"/>
<path fill-rule="evenodd" clip-rule="evenodd" d="M14.029 21.9984C14.1882 21.9915 14.3505 22.0172 14.5093 22.0329C14.5231 22.0342 14.5284 22.0556 14.5128 22.0588C14.2286 22.1182 13.9475 22.1995 13.6683 22.282L13.5488 22.3174C13.234 22.4105 12.9285 22.5066 12.6238 22.6309C12.0164 22.8785 11.4396 23.2127 10.9088 23.5967C8.86459 25.0752 7.38509 27.3138 6.45144 29.6314C6.19789 30.2609 5.98305 30.9059 5.80903 31.5619C5.76671 31.7215 5.7269 31.8817 5.68916 32.0424C5.67808 32.0895 5.62978 32.2102 5.65626 32.2584C5.67967 32.301 5.77069 32.3274 5.81297 32.3495L5.95573 32.4236C6.23419 32.5672 6.69804 32.8032 6.74455 32.8262L6.8171 32.8619C8.00366 33.4438 9.27149 33.9373 10.6067 33.9714L10.6172 33.8574C10.6767 33.2267 10.7549 32.5927 10.9254 31.9815C10.9345 31.9486 10.9763 31.9597 10.9801 31.9889C11.0751 32.7125 11.0448 33.4418 11.0116 34.1688C10.9529 35.4564 10.875 36.7432 10.8057 38.0303C10.7711 38.6741 10.7262 39.3175 10.6858 39.9611C10.6452 40.6058 10.6321 41.2661 10.5396 41.9056C10.519 42.0481 10.3521 42.1257 10.2257 42.1106C10.0858 42.094 9.97826 41.9708 9.97761 41.8295C9.97591 41.457 10.0227 41.0801 10.0487 40.7085C10.0734 40.3554 10.0999 40.0025 10.1271 39.6496C10.2264 38.3618 10.3406 37.0754 10.4462 35.7881C10.4836 35.3315 10.5241 34.8754 10.5657 34.4192C9.15122 34.3736 7.82975 33.8495 6.56909 33.2371C6.55085 33.6516 6.50678 34.0653 6.46412 34.478C6.34502 35.6298 6.24002 36.7812 6.16142 37.9366C6.12174 38.5201 6.09285 39.1044 6.06768 39.6887C6.05532 39.9759 6.04524 40.2632 6.03751 40.5505C6.03492 40.6463 6.03259 40.7421 6.03052 40.8379L6.02622 41.0573C6.0227 41.1963 6.00857 41.3251 5.89163 41.4264C5.77285 41.5291 5.61241 41.5346 5.49485 41.4264C5.33748 41.2814 5.36531 41.0839 5.36997 40.8892C5.37385 40.725 5.37851 40.5608 5.38393 40.3966C5.39479 40.0682 5.40865 39.74 5.42552 39.4119C5.48456 38.2647 5.60251 37.1222 5.75666 35.9843L5.81683 35.545C5.9292 34.7284 6.05257 33.8932 6.30377 33.1066C6.20596 33.0579 6.10844 33.0089 6.01128 32.9597C5.83895 32.8724 5.66077 32.7905 5.49326 32.6942C5.36036 32.6177 5.24574 32.5129 5.20875 32.3582C5.16749 32.1858 5.23058 31.9973 5.27249 31.8292L5.27613 31.8144C5.31723 31.6451 5.36149 31.4765 5.40818 31.3086C5.59754 30.628 5.83169 29.9606 6.10571 29.3094C6.65438 28.0059 7.36258 26.7675 8.22765 25.6478C9.00634 24.6399 9.92621 23.7258 11.0043 23.0403C11.5314 22.7052 12.0931 22.43 12.6871 22.2354C12.9648 22.1445 13.2669 22.0654 13.5576 22.0328C13.7144 22.0153 13.8714 22.0052 14.029 21.9984ZM16.8494 19.9328C17.0386 19.7296 17.4144 19.9399 17.3236 20.209C17.11 20.842 16.7697 21.4195 16.2388 21.8355C15.7397 22.2266 15.1445 22.4805 14.5036 22.4263C14.4987 22.4259 14.4944 22.4247 14.4906 22.4229L14.5458 22.4978C14.9795 23.0846 15.4369 23.6633 15.9883 24.143C17.1117 25.1202 18.6413 25.6473 20.1183 25.2723C21.2803 24.9774 22.3041 24.0581 22.6052 22.8866C22.5621 22.9059 22.5108 22.9125 22.4545 22.9003C22.2136 22.848 21.9751 22.5945 21.8197 22.4128C21.6516 22.2162 21.5203 22.0039 21.4241 21.7639C21.248 21.3247 21.1916 20.7593 21.432 20.3339C21.4617 20.2814 21.5301 20.3108 21.5359 20.362L21.5451 20.4419C21.5914 20.8406 21.6492 21.2263 21.8371 21.5897C21.929 21.7676 22.0393 21.9412 22.1735 22.0901C22.2453 22.1698 22.3231 22.246 22.4071 22.3128C22.489 22.3779 22.5881 22.425 22.6615 22.4996L22.675 22.514L22.6754 22.5114C22.6939 22.3536 22.8046 22.284 22.9128 22.2884C23.0176 22.2926 23.1407 22.3387 23.1883 22.3608L23.1928 22.363C23.9237 22.714 24.5969 23.1714 25.2304 23.679C26.5404 24.7287 27.522 26.1009 27.9976 27.7168C28.231 28.5099 28.3649 29.3271 28.5063 30.1405L28.5934 30.6388C28.7253 31.3897 28.8727 32.1554 29.1706 32.8539C29.2477 33.0346 29.1883 33.204 28.9993 33.2751C28.7634 33.3638 28.5266 33.4497 28.2894 33.5346C28.4059 34.0344 28.4769 34.5515 28.5642 35.0538C28.7496 36.1215 28.9769 37.1824 29.1718 38.2486C29.2714 38.7938 29.3613 39.3408 29.4608 39.8861C29.5087 40.1486 29.5588 40.4109 29.6074 40.6733C29.6336 40.8148 29.6573 40.9568 29.6824 41.0985L29.6867 41.122C29.701 41.1968 29.719 41.2741 29.6985 41.3489C29.675 41.4343 29.6085 41.4945 29.549 41.5557C29.5001 41.6061 29.4294 41.6064 29.3695 41.5789L29.3497 41.5698C29.2427 41.5197 29.1588 41.4697 29.1208 41.3489C29.0968 41.2724 29.0881 41.1863 29.0724 41.1075C29.0423 40.9564 29.0137 40.8051 28.9867 40.6534C28.9328 40.3499 28.8801 40.0462 28.8286 39.7422L28.7805 39.4576C28.6156 38.4767 28.4589 37.4897 28.3798 36.4984C28.3446 36.0586 28.3074 35.6192 28.2698 35.1798L28.2416 34.8501C28.2059 34.4329 28.1623 34.0051 28.1562 33.5823L28.0143 33.6326L27.3223 33.8774C27.1507 33.938 26.9322 34.0623 26.7476 34.0397C26.6572 34.0286 26.5883 34.0002 26.5351 33.9484C26.5988 34.8481 26.685 35.7462 26.8 36.6397C26.9046 37.4528 27.0206 38.2647 27.1575 39.0729C27.2254 39.4731 27.2951 39.873 27.3708 40.2718C27.4086 40.4712 27.4477 40.6703 27.4879 40.8693C27.508 40.9685 27.5319 41.0679 27.5475 41.168C27.5654 41.2826 27.5339 41.3531 27.4699 41.4473C27.4173 41.5248 27.3122 41.5645 27.2269 41.5111C27.1141 41.4402 27.0552 41.3789 27.022 41.2498C26.9918 41.1326 26.9735 41.0103 26.9501 40.8916C26.907 40.6725 26.8654 40.4531 26.8252 40.2334C26.7411 39.774 26.6635 39.3135 26.5943 38.8516C26.3503 37.2244 26.1955 35.5835 26.1173 33.9401C26.0788 33.1292 26.0668 32.3176 26.0737 31.5059C26.0772 31.0898 26.0908 30.6726 26.1202 30.2576C26.15 29.8374 26.212 29.4257 26.2673 29.0097C26.2692 28.995 26.2899 28.9942 26.2908 29.0097C26.317 29.4761 26.358 29.9421 26.3782 30.4098C26.3974 30.8561 26.4058 31.303 26.4211 31.7495C26.4411 32.3363 26.469 32.9235 26.5058 33.5102C26.5725 33.4373 26.673 33.3952 26.7736 33.4116C26.9193 33.381 27.0762 33.3045 27.2152 33.2581L27.7389 33.0831C28.0142 32.9911 28.2896 32.8997 28.5659 32.8111C28.3188 31.9797 28.1496 31.1359 28.0051 30.2798L27.9407 29.8948C27.8131 29.1369 27.6756 28.3787 27.4445 27.6448C27.2016 26.8732 26.8381 26.1559 26.3559 25.5063C25.8805 24.8661 25.3022 24.3023 24.7068 23.775C24.197 23.3237 23.6517 22.9161 23.1318 22.4771C23.1372 22.5062 23.1384 22.5383 23.1336 22.5734C23.023 23.3828 22.601 24.1366 22.0128 24.6972C20.8311 25.8235 19.0819 26.0572 17.5695 25.529C16.1065 25.0182 14.813 23.8082 14.356 22.311C14.3481 22.2854 14.3824 22.2752 14.3962 22.2941C14.4216 22.3288 14.447 22.3636 14.4726 22.3983C14.4708 22.3845 14.478 22.3695 14.495 22.3629C15.0282 22.1569 15.5518 21.8648 15.9515 21.4516C16.1463 21.2502 16.3163 21.022 16.4506 20.7759C16.5148 20.658 16.5726 20.5359 16.6187 20.4098L16.6304 20.3771C16.6862 20.2191 16.7329 20.058 16.8494 19.9328Z" fill="black"/>
<path fill-rule="evenodd" clip-rule="evenodd" d="M24.0583 13.2681C23.9841 12.3055 24.0991 11.2965 23.7289 10.3815C23.0834 8.8634 21.2732 8.35723 19.8699 7.77926C19.3077 7.61272 17.416 7.58945 16.7577 7.36904C15.2679 6.87019 14.9119 6.27583 13.7282 7.22564C13.5283 7.3879 13.4033 7.56424 13.3121 7.80518L13.3158 7.80622C13.2898 7.90666 13.3177 8.00689 13.3764 8.08344C12.8631 8.60941 12.6483 9.39795 12.9117 10.0981C13.7711 11.9201 13.7307 12.9052 13.4538 14.8639C13.0922 16.6925 13.9185 17.3604 15.287 18.3554C15.2313 18.4637 15.2197 18.6076 15.2924 18.7032C16.8749 20.9325 19.8586 21.9969 22.4151 20.8654C23.4529 20.4024 23.9161 19.2945 24.1805 18.2948C24.4885 17.1755 24.5831 15.996 24.3324 14.8557C24.2313 14.3284 24.0995 13.8049 24.0583 13.2681Z" fill="#D08B5B"/>
<path fill-rule="evenodd" clip-rule="evenodd" d="M12.7246 10.5373L13.6656 11.1657L17.0337 7.60607L15.9128 6.72168C15.9128 6.72168 13.8794 8.22832 13.4795 8.62596C13.0797 9.0236 12.7246 10.5373 12.7246 10.5373Z" fill="#9FD8E5"/>
<path fill-rule="evenodd" clip-rule="evenodd" d="M14.9309 2.60296C15.123 2.57404 15.268 2.69351 15.337 2.86191L15.3406 2.87098C15.3628 2.92828 15.3875 2.98401 15.414 3.03881C15.8947 2.80241 16.5806 2.86315 16.8848 3.3419C17.1019 3.68382 16.9694 4.08961 16.8876 4.45219L16.8339 4.6911C16.9377 4.75734 17.016 4.87598 17.0124 4.99882L17.0119 5.00828L16.9901 5.34143C17.0594 5.27098 17.1228 5.19427 17.1793 5.11255C17.2184 5.04084 17.2605 4.97039 17.3058 4.90213C17.5722 4.50041 18.1703 4.84953 17.9505 5.27975C17.9083 5.36272 17.8608 5.44131 17.8099 5.51709C17.7524 5.62887 17.7053 5.74378 17.6691 5.86182C17.7731 5.90722 17.853 6.00804 17.8615 6.16022C17.8811 6.5156 17.695 6.81211 17.3989 6.99842C17.3118 7.05321 17.2218 7.06386 17.1403 7.0435C17.1259 7.06292 17.1116 7.08233 17.0978 7.10206C17.2159 7.19818 17.3224 7.30777 17.4139 7.42926C17.6894 7.38793 17.9664 7.36851 18.2434 7.36789C18.582 7.20163 18.9874 7.20507 19.3513 7.26738C19.5855 7.30746 19.8104 7.38542 20.0409 7.44147C20.2839 7.50033 20.5306 7.50253 20.7764 7.5426C21.0862 7.59301 21.358 7.73642 21.5288 7.9653C21.7165 7.97094 21.9139 8.04797 22.0776 8.15255C22.4586 8.39615 22.8375 8.64319 23.2176 8.88836C23.3635 8.98248 23.418 9.13274 23.3912 9.30034L23.3894 9.31106L23.3766 9.38057L23.4066 9.42335C23.5229 9.58803 23.6495 9.76052 23.7248 9.94229C23.8641 10.1436 23.99 10.3547 24.1015 10.5723C24.2517 10.8647 24.3757 11.1747 24.4597 11.4928C24.4806 11.5733 24.5016 11.6544 24.5153 11.7364C24.535 11.8523 24.5047 11.9421 24.4881 12.0533C24.4675 12.1942 24.46 12.337 24.4382 12.4782C24.4235 12.5718 24.3441 12.6178 24.2611 12.6203C24.2923 12.8586 24.3148 13.0985 24.3363 13.3364C24.3666 13.6765 24.3872 14.0174 24.405 14.3584C24.4969 14.4921 24.6846 14.5979 24.8201 14.6346C25.0078 14.685 25.2046 14.6302 25.382 14.566C25.4935 14.5256 25.585 14.6662 25.5307 14.7601C25.3598 15.0551 24.9944 15.0538 24.7177 14.9233C24.6006 14.8682 24.4978 14.7883 24.4216 14.6844C24.4263 14.7833 24.4313 14.8823 24.4363 14.9815L24.4409 15.0714C24.4972 16.1213 24.6187 17.2074 24.4219 18.247C24.0812 20.0477 22.5947 21.4188 20.7789 21.5252C19.8261 21.5811 19.0326 21.299 18.638 21.1416C18.2434 20.9842 18.3968 20.6633 18.6707 20.755C19.1426 20.913 20.0094 21.1485 20.7852 21.0468C22.6135 20.8072 24.1639 19.891 24.0046 15.9453C23.9821 15.3857 23.9125 14.8259 23.8975 14.2664C23.8831 13.7194 23.8885 13.172 23.8644 12.6253L23.8564 12.4388C23.847 12.2209 23.837 12.0019 23.8207 11.7837C23.801 11.6992 23.7848 11.6134 23.7607 11.5304C23.6954 11.3046 23.6102 11.0851 23.5043 10.8757C23.4809 10.8935 23.4546 10.9064 23.4262 10.9114C23.2104 10.9502 23.008 10.9392 22.8059 10.8491C22.7116 10.8074 22.6285 10.752 22.5511 10.6834C22.5142 10.6512 22.4895 10.6199 22.4702 10.5873C22.3724 10.5889 22.2747 10.5594 22.2134 10.489C22.1436 10.4087 22.132 10.3257 22.1594 10.249L22.1622 10.2413L22.1553 10.2388C22.0729 10.4527 21.9086 10.6408 21.7284 10.768C21.4435 10.9696 21.0872 11.0278 20.7455 11.0332C20.3682 11.0388 19.9703 10.9806 19.598 10.9211C19.4996 10.9054 19.4019 10.8876 19.306 10.8635C19.3022 10.8672 19.2985 10.8716 19.2944 10.8754C18.9749 11.1819 18.5255 11.2608 18.1201 11.0858C17.8858 10.9846 17.6894 10.8218 17.5157 10.6352C17.5132 10.7329 17.5082 10.8306 17.4998 10.9273L17.4963 10.9658C17.479 11.146 17.4457 11.3371 17.3099 11.4671C17.0903 11.6779 16.7717 11.5933 16.5184 11.4562C16.5188 11.4628 16.5188 11.4696 16.5188 11.4765C16.5872 11.7095 16.6559 11.9428 16.7246 12.176L16.7394 12.2257C16.7893 12.3914 16.8441 12.5572 16.8592 12.7305C16.8879 13.0618 16.668 13.389 16.3007 13.2779C16.1081 13.2198 15.9537 13.0574 15.8056 12.9273L15.7123 12.8464C15.9537 13.6376 16.1212 14.457 16.1368 15.2827C16.1377 15.3275 16.0993 15.3613 16.0568 15.3629C15.9575 15.3669 15.8507 15.3472 15.7507 15.3075C15.7451 15.3071 15.7395 15.3068 15.7336 15.3059C15.563 15.2812 15.4047 15.2195 15.2651 15.1284C15.2972 15.2307 15.3116 15.3406 15.3032 15.4556C15.301 15.4834 15.2576 15.4931 15.2513 15.4624C15.1707 15.0651 14.7069 14.7648 14.3072 14.8409C13.878 14.9226 13.5619 15.2927 13.4845 15.7139C13.4014 16.1663 13.5604 16.6895 13.8549 17.0387C13.9904 17.1996 14.1688 17.3339 14.3805 17.3677C14.4774 17.3831 14.5779 17.3778 14.672 17.3502C14.7119 17.3383 14.7494 17.3217 14.7875 17.306C14.8431 17.2835 14.9081 17.2801 14.9605 17.2563C15.0795 17.2027 15.1992 17.3126 15.1389 17.4351C15.0864 17.5418 15.0392 17.6138 14.9521 17.6689C15.0227 17.7554 15.0867 17.8756 15.1105 17.9078C15.2316 18.0719 15.3547 18.2269 15.4928 18.3769C15.6333 18.5291 15.7867 18.6681 15.9488 18.7968L16.0169 18.8507C16.173 18.9749 16.309 19.0899 16.4191 19.268C16.5059 19.4086 16.3935 19.5993 16.2308 19.5971C15.7217 19.5899 15.3516 19.1415 15.088 18.7498C15.0505 18.6938 15.0152 18.6346 14.9824 18.5738C14.9705 18.5929 14.9574 18.6108 14.9427 18.6271L14.9718 18.7053C15.058 18.9358 14.6866 19.0864 14.5789 18.8713C14.5005 18.7154 14.4096 18.5669 14.3084 18.4267C14.2487 18.4182 14.1903 18.3819 14.1579 18.3349C14.0757 18.2156 13.9836 18.0951 13.9058 17.968C13.8627 17.9269 13.8184 17.8875 13.7731 17.849C13.76 17.8606 13.7465 17.8722 13.7337 17.8844C13.6769 18.0143 13.6066 18.133 13.5195 18.2448L13.5008 18.2686C13.3338 18.4795 13.1164 18.6954 12.8473 18.747C12.7652 18.7626 12.6862 18.6603 12.7589 18.5948C12.9473 18.4251 13.17 18.3096 13.3436 18.1201C13.4292 18.0268 13.5077 17.924 13.5753 17.8163L13.5907 17.7914C13.6019 17.7729 13.6135 17.7544 13.6253 17.7356C13.5469 17.6821 13.4685 17.6282 13.3902 17.5744C13.1743 17.7592 12.8933 17.8438 12.6546 17.9969L12.6309 18.0124C12.4151 18.1571 12.1877 17.8371 12.3607 17.6614C12.5515 17.4685 12.7107 17.2385 12.8797 17.0241C12.8002 16.8773 12.7626 16.7038 12.7485 16.5285C12.7429 16.4789 12.7386 16.4292 12.7343 16.3796C12.6131 16.3814 12.4913 16.3398 12.3882 16.2681L12.3492 16.2402C12.2239 16.2803 12.0924 16.2997 11.9666 16.2963C11.6705 16.2875 11.5493 15.9484 11.7345 15.7339C11.9235 15.5147 12.2542 15.4668 12.5163 15.5733C12.5247 15.5689 12.5334 15.5642 12.5419 15.5595C12.5294 15.5019 12.5322 15.4496 12.5464 15.4037L12.5422 15.3757C12.4846 15.2871 12.4467 15.1859 12.4324 15.079C12.421 14.9943 12.4233 14.9103 12.4429 14.8267C12.4494 14.7989 12.4629 14.77 12.4732 14.741C12.4519 14.6871 12.4394 14.6314 12.4355 14.5753C12.4296 14.5682 12.4236 14.5609 12.418 14.553C12.288 14.37 12.3142 14.1495 12.438 14.0014C12.4386 13.992 12.4394 13.9825 12.4407 13.9732C12.4335 13.9568 12.4268 13.9403 12.4207 13.9236C12.2998 13.8014 12.2111 13.6542 12.2276 13.4719C12.2373 13.3646 12.2813 13.2681 12.3479 13.1959C12.3361 13.1609 12.335 13.1203 12.3493 13.0865C12.243 12.8033 12.2565 12.4621 12.3329 12.1453C12.3161 12.0971 12.3073 12.0448 12.3092 11.9894C12.3179 11.7543 12.5209 11.5382 12.7614 11.541C12.7904 11.5413 12.8175 11.5451 12.8435 11.5506L12.8439 11.545C12.8531 11.4744 12.8725 11.4092 12.9007 11.3507C12.8868 11.3457 12.874 11.3384 12.8627 11.3288C12.7086 11.4112 12.5455 11.4742 12.3746 11.5171C12.2488 11.5487 12.1201 11.4055 12.1982 11.2872C12.2345 11.2323 12.2745 11.183 12.3176 11.138C12.2563 11.1383 12.1941 11.1425 12.1312 11.1506C12.0181 11.1653 11.8919 11.088 11.8185 10.9834C11.7273 11.0723 11.6358 11.1609 11.5443 11.2495C11.3125 11.4747 10.9624 11.309 10.9259 11.0122C10.8569 10.9937 10.7925 10.9624 10.736 10.9176C10.3706 11.0767 9.97734 11.1641 9.57537 11.1806C9.28678 11.1925 9.11812 10.8556 9.25305 10.6177C9.34362 10.458 9.45606 10.3146 9.58568 10.19C9.38454 10.2516 9.17684 10.2961 8.96477 10.3246C8.85014 10.3399 8.68805 10.2448 8.64213 10.1392C8.4666 9.73345 8.4816 9.31043 8.68367 8.9156C8.69148 8.89994 8.70023 8.88491 8.70866 8.86988C8.72959 8.81759 8.75239 8.76593 8.77706 8.71521C8.52845 8.45532 8.50689 8.06894 8.64088 7.7455C8.58716 7.65814 8.56655 7.55294 8.60309 7.45775C8.7071 7.18378 8.85702 6.93078 9.04629 6.71348C9.02817 6.67842 9.01224 6.64116 8.99881 6.60108C8.89231 6.27701 9.01568 5.88593 9.2646 5.66018C9.42108 5.51802 9.60098 5.43286 9.79306 5.37838C9.87396 5.23497 9.97796 5.10566 10.0991 4.99669C10.1038 4.98636 10.1085 4.97603 10.1138 4.9657C10.3025 4.60937 10.646 4.41838 11.0143 4.37423C11.0286 4.23489 11.1223 4.10182 11.2585 4.05861C11.296 3.93806 11.3519 3.82284 11.4287 3.71826C11.5496 3.55356 11.7504 3.47591 11.9397 3.58393C12.0434 3.64311 12.1427 3.71106 12.2358 3.7862C12.2776 3.76655 12.325 3.75383 12.3785 3.74978L12.392 3.74894L12.6999 3.73329C12.8289 3.67599 12.9576 3.61587 13.0866 3.55732C13.164 3.49313 13.2505 3.43959 13.3449 3.39982C13.4517 3.35505 13.561 3.32969 13.6706 3.32123C13.7596 3.29211 13.8493 3.26644 13.9405 3.2464C14.1547 3.19943 14.379 3.17313 14.6014 3.17532C14.6059 3.11762 14.6082 3.05923 14.6077 3.00015L14.6073 2.97055C14.6023 2.78112 14.7532 2.62988 14.9309 2.60296ZM14.7151 17.7591C14.6844 17.7657 14.6535 17.771 14.6226 17.7748C14.632 17.7979 14.6413 17.8211 14.6504 17.8443C14.6754 17.8584 14.7007 17.8718 14.726 17.8844C14.7185 17.8418 14.7141 17.7989 14.7151 17.7591ZM13.1104 17.2811L13.0896 17.3194C13.0863 17.3257 13.083 17.3319 13.0797 17.338C13.1237 17.3345 13.1681 17.3355 13.2118 17.3405L13.2117 17.3358C13.2061 17.3339 13.2004 17.3322 13.1951 17.3295C13.1649 17.315 13.1369 17.2987 13.1104 17.2811ZM13.9776 15.5323C14.254 15.5484 14.4881 15.5909 14.7394 15.7121L14.761 15.7226C14.983 15.8332 15.3503 16.0373 15.3194 16.3301C15.3107 16.4134 15.2504 16.501 15.1554 16.4945C14.8953 16.4766 14.7466 16.2136 14.5704 16.0495C14.3927 15.8842 14.1744 15.7142 13.9592 15.6005C13.9288 15.5845 13.9408 15.5339 13.9739 15.5322L13.9776 15.5323ZM12.7246 11.675C12.6584 11.6772 12.6805 11.7417 12.7146 11.6879C12.7174 11.6835 12.7208 11.6791 12.7246 11.675ZM16.2987 7.36908C15.6717 7.38561 15.0405 7.7568 14.5708 8.132C14.1621 8.45842 13.8092 8.84668 13.4967 9.26516C13.4163 9.47356 13.3473 9.68632 13.289 9.90065C13.2505 10.0422 13.2265 10.1853 13.1943 10.328L13.1843 10.3718C13.1591 10.4192 13.1403 10.4701 13.1266 10.5227C13.1835 10.58 13.2574 10.621 13.3387 10.6404C13.3649 10.6467 13.3867 10.6602 13.4039 10.6782C13.4694 10.5687 13.5266 10.4531 13.5599 10.3305L13.5611 10.3249C13.687 10.1182 13.8236 9.91802 13.9701 9.72468C14.3743 9.19082 14.8194 8.70425 15.3544 8.29939C15.7601 7.99255 16.2136 7.75208 16.6958 7.59583C16.5778 7.50036 16.4438 7.42484 16.2987 7.36908Z" fill="black"/>
<path fill-rule="evenodd" clip-rule="evenodd" d="M21.2085 19.0034C20.9981 18.9175 20.8103 18.7743 20.6731 18.5913C20.6254 18.5277 20.613 18.4606 20.623 18.3991C20.6343 18.33 20.6751 18.2674 20.7308 18.2254C20.7867 18.1833 20.8566 18.1625 20.9242 18.1731C20.9829 18.1823 21.0414 18.2145 21.0876 18.2812L21.0973 18.2946C21.1789 18.405 21.2852 18.4956 21.4064 18.554C21.5232 18.6103 21.6538 18.6366 21.7889 18.6213C22.0463 18.5922 22.2237 18.4529 22.4123 18.2638C22.4357 18.24 22.459 18.2153 22.4825 18.1903C22.4974 18.1676 22.518 18.153 22.5408 18.1454C22.5662 18.1369 22.595 18.1374 22.6213 18.1466C22.6466 18.1554 22.6693 18.1722 22.6845 18.1946C22.699 18.2158 22.7072 18.242 22.7045 18.2722C22.6873 18.4682 22.5849 18.6431 22.4394 18.7804C22.2778 18.933 22.0636 19.0385 21.862 19.0755C21.6398 19.1163 21.4134 19.087 21.2085 19.0034ZM21.9668 15.98C22.2031 16.1237 22.5632 16.4588 22.309 16.8151C22.0097 17.1293 21.5788 16.7691 21.3664 16.6062C21.1695 16.4799 20.9483 16.8047 21.131 16.9521C22.6654 18.0885 23.2881 16.0176 22.0863 15.811C21.954 15.7883 21.9048 15.9355 21.9668 15.98ZM19.2171 14.658C19.2432 14.3338 19.7369 14.2601 19.786 14.581C19.83 14.8684 19.7782 15.1325 19.6488 15.3913C19.5251 15.6385 19.2143 15.5232 19.1908 15.298C19.1593 14.9963 19.2009 14.8597 19.2171 14.658ZM22.975 14.5145C23.0438 14.4243 23.1432 14.3627 23.2622 14.3975C23.6342 14.5063 23.5246 15.0346 23.3939 15.2917C23.323 15.4314 23.0935 15.4668 22.9898 15.3438C22.8208 15.1433 22.7399 14.7429 22.9547 14.5454C22.9605 14.5352 22.967 14.5249 22.975 14.5145ZM19.6435 13.2391L19.7023 13.2288C19.8841 13.1974 20.1101 13.1672 20.2387 13.3134C20.3069 13.3909 20.3304 13.535 20.2387 13.6092C20.0774 13.7398 19.8992 13.6892 19.7059 13.7002C19.5467 13.7094 19.3936 13.7357 19.2402 13.7796C18.9037 13.8758 18.6295 14.0515 18.3421 14.2443C18.3044 14.2696 18.2659 14.2214 18.2839 14.1861C18.4498 13.861 18.7713 13.5939 19.0934 13.4312C19.2653 13.3443 19.4534 13.2722 19.6435 13.2391ZM22.6359 13.0935L22.6809 13.1027C23.1703 13.2051 23.8062 13.4095 24.0379 13.8904C24.0468 13.9584 24.0374 13.973 24.0298 13.9825L24.0273 13.9857C24.0211 13.9938 24.0161 14.005 23.9866 14.0143C23.9784 14.0123 23.9702 14.0103 23.9618 14.0081C23.8556 13.9802 23.7715 13.9419 23.6902 13.902L23.6019 13.8586C23.4996 13.8083 23.3963 13.76 23.2869 13.7242C23.0533 13.648 22.8131 13.5943 22.5691 13.5657C22.5162 13.5595 22.4653 13.5416 22.4252 13.511C22.387 13.482 22.3579 13.4418 22.3446 13.3883C22.3274 13.3192 22.3324 13.2668 22.3695 13.2044C22.3973 13.1575 22.4373 13.1251 22.4831 13.1064C22.5298 13.0874 22.583 13.0829 22.6359 13.0935Z" fill="black"/>
<path fill-rule="evenodd" clip-rule="evenodd" d="M22.6294 19.4845C22.3379 19.2247 22.0112 18.7025 21.5924 19.1157C21.4888 19.2325 21.4469 19.4942 21.2885 19.5456C21.0782 19.6139 20.8698 19.3912 20.7981 19.2203C20.5048 18.2704 21.7171 18.0098 22.4078 18.1633C22.7452 18.3019 22.9937 18.8599 23.0087 19.1511C23.0184 19.3468 22.8529 19.6345 22.6294 19.4845ZM24.8284 18.0204C24.8256 18.0078 24.8216 17.9964 24.8168 17.986C24.6879 17.9373 24.5859 17.987 24.5229 18.0799C24.5249 18.103 24.5318 18.1264 24.5362 18.1492C24.4875 18.2518 24.4437 18.3786 24.3777 18.4672C24.3647 18.4682 24.3512 18.4668 24.3383 18.463C23.2455 18.5772 23.779 17.4334 22.6707 17.1494C21.8139 17.008 20.2655 17.1699 19.8613 18.062C19.5426 19.4869 17.9218 18.494 17.3897 17.753C16.8219 17.0786 16.4547 16.2545 16.1007 15.4548C16.0259 15.2856 15.7925 15.4066 15.8179 15.569C15.4907 16.2256 15.5016 17.0143 15.4205 17.7336C15.2827 19.1688 15.1484 21.1814 16.4813 22.0577C18.218 24.0215 22.5547 24.7144 24.5578 22.9101C25.2512 21.4188 25.1657 19.5994 24.8284 18.0204Z" fill="black"/>
<path fill-rule="evenodd" clip-rule="evenodd" d="M24.6048 16.2605C24.3941 16.5438 24.0034 16.634 23.643 16.6028C22.8659 16.528 22.6213 15.645 22.5958 14.9587C23.1169 15.1053 22.5517 14.0666 24.3332 13.9524C24.9612 13.9 24.7881 14.2795 25.0655 14.5567C25.0598 15.1385 24.963 15.7707 24.6048 16.2605ZM20.903 15.592C20.4442 17.7416 17.9316 17.2303 17.6676 15.2926C17.9114 15.1205 17.8472 14.6955 18.15 14.5416C18.6298 14.2349 19.2297 14.248 19.7746 14.2552C20.4712 14.3031 20.6697 14.5917 21.0275 14.9066C21.0103 15.117 20.9607 15.3663 20.903 15.592ZM25.6001 13.5964C25.5744 13.5921 25.5486 13.588 25.5228 13.5843C25.5027 13.5728 25.479 13.564 25.4515 13.5587C25.3888 13.5428 25.3265 13.5321 25.2643 13.5263C24.3712 13.3252 22.3053 13.6107 22.22 14.373C21.9356 14.468 21.6896 14.383 21.36 14.3914C21.1091 13.3423 16.7716 13.4904 16.563 14.1229C16.5622 14.1227 16.5614 14.1225 16.5606 14.1222C16.3602 14.0602 16.0647 14.0751 15.8352 14.0653C15.3454 14.055 14.855 14.0987 14.3757 14.2021C13.4782 14.3448 12.2533 14.5118 12.8775 15.633C12.8776 15.6332 12.8777 15.6334 12.8779 15.6336L12.878 15.6335C12.9855 15.7438 13.1681 15.655 13.1749 15.5057C12.965 14.9745 13.439 14.9107 13.8037 14.7581C14.7112 14.4319 15.6351 14.3867 16.5736 14.4876C16.6442 14.5708 16.7513 14.6433 16.8646 14.6812C17.4921 14.7854 17.1614 15.2511 17.558 15.3188C17.4852 16.9421 19.4551 17.8281 20.5966 16.7611C21.0523 16.3153 21.161 15.655 21.2666 15.0598C21.3225 15.0472 21.358 15.0167 21.3788 14.9762C21.5131 14.842 21.5976 14.7181 21.8633 14.6812C22.129 14.6444 22.3335 14.7183 22.3612 14.741C22.3681 14.755 22.3756 14.7691 22.3843 14.7832C22.3965 14.8042 22.413 14.821 22.4318 14.8342C22.1694 16.4506 23.4238 17.4728 24.6901 16.6345C25.2403 16.1167 25.3566 15.3239 25.3796 14.6164C25.4541 14.5713 25.5014 14.4841 25.4756 14.3744C25.44 14.2231 25.5234 14.0922 25.6563 14.0264C25.829 13.941 25.7984 13.6292 25.6001 13.5964Z" fill="black"/>
</svg>
