<svg width="39" height="48" viewBox="0 0 39 48" fill="none" xmlns="http://www.w3.org/2000/svg">
<path fill-rule="evenodd" clip-rule="evenodd" d="M20.407 19.0902C22.0864 18.9699 24.3889 19.3029 24.8746 21.2185C25.0252 21.9155 25.322 22.2215 25.8207 22.6774C28.9859 26.7302 17.9425 27.4114 17.3748 23.4594C16.1788 23.8951 14.8769 23.9874 13.6802 24.4278C13.0311 24.6677 12.4426 25.0462 11.8786 25.4419C9.57878 27.076 7.31152 28.7567 5.01991 30.4025C5.9067 30.811 7.59271 32.3708 6.9057 33.4189C6.74566 33.623 6.5081 33.7638 6.29796 33.913L6.18715 33.9922C5.94876 34.1631 5.54746 34.4544 5.32554 34.6127L5.28462 34.6425C5.26857 34.6541 5.25047 34.6671 5.23412 34.6788C6.83443 37.0194 8.70733 39.1791 10.7848 41.1073C10.9617 41.2718 10.8893 41.6397 10.6332 41.6825L10.3282 41.7273C9.34336 41.8708 8.33978 41.9999 7.3473 41.922C6.38069 41.8168 5.79822 40.9608 5.13744 40.3408C3.81791 38.9915 2.58958 37.5523 1.47077 36.0319L1.44748 35.9998C1.09927 35.5238 0.637085 35.0373 0.60326 34.4226C0.54157 34.2378 0.703917 33.973 0.859911 33.847L0.913166 33.7701C1.74983 32.5663 2.69673 31.4055 3.88307 30.5337C3.87866 30.4038 3.93869 30.2673 4.05756 30.1812L9.01556 26.5918C10.2948 25.7111 11.4838 24.6761 12.8704 23.9649C14.2883 23.282 15.8883 23.2551 17.3413 22.6852C17.3721 22.2744 18.2354 22.1695 18.2081 22.233C19.119 21.683 19.588 21.0285 19.7326 20.4271C19.8772 19.8256 19.6975 19.2771 20.407 19.0902ZM32.6678 31.9769C34.2008 29.6692 35.6622 32.2225 36.3004 33.7613C37.0545 35.8672 35.4929 38.4578 34.484 40.2732C34.1124 40.7774 33.6237 41.8409 32.9688 41.918C31.3187 41.9112 29.6663 41.795 28.0153 41.7604C26.9492 41.4958 28.4449 39.893 29.4782 40.4785C29.7912 40.5956 29.9476 40.9512 30.2529 41.0653C30.3641 41.089 30.3718 41.0394 30.417 40.9286L30.4234 40.9131C30.5041 40.7214 30.5823 40.5286 30.6617 40.3364C31.334 38.6803 32.0446 37.0389 32.7512 35.3982C32.9022 35.0419 32.6904 34.7484 32.4152 34.5364C32.2045 34.3629 31.2986 33.9393 32.1521 34.1257C31.8235 33.3626 32.2184 32.588 32.6678 31.9769ZM28.8615 28.8179C29.0091 28.7995 29.1987 28.9483 29.2214 29.0924C29.4097 30.2875 29.1999 31.4689 28.9484 32.6379L28.9022 32.8519C28.8094 33.2783 28.7057 33.713 28.4744 34.0867C28.2383 34.4681 27.8812 34.7555 27.4711 34.9303C26.1558 35.4546 24.52 34.9361 23.5524 33.9557C22.9334 33.1075 23.4776 32.0419 23.5814 31.1122C23.4832 30.8617 23.447 30.572 23.3903 30.3137L23.3833 30.2829L23.1627 29.3194C23.1141 29.1068 23.2689 28.816 23.5233 28.8452C25.2971 29.0487 27.0899 29.0396 28.8615 28.8179Z" fill="#D08B5B"/>
<rect x="23.0625" y="28.8691" width="6.22848" height="6.26223" fill="#FDEA6B"/>
<path fill-rule="evenodd" clip-rule="evenodd" d="M35.0558 31.6755C35.0504 31.6518 35.0789 31.6336 35.0974 31.6514C35.4094 31.9523 35.6298 32.3368 35.8717 32.6931C36.1021 33.0325 36.3528 33.3588 36.5246 33.7333C36.6842 34.0815 36.7872 34.4347 36.8179 34.8173C36.8486 35.1971 36.8088 35.5779 36.7418 35.952C36.6101 36.6891 36.3284 37.387 36.0191 38.0649C35.7185 38.7239 35.3788 39.3642 35.02 39.9928L34.8915 40.2172C34.7346 40.4904 34.5761 40.7632 34.4063 41.0279C34.195 41.3573 34.0022 41.6973 33.7237 41.9722C33.5259 42.1679 33.1531 41.9722 33.2432 41.6926C33.2824 41.5708 33.313 41.4562 33.3738 41.3431C33.4198 41.257 33.4717 41.1734 33.5206 41.0886C33.6182 40.9189 33.7149 40.7486 33.8126 40.5789C34.0176 40.2222 34.2335 39.8722 34.4367 39.5143C34.7891 38.8937 35.1218 38.2615 35.416 37.6109L35.4506 37.5341C35.7214 36.9316 35.9779 36.3075 36.0968 35.6558C36.222 34.9692 36.1099 34.322 35.8661 33.6766C35.74 33.3428 35.5982 33.0166 35.4508 32.6916L35.4224 32.6295C35.2801 32.3193 35.1291 32.0107 35.0558 31.6755ZM19.9024 19.7986C19.9052 19.7864 19.9259 19.7854 19.9277 19.7986C20.0154 20.3816 19.8204 20.9984 19.5027 21.4834C19.3293 21.7483 19.1155 21.9875 18.8636 22.1798L18.844 22.1946C18.5866 22.3871 18.2388 22.573 17.9193 22.4482C17.9093 22.4443 17.8999 22.44 17.8911 22.435C17.9271 22.4907 17.9603 22.5493 17.9941 22.6078C18.0946 22.7822 18.1847 22.9629 18.2827 23.1389C18.458 23.4535 18.6667 23.735 18.9306 23.9814C19.9856 24.9666 21.4671 25.2007 22.8584 25.1895L22.9567 25.1886C23.5678 25.1843 24.3671 25.2155 24.8389 24.773C25.0924 24.5354 25.232 24.1975 25.3581 23.8803C25.4821 23.5694 25.5669 23.2484 25.6698 22.9322C25.4548 22.7848 25.2576 22.6047 25.1027 22.3943C24.9412 22.1751 24.8191 21.9284 24.7487 21.665L24.7383 21.6257C24.6839 21.4157 24.6291 21.1379 24.7168 20.9396C24.7268 20.9167 24.7644 20.9183 24.775 20.9396C24.8223 21.0344 24.8313 21.1415 24.8605 21.243C24.8943 21.361 24.9324 21.4784 24.9828 21.5902C25.0802 21.8069 25.2088 22.0129 25.3631 22.1933C25.4905 22.3426 25.6285 22.4798 25.7863 22.595C25.8792 22.4344 26.0949 22.4128 26.2755 22.4657C26.5176 22.5364 26.7563 22.6272 26.9897 22.7232L27.0364 22.7425C27.267 22.8383 27.5277 22.9263 27.7437 23.0568C27.8749 23.1194 28.0007 23.1824 28.119 23.2381C28.7085 23.5152 29.2893 23.8091 29.8674 24.1088L29.9913 24.1731C30.2335 24.2993 30.4736 24.4267 30.6842 24.6027C30.8986 24.7818 31.0652 25.0266 31.2216 25.2561C31.5794 25.7809 31.9165 26.3207 32.2702 26.8483C32.9844 27.9129 33.6986 28.9775 34.417 30.0395C34.5907 30.2966 34.7866 30.5474 34.9425 30.8154C35.0918 31.0716 35.0877 31.3346 35.0586 31.6204L35.0531 31.6729C34.9973 32.1973 34.9014 32.7009 34.6073 33.1506C34.1443 33.8576 33.4151 34.2978 32.6436 34.6009C32.7378 34.6711 32.8263 34.7468 32.9387 34.7951C33.1115 34.869 33.2958 34.9072 33.4827 34.9225C33.6821 34.9385 33.9068 34.8887 34.0683 35.0243C34.1331 35.0784 34.1349 35.2087 34.0683 35.2629C33.913 35.3896 33.7123 35.3533 33.5231 35.3321L33.5118 35.3308C33.3362 35.3114 33.1631 35.2788 32.9982 35.2143C32.9575 35.1983 32.9171 35.1805 32.878 35.1608C32.8792 35.1642 32.8799 35.1683 32.8792 35.1727C32.8511 35.3884 32.79 35.5924 32.7255 35.7985L32.6846 35.9292C32.6013 36.1959 32.5174 36.4621 32.431 36.7282C32.2666 37.2349 32.0876 37.7367 31.9079 38.238L31.7528 38.6705C31.5935 39.1142 31.4321 39.5573 31.2539 39.9937C31.1437 40.2629 31.0329 40.5322 30.9224 40.8012C30.8144 41.0639 30.7246 41.3475 30.5907 41.5977C30.4805 41.8038 30.18 41.6562 30.2282 41.4446C30.2914 41.1669 30.4107 40.8913 30.5018 40.6211C30.5944 40.3468 30.6852 40.0722 30.7794 39.7986C30.9432 39.3232 31.1247 38.8541 31.3071 38.3854L31.4879 37.9209C31.6652 37.4657 31.8446 37.011 32.0364 36.5617L32.0573 36.5124C32.2565 36.0425 32.4622 35.514 32.8241 35.1499C32.8288 35.1448 32.8354 35.1423 32.842 35.1417C32.7531 35.0935 32.6698 35.0349 32.5966 34.9657L32.593 34.9621C32.5641 34.9314 32.4445 34.7803 32.406 34.6899C32.3559 34.7077 32.3058 34.7249 32.2558 34.7418C32.1684 34.7713 32.0961 34.75 32.0451 34.7033L31.9479 34.7635C31.844 34.8269 31.7323 34.8872 31.6176 34.8902C31.473 34.894 31.3594 34.8142 31.2821 34.6964C31.2126 34.5912 31.1713 34.4776 31.0833 34.3833C30.9968 34.2907 30.8967 34.2125 30.7945 34.1379L30.6739 34.0501C30.4528 33.8886 30.2385 33.7255 30.0605 33.5122C29.9709 33.4045 29.8511 33.2768 29.7966 33.1474C29.786 33.1225 29.7794 33.099 29.7781 33.0761C29.7662 33.1569 29.754 33.238 29.7418 33.3187C29.5709 34.4557 29.4329 35.6004 29.3888 36.7501C29.3672 37.3171 29.3575 37.8848 29.3828 38.4522C29.3954 38.7356 29.416 39.0186 29.4445 39.3011C29.4586 39.4426 29.4733 39.5838 29.4905 39.7247L29.4945 39.7573C29.4995 39.8005 29.5027 39.8423 29.499 39.8819C29.6367 39.9498 29.7159 40.1214 29.7709 40.2554C29.8129 40.3575 29.7803 40.4567 29.7127 40.5284C29.7935 40.602 29.8655 40.6884 29.9259 40.7874C29.9381 40.8074 29.9118 40.8231 29.8961 40.8106C29.7969 40.7317 29.6902 40.6668 29.5788 40.6171C29.5202 40.6393 29.4564 40.6452 29.3975 40.629C29.3337 40.6114 29.2786 40.5688 29.2389 40.5147C28.9224 40.4627 28.5935 40.5263 28.3087 40.7245C28.2495 40.7658 28.196 40.8124 28.145 40.8631C28.1362 40.872 28.1271 40.8832 28.118 40.8942L28.1802 40.918C28.2059 40.9278 28.2271 40.9355 28.2351 40.9371C28.2894 40.9481 28.3444 40.954 28.3995 40.9588L28.4821 40.9656C28.7991 40.9919 29.1152 41.0006 29.4101 41.1334C29.472 41.1612 29.4504 41.2567 29.3919 41.2727C29.1766 41.3311 28.963 41.3266 28.7438 41.311L28.6968 41.3075C28.493 41.2918 28.2742 41.2928 28.0755 41.2364C28.1231 41.3666 28.0583 41.5367 27.8595 41.5633C27.2626 41.6428 26.662 41.6053 26.0645 41.5526C25.4611 41.4994 24.858 41.449 24.2529 41.4174C22.2959 41.3144 20.3359 41.3342 18.3772 41.3621L17.2703 41.3782C16.3875 41.3906 15.5046 41.4003 14.6219 41.3936L14.2087 41.3897C14.0341 41.388 13.8594 41.3859 13.6849 41.3808L13.5803 41.3773C13.3725 41.3698 13.0974 41.4011 12.9168 41.278C12.7678 41.1766 12.7346 40.9906 12.8245 40.8407C12.8504 40.7974 12.8861 40.7589 12.9234 40.7213C12.9997 40.0685 13.0426 39.4125 13.0864 38.7569C13.2385 36.4624 13.1497 34.1798 12.7988 31.9085C11.8573 32.1963 10.9303 32.5573 10.027 32.9446C9.53839 33.154 9.05232 33.3713 8.57188 33.5993C8.13338 33.8075 7.69301 34.0677 7.22446 34.203C7.18187 34.2408 7.12232 34.2588 7.0695 34.242L7.06265 34.2396H7.06234C7.01414 34.2509 6.96061 34.244 6.90803 34.2124C6.89739 34.2059 6.88675 34.1994 6.87611 34.1928L6.86014 34.1826C6.6952 34.0787 6.52931 33.9506 6.41257 33.794C6.27079 33.9256 6.11836 34.0461 5.96844 34.1682C5.80568 34.301 5.64356 34.4344 5.48268 34.569C5.41883 34.6225 5.34841 34.6736 5.29207 34.7353L5.28389 34.7443C5.28258 34.7458 5.28132 34.7473 5.28018 34.7487C5.52399 34.9065 5.73745 35.1461 5.92869 35.3543C6.13404 35.5777 6.33229 35.8083 6.52893 36.0398L6.71928 36.2644C8.06533 37.8545 9.42515 39.5022 11.1678 40.6709C11.4432 40.8557 11.1806 41.3056 10.9071 41.1168C10.3894 40.7602 9.89958 40.3641 9.42916 39.9473C8.60474 39.2175 7.86296 38.3987 7.16844 37.5454C6.81695 37.1136 6.47579 36.6713 6.14152 36.226L6.02807 36.075C5.87688 35.8735 5.7265 35.6715 5.58252 35.4648L5.5524 35.4215C5.42611 35.2392 5.29181 35.0344 5.21038 34.8245C5.17908 34.8561 5.14371 34.8827 5.09207 34.9028C5.00381 34.9372 4.89551 34.8649 4.87392 34.7788C4.82133 34.5699 5.00287 34.4456 5.1506 34.3348C5.32994 34.2008 5.51273 34.0715 5.69583 33.9428L5.76123 33.8965C5.9902 33.7341 6.22037 33.5673 6.46985 33.439C6.47736 33.429 6.48644 33.4196 6.49676 33.4114C6.50866 33.402 6.52024 33.393 6.53213 33.3839C6.23417 32.9004 5.90741 32.4358 5.54277 31.9968C5.2686 31.6665 4.97752 31.3511 4.66953 31.0524L4.53118 30.9184C4.3219 30.7162 4.1043 30.5112 3.87204 30.3354L3.79933 30.4179C3.70224 30.5277 3.60418 30.6368 3.50052 30.74C3.29645 30.9429 3.0952 31.1498 2.89489 31.3568C2.56222 31.7011 2.24083 32.056 1.92045 32.4115L1.7603 32.5892C1.42666 32.9596 1.06922 33.3231 0.765935 33.7189L0.750789 33.7389C0.618381 33.9166 0.524126 34.1132 0.585654 34.3389C0.645021 34.5564 0.786169 34.7494 0.907829 34.9372L0.919926 34.956C1.41664 35.73 1.94872 36.4843 2.51867 37.2061C3.66014 38.6517 4.96218 40.0218 6.51586 41.0269C6.73119 41.1663 6.52994 41.5126 6.31429 41.3717C5.40694 40.7783 4.57345 40.0657 3.80662 39.3004C3.10271 38.5981 2.46484 37.8247 1.86703 37.031C1.57564 36.6437 1.29645 36.2482 1.02885 35.844C0.769378 35.4517 0.469222 35.0481 0.281115 34.6153C0.182531 34.3877 0.146217 34.1413 0.226968 33.9014C0.301023 33.681 0.447478 33.498 0.599837 33.3258L0.614136 33.3097C0.96437 32.9161 1.32086 32.5272 1.68049 32.1421C2.04137 31.7557 2.41883 31.3831 2.80412 31.0214C3.10678 30.7368 3.42227 30.486 3.75968 30.2537C3.72932 30.2321 3.69896 30.2114 3.66797 30.1914C3.57376 30.13 3.54997 29.9988 3.6326 29.9155C3.85827 29.6876 4.11836 29.4894 4.36312 29.2818C4.59316 29.0867 4.82321 28.8913 5.05326 28.696C5.52149 28.2989 5.98972 27.9016 6.45795 27.5043C7.29895 26.7907 8.13526 26.0721 8.97345 25.3554C9.32295 25.0566 9.67572 24.7616 10.0276 24.4657L10.6527 23.9394L10.9585 23.6826C11.1151 23.5513 11.2751 23.4215 11.4533 23.3214C11.8724 23.0859 12.3764 22.9839 12.8382 22.8592L12.8689 22.8508C13.3869 22.709 13.9077 22.5756 14.4313 22.4566C14.9556 22.3376 15.4821 22.2293 16.0107 22.1312C16.4858 22.043 16.9722 21.9672 17.4567 21.9559C17.5769 21.9102 17.7277 21.8942 17.8461 21.9431C17.8949 21.9634 17.9459 21.9932 17.9913 22.0308C18.2282 21.9475 18.462 21.9077 18.6833 21.7668C18.9043 21.6262 19.0999 21.4415 19.2645 21.238C19.6047 20.8165 19.7828 20.3187 19.9024 19.7986ZM25.3487 34.0699C25.1609 34.0568 24.9919 34.1344 24.8242 34.2171C24.9187 34.2581 25.0132 34.2988 25.1077 34.3392L25.7368 34.6078C25.9447 34.6964 26.1647 34.7735 26.3622 34.8827C26.3763 34.8905 26.3875 34.9 26.396 34.9109C26.6013 34.7794 26.8185 34.662 27.0267 34.5371C27.0742 34.5086 27.1221 34.4801 27.17 34.4516C26.9221 34.5346 26.668 34.5762 26.3988 34.4982C26.0398 34.3946 25.7281 34.0965 25.3487 34.0699ZM25.8633 33.4399L25.8295 33.417C25.6474 33.292 25.43 33.1313 25.2088 33.2436C25.1046 33.2965 25.0191 33.382 24.9165 33.439C24.8132 33.4966 24.6996 33.5407 24.5844 33.5674C24.3932 33.6115 24.1741 33.6181 23.9684 33.5755L23.9716 33.8535C24.1271 33.9177 24.2817 33.9835 24.4364 34.0499C24.5367 34.0155 24.6334 33.9743 24.7349 33.929L24.8035 33.8983C24.9991 33.8103 25.1966 33.7515 25.4129 33.7793C25.8201 33.8316 26.1277 34.1344 26.5171 34.2352C26.9944 34.3592 27.4251 34.0029 27.8761 33.9149C27.9505 33.9003 28.0271 33.8917 28.1033 33.8903L28.1287 33.8902L28.14 33.8836C28.237 33.8266 28.3822 33.7722 28.4498 33.6763C28.5234 33.5724 28.5296 33.3983 28.5537 33.2762C28.5562 33.2639 28.5587 33.2514 28.5609 33.2392C28.5184 33.2392 28.4752 33.2414 28.4313 33.2495C28.2936 33.2749 28.1641 33.3238 28.0357 33.3783C27.7932 33.4812 27.5559 33.5987 27.3005 33.6672C27.0504 33.7345 26.7891 33.7665 26.5315 33.7292C26.2802 33.6929 26.0714 33.5796 25.8633 33.4399ZM25.9025 32.4623L25.8648 32.438C25.7653 32.3746 25.6512 32.3088 25.5293 32.3321C25.4204 32.3531 25.3268 32.4398 25.232 32.4934C25.0238 32.6108 24.7903 32.675 24.5522 32.6913C24.354 32.7047 24.1484 32.6806 23.9578 32.6218L23.9644 33.2374C24.0342 33.2596 24.1065 33.2755 24.1825 33.2812C24.4135 33.2984 24.6389 33.243 24.8326 33.1155L24.9306 33.0504C25.0983 32.9402 25.2557 32.8527 25.4777 32.8929C25.6974 32.933 25.8817 33.0739 26.0614 33.1966L26.0909 33.2164C26.2972 33.3527 26.5063 33.4406 26.7594 33.4427C27.0326 33.4449 27.3027 33.3688 27.5572 33.2752C27.8098 33.1826 28.0498 33.0714 28.3199 33.0373C28.4026 33.0269 28.5033 33.0238 28.5982 33.0401C28.6107 32.9702 28.6226 32.9008 28.6339 32.8309C28.6583 32.6809 28.6792 32.5313 28.6974 32.3813C28.2182 32.2523 27.7756 32.6697 27.3306 32.7983C27.0724 32.8729 26.7913 32.872 26.5331 32.7999C26.2941 32.7332 26.1063 32.5948 25.9025 32.4623ZM25.9036 31.4257C25.8013 31.4059 25.7002 31.4532 25.6132 31.5018C25.3913 31.6248 25.1997 31.7961 24.9484 31.8609C24.6251 31.9442 24.2714 31.8725 23.9503 31.7363C23.9515 31.9263 23.9531 32.1164 23.9547 32.3065C24.0151 32.3293 24.077 32.3478 24.1403 32.3625C24.365 32.4138 24.6032 32.407 24.8245 32.3421C25.0501 32.276 25.2232 32.0976 25.4495 32.0419C25.6809 31.9847 25.899 32.0959 26.0855 32.2224L26.1416 32.2607C26.3548 32.4054 26.5615 32.5311 26.8282 32.5557C27.1102 32.5817 27.3553 32.4934 27.6072 32.3763L27.6659 32.3491C27.9849 32.2026 28.399 32.0357 28.7174 32.2025C28.7425 31.9658 28.7606 31.7291 28.7728 31.492C28.729 31.4758 28.6836 31.4639 28.6313 31.4636C28.5065 31.463 28.3753 31.5024 28.2589 31.5434C28.0044 31.6333 27.7675 31.7672 27.5155 31.8634C27.2767 31.9548 27.0123 32.0024 26.7575 31.9614C26.5215 31.9235 26.3443 31.8002 26.1813 31.6311L26.1576 31.6061C26.0861 31.53 26.0096 31.4462 25.9036 31.4257ZM26.0905 30.5468C25.9725 30.4845 25.8288 30.4265 25.6924 30.4447C25.5622 30.4619 25.4754 30.5502 25.3952 30.6447L25.3518 30.6964C25.2084 30.8661 25.0672 31.0089 24.8461 31.0787C24.6169 31.1508 24.3741 31.1226 24.1609 31.0171C24.0852 30.9795 24.0148 30.9328 23.944 30.8868L23.9478 31.3862C24.0893 31.4566 24.2332 31.5202 24.3913 31.5587C24.683 31.6298 24.9309 31.5772 25.1803 31.4163L25.2065 31.3992C25.3944 31.2758 25.5871 31.1288 25.8191 31.1151C26.0456 31.1015 26.2156 31.2271 26.3648 31.3808L26.3822 31.3991C26.5703 31.5975 26.7603 31.6943 27.0401 31.6715C27.3114 31.6493 27.5653 31.5295 27.8138 31.4262L27.8364 31.4169C28.0636 31.3236 28.3256 31.2275 28.575 31.2632C28.6348 31.2716 28.7121 31.2901 28.781 31.3223C28.791 31.0887 28.7957 30.8549 28.7966 30.6207C28.6548 30.4976 28.4342 30.4773 28.2567 30.5277C27.9788 30.6066 27.7512 30.8101 27.4858 30.9206C27.2504 31.0186 27.0051 31.0405 26.765 30.9478C26.5171 30.852 26.3227 30.6695 26.0905 30.5468ZM28.781 29.563C28.3656 29.5774 27.9594 29.8476 27.5628 29.9506C27.1198 30.0656 26.7583 29.9088 26.3637 29.7348L26.3127 29.7124C26.1102 29.6234 25.8927 29.5436 25.6683 29.5799C25.4495 29.6156 25.2561 29.7367 25.068 29.8463L25.0319 29.8671C24.6892 30.0623 24.3403 30.1959 23.9403 30.1625C23.9425 30.2881 23.9415 30.4134 23.9418 30.5361C24.0076 30.5737 24.0708 30.6163 24.1309 30.6551L24.1524 30.6688C24.3432 30.7881 24.5398 30.8665 24.7672 30.7929C24.9869 30.7215 25.0902 30.5302 25.2411 30.3727C25.3797 30.228 25.5606 30.1401 25.7634 30.1485C25.9816 30.1572 26.1878 30.2534 26.3681 30.3708C26.5484 30.4882 26.7227 30.64 26.9337 30.6989C27.4069 30.8304 27.8123 30.3298 28.2598 30.2518C28.4476 30.2189 28.6548 30.2606 28.7966 30.3739C28.795 30.104 28.7891 29.8335 28.781 29.563ZM25.206 29.4496C25.1475 29.4518 25.0889 29.4543 25.0304 29.4568C24.8138 29.4662 24.5972 29.4769 24.3806 29.4891C24.2307 29.4972 24.0464 29.5432 23.8993 29.4975C23.8955 29.5126 23.8905 29.527 23.8839 29.5411C23.9062 29.6519 23.9199 29.7665 23.9284 29.8823C24.0642 29.8971 24.2022 29.892 24.3362 29.8642C24.6576 29.7975 24.9187 29.5946 25.206 29.4496ZM28.7747 29.3566C27.9838 29.4111 27.1868 29.3924 26.3946 29.4095L26.2996 29.4117C26.2958 29.4117 26.2921 29.4121 26.2883 29.4121C26.3792 29.4473 26.4693 29.4876 26.5591 29.5287L26.6489 29.5699C26.8611 29.6675 27.077 29.7474 27.3146 29.7302C27.5691 29.7117 27.8088 29.6078 28.0467 29.5238C28.2736 29.4437 28.5349 29.3898 28.7769 29.4249C28.7763 29.402 28.7756 29.3795 28.7747 29.3566Z" fill="black"/>
<path fill-rule="evenodd" clip-rule="evenodd" d="M26.6811 11.0595C26.5605 10.3281 26.9563 10.1763 26.6811 9.48108C26.0695 8.19283 24.4027 8.24834 23.1797 8.14929C21.8155 8.09687 20.4347 8.27742 19.1771 8.82556C18.8767 8.95647 18.5878 9.11043 18.3108 9.28536C18.0713 9.43664 18.1042 9.72426 18.2552 9.88116C17.1663 11.4271 17.7891 13.5021 16.9202 15.1293C16.7597 15.4202 16.5474 15.681 16.4079 15.9837C16.1959 16.4437 16.1823 17.1029 16.6632 17.4084C17.3405 17.7729 17.7185 17.0513 18.0513 18.0973C19.7135 21.7448 23.0554 21.9502 26.2279 20.0486C26.5024 19.8955 26.7825 19.7225 26.9898 19.4821C27.4602 18.9513 27.4048 18.2049 27.4152 17.5421C27.421 17.1537 27.422 16.7652 27.4182 16.3767C27.4034 14.8031 26.8832 12.6202 26.6811 11.0595Z" fill="#D08B5B"/>
<path fill-rule="evenodd" clip-rule="evenodd" d="M19.9237 6.6849C21.8392 5.81382 24.0118 5.48349 26.1012 5.70016C27.1326 5.80694 28.1503 6.03602 29.1189 6.40814L29.2038 6.44104C29.4429 6.53329 29.7006 6.62486 29.8823 6.81265C30.0938 7.03088 30.1531 7.3609 30.0019 7.63049C29.8845 7.83996 29.6733 7.99023 29.4482 8.07041C29.5275 8.13554 29.6028 8.20818 29.6733 8.28928C29.7923 8.42517 29.8014 8.61895 29.6733 8.753C29.4266 9.01132 29.1065 9.19821 28.7617 9.28779C28.8004 9.47535 28.7795 9.68294 28.6964 9.86987C28.458 10.4064 27.7864 10.4704 27.2697 10.4385L27.2541 10.4375L27.2253 10.7672C27.21 10.9429 27.1051 11.0791 26.927 11.106C26.9208 11.107 26.9145 11.1076 26.9083 11.1082C27.19 12.1296 27.3602 13.1826 27.5173 14.2293C27.5994 14.7757 27.6729 15.3234 27.7432 15.8714L27.7666 16.0541C27.8415 16.645 27.9352 17.2418 27.9677 17.837C27.9968 18.3771 27.894 18.8928 27.562 19.3287C27.264 19.7194 26.8577 20.0122 26.4208 20.2295C25.4335 20.7207 24.3944 21.0865 23.3025 21.2562L23.2297 21.2674C22.8082 21.3319 22.3739 21.3863 21.957 21.2693C21.5906 21.1666 21.2064 20.9017 21.2892 20.4762C21.317 20.3325 21.5175 20.3262 21.5862 20.4374L21.6021 20.4629C21.6845 20.5939 21.7748 20.7157 21.9186 20.7833C22.0869 20.8629 22.2821 20.8851 22.4661 20.8873C22.9798 20.8933 23.5149 20.7649 24.0096 20.6362C24.9334 20.3958 25.8823 20.0037 26.6391 19.4097C26.9611 19.1574 27.2197 18.8418 27.3109 18.4357C27.4236 17.935 27.32 17.3877 27.2687 16.8845C27.1633 15.8462 27.0379 14.8099 26.9055 13.7747L26.8789 13.5677C26.7675 12.7023 26.6504 11.8365 26.5947 10.9661C26.5716 10.9344 26.556 10.8984 26.5497 10.859L26.541 10.8023C26.5335 10.7538 26.5323 10.7093 26.5376 10.6683C26.5379 10.5111 26.5423 10.3549 26.5513 10.1977C26.5528 10.1695 26.5541 10.1413 26.5551 10.1135C26.392 10.1495 26.2277 10.1786 26.0628 10.2033C24.9035 10.3784 23.726 10.4222 22.5573 10.3352C21.9741 10.2916 21.3954 10.2168 20.8185 10.1232C20.5249 10.0756 20.2323 10.023 19.9406 9.96411C19.7297 9.92184 19.5233 9.86454 19.3159 9.81069C19.102 10.1229 18.9864 10.507 19.0089 10.8843C19.0342 11.3149 19.3203 11.7053 19.24 12.1452C19.1647 12.557 18.8128 12.6846 18.4655 12.7866L18.3177 12.8294C18.2041 12.8626 18.1215 12.8947 18.1009 13.0317C18.0657 13.2668 18.1091 13.5314 18.1181 13.7678C18.1291 14.0474 18.1434 14.327 18.15 14.6066C18.1534 14.7513 18.159 14.8966 18.1587 15.0412C18.1584 15.1439 18.1431 15.2141 18.1034 15.2804C18.1341 15.3189 18.1615 15.3606 18.1859 15.4047C18.1937 15.4191 18.1743 15.4345 18.1628 15.4226C18.1319 15.3903 18.099 15.3612 18.0644 15.3352C18.0469 15.3568 18.0266 15.3788 18.0028 15.4022L18.001 15.3997C17.9267 15.4739 17.8086 15.4811 17.7164 15.4022L17.6923 15.3812C17.6248 15.3219 17.5784 15.2726 17.5597 15.1746C17.5587 15.1696 17.5578 15.1646 17.5572 15.1596C17.3857 15.1536 17.2114 15.1943 17.0571 15.2798C16.8126 15.4154 16.6405 15.6086 16.5387 15.8472C16.5793 15.8948 16.6268 15.9373 16.682 15.973C16.6898 15.9784 16.683 15.9899 16.6745 15.9859C16.618 15.9593 16.5674 15.9264 16.5221 15.8879C16.4856 15.9818 16.46 16.0826 16.4444 16.1894C16.3894 16.5664 16.4875 17.027 16.8273 17.2418C16.9744 17.3348 17.1424 17.3852 17.3167 17.3858C17.4016 17.3861 17.475 17.3717 17.5575 17.3514C17.6134 17.3376 17.669 17.3175 17.7274 17.3175C17.7774 17.3175 17.8236 17.3301 17.8664 17.3551L17.8545 17.3562C17.8257 17.3589 17.8312 17.3601 17.8714 17.3601C17.9963 17.3654 18.0678 17.4926 18.0104 17.6031L18.0028 17.6202C18.0012 17.6236 17.9999 17.6265 17.9988 17.6287L17.9943 17.6581C17.9939 17.6608 17.9934 17.6637 17.9929 17.6667L17.9911 17.6726C17.9908 17.6735 17.9905 17.6745 17.9901 17.6754L18.1774 17.9619C18.4072 18.3123 18.642 18.6613 18.9093 18.9814C19.0966 19.2059 19.2953 19.426 19.5052 19.6299C19.6938 19.813 19.9199 19.9013 20.1336 20.0454C20.2476 20.1218 20.281 20.2818 20.1773 20.3848C19.8731 20.6876 19.4424 20.4471 19.1928 20.201C18.9567 19.9677 18.7528 19.6872 18.5769 19.4063C18.2649 18.9069 18.0166 18.3759 17.9079 17.7994C17.8626 17.8411 17.8049 17.867 17.7465 17.8874C17.6293 17.9281 17.5003 17.945 17.3767 17.9494C17.1396 17.9572 16.9022 17.8996 16.6889 17.7975C15.8209 17.3827 15.6935 16.1402 16.2242 15.4076C16.1526 15.1995 16.1126 14.9738 16.0692 14.7814L16.0495 14.6953C15.83 13.7343 15.6827 12.7225 16.0717 11.7808C16.1217 11.6593 16.1779 11.5409 16.2445 11.4276C16.2979 11.3365 16.3897 11.2394 16.415 11.1358C16.4712 10.9081 16.1242 10.6689 16.023 10.4883C15.904 10.2763 15.8872 10.0261 16.0493 9.83226C16.0699 9.80787 16.0923 9.7853 16.1167 9.7656C15.9631 9.4863 15.9559 9.13499 16.1583 8.85946C16.2913 8.67785 16.4943 8.55073 16.7161 8.51222C16.8516 8.48873 17.0147 8.4975 17.1636 8.53946C17.9794 7.78016 18.9102 7.1458 19.9237 6.6849ZM16.791 16.1856C17.0087 15.9931 17.2492 15.8923 17.546 15.9176C17.8442 15.9433 18.2034 16.067 18.3786 16.3234C18.517 16.526 18.235 16.8231 18.0319 16.671C17.847 16.5323 17.7236 16.3757 17.4941 16.3012C17.2879 16.2345 17.0328 16.1916 16.8169 16.2298C16.7932 16.2339 16.7695 16.2044 16.791 16.1856Z" fill="black"/>
<path fill-rule="evenodd" clip-rule="evenodd" d="M23.1051 19.3636L22.7744 18.1006L22.8277 18.1088C23.3524 18.1913 23.6147 18.276 23.6147 18.3629L23.6144 18.3688C23.6075 18.4667 23.4377 18.7983 23.1051 19.3636ZM26.1494 18.3735L26.0323 19.2766L25.4223 18.6077L26.1494 18.3735Z" fill="white"/>
<path fill-rule="evenodd" clip-rule="evenodd" d="M22.7031 16.1255C23.3859 16.1255 23.9394 15.6208 23.9394 14.9983C23.9394 14.3758 23.3859 13.8711 22.7031 13.8711C22.0203 13.8711 21.4668 14.3758 21.4668 14.9983C21.4668 15.6208 22.0203 16.1255 22.7031 16.1255Z" fill="white"/>
<path fill-rule="evenodd" clip-rule="evenodd" d="M24.534 14.9672C25.1563 14.9672 25.6607 14.4696 25.6607 13.8557C25.6607 13.2418 25.1563 12.7441 24.534 12.7441C23.9117 12.7441 23.4072 13.2418 23.4072 13.8557C23.4072 14.4696 23.9117 14.9672 24.534 14.9672Z" fill="white"/>
<path fill-rule="evenodd" clip-rule="evenodd" d="M26.0678 15.9061C26.5691 15.9061 26.9755 15.4576 26.9755 14.9042C26.9755 14.3508 26.5691 13.9814 26.0678 13.9814C25.5665 13.9814 25.1602 14.3508 25.1602 14.9042C25.1602 15.4576 25.5665 15.9061 26.0678 15.9061Z" fill="white"/>
<path fill-rule="evenodd" clip-rule="evenodd" d="M22.7862 18.056C23.0132 18.0122 23.2956 18.1077 23.522 18.1495L23.5389 18.1526C23.8134 18.2005 24.0873 18.2585 24.3649 18.2868C24.6298 18.3139 24.9005 18.3188 25.1655 18.2883C25.2927 18.2737 25.4189 18.2487 25.5425 18.2153C25.5954 18.201 25.6479 18.185 25.6997 18.1673L25.7056 18.165C25.7436 18.1493 25.8466 18.0901 25.8454 18.1231C25.8744 18.0897 25.9142 18.066 25.958 18.0544C26.0198 18.0382 26.0991 18.0534 26.1508 18.0972C26.2181 18.0439 26.319 18.0821 26.3641 18.1459C26.4414 18.2553 26.4163 18.3836 26.4063 18.5106L26.4054 18.5218C26.3969 18.6414 26.3839 18.7603 26.3679 18.8791L26.3609 18.93C26.3359 19.1057 26.3291 19.3954 26.1163 19.453C25.948 19.4986 25.7939 19.3253 25.6854 19.1879L25.6261 19.1117C25.5557 19.0224 25.4919 18.9305 25.4404 18.8291C25.417 18.7829 25.3943 18.7356 25.3747 18.6876C25.3722 18.6816 25.3704 18.6762 25.3685 18.6707C25.0564 18.7127 24.7369 18.7067 24.424 18.6655C24.2259 18.6393 24.0307 18.6015 23.8385 18.5508L23.7517 18.7077C23.6502 18.8905 23.5473 19.0729 23.4391 19.2516L23.4307 19.2652C23.3294 19.4265 23.1598 19.5879 22.9593 19.4672C22.7798 19.3591 22.7722 19.1132 22.7533 18.9298C22.7407 18.8072 22.7304 18.6838 22.7255 18.5606L22.7237 18.5078C22.7205 18.3883 22.7011 18.2499 22.747 18.1381C22.7537 18.1218 22.777 18.1093 22.7911 18.1264C22.8871 18.2431 22.9161 18.4239 22.9575 18.5671C23.0036 18.7264 23.0705 18.9004 23.0944 19.0657L23.1011 19.054C23.1248 19.0091 23.1489 18.9645 23.1731 18.9199L23.2457 18.7862C23.3108 18.6655 23.3771 18.5455 23.4441 18.4258C23.3676 18.397 23.2919 18.3662 23.2165 18.3348L23.0454 18.2633C22.9477 18.222 22.848 18.1753 22.7745 18.1002C22.7615 18.0869 22.7661 18.0599 22.7862 18.056ZM26.0324 18.4972C25.8638 18.5657 25.6894 18.6152 25.5119 18.648C25.5233 18.6598 25.5348 18.6715 25.5454 18.6838C25.5872 18.7322 25.6315 18.7787 25.6761 18.8246L25.7029 18.8521C25.7712 18.9222 25.8738 19.0377 25.9785 19.1048L25.9841 19.0745C25.985 19.0693 25.9858 19.0647 25.9862 19.0612L25.9973 18.9616C25.9991 18.945 26.0009 18.9284 26.0025 18.9118C26.0115 18.8219 26.0187 18.7319 26.0262 18.642C26.0302 18.5946 26.0311 18.5459 26.0324 18.4972ZM24.0371 12.7087C24.4387 12.5372 24.9153 12.6182 25.2612 12.8773C25.6151 13.1426 25.7699 13.5738 25.7903 14.004C26.0702 13.7649 26.4733 13.9459 26.7091 14.1699C26.9811 14.4285 27.1187 14.8186 27.0553 15.1889C26.9921 15.558 26.7252 15.8835 26.364 15.9933C26.1912 16.0458 25.9986 16.047 25.8248 15.9981C25.7658 15.9815 25.6934 15.9558 25.6266 15.9199C25.6304 15.9353 25.6343 15.9506 25.6379 15.9659C25.7247 16.3332 25.7738 16.746 25.6437 17.1092C25.4345 17.6928 24.6916 18.0195 24.2277 17.5015C24.0456 17.2981 23.904 16.9796 23.9151 16.7024C23.9209 16.5567 24.0034 16.3881 24.1737 16.398C24.3058 16.4056 24.3684 16.5162 24.3346 16.6332L24.3325 16.6399C24.2609 16.8637 24.3832 17.1869 24.5603 17.3395C24.8319 17.5735 25.2046 17.3699 25.3532 17.0955C25.5262 16.7757 25.5052 16.3657 25.4498 16.0178C25.3955 15.6762 25.2743 15.3638 25.1457 15.0477C25.1321 15.0502 25.1183 15.0524 25.1041 15.0544C24.8483 15.0891 24.3279 15.1022 24.0453 14.9168C24.0757 15.2029 24.0161 15.4974 23.8537 15.7397C23.6726 16.0096 23.3999 16.1525 23.0824 16.1963C22.7742 16.2389 22.4168 16.2475 22.1124 16.1744C21.4642 16.0188 21.2357 15.2182 21.4317 14.6404C21.5477 14.2985 21.8712 13.9911 22.2309 13.9134C22.4162 13.7915 22.665 13.7554 22.8788 13.772C23.1982 13.7969 23.5127 13.935 23.7266 14.1774C23.8084 14.27 23.8756 14.3749 23.9274 14.4871C23.9448 14.4734 23.965 14.4631 23.988 14.4577C24.0237 14.4493 24.055 14.4474 24.09 14.4598C24.1075 14.466 24.1326 14.4877 24.1477 14.5019L24.1822 14.5425C24.2246 14.5918 24.2649 14.6332 24.3402 14.6639C24.5504 14.7495 24.8354 14.7681 25.0586 14.7506C25.6283 14.706 25.5565 13.9512 25.4162 13.5634C25.25 13.104 24.7737 12.8182 24.289 12.8998C24.0808 12.9348 23.8821 13.0457 23.7297 13.1906C23.5596 13.3523 23.4867 13.5477 23.3846 13.7525C23.3786 13.7646 23.3578 13.762 23.3552 13.7486C23.2713 13.3169 23.669 12.866 24.0371 12.7087ZM21.0031 16.1894C20.9858 16.169 21.0086 16.1333 21.0333 16.1502C21.2149 16.2736 21.4168 16.3626 21.6363 16.3867C21.7394 16.398 21.8433 16.3987 21.946 16.3829C22.0335 16.3694 22.1123 16.3427 22.1997 16.3668C22.2461 16.3797 22.2546 16.4336 22.2262 16.4674C22.0943 16.6245 21.7695 16.5826 21.5924 16.5405C21.3634 16.486 21.1558 16.3688 21.0031 16.1894ZM27.113 15.9026C27.2022 15.8473 27.3083 15.9567 27.2556 16.0451C27.1202 16.2719 26.728 16.2904 26.5004 16.2361C26.4826 16.2319 26.4867 16.2039 26.5047 16.2044C26.6355 16.2076 26.7537 16.1825 26.8664 16.1142C26.9627 16.0559 27.0201 15.9602 27.113 15.9026ZM22.7637 14.0897L22.7458 14.0898C22.5377 14.0932 22.3472 14.1725 22.1467 14.2145C22.1301 14.218 22.1134 14.2162 22.0983 14.2107C21.8541 14.3737 21.6858 14.6299 21.663 14.9671C21.6471 15.2007 21.7041 15.4551 21.8427 15.6468C22.0005 15.8649 22.2547 15.8986 22.505 15.9051L22.5304 15.9057C23.0036 15.9149 23.5242 15.8869 23.6928 15.3577C23.8177 14.9661 23.6844 14.4906 23.3367 14.2559C23.1678 14.142 22.9661 14.0895 22.7637 14.0897ZM26.5758 14.3705L26.562 14.3543C26.3764 14.1413 26.0821 13.9473 25.792 14.0546L25.7928 14.0905C25.7929 14.0964 25.793 14.1024 25.793 14.1084C25.7921 14.5198 25.6328 14.9037 25.2411 15.0244C25.3462 15.1743 25.4306 15.3407 25.4982 15.5134C25.5221 15.4978 25.5511 15.4879 25.5848 15.4845C25.7226 15.4705 25.8016 15.6001 25.9212 15.6484C26.0331 15.6937 26.1601 15.7053 26.2782 15.682C26.5367 15.6308 26.718 15.4079 26.7816 15.1604C26.8534 14.8807 26.7585 14.5875 26.5758 14.3705ZM22.6413 14.7168C22.7275 14.5711 22.9402 14.5922 23.0254 14.7206L23.0295 14.727L23.0304 14.7258C23.1724 14.9099 23.1037 15.2005 22.8976 15.304C22.7323 15.387 22.522 15.3652 22.412 15.2037C22.3874 15.1675 22.3716 15.125 22.3658 15.0818C22.3619 15.0525 22.3641 15.0232 22.3707 14.994L22.369 15.0009C22.3723 14.9862 22.3775 14.9631 22.3788 14.9576C22.3933 14.8982 22.4282 14.8346 22.4718 14.7916C22.5167 14.7473 22.5791 14.7204 22.6413 14.7168ZM26.1834 14.5655C26.2597 14.5655 26.3274 14.5974 26.3826 14.648C26.461 14.7201 26.472 14.8238 26.455 14.9222C26.4498 14.9522 26.4427 14.9812 26.4352 15.0108L26.4288 15.0375C26.4276 15.042 26.4264 15.0464 26.4251 15.0507C26.4204 15.069 26.4129 15.0859 26.404 15.1019C26.3714 15.2235 26.2392 15.2839 26.1227 15.2574C26.0678 15.2449 26.0131 15.1994 25.9852 15.1516C25.976 15.1359 25.9696 15.1203 25.965 15.1045L25.9423 15.0507C25.9381 15.0378 25.9354 15.024 25.932 15.0108C25.9244 14.9813 25.9171 14.9522 25.9118 14.9222C25.8938 14.8205 25.9081 14.7241 25.9842 14.648C26.0353 14.5969 26.1112 14.5655 26.1834 14.5655ZM24.5019 13.5108C24.6344 13.493 24.7693 13.5548 24.8378 13.6718C24.8974 13.7736 24.8971 13.9105 24.8378 14.0123L24.8328 14.0209C24.7236 14.2083 24.469 14.2324 24.3158 14.0875L24.3083 14.0805C24.2098 13.9874 24.1876 13.833 24.2386 13.7121C24.2853 13.6015 24.383 13.5268 24.5019 13.5108Z" fill="black"/>
</svg>
