<svg width="36" height="48" viewBox="0 0 36 48" fill="none" xmlns="http://www.w3.org/2000/svg">
<path fill-rule="evenodd" clip-rule="evenodd" d="M6.10303 30.995L28.5278 32.7759L28.5513 32.9283C28.9271 35.3766 29.1169 37.0375 29.1207 37.9112L29.1208 37.9379C29.1208 38.8042 29.3866 40.1819 29.9183 42.0711L29.9511 42.1875L6.07173 42.2291L5.79004 36.5426L6.10303 30.995ZM19.3791 18.7928C20.2909 18.8379 21.2098 19.2289 21.2808 19.4788C21.4389 20.0354 21.6931 22.4181 22.5291 22.7842C23.365 23.1503 25.1498 22.8165 25.66 23.6907C26.1703 24.5649 27.8461 28.1285 27.8461 28.9589C27.8461 29.5124 22.385 29.7046 11.4628 29.5353C11.6022 25.0766 12.1835 22.7327 13.2067 22.5039L13.298 22.4837C14.7777 22.1603 15.662 22.1499 16.1668 21.6286C16.6818 21.0968 16.7753 20.1838 16.989 19.4788C17.1067 19.0904 18.2602 18.7376 19.3791 18.7928Z" fill="#D08B5B"/>
<path fill-rule="evenodd" clip-rule="evenodd" d="M21.3782 20.186C21.3817 20.1834 21.3851 20.1826 21.3889 20.1845C21.4599 20.2186 21.4746 20.2869 21.499 20.3579C21.5347 20.4619 21.576 20.5633 21.6142 20.6664C21.6903 20.873 21.7629 21.0794 21.8477 21.2826C21.9347 21.4917 22.0249 21.6971 22.1281 21.8991C22.1779 21.9968 22.2314 22.0926 22.2859 22.1878C22.3235 22.2538 22.3585 22.3446 22.408 22.4066C22.4117 22.3869 22.417 22.3681 22.4233 22.3506C22.4168 22.3537 22.4105 22.3572 22.4045 22.3609C22.392 22.3687 22.377 22.3531 22.3845 22.3409C22.4114 22.2964 22.4465 22.2664 22.4865 22.246C22.5973 22.123 25.0395 22.7102 25.7072 23.3698C26.9164 24.5643 27.7325 26.0412 28.2693 27.6124C28.5657 28.4794 28.8386 29.3549 29.1206 30.2266C29.4186 31.1484 29.7297 32.0661 30.0283 32.9873C30.0937 33.1899 29.951 33.374 29.7707 33.4407C29.4349 33.5647 29.0965 33.6815 28.7554 33.7895C28.9209 34.4254 29.0368 35.0748 29.12 35.7261C29.2918 37.069 29.3134 38.4392 29.5842 39.768C29.6464 40.073 29.725 40.3737 29.8081 40.6736L29.8274 40.7428C29.8768 40.9187 29.9219 41.0963 29.9826 41.2685C30.0349 41.4166 30.1025 41.5659 30.1391 41.7187C30.182 41.8985 30.1188 42.0948 29.9507 42.1871C29.8158 42.2614 29.6227 42.2307 29.5413 42.0913C29.5247 42.0628 29.5147 42.0318 29.5106 42.0005C29.4984 41.9745 29.4871 41.9479 29.4771 41.9207C29.4732 41.9102 29.4698 41.8993 29.4665 41.8884L29.4568 41.8559C29.433 41.7782 29.4111 41.6999 29.3892 41.6217C29.3535 41.4961 29.3176 41.3709 29.2779 41.2464L29.2577 41.1842C29.1594 40.8849 29.0715 40.5831 28.9948 40.2775C28.7204 39.1817 28.6622 38.0472 28.5868 36.9242L28.5829 36.8661C28.5147 35.8598 28.474 34.8556 28.5576 33.8515L28.5461 33.8552L28.5347 33.8587C28.4261 33.8919 28.3172 33.9244 28.208 33.9561C28.2045 33.9573 28.2014 33.9586 28.1979 33.9595C28.128 33.9812 28.0562 34.0017 27.9831 34.0209L27.9391 34.0322L27.9081 34.0406L27.8755 34.0499C27.772 34.0799 27.6665 34.1145 27.5591 34.1111C27.3814 34.1395 27.2004 34.1568 27.0227 34.1574C27.0774 35.0532 27.1407 35.9484 27.2161 36.8426C27.2918 37.7416 27.3923 38.6371 27.4965 39.5326C27.5479 39.975 27.603 40.4165 27.6637 40.8574C27.6943 41.0809 27.7263 41.3032 27.767 41.5249C27.8089 41.7516 27.8831 41.994 27.8383 42.2232C27.8374 42.2228 27.8364 42.2225 27.8355 42.2225C27.8205 42.2889 27.7804 42.3484 27.7106 42.3894C27.5826 42.4642 27.4036 42.4204 27.33 42.2895C27.3238 42.2786 27.3178 42.2673 27.3122 42.2557C27.2368 42.288 27.1541 42.3005 27.0527 42.3014L25.6774 42.3152C25.0524 42.3215 24.4274 42.328 23.802 42.3371C21.8387 42.3661 19.8753 42.3995 17.912 42.4232L17.1757 42.4317C16.0715 42.4433 14.9666 42.4661 13.8624 42.4658C13.31 42.4658 12.7582 42.4639 12.2058 42.4505C11.9382 42.4439 11.6712 42.4336 11.4039 42.4226L11.3567 42.4204C11.1433 42.4099 10.9168 42.3901 10.7081 42.4379C10.6505 42.55 10.5034 42.5732 10.4264 42.4586C10.2505 42.1964 10.2025 41.8305 10.17 41.5101L10.1585 41.3947C10.1225 41.0355 10.0909 40.6764 10.0674 40.3166C9.98417 39.0419 9.95381 37.766 9.992 36.4888C10.0114 35.8379 10.0712 35.1907 10.1419 34.5435C10.1641 34.3415 10.1873 34.1399 10.2123 33.9385L10.2128 33.8669C10.2128 33.8441 10.2127 33.8222 10.212 33.8017L10.2058 33.6074C10.2006 33.4455 10.1958 33.2835 10.1938 33.1215L10.1929 33.0242L10.192 32.8433C10.0374 32.8286 9.87244 32.7772 9.7391 32.7525C9.52286 32.7121 9.30718 32.6686 9.09215 32.6225C8.66148 32.5298 8.2355 32.4203 7.81234 32.2991L7.72235 32.2732C7.33188 32.1607 6.93604 32.0407 6.56665 31.8723C6.42205 31.8062 6.27776 31.7317 6.151 31.634C6.14349 31.7367 6.1319 31.8391 6.12502 31.9409C6.11128 32.1422 6.09497 32.3429 6.08151 32.5442L6.06864 32.7358C6.0475 33.055 6.02846 33.3738 6.01985 33.694C5.98167 35.0905 5.9751 36.4929 6.04896 37.8884C6.08558 38.587 6.13785 39.2855 6.21328 39.9813C6.25021 40.3235 6.28934 40.6667 6.33754 41.0077C6.3873 41.358 6.47713 41.7062 6.50467 42.0591C6.53097 42.3994 6.01078 42.4489 5.92533 42.1377C5.82302 41.7645 5.79695 41.3619 5.74302 40.9782L5.73691 40.9356C5.67713 40.528 5.62924 40.1187 5.58793 39.7089C5.44529 38.2952 5.40827 36.8743 5.48308 35.4552C5.51864 34.7756 5.60297 34.0986 5.70503 33.4262L5.71688 33.3486C5.76334 33.0475 5.80684 32.7463 5.85945 32.4465L5.87964 32.3341C5.9269 32.0765 5.9632 31.7962 6.03989 31.5385L6.01709 31.5175C5.97448 31.4778 5.92829 31.4318 5.89466 31.3823C5.77885 31.3666 5.68026 31.2833 5.69247 31.1321C5.73222 30.6352 5.91375 30.1298 6.07557 29.6608C6.23801 29.1893 6.42643 28.7265 6.63989 28.2756C7.39075 26.6909 8.47212 25.2522 9.7945 24.0996C10.4959 23.4881 11.2646 22.9458 12.1141 22.5597C12.5328 22.3691 12.966 22.2216 13.4199 22.1421C13.6446 22.1026 13.8715 22.0719 14.1 22.0653C14.2853 21.9559 14.5054 22.0019 14.6849 22.122L14.6947 22.1286H14.695L14.741 22.1377C14.7522 22.1399 14.7519 22.1577 14.741 22.1602C14.7404 22.1602 14.7394 22.1605 14.7388 22.1608C14.7682 22.184 14.7961 22.2087 14.822 22.2354C14.9078 22.323 14.9075 22.4289 14.8634 22.5143C15.126 22.7579 15.2918 23.0707 15.4656 23.386C15.6518 23.7236 15.8956 24.0154 16.1923 24.2615C17.2799 25.1639 18.8796 25.5631 20.2424 25.137C21.2446 24.8239 22.1006 23.9763 22.3372 22.9558C22.2812 22.9759 22.2205 22.979 22.1629 22.9583C21.8925 22.8619 21.7893 22.5662 21.6859 22.319L21.6809 22.3071C21.5798 22.0675 21.495 21.8242 21.428 21.5731C21.3604 21.3195 21.3206 21.0518 21.304 20.79C21.2976 20.6865 21.3005 20.583 21.3058 20.4795L21.3106 20.394C21.3142 20.3164 21.3131 20.2372 21.3782 20.186ZM16.9779 19.4881C16.9817 19.4787 16.9964 19.4737 17.002 19.485C17.2414 19.9791 17.0843 20.656 16.858 21.1273C16.6211 21.6201 16.2643 21.994 15.8415 22.3174C15.7832 22.3619 15.7234 22.4057 15.6627 22.4486C15.31 22.6978 14.9957 22.0259 15.403 21.8975C15.8274 21.6818 16.1723 21.2973 16.412 20.8934C16.5416 20.6751 16.6565 20.4478 16.7444 20.2092C16.8321 19.9713 16.8847 19.7236 16.9779 19.4881Z" fill="black"/>
<path fill-rule="evenodd" clip-rule="evenodd" d="M25.0907 15.5571C25.2841 14.1574 24.871 12.8066 24.3357 11.5274C24.3063 11.4495 24.2597 11.382 24.1998 11.334C22.6893 8.28189 20.4698 8.00551 17.3734 8.2157C17.2819 8.21367 17.2764 8.21529 17.207 8.18414C17.1955 6.94428 15.783 6.28753 14.7081 6.69661C9.94097 8.91748 11.44 15.1698 12.3886 19.2517C12.727 20.8318 13.0656 22.4119 13.4041 23.9919C13.4154 24.0448 13.4394 24.0905 13.4713 24.129C13.4221 24.1477 13.3729 24.1652 13.3246 24.1817C13.2145 24.2192 13.2583 24.3838 13.3729 24.3572C13.4852 24.331 13.5935 24.296 13.7006 24.2578C13.8676 24.2941 14.0076 24.1848 14.1386 24.0975C15.6736 23.489 16.318 21.4892 16.7117 20.0159C18.3124 21.1481 20.8702 21.9961 22.7004 20.9779C24.4153 19.9426 25.0329 17.7829 24.9111 15.8767C25.0363 15.819 25.0868 15.6931 25.09 15.5619H25.0908C25.0908 15.5603 25.0907 15.5587 25.0907 15.5571Z" fill="#D08B5B"/>
<path fill-rule="evenodd" clip-rule="evenodd" d="M14.268 6.81334C14.6219 6.58352 15.0761 6.49798 15.4931 6.51473C15.7154 6.52365 15.9231 6.57923 16.1281 6.66271C16.3181 6.74011 16.4856 6.85129 16.6706 6.93602C16.6819 6.94116 16.6734 6.95697 16.6628 6.95481C16.4437 6.91048 16.1864 6.93726 15.9643 6.969L15.9422 6.97219C15.7238 7.00397 15.5016 7.02041 15.2864 7.07085C14.8899 7.16375 14.5212 7.36617 14.3036 7.71827C14.0194 8.1781 13.9466 8.77333 13.977 9.30387C13.9924 9.5723 14.0451 9.83637 14.1273 10.0923C14.1767 10.2459 14.2914 10.4004 14.3449 10.5615C14.3857 10.4853 14.4277 10.4097 14.4713 10.3351C14.2728 10.2414 14.2172 9.98072 14.2069 9.74551C14.1763 9.71589 14.1566 9.67302 14.156 9.63367C14.1542 9.52787 14.1791 9.43208 14.2213 9.34444C14.2454 9.09621 14.2965 8.84873 14.3845 8.61612C14.7297 7.70286 15.6404 6.87976 16.6732 6.96107C16.957 6.98343 17.2332 7.10426 17.38 7.36113C17.4979 7.56741 17.4987 7.81624 17.4173 8.03564C17.3932 8.10077 17.3619 8.15957 17.325 8.2132C17.4366 8.18484 17.5484 8.15763 17.66 8.13067C18.0471 8.03711 18.4363 7.96381 18.8327 7.92304C19.3725 7.86756 19.9235 7.95151 20.4182 8.16752C20.5539 8.2025 20.6889 8.24007 20.8231 8.28021C21.4137 8.45674 22.0196 8.68732 22.4966 9.09026C22.7161 9.27565 22.8732 9.49133 23.0007 9.72816C23.4782 10.155 23.9348 10.6388 24.2571 11.1922C24.9212 12.3326 25.0798 13.7431 25.1071 15.0395C25.1322 16.2304 25.0279 17.4335 24.8052 18.6036C24.7042 19.1346 24.5408 19.6282 24.2103 20.0637C23.8422 20.5486 23.3514 20.9307 22.8005 21.1871C21.6791 21.7091 20.2912 21.785 19.2011 21.1383C18.8733 20.9438 19.1685 20.4369 19.4997 20.6264C20.5758 21.242 21.9492 21.1013 22.9846 20.4487C23.422 20.173 23.799 19.796 24.0384 19.3343C24.2133 18.9971 24.2883 18.6104 24.3533 18.2339L24.3878 18.0325C24.5885 16.8747 24.6792 15.6871 24.6309 14.5125C24.5827 13.3408 24.3974 12.0718 23.7354 11.0757C23.3862 10.5503 22.9409 10.09 22.4732 9.6703C22.4403 9.6408 22.4074 9.61143 22.3745 9.58216C22.1916 9.47204 22.0022 9.37588 21.8158 9.29381L21.7761 9.27662C21.6689 9.2308 21.5189 9.1716 21.3797 9.12426C21.1809 9.0566 20.9787 8.99648 20.7758 8.94232C20.6694 8.91392 20.5625 8.88787 20.4554 8.86297C20.4927 8.89732 20.5299 8.93198 20.5663 8.96752C20.7392 9.13588 20.8763 9.33596 21.0402 9.51249C21.0587 9.53241 21.0353 9.56146 21.0118 9.54934C20.7626 9.42116 20.4862 9.33818 20.226 9.23432C19.98 9.13613 19.7409 9.0231 19.4993 8.91476C19.4387 8.88758 19.3784 8.85856 19.3182 8.82985C19.0806 8.83229 18.8429 8.83789 18.6058 8.85145C18.8925 9.05601 19.1542 9.29776 19.3711 9.56287C19.389 9.5847 19.3727 9.61967 19.3426 9.61194C18.8887 9.49541 18.457 9.32416 18.0255 9.14469L17.8191 9.05854C17.6673 9.05084 17.5154 9.04724 17.3634 9.04949L17.2898 9.05072C17.1302 9.05377 16.971 9.06011 16.8128 9.08434C16.7752 9.09007 16.7384 9.09552 16.7018 9.10053C16.4792 9.19158 16.2651 9.30136 16.0724 9.44605L16.1226 9.44307C16.4273 9.4257 16.7379 9.452 17.0329 9.53084C17.6062 9.68411 18.0953 10.0532 18.4512 10.5237C18.4619 10.5378 18.4412 10.5574 18.4272 10.5479C17.9794 10.2405 17.4601 10.0857 16.9279 10.0017C16.6707 9.96099 16.4058 9.947 16.1462 9.96725C15.9312 9.98401 15.7088 10.0599 15.4948 10.0231C15.4365 10.0959 15.3805 10.1709 15.3266 10.2475C15.355 10.2457 15.3834 10.244 15.4121 10.2427C15.7193 10.2282 16.0321 10.248 16.3321 10.3189C16.9312 10.4606 17.4319 10.8211 17.8899 11.217C17.8989 11.2248 17.8873 11.2388 17.8774 11.2332C17.3808 10.9458 16.8034 10.8599 16.2408 10.8081C15.9574 10.7819 15.6709 10.7701 15.3869 10.7928C15.2569 10.8031 15.1282 10.8246 14.9985 10.838C14.988 10.8391 14.9771 10.8394 14.9663 10.8399C14.8723 11.0176 14.7871 11.1985 14.7102 11.3789C14.9448 11.3158 15.198 11.2827 15.4403 11.299C15.9325 11.3322 16.4207 11.5585 16.8136 11.8478C16.8259 11.8569 16.819 11.881 16.8023 11.8746C16.3746 11.7127 15.9507 11.7113 15.5044 11.7738C15.2952 11.8032 15.0881 11.8429 14.886 11.9053C14.7843 11.9367 14.6839 11.9709 14.5874 12.0159C14.5436 12.0364 14.501 12.0602 14.4579 12.0826C14.4234 12.2 14.3926 12.3184 14.3648 12.4376C15.0943 12.4788 15.7815 12.824 16.3796 13.2201C16.394 13.2297 16.385 13.2564 16.3671 13.2496C16.0101 13.1146 15.6217 13.0522 15.243 13.0158C14.9119 12.984 14.5869 13.0013 14.2577 13.0106C14.2401 13.136 14.2258 13.2618 14.2155 13.3878C14.2684 13.4027 14.3203 13.4187 14.3703 13.4337C14.5345 13.4832 14.6985 13.5498 14.8517 13.627C15.1631 13.7839 15.4153 13.9959 15.6692 14.2316C15.6824 14.2439 15.6686 14.2707 15.6506 14.2634C15.356 14.144 15.0341 14.0676 14.724 13.9999C14.5635 13.9649 14.4029 13.9326 14.2413 13.9029C14.2256 13.9001 14.2097 13.8976 14.1938 13.8953C14.1923 14.1826 14.2085 14.47 14.2443 14.7551L14.2512 14.8085C14.2706 14.9528 14.2547 15.0923 14.1594 15.192C14.2912 15.1042 14.442 15.0433 14.6091 15.02C15.0493 14.9586 15.4568 15.1349 15.7337 15.4759C15.7467 15.4918 15.7267 15.5127 15.7109 15.4987C15.4422 15.2589 15.028 15.2165 14.6942 15.3294C14.3852 15.4339 14.1529 15.6833 14.0598 15.9955C13.9608 16.3272 14.0062 16.6934 14.1866 16.9891C14.2765 17.1364 14.4063 17.2681 14.5688 17.3329C14.5888 17.3409 14.6093 17.3476 14.6299 17.3534C14.728 17.3174 14.8335 17.3337 14.9344 17.3793L14.9475 17.3854C15.0118 17.3851 15.0759 17.3831 15.1381 17.3836C15.2593 17.3848 15.3175 17.5137 15.2667 17.6097C15.2955 17.6627 15.3166 17.7222 15.3419 17.774C15.3877 17.8677 15.4356 17.9607 15.4838 18.0531C15.5519 18.1315 15.6169 18.2125 15.6611 18.3071C15.6792 18.3459 15.6963 18.3879 15.7095 18.4301C15.7473 18.4871 15.7858 18.5439 15.8252 18.6004C15.9526 18.7829 16.0868 18.9557 16.2357 19.1214C16.3251 19.221 16.428 19.3099 16.5227 19.4053C16.5514 19.4091 16.5796 19.4287 16.5884 19.4569L16.5962 19.4839C16.6267 19.5183 16.6559 19.5539 16.6822 19.5917C16.7405 19.6756 16.7245 19.7607 16.6733 19.822C16.7545 20.3297 16.6992 20.8699 16.5906 21.3623C16.5204 21.6804 16.4384 21.9982 16.3284 22.3051C16.2724 22.4611 16.2047 22.6109 16.1111 22.748C16.0598 22.8231 15.9929 22.9105 15.918 22.982C15.9066 23.0651 15.8918 23.1476 15.8705 23.2284C15.6191 24.1865 14.5898 24.4781 13.7279 24.6005C13.5616 24.6241 13.397 24.5838 13.3064 24.4285C13.2854 24.3926 13.2714 24.3539 13.2638 24.3142C13.2263 24.3042 13.1902 24.2866 13.1578 24.2612C13.1524 24.3213 13.1461 24.3815 13.1382 24.4424C13.1185 24.5946 12.9135 24.6404 12.8622 24.4798C12.6453 23.8022 12.5276 23.0877 12.379 22.3914C12.2307 21.6965 12.0652 21.0054 11.912 20.3116L11.718 19.436C11.2447 17.2919 10.8014 15.1204 10.9102 12.9153C10.9696 11.7115 11.1899 10.5109 11.6615 9.39858C12.0543 8.47193 12.7172 7.43086 13.7882 7.2414C13.7955 7.24012 13.8021 7.24087 13.8082 7.24243C13.9354 7.07664 14.0873 6.93064 14.268 6.81334ZM14.9142 18.4681C15.0006 18.7554 15.0622 19.0498 15.0958 19.3503C15.1516 19.8511 15.1239 20.3642 15.0997 20.8663C15.0773 21.3277 15.0243 21.793 14.9341 22.246C14.8475 22.681 14.7117 23.1075 14.51 23.5031C14.4773 23.5671 14.4422 23.6294 14.4054 23.6906C14.517 23.6533 14.6177 23.6099 14.7227 23.5497C14.8548 23.4739 14.9756 23.3762 15.0418 23.2732C15.1479 23.1079 15.1835 22.9243 15.199 22.7272C15.2389 22.2206 15.2574 21.7124 15.2828 21.2049L15.2885 21.0943C15.3297 20.3014 15.3836 19.4881 15.303 18.6943C15.1896 18.6644 15.0873 18.6058 14.9929 18.5322C14.9668 18.5119 14.9405 18.4904 14.9142 18.4681ZM14.0517 17.5079C14.0755 17.7491 14.0983 17.9904 14.119 18.2318C14.1922 19.0888 14.2375 19.9506 14.1958 20.8106C14.1742 21.2584 14.1306 21.7075 14.0554 22.1497C14.0214 22.349 13.9804 22.5482 13.9346 22.7453L13.9192 22.811C13.8726 23.0062 13.843 23.2503 13.6941 23.3923L13.6952 23.4217C13.7997 23.2627 13.8964 23.0838 13.9657 22.9174C14.2742 22.1756 14.3306 21.3682 14.3864 20.5773C14.4207 20.0899 14.4462 19.6018 14.4859 19.1148L14.5052 18.8804C14.5274 18.6077 14.5465 18.337 14.5439 18.0644C14.4844 17.9756 14.4361 17.8822 14.4062 17.7863C14.4014 17.7709 14.398 17.7553 14.3957 17.7397C14.2701 17.68 14.1517 17.5985 14.0517 17.5079ZM15.7406 19.205C15.8026 19.4119 15.8532 19.6213 15.8893 19.8316C15.9467 20.1664 15.9811 20.5033 15.9963 20.8413L16.0279 20.7219C16.1077 20.4232 16.1924 20.1241 16.2974 19.8342C16.1313 19.7176 15.9925 19.5345 15.8718 19.3815C15.8266 19.3243 15.7829 19.2653 15.7406 19.205ZM13.3616 10.0077C13.2978 10.2143 13.242 10.4233 13.1843 10.6316C13.0488 11.1208 12.9609 11.6235 12.8998 12.1271C12.6563 14.1378 12.8591 16.1567 13.1244 18.1543C13.2343 18.982 13.3538 19.8084 13.4564 20.6371C13.4591 20.5558 13.4614 20.4745 13.4628 20.3932C13.494 18.6344 13.1987 16.9001 13.0805 15.1503L13.0734 15.0437C13.0198 14.2256 12.987 13.3921 13.084 12.577C13.1339 12.1574 13.2218 11.7468 13.3389 11.3414L13.4085 11.1032C13.4556 10.9431 13.5057 10.7787 13.5651 10.6193C13.5571 10.604 13.5496 10.5886 13.5425 10.5732C13.4604 10.3921 13.4032 10.2017 13.3616 10.0077ZM13.5673 7.63752C12.9544 8.42978 12.44 9.2714 12.1288 10.2394C11.4166 12.4549 11.5756 14.8239 11.9883 17.0821C12.1828 18.1461 12.4336 19.1978 12.6624 20.2544C12.4175 18.357 12.1016 16.4637 12.0513 14.548C12.0238 13.5025 12.0778 12.452 12.2699 11.4227L12.2813 11.3621C12.3636 10.9271 12.4656 10.4662 12.6744 10.0752C12.7878 9.86293 12.9129 9.66482 13.0613 9.4752C13.1239 9.39523 13.1942 9.33111 13.2688 9.27246C13.2469 8.7263 13.3293 8.13405 13.5673 7.63752ZM14.5674 16.0789C14.8724 16.0909 15.1771 16.1762 15.4172 16.3749C15.6051 16.5303 15.3372 16.7929 15.1508 16.6419C14.9482 16.4777 14.7664 16.2912 14.5504 16.1418C14.5247 16.124 14.5318 16.0775 14.5674 16.0789ZM14.0615 15.2644C13.9937 15.2994 13.9263 15.3065 13.8495 15.2876C13.8467 15.2869 13.844 15.2861 13.8414 15.2853L13.8257 15.2801C13.8324 15.353 13.8394 15.4259 13.8464 15.4988C13.9084 15.4113 13.9803 15.3321 14.0615 15.2644ZM13.758 10.8654C13.731 11.0915 13.7134 11.3186 13.704 11.5462C13.6949 11.7678 13.6911 11.9901 13.6901 12.2125L13.6898 12.3078L13.6902 12.306C13.7951 11.8576 13.9434 11.4162 14.1328 10.9939C14.1001 10.9994 14.067 10.9985 14.0344 10.9945C13.9598 10.9855 13.8883 10.9523 13.8243 10.9135C13.801 10.8994 13.7791 10.8829 13.758 10.8654ZM16.8686 8.24514C16.7383 8.30419 16.6124 8.37208 16.4816 8.42978C16.2222 8.54426 15.9684 8.67733 15.7283 8.82841C15.4854 8.9813 15.2514 9.14227 15.0362 9.33295C15.011 9.35531 14.986 9.37792 14.961 9.40049C14.956 9.44981 14.9523 9.49931 14.9507 9.54922C14.9498 9.57605 14.9497 9.60411 14.9501 9.63295C15.3562 9.12862 15.8472 8.73071 16.4701 8.48041C16.5781 8.43702 16.6879 8.39838 16.7986 8.36262C16.825 8.32592 16.8486 8.28697 16.8686 8.24514ZM16.857 7.76135C16.7846 7.66498 16.5764 7.67284 16.4451 7.69432C16.2329 7.72907 16.0459 7.80347 15.864 7.91118C15.6489 8.03843 15.4634 8.21082 15.3183 8.4136C15.3897 8.3732 15.4625 8.3351 15.5368 8.29972L15.5877 8.27562C15.8691 8.14336 16.174 8.01762 16.4818 7.97662C16.6242 7.95764 16.7774 7.93018 16.9213 7.94565C16.9142 7.87554 16.8934 7.80979 16.857 7.76135Z" fill="black"/>
<path fill-rule="evenodd" clip-rule="evenodd" d="M22.3211 18.284C22.1226 18.1884 21.8955 18.195 21.6873 18.2583C21.4408 18.3332 21.2226 18.4887 21.0284 18.6543C20.9526 18.719 20.8806 18.7919 20.8083 18.8653C20.7165 18.9585 20.6243 19.0526 20.522 19.1289C20.5558 18.8414 20.7574 18.5494 20.9306 18.3382C21.1431 18.0792 21.439 17.8692 21.7589 17.7677C22.0996 17.6595 22.4511 17.719 22.7269 17.8946C23.0003 18.0686 23.1994 18.3568 23.2395 18.7093C23.2479 18.7833 23.2133 18.8511 23.162 18.9025C23.1021 18.9624 23.0181 19.0018 22.9397 19.0018C22.8596 19.0018 22.7887 18.9696 22.7361 18.9182C22.6809 18.8643 22.6456 18.7895 22.6406 18.7082C22.6372 18.6216 22.6171 18.5458 22.5444 18.4544C22.4955 18.3931 22.4037 18.3238 22.3211 18.284ZM22.8259 15.258C22.7435 15.288 22.6478 15.3603 22.6199 15.4396C22.6138 15.457 22.6104 15.4748 22.6101 15.4929C22.5833 15.4384 22.5731 15.3742 22.5766 15.3106C22.5877 15.1088 22.7801 14.9623 22.944 14.8767C23.0023 14.8463 23.0621 14.8261 23.1217 14.8154L23.3329 14.7778L23.1346 14.6959C22.9518 14.6204 22.7804 14.5165 22.6275 14.3894C22.4813 14.268 22.3462 14.1111 22.2669 13.9379C22.2311 13.8597 22.203 13.7831 22.1833 13.7005L22.1781 13.6773C22.1684 13.6327 22.1578 13.61 22.1459 13.5848C22.1389 13.57 22.1313 13.5541 22.1232 13.5282C22.1186 13.5137 22.1161 13.5015 22.1203 13.492C22.1244 13.4828 22.1345 13.4789 22.1443 13.4752C22.209 13.4507 22.3132 13.4674 22.3575 13.4851C22.4645 13.5279 22.5585 13.6212 22.649 13.7086C22.6932 13.7512 22.7365 13.7928 22.7794 13.8285C23.0536 14.0559 23.3958 14.1852 23.7302 14.2168L23.7503 14.2186C23.8387 14.2258 23.9207 14.2607 23.9788 14.3188C24.0308 14.3708 24.0628 14.4415 24.0628 14.5261C24.0628 14.6086 24.0257 14.688 23.9681 14.7457C23.9131 14.8007 23.8386 14.8364 23.7578 14.8335C23.7011 14.8315 23.6447 14.8264 23.5888 14.8189L23.3806 14.791L23.5395 14.9284C23.5711 14.9556 23.6007 14.9869 23.6274 15.0232C23.7722 15.2205 23.8344 15.5212 23.829 15.7626C23.828 15.8086 23.8152 15.8562 23.7918 15.8971C23.7713 15.9328 23.7424 15.9637 23.7053 15.983C23.6608 16.0061 23.6231 16.0184 23.5725 16.0194C23.5174 16.0205 23.4707 16.003 23.4324 15.9738C23.3844 15.9373 23.3492 15.8834 23.325 15.8247C23.2929 15.7465 23.2909 15.664 23.2878 15.5815C23.2856 15.5245 23.2832 15.4674 23.2737 15.4111C23.2602 15.3392 23.2277 15.2477 23.1867 15.2188C23.1262 15.176 22.9652 15.2089 22.8653 15.2439L22.8259 15.258ZM21.9659 15.9802C22.2023 16.1239 22.5624 16.4591 22.3081 16.8154C22.0089 17.1295 21.578 16.7693 21.3656 16.6064C21.1687 16.4802 20.9475 16.8049 21.1302 16.9523C22.6646 18.0887 23.2873 16.0178 22.0855 15.8112C21.9532 15.7885 21.904 15.9358 21.9659 15.9802ZM20.2895 15.524C20.2249 15.4511 20.162 15.3831 20.0649 15.3444C19.9499 15.2986 19.8106 15.2937 19.6911 15.328C19.5555 15.367 19.4481 15.4569 19.3686 15.5717C19.2987 15.6726 19.2506 15.7927 19.2232 15.9111C19.172 15.8549 19.148 15.7898 19.1365 15.7236C19.1174 15.6146 19.1309 15.5023 19.168 15.3955C19.2507 15.1578 19.4498 14.9464 19.682 14.8554C19.9471 14.7516 20.2752 14.7862 20.5187 14.9325C20.6429 15.0072 20.7861 15.1367 20.8583 15.2634C20.9076 15.35 20.9104 15.4396 20.8791 15.5166C20.8446 15.6014 20.7702 15.6703 20.6752 15.7048C20.6302 15.7212 20.5839 15.7199 20.54 15.7083C20.4828 15.6931 20.4294 15.6608 20.3858 15.6232C20.3495 15.5919 20.3192 15.5575 20.2895 15.524ZM20.6857 14.0245C20.6312 14.0973 20.5511 14.1346 20.4676 14.1385C20.459 14.1389 20.4505 14.1389 20.442 14.1386C20.4366 14.1448 20.4306 14.1516 20.4235 14.1597C20.4072 14.1783 20.3965 14.1905 20.3854 14.2023C20.3453 14.2451 20.3031 14.2859 20.2591 14.3247C20.1612 14.4112 20.0557 14.4872 19.9417 14.5509C19.7419 14.6625 19.5227 14.7496 19.2974 14.7912C19.0738 14.8324 18.8531 14.8451 18.628 14.8128L18.5734 14.8049C18.4433 14.7859 18.2728 14.761 18.166 14.6804C18.2081 14.667 18.2507 14.6664 18.2923 14.6645C18.3196 14.6633 18.3468 14.6621 18.3733 14.6597C18.4993 14.6482 18.6218 14.6273 18.7438 14.5935C18.9809 14.5278 19.1958 14.4372 19.4052 14.3072C19.6105 14.1798 19.799 14.0065 19.9492 13.8166L19.9672 13.7936C19.9749 13.7837 19.9824 13.7738 19.9899 13.764C20.0514 13.6837 20.1078 13.6071 20.2032 13.5562C20.2788 13.5158 20.3554 13.5049 20.429 13.5165C20.5143 13.53 20.5954 13.573 20.6672 13.6332C20.7203 13.6777 20.7449 13.7417 20.7488 13.8074C20.7534 13.8847 20.7299 13.9652 20.6857 14.0245Z" fill="black"/>
</svg>
