<svg width="36" height="48" viewBox="0 0 36 48" fill="none" xmlns="http://www.w3.org/2000/svg">
<path fill-rule="evenodd" clip-rule="evenodd" d="M28.5619 40.2158C28.486 39.5104 28.4392 38.7999 28.4124 38.0909C28.3855 37.3827 28.4206 36.6658 28.436 35.9573C28.4674 34.5161 28.5184 33.0715 28.4037 31.6324C28.2953 30.2724 28.0465 28.9219 27.6538 27.6152C27.4625 26.9788 27.261 26.3168 26.9465 25.7288C26.6302 25.1375 26.1292 24.7438 25.5789 24.3828C24.993 23.9984 24.4119 23.6067 23.8283 23.2187C23.3384 22.8931 22.4568 22.514 22.0548 22.0786C21.6319 21.6205 21.5524 20.485 21.2707 19.9423C20.9964 19.4137 20.22 19.0689 19.6221 19.0689C18.6325 19.0689 17.8827 19.0183 17.069 19.934C16.663 20.3909 16.986 20.8529 16.5605 21.2914C16.1693 21.6946 15.1687 22.109 14.6645 22.3429C14.0605 22.6231 13.4413 22.8705 12.8132 23.0909C12.1724 23.3157 11.5155 23.4832 10.8711 23.6954C10.2534 23.8988 9.4469 24.737 8.9674 25.1805C8.52161 25.5929 8.41098 25.5467 8.07208 26.0477C7.32829 27.147 6.58369 28.259 5.99139 29.4493C5.69636 30.0422 5.4107 30.6659 5.30366 31.3244C5.18948 32.0267 5.30269 32.7054 5.48785 33.3854C5.67633 34.0774 6.27486 34.7362 6.46985 35.4265C6.55971 35.7446 6.25126 36.0917 6.39314 36.3915C6.464 36.5412 6.55323 36.6745 6.65483 36.8049C6.73311 36.9054 7.03838 36.8831 7.07788 37.0062C7.11778 37.1304 6.89693 37.3882 6.89364 37.5168C6.88898 37.7009 6.88165 37.8849 6.87561 38.0689L6.83993 39.1568C6.81649 39.8717 6.79305 40.5866 6.7696 41.3015C6.76194 41.5349 6.75076 41.7629 6.80669 41.9843C6.7865 41.9656 6.76732 41.9452 6.74979 41.9223C6.69849 41.8553 6.5897 41.9121 6.63323 41.9905C6.70591 42.1213 6.81042 42.2133 6.9332 42.2795C7.07589 42.4899 28.6854 42.9599 28.7917 42.3447C28.8514 41.9995 28.7428 41.6299 28.6994 41.2869C28.6542 40.9297 28.6005 40.574 28.5619 40.2158Z" fill="#D08B5B"/>
<path fill-rule="evenodd" clip-rule="evenodd" d="M6.04199 29.9473L28.3611 31.168C28.3771 31.3226 28.3913 31.4774 28.4036 31.6323C28.5183 33.0713 28.4673 34.516 28.4359 35.9572C28.4317 36.1482 28.4262 36.3399 28.4207 36.5318L26.219 36.8955L10.5667 37.2718L6.65471 36.8048L6.49235 36.5232L6.37986 36.033C6.42813 35.8318 6.52542 35.6235 6.46973 35.4264C6.4535 35.3689 6.43447 35.3116 6.41311 35.2546L6.43331 34.8612L6.04199 29.9473Z" fill="#FDEA6B"/>
<path fill-rule="evenodd" clip-rule="evenodd" d="M6.61106 31.3252C6.66392 31.1738 6.90574 31.2393 6.8525 31.3918C6.57882 32.176 6.77297 33.0294 7.06884 33.778C7.12821 33.9282 6.88596 33.9928 6.8274 33.8446C6.51616 33.0571 6.32361 32.1488 6.61106 31.3252M8.44608 35.8047C9.21791 35.9133 9.99037 35.9803 10.7675 36.0345C10.8023 36.037 10.8323 36.0317 10.8583 36.0204C10.8351 36.3764 10.8163 36.7327 10.8016 37.089C10.5897 37.0831 10.3735 37.0972 10.1635 37.0915C9.88896 37.084 9.61478 37.0702 9.34092 37.0493C8.81072 37.0092 8.28145 36.9453 7.75719 36.857C7.56126 36.8241 7.31244 36.8041 7.08928 36.739C6.87832 36.6773 6.69053 36.5752 6.59194 36.383C6.50805 36.2201 6.49272 36.0207 6.49272 35.8407C6.49272 35.7167 6.514 35.5908 6.52683 35.4659C6.5428 35.4546 6.55719 35.4411 6.56877 35.4261C6.80164 35.4997 7.04327 35.5514 7.27989 35.6014C7.66518 35.6835 8.0561 35.7499 8.44608 35.8047M8.01078 32.9096C8.01503 33.1489 8.08123 33.3663 8.21003 33.5677C8.29716 33.7041 8.08035 33.8296 7.99381 33.6942C7.8422 33.4569 7.76539 33.1906 7.76039 32.9096C7.75751 32.748 8.0079 32.7486 8.01078 32.9096M27.7957 35.5203C27.9002 35.5262 28.0054 35.5298 28.1102 35.5353C28.2026 35.6144 28.3307 35.655 28.4476 35.6298C28.4516 35.6399 28.4553 35.6513 28.4586 35.6644C28.4793 35.7448 28.4896 35.8313 28.5015 35.9133C28.5134 35.9941 28.5225 36.0755 28.5287 36.1569C28.5318 36.1979 28.5516 36.2906 28.5265 36.3263C28.504 36.3585 28.4542 36.3557 28.4198 36.3598C28.3271 36.3698 28.2332 36.3745 28.14 36.3824C27.9638 36.3977 27.7876 36.413 27.6117 36.4284C27.4392 36.4434 27.2498 36.4387 27.0811 36.4841C27.0523 36.1456 27.026 35.8072 27.0016 35.4684C27.263 35.5069 27.5362 35.5059 27.7957 35.5203M5.8827 34.959C5.98787 35.1621 6.08489 35.3619 6.28615 35.484C6.31244 35.4997 6.34186 35.5081 6.3719 35.5103C6.34937 35.6071 6.33528 35.706 6.32277 35.7974C6.29522 35.9988 6.28928 36.207 6.33967 36.4055C6.38881 36.5987 6.47018 36.7712 6.62981 36.8949C6.70399 36.9525 6.78505 36.9963 6.87018 37.0311C6.85579 37.0715 6.84733 37.1116 6.85172 37.1558C6.83137 37.2581 6.81791 37.3624 6.8032 37.4623C6.77097 37.6839 6.73873 37.9059 6.71338 38.1289C6.66267 38.5722 6.62292 39.0156 6.58943 39.4605C6.55594 39.9042 6.53184 40.3485 6.51181 40.7932C6.50148 41.0205 6.49241 41.2478 6.48395 41.4754C6.4755 41.7093 6.43763 41.9485 6.54092 42.1655C6.62417 42.3409 6.90555 42.3308 6.99194 42.1655C7.10148 41.9554 7.06924 41.7059 7.07206 41.4754C7.07488 41.2584 7.07863 41.0412 7.08333 40.8241C7.09272 40.3799 7.10649 39.9358 7.11744 39.4916C7.12809 39.0579 7.14123 38.6245 7.15 38.1909C7.15438 37.9639 7.15469 37.7369 7.15594 37.5098C7.15657 37.384 7.16189 37.2497 7.1525 37.1185C7.23075 37.1369 7.30962 37.1526 7.38755 37.1686C7.98255 37.2907 8.5838 37.3796 9.18881 37.4347C9.49272 37.4623 9.79757 37.4817 10.1024 37.4927C10.3265 37.5008 10.5588 37.5164 10.7863 37.508C10.7685 38.0515 10.7603 38.5954 10.7613 39.1393C10.7619 39.5316 10.7672 39.9239 10.7769 40.3163C10.7822 40.5226 10.7866 40.7289 10.7929 40.9353C10.7957 41.028 10.7957 41.1216 10.802 41.214C10.8038 41.2428 10.8079 41.2707 10.8132 41.2982C10.7926 41.3568 10.7753 41.4147 10.7613 41.4689C10.6924 41.7318 10.6924 41.9846 10.7231 42.2525C10.7494 42.4799 10.9406 42.6906 11.1932 42.6108C11.2342 42.5979 11.2752 42.5844 11.3159 42.5707C11.6877 42.6129 12.0617 42.6227 12.4389 42.6298C12.9901 42.6405 13.5415 42.6439 14.093 42.6468C15.1747 42.6524 16.2567 42.6552 17.3387 42.6583C19.5131 42.6646 21.6874 42.6706 23.8617 42.6768C24.4652 42.6787 25.0686 42.6803 25.6721 42.6822C25.9844 42.6831 26.2962 42.6834 26.6082 42.6953C26.7538 42.701 26.8996 42.7088 27.0451 42.711C27.2138 42.7138 27.3631 42.6652 27.5243 42.6211C27.6154 42.5957 27.6514 42.5043 27.632 42.427C27.7778 42.4617 27.9547 42.3878 28.0045 42.2235C28.0408 42.1041 28.0273 41.9748 27.9732 41.8643V41.864C27.8686 41.2036 27.7359 40.5464 27.6317 39.8857C27.5174 39.1621 27.4076 38.437 27.3109 37.7106C27.2383 37.162 27.1785 37.5509 27.1268 36.9998C27.3519 37.0173 27.6063 36.9488 27.8292 36.9196C27.9891 36.899 28.1503 36.8824 28.3106 36.8605C28.2987 37.022 28.3021 37.1867 28.2977 37.3417C28.2893 37.6495 28.293 37.956 28.3009 38.2639C28.3159 38.8578 28.3494 38.5121 28.4029 39.1036C28.457 39.6994 28.5234 40.2931 28.6038 40.8862C28.6451 41.1914 28.6893 41.4964 28.7359 41.801C28.7575 41.9432 28.7797 42.0851 28.8026 42.2272C28.8298 42.3947 28.8386 42.5535 28.9641 42.6793C29.0595 42.7748 29.2545 42.7667 29.3178 42.6336C29.3979 42.4655 29.3616 42.3214 29.3318 42.1449C29.3077 42.003 29.2846 41.8612 29.2617 41.7194C29.2129 41.4153 29.1666 41.1109 29.1231 40.8063C29.0392 40.2192 28.96 39.6312 28.8893 39.0426C28.8179 38.4492 28.744 38.7958 28.6739 38.2025C28.6386 37.9031 28.6032 37.6044 28.5619 37.306C28.5409 37.1526 28.5278 36.9892 28.5002 36.831C28.509 36.8298 28.5178 36.8282 28.5265 36.8266C28.7168 36.7919 28.8793 36.6845 28.9271 36.4885C28.9728 36.3009 28.9184 36.0852 28.8799 35.9011C28.847 35.7443 28.8173 35.5441 28.7164 35.4098C29.072 34.9567 29.3032 34.3866 29.4507 33.8385C29.6114 33.2414 29.6787 32.618 29.6929 32.001C29.7095 31.2861 29.6556 30.5753 29.5331 29.8763C29.5302 29.7282 29.5234 29.5801 29.5124 29.4322C29.4048 27.9806 28.9528 26.2626 27.5199 25.5844C27.5143 25.5816 27.5084 25.579 27.5024 25.5765C27.3901 25.4422 27.2498 25.3214 27.1365 25.2084C26.9359 25.0079 26.7262 24.8163 26.504 24.6397C26.0639 24.29 25.5813 24.0107 25.0796 23.7592C24.5722 23.5047 24.0573 23.2658 23.5616 22.988C23.1296 22.7457 22.7409 22.4539 22.3719 22.1245C21.9572 21.7541 21.662 21.2547 21.5462 20.7095C21.5403 20.6811 21.498 20.6889 21.4974 20.7161C21.4671 21.7152 22.1412 22.5982 22.9171 23.1568C23.8448 23.8241 24.965 24.14 25.9059 24.7869C26.1397 24.9475 26.3584 25.1288 26.5666 25.3214C26.2476 25.2888 25.9231 25.3095 25.6242 25.3978C25.5065 25.3906 25.3882 25.3884 25.2702 25.3827C25.0004 25.3693 24.7303 25.3568 24.4602 25.3448C23.9096 25.3204 23.3588 25.2982 22.8079 25.2788C21.7271 25.2406 20.6461 25.2118 19.565 25.1927C17.3926 25.1542 15.2173 25.1466 13.0451 25.2096C12.4561 25.2265 9.35876 25.1091 9.07206 25.1423C9.49366 24.7772 9.95625 24.4791 10.4649 24.2339C11.1012 23.928 11.7588 23.7239 12.4383 23.5372C13.8376 23.1531 15.2908 22.7826 16.4107 21.8067C16.689 21.564 16.9362 21.2851 17.1387 20.976C17.3322 20.6811 17.5472 20.3034 17.5525 19.9437C17.5563 19.6882 17.2007 19.5952 17.0743 19.814C16.9957 19.9496 16.9569 20.0983 16.8927 20.2405C16.8289 20.3814 16.7531 20.5173 16.6689 20.6473C16.5034 20.9028 16.298 21.1307 16.0746 21.3364C15.5982 21.7754 15.021 22.0969 14.4239 22.3402C13.068 22.8922 11.585 23.1252 10.3002 23.8529C9.7381 24.1713 9.20007 24.6106 8.86236 25.1711C8.8079 25.1795 8.75375 25.1895 8.6996 25.2008C8.73998 25.1498 8.78067 25.0988 8.82167 25.048C8.84859 25.0148 8.80696 24.971 8.7741 25.0004C8.13528 25.569 7.54687 26.183 7.01353 26.8525C6.50336 27.4931 6.02762 28.1644 5.69084 28.9147C5.08552 30.2623 4.95219 31.8037 5.26486 33.2447C5.35 33.6373 5.47018 34.0218 5.62323 34.3934C5.70211 34.5854 5.78755 34.7745 5.8827 34.959" fill="black"/>
<path fill-rule="evenodd" clip-rule="evenodd" d="M25.1242 18.9386C25.0004 18.755 24.7023 17.4231 24.5119 17.2182C24.5263 16.4313 24.7432 13.707 24.1235 12.4824C24.2539 12.3502 24.6003 11.2119 24.5119 10.7816C24.8039 9.88042 22.9282 8.44908 22.2144 8.0623C18.8968 6.27886 14.0894 8.24747 12.5806 11.5513C11.674 13.5409 11.6573 15.7686 11.5548 17.9095C11.5426 18.3678 11.5006 18.8296 11.5011 19.2873C11.5667 19.6895 11.8848 20.0991 11.6436 20.4335C11.3772 20.6183 10.8388 21.0682 11.0785 21.3234C11.219 21.4407 11.4434 21.3726 11.5959 21.4854C11.6735 21.5289 11.7219 21.6243 11.8127 21.6388C12.6418 21.6073 13.2268 21.6046 14.0585 21.5709C14.4226 21.5589 14.977 21.7133 15.3949 21.406C16.8547 22.2199 16.2441 21.039 16.5392 20.1983C17.4381 20.5029 19.2287 21.4746 20.1868 21.5059C20.9654 21.6024 21.6935 21.1478 22.459 21.2513C23.4099 21.6055 24.5244 21.6842 25.3954 21.085C25.6128 20.928 25.8546 21.1099 26.1286 20.9404C26.6611 20.6851 25.393 19.2218 25.1242 18.9386Z" fill="#D08B5B"/>
<path fill-rule="evenodd" clip-rule="evenodd" d="M12.5806 11.5513C14.0894 8.24747 18.8968 6.27886 22.2144 8.0623C22.9282 8.44908 24.8039 9.88042 24.5119 10.7816C24.5787 11.1069 24.397 11.8368 24.2481 12.2308C23.5563 12.7433 21.5365 12.6369 18.1886 11.9117L18.0601 11.8837L16.9168 12.5628L16.4472 14.3319C16.1319 14.6446 15.8772 15.0264 15.6829 15.4773C15.6829 15.4773 15.2103 14.9569 14.5095 15.0233C14.0539 15.2177 13.7184 15.4295 13.5031 15.6588C13.292 15.8835 13.2878 16.3872 13.4904 17.1699L13.5031 17.2182L14.5095 17.5323H14.9766L16.2598 19.1045L16.4472 20.7218C16.405 21.4298 16.5644 22.0581 15.3949 21.406C14.977 21.7133 14.4226 21.5589 14.0585 21.5709C13.2268 21.6046 12.6418 21.6073 11.8127 21.6388C11.7219 21.6243 11.6735 21.5289 11.5959 21.4854C11.4434 21.3726 11.219 21.4407 11.0785 21.3234C10.8388 21.0682 11.3772 20.6183 11.6436 20.4335C11.8848 20.0991 11.5667 19.6895 11.5011 19.2873C11.5006 18.8296 11.5426 18.3678 11.5548 17.9095L11.5638 17.7166C11.6591 15.6352 11.7012 13.4813 12.5806 11.5513ZM24.2322 17.957L24.5244 16.8473L24.5179 17.0142C24.5151 17.0918 24.513 17.1603 24.5119 17.2182C24.7023 17.4231 25.0004 18.755 25.1242 18.9386L25.1511 18.9672C25.4674 19.3085 26.6451 20.6927 26.1286 20.9404C25.8546 21.1099 25.6128 20.928 25.3954 21.085C24.5244 21.6842 23.4099 21.6055 22.459 21.2513C22.3475 21.2362 22.2368 21.233 22.1266 21.2382L22.0812 21.0957L23.1218 20.1983L24.2322 17.957Z" fill="#D6B370"/>
<path fill-rule="evenodd" clip-rule="evenodd" d="M24.0377 12.3778C24.0259 12.3098 24.1193 12.2591 24.1555 12.328C24.418 12.8284 24.5231 13.4079 24.6161 13.9606C24.71 14.5191 24.7721 15.08 24.7755 15.6469C24.7781 16.0831 24.7386 16.5243 24.6645 16.9607L24.6735 16.9918V16.9918C24.6901 17.0488 24.707 17.1058 24.7239 17.1628L24.7496 17.2482C24.7991 17.4122 24.846 17.577 24.8969 17.7406C25.0031 18.082 25.115 18.4244 25.2519 18.7549C25.3856 19.0773 25.5482 19.3883 25.7414 19.6789C25.9277 19.9591 26.2232 20.196 26.3544 20.5071C26.4002 20.6156 26.3325 20.7589 26.2062 20.7416C26.198 20.7515 26.1855 20.7587 26.1685 20.7602C26.0704 20.7688 25.9785 20.7606 25.8807 20.7514C25.826 20.7463 25.8261 20.6714 25.8807 20.6663C25.9222 20.6624 25.9627 20.6589 26.0032 20.6566C25.7233 20.4903 25.5237 20.1657 25.364 19.9C25.1589 19.5586 25.004 19.1855 24.8777 18.8083C24.7479 18.421 24.6561 18.0256 24.5823 17.6241C24.5738 17.5779 24.5658 17.5317 24.558 17.4854C24.4648 17.8828 24.3447 18.273 24.2023 18.6479L24.1824 18.7001C23.8543 19.5528 23.4099 20.4137 22.6708 20.9774C22.6372 21.0029 22.603 21.0272 22.5684 21.0509L22.6105 21.0751C22.6523 21.099 22.6935 21.122 22.7339 21.1409C22.8832 21.2107 23.0453 21.264 23.2057 21.3017C23.537 21.3797 23.8849 21.3574 24.2228 21.3682C24.3336 21.3718 24.3967 21.5384 24.2834 21.5925C23.9101 21.7707 23.507 21.7329 23.1217 21.6075C22.931 21.5454 22.7521 21.4585 22.5866 21.3451C22.5182 21.2982 22.4387 21.2403 22.3717 21.1735C21.6325 21.5881 20.7137 21.6345 19.891 21.4862C19.4634 21.4091 19.0491 21.2684 18.6846 21.0276C18.334 20.7961 18.0841 20.503 17.9056 20.1232C17.8898 20.0895 17.9338 20.0476 17.9608 20.0805C18.5213 20.7629 19.4858 21.0477 20.3344 21.1019C20.7871 21.1308 21.2503 21.1067 21.6856 20.9709C22.0985 20.8421 22.4528 20.6059 22.7486 20.2917C23.3483 19.6549 23.7076 18.7887 23.9656 17.9643C24.2463 17.0674 24.38 16.1238 24.4076 15.1853C24.4216 14.7097 24.404 14.2302 24.3295 13.76C24.2556 13.2936 24.1184 12.8422 24.0377 12.3778ZM15.6345 8.33768C15.6742 8.31746 15.7021 8.37009 15.6685 8.39598C14.9696 8.93331 14.3437 9.61465 13.8371 10.3358C12.9028 11.6658 12.3036 13.2048 12.0277 14.8041C11.8648 15.7485 11.8223 16.7073 11.8385 17.6643C11.845 18.0445 11.8666 18.4235 11.8907 18.8026L11.9179 19.2229C11.9306 19.4187 11.9411 19.6128 11.9329 19.8095L11.9307 19.855C11.9178 20.0839 11.9403 20.3147 11.883 20.5381C11.8536 20.6526 11.6924 20.6706 11.6341 20.5707C11.6227 20.5511 11.612 20.5309 11.6016 20.5105C11.4649 20.7341 11.2878 20.9339 11.0913 21.1125C11.1852 21.0924 11.2801 21.0797 11.3774 21.0913C11.5317 21.1099 11.6701 21.1696 11.7681 21.2743C11.8653 21.2304 11.9653 21.2001 12.0803 21.1995C12.1649 21.1991 12.2284 21.2994 12.1801 21.374C12.0837 21.5228 11.9492 21.6062 11.7964 21.6886C11.6881 21.7471 11.5589 21.6971 11.5189 21.5815L11.5166 21.5745C11.4716 21.4284 11.2322 21.452 11.1193 21.4746L11.086 21.4814C10.8758 21.5252 10.6705 21.5814 10.4563 21.5235C10.3182 21.4861 10.2821 21.2777 10.4153 21.2085C10.836 20.9899 11.1892 20.6964 11.5521 20.4016C11.472 20.2046 11.4265 19.9845 11.374 19.7842C11.3001 19.5023 11.2786 19.199 11.2519 18.9094C11.2012 18.3588 11.1819 17.8022 11.1873 17.2494C11.2057 15.3824 11.5242 13.5096 12.3378 11.8189C12.6942 11.0783 13.1625 10.393 13.7159 9.78642C14.2661 9.1834 14.9087 8.70722 15.6345 8.33768ZM14.9831 17.481C14.9615 17.451 15.0037 17.4113 15.0332 17.4307C15.6729 17.852 16.1168 18.4916 16.4032 19.1943C16.6868 19.8899 16.8609 20.742 16.5812 21.4674C16.5367 21.5829 16.3236 21.6258 16.3017 21.4674C16.2043 20.7599 16.1891 20.0514 15.9748 19.3635C15.7622 18.6817 15.3986 18.0573 14.9831 17.481ZM14.4871 19.7779C14.4906 19.7654 14.511 19.7675 14.5101 19.781C14.4941 20.0305 14.4832 20.283 14.4519 20.5311C14.4367 20.6517 14.4166 20.7715 14.3995 20.8918C14.3819 21.0152 14.3846 21.1397 14.313 21.2451C14.2182 21.3848 13.9663 21.3455 13.9747 21.1532C13.9806 21.0206 14.0414 20.9355 14.0983 20.8191C14.1348 20.7445 14.1667 20.6674 14.1973 20.5899L14.2429 20.4737C14.3336 20.2432 14.4203 20.0166 14.4871 19.7779ZM13.3417 19.117C13.3455 19.0973 13.3771 19.1021 13.3762 19.1216C13.3591 19.4748 13.3194 19.8239 13.2571 20.1719C13.2288 20.3305 13.1957 20.4882 13.1607 20.6455L13.1456 20.7128C13.1082 20.8785 13.0841 21.0732 13.0002 21.2212C12.9165 21.3691 12.7176 21.2617 12.7433 21.1126C12.7734 20.9386 12.88 20.7635 12.9419 20.5964C12.9991 20.4421 13.049 20.285 13.0957 20.1273C13.194 19.7951 13.2746 19.4568 13.3417 19.117ZM15.4747 20.0973L15.4822 20.0897C15.5113 20.0579 15.5547 20.0791 15.5686 20.1125C15.6255 20.2497 15.597 20.4115 15.593 20.5571L15.5922 20.5889C15.5892 20.7364 15.5913 20.8746 15.5246 21.0107C15.4436 21.1761 15.2301 21.0734 15.2136 20.9263C15.1955 20.7658 15.2712 20.6086 15.3202 20.4583C15.3512 20.3627 15.3739 20.2633 15.4211 20.1766C15.3807 20.1836 15.3404 20.1976 15.3034 20.2077C15.2869 20.2121 15.2806 20.1878 15.2964 20.1822C15.3575 20.1605 15.4265 20.1442 15.4747 20.0973V20.0973ZM23.9907 20.5841C23.9711 20.5622 23.9955 20.5331 24.0208 20.5449C24.325 20.6873 24.6095 20.78 24.9452 20.8103C25.0907 20.8235 25.0916 21.0526 24.9452 21.0393C24.5949 21.0077 24.2278 20.8502 23.9907 20.5841ZM13.2879 15.7718C13.5558 15.1678 14.403 14.6321 14.9712 15.1937C14.9818 15.2042 14.971 15.2271 14.9556 15.2207C14.6022 15.0739 14.1695 15.2606 13.9249 15.5277C13.7309 15.7395 13.6143 16.0116 13.5911 16.2983C13.568 16.5853 13.6364 16.8848 13.8265 17.1067C13.9263 17.2232 14.0609 17.3334 14.2194 17.3474C14.3794 17.3615 14.5128 17.2486 14.6641 17.2179C14.7781 17.1948 14.8642 17.2665 14.8753 17.3792C14.9 17.6279 14.653 17.7948 14.4389 17.8354C14.2086 17.8789 13.9735 17.8313 13.7751 17.7062C13.1341 17.3021 12.9958 16.4305 13.2879 15.7718ZM19.3017 9.85203C19.4181 9.74044 19.6163 9.85138 19.5733 10.0106C19.4819 10.3493 19.2877 10.6357 19.0725 10.9075C18.8654 11.1689 18.6436 11.4202 18.4059 11.6541C18.1697 11.8864 17.9131 12.1014 17.6434 12.2934L17.5621 12.3511C17.371 12.4862 17.1685 12.6228 16.9546 12.7201C16.9029 13.1663 16.8019 13.6065 16.6489 14.028C16.5017 14.4338 16.3143 14.8261 16.0872 15.1931L16.0546 15.2457C15.846 15.5809 15.5951 15.9556 15.241 16.1393C15.2304 16.1449 15.2197 16.1483 15.2092 16.1502C15.2884 16.2032 15.3554 16.2698 15.3952 16.3655C15.4388 16.4702 15.3476 16.5691 15.2603 16.6037C15.0755 16.6769 14.8953 16.553 14.7292 16.4209C14.7222 16.4367 14.7156 16.4527 14.7099 16.4688C14.6728 16.5744 14.6618 16.6822 14.5661 16.7522C14.5206 16.7855 14.4645 16.7557 14.4359 16.718C14.342 16.5943 14.4392 16.4258 14.5217 16.3248C14.5332 16.3108 14.545 16.2975 14.5571 16.2848C14.5222 16.2591 14.4882 16.2363 14.4552 16.2188C14.2613 16.1158 13.9738 16.0976 13.8622 16.3255C13.8536 16.343 13.8267 16.3339 13.8267 16.3158C13.827 16.0359 14.1131 15.8838 14.3613 15.8632C14.5427 15.8481 14.7181 15.9119 14.8813 15.9861L14.9118 16.0001C14.9726 16.0284 15.0351 16.0551 15.095 16.0849C15.0853 16.0592 15.0855 16.0288 15.1008 15.9988C15.2885 15.6312 15.6109 15.3323 15.8434 14.9919C16.074 14.6542 16.2719 14.2928 16.4299 13.9154C16.5833 13.5491 16.7034 13.1713 16.7875 12.7859C16.7598 12.7917 16.7286 12.7669 16.7306 12.738C16.7352 12.6679 16.7694 12.6048 16.8295 12.5779C16.8957 12.2154 16.9294 11.8468 16.9274 11.4753C16.9273 11.4465 16.9689 11.4475 16.9714 11.4753C17.0006 11.8056 17.003 12.1392 16.9784 12.4709C17.1346 12.3268 17.2994 12.1898 17.4498 12.0419C17.6761 11.8193 17.8951 11.5908 18.1063 11.3538C18.3218 11.112 18.5255 10.8613 18.7118 10.5961L18.8093 10.457C18.9592 10.2438 19.1131 10.0328 19.3017 9.85203ZM19.0078 7.47157C20.2932 7.39113 21.666 7.54951 22.8206 8.15441C23.4548 8.48659 23.9449 8.98866 24.2951 9.61347C24.5042 9.98658 24.6628 10.3997 24.7229 10.8245C24.7847 11.2609 24.7122 11.6501 24.4342 11.997C24.3238 12.1348 24.1379 11.9809 24.1651 11.8399C24.3315 10.9775 24.0616 10.1254 23.5828 9.41142C22.8882 8.37534 21.6751 7.91509 20.4939 7.70979C19.9136 7.60897 19.3251 7.56682 18.7363 7.58733C18.2875 7.60298 17.827 7.64491 17.4011 7.7963C17.3831 7.80269 17.376 7.77463 17.3933 7.76803C17.9014 7.57349 18.4686 7.50533 19.0078 7.47157ZM20.9142 9.42172C20.9804 9.37967 21.0613 9.42282 21.0841 9.49104C21.1643 9.73158 20.9962 10.0494 20.8837 10.2575C20.7565 10.4931 20.5929 10.7133 20.4239 10.9202C20.0859 11.3339 19.6416 11.6792 19.154 11.8961C19.1242 11.9095 19.0894 11.8733 19.1168 11.8478C19.494 11.4956 19.836 11.1181 20.1321 10.6945C20.2776 10.4864 20.3989 10.2668 20.5148 10.0413C20.6185 9.83948 20.716 9.54766 20.9142 9.42172ZM23.0761 9.70507C23.1183 9.55703 23.3592 9.58224 23.3492 9.74214C23.3235 10.1552 23.1291 10.5699 22.9179 10.92C22.7004 11.2805 22.4249 11.6017 22.1092 11.8792C22.0936 11.8928 22.0723 11.8718 22.0864 11.8563C22.3588 11.5574 22.5789 11.2168 22.7418 10.8462C22.9046 10.4762 22.966 10.09 23.0761 9.70507ZM21.8789 9.63819C21.925 9.50947 22.1455 9.51902 22.132 9.67254C22.0948 10.0945 21.8477 10.5368 21.6189 10.8854C21.3761 11.2552 21.0662 11.581 20.7198 11.8546C20.7069 11.8649 20.6885 11.8479 20.7012 11.8359C21.0123 11.5421 21.2646 11.2026 21.4643 10.824C21.5663 10.6308 21.6518 10.4296 21.7193 10.2218C21.7818 10.0296 21.8111 9.82768 21.8789 9.63819Z" fill="black"/>
<path fill-rule="evenodd" clip-rule="evenodd" d="M21.4996 19.3172C21.7362 19.2843 21.9906 19.1502 22.2166 19.2592C22.3222 19.3101 22.3723 19.4842 22.3009 19.581C22.1918 19.7288 22.0792 19.7533 21.9022 19.7675C21.7694 19.7781 21.636 19.7789 21.5036 19.7636L21.4699 19.7595C21.2337 19.729 20.9881 19.663 20.8051 19.5042C20.7677 19.4717 20.7869 19.4015 20.8349 19.3913C21.0522 19.3456 21.2796 19.3479 21.4996 19.3172ZM21.2211 18.7722C21.221 18.7703 21.224 18.7703 21.2241 18.7722C21.2298 18.9075 21.2678 19.0329 21.338 19.1486C21.339 19.1503 21.3364 19.1518 21.3355 19.1501C21.2652 19.0343 21.2269 18.9076 21.2211 18.7722ZM21.9669 15.9806C22.2033 16.1243 22.5634 16.4594 22.3091 16.8157C22.0098 17.1299 21.5789 16.7697 21.3666 16.6068C21.1697 16.4805 20.9485 16.8052 21.1312 16.9526C22.6655 18.0891 23.2882 16.0182 22.0864 15.8116C21.9541 15.7888 21.905 15.9361 21.9669 15.9806ZM23.1766 14.3722C23.2321 14.3722 23.2852 14.3911 23.3335 14.4259C23.3811 14.4602 23.4242 14.5103 23.46 14.5728C23.5279 14.691 23.5704 14.8543 23.5704 15.0348C23.5704 15.2152 23.5279 15.3785 23.46 15.4967C23.4242 15.5592 23.3811 15.6093 23.3335 15.6436C23.2852 15.6785 23.2321 15.6973 23.1766 15.6973C23.1211 15.6973 23.068 15.6785 23.0197 15.6436C22.9721 15.6093 22.929 15.5592 22.8931 15.4967C22.8253 15.3785 22.7828 15.2152 22.7828 15.0348C22.7828 14.8543 22.8253 14.691 22.8931 14.5728C22.929 14.5103 22.9721 14.4602 23.0197 14.4259C23.068 14.3911 23.1211 14.3722 23.1766 14.3722ZM20.6064 14.5563L20.6273 14.5523C20.7492 14.5302 20.8108 14.5376 20.917 14.6207C20.9967 14.6832 20.9739 14.8062 20.917 14.8719C20.8178 14.9864 20.7209 14.9661 20.5851 14.9705L20.5755 14.9708C20.4623 14.9754 20.349 14.9787 20.2357 14.9804C20.2047 14.9809 20.1737 14.9808 20.1427 14.981C20.146 15.2678 19.9807 15.4862 19.763 15.6522C19.6223 15.7596 19.4443 15.6357 19.3941 15.5021C19.3525 15.3915 19.3436 15.2555 19.3651 15.1344C19.3731 15.0898 19.3897 15.0414 19.4152 15L19.4223 14.989L19.4212 14.9731C19.4209 14.9692 19.4212 14.9654 19.421 14.9615C19.2189 14.9492 19.018 14.9289 18.8171 14.9035L18.7501 14.8948C18.5787 14.8721 18.3269 14.8648 18.1881 14.7532C18.1838 14.7497 18.1853 14.7419 18.19 14.7394C18.2662 14.6983 18.3436 14.7006 18.4289 14.6968L18.4412 14.6962C18.5339 14.6914 18.6265 14.6875 18.7192 14.6843L18.812 14.6814C19.0493 14.6746 19.2868 14.663 19.5239 14.6504C19.5651 14.6482 19.6064 14.6456 19.6476 14.6431C19.6908 14.625 19.7367 14.6142 19.782 14.6122C19.8196 14.6105 19.8557 14.6157 19.8896 14.6265C19.9762 14.6198 20.0628 14.6125 20.1493 14.6047L20.2357 14.5966C20.3577 14.585 20.486 14.5799 20.6064 14.5563ZM22.1046 12.4065C22.3655 12.2783 22.6826 12.2751 22.9512 12.3812L22.969 12.3885C23.2403 12.5011 23.5672 12.7612 23.4964 13.0852C23.4316 13.3818 22.9666 13.3316 22.9431 13.0512C22.7929 12.8431 22.4562 12.7975 22.2446 12.9298C22.1162 13.0101 22.0281 13.1453 21.9679 13.2816C21.9166 13.3977 21.9069 13.5411 21.8281 13.6422C21.8255 13.6455 21.8204 13.6461 21.8166 13.6452C21.5815 13.5908 21.5761 13.217 21.6162 13.0357C21.6744 12.7722 21.8614 12.5262 22.1046 12.4065Z" fill="black"/>
<path fill-rule="evenodd" clip-rule="evenodd" d="M24.6048 16.2605C24.3941 16.5438 24.0034 16.634 23.643 16.6028C22.8659 16.528 22.6213 15.645 22.5958 14.9587C23.1169 15.1053 22.5517 14.0666 24.3332 13.9524C24.9612 13.9 24.7881 14.2795 25.0655 14.5567C25.0598 15.1385 24.963 15.7707 24.6048 16.2605M20.903 15.592C20.4442 17.7416 17.9316 17.2303 17.6676 15.2926C17.9114 15.1205 17.8472 14.6955 18.15 14.5416C18.6298 14.2349 19.2297 14.248 19.7746 14.2552C20.4712 14.3031 20.6697 14.5917 21.0275 14.9066C21.0103 15.117 20.9607 15.3663 20.903 15.592M25.6001 13.5964C25.5744 13.5921 25.5486 13.588 25.5228 13.5843C25.5027 13.5728 25.479 13.564 25.4515 13.5587C25.3888 13.5428 25.3265 13.5321 25.2643 13.5263C24.3712 13.3252 22.3053 13.6107 22.22 14.373C21.9356 14.468 21.6896 14.383 21.36 14.3914C21.1091 13.3423 16.7716 13.4904 16.563 14.1229C16.5622 14.1227 16.5614 14.1225 16.5606 14.1222C16.3602 14.0602 16.0647 14.0751 15.8352 14.0653C15.3454 14.055 14.855 14.0987 14.3757 14.2021C13.4782 14.3448 12.2533 14.5118 12.8775 15.633C12.8776 15.6332 12.8777 15.6334 12.8779 15.6336L12.878 15.6335C12.9855 15.7438 13.1681 15.655 13.1749 15.5057C12.965 14.9745 13.439 14.9107 13.8037 14.7581C14.7112 14.4319 15.6351 14.3867 16.5736 14.4876C16.6442 14.5708 16.7513 14.6433 16.8646 14.6812C17.4921 14.7854 17.1614 15.2511 17.558 15.3188C17.4852 16.9421 19.4551 17.8281 20.5966 16.7611C21.0523 16.3153 21.161 15.655 21.2666 15.0598C21.3225 15.0472 21.358 15.0167 21.3788 14.9762C21.5131 14.842 21.5976 14.7181 21.8633 14.6812C22.1289 14.6444 22.3335 14.7183 22.3612 14.741C22.3681 14.755 22.3756 14.7691 22.3843 14.7832C22.3965 14.8042 22.413 14.821 22.4318 14.8342C22.1694 16.4506 23.4238 17.4728 24.6901 16.6345C25.2403 16.1167 25.3566 15.3239 25.3796 14.6164C25.4541 14.5713 25.5014 14.4841 25.4756 14.3744C25.44 14.2231 25.5234 14.0922 25.6563 14.0264C25.829 13.941 25.7984 13.6292 25.6001 13.5964" fill="black"/>
</svg>
