<svg width="36" height="48" viewBox="0 0 36 48" fill="none" xmlns="http://www.w3.org/2000/svg">
<path fill-rule="evenodd" clip-rule="evenodd" d="M26.8257 26.1625C26.5529 25.1042 26.302 24.6555 25.8174 24.2876C25.3641 23.9436 24.7024 23.6546 23.7369 23.4435C22.7313 23.2676 22.7028 22.7449 22.4506 21.9047C22.3771 21.6521 22.0126 21.5849 21.8553 21.7669C21.8331 21.743 21.81 21.7211 21.786 21.7012C21.8074 21.5808 21.6321 21.2355 21.6379 21.1203C21.6991 19.9175 21.3058 19.3136 20.324 19.089C20.1106 19.0402 18.6604 19.0114 18.4522 19.069C17.5422 19.3207 16.6463 20.1197 16.7834 21.0822C16.4978 21.4556 16.2182 21.6835 15.7775 21.8038C15.0911 21.891 15.4359 31.6162 16.6279 37.4427C17.1393 39.9426 29.3681 35.6877 28.8155 34.4356C28.8939 34.2061 28.7511 33.9539 28.8155 33.7169C28.8622 33.5454 28.9816 33.4745 29.0417 33.3046C29.1263 33.0656 29.0343 32.745 28.9391 32.5012C28.9001 32.3796 29.0109 32.2488 29.0417 32.1248C29.1879 31.5398 28.8532 31.5913 28.612 31.2003C28.6156 31.1991 28.6783 30.9199 28.678 30.9213C28.715 30.7219 28.6224 30.4666 28.5417 30.3002C28.4872 30.1878 28.3703 30.1174 28.2542 30.1303C28.3711 29.7332 28.519 29.4028 28.678 29.0203C28.9593 28.346 29.2268 27.6406 29.6306 27.0302C29.796 26.7803 29.6624 26.5504 29.3948 26.5334C28.5285 26.4784 27.6717 26.3536 26.8257 26.1625Z" fill="#D08B5B"/>
<path fill-rule="evenodd" clip-rule="evenodd" d="M25.4735 26.2441L23.4961 29.5916C23.4961 29.5916 23.9652 29.6384 24.1551 29.7296C24.3449 29.8209 25.2166 30.9293 25.2166 30.9293L25.3551 31.5397L25.0269 32.0318L25.1549 32.3407C25.1549 32.3407 25.2462 32.1314 25.4735 31.9689C25.7009 31.8064 26.2023 31.5397 26.2023 31.5397C26.2023 31.5397 26.0356 31.4505 26.0356 31.3458C26.0356 31.2411 25.8889 30.7946 26.2023 30.6259C26.5156 30.4572 28.135 30.0624 28.135 30.0624L29.7762 26.5997L25.4735 26.2441Z" fill="#EC7495"/>
<path fill-rule="evenodd" clip-rule="evenodd" d="M16.6521 21.8262L22.9311 22.9285L25.8174 24.2873L26.2886 24.6503L23.496 29.5913L19.1839 30.3783L18.0853 33.2326L18.3095 36.45L25.3244 35.6134L28.3503 35.2537L29.0616 38.1261L28.9331 39.3078L28.7462 39.907L21.2448 41.9328C21.2448 41.9328 17.425 41.5624 16.7479 41.5624C16.0708 41.5624 11.1062 42.0556 11.1062 42.0556L9.95753 41.9328C9.95753 41.9328 7.41611 39.2535 7.02193 38.2999C6.62776 37.3464 5.77539 31.5499 5.77539 31.5499L5.86924 30.6592L8.06498 25.0071C8.06498 25.0071 8.35819 24.7407 8.72785 24.2873C9.09751 23.8338 16.6521 21.8262 16.6521 21.8262Z" fill="#9DDADB"/>
<path fill-rule="evenodd" clip-rule="evenodd" d="M28.0171 29.9908C27.4496 30.0197 26.8816 30.1546 26.3683 30.3991C26.1582 30.4993 25.9679 30.644 25.9122 30.8819C25.8841 31.0035 25.8909 31.129 25.9059 31.2518C25.9172 31.3447 25.9201 31.4634 26.0008 31.5263C26.0146 31.537 26.0293 31.5451 26.0446 31.5511C25.8553 31.6365 25.675 31.7393 25.5147 31.8451C25.3683 31.9418 25.2177 32.0909 25.1501 32.259C25.1445 32.2399 25.1388 32.2221 25.1332 32.2052C25.018 31.8645 24.8406 31.5855 24.5611 31.398C24.5293 31.2823 24.1887 30.7843 23.8723 30.8031C23.5258 30.8234 23.2471 30.8488 22.9338 31.0081C22.8196 31.0056 22.7056 31.0072 22.593 31.0122C22.5736 31.0128 22.5745 31.0392 22.593 31.0413C22.6844 31.0529 22.7758 31.0657 22.8672 31.0808C23.0844 31.1156 23.301 31.1597 23.5128 31.2145C23.767 31.2803 24.0299 31.3463 24.2675 31.4612C24.7282 31.6845 25.0133 32.2681 24.9548 32.776C24.9451 32.8592 24.9129 33.111 24.7973 33.085C24.6997 33.0631 24.6609 32.8592 24.6268 32.7838C24.5354 32.5834 24.3708 32.4525 24.1733 32.3639C23.9413 32.2596 23.6931 32.1892 23.4527 32.1072C23.3166 32.0605 23.1805 32.0138 23.044 31.9675C22.9044 31.9196 22.7717 31.8535 22.623 31.887C22.5332 31.9074 22.5229 32.0145 22.5733 32.0759C22.6499 32.1695 22.7639 32.197 22.8744 32.2355C23.0202 32.2863 23.1658 32.337 23.3113 32.3877C23.5363 32.466 23.772 32.532 23.9914 32.6279L23.9845 32.6435C23.9667 32.6385 23.9457 32.6564 23.9492 32.6783C23.982 32.8809 24.0277 33.1151 23.977 33.318C23.937 33.4789 23.7958 33.6571 23.6124 33.6098C23.6412 33.5835 23.6518 33.5381 23.6324 33.4961C23.5598 33.3408 22.6083 32.7277 22.5235 32.9554C22.5207 32.9635 22.5294 32.9695 22.5363 32.9682C22.6086 32.9532 22.7298 33.0765 22.7876 33.1157C22.8712 33.1721 22.956 33.2272 23.0387 33.2851C23.1291 33.3484 23.2174 33.4147 23.3035 33.4833C23.3711 33.5372 23.4221 33.5932 23.4997 33.6205C23.459 33.6398 23.4268 33.6758 23.413 33.7219C23.378 33.8418 23.3104 33.9436 23.193 33.9965C23.07 34.0516 22.9313 34.0168 22.8017 34.0303C22.6252 34.0481 22.4712 34.1321 22.3426 34.252C22.0725 34.5043 21.937 34.949 21.5592 35.0683C21.3335 35.1394 21.0831 35.0946 20.8546 35.0623C20.5996 35.0263 20.351 34.9978 20.0941 35.0354C19.8481 35.0714 19.6155 35.1565 19.3908 35.2605C19.1802 35.3579 18.9473 35.4681 18.7604 35.6134C18.7219 35.4947 18.6831 35.3773 18.6537 35.2561C18.5842 34.9697 18.5467 34.6778 18.5376 34.3835C18.5291 34.1033 18.5448 33.8218 18.5689 33.5428C18.5808 33.4034 18.5996 33.2647 18.6114 33.1254C18.6145 33.0903 18.6208 33.0528 18.6255 33.0152C18.9592 32.8182 19.3097 32.6673 19.6631 32.512C19.664 32.5117 19.665 32.5111 19.6659 32.5108C19.6769 32.5057 19.6875 32.5011 19.6985 32.4964C19.6981 32.4957 19.6978 32.4951 19.6972 32.4945C19.7376 32.4698 19.7658 32.4369 19.7827 32.3999C20.2919 32.0621 20.7176 31.6009 21.0349 31.0629C21.1679 30.8375 21.296 30.6036 21.47 30.4061C21.6553 30.1953 21.8753 30.0701 22.1476 30.0049C22.4659 29.9286 22.7939 29.8828 23.1201 29.8568C23.2981 29.8428 23.4972 29.8208 23.6913 29.8218C23.8265 29.8227 23.9588 29.8343 24.0803 29.8678C24.2603 29.9173 24.3654 30.0541 24.4784 30.1925C24.5864 30.3253 24.6938 30.4583 24.7945 30.5967C24.89 30.7279 24.9802 30.8635 25.0584 31.0056C25.1053 31.0908 25.1489 31.1785 25.1855 31.269C25.1983 31.3009 25.2152 31.3372 25.223 31.3704C25.2309 31.4039 25.2165 31.4393 25.254 31.4393C25.0991 31.4415 24.9961 31.8279 25.1501 31.8189C25.3666 31.8063 25.4755 31.5466 25.433 31.3162C25.3574 30.9052 24.9486 30.4088 24.8678 30.3036C24.689 30.0713 24.5047 29.7682 24.2186 29.6602C24.2146 29.6586 24.2102 29.6571 24.2061 29.6558C24.2894 29.5769 24.3551 29.4824 24.418 29.3862C24.4828 29.2873 24.5601 29.1739 24.5814 29.0565C24.5949 28.9817 24.5019 28.9391 24.4578 29.0045C24.3936 29.1 24.3626 29.2209 24.3147 29.3258C24.2659 29.4322 24.2064 29.5328 24.1595 29.6401C24.0465 29.6054 23.9244 29.5895 23.8002 29.5841C23.957 29.3718 24.2249 28.9623 24.2571 28.9097C24.4055 28.6661 24.5467 28.415 24.6816 28.1635C24.8274 27.8911 24.9523 27.6074 25.0919 27.3319C25.1711 27.1757 25.2509 27.0182 25.3388 26.8666C25.3692 26.8146 25.4017 26.7627 25.4387 26.7154C25.4459 26.706 25.455 26.6982 25.4634 26.6894C25.4731 26.6841 25.4831 26.6781 25.4888 26.675C25.5394 26.6459 25.5573 26.5783 25.593 26.5353C25.6499 26.4662 25.7169 26.458 25.8027 26.4571C25.9854 26.4552 26.1689 26.4624 26.3514 26.4674C26.6196 26.4749 26.8875 26.4856 27.1554 26.4996C27.2365 26.504 27.3172 26.5084 27.3983 26.5134C27.788 26.5366 28.1773 26.567 28.5658 26.6043C28.9094 26.6371 29.2531 26.6907 29.597 26.7163C29.1313 27.8232 28.6149 28.91 28.0302 29.9589C28.0243 29.9695 28.0199 29.9802 28.0171 29.9908ZM25.433 32.8423C25.3579 32.8768 25.285 32.9197 25.2171 32.9686C25.2283 32.8925 25.2312 32.8123 25.228 32.7318C25.2841 32.7919 25.3557 32.8264 25.433 32.8423ZM28.6396 30.9383C28.6343 30.9389 28.6293 30.9418 28.6268 30.9471C28.5229 31.1616 28.5663 31.4011 28.736 31.5692C28.8249 31.6569 29.0186 31.7558 29.0124 31.8999C29.007 32.0164 28.8803 32.114 28.8262 32.2102C28.7758 32.2997 28.757 32.398 28.7974 32.4951C28.849 32.6194 28.9933 32.6689 29.0427 32.791C29.1053 32.946 29.0036 33.1329 28.9323 33.2679C28.8659 33.3928 28.7801 33.5177 28.7232 33.6499C28.3417 33.8475 27.4759 34.2063 27.3717 34.2263C27.2446 34.251 27.1172 34.2745 26.9895 34.2965C26.7444 34.339 26.4988 34.3785 26.2525 34.4132C26.1122 34.4329 25.9717 34.4524 25.8312 34.4677C25.7085 34.4809 25.5701 34.4987 25.4712 34.4064C25.2719 34.2197 25.3836 33.9069 25.5097 33.7184C25.5122 33.7147 25.5122 33.7112 25.5113 33.7081C25.6302 33.6802 25.7489 33.6477 25.8672 33.6248C26.0947 33.581 26.3238 33.5441 26.5532 33.5112C27.0246 33.4438 27.4991 33.3994 27.9729 33.3546C28.0903 33.3433 28.0915 33.1586 27.9729 33.1696C27.2922 33.2319 26.608 33.291 25.9363 33.4223C25.7679 33.4548 25.6008 33.4917 25.4346 33.5334C25.3561 33.5528 25.2719 33.5832 25.1895 33.5841C25.1845 33.5841 25.1795 33.5841 25.1745 33.5838C25.0133 33.5788 24.9899 33.4407 25.0784 33.3258C25.0894 33.3117 25.1007 33.2976 25.1122 33.2842C25.2687 33.0975 25.4637 32.9729 25.6646 32.8439C25.8897 32.8132 26.1141 32.745 26.3345 32.6949C26.8784 32.5709 27.4224 32.4469 27.9667 32.3232C28.0734 32.2988 28.028 32.1347 27.9213 32.1588C27.5082 32.2525 27.095 32.3461 26.6818 32.4397L26.0772 32.5769C25.9564 32.6041 25.8055 32.6589 25.6634 32.6786C25.5933 32.6883 25.5254 32.6895 25.464 32.6752C25.2659 32.6282 25.2559 32.3805 25.3413 32.2333C25.4371 32.068 25.618 31.9647 25.7786 31.8711C26.0568 31.7086 26.3529 31.5918 26.6421 31.4571C26.6935 31.4459 26.7448 31.4346 26.7961 31.4233C27.0947 31.3576 27.4359 31.3253 27.7169 31.2048C27.8011 31.1691 27.7551 31.0363 27.6719 31.0382C27.4537 31.0429 27.2255 31.1205 27.0124 31.1666C26.7817 31.2167 26.5507 31.2665 26.3201 31.3162C26.2969 31.3212 26.1598 31.3651 26.1391 31.3554C26.126 31.3491 26.1213 31.3034 26.1169 31.2733C26.1028 31.1744 26.0925 31.0705 26.1079 30.9712C26.1417 30.7486 26.3273 30.644 26.515 30.5585C26.9332 30.3684 27.3917 30.2495 27.8481 30.2019C27.9532 30.1909 28.0584 30.1841 28.1642 30.1806C28.2884 30.1768 28.3908 30.1549 28.4537 30.2773C28.5526 30.4702 28.6071 30.7182 28.6396 30.9383ZM28.0589 37.9315C27.9678 37.6163 27.9926 37.2797 27.9302 36.9581C27.898 36.7922 27.854 36.6277 27.806 36.4657C27.7672 36.3349 27.7026 36.1958 27.6953 36.0592C27.6948 36.0501 27.7056 36.0449 27.7129 36.0491C27.8415 36.1227 27.9402 36.2819 28.0135 36.4069C28.1013 36.5564 28.1683 36.7129 28.2223 36.8775C28.3301 37.2055 28.4185 37.601 28.2796 37.9315C28.2382 38.0299 28.093 38.0496 28.0589 37.9315ZM24.5031 40.3179C24.3673 40.2231 24.2684 40.0906 24.1532 39.9737C24.04 39.8587 24.217 39.6815 24.3303 39.7966C24.4285 39.8963 24.5138 40.0209 24.6294 40.1016C24.6851 40.1404 24.7109 40.2106 24.6744 40.273C24.6422 40.3281 24.5586 40.3566 24.5031 40.3179ZM23.7459 36.675C23.9938 36.5677 24.2375 36.451 24.4969 36.3738C24.6519 36.3276 24.7176 36.5694 24.5635 36.6153C24.3246 36.6864 24.1005 36.7925 23.8723 36.8912C23.7258 36.9546 23.5984 36.7387 23.7459 36.675ZM21.1284 36.5999C21.0678 36.4503 21.3101 36.3859 21.3698 36.5334C21.4386 36.7031 21.5174 36.8685 21.5862 37.0383C21.6467 37.1879 21.4044 37.2524 21.3447 37.1049C21.276 36.9351 21.1971 36.7697 21.1284 36.5999ZM18.5448 39.5876C18.5044 39.6415 18.4371 39.6706 18.3735 39.6326C18.3202 39.6006 18.2877 39.5157 18.3286 39.4612C18.4479 39.3021 18.5689 39.1449 18.7087 39.003C18.8221 38.888 18.9991 39.0652 18.8858 39.1801C18.7609 39.3068 18.6514 39.4455 18.5448 39.5876ZM18.1754 22.8239C18.2903 22.9024 18.391 22.9978 18.4892 23.096C18.6033 23.2101 18.4263 23.3872 18.3121 23.2731C18.2294 23.1904 18.1459 23.1064 18.049 23.0402C17.993 23.0019 17.9679 22.9308 18.0041 22.8688C18.0366 22.8133 18.1195 22.7858 18.1754 22.8239ZM21.9341 26.8548C21.8691 26.985 21.8106 27.1126 21.8069 27.2605C21.803 27.4217 21.5526 27.4218 21.5566 27.2605C21.5614 27.0669 21.6327 26.899 21.7179 26.7284C21.7899 26.5839 22.0058 26.711 21.9341 26.8548ZM23.3132 23.6174C23.4478 23.5277 23.573 23.7448 23.4396 23.8337C23.3314 23.9059 23.2232 23.978 23.1151 24.0502C22.9805 24.1399 22.8553 23.9229 22.9887 23.8339C23.0969 23.7617 23.205 23.6896 23.3132 23.6174ZM17.3315 29.2777C17.3085 29.4368 17.0673 29.3687 17.09 29.2111C17.1253 28.9674 17.1682 28.727 17.2343 28.4897C17.2776 28.3343 17.519 28.4007 17.4757 28.5563C17.4097 28.7936 17.3667 29.034 17.3315 29.2777ZM16.4536 32.147C16.2924 32.1436 16.2924 31.8931 16.4536 31.8965C16.5995 31.8996 16.7428 31.938 16.8835 31.9731C17.04 32.0123 16.9733 32.2538 16.817 32.2147C16.698 32.185 16.5769 32.1496 16.4536 32.147ZM16.1295 37.9271C16.0742 37.954 16.0174 37.9783 15.9614 38.0039C15.8493 38.0551 15.7373 38.1065 15.6253 38.1579C15.392 38.2651 15.1588 38.3726 14.9259 38.4804C14.4595 38.6964 13.9896 38.9047 13.5221 39.1183C13.0454 39.3362 12.5699 39.5569 12.095 39.7788C11.8713 39.8833 11.6459 39.9839 11.4209 40.0857C11.2286 40.1727 10.9908 40.3248 10.7796 40.3391C10.7688 40.3398 10.7651 40.3261 10.7713 40.319C10.8511 40.2283 10.9784 40.1755 11.0832 40.1165C11.1903 40.0562 11.2994 39.9995 11.408 39.942C11.6345 39.8219 11.8612 39.7029 12.0898 39.5871C12.547 39.3556 13.0052 39.1258 13.4634 38.8963C13.9308 38.6621 14.3976 38.4265 14.869 38.2007C15.091 38.0944 15.3132 37.9884 15.5355 37.8827C15.6559 37.8255 15.7764 37.7683 15.8969 37.7113C15.949 37.6866 16.0005 37.66 16.0537 37.638C16.1244 37.6087 16.1781 37.6147 16.2511 37.5967C16.37 37.5673 16.4215 37.7186 16.3302 37.7845C16.255 37.8387 16.2155 37.8851 16.1295 37.9271ZM14.458 40.4955C14.4323 40.4331 14.4861 40.3571 14.5454 40.3415C14.6165 40.3227 14.6735 40.3659 14.6994 40.4289C14.7681 40.596 14.8658 40.7493 14.9917 40.8787C15.1042 40.9944 14.9272 41.1715 14.8146 41.0558C14.6569 40.8936 14.5436 40.7039 14.458 40.4955ZM13.2282 36.4748C13.114 36.3607 13.2911 36.1836 13.4053 36.2977L13.7298 36.6223C13.8439 36.7365 13.6668 36.9136 13.5527 36.7995L13.2282 36.4748ZM9.89893 35.9456C9.66563 36.014 9.39351 36.077 9.23445 36.2761C9.22669 36.2858 9.21364 36.2733 9.2183 36.2636C9.42193 35.8413 10.0059 35.6932 10.4102 35.5452C10.6962 35.4405 10.9896 35.3537 11.2855 35.2762C11.256 34.9385 11.3375 34.5766 11.3659 34.2406C11.3961 33.8818 11.4208 33.5221 11.4334 33.1622C11.4463 32.7951 11.4495 32.4255 11.4374 32.0583C11.4254 31.6924 11.3779 31.331 11.3571 30.9664C11.3551 30.9311 11.4042 30.9294 11.4148 30.9586C11.5376 31.2969 11.5901 31.6718 11.6301 32.0286C11.6713 32.3961 11.685 32.7626 11.6797 33.1323C11.6743 33.5124 11.6522 33.8916 11.6219 34.2705C11.6075 34.4501 11.5908 34.6295 11.5751 34.809C11.5631 34.9459 11.5575 35.0818 11.5296 35.2144C11.708 35.1706 11.8869 35.1291 12.0652 35.0888C12.6338 34.9605 13.2048 34.8414 13.7709 34.7026C14.0489 34.6345 14.3228 34.5529 14.5995 34.4804C14.8601 34.4122 15.135 34.3295 15.4025 34.299C15.498 34.2881 15.5101 34.4188 15.4469 34.4631C15.2295 34.6158 14.9408 34.7221 14.6897 34.8076C14.4377 34.8934 14.1757 34.9551 13.9174 35.0186C13.3787 35.1512 12.8349 35.2595 12.2919 35.3724C11.7497 35.4852 11.2065 35.5971 10.6704 35.7362C10.4122 35.8032 10.1549 35.8704 9.89893 35.9456ZM8.62046 29.2443C8.48106 29.3262 8.3552 29.1096 8.49411 29.028C8.67586 28.9213 8.86957 28.8411 9.06485 28.7629C9.2147 28.7029 9.27918 28.9452 9.13142 29.0044C8.95592 29.0747 8.78378 29.1484 8.62046 29.2443ZM8.11567 38.5504C7.97589 38.6315 7.84995 38.415 7.98932 38.3342C8.18506 38.2207 8.39943 38.1449 8.60228 38.0456C8.7466 37.9749 8.87336 38.191 8.72863 38.2619C8.52582 38.3612 8.31142 38.4369 8.11567 38.5504ZM7.88863 33.2678C8.02378 33.3963 8.20416 33.4567 8.37423 33.5242C8.52253 33.583 8.45749 33.8251 8.30766 33.7657C8.09577 33.6817 7.87993 33.6049 7.71157 33.4449C7.59445 33.3336 7.77182 33.1568 7.88863 33.2678ZM9.38381 26.0937C9.53239 26.152 9.46732 26.3941 9.31724 26.3352C9.15079 26.2699 8.9789 26.2202 8.81245 26.1549C8.66391 26.0966 8.72895 25.8544 8.87902 25.9133C9.04547 25.9786 9.21736 26.0283 9.38381 26.0937ZM12.0215 23.2441C12.1793 23.2175 12.2466 23.4589 12.088 23.4857C11.8914 23.5189 11.6977 23.5577 11.5111 23.6299C11.3605 23.6882 11.2959 23.446 11.4446 23.3884C11.6311 23.3162 11.8248 23.2773 12.0215 23.2441ZM12.893 30.1821C12.7482 30.1109 12.8752 29.895 13.0193 29.9658C13.1712 30.0405 13.3285 30.0983 13.4942 30.1336C13.652 30.1672 13.5848 30.4086 13.4277 30.3751C13.2412 30.3354 13.0637 30.2661 12.893 30.1821ZM13.7161 26.274C13.872 26.2313 13.9379 26.473 13.7827 26.5156C13.5096 26.5904 13.2284 26.6293 12.9534 26.6959C12.7966 26.7339 12.7303 26.4923 12.8868 26.4544C13.1619 26.3878 13.4431 26.3489 13.7161 26.274ZM17.208 25.0476C17.3665 25.077 17.299 25.3183 17.1415 25.2892C16.9738 25.2582 16.8039 25.2577 16.6339 25.2576C16.4725 25.2575 16.4728 25.007 16.6339 25.0071C16.827 25.0072 17.0176 25.0124 17.208 25.0476ZM28.5964 26.3563C28.1873 26.3171 27.7776 26.2858 27.3673 26.2623C27.3482 26.2614 27.3294 26.2601 27.3103 26.2592C27.3082 26.2548 27.3053 26.2507 27.3025 26.2463C27.1686 26.0497 27.07 25.8531 26.9845 25.6308C26.9028 25.4191 26.8237 25.2009 26.6978 25.0099C26.5543 24.7923 26.3606 24.622 26.1483 24.4744C26.0195 24.5611 25.8999 24.6625 25.7906 24.77C25.6755 24.8832 25.4984 24.7061 25.6135 24.5929C25.7107 24.4974 25.8144 24.4091 25.9241 24.3293C25.7975 24.2524 25.6683 24.18 25.5423 24.1081C25.0699 23.8385 24.5864 23.5893 24.0928 23.3614C23.8634 23.2552 23.6312 23.1609 23.3974 23.0654C23.2715 23.0141 23.1473 22.948 23.0215 22.8886C23.0305 22.7996 23.0039 22.7 22.9357 22.6415C22.8853 22.5986 22.8462 22.5826 22.7861 22.5523C22.7726 22.5475 22.7645 22.5447 22.7607 22.5432C22.7636 22.5438 22.7717 22.5463 22.7851 22.5507C22.8171 22.5654 22.8196 22.561 22.7927 22.5378C22.7911 22.4871 22.6912 22.3801 22.6684 22.3278C22.5889 22.1483 22.5642 21.9586 22.4468 21.7951C22.285 21.57 22.0133 21.4849 21.7601 21.5612C21.7338 21.2904 21.7269 21.0077 21.6249 20.7659C21.6221 20.7594 21.613 20.7565 21.6089 20.7638C21.5025 20.9451 21.4935 21.147 21.4853 21.3562C21.4775 21.5525 21.485 21.7532 21.5107 21.9483C21.4944 21.9608 21.4778 21.9727 21.4606 21.9843C21.3798 22.0375 21.2928 22.0785 21.2014 22.1089C21.0274 22.1665 20.8449 22.1915 20.6625 22.2003C20.1914 22.2229 19.706 22.1753 19.2427 22.0945C18.7742 22.0128 18.0559 21.89 17.639 21.6555C17.3638 21.5008 17.11 21.312 16.8527 21.1292C16.946 20.8286 16.9698 20.5054 16.8759 20.2515C16.8647 20.2211 16.8171 20.2155 16.808 20.2515C16.7492 20.4938 16.7319 20.7374 16.6537 20.977C16.6525 20.9804 16.6512 20.9842 16.6499 20.9876C16.6255 20.9711 16.6011 20.9547 16.5767 20.9385C16.5204 20.9012 16.4437 20.9291 16.4099 20.9823C15.8693 21.8343 15.0133 21.8831 14.1144 22.0353C13.1307 22.2019 12.142 22.3816 11.1961 22.7075C10.2916 23.0194 9.4271 23.4734 8.74228 24.1516C8.58726 24.3052 8.44228 24.4688 8.30544 24.6396C8.43783 24.6563 8.56913 24.6823 8.69874 24.723C8.8522 24.7712 8.78625 25.013 8.63217 24.9645C8.4656 24.9122 8.29718 24.8863 8.12704 24.8734C7.66172 25.5102 7.2989 26.2323 6.98516 26.943C6.38337 28.3057 5.99167 29.7569 5.81142 31.2344C5.91039 31.1751 6.01114 31.1185 6.11439 31.066C6.25787 30.993 6.38441 31.2092 6.24078 31.2823C6.08128 31.3634 5.92635 31.4529 5.77624 31.5499C5.71067 32.1966 5.68525 32.8475 5.70065 33.4974C5.73727 35.0466 5.94635 36.6413 6.41927 38.1195C6.6512 38.845 6.95855 39.5646 7.41646 40.1776C7.62366 40.4553 7.85902 40.7058 8.13633 40.9147C8.2706 41.0161 8.4127 41.1066 8.56262 41.183C8.75574 41.282 9.00738 41.3145 9.17389 41.4545C9.22866 41.5005 9.27092 41.5612 9.30284 41.6298C9.28438 41.7601 9.28218 41.8906 9.31787 42.0209C9.32913 42.0616 9.35981 42.0948 9.39768 42.1108C9.3983 42.122 9.3983 42.133 9.3983 42.1436C9.3983 42.1486 9.40582 42.1499 9.40675 42.1449C9.40832 42.1352 9.40988 42.1255 9.41145 42.1155C9.42366 42.1195 9.43649 42.1214 9.44963 42.1214C9.92506 42.1232 10.4011 42.1116 10.8771 42.0955C10.8403 41.9827 10.8005 41.8708 10.7622 41.758C10.7102 41.6048 10.9521 41.5396 11.0036 41.6914C11.0484 41.8233 11.0952 41.954 11.1369 42.0864C11.647 42.0674 12.1569 42.0446 12.6659 42.0278C13.7485 41.9918 14.8309 41.9799 15.9138 41.9571C17.5955 41.9214 19.2894 41.8484 20.9738 41.9198C21.032 41.7961 21.0972 41.6753 21.159 41.5533C21.232 41.4093 21.4479 41.5362 21.3752 41.6797C21.3323 41.7645 21.2878 41.8482 21.2455 41.9328C21.5866 41.9505 21.9274 41.9739 22.2674 42.0059C22.8477 42.0603 23.4224 42.1571 24.0021 42.2172C24.5914 42.2786 25.1679 42.2677 25.7526 42.1703C25.8578 42.1527 25.9197 42.0892 25.9454 42.0103C25.9463 42.0099 25.947 42.0093 25.9476 42.0084C25.9776 41.9733 26.0058 41.9442 26.0349 41.9188C26.0697 41.8963 26.1072 41.8772 26.1514 41.8603C26.2337 41.829 26.3194 41.8099 26.4064 41.797C26.5022 41.7826 26.5992 41.7814 26.695 41.7695C26.7757 41.7592 26.8546 41.7438 26.9335 41.725C27.0753 41.6912 27.2099 41.6471 27.3438 41.5885C27.4606 41.5375 27.566 41.4642 27.6656 41.3843C27.8715 41.2337 28.0499 41.0415 28.2058 40.8417C28.2966 40.7249 28.382 40.6038 28.4597 40.4776C28.5949 40.259 28.71 40.032 28.8265 39.8031C28.8687 39.7353 28.9073 39.6659 28.9425 39.5949C28.715 39.5279 28.4853 39.4732 28.244 39.4693C28.0828 39.4667 28.0828 39.2162 28.244 39.2188C28.5207 39.2232 28.7824 39.2879 29.0424 39.3649C29.055 39.3313 29.0672 39.2974 29.0784 39.263C29.1094 39.1913 29.1351 39.1177 29.1564 39.0432C29.1689 39.0094 29.1814 38.9756 29.1939 38.9418C29.2221 38.8247 29.2503 38.7072 29.2787 38.5898C29.3354 38.402 29.3801 38.2113 29.413 38.0181C29.4406 37.891 29.4618 37.7629 29.4762 37.6333C29.5201 37.3192 29.5557 37.0058 29.5582 36.6883C29.5545 36.4926 29.542 36.2972 29.5207 36.1028C29.5116 35.9706 29.4963 35.8391 29.4756 35.7086C29.4487 35.5144 29.4221 35.3222 29.3773 35.1306C29.3438 35.001 29.3104 34.8713 29.2769 34.7417C29.1933 34.4715 29.0947 34.2066 28.9811 33.9476C28.9748 33.9314 28.9432 33.8956 28.9241 33.8953C28.9097 33.895 28.8897 33.9082 28.8962 33.9257C28.8969 33.9273 28.8975 33.9292 28.8981 33.9307C28.8916 33.916 28.8853 33.901 28.8787 33.8863C28.8731 33.8725 28.8512 33.845 28.8343 33.8453C28.8334 33.8453 28.8324 33.8453 28.8312 33.8456C28.8356 33.8425 28.8396 33.8384 28.8437 33.8337C28.9561 33.7006 29.029 33.5256 29.1094 33.3715C29.1761 33.2444 29.239 33.1104 29.2571 32.9666C29.2731 32.8405 29.2515 32.7162 29.1723 32.6141C29.0822 32.4979 28.9125 32.4434 29.0068 32.2756C29.1138 32.0846 29.2712 31.919 29.1144 31.702C29.0346 31.5915 28.9082 31.5307 28.8143 31.4346C28.7063 31.3234 28.6549 31.1747 28.6578 31.0229C28.6643 31.0266 28.6731 31.0248 28.6762 31.0153C28.767 30.7411 28.7013 30.4399 28.6083 30.1728C28.5576 30.0278 28.4502 29.988 28.3254 29.9808C28.8662 28.9241 29.3723 27.8504 29.8233 26.752C29.8384 26.716 29.8531 26.68 29.8678 26.644C29.8897 26.5901 29.8434 26.5185 29.7899 26.5065C29.3999 26.4211 28.9936 26.3938 28.5964 26.3563Z" fill="black"/>
<path fill-rule="evenodd" clip-rule="evenodd" d="M24.3825 10.1586C24.3131 9.98311 24.1904 9.76252 23.9854 9.75372C23.8268 9.26762 23.4324 8.77256 22.8839 8.78571C21.2739 7.13517 19.247 7.21298 17.1279 7.56238C16.0099 7.77025 14.8746 8.1773 14.0408 8.98056C13.0421 9.92622 12.6532 11.5763 13.4353 12.7721C12.7594 13.1352 12.7462 13.9969 13.0353 14.6187C12.6878 14.8596 12.6667 15.4442 13.058 15.6279C13.0372 15.7134 13.0519 15.8017 13.0916 15.8776C12.8976 16.0394 12.6451 16.159 12.4364 16.2618C12.3441 16.3072 12.2909 16.3814 12.2688 16.4651C11.5834 16.9158 9.87439 18.0174 9.89475 18.8942C9.88469 19.3516 10.2231 19.6526 10.6344 19.7724C10.3897 20.2629 10.204 20.8357 10.4382 21.3647C10.5029 21.5246 10.9881 21.9944 11.0125 22.003C11.0552 22.0397 11.7511 21.7194 12.0894 21.556C12.155 21.9837 12.6112 22.2078 13.0045 22.0613C13.3773 21.9486 13.6066 21.6321 13.8417 21.3442C14.1539 22.0269 15.0724 22.0348 15.666 21.7404C16.1991 21.4936 16.6044 21.041 16.8301 20.4958C18.0289 21.0841 19.4314 21.2556 20.7338 21.0206C20.8174 21.1689 21.0024 21.2685 21.1673 21.2111C21.8598 21.0024 22.6255 20.9907 23.2126 20.5125C24.4363 19.632 24.5393 18.0087 24.454 16.6249C24.3783 15.2453 24.4446 13.8541 24.1944 12.4893C24.3029 12.0875 24.4835 11.7323 24.6506 11.3548C24.8322 10.959 24.8283 10.3706 24.3825 10.1586Z" fill="#D08B5B"/>
<path fill-rule="evenodd" clip-rule="evenodd" d="M18.8275 7.4209L18.875 7.42109C18.9537 7.42161 19.0322 7.42316 19.1105 7.42575C19.5243 7.4394 19.9559 7.49322 20.4418 7.58535L20.5157 7.59958C20.6366 7.6233 20.7448 7.6471 20.9175 7.68754L21.2603 7.76851C21.4348 7.80927 21.5632 7.83748 21.6817 7.86017L21.6972 7.86311C21.6972 7.86311 22.6105 8.30196 22.9055 8.59068L22.9349 8.61971L22.9474 8.63226L23.0757 8.63632L23.0769 8.65255L23.078 8.65272C23.2053 8.67258 23.3205 8.73869 23.4276 8.84162L23.4391 8.85279L23.4501 8.86385C23.5336 8.94895 23.6001 9.03962 23.6918 9.18335L23.7126 9.21618L23.7499 9.27546L23.7801 9.32307C23.7997 9.35421 23.8185 9.38501 23.8366 9.41554L23.8545 9.44596L23.8673 9.46833L24.1984 9.66196C24.2461 9.68986 24.2895 9.72597 24.3293 9.76921L24.34 9.78118L24.3506 9.79349L24.4408 9.90111L24.4226 9.92009L24.4314 9.93169L24.4471 9.95331L24.4625 9.97524L24.4775 9.99745L24.4839 10.0072L24.4936 10.0283L24.4984 10.0388L24.5021 10.0475L24.5134 10.0533L24.5364 10.0949C24.6558 10.3108 24.7201 10.556 24.7245 10.808C24.7275 10.9818 24.7061 11.1396 24.6553 11.2919C24.6202 11.3972 24.5731 11.4799 24.4917 11.5938L24.4273 11.6823L24.4142 11.7005L24.3985 11.7227C24.396 11.7263 24.3936 11.7298 24.3912 11.7332C24.2866 11.8851 23.3927 12.1726 22.8432 12.1865L22.8267 12.1868L22.8055 12.187C22.7531 12.1873 22.7024 12.1854 22.6536 12.1813C22.4422 12.1636 22.2446 12.119 22.0151 12.0461L21.9674 12.0306L21.7145 11.9455C21.7064 11.9428 21.6999 11.9406 21.6954 11.9392L21.6723 11.932C21.6166 11.9148 21.5762 11.905 21.5486 11.9014L21.5429 11.9007L21.5424 11.9112L21.5422 11.9211L21.5422 11.9292C21.5438 12.0459 21.4731 12.1309 21.3635 12.1851C21.2936 12.2197 21.2037 12.2443 21.0907 12.2628L21.0727 12.2657C20.8881 12.2943 20.6679 12.3065 20.2996 12.3149C20.2855 12.3152 20.2714 12.315 20.2572 12.3144C20.1781 12.3107 20.1159 12.2972 20.0004 12.264L19.9458 12.2483L19.9162 12.2401C19.8612 12.2252 19.8306 12.2192 19.8017 12.2176L19.7933 12.2173L19.785 12.2171C19.7502 12.2171 19.7252 12.2248 19.7005 12.2437L19.6878 12.2538L19.518 12.3964C19.4959 12.4149 19.4761 12.4313 19.4616 12.4429L19.4557 12.4475C19.2226 12.6307 19.0004 12.7354 18.7386 12.7453L18.7211 12.7458L18.7029 12.746C18.6896 12.7461 18.6762 12.7458 18.6629 12.7453C18.5526 12.7411 18.4382 12.7001 18.282 12.6212L18.2496 12.6045L18.2269 12.5927C18.2153 12.5866 18.2033 12.5802 18.1902 12.5732L18.0736 12.5106L18.014 12.4794C17.9428 12.4427 17.9032 12.425 17.8765 12.4177L17.8721 12.4166L17.8696 12.419C17.8078 12.4795 17.7547 12.5556 17.6976 12.6608L17.689 12.6768L17.6765 12.7006L17.5954 12.8624L17.5801 12.8925C17.5199 13.0093 17.4723 13.084 17.41 13.1495C17.3196 13.2445 17.21 13.2997 17.0758 13.3086L17.0623 13.3093L17.0463 13.3097C16.9831 13.3103 16.9162 13.3006 16.8436 13.2803L16.8267 13.2755L16.8103 13.2704C16.7021 13.2362 16.5311 13.2575 16.3953 13.3298C16.2478 13.4083 16.1665 13.528 16.1701 13.6811C16.1719 13.7571 16.1806 13.8386 16.196 13.9269L16.2003 13.9511C16.2205 14.0603 16.2477 14.1699 16.2898 14.316L16.3802 14.6217L16.3904 14.6574L16.4006 14.6941C16.4153 14.7475 16.427 14.7941 16.4366 14.838C16.4735 15.0056 16.4797 15.1316 16.4427 15.2388C16.2796 15.7118 15.9967 15.9631 15.6746 15.9737L15.6635 15.974L15.6497 15.974C15.4023 15.9713 15.1781 15.8097 15.1808 15.6003C15.181 15.5783 15.1852 15.5579 15.1925 15.5394L15.1958 15.5316L15.1973 15.5283L15.1948 15.522C15.1187 15.3395 14.9429 15.2063 14.7363 15.1801L14.7246 15.1788L14.713 15.1777C14.7017 15.1767 14.6904 15.176 14.6797 15.1756L14.6692 15.1754L14.6566 15.1753C14.3814 15.1757 14.109 15.3594 13.8947 15.6598C13.8501 15.7225 13.8086 15.7909 13.7713 15.8632L13.7591 15.8874L13.6995 16.0096L13.6593 16.1278C13.4376 16.7784 13.5498 17.4592 13.9825 17.8112L13.9958 17.8217C14.1517 17.9443 14.335 18.0188 14.5308 18.0388C14.5533 18.0411 14.5759 18.0426 14.5978 18.0432L14.6139 18.0435L14.6325 18.0434C14.6963 18.0426 14.7573 18.0346 14.8121 18.0198C14.8568 18.0077 14.8879 17.993 14.9096 17.9743C14.9153 17.9694 14.9198 17.9649 14.9238 17.9605L14.9271 17.9565L14.9284 17.9548L15.2241 17.9988C15.2744 18.3189 15.4197 18.6506 15.6561 19.031L15.671 19.0548L15.697 19.0959L15.7235 19.1369C16.0016 19.5658 16.3118 19.927 16.6529 20.2041L16.6767 20.2233L16.7086 20.2487L16.738 20.2718C16.795 20.3161 16.8424 20.3506 16.8899 20.3814L16.9018 20.389L17.014 20.4603L16.9619 20.5827C16.8404 20.8683 16.6728 21.128 16.4662 21.3491L16.4467 21.3697L16.3031 21.5182L16.1927 21.3772C16.1919 21.3761 16.1894 21.3748 16.1864 21.3742L16.1844 21.374H16.1833L16.1818 21.3741L16.18 21.3746L16.1782 21.3754C16.0955 21.4204 16.0501 21.4547 15.9849 21.522L15.9754 21.5318L15.9644 21.5434L15.9492 21.5593C15.8815 21.6289 15.809 21.6882 15.7301 21.7375C15.5477 21.8515 15.3453 21.9148 15.1357 21.9205L15.116 21.9209L15.0962 21.9209C15.0891 21.9208 15.082 21.9207 15.0749 21.9205C14.6376 21.9083 14.2457 21.6275 14.0531 21.2158C14.0455 21.1995 14.0384 21.1942 14.0255 21.1931L14.0218 21.1929L14.0172 21.1928C13.985 21.193 13.9457 21.2122 13.9237 21.2379L13.9198 21.2428L13.8461 21.3421L13.8178 21.3796C13.5548 21.7257 13.3389 21.9151 13.0489 21.9726C13.0261 21.9771 13.0019 21.9798 12.9763 21.981L12.9607 21.9816H12.9516C12.8269 21.982 12.6832 21.9457 12.5712 21.8819C12.423 21.7976 12.3314 21.6678 12.343 21.507L12.3438 21.4967L12.3459 21.4795C12.3556 21.3937 12.287 21.347 12.2346 21.3891L12.231 21.3922L12.2267 21.3961C12.0106 21.5992 11.7621 21.7551 11.4945 21.8513L11.4708 21.8596L11.4356 21.8716C11.2668 21.9287 11.1478 21.9571 11.0224 21.9593C10.914 21.9611 10.8238 21.9219 10.7585 21.8465C10.715 21.7962 10.6885 21.7403 10.6619 21.6588L10.6575 21.6449L10.6478 21.6132L10.6418 21.5926C10.5641 21.3187 10.5624 21.0258 10.6234 20.7026C10.669 20.4612 10.7415 20.228 10.8634 19.9011L10.887 19.8381L10.9359 19.7095C10.9408 19.6966 10.9115 19.6516 10.8933 19.6465L10.8912 19.6462L10.8746 19.6479C10.863 19.649 10.8513 19.6498 10.8393 19.6503L10.821 19.6507H10.8091C10.413 19.6466 10.1106 19.2573 10.1134 18.8449C10.1164 18.4586 10.3102 18.1264 10.6802 17.7321L10.7124 17.6981L10.7472 17.662L10.7815 17.6268C11.1103 17.2911 11.4465 16.9982 11.7965 16.7469L11.8255 16.7262L11.8578 16.7034C11.9757 16.6205 12.0903 16.5453 12.2488 16.4465L12.3422 16.3887L12.7206 15.9411C12.7297 15.9359 12.7386 15.9308 12.7475 15.9256L12.7523 15.7703L13.1168 15.7779C13.0243 15.7303 12.9477 15.6726 12.8854 15.5986C12.6785 15.3526 12.7045 15.0109 12.9561 14.843L12.9649 14.8372L13.071 14.7715L13.1578 14.8479C13.2334 14.9143 13.3136 14.9584 13.3972 14.9788L13.4104 14.9818L13.4758 14.9957L13.4886 15.0164L13.4959 15.0057C13.4959 15.0046 13.4957 15.0035 13.4953 15.0025L13.4947 15.001L13.4933 14.9988L13.4851 14.9887L13.476 14.9778C13.4469 14.9435 13.4142 14.9102 13.3549 14.8529L13.3132 14.8128L13.2808 14.7812C13.1958 14.6975 13.1505 14.6456 13.1024 14.5736C12.9826 14.3944 12.9149 14.1924 12.9121 13.9872C12.9062 13.5605 13.171 13.1571 13.5633 12.973C13.577 12.9665 13.5871 12.9207 13.5707 12.8904C13.1908 12.1917 13.0854 11.3542 13.2762 10.5751C13.4543 9.8482 13.8972 9.20659 14.5313 8.7151C15.6199 7.87132 17.13 7.43621 18.7323 7.42122L18.7808 7.4209H18.8275Z" fill="#ECDCBF"/>
<path fill-rule="evenodd" clip-rule="evenodd" d="M13.0056 16.0152C13.0777 15.997 13.1164 16.0942 13.0552 16.1332C12.6666 16.3811 12.2651 16.6024 11.8896 16.8721C11.5325 17.1284 11.2027 17.4204 10.8951 17.7343L10.861 17.7693C10.583 18.0561 10.275 18.4209 10.2719 18.844C10.2695 19.1728 10.5224 19.5317 10.8752 19.4885C11.0081 19.4722 11.1303 19.6413 11.0839 19.7632L11.0351 19.8917C10.8388 20.4116 10.6391 21.0007 10.7941 21.5477L10.7998 21.5672C10.8373 21.6924 10.8769 21.8031 11.0219 21.8006C11.1565 21.7982 11.2965 21.7528 11.4225 21.7093C11.684 21.6192 11.9209 21.4689 12.122 21.2798C12.2999 21.1126 12.5272 21.2825 12.5032 21.495L12.5024 21.5018C12.4696 21.7402 12.8486 21.8509 13.0208 21.8168C13.361 21.7494 13.6035 21.4077 13.7967 21.1473C13.8895 21.0221 14.1151 20.9728 14.1967 21.1473C14.3583 21.4928 14.6915 21.751 15.0814 21.7619C15.2838 21.7675 15.4781 21.7097 15.6496 21.6026C15.7196 21.5588 15.7822 21.5068 15.8396 21.4478L15.8539 21.4329C15.9388 21.3426 15.9975 21.2946 16.106 21.2357C16.2129 21.1776 16.3512 21.2496 16.3505 21.3763C16.3496 21.5405 16.3017 21.6496 16.1888 21.7686C16.0953 21.8672 15.9843 21.9538 15.8676 22.0229C15.6332 22.1618 15.3544 22.24 15.0814 22.2309C14.651 22.2167 14.2403 22.0016 13.974 21.6672C13.7022 21.9931 13.365 22.2925 12.9267 22.2844C12.5987 22.2784 12.2929 22.1072 12.1464 21.842C11.9396 21.9849 11.7127 22.0966 11.4699 22.1696L11.4482 22.176C11.1046 22.2763 10.709 22.3162 10.4878 21.9741C10.2801 21.653 10.2646 21.2083 10.3122 20.8412C10.3547 20.5133 10.4554 20.2019 10.5709 19.8948C10.242 19.7963 9.98665 19.4866 9.89895 19.1527C9.76627 18.6478 10.0237 18.1581 10.3419 17.7829C10.6875 17.3754 11.1226 17.0307 11.5609 16.7289C11.998 16.4281 12.4877 16.1453 13.0056 16.0152ZM24.2454 12.0659C24.2462 12.0518 24.2691 12.0469 24.2712 12.0623C24.4222 13.1606 24.5096 14.2568 24.582 15.3626C24.6187 15.9229 24.6604 16.4826 24.706 17.0421C24.7497 17.5787 24.8225 18.1296 24.8061 18.6683C24.7803 19.512 24.3717 20.198 23.7016 20.6916C23.0595 21.1647 22.263 21.3986 21.4816 21.4974C21.0277 21.5548 20.5676 21.5576 20.1132 21.5036C19.8772 21.4756 19.6416 21.4384 19.4104 21.3824L19.3105 21.3573C19.1285 21.3107 18.9253 21.2475 18.8993 21.0313C18.8867 20.9267 18.9422 20.8494 19.0318 20.7969C19.1486 20.7284 19.2825 20.7687 19.4028 20.7999C19.6056 20.8525 19.8105 20.8977 20.0178 20.9289C20.463 20.996 20.9206 21 21.368 20.9536C22.1207 20.8753 22.9146 20.6306 23.4949 20.1252C23.7471 19.9056 23.9664 19.638 24.0818 19.32C24.2301 18.9113 24.2081 18.4654 24.2031 18.0374C24.1916 17.0421 24.2018 16.0469 24.188 15.0516C24.1741 14.0532 24.1862 13.0627 24.2454 12.0659ZM16.6766 7.41475C17.556 7.18737 18.4486 7.12829 19.352 7.19673C20.2039 7.26123 21.1744 7.45233 21.8702 7.97763C21.904 8.00312 21.8838 8.05137 21.842 8.0447C21.3768 7.97037 20.9233 7.83517 20.4602 7.74571C20.0147 7.65967 19.5611 7.59507 19.1075 7.58011C17.5733 7.52941 15.8661 7.87794 14.629 8.83684C14.0489 9.28644 13.6062 9.89099 13.43 10.6103C13.2493 11.3481 13.3471 12.146 13.7099 12.8134C13.7622 12.9095 13.7406 13.0615 13.6316 13.1126C13.3009 13.2679 13.0653 13.6118 13.0704 13.9829C13.0729 14.1629 13.1348 14.3356 13.2342 14.4843C13.3394 14.6417 13.4996 14.7518 13.6172 14.8987C13.6635 14.9566 13.6653 15.0363 13.6286 15.0896C13.6974 15.1198 13.7716 15.136 13.8394 15.1717C13.8968 15.202 13.8984 15.2965 13.8394 15.3263C13.6901 15.4017 13.5286 15.3217 13.4279 15.2001C13.4099 15.1784 13.3943 15.1559 13.3802 15.1328C13.2595 15.1072 13.1514 15.0465 13.0569 14.9634C12.877 15.0714 12.8524 15.3118 13.0069 15.4955C13.0859 15.5893 13.198 15.6472 13.3113 15.6888L13.3249 15.6937C13.4352 15.733 13.5362 15.7549 13.6079 15.8434C13.6551 15.7446 13.7094 15.6515 13.7698 15.5667C13.9897 15.2584 14.3276 14.9849 14.7286 15.0196C15.0427 15.0467 15.3149 15.2722 15.3792 15.5832C15.384 15.6062 15.3494 15.6242 15.3391 15.6002C15.1884 15.2479 14.7115 15.235 14.4275 15.4185C14.0935 15.6345 13.9109 16.0414 13.8377 16.4203C13.7656 16.7936 13.8072 17.2476 14.0859 17.5315C14.2 17.6477 14.3551 17.7281 14.517 17.7493C14.5962 17.7596 14.666 17.7494 14.7417 17.7341L14.7918 17.7236C14.8266 17.7164 14.8612 17.7106 14.8977 17.7138L14.9521 17.7212L14.983 17.7357C15.0098 17.7477 15.0074 17.7444 14.9757 17.7257C15.0681 17.7181 15.1159 17.7866 15.1209 17.8616C15.1239 17.8635 15.1267 17.8655 15.1291 17.8685C15.4797 18.2986 15.74 18.793 16.1121 19.2091L16.221 19.331C16.501 19.6432 16.8207 19.9818 17.2011 20.1438L17.2464 20.1626C17.357 20.2094 17.4681 20.2736 17.4823 20.4073C17.4949 20.5271 17.4007 20.6172 17.2921 20.6452C17.0448 20.7088 16.7629 20.4884 16.5818 20.3439C16.1923 20.0331 15.865 19.637 15.5947 19.2202L15.5679 19.1786C15.3457 18.8307 15.1369 18.4339 15.072 18.021L15.0603 18.0401C15.0594 18.0414 15.0587 18.0424 15.0583 18.043C15.045 18.0611 15.0304 18.0763 15.0135 18.0909C14.968 18.1302 14.9126 18.1532 14.8549 18.1688C14.7468 18.1981 14.6282 18.2039 14.517 18.1925C14.2912 18.1693 14.0801 18.0832 13.9015 17.9428C13.358 17.5154 13.2938 16.7202 13.5136 16.075C13.3332 16.1182 13.1277 15.9965 12.9869 15.8922C12.8253 15.7725 12.6921 15.5998 12.6603 15.3966C12.6287 15.1949 12.7569 14.9279 12.9472 14.8501C12.7498 14.6126 12.6349 14.2754 12.623 14.0055C12.6024 13.536 12.8512 13.0922 13.2333 12.836C12.874 12.0641 12.8048 11.1686 13.0467 10.3491C13.5267 8.72284 15.1347 7.81341 16.6766 7.41475ZM15.3079 19.7709L15.3124 19.7566C15.3507 19.6308 15.4001 19.3806 15.5875 19.4759C15.7666 19.5668 15.6523 19.8361 15.5896 19.9672C15.5147 20.124 15.3853 20.2497 15.2115 20.2834C15.0702 20.3108 14.915 20.2756 14.8161 20.1661C14.7872 20.1342 14.771 20.0992 14.7539 20.0606C14.7472 20.0456 14.7442 20.0353 14.743 20.0286C14.7414 20.0359 14.7367 20.0469 14.7249 20.0598C14.646 20.1462 14.5715 20.2468 14.5143 20.349C14.5007 20.3732 14.458 20.3563 14.4688 20.3298C14.5355 20.1663 14.5243 19.9135 14.6729 19.7952C14.8039 19.6909 14.927 19.773 14.9963 19.8944L14.9998 19.9007C15.1011 20.0851 15.2625 19.91 15.3079 19.7709ZM13.8828 19.1801L13.8965 19.161C14.0366 18.9691 14.2728 18.7382 14.5092 18.9167C14.5844 18.9735 14.5872 19.0682 14.5092 19.1246L14.4797 19.1457C14.3764 19.2191 14.2736 19.2884 14.1978 19.3937C14.1153 19.5081 14.0413 19.6293 13.9305 19.719C13.7345 19.8778 13.4178 19.9091 13.2477 19.6951L13.231 19.6739C13.2168 19.6555 13.2004 19.6334 13.1872 19.6113L13.1769 19.6256C13.1758 19.6271 13.1749 19.6284 13.174 19.6297L13.1717 19.6334C13.1018 19.7453 13.0135 19.8376 12.9035 19.9103C12.6945 20.0486 12.459 20.0678 12.2225 19.9946C12.1993 19.9874 12.2056 19.9563 12.228 19.9543C12.5081 19.928 12.7812 19.7285 12.8951 19.4715L12.908 19.4427C12.9541 19.3404 13.0058 19.2433 13.1197 19.2032C13.2306 19.1641 13.3471 19.2054 13.4231 19.2895C13.4867 19.3598 13.5031 19.4995 13.6178 19.4687C13.7434 19.4349 13.8141 19.2772 13.8828 19.1801ZM13.0803 17.4729C13.1423 17.4256 13.2395 17.4763 13.2566 17.5449C13.334 17.855 13.0125 18.2205 12.7034 18.2301C12.6239 18.2326 12.5474 18.2133 12.4769 18.1764C12.4223 18.1477 12.3576 18.0746 12.2976 18.0625C12.2201 18.0469 12.1514 18.1503 12.0969 18.2034C12.0292 18.2693 11.9622 18.3305 11.8864 18.3867C11.8561 18.4091 11.8091 18.3714 11.8219 18.337L11.8475 18.2684C11.9404 18.0245 12.1003 17.6683 12.3996 17.7695C12.5463 17.8191 12.6566 17.9864 12.811 17.854C12.9347 17.7479 12.9462 17.575 13.0803 17.4729ZM14.4008 16.2242C14.6798 15.9032 15.3356 16.0728 15.46 16.4634C15.4875 16.5496 15.4588 16.6617 15.3916 16.7228C15.303 16.8032 15.1767 16.8276 15.0692 16.7645C14.9767 16.7102 14.9387 16.6215 14.8707 16.5453C14.771 16.4336 14.6354 16.3717 14.4956 16.3273C14.4607 16.3457 14.4281 16.3699 14.399 16.3991C14.384 16.414 14.3558 16.3935 14.3691 16.3759C14.3871 16.352 14.4091 16.3295 14.4341 16.3087L14.4221 16.3052C14.3853 16.2949 14.3773 16.2513 14.4008 16.2242ZM16.2141 12.6794C16.2766 12.6795 16.3494 12.7383 16.3414 12.8071L16.339 12.8261C16.321 12.957 16.2791 13.0311 16.1484 13.0919C16.0376 13.1434 15.9211 13.1718 15.7997 13.1831C15.7537 13.1874 15.705 13.1876 15.6557 13.1839L15.6453 13.244C15.6247 13.3641 15.6056 13.4843 15.602 13.6068C15.5953 13.8337 15.6798 14.0208 15.7704 14.2234C15.9444 14.6127 15.9639 15.0013 15.7745 15.39C15.7468 15.4468 15.6684 15.4931 15.6051 15.4874C15.5231 15.4799 15.4835 15.4561 15.4357 15.39C15.3956 15.3344 15.4048 15.2559 15.4326 15.1978L15.4357 15.1914C15.5311 15.0061 15.5612 14.7967 15.5125 14.593C15.4667 14.4015 15.363 14.2295 15.3167 14.0386C15.2412 13.7277 15.3216 13.4192 15.4786 13.1525C15.3601 13.1183 15.2505 13.0573 15.1773 12.9643L15.1776 12.9641C15.1497 12.9342 15.1649 12.8718 15.2139 12.8755L15.2694 12.88C15.4279 12.8933 15.5738 12.9071 15.7341 12.8628C15.8163 12.8401 15.8872 12.8022 15.9578 12.7563L15.9729 12.7463C16.0612 12.6875 16.1101 12.6792 16.2141 12.6794ZM16.5934 10.3814C16.9909 10.3587 17.3301 10.6216 17.4951 10.9716C17.6742 11.3516 17.5991 11.7876 17.4409 12.1614L17.396 12.2661C17.3174 12.4474 17.2141 12.6629 17.0531 12.7602C16.8722 12.8695 16.7158 12.7428 16.7691 12.5414C16.8009 12.4214 16.887 12.3289 16.9566 12.2299C17.0216 12.1374 17.0822 12.0417 17.1353 11.9419C17.2395 11.7461 17.3172 11.528 17.3164 11.3037C17.3149 10.8944 17.0451 10.4253 16.5934 10.4313C16.5612 10.4316 16.5617 10.3831 16.5934 10.3814ZM18.6034 9.72082C18.5786 9.70198 18.6008 9.66005 18.6285 9.67774C19.0893 9.97156 19.4334 10.5235 19.5027 11.0657C19.5411 11.3665 19.5118 11.688 19.3839 11.9657C19.3106 12.125 19.1848 12.2771 19.0089 12.3207C18.8472 12.3609 18.6805 12.2683 18.6303 12.11C18.6109 12.0486 18.6444 11.9844 18.6949 11.9509C18.8589 11.8422 18.9909 11.705 19.0682 11.5206C19.1485 11.3287 19.1806 11.1252 19.1815 10.9183C19.1839 10.4337 18.991 10.0162 18.6034 9.72082ZM24.2328 9.93083C24.2115 9.90713 24.2383 9.87219 24.2665 9.88703C24.5997 10.0627 24.8114 10.3992 24.872 10.7677C24.9315 11.1284 24.8515 11.6196 24.573 11.8805C24.4158 12.0278 24.1342 11.8319 24.2648 11.6422C24.357 11.5084 24.4566 11.3982 24.5093 11.2401C24.5564 11.0991 24.573 10.9568 24.5705 10.8086C24.5649 10.4852 24.4496 10.1719 24.2328 9.93083ZM20.1595 9.47907C20.7287 9.45189 21.0737 10.1033 21.1527 10.5889C21.2015 10.8889 21.1648 11.1978 20.9996 11.458L20.9898 11.4732C20.8535 11.681 20.6056 11.9203 20.3386 11.8219C20.2255 11.7803 20.1955 11.6589 20.2714 11.5668C20.3876 11.4259 20.5672 11.3684 20.6764 11.2179C20.799 11.0491 20.8391 10.8376 20.8321 10.6324L20.8311 10.6097C20.8121 10.2321 20.6324 9.50735 20.1595 9.52018C20.133 9.52087 20.1333 9.48029 20.1595 9.47907ZM21.94 9.37083C22.4905 9.30029 22.8258 9.94962 22.9292 10.3969C22.9938 10.6766 23.0079 10.9885 22.9253 11.2661L22.9192 11.2858C22.8519 11.493 22.6535 11.8479 22.3945 11.742C22.3236 11.713 22.2511 11.634 22.2851 11.5489C22.3285 11.44 22.3911 11.4118 22.4746 11.3421C22.5389 11.2885 22.5837 11.2115 22.6168 11.1356C22.7048 10.9335 22.7244 10.6974 22.7124 10.4796L22.7107 10.4538C22.6796 10.0284 22.4495 9.3944 21.94 9.40606C21.9167 9.40659 21.9183 9.37359 21.94 9.37083ZM22.948 8.76038C23.2544 8.6434 23.5054 8.93713 23.6816 9.14676C23.9022 9.40943 24.1024 9.69239 24.2156 10.0194C24.3164 10.3107 24.3341 10.6347 24.2433 10.9312C24.1984 11.0781 24.1283 11.2143 24.0328 11.3341L24.0206 11.3492C23.9211 11.4708 23.8251 11.5455 23.6621 11.502C23.5958 11.4843 23.5678 11.4185 23.5793 11.3557C23.6038 11.2215 23.6728 11.1867 23.7622 11.093C23.841 11.0104 23.8994 10.9086 23.9388 10.8016C24.0198 10.5809 24.024 10.3418 23.9696 10.1144C23.9087 9.85985 23.7888 9.62479 23.6501 9.40452L23.6202 9.35734C23.4733 9.12446 23.2638 8.76583 22.9538 8.80362C22.9272 8.80688 22.9269 8.7684 22.948 8.76038Z" fill="black"/>
<path fill-rule="evenodd" clip-rule="evenodd" d="M21.8376 17.9705C22.2092 17.9705 22.3665 18.031 22.6082 18.173C22.85 18.3151 23.1084 18.4983 23.1695 18.7726C23.2265 19.0282 23.1143 19.2773 22.866 19.3748C22.7271 19.4294 21.1264 19.5572 20.8753 19.5738C20.6243 19.5905 20.3846 19.5699 20.2234 19.4026C19.8068 18.9704 20.3853 18.41 20.755 18.203C21.0851 18.0182 21.4661 17.9705 21.8376 17.9705ZM21.7517 18.262C21.4722 18.262 21.0144 18.4665 21.0144 18.5661C21.0144 18.6657 22.3488 18.5668 22.3774 18.4816C22.406 18.3965 22.0312 18.262 21.7517 18.262ZM21.9667 15.9802C22.203 16.1239 22.5632 16.459 22.3089 16.8153C22.0096 17.1295 21.5787 16.7693 21.3664 16.6064C21.1695 16.4801 20.9483 16.8048 21.1309 16.9523C22.6653 18.0887 23.288 16.0178 22.0862 15.8112C21.9539 15.7885 21.9048 15.9357 21.9667 15.9802ZM19.2978 14.6776C19.7003 14.3803 20.3025 14.6092 20.4017 15.0743C20.4707 15.1106 20.5082 15.1683 20.5164 15.2528L20.5184 15.2739C20.5281 15.3743 20.4389 15.4693 20.3496 15.4958C20.2492 15.5255 20.1697 15.5101 20.0765 15.4675C19.9871 15.4265 19.956 15.3104 19.9722 15.2221L19.9737 15.2148C19.9976 15.1052 19.9036 14.999 19.8091 14.9555C19.7024 14.9065 19.5826 14.9372 19.4899 15.0022C19.3869 15.0742 19.3012 15.1975 19.2722 15.3203L19.2693 15.333C19.2465 15.439 19.2293 15.6379 19.3321 15.6988C19.3503 15.7096 19.3373 15.7342 19.3185 15.731C19.0951 15.6927 18.9621 15.5583 18.9607 15.3178C18.9593 15.0631 19.096 14.8266 19.2978 14.6776ZM23.0048 14.593C23.4068 14.4504 23.9096 14.8336 23.7547 15.2762C23.653 15.5668 23.2597 15.4503 23.2963 15.159L23.2976 15.1501C23.3209 14.9986 23.2062 14.9271 23.0655 14.9768C22.857 15.0506 22.7446 15.3783 22.8423 15.5695C22.8543 15.5929 22.8207 15.6128 22.8068 15.5902L22.7934 15.5687C22.6843 15.3949 22.5848 15.2666 22.6207 15.0446C22.6536 14.84 22.8102 14.662 23.0048 14.593ZM22.1894 13.5395C22.1883 13.5199 22.2089 13.5068 22.2265 13.5112C22.3694 13.5471 22.4988 13.6511 22.6289 13.7185C22.771 13.7921 22.9164 13.8516 23.0707 13.8952C23.221 13.9376 23.3728 13.9588 23.5291 13.9575C23.6981 13.9561 23.8636 13.8926 24.0294 13.8978C24.2786 13.9057 24.4089 14.2683 24.1634 14.3929C23.806 14.5743 23.2758 14.4425 22.9282 14.2917C22.6483 14.1703 22.2076 13.8835 22.1894 13.5395ZM20.3738 13.6224C20.5042 13.4545 20.768 13.4444 20.8838 13.6423C21.0034 13.8467 20.8596 14.0517 20.6564 14.094C20.2856 14.2599 19.9057 14.3868 19.5006 14.4394L19.4458 14.4464C19.0932 14.4893 18.6483 14.5127 18.3298 14.35C18.2985 14.334 18.308 14.2865 18.3392 14.2775C18.5188 14.2261 18.72 14.2263 18.9046 14.1926C19.0803 14.1605 19.2546 14.1251 19.4257 14.0731C19.7636 13.9705 20.0839 13.8237 20.3738 13.6224Z" fill="black"/>
<path fill-rule="evenodd" clip-rule="evenodd" d="M20.79 18.6526C20.79 18.6526 21.1079 18.1357 21.6308 18.1357C22.1537 18.1357 22.7592 18.4078 22.7168 18.5372C22.6942 18.6063 22.208 18.8016 21.3969 18.8093C21.1957 18.8113 20.79 18.6526 20.79 18.6526Z" stroke="#22252B" stroke-width="1.5"/>
</svg>
