<svg width="36" height="48" viewBox="0 0 36 48" fill="none" xmlns="http://www.w3.org/2000/svg">
<path fill-rule="evenodd" clip-rule="evenodd" d="M25.2562 26.8324C24.9844 26.7355 24.7225 26.6235 24.4838 26.4588C23.7957 25.9465 23.3471 25.1755 22.9232 24.4449C22.3261 23.3825 21.9007 22.2503 21.6066 21.0692C21.4803 20.5618 21.4374 19.9735 21.1503 19.5236C20.4995 18.5816 18.5913 18.7037 17.578 18.869C16.8994 18.9891 16.7592 19.7488 16.605 20.3109C16.4767 20.778 16.3927 21.2504 16.3222 21.729C16.1544 21.8394 15.965 21.929 15.7845 22.007C13.8171 22.6106 13.4713 23.7294 12.7198 25.4578C11.4506 27.9698 8.00666 28.9534 7.48645 31.9264C7.15127 33.8891 8.10441 35.7356 9.0871 37.3673C10.0023 39.1496 11.2799 40.005 13.3146 39.5839C15.2231 39.1556 17.0572 38.4392 18.9321 37.8856C19.8402 37.6622 20.7468 37.0813 21.702 37.2839C23.6702 37.7261 25.6925 37.934 27.7096 37.8766C30.5416 37.9911 30.5412 35.2719 30.2505 33.1662C30.0469 29.8891 28.3946 27.7849 25.2562 26.8324Z" fill="#D08B5B"/>
<path fill-rule="evenodd" clip-rule="evenodd" d="M25.445 31.575C25.6817 31.7315 25.8807 31.9689 26.0405 32.2187C25.3734 32.1493 24.7075 32.0692 24.0431 31.9781C24.1301 31.9225 24.2179 31.8681 24.3077 31.8168C24.6353 31.6321 25.0792 31.333 25.445 31.575ZM14.3625 33.5475C14.2403 33.4996 14.193 33.3132 14.1454 33.2063C13.996 32.8712 13.8597 32.5304 13.7179 32.192C14.2564 32.0385 14.78 31.8681 15.3378 31.7862C15.9376 31.6983 16.5462 31.677 17.1516 31.6968C18.3777 31.7368 19.5924 31.9373 20.7978 32.1522C22.0019 32.3669 23.2058 32.5732 24.4183 32.7351C25.6062 32.8937 26.7978 33.0097 27.9917 33.1116C28.2236 33.1314 28.6104 33.2149 28.7969 33.0323C28.9446 32.8876 28.9494 32.6209 28.7646 32.5033C28.6495 32.43 28.4827 32.429 28.3512 32.4121C28.1855 32.3907 28.0193 32.3766 27.8526 32.3655C27.7847 32.361 27.7168 32.3569 27.6489 32.3528C28.1941 32.1471 28.7634 32.035 29.3544 32.0663C29.3878 32.2694 29.5384 32.4783 29.6208 32.6459C29.7647 32.9383 29.8769 33.2343 29.9506 33.5523C30.1045 34.217 30.1112 34.9068 30.0677 35.5847C30.0278 36.15 29.942 36.7752 29.4988 37.1755C29.1632 37.4786 28.6898 37.5908 28.2506 37.6261C27.7401 37.6671 27.2217 37.6233 26.7155 37.5549C26.0055 37.4588 25.2922 37.3318 24.5962 37.1616C23.2481 36.832 21.956 36.3075 20.7639 35.5963C20.1825 35.2495 19.6277 34.8594 19.0384 34.5258C18.4378 34.1858 17.7988 33.9221 17.1279 33.7583C16.377 33.5751 15.592 33.4969 14.8202 33.5421C14.6863 33.5499 14.4928 33.5985 14.3625 33.5475ZM13.4924 33.2072C13.5713 33.4634 13.6316 33.7558 13.8001 33.9711C13.9669 34.1844 14.2186 34.2596 14.4793 34.2786C14.7937 34.3014 15.1117 34.2868 15.4268 34.2985C16.0729 34.3225 16.7102 34.4275 17.328 34.6201C17.9036 34.7996 18.438 35.0796 18.9527 35.3902C19.4287 35.6775 19.8907 35.9859 20.3669 36.2722C20.2402 36.3303 20.1149 36.3932 19.9889 36.4479C19.7247 36.5627 19.4588 36.6735 19.1918 36.7815C18.6652 36.9944 18.1363 37.2021 17.6021 37.3951C16.5249 37.7843 15.4299 38.1243 14.3218 38.4139C13.7932 38.5521 13.2572 38.7134 12.7081 38.7364C12.2213 38.7568 11.7703 38.6191 11.3776 38.3295C10.5631 37.7288 9.91515 36.8618 9.39134 36.0066C9.08013 35.4985 8.80855 34.9647 8.58392 34.4127C8.4703 34.1335 8.36727 33.8501 8.27453 33.5634C8.23102 33.4287 8.18977 33.2933 8.15071 33.1573C8.13353 33.0975 8.11706 33.0375 8.10076 32.9775C8.93359 32.7232 9.77631 32.4937 10.6388 32.3663C11.0993 32.2983 11.566 32.2638 12.0315 32.2688C12.2626 32.2713 12.4935 32.2838 12.7234 32.3077C12.8471 32.3205 12.9703 32.337 13.093 32.3575C13.1437 32.3659 13.1958 32.3784 13.2481 32.3876C13.328 32.6613 13.4085 32.9347 13.4924 33.2072ZM30.7081 32.119C30.753 32.0282 30.7719 31.9388 30.788 31.8399C30.8003 31.7645 30.8328 31.6583 30.8043 31.5604C30.7724 31.4507 30.6854 31.3526 30.6229 31.2591C30.554 31.1557 30.4851 31.0522 30.4163 30.9487C30.2787 30.7417 30.1414 30.5345 30.0043 30.3272C29.4444 29.4805 28.8884 28.6314 28.3315 27.7828C27.8373 27.0297 27.3514 26.2699 26.8422 25.5269C26.4067 24.8916 25.9321 24.2668 25.336 23.7727C24.5824 23.148 23.6849 22.8537 22.7476 22.6241C22.6452 22.5178 22.5085 22.4597 22.3623 22.4715C22.1558 22.2372 21.9916 22.0735 21.9172 21.7756C21.8816 21.6329 21.8928 21.2319 21.7538 21.1474C21.5888 21.0471 21.5026 21.1799 21.4571 21.3295C21.3048 21.8302 21.4796 22.5033 21.8818 23.0048C21.7123 23.5907 21.4877 24.4233 21.0869 24.8927C20.6577 25.3952 20.0642 25.5517 19.4238 25.562C18.2026 25.5816 16.9827 25.1276 16.0512 24.3407C15.768 24.1015 15.5051 23.8344 15.2672 23.5503C15.0888 23.3372 14.8777 23.0083 14.7381 22.7596C14.7381 22.6628 14.6238 22.5614 15.7879 22.4832C16.952 22.4049 17.0403 20.8103 17.0661 20.5933C17.0872 20.4171 17.1766 20.1435 17.0525 19.9999C16.9998 19.9388 16.8917 19.929 16.8249 19.9705C16.699 20.0487 16.6576 20.2488 16.618 20.3846C16.5625 20.575 16.3812 21.7563 16.0377 21.893C15.8768 21.957 15.6923 21.9582 15.5222 21.9701C15.3121 21.9848 15.1015 21.9955 14.8923 22.02C14.8151 22.029 14.7309 22.054 14.6547 22.0547C14.6052 22.0551 14.5541 22.0311 14.5062 22.0142C14.3446 21.957 14.1831 21.9999 14.0166 22.0223C12.5444 22.2202 11.0285 22.6719 9.77284 23.4847C8.66605 24.2011 7.8863 25.2314 7.37177 26.436C6.8468 27.6654 6.54589 28.9947 6.29371 30.3034C6.20924 30.7419 6.13547 31.1824 6.07209 31.6244C6.01083 32.0515 5.93421 32.4882 5.91587 32.9196C5.90861 33.0904 5.94939 33.2489 6.01215 33.4049C6.08282 33.5804 6.24986 33.6496 6.41008 33.7315C6.76179 33.9115 7.13281 34.0511 7.51506 34.1499C7.74858 34.5749 7.94511 35.0165 8.10304 35.4748C8.04445 35.5909 8.04323 35.7644 8.03196 35.8772C8.00401 36.1583 7.99206 36.4409 7.98955 36.7232C7.98451 37.2892 8.01853 37.8546 8.0452 38.4196C8.07224 38.9928 8.16213 41.254 8.17678 41.5302C8.18817 41.7447 8.17284 42.0447 8.2858 42.2352C8.45938 42.5279 8.8878 42.518 9.08623 42.2807C14.0166 43.341 23.2842 43.0216 27.0167 42.4881C27.5024 42.4187 27.3499 42.4957 27.4734 42.373C27.566 42.2808 27.6449 42.123 27.6706 41.9961C27.7048 41.8268 27.6495 41.6736 27.5526 41.5365C27.4507 41.3925 27.4322 41.1592 27.3943 40.988C27.3049 40.5831 27.2604 38.8049 27.2186 38.6079C27.2055 38.5465 27.1929 38.4816 27.1777 38.4166C27.8624 38.4815 28.5758 38.4815 29.2271 38.2524C29.5965 38.1225 29.941 37.9185 30.2061 37.6271C30.5272 37.2743 30.7058 36.8302 30.7977 36.3667C30.9162 35.7689 30.9414 35.1497 30.9181 34.5421C30.8857 33.8239 30.7667 33.0956 30.4711 32.4363C30.5684 32.3459 30.6499 32.2369 30.7081 32.119Z" fill="black"/>
<path fill-rule="evenodd" clip-rule="evenodd" d="M15.4046 6.46655C17.3727 6.35884 19.1164 5.80446 20.5018 7.04517C20.5018 7.04517 22.743 5.36729 23.1169 6.00634C23.3675 6.43454 23.02 7.00937 23.1132 7.53776C23.7207 8.57606 23.6864 10.3335 23.7207 10.7453C23.8073 11.7834 24.3526 15.6897 24.3526 16.6173C24.3526 17.0908 23.9632 18.3309 23.7207 19.021C23.1809 20.557 22.1506 21.3398 20.4608 21.3398C18.7711 21.3398 16.0131 19.924 15.1286 18.6669C15.0511 18.5568 14.5498 18.8782 14.0255 18.3206C13.4574 17.7167 13.1423 16.5647 13.1423 15.8779C13.1423 15.0065 12.5806 14.4022 12.6459 13.2868C12.7918 10.7957 13.2986 6.5818 15.4046 6.46655Z" fill="#D08B5B"/>
<path fill-rule="evenodd" clip-rule="evenodd" d="M23.1189 5.9995C23.3694 6.4277 23.0219 7.00253 23.1151 7.53093C23.3496 7.9316 23.4884 8.43936 23.5725 8.93556L23.1131 9.17999L22.9431 9.20498C20.1869 9.61237 18.4278 9.979 17.6657 10.3049C16.8959 10.6341 15.9617 11.7903 14.863 13.7736L14.8297 13.8339L14.612 15.3141L13.6139 15.6209L13.1441 15.8442C13.1327 14.9871 12.5832 14.3839 12.6479 13.28C12.7938 10.7889 13.3005 6.57496 15.4065 6.45971C17.3747 6.352 19.1184 5.79763 20.5037 7.03834C21.9979 5.91975 22.8696 5.57347 23.1189 5.9995Z" fill="#9FD8E5"/>
<path fill-rule="evenodd" clip-rule="evenodd" d="M15.1856 3.57003C15.2112 3.56846 15.2371 3.56971 15.263 3.57225C15.2915 3.5735 15.3199 3.57629 15.3483 3.58196C15.4929 3.60979 15.6219 3.6865 15.7218 3.79453C15.7247 3.79734 15.7268 3.80051 15.7293 3.80329C15.7762 3.83868 15.8196 3.87878 15.8586 3.92134C15.8655 3.91476 15.8721 3.90822 15.8793 3.90164C15.8999 3.88345 15.9214 3.86623 15.9439 3.84998C16.038 3.76908 16.1484 3.71028 16.2672 3.67682L16.2834 3.67241C16.2865 3.67147 16.2897 3.67085 16.2928 3.67022C16.3771 3.64207 16.4658 3.62767 16.5551 3.62795C16.662 3.62451 16.7691 3.64207 16.869 3.68337C16.9874 3.73256 17.0905 3.81018 17.177 3.90352C17.2338 3.94986 17.2835 4.00087 17.336 4.05695C17.4443 4.17308 17.5299 4.30897 17.584 4.45867C17.5914 4.47965 17.598 4.50122 17.6039 4.52282C17.7361 4.50751 17.8688 4.49655 18.0015 4.4912C18.1505 4.48215 18.2995 4.47899 18.4488 4.48403C18.8601 4.49746 19.2624 4.57014 19.6519 4.70321C19.73 4.72635 19.8059 4.75578 19.8789 4.7921C19.9936 4.83781 20.1019 4.89605 20.2041 4.9665L20.2911 5.01823C20.3348 5.04427 20.3785 5.07064 20.4208 5.0977C20.5217 5.16254 20.6173 5.23515 20.7079 5.31343C20.8034 5.3908 20.8937 5.47503 20.9796 5.56329C21.0029 5.58718 21.0254 5.61139 21.0476 5.63575C21.2456 5.74286 21.4215 5.88001 21.5855 6.04358C21.7156 5.96855 21.8503 5.90055 21.9893 5.84008C22.1327 5.77778 22.3148 5.71359 22.465 5.67135C22.6 5.63346 22.7333 5.60747 22.8686 5.58834C22.9301 5.5777 22.9919 5.56924 23.0541 5.56204L23.0516 5.56301C23.0953 5.55828 23.1387 5.55421 23.1828 5.55046L23.1815 5.55014C23.2002 5.54861 23.2193 5.54701 23.238 5.54576L23.2836 5.54203C23.2974 5.54078 23.3174 5.573 23.3186 5.58427L23.3202 5.59586C23.3305 5.60747 23.3399 5.62031 23.3464 5.62814C23.3545 5.62748 23.3627 5.62689 23.3708 5.62654C23.3951 5.62438 23.4232 5.66787 23.4376 5.68447L23.4506 5.69977C23.4654 5.71761 23.4802 5.73815 23.4826 5.76055C23.4985 5.89053 23.5135 6.02075 23.5273 6.151C23.5326 6.24963 23.5273 6.34733 23.511 6.44408C23.4988 6.53801 23.4863 6.63194 23.4738 6.72556C23.4539 6.79135 23.4342 6.8571 23.4145 6.92282C23.4067 6.9479 23.398 6.97261 23.3895 6.99734C23.3396 7.16254 23.281 7.32336 23.2113 7.47919C23.2622 7.53561 23.3096 7.5941 23.3537 7.6545C23.3643 7.66537 23.3749 7.67617 23.3848 7.68744C23.3876 7.68309 23.3917 7.67902 23.3961 7.6768C23.4111 7.67022 23.422 7.67805 23.4314 7.69092C23.5298 7.78513 23.6013 7.89507 23.6456 8.02059L23.6733 8.08606C23.6778 8.09701 23.6824 8.10796 23.6869 8.11891C23.7221 8.21413 23.7493 8.31182 23.7718 8.41073C23.7919 8.48857 23.8064 8.56747 23.8157 8.64722C23.8831 8.87432 23.9365 9.10665 23.9868 9.33585C23.9947 9.37192 23.991 9.40411 23.9794 9.43154L24.0089 9.46028L24.0591 9.51047C24.1436 9.59488 24.2297 9.68361 24.2925 9.78404C24.3574 9.8883 24.4052 9.99977 24.4583 10.1103L24.4697 10.1338L24.4931 10.1809C24.5184 10.2323 24.5305 10.2607 24.5529 10.3229C24.5901 10.4266 24.6101 10.5308 24.6195 10.6407C24.6332 10.8007 24.6313 10.9751 24.5614 11.1238C24.5611 11.1251 24.5604 11.1261 24.5598 11.127C24.528 11.2707 24.4492 11.4041 24.3296 11.4892C24.304 11.5134 24.2765 11.535 24.2472 11.5522C24.1767 11.5937 24.112 11.5974 24.0351 11.5782L24.0254 11.5757C24.0157 11.5732 24.007 11.571 23.9986 11.5691C24.0111 11.5794 24.0173 11.5917 23.9986 11.6004C23.9804 11.6092 23.9642 11.6142 23.9489 11.6161C23.9555 11.6245 23.9561 11.6336 23.9423 11.6411C23.9124 11.6571 23.888 11.6621 23.863 11.6577L23.8683 11.7012C23.9092 12.0306 23.9459 12.0958 23.9779 12.4496C23.9992 12.8118 24.0329 13.1732 24.0795 13.533L24.0955 13.6637C24.1469 14.078 24.2046 14.4954 24.2931 14.9031C24.3377 15.0813 24.3762 15.2607 24.4086 15.4413C24.4546 15.5788 24.4867 15.7194 24.5045 15.8628C24.5305 16.0087 24.5483 16.1559 24.5586 16.3043C24.5945 16.3992 24.612 16.4956 24.611 16.5939C24.6157 16.726 24.6113 16.8579 24.5973 16.9891C24.5895 17.1256 24.5707 17.2608 24.5411 17.3948C24.5145 17.5787 24.4661 17.7562 24.3968 17.9284C24.3412 18.1206 24.2731 18.3092 24.1956 18.4936C24.0754 18.7791 23.9302 19.0443 23.7649 19.3058C23.61 19.5509 23.4439 19.787 23.254 20.0065C23.0085 20.2902 22.7286 20.5501 22.4219 20.7692C22.247 20.8989 22.0624 21.0154 21.8694 21.115C21.6333 21.237 21.3934 21.3469 21.1376 21.4211C20.978 21.4675 20.8156 21.4994 20.6513 21.5239C20.3287 21.5718 19.9945 21.5645 19.67 21.5085C19.4607 21.4803 19.2549 21.4315 19.0603 21.3617C18.9004 21.3041 18.748 21.238 18.5956 21.1635C18.5172 21.1256 18.4416 21.0817 18.3691 21.0326C18.2473 20.9534 18.1333 20.8638 18.0271 20.7649C17.9925 20.7351 17.9587 20.7047 17.9256 20.6728C17.9097 20.6587 17.9185 20.6377 17.9369 20.6328L17.9425 20.6321C17.9353 20.6255 17.9278 20.6189 17.9206 20.6121C17.9191 20.6108 17.9178 20.6093 17.9166 20.6077C17.9131 20.6045 17.9094 20.6014 17.9063 20.5983C17.8941 20.5876 17.9063 20.5638 17.9169 20.5582C17.921 20.556 17.9263 20.5557 17.9322 20.5563C17.9309 20.5551 17.93 20.5541 17.9288 20.5532C17.9275 20.5523 17.9272 20.5498 17.9275 20.5472L17.9228 20.5435C17.9069 20.5294 17.915 20.5088 17.9338 20.5034C17.9429 20.5006 17.958 20.5021 17.9737 20.5055L17.9797 20.5069L17.9691 20.4968C17.9503 20.4806 17.9562 20.4624 17.9794 20.4568C17.9966 20.4578 18.0136 20.4602 18.0305 20.4643L18.0431 20.4677C18.0493 20.4693 18.0553 20.4712 18.0615 20.4731C18.0509 20.4633 18.0403 20.454 18.03 20.4442C18.0197 20.4352 18.0306 20.4092 18.04 20.4039C18.0528 20.3967 18.0777 20.4067 18.0893 20.4151C18.1177 20.4183 18.1552 20.4308 18.1689 20.4427C18.2067 20.479 18.2458 20.5137 18.2854 20.5476C18.3095 20.5551 18.3323 20.5651 18.3498 20.5801C18.3948 20.6233 18.4416 20.6641 18.4894 20.7035L18.5257 20.7286C18.5318 20.7327 18.5379 20.7368 18.5441 20.7408C18.6128 20.7811 18.6815 20.8212 18.7499 20.8616C19.0007 20.9468 19.2515 21.032 19.502 21.1168L19.5351 21.1268L19.7784 21.1569C19.9383 21.1738 20.0985 21.1729 20.2584 21.1544C20.3784 21.156 20.4974 21.144 20.6145 21.1196C20.8134 21.0858 21.0086 21.036 21.1985 20.9665C21.4172 20.8867 21.6255 20.7815 21.8288 20.6681C21.9019 20.6271 21.9737 20.5836 22.0443 20.5376C22.0671 20.5213 22.0899 20.5047 22.1127 20.4878C22.2629 20.3747 22.4066 20.2542 22.545 20.1267C22.6099 20.0669 22.6724 20.0047 22.7327 19.9402C22.7414 19.9307 22.7499 19.9217 22.7583 19.9123C22.8161 19.849 22.872 19.7836 22.9254 19.7159L22.9763 19.6584C23.1818 19.4019 23.3645 19.1261 23.5288 18.842C23.6919 18.5606 23.8262 18.2644 23.933 17.9578C23.9673 17.8485 23.9973 17.7377 24.0223 17.6256C24.0685 17.491 24.0988 17.3529 24.1129 17.212C24.1176 17.1844 24.1213 17.1569 24.1251 17.1293L24.1272 17.0859C24.1275 17.0786 24.1278 17.0714 24.1279 17.0642C24.1341 17.0204 24.1394 16.9765 24.1435 16.9327C24.146 16.8886 24.1475 16.8444 24.1479 16.8002L24.1444 16.5294C24.1435 16.5209 24.1425 16.5122 24.1419 16.5034L24.135 16.4436C24.1201 16.3202 24.1085 16.1966 24.0935 16.0732C24.0935 16.0726 24.0935 16.0716 24.0932 16.0707C24.0876 16.0247 24.0816 15.9783 24.0748 15.932C24.0713 15.9044 24.067 15.8769 24.0629 15.8493L24.0551 15.8011C24.0406 15.7173 24.023 15.6342 24.0017 15.5518L23.9923 15.5165L23.938 15.2425L23.8768 14.9729C23.8371 14.7923 23.804 14.6103 23.7777 14.4269C23.7303 14.1344 23.6897 13.8417 23.6544 13.5476C23.6525 13.5335 23.6506 13.5191 23.6491 13.5051C23.6131 13.2324 23.5872 12.9587 23.5704 12.6841C23.5476 12.4136 23.5344 12.1424 23.531 11.871C23.5307 11.8587 23.5388 11.8487 23.5485 11.8431L23.5476 11.7909C23.5465 11.7447 23.5456 11.8001 23.5452 11.7474L23.5447 11.6027C23.5447 11.5906 23.5448 11.5822 23.5451 11.5816C23.3782 11.5932 23.266 11.5837 23.1048 11.5752L23.0775 11.5738C22.9298 11.5669 22.783 11.5506 22.6371 11.5262C22.6365 11.5337 22.6315 11.539 22.6231 11.5406C22.6081 11.5412 22.594 11.5412 22.5796 11.5416L22.585 11.5619C22.5853 11.5722 22.5806 11.5788 22.5706 11.5816L22.5289 11.5835C22.4733 11.5858 22.4175 11.5869 22.3623 11.5794C22.3126 11.5729 22.2642 11.5613 22.2161 11.5475C22.1864 11.5425 22.1561 11.5356 22.1252 11.5268C22.0459 11.504 21.9672 11.4733 21.8875 11.4489C21.8063 11.4316 21.7239 11.426 21.6377 11.4467C21.5465 11.4683 21.4693 11.5074 21.3737 11.4836C21.3547 11.4789 21.3363 11.4717 21.3178 11.4642L21.3008 11.463C21.2979 11.4627 21.2949 11.4624 21.2919 11.462C21.1923 11.4476 21.1036 11.3844 21.0086 11.3505C20.9755 11.3424 20.9426 11.3445 20.9105 11.3579L20.9024 11.3615L20.8709 11.385C20.8582 11.4 20.8456 11.4152 20.8332 11.4304L20.8147 11.4532C20.7806 11.4955 20.7444 11.5334 20.7004 11.5609C20.6473 11.6101 20.5842 11.6389 20.5089 11.6408C20.4661 11.642 20.4236 11.633 20.3824 11.6198C20.2269 11.6681 20.0604 11.6778 19.9052 11.6308C19.8436 11.6214 19.7834 11.6048 19.7256 11.5788C19.6984 11.5666 19.6712 11.5522 19.645 11.5362C19.5354 11.5826 19.4317 11.6442 19.3258 11.6975L19.302 11.7095C19.1938 11.7635 19.0741 11.8162 18.9516 11.8083C18.7973 11.7983 18.6459 11.7777 18.4947 11.7516C18.4935 11.7516 18.4919 11.7513 18.4906 11.751L18.4698 11.7475L18.3942 11.7342L18.3332 11.7229L18.3021 11.7348C18.0517 11.8298 17.7774 11.9039 17.5259 11.8374C17.4162 11.824 17.3135 11.787 17.2207 11.7241C17.2176 11.7219 17.2145 11.7197 17.2113 11.7172C17.1967 11.7097 17.1829 11.7013 17.1707 11.6922L17.1681 11.6901L17.1657 11.6881L17.1645 11.6874C17.0274 11.6242 16.9487 11.4896 16.9624 11.3387C16.954 11.2907 16.9543 11.2438 16.9637 11.1937C16.919 11.2466 16.8734 11.2989 16.8272 11.3508C16.6581 11.555 16.4925 11.7631 16.3392 11.9799L16.304 12.03C16.2197 12.1493 16.1413 12.2727 16.0688 12.3998C15.9954 12.5253 15.9202 12.6497 15.8424 12.7724C15.7413 12.8844 15.6435 12.9991 15.5493 13.1167L15.5092 13.1672L15.3736 13.346C15.2777 13.46 15.1981 13.5846 15.1353 13.7199C15.0838 13.816 15.0363 13.914 14.9935 14.0145C14.9798 14.0449 14.9666 14.0755 14.9538 14.1062C14.9098 14.2262 14.8726 14.3483 14.8436 14.4744C14.8202 14.5658 14.8035 14.6583 14.7935 14.7522L14.7905 14.7835C14.7867 14.8204 14.7839 14.8574 14.7824 14.8943C14.7914 14.8997 14.7989 14.905 14.8045 14.9103L14.8273 14.9185L14.8458 14.9239C14.8745 14.9329 14.9241 14.9514 14.9123 14.9742L14.852 15.0894C14.8583 15.096 14.8611 15.1029 14.857 15.1104C14.8167 15.1877 14.7761 15.2651 14.7355 15.3424C14.7343 15.3452 14.7321 15.3474 14.7299 15.349C14.7646 15.3649 14.7983 15.3825 14.8305 15.4016C14.8932 15.4392 14.9395 15.4827 14.9823 15.5334C15.0272 15.5604 15.0697 15.5898 15.1097 15.6236C15.159 15.6755 15.2021 15.7326 15.2387 15.7942C15.2724 15.8525 15.2999 15.9132 15.3211 15.9768C15.3305 16.0103 15.3349 16.045 15.3346 16.0804C15.2968 16.3478 14.9916 16.1646 14.9857 16.1411C14.9438 15.9796 14.8957 15.8775 14.7877 15.7573L14.7849 15.7554C14.7224 15.7278 14.6606 15.7006 14.5959 15.6793C14.5862 15.6812 14.5762 15.6825 14.5662 15.684C14.5775 15.7 14.5719 15.7157 14.5491 15.7184C14.4507 15.7379 14.3513 15.7432 14.2514 15.7347L14.0996 15.7132C14.0366 15.7374 13.9765 15.7684 13.9197 15.8055L13.901 15.818L13.8975 15.8205C13.7511 15.9386 13.638 16.0954 13.5605 16.2664C13.5537 16.2816 13.5471 16.297 13.5408 16.3125L13.5315 16.3359L13.5309 16.3372C13.4297 16.7358 13.5199 17.1735 13.7048 17.5351C13.8057 17.697 13.911 17.8557 14.0209 18.0114L14.1277 18.1514C14.1908 18.2108 14.2527 18.2719 14.3129 18.3345C14.3223 18.3439 14.3323 18.3533 14.3423 18.3624C14.3741 18.3833 14.4066 18.4018 14.4397 18.4175C14.4525 18.4218 14.4657 18.4259 14.4788 18.4294C14.5425 18.46 14.6093 18.4764 14.6796 18.4782C14.7724 18.4844 14.8625 18.4735 14.9496 18.4458L14.9669 18.44L14.9798 18.4353C15.0272 18.4049 15.0713 18.3671 15.1131 18.3226C15.1225 18.3129 15.14 18.3129 15.16 18.3182C15.1709 18.3069 15.1818 18.295 15.1921 18.2822C15.1993 18.2744 15.2106 18.2741 15.2193 18.28C15.249 18.2766 15.3293 18.3223 15.3083 18.3464C15.3049 18.352 15.3005 18.357 15.2968 18.3624C15.3108 18.3696 15.3249 18.3777 15.3374 18.3862C15.403 18.4044 15.4998 18.47 15.492 18.4898L15.491 18.4914C15.4759 18.5201 15.4561 18.5443 15.4318 18.5634L15.4236 18.5696L15.4051 18.5825C15.4311 18.5988 15.4529 18.6175 15.442 18.6307C15.437 18.6404 15.4317 18.6498 15.4254 18.6583C15.4785 18.724 15.5313 18.7904 15.5838 18.8568C15.6363 18.9708 15.7012 19.0772 15.7787 19.1758C15.8433 19.2829 15.9211 19.3791 16.012 19.4648C16.0195 19.4724 16.0273 19.4796 16.0348 19.4868C16.1018 19.5364 16.1718 19.5828 16.2448 19.6274L16.2762 19.6465C16.2928 19.6564 16.3206 19.669 16.3075 19.6931C16.3059 19.6962 16.304 19.6987 16.3018 19.7006C16.3478 19.7307 16.3952 19.7591 16.4443 19.7855L16.4489 19.7883C16.4674 19.8002 16.4926 19.8217 16.4661 19.8393C16.4436 19.8543 16.384 19.8136 16.3559 19.7948C16.3506 19.7948 16.3443 19.7933 16.3381 19.7914C16.3474 19.7964 16.3567 19.8018 16.366 19.8071L16.3802 19.8149C16.3912 19.8215 16.4449 19.8572 16.4074 19.8722C16.389 19.8737 16.3721 19.869 16.3565 19.8584C16.3381 19.8493 16.32 19.8396 16.3022 19.8296C16.3084 19.8393 16.3084 19.849 16.2928 19.8553C16.2875 19.8556 16.2822 19.8553 16.2769 19.8547C16.3137 19.8782 16.3515 19.9 16.3905 19.9207L16.3969 19.9247C16.4134 19.9354 16.4397 19.9558 16.4205 19.9733C16.399 19.9927 16.3396 19.9514 16.3243 19.942L16.2787 19.9148C16.2753 19.9163 16.2715 19.917 16.2675 19.9173C16.2812 19.9258 16.294 19.9348 16.3081 19.9429L16.3272 19.9534C16.3512 19.9667 16.385 19.9885 16.3727 20.0103C16.3605 20.0318 16.3241 20.0141 16.3005 20.0001L16.2752 19.9844C16.2741 19.9837 16.273 19.983 16.2719 19.9824L16.2709 19.9862C16.2707 19.9868 16.2704 19.9874 16.27 19.988C16.2583 20.0085 16.2288 19.9951 16.2085 19.9833L16.1922 19.9733C16.1645 19.9566 16.1371 19.9401 16.1099 19.9234L16.0692 19.8982H16.0685C15.9277 19.8133 15.7974 19.7288 15.6747 19.6198C15.6013 19.5547 15.5329 19.4858 15.4679 19.4122C15.3374 19.2647 15.2402 19.096 15.1465 18.9238C15.145 18.9209 15.1472 18.9137 15.1509 18.9059C15.1406 18.8847 15.1306 18.863 15.1206 18.8408C15.0244 18.8677 14.917 18.8756 14.818 18.869C14.7649 18.8655 14.7124 18.8561 14.6602 18.842C14.4938 18.8189 14.3332 18.7428 14.1946 18.6517C14.1858 18.646 14.178 18.6398 14.1699 18.6342C14.1127 18.6019 14.0584 18.5643 14.0069 18.5214C13.9063 18.4381 13.8104 18.3454 13.7233 18.2487C13.6602 18.1736 13.6005 18.0956 13.5446 18.0148C13.4878 17.935 13.4303 17.8551 13.3728 17.7753C13.2132 17.5248 13.1111 17.2364 13.0714 16.9418C13.0521 16.8332 13.0421 16.7232 13.0443 16.6136C13.0458 16.5344 13.0546 16.4543 13.0699 16.3744C13.0608 16.3656 13.0517 16.3569 13.0427 16.3478C13.0377 16.3566 13.0327 16.3629 13.0296 16.3597L12.958 16.2878C12.9072 16.2365 12.8731 16.1988 12.8147 16.1158C12.7216 15.9833 12.6523 15.8377 12.6007 15.6843C12.5636 15.5748 12.5389 15.4501 12.5292 15.3296C12.5261 15.3095 12.523 15.2892 12.5205 15.2685C12.5005 15.1054 12.5189 14.9491 12.5436 14.7882C12.5452 14.7776 12.5505 14.771 12.5576 14.7675C12.5595 14.7548 12.5616 14.7417 12.5637 14.7286C12.3568 14.5091 12.208 14.2445 12.2201 13.9249C12.2239 13.8242 12.2445 13.725 12.2839 13.6323L12.2887 13.6218C12.116 13.5952 11.979 13.4736 11.8761 13.3229C11.867 13.3156 11.8581 13.3083 11.8496 13.3011C11.6656 13.1435 11.538 12.9204 11.4507 12.6848C11.3881 12.5479 11.3467 12.4017 11.3291 12.25C11.3278 12.2392 11.3271 12.2285 11.3261 12.2177C11.2834 11.9779 11.2725 11.7357 11.2922 11.497C11.2494 11.3493 11.2145 11.1991 11.1906 11.0453C11.1793 10.972 11.1715 10.8987 11.1656 10.8254L11.165 10.8214L11.164 10.8082L11.1614 10.7754C11.161 10.7699 11.1606 10.7645 11.1603 10.7591C11.1075 10.0884 11.2571 9.42834 11.5045 8.80713C11.526 8.75126 11.5483 8.69554 11.5712 8.64026L11.5956 8.5825C11.8439 8.18109 12.2167 7.85643 12.5325 7.51354C12.6415 7.39525 12.4653 7.21765 12.3559 7.33641C12.1461 7.56423 11.921 7.78244 11.7177 8.01662C11.6818 8.01925 11.6459 8.02022 11.61 8.01843C11.5476 8.01527 11.487 8.00528 11.4283 7.98928C11.2818 7.96768 11.1484 7.9085 11.0272 7.82145C10.8651 7.74571 10.7268 7.6029 10.713 7.4166C10.7115 7.39781 10.7118 7.37934 10.713 7.3609C10.698 7.26975 10.7115 7.17428 10.7496 7.08627C10.7561 7.06216 10.7646 7.03836 10.7752 7.01488C10.8061 6.94506 10.857 6.87808 10.9192 6.83265C10.9207 6.83171 10.922 6.83111 10.9232 6.83014C10.9298 6.82329 10.936 6.81637 10.9432 6.81014C10.9538 6.8004 10.9651 6.79135 10.977 6.78289C10.9348 6.71335 10.8967 6.64199 10.8642 6.56588C10.8289 6.48322 10.8108 6.39933 10.8008 6.31069C10.7967 6.27562 10.7952 6.24087 10.7946 6.20614C10.7927 6.19014 10.7914 6.17386 10.7902 6.15758C10.7824 6.03359 10.7967 5.90493 10.843 5.78905C10.8464 5.78031 10.8508 5.77151 10.8548 5.76243C10.8636 5.73613 10.8733 5.70986 10.8851 5.68415C10.9314 5.58552 10.9969 5.50192 11.0778 5.43335C11.1216 5.3892 11.1706 5.35006 11.224 5.31687C11.2555 5.29715 11.2915 5.27961 11.3293 5.26521C11.3967 5.22952 11.4832 5.19695 11.5535 5.19448C11.5619 5.19414 11.5694 5.19511 11.5776 5.19511C11.5841 5.01535 11.6072 4.81965 11.6781 4.65684C11.7194 4.53882 11.7812 4.43393 11.8743 4.35844C11.9283 4.30196 11.9948 4.25609 12.0778 4.22611L12.0926 4.22098L12.0982 4.21942C12.1729 4.1831 12.2534 4.16869 12.3362 4.16904C12.4327 4.164 12.5311 4.18219 12.6151 4.22662C12.6326 4.23601 12.6513 4.2476 12.6691 4.26012C12.6826 4.2332 12.6976 4.20596 12.7147 4.17875C12.775 4.08196 12.8478 3.99774 12.9321 3.92102C12.9421 3.91194 12.9531 3.9038 12.9637 3.89507C13.0046 3.85781 13.048 3.82336 13.093 3.79205C13.1901 3.72439 13.2966 3.67401 13.4084 3.64141C13.5375 3.59359 13.6737 3.57139 13.81 3.57606L13.8382 3.57726C13.8444 3.57785 13.8507 3.57817 13.8566 3.57848C13.9919 3.58728 14.1252 3.62047 14.2527 3.67053C14.3848 3.72286 14.4966 3.80204 14.6006 3.89284C14.6249 3.85906 14.6527 3.82709 14.6868 3.79703C14.6965 3.78861 14.7068 3.78106 14.7165 3.77323C14.724 3.76572 14.7318 3.75852 14.7399 3.75132C14.7771 3.71844 14.8164 3.68995 14.8595 3.66459C14.9079 3.63612 14.9601 3.6164 15.0141 3.60419C15.0691 3.58537 15.1269 3.57378 15.1856 3.57003ZM14.5437 16.4781C14.5493 16.4777 14.8385 16.5865 14.9827 16.6568L14.9898 16.6603C15.1559 16.7429 15.2359 16.8024 15.3852 16.9086C15.3952 16.9158 15.4055 16.9267 15.4055 16.9374C15.4055 17.092 15.368 17.281 15.2384 17.1973C15.2196 17.1852 15.2007 17.1733 15.1817 17.1617L15.1531 17.1444L15.1522 17.1447C15.1525 17.1447 15.1528 17.1444 15.1531 17.144C14.8708 16.9715 14.5725 16.8363 14.2577 16.7395C14.2361 16.7317 14.3957 16.4899 14.4397 16.5034C14.4144 16.4934 14.5395 16.4783 14.5437 16.4781ZM17.5103 9.64956C17.3226 9.66969 17.1349 9.68951 16.9471 9.70889C16.8275 9.72267 16.7076 9.73488 16.5876 9.74521C16.4074 9.75871 16.2272 9.76087 16.0476 9.73613C15.9839 9.7274 15.9214 9.71484 15.8596 9.6995C15.8174 9.7305 15.7737 9.75961 15.729 9.78751L15.2331 10.1679C14.9004 10.43 14.575 10.7077 14.282 11.0143C13.7704 11.5498 13.3536 12.1763 13.0916 12.8703C13.0678 12.8844 13.0495 12.9089 13.0433 12.9465C12.9971 13.231 12.8617 13.4904 12.8128 13.7737C12.7646 14.0528 12.8287 14.29 13.0035 14.5112C13.0408 14.5584 13.1173 14.5559 13.1642 14.524C13.1751 14.5455 13.2223 14.5446 13.2389 14.4497C13.3167 14.3653 13.3832 14.2769 13.4282 14.1673C13.4614 14.0867 13.4056 14.0308 13.338 14.0198C13.3661 13.9183 13.3978 13.8178 13.4334 13.7183C13.539 13.4227 13.6733 13.1403 13.8423 12.8754C13.9909 12.6424 14.163 12.4395 14.3479 12.236C14.3501 12.2332 14.3538 12.2323 14.3579 12.2317L14.3963 12.189C14.4016 12.1831 14.4126 12.1837 14.4247 12.1869C14.4363 12.1746 14.4475 12.1621 14.4594 12.1499C14.471 12.1374 14.4838 12.1411 14.491 12.1512C14.5106 12.1468 14.5466 12.1681 14.5575 12.175C14.5762 12.1875 14.5822 12.2016 14.5662 12.2194C14.5634 12.2226 14.5606 12.2257 14.5578 12.2285C14.5793 12.2376 14.6006 12.2498 14.6171 12.2617C14.6749 12.2745 14.7561 12.3284 14.7421 12.3444C14.7124 12.3753 14.6837 12.407 14.6552 12.4392C14.6802 12.4568 14.6965 12.474 14.6899 12.4815C14.5681 12.6102 14.4557 12.7464 14.3526 12.8907C14.2742 12.9984 14.2033 13.1105 14.1399 13.2273C14.0456 13.3926 13.9656 13.5627 13.8947 13.7374C13.8847 13.764 13.875 13.7906 13.8657 13.8172C13.762 14.1081 13.6845 14.4099 13.6517 14.7174L13.6504 14.7382C13.6443 14.8489 13.6419 15.1455 13.6305 15.2162C13.6995 15.2503 13.7714 15.2795 13.846 15.3033C13.8601 15.3074 13.8744 15.3111 13.8888 15.3146C13.8969 15.3111 13.9053 15.3083 13.9138 15.3058C13.9825 15.2779 14.0543 15.2579 14.1277 15.2481C14.1772 15.2416 14.2264 15.2393 14.2756 15.2407L14.2967 15.2416C14.3186 15.2422 14.3401 15.2438 14.362 15.246C14.3607 15.2334 14.3601 15.2213 14.3592 15.2087C14.3529 15.2046 14.3482 15.199 14.3479 15.1915C14.3332 15.0506 14.3329 14.9097 14.347 14.7688C14.3563 14.6952 14.3673 14.6219 14.3791 14.5487C14.3913 14.4885 14.4054 14.4294 14.4207 14.3702C14.4613 14.2043 14.5153 14.0424 14.5809 13.884C14.7677 13.4321 15.0353 13.0247 15.3046 12.6196C15.501 12.3237 15.6869 12.0212 15.8902 11.7303C16.0632 11.4827 16.245 11.2388 16.439 11.0071C16.6326 10.7757 16.8372 10.553 17.058 10.347C17.0936 10.3141 17.1295 10.2822 17.1661 10.2506C17.3753 10.0627 17.6027 9.90834 17.8394 9.75683C17.8485 9.75088 17.8647 9.75745 17.8782 9.76869L17.9164 9.74515C17.9228 9.74125 17.9292 9.73738 17.9356 9.73363C17.9416 9.7299 17.9481 9.73613 17.9516 9.74145C17.9678 9.733 17.984 9.72489 18.0003 9.71672C18.0121 9.70714 18.0243 9.69806 18.0363 9.6886C17.8607 9.67974 17.6854 9.66659 17.5103 9.64956ZM19.7122 7.5622C19.5704 7.53374 19.4279 7.52963 19.2849 7.55093C19.225 7.55972 19.1653 7.57031 19.1061 7.58311C19.2405 7.70053 19.3485 7.85079 19.4186 8.02372C19.4944 8.21065 19.1922 8.29122 19.1175 8.10698C19.0454 7.92926 18.909 7.79293 18.7443 7.71121C18.7086 7.73115 18.6741 7.75276 18.6412 7.77668C18.5981 7.81175 18.5575 7.84963 18.5194 7.89128C18.4363 7.9818 18.3601 8.10263 18.3101 8.22224C18.2908 8.28736 18.2764 8.35437 18.2673 8.42325C18.2655 8.43891 18.2636 8.45488 18.262 8.47085C18.2312 8.79489 18.3236 9.11016 18.4826 9.38914L18.4889 9.38924C18.6308 9.31208 18.7794 9.24708 18.9323 9.19414C19.0547 9.11151 19.1818 9.03507 19.3127 8.96588C19.5909 8.81874 19.8847 8.70531 20.1875 8.62774L20.2225 8.61895C20.2938 8.60068 20.3658 8.58459 20.438 8.57052L20.4814 8.56231H20.4821L20.4774 8.51562C20.453 8.33245 20.3815 8.16243 20.289 8.00528C20.2197 7.88661 20.1151 7.76513 19.9989 7.66806L19.9983 7.66772C19.9455 7.63766 19.89 7.61279 19.833 7.59225L19.8115 7.58474L19.7122 7.5622ZM15.9049 7.28387C15.61 7.25598 15.3152 7.25879 15.0204 7.2829C14.8277 7.30203 14.6362 7.32862 14.4457 7.36243C14.3167 7.38466 14.1902 7.41598 14.0659 7.45483L14.137 7.59898C14.2558 7.83904 14.3775 8.07753 14.5209 8.30427C14.595 8.42106 14.6752 8.53225 14.7627 8.63899C14.8217 8.71539 14.8867 8.78618 14.9579 8.85128C14.9766 8.87417 14.9966 8.89577 15.0169 8.91672C15.0819 8.97245 15.1518 9.0213 15.2284 9.06169C15.2897 9.1065 15.3538 9.14564 15.4206 9.17996L15.4457 9.1926L15.68 9.28275C15.6925 9.28629 15.7051 9.28984 15.7178 9.29322L15.7368 9.29812L15.7724 9.3056L15.7992 9.29106C15.8036 9.28866 15.8082 9.28629 15.8127 9.284C15.8202 9.27996 15.8255 9.28779 15.8271 9.29339C15.8277 9.29562 15.8268 9.29872 15.8252 9.30185L15.8594 9.28334C15.9181 9.30723 15.9803 9.32633 16.0471 9.33892C16.0774 9.34459 16.1077 9.34894 16.138 9.35266L16.1421 9.35538C16.1427 9.35586 16.1434 9.35638 16.1441 9.35699H16.1773C16.4108 9.37956 16.6476 9.34972 16.8807 9.30773C17.2106 9.27448 17.5404 9.23781 17.87 9.20353C17.8763 9.20293 17.8788 9.20572 17.8788 9.21014L17.8991 9.20826C17.9285 9.20509 17.9628 9.25425 17.9406 9.27213C17.9584 9.28275 17.9756 9.29812 17.9884 9.31002L17.9959 9.30936C17.9506 9.22044 17.9156 9.12744 17.8907 9.03072L17.8588 8.8685C17.8501 8.80807 17.8451 8.7436 17.8441 8.68001C17.8419 8.65089 17.8404 8.62368 17.8404 8.59985C17.8404 8.57731 17.8407 8.55476 17.8416 8.53225C17.7795 8.50654 17.7164 8.48403 17.652 8.4649C17.4693 8.44239 17.2869 8.41981 17.1042 8.39758C16.9946 8.40165 16.885 8.40948 16.7756 8.42169C16.6517 8.43265 16.528 8.44674 16.4046 8.46365C16.393 8.4649 16.3724 8.44924 16.3599 8.43108L16.3072 8.43832C16.2797 8.44176 16.2509 8.38662 16.2872 8.37535C16.3003 8.37013 16.3134 8.36519 16.3265 8.36044L16.3462 8.35343L16.3349 8.35468C16.3312 8.35503 16.3265 8.35406 16.3212 8.35221C16.2922 8.35594 16.2631 8.35969 16.2344 8.36314C16.1979 8.3677 16.2062 8.31953 16.2318 8.30819L16.2441 8.30365C16.2225 8.29015 16.2035 8.25322 16.2302 8.24115L16.2338 8.23977C16.2462 8.23479 16.2584 8.23069 16.2709 8.22599C16.27 8.22196 16.27 8.21817 16.2712 8.21475L16.2197 8.2213C16.215 8.22192 16.2374 8.18895 16.2481 8.18243L16.25 8.18153L16.2747 8.17402C16.2784 8.16337 16.2984 8.13989 16.3053 8.13773C16.3959 8.1092 16.4802 8.08356 16.5683 8.0638C16.5726 8.05848 16.5776 8.05441 16.5833 8.05316C16.6382 8.04001 16.6938 8.02967 16.7494 8.02094C16.7532 8.01527 16.7569 8.01123 16.7613 8.01089C16.899 7.99335 17.0371 7.98928 17.1757 7.99871C17.2023 8.00118 17.2288 8.00403 17.2554 8.00744C17.3063 8.01311 17.3572 8.02031 17.4078 8.03002C17.5345 8.05182 17.6583 8.08497 17.7789 8.12968L17.8066 8.1402C17.8369 8.15151 17.8669 8.16337 17.8966 8.17624C17.9116 8.1227 17.9303 8.07007 17.9525 8.01843C17.9559 8.00838 17.9597 7.99871 17.9637 7.989L17.9334 7.97081C17.9269 7.98333 17.9135 7.99304 17.9047 7.98775C17.6876 7.8409 17.4581 7.71844 17.216 7.62075C17.0805 7.56063 16.9418 7.50963 16.7997 7.46701C16.7288 7.44419 16.6573 7.42352 16.5854 7.4038C16.5495 7.39625 16.5136 7.38873 16.4771 7.38247C16.2893 7.33175 16.0985 7.2989 15.9049 7.28387ZM23.0576 7.78088C23.0312 7.82653 23.0038 7.87174 22.9747 7.91633C22.8335 8.13297 22.6643 8.33627 22.4723 8.51353C22.5224 8.5134 22.5723 8.51531 22.6216 8.51994C22.7067 8.52799 22.79 8.54214 22.8712 8.56196C22.8778 8.55667 22.8851 8.55401 22.891 8.55821L22.9122 8.57289C23.0864 8.62001 23.2499 8.6941 23.3981 8.79335L23.3954 8.77375C23.395 8.77049 23.3945 8.76722 23.3939 8.76395C23.3964 8.72544 23.397 8.68689 23.3958 8.6487C23.3652 8.42294 23.2886 8.21504 23.2012 8.00466C23.1995 8.00059 23.2007 7.99529 23.2032 7.98991C23.1591 7.91764 23.1108 7.84776 23.0576 7.78088ZM23.0978 6.00603C23.0325 6.01793 22.9679 6.03327 22.9035 6.05237C22.7827 6.07057 22.6655 6.1025 22.5525 6.14787C22.3966 6.20329 22.2455 6.26779 22.0949 6.33608C21.8026 6.46881 21.5284 6.63667 21.2788 6.83894C21.2629 6.85112 21.2476 6.86368 21.2323 6.8762C21.1764 6.9247 21.122 6.97543 21.0705 7.02897C21.0164 7.08783 20.9621 7.14673 20.9081 7.20588C20.8419 7.27542 20.7656 7.33832 20.7057 7.41347C20.6935 7.42881 20.6829 7.44572 20.6732 7.46266L20.7085 7.47484C20.7382 7.48486 20.7332 7.54059 20.7038 7.53245C20.6938 7.52963 20.6844 7.52619 20.6751 7.52246C20.6791 7.52779 20.6819 7.53311 20.6826 7.53778C20.6844 7.5528 20.6729 7.5735 20.6545 7.56818C20.646 7.56596 20.6376 7.56282 20.6292 7.55938C20.6267 7.56909 20.6248 7.57879 20.6248 7.58819C20.6263 7.58881 20.6279 7.58944 20.6298 7.58978C20.6504 7.59698 20.6891 7.6292 20.6947 7.65115C20.6991 7.66806 20.6848 7.68619 20.6663 7.68118C20.6526 7.67742 20.6392 7.67179 20.626 7.66552C20.6348 7.67401 20.6417 7.68309 20.6423 7.69092C20.6435 7.70532 20.631 7.72564 20.6139 7.72098C20.582 7.71218 20.5564 7.69875 20.5351 7.68184C20.5295 7.68932 20.5214 7.69527 20.5148 7.69342L20.5027 7.68967C20.506 7.69278 20.509 7.69605 20.512 7.69927L20.5164 7.70404C20.6026 7.79734 20.6779 7.90067 20.7382 8.01186C20.741 8.0087 20.7444 8.00588 20.7488 8.00243C20.7769 7.97864 20.8059 7.95547 20.835 7.93295L20.8438 7.92525L20.8528 7.91758L20.7875 7.93918L20.789 7.93749C20.7936 7.93157 20.8079 7.91183 20.8146 7.90525L20.8162 7.9038C20.9059 7.82336 21.0036 7.75507 21.1092 7.69937C21.1776 7.65488 21.2494 7.61731 21.3247 7.58631C21.5043 7.50271 21.6873 7.43918 21.8753 7.38031C21.9035 7.37123 21.9316 7.36152 21.9597 7.35273C21.9678 7.34991 21.9694 7.35335 21.9681 7.35899L21.9828 7.3546C22.009 7.34615 22.0537 7.39249 22.0359 7.4141C22.0466 7.42286 22.0572 7.43263 22.0664 7.4418L22.0731 7.44854L22.0805 7.44635C22.1029 7.43945 22.1405 7.47432 22.1644 7.49902L22.1821 7.51774C22.1955 7.53214 22.2217 7.56188 22.1896 7.5735L22.1493 7.58725C22.1505 7.59539 22.1471 7.60228 22.1346 7.60697C22.1205 7.61167 22.1068 7.61668 22.093 7.62172C22.1014 7.62901 22.1096 7.63658 22.1176 7.64426L22.1296 7.65582C22.1437 7.67029 22.1773 7.70218 22.1477 7.71627L22.144 7.71781L22.1055 7.73159C22.1105 7.74286 22.1093 7.75354 22.0924 7.75977C21.8682 7.83617 21.6492 7.92575 21.4353 8.02751C21.2751 8.11641 21.1058 8.18282 20.9274 8.22631C20.9128 8.23104 20.8809 8.2088 20.8678 8.18657L20.8411 8.19443C20.8367 8.19573 20.8323 8.19698 20.8278 8.19813L20.8234 8.1991C20.8568 8.28833 20.8815 8.38506 20.8953 8.47868C20.8968 8.48713 20.8981 8.49593 20.899 8.50438C20.934 8.50153 20.9687 8.49903 21.0036 8.49718C21.2457 8.48431 21.4906 8.49214 21.7332 8.52095C21.8313 8.46239 21.9256 8.39821 22.0159 8.32873C22.0434 8.3074 22.0706 8.28549 22.0974 8.26325C22.2586 8.12298 22.4044 7.96552 22.5337 7.79547C22.6534 7.63797 22.7574 7.46889 22.8448 7.2917C22.9223 7.12541 22.9863 6.95257 23.0347 6.7741C23.0791 6.61097 23.0944 6.45222 23.1056 6.28345C23.1094 6.2559 23.1119 6.22837 23.114 6.20079L23.1138 6.18898L23.1134 6.18325C23.1103 6.12411 23.1044 6.0649 23.0978 6.00603ZM20.8094 8.10294C20.8022 8.10545 20.7947 8.10795 20.7872 8.11014C20.7916 8.11985 20.7956 8.12927 20.7997 8.13895L20.8002 8.13876L20.8297 8.11547C20.8234 8.11265 20.8162 8.1083 20.8094 8.10294ZM23.0541 5.56205C23.1103 5.54107 23.1528 5.537 23.1815 5.55015C23.139 5.55328 23.0966 5.55735 23.0541 5.56205Z" fill="black"/>
<path fill-rule="evenodd" clip-rule="evenodd" d="M21.2085 19.0034C20.9981 18.9175 20.8103 18.7743 20.6731 18.5913C20.6254 18.5277 20.613 18.4606 20.623 18.3991C20.6343 18.33 20.6751 18.2674 20.7308 18.2254C20.7867 18.1833 20.8566 18.1625 20.9242 18.1731C20.9829 18.1823 21.0414 18.2145 21.0876 18.2812L21.0973 18.2946C21.1789 18.405 21.2852 18.4956 21.4064 18.554C21.5232 18.6103 21.6538 18.6366 21.7889 18.6213C22.0463 18.5922 22.2237 18.4529 22.4123 18.2638C22.4357 18.24 22.459 18.2153 22.4825 18.1903C22.4974 18.1676 22.518 18.153 22.5408 18.1454C22.5662 18.1369 22.595 18.1374 22.6213 18.1466C22.6466 18.1554 22.6693 18.1722 22.6845 18.1946C22.699 18.2158 22.7072 18.242 22.7045 18.2722C22.6873 18.4682 22.5849 18.6431 22.4394 18.7804C22.2778 18.933 22.0636 19.0385 21.862 19.0755C21.6398 19.1163 21.4134 19.087 21.2085 19.0034ZM21.9668 15.98C22.2031 16.1237 22.5632 16.4588 22.309 16.8151C22.0097 17.1293 21.5788 16.7691 21.3664 16.6062C21.1695 16.4799 20.9483 16.8047 21.131 16.9521C22.6654 18.0885 23.2881 16.0176 22.0863 15.811C21.954 15.7883 21.9048 15.9355 21.9668 15.98ZM19.2171 14.658C19.2432 14.3338 19.7369 14.2601 19.786 14.581C19.83 14.8684 19.7782 15.1325 19.6488 15.3913C19.5251 15.6385 19.2143 15.5232 19.1908 15.298C19.1593 14.9963 19.2009 14.8597 19.2171 14.658ZM22.975 14.5145C23.0438 14.4243 23.1432 14.3627 23.2622 14.3975C23.6342 14.5063 23.5246 15.0346 23.3939 15.2917C23.323 15.4314 23.0935 15.4668 22.9898 15.3438C22.8208 15.1433 22.7399 14.7429 22.9547 14.5454C22.9605 14.5352 22.967 14.5249 22.975 14.5145ZM19.6435 13.2391L19.7023 13.2288C19.8841 13.1974 20.1101 13.1672 20.2387 13.3134C20.3069 13.3909 20.3304 13.535 20.2387 13.6092C20.0774 13.7398 19.8992 13.6892 19.7059 13.7002C19.5467 13.7094 19.3936 13.7357 19.2402 13.7796C18.9037 13.8758 18.6295 14.0515 18.3421 14.2443C18.3044 14.2696 18.2659 14.2214 18.2839 14.1861C18.4498 13.861 18.7713 13.5939 19.0934 13.4312C19.2653 13.3443 19.4534 13.2722 19.6435 13.2391ZM22.6359 13.0935L22.6809 13.1027C23.1703 13.2051 23.8062 13.4095 24.0379 13.8904C24.0468 13.9584 24.0374 13.973 24.0298 13.9825L24.0273 13.9857C24.0211 13.9938 24.0161 14.005 23.9866 14.0143C23.9784 14.0123 23.9702 14.0103 23.9618 14.0081C23.8556 13.9802 23.7715 13.9419 23.6902 13.902L23.6019 13.8586C23.4996 13.8083 23.3963 13.76 23.2869 13.7242C23.0533 13.648 22.8131 13.5943 22.5691 13.5657C22.5162 13.5595 22.4653 13.5416 22.4252 13.511C22.387 13.482 22.3579 13.4418 22.3446 13.3883C22.3274 13.3192 22.3324 13.2668 22.3695 13.2044C22.3973 13.1575 22.4373 13.1251 22.4831 13.1064C22.5298 13.0874 22.583 13.0829 22.6359 13.0935Z" fill="black"/>
</svg>
