<svg width="36" height="48" viewBox="0 0 36 48" fill="none" xmlns="http://www.w3.org/2000/svg">
<path fill-rule="evenodd" clip-rule="evenodd" d="M8.17774 42.3066C8.55243 42.3297 8.92709 42.348 9.30172 42.362C14.201 42.5446 19.0962 41.9859 23.9924 41.8636C25.6975 41.8187 27.3938 41.8412 29.0945 41.9781C29.2612 41.9915 29.4517 41.8122 29.4312 41.6413C29.117 38.928 28.7239 36.222 28.5202 33.4976C28.5201 33.3535 28.5387 33.2097 28.5882 33.0739C28.5975 33.0632 28.6459 32.9439 28.6889 32.9365C28.6749 32.9469 28.7386 32.9286 28.698 32.9317C28.9439 32.8915 29.185 32.6259 29.0066 32.3719C27.1684 29.5533 24.659 26.9808 23.8517 23.6331C23.6609 22.728 22.972 22.672 22.238 22.2987C22.009 22.1624 21.4491 21.785 21.3579 21.5226C21.1402 20.5769 21.5236 19.6505 20.4036 19.2678C19.6643 19.0627 18.3575 18.8892 17.6094 19.1055C16.6969 19.4093 16.7652 20.438 16.2359 21.1457C15.9622 21.5551 15.4955 22.1156 15.0646 22.1783C14.8557 22.2087 14.7019 21.7861 14.4933 21.8151C11.2428 22.6049 6.81421 27.9925 5.41715 30.9749C5.10231 31.9135 6.11767 31.6303 6.05529 32.5737C5.97839 34.3635 5.8102 36.6547 5.90995 38.4466C6.00338 39.4867 5.93424 40.5764 6.2574 41.5773C6.17042 41.683 6.2954 41.7897 6.39737 41.8356C6.52585 42.0542 7.79008 42.2763 8.17774 42.3066Z" fill="#D08B5B"/>
<path d="M14.4933 21.8154C14.6878 21.7883 14.7005 22.3603 14.8888 22.3851C15.7629 23.6126 17.1174 24.0201 18.6839 24.0201C20.3468 24.0201 21.6953 23.5198 22.7291 22.5192L22.8239 22.5592C23.3132 22.7673 23.7134 22.9771 23.8517 23.6333C24.659 26.981 27.1684 29.5536 29.0066 32.3721C29.185 32.6262 28.9439 32.8917 28.698 32.932C28.7386 32.9288 28.6749 32.9471 28.6889 32.9367C28.6459 32.9441 28.5975 33.0635 28.5882 33.0741C28.5642 33.1398 28.5475 33.2074 28.5366 33.276C28.5366 33.276 26.4773 33.7125 25.9237 33.7245C20.3645 33.8448 10.1981 33.673 10.1981 33.673L5.94002 32.0617C5.69649 31.6959 5.18025 31.6814 5.41715 30.9751C6.81421 27.9927 11.2428 22.6051 14.4933 21.8154Z" fill="#E86BBB"/>
<path fill-rule="evenodd" clip-rule="evenodd" d="M16.641 20.0183C16.7255 19.6379 17.3306 19.8011 17.227 20.1799C17.0664 20.7658 16.7334 21.3193 16.2633 21.7079C15.9002 22.0079 15.4054 22.2756 14.9146 22.325C14.9606 22.3698 15.0047 22.4177 15.0511 22.4634C15.1556 22.5674 15.2667 22.6638 15.3813 22.7565C15.6167 22.9469 15.8614 23.1181 16.1287 23.2615C17.1963 23.8346 18.4023 23.9667 19.5947 23.8333C20.1606 23.77 20.7349 23.6627 21.267 23.4557C21.5137 23.3599 21.7534 23.234 21.965 23.075L22.0204 23.0334C22.1316 22.9493 22.2801 22.8307 22.3496 22.7011C22.1381 22.7487 21.8705 22.5232 21.7237 22.3921C21.5631 22.248 21.4279 22.0623 21.328 21.872C21.1324 21.4984 21.0288 21.0166 21.1929 20.6161C21.2038 20.5894 21.2388 20.5939 21.242 20.6227C21.2905 21.0895 21.4163 21.5272 21.7512 21.8729C21.8999 22.026 22.078 22.1544 22.2723 22.2436L22.2997 22.2562C22.3825 22.2945 22.4697 22.3395 22.5046 22.4215C22.5181 22.4199 22.5315 22.4211 22.5443 22.4246C22.5559 22.4277 22.5665 22.4312 22.5769 22.435C22.5537 22.3896 22.5415 22.336 22.5437 22.2727C22.5519 22.0276 22.8883 22.0201 22.9349 22.2383C22.9265 22.2095 22.9152 22.2374 22.9365 22.2462C22.9362 22.2436 22.9356 22.2408 22.9349 22.2383L22.9356 22.2406L22.9368 22.2461L22.9365 22.2462C22.9374 22.2501 22.938 22.2542 22.9385 22.2584L22.9389 22.2638L22.9387 22.2592C22.9384 22.2559 22.938 22.2528 22.9375 22.2501L22.9368 22.2462C22.9399 22.2477 22.9443 22.2487 22.9493 22.2487L22.9514 22.2495C22.9592 22.2529 22.9869 22.2658 22.9951 22.269C23.0511 22.2897 23.1137 22.2962 23.1709 22.3141C23.2952 22.3523 23.4048 22.4155 23.4805 22.5232C23.535 22.6006 23.5653 22.6892 23.5778 22.7812C24.1277 23.0458 24.6482 23.3896 25.0843 23.8152C26.0573 24.7645 26.7359 25.9527 27.2927 27.1827C27.5761 27.8088 27.8286 28.4482 28.0756 29.0894L28.1146 29.1907C28.3794 29.8798 28.6135 30.5765 28.6711 31.3173C28.6764 31.3837 28.6545 31.446 28.6166 31.4977C28.6301 31.5534 28.637 31.6091 28.6351 31.6636C28.6348 31.6721 28.6342 31.6805 28.6335 31.689C28.7224 31.6874 28.8094 31.7247 28.8921 31.8292C28.9255 31.8186 28.9619 31.8173 28.9975 31.8289C29.2151 31.8984 29.2501 32.1373 29.2911 32.3374C29.3334 32.5441 29.3518 32.7557 29.3521 32.9664C29.3521 33.0419 29.309 33.1371 29.2357 33.1694C29.098 33.2301 28.9497 33.2699 28.8072 33.325C28.7002 33.3663 28.5928 33.4054 28.4845 33.4421C28.5446 33.5469 28.564 33.6929 28.5966 33.8034C28.6476 33.9759 28.6886 34.1491 28.7231 34.3257C28.9565 35.5265 29.1183 36.7401 29.3368 37.9434C29.446 38.5461 29.5732 39.1448 29.7027 39.7434C29.7665 40.0378 29.8345 40.3314 29.9074 40.6239C29.9462 40.7798 29.9866 40.9358 30.0282 41.0907C30.0403 41.136 30.0525 41.1812 30.0649 41.2263L30.0867 41.3052C30.1343 41.3316 30.175 41.3713 30.2032 41.4258C30.3062 41.6249 30.247 41.8494 30.0495 41.9615C29.8348 42.0836 29.5785 41.9684 29.4601 41.7702C29.3769 41.6303 29.3496 41.4449 29.3086 41.2892C29.2623 41.1146 29.2182 40.9389 29.1756 40.7633C28.8865 39.5699 28.6928 38.3556 28.5468 37.1368L28.5365 37.0498C28.4623 36.4223 28.3906 35.7932 28.3443 35.1629C28.3215 34.8533 28.3033 34.5436 28.2921 34.2333C28.2864 34.0736 28.2955 33.913 28.3046 33.7536C28.3086 33.6838 28.3146 33.6136 28.3168 33.5438L28.3175 33.5339C28.3181 33.5268 28.3189 33.5175 28.3195 33.5078L28.3202 33.4959C28.1043 33.5636 27.8852 33.6199 27.6639 33.6675C27.1931 33.7692 26.7115 33.826 26.231 33.7971C26.298 34.5931 26.3853 35.3871 26.5074 36.1758C26.6251 36.9355 26.7609 37.6935 26.9143 38.4469C26.991 38.8254 27.0739 39.203 27.1612 39.5794C27.2082 39.7804 27.2617 39.9801 27.304 40.1821C27.329 40.3023 27.3368 40.4028 27.2864 40.5153C27.3419 40.6664 27.3912 40.8183 27.4397 40.9614L27.4542 41.004C27.5399 41.2545 27.7027 41.5106 27.5327 41.7568C27.4448 41.8839 27.3015 41.9565 27.1572 41.9609C27.1547 41.9624 27.1518 41.9643 27.149 41.9659C27.0714 42.0075 26.9819 42.0157 26.8967 41.9979C26.7675 42.0232 26.6379 42.0476 26.508 42.0699C26.1872 42.1253 25.8648 42.171 25.5418 42.2095C24.9268 42.2828 24.3077 42.3229 23.689 42.3451C21.4235 42.4268 19.1556 42.2834 16.8893 42.3247C15.7346 42.3457 14.58 42.3977 13.4273 42.4666C12.852 42.501 12.2764 42.538 11.7008 42.5665L11.5227 42.5751C11.0079 42.5998 10.4928 42.6188 9.97844 42.5812C9.96842 42.5805 9.9606 42.5765 9.95528 42.5708C9.77781 42.5508 9.59944 42.3873 9.61725 42.1986C9.69393 41.3945 9.77062 40.5904 9.84761 39.786C9.98439 38.3529 10.1224 36.9198 10.262 35.487L10.2822 35.2801C10.3291 34.7973 10.3739 34.3134 10.3966 33.8287C10.282 33.8206 10.1678 33.8103 10.0536 33.7977C8.81551 33.6622 7.62866 33.2876 6.48909 32.7955L6.44292 32.7755C6.34026 32.7307 6.22789 32.6859 6.11271 32.638C6.11462 32.8568 6.10739 33.076 6.10645 33.2927C6.10489 33.6525 6.1077 34.0123 6.10864 34.3717C6.11083 35.1125 6.139 35.8536 6.17594 36.5932C6.24072 37.8995 6.31678 39.2039 6.43196 40.5071C6.46107 40.8349 6.50054 41.1621 6.52836 41.49C6.54498 41.6831 6.5052 41.8441 6.32839 41.9456C6.24135 41.9957 6.17406 41.9747 6.08767 41.9343C5.87672 41.8353 5.87077 41.6015 5.85074 41.3979C5.83543 41.2445 5.82132 41.0911 5.80755 40.9373C5.77816 40.6095 5.75277 40.2817 5.73212 39.9532C5.65046 38.6482 5.62664 37.3444 5.68298 36.0378C5.70913 35.4266 5.7469 34.8141 5.79701 34.204L5.8088 34.0633C5.85011 33.5757 5.87672 33.0642 5.96216 32.5735C5.61756 32.4207 5.27609 32.2263 5.11772 31.9031C4.91243 31.4835 5.13806 31.1247 5.4595 30.8777C5.45637 30.836 5.4595 30.7947 5.46827 30.7571C5.5606 30.3573 5.71522 29.9621 5.86451 29.5808C6.01506 29.1975 6.18126 28.8202 6.36404 28.4511C7.09769 26.9722 8.09988 25.6209 9.29456 24.4824C9.88799 23.9169 10.5374 23.3943 11.2307 22.9559C11.5744 22.739 11.9268 22.5386 12.2917 22.3601L12.3457 22.3338C12.5998 22.2105 12.8847 22.0794 13.1672 22.0107C13.1966 21.9888 13.2263 21.9681 13.2564 21.9484C13.3675 21.8745 13.5183 21.928 13.5841 22.0335C13.616 22.0088 13.6529 21.9869 13.6952 21.9671L13.7369 21.9481C13.9904 21.8339 14.2948 21.7271 14.57 21.8022C14.7409 21.8488 14.8755 21.9747 14.9359 22.135C15.0745 22.0617 15.2107 21.9863 15.3437 21.8939C15.5575 21.7461 15.7512 21.5626 15.9252 21.37C16.2742 20.9827 16.5277 20.529 16.641 20.0183ZM28.7503 32.2297C28.7265 32.2366 28.7014 32.2391 28.6755 32.2359C28.7224 32.2415 28.6284 32.2692 28.6026 32.2825L28.6007 32.2836C28.5537 32.3105 28.5065 32.3365 28.4586 32.3615C28.3468 32.4204 28.2326 32.4733 28.1165 32.5231C27.8877 32.6205 27.6514 32.6953 27.4088 32.7501C27.1716 32.8036 26.9227 32.8349 26.6795 32.8399C26.5168 32.8431 26.3237 32.8356 26.1553 32.7876C26.1747 33.0829 26.1963 33.3779 26.2204 33.6725L26.5529 33.5962C26.8855 33.5199 27.2177 33.4417 27.5459 33.3465C27.7922 33.2752 28.0351 33.1916 28.2752 33.1014C28.401 33.0541 28.5259 33.004 28.6492 32.9502C28.7105 32.9234 28.7681 32.8915 28.8249 32.8592L28.8736 32.8315C28.8623 32.6997 28.8417 32.5704 28.8116 32.4401C28.796 32.3712 28.7694 32.3005 28.7503 32.2297ZM5.97781 30.8392C5.93556 30.9763 5.87077 31.1044 5.72304 31.1354C5.67077 31.1463 5.62698 31.1404 5.59065 31.1226L5.58193 31.1401C5.46047 31.3895 5.4248 31.6528 5.70426 31.8449C5.83043 31.9316 5.9678 32.0068 6.10989 32.0741C6.364 32.195 6.63462 32.2923 6.88976 32.3912L6.94057 32.411C7.39691 32.5901 7.86044 32.7532 8.33118 32.8897C8.80883 33.0278 9.29487 33.1386 9.78692 33.2091C9.9944 33.2386 10.2035 33.2592 10.4129 33.2727C10.4163 32.9909 10.4147 32.7088 10.4138 32.427C10.3393 32.4175 10.2655 32.4076 10.1941 32.3991C9.97687 32.3737 9.76029 32.3427 9.54495 32.3042C9.09518 32.2238 8.65011 32.1126 8.216 31.9705C7.41162 31.7065 6.66326 31.3292 5.97781 30.8392ZM14.7969 22.2073C14.6141 22.0138 14.2645 22.0836 14.0439 22.1776C13.9772 22.2061 13.9099 22.2349 13.846 22.2696L13.8337 22.2766C13.7593 22.3194 13.7597 22.3449 13.796 22.4302C13.8432 22.5427 13.909 22.6513 13.9716 22.7556C14.2395 23.203 14.5922 23.5925 14.995 23.9216C16.4216 25.0864 18.4711 25.4972 20.2551 25.1071C21.1113 24.92 21.9372 24.5425 22.5675 23.9232L22.6249 23.8661C22.8791 23.6117 23.2279 23.2435 23.2035 22.8664C23.1919 22.6851 23.0439 22.6748 22.8927 22.6397C22.8307 22.6253 22.7716 22.6049 22.7202 22.5762C22.7615 22.7543 22.5415 23.0192 22.4279 23.1304C22.1897 23.3636 21.903 23.5458 21.5998 23.6821C21.0226 23.9416 20.3947 24.0644 19.7697 24.142C19.0604 24.2303 18.3359 24.2225 17.632 24.0919C17.0194 23.9783 16.4157 23.7632 15.8886 23.4281C15.647 23.2747 15.4088 23.0997 15.2072 22.8959L15.1644 22.8525C15.0189 22.705 14.8495 22.5268 14.7625 22.3332C14.7293 22.3335 14.6964 22.3325 14.6636 22.3303C14.6404 22.3291 14.6279 22.2962 14.6511 22.284C14.677 22.2702 14.703 22.2565 14.729 22.243C14.7246 22.2286 14.7208 22.2145 14.7177 22.2001C14.7152 22.1879 14.728 22.1766 14.7393 22.1835C14.755 22.1929 14.77 22.2029 14.7847 22.2136C14.7888 22.2117 14.7928 22.2095 14.7969 22.2073Z" fill="black"/>
<path fill-rule="evenodd" clip-rule="evenodd" d="M19.773 8.92912C24.4739 9.07832 24.7575 11.3168 24.7575 15.0709C24.7575 18.8249 22.3188 21.1905 21.4209 21.6036C20.5229 22.0166 18.1585 23.7909 16.0247 22.9733C13.891 22.1556 14.5089 18.7013 14.5089 17.2171C14.5089 15.7328 15.072 8.77992 19.773 8.92912Z" fill="#D08B5B"/>
<path fill-rule="evenodd" clip-rule="evenodd" d="M15.2295 14.8865C16.2015 10.9132 17.9759 8.9746 20.5527 9.07079C24.4179 9.21509 24.3771 13.1646 24.1346 12.8045C23.9762 12.5692 22.867 11.7473 20.807 10.3388L20.6797 10.2518L15.2295 14.8865Z" fill="#9FD8E5"/>
<path fill-rule="evenodd" clip-rule="evenodd" d="M21.68 20.3701C20.8168 20.8532 19.8283 20.872 18.8997 20.568C18.3428 20.3861 17.8322 20.1049 17.3543 19.7686C16.9386 19.4758 16.5675 19.1511 16.1999 18.8064C15.8973 18.1373 15.6278 17.4694 15.5015 16.7414C15.3885 16.088 15.3735 15.4094 15.5047 14.7572C16.4748 13.9572 17.439 13.1507 18.4018 12.3416C18.8922 11.9295 19.3838 11.5197 19.8813 11.1164C20.134 10.9116 20.3842 10.7037 20.6359 10.498C20.6775 10.4642 20.7187 10.4303 20.7603 10.3965C21.2799 10.7779 21.8371 11.1048 22.3531 11.4924C22.6233 11.6956 22.8859 11.912 23.1361 12.1396C23.2673 12.2589 23.3954 12.382 23.5203 12.5081C23.6346 12.6234 23.7448 12.7887 23.907 12.8322C23.9291 12.8382 23.95 12.8394 23.9697 12.8366C24.1865 14.7391 24.3404 16.7934 23.4119 18.5211C23.0068 19.2748 22.4325 19.9486 21.68 20.3701ZM16.0641 21.0693C15.9452 20.9601 16.1224 20.7834 16.2407 20.8921C16.9843 21.5749 17.9563 21.9368 18.9381 22.1043C19.0965 22.1314 19.029 22.3727 18.8717 22.3459C17.8466 22.171 16.8391 21.7809 16.0641 21.0693ZM15.1719 22.1169C15.03 22.0405 15.1563 21.8244 15.298 21.9006C15.8772 22.212 16.5126 22.3738 17.1571 22.4831C17.3156 22.51 17.248 22.7513 17.0907 22.7246C16.4243 22.6117 15.7705 22.4387 15.1719 22.1169ZM17.5295 11.5641C18.0102 11.1317 18.5268 10.7202 19.0724 10.373C19.6246 10.0217 20.2277 9.81163 20.8795 9.80662C20.8339 9.84325 20.7905 9.88396 20.7465 9.92181C20.6235 10.0274 20.5007 10.1335 20.3779 10.2393C20.1324 10.4513 19.8863 10.6629 19.644 10.8784C19.1667 11.303 18.6879 11.7254 18.2116 12.1509C17.2962 12.9687 16.4005 13.8044 15.524 14.6642C15.5287 14.6433 15.5337 14.6223 15.5387 14.6013C15.8289 13.3864 16.6181 12.3842 17.5295 11.5641ZM21.2974 9.85954C21.3006 9.85014 21.3028 9.84103 21.304 9.8323C22.5549 9.99574 23.5996 10.9184 23.945 12.1334C23.9151 12.1753 23.8985 12.2251 23.9047 12.278C23.9079 12.3046 23.911 12.3316 23.9141 12.3582C23.8713 12.3156 23.8273 12.2758 23.7898 12.2379C23.6652 12.1114 23.5375 11.9884 23.4063 11.8684C23.138 11.6233 22.8594 11.3941 22.5658 11.1802C22.0552 10.8083 21.5023 10.4663 20.8936 10.2879C20.9336 10.255 20.9736 10.2221 21.0139 10.1896C21.1341 10.0915 21.2456 10.0108 21.2974 9.85954ZM23.54 8.56044C22.772 7.71911 21.7085 7.1029 20.5885 6.88873C19.519 6.68396 18.4118 6.81891 17.4015 7.21687C15.2873 8.04975 13.6191 9.88117 12.838 12.0034C12.3826 13.2399 12.2333 14.5953 12.3702 15.9042C12.5063 17.207 12.8977 18.5525 13.6098 19.6609C13.675 19.7623 13.7466 19.8597 13.8215 19.9539C13.7881 20.3366 13.6607 20.7117 13.4602 21.0379C13.4494 21.0554 13.438 21.0726 13.4268 21.0898C13.2215 21.2439 13.0085 21.3886 12.8006 21.5379C12.6204 21.6673 12.442 21.8 12.2726 21.9433C12.1127 22.0786 11.9269 22.2293 11.8186 22.4119C11.7299 22.5614 11.6937 22.7648 11.8148 22.9075C11.9607 23.0793 12.208 23.0187 12.4057 23.0187C12.4227 23.0187 12.4396 23.0191 12.4565 23.0193C12.5158 23.0567 12.577 23.0905 12.6362 23.122C13.235 23.4401 13.8359 23.7548 14.4374 24.0679C15.6356 24.6919 16.8287 25.3411 18.0514 25.9156C18.618 26.182 19.2245 26.415 19.8592 26.4141C20.4545 26.4131 20.9926 26.1761 21.4573 25.8157C21.9871 25.4052 22.43 24.8839 22.8597 24.3729C23.0315 24.1684 23.1998 23.9615 23.365 23.7517C23.6824 23.6455 23.9972 23.6145 24.2802 23.8193C24.5072 23.9837 24.8064 23.7601 24.8118 23.5134C24.8136 23.4258 24.8099 23.3393 24.8005 23.2541C24.7437 22.7281 24.4869 22.2522 24.1977 21.8107C24.0397 21.5693 23.8732 21.3322 23.7058 21.0974C23.6664 21.042 23.6277 20.9866 23.5902 20.9302C24.2627 19.9377 24.7961 18.8371 25.1241 17.687C25.4686 16.4768 25.5857 15.2219 25.5089 13.9679C25.3908 12.046 24.8649 10.012 23.54 8.56044Z" fill="black"/>
<path fill-rule="evenodd" clip-rule="evenodd" d="M21.2085 19.0034C20.9981 18.9175 20.8103 18.7743 20.6731 18.5913C20.6254 18.5277 20.613 18.4606 20.623 18.3991C20.6343 18.33 20.6751 18.2674 20.7308 18.2254C20.7867 18.1833 20.8566 18.1625 20.9242 18.1731C20.9829 18.1823 21.0414 18.2145 21.0876 18.2812L21.0973 18.2946C21.1789 18.405 21.2852 18.4956 21.4064 18.554C21.5232 18.6103 21.6538 18.6366 21.7889 18.6213C22.0463 18.5922 22.2237 18.4529 22.4123 18.2638C22.4357 18.24 22.459 18.2153 22.4825 18.1903C22.4974 18.1676 22.518 18.153 22.5408 18.1454C22.5662 18.1369 22.595 18.1374 22.6213 18.1466C22.6466 18.1554 22.6693 18.1722 22.6845 18.1946C22.699 18.2158 22.7072 18.242 22.7045 18.2722C22.6873 18.4682 22.5849 18.6431 22.4394 18.7804C22.2778 18.933 22.0636 19.0385 21.862 19.0755C21.6398 19.1163 21.4134 19.087 21.2085 19.0034ZM21.9668 15.98C22.2031 16.1237 22.5632 16.4588 22.309 16.8151C22.0097 17.1293 21.5788 16.7691 21.3664 16.6062C21.1695 16.4799 20.9483 16.8047 21.131 16.9521C22.6654 18.0885 23.2881 16.0176 22.0863 15.811C21.954 15.7883 21.9048 15.9355 21.9668 15.98ZM19.2171 14.658C19.2432 14.3338 19.7369 14.2601 19.786 14.581C19.83 14.8684 19.7782 15.1325 19.6488 15.3913C19.5251 15.6385 19.2143 15.5232 19.1908 15.298C19.1593 14.9963 19.2009 14.8597 19.2171 14.658ZM22.975 14.5145C23.0438 14.4243 23.1432 14.3627 23.2622 14.3975C23.6342 14.5063 23.5246 15.0346 23.3939 15.2917C23.323 15.4314 23.0935 15.4668 22.9898 15.3438C22.8208 15.1433 22.7399 14.7429 22.9547 14.5454C22.9605 14.5352 22.967 14.5249 22.975 14.5145ZM19.6435 13.2391L19.7023 13.2288C19.8841 13.1974 20.1101 13.1672 20.2387 13.3134C20.3069 13.3909 20.3304 13.535 20.2387 13.6092C20.0774 13.7398 19.8992 13.6892 19.7059 13.7002C19.5467 13.7094 19.3936 13.7357 19.2402 13.7796C18.9037 13.8758 18.6295 14.0515 18.3421 14.2443C18.3044 14.2696 18.2659 14.2214 18.2839 14.1861C18.4498 13.861 18.7713 13.5939 19.0934 13.4312C19.2653 13.3443 19.4534 13.2722 19.6435 13.2391ZM22.6359 13.0935L22.6809 13.1027C23.1703 13.2051 23.8062 13.4095 24.0379 13.8904C24.0468 13.9584 24.0374 13.973 24.0298 13.9825L24.0273 13.9857C24.0211 13.9938 24.0161 14.005 23.9866 14.0143C23.9784 14.0123 23.9702 14.0103 23.9618 14.0081C23.8556 13.9802 23.7715 13.9419 23.6902 13.902L23.6019 13.8586C23.4996 13.8083 23.3963 13.76 23.2869 13.7242C23.0533 13.648 22.8131 13.5943 22.5691 13.5657C22.5162 13.5595 22.4653 13.5416 22.4252 13.511C22.387 13.482 22.3579 13.4418 22.3446 13.3883C22.3274 13.3192 22.3324 13.2668 22.3695 13.2044C22.3973 13.1575 22.4373 13.1251 22.4831 13.1064C22.5298 13.0874 22.583 13.0829 22.6359 13.0935Z" fill="black"/>
<path fill-rule="evenodd" clip-rule="evenodd" d="M24.7675 16.17C24.3875 16.5628 23.7531 16.6756 23.2476 16.4649C21.9494 15.9223 22.5848 14.2299 23.586 13.7755C23.711 13.7443 23.8781 13.6703 24.0304 13.6535C24.0442 13.6467 24.0742 13.6663 24.1105 13.6478C25.2144 13.7711 25.4658 15.4855 24.7675 16.17ZM20.5804 16.2706C20.1542 16.8361 19.3618 17.0106 18.7144 16.7477C17.4355 16.2438 17.8891 14.7431 18.7641 14.1548C20.6126 13.4599 21.3758 15.2279 20.5804 16.2706ZM17.8079 15.0176C17.8067 15.017 17.8055 15.0167 17.8043 15.0162C17.8111 15.0132 17.8178 15.0102 17.8246 15.0072C17.8224 15.0129 17.82 15.0186 17.8179 15.0243C17.8146 15.022 17.8117 15.0194 17.8079 15.0176ZM25.6474 14.4063C25.543 14.4065 25.3923 14.4237 25.3059 14.4961C25.0929 13.7774 24.3066 13.1123 23.6228 13.5973C23.0843 13.7705 22.6847 14.1547 22.4576 14.6655C22.0481 14.4219 21.4042 14.5259 21.0491 14.8482C20.8166 14.0794 20.2442 13.8103 19.563 13.7705C18.8195 13.6487 18.0784 14.3711 17.8471 14.9506C17.6549 14.9287 17.3676 14.8675 17.1867 14.9862C16.0128 14.6782 13.9604 14.5084 13.7217 14.6795C13.5516 14.7448 13.4583 15.1464 13.6958 15.1681C13.9029 15.1387 13.6717 14.8738 13.8804 14.8449C14.9922 14.776 16.0715 15 17.1716 15.0939C17.2698 15.2261 17.5871 15.2703 17.7564 15.2172C17.4898 16.2003 18.0654 16.8691 18.9278 17.0694C20.2633 17.3763 21.4251 16.1812 21.0759 14.9381C21.4804 14.7368 21.9458 14.7455 22.3865 14.8515C21.6501 17.5627 26.0149 17.4411 25.3332 14.589C25.7869 14.8147 25.8854 14.4518 25.6474 14.4063Z" fill="black"/>
</svg>
