<svg width="36" height="48" viewBox="0 0 36 48" fill="none" xmlns="http://www.w3.org/2000/svg">
<path fill-rule="evenodd" clip-rule="evenodd" d="M28.8345 37.3236C28.7083 36.6108 28.5926 35.8961 28.4875 35.1799C28.4376 34.8399 28.389 34.4996 28.3452 34.1587C28.3146 33.9198 28.2679 33.6467 28.4304 33.4698C28.6589 33.2208 28.8666 33.0077 28.8945 32.651C28.9209 32.3155 28.8074 31.9497 28.7365 31.6239C28.5878 30.9409 28.4026 30.2662 28.198 29.598C27.9902 28.9191 27.7622 28.2465 27.531 27.5753C27.3149 26.9477 27.1071 26.3144 26.8256 25.7123C26.2913 24.5696 25.3874 23.7233 24.2702 23.1583C23.9924 23.0177 23.4257 22.5161 23.1354 22.4038C22.8686 22.3005 22.8695 22.6021 22.6069 22.4885C22.397 22.3977 22.2015 22.2766 22.0839 22.0738C21.9563 21.8536 21.6362 21.5456 21.5875 21.2893C21.4842 20.746 21.5961 20.2836 21.2084 19.8747C20.8643 19.5116 20.4018 19.2628 19.9233 19.1293C18.8705 18.8355 17.4665 19.0409 16.8313 20.0195C16.5279 20.4869 16.4219 21.0518 16.0126 21.4332C15.6551 21.7662 15.7351 21.9939 15.2721 22.1656C15.2459 22.1753 14.5352 22.0228 14.509 22.0325C14.0025 21.9241 13.5184 22.2276 13.0537 22.4038C12.361 22.6663 11.7015 23.008 11.0818 23.4141C9.83242 24.2331 8.76231 25.2965 7.88009 26.4999C6.99057 27.7132 6.3004 29.0731 5.80898 30.4945C5.68963 30.8397 5.58244 31.1891 5.48788 31.542C5.43495 31.7394 5.3784 31.9443 5.44284 32.1464C5.49555 32.3118 5.61279 32.435 5.75048 32.5342C5.93711 32.6688 6.31148 32.7562 6.30419 33.0268C6.29862 33.2325 6.22885 33.449 6.1948 33.6523C6.15427 33.8944 6.12096 34.138 6.08766 34.3811C5.93618 35.488 5.81827 36.6011 5.76613 37.7173C5.7148 38.8164 5.6722 39.9379 5.74841 41.0367C5.75345 41.1092 5.77505 41.1757 5.80988 41.2319C5.77736 41.2443 5.77486 41.305 5.81533 41.3136C5.84369 41.3196 5.87198 41.3256 5.90034 41.3316C5.95924 41.3762 6.0327 41.4035 6.11724 41.4062C6.17455 41.408 6.23182 41.4106 6.28907 41.4135C6.89317 41.5398 7.49718 41.6592 8.10916 41.7495C8.85308 41.8594 9.59918 41.9489 10.3476 42.0217C11.8855 42.1713 13.4112 42.1217 14.9511 42.041C16.4887 41.9605 18.0253 41.9417 19.5644 41.9818C21.1049 42.0219 22.6448 42.0889 24.1856 42.1163C25.907 42.1469 27.6258 42.0999 29.3422 41.963C29.5776 41.9443 29.7232 41.757 29.6767 41.5231C29.3986 40.1222 29.0835 38.7306 28.8345 37.3236Z" fill="#D08B5B"/>
<path fill-rule="evenodd" clip-rule="evenodd" d="M13.0537 22.4038L13.0874 22.3909C13.5417 22.2133 14.0147 21.9268 14.509 22.0326C14.5264 22.0261 14.8481 22.0917 15.0684 22.1333L14.8593 22.3516L14.4902 22.4226C15.7633 24.5245 17.2689 25.5754 19.0071 25.5754C20.7454 25.5754 22.0643 24.5245 22.9641 22.4226L23.0869 22.3886C23.102 22.3922 23.1182 22.3971 23.1354 22.4038C23.4257 22.5161 23.9924 23.0178 24.2702 23.1583C25.3873 23.7234 26.2913 24.5696 26.8256 25.7123C27.0977 26.2944 27.301 26.9055 27.5095 27.5125L27.531 27.5753C27.7622 28.2466 27.9902 28.9191 28.198 29.598C28.3937 30.2372 28.5716 30.8823 28.7169 31.5349L28.7365 31.624C28.8074 31.9497 28.9209 32.3155 28.8945 32.6511C28.8846 32.7782 28.8518 32.887 28.8034 32.9857L26.2855 33.8921L27.4851 42.0766C26.3863 42.1238 25.2865 42.1359 24.1856 42.1164C22.6448 42.0889 21.1049 42.0219 19.5644 41.9818C18.0719 41.943 16.5818 41.9595 15.0909 42.0339L14.7123 42.0533C13.2534 42.1263 11.8059 42.1636 10.3476 42.0217L10.2482 42.012L10.2482 40.8148L10.7605 34.1483L8.1644 33.6594L5.61599 32.4212C5.53899 32.3442 5.4772 32.2543 5.44284 32.1465C5.38315 31.9592 5.42726 31.7697 5.47615 31.5859L5.48788 31.542C5.58244 31.1892 5.68963 30.8397 5.80898 30.4945C6.3004 29.0732 6.99057 27.7132 7.88009 26.5C8.76231 25.2966 9.83242 24.2331 11.0818 23.4142C11.7015 23.0081 12.361 22.6663 13.0537 22.4038Z" fill="#EC7495"/>
<path fill-rule="evenodd" clip-rule="evenodd" d="M14.029 21.9984C14.1882 21.9915 14.3505 22.0172 14.5093 22.0329C14.5231 22.0342 14.5284 22.0556 14.5128 22.0588C14.2286 22.1182 13.9475 22.1995 13.6683 22.282L13.5488 22.3174C13.234 22.4105 12.9285 22.5066 12.6238 22.6309C12.0164 22.8785 11.4396 23.2127 10.9088 23.5967C8.86459 25.0752 7.38509 27.3138 6.45144 29.6314C6.19789 30.2609 5.98305 30.9059 5.80903 31.5619C5.76671 31.7215 5.7269 31.8817 5.68916 32.0424C5.67808 32.0895 5.62978 32.2102 5.65626 32.2584C5.67967 32.301 5.77069 32.3274 5.81297 32.3495L5.95573 32.4236C6.23419 32.5672 6.69804 32.8032 6.74455 32.8262L6.8171 32.8619C8.00366 33.4438 9.27149 33.9373 10.6067 33.9714L10.6172 33.8574C10.6767 33.2267 10.7549 32.5927 10.9254 31.9815C10.9345 31.9486 10.9763 31.9597 10.9801 31.9889C11.0751 32.7125 11.0448 33.4418 11.0116 34.1688C10.9529 35.4564 10.875 36.7432 10.8057 38.0303C10.7711 38.6741 10.7262 39.3175 10.6858 39.9611C10.6452 40.6058 10.6321 41.2661 10.5396 41.9056C10.519 42.0481 10.3521 42.1257 10.2257 42.1106C10.0858 42.094 9.97826 41.9708 9.97761 41.8295C9.97591 41.457 10.0227 41.0801 10.0487 40.7085C10.0734 40.3554 10.0999 40.0025 10.1271 39.6496C10.2264 38.3618 10.3406 37.0754 10.4462 35.7881C10.4836 35.3315 10.5241 34.8754 10.5657 34.4192C9.15122 34.3736 7.82975 33.8495 6.56909 33.2371C6.55085 33.6516 6.50678 34.0653 6.46412 34.478C6.34502 35.6298 6.24002 36.7812 6.16142 37.9366C6.12174 38.5201 6.09285 39.1044 6.06768 39.6887C6.05532 39.9759 6.04524 40.2632 6.03751 40.5505C6.03492 40.6463 6.03259 40.7421 6.03052 40.8379L6.02622 41.0573C6.0227 41.1963 6.00857 41.3251 5.89163 41.4264C5.77285 41.5291 5.61241 41.5346 5.49485 41.4264C5.33748 41.2814 5.36531 41.0839 5.36997 40.8892C5.37385 40.725 5.37851 40.5608 5.38393 40.3966C5.39479 40.0682 5.40865 39.74 5.42552 39.4119C5.48456 38.2647 5.60251 37.1222 5.75666 35.9843L5.81683 35.545C5.9292 34.7284 6.05257 33.8932 6.30377 33.1066C6.20596 33.0579 6.10844 33.0089 6.01128 32.9597C5.83895 32.8724 5.66077 32.7905 5.49326 32.6942C5.36036 32.6177 5.24574 32.5129 5.20875 32.3582C5.16749 32.1858 5.23058 31.9973 5.27249 31.8292L5.27613 31.8144C5.31723 31.6451 5.36149 31.4765 5.40818 31.3086C5.59754 30.628 5.83169 29.9606 6.10571 29.3094C6.65438 28.0059 7.36258 26.7675 8.22765 25.6478C9.00634 24.6399 9.92621 23.7258 11.0043 23.0403C11.5314 22.7052 12.0931 22.43 12.6871 22.2354C12.9648 22.1445 13.2669 22.0654 13.5576 22.0328C13.7144 22.0153 13.8714 22.0052 14.029 21.9984ZM16.8494 19.9328C17.0386 19.7296 17.4144 19.9399 17.3236 20.209C17.11 20.842 16.7697 21.4195 16.2388 21.8355C15.7397 22.2266 15.1445 22.4805 14.5036 22.4263C14.4987 22.4259 14.4944 22.4247 14.4906 22.4229L14.5458 22.4978C14.9795 23.0846 15.4369 23.6633 15.9883 24.143C17.1117 25.1202 18.6413 25.6473 20.1183 25.2723C21.2803 24.9774 22.3041 24.0581 22.6052 22.8866C22.5621 22.9059 22.5108 22.9125 22.4545 22.9003C22.2136 22.848 21.9751 22.5945 21.8197 22.4128C21.6516 22.2162 21.5203 22.0039 21.4241 21.7639C21.248 21.3247 21.1916 20.7593 21.432 20.3339C21.4617 20.2814 21.5301 20.3108 21.5359 20.362L21.5451 20.4419C21.5914 20.8406 21.6492 21.2263 21.8371 21.5897C21.929 21.7676 22.0393 21.9412 22.1735 22.0901C22.2453 22.1698 22.3231 22.246 22.4071 22.3128C22.489 22.3779 22.5881 22.425 22.6615 22.4996L22.675 22.514L22.6754 22.5114C22.6939 22.3536 22.8046 22.284 22.9128 22.2884C23.0176 22.2926 23.1407 22.3387 23.1883 22.3608L23.1928 22.363C23.9237 22.714 24.5969 23.1714 25.2304 23.679C26.5404 24.7287 27.522 26.1009 27.9976 27.7168C28.231 28.5099 28.3649 29.3271 28.5063 30.1405L28.5934 30.6388C28.7253 31.3897 28.8727 32.1554 29.1706 32.8539C29.2477 33.0346 29.1883 33.204 28.9993 33.2751C28.7634 33.3638 28.5266 33.4497 28.2894 33.5346C28.4059 34.0344 28.4769 34.5515 28.5642 35.0538C28.7496 36.1215 28.9769 37.1824 29.1718 38.2486C29.2714 38.7938 29.3613 39.3408 29.4608 39.8861C29.5087 40.1486 29.5588 40.4109 29.6074 40.6733C29.6336 40.8148 29.6573 40.9568 29.6824 41.0985L29.6867 41.122C29.701 41.1968 29.719 41.2741 29.6985 41.3489C29.675 41.4343 29.6085 41.4945 29.549 41.5557C29.5001 41.6061 29.4294 41.6064 29.3695 41.5789L29.3497 41.5698C29.2427 41.5197 29.1588 41.4697 29.1208 41.3489C29.0968 41.2724 29.0881 41.1863 29.0724 41.1075C29.0423 40.9564 29.0137 40.8051 28.9867 40.6534C28.9328 40.3499 28.8801 40.0462 28.8286 39.7422L28.7805 39.4576C28.6156 38.4767 28.4589 37.4897 28.3798 36.4984C28.3446 36.0586 28.3074 35.6192 28.2698 35.1798L28.2416 34.8501C28.2059 34.4329 28.1623 34.0051 28.1562 33.5823L28.0143 33.6326L27.3223 33.8774C27.1507 33.938 26.9322 34.0623 26.7476 34.0397C26.6572 34.0286 26.5883 34.0002 26.5351 33.9484C26.5988 34.8481 26.685 35.7462 26.8 36.6397C26.9046 37.4528 27.0206 38.2647 27.1575 39.0729C27.2254 39.4731 27.2951 39.873 27.3708 40.2718C27.4086 40.4712 27.4477 40.6703 27.4879 40.8693C27.508 40.9685 27.5319 41.0679 27.5475 41.168C27.5654 41.2826 27.5339 41.3531 27.4699 41.4473C27.4173 41.5248 27.3122 41.5645 27.2269 41.5111C27.1141 41.4402 27.0552 41.3789 27.022 41.2498C26.9918 41.1326 26.9735 41.0103 26.9501 40.8916C26.907 40.6725 26.8654 40.4531 26.8252 40.2334C26.7411 39.774 26.6635 39.3135 26.5943 38.8516C26.3503 37.2244 26.1955 35.5835 26.1173 33.9401C26.0788 33.1292 26.0668 32.3176 26.0737 31.5059C26.0772 31.0898 26.0908 30.6726 26.1202 30.2576C26.15 29.8374 26.212 29.4257 26.2673 29.0097C26.2692 28.995 26.2899 28.9942 26.2908 29.0097C26.317 29.4761 26.358 29.9421 26.3782 30.4098C26.3974 30.8561 26.4058 31.303 26.4211 31.7495C26.4411 32.3363 26.469 32.9235 26.5058 33.5102C26.5725 33.4373 26.673 33.3952 26.7736 33.4116C26.9193 33.381 27.0762 33.3045 27.2152 33.2581L27.7389 33.0831C28.0142 32.9911 28.2896 32.8997 28.5659 32.8111C28.3188 31.9797 28.1496 31.1359 28.0051 30.2798L27.9407 29.8948C27.8131 29.1369 27.6756 28.3787 27.4445 27.6448C27.2016 26.8732 26.8381 26.1559 26.3559 25.5063C25.8805 24.8661 25.3022 24.3023 24.7068 23.775C24.197 23.3237 23.6517 22.9161 23.1318 22.4771C23.1372 22.5062 23.1384 22.5383 23.1336 22.5734C23.023 23.3828 22.601 24.1366 22.0128 24.6972C20.8311 25.8235 19.0819 26.0572 17.5695 25.529C16.1065 25.0182 14.813 23.8082 14.356 22.311C14.3481 22.2854 14.3824 22.2752 14.3962 22.2941C14.4216 22.3288 14.447 22.3636 14.4726 22.3983C14.4708 22.3845 14.478 22.3695 14.495 22.3629C15.0282 22.1569 15.5518 21.8648 15.9515 21.4516C16.1463 21.2502 16.3163 21.022 16.4506 20.7759C16.5148 20.658 16.5726 20.5359 16.6187 20.4098L16.6304 20.3771C16.6862 20.2191 16.7329 20.058 16.8494 19.9328Z" fill="black"/>
<path fill-rule="evenodd" clip-rule="evenodd" d="M19.6574 6.85627C21.4308 6.85627 23.652 8.88432 24.3021 9.74734C24.8486 10.4729 24.7713 14.2109 24.7713 16.4282C24.7713 16.892 24.5622 17.7697 24.4863 18.2133C24.2081 19.8388 22.9962 21.202 20.5976 21.202C18.6445 21.202 17.1415 20.5819 15.6881 18.9957C15.3565 18.6338 13.7371 19.9293 13.4059 19.4628C12.5409 19.4628 11.8175 11.3601 13.5159 8.92982C15.2143 6.4995 17.884 6.85627 19.6574 6.85627Z" fill="#D08B5B"/>
<path fill-rule="evenodd" clip-rule="evenodd" d="M14.3269 7.42701C15.3517 6.49237 16.7169 6.04274 18.0942 6.07593C18.8076 6.09315 19.5185 6.22935 20.1922 6.46262C20.5292 6.57973 20.8555 6.73252 21.1676 6.90536C21.28 6.9675 21.3837 7.04032 21.4834 7.11764L21.5083 7.13707H21.5086C21.7763 7.2335 22.0152 7.40665 22.232 7.60924C22.6664 7.57448 23.1043 7.61362 23.5244 7.74795C24.1091 7.93519 24.6503 8.27804 25.0304 8.76493C25.4732 9.33176 25.6204 10.0193 25.5679 10.7291L25.5582 10.8497C25.5062 11.4767 25.4132 12.2831 24.8999 12.6951C24.8609 12.7264 24.8177 12.7502 24.7731 12.7646C25.1038 13.3326 25.3753 13.9632 25.5377 14.6001C26.1576 17.0326 25.681 19.5695 24.9355 21.9141C24.8743 22.1072 24.5829 22.2356 24.4345 22.0468C24.1697 21.7093 23.7849 21.4519 23.352 21.4037C23.0849 21.3739 22.8192 21.4278 22.5668 21.3063C22.4678 21.2584 22.3722 21.1801 22.3035 21.0849C21.8775 21.2468 21.4187 21.3232 20.9636 21.3044C20.2168 21.2737 19.4185 21.0145 18.9047 20.4459C18.8223 20.3546 18.8014 20.2521 18.8204 20.1598C18.8848 20.1367 18.951 20.1195 19.0191 20.1088C19.6706 20.4937 20.3888 20.751 21.1606 20.7671C21.6066 20.7765 22.0416 20.7139 22.4032 20.4348C22.4815 20.3743 22.5534 20.3074 22.62 20.2355C23.376 19.7479 23.9091 18.9198 24.1625 18.0327C24.3986 17.2055 24.3696 16.3441 24.2884 15.4956L24.2455 15.0478C24.1831 14.3906 24.1251 13.7315 24.1089 13.0715L24.1138 13.0712C24.2735 13.0609 24.2746 12.8103 24.1138 12.8207C23.6978 12.8477 23.285 12.7793 22.8703 12.8091C22.8668 12.6126 22.8527 12.4169 22.795 12.2274C22.7622 12.119 22.574 12.0977 22.5541 12.2274C22.5274 12.4008 22.5177 12.5733 22.5148 12.7476C21.8942 12.7393 21.2741 12.6869 20.6534 12.7084C20.5389 12.586 20.5025 12.3689 20.4489 12.2179C20.4411 12.1957 20.4333 12.1738 20.4252 12.1515C20.3781 12.3673 20.3114 12.5784 20.2236 12.785L20.0714 12.7856C19.2076 12.7896 18.3263 12.8155 17.4829 12.9953C17.4243 12.9502 17.3894 12.8715 17.38 12.8C17.3188 12.3348 17.2315 11.8821 17.0767 11.4388L17.0546 11.3762C17.0528 11.3711 17.0509 11.3655 17.0489 11.3598C16.9348 11.5443 16.7988 11.7163 16.6504 11.8764C16.5629 11.9708 16.4712 12.0611 16.3771 12.1488C16.2857 12.2506 16.1912 12.3508 16.0997 12.4529C16.1032 12.4714 16.1064 12.4903 16.1089 12.5095C16.1369 12.7213 16.1398 12.9361 16.1193 13.1487C16.0822 13.5332 15.9739 13.9036 15.8 14.2462L15.7945 14.2805C15.7681 14.4411 15.7306 14.6071 15.6428 14.728C15.7523 14.851 15.8367 14.9979 15.8856 15.1611C15.9291 15.3065 15.7286 15.4324 15.6246 15.3135C15.542 15.219 15.4502 15.1408 15.3493 15.0785C15.343 15.0871 15.3315 15.0914 15.3186 15.0841C15.0378 14.9279 14.5609 14.9752 14.2804 15.1223C13.9315 15.3052 13.7954 15.6806 13.8341 16.0611C13.8713 16.4246 14.0299 16.8495 14.3376 17.0358C14.4787 17.1213 14.5887 17.1285 14.7386 17.0874C14.7865 17.0744 14.8459 17.0344 14.8715 17.0145L14.8966 16.9943C14.9948 16.9164 15.0864 16.8631 15.2024 16.8611C15.3211 16.824 15.4403 16.8754 15.4857 17.0002L15.4885 17.0082C15.5097 17.0718 15.5485 17.1516 15.54 17.2487C15.5313 17.3526 15.4838 17.4472 15.4129 17.5233C15.4007 17.5364 15.3876 17.5496 15.3742 17.5618C16.5954 18.8872 16.7522 20.9525 16.126 22.6082C16.0988 22.6809 16.0697 22.7526 16.0394 22.8236C15.9348 23.0672 15.5319 22.9918 15.4807 22.7504C15.4654 22.678 15.4485 22.606 15.4301 22.5346C15.3962 22.4027 15.3574 22.272 15.3137 22.1432L15.297 22.095C15.2599 21.9886 15.2252 21.8812 15.1877 21.7747L15.184 21.7625C15.1826 21.7577 15.181 21.7522 15.1793 21.7459L15.1159 21.8846L14.9232 22.3032C14.833 22.4986 14.5465 22.3924 14.5358 22.2042L14.5356 22.1977C14.5346 22.163 14.5334 22.1285 14.5312 22.0944C14.5175 21.8386 14.4734 21.59 14.4035 21.3467L14.3782 21.3781C14.0024 21.844 13.5613 22.2806 12.9561 22.3881C12.8043 22.415 12.6326 22.256 12.7369 22.1022C12.78 22.0387 12.8215 21.9735 12.8609 21.9075C12.8268 21.8915 12.7947 21.8749 12.765 21.858C12.5354 21.7287 12.3443 21.5446 12.1862 21.3357C11.8511 20.893 11.7312 20.3357 11.7018 19.7902C11.6706 19.2138 11.7212 18.606 11.8783 18.0499C11.9464 17.8095 12.0385 17.5787 12.145 17.3548C12.1375 17.3348 12.1303 17.3148 12.1231 17.2947C12.0082 16.9735 11.9139 16.645 11.8355 16.3128C11.6775 15.6421 11.5925 14.9501 11.5822 14.261C11.5635 13.0264 11.7758 11.7721 12.2234 10.6207C12.6857 9.43343 13.3809 8.28963 14.3269 7.42701ZM13.7513 18.2212C13.6664 18.0872 13.4541 18.208 13.5329 18.3429L13.5358 18.3477C13.6704 18.5603 13.7335 18.802 13.811 19.0391C13.8606 19.1915 14.1021 19.1264 14.0518 18.9724L14.0351 18.9209C13.9581 18.6806 13.8877 18.4363 13.7513 18.2212ZM14.4906 15.6637L14.547 15.6364C14.7249 15.5513 14.8807 15.4933 15.0909 15.5676C15.3723 15.6668 15.6737 15.9828 15.4835 16.2893C15.4135 16.4023 15.2892 16.4474 15.1612 16.4208C14.9453 16.3759 14.8896 16.181 14.78 16.0211L14.7612 15.994C14.6944 15.8972 14.6099 15.7633 14.4987 15.7254C14.4734 15.7166 14.4628 15.6772 14.4906 15.6637ZM14.6492 9.15542L14.6674 9.1391C14.7882 9.03202 14.6108 8.85542 14.4906 8.96188C13.9403 9.44939 13.7491 10.2124 13.4637 10.8628C13.3996 11.009 13.6148 11.1368 13.6795 10.9893C13.9518 10.3687 14.1325 9.62636 14.6492 9.15542ZM21.2625 8.94215C21.1187 8.87719 20.9929 9.08698 21.1312 9.15605L21.1363 9.15851C21.6223 9.37863 21.8291 9.8771 22.0271 10.3399C22.0902 10.4877 22.3054 10.3602 22.2429 10.2137L22.2072 10.1307C22.0006 9.65375 21.7596 9.16763 21.2625 8.94215ZM22.0243 8.64094C21.8719 8.58802 21.8066 8.82975 21.9578 8.88266C22.3697 9.02638 22.6524 9.33636 22.8907 9.6908C22.98 9.82356 23.1965 9.69832 23.1062 9.56431C22.8295 9.15288 22.5009 8.80752 22.0243 8.64094Z" fill="black"/>
<path fill-rule="evenodd" clip-rule="evenodd" d="M21.2085 19.0034C20.9981 18.9175 20.8103 18.7743 20.6731 18.5913C20.6254 18.5277 20.613 18.4606 20.623 18.3991C20.6343 18.33 20.6751 18.2674 20.7308 18.2254C20.7867 18.1833 20.8566 18.1625 20.9242 18.1731C20.9829 18.1823 21.0414 18.2145 21.0876 18.2812L21.0973 18.2946C21.1789 18.405 21.2852 18.4956 21.4064 18.554C21.5232 18.6103 21.6538 18.6366 21.7889 18.6213C22.0463 18.5922 22.2237 18.4529 22.4123 18.2638C22.4357 18.24 22.459 18.2153 22.4825 18.1903C22.4974 18.1676 22.518 18.153 22.5408 18.1454C22.5662 18.1369 22.595 18.1374 22.6213 18.1466C22.6466 18.1554 22.6693 18.1722 22.6845 18.1946C22.699 18.2158 22.7072 18.242 22.7045 18.2722C22.6873 18.4682 22.5849 18.6431 22.4394 18.7804C22.2778 18.933 22.0636 19.0385 21.862 19.0755C21.6398 19.1163 21.4134 19.087 21.2085 19.0034ZM21.9668 15.98C22.2031 16.1237 22.5632 16.4588 22.309 16.8151C22.0097 17.1293 21.5788 16.7691 21.3664 16.6062C21.1695 16.4799 20.9483 16.8047 21.131 16.9521C22.6654 18.0885 23.2881 16.0176 22.0863 15.811C21.954 15.7883 21.9048 15.9355 21.9668 15.98ZM19.2171 14.658C19.2432 14.3338 19.7369 14.2601 19.786 14.581C19.83 14.8684 19.7782 15.1325 19.6488 15.3913C19.5251 15.6385 19.2143 15.5232 19.1908 15.298C19.1593 14.9963 19.2009 14.8597 19.2171 14.658ZM22.975 14.5145C23.0438 14.4243 23.1432 14.3627 23.2622 14.3975C23.6342 14.5063 23.5246 15.0346 23.3939 15.2917C23.323 15.4314 23.0935 15.4668 22.9898 15.3438C22.8208 15.1433 22.7399 14.7429 22.9547 14.5454C22.9605 14.5352 22.967 14.5249 22.975 14.5145ZM19.6435 13.2391L19.7023 13.2288C19.8841 13.1974 20.1101 13.1672 20.2387 13.3134C20.3069 13.3909 20.3304 13.535 20.2387 13.6092C20.0774 13.7398 19.8992 13.6892 19.7059 13.7002C19.5467 13.7094 19.3936 13.7357 19.2402 13.7796C18.9037 13.8758 18.6295 14.0515 18.3421 14.2443C18.3044 14.2696 18.2659 14.2214 18.2839 14.1861C18.4498 13.861 18.7713 13.5939 19.0934 13.4312C19.2653 13.3443 19.4534 13.2722 19.6435 13.2391ZM22.6359 13.0935L22.6809 13.1027C23.1703 13.2051 23.8062 13.4095 24.0379 13.8904C24.0468 13.9584 24.0374 13.973 24.0298 13.9825L24.0273 13.9857C24.0211 13.9938 24.0161 14.005 23.9866 14.0143C23.9784 14.0123 23.9702 14.0103 23.9618 14.0081C23.8556 13.9802 23.7715 13.9419 23.6902 13.902L23.6019 13.8586C23.4996 13.8083 23.3963 13.76 23.2869 13.7242C23.0533 13.648 22.8131 13.5943 22.5691 13.5657C22.5162 13.5595 22.4653 13.5416 22.4252 13.511C22.387 13.482 22.3579 13.4418 22.3446 13.3883C22.3274 13.3192 22.3324 13.2668 22.3695 13.2044C22.3973 13.1575 22.4373 13.1251 22.4831 13.1064C22.5298 13.0874 22.583 13.0829 22.6359 13.0935Z" fill="black"/>
</svg>
