<svg width="37" height="48" viewBox="0 0 37 48" fill="none" xmlns="http://www.w3.org/2000/svg">
<path fill-rule="evenodd" clip-rule="evenodd" d="M35.7766 26.5661C35.3297 26.61 34.8827 26.6539 34.4358 26.6978C32.2953 26.8614 30.1557 27.203 28.0316 27.4081C27.9787 27.322 27.8752 27.3362 27.8124 27.396C27.6004 27.3774 27.3629 27.2154 27.1709 27.384C27.1646 27.3831 27.1584 27.382 27.1521 27.3815C26.8103 26.7251 26.574 26.025 26.3446 25.324C26.1983 24.893 26.0013 24.4757 25.6374 24.1864C25.0163 23.7551 23.5932 22.8804 22.8639 22.9172C22.8518 22.7866 22.7909 22.6519 22.691 22.565C22.9112 22.1892 22.0305 21.9441 21.9683 21.9877C22.0081 20.7325 21.4179 19.6424 20.1165 19.3924C18.9506 19.1494 17.2923 19.1086 16.6653 20.3275C16.5964 20.3197 15.8918 20.3161 15.8236 20.3237C15.7176 20.1894 14.5536 21.462 15.0307 21.905C10.7655 23.7925 8.34033 23.5673 7.1598 28.8735C7.0002 29.372 6.98858 29.9175 6.82005 30.4048C6.22048 31.8054 5.73417 33.2968 5.61314 34.8208C5.32082 34.8957 5.28721 35.4113 5.62579 35.4859C5.75513 35.5144 5.86328 35.5534 5.95759 35.6272C5.88386 36.8761 6.1858 39.729 6.37604 39.7202C6.76394 40.9552 8.49419 41.3037 9.71915 40.8697C9.50798 41.2672 9.71915 41.517 9.71915 41.7294C14.1269 41.8962 18.9463 41.8001 23.3528 42.0289C23.9165 42.0209 24.5093 42.1674 25.0653 42.0831C25.4043 42.0018 25.4049 41.4685 25.061 41.4025L26.5637 41.076C26.5302 41.0633 27.1832 40.6288 27.6767 39.8168C28.1361 38.9085 27.8235 37.812 28.0316 36.824C29.6574 36.691 31.3101 36.6341 32.9181 36.3586C33.1374 37.0149 34.0865 36.23 34.3881 35.9143C34.3878 35.9138 34.3874 35.9134 34.387 35.9129C34.533 35.8729 34.6501 35.736 34.654 35.574C34.7564 35.4276 34.7779 35.2213 34.6797 35.0799C35.1297 32.4821 35.8158 29.8296 36.0638 27.2074C36.1515 27.188 36.234 27.1495 36.304 27.0903L36.2983 27.0846C36.4169 26.9524 36.44 26.7241 36.2423 26.6117C36.0828 26.521 35.9497 26.5491 35.7766 26.5661Z" fill="#D08B5B"/>
<path fill-rule="evenodd" clip-rule="evenodd" d="M18.7788 36.2895L19.1231 36.5087L21.94 37.4167L23.6614 37.6359L25.0699 37.4167V39.8277L25.3515 42.0821C25.2263 42.3117 24.037 42.3117 21.7835 42.0821C20.3469 41.9357 15.0967 41.8647 13.9013 41.8335L13.8335 41.8316C12.4289 41.7911 11.0413 41.7911 9.6708 41.8316V40.9862L13.5832 39.0449L17.0886 37.0723L18.7788 36.2895ZM16.7828 20.1309L17.0415 20.3241L16.4767 21.2525L19.2283 23.479V25.2575L20.0994 26.0817L20.5973 25.2575L21.2989 24.3241L21.7976 22.811L21.6278 21.8141L21.9692 21.782C21.9709 21.8501 21.9706 21.9188 21.9684 21.9881C22.0305 21.9445 22.9113 22.1897 22.691 22.5654C22.791 22.6524 22.8518 22.787 22.8639 22.9176C23.5932 22.8809 25.0163 23.7555 25.6374 24.1868C26.0014 24.4762 26.1983 24.8934 26.3447 25.3244L26.3792 25.4295L26.4147 25.5375L26.4506 25.6453C26.6486 26.2382 26.8625 26.8257 27.1522 27.3819C27.1585 27.3825 27.1647 27.3835 27.1709 27.3844C27.3629 27.2158 27.6005 27.3779 27.8124 27.3964C27.8738 27.338 27.974 27.3231 28.0279 27.4027L28.0317 27.4085L25.3909 27.9289L23.6488 34.0423L22.1317 32.8103L21.3174 32.9314L19.1668 33.7074L16.6657 34.3573L10.9558 35.9321H10.2287L5.99752 34.9099L5.61621 34.784C5.74213 33.273 6.2254 31.7944 6.8201 30.4052C6.98863 29.9179 7.00025 29.3724 7.15985 28.8739C8.34038 23.5677 10.7656 23.7929 15.0308 21.9054C14.5537 21.4624 15.7177 20.1898 15.8237 20.3241L15.8303 20.3235L15.8448 20.3228L15.8634 20.3221C16.0298 20.3173 16.6035 20.3209 16.6653 20.3279C16.7012 20.2582 16.7405 20.1926 16.7828 20.1309Z" fill="#FFCF77"/>
<path fill-rule="evenodd" clip-rule="evenodd" d="M36.1987 26.752L36.1201 27.1905C36.1014 27.1966 36.0823 27.2018 36.0631 27.206C36.0384 27.4674 36.0093 27.7292 35.9765 27.9911L35.4889 30.7101C35.4047 31.1912 35.3249 31.6732 35.2456 32.1555L35.1406 32.6734L35.0755 32.9954C34.9351 33.6926 34.7987 34.3875 34.679 35.0785C34.6971 35.1046 34.7111 35.1328 34.7213 35.1624L34.7121 35.2014L34.7057 35.2273L34.6991 35.253C34.6047 35.6162 34.4403 35.9685 34.053 36.0753C33.7608 36.1559 33.4403 36.1632 33.1386 36.195L33.1052 36.1987L27.8263 36.7926C27.1885 36.8643 26.5509 36.9382 25.9134 37.0129L25.3608 37.0777C24.5905 37.167 23.8158 37.2372 23.0569 37.3987C23.029 37.4047 23.0059 37.4158 22.9871 37.4305C23.1399 36.8517 23.2862 36.2738 23.4188 35.6892C23.568 35.0312 23.7096 34.372 23.8693 33.7165C24.1908 32.3958 24.5513 31.0837 24.9459 29.783C25.0287 29.51 25.1135 29.2375 25.2 28.9657L25.2608 28.7757L25.3076 28.6242C25.3799 28.3934 25.4694 28.1561 25.6816 28.0287C25.9299 27.8797 26.2686 27.855 26.5502 27.8034L26.7409 27.7676C27.0262 27.7143 27.3119 27.6631 27.598 27.6139C28.9675 27.3782 30.3448 27.1892 31.7271 27.0472C33.1655 26.8994 34.609 26.8034 36.0542 26.7565L36.1987 26.752ZM23.0965 35.8179L23.1099 35.819L22.9127 37.3959C22.8812 37.3738 22.8412 37.3603 22.7923 37.3604C22.1455 37.3623 21.5255 37.1555 20.9259 36.9282L20.8345 36.8933L20.5799 36.7954C20.3211 36.6962 20.0609 36.5992 19.7959 36.5188L19.6888 36.4864L19.6343 36.4703C19.4336 36.4117 19.2225 36.3585 19.0138 36.3452L18.9854 36.3437L19.0461 36.3117C19.055 36.3071 19.0628 36.3019 19.0697 36.2962C19.1846 36.3047 19.2997 36.3024 19.4209 36.2806C19.6489 36.2395 19.8705 36.1602 20.074 36.0498L20.1649 36.0005L20.2021 35.9807L20.2267 35.968L20.2511 35.9556C20.4259 35.8685 20.593 35.8139 20.8137 35.8603C21.0642 35.9131 21.2838 36.0481 21.5096 36.1623L21.5497 36.1822L21.5766 36.1953L21.6041 36.2082L21.6319 36.2209C21.9373 36.3584 22.4233 36.5067 22.5404 36.0914C22.5874 35.9245 22.5506 35.7682 22.469 35.6312C22.6211 35.618 22.8928 35.7974 23.0965 35.8179ZM30.6983 30.6225L30.7019 30.6414C30.7451 30.874 30.6368 31.0964 30.4729 31.2586C30.3385 31.3916 30.1006 31.4656 30.0332 31.6569C29.9949 31.7658 30.0357 31.869 30.1145 31.941L30.0963 31.95L30.0786 31.959L30.0613 31.9682L30.0444 31.9774L30.0279 31.9867C29.7602 32.1406 29.5421 32.3908 29.7836 32.6931C30.0575 33.036 30.6299 33.0471 31.0332 33.0202L31.0603 33.0183C31.4514 32.989 31.9146 32.8576 32.1266 32.4964C32.2238 32.3307 32.2131 32.1303 32.0776 31.9885C31.9958 31.903 31.8499 31.8151 31.7161 31.8047C31.722 31.7293 31.713 31.6565 31.6865 31.595C31.6292 31.4622 31.4766 31.3727 31.3294 31.3695C31.3413 31.0874 31.1155 30.8089 30.9492 30.5834L30.9322 30.5603L30.9157 30.5375C30.8394 30.4313 30.6761 30.4908 30.6983 30.6225ZM30.9214 30.9228L31.0729 31.4906L31.0703 31.4952C31.0169 31.5966 31.1568 31.7117 31.2398 31.6265L31.2482 31.6175C31.3467 31.5157 31.4979 31.6525 31.4997 31.7608C31.5024 31.9133 31.4032 32.0312 31.285 32.109L31.2767 32.1144L31.2549 32.128C31.1579 32.1921 31.2314 32.3262 31.338 32.3099C31.47 32.2897 31.5781 32.185 31.6448 32.0542C31.716 32.0747 31.7971 32.0722 31.8721 32.1142C32.0612 32.2199 31.9524 32.405 31.8293 32.5168L31.8243 32.5213L31.8143 32.5301C31.5884 32.7227 31.2809 32.7897 30.9911 32.804L30.9744 32.8048C30.6816 32.8173 30.3001 32.8215 30.0491 32.6492C29.8929 32.542 29.8477 32.39 29.9799 32.246C30.0546 32.1646 30.1301 32.0825 30.2078 32.0031C30.3241 32.0587 30.4279 32.0361 30.5468 31.9836C30.5621 31.9768 30.5536 31.9535 30.5387 31.9535C30.4731 31.9535 30.2324 31.8316 30.2206 31.7538C30.2098 31.6817 30.343 31.621 30.4077 31.5862L30.4171 31.581L30.4253 31.5763C30.493 31.5353 30.5568 31.4875 30.615 31.4338C30.763 31.2976 30.8704 31.1268 30.9173 30.9398L30.9214 30.9228Z" fill="white"/>
<path fill-rule="evenodd" clip-rule="evenodd" d="M16.7469 20.0452C16.8797 19.7113 17.3286 19.8411 17.2785 20.1919C17.2486 20.402 17.1336 20.6239 17.0302 20.808C16.9461 20.9579 16.8501 21.1042 16.72 21.2165C16.9516 21.4327 17.1921 21.641 17.4386 21.8387C17.7075 22.0545 17.9904 22.2534 18.2828 22.4362C18.5391 22.5965 18.8071 22.7385 19.0487 22.9214C19.2734 23.0915 19.4781 23.296 19.5823 23.563C19.6932 23.8473 19.645 24.1409 19.5633 24.4251L19.5539 24.4572C19.4705 24.7387 19.3259 25.078 19.5263 25.3432C19.6283 25.4782 19.7766 25.5738 19.9047 25.6818C20.0185 25.7777 20.1253 25.882 20.2233 25.9941C20.4369 26.2384 20.6106 26.5133 20.7203 26.8195L20.7301 26.8474C20.824 27.1185 20.8927 27.4507 20.7657 27.7169C20.7293 27.7932 20.6118 27.7684 20.5914 27.6941C20.5453 27.5257 20.5477 27.3495 20.509 27.1787C20.4687 27.0012 20.4018 26.8327 20.3143 26.6733C20.145 26.3648 19.9158 26.1014 19.645 25.8786L19.5639 25.8127C19.3526 25.6392 19.1585 25.4552 19.1156 25.1681C19.0697 24.861 19.1927 24.5684 19.2718 24.2777C19.3269 24.0752 19.3449 23.881 19.2854 23.6979C19.2126 23.8167 19.1133 23.9295 19.0348 24.0301C18.8784 24.2305 18.7205 24.4297 18.5631 24.6293C18.4016 24.834 18.2442 25.0418 18.0942 25.2551C18.0271 25.3505 17.9608 25.4465 17.8946 25.5425C17.8449 25.6147 17.7756 25.6869 17.7213 25.7605C17.7345 25.7999 17.7335 25.8453 17.7096 25.8776C17.4222 26.2661 17.0132 25.4554 16.9065 25.2505C16.6893 24.8334 16.5276 24.3902 16.3097 23.9731C16.0839 23.5408 15.8267 23.1199 15.5401 22.7252C15.3668 22.4865 15.1725 22.2622 15.0139 22.0159C14.6403 22.3548 14.1486 22.582 13.697 22.788C13.2009 23.0144 12.6854 23.1993 12.1767 23.3956L12.0264 23.454C11.1499 23.7962 10.252 24.1722 9.52341 24.78C8.66729 25.4943 8.16081 26.4899 7.78376 27.5209C7.3497 28.7077 6.99061 29.9266 6.65587 31.1447C6.48457 31.7679 6.32204 32.394 6.16923 33.0221C6.03459 33.5754 5.92297 34.1342 5.76711 34.6819C6.08322 34.6707 6.44376 34.7931 6.71365 34.8285C7.94366 34.9895 9.15712 35.2463 10.3184 35.6908C10.4618 35.7457 10.5033 35.889 10.4721 36.0052C10.5548 35.9818 10.6375 35.9582 10.7202 35.9349C10.6296 35.796 10.6728 35.5477 10.68 35.3937L10.6804 35.3831C10.6877 35.1779 10.71 34.9725 10.7244 34.7677C10.7519 34.3773 10.7877 33.9897 10.8352 33.6015L10.8474 33.5045C10.9013 33.0822 10.9411 32.6574 10.9999 32.2358L11.0069 32.1875C10.9787 32.0796 10.9458 31.9731 10.9114 31.867C10.8195 31.5844 10.6899 31.3184 10.5763 31.0447C10.5629 31.0125 10.6088 30.994 10.6303 31.0133C10.8226 31.1865 10.9754 31.4061 11.0982 31.6358C11.1003 31.6249 11.1022 31.6141 11.1044 31.6032L11.1184 31.5343C11.153 31.3661 11.195 31.1891 11.2981 31.0527C11.3091 31.0382 11.3308 31.0351 11.3412 31.0527C11.4399 31.2198 11.451 31.4314 11.4662 31.6216C11.4833 31.8367 11.4855 32.0545 11.4825 32.2702C11.4766 32.6917 11.4469 33.1145 11.4232 33.5353C11.4 33.9489 11.3544 34.3572 11.2956 34.7667L11.2845 34.8435C11.2558 35.0384 11.2322 35.2358 11.1944 35.4293L11.1837 35.482C11.1634 35.578 11.151 35.7134 11.1106 35.8258C12.1478 35.5364 13.1866 35.2536 14.2274 34.9758C14.9796 34.775 15.7326 34.5771 16.4852 34.3781C16.5249 34.3065 16.5744 34.2396 16.6361 34.1798C16.8395 33.9828 17.109 33.8949 17.3561 34.0465C17.3762 34.0589 17.3779 34.0904 17.3561 34.1023C17.3088 34.1282 17.2613 34.1548 17.2147 34.1825L17.6667 34.06C18.0045 33.9684 18.3463 33.854 18.6921 33.7901C19.3289 33.4757 20.0139 33.2482 20.6847 33.0233L20.7638 32.9965C21.1073 32.8794 21.4626 32.7482 21.8175 32.6833C22.0773 32.6357 22.3823 32.6931 22.4867 32.9594C22.619 33.0466 22.7434 33.149 22.8635 33.2498C22.9504 33.3227 23.0336 33.4001 23.1182 33.4755L23.1338 33.4892C23.203 33.5492 23.2578 33.5895 23.2748 33.6851C23.2836 33.7344 23.2522 33.8012 23.1913 33.7946C23.0051 33.7747 22.8536 33.5587 22.7273 33.4297C22.6297 33.33 22.5313 33.227 22.4423 33.1174C22.3903 33.1457 22.3192 33.1406 22.2861 33.078C22.1147 32.7533 21.6452 32.9783 21.3854 33.0553L21.0133 33.1655C20.8272 33.2207 20.6412 33.2761 20.4556 33.3325C19.9453 33.4875 19.4375 33.661 18.9225 33.8034C18.9686 33.8541 18.9623 33.9442 18.8747 33.9785C18.4717 34.1367 18.0295 34.2185 17.6107 34.3271C17.3464 34.3957 17.0821 34.4647 16.818 34.5341C16.7727 34.6075 16.7401 34.6905 16.7264 34.7872C16.676 35.1426 16.7732 35.5526 16.8679 35.8964L16.8822 35.9476C16.96 36.224 17.0746 36.5628 17.3129 36.7373C17.3711 36.7798 17.4452 36.8095 17.5198 36.8162C17.9864 36.5759 18.453 36.3357 18.9198 36.0959C19.0063 36.0515 19.0862 36.1116 19.1056 36.1831C19.2702 36.1561 19.4344 36.1135 19.584 36.0628C19.8353 35.9774 20.0315 35.8145 20.2672 35.7019C20.7231 35.484 21.1886 35.7516 21.5968 35.9551L21.6909 36.0014C21.8739 36.0902 22.2548 36.2609 22.3426 36.0179C22.4275 35.7828 22.159 35.5316 21.9855 35.4258C21.7787 35.2996 21.538 35.2321 21.3043 35.1759C21.1709 35.1437 21.0358 35.1175 20.9 35.0984C20.7459 35.0767 20.5867 35.08 20.4383 35.03C20.3645 35.0052 20.3532 34.888 20.4383 34.8686C20.6667 34.8166 20.9393 34.8734 21.1777 34.9313L21.3023 34.962C21.5424 35.021 21.7849 35.095 22.0037 35.2126C22.1627 35.2981 22.3306 35.4281 22.4403 35.5871C22.5355 35.4986 22.6541 35.5016 22.7775 35.5345L22.8446 35.5531C22.9552 35.5838 23.0449 35.6049 23.1526 35.5836C23.167 35.5053 23.1816 35.4269 23.1972 35.3485C23.3507 34.5778 23.519 33.81 23.7047 33.0464C24.025 31.7292 24.3956 30.4264 24.8135 29.1371L24.8554 29.0082C24.9518 28.7132 25.0293 28.3919 25.1847 28.121C25.3316 27.8648 25.5671 27.7172 25.8468 27.6391C26.1642 27.5504 26.4978 27.504 26.8216 27.4441C26.8938 27.4308 26.9663 27.4181 27.0386 27.405C26.9775 27.2946 26.9319 27.1693 26.8908 27.0732L26.8836 27.0565C26.7953 26.8553 26.716 26.6503 26.6395 26.4443L26.5822 26.2895C26.444 25.9165 26.3013 25.5497 26.1069 25.2009C25.9024 24.8338 25.631 24.5337 25.2927 24.2853C24.6029 23.7788 23.7715 23.5204 23.1025 22.9792C23.0751 22.957 23.1102 22.9191 23.1381 22.9331C23.5898 23.1602 24.0775 23.3146 24.5473 23.4994L24.64 23.536C25.0114 23.6833 25.3885 23.8436 25.71 24.0821C26.0684 24.348 26.3506 24.6782 26.5628 25.0709C26.7718 25.4579 26.9056 25.8912 27.0531 26.3046L27.0925 26.4148C27.152 26.58 27.2135 26.7446 27.2839 26.9054C27.3398 27.033 27.4441 27.1787 27.4915 27.3245C27.6213 27.302 27.751 27.2794 27.8808 27.2577C30.6936 26.7879 33.5377 26.5119 36.3882 26.4311C36.4997 26.428 36.5574 26.5344 36.541 26.6317C36.2674 28.2499 36.0243 29.8737 35.7576 31.4931C35.6412 32.1999 35.5224 32.9061 35.4009 33.612C35.3393 33.9697 35.2682 34.3259 35.2099 34.6841C35.1628 34.9733 35.1286 35.2649 35.0478 35.5474C34.9753 35.8007 34.8641 36.045 34.6814 36.2383C34.4844 36.4467 34.2096 36.5475 33.9329 36.5952C33.2305 36.7161 32.5101 36.7655 31.802 36.846L28.0321 37.2751C28.0872 37.776 28.0914 38.2692 28.0661 38.7759L28.0517 39.0526C28.0399 39.2751 28.0258 39.498 27.9939 39.7182C27.9538 39.9944 27.8275 40.2284 27.6414 40.4347C27.4705 40.6242 27.263 40.7859 27.0611 40.9408C26.8515 41.1017 26.6349 41.257 26.3885 41.3564L26.3565 41.3691C26.1404 41.4536 25.7348 41.5843 25.4393 41.5365C25.478 41.7301 25.5527 41.9383 25.4864 42.1299C25.4557 42.2188 25.3394 42.2632 25.2682 42.1875C25.1271 42.0375 25.1161 41.8394 25.0826 41.6437C25.0479 41.44 25.0179 41.2356 24.9912 41.0308C24.9397 40.6347 24.8996 40.2349 24.8874 39.8354C24.8748 39.4252 24.8797 39.0144 24.9018 38.6046C24.9131 38.3942 24.9272 38.1838 24.9539 37.9747C24.9653 37.8856 24.9769 37.7963 24.9902 37.7074C24.9951 37.6749 25.0005 37.6427 25.0063 37.6104L24.6679 37.6486C24.1491 37.7066 23.63 37.7589 23.1075 37.767C23.0456 37.768 22.998 37.7398 22.9669 37.6987C22.9337 37.7527 22.876 37.7914 22.7934 37.7911C22.0637 37.7883 21.3842 37.5497 20.7205 37.2684C20.386 37.1265 20.0567 36.973 19.7217 36.8324C19.409 36.7011 19.0746 36.6074 18.7695 36.4596L17.9676 36.8804C17.9617 36.9011 17.9542 36.9206 17.9462 36.937C17.894 37.0436 17.791 37.1014 17.6859 37.145C17.585 37.1869 17.4805 37.1999 17.3787 37.1893C16.7705 37.5081 16.1622 37.8267 15.5535 38.1444L14.9447 38.4619C13.7317 39.0937 12.5234 39.7359 11.3028 40.3529L11.2129 40.3982C10.7913 40.6097 10.3386 40.8241 9.87067 40.984C9.86235 41.1025 9.86761 41.2177 9.87753 41.3431L9.87992 41.3704C9.89387 41.5186 9.92378 41.7043 9.80495 41.8098C9.74313 41.8647 9.63271 41.8649 9.59067 41.7822C9.5144 41.6322 9.58288 41.3957 9.60704 41.2327C9.61562 41.1747 9.62607 41.1152 9.64153 41.0574C9.10513 41.2171 8.55249 41.2946 8.00664 41.2049C7.47518 41.1176 7.06357 40.7827 6.73174 40.373C6.38153 39.9407 6.13268 39.4368 5.99916 38.8968C5.8472 38.2822 5.83728 37.6475 5.84085 37.018C5.84463 36.3477 5.86942 35.674 5.95092 35.0082C5.86163 34.9872 5.7626 34.969 5.67236 34.9753C5.62767 35.0468 5.54097 35.0769 5.46263 35.0676C5.29227 35.2556 5.72438 35.4477 5.86247 35.4958C5.91042 35.5125 5.90529 35.5904 5.84999 35.588L5.81515 35.5864C5.60177 35.575 5.38133 35.5386 5.25587 35.3402C5.15534 35.1812 5.18554 34.9929 5.30538 34.8632C5.38454 34.1145 5.57377 33.3854 5.74989 32.655C5.92272 31.9382 6.11493 31.2259 6.31866 30.5172L6.40999 30.2001C6.73075 29.0889 7.06602 27.9687 7.50848 26.9017C7.72942 26.3689 7.98394 25.8459 8.32895 25.3813C8.65055 24.9483 9.03024 24.5777 9.46667 24.2612C10.2803 23.6711 11.235 23.3146 12.173 22.9749L12.215 22.9597C12.7011 22.7838 13.186 22.6058 13.6666 22.4152C14.0916 22.2466 14.4987 22.0329 14.9218 21.8619C14.908 21.8369 14.8947 21.8117 14.882 21.7862L14.8742 21.7927C14.8728 21.7938 14.8714 21.7948 14.87 21.7958C14.8275 21.8253 14.7649 21.8108 14.7298 21.7777C14.6308 21.6843 14.6643 21.5805 14.7304 21.4837L14.739 21.4713C14.8198 21.3581 14.8919 21.2383 14.9665 21.121L15.0132 21.0476C15.1384 20.8515 15.2699 20.6542 15.4369 20.4921C15.5142 20.417 15.5988 20.3609 15.6885 20.319C15.6808 20.3028 15.748 20.2696 15.7671 20.2863C16.0512 20.1823 16.3781 20.2041 16.6878 20.2328M27.8497 37.2958L27.4547 37.3408C27.0202 37.3902 26.5855 37.438 26.1507 37.4854L25.2063 37.5881C25.2039 37.6419 25.1974 37.6946 25.1962 37.7353C25.19 37.945 25.1854 38.1547 25.1811 38.3645C25.1723 38.785 25.1819 39.2058 25.2096 39.6254C25.2364 40.032 25.2717 40.4387 25.3266 40.8426L25.3378 40.9233L25.3443 40.9658C25.3891 40.9701 25.4331 40.9914 25.4697 41.0351C25.5496 41.1305 25.8388 41.0378 25.9518 40.9976C26.1376 40.9315 26.3125 40.8197 26.4739 40.7077C26.6315 40.5983 26.7735 40.4708 26.9099 40.3364L27.0215 40.226C27.1325 40.1156 27.2436 39.9981 27.3116 39.8592C27.4038 39.671 27.4158 39.4399 27.4428 39.2349C27.4761 38.9827 27.5158 38.7306 27.5577 38.4796M16.3832 34.6487L16.3423 34.6595C14.854 35.0551 13.3679 35.4624 11.875 35.8405C11.1362 36.0277 10.394 36.2013 9.65427 36.3849L9.53452 36.4148C8.95098 36.5624 8.36044 36.7399 7.91358 37.1633C7.89709 37.1789 7.87315 37.155 7.88867 37.1384C8.37027 36.6255 9.05521 36.4084 9.71286 36.2202C9.83443 36.1854 9.95615 36.1515 10.0777 36.1169C9.18335 35.7979 8.27484 35.5204 7.34535 35.3225C7.10601 35.2715 6.86388 35.2341 6.62473 35.1829C6.45794 35.1472 6.29505 35.0956 6.13003 35.0528L6.00022 35.0201L5.9985 35.4305C5.99634 36.0118 5.99737 36.5927 6.02701 37.1739L6.03262 37.2815C6.06721 37.9283 6.1212 38.5886 6.35064 39.1984C6.53709 39.694 6.83427 40.1609 7.22291 40.5219C7.41956 40.7045 7.63099 40.8467 7.89233 40.9169C8.13499 40.9821 8.38923 40.9897 8.63869 40.9723C9.83521 40.8888 10.9003 40.2386 11.9397 39.7002C13.6398 38.8197 15.34 37.9395 17.0418 37.0624C16.9958 37.0309 16.9525 36.9946 16.9131 36.9539C16.6849 36.7181 16.5645 36.3954 16.4854 36.0828C16.4013 35.7501 16.3509 35.3935 16.3451 35.05M18.5486 37.4023C18.5636 37.3942 18.581 37.4043 18.5817 37.4213C18.587 37.5513 18.5151 37.6796 18.4615 37.7967L18.4558 37.8092C18.3906 37.9543 18.3192 38.0975 18.2454 38.2384C18.0978 38.5199 17.9444 38.7984 17.7844 39.073C17.4625 39.6253 17.1048 40.1544 16.682 40.6353C16.5865 40.744 16.4295 40.6047 16.4907 40.4877C16.7862 39.9238 17.1306 39.3914 17.4852 38.8635C17.6627 38.5993 17.8401 38.3348 18.0193 38.0717C18.0941 37.9619 18.1698 37.8525 18.2476 37.7448L18.2945 37.6804M36.1997 26.7541C34.7063 26.7992 33.2145 26.8967 31.7281 27.0494C30.3458 27.1914 28.9685 27.3804 27.599 27.616C27.313 27.6653 27.0273 27.7165 26.7419 27.7697L26.5708 27.8019C26.2854 27.856 25.9367 27.8784 25.6827 28.0309C25.4148 28.1917 25.3424 28.5277 25.2532 28.8048C25.1485 29.1307 25.0463 29.4575 24.9469 29.7851C24.5523 31.0859 24.1919 32.3979 23.8703 33.7186C23.7107 34.3742 23.569 35.0334 23.4198 35.6913C23.2872 36.2759 23.1409 36.8539 22.9881 37.4326C23.007 37.418 23.03 37.4068 23.0579 37.4009C23.8169 37.2393 24.5916 37.1691 25.3618 37.0799L25.4364 37.0712C26.2332 36.9774 27.03 36.8844 27.8274 36.7947L33.1062 36.2008C33.4175 36.1658 33.751 36.1611 34.054 36.0775C34.5691 35.9353 34.6899 35.3592 34.7763 34.9004L34.7789 34.8866C35.0395 33.5003 35.2469 32.102 35.4899 30.7123M23.111 35.8212C22.906 35.8076 22.6255 35.6199 22.47 35.6333C22.5516 35.7703 22.5885 35.9266 22.5414 36.0935C22.4105 36.5579 21.8184 36.3176 21.5332 36.1758C21.2994 36.0594 21.0736 35.917 20.8147 35.8625C20.5215 35.8008 20.3228 35.9174 20.075 36.0519C19.8715 36.1624 19.6499 36.2417 19.422 36.2827C19.3008 36.3046 19.1857 36.3069 19.0708 36.2984C19.0639 36.304 19.0561 36.3092 19.0472 36.3139L18.9864 36.3458C19.2612 36.3584 19.5412 36.4433 19.7969 36.5209C20.062 36.6014 20.3222 36.6984 20.581 36.7976L20.8356 36.8955C21.4636 37.1361 22.1137 37.3645 22.7934 37.3625C22.8422 37.3624 22.8823 37.3759 22.9138 37.398M21.9643 34.366C22.1668 34.3412 22.3537 34.3678 22.5154 34.4996C22.7106 34.6586 22.8416 34.9223 23.1221 34.9397C23.2039 34.9447 23.2229 35.0597 23.1416 35.0838C22.9328 35.1456 22.7638 35.0326 22.6215 34.8859L22.5259 34.7859C22.3853 34.6403 22.2557 34.5277 22.0171 34.5364C21.7617 34.5458 21.5058 34.6048 21.252 34.6348C20.9645 34.6688 20.677 34.6978 20.3886 34.7229C20.3752 34.724 20.3729 34.7029 20.3855 34.6998L20.7085 34.6194M21.7689 33.5379L21.8022 33.5346C22.0963 33.506 22.3651 33.5049 22.6277 33.6632L22.6781 33.6936C22.9148 33.8376 23.1725 34.0072 23.3206 34.2402C23.3448 34.2784 23.3048 34.3233 23.2642 34.3136C22.9797 34.2452 22.7717 34.0364 22.5324 33.8801C22.2638 33.7047 21.9864 33.7336 21.6802 33.7608C21.3838 33.7872 21.0875 33.8235 20.7939 33.8729C20.5181 33.9193 20.2414 33.9926 19.9628 34.016L19.9628 34.0154C19.931 34.0153 19.9128 33.9675 19.9453 33.9513C20.228 33.8101 20.5555 33.7432 20.8631 33.6787M30.7005 30.6309C30.672 30.4949 30.8392 30.4318 30.9167 30.5397L30.9332 30.5624C31.1006 30.7919 31.3428 31.0798 31.3304 31.3717C31.4776 31.3749 31.6302 31.4643 31.6875 31.5972C31.714 31.6587 31.723 31.7315 31.7172 31.8069C31.8509 31.8173 31.9968 31.9051 32.0786 31.9907C32.2142 32.1325 32.2249 32.3329 32.1276 32.4986C31.9156 32.8598 31.4524 32.9912 31.0614 33.0205L31.0474 33.0215C30.6436 33.0494 30.0616 33.0419 29.7847 32.6952C29.5175 32.3609 29.8128 32.0902 30.1155 31.9431C30.0367 31.8712 29.9959 31.7679 30.0343 31.6591C30.1017 31.4677 30.3396 31.3938 30.474 31.2608C30.6379 31.0986 30.7462 30.8761 30.703 30.6436M30.9224 30.9249C30.8779 31.1185 30.7685 31.2956 30.6161 31.436C30.5578 31.4896 30.494 31.5374 30.4263 31.5785L30.4182 31.5832C30.3581 31.617 30.2103 31.6802 30.2217 31.7559C30.2334 31.8338 30.4741 31.9556 30.5397 31.9557C30.5546 31.9557 30.5631 31.979 30.5478 31.9858C30.4289 32.0383 30.3251 32.0608 30.2088 32.0053C30.1311 32.0846 30.0557 32.1667 29.9809 32.2481C29.8488 32.3921 29.894 32.5442 30.0502 32.6514C30.3011 32.8237 30.6826 32.8195 30.9754 32.8069C31.2701 32.7943 31.5851 32.7286 31.8153 32.5322L31.8254 32.5235C31.9505 32.4122 32.0647 32.2235 31.8731 32.1163C31.7981 32.0743 31.717 32.0768 31.6458 32.0564C31.5791 32.1871 31.471 32.2918 31.3391 32.312C31.2324 32.3283 31.159 32.1943 31.256 32.1301L31.2778 32.1166C31.3996 32.0388 31.5035 31.919 31.5008 31.763C31.4989 31.6547 31.3477 31.5179 31.2492 31.6197L31.2447 31.6245C31.1623 31.7175 31.0171 31.6004 31.0713 31.4974L31.0739 31.4927M11.7012 25.54C11.7008 25.5168 11.7335 25.5081 11.7449 25.5282C11.9362 25.8649 12.0362 26.2776 12.1381 26.6485C12.2449 27.0371 12.331 27.4296 12.4084 27.825C12.5652 28.6257 12.6488 29.4217 12.6544 30.2378C12.6552 30.3543 12.4655 30.3853 12.4469 30.2659C12.3237 29.4721 12.2056 28.6775 12.0815 27.884C12.019 27.4849 11.9463 27.0873 11.8767 26.6893M13.595 26.1265C13.5809 26.08 13.6485 26.0645 13.6658 26.107C14.0497 27.0497 14.1797 28.1181 13.9332 29.1127C13.8955 29.2649 13.6727 29.1989 13.7012 29.0487M18.547 25.2888C18.5451 25.254 18.5902 25.2486 18.6072 25.2725C18.7891 25.5289 18.8646 25.8723 19.1837 26.0048C19.3431 26.0709 19.5224 26.0594 19.6632 26.1712C19.7573 26.2459 19.8295 26.3639 19.7588 26.4771C19.736 26.5136 19.6722 26.532 19.6413 26.4922C19.5962 26.4343 19.5723 26.365 19.511 26.3216C19.4245 26.2604 19.3079 26.2566 19.2087 26.2278C19.0805 26.1906 18.9674 26.1255 18.8748 26.0288M21.5861 21.0122C21.6049 21.0026 21.6229 21.0087 21.6348 21.025C21.652 21.0481 21.6499 21.0706 21.6289 21.0864C21.6569 21.1437 21.69 21.2871 21.6947 21.308C21.7139 21.3927 21.7343 21.4768 21.7556 21.5609C21.7986 21.7306 21.8363 21.9015 21.8793 22.0712C21.9249 22.251 21.9793 22.429 22.0398 22.6043C22.0437 22.6157 22.048 22.6273 22.0525 22.639L22.0594 22.6568L22.0611 22.6541C22.0734 22.6347 22.099 22.6483 22.0959 22.6688C22.0931 22.6875 22.0893 22.7062 22.0861 22.7249L22.0925 22.7416C22.1321 22.8482 22.1592 22.9604 22.0865 23.0545C22.0594 23.0896 22.0295 23.1104 21.9922 23.1166C21.9325 23.3136 21.8576 23.5069 21.7774 23.6925L21.7539 23.7467C21.6359 24.0175 21.51 24.2848 21.3221 24.5154C21.117 24.7671 20.8348 24.939 20.6562 25.2149C20.573 25.3432 20.5152 25.4781 20.4682 25.623L20.4506 25.678C20.4173 25.7805 20.3788 25.8799 20.2827 25.94C20.252 25.9592 20.2061 25.9531 20.1814 25.9269C19.9843 25.7183 20.1906 25.3289 20.3094 25.127C20.4746 24.8462 20.7137 24.6665 20.9531 24.4547C21.2112 24.2263 21.3758 23.9209 21.535 23.6199C21.6325 23.4356 21.7267 23.2472 21.8258 23.0621C21.7222 22.9705 21.6891 22.7886 21.654 22.6622L21.6508 22.6509C21.5928 22.4484 21.5467 22.2407 21.5176 22.0321C21.4896 21.8315 21.4779 21.6337 21.4853 21.432L21.4875 21.3806M21.9712 21.9669C21.9483 21.9355 21.9862 21.9 22.0175 21.9066C22.2084 21.946 22.395 22.0616 22.5663 22.1551L22.5846 22.165C22.7214 22.2388 22.859 22.3291 22.9308 22.4724C23.0088 22.6282 23.0024 22.8076 22.9918 22.9769L22.9908 22.9927C22.9777 23.1957 22.9756 23.4066 22.9327 23.6059C22.9107 23.7079 22.8183 23.7367 22.7394 23.7126C22.6454 24.0094 22.3815 24.2281 22.1887 24.4623C21.9428 24.7608 21.9891 25.164 22.0148 25.5236C22.0252 25.6692 21.8442 25.7106 21.7509 25.6329L21.536 25.4543C21.5003 25.4245 21.4645 25.3947 21.4289 25.3647C21.3983 25.339 21.3681 25.3131 21.3381 25.2869L21.2933 25.2473C21.2734 25.2295 21.1857 25.1316 21.1601 25.1275C21.098 25.1176 20.9505 25.2813 20.9 25.3327L20.8936 25.3391C20.7986 25.4323 20.7128 25.5326 20.6328 25.6389C20.6181 25.6585 20.5893 25.6423 20.5998 25.6197C20.6715 25.4661 20.7548 25.3193 20.8537 25.1819L20.8737 25.1546C20.9396 25.0658 21.0279 24.9091 21.1441 24.8829C21.286 24.851 21.4276 24.9933 21.5308 25.0723L21.5374 25.0772C21.5865 25.1141 21.635 25.1516 21.6835 25.1893C21.6784 24.9216 21.7122 24.6511 21.8504 24.4203C21.9478 24.2576 22.0938 24.1371 22.2187 23.9973C22.3578 23.8416 22.4304 23.6502 22.5563 23.488C22.5725 23.4672 22.5948 23.4559 22.619 23.4524C22.6239 23.322 22.643 23.1903 22.6579 23.0614L22.6622 23.0228C22.6772 22.8826 22.7126 22.7115 22.644 22.5803C22.5792 22.4563 22.4306 22.3688 22.3206 22.2847L22.2307 22.215M15.7767 20.4853C15.7192 20.5186 15.6655 20.5599 15.6167 20.6116C15.4634 20.7744 15.3537 20.977 15.247 21.1719C15.1895 21.2768 15.1341 21.383 15.0762 21.4877C15.051 21.5332 15.025 21.5783 14.9988 21.6233C14.9867 21.644 14.9507 21.6852 14.9329 21.7106C14.9527 21.7384 14.9732 21.7657 14.9941 21.7928C15.0021 21.8031 15.5524 22.4028 15.7442 22.6375C16.0379 22.997 16.3004 23.3767 16.5249 23.7831C16.7446 24.1811 16.912 24.6025 17.1156 25.0082C17.2175 25.2113 17.3313 25.413 17.4763 25.5887C17.4819 25.5956 17.4879 25.6021 17.4936 25.6088C17.549 25.4592 17.6908 25.299 17.7605 25.207L17.767 25.1983C17.925 24.9852 18.0919 24.7785 18.2624 24.5754C18.4182 24.3898 18.5779 24.2083 18.7415 24.0298L18.803 23.963C18.9169 23.8398 19.0617 23.6556 19.2285 23.5676C19.2106 23.5357 19.19 23.5042 19.1662 23.473C19.0099 23.2687 18.7889 23.1204 18.5709 22.9866L18.4295 22.9006C17.8965 22.5757 17.3719 22.2357 16.9092 21.8136C16.6644 21.5902 16.423 21.3562 16.2172 21.0956L16.1445 21.0035M16.6659 20.3245C16.4163 20.3454 16.1468 20.3405 15.9162 20.4218C16.1212 20.6157 16.3161 20.8251 16.5163 21.0223C16.5341 20.8889 16.5706 20.7572 16.6014 20.6271" fill="black"/>
<path fill-rule="evenodd" clip-rule="evenodd" d="M19.2029 7.99219C20.9763 7.99219 22.8106 9.37025 23.4607 10.2496C24.0072 10.989 24.3015 14.3322 24.3015 16.5917C24.3015 17.0642 24.5616 17.955 24.4857 18.407C24.2076 20.0633 22.9956 21.4524 20.597 21.4524C18.1984 21.4524 16.4786 20.4993 14.6957 17.9401C13.8307 17.9401 13.4114 17.2751 13.4054 16.2256C13.3993 15.1761 14.2404 14.7942 14.2404 14.7942C14.2404 14.7942 13.9405 10.6524 14.6957 9.57409C15.451 8.49576 17.4295 7.99219 19.2029 7.99219Z" fill="#D08B5B"/>
<path fill-rule="evenodd" clip-rule="evenodd" d="M18.4568 7.40615C19.5765 7.29249 20.6737 7.38799 21.7771 7.5856C21.8615 7.60091 21.9093 7.65636 21.927 7.72302C22.4468 7.74682 22.9671 7.78505 23.4862 7.81354C23.6745 7.82388 23.7813 8.01046 23.6954 8.17894C23.6783 8.21242 23.6604 8.24498 23.6423 8.27754L23.6651 8.27002C23.8212 8.2198 23.9899 8.19504 24.1421 8.27476C24.3357 8.3762 24.4116 8.60005 24.3688 8.80608C24.3579 8.85868 24.3395 8.90909 24.3186 8.95828C24.361 8.95546 24.4038 8.9564 24.4463 8.96204C24.6724 8.99209 24.8405 9.16587 24.8523 9.39726C24.8698 9.74666 24.6453 10.1011 24.3807 10.3513C24.4191 10.4305 24.4338 10.5238 24.4178 10.6184C24.386 10.8053 24.2486 10.9173 24.0894 10.9903C24.1558 11.2017 24.1872 11.4227 24.1687 11.6485C24.1625 11.7239 24.0967 11.7862 24.0273 11.8015C24.2861 12.5158 24.4171 13.2827 24.5113 14.03C24.5784 14.5617 24.6115 15.0965 24.6155 15.6322C24.6175 15.8741 24.6135 16.1162 24.6034 16.3581L24.5993 16.4488C24.5868 16.7103 24.5862 16.9849 24.5394 17.2435C24.6993 17.5162 24.7636 17.8547 24.7908 18.1603C24.8245 18.5385 24.7711 18.9287 24.6521 19.2885C24.203 20.648 22.8475 21.5059 21.486 21.7288C20.2258 21.9352 18.7675 21.6575 18.0311 20.5099C18.0195 20.4917 18.0442 20.4767 18.0585 20.4886C18.5854 20.9182 19.1966 21.1098 19.8607 21.2031C21.0088 21.3641 22.2993 21.091 23.2207 20.3671C23.6629 20.0196 23.9818 19.5136 24.1221 18.9691C24.1936 18.6907 24.2183 18.4004 24.1902 18.114C24.1614 17.8234 24.0331 17.5754 23.9522 17.3008C23.925 17.2081 23.9538 17.122 24.0103 17.0607C24.0262 16.8377 24.0637 16.6129 24.078 16.3906C24.094 16.1379 24.1037 15.8852 24.1071 15.6322C24.1137 15.1074 24.0918 14.5817 24.0478 14.0592C23.9672 13.1023 23.7532 12.1686 23.6277 11.2199C23.5812 11.2617 23.5146 11.2788 23.4447 11.2423L23.4375 11.2383L23.3994 11.2164C23.3972 11.2164 23.3947 11.2168 23.3925 11.217C23.1317 11.2424 22.8612 11.2061 22.6114 11.1281C22.3499 11.0467 22.1073 10.9215 21.8905 10.7546C21.8493 10.964 21.8321 11.1757 21.8318 11.3892C21.8315 11.5226 21.6906 11.5919 21.5788 11.5349C21.0831 11.2825 20.6097 10.9916 20.1602 10.6647C20.1077 10.9343 20.0553 11.2039 20.0025 11.4738C19.9822 11.5778 19.85 11.6197 19.7654 11.5703C19.4287 11.3739 19.138 11.1169 18.9012 10.8112C18.8539 10.9019 18.8065 10.9925 18.7588 11.0829L18.687 11.2183C18.6161 11.3514 18.5211 11.4986 18.3659 11.5411C18.2016 11.5862 18.0645 11.4795 18.0092 11.3304C17.9923 11.2841 17.9767 11.2364 17.9624 11.1885C17.8224 11.5089 17.6644 11.822 17.4857 12.1207C17.2178 12.5687 16.896 12.968 16.5753 13.3775C16.4779 13.5018 16.3111 13.3831 16.2976 13.2623C16.2898 13.1912 16.2833 13.1198 16.2776 13.0487C16.0907 13.4269 15.8957 13.8014 15.6832 14.1651L15.7136 14.2847C15.8013 14.6378 15.8741 14.9934 15.9533 15.3484C15.9788 15.463 15.9181 15.6267 15.7846 15.6462C15.6251 15.6695 15.4742 15.7512 15.3109 15.695C15.1328 15.6337 15.0976 15.4794 15.0135 15.3331C14.9967 15.3039 14.9772 15.2772 14.9562 15.2517L14.9509 15.2587C14.9378 15.2759 14.9065 15.2571 14.9143 15.2374L14.9235 15.2146C14.8512 15.1378 14.7648 15.0736 14.6853 15.0047C14.4964 14.9727 14.2839 15.0077 14.1538 15.0846C13.8574 15.2599 13.7212 15.6213 13.7184 15.9535C13.715 16.3424 13.8352 16.7795 14.0382 17.112C14.1276 17.2582 14.25 17.3903 14.4118 17.4552C14.5723 17.5197 14.7463 17.4996 14.9097 17.5604C15.0177 17.6008 15.0842 17.721 15.019 17.83C15.0146 17.8375 15.0096 17.8444 15.0049 17.8516L15.0535 17.9162C15.0869 17.961 15.1217 18.0089 15.1542 18.0588C15.2373 18.1547 15.3247 18.247 15.4094 18.3413C15.5658 18.515 15.7176 18.6935 15.8716 18.8698C16.0169 19.0361 16.1705 19.1923 16.3289 19.346C16.4785 19.4917 16.6653 19.6141 16.8027 19.7694C16.9363 19.9209 16.9726 20.1855 16.7527 20.2732C16.5094 20.3705 16.294 20.1425 16.1303 19.9905L16.1234 19.9842C15.8232 19.7072 15.552 19.3907 15.3368 19.0423C15.1235 19.1878 14.815 19.2017 14.6027 19.0562C14.4909 18.9796 14.4052 18.851 14.3635 18.711C14.3243 18.7198 14.285 18.725 14.2467 18.7244C14.227 18.7359 14.2072 18.747 14.1872 18.7574C14.0289 18.84 13.8343 18.8031 13.7618 18.6274C13.6959 18.468 13.7639 18.2868 13.8233 18.1332L13.8356 18.1014C13.8693 18.0138 13.9065 17.9183 13.9527 17.8284C13.824 17.7314 13.714 17.6108 13.621 17.4737C13.3083 17.0118 13.1522 16.3364 13.2212 15.7854C13.2627 15.4528 13.4186 15.1084 13.6737 14.8842L13.6644 14.8598C13.5929 14.6779 13.5279 14.4953 13.4857 14.3031C13.4364 14.0783 13.4123 13.8453 13.3905 13.6164C13.3443 13.133 13.3568 12.6386 13.4183 12.157C13.5338 11.2506 13.8268 10.3607 14.3468 9.60642C14.1994 9.42948 14.0826 9.22126 14.1435 8.98176C14.1713 8.87183 14.2347 8.76759 14.3303 8.70463C14.383 8.6699 14.4458 8.66458 14.4986 8.63577L14.5145 8.62701C14.5377 8.61345 14.5199 8.61489 14.5061 8.55186C14.4515 8.30009 14.4968 8.05683 14.7732 7.97323C15.0333 7.89464 15.2794 8.06153 15.4334 8.26035C15.8363 7.97382 16.3673 7.82388 16.8342 7.69644C17.3652 7.55206 17.9099 7.46192 18.4568 7.40615ZM14.1048 15.8508C14.1029 15.6457 14.2968 15.5192 14.4877 15.5527C14.6159 15.5751 14.7228 15.6518 14.8232 15.731L14.8721 15.7698C14.9944 15.8661 15.1347 15.9698 15.2076 16.106C15.3144 16.307 15.0886 16.5775 14.8778 16.4366C14.7332 16.3395 14.6405 16.1838 14.5456 16.0392L14.5358 16.0242C14.4927 15.9594 14.4549 15.8905 14.3959 15.8386L14.3831 15.8274C14.3637 15.8108 14.3428 15.7956 14.3178 15.7885C14.2694 15.7745 14.1798 15.7941 14.1585 15.8518L14.1566 15.8577C14.1488 15.8868 14.1051 15.8805 14.1048 15.8508Z" fill="black"/>
<path fill-rule="evenodd" clip-rule="evenodd" d="M22.2186 18.6902C22.0061 18.7737 21.7552 18.7934 21.5359 18.7223C21.3262 18.6542 21.1359 18.5027 21.0207 18.3121C20.9181 18.1424 20.8752 17.941 20.9359 17.7403C20.9388 17.7307 20.9482 17.7245 20.9573 17.7221C21.0069 17.7673 21.0375 17.8122 21.0681 17.8568C21.1198 17.9321 21.1715 18.0066 21.2425 18.071C21.3459 18.1646 21.4851 18.2407 21.6233 18.2657C21.7586 18.2904 21.897 18.2686 22.0182 18.2038C22.0919 18.1645 22.1514 18.1118 22.2104 18.0589C22.2746 18.0014 22.3378 17.9429 22.4263 17.9104C22.4972 17.8843 22.5717 17.9063 22.6289 17.9499C22.6903 17.9968 22.7345 18.0701 22.7321 18.1468C22.7283 18.2656 22.6763 18.3647 22.6009 18.4464C22.4989 18.557 22.3548 18.6366 22.2186 18.6902ZM21.9664 15.7297C22.2027 15.8734 22.5628 16.2085 22.3086 16.5648C22.0093 16.879 21.5784 16.5188 21.366 16.3559C21.1691 16.2296 20.9479 16.5543 21.1306 16.7018C22.665 17.8382 23.2877 15.7673 22.0859 15.5607C21.9536 15.538 21.9044 15.6852 21.9664 15.7297ZM19.4804 13.7383C19.8025 13.7229 20.0864 13.8677 20.3934 13.9334C20.6771 13.9942 20.9566 13.9577 21.2325 13.8804C21.6802 13.7548 21.8653 14.4406 21.4237 14.5742C21.1021 14.6715 20.7634 14.6783 20.4334 14.6281C20.1402 14.5835 19.8944 14.4407 19.6149 14.3576C19.375 14.2863 19.0928 14.3159 18.8395 14.3495L18.7411 14.3627C18.595 14.3824 18.448 14.4022 18.3033 14.4308C18.1777 14.4556 18.0524 14.501 17.9242 14.5063C17.9096 14.5069 17.8973 14.488 17.9065 14.4754C18.0554 14.2709 18.3423 14.1096 18.5706 14.002L18.586 13.9947C18.8678 13.8633 19.1667 13.7533 19.4804 13.7383ZM19.3624 15.2461L19.3623 15.2391C19.3628 15.0394 19.479 14.5835 19.7664 14.5835C19.9459 14.5835 20.0548 14.8938 20.0737 15.2136L20.0744 15.2267C20.0827 15.4255 20.0281 15.8602 19.7664 15.8602C19.5018 15.8602 19.3651 15.4485 19.3624 15.2461ZM23.5926 15.2461L23.5926 15.2391C23.5922 15.0394 23.476 14.5835 23.1886 14.5835C23.0136 14.5835 22.9056 14.8785 22.8829 15.1897L22.8813 15.2136C22.87 15.4058 22.921 15.8602 23.1886 15.8602C23.4532 15.8602 23.5899 15.4485 23.5926 15.2461ZM23.5882 13.4952L23.6087 13.4956C23.9445 13.5073 24.2899 13.7062 24.3795 14.0405C24.3842 14.0578 24.3628 14.0695 24.3501 14.0576C24.074 13.799 23.7027 14.0461 23.4263 14.1756L23.3247 14.2226C22.9683 14.3884 22.5629 14.5835 22.1672 14.4598C21.9793 14.4011 21.8599 14.2079 21.9135 14.0128C21.9612 13.8392 22.1707 13.6933 22.3521 13.7559L22.3604 13.7589C22.5078 13.8153 22.689 13.7582 22.8413 13.7018L22.9664 13.6549C23.1675 13.5785 23.3695 13.4931 23.5882 13.4952Z" fill="black"/>
</svg>
