<svg width="36" height="48" viewBox="0 0 36 48" fill="none" xmlns="http://www.w3.org/2000/svg">
<path fill-rule="evenodd" clip-rule="evenodd" d="M6.3716 40.4812C6.329 40.4825 6.34243 40.4701 6.35808 40.4671C6.36258 40.4718 6.36709 40.4765 6.3716 40.4812ZM7.62934 41.4165C8.81955 41.5577 10.0112 41.4285 11.1956 41.2991C13.5949 41.1211 15.9775 41.6395 18.3816 41.4814C21.386 41.3548 24.3986 41.1169 27.3931 41.5177C28.2213 41.5368 29.5424 41.7604 29.242 40.4777C28.8475 37.1801 28.32 33.899 27.7549 30.6268C27.276 28.7923 27.2414 25.6192 25.93 24.3435C25.7383 24.1684 25.0506 23.6019 24.8688 23.5258C23.9649 23.1892 22.3354 22.9265 21.6631 22.2128C21.1186 21.2911 21.3719 20.0333 20.5252 19.2912C19.7831 18.6851 18.1634 18.8132 17.37 19.2684C16.744 19.6744 16.6459 20.4631 16.2559 21.0463C16.1597 21.1861 15.9311 21.5229 15.8021 21.6316C15.4879 21.9342 14.3846 22.252 14.066 22.3104C12.268 22.679 11.3714 22.9068 9.95726 24.102C6.26218 27.8758 6.78596 34.5504 5.76352 39.4852C5.72168 40.0277 5.39201 40.7639 5.98017 41.1132C6.48675 41.356 7.08237 41.3295 7.62934 41.4165Z" fill="#D08B5B"/>
<path fill-rule="evenodd" clip-rule="evenodd" d="M21.2505 20.9579C21.2549 20.9451 21.2755 20.9429 21.2787 20.9579C21.3291 21.1887 21.4236 21.4417 21.5194 21.658C21.6167 21.8772 21.7497 22.0786 21.9178 22.2495C22.2699 22.6077 22.7228 22.7712 23.2195 22.7715L23.2314 22.7718C23.2337 22.7551 23.2363 22.7384 23.2387 22.7217L23.2421 22.6966C23.2874 22.3535 23.6946 22.3635 23.7741 22.6224C23.8145 22.6353 23.8549 22.6481 23.895 22.6616L23.903 22.6644C23.9704 22.6901 24.1989 22.8039 24.2408 22.7737C24.3331 22.7072 24.4386 22.7834 24.4737 22.8682C24.531 23.0071 24.5405 23.1789 24.5591 23.3296L24.5616 23.3491L24.5644 23.3726C25.8712 23.7124 26.6045 25.0202 26.9788 26.2251C27.1816 26.8782 27.3144 27.5521 27.4477 28.2221C27.5904 28.9388 27.7219 29.6574 27.8611 30.3744C28.1356 31.7875 28.3954 33.2037 28.6211 34.6252L28.6865 35.0381C28.8933 36.3452 29.0946 37.6516 29.264 38.9647C29.3554 39.6726 29.4411 40.3812 29.5237 41.0904C29.5386 41.2168 29.5532 41.3434 29.5678 41.4699L29.5895 41.6599C29.6089 41.8303 29.6417 41.9987 29.5575 42.1581C29.3751 42.5037 28.8223 42.5012 28.791 42.0585C28.7848 41.9705 28.8145 41.9032 28.8637 41.8562L28.863 41.8488C28.8625 41.8444 28.862 41.8411 28.8618 41.8396C28.8455 41.7517 28.8411 41.6587 28.8311 41.5697C28.8092 41.38 28.7879 41.1903 28.7663 41.0002C28.7247 40.6382 28.6827 40.2763 28.6392 39.9146C28.5513 39.181 28.4583 38.4483 28.3598 37.7163L28.2621 36.9925C27.9353 34.5797 27.5947 32.1675 27.1466 29.7739C27.0245 29.1223 26.8991 28.4717 26.7704 27.8213C26.6483 27.2054 26.5112 26.5924 26.3065 25.9978C25.9723 25.0265 25.3879 24.1169 24.5766 23.4794C24.5892 23.6012 24.5982 23.7236 24.6098 23.8454C24.6396 24.1582 24.6712 24.4707 24.7031 24.7832C24.8192 25.9154 24.9766 27.0458 25.2452 28.1529C25.3782 28.7015 25.5403 29.2429 25.7378 29.7717C25.8352 30.0322 25.9413 30.2893 26.0577 30.5416C26.1729 30.7912 26.3748 31.058 26.387 31.336C26.3926 31.4647 26.258 31.579 26.1335 31.5652C26.1917 32.0775 26.2245 32.595 26.2593 33.106C26.31 33.8462 26.3503 34.5877 26.4095 35.3272C26.5153 36.652 26.648 37.9749 26.787 39.2966C26.8145 39.5586 26.8445 39.8204 26.8741 40.0822L26.8989 40.3019C26.9156 40.4444 26.9408 40.6152 26.8652 40.7416C26.9328 40.9047 26.9791 41.0722 27.0061 41.2469C27.0402 41.4642 26.916 41.7078 26.6624 41.6984C26.6336 41.6975 26.6048 41.695 26.576 41.6919C26.341 41.7463 26.1065 41.7942 25.8624 41.7958C25.5507 41.798 25.2383 41.7917 24.9266 41.7896C24.3235 41.7855 23.7203 41.7814 23.1172 41.7764C20.9338 41.7589 18.7494 41.7598 16.5663 41.7247L15.6928 41.7109C14.8921 41.698 14.0912 41.6831 13.2909 41.654C12.7397 41.6339 12.1886 41.6136 11.6377 41.5914L11.5255 41.5871C11.0395 41.5694 10.5528 41.5603 10.0721 41.4858C10.0601 41.4838 10.0548 41.4713 10.0567 41.4603L10.0574 41.4573L10.0364 41.4526C10.0242 41.5052 9.7707 41.2842 9.77257 41.1373C9.66741 41.0005 9.71655 40.782 9.72782 40.6235C9.73877 40.4692 9.75254 40.3145 9.76475 40.1601C9.79073 39.8304 9.81295 39.5004 9.83955 39.1707C9.94691 37.8412 10.0396 36.5083 10.0996 35.176C10.13 34.5044 10.1544 33.8324 10.1801 33.1608C10.1916 32.855 10.2077 32.549 10.2377 32.2446L10.2455 32.1685C10.2784 31.8598 10.2752 31.5279 10.3888 31.237C10.3904 31.233 10.3957 31.233 10.3973 31.237C10.5122 31.5201 10.5231 31.8492 10.5463 32.1598C10.5504 32.1586 10.5544 32.1579 10.5588 32.157C10.7175 32.0815 10.8777 32.0136 11.028 31.9203C11.0483 31.9078 11.068 31.8946 11.0881 31.8818C11.3244 31.1585 11.5982 30.4471 11.8502 29.7285C12.6643 27.4049 13.1137 24.9303 13.2133 22.4699C12.5923 22.8704 11.916 23.182 11.2586 23.5165L11.197 23.548C10.5494 23.8793 9.92938 24.2553 9.46835 24.8299C9.06647 25.3302 8.80387 25.9398 8.55818 26.5276C8.29433 27.1591 8.05645 27.8019 7.83893 28.4507C7.39761 29.767 7.05583 31.1156 6.78916 32.4779C6.52594 33.8224 6.33783 35.1769 6.21201 36.5409C6.14785 37.2366 6.08932 37.933 6.04018 38.6303C6.01514 38.9831 5.99292 39.3363 5.97226 39.6898C5.96225 39.8614 5.95473 40.0333 5.94347 40.2049C5.93658 40.3038 5.93533 40.4059 5.90278 40.4998C5.87555 40.5781 5.82735 40.6436 5.78228 40.7128C5.69996 40.8389 5.49214 40.8618 5.41483 40.7128L5.38135 40.6482C5.33704 40.5622 5.29658 40.4757 5.29057 40.3765C5.28494 40.2825 5.29652 40.1845 5.30184 40.0903C5.31217 39.8996 5.32406 39.7086 5.33595 39.5179C5.36099 39.1168 5.38885 38.7157 5.42015 38.315C5.48243 37.5121 5.56256 36.7115 5.66334 35.9124C6.01796 33.106 6.53001 30.3143 7.50716 27.651C7.74879 26.9925 8.01827 26.3393 8.3225 25.7072C8.6167 25.096 8.98885 24.5189 9.52907 24.0981C10.0263 23.7107 10.6044 23.4513 11.1787 23.1996L11.2505 23.1682C11.8943 22.8867 12.5369 22.5836 13.2092 22.3744C13.1942 22.3763 13.1795 22.3782 13.1667 22.3826C13.1519 22.3873 13.1432 22.3682 13.1523 22.3578C13.1904 22.3156 13.2064 22.2721 13.2502 22.2304C13.2805 22.2016 13.312 22.1744 13.3444 22.1482L13.391 22.111C13.4763 22.0433 13.566 21.9741 13.6734 21.9505C13.8252 21.9173 13.8997 22.0554 13.8571 22.1634C13.879 22.1349 13.9378 22.1434 13.9532 22.1825C14.4527 23.4713 14.7807 24.8355 15.453 26.0532C15.9494 26.9528 16.6155 27.7834 17.4993 28.3267C17.9741 28.6185 18.5175 28.8427 19.0787 28.8781C19.5826 28.9097 20.0674 28.7816 20.4959 28.5171C21.3266 28.0045 21.869 27.1046 22.2558 26.2326C22.6812 25.2726 22.9848 24.2497 23.1632 23.2126C22.5979 23.2205 22.0014 22.9625 21.6255 22.542C21.4277 22.3206 21.2802 22.051 21.2054 21.7636C21.13 21.4736 21.1541 21.2353 21.2505 20.9579ZM16.5084 20.2049C16.5773 20.0818 16.73 20.0411 16.8549 20.0912C16.9935 20.147 17.0352 20.2816 17.0155 20.4184C16.9926 20.5787 16.8896 20.7519 16.8095 20.8918C16.7256 21.0384 16.6177 21.1734 16.5059 21.2995C16.2956 21.5375 16.0705 21.752 15.8036 21.9273C15.5379 22.1017 15.2374 22.2323 14.9285 22.3052L14.855 22.3224C14.6147 22.3773 14.2729 22.4403 14.0727 22.3097C14.063 22.3034 14.0633 22.2905 14.0727 22.2843C14.181 22.2088 14.326 22.1953 14.4505 22.1597C14.5863 22.1205 14.7225 22.0761 14.8524 22.0203C15.1087 21.9101 15.3541 21.7648 15.5726 21.5913C15.792 21.4173 16.0042 21.2097 16.151 20.9701C16.2249 20.8499 16.2878 20.7237 16.3482 20.5966C16.4092 20.4691 16.4399 20.3276 16.5084 20.2049Z" fill="black"/>
<path fill-rule="evenodd" clip-rule="evenodd" d="M24.3638 15.274C24.3112 12.8135 23.6996 10.0897 21.6035 8.5692C21.4699 8.47223 21.2695 8.51919 21.1589 8.62994C21.068 8.64773 20.9846 8.7029 20.9291 8.80434C19.6895 11.0724 18.3847 13.3045 17.015 15.4961C16.1356 16.9131 15.0674 18.3319 14.9265 20.0495C14.9021 20.0819 14.6757 20.3382 14.8076 20.3195C14.8662 20.2888 14.9258 20.2636 14.9885 20.2449C15.156 20.4897 15.5449 20.4512 15.6373 20.1749C15.9578 20.1842 16.275 20.2663 16.5804 20.3615C17.3294 20.5965 18.0906 20.8289 18.855 21.0085C21.3732 21.6785 24.079 20.826 24.2802 17.8829C24.5505 17.5011 24.4043 15.7995 24.3638 15.274Z" fill="#D08B5B"/>
<path fill-rule="evenodd" clip-rule="evenodd" d="M26.196 21.3217C25.8397 19.6447 25.6111 17.946 25.4065 16.2452C25.3075 15.4214 25.2285 14.5955 25.1369 13.7711C25.0514 13.003 24.9517 12.2324 24.7518 11.4847C24.566 10.7899 24.2943 10.102 23.8938 9.50209C23.5185 8.93971 23.0465 8.45783 22.5046 8.05548C21.4339 7.26049 20.0647 6.83748 18.733 6.97775C18.5318 6.99904 18.3325 7.03317 18.1354 7.07889C18.1982 7.06041 18.2617 7.04316 18.3256 7.02816C18.3463 7.02318 18.3371 6.99535 18.3169 6.9972C12.8988 7.49069 11.6243 16.9369 11.5084 18.8415C11.4994 18.9897 11.4922 19.1374 11.4869 19.2855C11.4463 19.6159 11.416 19.9472 11.4016 20.2794C11.3854 20.6626 11.3932 21.0484 11.4285 21.4304C11.4647 21.822 11.506 22.2235 11.669 22.5835C11.7689 22.8052 16.4289 22.5015 16.477 22.2397C16.5744 21.7112 16.6244 21.1658 16.5938 20.6282C16.5794 20.3705 16.5529 20.1147 16.4979 19.8623C16.4829 19.7934 16.467 19.6641 16.4267 19.5617C16.8518 18.752 17.3193 17.9655 17.8006 17.188C18.8023 15.5692 19.8673 13.9805 20.6859 12.2565C21.0963 11.3926 21.5008 10.4752 21.6944 9.52867L21.7257 9.53493C21.7219 9.54621 21.7244 9.5603 21.7357 9.56812C22.6255 10.1846 23.2202 11.119 23.6056 12.1194C24.0544 13.2841 24.2721 14.5419 24.2408 15.79C24.1912 17.7732 23.4413 20.2242 21.3196 20.8511C20.8355 20.9942 20.3127 21.0346 19.8167 20.93C19.5828 20.8805 19.3535 20.8044 19.1424 20.6917C18.9081 20.5668 18.7157 20.3899 18.4962 20.2443C18.2954 20.1112 18.0583 20.3708 18.1739 20.5677C18.429 21.003 18.9781 21.2691 19.4497 21.4C19.9529 21.5399 20.4836 21.5466 20.9961 21.4576C21.0351 21.451 21.0738 21.4435 21.1122 21.4354C21.121 21.5644 21.1763 21.6928 21.2662 21.797C21.3065 21.844 21.3562 21.8846 21.4118 21.9188C21.419 22.0447 21.4999 22.1712 21.6314 22.1988C22.3338 22.3453 25.2509 21.9611 25.9524 21.7516C26.1407 21.6953 26.236 21.5102 26.196 21.3217Z" fill="black"/>
<path fill-rule="evenodd" clip-rule="evenodd" d="M22.744 17.9017C22.4815 17.7622 22.1735 17.7858 21.9099 17.9104C21.5877 18.0626 21.3386 18.3127 21.118 18.5876C21.0332 18.6932 20.954 18.8032 20.8748 18.9132C20.8422 18.9584 20.8096 19.0037 20.7767 19.0486C20.7703 19.057 20.7632 19.066 20.7558 19.0756C20.703 19.1434 20.631 19.2372 20.6035 19.3223C20.5924 19.3565 20.5883 19.3895 20.5932 19.4195C20.5956 19.434 20.6001 19.448 20.6069 19.4611C20.5649 19.472 20.5368 19.4617 20.5174 19.4408C20.4866 19.4077 20.4759 19.358 20.4754 19.3009C20.4739 19.0966 20.6085 18.7987 20.6635 18.676C20.6692 18.6633 20.674 18.6525 20.6779 18.6437C20.8767 18.1885 21.1949 17.745 21.6372 17.4996C22.0658 17.2619 22.573 17.217 23.0163 17.4417C23.5062 17.69 23.6398 18.1817 23.6953 18.6871C23.7038 18.7645 23.6688 18.8359 23.6149 18.8897C23.5542 18.9505 23.4688 18.9899 23.389 18.9899C23.3061 18.9899 23.2302 18.9548 23.1747 18.8993C23.1188 18.8433 23.0835 18.7665 23.0828 18.6833L23.0823 18.6348C23.0797 18.4661 23.0679 18.3077 23.0067 18.1733C22.9575 18.0653 22.8769 17.9723 22.744 17.9017ZM22.0919 15.6355C22.3282 15.7792 22.6884 16.1144 22.4341 16.4707C22.1348 16.7848 21.7039 16.4246 21.4916 16.2617C21.2947 16.1354 21.0734 16.4602 21.2561 16.6076C22.7905 17.744 23.4132 15.6731 22.2114 15.4665C22.0791 15.4438 22.03 15.591 22.0919 15.6355ZM20.1024 15.6827C20.0387 15.7139 19.9681 15.7265 19.8989 15.7121C19.8369 15.6991 19.7763 15.6644 19.7226 15.6031C19.649 15.5189 19.5955 15.3994 19.6312 15.2853L19.6414 15.256C19.6535 15.2219 19.6698 15.1899 19.6897 15.1609C19.7024 15.0987 19.705 15.058 19.7074 15.0194C19.708 15.0095 19.7086 14.9998 19.7093 14.99C19.7131 14.9359 19.7211 14.8793 19.7392 14.8272C19.7426 14.8173 19.7464 14.8076 19.7505 14.798C19.7404 14.7945 19.7302 14.7909 19.7201 14.7873C19.6499 14.7626 19.5799 14.7374 19.5103 14.7111C19.3123 14.6362 19.1166 14.5518 18.9271 14.4574C18.8335 14.4107 18.7422 14.3582 18.6521 14.3051C18.6091 14.2765 18.5147 14.2098 18.4724 14.1739L18.4403 14.1467L18.4234 14.1853C18.4054 14.2035 18.3908 14.2049 18.3785 14.2009C18.3654 14.1965 18.3556 14.1861 18.3495 14.1736C18.3421 14.1586 18.3398 14.1403 18.3437 14.1226C18.3472 14.1067 18.3559 14.0914 18.3705 14.0793C18.4263 14.0332 18.5051 14.0532 18.5705 14.066C18.5798 14.0679 18.589 14.0697 18.5979 14.0713C18.6996 14.0899 18.8011 14.112 18.9022 14.1349L19.0239 14.1626C19.0703 14.1732 19.1167 14.1839 19.1631 14.1945C19.6904 14.3154 20.2168 14.436 20.7557 14.489L20.8124 14.4943C20.9085 14.5029 20.994 14.5437 21.0503 14.6087C21.1021 14.6685 21.1286 14.7488 21.116 14.8419C21.1037 14.933 21.0525 15.0089 20.982 15.0558C20.9118 15.1026 20.8226 15.1207 20.7335 15.0968C20.5662 15.0519 20.3994 15.0047 20.2333 14.9546L20.2721 15.047C20.3055 15.1274 20.3363 15.2108 20.34 15.2959C20.3434 15.3758 20.3199 15.4532 20.2794 15.5194C20.2362 15.5899 20.1735 15.6478 20.1024 15.6827ZM23.8614 13.7588C23.8202 13.8151 23.7728 13.8632 23.7255 13.9114C23.6235 14.0156 23.5215 14.1197 23.4123 14.2165C23.3726 14.2517 23.3326 14.2863 23.2925 14.3209C23.2777 14.3338 23.2628 14.3466 23.248 14.3595L23.2246 14.3798L23.2446 14.4034C23.25 14.4097 23.255 14.4163 23.2593 14.4232C23.3193 14.5215 23.3526 14.6282 23.3864 14.7352C23.4095 14.8085 23.4327 14.882 23.4639 14.9534L23.474 14.9758C23.5146 15.0631 23.5255 15.1543 23.5039 15.2366C23.4836 15.3142 23.4343 15.3834 23.3552 15.4337C23.3354 15.4464 23.3015 15.4611 23.2785 15.4662C23.1879 15.4863 23.0961 15.4723 23.0211 15.4297C22.9494 15.389 22.8932 15.3221 22.8683 15.2344C22.8315 15.1047 22.8079 14.973 22.8091 14.8446C22.8093 14.8228 22.8103 14.801 22.8119 14.7791C22.7975 14.7937 22.7811 14.8065 22.7624 14.817C22.7044 14.8498 22.6388 14.8531 22.5771 14.8363C22.5072 14.8174 22.4422 14.773 22.3972 14.715C22.3575 14.6639 22.3333 14.6021 22.3364 14.5374C22.3391 14.4809 22.3629 14.4228 22.4139 14.3681L22.4619 14.3191C22.4977 14.2828 22.5469 14.2549 22.5993 14.2408C22.6474 14.2279 22.6984 14.2265 22.7442 14.2421C22.8059 14.2252 22.8459 14.2053 22.8831 14.1868C22.9095 14.1736 22.9345 14.1611 22.9567 14.1514C23.0651 14.1043 23.1731 14.0562 23.2807 14.0073C23.374 13.9648 23.4688 13.9256 23.5636 13.8864C23.6635 13.8451 23.7633 13.8038 23.8614 13.7588Z" fill="black"/>
<path fill-rule="evenodd" clip-rule="evenodd" d="M23.6873 13.6514C24.422 13.6514 24.8412 13.8094 24.9948 13.8217L24.9994 13.8221C25.0633 13.8261 25.1207 13.8315 25.1808 13.8548C25.4019 13.94 25.438 14.172 25.3089 14.3182C25.2999 14.6208 25.3396 14.9743 25.2714 15.2779C25.1872 16.5576 24.5856 16.7736 24.2436 16.8524C24.072 16.892 23.8685 16.9077 23.6861 16.866C23.375 16.8544 23.0674 16.7569 22.8043 16.5873C22.4378 16.3508 22.1656 15.9874 22.0773 15.556C22.0354 15.3504 22.0158 15.1364 22.0386 14.9274L22.042 14.8986C21.9229 14.8416 21.7848 14.8309 21.6425 14.8258C21.5746 14.8234 21.5076 14.8212 21.4425 14.8241C21.3789 14.8312 21.316 14.8407 21.2529 14.8536C21.1841 14.8744 21.1191 14.9087 21.059 14.963L21.0549 15.0423C21.0436 15.2404 21.0176 15.439 20.9775 15.6334C20.9183 15.9201 20.8231 16.1939 20.6204 16.3973C20.5518 16.4998 20.4669 16.5913 20.3639 16.6706C19.9895 16.9589 19.4809 17.0648 19.0142 17.0249C18.0665 16.944 17.5188 16.1914 17.3925 15.8698L17.385 15.8503C17.2938 15.6111 17.2211 15.3009 16.933 15.2495L16.8717 15.2385C16.7402 15.2138 16.6189 15.1794 16.5418 15.0511C16.508 14.995 16.4906 14.9324 16.4864 14.8685C16.4414 14.8719 16.3965 14.8752 16.3517 14.8785C15.9946 14.954 13.8529 15.018 13.682 15.018C13.682 15.018 13.3534 15.1564 13.2146 15.0492C13.1185 14.9747 13.0868 14.8753 13.1398 14.7628C13.2196 14.5934 13.5881 14.4915 13.7518 14.4593C13.7518 14.4593 16.3923 14.4812 16.5823 14.4452C16.6999 14.3239 16.9103 14.3405 17.086 14.3213C17.2315 14.2175 17.435 14.148 17.5958 14.1015C17.6286 14.089 17.661 14.077 17.6926 14.0657C17.9873 13.9607 18.2937 13.9051 18.6048 13.8752C18.9255 13.8447 19.2472 13.8585 19.5661 13.9022C19.7005 13.9205 19.8336 13.944 19.9658 13.9749C20.2025 14.0061 20.4378 14.0575 20.6745 14.1185L20.7219 14.1308C20.9712 14.1962 21.2275 14.2528 21.4856 14.2085C21.6957 14.1726 21.8978 14.0917 22.0915 14.0042L22.1167 13.9928C22.5427 13.7982 23.208 13.6514 23.6873 13.6514ZM19.9401 14.3628C19.783 14.3282 19.7158 14.5707 19.8735 14.6054C19.9852 14.6299 20.0798 14.6862 20.1437 14.7817L20.1505 14.7921C20.2363 14.9286 20.4532 14.8026 20.3668 14.6651C20.2696 14.5104 20.1186 14.4021 19.9401 14.3628ZM24.5438 14.2125C24.4884 14.1735 24.4045 14.2025 24.3723 14.2576C24.3369 14.3184 24.3601 14.386 24.412 14.4258L24.4173 14.4297C24.4649 14.4632 24.5113 14.5234 24.5171 14.585L24.5176 14.5928C24.5239 14.7541 24.7745 14.7549 24.7682 14.5928C24.7621 14.4341 24.6703 14.3016 24.5438 14.2125Z" fill="black"/>
</svg>
