<svg width="36" height="48" viewBox="0 0 36 48" fill="none" xmlns="http://www.w3.org/2000/svg">
<path fill-rule="evenodd" clip-rule="evenodd" d="M27.6224 27.1414C27.1879 25.0823 25.6471 23.4845 23.5749 22.6886C23.1766 22.4632 22.7904 21.4961 22.2551 21.319C22.1693 21.2906 22.3047 21.5166 22.2551 21.53C22.0781 21.5782 21.8797 21.5832 21.6842 21.4094C21.3349 21.0988 21.2253 20.1913 21.0129 19.7811C19.8927 17.618 17.0957 18.4643 16.721 20.8557C16.4597 21.026 16.0904 21.1761 15.806 21.3134C15.5131 21.4547 15.2555 21.7971 14.9537 21.9195C14.6844 22.0288 14.2407 21.9514 13.9694 22.0466C12.7214 22.4846 11.6644 23.0372 10.8357 24.1569C10.661 24.393 10.4642 24.6833 10.3053 24.9219C9.48607 25.8653 8.91706 26.9228 8.39299 28.0573C6.92676 31.3872 6.52795 35.0742 6.17014 38.6621C6.17828 39.2898 5.76188 41.0305 6.37775 41.3315C6.34094 41.3697 6.35427 41.4463 6.42257 41.4457C7.98416 41.4299 9.54213 41.5697 11.0795 41.8415C11.8213 41.9727 12.559 42.1525 13.3146 42.1821C14.883 42.1713 16.4458 41.9083 18.0121 42.1571C19.8952 42.1571 22.1836 42.1022 24.2784 42.0217C26.2362 41.9464 28.2046 42.1164 30.1381 41.7834C30.2912 41.7591 30.3659 41.5724 30.3338 41.4386C30.107 40.6117 29.9956 39.7606 29.8683 38.9142C29.8937 38.3713 29.8483 37.8046 29.6476 37.2989C29.1231 33.8855 28.4505 30.4942 27.6224 27.1414Z" fill="#D08B5B"/>
<path fill-rule="evenodd" clip-rule="evenodd" d="M22.2551 21.5426C22.3047 21.5291 22.1693 21.3032 22.2551 21.3316C22.7904 21.5087 23.1766 22.4757 23.5749 22.7011C25.6471 23.4971 27.1879 25.0949 27.6224 27.154C28.4505 30.5068 29.1231 33.898 29.6476 37.3115C29.8483 37.8171 29.8937 38.3839 29.8683 38.9267L29.8883 39.0604C30.0077 39.8626 30.1189 40.6677 30.3338 41.4511C30.3659 41.585 30.2912 41.7717 30.1381 41.7959C28.2265 42.1252 26.281 41.9628 24.3452 42.0318L23.9417 42.0469C21.9406 42.1205 19.7947 42.1697 18.0121 42.1697C16.4458 41.9209 14.883 42.1838 13.3146 42.1947C12.559 42.1651 11.8213 41.9852 11.0795 41.8541C9.54213 41.5823 7.98416 41.4425 6.42257 41.4583C6.35427 41.4589 6.34094 41.3822 6.37775 41.3441C5.76188 41.0431 6.17828 39.3024 6.17014 38.6746L6.20248 38.3515C6.55284 34.8659 6.97075 31.2999 8.39299 28.0698L8.43559 27.978C8.948 26.8782 9.50821 25.8524 10.3053 24.9344L10.354 24.8614C10.5033 24.6384 10.6785 24.382 10.8357 24.1694C11.6644 23.0498 12.7214 22.4971 13.9694 22.0592C14.2407 21.964 14.6844 22.0413 14.9537 21.9321C15.236 21.8176 15.4796 21.5107 15.7496 21.3558L15.7496 22.5112L19.6557 26.3605L21.8711 22.9621L22.0965 21.5703C22.1507 21.5669 22.2038 21.5566 22.2551 21.5426Z" fill="#8FA7DF"/>
<path fill-rule="evenodd" clip-rule="evenodd" d="M26.9909 31.6278C26.9496 31.8285 26.8917 32.0292 26.8147 32.2193C26.7405 32.4028 26.6288 32.5671 26.5518 32.7484C26.5415 32.7729 26.5246 32.7913 26.5042 32.8054L26.5106 32.8547L26.5164 32.904C26.5548 33.2368 26.598 33.5687 26.6354 33.9015L26.6535 34.0679C26.7271 34.7627 26.8432 35.454 26.9333 36.1469C27.0216 36.8255 27.1114 37.504 27.2075 38.1815C27.3067 38.8801 27.4078 39.5777 27.5258 40.2734C27.5756 40.5673 27.6276 40.8609 27.6818 41.1542L27.7236 41.3787C28.1543 41.4824 28.272 42.0829 27.8335 42.3046C27.6344 42.4048 27.3787 42.3807 27.2147 42.2232C27.0442 42.0591 27.0371 41.7632 26.9976 41.5409L26.9595 41.3343C26.6743 39.7812 26.4268 38.2102 26.3111 36.6351C26.2814 36.2284 26.2563 35.8213 26.24 35.4139C26.2246 35.0308 26.232 34.6476 26.226 34.2644L26.2241 34.1599C26.215 33.7513 26.2225 33.3433 26.2332 32.9347C26.2344 32.8849 26.2366 32.8352 26.2391 32.7851C26.2247 32.7682 26.2144 32.7481 26.21 32.7287L26.2044 32.703C26.1903 32.637 26.2062 32.5596 26.257 32.5123C26.2789 32.234 26.3076 31.9559 26.3155 31.6779C26.3161 31.655 26.349 31.6557 26.3509 31.6779C26.3693 31.9146 26.4062 32.152 26.4432 32.389C26.6807 32.198 26.8563 31.883 26.9599 31.6194C26.9674 31.6003 26.9953 31.6071 26.9909 31.6278ZM21.3702 20.5618C21.4097 20.7422 21.4876 20.9041 21.5921 21.0547C21.6419 21.1267 21.6986 21.1937 21.7665 21.2497C21.8247 21.2976 21.8911 21.3289 21.953 21.3706C22.0432 21.3565 22.1374 21.3906 22.2006 21.457L22.1906 21.36C22.1875 21.3286 22.2394 21.3224 22.2454 21.3527C22.5192 22.7342 22.7689 24.1166 22.9851 25.5081L23.0799 26.1226L23.169 26.6995C23.3171 27.6608 23.4602 28.6217 23.5681 29.5901C23.7117 30.8823 23.8325 32.178 23.9208 33.4755C24.0094 34.7821 24.0639 36.0896 24.1027 37.3988C24.1123 37.7288 24.1227 38.0585 24.1327 38.3885L24.1995 37.9939C24.2663 37.5993 24.3317 37.2043 24.3878 36.8079C24.589 35.3892 24.7499 33.9605 24.8285 32.5296C24.9005 31.2201 24.8764 29.8847 24.5434 28.6091C24.4594 28.2881 24.3568 27.9722 24.2329 27.6644C24.1126 27.3651 23.9487 27.0877 23.8194 26.7927C23.6691 26.4496 23.6241 26.1258 23.7014 25.7564C23.769 25.4345 23.8876 25.1317 23.9089 24.8004C23.9487 24.1855 23.7486 23.5899 23.466 23.0517C23.3915 22.9099 23.313 22.7699 23.231 22.6312C22.9828 22.2119 22.7029 21.808 22.4125 21.4207C22.3969 21.4 22.43 21.3772 22.447 21.3941C22.7117 21.6558 23.0012 21.9132 23.2394 22.1991C23.3552 22.3381 23.4682 22.4799 23.5752 22.6255C24.7496 22.8219 25.7587 23.5536 26.4485 24.5199C27.2313 25.6164 27.6272 26.9362 27.9202 28.2358C28.246 29.6803 28.5208 31.1378 28.8135 32.5894C29.1164 34.0914 29.4178 35.5934 29.7227 37.0951C29.8741 37.8405 30.0257 38.5861 30.1768 39.3319C30.2535 39.7095 30.334 40.0862 30.4181 40.4626C30.4613 40.6555 30.5077 40.848 30.5477 41.0415C30.5928 41.2598 30.5508 41.3994 30.4031 41.5597C30.3486 41.6192 30.2626 41.6183 30.195 41.5866L30.1738 41.5767L30.1534 41.5668C30.0697 41.5257 30.0042 41.4831 29.9521 41.3915C29.8948 41.2911 29.8857 41.1796 29.866 41.0678C29.8297 40.8621 29.7937 40.6564 29.7574 40.4504C29.7032 40.1423 29.6442 39.835 29.5842 39.5279L29.2829 37.9929C29.2026 37.5837 29.1222 37.1744 29.0413 36.7654C28.7524 35.3025 28.4632 33.84 28.174 32.3774C27.8964 30.9731 27.6507 29.5591 27.3346 28.1629L27.3166 28.0842L27.2983 28.0057C27.0157 26.8021 26.6208 25.6378 25.9042 24.6179C25.3527 23.8335 24.5869 23.1331 23.6848 22.7786C23.7484 22.8701 23.8094 22.9634 23.8676 23.0586C24.2332 23.656 24.5001 24.3652 24.4375 25.0766C24.4069 25.4241 24.2748 25.7657 24.2873 26.1161C24.2989 26.4273 24.4914 26.7007 24.6244 26.9715C24.9264 27.5852 25.1449 28.2374 25.2858 28.9065C25.5684 30.2501 25.5674 31.6325 25.4701 32.9964C25.3643 34.479 25.1634 35.9613 24.9346 37.4294C24.8172 38.1825 24.661 38.9293 24.5414 39.681C24.4823 40.0517 24.4018 40.4216 24.3314 40.7904L24.2979 40.9666C24.2791 41.0644 24.2596 41.1619 24.2371 41.2583L24.2232 41.3161V41.3264C24.2225 41.3975 24.2031 41.4564 24.1718 41.5034C24.129 41.6408 24.0757 41.7748 24.005 41.9035C23.9687 41.9693 23.9161 42.0062 23.8588 42.0197C23.8012 42.1515 23.6707 42.2529 23.5149 42.2523L21.4651 42.2445C20.2745 42.2398 19.0839 42.2319 17.8932 42.2254C17.5928 42.2238 17.2926 42.2182 16.9925 42.2104C16.7111 42.2025 16.4413 42.1687 16.1631 42.1336C15.8488 42.0942 15.6786 41.8716 15.7255 41.5575C15.7358 41.4883 15.7471 41.4194 15.7577 41.3506C15.6952 41.3712 15.6207 41.3615 15.5703 41.3124L15.523 41.2661C15.4575 41.2013 15.399 41.1377 15.3574 41.0512C15.3146 40.9623 15.2798 40.8684 15.2419 40.7776C15.1602 40.5822 15.0808 40.3862 15.0034 40.1892C14.8485 39.7953 14.6936 39.3999 14.5496 39.0019C14.2645 38.2138 14.0122 37.4138 13.7928 36.6047C13.4016 35.1613 13.1186 33.69 12.9402 32.2055L12.8975 31.8517L12.8851 31.7472C12.8175 31.1718 12.7605 30.5875 12.7875 30.0134C12.8041 29.6539 12.8598 29.2917 12.9941 28.956C13.118 28.6464 13.3092 28.3815 13.4911 28.1047L13.5119 28.0727L13.5328 28.04C13.6918 27.7886 13.8184 27.5258 13.8247 27.2205C13.8311 26.9106 13.7409 26.6091 13.64 26.319L13.6149 26.2475L13.598 26.2002C13.3834 25.6007 13.1391 25.0097 13.2197 24.3574C13.3387 23.3967 13.9208 22.6224 14.6532 22.0253C14.0018 22.1543 13.3571 22.4092 12.7881 22.7323C12.1161 23.1143 11.5111 23.6184 10.9893 24.1873C10.0034 25.2625 9.2995 26.5526 8.72332 27.8846C8.12016 29.2785 7.6729 30.7392 7.33584 32.219C6.99687 33.7072 6.76996 35.2192 6.61499 36.7372C6.53772 37.4927 6.47697 38.2501 6.42661 39.0079C6.40094 39.3961 6.38154 39.785 6.35149 40.1726C6.32144 40.56 6.30795 40.9532 6.21343 41.3302C6.1693 41.5059 5.87165 41.5237 5.83975 41.3302C5.76897 40.8981 5.78875 40.4512 5.80851 40.0136L5.8103 39.9738C5.82974 39.538 5.85509 39.1024 5.8851 38.6669C5.94648 37.7767 6.02845 36.8878 6.1355 36.0017C6.51077 32.8912 7.20282 29.7971 8.56025 26.9578C9.19938 25.6205 10.0197 24.321 11.1609 23.3554C11.7042 22.896 12.3167 22.5294 12.9768 22.2639C13.5671 22.0263 14.1668 21.9138 14.7941 21.9142C15.1086 21.6731 15.4463 21.463 15.7837 21.2835C15.804 21.2726 15.8253 21.2989 15.8085 21.3158C15.7997 21.3243 15.7912 21.333 15.7825 21.3412C15.8207 21.3437 15.8601 21.3615 15.8954 21.3988C16.0194 21.5287 16.1239 21.6912 16.2175 21.86C16.3599 22.0378 16.4957 22.2216 16.6379 22.3976C16.8654 22.6794 17.0982 22.9571 17.334 23.2326C17.7298 23.6957 18.1386 24.15 18.5648 24.586L18.636 24.6585C18.8569 24.8825 19.0808 25.1504 19.3421 25.3277L19.356 25.337C19.4663 25.4088 19.5445 25.4219 19.6385 25.3145C19.7239 25.2169 19.7951 25.1035 19.8682 24.9958L19.8851 24.9711C20.2585 24.4284 20.6047 23.8658 20.918 23.2865C21.0608 23.0229 21.1967 22.7555 21.3255 22.4851L21.364 22.4039C21.4341 22.2548 21.5102 22.1086 21.568 21.9551C21.5815 21.9192 21.5946 21.8832 21.6075 21.8475C21.4103 21.7182 21.2576 21.4382 21.2022 21.2191C21.1446 20.9914 21.1737 20.7578 21.2763 20.5496C21.2957 20.5105 21.3608 20.5202 21.3702 20.5618ZM11.6429 29.8121C11.6156 30.6775 11.5991 31.5439 11.5583 32.4087L11.5443 32.704C11.6078 32.7748 11.645 32.8564 11.6153 32.9686C11.6038 33.0115 11.5696 33.0503 11.527 33.0647L11.5138 33.3392C11.4534 34.5743 11.3826 35.8068 11.2532 37.0387C11.0914 38.5805 10.9042 40.1197 10.7174 41.6587C10.6908 41.8766 10.5393 42.0494 10.3036 42.0175C10.0651 41.9852 9.96839 41.7776 9.99969 41.5613C10.1227 40.7124 10.241 39.8629 10.3446 39.0113L10.4626 38.041C10.6106 36.8281 10.762 35.6154 10.9365 34.4063C11.0094 33.901 11.0851 33.396 11.1612 32.8909L11.1346 32.8564C11.026 32.7153 10.9136 32.5772 10.8025 32.4382C10.5891 32.1701 10.3784 31.9043 10.1828 31.6237C10.1731 31.6096 10.1928 31.589 10.2069 31.5996C10.481 31.8022 10.7405 32.0189 11.0016 32.239L11.2301 32.4325C11.3615 31.5598 11.4917 30.6869 11.6078 29.8121C11.6106 29.7902 11.6435 29.7886 11.6429 29.8121ZM15.5869 21.5297C15.4219 21.6852 15.2532 21.8374 15.087 21.9921L15.0261 22.049L14.9655 22.1062C14.6734 22.3834 14.3935 22.6719 14.1603 23.0032C13.7321 23.6115 13.477 24.3533 13.6551 25.096C13.8028 25.7112 14.1418 26.2689 14.2329 26.8995C14.2785 27.2154 14.2563 27.5329 14.1374 27.8313C14.0159 28.1357 13.8219 28.3965 13.6475 28.6711C13.2688 29.2679 13.2172 29.9229 13.2548 30.6143C13.2942 31.3363 13.3771 32.0586 13.4795 32.7741C13.6867 34.2238 13.999 35.6585 14.4125 37.0634C14.6194 37.767 14.8638 38.4555 15.107 39.1469C15.2281 39.491 15.3693 39.827 15.5148 40.1613C15.5915 40.3373 15.6701 40.5123 15.7499 40.687C15.7205 40.4403 15.7205 40.187 15.7061 39.9419C15.6854 39.5906 15.6591 39.2399 15.635 38.8889C15.5859 38.1765 15.5421 37.4636 15.503 36.7506C15.3643 34.2082 15.2623 31.6635 15.2698 29.117C15.2736 27.8436 15.2995 26.5701 15.3543 25.2979C15.38 24.6988 15.4297 24.1003 15.4746 23.5021L15.4842 23.3739C15.5239 22.8369 15.5715 22.2987 15.6532 21.7664C15.629 21.7118 15.608 21.6565 15.5924 21.5998L15.5869 21.5785L15.5909 21.5791C15.5872 21.5625 15.5859 21.5459 15.5869 21.5297ZM17.0135 19.3416C17.0169 19.3269 17.0378 19.3282 17.0416 19.3416C17.1346 19.6547 17.1017 19.9992 17.0216 20.3142C16.9784 20.4848 16.9171 20.6504 16.8429 20.8101L16.8169 20.866C16.7534 21.002 16.6818 21.1421 16.558 21.2269C16.5064 21.2623 16.4141 21.2644 16.3624 21.2269L16.3361 21.2069C16.3317 21.2035 16.3275 21.2 16.3233 21.1965C16.2751 21.1561 16.2513 21.0669 16.2735 21.008C16.3308 20.8561 16.4607 20.7447 16.5505 20.6094C16.6301 20.4892 16.7005 20.3624 16.759 20.2306C16.8851 19.9453 16.9418 19.6425 17.0135 19.3416Z" fill="black"/>
<path fill-rule="evenodd" clip-rule="evenodd" d="M19.289 7.47363C20.6874 7.47363 22.3651 8.15323 22.5078 8.16682L22.5116 8.16703C22.5867 8.16703 22.8799 8.391 23.3914 8.83895L22.8374 9.92213L22.8822 9.96505C23.0968 10.1712 23.2799 10.3592 23.4245 10.5073C24.6048 11.717 24.817 16.4666 24.5388 18.1229C24.2606 19.7793 23.7454 21.4 21.3468 21.4C18.9481 21.4 16.2796 19.9542 15.8685 19.5039C15.5945 19.2037 15.2866 19.0599 14.945 19.0725C14.931 19.0547 14.9171 19.037 14.9033 19.0193L14.853 19.0122C14.3802 18.9436 14.0415 18.8512 13.8367 18.7351C13.4369 18.5083 12.9974 17.3159 12.9974 17.0533C12.9974 16.7933 12.3411 14.9017 12.3279 14.7015L12.3277 14.696C12.3277 14.5286 11.4704 13.7594 11.4704 13.5151C11.4704 13.2708 11.2975 13.2856 11.4704 12.4248L11.5206 12.1719C11.7045 11.2553 12.0644 9.73763 13.4369 9.07815C14.945 8.35344 17.8766 7.47363 19.289 7.47363Z" fill="#D08B5B"/>
<path fill-rule="evenodd" clip-rule="evenodd" d="M22.8711 9.86522C22.5474 9.87694 22.1964 9.89233 21.8329 9.91255C21.072 9.95489 20.2649 10.0179 19.5428 10.1112C18.8056 10.2064 18.2124 10.3266 17.8488 10.4649C17.6378 10.5452 17.3823 10.7777 17.1195 11.2389C16.8654 11.6848 16.6586 12.2497 16.4965 12.8291C16.3359 13.4032 16.2273 13.9617 16.1588 14.3793C16.1247 14.5872 16.1009 14.7581 16.0857 14.8758C16.0782 14.9347 16.0728 14.9801 16.0693 15.0101L16.0656 15.0433L16.0648 15.0507L16.0647 15.0518L16.0647 15.052L16.0647 15.052L16.0647 15.0521L16.0219 15.4721L15.6411 15.6529C15.6412 15.6529 15.6412 15.6529 15.641 15.653L15.6408 15.6531L15.6405 15.6532L15.6404 15.6533L15.6402 15.6533L15.6383 15.6543L15.6229 15.6618C15.6083 15.6691 15.5853 15.6806 15.5551 15.6962C15.4947 15.7275 15.406 15.7749 15.2987 15.8366C15.0823 15.961 14.7981 16.1389 14.5182 16.3559L14.4886 16.379L14.4887 16.4338C14.4891 16.5295 14.4916 16.66 14.4994 16.8006C14.5074 16.9429 14.5203 17.0853 14.5397 17.208C14.5465 17.251 14.5536 17.2886 14.5608 17.3205C14.623 17.3461 14.7099 17.3727 14.8164 17.3968C14.94 17.4246 15.0632 17.443 15.1578 17.4545C15.2043 17.4601 15.2421 17.4638 15.2671 17.466L15.2942 17.4682L15.2985 17.4685L15.2987 17.4686L15.2989 17.4686L15.2993 17.4686L15.2994 17.4686L15.2997 17.4686L15.8202 17.5019L15.9694 18.0029L16.1642 18.6566L16.2051 18.7941L16.1924 18.9371L16.1226 19.723C16.0061 19.6406 15.9198 19.569 15.8685 19.5129C15.5945 19.2127 15.2866 19.0689 14.945 19.0815L14.9033 19.0284L14.853 19.0212C14.7937 19.0126 14.7365 19.0036 14.6814 18.9943L14.6856 18.9473L14.6708 18.8974C14.6117 18.8867 14.5498 18.8743 14.4867 18.8601C14.304 18.8189 14.0802 18.7556 13.8725 18.6553C13.7865 18.6137 13.676 18.5531 13.5664 18.4662C13.3302 18.1268 13.1185 17.593 13.035 17.275C13.0189 17.1395 13.0085 17.0053 13.0018 16.8841C12.9949 16.7608 12.9914 16.6456 12.9898 16.5485C12.9415 16.4476 12.9111 16.3275 12.9132 16.1869C12.9178 15.8827 13.0856 15.6638 13.1709 15.5631C13.2783 15.4362 13.4227 15.3071 13.5993 15.1703C13.9493 14.899 14.2951 14.6833 14.5511 14.5362C14.5761 14.5218 14.6003 14.508 14.6237 14.4949C14.6384 14.3913 14.6566 14.2707 14.6786 14.1365C14.7528 13.684 14.8721 13.0682 15.052 12.425C15.2304 11.7873 15.4768 11.092 15.8162 10.4964C16.1468 9.91606 16.625 9.32559 17.3154 9.06292C17.8533 8.85828 18.5941 8.72124 19.3507 8.62352C20.1226 8.52385 20.9694 8.45828 21.7496 8.41487C22.1237 8.39406 22.4844 8.37824 22.8166 8.36621C22.9604 8.47774 23.152 8.63833 23.3914 8.84797L22.8711 9.86522ZM14.4894 17.2846C14.4896 17.2845 14.4926 17.2862 14.4974 17.2901C14.4916 17.2866 14.4892 17.2847 14.4894 17.2846Z" fill="#9DDADB"/>
<path fill-rule="evenodd" clip-rule="evenodd" d="M13.2042 9.04419C13.9564 8.24382 18.2266 7.00584 20.387 7.26827L20.4518 7.27668C20.6242 7.2986 20.7941 7.33179 20.9618 7.37687C21.5038 7.50378 22.0637 7.69594 22.5116 8.01691C22.8854 8.27948 24.0649 8.70829 23.7173 9.39519C23.8462 9.64001 23.8943 9.94248 23.8072 10.1836C23.7962 10.2669 23.7706 10.3436 23.7378 10.4231C24.0132 10.8305 24.2312 11.2912 24.4077 11.7294C24.7162 12.8322 24.9081 13.9799 24.9362 15.1051C25.0297 17.2428 24.7959 19.7962 22.9387 21.1786C21.8168 22.0545 20.0594 22.0839 18.7986 20.9979C18.7271 20.913 18.3906 20.6839 18.5029 20.6437C18.5363 20.6791 18.5707 20.7135 18.6056 20.7474C18.604 20.7436 18.6037 20.7399 18.6044 20.7358L18.5715 20.7059C18.5095 20.6484 18.4293 20.5651 18.5207 20.5814C18.5247 20.5861 18.5291 20.5902 18.5335 20.5949C18.5528 20.6065 18.5674 20.6166 18.5788 20.6255L18.5847 20.6302L18.5829 20.6283C18.5302 20.572 18.4986 20.5146 18.5774 20.5513L18.5878 20.5564C18.6228 20.5933 18.6584 20.6287 18.6946 20.6631C18.694 20.6591 18.6946 20.655 18.6968 20.6506L18.6631 20.6179C18.6301 20.5855 18.6351 20.5854 18.6512 20.5592C18.5811 20.4607 18.712 20.5192 18.7212 20.5576C18.803 20.5382 18.8749 20.6923 18.9276 20.711C21.2388 22.4923 24.5928 20.9118 24.5385 15.9482L24.5377 15.8511C24.5218 14.2639 24.3886 12.6326 23.7337 11.1959C23.67 11.0575 23.5988 10.9229 23.5204 10.7926C23.4664 10.6949 23.4086 10.5997 23.3465 10.5071C23.1725 10.493 23.0007 10.461 22.8314 10.4116C22.7733 10.3968 22.7158 10.3806 22.6584 10.3615C21.8189 10.4074 20.998 10.4573 20.1562 10.5046L19.8932 10.5211C19.18 10.567 18.4425 10.6406 17.8669 11.0829C17.3023 11.4855 17.2997 12.2794 16.8163 12.7214C16.127 13.1904 16.122 13.6133 15.9892 14.3045C15.9991 14.8255 16.3594 15.5825 15.6981 15.8018C15.8097 15.9612 15.6542 15.8846 15.6419 15.8287C15.6407 15.829 15.6394 15.8293 15.6385 15.8293C15.7379 16.0146 15.5918 15.8979 15.5789 15.8384C15.571 15.8362 15.5632 15.8306 15.5554 15.8227C15.6556 15.9851 15.4937 15.8714 15.5033 15.8418C15.3097 15.5436 14.9114 15.4973 14.6306 15.5763C14.6272 15.587 14.6147 15.5879 14.6069 15.5823C13.4129 15.8417 13.721 18.3195 14.9445 18.08C14.9969 18.0693 14.9956 18.0945 15.006 18.0969C14.9778 18.0225 15.0575 18.0528 15.0566 18.0684L15.0615 18.0681C15.0653 18.0678 15.0637 18.0674 15.0666 18.0684C15.0393 17.9162 15.1931 18.1367 15.1809 18.1457C15.1856 18.1429 15.1909 18.1413 15.1956 18.1407L15.1903 18.1263C15.1648 18.0581 15.167 18.0864 15.1672 18.0474C15.148 17.9992 15.1466 18.0203 15.1511 17.9888C15.2185 17.9365 15.2384 18.0953 15.2609 18.1069C15.2223 18.053 15.253 18.009 15.2893 18.0383C15.5649 18.6194 15.9209 19.1653 16.3809 19.5954C16.4312 19.6352 16.4821 19.6743 16.5349 19.7113C16.7305 19.8821 17.0307 19.992 17.2139 20.1434C17.2139 20.1459 17.2126 20.149 17.2108 20.1521L17.215 20.1559L17.2192 20.16L17.2829 20.1907C17.3017 20.2066 17.3185 20.2245 17.3335 20.2442C17.3494 20.2627 17.3635 20.283 17.3754 20.3046C17.3813 20.3309 17.3682 20.3419 17.3432 20.3306C17.3322 20.3269 17.3213 20.3225 17.3104 20.3184C17.311 20.3193 17.3113 20.32 17.312 20.3206C17.3155 20.326 17.3398 20.3824 17.3119 20.3732L17.3085 20.3719C17.2932 20.3663 17.2779 20.36 17.2629 20.3541C17.2807 20.3763 17.2969 20.4004 17.3113 20.4208C17.3266 20.4368 17.336 20.4555 17.3398 20.4768C17.3391 20.4887 17.3326 20.4937 17.3207 20.4922C17.3026 20.4862 17.2848 20.48 17.267 20.4734L17.272 20.4831C17.2846 20.5079 17.3025 20.5496 17.2707 20.5357C17.2435 20.5272 17.2173 20.5175 17.1911 20.5069C17.1889 20.5113 17.1845 20.5128 17.1758 20.5088C17.0924 20.479 17.0118 20.4427 16.9347 20.3998C16.8669 20.3503 16.7985 20.3018 16.7304 20.2526C16.6664 20.2141 16.6045 20.1712 16.5455 20.123C16.1505 19.8673 15.8048 19.5424 15.5304 19.1806C15.0717 19.5789 14.1544 19.1983 13.587 18.8865C13.0851 18.6079 12.8878 18.0926 12.8368 17.5371C12.7308 16.7892 12.1211 16.5332 12.1635 14.8922C12.1626 14.8925 12.1616 14.8925 12.1604 14.8925C12.1382 14.8859 12.1167 14.8772 12.0964 14.8659C12.0755 14.8559 12.0558 14.844 12.0373 14.8296L12.0145 14.7979C12.0027 14.7914 11.9921 14.7845 11.984 14.7776L11.9797 14.783C11.9664 14.7992 11.9754 14.7749 11.9761 14.7701L11.9365 14.7161C11.8426 14.5875 11.7396 14.4433 11.6557 14.328L11.653 14.3326C11.6511 14.3362 11.6501 14.3387 11.651 14.3399C11.4513 14.0522 11.2634 13.7047 11.2112 13.3683C11.1496 13.1091 11.1737 12.8421 11.2275 12.6021C11.4579 11.7615 12.2129 9.85944 13.2042 9.04419ZM18.6246 20.6686L18.6121 20.6574L18.6231 20.6712C18.6288 20.6783 18.6347 20.6848 18.6444 20.6913C18.6437 20.6891 18.6437 20.6869 18.644 20.6844C18.6376 20.6795 18.6311 20.6742 18.6246 20.6686ZM20.3774 7.69061C18.9124 7.56433 17.4714 7.8879 16.0733 8.27958L15.9769 8.30736C15.1819 8.53476 14.3414 8.73939 13.6696 9.22611C12.731 9.9468 12.2463 11.0933 11.8234 12.1518C11.4541 12.9383 11.6429 13.8251 12.1994 14.3743C12.2573 13.8286 12.3561 13.2988 12.5103 12.7733C12.5426 12.6912 12.5182 12.6643 12.5876 12.6536C12.6924 14.0698 12.1762 15.1161 13.1978 16.7944C13.6411 17.5863 13.1279 18.1658 14.3797 18.5825L14.4136 18.5955C14.6744 18.6941 14.9592 18.772 15.2146 18.7168L15.1918 18.6795C15.1684 18.6411 15.1613 18.6224 15.1953 18.606C15.1944 18.6041 15.1931 18.6022 15.1918 18.6C15.1644 18.5481 15.1378 18.4955 15.1125 18.4422C15.1022 18.4457 15.0919 18.4482 15.0813 18.451C15.0882 18.4638 15.0891 18.4767 15.0698 18.4811C15.0009 18.5047 14.9303 18.5142 14.8579 18.5098L14.8424 18.5086C14.7606 18.5036 14.7091 18.4887 14.6631 18.4748C14.6478 18.4723 14.6325 18.4698 14.6175 18.4667C14.4693 18.4337 14.3124 18.3499 14.2109 18.2669C13.0534 17.6079 13.173 15.3644 14.5997 15.1524C14.629 13.7399 15.2991 11.3568 16.4113 10.0109C17.4167 8.77279 20.1612 8.23618 22.0707 8.42539C22.0985 8.43463 22.1263 8.44396 22.1542 8.45338C22.4487 8.47962 22.7295 8.61119 23.0243 8.67231C22.8126 8.51328 22.5725 8.40736 22.3252 8.31734C21.8324 8.01515 21.2675 7.85165 20.7217 7.73633C20.6086 7.70846 20.494 7.69312 20.3774 7.69061ZM14.5344 16.2871C14.6111 16.2453 14.6023 16.2856 14.62 16.2739C15.1717 16.2288 15.7667 16.7131 16.0751 17.1168C16.0508 17.1422 15.9849 17.067 15.9733 17.0552C15.9717 17.0567 15.9699 17.058 15.968 17.0586L15.9766 17.0707C16.1016 17.2506 15.8538 17.039 15.8306 16.9953C15.8265 16.9975 15.8224 16.9988 15.8178 16.9979C15.8374 17.0172 15.8974 17.0675 15.9077 17.1034L15.9236 17.1166C16.0736 17.2454 16.0612 17.3423 15.8909 17.1594C15.8949 17.1679 15.8965 17.1757 15.8937 17.182L15.8995 17.1859C15.9833 17.2445 16.0521 17.4081 15.8771 17.2402C15.8953 17.3628 15.7037 17.1258 15.6975 17.1275C15.3659 16.8665 14.8776 16.6127 14.4616 16.5786L14.4473 16.5769C14.371 16.5671 14.3349 16.5444 14.3617 16.4944C14.2677 16.4719 14.2897 16.4255 14.3342 16.427C14.2679 16.3833 14.3276 16.3415 14.3661 16.3579C14.3396 16.2844 14.4457 16.3333 14.4554 16.3231C14.5104 16.238 14.5253 16.309 14.5344 16.2871ZM13.3779 11.736C13.6429 11.6387 14.4257 11.93 14.363 12.3158C14.3257 12.4044 14.2029 12.4552 14.1165 12.4052L14.0038 12.3293C13.8076 12.1976 13.6307 12.0821 13.4201 11.9672C13.3055 11.9102 13.2562 11.7892 13.3779 11.736ZM14.8856 11.1627L14.7833 11.0959C14.231 10.7335 13.4502 10.1844 14.8349 10.7525C14.9927 10.8204 15.2024 10.8605 15.2885 11.0112C15.4238 11.2889 15.0678 11.3075 14.8856 11.1627ZM14.9477 9.53671C14.9034 9.3681 15.4548 9.56595 15.6154 9.61812L15.6398 9.62738C15.796 9.68571 15.975 9.73983 16.0684 9.87493C16.1779 10.0616 15.9564 10.1003 15.8191 10.016C15.5378 9.83166 15.2294 9.69261 14.9477 9.53671ZM16.35 8.75127C16.0396 8.41144 16.8704 8.73699 16.9948 8.82735L16.9984 8.83002C17.0912 8.89555 17.0724 9.0367 16.9852 9.07816C16.737 9.08289 16.5543 8.87548 16.35 8.75127ZM17.7626 8.37894C17.2691 8.02341 17.9192 8.19252 18.1449 8.33185C18.2988 8.4679 18.1403 8.69757 17.7626 8.37894Z" fill="black"/>
<path fill-rule="evenodd" clip-rule="evenodd" d="M20.5688 17.6062C20.7439 17.3181 21.1171 18.0239 21.1568 18.1453C21.1919 18.2528 21.2151 18.3629 21.2269 18.4743C21.3626 18.5048 21.5036 18.5048 21.6427 18.4781C21.8494 18.4385 21.9757 18.3273 22.1554 18.2318C22.2795 18.1659 22.4359 18.2432 22.5004 18.3526C22.5763 18.4814 22.528 18.615 22.4281 18.711C22.2388 18.8931 21.8663 18.9349 21.6192 18.8865C21.4776 18.8589 21.3478 18.8057 21.2332 18.7285C21.2324 18.7429 21.2319 18.7574 21.2308 18.7717L21.2286 18.7967C21.2096 18.9986 21.1542 19.2524 20.9974 19.3838C20.7403 19.5993 20.423 19.1849 20.6728 18.9696L20.6806 18.9632C20.8358 18.8377 20.8697 18.5009 20.8614 18.3154C20.8559 18.1944 20.8338 18.0717 20.7956 17.9564L20.7878 17.9335C20.7763 17.9009 20.6509 17.592 20.6055 17.6313L20.6034 17.6335C20.5847 17.6558 20.5545 17.6298 20.5688 17.6062ZM21.9668 15.9804C22.2031 16.1241 22.5633 16.4592 22.309 16.8155C22.0097 17.1297 21.5788 16.7695 21.3665 16.6066C21.1696 16.4803 20.9484 16.805 21.131 16.9525C22.6654 18.0889 23.2881 16.018 22.0863 15.8114C21.954 15.7886 21.9049 15.9359 21.9668 15.9804ZM19.443 14.652C19.674 14.611 19.9106 14.6684 20.1017 14.8036L20.1162 14.814C20.3004 14.9488 20.5064 15.1853 20.4007 15.4176C20.3583 15.5108 20.2313 15.5254 20.1507 15.4832C20.0165 15.4128 19.9922 15.2396 19.8725 15.1438C19.7743 15.0652 19.6421 15.0175 19.5157 15.029C19.2186 15.056 19.0359 15.3491 18.9436 15.6017C18.9318 15.634 18.8844 15.6466 18.8659 15.6119C18.6483 15.2051 19.0334 14.7247 19.443 14.652ZM23.1429 14.4984C23.5853 14.462 24.1032 14.9209 23.9867 15.3881C23.9309 15.6123 23.5984 15.6058 23.5393 15.3881C23.5068 15.2683 23.5101 15.1622 23.4239 15.0627C23.3527 14.9806 23.2516 14.9328 23.1429 14.9402C23.023 14.9483 22.9125 15.0081 22.8285 15.0923C22.7527 15.1684 22.7074 15.2796 22.6288 15.3469C22.6095 15.3634 22.5836 15.3645 22.5645 15.3469C22.4293 15.2222 22.5104 14.9626 22.5962 14.8324C22.7188 14.6461 22.9186 14.5169 23.1429 14.4984ZM18.6004 13.8233C18.8842 13.5719 19.4 13.3292 19.7828 13.4529C20.0028 13.524 20.0988 13.8787 19.8531 13.9912C19.5686 14.1213 19.2406 14.0684 18.9511 14.2033C18.8295 14.26 18.7151 14.3309 18.6305 14.4348C18.5638 14.5167 18.4959 14.6245 18.3995 14.6717C18.3741 14.6841 18.3398 14.6844 18.3195 14.6614C18.108 14.4221 18.4158 13.9868 18.6004 13.8233ZM22.655 13.4404C22.8304 13.3912 23.025 13.3922 23.2032 13.4231C23.3814 13.454 23.5623 13.5279 23.7077 13.6356L23.7246 13.6482C23.8834 13.7679 24.0729 13.9421 24.0627 14.1541C24.0542 14.3312 23.868 14.451 23.7073 14.3582C23.5762 14.2825 23.5146 14.1309 23.4036 14.0299C23.3121 13.9466 23.2045 13.8809 23.0898 13.8349C22.9623 13.7838 22.8347 13.7598 22.6979 13.7575C22.5926 13.7558 22.4866 13.7903 22.3833 13.8014C22.3918 13.8189 22.3101 13.8107 22.2633 13.7952C22.2286 13.7804 22.2284 13.7366 22.2404 13.7081C22.3 13.5671 22.517 13.4791 22.655 13.4404Z" fill="black"/>
</svg>
