<svg width="36" height="48" viewBox="0 0 36 48" fill="none" xmlns="http://www.w3.org/2000/svg">
<path fill-rule="evenodd" clip-rule="evenodd" d="M22.8154 22.2386C22.2357 21.8165 21.9482 21.1254 21.7319 21.0077C21.5728 20.9212 21.5757 20.324 21.2567 20.1126C20.8286 19.829 19.4645 19.618 18.9683 19.5786C18.4919 19.5407 17.6634 19.6203 17.2165 19.7948C16.4712 20.0857 16.1739 20.6408 15.8457 21.3559C15.8457 21.3559 23.2137 22.5286 22.8154 22.2386Z" fill="#D08B5B"/>
<path fill-rule="evenodd" clip-rule="evenodd" d="M12.0041 22.7314H23.7838L27.8612 26.3601L29.6709 41.6121L27.0968 42.4139L11.1922 42.6798L6.22497 41.2749L5.91504 30.6583L12.0041 22.7314Z" fill="#78E185"/>
<path fill-rule="evenodd" clip-rule="evenodd" d="M28.0143 38.8421C27.9322 38.8011 27.8467 38.7542 27.753 38.751C27.592 38.7454 27.5918 38.4948 27.753 38.5005C27.8935 38.5054 28.017 38.564 28.1407 38.6258C28.285 38.6979 28.158 38.9139 28.0143 38.8421ZM27.753 31.7914C27.8628 31.7915 27.9735 31.8053 28.0579 31.8822C28.108 31.9279 28.104 32.0131 28.0579 32.0593C28.0084 32.1087 27.9308 32.1048 27.8808 32.0593C27.8971 32.0741 27.8809 32.0594 27.875 32.0561C27.8736 32.0554 27.8728 32.0549 27.8724 32.0545C27.8712 32.0542 27.8699 32.054 27.8679 32.0534C27.8548 32.0501 27.8419 32.0469 27.8287 32.0445C27.8284 32.0452 27.8007 32.0427 27.7942 32.0424C27.7804 32.0419 27.7667 32.0419 27.753 32.0419C27.6851 32.0418 27.6278 31.9846 27.6278 31.9166C27.6278 31.849 27.6853 31.7913 27.753 31.7914ZM26.5757 34.6011C26.5398 34.7585 26.2985 34.6915 26.3342 34.5345C26.3862 34.3064 26.3768 34.0726 26.3342 33.8436C26.3049 33.6858 26.5463 33.6188 26.5757 33.777C26.6267 34.0517 26.6381 34.3273 26.5757 34.6011ZM26.2594 25.5988C26.0729 25.5545 25.8885 25.5493 25.6978 25.5492C25.5364 25.5492 25.5366 25.2987 25.6978 25.2987C25.9105 25.2988 26.1182 25.3079 26.326 25.3573C26.4829 25.3946 26.4161 25.636 26.2594 25.5988ZM25.6346 31.7001C25.5264 31.646 25.4182 31.5919 25.3101 31.5378C25.1657 31.4656 25.2927 31.2497 25.4364 31.3215L25.761 31.4839C25.9052 31.556 25.7783 31.772 25.6346 31.7001ZM25.5895 36.6329C25.4523 36.8308 25.2595 36.9537 25.028 37.0151C24.8718 37.0565 24.8057 36.8148 24.9614 36.7736C25.1269 36.7297 25.274 36.6497 25.3733 36.5065C25.4646 36.3748 25.6816 36.5002 25.5895 36.6329ZM24.7243 27.8137C24.6872 27.7443 24.6313 27.715 24.562 27.7134C24.4009 27.7098 24.4008 27.4593 24.562 27.463C24.72 27.4665 24.865 27.5459 24.9405 27.6873C25.0165 27.8295 24.8003 27.956 24.7243 27.8137ZM23.1362 29.5163C23.0913 29.5653 23.0042 29.564 22.9591 29.5163C22.9315 29.4872 22.9082 29.4546 22.89 29.4188C22.883 29.4053 22.8765 29.3915 22.8688 29.3783C22.8654 29.3724 22.8616 29.3666 22.8578 29.361C22.8564 29.3598 22.8537 29.357 22.8509 29.354C22.8028 29.3031 22.804 29.228 22.8509 29.1769C22.8958 29.128 22.9829 29.1292 23.028 29.1769C23.0556 29.2061 23.0789 29.2387 23.0971 29.2744C23.1041 29.288 23.1106 29.3018 23.1183 29.315C23.1217 29.3208 23.1255 29.3266 23.1293 29.3323C23.1307 29.3334 23.1334 29.3362 23.1362 29.3392C23.1843 29.3901 23.1831 29.4652 23.1362 29.5163ZM23.0026 33.2151C22.8396 33.2897 22.6607 33.2897 22.4977 33.2151C22.4359 33.1868 22.4213 33.0976 22.4528 33.0437C22.4893 32.9813 22.5626 32.9707 22.6241 32.9988C22.698 33.0326 22.8024 33.0326 22.8763 32.9988C22.938 32.9706 23.0106 32.9806 23.0476 33.0437C23.0793 33.098 23.0641 33.1869 23.0026 33.2151ZM22.5579 35.8332C22.5298 35.8995 22.4693 35.9348 22.3986 35.9375C22.3285 35.9401 22.2764 35.878 22.2734 35.8122C22.2715 35.7698 22.2945 35.7335 22.3274 35.711C22.3275 35.7087 22.3275 35.7064 22.3275 35.704C22.3276 35.6338 22.3849 35.5818 22.4527 35.5788C22.5203 35.5757 22.5779 35.6385 22.5779 35.704C22.5779 35.7482 22.5752 35.7921 22.5579 35.8332ZM21.9118 39.9954C21.712 39.9986 21.5168 40.0463 21.3169 40.0495C21.1555 40.0521 21.156 39.8016 21.3169 39.799C21.5168 39.7958 21.712 39.7481 21.9118 39.7449C22.0733 39.7423 22.0728 39.9928 21.9118 39.9954ZM21.0809 23.9435C20.964 24.0549 20.8195 24.1098 20.677 24.1795C20.5327 24.25 20.4059 24.0339 20.5506 23.9632C20.6713 23.9042 20.8049 23.8606 20.9039 23.7664C21.0206 23.6551 21.1979 23.8321 21.0809 23.9435ZM20.767 26.8307C20.6849 26.7897 20.5994 26.7428 20.5057 26.7395C20.3447 26.7339 20.3445 26.4834 20.5057 26.4891C20.6462 26.4939 20.7697 26.5526 20.8934 26.6144C21.0377 26.6864 20.9108 26.9024 20.767 26.8307ZM19.2618 38.4184C19.2247 38.349 19.1688 38.3197 19.0995 38.3181C18.9383 38.3145 18.9383 38.064 19.0995 38.0676C19.2575 38.0712 19.4025 38.1506 19.478 38.292C19.554 38.4343 19.3378 38.5606 19.2618 38.4184ZM18.7405 32.9791C18.6907 32.9333 18.6942 32.8483 18.7405 32.802C18.7946 32.7479 18.8487 32.6938 18.9028 32.6397C18.9523 32.5902 19.0298 32.5938 19.0798 32.6397C19.1297 32.6854 19.1262 32.7704 19.0798 32.8168C19.0257 32.8709 18.9717 32.925 18.9176 32.9791C18.8681 33.0286 18.7905 33.025 18.7405 32.9791ZM18.1259 41.4563C17.9453 41.452 17.776 41.4002 17.6059 41.3436C17.4535 41.2928 17.5192 41.051 17.6725 41.102C17.8203 41.1512 17.9688 41.2021 18.1259 41.2058C18.2871 41.2095 18.2872 41.46 18.1259 41.4563ZM17.3147 36.0998C17.1515 36.0953 17.0161 36.0121 16.9016 35.9008C16.7859 35.7882 16.9631 35.6112 17.0787 35.7237C17.1442 35.7874 17.2198 35.8467 17.3147 35.8493C17.4758 35.8538 17.4759 36.1043 17.3147 36.0998ZM17.8185 29.2113C17.8204 29.278 17.8486 29.3495 17.89 29.3933C18.0006 29.5105 17.8238 29.6879 17.7129 29.5704C17.6215 29.4736 17.5719 29.3439 17.5681 29.2113C17.5634 29.0498 17.8139 29.0505 17.8185 29.2113ZM15.9086 23.7558C15.8562 23.6532 15.7875 23.5328 15.6831 23.4761C15.5412 23.3991 15.6677 23.1829 15.8094 23.2598C15.9514 23.3369 16.053 23.4888 16.1248 23.6294C16.198 23.7728 15.9819 23.8994 15.9086 23.7558ZM15.584 26.3608C15.5259 26.3591 15.4682 26.3492 15.4122 26.334C15.3883 26.3275 15.3646 26.32 15.3406 26.3135C15.3304 26.3107 15.2868 26.3053 15.3136 26.3067C15.2458 26.3031 15.1884 26.2523 15.1884 26.1815C15.1884 26.1164 15.246 26.0526 15.3136 26.0562C15.4065 26.0612 15.491 26.1077 15.584 26.1103C15.745 26.1149 15.7451 26.3653 15.584 26.3608ZM14.7727 30.3646H14.5023C14.3409 30.3646 14.3412 30.1141 14.5023 30.1141H14.7727C14.9341 30.1141 14.9338 30.3646 14.7727 30.3646ZM14.4573 41.4391C14.3753 41.4802 14.2786 41.5191 14.2122 41.5819C14.0951 41.6927 13.9178 41.5157 14.0352 41.4048C14.1198 41.3248 14.2279 41.2744 14.3309 41.2229C14.3916 41.1925 14.4662 41.2062 14.5022 41.2678C14.5348 41.3235 14.5178 41.4089 14.4573 41.4391ZM13.8531 38.2742C13.8426 38.2713 13.8315 38.2693 13.8209 38.2678C13.7783 38.262 13.7338 38.2641 13.691 38.264C13.5297 38.2639 13.5299 38.0134 13.691 38.0135C13.818 38.0136 13.9502 38.0154 14.05 38.1043C14.1007 38.1495 14.0958 38.2357 14.05 38.2814C14.0002 38.3312 13.9234 38.3264 13.8729 38.2814C13.8783 38.2862 13.86 38.2761 13.8531 38.2742ZM13.6911 34.0176C13.7275 33.9426 13.728 33.8937 13.7281 33.8103C13.7282 33.6489 13.9786 33.6491 13.9785 33.8103C13.9784 33.9314 13.9604 34.0344 13.9073 34.1441C13.8777 34.2052 13.7909 34.2211 13.736 34.189C13.6745 34.153 13.6616 34.0785 13.6911 34.0176ZM12.9671 28.1418C12.8219 28.1912 12.6923 28.2612 12.5644 28.3456C12.4294 28.4347 12.3041 28.2177 12.438 28.1293C12.5839 28.033 12.7349 27.9566 12.9005 27.9002C13.0537 27.8481 13.1189 28.0902 12.9671 28.1418ZM12.1226 23.926C12.0147 23.9291 11.9033 23.9704 11.8072 24.0172C11.6627 24.0874 11.5359 23.8713 11.6808 23.8009C11.8182 23.7341 11.9684 23.6799 12.1226 23.6756C12.2841 23.671 12.2834 23.9215 12.1226 23.926ZM11.744 35.18C11.7016 35.1819 11.6653 35.159 11.6428 35.126C11.6405 35.126 11.6381 35.1259 11.6358 35.1259C11.5657 35.1259 11.5137 35.0685 11.5106 35.0006C11.5076 34.933 11.5703 34.8754 11.6358 34.8754C11.68 34.8754 11.7239 34.8781 11.7649 34.8955C11.8313 34.9235 11.8665 34.984 11.8692 35.0548C11.8718 35.1249 11.8097 35.1771 11.744 35.18ZM11.1282 26.5186C10.9745 26.5689 10.9092 26.327 11.0617 26.2771C11.2407 26.2186 11.4236 26.1733 11.6026 26.1148C11.7563 26.0645 11.8216 26.3065 11.6691 26.3563C11.4902 26.4148 11.3072 26.4601 11.1282 26.5186ZM10.5667 31.2466C10.519 31.4003 10.2774 31.3343 10.3252 31.18C10.3714 31.031 10.3748 30.8811 10.3749 30.7263C10.3749 30.5649 10.6253 30.5651 10.6252 30.7263C10.6252 30.9025 10.6192 31.077 10.5667 31.2466ZM8.89263 36.9094C8.88352 36.9717 8.83407 37.0167 8.76934 37.0196C8.70346 37.0225 8.64177 36.9599 8.64415 36.8943C8.64875 36.7683 8.7515 36.6655 8.87751 36.6609C8.94762 36.6583 8.99977 36.7203 9.00271 36.7861C9.00559 36.8501 8.95219 36.9 8.89263 36.9094ZM8.04543 29.7109C7.91313 29.7551 7.77175 29.7971 7.66803 29.8951C7.55082 30.0057 7.37354 29.8289 7.49097 29.718C7.62775 29.5888 7.80368 29.5278 7.97889 29.4693C8.13232 29.4181 8.19751 29.6601 8.04543 29.7109ZM7.47125 34.5769C7.43488 34.6391 7.36124 34.6503 7.29999 34.6218C7.21786 34.5836 7.12718 34.5849 7.03864 34.5848C6.87729 34.5847 6.87754 34.3342 7.03864 34.3343C7.17523 34.3345 7.30124 34.3473 7.42637 34.4055C7.48794 34.4342 7.50293 34.5227 7.47125 34.5769ZM7.14681 40.4824C7.0767 40.4849 7.02456 40.4229 7.02161 40.3571C7.01873 40.2931 7.0721 40.2432 7.13172 40.2339C7.1408 40.1715 7.19028 40.1265 7.25498 40.1237C7.32089 40.1207 7.38258 40.1833 7.38017 40.2489C7.37557 40.375 7.27288 40.4777 7.14681 40.4824ZM29.9583 41.4295C29.9157 41.2763 29.8184 41.1527 29.7448 41.0149C29.7202 40.9685 29.7116 40.9396 29.6982 40.9056C29.6801 40.9419 29.6448 40.9693 29.5918 40.9693C29.4902 40.9693 29.3713 40.9628 29.2764 41.0063C29.2147 41.0346 29.1421 41.0245 29.1052 40.9614C29.0734 40.9071 29.0886 40.8182 29.1501 40.79C29.2899 40.7259 29.4402 40.7189 29.5918 40.7188C29.6293 40.7188 29.6577 40.7326 29.6777 40.7533C29.7357 39.9593 29.7342 39.1647 29.6794 38.37C29.6209 37.5209 29.4863 36.6886 29.3454 35.8504C29.2772 35.444 29.1887 35.0335 29.2059 34.6196C29.2231 34.2085 29.3993 33.8252 29.2744 33.4129C29.2243 33.2475 29.1386 33.096 29.0829 32.9325C29.0231 32.7566 29.0284 32.5828 29.0556 32.4006C29.1117 32.0295 29.2046 31.6629 29.0559 31.3006C28.9902 31.14 28.8838 30.9966 28.8325 30.8306C28.7686 30.6243 28.7774 30.396 28.7667 30.1822C28.7452 29.7507 28.7395 29.3164 28.7038 28.8859C28.6879 28.693 28.6531 28.5102 28.5739 28.3333C28.4979 28.1629 28.3849 28.0079 28.3345 27.8273C28.2844 27.6494 28.2801 27.4619 28.2531 27.2799C28.225 27.0877 28.1808 26.8983 28.1214 26.7135C27.8916 25.9984 27.4707 25.3559 26.9733 24.7988C26.4447 24.2068 25.8128 23.7609 25.142 23.3454C24.7893 23.1269 24.4366 22.9084 24.0842 22.6899C24.0767 22.7309 24.0505 22.7686 24.0004 22.7854C23.868 22.8296 23.7267 22.8716 23.6229 22.9696C23.5057 23.0802 23.3284 22.9033 23.4459 22.7925C23.5684 22.6767 23.7223 22.6158 23.879 22.5623C23.7184 22.4611 23.5561 22.3562 23.3749 22.2977C23.2162 22.2464 22.9821 22.2911 22.8534 22.1747C22.7523 22.0829 22.7204 21.9129 22.6816 21.7883C22.6331 21.6336 22.5912 21.4705 22.5295 21.3202C22.4876 21.2175 22.4265 21.1188 22.3495 21.0393C22.3157 20.9091 22.2537 20.7901 22.1442 20.7178C21.8575 20.528 21.5054 20.7165 21.3793 20.987C21.275 20.9867 21.1652 21.0096 21.0638 21.0158C20.8553 21.029 20.6466 21.0349 20.4378 21.0343C20.0293 21.0331 19.6206 21.0064 19.2156 20.9523C18.4913 20.8552 17.7887 20.6595 17.0766 20.507C17.0725 20.4976 17.0678 20.4882 17.0622 20.4788C16.9088 20.2215 16.5267 20.265 16.286 20.3624C16.1827 20.404 16.0775 20.4566 16.0184 20.5543C15.9558 20.5966 15.9016 20.6479 15.8657 20.7021C15.7912 20.8139 15.7336 21.0393 15.5824 21.0581C15.4829 21.0703 15.3818 21.0512 15.2807 21.0656C15.1542 21.0832 15.0409 21.1276 14.9242 21.1783C14.0353 21.5644 13.1164 21.9937 12.1517 22.1433C11.9254 22.1784 11.6951 22.2147 11.4985 22.3415C11.3389 22.4446 11.2155 22.5861 11.0838 22.7204C10.9555 22.8513 10.8497 22.9092 10.6666 22.9327C10.4444 22.9612 10.2519 23.0226 10.0894 23.1841C9.95454 23.3185 9.86659 23.49 9.7608 23.646C9.6531 23.805 9.49507 23.8946 9.33107 23.9869C8.94327 24.2055 8.58208 24.4695 8.26753 24.786C7.60493 25.4536 7.20368 26.3115 6.7993 27.1475C6.36205 28.0518 5.95329 28.967 5.66972 29.9326C5.39179 30.8807 5.22653 31.8561 5.15016 32.8405C5.06972 33.8734 5.05845 34.9105 4.99147 35.9441C4.95798 36.4604 4.93263 36.9773 4.90697 37.494C4.88193 38.0043 4.84531 38.5156 4.85122 39.0266C4.86252 40.0145 5.05999 41.0055 5.40524 41.9304C5.49132 42.1606 5.58675 42.3876 5.68847 42.6111C5.7777 42.8075 6.08287 42.7855 6.17864 42.6111C6.20055 42.5711 6.21776 42.5297 6.23216 42.4878C6.48255 42.49 6.73545 42.4706 6.98427 42.4937C7.42371 42.5347 7.86406 42.5576 8.30474 42.5848C9.17676 42.639 10.0503 42.675 10.9226 42.7248C11.0072 42.7296 11.0919 42.7345 11.1765 42.7395C10.5549 40.8147 10.6355 38.7338 10.5371 36.732C10.5292 36.5707 10.7796 36.5716 10.7875 36.732C10.8863 38.7424 10.8022 40.8286 11.4458 42.7565C11.6955 42.7735 11.9448 42.7941 12.1934 42.8244C12.3943 42.8485 12.5962 42.877 12.799 42.867C13.029 42.856 13.2538 42.8034 13.4782 42.7577C13.886 42.6747 14.2788 42.7123 14.6882 42.7633C15.1261 42.8181 15.5655 42.8485 16.0062 42.8676C17.7708 42.9449 19.5473 43.0154 21.3113 42.8973C21.7383 42.8688 22.1642 42.8288 22.5883 42.7743C23.0253 42.7182 23.4575 42.624 23.8941 42.5704C24.3245 42.5178 24.7201 42.6622 25.1455 42.6888C25.5792 42.716 26.0247 42.6255 26.4544 42.5736C26.5946 42.5566 26.7349 42.54 26.8753 42.5236C26.6946 41.2845 26.5918 40.036 26.492 38.788C26.4791 38.6271 26.7296 38.6285 26.7424 38.788C26.8414 40.0263 26.9419 41.2654 27.1223 42.4948C27.8664 42.4082 28.6113 42.3206 29.3477 42.1856C29.5574 42.1474 29.7658 42.0851 29.8913 41.8979C29.9842 41.7592 30.0031 41.5891 29.9583 41.4295Z" fill="black"/>
<path fill-rule="evenodd" clip-rule="evenodd" d="M19.773 8.92912C24.4739 9.07832 24.7575 11.3168 24.7575 15.0709C24.7575 18.8249 22.3188 21.1905 21.4209 21.6036C20.5229 22.0166 18.1585 23.7909 16.0247 22.9733C13.891 22.1556 14.5089 18.7013 14.5089 17.2171C14.5089 15.7328 15.072 8.77992 19.773 8.92912Z" fill="#D08B5B"/>
<path fill-rule="evenodd" clip-rule="evenodd" d="M15.2295 14.8865C16.2015 10.9132 17.9759 8.9746 20.5527 9.07079C24.4179 9.21509 24.3771 13.1646 24.1346 12.8045C23.9762 12.5692 22.867 11.7473 20.807 10.3388L20.6797 10.2518L15.2295 14.8865Z" fill="#9FD8E5"/>
<path fill-rule="evenodd" clip-rule="evenodd" d="M21.68 20.3701C20.8168 20.8532 19.8283 20.872 18.8997 20.568C18.3428 20.3861 17.8322 20.1049 17.3543 19.7686C16.9386 19.4758 16.5675 19.1511 16.1999 18.8064C15.8973 18.1373 15.6278 17.4694 15.5015 16.7414C15.3885 16.088 15.3735 15.4094 15.5047 14.7572C16.4748 13.9572 17.439 13.1507 18.4018 12.3416C18.8922 11.9295 19.3838 11.5197 19.8813 11.1164C20.134 10.9116 20.3842 10.7037 20.6359 10.498C20.6775 10.4642 20.7187 10.4303 20.7603 10.3965C21.2799 10.7779 21.8371 11.1048 22.3531 11.4924C22.6233 11.6956 22.8859 11.912 23.1361 12.1396C23.2673 12.2589 23.3954 12.382 23.5203 12.5081C23.6346 12.6234 23.7448 12.7887 23.907 12.8322C23.9291 12.8382 23.95 12.8394 23.9697 12.8366C24.1865 14.7391 24.3404 16.7934 23.4119 18.5211C23.0068 19.2748 22.4325 19.9486 21.68 20.3701ZM16.0641 21.0693C15.9452 20.9601 16.1224 20.7834 16.2407 20.8921C16.9843 21.5749 17.9563 21.9368 18.9381 22.1043C19.0965 22.1314 19.029 22.3727 18.8717 22.3459C17.8466 22.171 16.8391 21.7809 16.0641 21.0693ZM15.1719 22.1169C15.03 22.0405 15.1563 21.8244 15.298 21.9006C15.8772 22.212 16.5126 22.3738 17.1571 22.4831C17.3156 22.51 17.248 22.7513 17.0907 22.7246C16.4243 22.6117 15.7705 22.4387 15.1719 22.1169ZM17.5295 11.5641C18.0102 11.1317 18.5268 10.7202 19.0724 10.373C19.6246 10.0217 20.2277 9.81163 20.8795 9.80662C20.8339 9.84325 20.7905 9.88396 20.7465 9.92181C20.6235 10.0274 20.5007 10.1335 20.3779 10.2393C20.1324 10.4513 19.8863 10.6629 19.644 10.8784C19.1667 11.303 18.6879 11.7254 18.2116 12.1509C17.2962 12.9687 16.4005 13.8044 15.524 14.6642C15.5287 14.6433 15.5337 14.6223 15.5387 14.6013C15.8289 13.3864 16.6181 12.3842 17.5295 11.5641ZM21.2974 9.85954C21.3006 9.85014 21.3028 9.84103 21.304 9.8323C22.5549 9.99574 23.5996 10.9184 23.945 12.1334C23.9151 12.1753 23.8985 12.2251 23.9047 12.278C23.9079 12.3046 23.911 12.3316 23.9141 12.3582C23.8713 12.3156 23.8273 12.2758 23.7898 12.2379C23.6652 12.1114 23.5375 11.9884 23.4063 11.8684C23.138 11.6233 22.8594 11.3941 22.5658 11.1802C22.0552 10.8083 21.5023 10.4663 20.8936 10.2879C20.9336 10.255 20.9736 10.2221 21.0139 10.1896C21.1341 10.0915 21.2456 10.0108 21.2974 9.85954ZM23.54 8.56044C22.772 7.71911 21.7085 7.1029 20.5885 6.88873C19.519 6.68396 18.4118 6.81891 17.4015 7.21687C15.2873 8.04975 13.6191 9.88117 12.838 12.0034C12.3826 13.2399 12.2333 14.5953 12.3702 15.9042C12.5063 17.207 12.8977 18.5525 13.6098 19.6609C13.675 19.7623 13.7466 19.8597 13.8215 19.9539C13.7881 20.3366 13.6607 20.7117 13.4602 21.0379C13.4494 21.0554 13.438 21.0726 13.4268 21.0898C13.2215 21.2439 13.0085 21.3886 12.8006 21.5379C12.6204 21.6673 12.442 21.8 12.2726 21.9433C12.1127 22.0786 11.9269 22.2293 11.8186 22.4119C11.7299 22.5614 11.6937 22.7648 11.8148 22.9075C11.9607 23.0793 12.208 23.0187 12.4057 23.0187C12.4227 23.0187 12.4396 23.0191 12.4565 23.0193C12.5158 23.0567 12.577 23.0905 12.6362 23.122C13.235 23.4401 13.8359 23.7548 14.4374 24.0679C15.6356 24.6919 16.8287 25.3411 18.0514 25.9156C18.618 26.182 19.2245 26.415 19.8592 26.4141C20.4545 26.4131 20.9926 26.1761 21.4573 25.8157C21.9871 25.4052 22.43 24.8839 22.8597 24.3729C23.0315 24.1684 23.1998 23.9615 23.365 23.7517C23.6824 23.6455 23.9972 23.6145 24.2802 23.8193C24.5072 23.9837 24.8064 23.7601 24.8118 23.5134C24.8136 23.4258 24.8099 23.3393 24.8005 23.2541C24.7437 22.7281 24.4869 22.2522 24.1977 21.8107C24.0397 21.5693 23.8732 21.3322 23.7058 21.0974C23.6664 21.042 23.6277 20.9866 23.5902 20.9302C24.2627 19.9377 24.7961 18.8371 25.1241 17.687C25.4686 16.4768 25.5857 15.2219 25.5089 13.9679C25.3908 12.046 24.8649 10.012 23.54 8.56044Z" fill="black"/>
<path fill-rule="evenodd" clip-rule="evenodd" d="M21.2085 19.0034C20.9981 18.9175 20.8103 18.7743 20.6731 18.5913C20.6254 18.5277 20.613 18.4606 20.623 18.3991C20.6343 18.33 20.6751 18.2674 20.7308 18.2254C20.7867 18.1833 20.8566 18.1625 20.9242 18.1731C20.9829 18.1823 21.0414 18.2145 21.0876 18.2812L21.0973 18.2946C21.1789 18.405 21.2852 18.4956 21.4064 18.554C21.5232 18.6103 21.6538 18.6366 21.7889 18.6213C22.0463 18.5922 22.2237 18.4529 22.4123 18.2638C22.4357 18.24 22.459 18.2153 22.4825 18.1903C22.4974 18.1676 22.518 18.153 22.5408 18.1454C22.5662 18.1369 22.595 18.1374 22.6213 18.1466C22.6466 18.1554 22.6693 18.1722 22.6845 18.1946C22.699 18.2158 22.7072 18.242 22.7045 18.2722C22.6873 18.4682 22.5849 18.6431 22.4394 18.7804C22.2778 18.933 22.0636 19.0385 21.862 19.0755C21.6398 19.1163 21.4134 19.087 21.2085 19.0034ZM21.9668 15.98C22.2031 16.1237 22.5632 16.4588 22.309 16.8151C22.0097 17.1293 21.5788 16.7691 21.3664 16.6062C21.1695 16.4799 20.9483 16.8047 21.131 16.9521C22.6654 18.0885 23.2881 16.0176 22.0863 15.811C21.954 15.7883 21.9048 15.9355 21.9668 15.98ZM19.2171 14.658C19.2432 14.3338 19.7369 14.2601 19.786 14.581C19.83 14.8684 19.7782 15.1325 19.6488 15.3913C19.5251 15.6385 19.2143 15.5232 19.1908 15.298C19.1593 14.9963 19.2009 14.8597 19.2171 14.658ZM22.975 14.5145C23.0438 14.4243 23.1432 14.3627 23.2622 14.3975C23.6342 14.5063 23.5246 15.0346 23.3939 15.2917C23.323 15.4314 23.0935 15.4668 22.9898 15.3438C22.8208 15.1433 22.7399 14.7429 22.9547 14.5454C22.9605 14.5352 22.967 14.5249 22.975 14.5145ZM19.6435 13.2391L19.7023 13.2288C19.8841 13.1974 20.1101 13.1672 20.2387 13.3134C20.3069 13.3909 20.3304 13.535 20.2387 13.6092C20.0774 13.7398 19.8992 13.6892 19.7059 13.7002C19.5467 13.7094 19.3936 13.7357 19.2402 13.7796C18.9037 13.8758 18.6295 14.0515 18.3421 14.2443C18.3044 14.2696 18.2659 14.2214 18.2839 14.1861C18.4498 13.861 18.7713 13.5939 19.0934 13.4312C19.2653 13.3443 19.4534 13.2722 19.6435 13.2391ZM22.6359 13.0935L22.6809 13.1027C23.1703 13.2051 23.8062 13.4095 24.0379 13.8904C24.0468 13.9584 24.0374 13.973 24.0298 13.9825L24.0273 13.9857C24.0211 13.9938 24.0161 14.005 23.9866 14.0143C23.9784 14.0123 23.9702 14.0103 23.9618 14.0081C23.8556 13.9802 23.7715 13.9419 23.6902 13.902L23.6019 13.8586C23.4996 13.8083 23.3963 13.76 23.2869 13.7242C23.0533 13.648 22.8131 13.5943 22.5691 13.5657C22.5162 13.5595 22.4653 13.5416 22.4252 13.511C22.387 13.482 22.3579 13.4418 22.3446 13.3883C22.3274 13.3192 22.3324 13.2668 22.3695 13.2044C22.3973 13.1575 22.4373 13.1251 22.4831 13.1064C22.5298 13.0874 22.583 13.0829 22.6359 13.0935Z" fill="black"/>
<path fill-rule="evenodd" clip-rule="evenodd" d="M24.7675 16.17C24.3875 16.5628 23.7531 16.6756 23.2476 16.4649C21.9494 15.9223 22.5848 14.2299 23.586 13.7755C23.711 13.7443 23.8781 13.6703 24.0304 13.6535C24.0442 13.6467 24.0742 13.6663 24.1105 13.6478C25.2144 13.7711 25.4658 15.4855 24.7675 16.17ZM20.5804 16.2706C20.1542 16.8361 19.3618 17.0106 18.7144 16.7477C17.4355 16.2438 17.8891 14.7431 18.7641 14.1548C20.6126 13.4599 21.3758 15.2279 20.5804 16.2706ZM17.8079 15.0176C17.8067 15.017 17.8055 15.0167 17.8043 15.0162C17.8111 15.0132 17.8178 15.0102 17.8246 15.0072C17.8224 15.0129 17.82 15.0186 17.8179 15.0243C17.8146 15.022 17.8117 15.0194 17.8079 15.0176ZM25.6474 14.4063C25.543 14.4065 25.3923 14.4237 25.3059 14.4961C25.0929 13.7774 24.3066 13.1123 23.6228 13.5973C23.0843 13.7705 22.6847 14.1547 22.4576 14.6655C22.0481 14.4219 21.4042 14.5259 21.0491 14.8482C20.8166 14.0794 20.2442 13.8103 19.563 13.7705C18.8195 13.6487 18.0784 14.3711 17.8471 14.9506C17.6549 14.9287 17.3676 14.8675 17.1867 14.9862C16.0128 14.6782 13.9604 14.5084 13.7217 14.6795C13.5516 14.7448 13.4583 15.1464 13.6958 15.1681C13.9029 15.1387 13.6717 14.8738 13.8804 14.8449C14.9922 14.776 16.0715 15 17.1716 15.0939C17.2698 15.2261 17.5871 15.2703 17.7564 15.2172C17.4898 16.2003 18.0654 16.8691 18.9278 17.0694C20.2633 17.3763 21.4251 16.1812 21.0759 14.9381C21.4804 14.7368 21.9458 14.7455 22.3865 14.8515C21.6501 17.5627 26.0149 17.4411 25.3332 14.589C25.7869 14.8147 25.8854 14.4518 25.6474 14.4063Z" fill="black"/>
</svg>
