<svg width="36" height="48" viewBox="0 0 36 48" fill="none" xmlns="http://www.w3.org/2000/svg">
<path fill-rule="evenodd" clip-rule="evenodd" d="M27.6224 27.1414C27.1879 25.0823 25.6471 23.4845 23.5749 22.6886C23.1766 22.4632 22.7904 21.4961 22.2551 21.319C22.1693 21.2906 22.3047 21.5166 22.2551 21.53C22.0781 21.5782 21.8797 21.5832 21.6842 21.4094C21.3349 21.0988 21.2253 20.1913 21.0129 19.7811C19.8927 17.618 17.0957 18.4643 16.721 20.8557C16.4597 21.026 16.0904 21.1761 15.806 21.3134C15.5131 21.4547 15.2555 21.7971 14.9537 21.9195C14.6844 22.0288 14.2407 21.9514 13.9694 22.0466C12.7214 22.4846 11.6644 23.0372 10.8357 24.1569C10.661 24.393 10.4642 24.6833 10.3053 24.9219C9.48607 25.8653 8.91706 26.9228 8.39299 28.0573C6.92676 31.3872 6.52795 35.0742 6.17014 38.6621C6.17828 39.2898 5.76188 41.0305 6.37775 41.3315C6.34094 41.3697 6.35427 41.4463 6.42257 41.4457C7.98416 41.4299 9.54213 41.5697 11.0795 41.8415C11.8213 41.9727 12.559 42.1525 13.3146 42.1821C14.883 42.1713 16.4458 41.9083 18.0121 42.1571C19.8952 42.1571 22.1836 42.1022 24.2784 42.0217C26.2362 41.9464 28.2046 42.1164 30.1381 41.7834C30.2912 41.7591 30.3659 41.5724 30.3338 41.4386C30.107 40.6117 29.9956 39.7606 29.8683 38.9142C29.8937 38.3713 29.8483 37.8046 29.6476 37.2989C29.1231 33.8855 28.4505 30.4942 27.6224 27.1414Z" fill="#D08B5B"/>
<path fill-rule="evenodd" clip-rule="evenodd" d="M22.2551 21.5426C22.3047 21.5291 22.1693 21.3032 22.2551 21.3316C22.7904 21.5087 23.1766 22.4757 23.5749 22.7011C25.6471 23.4971 27.1879 25.0949 27.6224 27.154C28.4505 30.5068 29.1231 33.898 29.6476 37.3115C29.8483 37.8171 29.8937 38.3839 29.8683 38.9267L29.8883 39.0604C30.0077 39.8626 30.1189 40.6677 30.3338 41.4511C30.3659 41.585 30.2912 41.7717 30.1381 41.7959C28.2265 42.1252 26.281 41.9628 24.3452 42.0318L23.9417 42.0469C21.9406 42.1205 19.7947 42.1697 18.0121 42.1697C16.4458 41.9209 14.883 42.1838 13.3146 42.1947C12.559 42.1651 11.8213 41.9852 11.0795 41.8541C9.54213 41.5823 7.98416 41.4425 6.42257 41.4583C6.35427 41.4589 6.34094 41.3822 6.37775 41.3441C5.76188 41.0431 6.17828 39.3024 6.17014 38.6746L6.20248 38.3515C6.55284 34.8659 6.97075 31.2999 8.39299 28.0698L8.43559 27.978C8.948 26.8782 9.50821 25.8524 10.3053 24.9344L10.354 24.8614C10.5033 24.6384 10.6785 24.382 10.8357 24.1694C11.6644 23.0498 12.7214 22.4971 13.9694 22.0592C14.2407 21.964 14.6844 22.0413 14.9537 21.9321C15.236 21.8176 15.4796 21.5107 15.7496 21.3558L15.7496 22.5112L19.6557 26.3605L21.8711 22.9621L22.0965 21.5703C22.1507 21.5669 22.2038 21.5566 22.2551 21.5426Z" fill="#8FA7DF"/>
<path fill-rule="evenodd" clip-rule="evenodd" d="M26.9909 31.6278C26.9496 31.8285 26.8917 32.0292 26.8147 32.2193C26.7405 32.4028 26.6288 32.5671 26.5518 32.7484C26.5415 32.7729 26.5246 32.7913 26.5042 32.8054L26.5106 32.8547L26.5164 32.904C26.5548 33.2368 26.598 33.5687 26.6354 33.9015L26.6535 34.0679C26.7271 34.7627 26.8432 35.454 26.9333 36.1469C27.0216 36.8255 27.1114 37.504 27.2075 38.1815C27.3067 38.8801 27.4078 39.5777 27.5258 40.2734C27.5756 40.5673 27.6276 40.8609 27.6818 41.1542L27.7236 41.3787C28.1543 41.4824 28.272 42.0829 27.8335 42.3046C27.6344 42.4048 27.3787 42.3807 27.2147 42.2232C27.0442 42.0591 27.0371 41.7632 26.9976 41.5409L26.9595 41.3343C26.6743 39.7812 26.4268 38.2102 26.3111 36.6351C26.2814 36.2284 26.2563 35.8213 26.24 35.4139C26.2246 35.0308 26.232 34.6476 26.226 34.2644L26.2241 34.1599C26.215 33.7513 26.2225 33.3433 26.2332 32.9347C26.2344 32.8849 26.2366 32.8352 26.2391 32.7851C26.2247 32.7682 26.2144 32.7481 26.21 32.7287L26.2044 32.703C26.1903 32.637 26.2062 32.5596 26.257 32.5123C26.2789 32.234 26.3076 31.9559 26.3155 31.6779C26.3161 31.655 26.349 31.6557 26.3509 31.6779C26.3693 31.9146 26.4062 32.152 26.4432 32.389C26.6807 32.198 26.8563 31.883 26.9599 31.6194C26.9674 31.6003 26.9953 31.6071 26.9909 31.6278ZM21.3702 20.5618C21.4097 20.7422 21.4876 20.9041 21.5921 21.0547C21.6419 21.1267 21.6986 21.1937 21.7665 21.2497C21.8247 21.2976 21.8911 21.3289 21.953 21.3706C22.0432 21.3565 22.1374 21.3906 22.2006 21.457L22.1906 21.36C22.1875 21.3286 22.2394 21.3224 22.2454 21.3527C22.5192 22.7342 22.7689 24.1166 22.9851 25.5081L23.0799 26.1226L23.169 26.6995C23.3171 27.6608 23.4602 28.6217 23.5681 29.5901C23.7117 30.8823 23.8325 32.178 23.9208 33.4755C24.0094 34.7821 24.0639 36.0896 24.1027 37.3988C24.1123 37.7288 24.1227 38.0585 24.1327 38.3885L24.1995 37.9939C24.2663 37.5993 24.3317 37.2043 24.3878 36.8079C24.589 35.3892 24.7499 33.9605 24.8285 32.5296C24.9005 31.2201 24.8764 29.8847 24.5434 28.6091C24.4594 28.2881 24.3568 27.9722 24.2329 27.6644C24.1126 27.3651 23.9487 27.0877 23.8194 26.7927C23.6691 26.4496 23.6241 26.1258 23.7014 25.7564C23.769 25.4345 23.8876 25.1317 23.9089 24.8004C23.9487 24.1855 23.7486 23.5899 23.466 23.0517C23.3915 22.9099 23.313 22.7699 23.231 22.6312C22.9828 22.2119 22.7029 21.808 22.4125 21.4207C22.3969 21.4 22.43 21.3772 22.447 21.3941C22.7117 21.6558 23.0012 21.9132 23.2394 22.1991C23.3552 22.3381 23.4682 22.4799 23.5752 22.6255C24.7496 22.8219 25.7587 23.5536 26.4485 24.5199C27.2313 25.6164 27.6272 26.9362 27.9202 28.2358C28.246 29.6803 28.5208 31.1378 28.8135 32.5894C29.1164 34.0914 29.4178 35.5934 29.7227 37.0951C29.8741 37.8405 30.0257 38.5861 30.1768 39.3319C30.2535 39.7095 30.334 40.0862 30.4181 40.4626C30.4613 40.6555 30.5077 40.848 30.5477 41.0415C30.5928 41.2598 30.5508 41.3994 30.4031 41.5597C30.3486 41.6192 30.2626 41.6183 30.195 41.5866L30.1738 41.5767L30.1534 41.5668C30.0697 41.5257 30.0042 41.4831 29.9521 41.3915C29.8948 41.2911 29.8857 41.1796 29.866 41.0678C29.8297 40.8621 29.7937 40.6564 29.7574 40.4504C29.7032 40.1423 29.6442 39.835 29.5842 39.5279L29.2829 37.9929C29.2026 37.5837 29.1222 37.1744 29.0413 36.7654C28.7524 35.3025 28.4632 33.84 28.174 32.3774C27.8964 30.9731 27.6507 29.5591 27.3346 28.1629L27.3166 28.0842L27.2983 28.0057C27.0157 26.8021 26.6208 25.6378 25.9042 24.6179C25.3527 23.8335 24.5869 23.1331 23.6848 22.7786C23.7484 22.8701 23.8094 22.9634 23.8676 23.0586C24.2332 23.656 24.5001 24.3652 24.4375 25.0766C24.4069 25.4241 24.2748 25.7657 24.2873 26.1161C24.2989 26.4273 24.4914 26.7007 24.6244 26.9715C24.9264 27.5852 25.1449 28.2374 25.2858 28.9065C25.5684 30.2501 25.5674 31.6325 25.4701 32.9964C25.3643 34.479 25.1634 35.9613 24.9346 37.4294C24.8172 38.1825 24.661 38.9293 24.5414 39.681C24.4823 40.0517 24.4018 40.4216 24.3314 40.7904L24.2979 40.9666C24.2791 41.0644 24.2596 41.1619 24.2371 41.2583L24.2232 41.3161V41.3264C24.2225 41.3975 24.2031 41.4564 24.1718 41.5034C24.129 41.6408 24.0757 41.7748 24.005 41.9035C23.9687 41.9693 23.9161 42.0062 23.8588 42.0197C23.8012 42.1515 23.6707 42.2529 23.5149 42.2523L21.4651 42.2445C20.2745 42.2398 19.0839 42.2319 17.8932 42.2254C17.5928 42.2238 17.2926 42.2182 16.9925 42.2104C16.7111 42.2025 16.4413 42.1687 16.1631 42.1336C15.8488 42.0942 15.6786 41.8716 15.7255 41.5575C15.7358 41.4883 15.7471 41.4194 15.7577 41.3506C15.6952 41.3712 15.6207 41.3615 15.5703 41.3124L15.523 41.2661C15.4575 41.2013 15.399 41.1377 15.3574 41.0512C15.3146 40.9623 15.2798 40.8684 15.2419 40.7776C15.1602 40.5822 15.0808 40.3862 15.0034 40.1892C14.8485 39.7953 14.6936 39.3999 14.5496 39.0019C14.2645 38.2138 14.0122 37.4138 13.7928 36.6047C13.4016 35.1613 13.1186 33.69 12.9402 32.2055L12.8975 31.8517L12.8851 31.7472C12.8175 31.1718 12.7605 30.5875 12.7875 30.0134C12.8041 29.6539 12.8598 29.2917 12.9941 28.956C13.118 28.6464 13.3092 28.3815 13.4911 28.1047L13.5119 28.0727L13.5328 28.04C13.6918 27.7886 13.8184 27.5258 13.8247 27.2205C13.8311 26.9106 13.7409 26.6091 13.64 26.319L13.6149 26.2475L13.598 26.2002C13.3834 25.6007 13.1391 25.0097 13.2197 24.3574C13.3387 23.3967 13.9208 22.6224 14.6532 22.0253C14.0018 22.1543 13.3571 22.4092 12.7881 22.7323C12.1161 23.1143 11.5111 23.6184 10.9893 24.1873C10.0034 25.2625 9.2995 26.5526 8.72332 27.8846C8.12016 29.2785 7.6729 30.7392 7.33584 32.219C6.99687 33.7072 6.76996 35.2192 6.61499 36.7372C6.53772 37.4927 6.47697 38.2501 6.42661 39.0079C6.40094 39.3961 6.38154 39.785 6.35149 40.1726C6.32144 40.56 6.30795 40.9532 6.21343 41.3302C6.1693 41.5059 5.87165 41.5237 5.83975 41.3302C5.76897 40.8981 5.78875 40.4512 5.80851 40.0136L5.8103 39.9738C5.82974 39.538 5.85509 39.1024 5.8851 38.6669C5.94648 37.7767 6.02845 36.8878 6.1355 36.0017C6.51077 32.8912 7.20282 29.7971 8.56025 26.9578C9.19938 25.6205 10.0197 24.321 11.1609 23.3554C11.7042 22.896 12.3167 22.5294 12.9768 22.2639C13.5671 22.0263 14.1668 21.9138 14.7941 21.9142C15.1086 21.6731 15.4463 21.463 15.7837 21.2835C15.804 21.2726 15.8253 21.2989 15.8085 21.3158C15.7997 21.3243 15.7912 21.333 15.7825 21.3412C15.8207 21.3437 15.8601 21.3615 15.8954 21.3988C16.0194 21.5287 16.1239 21.6912 16.2175 21.86C16.3599 22.0378 16.4957 22.2216 16.6379 22.3976C16.8654 22.6794 17.0982 22.9571 17.334 23.2326C17.7298 23.6957 18.1386 24.15 18.5648 24.586L18.636 24.6585C18.8569 24.8825 19.0808 25.1504 19.3421 25.3277L19.356 25.337C19.4663 25.4088 19.5445 25.4219 19.6385 25.3145C19.7239 25.2169 19.7951 25.1035 19.8682 24.9958L19.8851 24.9711C20.2585 24.4284 20.6047 23.8658 20.918 23.2865C21.0608 23.0229 21.1967 22.7555 21.3255 22.4851L21.364 22.4039C21.4341 22.2548 21.5102 22.1086 21.568 21.9551C21.5815 21.9192 21.5946 21.8832 21.6075 21.8475C21.4103 21.7182 21.2576 21.4382 21.2022 21.2191C21.1446 20.9914 21.1737 20.7578 21.2763 20.5496C21.2957 20.5105 21.3608 20.5202 21.3702 20.5618ZM11.6429 29.8121C11.6156 30.6775 11.5991 31.5439 11.5583 32.4087L11.5443 32.704C11.6078 32.7748 11.645 32.8564 11.6153 32.9686C11.6038 33.0115 11.5696 33.0503 11.527 33.0647L11.5138 33.3392C11.4534 34.5743 11.3826 35.8068 11.2532 37.0387C11.0914 38.5805 10.9042 40.1197 10.7174 41.6587C10.6908 41.8766 10.5393 42.0494 10.3036 42.0175C10.0651 41.9852 9.96839 41.7776 9.99969 41.5613C10.1227 40.7124 10.241 39.8629 10.3446 39.0113L10.4626 38.041C10.6106 36.8281 10.762 35.6154 10.9365 34.4063C11.0094 33.901 11.0851 33.396 11.1612 32.8909L11.1346 32.8564C11.026 32.7153 10.9136 32.5772 10.8025 32.4382C10.5891 32.1701 10.3784 31.9043 10.1828 31.6237C10.1731 31.6096 10.1928 31.589 10.2069 31.5996C10.481 31.8022 10.7405 32.0189 11.0016 32.239L11.2301 32.4325C11.3615 31.5598 11.4917 30.6869 11.6078 29.8121C11.6106 29.7902 11.6435 29.7886 11.6429 29.8121ZM15.5869 21.5297C15.4219 21.6852 15.2532 21.8374 15.087 21.9921L15.0261 22.049L14.9655 22.1062C14.6734 22.3834 14.3935 22.6719 14.1603 23.0032C13.7321 23.6115 13.477 24.3533 13.6551 25.096C13.8028 25.7112 14.1418 26.2689 14.2329 26.8995C14.2785 27.2154 14.2563 27.5329 14.1374 27.8313C14.0159 28.1357 13.8219 28.3965 13.6475 28.6711C13.2688 29.2679 13.2172 29.9229 13.2548 30.6143C13.2942 31.3363 13.3771 32.0586 13.4795 32.7741C13.6867 34.2238 13.999 35.6585 14.4125 37.0634C14.6194 37.767 14.8638 38.4555 15.107 39.1469C15.2281 39.491 15.3693 39.827 15.5148 40.1613C15.5915 40.3373 15.6701 40.5123 15.7499 40.687C15.7205 40.4403 15.7205 40.187 15.7061 39.9419C15.6854 39.5906 15.6591 39.2399 15.635 38.8889C15.5859 38.1765 15.5421 37.4636 15.503 36.7506C15.3643 34.2082 15.2623 31.6635 15.2698 29.117C15.2736 27.8436 15.2995 26.5701 15.3543 25.2979C15.38 24.6988 15.4297 24.1003 15.4746 23.5021L15.4842 23.3739C15.5239 22.8369 15.5715 22.2987 15.6532 21.7664C15.629 21.7118 15.608 21.6565 15.5924 21.5998L15.5869 21.5785L15.5909 21.5791C15.5872 21.5625 15.5859 21.5459 15.5869 21.5297ZM17.0135 19.3416C17.0169 19.3269 17.0378 19.3282 17.0416 19.3416C17.1346 19.6547 17.1017 19.9992 17.0216 20.3142C16.9784 20.4848 16.9171 20.6504 16.8429 20.8101L16.8169 20.866C16.7534 21.002 16.6818 21.1421 16.558 21.2269C16.5064 21.2623 16.4141 21.2644 16.3624 21.2269L16.3361 21.2069C16.3317 21.2035 16.3275 21.2 16.3233 21.1965C16.2751 21.1561 16.2513 21.0669 16.2735 21.008C16.3308 20.8561 16.4607 20.7447 16.5505 20.6094C16.6301 20.4892 16.7005 20.3624 16.759 20.2306C16.8851 19.9453 16.9418 19.6425 17.0135 19.3416Z" fill="black"/>
<path fill-rule="evenodd" clip-rule="evenodd" d="M24.1005 11.6502C23.0017 8.75218 21.021 6.63032 17.6819 7.96304C17.5861 7.89767 17.4611 7.88013 17.3413 7.95669C15.5223 9.10171 14.2124 10.9374 13.6448 13.0075C13.2993 13.0733 12.9636 13.1882 12.6638 13.3765C12.0122 13.7858 11.5737 14.4372 11.1628 15.0715C11.0392 15.2622 11.1536 15.578 11.3859 15.6213C11.4868 15.6401 11.5867 15.6513 11.6861 15.6543C11.6619 15.7424 11.6301 15.8275 11.5895 15.9055C11.4426 16.1881 11.7201 16.4881 11.9802 16.4108C12.0091 16.4261 12.0393 16.4387 12.0706 16.4482C12.0742 16.6082 12.1562 16.8225 12.3186 16.8548C12.5812 16.9113 12.9302 16.7098 12.8682 16.4154C12.9476 16.4294 13.0266 16.4311 13.1037 16.4214C13.1123 16.5748 13.1096 16.7348 13.1307 16.8762C13.1998 17.5428 13.8641 17.9905 14.4976 17.7877C14.5365 17.9954 14.5821 18.2872 14.7861 18.3999C15.0247 19.0708 15.4366 19.8365 16.1113 20.1421C16.0512 20.2964 16.0838 20.4841 16.2647 20.5873C17.4997 21.2932 18.982 21.532 20.3783 21.2696C20.9363 21.2363 21.4799 21.1099 22.0018 20.8406C22.3823 20.6442 22.7321 20.3948 23.0736 20.1377C23.4153 19.8805 23.7807 19.6301 24.0534 19.2961C24.3496 18.9335 24.4875 18.5068 24.577 18.0526C24.987 15.9911 24.8454 13.9669 24.1005 12.0032C23.1785 9.57231 25.0222 14.0812 24.1005 11.6502Z" fill="#D08B5B"/>
<path fill-rule="evenodd" clip-rule="evenodd" d="M12.6605 13.2576C13.6862 12.6511 14.9942 12.8081 15.6104 13.7476C15.7168 13.9098 15.7902 14.0882 15.8421 14.2948L15.8505 14.3291L15.8588 14.3652C15.8857 14.4846 15.9033 14.597 15.9272 14.7881L15.9536 15.0049L15.9612 15.0639C15.9869 15.2602 16.0094 15.3841 16.0445 15.5104L16.0514 15.5349L16.0919 15.6749L15.939 15.7315C15.6458 15.8377 15.5844 15.8472 15.4153 15.7585C15.2832 15.6893 15.2142 15.5961 15.1225 15.4073L15.1092 15.3796L15.0799 15.318L15.0641 15.2856C15.0043 15.1659 14.9564 15.0383 14.8887 14.9919C14.7969 14.929 14.5073 14.9039 14.3059 14.9288L14.2954 14.9301L14.2867 14.9319L14.2718 14.9353C13.9332 15.0155 13.6245 15.2896 13.4209 15.5792C13.257 15.8124 13.1628 16.1061 13.1512 16.4114L13.1506 16.4318L13.1466 16.5876L12.8183 16.5805L12.8215 16.5199L12.8166 16.5307C12.7132 16.7493 12.4533 16.8948 12.2359 16.7501L12.2282 16.7448L12.2203 16.7392C12.0368 16.6038 12.0147 16.3296 12.1653 16.1631L12.1723 16.1556L12.179 16.1487L12.1776 16.148L12.1761 16.1475L12.1751 16.1474C12.1238 16.1569 12.0787 16.1833 12.0177 16.2394L12.0021 16.2541L11.9706 16.2883L11.938 16.3232L11.924 16.3376C11.915 16.3466 11.9068 16.3546 11.8991 16.3616C11.8887 16.3711 11.879 16.3791 11.8685 16.3864C11.8588 16.3932 11.8488 16.3991 11.8367 16.4043C11.8068 16.4173 11.7748 16.4235 11.7339 16.4134C11.6778 16.3996 11.6462 16.3656 11.627 16.3256C11.6196 16.31 11.6153 16.2957 11.6123 16.2806C11.6092 16.2648 11.6076 16.2486 11.6068 16.2301C11.6063 16.2179 11.6061 16.2046 11.6062 16.1901L11.6066 16.1674L11.6073 16.1427L11.6082 16.123L11.6119 16.05C11.6252 15.8103 11.688 15.5748 11.7956 15.3525L11.8065 15.3303L11.8106 15.3223L11.7994 15.3374C11.726 15.4344 11.6551 15.5016 11.5667 15.546L11.5545 15.5519L11.5426 15.5573C11.4199 15.6113 11.2963 15.5904 11.2216 15.4902C11.1699 15.4209 11.1547 15.3296 11.1653 15.2336C11.1858 15.0474 11.2593 14.8769 11.4031 14.6282L11.4233 14.5935L11.5022 14.4593C11.8065 13.946 12.1976 13.5313 12.6605 13.2576Z" fill="#E8E1E1"/>
<path fill-rule="evenodd" clip-rule="evenodd" d="M18.7883 7.39768C19.3507 7.35789 19.9233 7.45292 20.4588 7.62291C21.3129 7.89394 22.0973 8.37224 22.7417 8.99493C23.4059 9.63665 23.8971 10.4279 24.1957 11.3017C24.5559 12.3556 24.6098 13.4808 24.7112 14.581C24.7624 15.1368 24.8468 15.6841 24.9345 16.2346L24.9484 16.3215C25.0341 16.8578 25.0823 17.4002 24.9639 17.9357C24.7671 18.8256 24.1771 19.581 23.4767 20.1392C22.0379 21.2859 19.798 21.985 18.1228 20.9298C17.8636 20.7665 18.1092 20.3491 18.3622 20.5192C18.5403 20.639 18.7289 20.7439 18.9312 20.8164C19.7764 21.1192 20.7047 21.0114 21.5401 20.7297C22.3633 20.4521 23.1532 19.9831 23.7606 19.3573C24.3986 18.6999 24.7522 17.8879 24.7011 16.964C24.6707 16.4142 24.5457 15.8747 24.4764 15.3294C24.415 14.8465 24.3781 14.361 24.3357 13.8761L24.3201 13.7017C24.2301 12.7138 24.1009 11.6988 23.6525 10.8021C23.2754 10.0477 22.7232 9.37652 22.0592 8.85819C21.364 8.31554 20.5336 7.93602 19.6624 7.79446C18.6379 7.62801 17.6572 7.93069 16.8026 8.49417C16.0446 8.9939 15.393 9.6617 14.8933 10.4194C14.651 10.7868 14.4446 11.1792 14.2664 11.5816C14.0984 11.9607 13.9826 12.358 13.8475 12.7488C13.9587 12.7455 14.0717 12.7498 14.1864 12.7625C14.775 12.8279 15.3233 13.1336 15.6724 13.6158C16.099 14.205 15.9837 14.9282 16.1503 15.5983C16.1632 15.6503 16.1413 15.7012 16.0969 15.73C15.8442 15.8937 15.5061 15.8991 15.2616 15.7148C15.0493 15.5548 14.9497 15.2656 15.0356 15.0129C15.0468 14.9799 15.0947 14.9858 15.096 15.0211C15.1122 15.4511 15.5102 15.7823 15.9003 15.5777C15.733 14.9999 15.821 14.3546 15.4788 13.8327C14.8729 12.909 13.6193 12.8708 12.7387 13.3915C12.2753 13.6655 11.9085 14.0775 11.6353 14.5384L11.5567 14.6721C11.452 14.8509 11.3411 15.0531 11.3194 15.2499C11.3068 15.3635 11.3487 15.4703 11.4786 15.413C11.5838 15.3667 11.6652 15.2588 11.7277 15.1659C11.8342 15.0076 12.079 15.1444 11.991 15.313L11.9881 15.3185C11.86 15.546 11.7811 15.7966 11.7667 16.0578L11.763 16.1301C11.7606 16.1828 11.7588 16.2577 11.77 16.2604C11.7833 16.2637 11.876 16.1565 11.8914 16.1416C11.9657 16.0701 12.0423 16.0116 12.1457 15.9925C12.2818 15.9675 12.419 16.1362 12.3009 16.2468L12.296 16.2513C12.1906 16.3431 12.1953 16.5263 12.3117 16.6122C12.476 16.7334 12.6783 16.5355 12.7021 16.3726L12.7029 16.3666C12.724 16.1906 12.9678 16.1844 12.9811 16.3666C13.0098 16.7621 12.5402 17.0935 12.1829 16.894C12.0416 16.8152 11.9517 16.6708 11.9236 16.5161C11.8785 16.5399 11.8298 16.5565 11.7784 16.5611C11.6109 16.576 11.4919 16.4579 11.4648 16.2995C11.4332 16.1149 11.4519 15.9173 11.5004 15.7256C11.4095 15.7476 11.3138 15.7392 11.2177 15.6835C10.9267 15.5152 11.0103 15.1409 11.1201 14.8881C11.5891 13.8093 12.5607 12.8305 13.7644 12.7527C13.771 12.5624 13.7967 12.3825 13.8388 12.1919C14.2505 10.3276 15.5843 8.60138 17.3207 7.79455C17.7847 7.57894 18.2768 7.43391 18.7883 7.39768ZM14.2348 14.8446L14.2513 14.8409C14.4389 14.8004 14.9325 14.7528 14.873 15.0692C14.8702 15.0841 14.8487 15.0823 14.8448 15.0692C14.7865 14.8702 14.3906 15.0294 14.275 15.0773C14.1157 15.1433 13.9585 15.2407 13.8284 15.3538C13.5435 15.6017 13.3525 15.951 13.3235 16.3304C13.2947 16.7067 13.4036 17.1132 13.6744 17.3854C13.8071 17.5188 13.9766 17.6094 14.1669 17.6161C14.3379 17.622 14.5268 17.4886 14.6846 17.5667C14.7157 17.5821 14.7404 17.6244 14.7376 17.6593C14.7322 17.7252 14.7028 17.7765 14.659 17.8163C14.9232 18.2989 15.1394 18.8097 15.4764 19.2485C15.6455 19.4687 15.8371 19.6726 16.0541 19.8461C16.1572 19.9287 16.2693 20.0011 16.3849 20.0648C16.5204 20.1394 16.6377 20.1862 16.7344 20.3127C16.8168 20.4205 16.7343 20.6291 16.5984 20.6477C16.2783 20.6914 15.9672 20.4319 15.7322 20.2376C15.4975 20.0434 15.2945 19.8039 15.1268 19.5497C14.8048 19.0617 14.5845 18.4859 14.4965 17.9034C14.3942 17.9359 14.2791 17.9459 14.1925 17.9461C13.962 17.9466 13.742 17.8635 13.5609 17.7231C12.898 17.209 12.8243 16.1536 13.2921 15.4881C13.516 15.1696 13.8562 14.9343 14.2348 14.8446ZM14.2389 16.0687C14.3927 16.0552 14.5463 16.0795 14.6907 16.132L14.7503 16.1537C14.8761 16.1998 15.01 16.254 15.1009 16.3486C15.2398 16.4931 15.1015 16.7435 14.9037 16.6881C14.6851 16.6269 14.5074 16.4423 14.2888 16.3648C14.0934 16.2957 13.8721 16.3055 13.6987 16.4246C13.6758 16.4404 13.6457 16.4093 13.6606 16.3865C13.7933 16.184 14.0027 16.0894 14.2389 16.0687Z" fill="black"/>
<path fill-rule="evenodd" clip-rule="evenodd" d="M19.0992 17.6529C19.441 17.4469 20.7188 17.5979 21.7225 17.6529C22.5195 17.6965 23.0888 17.61 23.271 17.7327C23.6827 18.0099 23.4827 19.3501 22.7734 19.5334C22.064 19.7167 19.4345 19.9727 18.9811 19.5334C18.5278 19.0941 18.4859 18.0223 19.0992 17.6529Z" fill="white"/>
<path fill-rule="evenodd" clip-rule="evenodd" d="M19.5422 17.2987C20.0788 17.2336 20.5988 17.3979 21.1233 17.4807C21.4003 17.5244 21.6776 17.5571 21.9578 17.5692C22.0142 17.5717 22.0706 17.5731 22.127 17.5742C22.1322 17.5246 22.16 17.479 22.2202 17.4516C22.3437 17.3957 22.4424 17.3704 22.578 17.3758C22.702 17.3807 22.8265 17.3935 22.9486 17.4159C23.1705 17.4565 23.3933 17.5489 23.5555 17.7092C23.931 18.0804 23.8739 18.6765 23.5837 19.0808C22.9843 19.9161 21.8902 19.9548 20.9532 19.9439L20.8667 19.9428C20.0135 19.9306 18.7929 20.0579 18.4053 19.0868C18.2627 18.7297 18.2825 18.3158 18.457 17.9733C18.6652 17.5648 19.1034 17.352 19.5422 17.2987ZM22.2073 18.6895L22.1997 18.6898C21.8063 18.705 21.413 18.7156 21.0194 18.7226C21.0312 18.8237 21.0432 18.9249 21.0569 19.0258C21.0677 19.1052 21.0793 19.1845 21.0913 19.2637C21.0964 19.2972 21.1151 19.3493 21.1098 19.3825L21.1079 19.3956C21.1281 19.4048 21.1464 19.4195 21.1601 19.4409C21.1648 19.4483 21.1683 19.4557 21.1717 19.4632C21.4773 19.4656 21.8061 19.4596 22.1176 19.4041L22.1182 19.3973C22.1239 19.3575 22.1404 19.3307 22.1624 19.3123C22.1843 19.1854 22.1823 19.0501 22.1908 18.9241C22.1961 18.8459 22.2018 18.7677 22.2073 18.6895ZM20.7188 18.728C20.4353 18.7328 20.1516 18.7365 19.8682 18.733L19.7395 18.7311C19.7666 18.8769 19.7962 19.0223 19.8208 19.1691C19.8464 19.3221 19.7118 19.4194 19.5953 19.4155C19.6084 19.4176 19.6214 19.4198 19.6345 19.4217C19.9986 19.4732 20.3766 19.4595 20.7461 19.4591C20.7262 19.343 20.7342 19.2121 20.7313 19.1152L20.7307 19.1002C20.725 18.9761 20.7211 18.852 20.7188 18.728ZM18.7929 18.7012C18.8028 18.777 18.8219 18.8513 18.8506 18.9204C18.9716 19.2123 19.249 19.3486 19.5426 19.4059C19.4917 19.3883 19.4512 19.3461 19.441 19.2737C19.4156 19.0936 19.4064 18.9106 19.4057 18.7277C19.2011 18.7258 18.9952 18.7215 18.7929 18.7012ZM23.2743 18.6389C23.1286 18.6732 22.9593 18.6575 22.8164 18.664C22.6825 18.6701 22.5486 18.6754 22.4147 18.6808C22.421 18.7722 22.4271 18.8636 22.4338 18.955C22.4424 19.0731 22.4433 19.198 22.4659 19.3156C22.7353 19.2236 22.9768 19.076 23.1579 18.8401C23.2031 18.7813 23.2435 18.7124 23.2743 18.6389ZM19.4807 17.7777C19.2382 17.8352 19.0087 17.9565 18.8854 18.1785C18.8122 18.3102 18.78 18.4663 18.7862 18.6201C18.9911 18.5963 19.1996 18.5872 19.407 18.5797C19.4077 18.5424 19.4086 18.505 19.4097 18.4678L19.4129 18.3723C19.4186 18.1902 19.4214 17.9615 19.4807 17.7777ZM20.7358 17.7999L20.629 17.7879C20.3325 17.7541 20.0362 17.7187 19.7397 17.739C19.6968 17.742 19.6532 17.7466 19.6095 17.753C19.662 17.9422 19.6576 18.1644 19.6794 18.3517C19.6879 18.4241 19.6986 18.4959 19.7104 18.5675L19.7619 18.5651C20.08 18.5478 20.3985 18.5372 20.7169 18.5246C20.7169 18.4648 20.7172 18.4049 20.7182 18.3451L20.7193 18.2852C20.723 18.1323 20.7131 17.96 20.7358 17.7999ZM22.2246 17.7757C21.9141 17.8258 21.5932 17.8365 21.2881 17.8368C21.1663 17.837 21.0445 17.8295 20.9228 17.8187C20.9307 17.8835 20.9349 17.9491 20.9408 18.0131C20.9528 18.1422 20.9666 18.2712 20.9815 18.4001L20.9948 18.5128C21.3862 18.4951 21.7775 18.4759 22.1688 18.456L22.224 18.4531L22.2395 18.2364C22.25 18.0919 22.2616 17.9474 22.278 17.8036L22.2657 17.7991C22.2513 17.7932 22.2376 17.785 22.2246 17.7757ZM22.3595 17.8294C22.3766 18.0338 22.3861 18.2389 22.3987 18.4436L22.6566 18.4298C22.6996 18.4275 22.7426 18.4251 22.7856 18.4226C22.9527 18.413 23.1675 18.3623 23.3327 18.4096C23.3454 18.2593 23.3024 18.1129 23.1668 18.0119C22.9288 17.8346 22.6257 17.8977 22.3595 17.8294ZM21.4782 16.003C21.8623 15.7829 22.826 15.558 22.8871 16.2495C22.9151 16.5677 22.6787 16.8314 22.4025 16.949L22.3921 16.9534C22.1331 17.0599 21.6741 17.1802 21.45 16.9492C21.2634 16.757 21.5108 16.4123 21.7426 16.5698C21.8618 16.6507 22.1125 16.591 22.2454 16.5525L22.2537 16.5501C22.3972 16.5079 22.5884 16.373 22.5291 16.1963C22.4766 16.04 22.2533 16.0114 22.1134 16.0063C21.9046 15.9989 21.7014 16.0474 21.4945 16.0631C21.4618 16.0656 21.4516 16.0182 21.4782 16.003ZM23.0693 14.891C23.5906 14.8666 23.9149 15.436 23.795 15.9026C23.7743 15.9831 23.6843 16.0621 23.5974 16.0531L23.5755 16.0511C23.5644 16.05 23.5532 16.0486 23.5429 16.0457C23.4604 16.0229 23.3865 15.937 23.3925 15.848L23.3941 15.8221C23.4062 15.6017 23.3824 15.3478 23.1205 15.2944C22.8985 15.2491 22.7745 15.4629 22.7719 15.6598C22.7714 15.6947 22.7321 15.7191 22.7012 15.7003C22.5407 15.6026 22.5129 15.4082 22.5742 15.2408C22.6519 15.0286 22.8464 14.9014 23.0693 14.891ZM19.2007 15.0131C19.58 14.8865 19.9893 15.0888 20.173 15.4244C20.2375 15.443 20.3018 15.4927 20.2929 15.5688C20.2799 15.6783 20.2605 15.7473 20.1846 15.8303C20.0659 15.9601 19.8437 15.8937 19.7944 15.7339L19.7923 15.7267C19.7362 15.52 19.5089 15.3837 19.3018 15.456C19.0598 15.5405 19.0669 15.7961 18.8971 15.9451C18.8772 15.9626 18.8533 15.9653 18.8294 15.9538C18.6491 15.8667 18.6815 15.6044 18.7458 15.4543C18.8301 15.2573 18.9939 15.0821 19.2007 15.0131ZM18.684 13.8607C18.9914 13.5469 19.793 13.2432 20.0033 13.8227C20.0434 13.9331 19.9581 14.0819 19.8432 14.1048C19.6551 14.1422 19.4882 14.0605 19.3014 14.0752C19.1501 14.0871 18.9923 14.1377 18.8714 14.2314C18.5364 14.4911 18.4628 14.9302 18.2294 15.2606C18.218 15.2767 18.1959 15.27 18.1938 15.251C18.1407 14.7699 18.3473 14.2043 18.684 13.8607ZM22.6932 13.5517C22.8972 13.4797 23.1283 13.4858 23.3333 13.5498C23.5399 13.6142 23.7295 13.7366 23.8756 13.8965C23.9419 13.969 24.0033 14.0491 24.0525 14.1344C24.0786 14.1796 24.1061 14.2729 24.1358 14.3285C24.2965 14.4213 24.3652 14.6328 24.2213 14.7833L24.2148 14.7899L24.1956 14.809C24.1182 14.8856 24.0016 14.9188 23.896 14.8882C23.6598 14.8198 23.6311 14.6336 23.5493 14.4361C23.4953 14.3056 23.4027 14.1901 23.2905 14.1053C23.0253 13.9049 22.5905 13.841 22.2712 13.9355C22.2542 13.9405 22.2343 13.9188 22.2464 13.9031C22.3069 13.8247 22.3417 13.7604 22.4227 13.6971C22.505 13.6329 22.5947 13.5866 22.6932 13.5517Z" fill="black"/>
<path fill-rule="evenodd" clip-rule="evenodd" d="M23.6123 11.3148C23.7932 11.2528 23.9375 11.441 23.9027 11.6051C23.8617 11.7983 23.6602 11.9533 23.5265 12.0895C23.3863 12.2329 23.2433 12.3735 23.0949 12.5087C22.8117 12.7674 22.5181 13.011 22.2085 13.238L22.1139 13.3074C21.8301 13.5151 21.5472 13.7179 21.2433 13.8977C21.0786 13.9948 20.9124 14.0887 20.744 14.1792C20.684 14.2114 20.6107 14.2612 20.5353 14.2982C20.811 14.5111 21.0232 14.8361 21.0692 15.1389C21.1832 15.891 20.6987 16.588 20.0151 16.8651C19.6742 17.0031 19.2949 17.0432 18.9306 17.0016C18.56 16.9593 18.1844 16.8497 17.9437 16.546C17.73 16.2764 17.653 15.9323 17.6376 15.5945C17.6304 15.4341 17.632 15.2763 17.6658 15.1345C17.5184 15.1358 17.371 15.1351 17.2248 15.1367C16.8636 15.1401 16.5018 15.1417 16.1403 15.1317C15.7675 15.121 15.3966 15.1044 15.0251 15.0713C14.862 15.0565 14.6999 15.0324 14.5378 15.0093C14.3804 14.987 14.2066 14.9786 14.0595 14.9141C14.0495 14.91 14.0537 14.8956 14.0624 14.8927C14.2192 14.8421 14.3973 14.8511 14.5606 14.8411L14.7199 14.8314C14.8525 14.8235 14.985 14.8162 15.1181 14.812C15.4253 14.8019 15.7324 14.7994 16.0396 14.7941L16.1713 14.7916C16.5328 14.7844 16.8943 14.7804 17.2558 14.7688C17.4057 14.7641 17.5559 14.7553 17.7065 14.7472C17.724 14.7074 17.7497 14.6711 17.7744 14.6357C17.8483 14.5299 17.9422 14.4366 18.0395 14.352C18.2389 14.1779 18.4633 14.0486 18.7137 13.9619C18.9618 13.8762 19.3247 13.8337 19.5872 13.8393C19.8497 13.8448 20.2238 13.8818 20.344 14.0965C20.3566 14.1188 20.5854 14.0759 20.6533 14.0239C20.812 13.9027 20.9678 13.7781 21.1209 13.6503C21.4051 13.4127 21.6974 13.1788 21.9666 12.9246C22.2442 12.6622 22.5196 12.3954 22.7838 12.1199C22.9165 11.9818 23.0489 11.8434 23.1775 11.7019C23.309 11.5575 23.422 11.3797 23.6123 11.3148Z" fill="black"/>
</svg>
