<svg width="36" height="48" viewBox="0 0 36 48" fill="none" xmlns="http://www.w3.org/2000/svg">
<path fill-rule="evenodd" clip-rule="evenodd" d="M8.17774 42.3066C8.55243 42.3297 8.92709 42.348 9.30172 42.362C14.201 42.5446 19.0962 41.9859 23.9924 41.8636C25.6975 41.8187 27.3938 41.8412 29.0945 41.9781C29.2612 41.9915 29.4517 41.8122 29.4312 41.6413C29.117 38.928 28.7239 36.222 28.5202 33.4976C28.5201 33.3535 28.5387 33.2097 28.5882 33.0739C28.5975 33.0632 28.6459 32.9439 28.6889 32.9365C28.6749 32.9469 28.7386 32.9286 28.698 32.9317C28.9439 32.8915 29.185 32.6259 29.0066 32.3719C27.1684 29.5533 24.659 26.9808 23.8517 23.6331C23.6609 22.728 22.972 22.672 22.238 22.2987C22.009 22.1624 21.4491 21.785 21.3579 21.5226C21.1402 20.5769 21.5236 19.6505 20.4036 19.2678C19.6643 19.0627 18.3575 18.8892 17.6094 19.1055C16.6969 19.4093 16.7652 20.438 16.2359 21.1457C15.9622 21.5551 15.4955 22.1156 15.0646 22.1783C14.8557 22.2087 14.7019 21.7861 14.4933 21.8151C11.2428 22.6049 6.81421 27.9925 5.41715 30.9749C5.10231 31.9135 6.11767 31.6303 6.05529 32.5737C5.97839 34.3635 5.8102 36.6547 5.90995 38.4466C6.00338 39.4867 5.93424 40.5764 6.2574 41.5773C6.17042 41.683 6.2954 41.7897 6.39737 41.8356C6.52585 42.0542 7.79008 42.2763 8.17774 42.3066Z" fill="#D08B5B"/>
<path d="M14.4933 21.8154C14.6878 21.7883 14.7005 22.3603 14.8888 22.3851C15.7629 23.6126 17.1174 24.0201 18.6839 24.0201C20.3468 24.0201 21.6953 23.5198 22.7291 22.5192L22.8239 22.5592C23.3132 22.7673 23.7134 22.9771 23.8517 23.6333C24.659 26.981 27.1684 29.5536 29.0066 32.3721C29.185 32.6262 28.9439 32.8917 28.698 32.932C28.7386 32.9288 28.6749 32.9471 28.6889 32.9367C28.6459 32.9441 28.5975 33.0635 28.5882 33.0741C28.5642 33.1398 28.5475 33.2074 28.5366 33.276C28.5366 33.276 26.4773 33.7125 25.9237 33.7245C20.3645 33.8448 10.1981 33.673 10.1981 33.673L5.94002 32.0617C5.69649 31.6959 5.18025 31.6814 5.41715 30.9751C6.81421 27.9927 11.2428 22.6051 14.4933 21.8154Z" fill="#E86BBB"/>
<path fill-rule="evenodd" clip-rule="evenodd" d="M16.641 20.0183C16.7255 19.6379 17.3306 19.8011 17.227 20.1799C17.0664 20.7658 16.7334 21.3193 16.2633 21.7079C15.9002 22.0079 15.4054 22.2756 14.9146 22.325C14.9606 22.3698 15.0047 22.4177 15.0511 22.4634C15.1556 22.5674 15.2667 22.6638 15.3813 22.7565C15.6167 22.9469 15.8614 23.1181 16.1287 23.2615C17.1963 23.8346 18.4023 23.9667 19.5947 23.8333C20.1606 23.77 20.7349 23.6627 21.267 23.4557C21.5137 23.3599 21.7534 23.234 21.965 23.075L22.0204 23.0334C22.1316 22.9493 22.2801 22.8307 22.3496 22.7011C22.1381 22.7487 21.8705 22.5232 21.7237 22.3921C21.5631 22.248 21.4279 22.0623 21.328 21.872C21.1324 21.4984 21.0288 21.0166 21.1929 20.6161C21.2038 20.5894 21.2388 20.5939 21.242 20.6227C21.2905 21.0895 21.4163 21.5272 21.7512 21.8729C21.8999 22.026 22.078 22.1544 22.2723 22.2436L22.2997 22.2562C22.3825 22.2945 22.4697 22.3395 22.5046 22.4215C22.5181 22.4199 22.5315 22.4211 22.5443 22.4246C22.5559 22.4277 22.5665 22.4312 22.5769 22.435C22.5537 22.3896 22.5415 22.336 22.5437 22.2727C22.5519 22.0276 22.8883 22.0201 22.9349 22.2383C22.9265 22.2095 22.9152 22.2374 22.9365 22.2462C22.9362 22.2436 22.9356 22.2408 22.9349 22.2383L22.9356 22.2406L22.9368 22.2461L22.9365 22.2462C22.9374 22.2501 22.938 22.2542 22.9385 22.2584L22.9389 22.2638L22.9387 22.2592C22.9384 22.2559 22.938 22.2528 22.9375 22.2501L22.9368 22.2462C22.9399 22.2477 22.9443 22.2487 22.9493 22.2487L22.9514 22.2495C22.9592 22.2529 22.9869 22.2658 22.9951 22.269C23.0511 22.2897 23.1137 22.2962 23.1709 22.3141C23.2952 22.3523 23.4048 22.4155 23.4805 22.5232C23.535 22.6006 23.5653 22.6892 23.5778 22.7812C24.1277 23.0458 24.6482 23.3896 25.0843 23.8152C26.0573 24.7645 26.7359 25.9527 27.2927 27.1827C27.5761 27.8088 27.8286 28.4482 28.0756 29.0894L28.1146 29.1907C28.3794 29.8798 28.6135 30.5765 28.6711 31.3173C28.6764 31.3837 28.6545 31.446 28.6166 31.4977C28.6301 31.5534 28.637 31.6091 28.6351 31.6636C28.6348 31.6721 28.6342 31.6805 28.6335 31.689C28.7224 31.6874 28.8094 31.7247 28.8921 31.8292C28.9255 31.8186 28.9619 31.8173 28.9975 31.8289C29.2151 31.8984 29.2501 32.1373 29.2911 32.3374C29.3334 32.5441 29.3518 32.7557 29.3521 32.9664C29.3521 33.0419 29.309 33.1371 29.2357 33.1694C29.098 33.2301 28.9497 33.2699 28.8072 33.325C28.7002 33.3663 28.5928 33.4054 28.4845 33.4421C28.5446 33.5469 28.564 33.6929 28.5966 33.8034C28.6476 33.9759 28.6886 34.1491 28.7231 34.3257C28.9565 35.5265 29.1183 36.7401 29.3368 37.9434C29.446 38.5461 29.5732 39.1448 29.7027 39.7434C29.7665 40.0378 29.8345 40.3314 29.9074 40.6239C29.9462 40.7798 29.9866 40.9358 30.0282 41.0907C30.0403 41.136 30.0525 41.1812 30.0649 41.2263L30.0867 41.3052C30.1343 41.3316 30.175 41.3713 30.2032 41.4258C30.3062 41.6249 30.247 41.8494 30.0495 41.9615C29.8348 42.0836 29.5785 41.9684 29.4601 41.7702C29.3769 41.6303 29.3496 41.4449 29.3086 41.2892C29.2623 41.1146 29.2182 40.9389 29.1756 40.7633C28.8865 39.5699 28.6928 38.3556 28.5468 37.1368L28.5365 37.0498C28.4623 36.4223 28.3906 35.7932 28.3443 35.1629C28.3215 34.8533 28.3033 34.5436 28.2921 34.2333C28.2864 34.0736 28.2955 33.913 28.3046 33.7536C28.3086 33.6838 28.3146 33.6136 28.3168 33.5438L28.3175 33.5339C28.3181 33.5268 28.3189 33.5175 28.3195 33.5078L28.3202 33.4959C28.1043 33.5636 27.8852 33.6199 27.6639 33.6675C27.1931 33.7692 26.7115 33.826 26.231 33.7971C26.298 34.5931 26.3853 35.3871 26.5074 36.1758C26.6251 36.9355 26.7609 37.6935 26.9143 38.4469C26.991 38.8254 27.0739 39.203 27.1612 39.5794C27.2082 39.7804 27.2617 39.9801 27.304 40.1821C27.329 40.3023 27.3368 40.4028 27.2864 40.5153C27.3419 40.6664 27.3912 40.8183 27.4397 40.9614L27.4542 41.004C27.5399 41.2545 27.7027 41.5106 27.5327 41.7568C27.4448 41.8839 27.3015 41.9565 27.1572 41.9609C27.1547 41.9624 27.1518 41.9643 27.149 41.9659C27.0714 42.0075 26.9819 42.0157 26.8967 41.9979C26.7675 42.0232 26.6379 42.0476 26.508 42.0699C26.1872 42.1253 25.8648 42.171 25.5418 42.2095C24.9268 42.2828 24.3077 42.3229 23.689 42.3451C21.4235 42.4268 19.1556 42.2834 16.8893 42.3247C15.7346 42.3457 14.58 42.3977 13.4273 42.4666C12.852 42.501 12.2764 42.538 11.7008 42.5665L11.5227 42.5751C11.0079 42.5998 10.4928 42.6188 9.97844 42.5812C9.96842 42.5805 9.9606 42.5765 9.95528 42.5708C9.77781 42.5508 9.59944 42.3873 9.61725 42.1986C9.69393 41.3945 9.77062 40.5904 9.84761 39.786C9.98439 38.3529 10.1224 36.9198 10.262 35.487L10.2822 35.2801C10.3291 34.7973 10.3739 34.3134 10.3966 33.8287C10.282 33.8206 10.1678 33.8103 10.0536 33.7977C8.81551 33.6622 7.62866 33.2876 6.48909 32.7955L6.44292 32.7755C6.34026 32.7307 6.22789 32.6859 6.11271 32.638C6.11462 32.8568 6.10739 33.076 6.10645 33.2927C6.10489 33.6525 6.1077 34.0123 6.10864 34.3717C6.11083 35.1125 6.139 35.8536 6.17594 36.5932C6.24072 37.8995 6.31678 39.2039 6.43196 40.5071C6.46107 40.8349 6.50054 41.1621 6.52836 41.49C6.54498 41.6831 6.5052 41.8441 6.32839 41.9456C6.24135 41.9957 6.17406 41.9747 6.08767 41.9343C5.87672 41.8353 5.87077 41.6015 5.85074 41.3979C5.83543 41.2445 5.82132 41.0911 5.80755 40.9373C5.77816 40.6095 5.75277 40.2817 5.73212 39.9532C5.65046 38.6482 5.62664 37.3444 5.68298 36.0378C5.70913 35.4266 5.7469 34.8141 5.79701 34.204L5.8088 34.0633C5.85011 33.5757 5.87672 33.0642 5.96216 32.5735C5.61756 32.4207 5.27609 32.2263 5.11772 31.9031C4.91243 31.4835 5.13806 31.1247 5.4595 30.8777C5.45637 30.836 5.4595 30.7947 5.46827 30.7571C5.5606 30.3573 5.71522 29.9621 5.86451 29.5808C6.01506 29.1975 6.18126 28.8202 6.36404 28.4511C7.09769 26.9722 8.09988 25.6209 9.29456 24.4824C9.88799 23.9169 10.5374 23.3943 11.2307 22.9559C11.5744 22.739 11.9268 22.5386 12.2917 22.3601L12.3457 22.3338C12.5998 22.2105 12.8847 22.0794 13.1672 22.0107C13.1966 21.9888 13.2263 21.9681 13.2564 21.9484C13.3675 21.8745 13.5183 21.928 13.5841 22.0335C13.616 22.0088 13.6529 21.9869 13.6952 21.9671L13.7369 21.9481C13.9904 21.8339 14.2948 21.7271 14.57 21.8022C14.7409 21.8488 14.8755 21.9747 14.9359 22.135C15.0745 22.0617 15.2107 21.9863 15.3437 21.8939C15.5575 21.7461 15.7512 21.5626 15.9252 21.37C16.2742 20.9827 16.5277 20.529 16.641 20.0183ZM28.7503 32.2297C28.7265 32.2366 28.7014 32.2391 28.6755 32.2359C28.7224 32.2415 28.6284 32.2692 28.6026 32.2825L28.6007 32.2836C28.5537 32.3105 28.5065 32.3365 28.4586 32.3615C28.3468 32.4204 28.2326 32.4733 28.1165 32.5231C27.8877 32.6205 27.6514 32.6953 27.4088 32.7501C27.1716 32.8036 26.9227 32.8349 26.6795 32.8399C26.5168 32.8431 26.3237 32.8356 26.1553 32.7876C26.1747 33.0829 26.1963 33.3779 26.2204 33.6725L26.5529 33.5962C26.8855 33.5199 27.2177 33.4417 27.5459 33.3465C27.7922 33.2752 28.0351 33.1916 28.2752 33.1014C28.401 33.0541 28.5259 33.004 28.6492 32.9502C28.7105 32.9234 28.7681 32.8915 28.8249 32.8592L28.8736 32.8315C28.8623 32.6997 28.8417 32.5704 28.8116 32.4401C28.796 32.3712 28.7694 32.3005 28.7503 32.2297ZM5.97781 30.8392C5.93556 30.9763 5.87077 31.1044 5.72304 31.1354C5.67077 31.1463 5.62698 31.1404 5.59065 31.1226L5.58193 31.1401C5.46047 31.3895 5.4248 31.6528 5.70426 31.8449C5.83043 31.9316 5.9678 32.0068 6.10989 32.0741C6.364 32.195 6.63462 32.2923 6.88976 32.3912L6.94057 32.411C7.39691 32.5901 7.86044 32.7532 8.33118 32.8897C8.80883 33.0278 9.29487 33.1386 9.78692 33.2091C9.9944 33.2386 10.2035 33.2592 10.4129 33.2727C10.4163 32.9909 10.4147 32.7088 10.4138 32.427C10.3393 32.4175 10.2655 32.4076 10.1941 32.3991C9.97687 32.3737 9.76029 32.3427 9.54495 32.3042C9.09518 32.2238 8.65011 32.1126 8.216 31.9705C7.41162 31.7065 6.66326 31.3292 5.97781 30.8392ZM14.7969 22.2073C14.6141 22.0138 14.2645 22.0836 14.0439 22.1776C13.9772 22.2061 13.9099 22.2349 13.846 22.2696L13.8337 22.2766C13.7593 22.3194 13.7597 22.3449 13.796 22.4302C13.8432 22.5427 13.909 22.6513 13.9716 22.7556C14.2395 23.203 14.5922 23.5925 14.995 23.9216C16.4216 25.0864 18.4711 25.4972 20.2551 25.1071C21.1113 24.92 21.9372 24.5425 22.5675 23.9232L22.6249 23.8661C22.8791 23.6117 23.2279 23.2435 23.2035 22.8664C23.1919 22.6851 23.0439 22.6748 22.8927 22.6397C22.8307 22.6253 22.7716 22.6049 22.7202 22.5762C22.7615 22.7543 22.5415 23.0192 22.4279 23.1304C22.1897 23.3636 21.903 23.5458 21.5998 23.6821C21.0226 23.9416 20.3947 24.0644 19.7697 24.142C19.0604 24.2303 18.3359 24.2225 17.632 24.0919C17.0194 23.9783 16.4157 23.7632 15.8886 23.4281C15.647 23.2747 15.4088 23.0997 15.2072 22.8959L15.1644 22.8525C15.0189 22.705 14.8495 22.5268 14.7625 22.3332C14.7293 22.3335 14.6964 22.3325 14.6636 22.3303C14.6404 22.3291 14.6279 22.2962 14.6511 22.284C14.677 22.2702 14.703 22.2565 14.729 22.243C14.7246 22.2286 14.7208 22.2145 14.7177 22.2001C14.7152 22.1879 14.728 22.1766 14.7393 22.1835C14.755 22.1929 14.77 22.2029 14.7847 22.2136C14.7888 22.2117 14.7928 22.2095 14.7969 22.2073Z" fill="black"/>
<path fill-rule="evenodd" clip-rule="evenodd" d="M24.0583 13.2681C23.9841 12.3055 24.0991 11.2965 23.7289 10.3815C23.0834 8.8634 21.2732 8.35723 19.8699 7.77926C19.3077 7.61272 17.416 7.58945 16.7577 7.36904C15.2679 6.87019 14.9119 6.27583 13.7282 7.22564C13.5283 7.3879 13.4033 7.56424 13.3121 7.80518L13.3158 7.80622C13.2898 7.90666 13.3177 8.00689 13.3764 8.08344C12.8631 8.60941 12.6483 9.39795 12.9117 10.0981C13.7711 11.9201 13.7307 12.9052 13.4538 14.8639C13.0922 16.6925 13.9185 17.3604 15.287 18.3554C15.2313 18.4637 15.2197 18.6076 15.2924 18.7032C16.8749 20.9325 19.8586 21.9969 22.4151 20.8654C23.4528 20.4024 23.9161 19.2945 24.1805 18.2948C24.4885 17.1755 24.5831 15.996 24.3324 14.8557C24.2313 14.3284 24.0995 13.8049 24.0583 13.2681Z" fill="#D08B5B"/>
<path fill-rule="evenodd" clip-rule="evenodd" d="M12.7246 10.5373L13.6656 11.1657L17.0337 7.60607L15.9128 6.72168C15.9128 6.72168 13.8794 8.22832 13.4795 8.62596C13.0797 9.0236 12.7246 10.5373 12.7246 10.5373Z" fill="#9FD8E5"/>
<path fill-rule="evenodd" clip-rule="evenodd" d="M14.9309 2.60296C15.123 2.57404 15.268 2.69351 15.337 2.86191L15.3406 2.87098C15.3628 2.92828 15.3875 2.98401 15.414 3.03881C15.8947 2.80241 16.5806 2.86315 16.8848 3.3419C17.1019 3.68382 16.9694 4.08961 16.8876 4.45219L16.8339 4.6911C16.9377 4.75734 17.016 4.87598 17.0124 4.99882L17.0119 5.00828L16.9901 5.34143C17.0594 5.27098 17.1228 5.19427 17.1793 5.11255C17.2184 5.04084 17.2605 4.97039 17.3058 4.90213C17.5722 4.50041 18.1703 4.84953 17.9505 5.27975C17.9083 5.36272 17.8608 5.44131 17.8099 5.51709C17.7524 5.62887 17.7053 5.74378 17.6691 5.86182C17.7731 5.90722 17.853 6.00804 17.8615 6.16022C17.8811 6.5156 17.695 6.81211 17.3989 6.99842C17.3118 7.05321 17.2218 7.06386 17.1403 7.0435C17.1259 7.06292 17.1116 7.08233 17.0978 7.10206C17.2159 7.19818 17.3224 7.30777 17.4139 7.42926C17.6894 7.38793 17.9664 7.36851 18.2434 7.36789C18.582 7.20163 18.9874 7.20507 19.3513 7.26738C19.5855 7.30746 19.8104 7.38542 20.0409 7.44147C20.2839 7.50033 20.5306 7.50253 20.7764 7.5426C21.0862 7.59301 21.358 7.73642 21.5288 7.9653C21.7165 7.97094 21.9139 8.04797 22.0776 8.15255C22.4586 8.39615 22.8375 8.64319 23.2176 8.88836C23.3635 8.98248 23.418 9.13274 23.3912 9.30034L23.3894 9.31106L23.3766 9.38057L23.4066 9.42335C23.5229 9.58803 23.6495 9.76052 23.7248 9.94229C23.8641 10.1436 23.99 10.3547 24.1015 10.5723C24.2517 10.8647 24.3757 11.1747 24.4597 11.4928C24.4806 11.5733 24.5016 11.6544 24.5153 11.7364C24.535 11.8523 24.5047 11.9421 24.4881 12.0533C24.4675 12.1942 24.46 12.337 24.4382 12.4782C24.4235 12.5718 24.3441 12.6178 24.2611 12.6203C24.2923 12.8586 24.3148 13.0985 24.3363 13.3364C24.3666 13.6765 24.3872 14.0174 24.4051 14.3584C24.4969 14.4921 24.6846 14.5979 24.8201 14.6346C25.0078 14.685 25.2046 14.6302 25.382 14.566C25.4935 14.5256 25.585 14.6662 25.5307 14.7601C25.3598 15.0551 24.9944 15.0538 24.7177 14.9233C24.6006 14.8682 24.4978 14.7883 24.4216 14.6844C24.4263 14.7833 24.4313 14.8823 24.4363 14.9815L24.4409 15.0714C24.4972 16.1213 24.6187 17.2074 24.4219 18.247C24.0812 20.0477 22.5947 21.4188 20.7789 21.5252C19.8261 21.5811 19.0326 21.299 18.638 21.1416C18.2434 20.9842 18.3968 20.6633 18.6707 20.755C19.1426 20.913 20.0094 21.1485 20.7852 21.0468C22.6135 20.8072 24.1639 19.891 24.0046 15.9453C23.9821 15.3857 23.9125 14.8259 23.8975 14.2664C23.8832 13.7194 23.8885 13.172 23.8644 12.6253L23.8564 12.4388C23.847 12.2209 23.837 12.0019 23.8207 11.7837C23.801 11.6992 23.7848 11.6134 23.7607 11.5304C23.6954 11.3046 23.6102 11.0851 23.5043 10.8757C23.4809 10.8935 23.4546 10.9064 23.4262 10.9114C23.2104 10.9502 23.008 10.9392 22.8059 10.8491C22.7116 10.8074 22.6285 10.752 22.5511 10.6834C22.5142 10.6512 22.4895 10.6199 22.4702 10.5873C22.3724 10.5889 22.2747 10.5594 22.2134 10.489C22.1436 10.4087 22.132 10.3257 22.1594 10.249L22.1622 10.2413L22.1553 10.2388C22.0729 10.4527 21.9086 10.6408 21.7284 10.768C21.4436 10.9696 21.0872 11.0278 20.7455 11.0332C20.3682 11.0388 19.9703 10.9806 19.598 10.9211C19.4996 10.9054 19.4019 10.8876 19.306 10.8635C19.3022 10.8672 19.2985 10.8716 19.2944 10.8754C18.9749 11.1819 18.5255 11.2608 18.1201 11.0858C17.8858 10.9846 17.6894 10.8218 17.5157 10.6352C17.5132 10.7329 17.5082 10.8306 17.4998 10.9273L17.4963 10.9658C17.479 11.146 17.4457 11.3371 17.3099 11.4671C17.0903 11.6779 16.7717 11.5933 16.5184 11.4562C16.5188 11.4628 16.5188 11.4696 16.5188 11.4765C16.5872 11.7095 16.6559 11.9428 16.7246 12.176L16.7394 12.2257C16.7893 12.3914 16.8441 12.5572 16.8592 12.7305C16.8879 13.0618 16.668 13.389 16.3007 13.2779C16.1081 13.2198 15.9537 13.0574 15.8056 12.9273L15.7123 12.8464C15.9537 13.6376 16.1212 14.457 16.1368 15.2827C16.1377 15.3275 16.0993 15.3613 16.0568 15.3629C15.9575 15.3669 15.8507 15.3472 15.7507 15.3075C15.7451 15.3071 15.7395 15.3068 15.7336 15.3059C15.563 15.2812 15.4047 15.2195 15.2651 15.1284C15.2972 15.2307 15.3116 15.3406 15.3032 15.4556C15.301 15.4834 15.2576 15.4931 15.2513 15.4624C15.1707 15.0651 14.7069 14.7648 14.3072 14.8409C13.878 14.9226 13.5619 15.2927 13.4845 15.7139C13.4014 16.1663 13.5604 16.6895 13.8549 17.0387C13.9905 17.1996 14.1688 17.3339 14.3805 17.3677C14.4774 17.3831 14.5779 17.3778 14.672 17.3502C14.7119 17.3383 14.7494 17.3217 14.7875 17.306C14.8431 17.2835 14.9081 17.2801 14.9605 17.2563C15.0795 17.2027 15.1992 17.3126 15.1389 17.4351C15.0864 17.5418 15.0393 17.6138 14.9521 17.6689C15.0227 17.7554 15.0867 17.8756 15.1105 17.9078C15.2316 18.0719 15.3547 18.2269 15.4928 18.3769C15.6333 18.5291 15.7867 18.6681 15.9488 18.7968L16.0169 18.8507C16.173 18.9749 16.309 19.0899 16.4191 19.268C16.5059 19.4086 16.3935 19.5993 16.2308 19.5971C15.7217 19.5899 15.3516 19.1415 15.088 18.7498C15.0505 18.6938 15.0152 18.6346 14.9824 18.5738C14.9705 18.5929 14.9574 18.6108 14.9427 18.6271L14.9718 18.7053C15.058 18.9358 14.6866 19.0864 14.5789 18.8713C14.5005 18.7154 14.4096 18.5669 14.3084 18.4267C14.2487 18.4182 14.1903 18.3819 14.1579 18.3349C14.0757 18.2156 13.9836 18.0951 13.9058 17.968C13.8627 17.9269 13.8184 17.8875 13.7731 17.849C13.76 17.8606 13.7465 17.8722 13.7337 17.8844C13.6769 18.0143 13.6066 18.133 13.5195 18.2448L13.5008 18.2686C13.3338 18.4795 13.1164 18.6954 12.8473 18.747C12.7652 18.7626 12.6862 18.6603 12.7589 18.5948C12.9473 18.4251 13.17 18.3096 13.3436 18.1201C13.4292 18.0268 13.5077 17.924 13.5753 17.8163L13.5907 17.7914C13.6019 17.7729 13.6135 17.7544 13.6253 17.7356C13.5469 17.6821 13.4685 17.6282 13.3902 17.5744C13.1743 17.7592 12.8933 17.8438 12.6546 17.9969L12.6309 18.0124C12.4151 18.1571 12.1877 17.8371 12.3607 17.6614C12.5515 17.4685 12.7107 17.2385 12.8797 17.0241C12.8002 16.8773 12.7626 16.7038 12.7485 16.5285C12.7429 16.4789 12.7386 16.4292 12.7343 16.3796C12.6131 16.3814 12.4913 16.3398 12.3882 16.2681L12.3492 16.2402C12.2239 16.2803 12.0924 16.2997 11.9666 16.2963C11.6705 16.2875 11.5493 15.9484 11.7345 15.7339C11.9235 15.5147 12.2542 15.4668 12.5163 15.5733C12.5247 15.5689 12.5334 15.5642 12.5419 15.5595C12.5294 15.5019 12.5322 15.4496 12.5464 15.4037L12.5422 15.3757C12.4846 15.2871 12.4467 15.1859 12.4324 15.079C12.421 14.9943 12.4233 14.9103 12.4429 14.8267C12.4494 14.7989 12.4629 14.77 12.4732 14.741C12.4519 14.6871 12.4394 14.6314 12.4355 14.5753C12.4296 14.5682 12.4236 14.5609 12.418 14.553C12.288 14.37 12.3142 14.1495 12.438 14.0014C12.4386 13.992 12.4394 13.9825 12.4407 13.9732C12.4335 13.9568 12.4268 13.9403 12.4207 13.9236C12.2998 13.8014 12.2111 13.6542 12.2276 13.4719C12.2373 13.3646 12.2813 13.2681 12.3479 13.1959C12.3361 13.1609 12.335 13.1203 12.3493 13.0865C12.243 12.8033 12.2565 12.4621 12.3329 12.1453C12.3161 12.0971 12.3073 12.0448 12.3092 11.9894C12.3179 11.7543 12.5209 11.5382 12.7614 11.541C12.7904 11.5413 12.8175 11.5451 12.8435 11.5506L12.8439 11.545C12.8531 11.4744 12.8725 11.4092 12.9007 11.3507C12.8868 11.3457 12.874 11.3384 12.8627 11.3288C12.7086 11.4112 12.5455 11.4742 12.3746 11.5171C12.2488 11.5487 12.1201 11.4055 12.1982 11.2872C12.2345 11.2323 12.2745 11.183 12.3176 11.138C12.2563 11.1383 12.1941 11.1425 12.1312 11.1506C12.0181 11.1653 11.8919 11.088 11.8185 10.9834C11.7273 11.0723 11.6358 11.1609 11.5443 11.2495C11.3125 11.4747 10.9624 11.309 10.9259 11.0122C10.8569 10.9937 10.7925 10.9624 10.736 10.9176C10.3706 11.0767 9.97734 11.1641 9.57537 11.1806C9.28678 11.1925 9.11812 10.8556 9.25305 10.6177C9.34362 10.458 9.45606 10.3146 9.58568 10.19C9.38454 10.2516 9.17684 10.2961 8.96477 10.3246C8.85014 10.3399 8.68805 10.2448 8.64213 10.1392C8.4666 9.73345 8.4816 9.31043 8.68367 8.9156C8.69148 8.89994 8.70023 8.88491 8.70866 8.86988C8.72959 8.81759 8.75239 8.76593 8.77706 8.71521C8.52845 8.45532 8.50689 8.06894 8.64088 7.7455C8.58716 7.65814 8.56655 7.55294 8.60309 7.45775C8.7071 7.18378 8.85702 6.93078 9.04629 6.71348C9.02817 6.67842 9.01224 6.64116 8.99881 6.60108C8.89231 6.27701 9.01568 5.88593 9.2646 5.66018C9.42108 5.51802 9.60098 5.43286 9.79306 5.37838C9.87396 5.23497 9.97796 5.10566 10.0991 4.99669C10.1038 4.98636 10.1085 4.97603 10.1138 4.9657C10.3025 4.60937 10.646 4.41838 11.0143 4.37423C11.0286 4.23489 11.1223 4.10182 11.2585 4.05861C11.296 3.93806 11.3519 3.82284 11.4287 3.71826C11.5496 3.55356 11.7504 3.47591 11.9397 3.58393C12.0434 3.64311 12.1427 3.71106 12.2358 3.7862C12.2776 3.76655 12.325 3.75383 12.3785 3.74978L12.392 3.74894L12.6999 3.73329C12.8289 3.67599 12.9576 3.61587 13.0866 3.55732C13.164 3.49313 13.2505 3.43959 13.3449 3.39982C13.4517 3.35505 13.561 3.32969 13.6706 3.32123C13.7596 3.29211 13.8493 3.26644 13.9405 3.2464C14.1547 3.19943 14.379 3.17313 14.6014 3.17532C14.6059 3.11762 14.6082 3.05923 14.6077 3.00015L14.6073 2.97055C14.6023 2.78112 14.7532 2.62988 14.9309 2.60296ZM14.7151 17.7591C14.6844 17.7657 14.6535 17.771 14.6226 17.7748C14.632 17.7979 14.6413 17.8211 14.6504 17.8443C14.6754 17.8584 14.7007 17.8718 14.726 17.8844C14.7185 17.8418 14.7141 17.7989 14.7151 17.7591ZM13.1104 17.2811L13.0896 17.3194C13.0863 17.3257 13.083 17.3319 13.0797 17.338C13.1237 17.3345 13.1681 17.3355 13.2118 17.3405L13.2117 17.3358C13.2061 17.3339 13.2004 17.3322 13.1951 17.3295C13.1649 17.315 13.1369 17.2987 13.1104 17.2811ZM13.9776 15.5323C14.254 15.5484 14.4881 15.5909 14.7394 15.7121L14.761 15.7226C14.983 15.8332 15.3503 16.0373 15.3194 16.3301C15.3107 16.4134 15.2504 16.501 15.1554 16.4945C14.8953 16.4766 14.7466 16.2136 14.5704 16.0495C14.3927 15.8842 14.1744 15.7142 13.9592 15.6005C13.9288 15.5845 13.9408 15.5339 13.9739 15.5322L13.9776 15.5323ZM12.7246 11.675C12.6584 11.6772 12.6805 11.7417 12.7146 11.6879C12.7174 11.6835 12.7208 11.6791 12.7246 11.675ZM16.2987 7.36908C15.6717 7.38561 15.0405 7.7568 14.5708 8.132C14.1621 8.45842 13.8092 8.84668 13.4967 9.26516C13.4163 9.47356 13.3473 9.68632 13.289 9.90065C13.2505 10.0422 13.2265 10.1853 13.1943 10.328L13.1843 10.3718C13.1591 10.4192 13.1403 10.4701 13.1266 10.5227C13.1835 10.58 13.2574 10.621 13.3387 10.6404C13.3649 10.6467 13.3867 10.6602 13.4039 10.6782C13.4694 10.5687 13.5266 10.4531 13.5599 10.3305L13.5611 10.3249C13.687 10.1182 13.8236 9.91802 13.9701 9.72468C14.3743 9.19082 14.8194 8.70425 15.3544 8.29939C15.7601 7.99255 16.2136 7.75208 16.6958 7.59583C16.5778 7.50036 16.4438 7.42484 16.2987 7.36908Z" fill="black"/>
<path fill-rule="evenodd" clip-rule="evenodd" d="M21.2085 19.0034C20.9981 18.9175 20.8103 18.7743 20.6731 18.5913C20.6254 18.5277 20.613 18.4606 20.623 18.3991C20.6343 18.33 20.6751 18.2674 20.7308 18.2254C20.7867 18.1833 20.8566 18.1625 20.9242 18.1731C20.9829 18.1823 21.0414 18.2145 21.0876 18.2812L21.0973 18.2946C21.1789 18.405 21.2852 18.4956 21.4064 18.554C21.5232 18.6103 21.6538 18.6366 21.7889 18.6213C22.0463 18.5922 22.2237 18.4529 22.4123 18.2638C22.4357 18.24 22.459 18.2153 22.4825 18.1903C22.4974 18.1676 22.518 18.153 22.5408 18.1454C22.5662 18.1369 22.595 18.1374 22.6213 18.1466C22.6466 18.1554 22.6693 18.1722 22.6845 18.1946C22.699 18.2158 22.7072 18.242 22.7045 18.2722C22.6873 18.4682 22.5849 18.6431 22.4394 18.7804C22.2778 18.933 22.0636 19.0385 21.862 19.0755C21.6398 19.1163 21.4134 19.087 21.2085 19.0034ZM21.9668 15.98C22.2031 16.1237 22.5632 16.4588 22.309 16.8151C22.0097 17.1293 21.5788 16.7691 21.3664 16.6062C21.1695 16.4799 20.9483 16.8047 21.131 16.9521C22.6654 18.0885 23.2881 16.0176 22.0863 15.811C21.954 15.7883 21.9048 15.9355 21.9668 15.98ZM19.2171 14.658C19.2432 14.3338 19.7369 14.2601 19.786 14.581C19.83 14.8684 19.7782 15.1325 19.6488 15.3913C19.5251 15.6385 19.2143 15.5232 19.1908 15.298C19.1593 14.9963 19.2009 14.8597 19.2171 14.658ZM22.975 14.5145C23.0438 14.4243 23.1432 14.3627 23.2622 14.3975C23.6342 14.5063 23.5246 15.0346 23.3939 15.2917C23.323 15.4314 23.0935 15.4668 22.9898 15.3438C22.8208 15.1433 22.7399 14.7429 22.9547 14.5454C22.9605 14.5352 22.967 14.5249 22.975 14.5145ZM19.6435 13.2391L19.7023 13.2288C19.8841 13.1974 20.1101 13.1672 20.2387 13.3134C20.3069 13.3909 20.3304 13.535 20.2387 13.6092C20.0774 13.7398 19.8992 13.6892 19.7059 13.7002C19.5467 13.7094 19.3936 13.7357 19.2402 13.7796C18.9037 13.8758 18.6295 14.0515 18.3421 14.2443C18.3044 14.2696 18.2659 14.2214 18.2839 14.1861C18.4498 13.861 18.7713 13.5939 19.0934 13.4312C19.2653 13.3443 19.4534 13.2722 19.6435 13.2391ZM22.6359 13.0935L22.6809 13.1027C23.1703 13.2051 23.8062 13.4095 24.0379 13.8904C24.0468 13.9584 24.0374 13.973 24.0298 13.9825L24.0273 13.9857C24.0211 13.9938 24.0161 14.005 23.9866 14.0143C23.9784 14.0123 23.9702 14.0103 23.9618 14.0081C23.8556 13.9802 23.7715 13.9419 23.6902 13.902L23.6019 13.8586C23.4996 13.8083 23.3963 13.76 23.2869 13.7242C23.0533 13.648 22.8131 13.5943 22.5691 13.5657C22.5162 13.5595 22.4653 13.5416 22.4252 13.511C22.387 13.482 22.3579 13.4418 22.3446 13.3883C22.3274 13.3192 22.3324 13.2668 22.3695 13.2044C22.3973 13.1575 22.4373 13.1251 22.4831 13.1064C22.5298 13.0874 22.583 13.0829 22.6359 13.0935Z" fill="black"/>
<path fill-rule="evenodd" clip-rule="evenodd" d="M25.6001 13.5964C25.5744 13.5921 25.5486 13.588 25.5228 13.5843C25.5027 13.5728 25.479 13.564 25.4515 13.5587C25.3888 13.5428 25.3265 13.5321 25.2643 13.5263C24.3712 13.3252 22.3053 13.6107 22.22 14.373C21.9356 14.468 21.6896 14.383 21.36 14.3914C21.1091 13.3423 16.7716 13.4904 16.563 14.1229C16.5622 14.1227 16.5614 14.1225 16.5606 14.1222C16.3602 14.0602 16.0647 14.0751 15.8352 14.0653C15.3454 14.055 14.855 14.0987 14.3757 14.2021C13.4782 14.3448 12.2533 14.5118 12.8775 15.633C12.8776 15.6332 12.8777 15.6334 12.8779 15.6336L12.878 15.6335C12.9855 15.7438 13.1681 15.655 13.1749 15.5057C12.965 14.9745 13.439 14.9107 13.8037 14.7581C14.7112 14.4319 15.6351 14.3867 16.5736 14.4876C16.6442 14.5708 16.7513 14.6433 16.8646 14.6812C17.4921 14.7854 17.1614 15.2511 17.558 15.3188C17.4852 16.9421 19.4551 17.8281 20.5966 16.7611C21.0523 16.3153 21.161 15.655 21.2666 15.0598C21.3225 15.0472 21.358 15.0167 21.3788 14.9762C21.5131 14.842 21.5976 14.7181 21.8633 14.6812C22.129 14.6444 22.3335 14.7183 22.3612 14.741C22.3681 14.755 22.3756 14.7691 22.3843 14.7832C22.3965 14.8042 22.413 14.821 22.4318 14.8342C22.1694 16.4506 23.4238 17.4728 24.6901 16.6345C25.2403 16.1167 25.3566 15.3239 25.3796 14.6164C25.4541 14.5713 25.5014 14.4841 25.4756 14.3744C25.44 14.2231 25.5234 14.0922 25.6563 14.0264C25.829 13.941 25.7984 13.6292 25.6001 13.5964ZM20.1589 14.3632C20.0017 14.3286 19.9346 14.5711 20.0923 14.6057C20.2039 14.6303 20.2986 14.6866 20.3625 14.7821L20.3692 14.7924C20.455 14.929 20.672 14.8029 20.5856 14.6655C20.4884 14.5108 20.3373 14.4025 20.1589 14.3632ZM24.7625 14.2129C24.7071 14.1738 24.6233 14.2028 24.5911 14.258C24.5557 14.3188 24.5789 14.3864 24.6308 14.4262L24.6361 14.4301C24.6837 14.4636 24.73 14.5238 24.7359 14.5854L24.7364 14.5931C24.7426 14.7545 24.9932 14.7553 24.987 14.5931C24.9808 14.4345 24.889 14.302 24.7625 14.2129Z" fill="black"/>
</svg>
