<svg width="18" height="18" viewBox="0 0 18 18" fill="none" xmlns="http://www.w3.org/2000/svg">
<path d="M5.25 3.75195V1.50195C5.25 1.30304 5.32902 1.11228 5.46967 0.971623C5.61032 0.830971 5.80109 0.751953 6 0.751953H12C12.1989 0.751953 12.3897 0.830971 12.5303 0.971623C12.671 1.11228 12.75 1.30304 12.75 1.50195V3.75195H15.75C15.9489 3.75195 16.1397 3.83097 16.2803 3.97162C16.421 4.11228 16.5 4.30304 16.5 4.50195V15.002C16.5 15.2009 16.421 15.3916 16.2803 15.5323C16.1397 15.6729 15.9489 15.752 15.75 15.752H2.25C2.05109 15.752 1.86032 15.6729 1.71967 15.5323C1.57902 15.3916 1.5 15.2009 1.5 15.002V4.50195C1.5 4.30304 1.57902 4.11228 1.71967 3.97162C1.86032 3.83097 2.05109 3.75195 2.25 3.75195H5.25ZM3 12.002V14.252H15V12.002H3ZM3 10.502H15V5.25195H3V10.502ZM6.75 2.25195V3.75195H11.25V2.25195H6.75ZM8.25 8.25195H9.75V9.75195H8.25V8.25195Z" fill="#1D242D"/>
</svg>
