<svg width="18" height="18" viewBox="0 0 18 18" fill="none" xmlns="http://www.w3.org/2000/svg">
<path d="M12.813 11.8609C13.5183 11.1157 13.9898 10.1801 14.1692 9.16988C14.3485 8.15962 14.2279 7.11894 13.8223 6.17648C13.4166 5.23402 12.7437 4.43108 11.8867 3.86691C11.0296 3.30275 10.0261 3.00208 9 3.00208C7.97395 3.00208 6.97038 3.30275 6.11334 3.86691C5.25631 4.43108 4.58338 5.23402 4.17772 6.17648C3.77207 7.11894 3.65148 8.15962 3.83085 9.16988C4.01022 10.1801 4.4817 11.1157 5.187 11.8609C5.59175 11.215 6.15402 10.6826 6.821 10.3137C7.48799 9.94481 8.23779 9.75148 9 9.75189C9.76221 9.75148 10.512 9.94481 11.179 10.3137C11.846 10.6826 12.4083 11.215 12.813 11.8609ZM6.28875 12.9656L9 15.6761L11.7113 12.9656C11.4681 12.4523 11.0842 12.0186 10.6043 11.7148C10.1243 11.4111 9.568 11.2498 9 11.2498C8.43201 11.2498 7.87568 11.4111 7.39572 11.7148C6.91576 12.0186 6.53189 12.4523 6.28875 12.9656ZM9 17.7979L4.227 13.0249C3.28301 12.0809 2.64014 10.8782 2.3797 9.56878C2.11925 8.25941 2.25293 6.90222 2.76382 5.66882C3.27472 4.43542 4.13988 3.38122 5.24991 2.63953C6.35994 1.89783 7.66498 1.50195 9 1.50195C10.335 1.50195 11.6401 1.89783 12.7501 2.63953C13.8601 3.38122 14.7253 4.43542 15.2362 5.66882C15.7471 6.90222 15.8808 8.25941 15.6203 9.56878C15.3599 10.8782 14.717 12.0809 13.773 13.0249L9 17.7979ZM9 7.50189C9.19892 7.50189 9.38968 7.42288 9.53033 7.28222C9.67099 7.14157 9.75 6.95081 9.75 6.75189C9.75 6.55298 9.67099 6.36222 9.53033 6.22156C9.38968 6.08091 9.19892 6.00189 9 6.00189C8.80109 6.00189 8.61033 6.08091 8.46967 6.22156C8.32902 6.36222 8.25 6.55298 8.25 6.75189C8.25 6.95081 8.32902 7.14157 8.46967 7.28222C8.61033 7.42288 8.80109 7.50189 9 7.50189ZM9 9.00189C8.40327 9.00189 7.83097 8.76484 7.40901 8.34288C6.98706 7.92093 6.75 7.34863 6.75 6.75189C6.75 6.15516 6.98706 5.58286 7.40901 5.1609C7.83097 4.73895 8.40327 4.50189 9 4.50189C9.59674 4.50189 10.169 4.73895 10.591 5.1609C11.0129 5.58286 11.25 6.15516 11.25 6.75189C11.25 7.34863 11.0129 7.92093 10.591 8.34288C10.169 8.76484 9.59674 9.00189 9 9.00189Z" fill="#1D242D"/>
</svg>
