<svg width="18" height="18" viewBox="0 0 18 18" fill="none" xmlns="http://www.w3.org/2000/svg">
<path d="M3.69676 2.19824L4.75726 3.25874C4.19928 3.8153 3.75679 4.47664 3.45523 5.20475C3.15366 5.93287 2.99895 6.7134 3.00001 7.50149C3.00001 9.15899 3.67126 10.659 4.75726 11.7442L3.69751 12.804C2.99999 12.1085 2.44678 11.282 2.06966 10.372C1.69254 9.46204 1.49895 8.48652 1.50001 7.50149C1.49875 6.5164 1.69218 5.54076 2.06917 4.63065C2.44616 3.72054 2.99928 2.89391 3.69676 2.19824ZM14.3033 2.19824C15.0007 2.89391 15.5539 3.72054 15.9308 4.63065C16.3078 5.54076 16.5013 6.5164 16.5 7.50149C16.5013 8.48659 16.3078 9.46222 15.9308 10.3723C15.5539 11.2824 15.0007 12.1091 14.3033 12.8047L13.2428 11.7442C13.8007 11.1877 14.2432 10.5263 14.5448 9.79823C14.8464 9.07012 15.0011 8.28959 15 7.50149C15 5.84399 14.3288 4.34399 13.2428 3.25874L14.3025 2.19899L14.3033 2.19824ZM5.81776 4.31924L6.87901 5.38049C6.59998 5.65868 6.37868 5.98928 6.22783 6.35327C6.07698 6.71726 5.99956 7.10748 6.00001 7.50149C6.00001 8.33024 6.33601 9.08024 6.87901 9.62249L5.81776 10.6837C5.39928 10.2663 5.06743 9.77025 4.84128 9.22413C4.61514 8.67801 4.49916 8.09258 4.50001 7.50149C4.50001 6.25874 5.00401 5.13374 5.81776 4.31924ZM12.1823 4.31924C12.6007 4.73669 12.9326 5.23273 13.1587 5.77885C13.3849 6.32497 13.5009 6.9104 13.5 7.50149C13.5009 8.09258 13.3849 8.67801 13.1587 9.22413C12.9326 9.77025 12.6007 10.2663 12.1823 10.6837L11.121 9.62249C11.4 9.3443 11.6213 9.01371 11.7722 8.64972C11.923 8.28572 12.0005 7.89551 12 7.50149C12.0005 7.10748 11.923 6.71726 11.7722 6.35327C11.6213 5.98928 11.4 5.65868 11.121 5.38049L12.1823 4.31924ZM9.00001 9.00149C8.60218 9.00149 8.22065 8.84346 7.93935 8.56215C7.65804 8.28085 7.50001 7.89932 7.50001 7.50149C7.50001 7.10367 7.65804 6.72214 7.93935 6.44083C8.22065 6.15953 8.60218 6.00149 9.00001 6.00149C9.39783 6.00149 9.77936 6.15953 10.0607 6.44083C10.342 6.72214 10.5 7.10367 10.5 7.50149C10.5 7.89932 10.342 8.28085 10.0607 8.56215C9.77936 8.84346 9.39783 9.00149 9.00001 9.00149ZM8.25001 10.5015H9.75001V16.5015H8.25001V10.5015Z" fill="#1D242D"/>
</svg>
