<svg width="18" height="18" viewBox="0 0 18 18" fill="none" xmlns="http://www.w3.org/2000/svg">
<g clip-path="url(#clip0_3279_7518)">
<path d="M7.0245 8.01345C7.72825 9.24981 8.75214 10.2737 9.9885 10.9775L10.6515 10.049C10.7581 9.89965 10.9158 9.79461 11.0946 9.7537C11.2734 9.71279 11.4611 9.73885 11.622 9.82695C12.6827 10.4066 13.8542 10.7553 15.0592 10.85C15.2473 10.8649 15.4229 10.9501 15.5509 11.0887C15.6789 11.2273 15.75 11.409 15.75 11.5977V14.9442C15.75 15.1299 15.6812 15.309 15.5568 15.4469C15.4324 15.5847 15.2612 15.6715 15.0765 15.6905C14.679 15.7317 14.2785 15.752 13.875 15.752C7.455 15.752 2.25 10.547 2.25 4.12695C2.25 3.72345 2.27025 3.32295 2.3115 2.92545C2.33044 2.74073 2.41724 2.56959 2.55509 2.44518C2.69295 2.32076 2.87205 2.25191 3.05775 2.25195H6.40425C6.59292 2.25193 6.77467 2.32302 6.91326 2.45104C7.05185 2.57907 7.13709 2.75462 7.152 2.9427C7.24667 4.1478 7.59531 5.31921 8.175 6.37995C8.2631 6.54088 8.28916 6.72851 8.24825 6.90735C8.20734 7.08619 8.1023 7.24383 7.953 7.35045L7.0245 8.01345ZM5.133 7.5207L6.558 6.50295C6.15359 5.63002 5.87651 4.70358 5.73525 3.75195H3.7575C3.753 3.87645 3.75075 4.0017 3.75075 4.12695C3.75 9.71895 8.283 14.252 13.875 14.252C14.0002 14.252 14.1255 14.2497 14.25 14.2445V12.2667C13.2984 12.1254 12.3719 11.8484 11.499 11.444L10.4813 12.869C10.0715 12.7097 9.6735 12.5218 9.29025 12.3065L9.24675 12.2817C7.77568 11.4445 6.55746 10.2263 5.72025 8.7552L5.6955 8.7117C5.48018 8.32845 5.29221 7.93046 5.133 7.5207Z" fill="#1D242D"/>
</g>
<defs>
<clipPath id="clip0_3279_7518">
<rect width="18" height="18" fill="white" transform="translate(0 0.00195312)"/>
</clipPath>
</defs>
</svg>
