<svg width="18" height="18" viewBox="0 0 18 18" fill="none" xmlns="http://www.w3.org/2000/svg">
<g clip-path="url(#clip0_3279_2848)">
<path d="M5.25 6.75195C5.74728 6.75195 6.22419 6.55441 6.57583 6.20278C6.92746 5.85115 7.125 5.37423 7.125 4.87695C7.125 4.37967 6.92746 3.90276 6.57583 3.55113C6.22419 3.1995 5.74728 3.00195 5.25 3.00195C4.75272 3.00195 4.27581 3.1995 3.92417 3.55113C3.57254 3.90276 3.375 4.37967 3.375 4.87695C3.375 5.37423 3.57254 5.85115 3.92417 6.20278C4.27581 6.55441 4.75272 6.75195 5.25 6.75195ZM5.25 8.25195C4.80679 8.25195 4.36792 8.16466 3.95844 7.99505C3.54897 7.82544 3.17691 7.57684 2.86351 7.26344C2.55012 6.95004 2.30152 6.57798 2.13191 6.16851C1.9623 5.75904 1.875 5.32016 1.875 4.87695C1.875 4.43374 1.9623 3.99487 2.13191 3.5854C2.30152 3.17592 2.55012 2.80387 2.86351 2.49047C3.17691 2.17707 3.54897 1.92847 3.95844 1.75886C4.36792 1.58925 4.80679 1.50195 5.25 1.50195C6.14511 1.50195 7.00355 1.85753 7.63649 2.49047C8.26942 3.1234 8.625 3.98185 8.625 4.87695C8.625 5.77206 8.26942 6.6305 7.63649 7.26344C7.00355 7.89637 6.14511 8.25195 5.25 8.25195ZM13.125 9.75195C13.5228 9.75195 13.9044 9.59392 14.1857 9.31261C14.467 9.03131 14.625 8.64978 14.625 8.25195C14.625 7.85413 14.467 7.4726 14.1857 7.19129C13.9044 6.90999 13.5228 6.75195 13.125 6.75195C12.7272 6.75195 12.3456 6.90999 12.0643 7.19129C11.783 7.4726 11.625 7.85413 11.625 8.25195C11.625 8.64978 11.783 9.03131 12.0643 9.31261C12.3456 9.59392 12.7272 9.75195 13.125 9.75195ZM13.125 11.252C12.3294 11.252 11.5663 10.9359 11.0037 10.3733C10.4411 9.81066 10.125 9.0476 10.125 8.25195C10.125 7.4563 10.4411 6.69324 11.0037 6.13063C11.5663 5.56802 12.3294 5.25195 13.125 5.25195C13.9206 5.25195 14.6837 5.56802 15.2463 6.13063C15.8089 6.69324 16.125 7.4563 16.125 8.25195C16.125 9.0476 15.8089 9.81066 15.2463 10.3733C14.6837 10.9359 13.9206 11.252 13.125 11.252ZM15 15.752V15.377C15 14.8797 14.8025 14.4028 14.4508 14.0511C14.0992 13.6995 13.6223 13.502 13.125 13.502C12.6277 13.502 12.1508 13.6995 11.7992 14.0511C11.4475 14.4028 11.25 14.8797 11.25 15.377V15.752H9.75V15.377C9.75 14.9337 9.8373 14.4949 10.0069 14.0854C10.1765 13.6759 10.4251 13.3039 10.7385 12.9905C11.0519 12.6771 11.424 12.4285 11.8334 12.2589C12.2429 12.0893 12.6818 12.002 13.125 12.002C13.5682 12.002 14.0071 12.0893 14.4166 12.2589C14.826 12.4285 15.1981 12.6771 15.5115 12.9905C15.8249 13.3039 16.0735 13.6759 16.2431 14.0854C16.4127 14.4949 16.5 14.9337 16.5 15.377V15.752H15ZM7.5 15.752V12.752C7.5 12.1552 7.26295 11.5829 6.84099 11.161C6.41903 10.739 5.84674 10.502 5.25 10.502C4.65326 10.502 4.08097 10.739 3.65901 11.161C3.23705 11.5829 3 12.1552 3 12.752V15.752H1.5V12.752C1.5 11.7574 1.89509 10.8036 2.59835 10.1003C3.30161 9.39704 4.25544 9.00195 5.25 9.00195C6.24456 9.00195 7.19839 9.39704 7.90165 10.1003C8.60491 10.8036 9 11.7574 9 12.752V15.752H7.5Z" fill="#1D242D"/>
</g>
<defs>
<clipPath id="clip0_3279_2848">
<rect width="18" height="18" fill="white" transform="translate(0 0.00195312)"/>
</clipPath>
</defs>
</svg>
