<svg width="18" height="18" viewBox="0 0 18 18" fill="none" xmlns="http://www.w3.org/2000/svg">
<g clip-path="url(#clip0_3279_16821)">
<path d="M15.0619 11.4023L15.9634 11.9431C16.019 11.9764 16.065 12.0235 16.097 12.0799C16.129 12.1363 16.1458 12.2 16.1458 12.2648C16.1458 12.3296 16.129 12.3933 16.097 12.4497C16.065 12.5061 16.019 12.5533 15.9634 12.5866L9.3859 16.5331C9.26925 16.6031 9.13573 16.6402 8.99965 16.6402C8.86356 16.6402 8.73005 16.6031 8.6134 16.5331L2.0359 12.5866C1.98028 12.5533 1.93425 12.5061 1.90228 12.4497C1.87032 12.3933 1.85352 12.3296 1.85352 12.2648C1.85352 12.2 1.87032 12.1363 1.90228 12.0799C1.93425 12.0235 1.98028 11.9764 2.0359 11.9431L2.9374 11.4023L8.99965 15.0398L15.0619 11.4023ZM15.0619 7.87731L15.9634 8.41806C16.019 8.45135 16.065 8.4985 16.097 8.55489C16.129 8.61128 16.1458 8.67499 16.1458 8.73981C16.1458 8.80463 16.129 8.86834 16.097 8.92473C16.065 8.98112 16.019 9.02827 15.9634 9.06156L8.99965 13.2398L2.0359 9.06156C1.98028 9.02827 1.93425 8.98112 1.90228 8.92473C1.87032 8.86834 1.85352 8.80463 1.85352 8.73981C1.85352 8.67499 1.87032 8.61128 1.90228 8.55489C1.93425 8.4985 1.98028 8.45135 2.0359 8.41806L2.9374 7.87731L8.99965 11.5148L15.0619 7.87731ZM9.38515 0.984061L15.9634 4.93056C16.019 4.96386 16.065 5.011 16.097 5.06739C16.129 5.12378 16.1458 5.18749 16.1458 5.25231C16.1458 5.31713 16.129 5.38084 16.097 5.43723C16.065 5.49362 16.019 5.54077 15.9634 5.57406L8.99965 9.75231L2.0359 5.57406C1.98028 5.54077 1.93425 5.49362 1.90228 5.43723C1.87032 5.38084 1.85352 5.31713 1.85352 5.25231C1.85352 5.18749 1.87032 5.12378 1.90228 5.06739C1.93425 5.011 1.98028 4.96386 2.0359 4.93056L8.6134 0.984061C8.73005 0.913978 8.86356 0.876953 8.99965 0.876953C9.13573 0.876953 9.26925 0.913978 9.3859 0.984061H9.38515ZM8.99965 2.50131L4.4149 5.25231L8.99965 8.00331L13.5844 5.25231L8.99965 2.50131Z" fill="#1D242D"/>
</g>
<defs>
<clipPath id="clip0_3279_16821">
<rect width="18" height="18" fill="white" transform="translate(0 0.00195312)"/>
</clipPath>
</defs>
</svg>
