<svg width="12" height="17" viewBox="0 0 12 17" fill="none" xmlns="http://www.w3.org/2000/svg">
<path d="M12 16.502H10.5V15.002C10.5 14.4052 10.2629 13.8329 9.84099 13.411C9.41903 12.989 8.84674 12.752 8.25 12.752H3.75C3.15326 12.752 2.58097 12.989 2.15901 13.411C1.73705 13.8329 1.5 14.4052 1.5 15.002V16.502H0V15.002C0 14.0074 0.395088 13.0536 1.09835 12.3503C1.80161 11.647 2.75544 11.252 3.75 11.252H8.25C9.24456 11.252 10.1984 11.647 10.9017 12.3503C11.6049 13.0536 12 14.0074 12 15.002V16.502ZM6 9.75195C5.40905 9.75195 4.82389 9.63556 4.27792 9.40941C3.73196 9.18326 3.23588 8.8518 2.81802 8.43393C2.40016 8.01607 2.06869 7.51999 1.84254 6.97403C1.6164 6.42806 1.5 5.8429 1.5 5.25195C1.5 4.661 1.6164 4.07584 1.84254 3.52988C2.06869 2.98391 2.40016 2.48784 2.81802 2.06997C3.23588 1.65211 3.73196 1.32064 4.27792 1.0945C4.82389 0.868349 5.40905 0.751953 6 0.751953C7.19347 0.751953 8.33807 1.22606 9.18198 2.06997C10.0259 2.91389 10.5 4.05848 10.5 5.25195C10.5 6.44543 10.0259 7.59002 9.18198 8.43393C8.33807 9.27785 7.19347 9.75195 6 9.75195ZM6 8.25195C6.79565 8.25195 7.55871 7.93588 8.12132 7.37327C8.68393 6.81066 9 6.0476 9 5.25195C9 4.4563 8.68393 3.69324 8.12132 3.13063C7.55871 2.56802 6.79565 2.25195 6 2.25195C5.20435 2.25195 4.44129 2.56802 3.87868 3.13063C3.31607 3.69324 3 4.4563 3 5.25195C3 6.0476 3.31607 6.81066 3.87868 7.37327C4.44129 7.93588 5.20435 8.25195 6 8.25195Z" fill="#1D242D"/>
</svg>
