<svg width="16" height="16" viewBox="0 0 16 16" fill="none" xmlns="http://www.w3.org/2000/svg">
<path d="M0.68225 5.14281L7.6175 0.984812C7.73406 0.914874 7.86744 0.87793 8.00338 0.87793C8.13931 0.87793 8.27269 0.914874 8.38925 0.984812L15.3177 5.14356C15.3733 5.17687 15.4194 5.22402 15.4513 5.28041C15.4832 5.3368 15.5 5.4005 15.5 5.46531V15.0023C15.5 15.2012 15.421 15.392 15.2803 15.5326C15.1397 15.6733 14.9489 15.7523 14.75 15.7523H1.25C1.05109 15.7523 0.860322 15.6733 0.71967 15.5326C0.579018 15.392 0.5 15.2012 0.5 15.0023V5.46456C0.499986 5.39975 0.516768 5.33605 0.548709 5.27966C0.58065 5.22327 0.626659 5.17612 0.68225 5.14281ZM2 6.10206V14.2523H14V6.10131L8.003 2.50131L2 6.10131V6.10206ZM8.045 10.2758L12.017 6.92856L12.983 8.07606L8.0555 12.2288L3.023 8.08131L3.977 6.92331L8.045 10.2758Z" fill="#1D242D"/>
</svg>
