<svg width="18" height="18" viewBox="0 0 18 18" fill="none" xmlns="http://www.w3.org/2000/svg">
<path d="M16.5 15.752H1.5V14.252H2.25V3.00195C2.25 2.80304 2.32902 2.61228 2.46967 2.47162C2.61032 2.33097 2.80109 2.25195 3 2.25195H13.5C13.6989 2.25195 13.8897 2.33097 14.0303 2.47162C14.171 2.61228 14.25 2.80304 14.25 3.00195V6.75195H15.75V14.252H16.5V15.752ZM12.75 14.252H14.25V8.25195H9.75V14.252H11.25V9.75195H12.75V14.252ZM12.75 6.75195V3.75195H3.75V14.252H8.25V6.75195H12.75ZM5.25 8.25195H6.75V9.75195H5.25V8.25195ZM5.25 11.252H6.75V12.752H5.25V11.252ZM5.25 5.25195H6.75V6.75195H5.25V5.25195Z" fill="#1D242D"/>
</svg>
