<svg width="18" height="18" viewBox="0 0 18 18" fill="none" xmlns="http://www.w3.org/2000/svg">
<path d="M6.75 0.751953V2.25195H11.25V0.751953H12.75V2.25195H15.75C15.9489 2.25195 16.1397 2.33097 16.2803 2.47162C16.421 2.61228 16.5 2.80304 16.5 3.00195V15.002C16.5 15.2009 16.421 15.3916 16.2803 15.5323C16.1397 15.6729 15.9489 15.752 15.75 15.752H2.25C2.05109 15.752 1.86032 15.6729 1.71967 15.5323C1.57902 15.3916 1.5 15.2009 1.5 15.002V3.00195C1.5 2.80304 1.57902 2.61228 1.71967 2.47162C1.86032 2.33097 2.05109 2.25195 2.25 2.25195H5.25V0.751953H6.75ZM15 7.50195H3V14.252H15V7.50195ZM11.277 8.35395L12.3375 9.41445L8.625 13.127L5.973 10.475L7.035 9.41445L8.62575 11.006L11.2778 8.35395H11.277ZM5.25 3.75195H3V6.00195H15V3.75195H12.75V4.50195H11.25V3.75195H6.75V4.50195H5.25V3.75195Z" fill="#1D242D"/>
</svg>
