<svg width="18" height="18" viewBox="0 0 18 18" fill="none" xmlns="http://www.w3.org/2000/svg">
<path d="M9 8.25195C9.99456 8.25195 10.9484 8.64704 11.6517 9.3503C12.3549 10.0536 12.75 11.0074 12.75 12.002V16.502H11.25V12.002C11.25 11.428 11.0308 10.8758 10.637 10.4583C10.2433 10.0407 9.70492 9.78937 9.132 9.7557L9 9.75195C8.42609 9.75192 7.87386 9.9712 7.4563 10.3649C7.03874 10.7586 6.78742 11.297 6.75375 11.87L6.75 12.002V16.502H5.25V12.002C5.25 11.0074 5.64509 10.0536 6.34835 9.3503C7.05161 8.64704 8.00544 8.25195 9 8.25195ZM4.125 10.502C4.33425 10.502 4.5375 10.5267 4.7325 10.5725C4.60427 10.9542 4.52833 11.3516 4.50675 11.7537L4.5 12.002V12.0665C4.41379 12.0356 4.32412 12.0155 4.233 12.0065L4.125 12.002C3.84534 12.002 3.57571 12.1061 3.36869 12.2942C3.16166 12.4822 3.0321 12.7406 3.00525 13.019L3 13.127V16.502H1.5V13.127C1.5 12.4308 1.77656 11.7631 2.26884 11.2708C2.76113 10.7785 3.42881 10.502 4.125 10.502ZM13.875 10.502C14.5712 10.502 15.2389 10.7785 15.7312 11.2708C16.2234 11.7631 16.5 12.4308 16.5 13.127V16.502H15V13.127C15 12.8473 14.8958 12.5777 14.7078 12.3706C14.5198 12.1636 14.2614 12.0341 13.983 12.0072L13.875 12.002C13.7437 12.002 13.6178 12.0245 13.5 12.0657V12.002C13.5 11.5025 13.419 11.0225 13.2682 10.574C13.4625 10.5267 13.6657 10.502 13.875 10.502ZM4.125 6.00195C4.62228 6.00195 5.09919 6.1995 5.45083 6.55113C5.80246 6.90276 6 7.37967 6 7.87695C6 8.37423 5.80246 8.85115 5.45083 9.20278C5.09919 9.55441 4.62228 9.75195 4.125 9.75195C3.62772 9.75195 3.15081 9.55441 2.79917 9.20278C2.44754 8.85115 2.25 8.37423 2.25 7.87695C2.25 7.37967 2.44754 6.90276 2.79917 6.55113C3.15081 6.1995 3.62772 6.00195 4.125 6.00195ZM13.875 6.00195C14.3723 6.00195 14.8492 6.1995 15.2008 6.55113C15.5525 6.90276 15.75 7.37967 15.75 7.87695C15.75 8.37423 15.5525 8.85115 15.2008 9.20278C14.8492 9.55441 14.3723 9.75195 13.875 9.75195C13.3777 9.75195 12.9008 9.55441 12.5492 9.20278C12.1975 8.85115 12 8.37423 12 7.87695C12 7.37967 12.1975 6.90276 12.5492 6.55113C12.9008 6.1995 13.3777 6.00195 13.875 6.00195ZM4.125 7.50195C4.02554 7.50195 3.93016 7.54146 3.85984 7.61179C3.78951 7.68211 3.75 7.7775 3.75 7.87695C3.75 7.97641 3.78951 8.07179 3.85984 8.14212C3.93016 8.21244 4.02554 8.25195 4.125 8.25195C4.22446 8.25195 4.31984 8.21244 4.39016 8.14212C4.46049 8.07179 4.5 7.97641 4.5 7.87695C4.5 7.7775 4.46049 7.68211 4.39016 7.61179C4.31984 7.54146 4.22446 7.50195 4.125 7.50195ZM13.875 7.50195C13.7755 7.50195 13.6802 7.54146 13.6098 7.61179C13.5395 7.68211 13.5 7.7775 13.5 7.87695C13.5 7.97641 13.5395 8.07179 13.6098 8.14212C13.6802 8.21244 13.7755 8.25195 13.875 8.25195C13.9745 8.25195 14.0698 8.21244 14.1402 8.14212C14.2105 8.07179 14.25 7.97641 14.25 7.87695C14.25 7.7775 14.2105 7.68211 14.1402 7.61179C14.0698 7.54146 13.9745 7.50195 13.875 7.50195ZM9 1.50195C9.79565 1.50195 10.5587 1.81802 11.1213 2.38063C11.6839 2.94324 12 3.7063 12 4.50195C12 5.2976 11.6839 6.06066 11.1213 6.62327C10.5587 7.18588 9.79565 7.50195 9 7.50195C8.20435 7.50195 7.44129 7.18588 6.87868 6.62327C6.31607 6.06066 6 5.2976 6 4.50195C6 3.7063 6.31607 2.94324 6.87868 2.38063C7.44129 1.81802 8.20435 1.50195 9 1.50195ZM9 3.00195C8.60218 3.00195 8.22064 3.15999 7.93934 3.44129C7.65804 3.7226 7.5 4.10413 7.5 4.50195C7.5 4.89978 7.65804 5.28131 7.93934 5.56261C8.22064 5.84392 8.60218 6.00195 9 6.00195C9.39782 6.00195 9.77936 5.84392 10.0607 5.56261C10.342 5.28131 10.5 4.89978 10.5 4.50195C10.5 4.10413 10.342 3.7226 10.0607 3.44129C9.77936 3.15999 9.39782 3.00195 9 3.00195Z" fill="#1D242D"/>
</svg>
