<svg width="53" height="44" viewBox="0 0 53 44" fill="none" xmlns="http://www.w3.org/2000/svg">
<path d="M47.0575 21.9031C47.0575 21.9031 49.1605 17.0795 49.591 15.276C50.0216 13.4726 46.1839 0 46.1839 0C46.1839 0 44.3118 13.3977 44.4928 15.2386C44.6738 17.0795 47.0575 21.9031 47.0575 21.9031Z" fill="#E8244F"/>
<path d="M44.3633 20.2499C44.3633 20.2499 50.7595 19.6259 52.1698 26.0533C53.5801 32.4807 47.2338 34.3528 47.2338 34.3528L44.3633 20.2499Z" fill="#E8244F"/>
<path d="M5.31124 21.9031C5.31124 21.9031 3.21453 17.0795 2.78396 15.276C2.35338 13.4726 6.15991 0 6.15991 0C6.15991 0 8.03198 13.3977 7.85725 15.2386C7.68253 17.0795 5.31124 21.9031 5.31124 21.9031Z" fill="#E8244F"/>
<path d="M8.00671 20.2499C8.00671 20.2499 1.61673 19.6259 0.206445 26.0533C-1.20384 32.4807 5.14245 34.3528 5.14245 34.3528L8.00671 20.2499Z" fill="#E8244F"/>
<path d="M47.5835 35.0321C47.2715 31.6312 46.6474 24.0743 44.6194 19.6312C42.5913 15.1882 35.8706 10.6641 26.217 10.6641C16.5634 10.6641 9.8177 15.182 7.78963 19.6312C5.76156 24.0805 5.1001 31.6312 4.78809 35.0321C4.47608 38.433 6.66015 43.7684 26.1858 43.7684C45.7114 43.7684 47.8955 38.4268 47.5835 35.0321Z" fill="#D0EBF2"/>
<path d="M26.2149 43.9999C26.1808 43.9999 26.147 43.993 26.1155 43.9798C26.0841 43.9666 26.0556 43.9472 26.0318 43.9227C26.0079 43.8983 25.9892 43.8694 25.9767 43.8376C25.9642 43.8058 25.9582 43.7719 25.9591 43.7378V10.6646C25.9607 10.5979 25.9884 10.5344 26.0362 10.4878C26.084 10.4411 26.1481 10.415 26.2149 10.415C26.2844 10.415 26.3511 10.4427 26.4002 10.4918C26.4494 10.541 26.477 10.6076 26.477 10.6771V43.7502C26.4738 43.8176 26.4448 43.8811 26.396 43.9276C26.3472 43.974 26.2823 43.9999 26.2149 43.9999Z" fill="#0A183A"/>
<path d="M42.1349 22.5147C41.8712 21.6305 41.3707 20.8353 40.6877 20.215C40.0047 19.5946 39.1651 19.1728 38.2597 18.9952C35.0959 18.4585 29.8417 17.666 26.1849 17.666C22.5282 17.666 17.2801 18.4585 14.1101 18.9952C13.2056 19.1732 12.367 19.5953 11.685 20.2156C11.0031 20.8359 10.5038 21.631 10.2412 22.5147C8.88466 26.745 8.0465 31.1244 7.74509 35.5567C7.64451 36.531 7.88412 37.5102 8.42325 38.328C8.96238 39.1458 9.76784 39.7519 10.703 40.0434C14.3597 40.9919 19.3706 41.6596 26.16 41.6596C32.9493 41.6596 37.9602 40.9919 41.6232 40.0434C42.5577 39.7508 43.3624 39.1445 43.9014 38.327C44.4403 37.5094 44.6804 36.5309 44.5811 35.5567C44.2926 31.1269 43.4713 26.7479 42.1349 22.5147Z" fill="#0A183A"/>
<path d="M17.0046 34.278C18.1247 34.278 19.0327 32.9537 19.0327 31.3202C19.0327 29.6866 18.1247 28.3623 17.0046 28.3623C15.8846 28.3623 14.9766 29.6866 14.9766 31.3202C14.9766 32.9537 15.8846 34.278 17.0046 34.278Z" fill="#3EFFE8"/>
<path d="M33.4727 31.3196C33.4727 32.9545 34.3775 34.2774 35.4945 34.2774C36.6115 34.2774 37.5225 32.9545 37.5225 31.3196C37.5225 29.6846 36.6115 28.3555 35.4945 28.3555C34.3775 28.3555 33.4727 29.6846 33.4727 31.3196Z" fill="#3EFFE8"/>
<path d="M26.2534 38.2215C23.9507 38.2215 23.439 36.6988 23.4141 36.6364C23.3826 36.5305 23.3937 36.4165 23.4449 36.3186C23.4962 36.2207 23.5836 36.1467 23.6887 36.1123C23.7403 36.0958 23.7946 36.0897 23.8486 36.0942C23.9026 36.0988 23.9552 36.114 24.0033 36.1389C24.0514 36.1639 24.0942 36.198 24.129 36.2395C24.1639 36.281 24.1903 36.3289 24.2066 36.3806C24.2066 36.4305 24.5872 37.3915 26.2534 37.3915C27.9195 37.3915 28.2877 36.418 28.3002 36.3806C28.3357 36.2769 28.4106 36.1914 28.5087 36.1423C28.6067 36.0933 28.7201 36.0848 28.8243 36.1185C28.8759 36.1347 28.9238 36.1611 28.965 36.1961C29.0062 36.2311 29.0401 36.274 29.0645 36.3223C29.0889 36.3705 29.1034 36.4232 29.1072 36.4771C29.111 36.5311 29.1039 36.5853 29.0864 36.6364C29.0677 36.6988 28.556 38.2215 26.2534 38.2215Z" fill="#3EFFE8"/>
</svg>
