<svg width="48" height="48" viewBox="0 0 48 48" fill="none" xmlns="http://www.w3.org/2000/svg">
<rect width="48" height="48" rx="8" fill="#002742"/>
<path d="M25.125 32.625H32.25C32.4562 32.625 32.625 32.4563 32.625 32.25V25.125C32.625 24.9187 32.4562 24.75 32.25 24.75H25.125C24.9187 24.75 24.75 24.9187 24.75 25.125V32.25C24.75 32.4563 24.9187 32.625 25.125 32.625ZM26.3438 26.3438H31.0312V31.0312H26.3438V26.3438ZM15.75 32.625H22.875C23.0813 32.625 23.25 32.4563 23.25 32.25V25.125C23.25 24.9187 23.0813 24.75 22.875 24.75H15.75C15.5438 24.75 15.375 24.9187 15.375 25.125V32.25C15.375 32.4563 15.5438 32.625 15.75 32.625ZM16.9688 26.3438H21.6562V31.0312L16.9688 31.0312V26.3438ZM15.75 23.25H22.875C23.0813 23.25 23.25 23.0813 23.25 22.875V15.75C23.25 15.5438 23.0813 15.375 22.875 15.375L15.75 15.375C15.5438 15.375 15.375 15.5438 15.375 15.75L15.375 22.875C15.375 23.0813 15.5438 23.25 15.75 23.25ZM16.9688 16.9688H21.6562V21.6562H16.9688L16.9688 16.9688ZM26.0625 19.3125H29.0625V22.3125C29.0625 22.4156 29.1469 22.5 29.25 22.5H30.375C30.4781 22.5 30.5625 22.4156 30.5625 22.3125V19.3125H33.5625C33.6656 19.3125 33.75 19.2281 33.75 19.125V18C33.75 17.8969 33.6656 17.8125 33.5625 17.8125H30.5625L30.5625 14.8125C30.5625 14.7094 30.4781 14.625 30.375 14.625H29.25C29.1469 14.625 29.0625 14.7094 29.0625 14.8125V17.8125H26.0625C25.9594 17.8125 25.875 17.8969 25.875 18V19.125C25.875 19.2281 25.9594 19.3125 26.0625 19.3125Z" fill="white"/>
</svg>
