<svg width="48" height="48" viewBox="0 0 48 48" fill="none" xmlns="http://www.w3.org/2000/svg">
<rect width="48" height="48" rx="8" fill="#FCC02B"/>
<path d="M32.3209 16.6357H28.917L30.6814 19.9749L32.3209 16.6357Z" fill="#010202"/>
<path d="M34.2401 30.0407L31.9403 25.681L24.682 12L12 36H18.7921C19.7 35.9987 20.5911 35.7391 21.3785 35.2467C22.1659 34.7542 22.8217 34.0454 23.2823 33.1902L26.7542 26.5718L24.8259 22.9234L20.6346 30.8959C20.397 31.3387 20.058 31.7052 19.6509 31.9597C19.2438 32.2155 18.7832 32.3491 18.3137 32.3504H17.7984L24.6842 19.3183L33.5006 36H36V33.3442L34.249 30.042H34.2401V30.0407Z" fill="#010202"/>
</svg>
