<svg width="20" height="20" viewBox="0 0 20 20" fill="none" xmlns="http://www.w3.org/2000/svg">
<path d="M14.9999 6.66652C14.9999 5.34045 14.4731 4.06869 13.5354 3.13102C12.5978 2.19334 11.326 1.66656 9.99993 1.66656C8.67386 1.66656 7.4021 2.19334 6.46443 3.13102C5.52676 4.06869 4.99998 5.34045 4.99998 6.66652C4.99998 12.4998 2.5 14.1664 2.5 14.1664H17.4999C17.4999 14.1664 14.9999 12.4998 14.9999 6.66652Z" stroke="#002742" stroke-width="1.67" stroke-linecap="round" stroke-linejoin="round"/>
<path d="M11.4413 17.4995C11.2948 17.7521 11.0844 17.9618 10.8314 18.1075C10.5784 18.2533 10.2915 18.33 9.99945 18.33C9.70743 18.33 9.42054 18.2533 9.1675 18.1075C8.91446 17.9618 8.70414 17.7521 8.55762 17.4995" stroke="#002742" stroke-width="1.67" stroke-linecap="round" stroke-linejoin="round"/>
</svg>
