<svg width="20" height="20" viewBox="0 0 20 20" fill="none" xmlns="http://www.w3.org/2000/svg">
<g clip-path="url(#clip0_3504_18814)">
<path d="M14.1681 2.49933H17.5017C17.7227 2.49933 17.9347 2.58713 18.091 2.74343C18.2473 2.89972 18.3351 3.1117 18.3351 3.33273V16.6672C18.3351 16.8882 18.2473 17.1002 18.091 17.2565C17.9347 17.4128 17.7227 17.5006 17.5017 17.5006H2.5004C2.27936 17.5006 2.06738 17.4128 1.91109 17.2565C1.7548 17.1002 1.66699 16.8882 1.66699 16.6672V3.33273C1.66699 3.1117 1.7548 2.89972 1.91109 2.74343C2.06738 2.58713 2.27936 2.49933 2.5004 2.49933H5.83402V0.83252H7.50082V2.49933H12.5013V0.83252H14.1681V2.49933ZM12.5013 4.16614H7.50082V5.83295H5.83402V4.16614H3.3338V7.49976H16.6683V4.16614H14.1681V5.83295H12.5013V4.16614ZM16.6683 9.16657H3.3338V15.8338H16.6683V9.16657Z" fill="#B2BBC6"/>
</g>
<defs>
<clipPath id="clip0_3504_18814">
<rect width="20.0017" height="20.0017" fill="white" transform="translate(0 -0.000976562)"/>
</clipPath>
</defs>
</svg>
