<svg width="18" height="18" viewBox="0 0 18 18" fill="none" xmlns="http://www.w3.org/2000/svg">
<g clip-path="url(#clip0_3578_41097)">
<path d="M5.25 1.5H13.5C13.6989 1.5 13.8897 1.57902 14.0303 1.71967C14.171 1.86032 14.25 2.05109 14.25 2.25V15.75C14.25 15.9489 14.171 16.1397 14.0303 16.2803C13.8897 16.421 13.6989 16.5 13.5 16.5H4.5C4.30109 16.5 4.11032 16.421 3.96967 16.2803C3.82902 16.1397 3.75 15.9489 3.75 15.75V0H5.25V1.5ZM5.25 6.75H12.75V3H5.25V6.75ZM5.25 8.25V15H12.75V8.25H5.25Z" fill="#546881"/>
</g>
<defs>
<clipPath id="clip0_3578_41097">
<rect width="18" height="18" fill="white"/>
</clipPath>
</defs>
</svg>
