<svg width="18" height="19" viewBox="0 0 18 19" fill="none" xmlns="http://www.w3.org/2000/svg">
<path d="M5.25 2V17H2.25V2H5.25ZM6.75 2H14.2537C15.0802 2 15.75 2.6735 15.75 3.4925V15.5075C15.75 16.3317 15.0802 17 14.2537 17H6.75V2ZM16.5 5H18V8H16.5V5ZM16.5 9.5H18V12.5H16.5V9.5ZM11.25 9.5C11.6478 9.5 12.0294 9.34196 12.3107 9.06066C12.592 8.77936 12.75 8.39782 12.75 8C12.75 7.60218 12.592 7.22064 12.3107 6.93934C12.0294 6.65804 11.6478 6.5 11.25 6.5C10.8522 6.5 10.4706 6.65804 10.1893 6.93934C9.90804 7.22064 9.75 7.60218 9.75 8C9.75 8.39782 9.90804 8.77936 10.1893 9.06066C10.4706 9.34196 10.8522 9.5 11.25 9.5ZM9 12.5H13.5C13.5 11.9033 13.2629 11.331 12.841 10.909C12.419 10.4871 11.8467 10.25 11.25 10.25C10.6533 10.25 10.081 10.4871 9.65901 10.909C9.23705 11.331 9 11.9033 9 12.5Z" fill="#1D242D"/>
</svg>
