<svg width="20" height="20" viewBox="0 0 20 20" fill="none" xmlns="http://www.w3.org/2000/svg">
<path d="M3.33561 4.16764V15.8343H16.6689V4.16764H3.33561ZM2.50228 2.50098H17.5023C17.7233 2.50098 17.9353 2.58877 18.0915 2.74505C18.2478 2.90133 18.3356 3.1133 18.3356 3.33431V16.6676C18.3356 16.8887 18.2478 17.1006 18.0915 17.2569C17.9353 17.4132 17.7233 17.501 17.5023 17.501H2.50228C2.28126 17.501 2.0693 17.4132 1.91302 17.2569C1.75674 17.1006 1.66895 16.8887 1.66895 16.6676V3.33431C1.66895 3.1133 1.75674 2.90133 1.91302 2.74505C2.0693 2.58877 2.28126 2.50098 2.50228 2.50098ZM12.5023 5.83431L15.4189 8.33431L12.5023 10.8343V9.16764H9.16895V7.50098H12.5023V5.83431ZM7.50228 14.1676L4.58561 11.6676L7.50228 9.16764V10.8343H10.8356V12.501H7.50228V14.1676Z" fill="#E8244F"/>
</svg>
