<svg width="14" height="16" viewBox="0 0 14 16" fill="none" xmlns="http://www.w3.org/2000/svg">
<path d="M4.75002 0.50225V0.5H12.9985C13.4125 0.5 13.75 0.84125 13.75 1.244V14.756C13.7498 14.9534 13.6713 15.1426 13.5316 15.2821C13.392 15.4216 13.2027 15.5 13.0053 15.5H0.994769C0.896276 15.4993 0.798884 15.4792 0.708153 15.4409C0.617421 15.4026 0.535128 15.3468 0.465971 15.2766C0.396814 15.2065 0.342148 15.1234 0.305095 15.0322C0.268042 14.9409 0.249327 14.8432 0.250019 14.7448V5L4.75002 0.50225ZM2.37252 5H4.75002V2.6225L2.37252 5ZM6.25002 2V5.75C6.25002 5.94891 6.171 6.13968 6.03035 6.28033C5.8897 6.42098 5.69893 6.5 5.50002 6.5H1.75002V14H12.25V2H6.25002Z" fill="#546881"/>
</svg>
