<svg width="20" height="20" viewBox="0 0 20 20" fill="none" xmlns="http://www.w3.org/2000/svg">
<g clip-path="url(#clip0_992_21571)">
<path d="M3.33561 6.66772H16.6689V17.5011C16.6689 17.7221 16.5811 17.934 16.4249 18.0903C16.2686 18.2466 16.0566 18.3344 15.8356 18.3344H4.16895C3.94793 18.3344 3.73597 18.2466 3.57969 18.0903C3.42341 17.934 3.33561 17.7221 3.33561 17.5011V6.66772ZM5.00228 8.33439V16.6677H15.0023V8.33439H5.00228ZM7.50228 10.0011H9.16895V15.0011H7.50228V10.0011ZM10.8356 10.0011H12.5023V15.0011H10.8356V10.0011ZM5.83561 4.16772V2.50106C5.83561 2.28004 5.92341 2.06808 6.07969 1.9118C6.23597 1.75552 6.44793 1.66772 6.66895 1.66772H13.3356C13.5566 1.66772 13.7686 1.75552 13.9249 1.9118C14.0811 2.06808 14.1689 2.28004 14.1689 2.50106V4.16772H18.3356V5.83439H1.66895V4.16772H5.83561ZM7.50228 3.33439V4.16772H12.5023V3.33439H7.50228Z" fill="#E8244F"/>
</g>
<defs>
<clipPath id="clip0_992_21571">
<rect width="20" height="20" fill="white" transform="translate(0.00195312 0.000976562)"/>
</clipPath>
</defs>
</svg>
