<svg width="16" height="16" viewBox="0 0 16 16" fill="none" xmlns="http://www.w3.org/2000/svg">
<path d="M4.28796 9.59083L2.69796 11.1823L4.81896 13.3033L13.3037 4.81783L11.1827 2.69758L9.59046 4.28758L10.6517 5.34808L9.59046 6.41008L8.52996 5.34883L7.46946 6.41008L8.52996 7.47058L7.46946 8.53108L6.40896 7.47058L5.34771 8.53108L6.40896 9.59158L5.34771 10.6528L4.28796 9.59008V9.59083ZM11.713 1.10608L14.8945 4.28758C15.0351 4.42823 15.114 4.61896 15.114 4.81783C15.114 5.01671 15.0351 5.20744 14.8945 5.34808L5.34846 14.8941C5.20781 15.0347 5.01708 15.1137 4.81821 15.1137C4.61933 15.1137 4.4286 15.0347 4.28796 14.8941L1.10646 11.7126C0.965854 11.5719 0.886867 11.3812 0.886867 11.1823C0.886867 10.9835 0.965854 10.7927 1.10646 10.6521L10.6525 1.10608C10.7931 0.965479 10.9838 0.886492 11.1827 0.886492C11.3816 0.886492 11.5723 0.965479 11.713 1.10608ZM9.59046 12.7723L10.6517 11.7118L12.3332 13.3941H13.3937V12.3336L11.7122 10.6513L12.7727 9.59083L14.7505 11.5678V14.7501H11.569L9.59121 12.7723H9.59046ZM3.22746 6.40858L1.10571 4.28758C1.03597 4.21793 0.980656 4.13521 0.942912 4.04416C0.905169 3.95311 0.885742 3.85552 0.885742 3.75696C0.885742 3.6584 0.905169 3.5608 0.942912 3.46975C0.980656 3.3787 1.03597 3.29599 1.10571 3.22633L3.22746 1.10533C3.3681 0.964729 3.55883 0.885742 3.75771 0.885742C3.95658 0.885742 4.14731 0.964729 4.28796 1.10533L6.41046 3.22633L5.34846 4.28758L3.75771 2.69608L2.69721 3.75733L4.28796 5.34733L3.22746 6.40858Z" fill="#546881"/>
</svg>
