<svg width="16" height="16" viewBox="0 0 16 16" fill="none" xmlns="http://www.w3.org/2000/svg">
<path d="M7.84375 15.5C3.7015 15.5 0.34375 12.1423 0.34375 8C0.34375 3.85775 3.7015 0.5 7.84375 0.5C11.986 0.5 15.3438 3.85775 15.3438 8C15.3438 12.1423 11.986 15.5 7.84375 15.5ZM7.84375 14C9.43505 14 10.9612 13.3679 12.0864 12.2426C13.2116 11.1174 13.8438 9.5913 13.8438 8C13.8438 6.4087 13.2116 4.88258 12.0864 3.75736C10.9612 2.63214 9.43505 2 7.84375 2C6.25245 2 4.72633 2.63214 3.60111 3.75736C2.47589 4.88258 1.84375 6.4087 1.84375 8C1.84375 9.5913 2.47589 11.1174 3.60111 12.2426C4.72633 13.3679 6.25245 14 7.84375 14ZM5.21875 9.5H9.34375C9.44321 9.5 9.53859 9.46049 9.60892 9.39017C9.67924 9.31984 9.71875 9.22446 9.71875 9.125C9.71875 9.02554 9.67924 8.93016 9.60892 8.85983C9.53859 8.78951 9.44321 8.75 9.34375 8.75H6.34375C5.84647 8.75 5.36956 8.55246 5.01792 8.20083C4.66629 7.84919 4.46875 7.37228 4.46875 6.875C4.46875 6.37772 4.66629 5.90081 5.01792 5.54917C5.36956 5.19754 5.84647 5 6.34375 5H7.09375V3.5H8.59375V5H10.4688V6.5H6.34375C6.24429 6.5 6.14891 6.53951 6.07858 6.60983C6.00826 6.68016 5.96875 6.77554 5.96875 6.875C5.96875 6.97446 6.00826 7.06984 6.07858 7.14017C6.14891 7.21049 6.24429 7.25 6.34375 7.25H9.34375C9.84103 7.25 10.3179 7.44754 10.6696 7.79917C11.0212 8.15081 11.2188 8.62772 11.2188 9.125C11.2188 9.62228 11.0212 10.0992 10.6696 10.4508C10.3179 10.8025 9.84103 11 9.34375 11H8.59375V12.5H7.09375V11H5.21875V9.5Z" fill="white"/>
</svg>
