<svg width="22" height="21" viewBox="0 0 22 21" fill="none" xmlns="http://www.w3.org/2000/svg">
<path d="M12.0009 11V16.585L13.8289 14.757L15.2439 16.172L11.0009 20.414L6.75787 16.172L8.17287 14.757L10.0009 16.585V11H12.0009ZM11.0009 2.2216e-08C12.7179 8.17698e-05 14.3749 0.631114 15.6571 1.77312C16.9392 2.91512 17.757 4.48846 17.9549 6.194C19.1991 6.53332 20.2846 7.2991 21.0215 8.35753C21.7585 9.41595 22.1 10.6997 21.9865 11.9844C21.873 13.2691 21.3116 14.473 20.4004 15.3858C19.4893 16.2986 18.2864 16.8622 17.0019 16.978L17.0009 15C17.0025 13.4271 16.3864 11.9166 15.2852 10.7935C14.1841 9.67034 12.686 9.02452 11.1134 8.99502C9.54081 8.96553 8.01953 9.55472 6.87706 10.6357C5.73458 11.7168 5.06227 13.2032 5.00487 14.775L5.00087 15V16.978C3.71632 16.8623 2.51328 16.2989 1.602 15.3862C0.690732 14.4735 0.129198 13.2696 0.0155448 11.9848C-0.0981081 10.7001 0.24335 9.41628 0.98024 8.35777C1.71713 7.29926 2.80258 6.53339 4.04687 6.194C4.24458 4.48838 5.06228 2.91491 6.34445 1.77287C7.62662 0.63082 9.28383 -0.000136703 11.0009 2.2216e-08Z" fill="#E8244F"/>
</svg>
