<svg width="20" height="20" viewBox="0 0 20 20" fill="none" xmlns="http://www.w3.org/2000/svg">
<path d="M1.87145 5.71264L9.57728 1.09263C9.70679 1.01493 9.85499 0.973877 10.006 0.973877C10.1571 0.973877 10.3053 1.01493 10.4348 1.09263L18.1331 5.71347C18.1949 5.75048 18.246 5.80287 18.2815 5.86552C18.317 5.92818 18.3356 5.99896 18.3356 6.07097V16.6676C18.3356 16.8886 18.2478 17.1006 18.0915 17.2569C17.9353 17.4132 17.7233 17.501 17.5023 17.501H2.50228C2.28126 17.501 2.0693 17.4132 1.91302 17.2569C1.75674 17.1006 1.66895 16.8886 1.66895 16.6676V6.07014C1.66893 5.99813 1.68758 5.92734 1.72307 5.86469C1.75856 5.80204 1.80968 5.74965 1.87145 5.71264ZM3.33561 6.77847V15.8343H16.6689V6.77764L10.0056 2.77764L3.33561 6.77764V6.77847ZM10.0523 11.416L14.4656 7.6968L15.5389 8.9718L10.0639 13.586L4.47228 8.97764L5.53228 7.69097L10.0523 11.416Z" fill="#E8244F"/>
</svg>
