<svg width="20" height="20" viewBox="0 0 20 20" fill="none" xmlns="http://www.w3.org/2000/svg">
<g clip-path="url(#clip0_3299_20963)">
<path d="M14.9011 16.0813C13.4353 17.011 11.7348 17.5034 9.99903 17.5006C5.50531 17.5006 1.76666 14.267 0.982422 9.99996C1.34081 8.05872 2.31723 6.28539 3.76599 4.94452L1.15827 2.3393L2.33754 1.16003L18.8381 17.6614L17.6588 18.8399L14.9003 16.0813H14.9011ZM4.94443 6.12463C3.81183 7.15437 3.02286 8.50715 2.68423 9.99996C2.9445 11.1388 3.46702 12.2011 4.2102 13.1024C4.95338 14.0037 5.8967 14.719 6.96506 15.1915C8.03342 15.664 9.19733 15.8805 10.3641 15.8239C11.5309 15.7673 12.6684 15.4391 13.686 14.8654L11.9959 13.1752C11.2764 13.6284 10.4242 13.8237 9.57919 13.729C8.73415 13.6342 7.94638 13.2552 7.34511 12.6539C6.74383 12.0526 6.36474 11.2648 6.27001 10.4198C6.17528 9.57475 6.37054 8.72261 6.82375 8.00312L4.94443 6.12463ZM10.7608 11.9401L8.05886 9.23823C7.91057 9.6157 7.87567 10.0283 7.95844 10.4253C8.04121 10.8223 8.23806 11.1865 8.52483 11.4733C8.81161 11.7601 9.17585 11.9569 9.57287 12.0397C9.9699 12.1225 10.3824 12.0876 10.7599 11.9393L10.7608 11.9401ZM17.3388 13.827L16.1462 12.6352C16.7033 11.8412 17.1 10.946 17.3138 9.99996C17.0873 9.00798 16.6615 8.07241 16.0622 7.25013C15.4629 6.42785 14.7026 5.73603 13.8276 5.21672C12.9526 4.6974 11.9811 4.36145 10.9722 4.22927C9.96334 4.09709 8.93811 4.17144 7.95885 4.44782L6.64374 3.1327C7.68299 2.72433 8.81559 2.49932 9.99903 2.49932C14.4927 2.49932 18.2314 5.73293 19.0156 9.99996C18.7603 11.3882 18.1863 12.6982 17.3388 13.827ZM9.76817 6.2563C10.2986 6.22352 10.83 6.30386 11.3271 6.492C11.8242 6.68015 12.2756 6.97179 12.6514 7.34761C13.0272 7.72342 13.3188 8.17482 13.507 8.67189C13.6951 9.16896 13.7755 9.70034 13.7427 10.2308L9.76734 6.2563H9.76817Z" fill="#B2BBC6"/>
</g>
<defs>
<clipPath id="clip0_3299_20963">
<rect width="20.0017" height="20.0017" fill="white" transform="translate(-0.00195312 -0.000854492)"/>
</clipPath>
</defs>
</svg>
