<svg width="32" height="33" viewBox="0 0 32 33" fill="none" xmlns="http://www.w3.org/2000/svg">
<rect x="0.5" y="0.751953" width="31" height="31" rx="7.5" fill="white"/>
<rect x="0.5" y="0.751953" width="31" height="31" rx="7.5" stroke="#E6E9EC"/>
<path fill-rule="evenodd" clip-rule="evenodd" d="M10.3713 17.3951C14.2102 18.0609 18.0492 18.0385 21.8881 17.3951V12.058C21.8881 11.9971 21.8684 11.938 21.8319 11.8894L19.3038 8.51863C19.2508 8.44791 19.1675 8.40625 19.0791 8.40625H11.214C10.9905 8.40625 10.7761 8.49504 10.6181 8.65306C10.46 8.81115 10.3713 9.02546 10.3713 9.24895V15.7097C10.3713 16.1268 10.2734 16.4804 10.2734 16.7623C10.2734 17.152 10.3713 17.3951 10.3713 17.3951Z" fill="#D8DFE3"/>
<path fill-rule="evenodd" clip-rule="evenodd" d="M8.68555 16.667V22.7322C8.68555 22.9557 8.77433 23.1701 8.93236 23.3281C9.09038 23.4862 9.30476 23.5749 9.52824 23.5749H22.4496C22.6731 23.5749 22.8874 23.4862 23.0455 23.3281C23.2035 23.1701 23.2923 22.9557 23.2923 22.7322C23.2923 21.6559 23.2923 19.3143 23.2923 18.2379C23.2923 18.0144 23.2035 17.8 23.0455 17.642C22.8874 17.484 22.6731 17.3952 22.4496 17.3952H9.80916C9.45078 17.3952 8.68555 16.667 8.68555 16.667Z" fill="#1FB35B"/>
<path fill-rule="evenodd" clip-rule="evenodd" d="M9.52824 17.3954C9.27179 17.3954 9.08458 17.2913 8.94678 17.1632C8.81714 17.0427 8.68555 16.8303 8.68555 16.5527C8.68555 16.3745 8.77433 16.1148 8.93236 15.9568C9.09038 15.7987 9.30476 15.71 9.52824 15.71H10.3709V17.3954C10.3709 17.3954 10.4431 17.3954 9.52824 17.3954Z" fill="#198043"/>
<path fill-rule="evenodd" clip-rule="evenodd" d="M19.0791 8.40625V11.2153C19.0791 11.4387 19.1679 11.6531 19.3259 11.8111C19.4839 11.9692 19.6982 12.058 19.9218 12.058H21.888C21.888 11.9971 21.8684 11.938 21.8319 11.8894L19.3038 8.51863C19.2507 8.44791 19.1675 8.40625 19.0791 8.40625Z" fill="#AFBDC7"/>
<path fill-rule="evenodd" clip-rule="evenodd" d="M12.8991 12.3392H16.5508C16.7058 12.3392 16.8316 12.2133 16.8316 12.0583C16.8316 11.9032 16.7058 11.7773 16.5508 11.7773H12.8991C12.744 11.7773 12.6182 11.9032 12.6182 12.0583C12.6182 12.2133 12.744 12.3392 12.8991 12.3392Z" fill="#1FB35B"/>
<path fill-rule="evenodd" clip-rule="evenodd" d="M12.8991 14.0247H19.3597C19.5148 14.0247 19.6407 13.8989 19.6407 13.7438C19.6407 13.5888 19.5148 13.4629 19.3597 13.4629H12.8991C12.744 13.4629 12.6182 13.5888 12.6182 13.7438C12.6182 13.8989 12.744 14.0247 12.8991 14.0247Z" fill="#1FB35B"/>
<path fill-rule="evenodd" clip-rule="evenodd" d="M12.8991 15.7093H19.3597C19.5148 15.7093 19.6407 15.5834 19.6407 15.4284C19.6407 15.2733 19.5148 15.1475 19.3597 15.1475H12.8991C12.744 15.1475 12.6182 15.2733 12.6182 15.4284C12.6182 15.5834 12.744 15.7093 12.8991 15.7093Z" fill="#1FB35B"/>
<path fill-rule="evenodd" clip-rule="evenodd" d="M17.5533 19.1851L18.677 21.9941C18.7196 22.1007 18.8229 22.1706 18.9377 22.1706C19.0526 22.1706 19.1559 22.1007 19.1986 21.9941L20.3222 19.1851C20.3797 19.0411 20.3096 18.8775 20.1656 18.8199C20.0217 18.7624 19.8581 18.8325 19.8005 18.9764L18.9377 21.1334L18.0749 18.9764C18.0174 18.8325 17.8537 18.7624 17.7098 18.8199C17.5659 18.8775 17.4958 19.0411 17.5533 19.1851Z" fill="#D8DFE3"/>
<path fill-rule="evenodd" clip-rule="evenodd" d="M13.1998 18.7998H13.0392C12.2636 18.7998 11.6348 19.4286 11.6348 20.2043V20.7661C11.6348 21.5418 12.2636 22.1706 13.0392 22.1706H13.1998C13.7009 22.1706 14.1559 21.8783 14.3642 21.4225C14.3933 21.359 14.399 21.347 14.4177 21.3056C14.4912 21.1424 14.4025 20.9933 14.297 20.9403C14.1209 20.8518 13.9611 20.9499 13.9067 21.0721C13.8902 21.1091 13.8533 21.189 13.8533 21.189C13.7363 21.4447 13.481 21.6088 13.1998 21.6088H13.0392C12.5738 21.6088 12.1965 21.2315 12.1965 20.7661V20.2043C12.1965 19.7389 12.5738 19.3616 13.0392 19.3616H13.1998C13.481 19.3616 13.7363 19.5257 13.8533 19.7814C13.8533 19.7814 13.8875 19.8581 13.9067 19.8983C13.9911 20.0752 14.1907 20.1004 14.3169 20.0184C14.4056 19.9607 14.4893 19.8214 14.4177 19.6647C14.3642 19.5478 14.3642 19.5478 14.3642 19.5478C14.1559 19.0921 13.7009 18.7998 13.1998 18.7998Z" fill="#D8DFE3"/>
<path fill-rule="evenodd" clip-rule="evenodd" d="M14.8652 21.1892V21.3284C14.8652 21.5518 14.954 21.766 15.1118 21.9239C15.2698 22.0819 15.484 22.1706 15.7073 22.1706H16.3405C16.5638 22.1706 16.778 22.0819 16.936 21.9239C17.0939 21.766 17.1827 21.5518 17.1827 21.3284C17.1827 21.2907 17.1827 21.2532 17.1827 21.2167C17.1827 20.8721 16.9729 20.5623 16.6529 20.4342L15.6315 20.0257C15.508 19.9763 15.427 19.8567 15.427 19.7237V19.6425C15.427 19.568 15.4566 19.4965 15.5093 19.4439C15.562 19.3912 15.6334 19.3616 15.7079 19.3616H16.34C16.4144 19.3616 16.4859 19.3912 16.5386 19.4439C16.5912 19.4965 16.6208 19.568 16.6208 19.6425V19.7812C16.6208 19.8605 16.6559 19.9323 16.6911 19.9687C16.7459 20.0309 16.8247 20.0638 16.9017 20.0638C17.0384 20.0638 17.1827 19.9583 17.1827 19.7812V19.6425C17.1827 19.419 17.0939 19.2046 16.9358 19.0466C16.7778 18.8886 16.5634 18.7998 16.34 18.7998H15.7079C15.4844 18.7998 15.2701 18.8886 15.112 19.0466C14.954 19.2046 14.8652 19.419 14.8652 19.6425V19.7237C14.8652 20.0864 15.0861 20.4126 15.4228 20.5473L16.4442 20.9559C16.5509 20.9985 16.6208 21.1019 16.6208 21.2167V21.3284C16.6208 21.4028 16.5913 21.4741 16.5387 21.5267C16.4862 21.5793 16.4149 21.6088 16.3405 21.6088H15.7073C15.633 21.6088 15.5617 21.5793 15.5091 21.5267C15.4565 21.4741 15.427 21.4028 15.427 21.3285C15.427 21.3284 15.427 21.3284 15.427 21.1892C15.427 21.0039 15.276 20.9064 15.151 20.9064C15.0325 20.9064 14.8652 20.9983 14.8652 21.1875V21.1892Z" fill="#D8DFE3"/>
</svg>
