<svg width="48" height="48" viewBox="0 0 48 48" fill="none" xmlns="http://www.w3.org/2000/svg">
<rect width="48" height="48" rx="8" fill="#F8761F"/>
<g clip-path="url(#clip0_1167_31217)">
<path d="M34.75 26.358C34.75 23.302 32.529 20.771 29.618 20.325V17.437C30.433 17.09 30.931 16.321 30.931 15.426C30.931 14.203 29.957 13.181 28.742 13.181C27.527 13.181 26.567 14.203 26.567 15.426C26.567 16.321 27.066 17.09 27.88 17.437V20.306C27.1847 20.4003 26.5114 20.6163 25.891 20.944C24.605 19.964 20.419 16.927 18.026 15.094C18.0857 14.8834 18.1169 14.6658 18.119 14.447C18.1201 13.7992 17.8639 13.1776 17.4067 12.7187C16.9495 12.2598 16.3288 12.0013 15.681 12C15.0343 12.0026 14.4151 12.2618 13.9593 12.7206C13.5035 13.1794 13.2484 13.8003 13.25 14.447C13.2474 15.0945 13.502 15.7165 13.9578 16.1763C14.4137 16.6361 15.0335 16.8961 15.681 16.899C16.137 16.899 16.561 16.763 16.929 16.543L24.529 21.92L24.527 21.919C23.9255 22.49 23.4467 23.1778 23.12 23.9402C22.7933 24.7026 22.6256 25.5236 22.627 26.353C22.627 27.726 23.079 28.992 23.838 30.009L21.533 32.343C21.3243 32.266 21.1035 32.2264 20.881 32.226C20.378 32.226 19.907 32.423 19.554 32.779C19.2 33.135 19.005 33.613 19.005 34.12C19.005 34.627 19.201 35.1 19.554 35.456C19.908 35.812 20.383 36 20.882 36C21.385 36 21.856 35.817 22.214 35.456C22.4575 35.2113 22.6292 34.9045 22.7105 34.5689C22.7918 34.2334 22.7795 33.882 22.675 33.553L25.004 31.2C26.0603 32.0197 27.36 32.4634 28.697 32.461C32.044 32.461 34.75 29.728 34.75 26.358ZM28.695 29.587C26.921 29.587 25.482 28.139 25.482 26.353C25.482 24.567 26.92 23.119 28.695 23.119C30.469 23.119 31.908 24.567 31.908 26.353C31.908 28.139 30.469 29.587 28.695 29.587Z" fill="white"/>
</g>
<defs>
<clipPath id="clip0_1167_31217">
<rect width="24" height="24" fill="white" transform="translate(12 12)"/>
</clipPath>
</defs>
</svg>
