<svg width="14" height="14" viewBox="0 0 14 14" fill="none" xmlns="http://www.w3.org/2000/svg">
<path d="M1 0.25H13C13.1989 0.25 13.3897 0.329018 13.5303 0.46967C13.671 0.610322 13.75 0.801088 13.75 1V13C13.75 13.1989 13.671 13.3897 13.5303 13.5303C13.3897 13.671 13.1989 13.75 13 13.75H1C0.801088 13.75 0.610322 13.671 0.46967 13.5303C0.329018 13.3897 0.25 13.1989 0.25 13V1C0.25 0.801088 0.329018 0.610322 0.46967 0.46967C0.610322 0.329018 0.801088 0.25 1 0.25ZM1.75 1.75V12.25H12.25V1.75H1.75ZM3.625 4.75C3.32663 4.75 3.04048 4.63147 2.8295 4.4205C2.61853 4.20952 2.5 3.92337 2.5 3.625C2.5 3.32663 2.61853 3.04048 2.8295 2.8295C3.04048 2.61853 3.32663 2.5 3.625 2.5C3.92337 2.5 4.20952 2.61853 4.4205 2.8295C4.63147 3.04048 4.75 3.32663 4.75 3.625C4.75 3.92337 4.63147 4.20952 4.4205 4.4205C4.20952 4.63147 3.92337 4.75 3.625 4.75ZM2.875 5.5H4.375V11.125H2.875V5.5ZM7 5.8225C7.438 5.39875 7.9495 5.125 8.5 5.125C10.0533 5.125 11.125 6.38425 11.125 7.9375V11.125H9.625V7.9375C9.625 7.5894 9.48672 7.25556 9.24058 7.00942C8.99444 6.76328 8.6606 6.625 8.3125 6.625C7.9644 6.625 7.63056 6.76328 7.38442 7.00942C7.13828 7.25556 7 7.5894 7 7.9375V11.125H5.5V5.5H7V5.8225Z" fill="#546881"/>
</svg>
