<svg width="16" height="16" viewBox="0 0 16 16" fill="none" xmlns="http://www.w3.org/2000/svg">
<path fill-rule="evenodd" clip-rule="evenodd" d="M4.72841 3.68775C4.99942 3.41675 5.32641 3.28125 5.70941 3.28125C6.09291 3.28125 6.42017 3.4165 6.69117 3.687L8.06741 5.06325L8.07491 5.07075L14.6052 11.6017C15.0722 12.0682 15.3057 12.6318 15.3057 13.2923C15.3057 13.9528 15.0722 14.516 14.6052 14.982C14.1382 15.448 13.5749 15.6815 12.9154 15.6825C12.2559 15.6835 11.6924 15.45 11.2249 14.982L3.31017 7.068C3.03967 6.797 2.90442 6.46975 2.90442 6.08625C2.90442 5.70275 3.03967 5.37575 3.31017 5.10525L4.72841 3.68775ZM7.67291 6.26025L13.8094 12.3975C14.0569 12.6445 14.1807 12.9428 14.1807 13.2923C14.1807 13.6413 14.0569 13.9395 13.8094 14.187C13.5624 14.434 13.2644 14.5575 12.9154 14.5575C12.5654 14.5575 12.2672 14.4338 12.0207 14.1863L5.88342 8.04975L7.67291 6.26025ZM5.08767 7.254L4.10591 6.27225C4.05491 6.22075 4.02942 6.15875 4.02942 6.08625C4.02942 6.01425 4.05491 5.9525 4.10591 5.901L5.52492 4.4835C5.57642 4.432 5.63816 4.40625 5.71016 4.40625C5.78216 4.40625 5.84416 4.43175 5.89616 4.48275L6.87867 5.46525L5.08767 7.254Z" fill="white"/>
<path d="M9.93241 3.46381L10.2414 4.40431C10.2551 4.44544 10.2813 4.48122 10.3165 4.50658C10.3516 4.53194 10.3938 4.54559 10.4372 4.54559C10.4805 4.54559 10.5227 4.53194 10.5579 4.50658C10.593 4.48122 10.6193 4.44544 10.6329 4.40431L10.9419 3.46306C10.9724 3.37115 11.024 3.28763 11.0925 3.21914C11.161 3.15066 11.2445 3.0991 11.3364 3.06856L12.2777 2.75956C12.3188 2.74591 12.3546 2.71965 12.3799 2.68452C12.4053 2.64938 12.4189 2.60715 12.4189 2.56381C12.4189 2.52048 12.4053 2.47825 12.3799 2.44311C12.3546 2.40797 12.3188 2.38171 12.2777 2.36806L11.3364 2.05906C11.2445 2.02853 11.161 1.97697 11.0925 1.90848C11.024 1.84 10.9724 1.75648 10.9419 1.66456L10.6329 0.723312C10.6193 0.682184 10.593 0.646401 10.5579 0.62104C10.5227 0.59568 10.4805 0.582031 10.4372 0.582031C10.3938 0.582031 10.3516 0.59568 10.3165 0.62104C10.2813 0.646401 10.2551 0.682184 10.2414 0.723312L9.93241 1.66456C9.87091 1.85131 9.72466 1.99756 9.53791 2.05906L8.59667 2.36806C8.55554 2.38171 8.51975 2.40797 8.49439 2.44311C8.46903 2.47825 8.45538 2.52048 8.45538 2.56381C8.45538 2.60715 8.46903 2.64938 8.49439 2.68452C8.51975 2.71965 8.55554 2.74591 8.59667 2.75956L9.53791 3.06856C9.62983 3.0991 9.71335 3.15066 9.78183 3.21914C9.85032 3.28763 9.90188 3.3719 9.93241 3.46381Z" fill="#DAD435"/>
<path d="M1.68241 11.7138L1.99141 12.6543C2.00506 12.6954 2.03132 12.7312 2.06646 12.7566C2.1016 12.7819 2.14383 12.7956 2.18716 12.7956C2.2305 12.7956 2.27273 12.7819 2.30787 12.7566C2.343 12.7312 2.36926 12.6954 2.38291 12.6543L2.69191 11.7131C2.72245 11.6211 2.77401 11.5376 2.84249 11.4691C2.91098 11.4007 2.9945 11.3491 3.08641 11.3186L4.02766 11.0096C4.06879 10.9959 4.10457 10.9697 4.12994 10.9345C4.1553 10.8994 4.16895 10.8571 4.16895 10.8138C4.16895 10.7705 4.1553 10.7282 4.12994 10.6931C4.10457 10.658 4.06879 10.6317 4.02766 10.6181L3.08641 10.3091C2.9945 10.2785 2.91098 10.227 2.84249 10.1585C2.77401 10.09 2.72245 10.0065 2.69191 9.91456L2.38291 8.97331C2.36926 8.93218 2.343 8.8964 2.30787 8.87104C2.27273 8.84568 2.2305 8.83203 2.18716 8.83203C2.14383 8.83203 2.1016 8.84568 2.06646 8.87104C2.03132 8.8964 2.00506 8.93218 1.99141 8.97331L1.68241 9.91456C1.62091 10.1013 1.47466 10.2476 1.28791 10.3091L0.346664 10.6181C0.305537 10.6317 0.269752 10.658 0.244391 10.6931C0.219031 10.7282 0.205381 10.7705 0.205381 10.8138C0.205381 10.8571 0.219031 10.8994 0.244391 10.9345C0.269752 10.9697 0.305537 10.9959 0.346664 11.0096L1.28791 11.3186C1.37983 11.3491 1.46335 11.4007 1.53183 11.4691C1.60032 11.5376 1.65188 11.6211 1.68241 11.7131" fill="white"/>
<path d="M1.68241 11.7138L1.99141 12.6543C2.00506 12.6954 2.03132 12.7312 2.06646 12.7566C2.1016 12.7819 2.14383 12.7956 2.18716 12.7956C2.2305 12.7956 2.27273 12.7819 2.30787 12.7566C2.343 12.7312 2.36926 12.6954 2.38291 12.6543L2.69191 11.7131C2.72245 11.6211 2.77401 11.5376 2.84249 11.4691C2.91098 11.4007 2.9945 11.3491 3.08641 11.3186L4.02766 11.0096C4.06879 10.9959 4.10457 10.9697 4.12994 10.9345C4.1553 10.8994 4.16895 10.8571 4.16895 10.8138C4.16895 10.7705 4.1553 10.7282 4.12994 10.6931C4.10457 10.658 4.06879 10.6317 4.02766 10.6181L3.08641 10.3091C2.9945 10.2785 2.91098 10.227 2.84249 10.1585C2.77401 10.09 2.72245 10.0065 2.69191 9.91456L2.38291 8.97331C2.36926 8.93218 2.343 8.8964 2.30787 8.87104C2.27273 8.84568 2.2305 8.83203 2.18716 8.83203C2.14383 8.83203 2.1016 8.84568 2.06646 8.87104C2.03132 8.8964 2.00506 8.93218 1.99141 8.97331L1.68241 9.91456C1.62091 10.1013 1.47466 10.2476 1.28791 10.3091L0.346664 10.6181C0.305537 10.6317 0.269752 10.658 0.244391 10.6931C0.219031 10.7282 0.205381 10.7705 0.205381 10.8138C0.205381 10.8571 0.219031 10.8994 0.244391 10.9345C0.269752 10.9697 0.305537 10.9959 0.346664 11.0096L1.28791 11.3186C1.37983 11.3491 1.46335 11.4007 1.53183 11.4691C1.60032 11.5376 1.65188 11.6211 1.68241 11.7131M1.68241 3.08881L1.99141 4.02931C2.00506 4.07044 2.03132 4.10622 2.06646 4.13158C2.1016 4.15694 2.14383 4.17059 2.18716 4.17059C2.2305 4.17059 2.27273 4.15694 2.30787 4.13158C2.343 4.10622 2.36926 4.07044 2.38291 4.02931L2.69191 3.08806C2.72245 2.99615 2.77401 2.91263 2.84249 2.84414C2.91098 2.77566 2.9945 2.7241 3.08641 2.69356L4.02766 2.38456C4.06879 2.37091 4.10457 2.34465 4.12994 2.30952C4.1553 2.27438 4.16895 2.23215 4.16895 2.18881C4.16895 2.14548 4.1553 2.10325 4.12994 2.06811C4.10457 2.03297 4.06879 2.00671 4.02766 1.99306L3.08641 1.68406C2.9945 1.65353 2.91098 1.60197 2.84249 1.53348C2.77401 1.465 2.72245 1.38148 2.69191 1.28956L2.38291 0.348312C2.36926 0.307184 2.343 0.271401 2.30787 0.24604C2.27273 0.22068 2.2305 0.207031 2.18716 0.207031C2.14383 0.207031 2.1016 0.22068 2.06646 0.24604C2.03132 0.271401 2.00506 0.307184 1.99141 0.348312L1.68241 1.28956C1.62091 1.47631 1.47466 1.62256 1.28791 1.68406L0.346664 1.99306C0.305537 2.00671 0.269752 2.03297 0.244391 2.06811C0.219031 2.10325 0.205381 2.14548 0.205381 2.18881C0.205381 2.23215 0.219031 2.27438 0.244391 2.30952C0.269752 2.34465 0.305537 2.37091 0.346664 2.38456L1.28791 2.69356C1.37983 2.7241 1.46335 2.77566 1.53183 2.84414C1.60032 2.91263 1.65188 2.9969 1.68241 3.08881Z" fill="#DAD435"/>
</svg>
