<svg width="48" height="48" viewBox="0 0 48 48" fill="none" xmlns="http://www.w3.org/2000/svg">
<rect width="48" height="48" rx="8" fill="#FDDD4C"/>
<path d="M17.5026 25.3215C17.4996 25.3215 17.4966 25.3215 17.4928 25.3215C17.1838 25.3215 16.9048 25.4527 16.7091 25.662L16.7083 25.6627C16.4856 25.8997 16.3491 26.2192 16.3491 26.5702C16.3491 26.6437 16.3551 26.7157 16.3663 26.7855L16.3656 26.778C16.3911 26.8462 16.4308 26.8657 16.4593 26.8695C16.5193 26.877 16.6093 26.8327 16.6656 26.682L16.6813 26.6332C16.7188 26.5012 16.7691 26.3865 16.8321 26.28L16.8283 26.2867C16.9453 26.1097 17.1433 25.9942 17.3691 25.9942C17.5011 25.9942 17.6241 26.034 17.7261 26.1015L17.7238 26.1C17.8956 26.214 18.0073 26.4067 18.0073 26.6257C18.0073 26.7097 17.9908 26.79 17.9608 26.8627L17.9623 26.8582C17.8836 27.0525 17.8378 27.2782 17.8378 27.5145C17.8378 27.5212 17.8378 27.528 17.8378 27.5347C17.8378 27.5422 17.8371 27.5505 17.8371 27.5595C17.8371 27.9052 18.0988 28.1895 18.4341 28.2255H18.4371C18.4513 28.227 18.4678 28.2277 18.4843 28.2277C18.6673 28.2277 18.8278 28.1317 18.9186 27.9877L18.9201 27.9855C18.9283 27.9705 18.9336 27.9532 18.9336 27.9345C18.9336 27.909 18.9246 27.8865 18.9096 27.8685C18.8691 27.819 18.8038 27.834 18.7408 27.849C18.6958 27.8617 18.6441 27.8692 18.5908 27.8692C18.5878 27.8692 18.5848 27.8692 18.5818 27.8692C18.4723 27.8692 18.3748 27.8145 18.3163 27.7312L18.3156 27.7305C18.2826 27.6652 18.2638 27.588 18.2638 27.5062C18.2638 27.4155 18.2878 27.33 18.3291 27.2557L18.3276 27.258C18.3381 27.2317 18.3508 27.204 18.3651 27.1717C18.4911 26.9662 18.5661 26.7172 18.5661 26.4502C18.5661 26.2657 18.5301 26.0887 18.4648 25.9275L18.4678 25.9365C18.3081 25.611 18.0006 25.38 17.6361 25.3282L17.6301 25.3275C17.5918 25.3222 17.5468 25.3185 17.5011 25.3185L17.5026 25.3215ZM17.5686 24.453C17.6136 24.453 17.6601 24.453 17.7081 24.456C18.7596 24.582 19.5748 25.4422 19.6311 26.5027V26.508C19.8343 27.8295 19.5111 29.1727 18.2728 29.3842C18.1806 29.4 18.0748 29.409 17.9661 29.409C17.9503 29.409 17.9353 29.409 17.9196 29.4082H17.9218C16.6521 29.3152 15.6291 28.3672 15.4213 27.1425L15.4191 27.1267C15.3936 27 15.3793 26.8537 15.3793 26.7045C15.3793 25.6147 16.1518 24.705 17.1801 24.4942L17.1943 24.492C17.3061 24.4687 17.4343 24.4545 17.5663 24.453H17.5678H17.5686ZM28.4736 24.4305C28.4668 24.4297 28.4593 24.4297 28.4511 24.4297C28.3483 24.4297 28.2576 24.4852 28.2088 24.5677L28.2081 24.5692C28.2051 24.5872 28.2036 24.6075 28.2036 24.6285C28.2036 24.861 28.3918 25.0492 28.6243 25.0492C28.7428 25.0492 28.8493 25.0005 28.9258 24.9217C28.9341 24.8925 28.9393 24.8587 28.9393 24.8242C28.9393 24.6667 28.8381 24.5332 28.6978 24.4845L28.6956 24.4837C28.6311 24.4507 28.5546 24.4312 28.4736 24.4305ZM26.3548 24.0555C26.3533 24.0555 26.3511 24.0555 26.3488 24.0555C26.3001 24.0555 26.2513 24.0585 26.2041 24.0637L26.2101 24.063C25.9971 24.087 25.8066 24.1702 25.6521 24.2962L25.6543 24.2947C25.5816 24.3472 25.5306 24.4252 25.5126 24.5145L25.5118 24.5167V24.5175C25.5118 24.5565 25.5433 24.588 25.5823 24.588C25.6626 24.576 25.7346 24.5557 25.8021 24.5265L25.7961 24.5287C25.9903 24.453 26.2153 24.4095 26.4508 24.4095C26.5506 24.4095 26.6488 24.4177 26.7448 24.4327L26.7343 24.4312C26.8813 24.4477 26.9496 24.4567 26.9826 24.4072C26.9893 24.396 26.9931 24.3817 26.9931 24.3675C26.9931 24.3472 26.9856 24.3285 26.9736 24.3135C26.8281 24.1545 26.6188 24.0547 26.3871 24.0547C26.3758 24.0547 26.3646 24.0547 26.3533 24.0555H26.3548ZM29.7103 23.8942C29.5498 23.8912 29.4171 24.0682 29.4133 24.288C29.4096 24.5092 29.5363 24.6907 29.6976 24.693C29.8588 24.696 29.9916 24.5197 29.9953 24.2992C29.9991 24.078 29.8716 23.8972 29.7103 23.8942ZM25.8846 23.1352C25.8823 23.1352 25.8801 23.1352 25.8778 23.1352C25.5223 23.1352 25.1946 23.25 24.9276 23.4442L24.9321 23.4412C24.7821 23.5507 24.6403 23.7037 24.6606 23.7952C24.6681 23.8252 24.6898 23.8477 24.7431 23.8545C25.0213 23.7712 25.3761 23.6895 25.7376 23.628L25.7946 23.6197C25.8126 23.619 25.8328 23.619 25.8538 23.619C26.1471 23.619 26.4246 23.6887 26.6698 23.8125L26.6593 23.808C26.8836 23.9055 27.0208 23.97 27.0748 23.9137C27.1093 23.8785 27.0988 23.811 27.0456 23.7225C26.9016 23.517 26.7051 23.3565 26.4748 23.2597L26.4658 23.2567C26.2941 23.181 26.0946 23.136 25.8846 23.1352ZM29.3151 21.6862C29.2948 21.6862 29.2753 21.6885 29.2566 21.6915H29.2588C28.9446 21.7417 28.9333 22.1302 29.0451 22.6665C29.0961 22.9387 29.2011 23.1802 29.3488 23.3895L29.3451 23.3835C29.4148 23.3737 29.4958 23.3685 29.5783 23.3685C29.6608 23.3685 29.7418 23.3737 29.8213 23.3842L29.8123 23.3835C29.8596 23.2395 29.8866 23.0745 29.8866 22.9027C29.8866 22.7595 29.8678 22.6215 29.8326 22.4895L29.8348 22.5007C29.7298 21.999 29.5903 21.6832 29.3158 21.687L29.3151 21.6862ZM29.2941 19.6425L29.3466 19.6432C29.5063 19.65 29.6533 19.7002 29.7771 19.782L29.7741 19.7797C30.2743 20.1127 30.3456 20.9197 30.3718 21.5092C30.3861 21.8467 30.4273 22.6612 30.4408 22.8945C30.4723 23.43 30.6133 23.505 30.8976 23.598C31.0566 23.6512 31.2066 23.6895 31.4256 23.7517C31.9273 23.8545 32.3668 24.0705 32.7336 24.3727L32.7283 24.3682C32.8521 24.4897 32.9376 24.6502 32.9646 24.8295L32.9653 24.834C33.0433 25.404 32.5228 26.109 31.1451 26.7472C30.0516 27.2385 28.7751 27.525 27.4318 27.525C27.1206 27.525 26.8138 27.51 26.5101 27.48L26.5483 27.483L26.1066 27.4335C25.0963 27.2977 24.5196 28.602 25.1263 29.496C25.7098 30.0885 26.5206 30.4552 27.4176 30.4552C27.4978 30.4552 27.5773 30.4522 27.6561 30.4462L27.6456 30.447C27.7401 30.4515 27.8503 30.4545 27.9606 30.4545C29.7958 30.4545 31.4578 29.7097 32.6593 28.5052C32.6773 28.482 32.6961 28.4565 32.7133 28.4295L32.7156 28.4257C32.7493 28.374 32.7216 28.3462 32.6781 28.3755C31.3093 29.3272 29.6128 29.8965 27.7828 29.8965C27.4603 29.8965 27.1416 29.8785 26.8288 29.844L26.8678 29.8477C26.6278 29.805 26.4163 29.7457 26.2138 29.6692L26.2386 29.6775C25.9993 29.5837 25.4998 29.355 25.4391 28.8427C25.9836 29.0505 26.6136 29.1705 27.2713 29.1705C27.8908 29.1705 28.4856 29.064 29.0383 28.8682L29.0016 28.8795C29.0248 28.8682 29.0413 28.845 29.0413 28.818C29.0413 28.8157 29.0413 28.8135 29.0413 28.812C29.0383 28.7797 29.0113 28.7557 28.9791 28.7557C28.9768 28.7557 28.9746 28.7557 28.9723 28.7565C28.6866 28.7925 28.3558 28.8135 28.0206 28.8135C27.1146 28.8135 26.2431 28.6627 25.4308 28.386L25.4871 28.4025C25.6716 27.8025 26.1621 28.02 26.9023 28.0792C27.0853 28.0905 27.2991 28.0972 27.5151 28.0972C28.5141 28.0972 29.4801 27.9555 30.3936 27.6915L30.3208 27.7095C31.2981 27.426 32.1493 26.991 32.8963 26.4247L32.8768 26.439C33.0336 26.7907 33.1573 27.1995 33.2286 27.6262L33.2331 27.6562C33.2593 27.6517 33.2901 27.6495 33.3208 27.6495C33.4266 27.6495 33.5256 27.6772 33.6111 27.726L33.6081 27.7245C33.7701 27.8235 33.8886 28.0297 33.8076 28.563C33.6426 29.5672 33.1768 30.4417 32.5078 31.1122C32.0706 31.584 31.5538 31.9747 30.9771 32.2642L30.9463 32.2785C30.6606 32.433 30.3238 32.5792 29.9736 32.6962L29.9271 32.7097C29.3518 32.9587 28.6828 33.1035 27.9793 33.1035C26.1156 33.1035 24.4896 32.0872 23.6241 30.579L23.6113 30.5542C23.5476 30.4185 23.4876 30.2565 23.4396 30.0885L23.4336 30.0652C23.3331 29.7187 23.2746 29.3205 23.2746 28.9087C23.2746 27.8025 23.6938 26.7937 24.3816 26.0325L24.3786 26.0362C24.4468 25.9762 24.4926 25.8922 24.5023 25.7977V25.7962C24.4933 25.7085 24.4588 25.6305 24.4063 25.5675L24.4071 25.5682C23.5941 24.8812 23.0811 23.8605 23.0811 22.7197C23.0811 22.6485 23.0833 22.5787 23.0871 22.5082L23.0863 22.518C23.2288 21.4035 24.1581 20.5462 25.2921 20.517H25.2951C25.3783 20.5207 25.4608 20.526 25.5441 20.5312C25.9686 20.5567 26.3406 20.6107 26.6901 20.625C26.7516 20.631 26.8228 20.634 26.8956 20.634C27.4858 20.634 28.0236 20.4105 28.4293 20.0437L28.4271 20.0452C28.6033 19.8637 28.8291 19.731 29.0833 19.671L29.0923 19.6695C29.1523 19.653 29.2206 19.6432 29.2911 19.6432C29.2918 19.6432 29.2926 19.6432 29.2941 19.6432V19.6425ZM26.4613 16.6387C26.4621 16.6387 26.4628 16.6387 26.4628 16.6387C26.4846 16.6387 26.5018 16.656 26.5018 16.6777C26.5018 16.6897 26.4958 16.701 26.4876 16.7077C26.3406 16.821 26.2138 16.9485 26.1043 17.091L26.1006 17.0962C26.0961 17.1022 26.0931 17.1105 26.0931 17.1187C26.0931 17.139 26.1096 17.1555 26.1298 17.1562C26.8843 17.1825 27.5878 17.3782 28.2103 17.7067L28.1841 17.694C28.2223 17.7157 28.1953 17.7907 28.1518 17.7802C27.5991 17.6497 26.9638 17.5755 26.3121 17.5755C25.6453 17.5755 24.9966 17.6535 24.3741 17.8012L24.4311 17.79C23.2813 18.0547 22.2696 18.5175 21.3823 19.1445L21.4093 19.1265C21.4033 19.131 21.3951 19.134 21.3868 19.134C21.3658 19.134 21.3486 19.1167 21.3486 19.0957C21.3486 19.086 21.3523 19.0777 21.3576 19.071C22.1383 18.1552 23.0646 17.3917 24.1063 16.8097L24.1566 16.7835C24.1618 16.7805 24.1671 16.779 24.1738 16.779C24.1933 16.779 24.2098 16.7947 24.2098 16.815C24.2098 16.821 24.2083 16.827 24.2053 16.8322C24.0996 17.0152 24.0103 17.226 23.9496 17.4487L23.9451 17.4675C23.9443 17.4697 23.9443 17.4727 23.9443 17.475C23.9443 17.496 23.9616 17.5132 23.9826 17.5132C23.9901 17.5132 23.9976 17.511 24.0036 17.5065C24.7003 17.043 25.5366 16.7317 26.4381 16.6402L26.4613 16.6387ZM23.3811 13.5712C23.3856 13.5712 23.3908 13.5712 23.3961 13.5712C23.5461 13.5712 23.6908 13.5907 23.8288 13.6282L23.8176 13.6252C24.2698 13.9635 24.6636 14.3407 25.0078 14.7607L25.0176 14.7727C23.7651 15.4957 22.6866 16.2472 21.6771 17.079L21.7183 17.046C19.5988 18.7605 17.9713 21.0045 17.0308 23.5792L16.9978 23.6835C16.2343 23.829 15.5908 24.2557 15.1641 24.849L15.1581 24.858C14.8671 24.6315 14.6106 24.384 14.3826 24.1125L14.3766 24.105C13.7226 22.8622 15.0898 20.448 16.0461 19.0845C18.2226 15.9772 21.5361 13.566 23.3826 13.572L23.3811 13.5712ZM23.3128 12.753C19.1181 12.7387 11.0473 22.356 14.0623 24.903L14.8026 25.53C14.6571 25.9072 14.5731 26.3445 14.5731 26.8005C14.5731 26.9445 14.5813 27.087 14.5978 27.2265L14.5963 27.2092C14.7028 28.065 15.1228 28.8067 15.7348 29.3295L15.7393 29.3332C16.3311 29.8725 17.1141 30.2115 17.9758 30.2362H17.9811C19.3723 33.2145 22.3423 35.241 25.7863 35.241C25.8058 35.241 25.8246 35.241 25.8441 35.241H25.8411C26.0623 35.262 26.3188 35.274 26.5783 35.274C29.9248 35.274 32.8086 33.291 34.1181 30.4357L34.1391 30.384C34.3933 29.7577 34.5576 29.0332 34.5958 28.275L34.5966 28.2592C34.5966 27.363 34.0903 26.9917 33.7671 26.9917C33.7581 26.9572 33.6943 26.724 33.6058 26.4427C33.5466 26.25 33.4858 26.091 33.4168 25.938L33.4281 25.965C33.6336 25.683 33.7566 25.3297 33.7566 24.9472C33.7566 24.8602 33.7498 24.774 33.7378 24.69L33.7393 24.6997C33.6831 24.3427 33.5158 24.0315 33.2751 23.7967C32.8213 23.409 32.2671 23.1247 31.6573 22.9882L31.6318 22.9837L31.2141 22.8675C31.2118 22.8495 31.1916 21.8805 31.1736 21.4642C31.1646 21.0225 31.0978 20.5987 30.9801 20.1975L30.9883 20.2312C30.8368 19.632 30.5383 19.1167 30.1341 18.7057L30.1348 18.7065C31.0566 17.8777 31.6776 16.731 31.8231 15.4395L31.8253 15.4155C31.8223 13.452 29.4111 12.858 26.4403 14.0887L25.8103 14.3557C25.4258 13.9782 25.0408 13.6012 24.6553 13.2247C24.3103 12.9307 23.8596 12.7515 23.3676 12.7515C23.3481 12.7515 23.3286 12.7515 23.3098 12.7522L23.3128 12.753Z" fill="black"/>
</svg>
