<svg width="48" height="48" viewBox="0 0 48 48" fill="none" xmlns="http://www.w3.org/2000/svg">
<rect width="48" height="48" rx="8" fill="#008EFF"/>
<path d="M21.9274 19.579C19.8434 19.579 18.1484 17.879 18.1484 15.783C18.1495 14.7807 18.5478 13.8197 19.2562 13.1106C19.9646 12.4015 20.9251 12.0021 21.9274 12C24.0104 12 25.7054 13.7 25.7054 15.783C25.7054 17.878 24.0104 19.579 21.9274 19.579Z" fill="white"/>
<path d="M33.7671 24.7981C33.7201 21.1211 33.2261 17.5041 31.7791 14.1181C31.4851 13.4401 30.4141 13.5001 30.1081 14.1181C27.2961 19.6931 21.9661 23.0321 15.9881 23.8061H15.9771C15.847 23.8075 15.7183 23.8347 15.5987 23.886C15.479 23.9373 15.3707 24.0117 15.2799 24.105C15.1891 24.1983 15.1177 24.3086 15.0697 24.4296C15.0216 24.5506 14.998 24.6799 15.0001 24.8101C14.998 24.9403 15.0216 25.0696 15.0697 25.1906C15.1177 25.3116 15.1891 25.4219 15.2799 25.5152C15.3707 25.6085 15.479 25.6829 15.5987 25.7342C15.7183 25.7855 15.847 25.8127 15.9771 25.8141C21.9661 26.5881 27.3071 29.9381 30.1071 35.5141C30.4141 36.1311 31.4851 36.1921 31.7791 35.5141C33.2261 32.1281 33.7201 28.5111 33.7671 24.8341V24.7981Z" fill="white"/>
</svg>
