<svg width="446" height="360" viewBox="0 0 446 360" fill="none" xmlns="http://www.w3.org/2000/svg">
<g clip-path="url(#clip0_1927_36965)">
<rect width="360" height="360" rx="180" fill="#FFF3F7"/>
<path d="M240.26 324.517C233.946 275.723 209.586 248.719 179.5 248.719C149.414 248.719 125.054 275.799 118.843 324.517C112.631 373.235 120.581 377.914 126.102 382.465C141.601 393.827 160.349 399.957 179.603 399.957C198.856 399.957 217.604 393.827 233.103 382.465C238.522 378.067 246.65 373.413 240.26 324.517Z" fill="#D9DFE3"/>
<path d="M227.453 281.494C216.078 260.186 198.952 248.795 179.5 248.795C162.578 248.795 147.395 257.415 136.275 273.663C165.901 289.58 203.707 290.216 227.453 281.494Z" fill="#B0BCC4"/>
<path d="M150.922 396.221C150.653 396.222 150.394 396.119 150.199 395.934C150.004 395.75 149.887 395.497 149.874 395.23C144.762 302.523 161.76 251.897 161.939 251.414C161.982 251.281 162.052 251.157 162.144 251.051C162.236 250.945 162.349 250.859 162.476 250.797C162.602 250.736 162.74 250.7 162.88 250.692C163.021 250.685 163.162 250.705 163.294 250.753C163.557 250.851 163.772 251.045 163.896 251.296C164.019 251.546 164.042 251.834 163.959 252.101C163.78 252.584 146.858 302.955 151.996 395.103C152.01 395.382 151.914 395.655 151.727 395.864C151.541 396.074 151.279 396.202 150.999 396.221H150.922Z" fill="#002742"/>
<path d="M175.078 311.422C175.034 314.141 174.452 316.825 173.364 319.32C172.277 321.815 170.705 324.072 168.738 325.962C166.772 327.851 164.451 329.337 161.907 330.332C159.363 331.328 156.646 331.814 153.913 331.764C149.188 331.788 144.587 330.26 140.825 327.416C138.346 325.562 136.332 323.162 134.94 320.405C133.547 317.649 132.815 314.609 132.799 311.524C132.842 308.807 133.423 306.125 134.51 303.632C135.596 301.138 137.165 298.883 139.129 296.993C141.092 295.104 143.411 293.618 145.952 292.621C148.493 291.624 151.207 291.135 153.938 291.182C156.851 291.168 159.736 291.744 162.417 292.877C165.098 294.009 167.518 295.673 169.531 297.768C173.073 301.442 175.059 306.331 175.078 311.422Z" fill="#002742"/>
<path d="M170.553 311.422C170.466 315.72 168.667 319.808 165.552 322.788C162.437 325.768 158.26 327.396 153.938 327.314C150.248 327.316 146.658 326.12 143.714 323.907C141.767 322.457 140.185 320.576 139.094 318.414C138.003 316.252 137.432 313.867 137.426 311.447C137.506 307.149 139.299 303.059 142.409 300.074C145.52 297.09 149.694 295.455 154.015 295.53C156.296 295.506 158.558 295.945 160.663 296.819C162.769 297.693 164.672 298.985 166.259 300.616C169.068 303.513 170.611 307.397 170.553 311.422Z" fill="white"/>
<path d="M233 382.542C237.039 379.262 242.432 375.905 242.585 355.233C230.239 360.496 207.668 367.54 175.103 367.54C144.429 367.54 126.281 360.929 116.439 355.462C116.593 375.931 121.986 379.287 125.999 382.542C141.499 393.904 160.246 400.033 179.5 400.033C198.753 400.033 217.501 393.904 233 382.542Z" fill="#E8244F"/>
<path d="M265.003 182.481C265.003 182.481 273.617 162.826 275.355 155.478C277.093 148.129 261.527 93.1307 261.527 93.1307C261.527 93.1307 253.858 147.748 254.599 155.224C255.341 162.699 265.003 182.481 265.003 182.481Z" fill="#E8244F"/>
<path d="M253.961 175.743C253.961 175.743 280.161 173.2 285.913 199.416C291.664 225.631 265.694 233.234 265.694 233.234L253.961 175.743Z" fill="#E8244F"/>
<path d="M93.9976 182.481C93.9976 182.481 85.3834 162.826 83.6452 155.478C81.907 148.129 97.474 93.1307 97.474 93.1307C97.474 93.1307 105.142 147.748 104.401 155.224C103.66 162.699 93.9976 182.481 93.9976 182.481Z" fill="#E8244F"/>
<path d="M105.04 175.743C105.04 175.743 78.8394 173.2 73.088 199.416C67.3367 225.631 93.2816 233.234 93.2816 233.234L105.04 175.743Z" fill="#E8244F"/>
<path d="M267.1 235.98C265.822 222.122 263.266 191.355 254.933 173.226C246.6 155.096 219.147 136.687 179.45 136.687C139.753 136.687 112.274 155.122 103.967 173.226C95.6592 191.33 93.0775 222.122 91.7994 235.98C90.5214 249.838 99.4679 271.451 179.45 271.451C259.432 271.451 268.429 249.838 267.1 235.98Z" fill="#D9DFE3"/>
<path d="M179.499 272.519C179.215 272.519 178.942 272.406 178.74 272.206C178.539 272.006 178.426 271.734 178.426 271.451V136.687C178.426 136.404 178.539 136.132 178.74 135.932C178.942 135.732 179.215 135.619 179.499 135.619C179.784 135.619 180.057 135.732 180.258 135.932C180.46 136.132 180.573 136.404 180.573 136.687V271.451C180.573 271.734 180.46 272.006 180.258 272.206C180.057 272.406 179.784 272.519 179.499 272.519Z" fill="#002742"/>
<path d="M244.809 184.973C243.731 181.374 241.685 178.136 238.892 175.608C236.099 173.081 232.665 171.361 228.961 170.632C215.976 168.446 194.478 165.242 179.499 165.242C164.52 165.242 143.023 168.446 130.038 170.632C126.334 171.361 122.9 173.081 120.107 175.608C117.314 178.136 115.268 181.374 114.19 184.973C108.621 202.208 105.187 220.054 103.965 238.116C103.548 242.087 104.528 246.079 106.737 249.412C108.946 252.745 112.248 255.214 116.081 256.398C131.06 260.263 151.586 262.984 179.397 262.984C207.208 262.984 227.734 260.263 242.713 256.398C246.545 255.21 249.848 252.742 252.06 249.41C254.273 246.079 255.26 242.088 254.855 238.116C253.68 220.063 250.306 202.218 244.809 184.973Z" fill="#002742"/>
<path d="M154.295 307.735C149.055 299.827 141.873 303.769 143.253 311.473C144.301 317.27 150.027 321.44 152.787 323.144C153.242 323.431 153.77 323.584 154.308 323.584C154.847 323.584 155.374 323.431 155.829 323.144C158.59 321.44 164.316 317.27 165.364 311.473C166.744 303.769 159.561 299.827 154.295 307.735Z" fill="#002742"/>
<path d="M165.987 244.669C165.485 244.522 165.053 244.201 164.767 243.763C164.481 243.325 164.36 242.799 164.428 242.281C164.495 241.762 164.745 241.285 165.133 240.934C165.521 240.584 166.021 240.383 166.544 240.369L192.158 240.119C192.738 240.122 193.295 240.353 193.708 240.761C194.121 241.169 194.359 241.722 194.37 242.302C194.373 242.589 194.318 242.873 194.21 243.138C194.101 243.404 193.941 243.645 193.739 243.848C193.537 244.051 193.296 244.211 193.031 244.32C192.766 244.429 192.482 244.485 192.195 244.483L166.582 244.733L165.987 244.669Z" fill="#FF3E7B"/>
<path d="M144.254 208.983C144.043 208.911 143.852 208.789 143.696 208.626L138.012 202.37C137.891 202.24 137.797 202.086 137.735 201.917C137.673 201.747 137.644 201.566 137.65 201.382C137.657 201.199 137.698 201.018 137.771 200.849C137.845 200.681 137.949 200.528 138.079 200.4C138.343 200.142 138.692 200.002 139.049 200.009C139.406 200.016 139.741 200.17 139.981 200.437L145.665 206.694C145.783 206.824 145.875 206.979 145.935 207.149C145.995 207.318 146.022 207.499 146.014 207.682C146.006 207.865 145.963 208.045 145.889 208.212C145.814 208.379 145.709 208.531 145.579 208.657C145.402 208.828 145.186 208.947 144.953 209.004C144.721 209.062 144.479 209.054 144.254 208.983Z" fill="#FF3E7B"/>
<path d="M137.732 215.286C137.512 215.207 137.312 215.079 137.145 214.912C136.893 214.631 136.761 214.255 136.779 213.865C136.797 213.476 136.962 213.106 137.239 212.836L143.718 206.451C143.854 206.318 144.013 206.214 144.185 206.144C144.358 206.074 144.542 206.04 144.726 206.043C144.909 206.046 145.09 206.087 145.256 206.163C145.423 206.239 145.572 206.349 145.697 206.486C145.821 206.624 145.917 206.786 145.98 206.963C146.043 207.141 146.071 207.33 146.063 207.521C146.055 207.712 146.01 207.901 145.933 208.076C145.855 208.251 145.745 208.409 145.609 208.542L139.124 214.948C138.939 215.128 138.712 215.254 138.467 215.314C138.223 215.373 137.969 215.364 137.732 215.286Z" fill="#FF3E7B"/>
<path d="M143.992 208.898C143.77 208.823 143.569 208.695 143.405 208.524C143.153 208.243 143.021 207.867 143.039 207.477C143.056 207.088 143.222 206.718 143.499 206.448L149.978 200.063C150.114 199.93 150.272 199.826 150.445 199.756C150.618 199.686 150.802 199.652 150.985 199.655C151.169 199.658 151.349 199.699 151.516 199.775C151.683 199.851 151.832 199.961 151.956 200.098C152.081 200.236 152.177 200.398 152.24 200.575C152.302 200.753 152.331 200.943 152.322 201.133C152.314 201.324 152.27 201.513 152.192 201.688C152.115 201.863 152.005 202.021 151.869 202.154L145.39 208.539C145.206 208.721 144.979 208.851 144.733 208.914C144.487 208.978 144.231 208.972 143.992 208.898Z" fill="#FF3E7B"/>
<path d="M150.512 215.201C150.275 215.132 150.06 215.002 149.892 214.825L143.497 208.352C143.227 208.075 143.08 207.709 143.087 207.335C143.095 206.961 143.257 206.61 143.537 206.358C143.674 206.233 143.836 206.137 144.014 206.074C144.191 206.011 144.381 205.983 144.573 205.991C144.764 205.999 144.952 206.044 145.128 206.122C145.303 206.2 145.461 206.31 145.594 206.446L151.989 212.919C152.258 213.196 152.406 213.562 152.398 213.936C152.391 214.31 152.229 214.662 151.948 214.914C151.761 215.082 151.53 215.197 151.277 215.248C151.024 215.298 150.76 215.282 150.512 215.201Z" fill="#FF3E7B"/>
<path d="M210.307 208.983C210.095 208.911 209.904 208.789 209.749 208.626L204.065 202.37C203.944 202.24 203.85 202.086 203.788 201.917C203.726 201.747 203.697 201.566 203.703 201.382C203.709 201.199 203.75 201.018 203.824 200.849C203.897 200.681 204.002 200.528 204.131 200.4C204.396 200.142 204.745 200.002 205.102 200.009C205.458 200.016 205.793 200.17 206.034 200.437L211.717 206.694C211.836 206.824 211.928 206.979 211.988 207.149C212.048 207.318 212.075 207.499 212.067 207.682C212.059 207.865 212.016 208.045 211.941 208.212C211.867 208.379 211.762 208.531 211.632 208.657C211.455 208.828 211.239 208.947 211.006 209.004C210.773 209.062 210.532 209.054 210.307 208.983Z" fill="#FF3E7B"/>
<path d="M203.785 215.286C203.565 215.207 203.365 215.079 203.198 214.912C202.946 214.631 202.814 214.255 202.832 213.865C202.849 213.476 203.015 213.106 203.292 212.836L209.771 206.451C209.907 206.318 210.065 206.214 210.238 206.144C210.411 206.074 210.595 206.04 210.778 206.043C210.962 206.046 211.142 206.087 211.309 206.163C211.476 206.239 211.625 206.349 211.749 206.486C211.874 206.624 211.97 206.786 212.033 206.963C212.095 207.141 212.124 207.33 212.115 207.521C212.107 207.712 212.063 207.901 211.985 208.076C211.908 208.251 211.798 208.409 211.662 208.542L205.176 214.948C204.992 215.128 204.765 215.254 204.52 215.314C204.275 215.373 204.021 215.364 203.785 215.286Z" fill="#FF3E7B"/>
<path d="M210.045 208.898C209.823 208.823 209.622 208.695 209.458 208.524C209.206 208.243 209.074 207.867 209.092 207.477C209.109 207.088 209.275 206.718 209.552 206.448L216.031 200.063C216.166 199.93 216.325 199.826 216.498 199.756C216.671 199.686 216.854 199.652 217.038 199.655C217.222 199.658 217.402 199.699 217.569 199.775C217.735 199.851 217.885 199.961 218.009 200.098C218.133 200.236 218.23 200.398 218.292 200.575C218.355 200.753 218.383 200.943 218.375 201.133C218.367 201.324 218.323 201.513 218.245 201.688C218.167 201.863 218.057 202.021 217.922 202.154L211.443 208.539C211.258 208.721 211.031 208.851 210.786 208.914C210.54 208.978 210.284 208.972 210.045 208.898Z" fill="#FF3E7B"/>
<path d="M216.565 215.201C216.328 215.132 216.113 215.002 215.945 214.825L209.55 208.352C209.28 208.075 209.133 207.709 209.14 207.335C209.148 206.961 209.31 206.61 209.59 206.358C209.727 206.233 209.889 206.137 210.066 206.074C210.244 206.011 210.434 205.983 210.625 205.991C210.816 205.999 211.005 206.044 211.18 206.122C211.356 206.2 211.514 206.31 211.647 206.446L218.041 212.919C218.311 213.196 218.458 213.562 218.451 213.936C218.443 214.31 218.282 214.662 218.001 214.914C217.814 215.082 217.582 215.197 217.33 215.248C217.077 215.298 216.813 215.282 216.565 215.201Z" fill="#FF3E7B"/>
</g>
<rect x="325.494" y="110.54" width="90" height="78" rx="5.70298" fill="#E8244F"/>
<g clip-path="url(#clip1_1927_36965)">
<path d="M376.976 152.227L376.976 152.227C378.909 150.584 380.301 149.159 381.202 147.568C382.111 145.964 382.5 144.229 382.5 142C382.5 135.096 376.904 129.5 370 129.5C363.096 129.5 357.5 135.096 357.5 142V144V144.5H358H362H362.5V144V142C362.5 137.856 365.856 134.5 370 134.5C374.144 134.5 377.5 137.856 377.5 142C377.5 143.374 377.285 144.333 376.739 145.252C376.179 146.194 375.251 147.131 373.738 148.417C371.483 150.332 369.911 151.943 368.912 153.729C367.904 155.53 367.5 157.468 367.5 160V160.5H368H372H372.5V160C372.5 158.339 372.695 157.217 373.316 156.12C373.95 154.999 375.052 153.861 376.976 152.227ZM373.5 167C373.5 165.068 371.932 163.5 370 163.5C368.068 163.5 366.5 165.068 366.5 167C366.5 168.932 368.068 170.5 370 170.5C371.932 170.5 373.5 168.932 373.5 167Z" fill="white" stroke="white"/>
</g>
<path d="M317.404 210.957L325.548 169.46L352.879 187.79L317.404 210.957Z" fill="#E8244F"/>
<defs>
<clipPath id="clip0_1927_36965">
<rect width="360" height="360" rx="180" fill="white"/>
</clipPath>
<clipPath id="clip1_1927_36965">
<rect width="48" height="48" fill="white" transform="translate(346 126)"/>
</clipPath>
</defs>
</svg>
