<svg width="32" height="32" viewBox="0 0 32 32" fill="none" xmlns="http://www.w3.org/2000/svg">
<rect x="0.5" y="0.5" width="31" height="31" rx="7.5" fill="white"/>
<rect x="0.5" y="0.5" width="31" height="31" rx="7.5" stroke="#E6E9EC"/>
<g clip-path="url(#clip0_4320_35005)">
<path d="M10.8682 23.1161L11.0242 23.9141C11.0902 24.2411 11.4052 24.4511 11.7292 24.3881L15.3352 23.6801L21.2602 22.5191L24.1942 21.9431C24.5212 21.8801 24.7312 21.5651 24.6682 21.2381L22.6942 11.1761V11.1731L22.4362 9.86511L22.0822 8.06211C22.0192 7.73811 21.7042 7.52511 21.3772 7.59111L14.8462 8.87511H14.8402L10.8682 23.1161Z" fill="#F29C1F"/>
<path d="M22.2603 9.81964L9.65965 8.21915C9.33093 8.1774 9.03061 8.41003 8.98885 8.73875L7.29708 22.0581C7.25532 22.3869 7.48796 22.6872 7.81668 22.7289L20.4174 24.3294C20.7461 24.3712 21.0464 24.1386 21.0882 23.8098L22.7799 10.4904C22.8217 10.1617 22.5891 9.8614 22.2603 9.81964Z" fill="#F0C419"/>
<path d="M18.6996 8.8V11.8C18.6996 12.793 17.8926 13.6 16.8996 13.6C15.9066 13.6 15.0996 12.793 15.0996 11.8V10.9C15.0996 10.735 15.2346 10.6 15.3996 10.6C15.5646 10.6 15.6996 10.735 15.6996 10.9V11.8C15.6996 12.463 16.2366 13 16.8996 13C17.5626 13 18.0996 12.463 18.0996 11.8V8.8C18.0996 8.605 18.0516 8.422 17.9706 8.26C17.7726 7.867 17.3676 7.6 16.8996 7.6C16.2666 7.6 15.7506 8.086 15.7056 8.707L15.1026 8.824C15.0996 8.815 15.0996 8.809 15.0996 8.8C15.0996 7.807 15.9066 7 16.8996 7C17.6616 7 18.3126 7.474 18.5736 8.143C18.6546 8.347 18.6996 8.569 18.6996 8.8Z" fill="#547580"/>
</g>
<defs>
<clipPath id="clip0_4320_35005">
<rect width="18" height="18" fill="white" transform="translate(7 7)"/>
</clipPath>
</defs>
</svg>
