<svg width="32" height="32" viewBox="0 0 32 32" fill="none" xmlns="http://www.w3.org/2000/svg">
<rect x="0.5" y="0.5" width="31" height="31" rx="7.5" fill="white"/>
<rect x="0.5" y="0.5" width="31" height="31" rx="7.5" stroke="#E6E9EC"/>
<path d="M21.8906 12.862L21.8906 21.8813C21.8906 22.1431 21.8376 22.4023 21.7346 22.6441C21.6315 22.8859 21.4805 23.1057 21.2901 23.2907C21.0997 23.4758 20.8737 23.6226 20.625 23.7228C20.3762 23.823 20.1096 23.8745 19.8403 23.8745H12.1587C11.8894 23.8745 11.6228 23.823 11.3741 23.7228C11.1253 23.6226 10.8993 23.4758 10.7089 23.2907C10.5185 23.1057 10.3675 22.8859 10.2645 22.6441C10.1614 22.4023 10.1084 22.1431 10.1084 21.8813V10.1182C10.1084 9.85644 10.1614 9.59725 10.2645 9.35543C10.3675 9.1136 10.5185 8.89388 10.7089 8.70879C10.8993 8.52371 11.1253 8.37689 11.3741 8.27672C11.6228 8.17655 11.8894 8.125 12.1587 8.125L17.0423 8.12502L21.8906 12.862Z" fill="#FF0000"/>
<path d="M17.255 8.33301C16.8618 9.34505 15.952 10.8966 16.8694 12.2008C17.1078 12.5625 18.5598 13.1217 19.4711 13.4444C20.0527 13.6503 20.5312 14.2996 20.5312 14.9178L20.6075 20.9381C20.6075 22.0389 19.6902 22.9309 18.5578 22.9309H10.8762C10.7054 22.9309 10.5395 22.9099 10.3809 22.8716C10.7457 23.4915 11.4238 23.8741 12.1584 23.8748H19.84C20.9728 23.8751 21.8912 22.9822 21.8908 21.881V12.8614L17.255 8.33301Z" fill="#D40000"/>
<path d="M11.1682 9.34961C11.2452 9.3493 11.3192 9.37945 11.374 9.43347C11.4288 9.48749 11.4601 9.561 11.4609 9.63796V10.4557C11.461 10.4941 11.4536 10.5323 11.4389 10.5678C11.4243 10.6034 11.4027 10.6357 11.3755 10.6629C11.3483 10.6902 11.316 10.7117 11.2804 10.7264C11.2448 10.741 11.2067 10.7485 11.1682 10.7483C11.0913 10.7475 11.0178 10.7163 10.9637 10.6614C10.9097 10.6066 10.8796 10.5326 10.8799 10.4557V9.63796C10.8807 9.56174 10.9113 9.48887 10.9652 9.43497C11.0191 9.38108 11.092 9.35043 11.1682 9.34961Z" fill="white"/>
<path d="M11.1682 10.9424C11.2067 10.9422 11.2448 10.9497 11.2804 10.9644C11.316 10.979 11.3483 11.0006 11.3755 11.0278C11.4027 11.055 11.4243 11.0873 11.4389 11.1229C11.4536 11.1584 11.461 11.1966 11.4609 11.235V11.3555C11.4601 11.4325 11.4288 11.506 11.374 11.56C11.3192 11.6141 11.2452 11.6442 11.1682 11.6439C11.092 11.6431 11.0191 11.6124 10.9652 11.5585C10.9113 11.5046 10.8807 11.4318 10.8799 11.3555V11.235C10.8796 11.1581 10.9097 11.0841 10.9637 11.0293C11.0178 10.9745 11.0913 10.9432 11.1682 10.9424Z" fill="white"/>
<path d="M17.0421 8.125L16.405 10.6149C16.3626 10.7805 16.3558 10.9529 16.3849 11.1213C16.4141 11.2896 16.4786 11.4502 16.5744 11.593C16.6702 11.7358 16.7953 11.8576 16.9416 11.9508C17.088 12.0441 17.2526 12.1067 17.4249 12.1348L21.8905 12.8619L17.0421 8.125Z" fill="#FF8080"/>
<path d="M16.0119 14.3926C15.6726 14.3974 15.4364 14.6133 15.3219 14.7422C15.0561 15.041 15.044 15.4507 15.1328 15.8478C15.2217 16.2449 15.412 16.6677 15.6441 17.0958C15.6702 17.1439 15.699 17.1764 15.7261 17.2245C15.2593 18.074 14.6172 18.9989 14.0568 19.7365C13.3292 19.9094 12.6328 19.9943 12.2144 20.4652C11.864 20.8601 11.8397 21.4599 12.2144 21.8089C12.3773 21.952 12.6054 22.0245 12.8042 22.0275C12.9909 22.0254 13.1503 21.9722 13.2779 21.8943C13.7671 21.5957 14.0856 20.9615 14.4382 20.2284L17.2975 19.5623C17.7265 20.094 18.1729 20.6152 18.7049 20.7795C18.9516 20.8557 19.2121 20.8467 19.4451 20.7625C19.6781 20.6782 19.8958 20.5115 19.9951 20.2546C20.1683 19.7878 19.9773 19.2707 19.5305 19.0372C19.1836 18.8501 18.7514 18.8182 18.2699 18.8391C18.0239 18.8497 17.764 18.8761 17.5002 18.9142C17.1883 18.439 16.7686 17.8109 16.4025 17.1994C16.6172 16.7731 16.8038 16.3535 16.8841 15.9684C16.9739 15.5385 16.956 15.115 16.7122 14.7887C16.5373 14.5124 16.2705 14.3944 16.0119 14.3926ZM16.2465 15.1293C16.3525 15.2662 16.3886 15.4998 16.3159 15.8478C16.2756 16.0412 16.1389 16.3008 16.0404 16.5367C15.899 16.2455 15.7508 15.9468 15.6999 15.7192C15.6315 15.4136 15.6785 15.2442 15.7568 15.1293C15.8119 15.0394 15.8865 14.9844 15.9934 14.9782C16.1061 14.9719 16.1808 15.0446 16.2465 15.1293ZM16.07 17.7631C16.344 18.1997 16.6357 18.6538 16.8739 19.0225L14.9609 19.4871C15.3467 18.9018 15.7516 18.3045 16.07 17.7631ZM19.2515 19.5486C19.4618 19.6621 19.5251 19.8419 19.4485 20.0439C19.3765 20.2301 19.0298 20.2802 18.8769 20.225C18.6693 20.1609 18.3346 19.776 18.0285 19.4586C18.1132 19.4377 18.2161 19.4234 18.2961 19.4199C18.6039 19.4064 18.9643 19.4136 19.2515 19.5486ZM13.5352 20.5427C13.3328 20.8718 13.1048 21.3188 12.9716 21.4001C12.8399 21.4907 12.6878 21.4569 12.6106 21.3785C12.5039 21.2756 12.4855 21.0433 12.6539 20.8535C12.8255 20.6885 13.0706 20.6194 13.5352 20.5427Z" fill="white"/>
</svg>
