<svg width="16" height="16" viewBox="0 0 16 16" fill="none" xmlns="http://www.w3.org/2000/svg">
<path d="M3.87497 9.76754L2.1083 11.5359L4.46497 13.8925L13.8925 4.4642L11.5358 2.10837L9.76663 3.87504L10.9458 5.05337L9.76663 6.23337L8.5883 5.0542L7.40996 6.23337L8.5883 7.4117L7.40996 8.59004L6.23163 7.4117L5.05247 8.59004L6.23163 9.76837L5.05247 10.9475L3.87497 9.7667V9.76754ZM12.125 0.340037L15.66 3.87504C15.8162 4.03131 15.904 4.24323 15.904 4.4642C15.904 4.68517 15.8162 4.8971 15.66 5.05337L5.0533 15.66C4.89703 15.8163 4.6851 15.904 4.46413 15.904C4.24316 15.904 4.03124 15.8163 3.87497 15.66L0.339965 12.125C0.18374 11.9688 0.0959767 11.7568 0.0959767 11.5359C0.0959767 11.3149 0.18374 11.103 0.339965 10.9467L10.9466 0.340037C11.1029 0.183811 11.3148 0.0960481 11.5358 0.0960481C11.7568 0.0960481 11.9687 0.183811 12.125 0.340037ZM9.76663 13.3025L10.9458 12.1242L12.8141 13.9934H13.9925V12.815L12.1241 10.9459L13.3025 9.76754L15.5 11.9642V15.5H11.965L9.76746 13.3025H9.76663ZM2.69663 6.2317L0.339132 3.87504C0.261652 3.79764 0.200186 3.70574 0.158249 3.60457C0.116312 3.50341 0.0947266 3.39497 0.0947266 3.28545C0.0947266 3.17594 0.116312 3.0675 0.158249 2.96634C0.200186 2.86517 0.261652 2.77326 0.339132 2.69587L2.69663 0.339203C2.85291 0.182978 3.06483 0.0952148 3.2858 0.0952148C3.50677 0.0952148 3.71869 0.182978 3.87497 0.339203L6.2333 2.69587L5.0533 3.87504L3.2858 2.1067L2.10747 3.28587L3.87497 5.05254L2.69663 6.2317Z" fill="#E8244F"/>
</svg>
