<svg width="16" height="16" viewBox="0 0 16 16" fill="none" xmlns="http://www.w3.org/2000/svg">
<path d="M12.5248 11.4635L15.7348 14.6742L14.6743 15.7355L11.4643 12.5248C10.2686 13.4823 8.7818 14.0028 7.25 14C5.99251 14.0006 4.75988 13.6498 3.69112 12.9872C2.62235 12.3246 1.75998 11.3765 1.20125 10.25H5.75L4.772 11.8798C5.53402 12.2882 6.38543 12.5013 7.25 12.5C8.61532 12.5022 9.92741 11.9706 10.9063 11.0188L11.0188 10.9063C11.9706 9.92741 12.5022 8.61532 12.5 7.25C12.5 6.72875 12.4242 6.2255 12.2825 5.75H13.8328C13.9423 6.23225 14 6.73475 14 7.25C14.0026 8.78155 13.4821 10.2681 12.5248 11.4635ZM13.2988 4.25H8.75L9.728 2.62025C8.96598 2.21182 8.11458 1.99871 7.25 2C4.349 2 2 4.349 2 7.25C2 7.77125 2.07575 8.2745 2.2175 8.75H0.667251C0.555836 8.25779 0.499739 7.75467 0.500001 7.25C0.500001 3.52025 3.52025 0.500001 7.25 0.500001C8.50749 0.499444 9.74012 0.850244 10.8089 1.51284C11.8776 2.17543 12.74 3.12346 13.2988 4.25Z" fill="#E8244F"/>
</svg>
