<svg width="18" height="19" viewBox="0 0 18 19" fill="none" xmlns="http://www.w3.org/2000/svg">
<path d="M4.7865 4.976C5.98181 4.0183 7.46836 3.49756 9 3.5C10.5938 3.5 12.0585 4.052 13.2135 4.976L14.3033 3.88625L15.3638 4.94675L14.274 6.0365C15.0673 7.02961 15.564 8.22652 15.7071 9.48949C15.8502 10.7525 15.6337 12.0302 15.0827 13.1756C14.5317 14.3209 13.6685 15.2875 12.5924 15.9639C11.5163 16.6404 10.2711 16.9993 9 16.9993C7.72896 16.9993 6.48374 16.6404 5.40765 15.9639C4.33156 15.2875 3.46832 14.3209 2.9173 13.1756C2.36627 12.0302 2.14983 10.7525 2.2929 9.48949C2.43597 8.22652 2.93273 7.02961 3.726 6.0365L2.63625 4.9475L3.69675 3.887L4.7865 4.97675V4.976ZM9 15.5C9.68944 15.5 10.3721 15.3642 11.0091 15.1004C11.6461 14.8365 12.2248 14.4498 12.7123 13.9623C13.1998 13.4748 13.5865 12.896 13.8504 12.2591C14.1142 11.6221 14.25 10.9394 14.25 10.25C14.25 9.56056 14.1142 8.87787 13.8504 8.24091C13.5865 7.60395 13.1998 7.0252 12.7123 6.53769C12.2248 6.05018 11.6461 5.66347 11.0091 5.39963C10.3721 5.1358 9.68944 5 9 5C7.60762 5 6.27226 5.55312 5.28769 6.53769C4.30313 7.52226 3.75 8.85761 3.75 10.25C3.75 11.6424 4.30313 12.9777 5.28769 13.9623C6.27226 14.9469 7.60762 15.5 9 15.5ZM9.75 9.5H12L8.25 14.375V11H6L9.75 6.12125V9.5ZM6 1.25H12V2.75H6V1.25Z" fill="#1D242D"/>
</svg>
