<svg width="17" height="17" viewBox="0 0 17 17" fill="none" xmlns="http://www.w3.org/2000/svg">
<path d="M9.5 0.25L9.50075 2.5465C10.8224 2.71359 12.0509 3.31557 12.9929 4.25764C13.9348 5.1997 14.5366 6.42832 14.7035 7.75H17V9.25L14.7035 9.25075C14.5364 10.5723 13.9346 11.8007 12.9927 12.7427C12.0507 13.6846 10.8223 14.2864 9.50075 14.4535L9.5 16.75H8V14.4535C6.67832 14.2866 5.4497 13.6848 4.50764 12.7429C3.56557 11.8009 2.96359 10.5724 2.7965 9.25075L0.5 9.25V7.75H2.7965C2.96344 6.42821 3.56535 5.1995 4.50743 4.25743C5.4495 3.31535 6.67821 2.71344 8 2.5465V0.25H9.5ZM8.75 4C7.55653 4 6.41193 4.47411 5.56802 5.31802C4.72411 6.16193 4.25 7.30653 4.25 8.5C4.25 9.69347 4.72411 10.8381 5.56802 11.682C6.41193 12.5259 7.55653 13 8.75 13C9.94347 13 11.0881 12.5259 11.932 11.682C12.7759 10.8381 13.25 9.69347 13.25 8.5C13.25 7.30653 12.7759 6.16193 11.932 5.31802C11.0881 4.47411 9.94347 4 8.75 4ZM8.75 7C9.14782 7 9.52936 7.15804 9.81066 7.43934C10.092 7.72064 10.25 8.10218 10.25 8.5C10.25 8.89782 10.092 9.27936 9.81066 9.56066C9.52936 9.84196 9.14782 10 8.75 10C8.35218 10 7.97064 9.84196 7.68934 9.56066C7.40804 9.27936 7.25 8.89782 7.25 8.5C7.25 8.10218 7.40804 7.72064 7.68934 7.43934C7.97064 7.15804 8.35218 7 8.75 7Z" fill="#E8244F"/>
</svg>
