<svg width="18" height="18" viewBox="0 0 18 18" fill="none" xmlns="http://www.w3.org/2000/svg">
<path d="M9.00104 17.3341C4.39814 17.3341 0.666992 13.603 0.666992 9.00006C0.666992 4.39717 4.39814 0.666016 9.00104 0.666016C13.6039 0.666016 17.3351 4.39717 17.3351 9.00006C17.3351 13.603 13.6039 17.3341 9.00104 17.3341ZM9.00104 15.6673C10.7693 15.6673 12.4651 14.9649 13.7155 13.7145C14.9658 12.4642 15.6683 10.7683 15.6683 9.00006C15.6683 7.2318 14.9658 5.53596 13.7155 4.28561C12.4651 3.03526 10.7693 2.33282 9.00104 2.33282C7.23278 2.33282 5.53694 3.03526 4.28659 4.28561C3.03624 5.53596 2.3338 7.2318 2.3338 9.00006C2.3338 10.7683 3.03624 12.4642 4.28659 13.7145C5.53694 14.9649 7.23278 15.6673 9.00104 15.6673ZM9.83444 9.00006H13.1681V10.6669H8.16763V4.83304H9.83444V9.00006Z" fill="#B2BBC6"/>
</svg>
