<svg width="48" height="48" viewBox="0 0 48 48" fill="none" xmlns="http://www.w3.org/2000/svg">
<rect width="48" height="48" rx="8" fill="#313949"/>
<g clip-path="url(#clip0_1182_8748)">
<g opacity="0.9">
<path d="M28.5 31.2C26.5 31.2 24.6 30.4 23.2 29L19.1 24.8C18.6 24.3 18.3 23.7 18.3 23C18.3 22.3 18.6 21.7 19.1 21.2C19.5 20.8 20.2 20.5 20.9 20.5C21.6 20.5 22.2 20.8 22.7 21.3L26.6 25.2C27 25.6 27.8 25.6 28.2 25.2C28.4 25 28.5 24.7 28.5 24.4C28.5 24.1 28.4 23.8 28.2 23.6L24 19.3C22.7 18.1 21.2 17.5 19.6 17.5C17.9 17.5 16.4 18.1 15.2 19.3C14 20.5 13.4 22.1 13.4 23.7C13.5 25.3 14.1 26.9 15.2 28C16.3 29.1 17.9 29.8 19.5 29.8C20.1 29.8 20.7 29.7 21.3 29.5C21.7 29.4 22.1 29.6 22.2 30C22.3 30.4 22.1 30.8 21.7 30.9C21.1 31.2 20.4 31.2 19.6 31.2C17.6 31.2 15.7 30.4 14.3 29.1C12.8 27.7 12.1 25.8 12 23.8C12 22.7 12.2 21.7 12.6 20.8C13 19.9 13.5 19 14.1 18.3C14.7 17.6 15.6 17 16.5 16.7C17.4 16.3 18.5 16.1 19.5 16.1C21.5 16.1 23.4 16.9 24.8 18.3L29 22.4C29.5 22.9 29.8 23.5 29.8 24.2C29.8 24.9 29.5 25.5 29 26C28 27 26.3 27 25.4 26L21.5 22.3C21.1 21.9 20.3 21.9 19.9 22.3C19.7 22.4 19.6 22.8 19.6 23.1C19.6 23.4 19.7 23.7 19.9 23.9L24.1 28.1C25.2 29.2 26.8 29.9 28.5 29.9C30.2 29.9 31.7 29.3 32.9 28.1C34 27 34.7 25.4 34.7 23.7C34.7 22 34 20.4 32.8 19.3C31.7 18.2 30.1 17.5 28.4 17.5C27.9 17.5 27.3 17.6 26.8 17.7C26.7 17.7 26.7 17.8 26.6 17.8C26.2 17.9 25.8 17.7 25.7 17.3C25.6 16.9 25.8 16.5 26.2 16.4C26.3 16.4 26.4 16.3 26.5 16.3C27.2 16.1 27.8 16 28.4 16C29.4 16 30.4 16.2 31.4 16.6C32.3 17 33.1 17.5 33.8 18.2C34.5 18.9 35.1 19.7 35.4 20.6C35.8 21.5 36 22.6 36 23.6C36 25.6 35.2 27.5 33.8 29C32.5 30.5 30.6 31.2 28.5 31.2Z" fill="white"/>
</g>
</g>
<defs>
<clipPath id="clip0_1182_8748">
<rect width="24" height="15.2" fill="white" transform="translate(12 16)"/>
</clipPath>
</defs>
</svg>
